<svg viewBox="0 0 330 200" xmlns="http://www.w3.org/2000/svg"><g><g><g><g><g><line x1="61.953125" y1="177" x2="56.953125" y2="177" style="visibility: inherit;" fill="rgb(0, 0, 0)" stroke="rgb(204, 204, 204)" stroke-width="1px"></line><line x1="61.953125" y1="154.875" x2="56.953125" y2="154.875" style="visibility: inherit;" fill="rgb(0, 0, 0)" stroke="rgb(204, 204, 204)" stroke-width="1px"></line><line x1="61.953125" y1="132.75" x2="56.953125" y2="132.75" style="visibility: inherit;" fill="rgb(0, 0, 0)" stroke="rgb(204, 204, 204)" stroke-width="1px"></line><line x1="61.953125" y1="110.62500000000001" x2="56.953125" y2="110.62500000000001" style="visibility: inherit;" fill="rgb(0, 0, 0)" stroke="rgb(204, 204, 204)" stroke-width="1px"></line><line x1="61.953125" y1="88.5" x2="56.953125" y2="88.5" style="visibility: inherit;" fill="rgb(0, 0, 0)" stroke="rgb(204, 204, 204)" stroke-width="1px"></line><line x1="61.953125" y1="66.37500000000001" x2="56.953125" y2="66.37500000000001" style="visibility: inherit;" fill="rgb(0, 0, 0)" stroke="rgb(204, 204, 204)" stroke-width="1px"></line><line x1="61.953125" y1="44.25" x2="56.953125" y2="44.25" style="visibility: inherit;" fill="rgb(0, 0, 0)" stroke="rgb(204, 204, 204)" stroke-width="1px"></line><line x1="61.953125" y1="22.12500000000002" x2="56.953125" y2="22.12500000000002" style="visibility: inherit;" fill="rgb(0, 0, 0)" stroke="rgb(204, 204, 204)" stroke-width="1px"></line><line x1="61.953125" y1="0" x2="56.953125" y2="0" style="visibility: inherit;" fill="rgb(0, 0, 0)" stroke="rgb(204, 204, 204)" stroke-width="1px"></line></g><g transform="translate(51.953125, 0)"><text x="0" y="177" dx="0em" dy="0.3em" style="text-anchor: end; visibility: hidden; font-family: Roboto, sans-serif; font-size: 12px; font-weight: 200;" fill="rgb(33, 33, 33)" stroke="none" stroke-width="1px">6e-3</text><text x="0" y="154.875" dx="0em" dy="0.3em" style="text-anchor: end; visibility: inherit; font-family: Roboto, sans-serif; font-size: 12px; font-weight: 200;" fill="rgb(33, 33, 33)" stroke="none" stroke-width="1px">7e-3</text><text x="0" y="132.75" dx="0em" dy="0.3em" style="text-anchor: end; visibility: hidden; font-family: Roboto, sans-serif; font-size: 12px; font-weight: 200;" fill="rgb(33, 33, 33)" stroke="none" stroke-width="1px">8e-3</text><text x="0" y="110.62500000000001" dx="0em" dy="0.3em" style="text-anchor: end; visibility: inherit; font-family: Roboto, sans-serif; font-size: 12px; font-weight: 200;" fill="rgb(33, 33, 33)" stroke="none" stroke-width="1px">9e-3</text><text x="0" y="88.5" dx="0em" dy="0.3em" style="text-anchor: end; visibility: hidden; font-family: Roboto, sans-serif; font-size: 12px; font-weight: 200;" fill="rgb(33, 33, 33)" stroke="none" stroke-width="1px">0.01</text><text x="0" y="66.37500000000001" dx="0em" dy="0.3em" style="text-anchor: end; visibility: inherit; font-family: Roboto, sans-serif; font-size: 12px; font-weight: 200;" fill="rgb(33, 33, 33)" stroke="none" stroke-width="1px">0.011</text><text x="0" y="44.25" dx="0em" dy="0.3em" style="text-anchor: end; visibility: hidden; font-family: Roboto, sans-serif; font-size: 12px; font-weight: 200;" fill="rgb(33, 33, 33)" stroke="none" stroke-width="1px">0.012</text><text x="0" y="22.12500000000002" dx="0em" dy="0.3em" style="text-anchor: end; visibility: inherit; font-family: Roboto, sans-serif; font-size: 12px; font-weight: 200;" fill="rgb(33, 33, 33)" stroke="none" stroke-width="1px">0.013</text><text x="0" y="0" dx="0em" dy="0.3em" style="text-anchor: end; visibility: hidden; font-family: Roboto, sans-serif; font-size: 12px; font-weight: 200;" fill="rgb(33, 33, 33)" stroke="none" stroke-width="1px">0.014</text></g><line x1="61.953125" y1="0" x2="61.953125" y2="177" fill="rgb(0, 0, 0)" stroke="rgb(204, 204, 204)" stroke-width="1px"></line></g></g><g transform="translate(61, 0)" clip-path="url(#clip_0)"><clipPath id="clip_0"><rect width="268" height="177"></rect></clipPath><g><g><g><line x1="0" y1="0" x2="0" y2="177" fill="rgb(0, 0, 0)" stroke="rgb(66, 66, 66)" stroke-width="1px" opacity="0.25"></line><line x1="22.337239583333332" y1="0" x2="22.337239583333332" y2="177" fill="rgb(0, 0, 0)" stroke="rgb(66, 66, 66)" stroke-width="1px" opacity="0.25"></line><line x1="44.674479166666664" y1="0" x2="44.674479166666664" y2="177" fill="rgb(0, 0, 0)" stroke="rgb(66, 66, 66)" stroke-width="1px" opacity="0.25"></line><line x1="67.01171875" y1="0" x2="67.01171875" y2="177" fill="rgb(0, 0, 0)" stroke="rgb(66, 66, 66)" stroke-width="1px" opacity="0.25"></line><line x1="89.34895833333333" y1="0" x2="89.34895833333333" y2="177" fill="rgb(0, 0, 0)" stroke="rgb(66, 66, 66)" stroke-width="1px" opacity="0.25"></line><line x1="111.68619791666667" y1="0" x2="111.68619791666667" y2="177" fill="rgb(0, 0, 0)" stroke="rgb(66, 66, 66)" stroke-width="1px" opacity="0.25"></line><line x1="134.0234375" y1="0" x2="134.0234375" y2="177" fill="rgb(0, 0, 0)" stroke="rgb(66, 66, 66)" stroke-width="1px" opacity="0.25"></line><line x1="156.36067708333334" y1="0" x2="156.36067708333334" y2="177" fill="rgb(0, 0, 0)" stroke="rgb(66, 66, 66)" stroke-width="1px" opacity="0.25"></line><line x1="178.69791666666666" y1="0" x2="178.69791666666666" y2="177" fill="rgb(0, 0, 0)" stroke="rgb(66, 66, 66)" stroke-width="1px" opacity="0.25"></line><line x1="201.03515625" y1="0" x2="201.03515625" y2="177" fill="rgb(0, 0, 0)" stroke="rgb(66, 66, 66)" stroke-width="1px" opacity="0.25"></line><line x1="223.37239583333334" y1="0" x2="223.37239583333334" y2="177" fill="rgb(0, 0, 0)" stroke="rgb(66, 66, 66)" stroke-width="1px" opacity="0.25"></line><line x1="245.70963541666666" y1="0" x2="245.70963541666666" y2="177" fill="rgb(0, 0, 0)" stroke="rgb(66, 66, 66)" stroke-width="1px" opacity="0.25"></line><line x1="268.046875" y1="0" x2="268.046875" y2="177" fill="rgb(0, 0, 0)" stroke="rgb(66, 66, 66)" stroke-width="1px" opacity="0.25"></line></g><g><line x1="0" y1="177" x2="268.046875" y2="177" fill="rgb(0, 0, 0)" stroke="rgb(66, 66, 66)" stroke-width="1px" opacity="0.25"></line><line x1="0" y1="154.875" x2="268.046875" y2="154.875" fill="rgb(0, 0, 0)" stroke="rgb(66, 66, 66)" stroke-width="1px" opacity="0.25"></line><line x1="0" y1="132.75" x2="268.046875" y2="132.75" fill="rgb(0, 0, 0)" stroke="rgb(66, 66, 66)" stroke-width="1px" opacity="0.25"></line><line x1="0" y1="110.62500000000001" x2="268.046875" y2="110.62500000000001" fill="rgb(0, 0, 0)" stroke="rgb(66, 66, 66)" stroke-width="1px" opacity="0.25"></line><line x1="0" y1="88.5" x2="268.046875" y2="88.5" fill="rgb(0, 0, 0)" stroke="rgb(66, 66, 66)" stroke-width="1px" opacity="0.25"></line><line x1="0" y1="66.37500000000001" x2="268.046875" y2="66.37500000000001" fill="rgb(0, 0, 0)" stroke="rgb(66, 66, 66)" stroke-width="1px" opacity="0.25"></line><line x1="0" y1="44.25" x2="268.046875" y2="44.25" fill="rgb(0, 0, 0)" stroke="rgb(66, 66, 66)" stroke-width="1px" opacity="0.25"></line><line x1="0" y1="22.12500000000002" x2="268.046875" y2="22.12500000000002" fill="rgb(0, 0, 0)" stroke="rgb(66, 66, 66)" stroke-width="1px" opacity="0.25"></line><line x1="0" y1="0" x2="268.046875" y2="0" fill="rgb(0, 0, 0)" stroke="rgb(66, 66, 66)" stroke-width="1px" opacity="0.25"></line></g></g></g><g><g><line x1="0" y1="309.75" x2="268.046875" y2="309.75" fill="rgb(0, 0, 0)" stroke="rgb(153, 153, 153)" stroke-width="1.5px"></line></g></g><g><g><line x1="22.337239583333332" y1="0" x2="22.337239583333332" y2="177" fill="rgb(0, 0, 0)" stroke="rgb(153, 153, 153)" stroke-width="1.5px"></line></g></g><g><g><g><g><g><path stroke="rgb(255, 112, 67)" stroke-width="2px" d="M26.000546875,-118.08256428083413L27.876875,4.427985439609221L29.663854166666667,84.3456803311642L31.540182291666667,114.17269778906419L33.327161458333336,158.4146445915473L35.20348958333333,167.46107742024955L36.990468750000005,155.57259492575935L38.866796875,137.99785259932705L40.65377604166667,170.49610669258342L42.53010416666667,180.59764455349796L44.317083333333336,185.88555688662962L46.19341145833334,162.41255760323082L47.980390625,145.89872097654393L49.85671875,162.03509045357237L51.64369791666667,135.6783526990265L53.52002604166667,74.19946704383865L55.30700520833334,134.36755833615652L57.18333333333334,121.27724392842262L58.9703125,144.59812115495515L60.846640625,119.24385837938291L62.63361979166667,126.56679231227147L64.50994791666666,104.77371984794645L66.29692708333333,120.34876378752315L68.17325520833334,109.13090420541587L69.960234375,136.541568726255L71.74721354166667,151.6988842138281L73.62354166666667,132.806716409717L75.41052083333334,116.30707827045272L77.28684895833334,85.51209392336764L79.07382812499999,105.22492353172692L80.95015624999999,82.57163339451196L82.73713541666666,80.03042178630204L84.61346354166666,52.31731653178377L86.40044270833334,80.87003980615253L88.27677083333333,55.358903939006765L90.06375,31.329455997785395L91.94007812500001,70.1010263385033L93.72705729166667,91.94738071118199L95.60338541666667,69.057248464649L97.39036458333334,66.3035167822061L99.26669270833334,84.69750669925365L101.053671875,96.99320238671947L102.93,104.21659771607638L104.71697916666666,77.06623685006994L106.59330729166666,85.24208211216482L108.38028645833333,55.168059542398716L110.25661458333333,93.31521093591778L112.04359375,98.2751279808935L113.919921875,96.57954489514984L115.70690104166665,101.06141880313696L117.49388020833334,106.8603847088693L119.37020833333334,109.7935038879433L121.1571875,92.98311105964326L123.033515625,106.27932623572136L124.82049479166668,105.9236588022677L126.69682291666668,97.03267557347024L128.48380208333333,60.20922030164813L130.36013020833335,64.51478894854527L132.14710937499999,56.637255698397034L134.0234375,74.99214833376122L135.81041666666667,85.1879105215361L137.68674479166668,22.090653655384727L139.47372395833332,48.360411211076425L141.35005208333334,43.66775921499616L143.13703125,63.922931674217516L145.01335937500002,53.075371444580156L146.80033854166666,82.22083289197518L148.67666666666665,55.45416273338455L150.46364583333335,55.18545023970519L152.33997395833333,64.51967125086615L154.126953125,60.54218494265451L156.00328125,80.46411056738596L157.79026041666665,84.82090383944815L159.66658854166667,89.02697814138476L161.45356770833334,72.89624668699052L163.240546875,91.27081941987007L165.116875,92.64290273815348L166.9038541666667,101.27073765139255L168.78018229166668,99.68262429514809L170.56716145833332,89.21480671751075L172.44348958333333,17.91673653684599L174.23046875,30.714182895720274L176.10679687500001,46.58677871587887L177.89377604166665,47.56950810104919L179.77010416666667,40.735169342460075L181.55708333333334,44.29223370927679L183.43341145833332,37.8650304682738L185.220390625,67.70340215609589L187.09671874999998,54.557149584270206L188.88369791666668,67.66293652142686L190.76002604166666,48.220388097900766L192.54700520833333,28.0264766660861L194.42333333333335,42.922876262145124L196.2103125,33.3210055371981L198.086640625,27.017809777907235L199.87361979166667,18.891178913832714L201.74994791666668,-5.783185422169581L203.53692708333332,21.52993660919522L205.41325520833334,29.971261170522254L207.200234375,7.353424258241594L208.98721354166665,10.08309973311994L210.86354166666666,20.84670712520224L212.65052083333333,26.031327288043734L214.52684895833335,49.623846402059336L216.31382812500001,25.863443783843746L218.19015624999997,35.61454408395246L219.97713541666667,49.21269543373856L221.85346354166666,58.33143220188782L223.64044270833335,65.48988655115703L225.51677083333334,60.412847005757904L227.30374999999998,56.41111271995798L229.180078125,50.959772274902434L230.96705729166666,59.029401087618446L232.84338541666668,74.47026634557939L234.63036458333332,47.427593185939756L236.50669270833333,22.02741805728576L238.293671875,15.706928092338432L240.17000000000002,30.08919019734726L241.95697916666666,41.156707026725215L243.83330729166664,33.65550590420674L245.62028645833334,29.018500374569975" style="fill: none;" fill="none"></path></g></g></g></g><g opacity="0.2"><g><g><g><path stroke="rgb(255, 112, 67)" stroke-width="2px" d="M26.000546875,-73.00542086921632L27.876875,122.03811317123473L29.663854166666667,178.32888952363282L31.540182291666667,153.1148517820984L33.327161458333336,219.61718412023038L35.20348958333333,180.39762110821903L36.990468750000005,138.2390733193606L38.866796875,112.07852138578892L40.65377604166667,218.7522265445441L44.317083333333336,193.78864880092442L46.19341145833334,127.27970209345222L47.980390625,121.16031836159527L49.85671875,186.22067697253078L51.64369791666667,96.16183488070965L53.52002604166667,-17.992845634929836L55.30700520833334,224.60441860277206L57.18333333333334,101.64376649446785L58.9703125,179.5773053742014L60.846640625,81.21385470405221L62.63361979166667,137.55095224734396L64.50994791666666,72.08454141765833L66.29692708333333,143.71114519564435L68.17325520833334,92.30419456399977L69.960234375,177.6574486135505L71.74721354166667,174.43481866177171L73.62354166666667,104.46849370747805L75.41052083333334,91.557636260055L77.28684895833334,39.319634422659874L79.07382812499999,134.794161407277L80.95015624999999,48.591702695935965L82.73713541666666,76.21860467735678L84.61346354166666,10.74766063503921L86.40044270833334,123.69912349060178L88.27677083333333,17.09220079611987L90.06375,-4.714715542271733L91.94007812500001,128.25838148966432L93.72705729166667,124.71691214852035L95.60338541666667,34.72205017134547L97.39036458333334,62.17291926406324L99.26669270833334,112.28849155269563L101.053671875,115.43674590904266L102.93,115.05169070698321L104.71697916666666,36.34069555811584L106.59330729166666,97.50585000403225L108.38028645833333,10.057025690563023L110.25661458333333,150.5359380240552L112.04359375,105.71500354819L113.919921875,94.03617026656866L115.70690104166665,107.78422966506332L117.49388020833334,115.55883356742561L119.37020833333334,114.19318265654147L121.1571875,67.76752181723714L123.033515625,126.22364899981767L124.82049479166668,105.39015765208751L126.69682291666668,83.69620073027909L128.48380208333333,4.974037393927574L130.36013020833335,70.97314191889018L132.14710937499999,44.82095582317561L134.0234375,102.5244872868061L135.81041666666667,100.48155380319804L137.68674479166668,-72.55523164384067L139.47372395833332,87.76504754461348L141.35005208333334,36.62878122087568L143.13703125,94.30569036304951L145.01335937500002,36.80403110012412L146.80033854166666,125.93902506306767L148.67666666666665,15.304157495498657L150.46364583333335,54.78238149918616L152.33997395833333,78.52100276760757L154.126953125,54.57595548033714L156.00328125,110.34699900448322L157.79026041666665,91.35609374754131L159.66658854166667,95.33608959428966L161.45356770833334,48.70014950539917L163.240546875,118.83267851918936L165.116875,94.70102771557868L166.9038541666667,114.21249002125114L168.78018229166668,97.30045426078141L170.56716145833332,73.51308035105467L172.44348958333333,-89.03036873415112L174.23046875,49.910352434031665L176.10679687500001,70.3956724461168L177.89377604166665,49.043602178804576L179.77010416666667,30.483661204576492L181.55708333333334,49.627830259501934L183.43341145833332,28.224225606769323L185.220390625,112.46095968782902L187.09671874999998,34.837770726531744L188.88369791666668,87.32161692716181L190.76002604166666,19.056565462611616L192.54700520833333,-2.264390481635928L194.42333333333335,65.26747565623373L196.2103125,18.918199449777603L198.086640625,17.563016138970852L199.87361979166667,6.701232617720962L201.74994791666668,-42.79473192617297L203.53692708333332,62.49961965624243L205.41325520833334,42.63324801251292L207.200234375,-26.573331110179424L208.98721354166665,14.177612945437431L210.86354166666666,36.99211821332574L212.65052083333333,33.808257532306015L214.52684895833335,85.01262507308275L216.31382812500001,-9.777160143479705L218.19015624999997,50.24119453411549L219.97713541666667,69.60992245841771L221.85346354166666,72.00953735411167L223.64044270833335,76.22756807506084L225.51677083333334,52.797287687659264L227.30374999999998,50.40851129125804L229.180078125,42.78276160731912L230.96705729166666,71.13384430669248L232.84338541666668,97.63156423252076L234.63036458333332,6.863583446480334L236.50669270833333,-16.07284463569522L238.293671875,6.226193144917488L240.17000000000002,51.662583354860544L241.95697916666666,57.75798227079213L243.83330729166664,22.403704220429063L245.62028645833334,22.062992080114782" style="fill: none;" fill="none"></path></g></g></g></g></g></g><g transform="translate(61, 177)" clip-path="url(#clip_1)"><clipPath id="clip_1"><rect width="268" height="23"></rect></clipPath><g><g><line x1="0" y1="0" x2="0" y2="5" style="visibility: inherit;" fill="rgb(0, 0, 0)" stroke="rgb(204, 204, 204)" stroke-width="1px"></line><line x1="22.337239583333332" y1="0" x2="22.337239583333332" y2="5" style="visibility: inherit;" fill="rgb(0, 0, 0)" stroke="rgb(204, 204, 204)" stroke-width="1px"></line><line x1="44.674479166666664" y1="0" x2="44.674479166666664" y2="5" style="visibility: inherit;" fill="rgb(0, 0, 0)" stroke="rgb(204, 204, 204)" stroke-width="1px"></line><line x1="67.01171875" y1="0" x2="67.01171875" y2="5" style="visibility: inherit;" fill="rgb(0, 0, 0)" stroke="rgb(204, 204, 204)" stroke-width="1px"></line><line x1="89.34895833333333" y1="0" x2="89.34895833333333" y2="5" style="visibility: inherit;" fill="rgb(0, 0, 0)" stroke="rgb(204, 204, 204)" stroke-width="1px"></line><line x1="111.68619791666667" y1="0" x2="111.68619791666667" y2="5" style="visibility: inherit;" fill="rgb(0, 0, 0)" stroke="rgb(204, 204, 204)" stroke-width="1px"></line><line x1="134.0234375" y1="0" x2="134.0234375" y2="5" style="visibility: inherit;" fill="rgb(0, 0, 0)" stroke="rgb(204, 204, 204)" stroke-width="1px"></line><line x1="156.36067708333334" y1="0" x2="156.36067708333334" y2="5" style="visibility: inherit;" fill="rgb(0, 0, 0)" stroke="rgb(204, 204, 204)" stroke-width="1px"></line><line x1="178.69791666666666" y1="0" x2="178.69791666666666" y2="5" style="visibility: inherit;" fill="rgb(0, 0, 0)" stroke="rgb(204, 204, 204)" stroke-width="1px"></line><line x1="201.03515625" y1="0" x2="201.03515625" y2="5" style="visibility: inherit;" fill="rgb(0, 0, 0)" stroke="rgb(204, 204, 204)" stroke-width="1px"></line><line x1="223.37239583333334" y1="0" x2="223.37239583333334" y2="5" style="visibility: inherit;" fill="rgb(0, 0, 0)" stroke="rgb(204, 204, 204)" stroke-width="1px"></line><line x1="245.70963541666666" y1="0" x2="245.70963541666666" y2="5" style="visibility: inherit;" fill="rgb(0, 0, 0)" stroke="rgb(204, 204, 204)" stroke-width="1px"></line><line x1="268.046875" y1="0" x2="268.046875" y2="5" style="visibility: inherit;" fill="rgb(0, 0, 0)" stroke="rgb(204, 204, 204)" stroke-width="1px"></line></g><g transform="translate(0, 8)"><text x="0" y="0" dx="0em" dy="0.95em" style="text-anchor: middle; visibility: hidden; font-family: Roboto, sans-serif; font-size: 12px; font-weight: 200;" fill="rgb(33, 33, 33)" stroke="none" stroke-width="1px">-200k</text><text x="22.337239583333332" y="0" dx="0em" dy="0.95em" style="text-anchor: middle; visibility: inherit; font-family: Roboto, sans-serif; font-size: 12px; font-weight: 200;" fill="rgb(33, 33, 33)" stroke="none" stroke-width="1px">0</text><text x="44.674479166666664" y="0" dx="0em" dy="0.95em" style="text-anchor: middle; visibility: hidden; font-family: Roboto, sans-serif; font-size: 12px; font-weight: 200;" fill="rgb(33, 33, 33)" stroke="none" stroke-width="1px">200k</text><text x="67.01171875" y="0" dx="0em" dy="0.95em" style="text-anchor: middle; visibility: inherit; font-family: Roboto, sans-serif; font-size: 12px; font-weight: 200;" fill="rgb(33, 33, 33)" stroke="none" stroke-width="1px">400k</text><text x="89.34895833333333" y="0" dx="0em" dy="0.95em" style="text-anchor: middle; visibility: hidden; font-family: Roboto, sans-serif; font-size: 12px; font-weight: 200;" fill="rgb(33, 33, 33)" stroke="none" stroke-width="1px">600k</text><text x="111.68619791666667" y="0" dx="0em" dy="0.95em" style="text-anchor: middle; visibility: inherit; font-family: Roboto, sans-serif; font-size: 12px; font-weight: 200;" fill="rgb(33, 33, 33)" stroke="none" stroke-width="1px">800k</text><text x="134.0234375" y="0" dx="0em" dy="0.95em" style="text-anchor: middle; visibility: hidden; font-family: Roboto, sans-serif; font-size: 12px; font-weight: 200;" fill="rgb(33, 33, 33)" stroke="none" stroke-width="1px">1M</text><text x="156.36067708333334" y="0" dx="0em" dy="0.95em" style="text-anchor: middle; visibility: inherit; font-family: Roboto, sans-serif; font-size: 12px; font-weight: 200;" fill="rgb(33, 33, 33)" stroke="none" stroke-width="1px">1.2M</text><text x="178.69791666666666" y="0" dx="0em" dy="0.95em" style="text-anchor: middle; visibility: hidden; font-family: Roboto, sans-serif; font-size: 12px; font-weight: 200;" fill="rgb(33, 33, 33)" stroke="none" stroke-width="1px">1.4M</text><text x="201.03515625" y="0" dx="0em" dy="0.95em" style="text-anchor: middle; visibility: inherit; font-family: Roboto, sans-serif; font-size: 12px; font-weight: 200;" fill="rgb(33, 33, 33)" stroke="none" stroke-width="1px">1.6M</text><text x="223.37239583333334" y="0" dx="0em" dy="0.95em" style="text-anchor: middle; visibility: hidden; font-family: Roboto, sans-serif; font-size: 12px; font-weight: 200;" fill="rgb(33, 33, 33)" stroke="none" stroke-width="1px">1.8M</text><text x="245.70963541666666" y="0" dx="0em" dy="0.95em" style="text-anchor: middle; visibility: inherit; font-family: Roboto, sans-serif; font-size: 12px; font-weight: 200;" fill="rgb(33, 33, 33)" stroke="none" stroke-width="1px">2M</text><text x="268.046875" y="0" dx="0em" dy="0.95em" style="text-anchor: middle; visibility: hidden; font-family: Roboto, sans-serif; font-size: 12px; font-weight: 200;" fill="rgb(33, 33, 33)" stroke="none" stroke-width="1px">2.2M</text></g><line x1="0" y1="0" x2="268.046875" y2="0" fill="rgb(0, 0, 0)" stroke="rgb(204, 204, 204)" stroke-width="1px"></line></g></g></g></g></svg>