<svg viewBox="0 0 330 200" xmlns="http://www.w3.org/2000/svg"><g><g><g><g><g><line x1="51.5625" y1="177" x2="46.5625" y2="177" style="visibility: inherit;" fill="rgb(0, 0, 0)" stroke="rgb(204, 204, 204)" stroke-width="1px"></line><line x1="51.5625" y1="162.24999999999977" x2="46.5625" y2="162.24999999999977" style="visibility: inherit;" fill="rgb(0, 0, 0)" stroke="rgb(204, 204, 204)" stroke-width="1px"></line><line x1="51.5625" y1="147.50000000000009" x2="46.5625" y2="147.50000000000009" style="visibility: inherit;" fill="rgb(0, 0, 0)" stroke="rgb(204, 204, 204)" stroke-width="1px"></line><line x1="51.5625" y1="132.7499999999999" x2="46.5625" y2="132.7499999999999" style="visibility: inherit;" fill="rgb(0, 0, 0)" stroke="rgb(204, 204, 204)" stroke-width="1px"></line><line x1="51.5625" y1="117.99999999999966" x2="46.5625" y2="117.99999999999966" style="visibility: inherit;" fill="rgb(0, 0, 0)" stroke="rgb(204, 204, 204)" stroke-width="1px"></line><line x1="51.5625" y1="103.24999999999994" x2="46.5625" y2="103.24999999999994" style="visibility: inherit;" fill="rgb(0, 0, 0)" stroke="rgb(204, 204, 204)" stroke-width="1px"></line><line x1="51.5625" y1="88.49999999999974" x2="46.5625" y2="88.49999999999974" style="visibility: inherit;" fill="rgb(0, 0, 0)" stroke="rgb(204, 204, 204)" stroke-width="1px"></line><line x1="51.5625" y1="73.75000000000006" x2="46.5625" y2="73.75000000000006" style="visibility: inherit;" fill="rgb(0, 0, 0)" stroke="rgb(204, 204, 204)" stroke-width="1px"></line><line x1="51.5625" y1="58.99999999999983" x2="46.5625" y2="58.99999999999983" style="visibility: inherit;" fill="rgb(0, 0, 0)" stroke="rgb(204, 204, 204)" stroke-width="1px"></line><line x1="51.5625" y1="44.24999999999961" x2="46.5625" y2="44.24999999999961" style="visibility: inherit;" fill="rgb(0, 0, 0)" stroke="rgb(204, 204, 204)" stroke-width="1px"></line><line x1="51.5625" y1="29.499999999999915" x2="46.5625" y2="29.499999999999915" style="visibility: inherit;" fill="rgb(0, 0, 0)" stroke="rgb(204, 204, 204)" stroke-width="1px"></line><line x1="51.5625" y1="14.749999999999693" x2="46.5625" y2="14.749999999999693" style="visibility: inherit;" fill="rgb(0, 0, 0)" stroke="rgb(204, 204, 204)" stroke-width="1px"></line><line x1="51.5625" y1="0" x2="46.5625" y2="0" style="visibility: inherit;" fill="rgb(0, 0, 0)" stroke="rgb(204, 204, 204)" stroke-width="1px"></line></g><g transform="translate(41.5625, 0)"><text x="0" y="177" dx="0em" dy="0.3em" style="text-anchor: end; visibility: hidden; font-family: Roboto, sans-serif; font-size: 12px; font-weight: 200;" fill="rgb(33, 33, 33)" stroke="none" stroke-width="1px">28.2</text><text x="0" y="162.24999999999977" dx="0em" dy="0.3em" style="text-anchor: end; visibility: inherit; font-family: Roboto, sans-serif; font-size: 12px; font-weight: 200;" fill="rgb(33, 33, 33)" stroke="none" stroke-width="1px">28.3</text><text x="0" y="147.50000000000009" dx="0em" dy="0.3em" style="text-anchor: end; visibility: hidden; font-family: Roboto, sans-serif; font-size: 12px; font-weight: 200;" fill="rgb(33, 33, 33)" stroke="none" stroke-width="1px">28.4</text><text x="0" y="132.7499999999999" dx="0em" dy="0.3em" style="text-anchor: end; visibility: inherit; font-family: Roboto, sans-serif; font-size: 12px; font-weight: 200;" fill="rgb(33, 33, 33)" stroke="none" stroke-width="1px">28.5</text><text x="0" y="117.99999999999966" dx="0em" dy="0.3em" style="text-anchor: end; visibility: hidden; font-family: Roboto, sans-serif; font-size: 12px; font-weight: 200;" fill="rgb(33, 33, 33)" stroke="none" stroke-width="1px">28.6</text><text x="0" y="103.24999999999994" dx="0em" dy="0.3em" style="text-anchor: end; visibility: inherit; font-family: Roboto, sans-serif; font-size: 12px; font-weight: 200;" fill="rgb(33, 33, 33)" stroke="none" stroke-width="1px">28.7</text><text x="0" y="88.49999999999974" dx="0em" dy="0.3em" style="text-anchor: end; visibility: hidden; font-family: Roboto, sans-serif; font-size: 12px; font-weight: 200;" fill="rgb(33, 33, 33)" stroke="none" stroke-width="1px">28.8</text><text x="0" y="73.75000000000006" dx="0em" dy="0.3em" style="text-anchor: end; visibility: inherit; font-family: Roboto, sans-serif; font-size: 12px; font-weight: 200;" fill="rgb(33, 33, 33)" stroke="none" stroke-width="1px">28.9</text><text x="0" y="58.99999999999983" dx="0em" dy="0.3em" style="text-anchor: end; visibility: hidden; font-family: Roboto, sans-serif; font-size: 12px; font-weight: 200;" fill="rgb(33, 33, 33)" stroke="none" stroke-width="1px">29</text><text x="0" y="44.24999999999961" dx="0em" dy="0.3em" style="text-anchor: end; visibility: inherit; font-family: Roboto, sans-serif; font-size: 12px; font-weight: 200;" fill="rgb(33, 33, 33)" stroke="none" stroke-width="1px">29.1</text><text x="0" y="29.499999999999915" dx="0em" dy="0.3em" style="text-anchor: end; visibility: hidden; font-family: Roboto, sans-serif; font-size: 12px; font-weight: 200;" fill="rgb(33, 33, 33)" stroke="none" stroke-width="1px">29.2</text><text x="0" y="14.749999999999693" dx="0em" dy="0.3em" style="text-anchor: end; visibility: inherit; font-family: Roboto, sans-serif; font-size: 12px; font-weight: 200;" fill="rgb(33, 33, 33)" stroke="none" stroke-width="1px">29.3</text><text x="0" y="0" dx="0em" dy="0.3em" style="text-anchor: end; visibility: hidden; font-family: Roboto, sans-serif; font-size: 12px; font-weight: 200;" fill="rgb(33, 33, 33)" stroke="none" stroke-width="1px">29.4</text></g><line x1="51.5625" y1="0" x2="51.5625" y2="177" fill="rgb(0, 0, 0)" stroke="rgb(204, 204, 204)" stroke-width="1px"></line></g></g><g transform="translate(51, 0)" clip-path="url(#clip_0)"><clipPath id="clip_0"><rect width="278" height="177"></rect></clipPath><g><g><g><line x1="0" y1="0" x2="0" y2="177" fill="rgb(0, 0, 0)" stroke="rgb(66, 66, 66)" stroke-width="1px" opacity="0.25"></line><line x1="23.203125" y1="0" x2="23.203125" y2="177" fill="rgb(0, 0, 0)" stroke="rgb(66, 66, 66)" stroke-width="1px" opacity="0.25"></line><line x1="46.40625" y1="0" x2="46.40625" y2="177" fill="rgb(0, 0, 0)" stroke="rgb(66, 66, 66)" stroke-width="1px" opacity="0.25"></line><line x1="69.609375" y1="0" x2="69.609375" y2="177" fill="rgb(0, 0, 0)" stroke="rgb(66, 66, 66)" stroke-width="1px" opacity="0.25"></line><line x1="92.8125" y1="0" x2="92.8125" y2="177" fill="rgb(0, 0, 0)" stroke="rgb(66, 66, 66)" stroke-width="1px" opacity="0.25"></line><line x1="116.015625" y1="0" x2="116.015625" y2="177" fill="rgb(0, 0, 0)" stroke="rgb(66, 66, 66)" stroke-width="1px" opacity="0.25"></line><line x1="139.21875" y1="0" x2="139.21875" y2="177" fill="rgb(0, 0, 0)" stroke="rgb(66, 66, 66)" stroke-width="1px" opacity="0.25"></line><line x1="162.421875" y1="0" x2="162.421875" y2="177" fill="rgb(0, 0, 0)" stroke="rgb(66, 66, 66)" stroke-width="1px" opacity="0.25"></line><line x1="185.625" y1="0" x2="185.625" y2="177" fill="rgb(0, 0, 0)" stroke="rgb(66, 66, 66)" stroke-width="1px" opacity="0.25"></line><line x1="208.828125" y1="0" x2="208.828125" y2="177" fill="rgb(0, 0, 0)" stroke="rgb(66, 66, 66)" stroke-width="1px" opacity="0.25"></line><line x1="232.03125" y1="0" x2="232.03125" y2="177" fill="rgb(0, 0, 0)" stroke="rgb(66, 66, 66)" stroke-width="1px" opacity="0.25"></line><line x1="255.234375" y1="0" x2="255.234375" y2="177" fill="rgb(0, 0, 0)" stroke="rgb(66, 66, 66)" stroke-width="1px" opacity="0.25"></line><line x1="278.4375" y1="0" x2="278.4375" y2="177" fill="rgb(0, 0, 0)" stroke="rgb(66, 66, 66)" stroke-width="1px" opacity="0.25"></line></g><g><line x1="0" y1="177" x2="278.4375" y2="177" fill="rgb(0, 0, 0)" stroke="rgb(66, 66, 66)" stroke-width="1px" opacity="0.25"></line><line x1="0" y1="162.24999999999977" x2="278.4375" y2="162.24999999999977" fill="rgb(0, 0, 0)" stroke="rgb(66, 66, 66)" stroke-width="1px" opacity="0.25"></line><line x1="0" y1="147.50000000000009" x2="278.4375" y2="147.50000000000009" fill="rgb(0, 0, 0)" stroke="rgb(66, 66, 66)" stroke-width="1px" opacity="0.25"></line><line x1="0" y1="132.7499999999999" x2="278.4375" y2="132.7499999999999" fill="rgb(0, 0, 0)" stroke="rgb(66, 66, 66)" stroke-width="1px" opacity="0.25"></line><line x1="0" y1="117.99999999999966" x2="278.4375" y2="117.99999999999966" fill="rgb(0, 0, 0)" stroke="rgb(66, 66, 66)" stroke-width="1px" opacity="0.25"></line><line x1="0" y1="103.24999999999994" x2="278.4375" y2="103.24999999999994" fill="rgb(0, 0, 0)" stroke="rgb(66, 66, 66)" stroke-width="1px" opacity="0.25"></line><line x1="0" y1="88.49999999999974" x2="278.4375" y2="88.49999999999974" fill="rgb(0, 0, 0)" stroke="rgb(66, 66, 66)" stroke-width="1px" opacity="0.25"></line><line x1="0" y1="73.75000000000006" x2="278.4375" y2="73.75000000000006" fill="rgb(0, 0, 0)" stroke="rgb(66, 66, 66)" stroke-width="1px" opacity="0.25"></line><line x1="0" y1="58.99999999999983" x2="278.4375" y2="58.99999999999983" fill="rgb(0, 0, 0)" stroke="rgb(66, 66, 66)" stroke-width="1px" opacity="0.25"></line><line x1="0" y1="44.24999999999961" x2="278.4375" y2="44.24999999999961" fill="rgb(0, 0, 0)" stroke="rgb(66, 66, 66)" stroke-width="1px" opacity="0.25"></line><line x1="0" y1="29.499999999999915" x2="278.4375" y2="29.499999999999915" fill="rgb(0, 0, 0)" stroke="rgb(66, 66, 66)" stroke-width="1px" opacity="0.25"></line><line x1="0" y1="14.749999999999693" x2="278.4375" y2="14.749999999999693" fill="rgb(0, 0, 0)" stroke="rgb(66, 66, 66)" stroke-width="1px" opacity="0.25"></line><line x1="0" y1="0" x2="278.4375" y2="0" fill="rgb(0, 0, 0)" stroke="rgb(66, 66, 66)" stroke-width="1px" opacity="0.25"></line></g></g></g><g><g><line x1="0" y1="4336.500000000003" x2="278.4375" y2="4336.500000000003" fill="rgb(0, 0, 0)" stroke="rgb(153, 153, 153)" stroke-width="1.5px"></line></g></g><g><g><line x1="23.203125" y1="0" x2="23.203125" y2="177" fill="rgb(0, 0, 0)" stroke="rgb(153, 153, 153)" stroke-width="1.5px"></line></g></g><g><g><g><g><g><path stroke="rgb(255, 112, 67)" stroke-width="2px" d="M34.6190625,184.5566945396736L36.568125,114.52508043305373L38.424375000000005,38.571442367983394L40.373437499999994,-2.088626339838777L42.229687500000004,16.785770018123472L44.17875,45.841147900670336L46.035,20.75593429171966L47.9840625,37.80468064668982L49.840312499999996,45.14443132283947L51.789375,59.8014547402373L53.645625,68.69796890650164L55.5946875,74.13714395484575L57.4509375,88.46503385592491L59.400000000000006,87.75318042728341L61.25625,79.59813337984122L63.205312500000005,75.98483073132529L65.0615625,78.84642888623L67.010625,89.9120512419086L68.866875,76.31638667587487L70.8159375,68.02567650730713L72.6721875,61.87641302350715L74.5284375,76.53232796321714L76.4775,55.260930346147404L78.33375,37.29218276679574L80.2828125,19.432912981145364L82.1390625,19.598563499746952L84.08812499999999,35.824915834729964L85.944375,46.58455687193172L87.89343749999999,68.13852046153055L89.74968750000001,32.35747842207034L91.69874999999999,35.79061967227182L93.555,6.357309624750289L95.5040625,28.28359514581744L97.3603125,4.4760274720712205L99.309375,32.1022516520072L101.165625,21.41267773433996L103.1146875,57.391454314167596L104.9709375,82.70628220274384L106.92,71.02970231828114L108.77625,82.91791561522695L110.7253125,72.7346280763864L112.5815625,55.40562135812289L114.530625,79.02767800644351L116.38687499999999,90.79314374555304L118.3359375,73.91090631250196L120.19218749999999,65.84250364158811L122.0484375,70.1928663817427L123.9975,83.44932235287233L125.85375,65.06381376387742L127.8028125,85.6240575301903L129.6590625,76.20408883024413L131.608125,78.79901770549577L133.464375,84.83312308667664L135.41343750000001,122.77114841865937L137.2696875,98.5897974343729L139.21875,83.77568327019357L141.07500000000002,75.73526775020169L143.0240625,74.69968611703989L144.8803125,71.60957569305069L146.829375,64.65875154986418L148.68562500000002,55.93143524083151L150.6346875,43.06594465585159L152.4909375,44.064175787041684L154.44,49.2643870487627L156.29625000000001,40.63454623072239L158.2453125,29.417415207915877L160.1015625,50.587021771844306L162.050625,53.90888763891175L163.906875,77.11706071750278L165.8559375,52.00080588850941L167.71218750000003,48.9575155460448L169.5684375,50.590035526967526L171.51749999999998,50.891645293841904L173.37375,72.26369506204705L175.3228125,91.8946431999477L177.1790625,64.31290820390389L179.12812499999998,64.32543260544773L180.984375,49.32963418179841L182.9334375,62.189775366866755L184.78968749999999,76.79629052834764L186.73874999999998,78.97405994628119L188.595,57.633903436030565L190.5440625,43.80192790756542L192.40031249999998,51.56961041885591L194.34937499999998,80.03905972360332L196.205625,94.68077645610975L198.1546875,91.96791411585298L200.0109375,89.03098116604515L201.96,82.30147711210229L203.81625,83.92567615373613L205.7653125,64.26637790598683L207.6215625,63.56334542034983L209.570625,63.25428456544237L211.426875,63.82327310132548L213.3759375,56.02601342134208L215.2321875,79.57175200422111L217.0884375,107.90284467482275L219.0375,135.5896010920032L220.89375,155.30488065031918L222.8428125,141.07116119353608L224.69906250000003,158.56399531536488L226.648125,160.05464703663077L228.504375,149.71627477898576L230.4534375,133.46377861556056L232.30968750000002,148.8875033143556L234.25875000000002,158.95107956429703L236.11499999999998,145.30732910454483L238.0640625,171.44145427119878L239.9203125,157.19160100205016L241.86937500000002,147.07330868472624L243.72562499999998,117.53807128566457L245.6746875,100.07001684366452L247.5309375,108.68523062621789L249.48000000000002,108.12369941088701L251.33624999999998,130.38746007927165L253.28531249999997,128.68849983601507L255.1415625,132.56253341906506" style="fill: none;" fill="none"></path></g></g></g></g><g opacity="0.2"><g><g><g><path stroke="rgb(255, 112, 67)" stroke-width="2px" d="M28.9575,339.4910469055176L30.81375,45.447863578796195L32.7628125,-4.3797502517702425L34.6190625,21.614941596984675L36.568125,14.378751754760545L38.424375000000005,-72.16969108581569L40.373437499999994,-62.054329872131596L42.229687500000004,44.812048912048155L44.17875,89.16068458557113L46.035,-16.735373497009512L47.9840625,63.32213306426985L49.840312499999996,56.13967800140364L51.789375,81.7697610855101L53.645625,82.03646564483627L55.5946875,82.29360485076887L57.4509375,109.953230857849L59.400000000000006,86.68550872802717L61.25625,67.3663082122801L63.205312500000005,70.56507492065413L65.0615625,83.13873195648178L67.010625,106.51026630401597L68.866875,55.92305088043195L70.8159375,55.589670181274236L72.6721875,52.65254402160627L74.5284375,98.5161628723143L76.4775,23.353866577148242L78.33375,10.339077949523716L80.2828125,-7.355981826782423L82.1390625,19.84703922271709L84.08812499999999,60.16444110870343L85.944375,62.724017143249334L87.89343749999999,100.46946430206283L89.74968750000001,-21.31408309936547L91.69874999999999,40.94033145904523L93.555,-37.79265499115015L95.5040625,61.17302322387679L97.3603125,-31.23532390594506L99.309375,73.54158782958969L101.165625,5.378316879272245L103.1146875,111.35961914062484L104.9709375,120.67852401733384L106.92,53.514832496642896L108.77625,100.750235557556L110.7253125,57.459696769714185L112.5815625,29.412111282348437L114.530625,114.46076297759996L116.38687499999999,108.44134235382066L118.3359375,48.58755016326885L120.19218749999999,53.73989963531476L122.0484375,76.7184104919432L123.9975,103.33400630950912L125.85375,37.48555088043194L127.8028125,116.46442317962632L129.6590625,62.074135780334295L131.608125,82.69141101837143L133.464375,93.88428115844711L135.41343750000001,179.67818641662586L137.2696875,62.31777095794661L139.21875,61.55451202392562L141.07500000000002,63.67464447021468L143.0240625,73.14631366729719L144.8803125,66.9744100570677L146.829375,54.23251533508283L148.68562500000002,42.84046077728253L150.6346875,23.767708778381145L152.4909375,45.5615224838255L154.44,57.064703941345044L156.29625000000001,27.689785003661925L158.2453125,12.591718673705845L160.1015625,82.34143161773665L162.050625,58.891686439513975L163.906875,111.92932033538803L165.8559375,14.326423645019334L167.71218750000003,44.39258003234845L169.5684375,53.03881549835188L171.51749999999998,51.34405994415266L173.37375,104.32176971435533L175.3228125,121.34106540679917L177.1790625,22.940305709838672L179.12812499999998,64.3442192077635L180.984375,26.835936546325495L182.9334375,81.47998714447004L184.78968749999999,98.70606327056869L186.73874999999998,82.240714073181L188.595,25.623668670654094L190.5440625,23.053964614867976L192.40031249999998,63.22113418579084L194.34937499999998,122.74323368072497L196.205625,116.64335155487046L198.1546875,87.8986206054686L200.0109375,84.62558174133285L201.96,72.20722103118881L203.81625,86.36197471618637L205.7653125,34.777430534362594L207.6215625,62.508796691894354L209.570625,62.79069328308088L211.426875,64.6767559051512L213.3759375,44.330123901367L215.2321875,114.8903598785399L217.0884375,150.39948368072496L219.0375,177.11973571777335L220.89375,184.87779998779288L222.8428125,119.72058200836167L224.69906250000003,184.8032464981078L226.648125,162.29062461853016L228.504375,134.20871639251698L230.4534375,109.0850343704222L232.30968750000002,172.02309036254874L234.25875000000002,174.04644393920887L236.11499999999998,124.84170341491685L238.0640625,210.6426420211791L239.9203125,135.8168210983275L241.86937500000002,131.89587020874012L243.72562499999998,73.2352151870726L245.6746875,73.86793518066389L247.5309375,121.6080513000487L249.48000000000002,107.28140258789047L251.33624999999998,163.78310108184803L253.28531249999997,126.14005947113023L255.1415625,138.37358379364002" style="fill: none;" fill="none"></path></g></g></g></g></g><g><g opacity="0.831357"><span fill="rgb(0, 0, 0)" stroke="none" stroke-width="1px">Alt + Scroll to Zoom</span></g></g></g><g transform="translate(51, 177)" clip-path="url(#clip_1)"><clipPath id="clip_1"><rect width="278" height="23"></rect></clipPath><g><g><line x1="0" y1="0" x2="0" y2="5" style="visibility: inherit;" fill="rgb(0, 0, 0)" stroke="rgb(204, 204, 204)" stroke-width="1px"></line><line x1="23.203125" y1="0" x2="23.203125" y2="5" style="visibility: inherit;" fill="rgb(0, 0, 0)" stroke="rgb(204, 204, 204)" stroke-width="1px"></line><line x1="46.40625" y1="0" x2="46.40625" y2="5" style="visibility: inherit;" fill="rgb(0, 0, 0)" stroke="rgb(204, 204, 204)" stroke-width="1px"></line><line x1="69.609375" y1="0" x2="69.609375" y2="5" style="visibility: inherit;" fill="rgb(0, 0, 0)" stroke="rgb(204, 204, 204)" stroke-width="1px"></line><line x1="92.8125" y1="0" x2="92.8125" y2="5" style="visibility: inherit;" fill="rgb(0, 0, 0)" stroke="rgb(204, 204, 204)" stroke-width="1px"></line><line x1="116.015625" y1="0" x2="116.015625" y2="5" style="visibility: inherit;" fill="rgb(0, 0, 0)" stroke="rgb(204, 204, 204)" stroke-width="1px"></line><line x1="139.21875" y1="0" x2="139.21875" y2="5" style="visibility: inherit;" fill="rgb(0, 0, 0)" stroke="rgb(204, 204, 204)" stroke-width="1px"></line><line x1="162.421875" y1="0" x2="162.421875" y2="5" style="visibility: inherit;" fill="rgb(0, 0, 0)" stroke="rgb(204, 204, 204)" stroke-width="1px"></line><line x1="185.625" y1="0" x2="185.625" y2="5" style="visibility: inherit;" fill="rgb(0, 0, 0)" stroke="rgb(204, 204, 204)" stroke-width="1px"></line><line x1="208.828125" y1="0" x2="208.828125" y2="5" style="visibility: inherit;" fill="rgb(0, 0, 0)" stroke="rgb(204, 204, 204)" stroke-width="1px"></line><line x1="232.03125" y1="0" x2="232.03125" y2="5" style="visibility: inherit;" fill="rgb(0, 0, 0)" stroke="rgb(204, 204, 204)" stroke-width="1px"></line><line x1="255.234375" y1="0" x2="255.234375" y2="5" style="visibility: inherit;" fill="rgb(0, 0, 0)" stroke="rgb(204, 204, 204)" stroke-width="1px"></line><line x1="278.4375" y1="0" x2="278.4375" y2="5" style="visibility: inherit;" fill="rgb(0, 0, 0)" stroke="rgb(204, 204, 204)" stroke-width="1px"></line></g><g transform="translate(0, 8)"><text x="0" y="0" dx="0em" dy="0.95em" style="text-anchor: middle; visibility: hidden; font-family: Roboto, sans-serif; font-size: 12px; font-weight: 200;" fill="rgb(33, 33, 33)" stroke="none" stroke-width="1px">-200k</text><text x="23.203125" y="0" dx="0em" dy="0.95em" style="text-anchor: middle; visibility: inherit; font-family: Roboto, sans-serif; font-size: 12px; font-weight: 200;" fill="rgb(33, 33, 33)" stroke="none" stroke-width="1px">0</text><text x="46.40625" y="0" dx="0em" dy="0.95em" style="text-anchor: middle; visibility: hidden; font-family: Roboto, sans-serif; font-size: 12px; font-weight: 200;" fill="rgb(33, 33, 33)" stroke="none" stroke-width="1px">200k</text><text x="69.609375" y="0" dx="0em" dy="0.95em" style="text-anchor: middle; visibility: inherit; font-family: Roboto, sans-serif; font-size: 12px; font-weight: 200;" fill="rgb(33, 33, 33)" stroke="none" stroke-width="1px">400k</text><text x="92.8125" y="0" dx="0em" dy="0.95em" style="text-anchor: middle; visibility: hidden; font-family: Roboto, sans-serif; font-size: 12px; font-weight: 200;" fill="rgb(33, 33, 33)" stroke="none" stroke-width="1px">600k</text><text x="116.015625" y="0" dx="0em" dy="0.95em" style="text-anchor: middle; visibility: inherit; font-family: Roboto, sans-serif; font-size: 12px; font-weight: 200;" fill="rgb(33, 33, 33)" stroke="none" stroke-width="1px">800k</text><text x="139.21875" y="0" dx="0em" dy="0.95em" style="text-anchor: middle; visibility: hidden; font-family: Roboto, sans-serif; font-size: 12px; font-weight: 200;" fill="rgb(33, 33, 33)" stroke="none" stroke-width="1px">1M</text><text x="162.421875" y="0" dx="0em" dy="0.95em" style="text-anchor: middle; visibility: inherit; font-family: Roboto, sans-serif; font-size: 12px; font-weight: 200;" fill="rgb(33, 33, 33)" stroke="none" stroke-width="1px">1.2M</text><text x="185.625" y="0" dx="0em" dy="0.95em" style="text-anchor: middle; visibility: hidden; font-family: Roboto, sans-serif; font-size: 12px; font-weight: 200;" fill="rgb(33, 33, 33)" stroke="none" stroke-width="1px">1.4M</text><text x="208.828125" y="0" dx="0em" dy="0.95em" style="text-anchor: middle; visibility: inherit; font-family: Roboto, sans-serif; font-size: 12px; font-weight: 200;" fill="rgb(33, 33, 33)" stroke="none" stroke-width="1px">1.6M</text><text x="232.03125" y="0" dx="0em" dy="0.95em" style="text-anchor: middle; visibility: hidden; font-family: Roboto, sans-serif; font-size: 12px; font-weight: 200;" fill="rgb(33, 33, 33)" stroke="none" stroke-width="1px">1.8M</text><text x="255.234375" y="0" dx="0em" dy="0.95em" style="text-anchor: middle; visibility: inherit; font-family: Roboto, sans-serif; font-size: 12px; font-weight: 200;" fill="rgb(33, 33, 33)" stroke="none" stroke-width="1px">2M</text><text x="278.4375" y="0" dx="0em" dy="0.95em" style="text-anchor: middle; visibility: hidden; font-family: Roboto, sans-serif; font-size: 12px; font-weight: 200;" fill="rgb(33, 33, 33)" stroke="none" stroke-width="1px">2.2M</text></g><line x1="0" y1="0" x2="278.4375" y2="0" fill="rgb(0, 0, 0)" stroke="rgb(204, 204, 204)" stroke-width="1px"></line></g></g></g></g></svg>