<svg viewBox="0 0 330 200" xmlns="http://www.w3.org/2000/svg"><g><g><g><g><g><line x1="51.5625" y1="177" x2="46.5625" y2="177" style="visibility: inherit;" fill="rgb(0, 0, 0)" stroke="rgb(204, 204, 204)" stroke-width="1px"></line><line x1="51.5625" y1="157.33333333333331" x2="46.5625" y2="157.33333333333331" style="visibility: inherit;" fill="rgb(0, 0, 0)" stroke="rgb(204, 204, 204)" stroke-width="1px"></line><line x1="51.5625" y1="137.66666666666666" x2="46.5625" y2="137.66666666666666" style="visibility: inherit;" fill="rgb(0, 0, 0)" stroke="rgb(204, 204, 204)" stroke-width="1px"></line><line x1="51.5625" y1="118.00000000000001" x2="46.5625" y2="118.00000000000001" style="visibility: inherit;" fill="rgb(0, 0, 0)" stroke="rgb(204, 204, 204)" stroke-width="1px"></line><line x1="51.5625" y1="98.33333333333334" x2="46.5625" y2="98.33333333333334" style="visibility: inherit;" fill="rgb(0, 0, 0)" stroke="rgb(204, 204, 204)" stroke-width="1px"></line><line x1="51.5625" y1="78.66666666666666" x2="46.5625" y2="78.66666666666666" style="visibility: inherit;" fill="rgb(0, 0, 0)" stroke="rgb(204, 204, 204)" stroke-width="1px"></line><line x1="51.5625" y1="59.00000000000001" x2="46.5625" y2="59.00000000000001" style="visibility: inherit;" fill="rgb(0, 0, 0)" stroke="rgb(204, 204, 204)" stroke-width="1px"></line><line x1="51.5625" y1="39.33333333333333" x2="46.5625" y2="39.33333333333333" style="visibility: inherit;" fill="rgb(0, 0, 0)" stroke="rgb(204, 204, 204)" stroke-width="1px"></line><line x1="51.5625" y1="19.666666666666675" x2="46.5625" y2="19.666666666666675" style="visibility: inherit;" fill="rgb(0, 0, 0)" stroke="rgb(204, 204, 204)" stroke-width="1px"></line><line x1="51.5625" y1="0" x2="46.5625" y2="0" style="visibility: inherit;" fill="rgb(0, 0, 0)" stroke="rgb(204, 204, 204)" stroke-width="1px"></line></g><g transform="translate(41.5625, 0)"><text x="0" y="177" dx="0em" dy="0.3em" style="text-anchor: end; visibility: hidden; font-family: Roboto, sans-serif; font-size: 12px; font-weight: 200;" fill="rgb(33, 33, 33)" stroke="none" stroke-width="1px">12</text><text x="0" y="157.33333333333331" dx="0em" dy="0.3em" style="text-anchor: end; visibility: inherit; font-family: Roboto, sans-serif; font-size: 12px; font-weight: 200;" fill="rgb(33, 33, 33)" stroke="none" stroke-width="1px">12.5</text><text x="0" y="137.66666666666666" dx="0em" dy="0.3em" style="text-anchor: end; visibility: hidden; font-family: Roboto, sans-serif; font-size: 12px; font-weight: 200;" fill="rgb(33, 33, 33)" stroke="none" stroke-width="1px">13</text><text x="0" y="118.00000000000001" dx="0em" dy="0.3em" style="text-anchor: end; visibility: inherit; font-family: Roboto, sans-serif; font-size: 12px; font-weight: 200;" fill="rgb(33, 33, 33)" stroke="none" stroke-width="1px">13.5</text><text x="0" y="98.33333333333334" dx="0em" dy="0.3em" style="text-anchor: end; visibility: hidden; font-family: Roboto, sans-serif; font-size: 12px; font-weight: 200;" fill="rgb(33, 33, 33)" stroke="none" stroke-width="1px">14</text><text x="0" y="78.66666666666666" dx="0em" dy="0.3em" style="text-anchor: end; visibility: inherit; font-family: Roboto, sans-serif; font-size: 12px; font-weight: 200;" fill="rgb(33, 33, 33)" stroke="none" stroke-width="1px">14.5</text><text x="0" y="59.00000000000001" dx="0em" dy="0.3em" style="text-anchor: end; visibility: hidden; font-family: Roboto, sans-serif; font-size: 12px; font-weight: 200;" fill="rgb(33, 33, 33)" stroke="none" stroke-width="1px">15</text><text x="0" y="39.33333333333333" dx="0em" dy="0.3em" style="text-anchor: end; visibility: inherit; font-family: Roboto, sans-serif; font-size: 12px; font-weight: 200;" fill="rgb(33, 33, 33)" stroke="none" stroke-width="1px">15.5</text><text x="0" y="19.666666666666675" dx="0em" dy="0.3em" style="text-anchor: end; visibility: hidden; font-family: Roboto, sans-serif; font-size: 12px; font-weight: 200;" fill="rgb(33, 33, 33)" stroke="none" stroke-width="1px">16</text><text x="0" y="0" dx="0em" dy="0.3em" style="text-anchor: end; visibility: hidden; font-family: Roboto, sans-serif; font-size: 12px; font-weight: 200;" fill="rgb(33, 33, 33)" stroke="none" stroke-width="1px">16.5</text></g><line x1="51.5625" y1="0" x2="51.5625" y2="177" fill="rgb(0, 0, 0)" stroke="rgb(204, 204, 204)" stroke-width="1px"></line></g></g><g transform="translate(51, 0)" clip-path="url(#clip_0)"><clipPath id="clip_0"><rect width="278" height="177"></rect></clipPath><g><g><g><line x1="0" y1="0" x2="0" y2="177" fill="rgb(0, 0, 0)" stroke="rgb(66, 66, 66)" stroke-width="1px" opacity="0.25"></line><line x1="23.203125" y1="0" x2="23.203125" y2="177" fill="rgb(0, 0, 0)" stroke="rgb(66, 66, 66)" stroke-width="1px" opacity="0.25"></line><line x1="46.40625" y1="0" x2="46.40625" y2="177" fill="rgb(0, 0, 0)" stroke="rgb(66, 66, 66)" stroke-width="1px" opacity="0.25"></line><line x1="69.609375" y1="0" x2="69.609375" y2="177" fill="rgb(0, 0, 0)" stroke="rgb(66, 66, 66)" stroke-width="1px" opacity="0.25"></line><line x1="92.8125" y1="0" x2="92.8125" y2="177" fill="rgb(0, 0, 0)" stroke="rgb(66, 66, 66)" stroke-width="1px" opacity="0.25"></line><line x1="116.015625" y1="0" x2="116.015625" y2="177" fill="rgb(0, 0, 0)" stroke="rgb(66, 66, 66)" stroke-width="1px" opacity="0.25"></line><line x1="139.21875" y1="0" x2="139.21875" y2="177" fill="rgb(0, 0, 0)" stroke="rgb(66, 66, 66)" stroke-width="1px" opacity="0.25"></line><line x1="162.421875" y1="0" x2="162.421875" y2="177" fill="rgb(0, 0, 0)" stroke="rgb(66, 66, 66)" stroke-width="1px" opacity="0.25"></line><line x1="185.625" y1="0" x2="185.625" y2="177" fill="rgb(0, 0, 0)" stroke="rgb(66, 66, 66)" stroke-width="1px" opacity="0.25"></line><line x1="208.828125" y1="0" x2="208.828125" y2="177" fill="rgb(0, 0, 0)" stroke="rgb(66, 66, 66)" stroke-width="1px" opacity="0.25"></line><line x1="232.03125" y1="0" x2="232.03125" y2="177" fill="rgb(0, 0, 0)" stroke="rgb(66, 66, 66)" stroke-width="1px" opacity="0.25"></line><line x1="255.234375" y1="0" x2="255.234375" y2="177" fill="rgb(0, 0, 0)" stroke="rgb(66, 66, 66)" stroke-width="1px" opacity="0.25"></line><line x1="278.4375" y1="0" x2="278.4375" y2="177" fill="rgb(0, 0, 0)" stroke="rgb(66, 66, 66)" stroke-width="1px" opacity="0.25"></line></g><g><line x1="0" y1="177" x2="278.4375" y2="177" fill="rgb(0, 0, 0)" stroke="rgb(66, 66, 66)" stroke-width="1px" opacity="0.25"></line><line x1="0" y1="157.33333333333331" x2="278.4375" y2="157.33333333333331" fill="rgb(0, 0, 0)" stroke="rgb(66, 66, 66)" stroke-width="1px" opacity="0.25"></line><line x1="0" y1="137.66666666666666" x2="278.4375" y2="137.66666666666666" fill="rgb(0, 0, 0)" stroke="rgb(66, 66, 66)" stroke-width="1px" opacity="0.25"></line><line x1="0" y1="118.00000000000001" x2="278.4375" y2="118.00000000000001" fill="rgb(0, 0, 0)" stroke="rgb(66, 66, 66)" stroke-width="1px" opacity="0.25"></line><line x1="0" y1="98.33333333333334" x2="278.4375" y2="98.33333333333334" fill="rgb(0, 0, 0)" stroke="rgb(66, 66, 66)" stroke-width="1px" opacity="0.25"></line><line x1="0" y1="78.66666666666666" x2="278.4375" y2="78.66666666666666" fill="rgb(0, 0, 0)" stroke="rgb(66, 66, 66)" stroke-width="1px" opacity="0.25"></line><line x1="0" y1="59.00000000000001" x2="278.4375" y2="59.00000000000001" fill="rgb(0, 0, 0)" stroke="rgb(66, 66, 66)" stroke-width="1px" opacity="0.25"></line><line x1="0" y1="39.33333333333333" x2="278.4375" y2="39.33333333333333" fill="rgb(0, 0, 0)" stroke="rgb(66, 66, 66)" stroke-width="1px" opacity="0.25"></line><line x1="0" y1="19.666666666666675" x2="278.4375" y2="19.666666666666675" fill="rgb(0, 0, 0)" stroke="rgb(66, 66, 66)" stroke-width="1px" opacity="0.25"></line><line x1="0" y1="0" x2="278.4375" y2="0" fill="rgb(0, 0, 0)" stroke="rgb(66, 66, 66)" stroke-width="1px" opacity="0.25"></line></g></g></g><g><g><line x1="0" y1="649" x2="278.4375" y2="649" fill="rgb(0, 0, 0)" stroke="rgb(153, 153, 153)" stroke-width="1.5px"></line></g></g><g><g><line x1="23.203125" y1="0" x2="23.203125" y2="177" fill="rgb(0, 0, 0)" stroke="rgb(153, 153, 153)" stroke-width="1.5px"></line></g></g><g><g><g><g><g><path stroke="rgb(255, 112, 67)" stroke-width="2px" d="M28.9575,235.50147781891076L30.81375,174.42583031981601L32.7628125,153.05605314838485L34.6190625,141.73136458045207L36.568125,25.605642231686215L38.424375000000005,86.85915478460586L40.373437499999994,66.21851179823672L42.229687500000004,57.96742578642868L44.17875,39.87666251837272L46.035,86.68074949039325L47.9840625,87.98791929817111L49.840312499999996,41.955256348230286L51.789375,60.12078747786397L53.645625,78.96361131350115L55.5946875,64.50928618357739L57.4509375,48.27032618894156L59.400000000000006,36.362427837307436L61.25625,59.989497201562415L63.205312500000005,98.45323884496551L65.0615625,149.99590459793217L67.010625,101.66147557149787L68.866875,94.4434784402668L70.8159375,105.46703596630061L72.6721875,33.958142709839834L74.5284375,51.44146083192323L76.4775,79.04528590655816L78.33375,46.368953835995455L80.2828125,52.63187478479846L82.1390625,61.800526284395964L84.08812499999999,64.05192671845505L85.944375,23.5980893206769L87.89343749999999,9.636534161629438L89.74968750000001,41.60317170772099L91.69874999999999,20.918826741135778L93.555,60.830763302180685L95.5040625,44.835649948689536L97.3603125,45.68457809162916L99.309375,67.04358456053106L101.165625,58.80302730645089L103.1146875,27.586140709668275L104.9709375,42.72531215640924L106.92,100.39720919511275L108.77625,98.29560319629255L110.7253125,105.2238574829863L112.5815625,128.60681026906843L114.530625,98.94356308948599L116.38687499999999,121.91355606689167L118.3359375,85.7108111504217L120.19218749999999,93.44850207114993L122.0484375,107.35503009608328L123.9975,75.33357571547158L125.85375,29.84708553340204L127.8028125,114.99214693980501L129.6590625,109.00487322654344L131.608125,96.62606795854695L133.464375,67.3947155330181L135.41343750000001,29.971867568505704L137.2696875,47.040038367438875L139.21875,66.50678796390467L141.07500000000002,39.99971130780199L143.0240625,50.627069826673534L144.8803125,81.71041013941255L146.829375,98.04078236904795L148.68562500000002,62.697724833212554L150.6346875,78.57788325197838L152.4909375,81.67995138673396L154.44,65.86060805941663L156.29625000000001,55.14904814456925L158.2453125,21.581205925315757L160.1015625,65.62858322519274L162.050625,77.34471585308432L163.906875,113.72652631971195L165.8559375,105.22937612914811L167.71218750000003,95.77855763346221L169.5684375,63.03760628010987L171.51749999999998,107.46174248917595L173.37375,44.82412292677379L175.3228125,64.70008136104475L177.1790625,60.668996468807826L179.12812499999998,9.377136406675284L180.984375,15.649091699148398L182.9334375,31.858072522337324L184.78968749999999,64.3274256565502L186.73874999999998,53.571897644499735L188.595,59.372046108265614L190.5440625,45.35122957739427L192.40031249999998,13.99611575750424L194.34937499999998,23.74934893855208L196.205625,34.14803516472624L198.1546875,19.50581786397252L200.0109375,-40.70135191263868L201.96,31.554301513142732L203.81625,79.73955493742667L205.7653125,83.19924469137858L207.6215625,82.96196853723924L209.570625,29.428260935982824L211.426875,93.0066887698417L213.3759375,136.1402579721915L215.2321875,57.50639243386822L217.0884375,73.97677043753451L219.0375,83.39663431452267L220.89375,112.75415414218047L222.8428125,78.57416047440336L224.69906250000003,56.78191617599943L226.648125,126.10571968240637L228.504375,77.81054230342166L230.4534375,88.289160719374L232.30968750000002,77.43392810276697L234.25875000000002,91.03041733732753L236.11499999999998,66.14944521644274L238.0640625,72.46415392592687L239.9203125,114.82069409709256L241.86937500000002,166.26492317212276L243.72562499999998,157.68017709866757L245.6746875,179.91696932682748L247.5309375,123.70722200136994L249.48000000000002,45.24630890882975L251.33624999999998,35.244395605307616L253.28531249999997,59.545852044174154L255.1415625,122.09064878957412" style="fill: none;" fill="none"></path></g></g></g></g><g opacity="0.2"><g><g><g><path stroke="rgb(255, 112, 67)" stroke-width="2px" d="M28.9575,200.38826433817545L30.81375,102.60086886088052L32.7628125,125.15567207336426L34.6190625,126.06524340311687L36.568125,-140.45599873860675L38.424375000000005,176.1673641204834L40.373437499999994,35.77757263183594L42.229687500000004,45.715524673461914L44.17875,12.904599507649737L46.035,156.63217417399088L47.9840625,89.94440587361653L49.840312499999996,-27.00355529785155L51.789375,87.34773127237955L53.645625,107.21455764770508L55.5946875,42.833915074666336L57.4509375,23.91600926717123L59.400000000000006,18.50239435831706L61.25625,95.42794164021811L63.205312500000005,156.14674186706543L65.0615625,227.3082071940104L67.010625,29.160786310831707L68.866875,83.6165682474772L70.8159375,122.00229390462239L72.6721875,-73.30489222208658L74.5284375,77.6663932800293L76.4775,120.45098114013673L78.33375,-2.6455141703287848L80.2828125,62.02625274658204L82.1390625,75.55350049336751L84.08812499999999,67.42902692159018L85.944375,-37.08266194661457L87.89343749999999,-11.305797576904284L89.74968750000001,89.55312665303548L91.69874999999999,-10.10769017537434L93.555,120.69866752624512L95.5040625,20.842980066935223L97.3603125,46.95797030131023L99.309375,99.08209419250488L101.165625,46.442191441853836L103.1146875,-19.23918914794922L104.9709375,65.43406931559244L106.92,186.9050547281901L108.77625,95.14319419860838L110.7253125,115.61623891194661L112.5815625,163.6812394460042L114.530625,54.44869232177734L116.38687499999999,156.36854553222656L118.3359375,31.406693776448574L120.19218749999999,105.05503845214845L122.0484375,128.21482213338217L123.9975,27.301394144694004L125.85375,-38.38264973958335L127.8028125,242.70973904927573L129.6590625,100.02396265665689L131.608125,78.05786005655925L133.464375,23.547686894734706L135.41343750000001,-26.162404378255214L137.2696875,72.6422945658366L139.21875,95.70691235860188L141.07500000000002,0.23909632364909728L143.0240625,66.56810760498047L144.8803125,128.3354206085205L146.829375,122.53634071350099L148.68562500000002,9.683138529459644L150.6346875,102.39812088012697L152.4909375,86.33305358886719L154.44,42.13159306844076L156.29625000000001,39.08170827229818L158.2453125,-28.77055740356444L160.1015625,131.69964917500812L162.050625,94.91891479492189L163.906875,168.29924201965332L165.8559375,92.4836508433024L167.71218750000003,81.60232988993327L169.5684375,13.926179250081377L171.51749999999998,174.09794680277506L173.37375,-49.132306416829415L175.3228125,94.51401901245117L177.1790625,54.62236913045246L179.12812499999998,-67.56065368652344L180.984375,25.057024637858067L182.9334375,56.17154375712077L184.78968749999999,113.03145535786948L186.73874999999998,37.438605626424156L188.595,68.07226880391438L190.5440625,24.32000478108723L192.40031249999998,-33.03655497233073L194.34937499999998,38.37919871012371L196.205625,49.74606450398762L198.1546875,-2.4575080871582164L200.0109375,-131.01210657755536L201.96,139.93778165181476L203.81625,152.01743507385254L205.7653125,88.38877932230632L207.6215625,82.60605430603027L209.570625,-50.87230046590168L215.2321875,-60.44440587361654L217.0884375,98.68233744303384L219.0375,97.52643013000488L220.89375,156.790433883667L222.8428125,27.304169972737636L224.69906250000003,24.093549728393555L226.648125,230.0914249420166L228.504375,5.367776234944653L230.4534375,104.00708834330241L232.30968750000002,61.15107917785644L234.25875000000002,111.4251511891683L236.11499999999998,28.82798703511555L238.0640625,81.936216990153L239.9203125,178.35550435384116L241.86937500000002,243.43126678466797L243.72562499999998,144.8030579884847L245.6746875,213.27215766906738L247.5309375,39.392601013183594L249.48000000000002,-72.44506072998047L251.33624999999998,20.241525650024414L253.28531249999997,95.99803670247395L255.1415625,215.90784390767416" style="fill: none;" fill="none"></path></g></g></g></g></g></g><g transform="translate(51, 177)" clip-path="url(#clip_1)"><clipPath id="clip_1"><rect width="278" height="23"></rect></clipPath><g><g><line x1="0" y1="0" x2="0" y2="5" style="visibility: inherit;" fill="rgb(0, 0, 0)" stroke="rgb(204, 204, 204)" stroke-width="1px"></line><line x1="23.203125" y1="0" x2="23.203125" y2="5" style="visibility: inherit;" fill="rgb(0, 0, 0)" stroke="rgb(204, 204, 204)" stroke-width="1px"></line><line x1="46.40625" y1="0" x2="46.40625" y2="5" style="visibility: inherit;" fill="rgb(0, 0, 0)" stroke="rgb(204, 204, 204)" stroke-width="1px"></line><line x1="69.609375" y1="0" x2="69.609375" y2="5" style="visibility: inherit;" fill="rgb(0, 0, 0)" stroke="rgb(204, 204, 204)" stroke-width="1px"></line><line x1="92.8125" y1="0" x2="92.8125" y2="5" style="visibility: inherit;" fill="rgb(0, 0, 0)" stroke="rgb(204, 204, 204)" stroke-width="1px"></line><line x1="116.015625" y1="0" x2="116.015625" y2="5" style="visibility: inherit;" fill="rgb(0, 0, 0)" stroke="rgb(204, 204, 204)" stroke-width="1px"></line><line x1="139.21875" y1="0" x2="139.21875" y2="5" style="visibility: inherit;" fill="rgb(0, 0, 0)" stroke="rgb(204, 204, 204)" stroke-width="1px"></line><line x1="162.421875" y1="0" x2="162.421875" y2="5" style="visibility: inherit;" fill="rgb(0, 0, 0)" stroke="rgb(204, 204, 204)" stroke-width="1px"></line><line x1="185.625" y1="0" x2="185.625" y2="5" style="visibility: inherit;" fill="rgb(0, 0, 0)" stroke="rgb(204, 204, 204)" stroke-width="1px"></line><line x1="208.828125" y1="0" x2="208.828125" y2="5" style="visibility: inherit;" fill="rgb(0, 0, 0)" stroke="rgb(204, 204, 204)" stroke-width="1px"></line><line x1="232.03125" y1="0" x2="232.03125" y2="5" style="visibility: inherit;" fill="rgb(0, 0, 0)" stroke="rgb(204, 204, 204)" stroke-width="1px"></line><line x1="255.234375" y1="0" x2="255.234375" y2="5" style="visibility: inherit;" fill="rgb(0, 0, 0)" stroke="rgb(204, 204, 204)" stroke-width="1px"></line><line x1="278.4375" y1="0" x2="278.4375" y2="5" style="visibility: inherit;" fill="rgb(0, 0, 0)" stroke="rgb(204, 204, 204)" stroke-width="1px"></line></g><g transform="translate(0, 8)"><text x="0" y="0" dx="0em" dy="0.95em" style="text-anchor: middle; visibility: hidden; font-family: Roboto, sans-serif; font-size: 12px; font-weight: 200;" fill="rgb(33, 33, 33)" stroke="none" stroke-width="1px">-200k</text><text x="23.203125" y="0" dx="0em" dy="0.95em" style="text-anchor: middle; visibility: inherit; font-family: Roboto, sans-serif; font-size: 12px; font-weight: 200;" fill="rgb(33, 33, 33)" stroke="none" stroke-width="1px">0</text><text x="46.40625" y="0" dx="0em" dy="0.95em" style="text-anchor: middle; visibility: hidden; font-family: Roboto, sans-serif; font-size: 12px; font-weight: 200;" fill="rgb(33, 33, 33)" stroke="none" stroke-width="1px">200k</text><text x="69.609375" y="0" dx="0em" dy="0.95em" style="text-anchor: middle; visibility: inherit; font-family: Roboto, sans-serif; font-size: 12px; font-weight: 200;" fill="rgb(33, 33, 33)" stroke="none" stroke-width="1px">400k</text><text x="92.8125" y="0" dx="0em" dy="0.95em" style="text-anchor: middle; visibility: hidden; font-family: Roboto, sans-serif; font-size: 12px; font-weight: 200;" fill="rgb(33, 33, 33)" stroke="none" stroke-width="1px">600k</text><text x="116.015625" y="0" dx="0em" dy="0.95em" style="text-anchor: middle; visibility: inherit; font-family: Roboto, sans-serif; font-size: 12px; font-weight: 200;" fill="rgb(33, 33, 33)" stroke="none" stroke-width="1px">800k</text><text x="139.21875" y="0" dx="0em" dy="0.95em" style="text-anchor: middle; visibility: hidden; font-family: Roboto, sans-serif; font-size: 12px; font-weight: 200;" fill="rgb(33, 33, 33)" stroke="none" stroke-width="1px">1M</text><text x="162.421875" y="0" dx="0em" dy="0.95em" style="text-anchor: middle; visibility: inherit; font-family: Roboto, sans-serif; font-size: 12px; font-weight: 200;" fill="rgb(33, 33, 33)" stroke="none" stroke-width="1px">1.2M</text><text x="185.625" y="0" dx="0em" dy="0.95em" style="text-anchor: middle; visibility: hidden; font-family: Roboto, sans-serif; font-size: 12px; font-weight: 200;" fill="rgb(33, 33, 33)" stroke="none" stroke-width="1px">1.4M</text><text x="208.828125" y="0" dx="0em" dy="0.95em" style="text-anchor: middle; visibility: inherit; font-family: Roboto, sans-serif; font-size: 12px; font-weight: 200;" fill="rgb(33, 33, 33)" stroke="none" stroke-width="1px">1.6M</text><text x="232.03125" y="0" dx="0em" dy="0.95em" style="text-anchor: middle; visibility: hidden; font-family: Roboto, sans-serif; font-size: 12px; font-weight: 200;" fill="rgb(33, 33, 33)" stroke="none" stroke-width="1px">1.8M</text><text x="255.234375" y="0" dx="0em" dy="0.95em" style="text-anchor: middle; visibility: inherit; font-family: Roboto, sans-serif; font-size: 12px; font-weight: 200;" fill="rgb(33, 33, 33)" stroke="none" stroke-width="1px">2M</text><text x="278.4375" y="0" dx="0em" dy="0.95em" style="text-anchor: middle; visibility: hidden; font-family: Roboto, sans-serif; font-size: 12px; font-weight: 200;" fill="rgb(33, 33, 33)" stroke="none" stroke-width="1px">2.2M</text></g><line x1="0" y1="0" x2="278.4375" y2="0" fill="rgb(0, 0, 0)" stroke="rgb(204, 204, 204)" stroke-width="1px"></line></g></g></g></g></svg>