<svg viewBox="0 0 330 200" xmlns="http://www.w3.org/2000/svg"><g><g><g><g><g><line x1="61.953125" y1="177" x2="56.953125" y2="177" style="visibility: inherit;" fill="rgb(0, 0, 0)" stroke="rgb(204, 204, 204)" stroke-width="1px"></line><line x1="61.953125" y1="157.33333333333331" x2="56.953125" y2="157.33333333333331" style="visibility: inherit;" fill="rgb(0, 0, 0)" stroke="rgb(204, 204, 204)" stroke-width="1px"></line><line x1="61.953125" y1="137.66666666666666" x2="56.953125" y2="137.66666666666666" style="visibility: inherit;" fill="rgb(0, 0, 0)" stroke="rgb(204, 204, 204)" stroke-width="1px"></line><line x1="61.953125" y1="118.00000000000001" x2="56.953125" y2="118.00000000000001" style="visibility: inherit;" fill="rgb(0, 0, 0)" stroke="rgb(204, 204, 204)" stroke-width="1px"></line><line x1="61.953125" y1="98.33333333333331" x2="56.953125" y2="98.33333333333331" style="visibility: inherit;" fill="rgb(0, 0, 0)" stroke="rgb(204, 204, 204)" stroke-width="1px"></line><line x1="61.953125" y1="78.66666666666666" x2="56.953125" y2="78.66666666666666" style="visibility: inherit;" fill="rgb(0, 0, 0)" stroke="rgb(204, 204, 204)" stroke-width="1px"></line><line x1="61.953125" y1="59.00000000000001" x2="56.953125" y2="59.00000000000001" style="visibility: inherit;" fill="rgb(0, 0, 0)" stroke="rgb(204, 204, 204)" stroke-width="1px"></line><line x1="61.953125" y1="39.333333333333314" x2="56.953125" y2="39.333333333333314" style="visibility: inherit;" fill="rgb(0, 0, 0)" stroke="rgb(204, 204, 204)" stroke-width="1px"></line><line x1="61.953125" y1="19.666666666666657" x2="56.953125" y2="19.666666666666657" style="visibility: inherit;" fill="rgb(0, 0, 0)" stroke="rgb(204, 204, 204)" stroke-width="1px"></line><line x1="61.953125" y1="0" x2="56.953125" y2="0" style="visibility: inherit;" fill="rgb(0, 0, 0)" stroke="rgb(204, 204, 204)" stroke-width="1px"></line></g><g transform="translate(51.953125, 0)"><text x="0" y="177" dx="0em" dy="0.3em" style="text-anchor: end; visibility: hidden; font-family: Roboto, sans-serif; font-size: 12px; font-weight: 200;" fill="rgb(33, 33, 33)" stroke="none" stroke-width="1px">0.015</text><text x="0" y="157.33333333333331" dx="0em" dy="0.3em" style="text-anchor: end; visibility: inherit; font-family: Roboto, sans-serif; font-size: 12px; font-weight: 200;" fill="rgb(33, 33, 33)" stroke="none" stroke-width="1px">0.02</text><text x="0" y="137.66666666666666" dx="0em" dy="0.3em" style="text-anchor: end; visibility: hidden; font-family: Roboto, sans-serif; font-size: 12px; font-weight: 200;" fill="rgb(33, 33, 33)" stroke="none" stroke-width="1px">0.025</text><text x="0" y="118.00000000000001" dx="0em" dy="0.3em" style="text-anchor: end; visibility: inherit; font-family: Roboto, sans-serif; font-size: 12px; font-weight: 200;" fill="rgb(33, 33, 33)" stroke="none" stroke-width="1px">0.03</text><text x="0" y="98.33333333333331" dx="0em" dy="0.3em" style="text-anchor: end; visibility: hidden; font-family: Roboto, sans-serif; font-size: 12px; font-weight: 200;" fill="rgb(33, 33, 33)" stroke="none" stroke-width="1px">0.035</text><text x="0" y="78.66666666666666" dx="0em" dy="0.3em" style="text-anchor: end; visibility: inherit; font-family: Roboto, sans-serif; font-size: 12px; font-weight: 200;" fill="rgb(33, 33, 33)" stroke="none" stroke-width="1px">0.04</text><text x="0" y="59.00000000000001" dx="0em" dy="0.3em" style="text-anchor: end; visibility: hidden; font-family: Roboto, sans-serif; font-size: 12px; font-weight: 200;" fill="rgb(33, 33, 33)" stroke="none" stroke-width="1px">0.045</text><text x="0" y="39.333333333333314" dx="0em" dy="0.3em" style="text-anchor: end; visibility: inherit; font-family: Roboto, sans-serif; font-size: 12px; font-weight: 200;" fill="rgb(33, 33, 33)" stroke="none" stroke-width="1px">0.05</text><text x="0" y="19.666666666666657" dx="0em" dy="0.3em" style="text-anchor: end; visibility: hidden; font-family: Roboto, sans-serif; font-size: 12px; font-weight: 200;" fill="rgb(33, 33, 33)" stroke="none" stroke-width="1px">0.055</text><text x="0" y="0" dx="0em" dy="0.3em" style="text-anchor: end; visibility: hidden; font-family: Roboto, sans-serif; font-size: 12px; font-weight: 200;" fill="rgb(33, 33, 33)" stroke="none" stroke-width="1px">0.06</text></g><line x1="61.953125" y1="0" x2="61.953125" y2="177" fill="rgb(0, 0, 0)" stroke="rgb(204, 204, 204)" stroke-width="1px"></line></g></g><g transform="translate(61, 0)" clip-path="url(#clip_0)"><clipPath id="clip_0"><rect width="268" height="177"></rect></clipPath><g><g><g><line x1="0" y1="0" x2="0" y2="177" fill="rgb(0, 0, 0)" stroke="rgb(66, 66, 66)" stroke-width="1px" opacity="0.25"></line><line x1="22.337239583333332" y1="0" x2="22.337239583333332" y2="177" fill="rgb(0, 0, 0)" stroke="rgb(66, 66, 66)" stroke-width="1px" opacity="0.25"></line><line x1="44.674479166666664" y1="0" x2="44.674479166666664" y2="177" fill="rgb(0, 0, 0)" stroke="rgb(66, 66, 66)" stroke-width="1px" opacity="0.25"></line><line x1="67.01171875" y1="0" x2="67.01171875" y2="177" fill="rgb(0, 0, 0)" stroke="rgb(66, 66, 66)" stroke-width="1px" opacity="0.25"></line><line x1="89.34895833333333" y1="0" x2="89.34895833333333" y2="177" fill="rgb(0, 0, 0)" stroke="rgb(66, 66, 66)" stroke-width="1px" opacity="0.25"></line><line x1="111.68619791666667" y1="0" x2="111.68619791666667" y2="177" fill="rgb(0, 0, 0)" stroke="rgb(66, 66, 66)" stroke-width="1px" opacity="0.25"></line><line x1="134.0234375" y1="0" x2="134.0234375" y2="177" fill="rgb(0, 0, 0)" stroke="rgb(66, 66, 66)" stroke-width="1px" opacity="0.25"></line><line x1="156.36067708333334" y1="0" x2="156.36067708333334" y2="177" fill="rgb(0, 0, 0)" stroke="rgb(66, 66, 66)" stroke-width="1px" opacity="0.25"></line><line x1="178.69791666666666" y1="0" x2="178.69791666666666" y2="177" fill="rgb(0, 0, 0)" stroke="rgb(66, 66, 66)" stroke-width="1px" opacity="0.25"></line><line x1="201.03515625" y1="0" x2="201.03515625" y2="177" fill="rgb(0, 0, 0)" stroke="rgb(66, 66, 66)" stroke-width="1px" opacity="0.25"></line><line x1="223.37239583333334" y1="0" x2="223.37239583333334" y2="177" fill="rgb(0, 0, 0)" stroke="rgb(66, 66, 66)" stroke-width="1px" opacity="0.25"></line><line x1="245.70963541666666" y1="0" x2="245.70963541666666" y2="177" fill="rgb(0, 0, 0)" stroke="rgb(66, 66, 66)" stroke-width="1px" opacity="0.25"></line><line x1="268.046875" y1="0" x2="268.046875" y2="177" fill="rgb(0, 0, 0)" stroke="rgb(66, 66, 66)" stroke-width="1px" opacity="0.25"></line></g><g><line x1="0" y1="177" x2="268.046875" y2="177" fill="rgb(0, 0, 0)" stroke="rgb(66, 66, 66)" stroke-width="1px" opacity="0.25"></line><line x1="0" y1="157.33333333333331" x2="268.046875" y2="157.33333333333331" fill="rgb(0, 0, 0)" stroke="rgb(66, 66, 66)" stroke-width="1px" opacity="0.25"></line><line x1="0" y1="137.66666666666666" x2="268.046875" y2="137.66666666666666" fill="rgb(0, 0, 0)" stroke="rgb(66, 66, 66)" stroke-width="1px" opacity="0.25"></line><line x1="0" y1="118.00000000000001" x2="268.046875" y2="118.00000000000001" fill="rgb(0, 0, 0)" stroke="rgb(66, 66, 66)" stroke-width="1px" opacity="0.25"></line><line x1="0" y1="98.33333333333331" x2="268.046875" y2="98.33333333333331" fill="rgb(0, 0, 0)" stroke="rgb(66, 66, 66)" stroke-width="1px" opacity="0.25"></line><line x1="0" y1="78.66666666666666" x2="268.046875" y2="78.66666666666666" fill="rgb(0, 0, 0)" stroke="rgb(66, 66, 66)" stroke-width="1px" opacity="0.25"></line><line x1="0" y1="59.00000000000001" x2="268.046875" y2="59.00000000000001" fill="rgb(0, 0, 0)" stroke="rgb(66, 66, 66)" stroke-width="1px" opacity="0.25"></line><line x1="0" y1="39.333333333333314" x2="268.046875" y2="39.333333333333314" fill="rgb(0, 0, 0)" stroke="rgb(66, 66, 66)" stroke-width="1px" opacity="0.25"></line><line x1="0" y1="19.666666666666657" x2="268.046875" y2="19.666666666666657" fill="rgb(0, 0, 0)" stroke="rgb(66, 66, 66)" stroke-width="1px" opacity="0.25"></line><line x1="0" y1="0" x2="268.046875" y2="0" fill="rgb(0, 0, 0)" stroke="rgb(66, 66, 66)" stroke-width="1px" opacity="0.25"></line></g></g></g><g><g><line x1="0" y1="236" x2="268.046875" y2="236" fill="rgb(0, 0, 0)" stroke="rgb(153, 153, 153)" stroke-width="1.5px"></line></g></g><g><g><line x1="22.337239583333332" y1="0" x2="22.337239583333332" y2="177" fill="rgb(0, 0, 0)" stroke="rgb(153, 153, 153)" stroke-width="1.5px"></line></g></g><g><g><g><g><g><path stroke="rgb(255, 112, 67)" stroke-width="2px" d="M35.20348958333333,207.19700236399484L36.990468750000005,162.21762276584337L38.866796875,121.29461944319854L40.65377604166667,110.4787597520666L42.53010416666667,94.76764046980068L44.317083333333336,93.1975345195431L46.19341145833334,80.98338992786157L47.980390625,80.0930114255486L49.85671875,95.03387102299763L51.64369791666667,87.80155510479288L53.52002604166667,67.75290780564512L55.30700520833334,75.05146231383374L57.18333333333334,81.11494457299804L58.9703125,92.00997755854418L60.846640625,100.81631295393125L62.63361979166667,98.46805098237999L64.50994791666666,73.0746445356997L66.29692708333333,89.23996365812L68.17325520833334,70.46024852898344L69.960234375,84.40067259965996L71.74721354166667,84.2432985632149L73.62354166666667,91.15578124203653L75.41052083333334,87.76295354094978L77.28684895833334,91.89456757328097L79.07382812499999,70.47243366852831L80.95015624999999,64.05251225924866L82.73713541666666,63.90010100926165L84.61346354166666,71.82864064635831L86.40044270833334,84.97279757204467L88.27677083333333,51.47544614459996L90.06375,57.820548907363055L91.94007812500001,71.54472515241774L93.72705729166667,99.73340209201713L95.60338541666667,94.03645721235723L97.39036458333334,75.44088778092429L99.26669270833334,51.911980624761014L101.053671875,56.225196773522235L102.93,68.64630975225968L104.71697916666666,57.89507847057924L106.59330729166666,48.01591073427861L108.38028645833333,66.38318859976276L110.25661458333333,52.46217767828286L112.04359375,40.33885255102029L113.919921875,28.668452254699933L115.70690104166665,29.23981507128794L117.49388020833334,31.887601595168977L119.37020833333334,48.35790027445189L121.1571875,47.433105706764074L123.033515625,44.534717384729625L124.82049479166668,60.82121774977294L126.69682291666668,44.7575673426702L128.48380208333333,27.30392070802896L130.36013020833335,31.27119634266436L132.14710937499999,49.320079471960995L134.0234375,45.38387971696961L135.81041666666667,51.189846326377335L137.68674479166668,66.47782260346408L139.47372395833332,57.72935611904455L141.35005208333334,54.147367280130325L143.13703125,59.33020490889039L145.01335937500002,43.91828864306778L146.80033854166666,41.30199190074544L148.67666666666665,22.775092959966344L150.46364583333335,39.87224476371173L152.33997395833333,47.74041661123806L154.126953125,28.610861256720877L156.00328125,40.45664806862805L157.79026041666665,38.96918124179127L159.66658854166667,44.28180215887278L161.45356770833334,41.34923654078673L163.240546875,52.150975513135776L165.116875,45.249808165038836L166.9038541666667,44.699491285843784L168.78018229166668,35.029577571290595L170.56716145833332,48.57702636607757L172.44348958333333,41.42437470687395L174.23046875,48.77625701864341L176.10679687500001,15.11005899532505L177.89377604166665,21.616900634113158L179.77010416666667,13.111647592788865L181.55708333333334,5.5082811912731L183.43341145833332,17.495729390829933L185.220390625,26.730119926164633L187.09671874999998,13.064087300954315L188.88369791666668,10.979448105568535L190.76002604166666,28.764936955178687L192.54700520833333,22.390582961681414L194.42333333333335,39.588554209178454L196.2103125,27.735035347365802L198.086640625,18.504667143478088L199.87361979166667,16.261429131301718L201.74994791666668,7.356794027649835L203.53692708333332,7.8909848460535965L205.41325520833334,36.62453759088005L207.200234375,53.35029704793623L208.98721354166665,33.57195286407668L210.86354166666666,38.98822704427202L212.65052083333333,22.937734187480345L214.52684895833335,35.11710065653117L216.31382812500001,30.57990591953314L218.19015624999997,18.659751565635887L219.97713541666667,38.91952355188966L221.85346354166666,39.00119119971696L223.64044270833335,38.50974932167749L225.51677083333334,36.44763826640739L227.30374999999998,46.30083622522531L229.180078125,26.25482411774424L230.96705729166666,19.18375791465693L232.84338541666668,5.125002495579627L234.63036458333332,15.620802723645774L236.50669270833333,22.386703842846327L238.293671875,-0.35681347411806597L240.17000000000002,2.5833989201271335L241.95697916666666,-1.4562987038522803L243.83330729166664,11.889118014830567L245.62028645833334,30.179122944111555" style="fill: none;" fill="none"></path></g></g></g></g><g opacity="0.2"><g><g><g><path stroke="rgb(255, 112, 67)" stroke-width="2px" d="M27.876875,278.87060101826984L29.663854166666667,88.12666988372801L31.540182291666667,92.96350336074829L33.327161458333336,99.86485894521078L35.20348958333333,44.237874507904046L36.990468750000005,96.63725550969441L38.866796875,60.9411384264628L40.65377604166667,94.41846863428752L42.53010416666667,71.34346024195352L44.317083333333336,90.85092004140219L46.19341145833334,62.70205434163411L47.980390625,78.75918801625569L49.85671875,117.42759799957275L51.64369791666667,76.95818201700845L53.52002604166667,37.68842077255248L55.30700520833334,85.99744097391763L57.18333333333334,90.2092442512512L58.9703125,108.35153118769325L60.846640625,114.02533308664955L62.63361979166667,94.9457352956136L64.50994791666666,34.985036214192704L66.29692708333333,113.48775084813435L68.17325520833334,42.29080931345621L69.960234375,105.31124925613403L71.74721354166667,84.00723791122437L73.62354166666667,101.52449464797974L75.41052083333334,82.6737151145935L77.28684895833334,98.09198633829753L79.07382812499999,38.339239915211984L80.95015624999999,54.42263142267863L82.73713541666666,63.67148415247598L84.61346354166666,83.72144953409831L86.40044270833334,104.68903239568074L88.27677083333333,1.2294198671976682L90.06375,67.33820295333862L91.94007812500001,92.13098939259847L93.72705729166667,142.01641734441122L95.60338541666667,85.49103991190592L97.39036458333334,47.5475336710612L99.26669270833334,16.618619918823228L101.053671875,62.69502099355061L102.93,87.27797921498616L104.71697916666666,41.76823155085246L106.59330729166666,33.19715913136799L108.38028645833333,93.93410539627075L110.25661458333333,31.580661296844468L112.04359375,22.153864860534668L113.919921875,11.162851810455322L115.70690104166665,30.096859296162915L117.49388020833334,35.85928138097126L119.37020833333334,73.06334829330443L121.1571875,46.04591385523478L123.033515625,40.187134901682526L124.82049479166668,85.25096829732257L126.69682291666668,20.662091732025146L128.48380208333333,1.123450756072998L130.36013020833335,37.22210979461669L132.14710937499999,76.39340416590373L134.0234375,39.479580084482826L135.81041666666667,59.89879624048868L137.68674479166668,89.40978701909384L139.47372395833332,44.60665639241536L141.35005208333334,48.774384021759026L143.13703125,67.10446135203043L145.01335937500002,20.800414244333894L146.80033854166666,37.37754678726196L148.67666666666665,-5.015255451202406L150.46364583333335,65.51797246932982L152.33997395833333,59.54267438252766L154.126953125,-0.08347177505493164L156.00328125,58.22532828648884L157.79026041666665,36.737981001536056L159.66658854166667,52.25073353449504L161.45356770833334,36.950388113657624L163.240546875,68.35358397165933L165.116875,34.89805714289348L166.9038541666667,43.87401596705119L168.78018229166668,20.52470699946084L170.56716145833332,68.89819955825804L172.44348958333333,30.69539721806844L174.23046875,59.80408048629759L176.10679687500001,-35.38923803965252L177.89377604166665,31.377163092295323L179.77010416666667,0.3537680308024045L181.55708333333334,-5.896768411000587L183.43341145833332,35.4769016901652L185.220390625,40.58170572916666L187.09671874999998,-7.434961636861183L188.88369791666668,7.852489312489825L190.76002604166666,55.44317022959392L192.54700520833333,12.829051971435534L194.42333333333335,65.385511080424L196.2103125,9.954757054646802L198.086640625,4.659114837646471L199.87361979166667,12.896572113037097L201.74994791666668,-6.00015862782798L203.53692708333332,8.692271073659258L205.41325520833334,79.72486670811969L207.200234375,78.43893623352051L208.98721354166665,3.9044365882873535L210.86354166666666,47.11263831456501L212.65052083333333,-1.138005097707117L214.52684895833335,53.38615036010742L216.31382812500001,23.774113814036035L218.19015624999997,0.7795200347900391L219.97713541666667,69.30918153127034L221.85346354166666,39.12369267145792L223.64044270833335,37.772586504618324L225.51677083333334,33.35447168350219L227.30374999999998,61.080633163452134L229.180078125,-3.8141940434773938L230.96705729166666,8.57715861002603L232.84338541666668,-15.963130633036318L234.63036458333332,31.36450306574503L236.50669270833333,32.53555552164713L238.293671875,-34.472089449564635L240.17000000000002,6.993717511494952L241.95697916666666,-7.515845139821362L243.83330729166664,31.90724309285481L245.62028645833334,57.61413033803303" style="fill: none;" fill="none"></path></g></g></g></g></g></g><g transform="translate(61, 177)" clip-path="url(#clip_1)"><clipPath id="clip_1"><rect width="268" height="23"></rect></clipPath><g><g><line x1="0" y1="0" x2="0" y2="5" style="visibility: inherit;" fill="rgb(0, 0, 0)" stroke="rgb(204, 204, 204)" stroke-width="1px"></line><line x1="22.337239583333332" y1="0" x2="22.337239583333332" y2="5" style="visibility: inherit;" fill="rgb(0, 0, 0)" stroke="rgb(204, 204, 204)" stroke-width="1px"></line><line x1="44.674479166666664" y1="0" x2="44.674479166666664" y2="5" style="visibility: inherit;" fill="rgb(0, 0, 0)" stroke="rgb(204, 204, 204)" stroke-width="1px"></line><line x1="67.01171875" y1="0" x2="67.01171875" y2="5" style="visibility: inherit;" fill="rgb(0, 0, 0)" stroke="rgb(204, 204, 204)" stroke-width="1px"></line><line x1="89.34895833333333" y1="0" x2="89.34895833333333" y2="5" style="visibility: inherit;" fill="rgb(0, 0, 0)" stroke="rgb(204, 204, 204)" stroke-width="1px"></line><line x1="111.68619791666667" y1="0" x2="111.68619791666667" y2="5" style="visibility: inherit;" fill="rgb(0, 0, 0)" stroke="rgb(204, 204, 204)" stroke-width="1px"></line><line x1="134.0234375" y1="0" x2="134.0234375" y2="5" style="visibility: inherit;" fill="rgb(0, 0, 0)" stroke="rgb(204, 204, 204)" stroke-width="1px"></line><line x1="156.36067708333334" y1="0" x2="156.36067708333334" y2="5" style="visibility: inherit;" fill="rgb(0, 0, 0)" stroke="rgb(204, 204, 204)" stroke-width="1px"></line><line x1="178.69791666666666" y1="0" x2="178.69791666666666" y2="5" style="visibility: inherit;" fill="rgb(0, 0, 0)" stroke="rgb(204, 204, 204)" stroke-width="1px"></line><line x1="201.03515625" y1="0" x2="201.03515625" y2="5" style="visibility: inherit;" fill="rgb(0, 0, 0)" stroke="rgb(204, 204, 204)" stroke-width="1px"></line><line x1="223.37239583333334" y1="0" x2="223.37239583333334" y2="5" style="visibility: inherit;" fill="rgb(0, 0, 0)" stroke="rgb(204, 204, 204)" stroke-width="1px"></line><line x1="245.70963541666666" y1="0" x2="245.70963541666666" y2="5" style="visibility: inherit;" fill="rgb(0, 0, 0)" stroke="rgb(204, 204, 204)" stroke-width="1px"></line><line x1="268.046875" y1="0" x2="268.046875" y2="5" style="visibility: inherit;" fill="rgb(0, 0, 0)" stroke="rgb(204, 204, 204)" stroke-width="1px"></line></g><g transform="translate(0, 8)"><text x="0" y="0" dx="0em" dy="0.95em" style="text-anchor: middle; visibility: hidden; font-family: Roboto, sans-serif; font-size: 12px; font-weight: 200;" fill="rgb(33, 33, 33)" stroke="none" stroke-width="1px">-200k</text><text x="22.337239583333332" y="0" dx="0em" dy="0.95em" style="text-anchor: middle; visibility: inherit; font-family: Roboto, sans-serif; font-size: 12px; font-weight: 200;" fill="rgb(33, 33, 33)" stroke="none" stroke-width="1px">0</text><text x="44.674479166666664" y="0" dx="0em" dy="0.95em" style="text-anchor: middle; visibility: hidden; font-family: Roboto, sans-serif; font-size: 12px; font-weight: 200;" fill="rgb(33, 33, 33)" stroke="none" stroke-width="1px">200k</text><text x="67.01171875" y="0" dx="0em" dy="0.95em" style="text-anchor: middle; visibility: inherit; font-family: Roboto, sans-serif; font-size: 12px; font-weight: 200;" fill="rgb(33, 33, 33)" stroke="none" stroke-width="1px">400k</text><text x="89.34895833333333" y="0" dx="0em" dy="0.95em" style="text-anchor: middle; visibility: hidden; font-family: Roboto, sans-serif; font-size: 12px; font-weight: 200;" fill="rgb(33, 33, 33)" stroke="none" stroke-width="1px">600k</text><text x="111.68619791666667" y="0" dx="0em" dy="0.95em" style="text-anchor: middle; visibility: inherit; font-family: Roboto, sans-serif; font-size: 12px; font-weight: 200;" fill="rgb(33, 33, 33)" stroke="none" stroke-width="1px">800k</text><text x="134.0234375" y="0" dx="0em" dy="0.95em" style="text-anchor: middle; visibility: hidden; font-family: Roboto, sans-serif; font-size: 12px; font-weight: 200;" fill="rgb(33, 33, 33)" stroke="none" stroke-width="1px">1M</text><text x="156.36067708333334" y="0" dx="0em" dy="0.95em" style="text-anchor: middle; visibility: inherit; font-family: Roboto, sans-serif; font-size: 12px; font-weight: 200;" fill="rgb(33, 33, 33)" stroke="none" stroke-width="1px">1.2M</text><text x="178.69791666666666" y="0" dx="0em" dy="0.95em" style="text-anchor: middle; visibility: hidden; font-family: Roboto, sans-serif; font-size: 12px; font-weight: 200;" fill="rgb(33, 33, 33)" stroke="none" stroke-width="1px">1.4M</text><text x="201.03515625" y="0" dx="0em" dy="0.95em" style="text-anchor: middle; visibility: inherit; font-family: Roboto, sans-serif; font-size: 12px; font-weight: 200;" fill="rgb(33, 33, 33)" stroke="none" stroke-width="1px">1.6M</text><text x="223.37239583333334" y="0" dx="0em" dy="0.95em" style="text-anchor: middle; visibility: hidden; font-family: Roboto, sans-serif; font-size: 12px; font-weight: 200;" fill="rgb(33, 33, 33)" stroke="none" stroke-width="1px">1.8M</text><text x="245.70963541666666" y="0" dx="0em" dy="0.95em" style="text-anchor: middle; visibility: inherit; font-family: Roboto, sans-serif; font-size: 12px; font-weight: 200;" fill="rgb(33, 33, 33)" stroke="none" stroke-width="1px">2M</text><text x="268.046875" y="0" dx="0em" dy="0.95em" style="text-anchor: middle; visibility: hidden; font-family: Roboto, sans-serif; font-size: 12px; font-weight: 200;" fill="rgb(33, 33, 33)" stroke="none" stroke-width="1px">2.2M</text></g><line x1="0" y1="0" x2="268.046875" y2="0" fill="rgb(0, 0, 0)" stroke="rgb(204, 204, 204)" stroke-width="1px"></line></g></g></g></g></svg>