<svg viewBox="0 0 330 200" xmlns="http://www.w3.org/2000/svg"><g><g><g><g><g><line x1="82.734375" y1="177" x2="77.734375" y2="177" style="visibility: inherit;" fill="rgb(0, 0, 0)" stroke="rgb(204, 204, 204)" stroke-width="1px"></line><line x1="82.734375" y1="162.25" x2="77.734375" y2="162.25" style="visibility: inherit;" fill="rgb(0, 0, 0)" stroke="rgb(204, 204, 204)" stroke-width="1px"></line><line x1="82.734375" y1="147.5" x2="77.734375" y2="147.5" style="visibility: inherit;" fill="rgb(0, 0, 0)" stroke="rgb(204, 204, 204)" stroke-width="1px"></line><line x1="82.734375" y1="132.75" x2="77.734375" y2="132.75" style="visibility: inherit;" fill="rgb(0, 0, 0)" stroke="rgb(204, 204, 204)" stroke-width="1px"></line><line x1="82.734375" y1="118.00000000000001" x2="77.734375" y2="118.00000000000001" style="visibility: inherit;" fill="rgb(0, 0, 0)" stroke="rgb(204, 204, 204)" stroke-width="1px"></line><line x1="82.734375" y1="103.24999999999999" x2="77.734375" y2="103.24999999999999" style="visibility: inherit;" fill="rgb(0, 0, 0)" stroke="rgb(204, 204, 204)" stroke-width="1px"></line><line x1="82.734375" y1="88.5" x2="77.734375" y2="88.5" style="visibility: inherit;" fill="rgb(0, 0, 0)" stroke="rgb(204, 204, 204)" stroke-width="1px"></line><line x1="82.734375" y1="73.75" x2="77.734375" y2="73.75" style="visibility: inherit;" fill="rgb(0, 0, 0)" stroke="rgb(204, 204, 204)" stroke-width="1px"></line><line x1="82.734375" y1="58.999999999999986" x2="77.734375" y2="58.999999999999986" style="visibility: inherit;" fill="rgb(0, 0, 0)" stroke="rgb(204, 204, 204)" stroke-width="1px"></line><line x1="82.734375" y1="44.25" x2="77.734375" y2="44.25" style="visibility: inherit;" fill="rgb(0, 0, 0)" stroke="rgb(204, 204, 204)" stroke-width="1px"></line><line x1="82.734375" y1="29.499999999999993" x2="77.734375" y2="29.499999999999993" style="visibility: inherit;" fill="rgb(0, 0, 0)" stroke="rgb(204, 204, 204)" stroke-width="1px"></line><line x1="82.734375" y1="14.749999999999968" x2="77.734375" y2="14.749999999999968" style="visibility: inherit;" fill="rgb(0, 0, 0)" stroke="rgb(204, 204, 204)" stroke-width="1px"></line><line x1="82.734375" y1="0" x2="77.734375" y2="0" style="visibility: inherit;" fill="rgb(0, 0, 0)" stroke="rgb(204, 204, 204)" stroke-width="1px"></line></g><g transform="translate(72.734375, 0)"><text x="0" y="177" dx="0em" dy="0.3em" style="text-anchor: end; visibility: hidden; font-family: Roboto, sans-serif; font-size: 12px; font-weight: 200;" fill="rgb(33, 33, 33)" stroke="none" stroke-width="1px">-2.8e-3</text><text x="0" y="162.25" dx="0em" dy="0.3em" style="text-anchor: end; visibility: inherit; font-family: Roboto, sans-serif; font-size: 12px; font-weight: 200;" fill="rgb(33, 33, 33)" stroke="none" stroke-width="1px">-2.6e-3</text><text x="0" y="147.5" dx="0em" dy="0.3em" style="text-anchor: end; visibility: hidden; font-family: Roboto, sans-serif; font-size: 12px; font-weight: 200;" fill="rgb(33, 33, 33)" stroke="none" stroke-width="1px">-2.4e-3</text><text x="0" y="132.75" dx="0em" dy="0.3em" style="text-anchor: end; visibility: inherit; font-family: Roboto, sans-serif; font-size: 12px; font-weight: 200;" fill="rgb(33, 33, 33)" stroke="none" stroke-width="1px">-2.2e-3</text><text x="0" y="118.00000000000001" dx="0em" dy="0.3em" style="text-anchor: end; visibility: hidden; font-family: Roboto, sans-serif; font-size: 12px; font-weight: 200;" fill="rgb(33, 33, 33)" stroke="none" stroke-width="1px">-2e-3</text><text x="0" y="103.24999999999999" dx="0em" dy="0.3em" style="text-anchor: end; visibility: inherit; font-family: Roboto, sans-serif; font-size: 12px; font-weight: 200;" fill="rgb(33, 33, 33)" stroke="none" stroke-width="1px">-1.8e-3</text><text x="0" y="88.5" dx="0em" dy="0.3em" style="text-anchor: end; visibility: hidden; font-family: Roboto, sans-serif; font-size: 12px; font-weight: 200;" fill="rgb(33, 33, 33)" stroke="none" stroke-width="1px">-1.6e-3</text><text x="0" y="73.75" dx="0em" dy="0.3em" style="text-anchor: end; visibility: inherit; font-family: Roboto, sans-serif; font-size: 12px; font-weight: 200;" fill="rgb(33, 33, 33)" stroke="none" stroke-width="1px">-1.4e-3</text><text x="0" y="58.999999999999986" dx="0em" dy="0.3em" style="text-anchor: end; visibility: hidden; font-family: Roboto, sans-serif; font-size: 12px; font-weight: 200;" fill="rgb(33, 33, 33)" stroke="none" stroke-width="1px">-1.2e-3</text><text x="0" y="44.25" dx="0em" dy="0.3em" style="text-anchor: end; visibility: inherit; font-family: Roboto, sans-serif; font-size: 12px; font-weight: 200;" fill="rgb(33, 33, 33)" stroke="none" stroke-width="1px">-1e-3</text><text x="0" y="29.499999999999993" dx="0em" dy="0.3em" style="text-anchor: end; visibility: hidden; font-family: Roboto, sans-serif; font-size: 12px; font-weight: 200;" fill="rgb(33, 33, 33)" stroke="none" stroke-width="1px">-8e-4</text><text x="0" y="14.749999999999968" dx="0em" dy="0.3em" style="text-anchor: end; visibility: inherit; font-family: Roboto, sans-serif; font-size: 12px; font-weight: 200;" fill="rgb(33, 33, 33)" stroke="none" stroke-width="1px">-6e-4</text><text x="0" y="0" dx="0em" dy="0.3em" style="text-anchor: end; visibility: hidden; font-family: Roboto, sans-serif; font-size: 12px; font-weight: 200;" fill="rgb(33, 33, 33)" stroke="none" stroke-width="1px">-4e-4</text></g><line x1="82.734375" y1="0" x2="82.734375" y2="177" fill="rgb(0, 0, 0)" stroke="rgb(204, 204, 204)" stroke-width="1px"></line></g></g><g transform="translate(82, 0)" clip-path="url(#clip_0)"><clipPath id="clip_0"><rect width="247" height="177"></rect></clipPath><g><g><g><line x1="0" y1="0" x2="0" y2="177" fill="rgb(0, 0, 0)" stroke="rgb(66, 66, 66)" stroke-width="1px" opacity="0.25"></line><line x1="20.60546875" y1="0" x2="20.60546875" y2="177" fill="rgb(0, 0, 0)" stroke="rgb(66, 66, 66)" stroke-width="1px" opacity="0.25"></line><line x1="41.2109375" y1="0" x2="41.2109375" y2="177" fill="rgb(0, 0, 0)" stroke="rgb(66, 66, 66)" stroke-width="1px" opacity="0.25"></line><line x1="61.81640625" y1="0" x2="61.81640625" y2="177" fill="rgb(0, 0, 0)" stroke="rgb(66, 66, 66)" stroke-width="1px" opacity="0.25"></line><line x1="82.421875" y1="0" x2="82.421875" y2="177" fill="rgb(0, 0, 0)" stroke="rgb(66, 66, 66)" stroke-width="1px" opacity="0.25"></line><line x1="103.02734375" y1="0" x2="103.02734375" y2="177" fill="rgb(0, 0, 0)" stroke="rgb(66, 66, 66)" stroke-width="1px" opacity="0.25"></line><line x1="123.6328125" y1="0" x2="123.6328125" y2="177" fill="rgb(0, 0, 0)" stroke="rgb(66, 66, 66)" stroke-width="1px" opacity="0.25"></line><line x1="144.23828125" y1="0" x2="144.23828125" y2="177" fill="rgb(0, 0, 0)" stroke="rgb(66, 66, 66)" stroke-width="1px" opacity="0.25"></line><line x1="164.84375" y1="0" x2="164.84375" y2="177" fill="rgb(0, 0, 0)" stroke="rgb(66, 66, 66)" stroke-width="1px" opacity="0.25"></line><line x1="185.44921875" y1="0" x2="185.44921875" y2="177" fill="rgb(0, 0, 0)" stroke="rgb(66, 66, 66)" stroke-width="1px" opacity="0.25"></line><line x1="206.0546875" y1="0" x2="206.0546875" y2="177" fill="rgb(0, 0, 0)" stroke="rgb(66, 66, 66)" stroke-width="1px" opacity="0.25"></line><line x1="226.66015625" y1="0" x2="226.66015625" y2="177" fill="rgb(0, 0, 0)" stroke="rgb(66, 66, 66)" stroke-width="1px" opacity="0.25"></line><line x1="247.265625" y1="0" x2="247.265625" y2="177" fill="rgb(0, 0, 0)" stroke="rgb(66, 66, 66)" stroke-width="1px" opacity="0.25"></line></g><g><line x1="0" y1="177" x2="247.265625" y2="177" fill="rgb(0, 0, 0)" stroke="rgb(66, 66, 66)" stroke-width="1px" opacity="0.25"></line><line x1="0" y1="162.25" x2="247.265625" y2="162.25" fill="rgb(0, 0, 0)" stroke="rgb(66, 66, 66)" stroke-width="1px" opacity="0.25"></line><line x1="0" y1="147.5" x2="247.265625" y2="147.5" fill="rgb(0, 0, 0)" stroke="rgb(66, 66, 66)" stroke-width="1px" opacity="0.25"></line><line x1="0" y1="132.75" x2="247.265625" y2="132.75" fill="rgb(0, 0, 0)" stroke="rgb(66, 66, 66)" stroke-width="1px" opacity="0.25"></line><line x1="0" y1="118.00000000000001" x2="247.265625" y2="118.00000000000001" fill="rgb(0, 0, 0)" stroke="rgb(66, 66, 66)" stroke-width="1px" opacity="0.25"></line><line x1="0" y1="103.24999999999999" x2="247.265625" y2="103.24999999999999" fill="rgb(0, 0, 0)" stroke="rgb(66, 66, 66)" stroke-width="1px" opacity="0.25"></line><line x1="0" y1="88.5" x2="247.265625" y2="88.5" fill="rgb(0, 0, 0)" stroke="rgb(66, 66, 66)" stroke-width="1px" opacity="0.25"></line><line x1="0" y1="73.75" x2="247.265625" y2="73.75" fill="rgb(0, 0, 0)" stroke="rgb(66, 66, 66)" stroke-width="1px" opacity="0.25"></line><line x1="0" y1="58.999999999999986" x2="247.265625" y2="58.999999999999986" fill="rgb(0, 0, 0)" stroke="rgb(66, 66, 66)" stroke-width="1px" opacity="0.25"></line><line x1="0" y1="44.25" x2="247.265625" y2="44.25" fill="rgb(0, 0, 0)" stroke="rgb(66, 66, 66)" stroke-width="1px" opacity="0.25"></line><line x1="0" y1="29.499999999999993" x2="247.265625" y2="29.499999999999993" fill="rgb(0, 0, 0)" stroke="rgb(66, 66, 66)" stroke-width="1px" opacity="0.25"></line><line x1="0" y1="14.749999999999968" x2="247.265625" y2="14.749999999999968" fill="rgb(0, 0, 0)" stroke="rgb(66, 66, 66)" stroke-width="1px" opacity="0.25"></line><line x1="0" y1="0" x2="247.265625" y2="0" fill="rgb(0, 0, 0)" stroke="rgb(66, 66, 66)" stroke-width="1px" opacity="0.25"></line></g></g></g><g><g><line x1="0" y1="-29.500000000000014" x2="247.265625" y2="-29.500000000000014" fill="rgb(0, 0, 0)" stroke="rgb(153, 153, 153)" stroke-width="1.5px"></line></g></g><g><g><line x1="20.60546875" y1="0" x2="20.60546875" y2="177" fill="rgb(0, 0, 0)" stroke="rgb(153, 153, 153)" stroke-width="1.5px"></line></g></g><g><g><g><g><g><path stroke="rgb(255, 112, 67)" stroke-width="2px" d="M25.715625,264.2468389887838L27.3640625,154.23148747634653L29.094921875,162.51968808295763L30.743359375,96.4250418598385L32.47421875,65.5422723219889L34.122656250000006,61.02071194457347L35.853515625,47.90231309415048L37.501953125,38.44065376666434L39.2328125,10.18313219572779L40.88125,28.97912967387228L42.612109375,36.26718493587266L44.260546874999996,60.930654185721465L45.99140625,49.59488924690206L47.639843750000004,39.27567376431405L49.370703125,53.524394986834025L51.019140625,29.3129644857902L52.75,15.924308075052945L54.3984375,37.68539748968336L56.129296875,34.195414759284525L57.777734375,28.289381908552496L59.50859375,55.99013466905871L61.157031249999996,37.727414163620715L62.887890625000004,63.87150465568897L64.536328125,69.93658730715923L66.184765625,31.96505658351566L67.915625,23.795369912200986L69.56406249999999,46.30152418158521L71.294921875,84.38084433615013L72.943359375,97.82305759490706L74.67421875,85.063356835061L76.32265625,93.83411458059243L78.053515625,116.7599474433845L79.701953125,122.20137665517841L81.4328125,81.8284075939502L83.08125000000001,88.17769610924393L84.812109375,73.08078121438884L86.460546875,20.40364558571028L88.19140625,59.68614573092495L89.83984375,80.80157051866537L91.57070312500001,59.779137389178565L93.219140625,61.96149286154519L94.95,51.270000123244046L96.5984375,52.80928370427262L98.329296875,87.8093188576394L99.977734375,98.0678754452167L101.70859375,72.58547288947436L103.35703124999999,71.29228586380309L105.087890625,63.09305251394068L106.736328125,87.2583986956195L108.384765625,70.9187790347274L110.11562500000001,63.51106424885505L111.76406250000001,40.83912746559137L113.494921875,19.909242042754236L115.143359375,56.75619467727985L116.87421875,75.10519968294855L118.52265625,89.15309148046568L120.253515625,90.26420139817945L121.90195312499999,96.26513986383661L123.6328125,89.03761973679661L125.28125000000001,88.2209583854152L127.01210937500001,76.82304231205038L128.660546875,107.38749697173229L130.39140625,95.42474101831515L132.03984375000002,88.74302090819924L133.770703125,89.56590240974352L135.41914062499998,102.23808300661518L137.15,92.16749770769087L138.7984375,82.38059269553338L140.529296875,121.82413967760453L142.177734375,110.63795039066777L143.90859375,80.52808042425502L145.55703125,121.05837906857482L147.287890625,99.36026025353462L148.93632812500002,103.82775529143116L150.584765625,115.31247243831697L152.315625,109.31423560792666L153.9640625,94.1283161661518L155.694921875,75.99761858440519L157.343359375,80.5393658214112L159.07421875,111.42944282696693L160.72265625,108.43918759124234L162.453515625,104.38750829610903L164.101953125,116.59396613315451L165.8328125,133.81902973141945L167.48125,130.8328379351969L169.212109375,141.57975546827618L170.86054687499998,133.59410888849618L172.59140624999998,130.80240345462516L174.23984375,127.97652800862852L175.970703125,98.54637170881324L177.619140625,104.53887588448995L179.35000000000002,95.12425045433744L180.9984375,104.29209523413692L182.729296875,63.504693357823726L184.37773437500002,71.05411072862724L186.10859375,106.328088208728L187.75703124999998,141.84149385169474L189.487890625,126.08829170756238L191.136328125,122.76940187036362L192.78476562499998,119.8109139215238L194.515625,155.27239898342862L196.1640625,136.23331801974533L197.894921875,123.0626284888536L199.54335937500002,147.63897302068176L201.27421875,111.97076751862483L202.92265625,131.75030673563188L204.653515625,122.75947918130656L206.301953125,118.0492298844789L208.0328125,102.77827489429473L209.68125,117.04654550491277L211.412109375,134.4267768876687L213.060546875,125.66335055062906L214.79140625,123.46830753601185L216.43984375,137.71478975726868L218.170703125,158.56239765812433L219.81914062500002,150.1037687522812L221.55,140.938912421846L223.19843749999998,158.19489901386714L224.92929687499998,180.23313500507481L226.577734375,159.94662377252462" style="fill: none;" fill="none"></path></g></g></g></g><g opacity="0.2"><g><g><g><path stroke="rgb(255, 112, 67)" stroke-width="2px" d="M25.715625,194.94517846452072L27.3640625,24.853434097720303L29.094921875,173.34076279494911L30.743359375,4.992352060624385L32.47421875,21.379417758551405L34.122656250000006,54.42823350732213L35.853515625,28.555222907569238L37.501953125,24.39119236497207L39.2328125,-31.946856519782184L40.88125,57.0708389028441L42.612109375,47.17547106393613L44.260546874999996,97.87753975670785L45.99140625,32.6045666048303L47.639843750000004,23.804128450690754L49.370703125,74.89144723932259L51.019140625,-6.998033986194073L52.75,-4.156636914005516L54.3984375,70.32504256186076L56.129296875,28.960632062633508L57.777734375,19.430526972981163L59.50859375,97.54071690677665L61.157031249999996,10.333549744798782L62.887890625000004,103.08745457278563L64.536328125,79.03418541955762L66.184765625,-24.992142343209707L67.915625,11.540852447622436L69.56406249999999,80.06073485431261L71.294921875,141.49980352213606L72.943359375,117.98637302545829L74.67421875,65.92380823404528L76.32265625,106.99025015183724L78.053515625,151.14869509544224L79.701953125,130.36352023901418L81.4328125,21.268955043167793L83.08125000000001,97.70162878395058L84.812109375,50.435409012250595L86.460546875,-58.61205756390703L88.19140625,118.60989581746979L89.83984375,112.47470765793695L91.57070312500001,28.2454877202399L93.219140625,65.23502606851979L94.95,35.23276102042289L96.5984375,55.11820907541549L98.329296875,140.30937158223242L99.977734375,113.45571032562292L101.70859375,34.361869057291166L103.35703124999999,69.35250532533973L105.087890625,50.79420248931273L106.736328125,123.50641796784475L108.384765625,46.409349543508135L110.11562500000001,52.399492070078836L111.76406250000001,6.831222290755243L113.494921875,-11.485586091468589L115.143359375,112.02662362903357L116.87421875,102.62870719144121L118.52265625,110.22492917673662L120.253515625,91.93086627474986L121.90195312499999,105.26654756232165L123.6328125,78.19633954623714L125.28125000000001,86.99596635834313L127.01210937500001,59.72616820200345L128.660546875,153.23417896125466L130.39140625,77.48060708818957L132.03984375000002,78.72044074302539L133.770703125,90.80022466205992L135.41914062499998,121.2463539019227L137.15,77.06161975930445L138.7984375,67.70023517729715L140.529296875,180.98946015071124L142.177734375,93.85866646026261L143.90859375,35.36327547463588L145.55703125,181.85382703505456L147.287890625,66.81308203097433L148.93632812500002,110.52899784827605L150.584765625,132.53954815864563L152.315625,100.31688036234118L153.9640625,71.34943700348958L155.694921875,48.801572211785235L157.343359375,87.3519866769202L159.07421875,157.76455833530053L160.72265625,103.95380473765545L162.453515625,98.30998935340902L164.101953125,134.90365288872272L165.8328125,159.6566251288168L167.48125,126.3535502408631L169.212109375,157.70013176789507L170.86054687499998,121.61563901882619L172.59140624999998,126.61484530381858L174.23984375,123.73771483963355L175.970703125,54.401137259090305L177.619140625,113.52763214800507L179.35000000000002,81.00231230910866L180.9984375,118.04386240383609L182.729296875,2.323590543353917L184.37773437500002,82.37823678483255L186.10859375,159.23905442887917L187.75703124999998,195.11160231614485L189.487890625,102.45848849136382L191.136328125,117.79106711456552L192.78476562499998,115.37318199826403L194.515625,208.4646265762858L196.1640625,107.67469657422043L197.894921875,103.30659419251604L199.54335937500002,184.503489818424L201.27421875,58.46845926553941L202.92265625,161.41961556114256L204.653515625,109.27323784981854L206.301953125,110.9838559392374L208.0328125,79.87184240901841L209.68125,138.44895142083988L211.412109375,160.49712396180257L213.060546875,112.5182110450696L214.79140625,120.17574301408604L216.43984375,159.08451308915392L218.170703125,189.83380950940773L219.81914062500002,137.41582539351657L221.55,127.19162792619316L223.19843749999998,184.07887890189886L224.92929687499998,213.29048899188638L226.577734375,129.51685692369938" style="fill: none;" fill="none"></path></g></g></g></g></g></g><g transform="translate(82, 177)" clip-path="url(#clip_1)"><clipPath id="clip_1"><rect width="247" height="23"></rect></clipPath><g><g><line x1="0" y1="0" x2="0" y2="5" style="visibility: inherit;" fill="rgb(0, 0, 0)" stroke="rgb(204, 204, 204)" stroke-width="1px"></line><line x1="20.60546875" y1="0" x2="20.60546875" y2="5" style="visibility: inherit;" fill="rgb(0, 0, 0)" stroke="rgb(204, 204, 204)" stroke-width="1px"></line><line x1="41.2109375" y1="0" x2="41.2109375" y2="5" style="visibility: inherit;" fill="rgb(0, 0, 0)" stroke="rgb(204, 204, 204)" stroke-width="1px"></line><line x1="61.81640625" y1="0" x2="61.81640625" y2="5" style="visibility: inherit;" fill="rgb(0, 0, 0)" stroke="rgb(204, 204, 204)" stroke-width="1px"></line><line x1="82.421875" y1="0" x2="82.421875" y2="5" style="visibility: inherit;" fill="rgb(0, 0, 0)" stroke="rgb(204, 204, 204)" stroke-width="1px"></line><line x1="103.02734375" y1="0" x2="103.02734375" y2="5" style="visibility: inherit;" fill="rgb(0, 0, 0)" stroke="rgb(204, 204, 204)" stroke-width="1px"></line><line x1="123.6328125" y1="0" x2="123.6328125" y2="5" style="visibility: inherit;" fill="rgb(0, 0, 0)" stroke="rgb(204, 204, 204)" stroke-width="1px"></line><line x1="144.23828125" y1="0" x2="144.23828125" y2="5" style="visibility: inherit;" fill="rgb(0, 0, 0)" stroke="rgb(204, 204, 204)" stroke-width="1px"></line><line x1="164.84375" y1="0" x2="164.84375" y2="5" style="visibility: inherit;" fill="rgb(0, 0, 0)" stroke="rgb(204, 204, 204)" stroke-width="1px"></line><line x1="185.44921875" y1="0" x2="185.44921875" y2="5" style="visibility: inherit;" fill="rgb(0, 0, 0)" stroke="rgb(204, 204, 204)" stroke-width="1px"></line><line x1="206.0546875" y1="0" x2="206.0546875" y2="5" style="visibility: inherit;" fill="rgb(0, 0, 0)" stroke="rgb(204, 204, 204)" stroke-width="1px"></line><line x1="226.66015625" y1="0" x2="226.66015625" y2="5" style="visibility: inherit;" fill="rgb(0, 0, 0)" stroke="rgb(204, 204, 204)" stroke-width="1px"></line><line x1="247.265625" y1="0" x2="247.265625" y2="5" style="visibility: inherit;" fill="rgb(0, 0, 0)" stroke="rgb(204, 204, 204)" stroke-width="1px"></line></g><g transform="translate(0, 8)"><text x="0" y="0" dx="0em" dy="0.95em" style="text-anchor: middle; visibility: hidden; font-family: Roboto, sans-serif; font-size: 12px; font-weight: 200;" fill="rgb(33, 33, 33)" stroke="none" stroke-width="1px">-200k</text><text x="20.60546875" y="0" dx="0em" dy="0.95em" style="text-anchor: middle; visibility: inherit; font-family: Roboto, sans-serif; font-size: 12px; font-weight: 200;" fill="rgb(33, 33, 33)" stroke="none" stroke-width="1px">0</text><text x="41.2109375" y="0" dx="0em" dy="0.95em" style="text-anchor: middle; visibility: hidden; font-family: Roboto, sans-serif; font-size: 12px; font-weight: 200;" fill="rgb(33, 33, 33)" stroke="none" stroke-width="1px">200k</text><text x="61.81640625" y="0" dx="0em" dy="0.95em" style="text-anchor: middle; visibility: inherit; font-family: Roboto, sans-serif; font-size: 12px; font-weight: 200;" fill="rgb(33, 33, 33)" stroke="none" stroke-width="1px">400k</text><text x="82.421875" y="0" dx="0em" dy="0.95em" style="text-anchor: middle; visibility: hidden; font-family: Roboto, sans-serif; font-size: 12px; font-weight: 200;" fill="rgb(33, 33, 33)" stroke="none" stroke-width="1px">600k</text><text x="103.02734375" y="0" dx="0em" dy="0.95em" style="text-anchor: middle; visibility: inherit; font-family: Roboto, sans-serif; font-size: 12px; font-weight: 200;" fill="rgb(33, 33, 33)" stroke="none" stroke-width="1px">800k</text><text x="123.6328125" y="0" dx="0em" dy="0.95em" style="text-anchor: middle; visibility: hidden; font-family: Roboto, sans-serif; font-size: 12px; font-weight: 200;" fill="rgb(33, 33, 33)" stroke="none" stroke-width="1px">1M</text><text x="144.23828125" y="0" dx="0em" dy="0.95em" style="text-anchor: middle; visibility: inherit; font-family: Roboto, sans-serif; font-size: 12px; font-weight: 200;" fill="rgb(33, 33, 33)" stroke="none" stroke-width="1px">1.2M</text><text x="164.84375" y="0" dx="0em" dy="0.95em" style="text-anchor: middle; visibility: hidden; font-family: Roboto, sans-serif; font-size: 12px; font-weight: 200;" fill="rgb(33, 33, 33)" stroke="none" stroke-width="1px">1.4M</text><text x="185.44921875" y="0" dx="0em" dy="0.95em" style="text-anchor: middle; visibility: inherit; font-family: Roboto, sans-serif; font-size: 12px; font-weight: 200;" fill="rgb(33, 33, 33)" stroke="none" stroke-width="1px">1.6M</text><text x="206.0546875" y="0" dx="0em" dy="0.95em" style="text-anchor: middle; visibility: hidden; font-family: Roboto, sans-serif; font-size: 12px; font-weight: 200;" fill="rgb(33, 33, 33)" stroke="none" stroke-width="1px">1.8M</text><text x="226.66015625" y="0" dx="0em" dy="0.95em" style="text-anchor: middle; visibility: inherit; font-family: Roboto, sans-serif; font-size: 12px; font-weight: 200;" fill="rgb(33, 33, 33)" stroke="none" stroke-width="1px">2M</text><text x="247.265625" y="0" dx="0em" dy="0.95em" style="text-anchor: middle; visibility: hidden; font-family: Roboto, sans-serif; font-size: 12px; font-weight: 200;" fill="rgb(33, 33, 33)" stroke="none" stroke-width="1px">2.2M</text></g><line x1="0" y1="0" x2="247.265625" y2="0" fill="rgb(0, 0, 0)" stroke="rgb(204, 204, 204)" stroke-width="1px"></line></g></g></g></g></svg>