<svg viewBox="0 0 330 200" xmlns="http://www.w3.org/2000/svg"><g><g><g><g><g><line x1="61.953125" y1="177" x2="56.953125" y2="177" style="visibility: inherit;" fill="rgb(0, 0, 0)" stroke="rgb(204, 204, 204)" stroke-width="1px"></line><line x1="61.953125" y1="157.33333333333331" x2="56.953125" y2="157.33333333333331" style="visibility: inherit;" fill="rgb(0, 0, 0)" stroke="rgb(204, 204, 204)" stroke-width="1px"></line><line x1="61.953125" y1="137.66666666666666" x2="56.953125" y2="137.66666666666666" style="visibility: inherit;" fill="rgb(0, 0, 0)" stroke="rgb(204, 204, 204)" stroke-width="1px"></line><line x1="61.953125" y1="118.00000000000001" x2="56.953125" y2="118.00000000000001" style="visibility: inherit;" fill="rgb(0, 0, 0)" stroke="rgb(204, 204, 204)" stroke-width="1px"></line><line x1="61.953125" y1="98.33333333333331" x2="56.953125" y2="98.33333333333331" style="visibility: inherit;" fill="rgb(0, 0, 0)" stroke="rgb(204, 204, 204)" stroke-width="1px"></line><line x1="61.953125" y1="78.66666666666666" x2="56.953125" y2="78.66666666666666" style="visibility: inherit;" fill="rgb(0, 0, 0)" stroke="rgb(204, 204, 204)" stroke-width="1px"></line><line x1="61.953125" y1="59.00000000000001" x2="56.953125" y2="59.00000000000001" style="visibility: inherit;" fill="rgb(0, 0, 0)" stroke="rgb(204, 204, 204)" stroke-width="1px"></line><line x1="61.953125" y1="39.333333333333314" x2="56.953125" y2="39.333333333333314" style="visibility: inherit;" fill="rgb(0, 0, 0)" stroke="rgb(204, 204, 204)" stroke-width="1px"></line><line x1="61.953125" y1="19.666666666666657" x2="56.953125" y2="19.666666666666657" style="visibility: inherit;" fill="rgb(0, 0, 0)" stroke="rgb(204, 204, 204)" stroke-width="1px"></line><line x1="61.953125" y1="0" x2="56.953125" y2="0" style="visibility: inherit;" fill="rgb(0, 0, 0)" stroke="rgb(204, 204, 204)" stroke-width="1px"></line></g><g transform="translate(51.953125, 0)"><text x="0" y="177" dx="0em" dy="0.3em" style="text-anchor: end; visibility: hidden; font-family: Roboto, sans-serif; font-size: 12px; font-weight: 200;" fill="rgb(33, 33, 33)" stroke="none" stroke-width="1px">-0.13</text><text x="0" y="157.33333333333331" dx="0em" dy="0.3em" style="text-anchor: end; visibility: inherit; font-family: Roboto, sans-serif; font-size: 12px; font-weight: 200;" fill="rgb(33, 33, 33)" stroke="none" stroke-width="1px">-0.12</text><text x="0" y="137.66666666666666" dx="0em" dy="0.3em" style="text-anchor: end; visibility: hidden; font-family: Roboto, sans-serif; font-size: 12px; font-weight: 200;" fill="rgb(33, 33, 33)" stroke="none" stroke-width="1px">-0.11</text><text x="0" y="118.00000000000001" dx="0em" dy="0.3em" style="text-anchor: end; visibility: inherit; font-family: Roboto, sans-serif; font-size: 12px; font-weight: 200;" fill="rgb(33, 33, 33)" stroke="none" stroke-width="1px">-0.1</text><text x="0" y="98.33333333333331" dx="0em" dy="0.3em" style="text-anchor: end; visibility: hidden; font-family: Roboto, sans-serif; font-size: 12px; font-weight: 200;" fill="rgb(33, 33, 33)" stroke="none" stroke-width="1px">-0.09</text><text x="0" y="78.66666666666666" dx="0em" dy="0.3em" style="text-anchor: end; visibility: inherit; font-family: Roboto, sans-serif; font-size: 12px; font-weight: 200;" fill="rgb(33, 33, 33)" stroke="none" stroke-width="1px">-0.08</text><text x="0" y="59.00000000000001" dx="0em" dy="0.3em" style="text-anchor: end; visibility: hidden; font-family: Roboto, sans-serif; font-size: 12px; font-weight: 200;" fill="rgb(33, 33, 33)" stroke="none" stroke-width="1px">-0.07</text><text x="0" y="39.333333333333314" dx="0em" dy="0.3em" style="text-anchor: end; visibility: inherit; font-family: Roboto, sans-serif; font-size: 12px; font-weight: 200;" fill="rgb(33, 33, 33)" stroke="none" stroke-width="1px">-0.06</text><text x="0" y="19.666666666666657" dx="0em" dy="0.3em" style="text-anchor: end; visibility: hidden; font-family: Roboto, sans-serif; font-size: 12px; font-weight: 200;" fill="rgb(33, 33, 33)" stroke="none" stroke-width="1px">-0.05</text><text x="0" y="0" dx="0em" dy="0.3em" style="text-anchor: end; visibility: hidden; font-family: Roboto, sans-serif; font-size: 12px; font-weight: 200;" fill="rgb(33, 33, 33)" stroke="none" stroke-width="1px">-0.04</text></g><line x1="61.953125" y1="0" x2="61.953125" y2="177" fill="rgb(0, 0, 0)" stroke="rgb(204, 204, 204)" stroke-width="1px"></line></g></g><g transform="translate(61, 0)" clip-path="url(#clip_0)"><clipPath id="clip_0"><rect width="268" height="177"></rect></clipPath><g><g><g><line x1="0" y1="0" x2="0" y2="177" fill="rgb(0, 0, 0)" stroke="rgb(66, 66, 66)" stroke-width="1px" opacity="0.25"></line><line x1="22.337239583333332" y1="0" x2="22.337239583333332" y2="177" fill="rgb(0, 0, 0)" stroke="rgb(66, 66, 66)" stroke-width="1px" opacity="0.25"></line><line x1="44.674479166666664" y1="0" x2="44.674479166666664" y2="177" fill="rgb(0, 0, 0)" stroke="rgb(66, 66, 66)" stroke-width="1px" opacity="0.25"></line><line x1="67.01171875" y1="0" x2="67.01171875" y2="177" fill="rgb(0, 0, 0)" stroke="rgb(66, 66, 66)" stroke-width="1px" opacity="0.25"></line><line x1="89.34895833333333" y1="0" x2="89.34895833333333" y2="177" fill="rgb(0, 0, 0)" stroke="rgb(66, 66, 66)" stroke-width="1px" opacity="0.25"></line><line x1="111.68619791666667" y1="0" x2="111.68619791666667" y2="177" fill="rgb(0, 0, 0)" stroke="rgb(66, 66, 66)" stroke-width="1px" opacity="0.25"></line><line x1="134.0234375" y1="0" x2="134.0234375" y2="177" fill="rgb(0, 0, 0)" stroke="rgb(66, 66, 66)" stroke-width="1px" opacity="0.25"></line><line x1="156.36067708333334" y1="0" x2="156.36067708333334" y2="177" fill="rgb(0, 0, 0)" stroke="rgb(66, 66, 66)" stroke-width="1px" opacity="0.25"></line><line x1="178.69791666666666" y1="0" x2="178.69791666666666" y2="177" fill="rgb(0, 0, 0)" stroke="rgb(66, 66, 66)" stroke-width="1px" opacity="0.25"></line><line x1="201.03515625" y1="0" x2="201.03515625" y2="177" fill="rgb(0, 0, 0)" stroke="rgb(66, 66, 66)" stroke-width="1px" opacity="0.25"></line><line x1="223.37239583333334" y1="0" x2="223.37239583333334" y2="177" fill="rgb(0, 0, 0)" stroke="rgb(66, 66, 66)" stroke-width="1px" opacity="0.25"></line><line x1="245.70963541666666" y1="0" x2="245.70963541666666" y2="177" fill="rgb(0, 0, 0)" stroke="rgb(66, 66, 66)" stroke-width="1px" opacity="0.25"></line><line x1="268.046875" y1="0" x2="268.046875" y2="177" fill="rgb(0, 0, 0)" stroke="rgb(66, 66, 66)" stroke-width="1px" opacity="0.25"></line></g><g><line x1="0" y1="177" x2="268.046875" y2="177" fill="rgb(0, 0, 0)" stroke="rgb(66, 66, 66)" stroke-width="1px" opacity="0.25"></line><line x1="0" y1="157.33333333333331" x2="268.046875" y2="157.33333333333331" fill="rgb(0, 0, 0)" stroke="rgb(66, 66, 66)" stroke-width="1px" opacity="0.25"></line><line x1="0" y1="137.66666666666666" x2="268.046875" y2="137.66666666666666" fill="rgb(0, 0, 0)" stroke="rgb(66, 66, 66)" stroke-width="1px" opacity="0.25"></line><line x1="0" y1="118.00000000000001" x2="268.046875" y2="118.00000000000001" fill="rgb(0, 0, 0)" stroke="rgb(66, 66, 66)" stroke-width="1px" opacity="0.25"></line><line x1="0" y1="98.33333333333331" x2="268.046875" y2="98.33333333333331" fill="rgb(0, 0, 0)" stroke="rgb(66, 66, 66)" stroke-width="1px" opacity="0.25"></line><line x1="0" y1="78.66666666666666" x2="268.046875" y2="78.66666666666666" fill="rgb(0, 0, 0)" stroke="rgb(66, 66, 66)" stroke-width="1px" opacity="0.25"></line><line x1="0" y1="59.00000000000001" x2="268.046875" y2="59.00000000000001" fill="rgb(0, 0, 0)" stroke="rgb(66, 66, 66)" stroke-width="1px" opacity="0.25"></line><line x1="0" y1="39.333333333333314" x2="268.046875" y2="39.333333333333314" fill="rgb(0, 0, 0)" stroke="rgb(66, 66, 66)" stroke-width="1px" opacity="0.25"></line><line x1="0" y1="19.666666666666657" x2="268.046875" y2="19.666666666666657" fill="rgb(0, 0, 0)" stroke="rgb(66, 66, 66)" stroke-width="1px" opacity="0.25"></line><line x1="0" y1="0" x2="268.046875" y2="0" fill="rgb(0, 0, 0)" stroke="rgb(66, 66, 66)" stroke-width="1px" opacity="0.25"></line></g></g></g><g><g><line x1="0" y1="-78.6666666666667" x2="268.046875" y2="-78.6666666666667" fill="rgb(0, 0, 0)" stroke="rgb(153, 153, 153)" stroke-width="1.5px"></line></g></g><g><g><line x1="22.337239583333332" y1="0" x2="22.337239583333332" y2="177" fill="rgb(0, 0, 0)" stroke="rgb(153, 153, 153)" stroke-width="1.5px"></line></g></g><g><g><g><g><g><path stroke="rgb(255, 112, 67)" stroke-width="2px" d="M24.213567708333333,32.19632131854692L26.000546875,67.70162403459348L27.876875,83.05539281027656L29.663854166666667,77.5338053404189L31.540182291666667,65.18434865475938L33.327161458333336,52.270990084079116L35.20348958333333,47.11818954640037L36.990468750000005,45.03458780153373L38.866796875,38.69288316590129L40.65377604166667,26.310689146052773L42.53010416666667,21.24177882296485L44.317083333333336,13.871725791191393L46.19341145833334,15.318710133881023L47.980390625,18.521417060510124L49.85671875,8.507933070619343L51.64369791666667,9.900134019587568L53.52002604166667,4.233970359637153L55.30700520833334,-2.919855465454023L57.18333333333334,7.031597560388213L58.9703125,18.075634665535347L60.846640625,29.241809988956156L62.63361979166667,34.22125723364331L64.50994791666666,38.62368501059919L66.29692708333333,43.91113612367493L68.17325520833334,58.17416307434137L69.960234375,56.39562181695127L71.74721354166667,53.716295723050024L73.62354166666667,55.082883830008754L75.41052083333334,66.7434391915683L77.28684895833334,69.59256676677737L79.07382812499999,70.36791452029436L80.95015624999999,75.69189515519402L82.73713541666666,83.77055690803171L84.61346354166666,94.35763408149529L86.40044270833334,93.75830052103616L88.27677083333333,108.80029687783593L90.06375,116.93686622351136L91.94007812500001,119.28651528418156L93.72705729166667,106.28462865352759L95.60338541666667,89.06403251014994L97.39036458333334,87.38492607651295L99.26669270833334,78.3988966197926L101.053671875,66.18574600172015L102.93,65.58113270641006L104.71697916666666,62.165276242779086L106.59330729166666,62.63394128493594L108.38028645833333,68.92800819825118L110.25661458333333,72.18502386786491L112.04359375,66.97730386078065L113.919921875,71.82571041083108L115.70690104166665,69.37800991233456L117.49388020833334,74.80290887573706L119.37020833333334,72.75199009866762L121.1571875,67.56417242223225L123.033515625,58.28683427691393L124.82049479166668,63.87938906979731L126.69682291666668,70.49486705998036L128.48380208333333,75.31106860244013L130.36013020833335,89.22101441703593L132.14710937499999,90.5282650332592L134.0234375,92.94554196641502L135.81041666666667,97.54994274087151L137.68674479166668,88.65262255812122L139.47372395833332,89.69774991916276L141.35005208333334,84.38376893190535L143.13703125,70.72967047445768L145.01335937500002,77.17231931459584L146.80033854166666,81.78662024441367L148.67666666666665,86.37497997981116L150.46364583333335,94.00053526184045L152.33997395833333,96.13128763767727L154.126953125,103.67691523432325L156.00328125,111.8622247691925L157.79026041666665,119.51609974201376L159.66658854166667,115.98477288343022L161.45356770833334,121.62158522759385L163.240546875,122.84835586401528L165.116875,122.69292379291477L166.9038541666667,124.11305936299733L168.78018229166668,121.64431024068381L170.56716145833332,117.86271635973723L172.44348958333333,120.37487766912142L174.23046875,130.51614845059652L176.10679687500001,129.8517804320395L177.89377604166665,116.26950030579604L179.77010416666667,106.96931237213477L181.55708333333334,119.95735577483572L183.43341145833332,120.84837492549178L185.220390625,122.48162469214455L187.09671874999998,123.81824149457366L188.88369791666668,118.52757379870265L190.76002604166666,128.05892821626256L192.54700520833333,132.98395134097171L194.42333333333335,129.88681021781264L196.2103125,146.1915784405758L198.086640625,143.6437610701972L199.87361979166667,146.70740736223777L201.74994791666668,148.3230013928663L203.53692708333332,149.67318430434773L205.41325520833334,156.76194044087993L207.200234375,162.42229746263027L208.98721354166665,155.61253163306395L210.86354166666666,162.72736687514274L212.65052083333333,155.64029453825805L214.52684895833335,164.20618735133718L216.31382812500001,166.602670397634L218.19015624999997,176.68578757819014L219.97713541666667,171.7192661721099L221.85346354166666,164.19091056735843L223.64044270833335,176.16542217901267L225.51677083333334,164.664310930794L227.30374999999998,156.38515484648477L229.180078125,155.64731159399466L230.96705729166666,148.97117781991074L232.84338541666668,147.58301665596747L234.63036458333332,155.96629692442767L236.50669270833333,152.97201203501749L238.293671875,167.6733195336453L240.17000000000002,174.49384328236928L241.95697916666666,179.28796844786848L243.83330729166664,172.66931813422704L245.62028645833334,165.91032562731027" style="fill: none;" fill="none"></path></g></g></g></g><g opacity="0.2"><g><g><g><path stroke="rgb(255, 112, 67)" stroke-width="2px" d="M24.213567708333333,32.19632131854692L26.000546875,89.00480566422142L27.876875,97.79501083493231L29.663854166666667,71.0404184758663L31.540182291666667,49.06089800596236L33.327161458333336,34.40716637174288L35.20348958333333,39.74960233271121L36.990468750000005,41.996676454941415L38.866796875,29.34010064105192L40.65377604166667,7.924574096997571L42.53010416666667,13.684387981891625L44.317083333333336,2.8567537466684803L46.19341145833334,17.48446199297903L47.980390625,23.319203014175088L49.85671875,-6.5005224396785275L51.64369791666667,11.987453555067372L53.52002604166667,-4.262877399722743L55.30700520833334,-13.648777847488725L57.18333333333334,21.957261095444352L58.9703125,34.64068085451919L60.846640625,45.99046059449512L62.63361979166667,41.690264249841356L64.50994791666666,45.22723975777625L66.29692708333333,51.8422501583894L68.17325520833334,79.56860212484993L69.960234375,53.72781751553217L71.74721354166667,49.697313437859215L73.62354166666667,57.132763892412164L75.41052083333334,84.23426149288812L77.28684895833334,73.86625655492145L79.07382812499999,71.53093589345612L80.95015624999999,83.67786504824954L82.73713541666666,95.88854857285817L84.61346354166666,110.23824908336002L86.40044270833334,92.8593002061049L88.27677083333333,131.36329102516174L90.06375,129.14172011613846L91.94007812500001,122.81098885337511L93.72705729166667,86.78179877996445L95.60338541666667,63.23313835263251L97.39036458333334,84.86626642942427L99.26669270833334,64.91985244552293L101.053671875,47.86602008342741L102.93,64.67421276370682L104.71697916666666,57.04149154822031L106.59330729166666,63.3369388480981L108.38028645833333,78.36910856763521L110.25661458333333,77.07054737210272L112.04359375,59.1657238503297L113.919921875,79.09832023580869L115.70690104166665,65.70645916461943L117.49388020833334,82.9402573208014L119.37020833333334,69.67561193307239L121.1571875,59.782445907592766L123.033515625,44.37082705895104L124.82049479166668,72.26822125911711L126.69682291666668,80.41808404525119L128.48380208333333,82.53537091612814L130.36013020833335,110.0859331389268L132.14710937499999,92.4891409575939L134.0234375,96.57145736614862L135.81041666666667,104.45654390255609L137.68674479166668,75.30664228399594L139.47372395833332,91.26544096072513L141.35005208333334,76.41279745101927L143.13703125,50.2485227882862L145.01335937500002,86.83629257480302L146.80033854166666,88.70807163914044L148.67666666666665,93.25751958290734L150.46364583333335,105.43886818488437L152.33997395833333,99.32741620143253L154.126953125,114.99535662929216L156.00328125,124.14018907149632L157.79026041666665,130.9969122012456L159.66658854166667,110.68778259555498L161.45356770833334,130.07680374383926L163.240546875,124.68851181864738L165.116875,122.45977568626402L166.9038541666667,126.2432627181212L168.78018229166668,117.94118655721346L170.56716145833332,112.19032553831734L172.44348958333333,124.14311963319778L174.23046875,145.72805462280908L176.10679687500001,128.85522840420404L177.89377604166665,95.8960801164309L179.77010416666667,93.0190304716428L181.55708333333334,139.43942087888718L183.43341145833332,122.1849036514759L185.220390625,124.93149934212366L187.09671874999998,125.82316669821739L188.88369791666668,110.59157225489616L190.76002604166666,142.3559598426024L192.54700520833333,140.37148602803546L194.42333333333335,125.24109853307404L196.2103125,170.64873077472052L198.086640625,139.82203501462936L199.87361979166667,151.3028768002987L201.74994791666668,150.74639243880907L203.53692708333332,151.69845867156982L205.41325520833334,167.3950746456782L207.200234375,170.91283299525577L208.98721354166665,145.39788288871446L210.86354166666666,173.3996197382609L212.65052083333333,145.009686032931L214.52684895833335,177.0550265709559L216.31382812500001,170.19739496707916L218.19015624999997,191.81046334902445L219.97713541666667,164.26948406298953L221.85346354166666,152.89837716023126L223.64044270833335,194.12718959649402L225.51677083333334,147.41264405846596L227.30374999999998,143.96642072002092L229.180078125,154.54054671525955L230.96705729166666,138.95697715878487L232.84338541666668,145.5007749100526L234.63036458333332,168.54121732711792L236.50669270833333,148.48058470090228L238.293671875,189.72528078158695L241.95697916666666,186.4791561961174L243.83330729166664,162.74134266376495L245.62028645833334,155.77183686693508" style="fill: none;" fill="none"></path></g></g></g></g></g></g><g transform="translate(61, 177)" clip-path="url(#clip_1)"><clipPath id="clip_1"><rect width="268" height="23"></rect></clipPath><g><g><line x1="0" y1="0" x2="0" y2="5" style="visibility: inherit;" fill="rgb(0, 0, 0)" stroke="rgb(204, 204, 204)" stroke-width="1px"></line><line x1="22.337239583333332" y1="0" x2="22.337239583333332" y2="5" style="visibility: inherit;" fill="rgb(0, 0, 0)" stroke="rgb(204, 204, 204)" stroke-width="1px"></line><line x1="44.674479166666664" y1="0" x2="44.674479166666664" y2="5" style="visibility: inherit;" fill="rgb(0, 0, 0)" stroke="rgb(204, 204, 204)" stroke-width="1px"></line><line x1="67.01171875" y1="0" x2="67.01171875" y2="5" style="visibility: inherit;" fill="rgb(0, 0, 0)" stroke="rgb(204, 204, 204)" stroke-width="1px"></line><line x1="89.34895833333333" y1="0" x2="89.34895833333333" y2="5" style="visibility: inherit;" fill="rgb(0, 0, 0)" stroke="rgb(204, 204, 204)" stroke-width="1px"></line><line x1="111.68619791666667" y1="0" x2="111.68619791666667" y2="5" style="visibility: inherit;" fill="rgb(0, 0, 0)" stroke="rgb(204, 204, 204)" stroke-width="1px"></line><line x1="134.0234375" y1="0" x2="134.0234375" y2="5" style="visibility: inherit;" fill="rgb(0, 0, 0)" stroke="rgb(204, 204, 204)" stroke-width="1px"></line><line x1="156.36067708333334" y1="0" x2="156.36067708333334" y2="5" style="visibility: inherit;" fill="rgb(0, 0, 0)" stroke="rgb(204, 204, 204)" stroke-width="1px"></line><line x1="178.69791666666666" y1="0" x2="178.69791666666666" y2="5" style="visibility: inherit;" fill="rgb(0, 0, 0)" stroke="rgb(204, 204, 204)" stroke-width="1px"></line><line x1="201.03515625" y1="0" x2="201.03515625" y2="5" style="visibility: inherit;" fill="rgb(0, 0, 0)" stroke="rgb(204, 204, 204)" stroke-width="1px"></line><line x1="223.37239583333334" y1="0" x2="223.37239583333334" y2="5" style="visibility: inherit;" fill="rgb(0, 0, 0)" stroke="rgb(204, 204, 204)" stroke-width="1px"></line><line x1="245.70963541666666" y1="0" x2="245.70963541666666" y2="5" style="visibility: inherit;" fill="rgb(0, 0, 0)" stroke="rgb(204, 204, 204)" stroke-width="1px"></line><line x1="268.046875" y1="0" x2="268.046875" y2="5" style="visibility: inherit;" fill="rgb(0, 0, 0)" stroke="rgb(204, 204, 204)" stroke-width="1px"></line></g><g transform="translate(0, 8)"><text x="0" y="0" dx="0em" dy="0.95em" style="text-anchor: middle; visibility: hidden; font-family: Roboto, sans-serif; font-size: 12px; font-weight: 200;" fill="rgb(33, 33, 33)" stroke="none" stroke-width="1px">-200k</text><text x="22.337239583333332" y="0" dx="0em" dy="0.95em" style="text-anchor: middle; visibility: inherit; font-family: Roboto, sans-serif; font-size: 12px; font-weight: 200;" fill="rgb(33, 33, 33)" stroke="none" stroke-width="1px">0</text><text x="44.674479166666664" y="0" dx="0em" dy="0.95em" style="text-anchor: middle; visibility: hidden; font-family: Roboto, sans-serif; font-size: 12px; font-weight: 200;" fill="rgb(33, 33, 33)" stroke="none" stroke-width="1px">200k</text><text x="67.01171875" y="0" dx="0em" dy="0.95em" style="text-anchor: middle; visibility: inherit; font-family: Roboto, sans-serif; font-size: 12px; font-weight: 200;" fill="rgb(33, 33, 33)" stroke="none" stroke-width="1px">400k</text><text x="89.34895833333333" y="0" dx="0em" dy="0.95em" style="text-anchor: middle; visibility: hidden; font-family: Roboto, sans-serif; font-size: 12px; font-weight: 200;" fill="rgb(33, 33, 33)" stroke="none" stroke-width="1px">600k</text><text x="111.68619791666667" y="0" dx="0em" dy="0.95em" style="text-anchor: middle; visibility: inherit; font-family: Roboto, sans-serif; font-size: 12px; font-weight: 200;" fill="rgb(33, 33, 33)" stroke="none" stroke-width="1px">800k</text><text x="134.0234375" y="0" dx="0em" dy="0.95em" style="text-anchor: middle; visibility: hidden; font-family: Roboto, sans-serif; font-size: 12px; font-weight: 200;" fill="rgb(33, 33, 33)" stroke="none" stroke-width="1px">1M</text><text x="156.36067708333334" y="0" dx="0em" dy="0.95em" style="text-anchor: middle; visibility: inherit; font-family: Roboto, sans-serif; font-size: 12px; font-weight: 200;" fill="rgb(33, 33, 33)" stroke="none" stroke-width="1px">1.2M</text><text x="178.69791666666666" y="0" dx="0em" dy="0.95em" style="text-anchor: middle; visibility: hidden; font-family: Roboto, sans-serif; font-size: 12px; font-weight: 200;" fill="rgb(33, 33, 33)" stroke="none" stroke-width="1px">1.4M</text><text x="201.03515625" y="0" dx="0em" dy="0.95em" style="text-anchor: middle; visibility: inherit; font-family: Roboto, sans-serif; font-size: 12px; font-weight: 200;" fill="rgb(33, 33, 33)" stroke="none" stroke-width="1px">1.6M</text><text x="223.37239583333334" y="0" dx="0em" dy="0.95em" style="text-anchor: middle; visibility: hidden; font-family: Roboto, sans-serif; font-size: 12px; font-weight: 200;" fill="rgb(33, 33, 33)" stroke="none" stroke-width="1px">1.8M</text><text x="245.70963541666666" y="0" dx="0em" dy="0.95em" style="text-anchor: middle; visibility: inherit; font-family: Roboto, sans-serif; font-size: 12px; font-weight: 200;" fill="rgb(33, 33, 33)" stroke="none" stroke-width="1px">2M</text><text x="268.046875" y="0" dx="0em" dy="0.95em" style="text-anchor: middle; visibility: hidden; font-family: Roboto, sans-serif; font-size: 12px; font-weight: 200;" fill="rgb(33, 33, 33)" stroke="none" stroke-width="1px">2.2M</text></g><line x1="0" y1="0" x2="268.046875" y2="0" fill="rgb(0, 0, 0)" stroke="rgb(204, 204, 204)" stroke-width="1px"></line></g></g></g></g></svg>