<svg viewBox="0 0 330 200" xmlns="http://www.w3.org/2000/svg"><g><g><g><g><g><line x1="61.953125" y1="177" x2="56.953125" y2="177" style="visibility: inherit;" fill="rgb(0, 0, 0)" stroke="rgb(204, 204, 204)" stroke-width="1px"></line><line x1="61.953125" y1="151.7142857142857" x2="56.953125" y2="151.7142857142857" style="visibility: inherit;" fill="rgb(0, 0, 0)" stroke="rgb(204, 204, 204)" stroke-width="1px"></line><line x1="61.953125" y1="126.42857142857144" x2="56.953125" y2="126.42857142857144" style="visibility: inherit;" fill="rgb(0, 0, 0)" stroke="rgb(204, 204, 204)" stroke-width="1px"></line><line x1="61.953125" y1="101.14285714285714" x2="56.953125" y2="101.14285714285714" style="visibility: inherit;" fill="rgb(0, 0, 0)" stroke="rgb(204, 204, 204)" stroke-width="1px"></line><line x1="61.953125" y1="75.85714285714286" x2="56.953125" y2="75.85714285714286" style="visibility: inherit;" fill="rgb(0, 0, 0)" stroke="rgb(204, 204, 204)" stroke-width="1px"></line><line x1="61.953125" y1="50.57142857142859" x2="56.953125" y2="50.57142857142859" style="visibility: inherit;" fill="rgb(0, 0, 0)" stroke="rgb(204, 204, 204)" stroke-width="1px"></line><line x1="61.953125" y1="25.285714285714295" x2="56.953125" y2="25.285714285714295" style="visibility: inherit;" fill="rgb(0, 0, 0)" stroke="rgb(204, 204, 204)" stroke-width="1px"></line><line x1="61.953125" y1="0" x2="56.953125" y2="0" style="visibility: inherit;" fill="rgb(0, 0, 0)" stroke="rgb(204, 204, 204)" stroke-width="1px"></line></g><g transform="translate(51.953125, 0)"><text x="0" y="177" dx="0em" dy="0.3em" style="text-anchor: end; visibility: hidden; font-family: Roboto, sans-serif; font-size: 12px; font-weight: 200;" fill="rgb(33, 33, 33)" stroke="none" stroke-width="1px">0.02</text><text x="0" y="151.7142857142857" dx="0em" dy="0.3em" style="text-anchor: end; visibility: inherit; font-family: Roboto, sans-serif; font-size: 12px; font-weight: 200;" fill="rgb(33, 33, 33)" stroke="none" stroke-width="1px">0.025</text><text x="0" y="126.42857142857144" dx="0em" dy="0.3em" style="text-anchor: end; visibility: inherit; font-family: Roboto, sans-serif; font-size: 12px; font-weight: 200;" fill="rgb(33, 33, 33)" stroke="none" stroke-width="1px">0.03</text><text x="0" y="101.14285714285714" dx="0em" dy="0.3em" style="text-anchor: end; visibility: inherit; font-family: Roboto, sans-serif; font-size: 12px; font-weight: 200;" fill="rgb(33, 33, 33)" stroke="none" stroke-width="1px">0.035</text><text x="0" y="75.85714285714286" dx="0em" dy="0.3em" style="text-anchor: end; visibility: inherit; font-family: Roboto, sans-serif; font-size: 12px; font-weight: 200;" fill="rgb(33, 33, 33)" stroke="none" stroke-width="1px">0.04</text><text x="0" y="50.57142857142859" dx="0em" dy="0.3em" style="text-anchor: end; visibility: inherit; font-family: Roboto, sans-serif; font-size: 12px; font-weight: 200;" fill="rgb(33, 33, 33)" stroke="none" stroke-width="1px">0.045</text><text x="0" y="25.285714285714295" dx="0em" dy="0.3em" style="text-anchor: end; visibility: inherit; font-family: Roboto, sans-serif; font-size: 12px; font-weight: 200;" fill="rgb(33, 33, 33)" stroke="none" stroke-width="1px">0.05</text><text x="0" y="0" dx="0em" dy="0.3em" style="text-anchor: end; visibility: hidden; font-family: Roboto, sans-serif; font-size: 12px; font-weight: 200;" fill="rgb(33, 33, 33)" stroke="none" stroke-width="1px">0.055</text></g><line x1="61.953125" y1="0" x2="61.953125" y2="177" fill="rgb(0, 0, 0)" stroke="rgb(204, 204, 204)" stroke-width="1px"></line></g></g><g transform="translate(61, 0)" clip-path="url(#clip_0)"><clipPath id="clip_0"><rect width="268" height="177"></rect></clipPath><g><g><g><line x1="0" y1="0" x2="0" y2="177" fill="rgb(0, 0, 0)" stroke="rgb(66, 66, 66)" stroke-width="1px" opacity="0.25"></line><line x1="22.337239583333332" y1="0" x2="22.337239583333332" y2="177" fill="rgb(0, 0, 0)" stroke="rgb(66, 66, 66)" stroke-width="1px" opacity="0.25"></line><line x1="44.674479166666664" y1="0" x2="44.674479166666664" y2="177" fill="rgb(0, 0, 0)" stroke="rgb(66, 66, 66)" stroke-width="1px" opacity="0.25"></line><line x1="67.01171875" y1="0" x2="67.01171875" y2="177" fill="rgb(0, 0, 0)" stroke="rgb(66, 66, 66)" stroke-width="1px" opacity="0.25"></line><line x1="89.34895833333333" y1="0" x2="89.34895833333333" y2="177" fill="rgb(0, 0, 0)" stroke="rgb(66, 66, 66)" stroke-width="1px" opacity="0.25"></line><line x1="111.68619791666667" y1="0" x2="111.68619791666667" y2="177" fill="rgb(0, 0, 0)" stroke="rgb(66, 66, 66)" stroke-width="1px" opacity="0.25"></line><line x1="134.0234375" y1="0" x2="134.0234375" y2="177" fill="rgb(0, 0, 0)" stroke="rgb(66, 66, 66)" stroke-width="1px" opacity="0.25"></line><line x1="156.36067708333334" y1="0" x2="156.36067708333334" y2="177" fill="rgb(0, 0, 0)" stroke="rgb(66, 66, 66)" stroke-width="1px" opacity="0.25"></line><line x1="178.69791666666666" y1="0" x2="178.69791666666666" y2="177" fill="rgb(0, 0, 0)" stroke="rgb(66, 66, 66)" stroke-width="1px" opacity="0.25"></line><line x1="201.03515625" y1="0" x2="201.03515625" y2="177" fill="rgb(0, 0, 0)" stroke="rgb(66, 66, 66)" stroke-width="1px" opacity="0.25"></line><line x1="223.37239583333334" y1="0" x2="223.37239583333334" y2="177" fill="rgb(0, 0, 0)" stroke="rgb(66, 66, 66)" stroke-width="1px" opacity="0.25"></line><line x1="245.70963541666666" y1="0" x2="245.70963541666666" y2="177" fill="rgb(0, 0, 0)" stroke="rgb(66, 66, 66)" stroke-width="1px" opacity="0.25"></line><line x1="268.046875" y1="0" x2="268.046875" y2="177" fill="rgb(0, 0, 0)" stroke="rgb(66, 66, 66)" stroke-width="1px" opacity="0.25"></line></g><g><line x1="0" y1="177" x2="268.046875" y2="177" fill="rgb(0, 0, 0)" stroke="rgb(66, 66, 66)" stroke-width="1px" opacity="0.25"></line><line x1="0" y1="151.7142857142857" x2="268.046875" y2="151.7142857142857" fill="rgb(0, 0, 0)" stroke="rgb(66, 66, 66)" stroke-width="1px" opacity="0.25"></line><line x1="0" y1="126.42857142857144" x2="268.046875" y2="126.42857142857144" fill="rgb(0, 0, 0)" stroke="rgb(66, 66, 66)" stroke-width="1px" opacity="0.25"></line><line x1="0" y1="101.14285714285714" x2="268.046875" y2="101.14285714285714" fill="rgb(0, 0, 0)" stroke="rgb(66, 66, 66)" stroke-width="1px" opacity="0.25"></line><line x1="0" y1="75.85714285714286" x2="268.046875" y2="75.85714285714286" fill="rgb(0, 0, 0)" stroke="rgb(66, 66, 66)" stroke-width="1px" opacity="0.25"></line><line x1="0" y1="50.57142857142859" x2="268.046875" y2="50.57142857142859" fill="rgb(0, 0, 0)" stroke="rgb(66, 66, 66)" stroke-width="1px" opacity="0.25"></line><line x1="0" y1="25.285714285714295" x2="268.046875" y2="25.285714285714295" fill="rgb(0, 0, 0)" stroke="rgb(66, 66, 66)" stroke-width="1px" opacity="0.25"></line><line x1="0" y1="0" x2="268.046875" y2="0" fill="rgb(0, 0, 0)" stroke="rgb(66, 66, 66)" stroke-width="1px" opacity="0.25"></line></g></g></g><g><g><line x1="0" y1="278.1428571428571" x2="268.046875" y2="278.1428571428571" fill="rgb(0, 0, 0)" stroke="rgb(153, 153, 153)" stroke-width="1.5px"></line></g></g><g><g><line x1="22.337239583333332" y1="0" x2="22.337239583333332" y2="177" fill="rgb(0, 0, 0)" stroke="rgb(153, 153, 153)" stroke-width="1.5px"></line></g></g><g><g><g><g><g><path stroke="rgb(255, 112, 67)" stroke-width="2px" d="M24.213567708333333,76.7707792946271L26.000546875,57.09348088502888L27.876875,70.2668021524613L29.663854166666667,85.95125104571468L31.540182291666667,89.5467983675338L33.327161458333336,112.48373029229644L35.20348958333333,122.31493429176776L36.990468750000005,127.83359277358682L38.866796875,126.58238453755956L40.65377604166667,146.41003037374554L42.53010416666667,150.34861645036708L44.317083333333336,157.2065471157669L46.19341145833334,155.58781652264318L47.980390625,150.61451679222017L49.85671875,163.70343420919136L51.64369791666667,162.98192877197093L53.52002604166667,172.77382402359098L55.30700520833334,190.25482498742562L57.18333333333334,181.8138893688561L58.9703125,171.46514629862205L60.846640625,150.71159696226124L62.63361979166667,146.5320495377597L64.50994791666666,136.99912020251585L66.29692708333333,135.31675005962126L68.17325520833334,118.87411020761772L69.960234375,124.35533409596405L71.74721354166667,132.1135160712188L73.62354166666667,123.98973947449642L75.41052083333334,108.18878462522646L77.28684895833334,92.80656943881182L79.07382812499999,109.12224053550759L80.95015624999999,100.0708154750331L82.73713541666666,98.7390139419563L84.61346354166666,91.11229765558794L86.40044270833334,91.61069310994996L88.27677083333333,81.10650760940474L90.06375,69.69253323429457L91.94007812500001,72.6843427204422L93.72705729166667,87.66553183796677L95.60338541666667,95.9257964013188L97.39036458333334,91.14053944499528L99.26669270833334,105.34464884169294L101.053671875,116.02775900721069L102.93,113.41229971100982L104.71697916666666,118.37434690301454L106.59330729166666,111.96820468158778L108.38028645833333,104.61809892384989L110.25661458333333,110.86310190444857L112.04359375,111.21480891143023L113.919921875,104.91920493431041L115.70690104166665,101.58631498020976L117.49388020833334,101.21632581848193L119.37020833333334,109.11835425181407L121.1571875,107.46406500644386L123.033515625,125.32465981905926L124.82049479166668,121.22516849233004L126.69682291666668,109.3450650471874L128.48380208333333,97.99448473188549L130.36013020833335,88.51727934269563L132.14710937499999,91.51057988330243L134.0234375,91.98547890141323L135.81041666666667,86.06011010960415L137.68674479166668,99.6542286211166L139.47372395833332,82.48794883606588L141.35005208333334,89.33752075163324L143.13703125,103.2257252295482L145.01335937500002,103.84206030469005L146.80033854166666,100.64371575960607L148.67666666666665,88.23014988076999L150.46364583333335,79.21399824364372L152.33997395833333,77.17491122297196L154.126953125,70.07450889986092L156.00328125,71.901110306884L157.79026041666665,71.21916635109156L159.66658854166667,70.2420621436938L161.45356770833334,54.34608979782659L163.240546875,64.90867229387456L165.116875,55.8377411557922L166.9038541666667,60.803314336332484L168.78018229166668,65.20251036519235L170.56716145833332,65.94065778071624L172.44348958333333,55.34574383182576L174.23046875,50.44568569641691L176.10679687500001,49.999653438389004L177.89377604166665,64.17748609250084L179.77010416666667,70.01732848495845L181.55708333333334,55.038469301695685L183.43341145833332,57.31119240601109L185.220390625,57.30436332307094L187.09671874999998,50.176310683125095L188.88369791666668,50.34423356344335L190.76002604166666,51.43271050592002L192.54700520833333,44.77664337854571L194.42333333333335,54.16665566998457L196.2103125,34.09516488591616L198.086640625,44.399508138689406L199.87361979166667,38.16149768500252L201.74994791666668,33.29515173510237L203.53692708333332,39.80810387588287L205.41325520833334,31.381678507666226L207.200234375,34.128838186739465L208.98721354166665,33.07324621651428L210.86354166666666,18.69818578704509L212.65052083333333,26.06191906061359L214.52684895833335,25.10941404707612L216.31382812500001,9.11708687735603L218.19015624999997,13.732555306767628L219.97713541666667,18.983495461745463L221.85346354166666,28.356711283294118L223.64044270833335,19.757424983363023L225.51677083333334,32.84604561591703L227.30374999999998,33.42710281597881L229.180078125,38.985978598519054L230.96705729166666,43.51891997251062L232.84338541666668,36.80592508618494L234.63036458333332,25.2220440579578L236.50669270833333,22.346073699950118L238.293671875,8.755469387830415L240.17000000000002,8.651052504133137L241.95697916666666,9.662545340866421L243.83330729166664,9.343450529513499L245.62028645833334,24.856794256990646" style="fill: none;" fill="none"></path></g></g></g></g><g opacity="0.2"><g><g><g><path stroke="rgb(255, 112, 67)" stroke-width="2px" d="M24.213567708333333,76.77077929462706L26.000546875,45.28710183926993L27.876875,82.91319056919643L29.663854166666667,104.39616294418063L31.540182291666667,94.24114495090078L33.327161458333336,144.2137644397361L35.20348958333333,136.37371331027578L36.990468750000005,135.8798498192004L38.866796875,124.73709542410714L40.65377604166667,175.8517736473254L42.53010416666667,156.2207728794643L44.317083333333336,167.45612255803178L46.19341145833334,153.1650060692004L47.980390625,143.16431040849005L49.85671875,183.32142480356353L51.64369791666667,161.90017947767464L53.52002604166667,187.45752329911505L55.30700520833334,216.47188800892658L57.18333333333334,169.15377183258533L58.9703125,155.94297760937897L60.846640625,119.58241113168853L62.63361979166667,140.26286593079567L64.50994791666666,122.69991441071033L66.29692708333333,132.79321477455753L68.17325520833334,94.2102672968592L69.960234375,132.57714655356747L71.74721354166667,143.75076918303967L73.62354166666667,111.80408705132348L75.41052083333334,84.4873669062342L77.28684895833334,69.73325516070639L79.07382812499999,133.5957417700972L80.95015624999999,86.49367968525206L82.73713541666666,96.74131180133139L84.61346354166666,79.67222377232143L86.40044270833334,92.35828627007349L88.27677083333333,65.35022962944849L90.06375,52.57157184822219L91.94007812500001,77.17205692189081L93.72705729166667,110.13731543081147L95.60338541666667,108.31619321874211L97.39036458333334,83.96265402010509L99.26669270833334,126.65081291965076L101.053671875,132.05242424777578L102.93,109.48911076784134L104.71697916666666,125.81741768973214L106.59330729166666,102.35899135044644L108.38028645833333,93.59294028793063L110.25661458333333,120.23060637499606L112.04359375,111.7423694218908L113.919921875,95.47579896875791L115.70690104166665,96.58698004909925L117.49388020833334,100.66134207589286L119.37020833333334,120.97139690177781L121.1571875,104.98263113839286L123.033515625,152.11555203795433L124.82049479166668,115.07593150224005L126.69682291666668,91.5249098794801L128.48380208333333,80.96861425893648L130.36013020833335,74.30147125891277L132.14710937499999,96.00053069421224L134.0234375,92.69782742857933L135.81041666666667,77.17205692189081L137.68674479166668,120.04540638838496L139.47372395833332,56.73852915849005L141.35005208333334,99.6118786249842L143.13703125,124.05803194642067L145.01335937500002,104.76656291740281L146.80033854166666,95.8461989419801L148.67666666666665,69.60980106251581L150.46364583333335,65.68977078795434L152.33997395833333,74.11628069196429L154.126953125,59.42390541519438L156.00328125,74.64101241741862L157.79026041666665,70.19625041740282L159.66658854166667,68.77640583259719L161.45356770833334,30.502131279025782L163.240546875,80.75254603794643L165.116875,42.23134444866862L166.9038541666667,68.25167410714286L168.78018229166668,71.80130440848215L170.56716145833332,67.04787890400206L172.44348958333333,39.45337290849005L174.23046875,43.09559849330359L176.10679687500001,49.33060505134719L177.89377604166665,85.44423507366862L179.77010416666667,78.77709207364492L181.55708333333334,32.57018052680154L183.43341145833332,60.7202770624842L185.220390625,57.29411969866072L187.09671874999998,39.48423172320639L188.88369791666668,50.59611788392069L190.76002604166666,53.06542591963496L192.54700520833333,34.79254268748422L194.42333333333335,68.25167410714286L196.2103125,3.9879287098135716L198.086640625,59.85602301784926L199.87361979166667,28.804482004472213L201.74994791666668,25.995632810252065L203.53692708333332,49.57753208705359L205.41325520833334,18.742040455341378L207.200234375,38.24957770534926L208.98721354166665,31.489858261176543L210.86354166666666,-2.864404857158622L212.65052083333333,37.10751897096636L214.52684895833335,23.680656526769926L216.31382812500001,-14.871403877224218L218.19015624999997,20.655757950884965L219.97713541666667,26.859905694212248L221.85346354166666,42.41653501561712L223.64044270833335,6.858495533466378L225.51677083333334,52.47897656474795L227.30374999999998,34.29868861607145L229.180078125,47.32429227232935L230.96705729166666,50.31833203349795L232.84338541666668,26.736432756696452L234.63036458333332,7.84622251561714L236.50669270833333,18.032118162938552L238.293671875,-11.630437080349218L240.17000000000002,8.49442717858727L241.95697916666666,11.179784595966378L243.83330729166664,8.864808312484241L245.62028645833334,48.12680984820639" style="fill: none;" fill="none"></path></g></g></g></g></g></g><g transform="translate(61, 177)" clip-path="url(#clip_1)"><clipPath id="clip_1"><rect width="268" height="23"></rect></clipPath><g><g><line x1="0" y1="0" x2="0" y2="5" style="visibility: inherit;" fill="rgb(0, 0, 0)" stroke="rgb(204, 204, 204)" stroke-width="1px"></line><line x1="22.337239583333332" y1="0" x2="22.337239583333332" y2="5" style="visibility: inherit;" fill="rgb(0, 0, 0)" stroke="rgb(204, 204, 204)" stroke-width="1px"></line><line x1="44.674479166666664" y1="0" x2="44.674479166666664" y2="5" style="visibility: inherit;" fill="rgb(0, 0, 0)" stroke="rgb(204, 204, 204)" stroke-width="1px"></line><line x1="67.01171875" y1="0" x2="67.01171875" y2="5" style="visibility: inherit;" fill="rgb(0, 0, 0)" stroke="rgb(204, 204, 204)" stroke-width="1px"></line><line x1="89.34895833333333" y1="0" x2="89.34895833333333" y2="5" style="visibility: inherit;" fill="rgb(0, 0, 0)" stroke="rgb(204, 204, 204)" stroke-width="1px"></line><line x1="111.68619791666667" y1="0" x2="111.68619791666667" y2="5" style="visibility: inherit;" fill="rgb(0, 0, 0)" stroke="rgb(204, 204, 204)" stroke-width="1px"></line><line x1="134.0234375" y1="0" x2="134.0234375" y2="5" style="visibility: inherit;" fill="rgb(0, 0, 0)" stroke="rgb(204, 204, 204)" stroke-width="1px"></line><line x1="156.36067708333334" y1="0" x2="156.36067708333334" y2="5" style="visibility: inherit;" fill="rgb(0, 0, 0)" stroke="rgb(204, 204, 204)" stroke-width="1px"></line><line x1="178.69791666666666" y1="0" x2="178.69791666666666" y2="5" style="visibility: inherit;" fill="rgb(0, 0, 0)" stroke="rgb(204, 204, 204)" stroke-width="1px"></line><line x1="201.03515625" y1="0" x2="201.03515625" y2="5" style="visibility: inherit;" fill="rgb(0, 0, 0)" stroke="rgb(204, 204, 204)" stroke-width="1px"></line><line x1="223.37239583333334" y1="0" x2="223.37239583333334" y2="5" style="visibility: inherit;" fill="rgb(0, 0, 0)" stroke="rgb(204, 204, 204)" stroke-width="1px"></line><line x1="245.70963541666666" y1="0" x2="245.70963541666666" y2="5" style="visibility: inherit;" fill="rgb(0, 0, 0)" stroke="rgb(204, 204, 204)" stroke-width="1px"></line><line x1="268.046875" y1="0" x2="268.046875" y2="5" style="visibility: inherit;" fill="rgb(0, 0, 0)" stroke="rgb(204, 204, 204)" stroke-width="1px"></line></g><g transform="translate(0, 8)"><text x="0" y="0" dx="0em" dy="0.95em" style="text-anchor: middle; visibility: hidden; font-family: Roboto, sans-serif; font-size: 12px; font-weight: 200;" fill="rgb(33, 33, 33)" stroke="none" stroke-width="1px">-200k</text><text x="22.337239583333332" y="0" dx="0em" dy="0.95em" style="text-anchor: middle; visibility: inherit; font-family: Roboto, sans-serif; font-size: 12px; font-weight: 200;" fill="rgb(33, 33, 33)" stroke="none" stroke-width="1px">0</text><text x="44.674479166666664" y="0" dx="0em" dy="0.95em" style="text-anchor: middle; visibility: hidden; font-family: Roboto, sans-serif; font-size: 12px; font-weight: 200;" fill="rgb(33, 33, 33)" stroke="none" stroke-width="1px">200k</text><text x="67.01171875" y="0" dx="0em" dy="0.95em" style="text-anchor: middle; visibility: inherit; font-family: Roboto, sans-serif; font-size: 12px; font-weight: 200;" fill="rgb(33, 33, 33)" stroke="none" stroke-width="1px">400k</text><text x="89.34895833333333" y="0" dx="0em" dy="0.95em" style="text-anchor: middle; visibility: hidden; font-family: Roboto, sans-serif; font-size: 12px; font-weight: 200;" fill="rgb(33, 33, 33)" stroke="none" stroke-width="1px">600k</text><text x="111.68619791666667" y="0" dx="0em" dy="0.95em" style="text-anchor: middle; visibility: inherit; font-family: Roboto, sans-serif; font-size: 12px; font-weight: 200;" fill="rgb(33, 33, 33)" stroke="none" stroke-width="1px">800k</text><text x="134.0234375" y="0" dx="0em" dy="0.95em" style="text-anchor: middle; visibility: hidden; font-family: Roboto, sans-serif; font-size: 12px; font-weight: 200;" fill="rgb(33, 33, 33)" stroke="none" stroke-width="1px">1M</text><text x="156.36067708333334" y="0" dx="0em" dy="0.95em" style="text-anchor: middle; visibility: inherit; font-family: Roboto, sans-serif; font-size: 12px; font-weight: 200;" fill="rgb(33, 33, 33)" stroke="none" stroke-width="1px">1.2M</text><text x="178.69791666666666" y="0" dx="0em" dy="0.95em" style="text-anchor: middle; visibility: hidden; font-family: Roboto, sans-serif; font-size: 12px; font-weight: 200;" fill="rgb(33, 33, 33)" stroke="none" stroke-width="1px">1.4M</text><text x="201.03515625" y="0" dx="0em" dy="0.95em" style="text-anchor: middle; visibility: inherit; font-family: Roboto, sans-serif; font-size: 12px; font-weight: 200;" fill="rgb(33, 33, 33)" stroke="none" stroke-width="1px">1.6M</text><text x="223.37239583333334" y="0" dx="0em" dy="0.95em" style="text-anchor: middle; visibility: hidden; font-family: Roboto, sans-serif; font-size: 12px; font-weight: 200;" fill="rgb(33, 33, 33)" stroke="none" stroke-width="1px">1.8M</text><text x="245.70963541666666" y="0" dx="0em" dy="0.95em" style="text-anchor: middle; visibility: inherit; font-family: Roboto, sans-serif; font-size: 12px; font-weight: 200;" fill="rgb(33, 33, 33)" stroke="none" stroke-width="1px">2M</text><text x="268.046875" y="0" dx="0em" dy="0.95em" style="text-anchor: middle; visibility: hidden; font-family: Roboto, sans-serif; font-size: 12px; font-weight: 200;" fill="rgb(33, 33, 33)" stroke="none" stroke-width="1px">2.2M</text></g><line x1="0" y1="0" x2="268.046875" y2="0" fill="rgb(0, 0, 0)" stroke="rgb(204, 204, 204)" stroke-width="1px"></line></g></g></g></g></svg>