<svg viewBox="0 0 330 200" xmlns="http://www.w3.org/2000/svg"><g><g><g><g><g><line x1="30.78125" y1="177" x2="25.78125" y2="177" style="visibility: inherit;" fill="rgb(0, 0, 0)" stroke="rgb(204, 204, 204)" stroke-width="1px"></line><line x1="30.78125" y1="164.35714285714286" x2="25.78125" y2="164.35714285714286" style="visibility: inherit;" fill="rgb(0, 0, 0)" stroke="rgb(204, 204, 204)" stroke-width="1px"></line><line x1="30.78125" y1="151.71428571428572" x2="25.78125" y2="151.71428571428572" style="visibility: inherit;" fill="rgb(0, 0, 0)" stroke="rgb(204, 204, 204)" stroke-width="1px"></line><line x1="30.78125" y1="139.07142857142856" x2="25.78125" y2="139.07142857142856" style="visibility: inherit;" fill="rgb(0, 0, 0)" stroke="rgb(204, 204, 204)" stroke-width="1px"></line><line x1="30.78125" y1="126.42857142857143" x2="25.78125" y2="126.42857142857143" style="visibility: inherit;" fill="rgb(0, 0, 0)" stroke="rgb(204, 204, 204)" stroke-width="1px"></line><line x1="30.78125" y1="113.78571428571428" x2="25.78125" y2="113.78571428571428" style="visibility: inherit;" fill="rgb(0, 0, 0)" stroke="rgb(204, 204, 204)" stroke-width="1px"></line><line x1="30.78125" y1="101.14285714285714" x2="25.78125" y2="101.14285714285714" style="visibility: inherit;" fill="rgb(0, 0, 0)" stroke="rgb(204, 204, 204)" stroke-width="1px"></line><line x1="30.78125" y1="88.5" x2="25.78125" y2="88.5" style="visibility: inherit;" fill="rgb(0, 0, 0)" stroke="rgb(204, 204, 204)" stroke-width="1px"></line><line x1="30.78125" y1="75.85714285714286" x2="25.78125" y2="75.85714285714286" style="visibility: inherit;" fill="rgb(0, 0, 0)" stroke="rgb(204, 204, 204)" stroke-width="1px"></line><line x1="30.78125" y1="63.21428571428571" x2="25.78125" y2="63.21428571428571" style="visibility: inherit;" fill="rgb(0, 0, 0)" stroke="rgb(204, 204, 204)" stroke-width="1px"></line><line x1="30.78125" y1="50.57142857142857" x2="25.78125" y2="50.57142857142857" style="visibility: inherit;" fill="rgb(0, 0, 0)" stroke="rgb(204, 204, 204)" stroke-width="1px"></line><line x1="30.78125" y1="37.92857142857143" x2="25.78125" y2="37.92857142857143" style="visibility: inherit;" fill="rgb(0, 0, 0)" stroke="rgb(204, 204, 204)" stroke-width="1px"></line><line x1="30.78125" y1="25.285714285714295" x2="25.78125" y2="25.285714285714295" style="visibility: inherit;" fill="rgb(0, 0, 0)" stroke="rgb(204, 204, 204)" stroke-width="1px"></line><line x1="30.78125" y1="12.642857142857137" x2="25.78125" y2="12.642857142857137" style="visibility: inherit;" fill="rgb(0, 0, 0)" stroke="rgb(204, 204, 204)" stroke-width="1px"></line><line x1="30.78125" y1="0" x2="25.78125" y2="0" style="visibility: inherit;" fill="rgb(0, 0, 0)" stroke="rgb(204, 204, 204)" stroke-width="1px"></line></g><g transform="translate(20.78125, 0)"><text x="0" y="177" dx="0em" dy="0.3em" style="text-anchor: end; visibility: hidden; font-family: Roboto, sans-serif; font-size: 12px; font-weight: 200;" fill="rgb(33, 33, 33)" stroke="none" stroke-width="1px">-2</text><text x="0" y="164.35714285714286" dx="0em" dy="0.3em" style="text-anchor: end; visibility: inherit; font-family: Roboto, sans-serif; font-size: 12px; font-weight: 200;" fill="rgb(33, 33, 33)" stroke="none" stroke-width="1px">0</text><text x="0" y="151.71428571428572" dx="0em" dy="0.3em" style="text-anchor: end; visibility: hidden; font-family: Roboto, sans-serif; font-size: 12px; font-weight: 200;" fill="rgb(33, 33, 33)" stroke="none" stroke-width="1px">2</text><text x="0" y="139.07142857142856" dx="0em" dy="0.3em" style="text-anchor: end; visibility: inherit; font-family: Roboto, sans-serif; font-size: 12px; font-weight: 200;" fill="rgb(33, 33, 33)" stroke="none" stroke-width="1px">4</text><text x="0" y="126.42857142857143" dx="0em" dy="0.3em" style="text-anchor: end; visibility: hidden; font-family: Roboto, sans-serif; font-size: 12px; font-weight: 200;" fill="rgb(33, 33, 33)" stroke="none" stroke-width="1px">6</text><text x="0" y="113.78571428571428" dx="0em" dy="0.3em" style="text-anchor: end; visibility: inherit; font-family: Roboto, sans-serif; font-size: 12px; font-weight: 200;" fill="rgb(33, 33, 33)" stroke="none" stroke-width="1px">8</text><text x="0" y="101.14285714285714" dx="0em" dy="0.3em" style="text-anchor: end; visibility: hidden; font-family: Roboto, sans-serif; font-size: 12px; font-weight: 200;" fill="rgb(33, 33, 33)" stroke="none" stroke-width="1px">10</text><text x="0" y="88.5" dx="0em" dy="0.3em" style="text-anchor: end; visibility: inherit; font-family: Roboto, sans-serif; font-size: 12px; font-weight: 200;" fill="rgb(33, 33, 33)" stroke="none" stroke-width="1px">12</text><text x="0" y="75.85714285714286" dx="0em" dy="0.3em" style="text-anchor: end; visibility: hidden; font-family: Roboto, sans-serif; font-size: 12px; font-weight: 200;" fill="rgb(33, 33, 33)" stroke="none" stroke-width="1px">14</text><text x="0" y="63.21428571428571" dx="0em" dy="0.3em" style="text-anchor: end; visibility: inherit; font-family: Roboto, sans-serif; font-size: 12px; font-weight: 200;" fill="rgb(33, 33, 33)" stroke="none" stroke-width="1px">16</text><text x="0" y="50.57142857142857" dx="0em" dy="0.3em" style="text-anchor: end; visibility: hidden; font-family: Roboto, sans-serif; font-size: 12px; font-weight: 200;" fill="rgb(33, 33, 33)" stroke="none" stroke-width="1px">18</text><text x="0" y="37.92857142857143" dx="0em" dy="0.3em" style="text-anchor: end; visibility: inherit; font-family: Roboto, sans-serif; font-size: 12px; font-weight: 200;" fill="rgb(33, 33, 33)" stroke="none" stroke-width="1px">20</text><text x="0" y="25.285714285714295" dx="0em" dy="0.3em" style="text-anchor: end; visibility: hidden; font-family: Roboto, sans-serif; font-size: 12px; font-weight: 200;" fill="rgb(33, 33, 33)" stroke="none" stroke-width="1px">22</text><text x="0" y="12.642857142857137" dx="0em" dy="0.3em" style="text-anchor: end; visibility: inherit; font-family: Roboto, sans-serif; font-size: 12px; font-weight: 200;" fill="rgb(33, 33, 33)" stroke="none" stroke-width="1px">24</text><text x="0" y="0" dx="0em" dy="0.3em" style="text-anchor: end; visibility: hidden; font-family: Roboto, sans-serif; font-size: 12px; font-weight: 200;" fill="rgb(33, 33, 33)" stroke="none" stroke-width="1px">26</text></g><line x1="30.78125" y1="0" x2="30.78125" y2="177" fill="rgb(0, 0, 0)" stroke="rgb(204, 204, 204)" stroke-width="1px"></line></g></g><g transform="translate(30, 0)" clip-path="url(#clip_0)"><clipPath id="clip_0"><rect width="299" height="177"></rect></clipPath><g><g><g><line x1="0" y1="0" x2="0" y2="177" fill="rgb(0, 0, 0)" stroke="rgb(66, 66, 66)" stroke-width="1px" opacity="0.25"></line><line x1="37.40234375" y1="0" x2="37.40234375" y2="177" fill="rgb(0, 0, 0)" stroke="rgb(66, 66, 66)" stroke-width="1px" opacity="0.25"></line><line x1="74.8046875" y1="0" x2="74.8046875" y2="177" fill="rgb(0, 0, 0)" stroke="rgb(66, 66, 66)" stroke-width="1px" opacity="0.25"></line><line x1="112.20703125" y1="0" x2="112.20703125" y2="177" fill="rgb(0, 0, 0)" stroke="rgb(66, 66, 66)" stroke-width="1px" opacity="0.25"></line><line x1="149.609375" y1="0" x2="149.609375" y2="177" fill="rgb(0, 0, 0)" stroke="rgb(66, 66, 66)" stroke-width="1px" opacity="0.25"></line><line x1="187.01171875" y1="0" x2="187.01171875" y2="177" fill="rgb(0, 0, 0)" stroke="rgb(66, 66, 66)" stroke-width="1px" opacity="0.25"></line><line x1="224.4140625" y1="0" x2="224.4140625" y2="177" fill="rgb(0, 0, 0)" stroke="rgb(66, 66, 66)" stroke-width="1px" opacity="0.25"></line><line x1="261.81640625" y1="0" x2="261.81640625" y2="177" fill="rgb(0, 0, 0)" stroke="rgb(66, 66, 66)" stroke-width="1px" opacity="0.25"></line><line x1="299.21875" y1="0" x2="299.21875" y2="177" fill="rgb(0, 0, 0)" stroke="rgb(66, 66, 66)" stroke-width="1px" opacity="0.25"></line></g><g><line x1="0" y1="177" x2="299.21875" y2="177" fill="rgb(0, 0, 0)" stroke="rgb(66, 66, 66)" stroke-width="1px" opacity="0.25"></line><line x1="0" y1="164.35714285714286" x2="299.21875" y2="164.35714285714286" fill="rgb(0, 0, 0)" stroke="rgb(66, 66, 66)" stroke-width="1px" opacity="0.25"></line><line x1="0" y1="151.71428571428572" x2="299.21875" y2="151.71428571428572" fill="rgb(0, 0, 0)" stroke="rgb(66, 66, 66)" stroke-width="1px" opacity="0.25"></line><line x1="0" y1="139.07142857142856" x2="299.21875" y2="139.07142857142856" fill="rgb(0, 0, 0)" stroke="rgb(66, 66, 66)" stroke-width="1px" opacity="0.25"></line><line x1="0" y1="126.42857142857143" x2="299.21875" y2="126.42857142857143" fill="rgb(0, 0, 0)" stroke="rgb(66, 66, 66)" stroke-width="1px" opacity="0.25"></line><line x1="0" y1="113.78571428571428" x2="299.21875" y2="113.78571428571428" fill="rgb(0, 0, 0)" stroke="rgb(66, 66, 66)" stroke-width="1px" opacity="0.25"></line><line x1="0" y1="101.14285714285714" x2="299.21875" y2="101.14285714285714" fill="rgb(0, 0, 0)" stroke="rgb(66, 66, 66)" stroke-width="1px" opacity="0.25"></line><line x1="0" y1="88.5" x2="299.21875" y2="88.5" fill="rgb(0, 0, 0)" stroke="rgb(66, 66, 66)" stroke-width="1px" opacity="0.25"></line><line x1="0" y1="75.85714285714286" x2="299.21875" y2="75.85714285714286" fill="rgb(0, 0, 0)" stroke="rgb(66, 66, 66)" stroke-width="1px" opacity="0.25"></line><line x1="0" y1="63.21428571428571" x2="299.21875" y2="63.21428571428571" fill="rgb(0, 0, 0)" stroke="rgb(66, 66, 66)" stroke-width="1px" opacity="0.25"></line><line x1="0" y1="50.57142857142857" x2="299.21875" y2="50.57142857142857" fill="rgb(0, 0, 0)" stroke="rgb(66, 66, 66)" stroke-width="1px" opacity="0.25"></line><line x1="0" y1="37.92857142857143" x2="299.21875" y2="37.92857142857143" fill="rgb(0, 0, 0)" stroke="rgb(66, 66, 66)" stroke-width="1px" opacity="0.25"></line><line x1="0" y1="25.285714285714295" x2="299.21875" y2="25.285714285714295" fill="rgb(0, 0, 0)" stroke="rgb(66, 66, 66)" stroke-width="1px" opacity="0.25"></line><line x1="0" y1="12.642857142857137" x2="299.21875" y2="12.642857142857137" fill="rgb(0, 0, 0)" stroke="rgb(66, 66, 66)" stroke-width="1px" opacity="0.25"></line><line x1="0" y1="0" x2="299.21875" y2="0" fill="rgb(0, 0, 0)" stroke="rgb(66, 66, 66)" stroke-width="1px" opacity="0.25"></line></g></g></g><g><g><line x1="0" y1="164.35714285714286" x2="299.21875" y2="164.35714285714286" fill="rgb(0, 0, 0)" stroke="rgb(153, 153, 153)" stroke-width="1.5px"></line></g></g><g><g><line x1="37.40234375" y1="0" x2="37.40234375" y2="177" fill="rgb(0, 0, 0)" stroke="rgb(153, 153, 153)" stroke-width="1.5px"></line></g></g><g><g><g><g><g><path stroke="rgb(255, 112, 67)" stroke-width="2px" d="M49.6703125,-99.60013792286766L50.92703125,5.8564710007267164L52.12390625,69.0856954610635L53.380625,107.05496846259034L54.5775,129.87943408804085L55.83421875,143.60667318058975L57.03109375,151.86552899106348L58.2878125,156.83562584579167L59.4846875,159.82756427936798L60.741406250000004,161.62861963490224L61.938281249999996,162.71313995509558L63.195,163.36630555783498L64.391875,163.75973733122032L65.64859375,163.99678631461023L66.84546875,164.13967881369337L68.1021875,164.2258056175015L69.2990625,164.27775463242014L70.4959375,164.30910855344652L71.75265625,164.32805800036314L72.94953124999999,164.3395161606249L74.20625,164.34643481849002L75.403125,164.35064005754435L76.65984375,164.3531806488747L77.85671875,164.35471853688395L79.1134375,164.35565675714153L80.31031250000001,164.35623141867086L81.56703125,164.35658091613504L82.76390625,164.35679144067802L84.020625,164.35692297262796L85.2175,164.35700281037163L86.47421874999999,164.35705352997127L87.67109375,164.3570847307483L88.9278125,164.35710497680654L90.12468750000001,164.3571171221071L91.38140625,164.35712471117873L92.57828125,164.35712971084996L93.835,164.35713284451558L95.031875,164.35713126542885L96.28859374999999,164.35713396836675L97.48546875,164.3571355052685L98.7421875,164.3571367010267L99.9390625,164.35713705713786L101.13593750000001,164.35713670653436L102.39265625,164.35713690651707L103.58953125000001,164.35713784242415L104.84625,164.35713794082451L106.043125,164.35713513692139L107.29984375,164.35713730802416L108.49671875,164.3571367911379L109.7534375,164.35713564359543L110.95031250000001,164.35713808446644L112.20703125,164.35713904184468L113.40390625,164.3571392925144L114.660625,164.35713966534053L115.8575,164.3571395978747L117.11421875,164.35714011518021L118.31109375,164.35714062496933L119.5678125,164.3571407749363L120.76468750000001,164.35714068075467L122.02140625,164.35714076523968L123.21828125,164.35713865381686L124.475,164.35713937166398L125.671875,164.35713991405825L126.92859375,164.3571403089542L128.12546875,164.35714056744231L129.38218750000001,164.35714053985836L130.5790625,164.35714081777914L131.7759375,164.3571405653145L133.03265625,164.35713884643587L134.22953125,164.35714010781703L135.48624999999998,164.35713847525489L136.683125,164.35713525502888L137.93984375,164.3571378782966L139.13671875,164.3571391796289L140.3934375,164.35713848376938L141.5903125,164.35713904242678L142.84703125,164.35713945684677L144.04390625,164.35713941192273L145.300625,164.35714005908866L146.4975,164.3571388184804L147.75421875,164.35713935529677L148.95109375,164.3571402278484L150.2078125,164.3571393443128L151.4046875,164.35713965201066L152.66140625,164.35714018742L153.85828125,164.35713955753528L155.11499999999998,164.35714026343564L156.311875,164.3571403016746L157.56859375,164.35714052515746L158.76546875,164.35714074934498L160.02218750000003,164.35714086397851L161.21906249999998,164.3571393985685L162.41593749999998,164.35713645563297L163.67265625000002,164.35713859920423L164.86953125000002,164.3571366262185L166.12625,164.357138178189L167.323125,164.35713856590468L168.57984375,164.3571377940958L169.77671875000001,164.35713772058384L171.0334375,164.35713770535452L172.2303125,164.35713798836943L173.48703125,164.35713880943263L174.68390625,164.35713980650195L175.94062499999998,164.35713123526403L177.1375,164.35713521217048L178.39421875,164.35713765846592L179.59109375,164.35713895740116L180.8478125,164.357139847038L182.0446875,164.35713895523094L183.30140625,164.35713909193095L184.49828125000002,164.35713766395287L185.755,164.35713842613825L186.951875,164.35713808963402L188.20859375,164.3571385757605L189.40546875,164.35713836223007L190.6621875,164.35713548806967L191.8590625,164.35713772835118L193.0559375,164.35713840488305L194.31265625,164.35713826115256L195.50953124999998,164.35713860475613L196.76624999999999,164.35713921585435L197.963125,164.3571396391551L199.21984375,164.3571395227857L200.41671874999997,164.35713934317815L201.6734375,164.35713925655722L202.8703125,164.3571399745126L204.12703125000002,164.3571398274773L205.32390625000002,164.3571403593078L206.580625,164.35714022834148L207.7775,164.35714019648188L209.03421875,164.3571392839353L210.23109375,164.35713715247323L211.4878125,164.35713894428156L212.6846875,164.35713865278694L213.94140625,164.3571360202129L215.13828125,164.3571383189226L216.39499999999998,164.3571395204033L217.591875,164.3571401899966L218.84859375000002,164.35714050711178L220.04546875000003,164.35713808970215L221.3021875,164.35713883515209L222.4990625,164.35713841578485L223.6959375,164.35713175521036L224.95265625000002,164.35713146922618L226.14953125,164.35713574939282L227.40625,164.3571378701233L228.603125,164.35713577777898L229.85984375,164.3571383129917L231.05671875,164.3571394757572L232.3134375,164.35713988266195L233.5103125,164.3571403195595L234.76703125,164.357140740465L235.96390624999998,164.35714090607587L237.22062499999998,164.3571409898395L238.4175,164.35713890413916L239.67421875000002,164.35713947549195L240.87109375000003,164.35713918243982L242.1278125,164.35713893541995L243.3246875,164.35713319878846L244.58140625000001,164.3571362742904L245.77828125,164.35713822200506L247.035,164.35713892227074L248.231875,164.3571342657268L249.48859375,164.35713244189665L250.68546874999998,164.35713621440016L251.9421875,164.35713788882254L253.1390625,164.35713850521273L254.3359375,164.35713963976517L255.59265624999998,164.35713622973472L256.78953125,164.35713795433162L258.04625000000004,164.35713743290992L259.24312499999996,164.35713708656075L260.49984375,164.3571327206052L261.69671875,164.3571367650803" style="fill: none;" fill="none"></path></g></g></g></g><g opacity="0.2"><g><g><g><path stroke="rgb(255, 112, 67)" stroke-width="2px" d="M38.659062500000005,-63221.24916294643L39.8559375,151.23608335426877L41.11265625,149.92558522735322L42.30953125,137.07242243630546L43.566250000000004,147.846293423857L44.763125,154.6685714849404L46.01984375,158.8715510921819L47.21671875,161.161043420434L48.4734375,162.46643439467462L49.6703125,163.26214522815178L50.92703125,163.7255324841078L52.12390625,163.97378955262582L53.380625,164.11977371759713L54.5775,164.2132580052795L55.83421875,164.26695663471972L57.03109375,164.29956286161075L58.2878125,164.31974309346904L59.4846875,164.33343368115104L60.741406250000004,164.34120357375025L61.938281249999996,164.34661293201498L63.195,164.35010928926724L64.391875,164.35233663987518L65.64859375,164.353840183976L66.84546875,164.35491111259344L68.1021875,164.35553482506657L69.2990625,164.3560034179578L70.4959375,164.35633580399943L71.75265625,164.3566008710516L72.94953124999999,164.3567751828971L74.20625,164.3568561512445L75.403125,164.35697426326942L76.65984375,164.3570074538278L77.85671875,164.35703500459314L79.1134375,164.35706996602968L80.31031250000001,164.35709701157478L81.56703125,164.35710735215545L82.76390625,164.3571085465651L84.020625,164.3571210946866L85.2175,164.35712306722309L86.47421874999999,164.35712992716256L87.67109375,164.35713172740745L88.9278125,164.35713547274887L90.12468750000001,164.3571354161563L91.38140625,164.35713614233674L92.57828125,164.35713724168306L93.835,164.3571375646485L95.031875,164.3571288869047L96.28859374999999,164.35713803970935L97.48546875,164.3571378202508L98.7421875,164.3571385021562L99.9390625,164.3571375935359L101.13593750000001,164.3571361784323L102.39265625,164.3571372077442L103.58953125000001,164.3571392521488L104.84625,164.3571380890416L106.043125,164.35713091349837L107.29984375,164.35714057828173L108.49671875,164.3571360125699L109.7534375,164.35713391509162L110.95031250000001,164.35714176106663L112.20703125,164.35714048391065L113.40390625,164.35713967008957L114.660625,164.35714022691576L115.8575,164.35713949625318L117.11421875,164.35714089437982L118.31109375,164.35714139284715L119.5678125,164.3571410008264L120.76468750000001,164.35714053889214L122.02140625,164.35714089249655L123.21828125,164.35713547345316L124.475,164.35714045293247L125.671875,164.35714073104813L126.92859375,164.35714090377238L128.12546875,164.3571409567941L129.38218750000001,164.3571404983096L130.5790625,164.3571412364017L131.7759375,164.35714018503566L133.03265625,164.357136257348L134.22953125,164.35714200779216L135.48624999999998,164.35713601618258L136.683125,164.35713040451304L137.93984375,164.35714182963474L139.13671875,164.35714113978102L140.3934375,164.35713743562007L141.5903125,164.35713988391325L142.84703125,164.3571400810733L144.04390625,164.35713934425522L145.300625,164.35714103389245L146.4975,164.35713694979475L147.75421875,164.35714016388485L148.95109375,164.35714154214295L150.2078125,164.35713801347345L151.4046875,164.35714011548544L152.66140625,164.3571409938886L153.85828125,164.35713860876163L155.11499999999998,164.3571413267091L156.311875,164.3571403592727L157.56859375,164.35714086178194L158.76546875,164.35714108703095L160.02218750000003,164.35714103664708L161.21906249999998,164.3571371912717L162.41593749999998,164.35713202279027L163.67265625000002,164.35714182799197L164.86953125000002,164.35713365437783L166.12625,164.35714051586885L167.323125,164.35713914990748L168.57984375,164.3571366315466L169.77671875000001,164.3571376098553L171.0334375,164.35713768241516L172.2303125,164.35713841466503L173.48703125,164.35714004617196L174.68390625,164.35714130835316L175.94062499999998,164.3571183247027L177.1375,164.35714120244808L178.39421875,164.35714134323672L179.59109375,164.35714091394271L180.8478125,164.35714118706744L182.0446875,164.3571376119326L183.30140625,164.35713929783748L184.49828125000002,164.35713551303857L185.755,164.35713957419188L186.951875,164.35713758276927L188.20859375,164.35713930799614L189.40546875,164.3571380405965L190.6621875,164.3571311588205L191.8590625,164.3571411028103L193.0559375,164.35713942391973L194.31265625,164.35713804465624L195.50953124999998,164.3571391223144L196.76624999999999,164.3571401363306L197.963125,164.35714027675846L199.21984375,164.3571393475025L200.41671874999997,164.35713907264147L201.6734375,164.35713912608307L202.8703125,164.3571410559441L204.12703125000002,164.35713960600316L205.32390625000002,164.3571411603858L206.580625,164.35714003107142L207.7775,164.3571401484929L209.03421875,164.35713790939775L210.23109375,164.35713394192507L211.4878125,164.35714164322096L212.6846875,164.35713821371854L213.94140625,164.357132054857L215.13828125,164.35714178139017L216.39499999999998,164.3571413301524L217.591875,164.35714119858204L218.84859375000002,164.3571409847715L220.04546875000003,164.35713444844103L221.3021875,164.35713995799773L222.4990625,164.35713778410633L223.6959375,164.3571217226157L224.95265625000002,164.35713103845808L226.14953125,164.35714219646084L227.40625,164.35714106450678L228.603125,164.3571326261526L229.85984375,164.35714213169558L231.05671875,164.35714122719097L232.3134375,164.35714049556861L233.5103125,164.35714097764324L234.76703125,164.35714137446058L235.96390624999998,164.3571411555298L237.22062499999998,164.3571411160098L238.4175,164.35713576252033L239.67421875000002,164.357140336101L240.87109375000003,164.35713874102547L242.1278125,164.35713856334246L243.3246875,164.35712455789738L244.58140625000001,164.3571409068134L245.77828125,164.3571411557808L247.035,164.35713997705685L248.231875,164.35712725173457L249.48859375,164.35712969472385L250.68546874999998,164.35714189679265L251.9421875,164.35714041094747L253.1390625,164.35713943366017L254.3359375,164.35714134870253L255.59265624999998,164.35713109332298L256.78953125,164.35714055203272L258.04625000000004,164.3571366475103L259.24312499999996,164.3571365648669L260.49984375,164.35712614431623L261.69671875,164.3571428571343" style="fill: none;" fill="none"></path></g></g></g></g></g></g><g transform="translate(30, 177)" clip-path="url(#clip_1)"><clipPath id="clip_1"><rect width="299" height="23"></rect></clipPath><g><g><line x1="0" y1="0" x2="0" y2="5" style="visibility: inherit;" fill="rgb(0, 0, 0)" stroke="rgb(204, 204, 204)" stroke-width="1px"></line><line x1="37.40234375" y1="0" x2="37.40234375" y2="5" style="visibility: inherit;" fill="rgb(0, 0, 0)" stroke="rgb(204, 204, 204)" stroke-width="1px"></line><line x1="74.8046875" y1="0" x2="74.8046875" y2="5" style="visibility: inherit;" fill="rgb(0, 0, 0)" stroke="rgb(204, 204, 204)" stroke-width="1px"></line><line x1="112.20703125" y1="0" x2="112.20703125" y2="5" style="visibility: inherit;" fill="rgb(0, 0, 0)" stroke="rgb(204, 204, 204)" stroke-width="1px"></line><line x1="149.609375" y1="0" x2="149.609375" y2="5" style="visibility: inherit;" fill="rgb(0, 0, 0)" stroke="rgb(204, 204, 204)" stroke-width="1px"></line><line x1="187.01171875" y1="0" x2="187.01171875" y2="5" style="visibility: inherit;" fill="rgb(0, 0, 0)" stroke="rgb(204, 204, 204)" stroke-width="1px"></line><line x1="224.4140625" y1="0" x2="224.4140625" y2="5" style="visibility: inherit;" fill="rgb(0, 0, 0)" stroke="rgb(204, 204, 204)" stroke-width="1px"></line><line x1="261.81640625" y1="0" x2="261.81640625" y2="5" style="visibility: inherit;" fill="rgb(0, 0, 0)" stroke="rgb(204, 204, 204)" stroke-width="1px"></line><line x1="299.21875" y1="0" x2="299.21875" y2="5" style="visibility: inherit;" fill="rgb(0, 0, 0)" stroke="rgb(204, 204, 204)" stroke-width="1px"></line></g><g transform="translate(0, 8)"><text x="0" y="0" dx="0em" dy="0.95em" style="text-anchor: middle; visibility: hidden; font-family: Roboto, sans-serif; font-size: 12px; font-weight: 200;" fill="rgb(33, 33, 33)" stroke="none" stroke-width="1px">-500k</text><text x="37.40234375" y="0" dx="0em" dy="0.95em" style="text-anchor: middle; visibility: inherit; font-family: Roboto, sans-serif; font-size: 12px; font-weight: 200;" fill="rgb(33, 33, 33)" stroke="none" stroke-width="1px">0</text><text x="74.8046875" y="0" dx="0em" dy="0.95em" style="text-anchor: middle; visibility: inherit; font-family: Roboto, sans-serif; font-size: 12px; font-weight: 200;" fill="rgb(33, 33, 33)" stroke="none" stroke-width="1px">500k</text><text x="112.20703125" y="0" dx="0em" dy="0.95em" style="text-anchor: middle; visibility: inherit; font-family: Roboto, sans-serif; font-size: 12px; font-weight: 200;" fill="rgb(33, 33, 33)" stroke="none" stroke-width="1px">1M</text><text x="149.609375" y="0" dx="0em" dy="0.95em" style="text-anchor: middle; visibility: inherit; font-family: Roboto, sans-serif; font-size: 12px; font-weight: 200;" fill="rgb(33, 33, 33)" stroke="none" stroke-width="1px">1.5M</text><text x="187.01171875" y="0" dx="0em" dy="0.95em" style="text-anchor: middle; visibility: inherit; font-family: Roboto, sans-serif; font-size: 12px; font-weight: 200;" fill="rgb(33, 33, 33)" stroke="none" stroke-width="1px">2M</text><text x="224.4140625" y="0" dx="0em" dy="0.95em" style="text-anchor: middle; visibility: inherit; font-family: Roboto, sans-serif; font-size: 12px; font-weight: 200;" fill="rgb(33, 33, 33)" stroke="none" stroke-width="1px">2.5M</text><text x="261.81640625" y="0" dx="0em" dy="0.95em" style="text-anchor: middle; visibility: inherit; font-family: Roboto, sans-serif; font-size: 12px; font-weight: 200;" fill="rgb(33, 33, 33)" stroke="none" stroke-width="1px">3M</text><text x="299.21875" y="0" dx="0em" dy="0.95em" style="text-anchor: middle; visibility: hidden; font-family: Roboto, sans-serif; font-size: 12px; font-weight: 200;" fill="rgb(33, 33, 33)" stroke="none" stroke-width="1px">3.5M</text></g><line x1="0" y1="0" x2="299.21875" y2="0" fill="rgb(0, 0, 0)" stroke="rgb(204, 204, 204)" stroke-width="1px"></line></g></g></g></g></svg>