<svg viewBox="0 0 330 200" xmlns="http://www.w3.org/2000/svg"><g><g><g><g><g><line x1="51.5625" y1="177" x2="46.5625" y2="177" style="visibility: inherit;" fill="rgb(0, 0, 0)" stroke="rgb(204, 204, 204)" stroke-width="1px"></line><line x1="51.5625" y1="154.8750003296882" x2="46.5625" y2="154.8750003296882" style="visibility: inherit;" fill="rgb(0, 0, 0)" stroke="rgb(204, 204, 204)" stroke-width="1px"></line><line x1="51.5625" y1="132.75000065937638" x2="46.5625" y2="132.75000065937638" style="visibility: inherit;" fill="rgb(0, 0, 0)" stroke="rgb(204, 204, 204)" stroke-width="1px"></line><line x1="51.5625" y1="110.62500098906457" x2="46.5625" y2="110.62500098906457" style="visibility: inherit;" fill="rgb(0, 0, 0)" stroke="rgb(204, 204, 204)" stroke-width="1px"></line><line x1="51.5625" y1="88.50000131875275" x2="46.5625" y2="88.50000131875275" style="visibility: inherit;" fill="rgb(0, 0, 0)" stroke="rgb(204, 204, 204)" stroke-width="1px"></line><line x1="51.5625" y1="66.37500164844094" x2="46.5625" y2="66.37500164844094" style="visibility: inherit;" fill="rgb(0, 0, 0)" stroke="rgb(204, 204, 204)" stroke-width="1px"></line><line x1="51.5625" y1="44.25000197812913" x2="46.5625" y2="44.25000197812913" style="visibility: inherit;" fill="rgb(0, 0, 0)" stroke="rgb(204, 204, 204)" stroke-width="1px"></line><line x1="51.5625" y1="22.12500230781732" x2="46.5625" y2="22.12500230781732" style="visibility: inherit;" fill="rgb(0, 0, 0)" stroke="rgb(204, 204, 204)" stroke-width="1px"></line><line x1="51.5625" y1="0.00000263750549200914" x2="46.5625" y2="0.00000263750549200914" style="visibility: inherit;" fill="rgb(0, 0, 0)" stroke="rgb(204, 204, 204)" stroke-width="1px"></line></g><g transform="translate(41.5625, 0)"><text x="0" y="177" dx="0em" dy="0.3em" style="text-anchor: end; visibility: hidden; font-family: Roboto, sans-serif; font-size: 12px; font-weight: 200;" fill="rgb(33, 33, 33)" stroke="none" stroke-width="1px">0</text><text x="0" y="154.8750003296882" dx="0em" dy="0.3em" style="text-anchor: end; visibility: inherit; font-family: Roboto, sans-serif; font-size: 12px; font-weight: 200;" fill="rgb(33, 33, 33)" stroke="none" stroke-width="1px">0.05</text><text x="0" y="132.75000065937638" dx="0em" dy="0.3em" style="text-anchor: end; visibility: hidden; font-family: Roboto, sans-serif; font-size: 12px; font-weight: 200;" fill="rgb(33, 33, 33)" stroke="none" stroke-width="1px">0.1</text><text x="0" y="110.62500098906457" dx="0em" dy="0.3em" style="text-anchor: end; visibility: inherit; font-family: Roboto, sans-serif; font-size: 12px; font-weight: 200;" fill="rgb(33, 33, 33)" stroke="none" stroke-width="1px">0.15</text><text x="0" y="88.50000131875275" dx="0em" dy="0.3em" style="text-anchor: end; visibility: hidden; font-family: Roboto, sans-serif; font-size: 12px; font-weight: 200;" fill="rgb(33, 33, 33)" stroke="none" stroke-width="1px">0.2</text><text x="0" y="66.37500164844094" dx="0em" dy="0.3em" style="text-anchor: end; visibility: inherit; font-family: Roboto, sans-serif; font-size: 12px; font-weight: 200;" fill="rgb(33, 33, 33)" stroke="none" stroke-width="1px">0.25</text><text x="0" y="44.25000197812913" dx="0em" dy="0.3em" style="text-anchor: end; visibility: hidden; font-family: Roboto, sans-serif; font-size: 12px; font-weight: 200;" fill="rgb(33, 33, 33)" stroke="none" stroke-width="1px">0.3</text><text x="0" y="22.12500230781732" dx="0em" dy="0.3em" style="text-anchor: end; visibility: inherit; font-family: Roboto, sans-serif; font-size: 12px; font-weight: 200;" fill="rgb(33, 33, 33)" stroke="none" stroke-width="1px">0.35</text><text x="0" y="0.00000263750549200914" dx="0em" dy="0.3em" style="text-anchor: end; visibility: hidden; font-family: Roboto, sans-serif; font-size: 12px; font-weight: 200;" fill="rgb(33, 33, 33)" stroke="none" stroke-width="1px">0.4</text></g><line x1="51.5625" y1="0" x2="51.5625" y2="177" fill="rgb(0, 0, 0)" stroke="rgb(204, 204, 204)" stroke-width="1px"></line></g></g><g transform="translate(51, 0)" clip-path="url(#clip_0)"><clipPath id="clip_0"><rect width="278" height="177"></rect></clipPath><g><g><g><line x1="0" y1="0" x2="0" y2="177" fill="rgb(0, 0, 0)" stroke="rgb(66, 66, 66)" stroke-width="1px" opacity="0.25"></line><line x1="34.8046875" y1="0" x2="34.8046875" y2="177" fill="rgb(0, 0, 0)" stroke="rgb(66, 66, 66)" stroke-width="1px" opacity="0.25"></line><line x1="69.609375" y1="0" x2="69.609375" y2="177" fill="rgb(0, 0, 0)" stroke="rgb(66, 66, 66)" stroke-width="1px" opacity="0.25"></line><line x1="104.4140625" y1="0" x2="104.4140625" y2="177" fill="rgb(0, 0, 0)" stroke="rgb(66, 66, 66)" stroke-width="1px" opacity="0.25"></line><line x1="139.21875" y1="0" x2="139.21875" y2="177" fill="rgb(0, 0, 0)" stroke="rgb(66, 66, 66)" stroke-width="1px" opacity="0.25"></line><line x1="174.0234375" y1="0" x2="174.0234375" y2="177" fill="rgb(0, 0, 0)" stroke="rgb(66, 66, 66)" stroke-width="1px" opacity="0.25"></line><line x1="208.828125" y1="0" x2="208.828125" y2="177" fill="rgb(0, 0, 0)" stroke="rgb(66, 66, 66)" stroke-width="1px" opacity="0.25"></line><line x1="243.6328125" y1="0" x2="243.6328125" y2="177" fill="rgb(0, 0, 0)" stroke="rgb(66, 66, 66)" stroke-width="1px" opacity="0.25"></line><line x1="278.4375" y1="0" x2="278.4375" y2="177" fill="rgb(0, 0, 0)" stroke="rgb(66, 66, 66)" stroke-width="1px" opacity="0.25"></line></g><g><line x1="0" y1="177" x2="278.4375" y2="177" fill="rgb(0, 0, 0)" stroke="rgb(66, 66, 66)" stroke-width="1px" opacity="0.25"></line><line x1="0" y1="154.8750003296882" x2="278.4375" y2="154.8750003296882" fill="rgb(0, 0, 0)" stroke="rgb(66, 66, 66)" stroke-width="1px" opacity="0.25"></line><line x1="0" y1="132.75000065937638" x2="278.4375" y2="132.75000065937638" fill="rgb(0, 0, 0)" stroke="rgb(66, 66, 66)" stroke-width="1px" opacity="0.25"></line><line x1="0" y1="110.62500098906457" x2="278.4375" y2="110.62500098906457" fill="rgb(0, 0, 0)" stroke="rgb(66, 66, 66)" stroke-width="1px" opacity="0.25"></line><line x1="0" y1="88.50000131875275" x2="278.4375" y2="88.50000131875275" fill="rgb(0, 0, 0)" stroke="rgb(66, 66, 66)" stroke-width="1px" opacity="0.25"></line><line x1="0" y1="66.37500164844094" x2="278.4375" y2="66.37500164844094" fill="rgb(0, 0, 0)" stroke="rgb(66, 66, 66)" stroke-width="1px" opacity="0.25"></line><line x1="0" y1="44.25000197812913" x2="278.4375" y2="44.25000197812913" fill="rgb(0, 0, 0)" stroke="rgb(66, 66, 66)" stroke-width="1px" opacity="0.25"></line><line x1="0" y1="22.12500230781732" x2="278.4375" y2="22.12500230781732" fill="rgb(0, 0, 0)" stroke="rgb(66, 66, 66)" stroke-width="1px" opacity="0.25"></line><line x1="0" y1="0.00000263750549200914" x2="278.4375" y2="0.00000263750549200914" fill="rgb(0, 0, 0)" stroke="rgb(66, 66, 66)" stroke-width="1px" opacity="0.25"></line></g></g></g><g><g><line x1="0" y1="177" x2="278.4375" y2="177" fill="rgb(0, 0, 0)" stroke="rgb(153, 153, 153)" stroke-width="1.5px"></line></g></g><g><g><line x1="34.8046875" y1="0" x2="34.8046875" y2="177" fill="rgb(0, 0, 0)" stroke="rgb(153, 153, 153)" stroke-width="1.5px"></line></g></g><g><g><g><g><g><path stroke="rgb(255, 112, 67)" stroke-width="2px" d="M35.974125,88.5L37.087875000000004,88.5L38.2573125,88.5L39.3710625,88.5L40.5405,88.5L41.654250000000005,88.5L42.8236875,88.5L43.9374375,88.5L45.106875,88.5L46.220625000000005,88.5L47.3900625,88.5L48.503812499999995,88.5L49.67325,88.5L50.787,88.5L51.9564375,88.5L53.070187499999996,88.5L54.239625000000004,88.5L55.353375,88.5L56.5228125,88.5L57.6365625,88.5L58.806,88.5L59.91975,88.5L61.0891875,88.5L62.2029375,88.5L63.372375,88.5L64.486125,88.5L65.599875,88.5L66.7693125,88.5L67.8830625,88.5L69.0525,88.5L70.16625,88.5L71.33568749999999,88.5L72.4494375,88.5L73.618875,88.5L74.73262500000001,88.5L75.9020625,88.5L77.01581250000001,88.5L78.18525,88.5L79.29899999999999,88.5L80.4684375,88.5L81.58218749999999,88.5L82.751625,88.5L83.865375,88.5L85.0348125,88.5L86.1485625,88.5L87.318,88.5L88.43175,88.5L89.6011875,88.5L90.71493749999999,88.5L91.884375,88.5L92.998125,88.5L94.11187500000001,88.5L95.2813125,88.5L96.39506250000001,88.5L97.5645,88.5L98.67824999999999,88.5L99.84768749999999,88.5L100.96143749999999,88.5L102.130875,88.5L103.244625,88.5L104.4140625,88.5L105.5278125,88.5L106.69725,88.5L107.81099999999999,88.5L108.98043750000001,88.5L110.09418749999999,88.5L111.263625,88.5L112.377375,88.5L113.5468125,88.5L114.6605625,88.5L115.83,88.5L116.94375,88.5L118.11318750000001,88.5L119.2269375,88.5L120.396375,88.5L121.510125,88.5L122.623875,88.5L123.7933125,88.5L124.9070625,88.5L126.0765,88.5L127.19024999999999,88.5L128.3596875,88.5L129.47343750000002,88.5L130.642875,88.5L131.756625,88.5L132.9260625,88.5L134.0398125,88.5L135.20925,88.5L136.323,88.5L137.4924375,88.5L138.6061875,88.5L139.775625,88.5L140.889375,88.5L142.0588125,88.5L143.1725625,88.5L144.34199999999998,88.5L145.45575,88.5L146.62518749999998,88.5L147.7389375,88.5L148.908375,88.5L150.022125,88.5L151.135875,88.5L152.3053125,88.5L153.41906250000002,88.5L154.5885,88.5L155.70225000000002,88.5L156.8716875,88.5L157.98543750000002,88.5L159.154875,88.5L160.26862500000001,88.5L161.4380625,88.5L162.55181249999998,88.5L163.72125,88.5L164.83499999999998,88.5L166.0044375,88.5L167.11818749999998,88.5L168.28762500000002,88.5L169.401375,88.5L170.57081250000002,88.5L171.6845625,88.5L172.854,88.5L173.96775,88.5L175.1371875,88.5L176.2509375,88.5L177.420375,88.5L178.534125,88.5L179.647875,88.5L180.81731249999999,88.5L181.9310625,88.5L183.10049999999998,88.5L184.21425,88.5L185.38368749999998,88.5L186.4974375,88.5L187.666875,88.5L188.78062500000001,88.5L189.9500625,88.5L191.0638125,88.5L192.23325,88.5L193.347,88.5L194.5164375,88.5L195.6301875,88.5L196.799625,88.5L197.913375,88.5L199.0828125,88.5L200.1965625,88.5L201.36599999999999,88.5L202.47975,88.5L203.6491875,88.5L204.76293750000002,88.5L205.932375,88.5L207.04612500000002,88.5L208.159875,88.5L209.32931250000001,88.5L210.4430625,88.5L211.6125,88.5L212.72625,88.5L213.8956875,88.5L215.0094375,88.5L216.178875,88.5L217.292625,88.5L218.4620625,88.5L219.57581249999998,88.5L220.74525,88.5L221.85899999999998,88.5L223.02843750000002,88.5L224.1421875,88.5L225.31162500000002,88.5L226.425375,88.5L227.59481250000002,88.5L228.7085625,88.5L229.87800000000001,88.5L230.99175,88.5L232.16118749999998,88.5L233.2749375,88.5L234.44437499999998,88.5L235.558125,88.5L236.671875,88.5L237.8413125,88.5L238.9550625,88.5L240.1245,88.5L241.23825,88.5L242.4076875,88.5L243.52143750000002,88.5" style="fill: none;" fill="none"></path></g></g></g></g><g opacity="0.2"><g><g><g><path stroke="rgb(255, 112, 67)" stroke-width="2px" d="M35.974125,88.5L37.087875000000004,88.5L38.2573125,88.5L39.3710625,88.5L40.5405,88.5L41.654250000000005,88.5L42.8236875,88.5L43.9374375,88.5L45.106875,88.5L46.220625000000005,88.5L47.3900625,88.5L48.503812499999995,88.5L49.67325,88.5L50.787,88.5L51.9564375,88.5L53.070187499999996,88.5L54.239625000000004,88.5L55.353375,88.5L56.5228125,88.5L57.6365625,88.5L58.806,88.5L59.91975,88.5L61.0891875,88.5L62.2029375,88.5L63.372375,88.5L64.486125,88.5L65.599875,88.5L66.7693125,88.5L67.8830625,88.5L69.0525,88.5L70.16625,88.5L71.33568749999999,88.5L72.4494375,88.5L73.618875,88.5L74.73262500000001,88.5L75.9020625,88.5L77.01581250000001,88.5L78.18525,88.5L79.29899999999999,88.5L80.4684375,88.5L81.58218749999999,88.5L82.751625,88.5L83.865375,88.5L85.0348125,88.5L86.1485625,88.5L87.318,88.5L88.43175,88.5L89.6011875,88.5L90.71493749999999,88.5L91.884375,88.5L92.998125,88.5L94.11187500000001,88.5L95.2813125,88.5L96.39506250000001,88.5L97.5645,88.5L98.67824999999999,88.5L99.84768749999999,88.5L100.96143749999999,88.5L102.130875,88.5L103.244625,88.5L104.4140625,88.5L105.5278125,88.5L106.69725,88.5L107.81099999999999,88.5L108.98043750000001,88.5L110.09418749999999,88.5L111.263625,88.5L112.377375,88.5L113.5468125,88.5L114.6605625,88.5L115.83,88.5L116.94375,88.5L118.11318750000001,88.5L119.2269375,88.5L120.396375,88.5L121.510125,88.5L122.623875,88.5L123.7933125,88.5L124.9070625,88.5L126.0765,88.5L127.19024999999999,88.5L128.3596875,88.5L129.47343750000002,88.5L130.642875,88.5L131.756625,88.5L132.9260625,88.5L134.0398125,88.5L135.20925,88.5L136.323,88.5L137.4924375,88.5L138.6061875,88.5L139.775625,88.5L140.889375,88.5L142.0588125,88.5L143.1725625,88.5L144.34199999999998,88.5L145.45575,88.5L146.62518749999998,88.5L147.7389375,88.5L148.908375,88.5L150.022125,88.5L151.135875,88.5L152.3053125,88.5L153.41906250000002,88.5L154.5885,88.5L155.70225000000002,88.5L156.8716875,88.5L157.98543750000002,88.5L159.154875,88.5L160.26862500000001,88.5L161.4380625,88.5L162.55181249999998,88.5L163.72125,88.5L164.83499999999998,88.5L166.0044375,88.5L167.11818749999998,88.5L168.28762500000002,88.5L169.401375,88.5L170.57081250000002,88.5L171.6845625,88.5L172.854,88.5L173.96775,88.5L175.1371875,88.5L176.2509375,88.5L177.420375,88.5L178.534125,88.5L179.647875,88.5L180.81731249999999,88.5L181.9310625,88.5L183.10049999999998,88.5L184.21425,88.5L185.38368749999998,88.5L186.4974375,88.5L187.666875,88.5L188.78062500000001,88.5L189.9500625,88.5L191.0638125,88.5L192.23325,88.5L193.347,88.5L194.5164375,88.5L195.6301875,88.5L196.799625,88.5L197.913375,88.5L199.0828125,88.5L200.1965625,88.5L201.36599999999999,88.5L202.47975,88.5L203.6491875,88.5L204.76293750000002,88.5L205.932375,88.5L207.04612500000002,88.5L208.159875,88.5L209.32931250000001,88.5L210.4430625,88.5L211.6125,88.5L212.72625,88.5L213.8956875,88.5L215.0094375,88.5L216.178875,88.5L217.292625,88.5L218.4620625,88.5L219.57581249999998,88.5L220.74525,88.5L221.85899999999998,88.5L223.02843750000002,88.5L224.1421875,88.5L225.31162500000002,88.5L226.425375,88.5L227.59481250000002,88.5L228.7085625,88.5L229.87800000000001,88.5L230.99175,88.5L232.16118749999998,88.5L233.2749375,88.5L234.44437499999998,88.5L235.558125,88.5L236.671875,88.5L237.8413125,88.5L238.9550625,88.5L240.1245,88.5L241.23825,88.5L242.4076875,88.5L243.52143750000002,88.5" style="fill: none;" fill="none"></path></g></g></g></g></g></g><g transform="translate(51, 177)" clip-path="url(#clip_1)"><clipPath id="clip_1"><rect width="278" height="23"></rect></clipPath><g><g><line x1="0" y1="0" x2="0" y2="5" style="visibility: inherit;" fill="rgb(0, 0, 0)" stroke="rgb(204, 204, 204)" stroke-width="1px"></line><line x1="34.8046875" y1="0" x2="34.8046875" y2="5" style="visibility: inherit;" fill="rgb(0, 0, 0)" stroke="rgb(204, 204, 204)" stroke-width="1px"></line><line x1="69.609375" y1="0" x2="69.609375" y2="5" style="visibility: inherit;" fill="rgb(0, 0, 0)" stroke="rgb(204, 204, 204)" stroke-width="1px"></line><line x1="104.4140625" y1="0" x2="104.4140625" y2="5" style="visibility: inherit;" fill="rgb(0, 0, 0)" stroke="rgb(204, 204, 204)" stroke-width="1px"></line><line x1="139.21875" y1="0" x2="139.21875" y2="5" style="visibility: inherit;" fill="rgb(0, 0, 0)" stroke="rgb(204, 204, 204)" stroke-width="1px"></line><line x1="174.0234375" y1="0" x2="174.0234375" y2="5" style="visibility: inherit;" fill="rgb(0, 0, 0)" stroke="rgb(204, 204, 204)" stroke-width="1px"></line><line x1="208.828125" y1="0" x2="208.828125" y2="5" style="visibility: inherit;" fill="rgb(0, 0, 0)" stroke="rgb(204, 204, 204)" stroke-width="1px"></line><line x1="243.6328125" y1="0" x2="243.6328125" y2="5" style="visibility: inherit;" fill="rgb(0, 0, 0)" stroke="rgb(204, 204, 204)" stroke-width="1px"></line><line x1="278.4375" y1="0" x2="278.4375" y2="5" style="visibility: inherit;" fill="rgb(0, 0, 0)" stroke="rgb(204, 204, 204)" stroke-width="1px"></line></g><g transform="translate(0, 8)"><text x="0" y="0" dx="0em" dy="0.95em" style="text-anchor: middle; visibility: hidden; font-family: Roboto, sans-serif; font-size: 12px; font-weight: 200;" fill="rgb(33, 33, 33)" stroke="none" stroke-width="1px">-500k</text><text x="34.8046875" y="0" dx="0em" dy="0.95em" style="text-anchor: middle; visibility: inherit; font-family: Roboto, sans-serif; font-size: 12px; font-weight: 200;" fill="rgb(33, 33, 33)" stroke="none" stroke-width="1px">0</text><text x="69.609375" y="0" dx="0em" dy="0.95em" style="text-anchor: middle; visibility: inherit; font-family: Roboto, sans-serif; font-size: 12px; font-weight: 200;" fill="rgb(33, 33, 33)" stroke="none" stroke-width="1px">500k</text><text x="104.4140625" y="0" dx="0em" dy="0.95em" style="text-anchor: middle; visibility: inherit; font-family: Roboto, sans-serif; font-size: 12px; font-weight: 200;" fill="rgb(33, 33, 33)" stroke="none" stroke-width="1px">1M</text><text x="139.21875" y="0" dx="0em" dy="0.95em" style="text-anchor: middle; visibility: inherit; font-family: Roboto, sans-serif; font-size: 12px; font-weight: 200;" fill="rgb(33, 33, 33)" stroke="none" stroke-width="1px">1.5M</text><text x="174.0234375" y="0" dx="0em" dy="0.95em" style="text-anchor: middle; visibility: inherit; font-family: Roboto, sans-serif; font-size: 12px; font-weight: 200;" fill="rgb(33, 33, 33)" stroke="none" stroke-width="1px">2M</text><text x="208.828125" y="0" dx="0em" dy="0.95em" style="text-anchor: middle; visibility: inherit; font-family: Roboto, sans-serif; font-size: 12px; font-weight: 200;" fill="rgb(33, 33, 33)" stroke="none" stroke-width="1px">2.5M</text><text x="243.6328125" y="0" dx="0em" dy="0.95em" style="text-anchor: middle; visibility: inherit; font-family: Roboto, sans-serif; font-size: 12px; font-weight: 200;" fill="rgb(33, 33, 33)" stroke="none" stroke-width="1px">3M</text><text x="278.4375" y="0" dx="0em" dy="0.95em" style="text-anchor: middle; visibility: hidden; font-family: Roboto, sans-serif; font-size: 12px; font-weight: 200;" fill="rgb(33, 33, 33)" stroke="none" stroke-width="1px">3.5M</text></g><line x1="0" y1="0" x2="278.4375" y2="0" fill="rgb(0, 0, 0)" stroke="rgb(204, 204, 204)" stroke-width="1px"></line></g></g></g></g></svg>