<svg viewBox="0 0 330 200" xmlns="http://www.w3.org/2000/svg"><g><g><g><g><g><line x1="61.953125" y1="177" x2="56.953125" y2="177" style="visibility: inherit;" fill="rgb(0, 0, 0)" stroke="rgb(204, 204, 204)" stroke-width="1px"></line><line x1="61.953125" y1="157.33333333333331" x2="56.953125" y2="157.33333333333331" style="visibility: inherit;" fill="rgb(0, 0, 0)" stroke="rgb(204, 204, 204)" stroke-width="1px"></line><line x1="61.953125" y1="137.66666666666666" x2="56.953125" y2="137.66666666666666" style="visibility: inherit;" fill="rgb(0, 0, 0)" stroke="rgb(204, 204, 204)" stroke-width="1px"></line><line x1="61.953125" y1="118" x2="56.953125" y2="118" style="visibility: inherit;" fill="rgb(0, 0, 0)" stroke="rgb(204, 204, 204)" stroke-width="1px"></line><line x1="61.953125" y1="98.33333333333334" x2="56.953125" y2="98.33333333333334" style="visibility: inherit;" fill="rgb(0, 0, 0)" stroke="rgb(204, 204, 204)" stroke-width="1px"></line><line x1="61.953125" y1="78.66666666666666" x2="56.953125" y2="78.66666666666666" style="visibility: inherit;" fill="rgb(0, 0, 0)" stroke="rgb(204, 204, 204)" stroke-width="1px"></line><line x1="61.953125" y1="58.999999999999986" x2="56.953125" y2="58.999999999999986" style="visibility: inherit;" fill="rgb(0, 0, 0)" stroke="rgb(204, 204, 204)" stroke-width="1px"></line><line x1="61.953125" y1="39.333333333333314" x2="56.953125" y2="39.333333333333314" style="visibility: inherit;" fill="rgb(0, 0, 0)" stroke="rgb(204, 204, 204)" stroke-width="1px"></line><line x1="61.953125" y1="19.666666666666657" x2="56.953125" y2="19.666666666666657" style="visibility: inherit;" fill="rgb(0, 0, 0)" stroke="rgb(204, 204, 204)" stroke-width="1px"></line><line x1="61.953125" y1="0" x2="56.953125" y2="0" style="visibility: inherit;" fill="rgb(0, 0, 0)" stroke="rgb(204, 204, 204)" stroke-width="1px"></line></g><g transform="translate(51.953125, 0)"><text x="0" y="177" dx="0em" dy="0.3em" style="text-anchor: end; visibility: hidden; font-family: Roboto, sans-serif; font-size: 12px; font-weight: 200;" fill="rgb(33, 33, 33)" stroke="none" stroke-width="1px">-0.1</text><text x="0" y="157.33333333333331" dx="0em" dy="0.3em" style="text-anchor: end; visibility: inherit; font-family: Roboto, sans-serif; font-size: 12px; font-weight: 200;" fill="rgb(33, 33, 33)" stroke="none" stroke-width="1px">-0.08</text><text x="0" y="137.66666666666666" dx="0em" dy="0.3em" style="text-anchor: end; visibility: hidden; font-family: Roboto, sans-serif; font-size: 12px; font-weight: 200;" fill="rgb(33, 33, 33)" stroke="none" stroke-width="1px">-0.06</text><text x="0" y="118" dx="0em" dy="0.3em" style="text-anchor: end; visibility: inherit; font-family: Roboto, sans-serif; font-size: 12px; font-weight: 200;" fill="rgb(33, 33, 33)" stroke="none" stroke-width="1px">-0.04</text><text x="0" y="98.33333333333334" dx="0em" dy="0.3em" style="text-anchor: end; visibility: hidden; font-family: Roboto, sans-serif; font-size: 12px; font-weight: 200;" fill="rgb(33, 33, 33)" stroke="none" stroke-width="1px">-0.02</text><text x="0" y="78.66666666666666" dx="0em" dy="0.3em" style="text-anchor: end; visibility: inherit; font-family: Roboto, sans-serif; font-size: 12px; font-weight: 200;" fill="rgb(33, 33, 33)" stroke="none" stroke-width="1px">0</text><text x="0" y="58.999999999999986" dx="0em" dy="0.3em" style="text-anchor: end; visibility: hidden; font-family: Roboto, sans-serif; font-size: 12px; font-weight: 200;" fill="rgb(33, 33, 33)" stroke="none" stroke-width="1px">0.02</text><text x="0" y="39.333333333333314" dx="0em" dy="0.3em" style="text-anchor: end; visibility: inherit; font-family: Roboto, sans-serif; font-size: 12px; font-weight: 200;" fill="rgb(33, 33, 33)" stroke="none" stroke-width="1px">0.04</text><text x="0" y="19.666666666666657" dx="0em" dy="0.3em" style="text-anchor: end; visibility: hidden; font-family: Roboto, sans-serif; font-size: 12px; font-weight: 200;" fill="rgb(33, 33, 33)" stroke="none" stroke-width="1px">0.06</text><text x="0" y="0" dx="0em" dy="0.3em" style="text-anchor: end; visibility: hidden; font-family: Roboto, sans-serif; font-size: 12px; font-weight: 200;" fill="rgb(33, 33, 33)" stroke="none" stroke-width="1px">0.08</text></g><line x1="61.953125" y1="0" x2="61.953125" y2="177" fill="rgb(0, 0, 0)" stroke="rgb(204, 204, 204)" stroke-width="1px"></line></g></g><g transform="translate(61, 0)" clip-path="url(#clip_0)"><clipPath id="clip_0"><rect width="268" height="177"></rect></clipPath><g><g><g><line x1="0" y1="0" x2="0" y2="177" fill="rgb(0, 0, 0)" stroke="rgb(66, 66, 66)" stroke-width="1px" opacity="0.25"></line><line x1="33.505859375" y1="0" x2="33.505859375" y2="177" fill="rgb(0, 0, 0)" stroke="rgb(66, 66, 66)" stroke-width="1px" opacity="0.25"></line><line x1="67.01171875" y1="0" x2="67.01171875" y2="177" fill="rgb(0, 0, 0)" stroke="rgb(66, 66, 66)" stroke-width="1px" opacity="0.25"></line><line x1="100.517578125" y1="0" x2="100.517578125" y2="177" fill="rgb(0, 0, 0)" stroke="rgb(66, 66, 66)" stroke-width="1px" opacity="0.25"></line><line x1="134.0234375" y1="0" x2="134.0234375" y2="177" fill="rgb(0, 0, 0)" stroke="rgb(66, 66, 66)" stroke-width="1px" opacity="0.25"></line><line x1="167.529296875" y1="0" x2="167.529296875" y2="177" fill="rgb(0, 0, 0)" stroke="rgb(66, 66, 66)" stroke-width="1px" opacity="0.25"></line><line x1="201.03515625" y1="0" x2="201.03515625" y2="177" fill="rgb(0, 0, 0)" stroke="rgb(66, 66, 66)" stroke-width="1px" opacity="0.25"></line><line x1="234.541015625" y1="0" x2="234.541015625" y2="177" fill="rgb(0, 0, 0)" stroke="rgb(66, 66, 66)" stroke-width="1px" opacity="0.25"></line><line x1="268.046875" y1="0" x2="268.046875" y2="177" fill="rgb(0, 0, 0)" stroke="rgb(66, 66, 66)" stroke-width="1px" opacity="0.25"></line></g><g><line x1="0" y1="177" x2="268.046875" y2="177" fill="rgb(0, 0, 0)" stroke="rgb(66, 66, 66)" stroke-width="1px" opacity="0.25"></line><line x1="0" y1="157.33333333333331" x2="268.046875" y2="157.33333333333331" fill="rgb(0, 0, 0)" stroke="rgb(66, 66, 66)" stroke-width="1px" opacity="0.25"></line><line x1="0" y1="137.66666666666666" x2="268.046875" y2="137.66666666666666" fill="rgb(0, 0, 0)" stroke="rgb(66, 66, 66)" stroke-width="1px" opacity="0.25"></line><line x1="0" y1="118" x2="268.046875" y2="118" fill="rgb(0, 0, 0)" stroke="rgb(66, 66, 66)" stroke-width="1px" opacity="0.25"></line><line x1="0" y1="98.33333333333334" x2="268.046875" y2="98.33333333333334" fill="rgb(0, 0, 0)" stroke="rgb(66, 66, 66)" stroke-width="1px" opacity="0.25"></line><line x1="0" y1="78.66666666666666" x2="268.046875" y2="78.66666666666666" fill="rgb(0, 0, 0)" stroke="rgb(66, 66, 66)" stroke-width="1px" opacity="0.25"></line><line x1="0" y1="58.999999999999986" x2="268.046875" y2="58.999999999999986" fill="rgb(0, 0, 0)" stroke="rgb(66, 66, 66)" stroke-width="1px" opacity="0.25"></line><line x1="0" y1="39.333333333333314" x2="268.046875" y2="39.333333333333314" fill="rgb(0, 0, 0)" stroke="rgb(66, 66, 66)" stroke-width="1px" opacity="0.25"></line><line x1="0" y1="19.666666666666657" x2="268.046875" y2="19.666666666666657" fill="rgb(0, 0, 0)" stroke="rgb(66, 66, 66)" stroke-width="1px" opacity="0.25"></line><line x1="0" y1="0" x2="268.046875" y2="0" fill="rgb(0, 0, 0)" stroke="rgb(66, 66, 66)" stroke-width="1px" opacity="0.25"></line></g></g></g><g><g><line x1="0" y1="78.66666666666666" x2="268.046875" y2="78.66666666666666" fill="rgb(0, 0, 0)" stroke="rgb(153, 153, 153)" stroke-width="1.5px"></line></g></g><g><g><line x1="33.505859375" y1="0" x2="33.505859375" y2="177" fill="rgb(0, 0, 0)" stroke="rgb(153, 153, 153)" stroke-width="1.5px"></line></g></g><g><g><g><g><g><path stroke="rgb(255, 112, 67)" stroke-width="2px" d="M37.901828125,-107.08530777389647L39.027625,1.3852614656503546L40.099812500000006,80.54967910702794L41.225609375,105.61390195720084L42.297796874999996,128.547535470003L43.42359375,121.48452767042201L44.49578125,145.04120906451143L45.621578125,119.55657565089709L46.693765625,107.64070293001254L47.8195625,123.51100633371122L48.89175,119.57451954484728L50.017546874999994,112.9335477327887L51.089734375,109.73181453858051L52.21553125,111.66410712601808L53.28771875,121.60937583105627L54.413515625,124.87150459556561L55.485703125,119.74023119298525L56.6115,117.65276339289547L57.6836875,111.74017650519889L58.809484375000004,98.99581819830536L59.881671874999995,87.92142218988498L61.00746875,97.2014876097415L62.07965625,100.99309427747414L63.15184375,111.1976716117172L64.277640625,93.26122331295234L65.349828125,100.31601871738114L66.475625,91.92194487696146L67.5478125,98.72695711619852L68.673609375,97.79491037061997L69.745796875,102.93592910617491L70.87159375,103.58487319692227L71.94378125,123.98760042075465L73.069578125,97.85476948678154L74.141765625,117.49337966021352L75.2675625,116.45603397605892L76.33975,104.42342673681117L77.465546875,114.37609209204314L78.537734375,131.72916374616202L79.66353125,135.08993007671867L80.73571875,127.50812998216279L81.861515625,146.5978516991444L82.93370312500001,124.23563183522998L84.0595,129.57046828359518L85.1316875,120.48171398954972L86.25748437499999,138.12888871820817L87.32967187499999,131.39771829057008L88.45546875000001,122.60955995217783L89.52765625,126.2266047880134L90.59984375,117.2188420561039L91.725640625,122.61807127957499L92.797828125,120.85573691434846L93.923625,127.31144748393262L94.9958125,137.62019337568515L96.12160937499999,139.59171557746035L97.19379687499999,149.7208146898746L98.31959375000001,152.58165136155793L99.39178125000001,159.63990883481603L100.517578125,152.97102768002142L101.589765625,163.0110582725824L102.71556249999999,164.57150259634253L103.78775,162.53090365530804L104.91354687500001,161.31461223940408L105.98573437499999,157.9032861917932L107.11153125,154.4733414092522L108.18371875,151.53556449931418L109.309515625,142.4326750592853L110.381703125,153.8633184966083L111.5075,155.93856159737882L112.57968749999999,160.01144917363027L113.70548437500001,155.3993928892117L114.77767187500001,150.57895545893743L115.90346875,158.73427735706701L116.97565625,161.88241544834534L118.04784375,149.2962525076869L119.173640625,143.79937412606267L120.245828125,153.913256994339L121.371625,155.2530923328775L122.44381249999999,163.05985023578788L123.569609375,154.3956981375165L124.64179687500001,149.16024580877846L125.76759375,155.9836054112005L126.83978125,149.92966883153795L127.965578125,142.48235482064058L129.037765625,142.68602100929508L130.16356249999998,132.6863786919634L131.23575,109.77094212034649L132.36154687500002,110.74842939640025L133.433734375,125.76138725041676L134.55953125,132.50968154004474L135.63171875,138.52270829635347L136.757515625,138.93601274910517L137.829703125,140.8194940795818L138.9555,129.35604204516875L140.02768749999998,145.8908259094163L141.15348437499998,143.35788901293157L142.225671875,134.36580839628945L143.35146875,129.56656510764964L144.42365625,153.3548667227119L145.49584374999998,154.15098071293818L146.621640625,160.75754322723816L147.693828125,171.8625382879215L148.819625,175.35899293103827L149.89181250000001,171.56871297562705L151.017609375,173.95202002822714L152.089796875,154.99834094414624L153.21559375,146.7082165139161L154.28778125,152.32021624797116L155.413578125,156.63960090972552L156.485765625,149.40172762532524L157.6115625,146.43620271006776L158.68375,135.99614556230108L159.809546875,135.29378740855105L160.88173437499998,123.94869672286829L162.00753125,109.68961431332387L163.07971875,56.22510546953006L164.205515625,76.45988238982927L165.27770312500002,83.66816548671623L166.4035,103.86801341697273L167.4756875,114.8256631140147L168.601484375,105.59191814465173L169.673671875,101.06117395700748L170.79946875,60.21971633683824L171.87165625,76.30905666662366L172.94384374999998,74.10939213123063L174.069640625,82.38685157187824L175.141828125,89.29296871715773L176.26762499999998,87.76170821576777L177.3398125,81.5489590557213L178.46560937499999,92.04521878485447L179.537796875,97.05692102260676L180.66359375000002,88.44228874339515L181.73578125,92.77172556611406L182.861578125,94.88130030318074L183.933765625,96.36954473730218L185.0595625,98.51788242191499L186.13175,95.35580595096113L187.257546875,93.29995239715818L188.329734375,101.34862685240871L189.45553125,95.04698673976476L190.52771875,97.7282094231946L191.65351562499998,104.41157415783337L192.725703125,94.83007523321282L193.8515,89.95945260421676L194.9236875,85.81566699238681L196.04948437500002,83.6259571985054L197.121671875,109.42400423620785L198.24746875,107.03031923984335L199.31965625,117.46883637816728L200.39184375000002,-114.18514656959253L201.517640625,-20.38433341965484L202.589828125,30.260113007704117L203.715625,44.68561955872024L204.7878125,80.00745790702639L205.913609375,78.95844072994889L206.985796875,81.28853641552784L208.11159375,92.84735275388942L209.18378124999998,98.28745043327207L210.309578125,86.08354157515356L211.38176562499999,85.53880467890335L212.50756249999998,88.00088128670485L213.57975,102.33395480898652L214.705546875,94.05217710251137L215.77773437500002,90.9894365549443L216.90353125000001,59.86843399333407L217.97571875,25.885647515620736L219.101515625,62.5163561467054L220.173703125,65.41926713988094L221.2995,90.57965731513401L222.3716875,106.3425046398146L223.497484375,114.34347941318758L224.56967187499998,111.13322157881512L225.69546875,109.78956042935782L226.76765625,73.3109227317662L227.83984375,75.33003421106855L228.965640625,-8.936462930671112L230.03782812499998,8.560174152005875L231.16362500000002,25.469827575664215L232.23581249999998,78.84559635190813L233.361609375,94.00202741577532L234.433796875,87.88321847688097" style="fill: none;" fill="none"></path></g></g></g></g><g opacity="0.2"><g><g><g><path stroke="rgb(255, 112, 67)" stroke-width="2px" d="M34.631656250000006,-1247.982087214788L35.703843750000004,88.48586897800365L36.829640624999996,-116.49713762601218L37.901828125,75.59862498939037L39.027625,143.45447708666325L40.099812500000006,190.44248798986277L41.225609375,141.5881708463033L42.297796874999996,162.1133268078168L43.42359375,111.02684843788543L44.49578125,180.16084670523801L45.621578125,81.40595426907142L46.693765625,89.75855331371226L47.8195625,147.3628133734067L48.89175,113.65303833782673L50.017546874999994,102.93850363666812L51.089734375,104.91147865975896L52.21553125,114.57380983481804L53.28771875,136.5869841426611L54.413515625,129.7846229324738L55.485703125,112.0116563712557L56.6115,114.50860117375849L57.6836875,102.83445221185684L58.809484375000004,79.79969096338995L59.881671874999995,71.24057660934825L61.00746875,111.1796625778079L62.07965625,106.70424428582191L63.15184375,126.56844868759313L64.277640625,66.24419602689643L65.349828125,110.9424079656601L66.475625,79.27824455786806L67.5478125,108.97711101422706L68.673609375,96.39100055644909L69.745796875,110.67966845631598L70.87159375,104.56235534946123L71.94378125,154.7195269614458L73.069578125,58.491784260918685L74.141765625,147.07434353232384L75.2675625,114.89351580043635L76.33975,86.29912367369978L77.465546875,129.3674501478672L78.537734375,157.86749970912933L79.66353125,140.15213700135547L80.73571875,116.08792483309904L81.861515625,175.3520440508922L82.93370312500001,90.55218788608907L84.0595,137.60614924877882L85.1316875,106.79163546736041L86.25748437499999,164.71022208034992L87.32967187499999,121.25878739605346L88.45546875000001,109.37225879604617L89.52765625,131.67483522991338L90.59984375,103.65075834219654L91.725640625,130.75074487179518L92.797828125,118.20119317124286L93.923625,137.0354626526435L94.9958125,153.14790335297585L96.12160937499999,142.56135177612305L97.19379687499999,164.977928891778L98.31959375000001,156.89083141088486L99.39178125000001,170.2715197155873L100.517578125,142.92592097818851L101.589765625,178.13401162127653L102.71556249999999,166.9219463020563L103.78775,159.45721953610578L104.91354687500001,159.48255424201488L105.98573437499999,152.76492289702097L107.11153125,149.3069333533446L108.18371875,147.11049201091132L109.309515625,128.72130525112152L110.381703125,171.08090422550836L111.5075,159.0644290248553L112.57968749999999,166.14629988372326L113.70548437500001,148.45241086681685L114.77767187500001,143.3180960714817L115.90346875,171.01835871239504L116.97565625,166.62434776127338L118.04784375,130.33814742664495L119.173640625,135.51961495975652L120.245828125,169.1474514901638L121.371625,157.2712402989467L122.44381249999999,174.81890161335468L123.569609375,141.345183322827L124.64179687500001,141.27426372965175L125.76759375,166.26139769454795L126.83978125,140.81083202858767L127.965578125,131.26472143580514L129.037765625,142.99279639621574L130.16356249999998,117.62426081548132L131.23575,75.25420683327441L132.36154687500002,112.2207849174738L133.433734375,148.37489018340904L134.55953125,142.674405520161L135.63171875,147.57992403705916L136.757515625,139.55855905512968L137.829703125,143.65651733676592L138.9555,112.08903785298267L140.02768749999998,170.7966031084458L141.15348437499998,139.54261313627163L142.225671875,120.82134611407913L143.35146875,122.33762972801924L144.42365625,189.18636865417164L145.49584374999998,155.35013988117376L146.621640625,170.7087815006574L147.693828125,188.58961104849973L148.819625,180.62558250625926L149.89181250000001,165.8595444212357L151.017609375,177.54191360871L152.089796875,126.44906493028003L153.21559375,134.2210867330432L154.28778125,160.7733787546555L155.413578125,163.14574171602726L156.485765625,138.49956761548916L157.6115625,141.96933435400328L158.68375,120.27064594874778L159.809546875,134.23584943761426L160.88173437499998,106.85997616623838L162.00753125,88.21164807739355L163.07971875,-24.30664845307671L164.205515625,106.9388320868214L165.27770312500002,94.52575481310485L166.4035,134.2943507755796L167.4756875,131.33079461256662L168.601484375,91.68344514568645L169.673671875,94.23666955406466L170.79946875,-1.2983689506848959L171.87165625,100.54387756437063L172.94384374999998,70.79611296889681L174.069640625,94.8549045138061L175.141828125,99.69541584576169L176.26762499999998,85.45522309963901L177.3398125,72.19090831590194L178.46560937499999,107.85537441695729L179.537796875,104.60587602232894L180.66359375000002,75.46636393185084L181.73578125,99.29300759732723L182.861578125,98.05888029560447L183.933765625,98.61123622829714L185.0595625,101.75384971126914L186.13175,90.59287873531379L187.257546875,90.2032907785227L188.329734375,113.4720688263575L189.45553125,85.55504261019328L190.52771875,101.76684308921295L191.65351562499998,114.47849697868028L192.725703125,80.39779239186706L193.8515,82.62300097507733L194.9236875,79.57402500564541L196.04948437500002,80.32767252150612L197.121671875,148.282716691494L198.24746875,103.42479371900359L199.31965625,133.19201632837454L200.39184375000002,-463.1175870498021L201.517640625,120.90461069842179L202.589828125,106.54410374164581L203.715625,66.41426476463674L204.7878125,133.21153020610413L205.913609375,77.37834217500252L206.985796875,84.79827954092372L208.11159375,110.25800092269978L209.18378124999998,106.48168277740477L210.309578125,67.70121269362667L211.38176562499999,84.71828619608034L212.50756249999998,91.70942274356881L213.57975,123.92337131748596L214.705546875,81.57761970503876L215.77773437500002,86.37613562991221L216.90353125000001,12.99193640053271L217.97571875,-25.3014569282532L219.101515625,117.69193481157222L220.173703125,69.79182229501505L221.2995,128.4778891329964L222.3716875,130.08554033438364L223.497484375,126.39507299413283L224.56967187499998,106.29772042979798L225.69546875,107.765649775664L226.76765625,18.36440329253672L227.83984375,78.37135250445377L228.965640625,-135.864194214344L230.03782812499998,34.91475782791772L231.16362500000002,50.94025792057314L232.23581249999998,159.24368415772915L233.361609375,116.8316391184926L234.433796875,78.66666666666666" style="fill: none;" fill="none"></path></g></g></g></g></g></g><g transform="translate(61, 177)" clip-path="url(#clip_1)"><clipPath id="clip_1"><rect width="268" height="23"></rect></clipPath><g><g><line x1="0" y1="0" x2="0" y2="5" style="visibility: inherit;" fill="rgb(0, 0, 0)" stroke="rgb(204, 204, 204)" stroke-width="1px"></line><line x1="33.505859375" y1="0" x2="33.505859375" y2="5" style="visibility: inherit;" fill="rgb(0, 0, 0)" stroke="rgb(204, 204, 204)" stroke-width="1px"></line><line x1="67.01171875" y1="0" x2="67.01171875" y2="5" style="visibility: inherit;" fill="rgb(0, 0, 0)" stroke="rgb(204, 204, 204)" stroke-width="1px"></line><line x1="100.517578125" y1="0" x2="100.517578125" y2="5" style="visibility: inherit;" fill="rgb(0, 0, 0)" stroke="rgb(204, 204, 204)" stroke-width="1px"></line><line x1="134.0234375" y1="0" x2="134.0234375" y2="5" style="visibility: inherit;" fill="rgb(0, 0, 0)" stroke="rgb(204, 204, 204)" stroke-width="1px"></line><line x1="167.529296875" y1="0" x2="167.529296875" y2="5" style="visibility: inherit;" fill="rgb(0, 0, 0)" stroke="rgb(204, 204, 204)" stroke-width="1px"></line><line x1="201.03515625" y1="0" x2="201.03515625" y2="5" style="visibility: inherit;" fill="rgb(0, 0, 0)" stroke="rgb(204, 204, 204)" stroke-width="1px"></line><line x1="234.541015625" y1="0" x2="234.541015625" y2="5" style="visibility: inherit;" fill="rgb(0, 0, 0)" stroke="rgb(204, 204, 204)" stroke-width="1px"></line><line x1="268.046875" y1="0" x2="268.046875" y2="5" style="visibility: inherit;" fill="rgb(0, 0, 0)" stroke="rgb(204, 204, 204)" stroke-width="1px"></line></g><g transform="translate(0, 8)"><text x="0" y="0" dx="0em" dy="0.95em" style="text-anchor: middle; visibility: hidden; font-family: Roboto, sans-serif; font-size: 12px; font-weight: 200;" fill="rgb(33, 33, 33)" stroke="none" stroke-width="1px">-500k</text><text x="33.505859375" y="0" dx="0em" dy="0.95em" style="text-anchor: middle; visibility: inherit; font-family: Roboto, sans-serif; font-size: 12px; font-weight: 200;" fill="rgb(33, 33, 33)" stroke="none" stroke-width="1px">0</text><text x="67.01171875" y="0" dx="0em" dy="0.95em" style="text-anchor: middle; visibility: inherit; font-family: Roboto, sans-serif; font-size: 12px; font-weight: 200;" fill="rgb(33, 33, 33)" stroke="none" stroke-width="1px">500k</text><text x="100.517578125" y="0" dx="0em" dy="0.95em" style="text-anchor: middle; visibility: inherit; font-family: Roboto, sans-serif; font-size: 12px; font-weight: 200;" fill="rgb(33, 33, 33)" stroke="none" stroke-width="1px">1M</text><text x="134.0234375" y="0" dx="0em" dy="0.95em" style="text-anchor: middle; visibility: inherit; font-family: Roboto, sans-serif; font-size: 12px; font-weight: 200;" fill="rgb(33, 33, 33)" stroke="none" stroke-width="1px">1.5M</text><text x="167.529296875" y="0" dx="0em" dy="0.95em" style="text-anchor: middle; visibility: inherit; font-family: Roboto, sans-serif; font-size: 12px; font-weight: 200;" fill="rgb(33, 33, 33)" stroke="none" stroke-width="1px">2M</text><text x="201.03515625" y="0" dx="0em" dy="0.95em" style="text-anchor: middle; visibility: inherit; font-family: Roboto, sans-serif; font-size: 12px; font-weight: 200;" fill="rgb(33, 33, 33)" stroke="none" stroke-width="1px">2.5M</text><text x="234.541015625" y="0" dx="0em" dy="0.95em" style="text-anchor: middle; visibility: inherit; font-family: Roboto, sans-serif; font-size: 12px; font-weight: 200;" fill="rgb(33, 33, 33)" stroke="none" stroke-width="1px">3M</text><text x="268.046875" y="0" dx="0em" dy="0.95em" style="text-anchor: middle; visibility: hidden; font-family: Roboto, sans-serif; font-size: 12px; font-weight: 200;" fill="rgb(33, 33, 33)" stroke="none" stroke-width="1px">3.5M</text></g><line x1="0" y1="0" x2="268.046875" y2="0" fill="rgb(0, 0, 0)" stroke="rgb(204, 204, 204)" stroke-width="1px"></line></g></g></g></g></svg>