<svg viewBox="0 0 330 200" xmlns="http://www.w3.org/2000/svg"><g><g><g><g><g><line x1="51.5625" y1="177" x2="46.5625" y2="177" style="visibility: inherit;" fill="rgb(0, 0, 0)" stroke="rgb(204, 204, 204)" stroke-width="1px"></line><line x1="51.5625" y1="159.3" x2="46.5625" y2="159.3" style="visibility: inherit;" fill="rgb(0, 0, 0)" stroke="rgb(204, 204, 204)" stroke-width="1px"></line><line x1="51.5625" y1="141.6" x2="46.5625" y2="141.6" style="visibility: inherit;" fill="rgb(0, 0, 0)" stroke="rgb(204, 204, 204)" stroke-width="1px"></line><line x1="51.5625" y1="123.89999999999999" x2="46.5625" y2="123.89999999999999" style="visibility: inherit;" fill="rgb(0, 0, 0)" stroke="rgb(204, 204, 204)" stroke-width="1px"></line><line x1="51.5625" y1="106.2" x2="46.5625" y2="106.2" style="visibility: inherit;" fill="rgb(0, 0, 0)" stroke="rgb(204, 204, 204)" stroke-width="1px"></line><line x1="51.5625" y1="88.5" x2="46.5625" y2="88.5" style="visibility: inherit;" fill="rgb(0, 0, 0)" stroke="rgb(204, 204, 204)" stroke-width="1px"></line><line x1="51.5625" y1="70.8" x2="46.5625" y2="70.8" style="visibility: inherit;" fill="rgb(0, 0, 0)" stroke="rgb(204, 204, 204)" stroke-width="1px"></line><line x1="51.5625" y1="53.10000000000001" x2="46.5625" y2="53.10000000000001" style="visibility: inherit;" fill="rgb(0, 0, 0)" stroke="rgb(204, 204, 204)" stroke-width="1px"></line><line x1="51.5625" y1="35.39999999999999" x2="46.5625" y2="35.39999999999999" style="visibility: inherit;" fill="rgb(0, 0, 0)" stroke="rgb(204, 204, 204)" stroke-width="1px"></line><line x1="51.5625" y1="17.699999999999996" x2="46.5625" y2="17.699999999999996" style="visibility: inherit;" fill="rgb(0, 0, 0)" stroke="rgb(204, 204, 204)" stroke-width="1px"></line><line x1="51.5625" y1="0" x2="46.5625" y2="0" style="visibility: inherit;" fill="rgb(0, 0, 0)" stroke="rgb(204, 204, 204)" stroke-width="1px"></line></g><g transform="translate(41.5625, 0)"><text x="0" y="177" dx="0em" dy="0.3em" style="text-anchor: end; visibility: hidden; font-family: Roboto, sans-serif; font-size: 12px; font-weight: 200;" fill="rgb(33, 33, 33)" stroke="none" stroke-width="1px">0</text><text x="0" y="159.3" dx="0em" dy="0.3em" style="text-anchor: end; visibility: inherit; font-family: Roboto, sans-serif; font-size: 12px; font-weight: 200;" fill="rgb(33, 33, 33)" stroke="none" stroke-width="1px">0.05</text><text x="0" y="141.6" dx="0em" dy="0.3em" style="text-anchor: end; visibility: hidden; font-family: Roboto, sans-serif; font-size: 12px; font-weight: 200;" fill="rgb(33, 33, 33)" stroke="none" stroke-width="1px">0.1</text><text x="0" y="123.89999999999999" dx="0em" dy="0.3em" style="text-anchor: end; visibility: inherit; font-family: Roboto, sans-serif; font-size: 12px; font-weight: 200;" fill="rgb(33, 33, 33)" stroke="none" stroke-width="1px">0.15</text><text x="0" y="106.2" dx="0em" dy="0.3em" style="text-anchor: end; visibility: hidden; font-family: Roboto, sans-serif; font-size: 12px; font-weight: 200;" fill="rgb(33, 33, 33)" stroke="none" stroke-width="1px">0.2</text><text x="0" y="88.5" dx="0em" dy="0.3em" style="text-anchor: end; visibility: inherit; font-family: Roboto, sans-serif; font-size: 12px; font-weight: 200;" fill="rgb(33, 33, 33)" stroke="none" stroke-width="1px">0.25</text><text x="0" y="70.8" dx="0em" dy="0.3em" style="text-anchor: end; visibility: hidden; font-family: Roboto, sans-serif; font-size: 12px; font-weight: 200;" fill="rgb(33, 33, 33)" stroke="none" stroke-width="1px">0.3</text><text x="0" y="53.10000000000001" dx="0em" dy="0.3em" style="text-anchor: end; visibility: inherit; font-family: Roboto, sans-serif; font-size: 12px; font-weight: 200;" fill="rgb(33, 33, 33)" stroke="none" stroke-width="1px">0.35</text><text x="0" y="35.39999999999999" dx="0em" dy="0.3em" style="text-anchor: end; visibility: hidden; font-family: Roboto, sans-serif; font-size: 12px; font-weight: 200;" fill="rgb(33, 33, 33)" stroke="none" stroke-width="1px">0.4</text><text x="0" y="17.699999999999996" dx="0em" dy="0.3em" style="text-anchor: end; visibility: inherit; font-family: Roboto, sans-serif; font-size: 12px; font-weight: 200;" fill="rgb(33, 33, 33)" stroke="none" stroke-width="1px">0.45</text><text x="0" y="0" dx="0em" dy="0.3em" style="text-anchor: end; visibility: hidden; font-family: Roboto, sans-serif; font-size: 12px; font-weight: 200;" fill="rgb(33, 33, 33)" stroke="none" stroke-width="1px">0.5</text></g><line x1="51.5625" y1="0" x2="51.5625" y2="177" fill="rgb(0, 0, 0)" stroke="rgb(204, 204, 204)" stroke-width="1px"></line></g></g><g transform="translate(51, 0)" clip-path="url(#clip_0)"><clipPath id="clip_0"><rect width="278" height="177"></rect></clipPath><g><g><g><line x1="0" y1="0" x2="0" y2="177" fill="rgb(0, 0, 0)" stroke="rgb(66, 66, 66)" stroke-width="1px" opacity="0.25"></line><line x1="34.8046875" y1="0" x2="34.8046875" y2="177" fill="rgb(0, 0, 0)" stroke="rgb(66, 66, 66)" stroke-width="1px" opacity="0.25"></line><line x1="69.609375" y1="0" x2="69.609375" y2="177" fill="rgb(0, 0, 0)" stroke="rgb(66, 66, 66)" stroke-width="1px" opacity="0.25"></line><line x1="104.4140625" y1="0" x2="104.4140625" y2="177" fill="rgb(0, 0, 0)" stroke="rgb(66, 66, 66)" stroke-width="1px" opacity="0.25"></line><line x1="139.21875" y1="0" x2="139.21875" y2="177" fill="rgb(0, 0, 0)" stroke="rgb(66, 66, 66)" stroke-width="1px" opacity="0.25"></line><line x1="174.0234375" y1="0" x2="174.0234375" y2="177" fill="rgb(0, 0, 0)" stroke="rgb(66, 66, 66)" stroke-width="1px" opacity="0.25"></line><line x1="208.828125" y1="0" x2="208.828125" y2="177" fill="rgb(0, 0, 0)" stroke="rgb(66, 66, 66)" stroke-width="1px" opacity="0.25"></line><line x1="243.6328125" y1="0" x2="243.6328125" y2="177" fill="rgb(0, 0, 0)" stroke="rgb(66, 66, 66)" stroke-width="1px" opacity="0.25"></line><line x1="278.4375" y1="0" x2="278.4375" y2="177" fill="rgb(0, 0, 0)" stroke="rgb(66, 66, 66)" stroke-width="1px" opacity="0.25"></line></g><g><line x1="0" y1="177" x2="278.4375" y2="177" fill="rgb(0, 0, 0)" stroke="rgb(66, 66, 66)" stroke-width="1px" opacity="0.25"></line><line x1="0" y1="159.3" x2="278.4375" y2="159.3" fill="rgb(0, 0, 0)" stroke="rgb(66, 66, 66)" stroke-width="1px" opacity="0.25"></line><line x1="0" y1="141.6" x2="278.4375" y2="141.6" fill="rgb(0, 0, 0)" stroke="rgb(66, 66, 66)" stroke-width="1px" opacity="0.25"></line><line x1="0" y1="123.89999999999999" x2="278.4375" y2="123.89999999999999" fill="rgb(0, 0, 0)" stroke="rgb(66, 66, 66)" stroke-width="1px" opacity="0.25"></line><line x1="0" y1="106.2" x2="278.4375" y2="106.2" fill="rgb(0, 0, 0)" stroke="rgb(66, 66, 66)" stroke-width="1px" opacity="0.25"></line><line x1="0" y1="88.5" x2="278.4375" y2="88.5" fill="rgb(0, 0, 0)" stroke="rgb(66, 66, 66)" stroke-width="1px" opacity="0.25"></line><line x1="0" y1="70.8" x2="278.4375" y2="70.8" fill="rgb(0, 0, 0)" stroke="rgb(66, 66, 66)" stroke-width="1px" opacity="0.25"></line><line x1="0" y1="53.10000000000001" x2="278.4375" y2="53.10000000000001" fill="rgb(0, 0, 0)" stroke="rgb(66, 66, 66)" stroke-width="1px" opacity="0.25"></line><line x1="0" y1="35.39999999999999" x2="278.4375" y2="35.39999999999999" fill="rgb(0, 0, 0)" stroke="rgb(66, 66, 66)" stroke-width="1px" opacity="0.25"></line><line x1="0" y1="17.699999999999996" x2="278.4375" y2="17.699999999999996" fill="rgb(0, 0, 0)" stroke="rgb(66, 66, 66)" stroke-width="1px" opacity="0.25"></line><line x1="0" y1="0" x2="278.4375" y2="0" fill="rgb(0, 0, 0)" stroke="rgb(66, 66, 66)" stroke-width="1px" opacity="0.25"></line></g></g></g><g><g><line x1="0" y1="177" x2="278.4375" y2="177" fill="rgb(0, 0, 0)" stroke="rgb(153, 153, 153)" stroke-width="1.5px"></line></g></g><g><g><line x1="34.8046875" y1="0" x2="34.8046875" y2="177" fill="rgb(0, 0, 0)" stroke="rgb(153, 153, 153)" stroke-width="1.5px"></line></g></g><g><g><g><g><g><path stroke="rgb(255, 112, 67)" stroke-width="2px" d="M35.974125,163.87774005532265L37.087875000000004,161.1021715705094L38.2573125,161.63984368668065L39.3710625,162.17146958078655L40.5405,162.47195275026095L41.654250000000005,163.27583064832646L42.8236875,161.91595538987738L43.9374375,163.0289297797244L45.106875,163.5796576624269L46.220625000000005,164.43321537711424L47.3900625,160.31226071239263L48.503812499999995,162.11875498971412L49.67325,162.55159028889545L50.787,162.96158320832984L51.9564375,163.77887301286805L53.070187499999996,164.43826800080575L54.239625000000004,164.48317706765025L55.353375,164.73875680070606L56.5228125,165.1099348006719L57.6365625,165.1104716721142L58.806,164.24176021526367L59.91975,164.80169025448575L61.0891875,165.234857501719L62.2029375,165.61764513885922L63.372375,165.02093493424292L64.486125,164.9698857809182L65.599875,165.1270873272309L66.7693125,164.52181708658043L67.8830625,164.4544296124861L69.0525,164.4572077396517L70.16625,161.01892557536493L71.33568749999999,162.3926625107528L72.4494375,160.66846324200577L73.618875,162.78508429987218L74.73262500000001,163.6849815772202L75.9020625,164.45645818687103L77.01581250000001,164.56398488103642L78.18525,159.85803608171827L79.29899999999999,162.27521224872677L80.4684375,157.11612392396103L81.58218749999999,159.37847868322794L82.751625,160.7700710615212L83.865375,161.84523067726636L85.0348125,162.22209200626403L86.1485625,155.5425411968133L87.318,154.94853640299308L88.43175,158.05249553327863L89.6011875,158.30083138197736L90.71493749999999,161.1034157293749L91.884375,159.10950801782L92.998125,156.38311803842458L94.11187500000001,158.7127755604652L95.2813125,160.34293718487365L96.39506250000001,163.44260303605756L97.5645,156.01502505143398L98.67824999999999,158.4659949983681L99.84768749999999,149.7512588482488L100.96143749999999,150.3833034080481L102.130875,154.94940900811807L103.244625,148.87599351107608L104.4140625,123.34073439128929L105.5278125,117.19635633723453L106.69725,132.18244409488662L107.81099999999999,135.76275259890798L108.98043750000001,141.37567291796037L110.09418749999999,150.45247378558952L111.263625,155.5394739426696L112.377375,121.84915364440593L113.5468125,137.737161033302L114.6605625,129.86395048793418L115.83,118.595227613245L116.94375,94.68886387104878L118.11318750000001,-48.676568920048034L119.2269375,33.15089649930717L120.396375,55.44480932206958L121.510125,65.78454453946233L122.623875,68.03620606036831L123.7933125,88.52811279035092L124.9070625,89.9160862257483L126.0765,96.53755275034227L127.19024999999999,117.07745979763185L128.3596875,137.21469459087209L129.47343750000002,148.51468094446247L130.642875,147.18472591568081L131.756625,153.173473648883L132.9260625,127.86618520322133L134.0398125,133.40864751969394L135.20925,116.73018689222141L136.323,125.03395696109007L137.4924375,131.28287103303182L138.6061875,-49.019430616306536L139.775625,21.762584988253145L140.889375,55.75181214596835L142.0588125,-109.10905350557778L143.1725625,-15.228769527101514L144.34199999999998,59.21249581409929L145.45575,95.0223238652656L146.62518749999998,23.66386214673635L147.7389375,7.829547487535579L148.908375,43.62458951233421L150.022125,1.3423624611508416L151.135875,57.32103034082486L152.3053125,28.1323160744735L153.41906250000002,27.064824038349986L154.5885,-34.024024424855284L156.8716875,-6.071643049948369L157.98543750000002,62.58788427279871L159.154875,60.95439351428008L160.26862500000001,15.50978523856304L161.4380625,62.819614169666245L162.55181249999998,102.24631348846268L163.72125,127.99384096530173L164.83499999999998,108.92731532187784L166.0044375,123.8975164267932L167.11818749999998,132.8056340643299L168.28762500000002,122.23866172887362L169.401375,135.70033180791134L170.57081250000002,143.1470424606688L171.6845625,154.24849026449613L172.854,152.65630533410015L173.96775,154.8749137466486L175.1371875,158.58555349528757L176.2509375,160.3045091842095L177.420375,162.1324231502317L178.534125,161.872938574907L179.647875,161.36680977942612L180.81731249999999,159.03063903881502L181.9310625,158.2707870627112L183.10049999999998,160.07906480860458L184.21425,162.6554748681029L185.38368749999998,162.45116679343792L186.4974375,163.79225062366228L187.666875,165.04969488891538L188.78062500000001,163.4181695443775L189.9500625,162.7041604834739L191.0638125,163.67541433454892L192.23325,160.37786005731311L193.347,158.56479082438426L194.5164375,159.89826015002808L195.6301875,163.3289074081504L196.799625,163.7939018795612L197.913375,163.85324253584676L199.0828125,165.86773340162767L200.1965625,166.1200565042152L201.36599999999999,168.2235177229245L202.47975,168.4849666743251L203.6491875,170.2767536152349L204.76293750000002,163.68287715221211L205.932375,162.7332374627865L207.04612500000002,162.88620153769963L208.159875,158.5884029920774L209.32931250000001,161.90145798106687L210.4430625,158.04753392784195L211.6125,158.67202509522824L212.72625,162.49852961791123L213.8956875,163.45253957424094L215.0094375,164.71048069009416L216.178875,158.82333953716903L217.292625,158.38415866503783L218.4620625,163.30775491155643L219.57581249999998,165.44413804382813L220.74525,164.24390849064847L221.85899999999998,163.05717065643745L223.02843750000002,161.44032300059345L224.1421875,159.12561497204902L225.31162500000002,159.75755030471737L226.425375,161.5019142366325L227.59481250000002,155.52147941110653L228.7085625,159.02003676777522L229.87800000000001,159.8764726076707L230.99175,151.02094992948722L232.16118749999998,158.25262934144928L233.2749375,152.62196136997275L234.44437499999998,151.47673585859602L235.558125,158.08979796995916L236.671875,160.21264890351642L237.8413125,160.72193565255174L238.9550625,160.8342598083292L240.1245,161.99325193856234L241.23825,162.26469138324848L242.4076875,161.53540753723345L243.52143750000002,167.65442556398676" style="fill: none;" fill="none"></path></g></g></g></g><g opacity="0.2"><g><g><g><path stroke="rgb(255, 112, 67)" stroke-width="2px" d="M35.974125,163.87774005532265L37.087875000000004,159.43405491113663L38.2573125,162.15719233453274L39.3710625,162.7984068542719L40.5405,162.8655102699995L41.654250000000005,164.39174108952284L42.8236875,159.9641486853361L43.9374375,164.6578851789236L45.106875,164.39508017152548L46.220625000000005,165.70574766397476L47.3900625,154.14317134022713L48.503812499999995,164.82976086437702L49.67325,163.20210740715265L50.787,163.57831723988056L51.9564375,165.0089411213994L53.070187499999996,165.4310132190585L54.239625000000004,164.55080245435238L55.353375,165.12366074323654L56.5228125,165.6689689680934L57.6365625,165.11128029227257L58.806,162.93329943716526L59.91975,165.64507448673248L61.0891875,165.8873135447502L62.2029375,166.1942202821374L63.372375,164.12213527411222L64.486125,164.89299242198467L65.599875,165.36387419700623L66.7693125,163.6101202815771L67.8830625,164.3529262393713L69.0525,164.4613923355937L70.16625,155.839960411191L71.33568749999999,164.46187499910593L72.4494375,158.07136130332947L73.618875,165.97327776253223L74.73262500000001,165.0404659062624L75.9020625,165.6185068935156L77.01581250000001,164.72594864666462L78.18525,152.76962703466415L79.29899999999999,165.91612169891596L80.4684375,149.3451663404703L81.58218749999999,162.78618597239256L82.751625,162.8661788776517L83.865375,163.46470668911934L85.0348125,162.78974528610706L86.1485625,145.48136316239834L87.318,154.05380737781525L88.43175,162.72788259387016L89.6011875,158.67489114403725L90.71493749999999,165.32485230267048L91.884375,156.10615329444408L92.998125,152.27645042538643L94.11187500000001,162.22185869514942L95.2813125,162.79839366674423L96.39506250000001,168.11152327805758L97.5645,144.8271193653345L98.67824999999999,162.15780687332153L99.84768749999999,136.62455101311207L100.96143749999999,151.33533042669296L102.130875,161.82717709243298L103.244625,139.72781628370285L104.4140625,84.8778503537178L105.5278125,107.94129064679146L106.69725,154.75547352433205L107.81099999999999,141.1556483656168L108.98043750000001,149.83022207021713L110.09418749999999,164.1245472729206L111.263625,163.20184761285782L112.377375,71.10258096456528L113.5468125,161.66872103512287L114.6605625,118.00480377674103L115.83,101.62153726816177L116.94375,58.67952901124954L118.11318750000001,-264.6229977607727L119.2269375,156.40479804575443L120.396375,89.02536472678185L121.510125,81.35893267393112L122.623875,71.42780649662018L123.7933125,119.39436829090118L124.9070625,92.00674295425415L126.0765,106.51124042272568L127.19024999999999,148.01601652801037L128.3596875,167.54671993106604L129.47343750000002,165.53546239435673L130.642875,145.18146032094955L131.756625,162.19411873072386L132.9260625,89.74668556451797L134.0398125,141.75706820189953L135.20925,91.60799431800842L136.323,137.54164069890976L137.4924375,140.69539573788643L138.6061875,-320.60259675979614L139.775625,128.3791047334671L140.889375,106.94861796498299L142.0588125,-357.43331480026245L143.1725625,126.17987877130508L144.34199999999998,171.34081779420376L145.45575,148.9614382982254L146.62518749999998,-83.82093858718872L147.7389375,-16.02113699913025L148.908375,97.54143226146698L150.022125,-62.34590435028076L151.135875,141.6397756934166L152.3053125,-15.83364200592041L153.41906250000002,25.45689743757248L154.5885,-126.04005932807922L155.70225000000002,24.40729683637619L156.8716875,0.9148451685905457L157.98543750000002,166.0073727965355L159.154875,58.49392247200012L160.26862500000001,-52.94186782836914L161.4380625,134.08078506588936L162.55181249999998,161.63339692354202L163.72125,166.7764575406909L164.83499999999998,80.20806241035461L166.0044375,146.4466163367033L167.11818749999998,146.22362579405308L168.28762500000002,106.32199412584305L169.401375,155.97718323022127L170.57081250000002,154.36376702785492L171.6845625,170.9702199138701L172.854,150.2580518424511L173.96775,158.21672742068768L175.1371875,164.17476274073124L176.2509375,162.8937131166458L177.420375,164.88574719429016L178.534125,161.48208586871624L179.647875,160.60444535315037L180.81731249999999,155.51174526661634L181.9310625,157.1262481212616L183.10049999999998,162.80281148850918L184.21425,166.5362328775227L185.38368749999998,162.1434245556593L186.4974375,165.81227914988995L187.666875,166.94374001026154L188.78062500000001,160.96065893769264L189.9500625,161.62867315113544L191.0638125,165.1383806616068L192.23325,155.41086727380753L193.347,155.83382689207792L194.5164375,161.90681920945644L195.6301875,168.49637357890606L196.799625,164.4943070858717L197.913375,163.94262532889843L199.0828125,168.90209182351828L200.1965625,166.50012212991714L201.36599999999999,171.3918891325593L202.47975,168.87877825275064L203.6491875,172.9756607618183L204.76293750000002,153.75074744224548L205.932375,161.30282780528069L207.04612500000002,163.11660607159138L208.159875,152.11477661132812L209.32931250000001,166.89179895445704L210.4430625,152.2425004541874L211.6125,159.6126746982336L212.72625,168.26226199418306L213.8956875,164.8895320147276L215.0094375,166.60527420043945L216.178875,149.95574095845222L217.292625,157.72263559699059L218.4620625,170.72399888187647L219.57581249999998,168.66209860146046L220.74525,162.43604392558336L221.85899999999998,161.2696282044053L223.02843750000002,159.00492089241743L224.1421875,155.63904974609613L225.31162500000002,160.70941279828548L226.425375,164.1293897330761L227.59481250000002,146.5133557766676L228.7085625,164.28979358822107L229.87800000000001,161.1664925068617L230.99175,137.68218018114567L232.16118749999998,169.1454597339034L233.2749375,144.14067953824997L234.44437499999998,149.75172199308872L235.558125,168.05082636326551L236.671875,163.41022637486458L237.8413125,161.4890567958355L238.9550625,161.00344982743263L240.1245,163.73900198936462L241.23825,162.67355129867792L242.4076875,160.43691232055426L243.52143750000002,176.87129231606377" style="fill: none;" fill="none"></path></g></g></g></g></g></g><g transform="translate(51, 177)" clip-path="url(#clip_1)"><clipPath id="clip_1"><rect width="278" height="23"></rect></clipPath><g><g><line x1="0" y1="0" x2="0" y2="5" style="visibility: inherit;" fill="rgb(0, 0, 0)" stroke="rgb(204, 204, 204)" stroke-width="1px"></line><line x1="34.8046875" y1="0" x2="34.8046875" y2="5" style="visibility: inherit;" fill="rgb(0, 0, 0)" stroke="rgb(204, 204, 204)" stroke-width="1px"></line><line x1="69.609375" y1="0" x2="69.609375" y2="5" style="visibility: inherit;" fill="rgb(0, 0, 0)" stroke="rgb(204, 204, 204)" stroke-width="1px"></line><line x1="104.4140625" y1="0" x2="104.4140625" y2="5" style="visibility: inherit;" fill="rgb(0, 0, 0)" stroke="rgb(204, 204, 204)" stroke-width="1px"></line><line x1="139.21875" y1="0" x2="139.21875" y2="5" style="visibility: inherit;" fill="rgb(0, 0, 0)" stroke="rgb(204, 204, 204)" stroke-width="1px"></line><line x1="174.0234375" y1="0" x2="174.0234375" y2="5" style="visibility: inherit;" fill="rgb(0, 0, 0)" stroke="rgb(204, 204, 204)" stroke-width="1px"></line><line x1="208.828125" y1="0" x2="208.828125" y2="5" style="visibility: inherit;" fill="rgb(0, 0, 0)" stroke="rgb(204, 204, 204)" stroke-width="1px"></line><line x1="243.6328125" y1="0" x2="243.6328125" y2="5" style="visibility: inherit;" fill="rgb(0, 0, 0)" stroke="rgb(204, 204, 204)" stroke-width="1px"></line><line x1="278.4375" y1="0" x2="278.4375" y2="5" style="visibility: inherit;" fill="rgb(0, 0, 0)" stroke="rgb(204, 204, 204)" stroke-width="1px"></line></g><g transform="translate(0, 8)"><text x="0" y="0" dx="0em" dy="0.95em" style="text-anchor: middle; visibility: hidden; font-family: Roboto, sans-serif; font-size: 12px; font-weight: 200;" fill="rgb(33, 33, 33)" stroke="none" stroke-width="1px">-500k</text><text x="34.8046875" y="0" dx="0em" dy="0.95em" style="text-anchor: middle; visibility: inherit; font-family: Roboto, sans-serif; font-size: 12px; font-weight: 200;" fill="rgb(33, 33, 33)" stroke="none" stroke-width="1px">0</text><text x="69.609375" y="0" dx="0em" dy="0.95em" style="text-anchor: middle; visibility: inherit; font-family: Roboto, sans-serif; font-size: 12px; font-weight: 200;" fill="rgb(33, 33, 33)" stroke="none" stroke-width="1px">500k</text><text x="104.4140625" y="0" dx="0em" dy="0.95em" style="text-anchor: middle; visibility: inherit; font-family: Roboto, sans-serif; font-size: 12px; font-weight: 200;" fill="rgb(33, 33, 33)" stroke="none" stroke-width="1px">1M</text><text x="139.21875" y="0" dx="0em" dy="0.95em" style="text-anchor: middle; visibility: inherit; font-family: Roboto, sans-serif; font-size: 12px; font-weight: 200;" fill="rgb(33, 33, 33)" stroke="none" stroke-width="1px">1.5M</text><text x="174.0234375" y="0" dx="0em" dy="0.95em" style="text-anchor: middle; visibility: inherit; font-family: Roboto, sans-serif; font-size: 12px; font-weight: 200;" fill="rgb(33, 33, 33)" stroke="none" stroke-width="1px">2M</text><text x="208.828125" y="0" dx="0em" dy="0.95em" style="text-anchor: middle; visibility: inherit; font-family: Roboto, sans-serif; font-size: 12px; font-weight: 200;" fill="rgb(33, 33, 33)" stroke="none" stroke-width="1px">2.5M</text><text x="243.6328125" y="0" dx="0em" dy="0.95em" style="text-anchor: middle; visibility: inherit; font-family: Roboto, sans-serif; font-size: 12px; font-weight: 200;" fill="rgb(33, 33, 33)" stroke="none" stroke-width="1px">3M</text><text x="278.4375" y="0" dx="0em" dy="0.95em" style="text-anchor: middle; visibility: hidden; font-family: Roboto, sans-serif; font-size: 12px; font-weight: 200;" fill="rgb(33, 33, 33)" stroke="none" stroke-width="1px">3.5M</text></g><line x1="0" y1="0" x2="278.4375" y2="0" fill="rgb(0, 0, 0)" stroke="rgb(204, 204, 204)" stroke-width="1px"></line></g></g></g></g></svg>