<svg viewBox="0 0 330 200" xmlns="http://www.w3.org/2000/svg"><g><g><g><g><g><line x1="41.171875" y1="177" x2="36.171875" y2="177" style="visibility: inherit;" fill="rgb(0, 0, 0)" stroke="rgb(204, 204, 204)" stroke-width="1px"></line><line x1="41.171875" y1="159.3" x2="36.171875" y2="159.3" style="visibility: inherit;" fill="rgb(0, 0, 0)" stroke="rgb(204, 204, 204)" stroke-width="1px"></line><line x1="41.171875" y1="141.6" x2="36.171875" y2="141.6" style="visibility: inherit;" fill="rgb(0, 0, 0)" stroke="rgb(204, 204, 204)" stroke-width="1px"></line><line x1="41.171875" y1="123.89999999999999" x2="36.171875" y2="123.89999999999999" style="visibility: inherit;" fill="rgb(0, 0, 0)" stroke="rgb(204, 204, 204)" stroke-width="1px"></line><line x1="41.171875" y1="106.2" x2="36.171875" y2="106.2" style="visibility: inherit;" fill="rgb(0, 0, 0)" stroke="rgb(204, 204, 204)" stroke-width="1px"></line><line x1="41.171875" y1="88.5" x2="36.171875" y2="88.5" style="visibility: inherit;" fill="rgb(0, 0, 0)" stroke="rgb(204, 204, 204)" stroke-width="1px"></line><line x1="41.171875" y1="70.8" x2="36.171875" y2="70.8" style="visibility: inherit;" fill="rgb(0, 0, 0)" stroke="rgb(204, 204, 204)" stroke-width="1px"></line><line x1="41.171875" y1="53.10000000000001" x2="36.171875" y2="53.10000000000001" style="visibility: inherit;" fill="rgb(0, 0, 0)" stroke="rgb(204, 204, 204)" stroke-width="1px"></line><line x1="41.171875" y1="35.39999999999999" x2="36.171875" y2="35.39999999999999" style="visibility: inherit;" fill="rgb(0, 0, 0)" stroke="rgb(204, 204, 204)" stroke-width="1px"></line><line x1="41.171875" y1="17.699999999999996" x2="36.171875" y2="17.699999999999996" style="visibility: inherit;" fill="rgb(0, 0, 0)" stroke="rgb(204, 204, 204)" stroke-width="1px"></line><line x1="41.171875" y1="0" x2="36.171875" y2="0" style="visibility: inherit;" fill="rgb(0, 0, 0)" stroke="rgb(204, 204, 204)" stroke-width="1px"></line></g><g transform="translate(31.171875, 0)"><text x="0" y="177" dx="0em" dy="0.3em" style="text-anchor: end; visibility: hidden; font-family: Roboto, sans-serif; font-size: 12px; font-weight: 200;" fill="rgb(33, 33, 33)" stroke="none" stroke-width="1px">0</text><text x="0" y="159.3" dx="0em" dy="0.3em" style="text-anchor: end; visibility: inherit; font-family: Roboto, sans-serif; font-size: 12px; font-weight: 200;" fill="rgb(33, 33, 33)" stroke="none" stroke-width="1px">0.1</text><text x="0" y="141.6" dx="0em" dy="0.3em" style="text-anchor: end; visibility: hidden; font-family: Roboto, sans-serif; font-size: 12px; font-weight: 200;" fill="rgb(33, 33, 33)" stroke="none" stroke-width="1px">0.2</text><text x="0" y="123.89999999999999" dx="0em" dy="0.3em" style="text-anchor: end; visibility: inherit; font-family: Roboto, sans-serif; font-size: 12px; font-weight: 200;" fill="rgb(33, 33, 33)" stroke="none" stroke-width="1px">0.3</text><text x="0" y="106.2" dx="0em" dy="0.3em" style="text-anchor: end; visibility: hidden; font-family: Roboto, sans-serif; font-size: 12px; font-weight: 200;" fill="rgb(33, 33, 33)" stroke="none" stroke-width="1px">0.4</text><text x="0" y="88.5" dx="0em" dy="0.3em" style="text-anchor: end; visibility: inherit; font-family: Roboto, sans-serif; font-size: 12px; font-weight: 200;" fill="rgb(33, 33, 33)" stroke="none" stroke-width="1px">0.5</text><text x="0" y="70.8" dx="0em" dy="0.3em" style="text-anchor: end; visibility: hidden; font-family: Roboto, sans-serif; font-size: 12px; font-weight: 200;" fill="rgb(33, 33, 33)" stroke="none" stroke-width="1px">0.6</text><text x="0" y="53.10000000000001" dx="0em" dy="0.3em" style="text-anchor: end; visibility: inherit; font-family: Roboto, sans-serif; font-size: 12px; font-weight: 200;" fill="rgb(33, 33, 33)" stroke="none" stroke-width="1px">0.7</text><text x="0" y="35.39999999999999" dx="0em" dy="0.3em" style="text-anchor: end; visibility: hidden; font-family: Roboto, sans-serif; font-size: 12px; font-weight: 200;" fill="rgb(33, 33, 33)" stroke="none" stroke-width="1px">0.8</text><text x="0" y="17.699999999999996" dx="0em" dy="0.3em" style="text-anchor: end; visibility: inherit; font-family: Roboto, sans-serif; font-size: 12px; font-weight: 200;" fill="rgb(33, 33, 33)" stroke="none" stroke-width="1px">0.9</text><text x="0" y="0" dx="0em" dy="0.3em" style="text-anchor: end; visibility: hidden; font-family: Roboto, sans-serif; font-size: 12px; font-weight: 200;" fill="rgb(33, 33, 33)" stroke="none" stroke-width="1px">1</text></g><line x1="41.171875" y1="0" x2="41.171875" y2="177" fill="rgb(0, 0, 0)" stroke="rgb(204, 204, 204)" stroke-width="1px"></line></g></g><g transform="translate(41, 0)" clip-path="url(#clip_0)"><clipPath id="clip_0"><rect width="288" height="177"></rect></clipPath><g><g><g><line x1="0" y1="0" x2="0" y2="177" fill="rgb(0, 0, 0)" stroke="rgb(66, 66, 66)" stroke-width="1px" opacity="0.25"></line><line x1="36.103515625" y1="0" x2="36.103515625" y2="177" fill="rgb(0, 0, 0)" stroke="rgb(66, 66, 66)" stroke-width="1px" opacity="0.25"></line><line x1="72.20703125" y1="0" x2="72.20703125" y2="177" fill="rgb(0, 0, 0)" stroke="rgb(66, 66, 66)" stroke-width="1px" opacity="0.25"></line><line x1="108.310546875" y1="0" x2="108.310546875" y2="177" fill="rgb(0, 0, 0)" stroke="rgb(66, 66, 66)" stroke-width="1px" opacity="0.25"></line><line x1="144.4140625" y1="0" x2="144.4140625" y2="177" fill="rgb(0, 0, 0)" stroke="rgb(66, 66, 66)" stroke-width="1px" opacity="0.25"></line><line x1="180.517578125" y1="0" x2="180.517578125" y2="177" fill="rgb(0, 0, 0)" stroke="rgb(66, 66, 66)" stroke-width="1px" opacity="0.25"></line><line x1="216.62109375" y1="0" x2="216.62109375" y2="177" fill="rgb(0, 0, 0)" stroke="rgb(66, 66, 66)" stroke-width="1px" opacity="0.25"></line><line x1="252.724609375" y1="0" x2="252.724609375" y2="177" fill="rgb(0, 0, 0)" stroke="rgb(66, 66, 66)" stroke-width="1px" opacity="0.25"></line><line x1="288.828125" y1="0" x2="288.828125" y2="177" fill="rgb(0, 0, 0)" stroke="rgb(66, 66, 66)" stroke-width="1px" opacity="0.25"></line></g><g><line x1="0" y1="177" x2="288.828125" y2="177" fill="rgb(0, 0, 0)" stroke="rgb(66, 66, 66)" stroke-width="1px" opacity="0.25"></line><line x1="0" y1="159.3" x2="288.828125" y2="159.3" fill="rgb(0, 0, 0)" stroke="rgb(66, 66, 66)" stroke-width="1px" opacity="0.25"></line><line x1="0" y1="141.6" x2="288.828125" y2="141.6" fill="rgb(0, 0, 0)" stroke="rgb(66, 66, 66)" stroke-width="1px" opacity="0.25"></line><line x1="0" y1="123.89999999999999" x2="288.828125" y2="123.89999999999999" fill="rgb(0, 0, 0)" stroke="rgb(66, 66, 66)" stroke-width="1px" opacity="0.25"></line><line x1="0" y1="106.2" x2="288.828125" y2="106.2" fill="rgb(0, 0, 0)" stroke="rgb(66, 66, 66)" stroke-width="1px" opacity="0.25"></line><line x1="0" y1="88.5" x2="288.828125" y2="88.5" fill="rgb(0, 0, 0)" stroke="rgb(66, 66, 66)" stroke-width="1px" opacity="0.25"></line><line x1="0" y1="70.8" x2="288.828125" y2="70.8" fill="rgb(0, 0, 0)" stroke="rgb(66, 66, 66)" stroke-width="1px" opacity="0.25"></line><line x1="0" y1="53.10000000000001" x2="288.828125" y2="53.10000000000001" fill="rgb(0, 0, 0)" stroke="rgb(66, 66, 66)" stroke-width="1px" opacity="0.25"></line><line x1="0" y1="35.39999999999999" x2="288.828125" y2="35.39999999999999" fill="rgb(0, 0, 0)" stroke="rgb(66, 66, 66)" stroke-width="1px" opacity="0.25"></line><line x1="0" y1="17.699999999999996" x2="288.828125" y2="17.699999999999996" fill="rgb(0, 0, 0)" stroke="rgb(66, 66, 66)" stroke-width="1px" opacity="0.25"></line><line x1="0" y1="0" x2="288.828125" y2="0" fill="rgb(0, 0, 0)" stroke="rgb(66, 66, 66)" stroke-width="1px" opacity="0.25"></line></g></g></g><g><g><line x1="0" y1="177" x2="288.828125" y2="177" fill="rgb(0, 0, 0)" stroke="rgb(153, 153, 153)" stroke-width="1.5px"></line></g></g><g><g><line x1="36.103515625" y1="0" x2="36.103515625" y2="177" fill="rgb(0, 0, 0)" stroke="rgb(153, 153, 153)" stroke-width="1.5px"></line></g></g><g><g><g><g><g><path stroke="rgb(255, 112, 67)" stroke-width="2px" d="M37.31659375,177.0631524324417L38.47190625,157.5191079473436L39.684984375,151.42176162897513L40.840296875,148.4014411033943L42.053375,147.0943668460535L43.2086875,146.53135315572138L44.421765625,148.4490689497371L45.577078125,149.07800369417555L46.79015625,151.31072232619138L47.94546875,152.3891758239237L49.158546875,153.57336446957822L50.313859375,154.73505459601745L51.5269375,155.80508726155253L52.68225,156.90313087166533L53.895328125,157.75850330076588L55.050640625,158.77734324421004L56.26371875,159.6150132239091L57.41903125,160.2633865204068L58.632109375000006,160.54435413928292L59.787421875,161.17302095807204L61.0005,161.40722137580192L62.1558125,161.73082539720812L63.368890625000006,161.7373126177774L64.524203125,161.67186022713224L65.73728125,161.52621334875766L66.89259375,161.74057014713432L68.04790625,161.72416343507857L69.260984375,161.6409994491589L70.416296875,161.44226822367852L71.629375,161.034343897353L72.7846875,160.2353807475731L73.997765625,159.25379844491613L75.153078125,158.11638950032693L76.36615625,155.7414419434636L77.52146875000001,153.3751660707226L78.734546875,150.11749975671023L79.889859375,145.5033601314567L81.1029375,139.38761515674068L82.25825,132.12090417528594L83.471328125,123.21721601322128L84.626640625,115.44968905988628L85.83971875,105.70490325250888L86.99503125000001,93.6555753044659L88.208109375,82.66202171817297L89.363421875,73.35434295948475L90.5765,64.780379533845L91.7318125,55.228627229171664L92.944890625,44.41605557128024L94.100203125,37.846749576508984L95.31328125,30.316633454277103L96.46859375000001,24.419478323308986L97.62390625,22.311786961961335L98.836984375,18.155371995398948L99.99229687500001,17.55422451864547L101.205375,14.546578613192658L102.3606875,12.730779188761117L103.573765625,11.463275788139283L104.72907812499999,10.455366558317687L105.94215625000001,9.432771450755002L107.09746875,8.84067451071008L108.310546875,10.413126825331402L109.46585937500001,10.639952801190109L110.67893749999999,10.675917504763495L111.83425,10.863974293669152L113.047328125,9.802288005432134L114.20264062499999,6.770901472804999L115.41571875,8.394008758002789L116.57103125,8.56032880374083L117.784109375,7.478224808287629L118.939421875,8.14963354116829L120.15249999999999,10.815995296112087L121.3078125,12.565157303693995L122.520890625,8.663524947046584L123.676203125,9.302741892227642L124.88928125,11.763420478284917L126.04459375,13.762905757431287L127.19990625,9.464622742040213L128.412984375,11.641385435708425L129.568296875,14.016721836952858L130.781375,15.570805880257806L131.9366875,14.307043517282025L133.14976562500001,9.942874344105432L134.305078125,7.350539875905562L135.51815625,11.049626335383843L136.67346875,12.604727762613418L137.886546875,9.38768497157286L139.041859375,11.19928411801617L140.25493749999998,8.249395169001204L141.41025,13.86607376154861L142.623328125,9.899433224155274L143.778640625,7.563280666173501L144.99171875,14.568248940313756L146.14703125,12.246691224531066L147.360109375,8.962831867964058L148.515421875,11.885834862800253L149.7285,11.413996388909315L150.8838125,16.520620866943055L152.096890625,11.667189164043986L153.252203125,8.774270625921089L154.46528125,6.997282624045235L155.62059374999998,8.103174191235825L156.77590625,8.872420074992494L157.988984375,9.225143590543999L159.144296875,9.533548077845158L160.35737500000002,9.681868565403468L161.5126875,18.41022044321512L162.725765625,15.09500249660281L163.88107812500002,14.035254722120348L165.09415625,12.741767550045726L166.24946875,20.405828439221025L167.462546875,25.337387552358862L168.617859375,17.342454703082034L169.8309375,15.631671191085449L170.98624999999998,11.568180032748254L172.199328125,12.37295423787351L173.35464062499997,9.574083331642049L174.56771875,7.985975970460882L175.72303125000002,19.059812108168973L176.936109375,32.81997958812464L178.091421875,37.02584347486499L179.30450000000002,40.1741050439215L180.4598125,37.65721044212965L181.672890625,30.808752012585636L182.82820312500002,24.227239014956716L184.04128125,26.024779198442175L185.19659375,25.293985397440633L186.35190624999998,22.288873228236323L187.564984375,19.39205847141681L188.720296875,16.863870326066824L189.93337499999998,14.61464800208237L191.0886875,12.59114520235284L192.30176562499997,13.842655298178784L193.45707812499998,11.610887462055986L194.67015625000002,12.24438262197169L195.82546875000003,9.954922985274486L197.038546875,11.851475225661783L198.19385937500002,9.766243078918778L199.4069375,9.199396077380095L200.56225,9.010472020203768L201.775328125,11.135017940955999L202.930640625,13.76774935619447L204.14371875,11.047962433482649L205.29903124999998,12.964006919739301L206.512109375,15.01176869720784L207.667421875,11.875791410269247L208.88049999999998,10.011619638817317L210.0358125,8.891252404174706L211.248890625,8.475560042638216L212.404203125,11.754716113408955L213.61728125000002,13.686917640701473L214.77259375,13.807483090399941L215.92790625,13.917411318696526L217.14098437500002,16.04281700334696L218.296296875,12.564633898096593L219.509375,10.671492673602247L220.6646875,14.392099589114956L221.877765625,11.613910665127975L223.033078125,10.001833984790274L224.24615624999998,9.161469630631169L225.40146875,8.495908198129767L226.614546875,8.22343554184868L227.76985937499998,8.164688635346364L228.9829375,8.179120710049787L230.13825,12.421213454567798L231.351328125,14.951511852308728L232.50664062500002,16.546724401147305L233.71971875,17.527121646504533L234.87503125,13.172415186687179L236.08810937500002,11.179966598455158L237.243421875,9.951868555577725L238.4565,12.366043294053169L239.6118125,14.881252415729687L240.824890625,17.49043792645098L241.980203125,14.101457607985914L243.19328124999998,11.954123209930529L244.34859375,14.804769270858428L245.50390625,12.353657286304218L246.71698437499998,12.592673219982514L247.872296875,15.236172062997005L249.08537500000003,16.97610179091418L250.24068749999998,12.97130769342639L251.45376562500002,10.56300364375237L252.60907812500002,6.348365189895179" style="fill: none;" fill="none"></path></g></g></g></g><g opacity="0.2"><g><g><g><path stroke="rgb(255, 112, 67)" stroke-width="2px" d="M37.31659375,177.0631524324417L38.47190625,145.77313721179962L39.684984375,145.5548889040947L40.840296875,144.83962905406952L42.053375,145.38242769241333L43.2086875,145.74980056285858L44.421765625,151.20153504610062L45.577078125,149.99851602315903L46.79015625,154.61654555797577L47.94546875,153.9969955086708L49.158546875,155.34610068798065L50.313859375,156.47840291261673L51.5269375,157.41326147317886L52.68225,158.5548688173294L53.895328125,159.04588794708252L55.050640625,160.31124705076218L56.26371875,160.87640118598938L57.41903125,161.23983889818192L58.632109375000006,160.9675217270851L59.787421875,162.11990064382553L61.0005,161.7599760890007L62.1558125,162.21824795007706L63.368890625000006,161.74708396196365L64.524203125,161.57327234745026L65.73728125,161.30683153867722L66.89259375,162.06344747543335L68.04790625,161.69945061206818L69.260984375,161.51573252677917L70.416296875,161.14292639493942L71.629375,160.41990172863007L72.7846875,159.03193026781082L73.997765625,157.7752749323845L75.153078125,156.40314960479736L76.36615625,152.16414016485214L77.52146875000001,149.81092607975006L78.734546875,145.21058893203735L79.889859375,138.55324012041092L81.1029375,130.17567855119705L82.25825,121.17530697584152L83.471328125,109.80589628219604L84.626640625,103.74972993135452L85.83971875,91.02666699886322L86.99503125000001,75.5060863494873L88.208109375,66.1028094291687L89.363421875,59.334506034851074L90.5765,51.86571282148361L91.7318125,40.84115070104599L92.944890625,28.129450142383575L94.100203125,27.951629519462585L95.31328125,18.97427809238434L96.46859375000001,15.536796033382416L97.62390625,19.137043833732605L98.836984375,11.894706845283508L99.99229687500001,16.648736715316772L101.205375,10.016264855861664L102.3606875,9.995702862739563L103.573765625,9.554078936576843L104.72907812499999,8.937187492847443L105.94215625000001,7.892471551895142L107.09746875,7.948819220066071L108.310546875,12.781657755374908L109.46585937500001,10.981612980365753L110.67893749999999,10.730089902877808L111.83425,11.147237777709961L113.047328125,8.20310640335083L114.20264062499999,2.2048280239105225L115.41571875,10.838839530944824L116.57103125,8.810850977897644L117.784109375,5.848288714885712L118.939421875,9.16095346212387L120.15249999999999,14.832244455814362L121.3078125,15.199859976768494L122.520890625,2.786630094051361L123.676203125,10.265572428703308L124.88928125,15.469856142997742L126.04459375,16.774661779403687L127.19990625,2.9902666211128235L128.412984375,14.920168340206146L129.568296875,17.59460949897766L130.781375,17.911669313907623L131.9366875,12.403481662273407L133.14976562500001,3.3692761659622192L134.305078125,3.445795476436615L135.51815625,16.62143325805664L136.67346875,14.947123646736145L137.886546875,4.541963875293732L139.041859375,13.928033709526062L140.25493749999998,3.8060787320137024L141.41025,22.326283872127533L142.623328125,3.9246187806129456L143.778640625,4.044414281845093L144.99171875,25.119592130184174L146.14703125,8.749808549880981L147.360109375,4.016467273235321L148.515421875,16.288653910160065L149.7285,10.703282296657562L150.8838125,24.21255397796631L152.096890625,4.356631636619568L153.252203125,4.4167667627334595L154.46528125,4.320666611194611L155.62059374999998,9.768940687179565L156.77590625,10.031108736991882L157.988984375,9.756438910961151L159.144296875,9.998087167739868L160.35737500000002,9.905278623104095L161.5126875,31.55743718147278L162.725765625,10.101403534412384L163.88107812500002,12.438993036746979L165.09415625,10.793432235717773L166.24946875,31.94994020462036L167.462546875,32.76562571525574L168.617859375,5.299961864948273L169.8309375,13.054776728153229L170.98624999999998,5.4474828243255615L172.199328125,13.585157990455627L173.35464062499997,5.358240187168121L174.56771875,5.593864381313324L175.72303125000002,35.73995125293732L176.936109375,53.54644739627838L178.091421875,43.36099183559418L179.30450000000002,44.91622334718704L180.4598125,33.866098523139954L181.672890625,20.493154227733612L182.82820312500002,14.313731968402863L184.04128125,28.732352256774902L185.19659375,24.193215787410736L186.35190624999998,17.762375950813293L187.564984375,15.028685867786407L188.720296875,13.055747330188751L189.93337499999998,11.22672164440155L191.0886875,9.543212413787842L192.30176562499997,15.72776198387146L193.45707812499998,8.249252200126648L194.67015625000002,13.198594629764557L195.82546875000003,6.506388545036316L197.038546875,14.708186745643616L198.19385937500002,6.625329494476318L199.4069375,8.345573902130127L200.56225,8.725902199745178L201.775328125,14.335148513317108L202.930640625,17.73334228992462L204.14371875,6.95124077796936L205.29903124999998,15.85007894039154L206.512109375,18.09624195098877L207.667421875,7.15217649936676L208.88049999999998,7.203681707382202L210.0358125,7.203681707382202L211.248890625,7.84941691160202L212.404203125,16.69399631023407L213.61728125000002,16.597326457500458L214.77259375,13.98908668756485L215.92790625,14.082992434501648L217.14098437500002,19.24424260854721L218.296296875,7.325566112995148L219.509375,7.819919049739838L220.6646875,19.99632203578949L221.877765625,7.429220080375671L223.033078125,7.573618233203888L224.24615624999998,7.895657658576965L225.40146875,7.4933958649635315L226.614546875,7.813019335269928L227.76985937499998,8.076200187206268L228.9829375,8.200859248638153L230.13825,18.810932099819183L231.351328125,18.762813448905945L232.50664062500002,18.94953829050064L233.71971875,19.003860354423523L234.87503125,6.613070368766785L236.08810937500002,8.178809702396393L237.243421875,8.102026641368866L238.4565,16.00243180990219L239.6118125,18.669825553894043L240.824890625,21.420564472675323L241.980203125,8.996752917766571L243.19328124999998,8.719667136669159L244.34859375,19.098599553108215L245.50390625,8.661631464958191L246.71698437499998,12.952694714069366L247.872296875,19.217983603477478L249.08537500000003,19.596898198127747L250.24068749999998,6.939023852348328L251.45376562500002,6.935457944869995L252.60907812500002,0" style="fill: none;" fill="none"></path></g></g></g></g></g><g><g><span fill="rgb(0, 0, 0)" stroke="none" stroke-width="1px">Alt + Scroll to Zoom</span></g></g></g><g transform="translate(41, 177)" clip-path="url(#clip_1)"><clipPath id="clip_1"><rect width="288" height="23"></rect></clipPath><g><g><line x1="0" y1="0" x2="0" y2="5" style="visibility: inherit;" fill="rgb(0, 0, 0)" stroke="rgb(204, 204, 204)" stroke-width="1px"></line><line x1="36.103515625" y1="0" x2="36.103515625" y2="5" style="visibility: inherit;" fill="rgb(0, 0, 0)" stroke="rgb(204, 204, 204)" stroke-width="1px"></line><line x1="72.20703125" y1="0" x2="72.20703125" y2="5" style="visibility: inherit;" fill="rgb(0, 0, 0)" stroke="rgb(204, 204, 204)" stroke-width="1px"></line><line x1="108.310546875" y1="0" x2="108.310546875" y2="5" style="visibility: inherit;" fill="rgb(0, 0, 0)" stroke="rgb(204, 204, 204)" stroke-width="1px"></line><line x1="144.4140625" y1="0" x2="144.4140625" y2="5" style="visibility: inherit;" fill="rgb(0, 0, 0)" stroke="rgb(204, 204, 204)" stroke-width="1px"></line><line x1="180.517578125" y1="0" x2="180.517578125" y2="5" style="visibility: inherit;" fill="rgb(0, 0, 0)" stroke="rgb(204, 204, 204)" stroke-width="1px"></line><line x1="216.62109375" y1="0" x2="216.62109375" y2="5" style="visibility: inherit;" fill="rgb(0, 0, 0)" stroke="rgb(204, 204, 204)" stroke-width="1px"></line><line x1="252.724609375" y1="0" x2="252.724609375" y2="5" style="visibility: inherit;" fill="rgb(0, 0, 0)" stroke="rgb(204, 204, 204)" stroke-width="1px"></line><line x1="288.828125" y1="0" x2="288.828125" y2="5" style="visibility: inherit;" fill="rgb(0, 0, 0)" stroke="rgb(204, 204, 204)" stroke-width="1px"></line></g><g transform="translate(0, 8)"><text x="0" y="0" dx="0em" dy="0.95em" style="text-anchor: middle; visibility: hidden; font-family: Roboto, sans-serif; font-size: 12px; font-weight: 200;" fill="rgb(33, 33, 33)" stroke="none" stroke-width="1px">-500k</text><text x="36.103515625" y="0" dx="0em" dy="0.95em" style="text-anchor: middle; visibility: inherit; font-family: Roboto, sans-serif; font-size: 12px; font-weight: 200;" fill="rgb(33, 33, 33)" stroke="none" stroke-width="1px">0</text><text x="72.20703125" y="0" dx="0em" dy="0.95em" style="text-anchor: middle; visibility: inherit; font-family: Roboto, sans-serif; font-size: 12px; font-weight: 200;" fill="rgb(33, 33, 33)" stroke="none" stroke-width="1px">500k</text><text x="108.310546875" y="0" dx="0em" dy="0.95em" style="text-anchor: middle; visibility: inherit; font-family: Roboto, sans-serif; font-size: 12px; font-weight: 200;" fill="rgb(33, 33, 33)" stroke="none" stroke-width="1px">1M</text><text x="144.4140625" y="0" dx="0em" dy="0.95em" style="text-anchor: middle; visibility: inherit; font-family: Roboto, sans-serif; font-size: 12px; font-weight: 200;" fill="rgb(33, 33, 33)" stroke="none" stroke-width="1px">1.5M</text><text x="180.517578125" y="0" dx="0em" dy="0.95em" style="text-anchor: middle; visibility: inherit; font-family: Roboto, sans-serif; font-size: 12px; font-weight: 200;" fill="rgb(33, 33, 33)" stroke="none" stroke-width="1px">2M</text><text x="216.62109375" y="0" dx="0em" dy="0.95em" style="text-anchor: middle; visibility: inherit; font-family: Roboto, sans-serif; font-size: 12px; font-weight: 200;" fill="rgb(33, 33, 33)" stroke="none" stroke-width="1px">2.5M</text><text x="252.724609375" y="0" dx="0em" dy="0.95em" style="text-anchor: middle; visibility: inherit; font-family: Roboto, sans-serif; font-size: 12px; font-weight: 200;" fill="rgb(33, 33, 33)" stroke="none" stroke-width="1px">3M</text><text x="288.828125" y="0" dx="0em" dy="0.95em" style="text-anchor: middle; visibility: hidden; font-family: Roboto, sans-serif; font-size: 12px; font-weight: 200;" fill="rgb(33, 33, 33)" stroke="none" stroke-width="1px">3.5M</text></g><line x1="0" y1="0" x2="288.828125" y2="0" fill="rgb(0, 0, 0)" stroke="rgb(204, 204, 204)" stroke-width="1px"></line></g></g></g></g></svg>