<svg viewBox="0 0 330 200" xmlns="http://www.w3.org/2000/svg"><g><g><g><g><g><line x1="72.34375" y1="177" x2="67.34375" y2="177" style="visibility: inherit;" fill="rgb(0, 0, 0)" stroke="rgb(204, 204, 204)" stroke-width="1px"></line><line x1="72.34375" y1="162.25000070058738" x2="67.34375" y2="162.25000070058738" style="visibility: inherit;" fill="rgb(0, 0, 0)" stroke="rgb(204, 204, 204)" stroke-width="1px"></line><line x1="72.34375" y1="147.50000140117473" x2="67.34375" y2="147.50000140117473" style="visibility: inherit;" fill="rgb(0, 0, 0)" stroke="rgb(204, 204, 204)" stroke-width="1px"></line><line x1="72.34375" y1="132.75000210176213" x2="67.34375" y2="132.75000210176213" style="visibility: inherit;" fill="rgb(0, 0, 0)" stroke="rgb(204, 204, 204)" stroke-width="1px"></line><line x1="72.34375" y1="118.00000280234948" x2="67.34375" y2="118.00000280234948" style="visibility: inherit;" fill="rgb(0, 0, 0)" stroke="rgb(204, 204, 204)" stroke-width="1px"></line><line x1="72.34375" y1="103.25000350293686" x2="67.34375" y2="103.25000350293686" style="visibility: inherit;" fill="rgb(0, 0, 0)" stroke="rgb(204, 204, 204)" stroke-width="1px"></line><line x1="72.34375" y1="88.50000420352424" x2="67.34375" y2="88.50000420352424" style="visibility: inherit;" fill="rgb(0, 0, 0)" stroke="rgb(204, 204, 204)" stroke-width="1px"></line><line x1="72.34375" y1="73.75000490411162" x2="67.34375" y2="73.75000490411162" style="visibility: inherit;" fill="rgb(0, 0, 0)" stroke="rgb(204, 204, 204)" stroke-width="1px"></line><line x1="72.34375" y1="59.000005604698984" x2="67.34375" y2="59.000005604698984" style="visibility: inherit;" fill="rgb(0, 0, 0)" stroke="rgb(204, 204, 204)" stroke-width="1px"></line><line x1="72.34375" y1="44.25000630528637" x2="67.34375" y2="44.25000630528637" style="visibility: inherit;" fill="rgb(0, 0, 0)" stroke="rgb(204, 204, 204)" stroke-width="1px"></line><line x1="72.34375" y1="29.500007005873726" x2="67.34375" y2="29.500007005873726" style="visibility: inherit;" fill="rgb(0, 0, 0)" stroke="rgb(204, 204, 204)" stroke-width="1px"></line><line x1="72.34375" y1="14.750007706461108" x2="67.34375" y2="14.750007706461108" style="visibility: inherit;" fill="rgb(0, 0, 0)" stroke="rgb(204, 204, 204)" stroke-width="1px"></line><line x1="72.34375" y1="0.000008407048488034974" x2="67.34375" y2="0.000008407048488034974" style="visibility: inherit;" fill="rgb(0, 0, 0)" stroke="rgb(204, 204, 204)" stroke-width="1px"></line></g><g transform="translate(62.34375, 0)"><text x="0" y="177" dx="0em" dy="0.3em" style="text-anchor: end; visibility: hidden; font-family: Roboto, sans-serif; font-size: 12px; font-weight: 200;" fill="rgb(33, 33, 33)" stroke="none" stroke-width="1px">0</text><text x="0" y="162.25000070058738" dx="0em" dy="0.3em" style="text-anchor: end; visibility: inherit; font-family: Roboto, sans-serif; font-size: 12px; font-weight: 200;" fill="rgb(33, 33, 33)" stroke="none" stroke-width="1px">5e-5</text><text x="0" y="147.50000140117473" dx="0em" dy="0.3em" style="text-anchor: end; visibility: hidden; font-family: Roboto, sans-serif; font-size: 12px; font-weight: 200;" fill="rgb(33, 33, 33)" stroke="none" stroke-width="1px">1e-4</text><text x="0" y="132.75000210176213" dx="0em" dy="0.3em" style="text-anchor: end; visibility: inherit; font-family: Roboto, sans-serif; font-size: 12px; font-weight: 200;" fill="rgb(33, 33, 33)" stroke="none" stroke-width="1px">1.5e-4</text><text x="0" y="118.00000280234948" dx="0em" dy="0.3em" style="text-anchor: end; visibility: hidden; font-family: Roboto, sans-serif; font-size: 12px; font-weight: 200;" fill="rgb(33, 33, 33)" stroke="none" stroke-width="1px">2e-4</text><text x="0" y="103.25000350293686" dx="0em" dy="0.3em" style="text-anchor: end; visibility: inherit; font-family: Roboto, sans-serif; font-size: 12px; font-weight: 200;" fill="rgb(33, 33, 33)" stroke="none" stroke-width="1px">2.5e-4</text><text x="0" y="88.50000420352424" dx="0em" dy="0.3em" style="text-anchor: end; visibility: hidden; font-family: Roboto, sans-serif; font-size: 12px; font-weight: 200;" fill="rgb(33, 33, 33)" stroke="none" stroke-width="1px">3e-4</text><text x="0" y="73.75000490411162" dx="0em" dy="0.3em" style="text-anchor: end; visibility: inherit; font-family: Roboto, sans-serif; font-size: 12px; font-weight: 200;" fill="rgb(33, 33, 33)" stroke="none" stroke-width="1px">3.5e-4</text><text x="0" y="59.000005604698984" dx="0em" dy="0.3em" style="text-anchor: end; visibility: hidden; font-family: Roboto, sans-serif; font-size: 12px; font-weight: 200;" fill="rgb(33, 33, 33)" stroke="none" stroke-width="1px">4e-4</text><text x="0" y="44.25000630528637" dx="0em" dy="0.3em" style="text-anchor: end; visibility: inherit; font-family: Roboto, sans-serif; font-size: 12px; font-weight: 200;" fill="rgb(33, 33, 33)" stroke="none" stroke-width="1px">4.5e-4</text><text x="0" y="29.500007005873726" dx="0em" dy="0.3em" style="text-anchor: end; visibility: hidden; font-family: Roboto, sans-serif; font-size: 12px; font-weight: 200;" fill="rgb(33, 33, 33)" stroke="none" stroke-width="1px">5e-4</text><text x="0" y="14.750007706461108" dx="0em" dy="0.3em" style="text-anchor: end; visibility: inherit; font-family: Roboto, sans-serif; font-size: 12px; font-weight: 200;" fill="rgb(33, 33, 33)" stroke="none" stroke-width="1px">5.5e-4</text><text x="0" y="0.000008407048488034974" dx="0em" dy="0.3em" style="text-anchor: end; visibility: hidden; font-family: Roboto, sans-serif; font-size: 12px; font-weight: 200;" fill="rgb(33, 33, 33)" stroke="none" stroke-width="1px">6e-4</text></g><line x1="72.34375" y1="0" x2="72.34375" y2="177" fill="rgb(0, 0, 0)" stroke="rgb(204, 204, 204)" stroke-width="1px"></line></g></g><g transform="translate(72, 0)" clip-path="url(#clip_0)"><clipPath id="clip_0"><rect width="257" height="177"></rect></clipPath><g><g><g><line x1="0" y1="0" x2="0" y2="177" fill="rgb(0, 0, 0)" stroke="rgb(66, 66, 66)" stroke-width="1px" opacity="0.25"></line><line x1="32.20703125" y1="0" x2="32.20703125" y2="177" fill="rgb(0, 0, 0)" stroke="rgb(66, 66, 66)" stroke-width="1px" opacity="0.25"></line><line x1="64.4140625" y1="0" x2="64.4140625" y2="177" fill="rgb(0, 0, 0)" stroke="rgb(66, 66, 66)" stroke-width="1px" opacity="0.25"></line><line x1="96.62109375" y1="0" x2="96.62109375" y2="177" fill="rgb(0, 0, 0)" stroke="rgb(66, 66, 66)" stroke-width="1px" opacity="0.25"></line><line x1="128.828125" y1="0" x2="128.828125" y2="177" fill="rgb(0, 0, 0)" stroke="rgb(66, 66, 66)" stroke-width="1px" opacity="0.25"></line><line x1="161.03515625" y1="0" x2="161.03515625" y2="177" fill="rgb(0, 0, 0)" stroke="rgb(66, 66, 66)" stroke-width="1px" opacity="0.25"></line><line x1="193.2421875" y1="0" x2="193.2421875" y2="177" fill="rgb(0, 0, 0)" stroke="rgb(66, 66, 66)" stroke-width="1px" opacity="0.25"></line><line x1="225.44921875" y1="0" x2="225.44921875" y2="177" fill="rgb(0, 0, 0)" stroke="rgb(66, 66, 66)" stroke-width="1px" opacity="0.25"></line><line x1="257.65625" y1="0" x2="257.65625" y2="177" fill="rgb(0, 0, 0)" stroke="rgb(66, 66, 66)" stroke-width="1px" opacity="0.25"></line></g><g><line x1="0" y1="177" x2="257.65625" y2="177" fill="rgb(0, 0, 0)" stroke="rgb(66, 66, 66)" stroke-width="1px" opacity="0.25"></line><line x1="0" y1="162.25000070058738" x2="257.65625" y2="162.25000070058738" fill="rgb(0, 0, 0)" stroke="rgb(66, 66, 66)" stroke-width="1px" opacity="0.25"></line><line x1="0" y1="147.50000140117473" x2="257.65625" y2="147.50000140117473" fill="rgb(0, 0, 0)" stroke="rgb(66, 66, 66)" stroke-width="1px" opacity="0.25"></line><line x1="0" y1="132.75000210176213" x2="257.65625" y2="132.75000210176213" fill="rgb(0, 0, 0)" stroke="rgb(66, 66, 66)" stroke-width="1px" opacity="0.25"></line><line x1="0" y1="118.00000280234948" x2="257.65625" y2="118.00000280234948" fill="rgb(0, 0, 0)" stroke="rgb(66, 66, 66)" stroke-width="1px" opacity="0.25"></line><line x1="0" y1="103.25000350293686" x2="257.65625" y2="103.25000350293686" fill="rgb(0, 0, 0)" stroke="rgb(66, 66, 66)" stroke-width="1px" opacity="0.25"></line><line x1="0" y1="88.50000420352424" x2="257.65625" y2="88.50000420352424" fill="rgb(0, 0, 0)" stroke="rgb(66, 66, 66)" stroke-width="1px" opacity="0.25"></line><line x1="0" y1="73.75000490411162" x2="257.65625" y2="73.75000490411162" fill="rgb(0, 0, 0)" stroke="rgb(66, 66, 66)" stroke-width="1px" opacity="0.25"></line><line x1="0" y1="59.000005604698984" x2="257.65625" y2="59.000005604698984" fill="rgb(0, 0, 0)" stroke="rgb(66, 66, 66)" stroke-width="1px" opacity="0.25"></line><line x1="0" y1="44.25000630528637" x2="257.65625" y2="44.25000630528637" fill="rgb(0, 0, 0)" stroke="rgb(66, 66, 66)" stroke-width="1px" opacity="0.25"></line><line x1="0" y1="29.500007005873726" x2="257.65625" y2="29.500007005873726" fill="rgb(0, 0, 0)" stroke="rgb(66, 66, 66)" stroke-width="1px" opacity="0.25"></line><line x1="0" y1="14.750007706461108" x2="257.65625" y2="14.750007706461108" fill="rgb(0, 0, 0)" stroke="rgb(66, 66, 66)" stroke-width="1px" opacity="0.25"></line><line x1="0" y1="0.000008407048488034974" x2="257.65625" y2="0.000008407048488034974" fill="rgb(0, 0, 0)" stroke="rgb(66, 66, 66)" stroke-width="1px" opacity="0.25"></line></g></g></g><g><g><line x1="0" y1="177" x2="257.65625" y2="177" fill="rgb(0, 0, 0)" stroke="rgb(153, 153, 153)" stroke-width="1.5px"></line></g></g><g><g><line x1="32.20703125" y1="0" x2="32.20703125" y2="177" fill="rgb(0, 0, 0)" stroke="rgb(153, 153, 153)" stroke-width="1.5px"></line></g></g><g><g><g><g><g><path stroke="rgb(255, 112, 67)" stroke-width="2px" d="M33.289187500000004,88.5L34.319812500000005,88.5L35.40196875,88.5L36.43259375,88.5L37.51475,88.5L38.545375,88.5L39.62753125,88.5L40.65815625,88.5L41.7403125,88.5L42.7709375,88.5L43.85309375,88.5L44.88371875,88.5L45.965875000000004,88.5L46.996500000000005,88.5L48.078656249999995,88.5L49.109281249999995,88.5L50.1914375,88.5L51.2220625,88.5L52.304218750000004,88.5L53.33484375,88.5L54.417,88.5L55.447625,88.5L56.529781250000006,88.5L57.56040625,88.5L58.6425625,88.5L59.6731875,88.5L60.7038125,88.5L61.78596875,88.5L62.816593749999996,88.5L63.89875,88.5L64.92937500000001,88.5L66.01153124999999,88.5L67.04215624999999,88.5L68.1243125,88.5L69.1549375,88.5L70.23709375,88.5L71.26771875,88.5L72.349875,88.5L73.3805,88.5L74.46265625,88.5L75.49328125,88.5L76.5754375,88.5L77.60606250000001,88.5L78.68821875,88.5L79.71884375,88.5L80.801,88.5L81.831625,88.5L82.91378125,88.5L83.94440625,88.5L85.0265625,88.5L86.05718750000001,88.5L87.08781250000001,88.5L88.16996875,88.5L89.20059375,88.5L90.28275,88.5L91.313375,88.5L92.39553124999999,88.5L93.42615624999999,88.5L94.5083125,88.5L95.5389375,88.5L96.62109375,88.5L97.65171875,88.5L98.733875,88.5L99.7645,88.5L100.84665625000001,88.5L101.87728125,88.5L102.9594375,88.5L103.99006250000001,88.5L105.07221875,88.5L106.10284375,88.5L107.18499999999999,88.5L108.215625,88.5L109.29778125,88.5L110.32840625,88.5L111.4105625,88.5L112.4411875,88.5L113.4718125,88.5L114.55396875,88.5L115.58459375,88.5L116.66675,88.5L117.697375,88.5L118.77953125,88.5L119.81015625,88.5L120.8923125,88.5L121.9229375,88.5L123.00509375,88.5L124.03571875,88.5L125.117875,88.5L126.1485,88.5L127.23065625000001,88.5L128.26128125,88.5L129.3434375,88.5L130.3740625,88.5L131.45621875,88.5L132.48684375,88.5L133.569,88.5L134.599625,88.5L135.68178125,88.5L136.71240625,88.5L137.7945625,88.5L138.8251875,88.5L139.85581249999998,88.5L140.93796875,88.5L141.96859375000003,88.5L143.05075,88.5L144.081375,88.5L145.16353125,88.5L146.19415625,88.5L147.2763125,88.5L148.3069375,88.5L149.38909375,88.5L150.41971875,88.5L151.50187499999998,88.5L152.5325,88.5L153.61465625,88.5L154.64528124999998,88.5L155.7274375,88.5L156.75806250000002,88.5L157.84021875000002,88.5L158.87084375,88.5L159.953,88.5L160.98362500000002,88.5L162.06578125000001,88.5L163.09640625,88.5L164.1785625,88.5L165.20918749999998,88.5L166.2398125,88.5L167.32196875,88.5L168.35259374999998,88.5L169.43474999999998,88.5L170.465375,88.5L171.54753125,88.5L172.57815624999998,88.5L173.6603125,88.5L174.69093750000002,88.5L175.77309375000002,88.5L176.80371875,88.5L177.885875,88.5L178.9165,88.5L179.99865625,88.5L181.02928125,88.5L182.1114375,88.5L183.1420625,88.5L184.22421875,88.5L185.25484375,88.5L186.337,88.5L187.36762499999998,88.5L188.44978125,88.5L189.48040625000002,88.5L190.5625625,88.5L191.5931875,88.5L192.6238125,88.5L193.70596875,88.5L194.73659375,88.5L195.81875,88.5L196.849375,88.5L197.93153125,88.5L198.96215625,88.5L200.0443125,88.5L201.0749375,88.5L202.15709375,88.5L203.18771875,88.5L204.26987499999998,88.5L205.3005,88.5L206.38265625000003,88.5L207.41328125,88.5L208.4954375,88.5L209.5260625,88.5L210.60821875,88.5L211.63884375,88.5L212.721,88.5L213.751625,88.5L214.83378125,88.5L215.86440625,88.5L216.9465625,88.5L217.97718749999999,88.5L219.0078125,88.5L220.08996875,88.5L221.12059374999998,88.5L222.20275,88.5L223.233375,88.5L224.31553125000002,88.5L225.34615625,88.5" style="fill: none;" fill="none"></path></g></g></g></g><g opacity="0.2"><g><g><g><path stroke="rgb(255, 112, 67)" stroke-width="2px" d="M33.289187500000004,88.5L34.319812500000005,88.5L35.40196875,88.5L36.43259375,88.5L37.51475,88.5L38.545375,88.5L39.62753125,88.5L40.65815625,88.5L41.7403125,88.5L42.7709375,88.5L43.85309375,88.5L44.88371875,88.5L45.965875000000004,88.5L46.996500000000005,88.5L48.078656249999995,88.5L49.109281249999995,88.5L50.1914375,88.5L51.2220625,88.5L52.304218750000004,88.5L53.33484375,88.5L54.417,88.5L55.447625,88.5L56.529781250000006,88.5L57.56040625,88.5L58.6425625,88.5L59.6731875,88.5L60.7038125,88.5L61.78596875,88.5L62.816593749999996,88.5L63.89875,88.5L64.92937500000001,88.5L66.01153124999999,88.5L67.04215624999999,88.5L68.1243125,88.5L69.1549375,88.5L70.23709375,88.5L71.26771875,88.5L72.349875,88.5L73.3805,88.5L74.46265625,88.5L75.49328125,88.5L76.5754375,88.5L77.60606250000001,88.5L78.68821875,88.5L79.71884375,88.5L80.801,88.5L81.831625,88.5L82.91378125,88.5L83.94440625,88.5L85.0265625,88.5L86.05718750000001,88.5L87.08781250000001,88.5L88.16996875,88.5L89.20059375,88.5L90.28275,88.5L91.313375,88.5L92.39553124999999,88.5L93.42615624999999,88.5L94.5083125,88.5L95.5389375,88.5L96.62109375,88.5L97.65171875,88.5L98.733875,88.5L99.7645,88.5L100.84665625000001,88.5L101.87728125,88.5L102.9594375,88.5L103.99006250000001,88.5L105.07221875,88.5L106.10284375,88.5L107.18499999999999,88.5L108.215625,88.5L109.29778125,88.5L110.32840625,88.5L111.4105625,88.5L112.4411875,88.5L113.4718125,88.5L114.55396875,88.5L115.58459375,88.5L116.66675,88.5L117.697375,88.5L118.77953125,88.5L119.81015625,88.5L120.8923125,88.5L121.9229375,88.5L123.00509375,88.5L124.03571875,88.5L125.117875,88.5L126.1485,88.5L127.23065625000001,88.5L128.26128125,88.5L129.3434375,88.5L130.3740625,88.5L131.45621875,88.5L132.48684375,88.5L133.569,88.5L134.599625,88.5L135.68178125,88.5L136.71240625,88.5L137.7945625,88.5L138.8251875,88.5L139.85581249999998,88.5L140.93796875,88.5L141.96859375000003,88.5L143.05075,88.5L144.081375,88.5L145.16353125,88.5L146.19415625,88.5L147.2763125,88.5L148.3069375,88.5L149.38909375,88.5L150.41971875,88.5L151.50187499999998,88.5L152.5325,88.5L153.61465625,88.5L154.64528124999998,88.5L155.7274375,88.5L156.75806250000002,88.5L157.84021875000002,88.5L158.87084375,88.5L159.953,88.5L160.98362500000002,88.5L162.06578125000001,88.5L163.09640625,88.5L164.1785625,88.5L165.20918749999998,88.5L166.2398125,88.5L167.32196875,88.5L168.35259374999998,88.5L169.43474999999998,88.5L170.465375,88.5L171.54753125,88.5L172.57815624999998,88.5L173.6603125,88.5L174.69093750000002,88.5L175.77309375000002,88.5L176.80371875,88.5L177.885875,88.5L178.9165,88.5L179.99865625,88.5L181.02928125,88.5L182.1114375,88.5L183.1420625,88.5L184.22421875,88.5L185.25484375,88.5L186.337,88.5L187.36762499999998,88.5L188.44978125,88.5L189.48040625000002,88.5L190.5625625,88.5L191.5931875,88.5L192.6238125,88.5L193.70596875,88.5L194.73659375,88.5L195.81875,88.5L196.849375,88.5L197.93153125,88.5L198.96215625,88.5L200.0443125,88.5L201.0749375,88.5L202.15709375,88.5L203.18771875,88.5L204.26987499999998,88.5L205.3005,88.5L206.38265625000003,88.5L207.41328125,88.5L208.4954375,88.5L209.5260625,88.5L210.60821875,88.5L211.63884375,88.5L212.721,88.5L213.751625,88.5L214.83378125,88.5L215.86440625,88.5L216.9465625,88.5L217.97718749999999,88.5L219.0078125,88.5L220.08996875,88.5L221.12059374999998,88.5L222.20275,88.5L223.233375,88.5L224.31553125000002,88.5L225.34615625,88.5" style="fill: none;" fill="none"></path></g></g></g></g></g></g><g transform="translate(72, 177)" clip-path="url(#clip_1)"><clipPath id="clip_1"><rect width="257" height="23"></rect></clipPath><g><g><line x1="0" y1="0" x2="0" y2="5" style="visibility: inherit;" fill="rgb(0, 0, 0)" stroke="rgb(204, 204, 204)" stroke-width="1px"></line><line x1="32.20703125" y1="0" x2="32.20703125" y2="5" style="visibility: inherit;" fill="rgb(0, 0, 0)" stroke="rgb(204, 204, 204)" stroke-width="1px"></line><line x1="64.4140625" y1="0" x2="64.4140625" y2="5" style="visibility: inherit;" fill="rgb(0, 0, 0)" stroke="rgb(204, 204, 204)" stroke-width="1px"></line><line x1="96.62109375" y1="0" x2="96.62109375" y2="5" style="visibility: inherit;" fill="rgb(0, 0, 0)" stroke="rgb(204, 204, 204)" stroke-width="1px"></line><line x1="128.828125" y1="0" x2="128.828125" y2="5" style="visibility: inherit;" fill="rgb(0, 0, 0)" stroke="rgb(204, 204, 204)" stroke-width="1px"></line><line x1="161.03515625" y1="0" x2="161.03515625" y2="5" style="visibility: inherit;" fill="rgb(0, 0, 0)" stroke="rgb(204, 204, 204)" stroke-width="1px"></line><line x1="193.2421875" y1="0" x2="193.2421875" y2="5" style="visibility: inherit;" fill="rgb(0, 0, 0)" stroke="rgb(204, 204, 204)" stroke-width="1px"></line><line x1="225.44921875" y1="0" x2="225.44921875" y2="5" style="visibility: inherit;" fill="rgb(0, 0, 0)" stroke="rgb(204, 204, 204)" stroke-width="1px"></line><line x1="257.65625" y1="0" x2="257.65625" y2="5" style="visibility: inherit;" fill="rgb(0, 0, 0)" stroke="rgb(204, 204, 204)" stroke-width="1px"></line></g><g transform="translate(0, 8)"><text x="0" y="0" dx="0em" dy="0.95em" style="text-anchor: middle; visibility: hidden; font-family: Roboto, sans-serif; font-size: 12px; font-weight: 200;" fill="rgb(33, 33, 33)" stroke="none" stroke-width="1px">-500k</text><text x="32.20703125" y="0" dx="0em" dy="0.95em" style="text-anchor: middle; visibility: inherit; font-family: Roboto, sans-serif; font-size: 12px; font-weight: 200;" fill="rgb(33, 33, 33)" stroke="none" stroke-width="1px">0</text><text x="64.4140625" y="0" dx="0em" dy="0.95em" style="text-anchor: middle; visibility: inherit; font-family: Roboto, sans-serif; font-size: 12px; font-weight: 200;" fill="rgb(33, 33, 33)" stroke="none" stroke-width="1px">500k</text><text x="96.62109375" y="0" dx="0em" dy="0.95em" style="text-anchor: middle; visibility: inherit; font-family: Roboto, sans-serif; font-size: 12px; font-weight: 200;" fill="rgb(33, 33, 33)" stroke="none" stroke-width="1px">1M</text><text x="128.828125" y="0" dx="0em" dy="0.95em" style="text-anchor: middle; visibility: inherit; font-family: Roboto, sans-serif; font-size: 12px; font-weight: 200;" fill="rgb(33, 33, 33)" stroke="none" stroke-width="1px">1.5M</text><text x="161.03515625" y="0" dx="0em" dy="0.95em" style="text-anchor: middle; visibility: inherit; font-family: Roboto, sans-serif; font-size: 12px; font-weight: 200;" fill="rgb(33, 33, 33)" stroke="none" stroke-width="1px">2M</text><text x="193.2421875" y="0" dx="0em" dy="0.95em" style="text-anchor: middle; visibility: inherit; font-family: Roboto, sans-serif; font-size: 12px; font-weight: 200;" fill="rgb(33, 33, 33)" stroke="none" stroke-width="1px">2.5M</text><text x="225.44921875" y="0" dx="0em" dy="0.95em" style="text-anchor: middle; visibility: inherit; font-family: Roboto, sans-serif; font-size: 12px; font-weight: 200;" fill="rgb(33, 33, 33)" stroke="none" stroke-width="1px">3M</text><text x="257.65625" y="0" dx="0em" dy="0.95em" style="text-anchor: middle; visibility: hidden; font-family: Roboto, sans-serif; font-size: 12px; font-weight: 200;" fill="rgb(33, 33, 33)" stroke="none" stroke-width="1px">3.5M</text></g><line x1="0" y1="0" x2="257.65625" y2="0" fill="rgb(0, 0, 0)" stroke="rgb(204, 204, 204)" stroke-width="1px"></line></g></g></g></g></svg>