<svg viewBox="0 0 330 200" xmlns="http://www.w3.org/2000/svg"><g><g><g><g><g><line x1="72.34375" y1="177" x2="67.34375" y2="177" style="visibility: inherit;" fill="rgb(0, 0, 0)" stroke="rgb(204, 204, 204)" stroke-width="1px"></line><line x1="72.34375" y1="160.90909090909093" x2="67.34375" y2="160.90909090909093" style="visibility: inherit;" fill="rgb(0, 0, 0)" stroke="rgb(204, 204, 204)" stroke-width="1px"></line><line x1="72.34375" y1="144.8181818181818" x2="67.34375" y2="144.8181818181818" style="visibility: inherit;" fill="rgb(0, 0, 0)" stroke="rgb(204, 204, 204)" stroke-width="1px"></line><line x1="72.34375" y1="128.72727272727272" x2="67.34375" y2="128.72727272727272" style="visibility: inherit;" fill="rgb(0, 0, 0)" stroke="rgb(204, 204, 204)" stroke-width="1px"></line><line x1="72.34375" y1="112.63636363636365" x2="67.34375" y2="112.63636363636365" style="visibility: inherit;" fill="rgb(0, 0, 0)" stroke="rgb(204, 204, 204)" stroke-width="1px"></line><line x1="72.34375" y1="96.54545454545453" x2="67.34375" y2="96.54545454545453" style="visibility: inherit;" fill="rgb(0, 0, 0)" stroke="rgb(204, 204, 204)" stroke-width="1px"></line><line x1="72.34375" y1="80.45454545454547" x2="67.34375" y2="80.45454545454547" style="visibility: inherit;" fill="rgb(0, 0, 0)" stroke="rgb(204, 204, 204)" stroke-width="1px"></line><line x1="72.34375" y1="64.36363636363635" x2="67.34375" y2="64.36363636363635" style="visibility: inherit;" fill="rgb(0, 0, 0)" stroke="rgb(204, 204, 204)" stroke-width="1px"></line><line x1="72.34375" y1="48.272727272727266" x2="67.34375" y2="48.272727272727266" style="visibility: inherit;" fill="rgb(0, 0, 0)" stroke="rgb(204, 204, 204)" stroke-width="1px"></line><line x1="72.34375" y1="32.181818181818194" x2="67.34375" y2="32.181818181818194" style="visibility: inherit;" fill="rgb(0, 0, 0)" stroke="rgb(204, 204, 204)" stroke-width="1px"></line><line x1="72.34375" y1="16.090909090909076" x2="67.34375" y2="16.090909090909076" style="visibility: inherit;" fill="rgb(0, 0, 0)" stroke="rgb(204, 204, 204)" stroke-width="1px"></line><line x1="72.34375" y1="0" x2="67.34375" y2="0" style="visibility: inherit;" fill="rgb(0, 0, 0)" stroke="rgb(204, 204, 204)" stroke-width="1px"></line></g><g transform="translate(62.34375, 0)"><text x="0" y="177" dx="0em" dy="0.3em" style="text-anchor: end; visibility: hidden; font-family: Roboto, sans-serif; font-size: 12px; font-weight: 200;" fill="rgb(33, 33, 33)" stroke="none" stroke-width="1px">-0.055</text><text x="0" y="160.90909090909093" dx="0em" dy="0.3em" style="text-anchor: end; visibility: inherit; font-family: Roboto, sans-serif; font-size: 12px; font-weight: 200;" fill="rgb(33, 33, 33)" stroke="none" stroke-width="1px">-0.05</text><text x="0" y="144.8181818181818" dx="0em" dy="0.3em" style="text-anchor: end; visibility: hidden; font-family: Roboto, sans-serif; font-size: 12px; font-weight: 200;" fill="rgb(33, 33, 33)" stroke="none" stroke-width="1px">-0.045</text><text x="0" y="128.72727272727272" dx="0em" dy="0.3em" style="text-anchor: end; visibility: inherit; font-family: Roboto, sans-serif; font-size: 12px; font-weight: 200;" fill="rgb(33, 33, 33)" stroke="none" stroke-width="1px">-0.04</text><text x="0" y="112.63636363636365" dx="0em" dy="0.3em" style="text-anchor: end; visibility: hidden; font-family: Roboto, sans-serif; font-size: 12px; font-weight: 200;" fill="rgb(33, 33, 33)" stroke="none" stroke-width="1px">-0.035</text><text x="0" y="96.54545454545453" dx="0em" dy="0.3em" style="text-anchor: end; visibility: inherit; font-family: Roboto, sans-serif; font-size: 12px; font-weight: 200;" fill="rgb(33, 33, 33)" stroke="none" stroke-width="1px">-0.03</text><text x="0" y="80.45454545454547" dx="0em" dy="0.3em" style="text-anchor: end; visibility: hidden; font-family: Roboto, sans-serif; font-size: 12px; font-weight: 200;" fill="rgb(33, 33, 33)" stroke="none" stroke-width="1px">-0.025</text><text x="0" y="64.36363636363635" dx="0em" dy="0.3em" style="text-anchor: end; visibility: inherit; font-family: Roboto, sans-serif; font-size: 12px; font-weight: 200;" fill="rgb(33, 33, 33)" stroke="none" stroke-width="1px">-0.02</text><text x="0" y="48.272727272727266" dx="0em" dy="0.3em" style="text-anchor: end; visibility: hidden; font-family: Roboto, sans-serif; font-size: 12px; font-weight: 200;" fill="rgb(33, 33, 33)" stroke="none" stroke-width="1px">-0.015</text><text x="0" y="32.181818181818194" dx="0em" dy="0.3em" style="text-anchor: end; visibility: inherit; font-family: Roboto, sans-serif; font-size: 12px; font-weight: 200;" fill="rgb(33, 33, 33)" stroke="none" stroke-width="1px">-0.01</text><text x="0" y="16.090909090909076" dx="0em" dy="0.3em" style="text-anchor: end; visibility: hidden; font-family: Roboto, sans-serif; font-size: 12px; font-weight: 200;" fill="rgb(33, 33, 33)" stroke="none" stroke-width="1px">-5e-3</text><text x="0" y="0" dx="0em" dy="0.3em" style="text-anchor: end; visibility: hidden; font-family: Roboto, sans-serif; font-size: 12px; font-weight: 200;" fill="rgb(33, 33, 33)" stroke="none" stroke-width="1px">0</text></g><line x1="72.34375" y1="0" x2="72.34375" y2="177" fill="rgb(0, 0, 0)" stroke="rgb(204, 204, 204)" stroke-width="1px"></line></g></g><g transform="translate(72, 0)" clip-path="url(#clip_0)"><clipPath id="clip_0"><rect width="257" height="177"></rect></clipPath><g><g><g><line x1="0" y1="0" x2="0" y2="177" fill="rgb(0, 0, 0)" stroke="rgb(66, 66, 66)" stroke-width="1px" opacity="0.25"></line><line x1="32.20703125" y1="0" x2="32.20703125" y2="177" fill="rgb(0, 0, 0)" stroke="rgb(66, 66, 66)" stroke-width="1px" opacity="0.25"></line><line x1="64.4140625" y1="0" x2="64.4140625" y2="177" fill="rgb(0, 0, 0)" stroke="rgb(66, 66, 66)" stroke-width="1px" opacity="0.25"></line><line x1="96.62109375" y1="0" x2="96.62109375" y2="177" fill="rgb(0, 0, 0)" stroke="rgb(66, 66, 66)" stroke-width="1px" opacity="0.25"></line><line x1="128.828125" y1="0" x2="128.828125" y2="177" fill="rgb(0, 0, 0)" stroke="rgb(66, 66, 66)" stroke-width="1px" opacity="0.25"></line><line x1="161.03515625" y1="0" x2="161.03515625" y2="177" fill="rgb(0, 0, 0)" stroke="rgb(66, 66, 66)" stroke-width="1px" opacity="0.25"></line><line x1="193.2421875" y1="0" x2="193.2421875" y2="177" fill="rgb(0, 0, 0)" stroke="rgb(66, 66, 66)" stroke-width="1px" opacity="0.25"></line><line x1="225.44921875" y1="0" x2="225.44921875" y2="177" fill="rgb(0, 0, 0)" stroke="rgb(66, 66, 66)" stroke-width="1px" opacity="0.25"></line><line x1="257.65625" y1="0" x2="257.65625" y2="177" fill="rgb(0, 0, 0)" stroke="rgb(66, 66, 66)" stroke-width="1px" opacity="0.25"></line></g><g><line x1="0" y1="177" x2="257.65625" y2="177" fill="rgb(0, 0, 0)" stroke="rgb(66, 66, 66)" stroke-width="1px" opacity="0.25"></line><line x1="0" y1="160.90909090909093" x2="257.65625" y2="160.90909090909093" fill="rgb(0, 0, 0)" stroke="rgb(66, 66, 66)" stroke-width="1px" opacity="0.25"></line><line x1="0" y1="144.8181818181818" x2="257.65625" y2="144.8181818181818" fill="rgb(0, 0, 0)" stroke="rgb(66, 66, 66)" stroke-width="1px" opacity="0.25"></line><line x1="0" y1="128.72727272727272" x2="257.65625" y2="128.72727272727272" fill="rgb(0, 0, 0)" stroke="rgb(66, 66, 66)" stroke-width="1px" opacity="0.25"></line><line x1="0" y1="112.63636363636365" x2="257.65625" y2="112.63636363636365" fill="rgb(0, 0, 0)" stroke="rgb(66, 66, 66)" stroke-width="1px" opacity="0.25"></line><line x1="0" y1="96.54545454545453" x2="257.65625" y2="96.54545454545453" fill="rgb(0, 0, 0)" stroke="rgb(66, 66, 66)" stroke-width="1px" opacity="0.25"></line><line x1="0" y1="80.45454545454547" x2="257.65625" y2="80.45454545454547" fill="rgb(0, 0, 0)" stroke="rgb(66, 66, 66)" stroke-width="1px" opacity="0.25"></line><line x1="0" y1="64.36363636363635" x2="257.65625" y2="64.36363636363635" fill="rgb(0, 0, 0)" stroke="rgb(66, 66, 66)" stroke-width="1px" opacity="0.25"></line><line x1="0" y1="48.272727272727266" x2="257.65625" y2="48.272727272727266" fill="rgb(0, 0, 0)" stroke="rgb(66, 66, 66)" stroke-width="1px" opacity="0.25"></line><line x1="0" y1="32.181818181818194" x2="257.65625" y2="32.181818181818194" fill="rgb(0, 0, 0)" stroke="rgb(66, 66, 66)" stroke-width="1px" opacity="0.25"></line><line x1="0" y1="16.090909090909076" x2="257.65625" y2="16.090909090909076" fill="rgb(0, 0, 0)" stroke="rgb(66, 66, 66)" stroke-width="1px" opacity="0.25"></line><line x1="0" y1="0" x2="257.65625" y2="0" fill="rgb(0, 0, 0)" stroke="rgb(66, 66, 66)" stroke-width="1px" opacity="0.25"></line></g></g></g><g><g><line x1="0" y1="0" x2="257.65625" y2="0" fill="rgb(0, 0, 0)" stroke="rgb(153, 153, 153)" stroke-width="1.5px"></line></g></g><g><g><line x1="32.20703125" y1="0" x2="32.20703125" y2="177" fill="rgb(0, 0, 0)" stroke="rgb(153, 153, 153)" stroke-width="1.5px"></line></g></g><g><g><g><g><g><path stroke="rgb(255, 112, 67)" stroke-width="2px" d="M33.289187500000004,72.7314209396189L34.319812500000005,115.6580552760831L35.40196875,126.24630259985615L36.43259375,124.03534891382239L37.51475,125.2108907119873L38.545375,124.01777074095668L39.62753125,119.67218986405479L40.65815625,119.22446362632766L41.7403125,117.66686056230316L42.7709375,117.46821318523902L43.85309375,115.17633367071137L44.88371875,109.50446354978357L45.965875000000004,107.87252437908467L46.996500000000005,106.15186776113286L48.078656249999995,107.85511247222615L49.109281249999995,107.11101599100579L50.1914375,105.00814066929308L51.2220625,100.13863614135796L52.304218750000004,100.9932020298303L53.33484375,95.81327504165615L54.417,96.4828452654611L55.447625,93.42541231972451L56.529781250000006,92.07735192611673L57.56040625,91.15256443878482L58.6425625,92.25238862070383L59.6731875,92.90829124423746L60.7038125,86.4441648269457L61.78596875,75.500952454464L62.816593749999996,82.05899014673817L63.89875,84.53927285632611L64.92937500000001,76.52730693897728L66.01153124999999,78.81642039781953L67.04215624999999,67.65415542442769L68.1243125,70.96366850187613L69.1549375,79.44130839117952L70.23709375,80.95999208091261L71.26771875,76.67349635653129L72.349875,70.59786015281404L73.3805,78.01854239127157L74.46265625,50.90376581196748L75.49328125,68.85639540069329L76.5754375,83.53730019574769L77.60606250000001,87.45350041373464L78.68821875,65.44738955110968L79.71884375,61.23988333487223L80.801,76.20992593260578L81.831625,58.916374506779746L82.91378125,93.74828631249532L83.94440625,96.07068602355646L85.0265625,87.78521434433848L86.05718750000001,83.55568054228074L87.08781250000001,101.5391021990143L88.16996875,111.7235646910207L89.20059375,130.51266862112715L90.28275,138.80545584480575L91.313375,156.94984434515573L92.39553124999999,137.07217444772692L93.42615624999999,148.1040255983379L94.5083125,141.89141539816927L95.5389375,158.93914175055255L96.62109375,152.07787640348621L97.65171875,172.67176287144343L98.733875,170.19502001316792L99.7645,182.76968721467983L100.84665625000001,119.79265255989131L101.87728125,125.81459249219819L102.9594375,140.4251059041853L103.99006250000001,173.0820127518618L105.07221875,56.363184275116424L106.10284375,76.86678743183504L107.18499999999999,127.49276341447805L108.215625,-46.872861650438864L109.29778125,28.62722195151119L110.32840625,81.27151741267173L111.4105625,-41.10141040778107L112.4411875,68.40169553388783L113.4718125,90.01279738288419L114.55396875,110.49925901749977L115.58459375,135.75308222762735L116.66675,148.8058099639761L117.697375,123.22625538040887L118.77953125,119.88979731649123L119.81015625,117.01854726793269L120.8923125,101.11816653656858L121.9229375,102.63229258271387L123.00509375,69.21795981846053L124.03571875,72.64047867143816L125.117875,74.03105516960964L126.1485,110.97131283731619L127.23065625000001,88.70478961984962L128.26128125,87.69586613597664L129.3434375,96.87922865370503L130.3740625,75.31981201545801L131.45621875,92.96813912366974L132.48684375,-42.38407300450144L133.569,2.059044310867357L134.599625,73.75016393426537L135.68178125,89.77982839915585L136.71240625,107.7260655232003L137.7945625,107.27541688438858L138.8251875,135.91226063046088L139.85581249999998,99.36785094447112L140.93796875,146.8392392273337L141.96859375000003,162.6613165375358L143.05075,159.10890303841109L144.081375,138.49594725074684L145.16353125,143.89838891204758L146.19415625,94.5590601247517L147.2763125,167.4595383821174L148.3069375,171.66631994742892L149.38909375,156.6512885410549L150.41971875,118.33408750391644L151.50187499999998,86.04682989516886L152.5325,79.73888000539957L153.61465625,105.36404572777668L154.64528124999998,87.62643712253673L155.7274375,75.96361107136039L156.75806250000002,64.92000772686941L157.84021875000002,48.087259043094505L158.87084375,36.45712146240114L159.953,63.79734231166972L160.98362500000002,45.70400987219739L162.06578125000001,33.5185899300046L163.09640625,26.3786634240046L164.1785625,20.910301546613223L165.20918749999998,16.5229492970054L166.2398125,13.978131754890954L167.32196875,15.130017943864157L168.35259374999998,18.37788970908227L169.43474999999998,15.868495896843674L170.465375,12.038278938335981L171.54753125,14.56410098460213L172.57815624999998,11.620488313522422L173.6603125,11.10731219081258L174.69093750000002,12.071746990141346L175.77309375000002,15.289938829395135L176.80371875,12.177499924717416L177.885875,11.726915718221495L178.9165,12.799905712561845L179.99865625,15.482705655108164L181.02928125,11.716803720456673L182.1114375,9.83308221580558L183.1420625,10.948115228487701L184.22421875,15.404247503874437L185.25484375,16.646087546356508L186.337,11.523231158485858L187.36762499999998,8.45050057641413L188.44978125,5.6186495555855585L189.48040625000002,15.587293233415167L190.5625625,15.61676016326035L191.5931875,23.430502340924793L192.6238125,29.968190059987172L193.70596875,20.205587477133808L194.73659375,17.613671491289026L195.81875,13.892714504317254L196.849375,3.8677919220434225L197.93153125,5.856475622265032L198.96215625,6.139452509613986L200.0443125,14.230298255258878L201.0749375,12.409032615671686L202.15709375,9.109724585684022L203.18771875,6.734062822360159L204.26987499999998,7.8650618209700305L205.3005,13.51868159505287L206.38265625000003,16.567856260111853L207.41328125,21.627450133802615L208.4954375,17.4188951089317L209.5260625,25.597466081502866L210.60821875,28.63447648047946L211.63884375,21.35516284930107L212.721,21.39139952045228L213.751625,21.516041626446786L214.83378125,11.819522347636394L215.86440625,20.19362964656399L216.9465625,22.705821465518873L217.97718749999999,16.41377945833367L219.0078125,12.68800345921992L220.08996875,13.17059823438937L221.12059374999998,19.21393826890823L222.20275,19.125156477304333L223.233375,19.428774481655804L224.31553125000002,19.424548042495097L225.34615625,11.67415337353955" style="fill: none;" fill="none"></path></g></g></g></g><g opacity="0.2"><g><g><g><path stroke="rgb(255, 112, 67)" stroke-width="2px" d="M33.289187500000004,72.7314209396189L34.319812500000005,141.45696251229808L35.40196875,136.43432476303795L36.43259375,121.4280092580752L37.51475,126.75055536356838L38.545375,122.36153036355972L39.62753125,113.43504874543711L40.65815625,118.56916905804113L41.7403125,115.36063159053975L42.7709375,117.17205840078266L43.85309375,111.74537878144871L44.88371875,100.99268833344632L45.965875000000004,105.41984926570545L46.996500000000005,103.56356088410725L48.078656249999995,110.41859361258419L49.109281249999995,105.99074932661922L50.1914375,101.84156948869878L51.2220625,92.80514585023576L52.304218750000004,102.28027057918635L53.33484375,88.01141960377042L54.417,97.49135778031565L55.447625,88.82021067494696L56.529781250000006,90.04684256559068L57.56040625,89.75960023023866L58.6425625,93.90900785272771L59.6731875,93.89625191688538L60.7038125,76.70749049972405L61.78596875,59.01758504862134L62.816593749999996,91.93713079121979L63.89875,88.2752360945398L64.92937500000001,64.45916057987645L66.01153124999999,82.26443292065099L67.04215624999999,50.840820372104645L68.1243125,75.9486741640351L69.1549375,92.21088588237762L70.23709375,83.24753313579343L71.26771875,70.21689509803598L72.349875,61.446338011459865L73.3805,89.19606120748952L74.46265625,10.061708956279535L75.49328125,95.89782489294356L76.5754375,105.65064298835667L77.60606250000001,93.3523383330215L78.68821875,32.30034036731179L79.71884375,54.90226119079374L80.801,98.75878708606416L81.831625,32.86769178441979L82.91378125,146.21439908038485L83.94440625,99.56883696669883L85.0265625,75.30509284274146L86.05718750000001,77.18487900089134L87.08781250000001,128.6269127645276L88.16996875,127.06407085061073L89.20059375,158.81405073133382L90.28275,151.2965965000066L91.313375,184.28011374040082L92.39553124999999,107.13112279772758L93.42615624999999,164.72092419862747L94.5083125,132.53357396884397L95.5389375,184.61754660714755L96.62109375,141.74298799850723L97.65171875,203.69162694974378L98.733875,166.4643872867931L99.7645,201.71047665856102L100.84665625000001,24.93250762874429L101.87728125,134.88523384386843L102.9594375,162.4324205924164L103.99006250000001,222.2719902342016L105.07221875,-119.44637942043217L106.10284375,107.75066085837103L107.18499999999999,203.7489327517423L108.215625,-309.5138156955892L109.29778125,142.35040552236816L110.32840625,160.56781207973307L111.4105625,-225.42754980650813L112.4411875,233.34246413274244L113.4718125,122.56485806270078L114.55396875,141.35731275786054L115.58459375,173.7920490178195L116.66675,168.46668557687238L117.697375,84.69665060666475L118.77953125,114.864205094901L119.81015625,112.69368190657009L120.8923125,77.16796899383719L121.9229375,104.91296865723349L123.00509375,18.887097684835837L124.03571875,77.79570130461995L125.117875,76.1256328021938L126.1485,166.61315458742055L127.23065625000001,55.16549023714933L128.26128125,86.17615933445367L129.3434375,110.71181229569696L130.3740625,42.84560299393806L131.45621875,119.55120827664028L132.48684375,-246.26046270132065L133.569,69.00218593125994L134.599625,181.73603584820574L135.68178125,113.92476159063251L136.71240625,134.7578663040291L137.7945625,106.59662031314589L138.8251875,179.04695509509608L139.85581249999998,44.32226141745393L140.93796875,218.34376142783597L141.96859375000003,186.4935683255846L143.05075,153.7580245597796L144.081375,107.44735971093178L145.16353125,152.03590128909457L146.19415625,20.240923279727056L147.2763125,277.2670256820592L148.3069375,178.00285057588056L149.38909375,134.03466228734362L150.41971875,60.61820323494348L151.50187499999998,37.41364236921072L152.5325,70.2374316751957L153.61465625,143.96235299381343L154.64528124999998,60.908886316147715L155.7274375,58.39629664339803L156.75806250000002,48.285407200455666L157.84021875000002,22.73266766728326L158.87084375,18.939044555141173L159.953,104.97897822748531L160.98362500000002,18.450644468380652L162.06578125000001,15.164110267704174L163.09640625,15.624037283388045L164.1785625,12.67349581149492L165.20918749999998,9.914431246844199L166.2398125,10.144960469650957L167.32196875,16.865064559335067L168.35259374999998,23.270047430626374L169.43474999999998,12.088682159612134L170.465375,6.268954647450966L171.54753125,18.368660006672144L172.57815624999998,7.1866256184875965L173.6603125,10.334332617507732L174.69093750000002,13.524442013691774L175.77309375000002,20.137390697544262L176.80371875,7.489340070804403L177.885875,11.048216199163685L178.9165,14.416113699024365L179.99865625,19.523715092377223L181.02928125,6.044354941695929L182.1114375,6.9956971925090645L183.1420625,12.627651169896126L184.22421875,22.1163665452464L185.25484375,18.516628562726755L186.337,3.8068484790115122L187.36762499999998,3.822152005423871L188.44978125,1.3531295968939332L189.48040625000002,30.602718923579566L190.5625625,15.661145187914371L191.5931875,35.20007389174267L192.6238125,39.81568459421396L193.70596875,5.500514413738108L194.73659375,13.709557437422607L195.81875,8.287964757023895L196.849375,-11.232404749501853L197.93153125,8.85196159678426L198.96215625,6.565690878778696L200.0443125,26.417261395942084L201.0749375,9.665722717446354L202.15709375,4.140090184624901L203.18771875,3.155685078606683L204.26987499999998,9.568646778775895L205.3005,22.034534938972108L206.38265625000003,21.160723362118006L207.41328125,29.248542660339318L208.4954375,11.079693179238925L209.5260625,37.91656671938571L210.60821875,33.20902096615597L211.63884375,10.390582668002358L212.721,21.445981573990803L213.751625,21.703785751014948L214.83378125,-2.786011703905075L215.86440625,32.807259938933626L216.9465625,26.489849744195297L217.97718749999999,6.936292625455701L219.0078125,7.075994999401945L220.08996875,13.897514173930333L221.12059374999998,28.31681385974992L222.20275,18.99142751300876L223.233375,19.886103856631298L224.31553125000002,19.41818190230564L225.34615625,0" style="fill: none;" fill="none"></path></g></g></g></g></g></g><g transform="translate(72, 177)" clip-path="url(#clip_1)"><clipPath id="clip_1"><rect width="257" height="23"></rect></clipPath><g><g><line x1="0" y1="0" x2="0" y2="5" style="visibility: inherit;" fill="rgb(0, 0, 0)" stroke="rgb(204, 204, 204)" stroke-width="1px"></line><line x1="32.20703125" y1="0" x2="32.20703125" y2="5" style="visibility: inherit;" fill="rgb(0, 0, 0)" stroke="rgb(204, 204, 204)" stroke-width="1px"></line><line x1="64.4140625" y1="0" x2="64.4140625" y2="5" style="visibility: inherit;" fill="rgb(0, 0, 0)" stroke="rgb(204, 204, 204)" stroke-width="1px"></line><line x1="96.62109375" y1="0" x2="96.62109375" y2="5" style="visibility: inherit;" fill="rgb(0, 0, 0)" stroke="rgb(204, 204, 204)" stroke-width="1px"></line><line x1="128.828125" y1="0" x2="128.828125" y2="5" style="visibility: inherit;" fill="rgb(0, 0, 0)" stroke="rgb(204, 204, 204)" stroke-width="1px"></line><line x1="161.03515625" y1="0" x2="161.03515625" y2="5" style="visibility: inherit;" fill="rgb(0, 0, 0)" stroke="rgb(204, 204, 204)" stroke-width="1px"></line><line x1="193.2421875" y1="0" x2="193.2421875" y2="5" style="visibility: inherit;" fill="rgb(0, 0, 0)" stroke="rgb(204, 204, 204)" stroke-width="1px"></line><line x1="225.44921875" y1="0" x2="225.44921875" y2="5" style="visibility: inherit;" fill="rgb(0, 0, 0)" stroke="rgb(204, 204, 204)" stroke-width="1px"></line><line x1="257.65625" y1="0" x2="257.65625" y2="5" style="visibility: inherit;" fill="rgb(0, 0, 0)" stroke="rgb(204, 204, 204)" stroke-width="1px"></line></g><g transform="translate(0, 8)"><text x="0" y="0" dx="0em" dy="0.95em" style="text-anchor: middle; visibility: hidden; font-family: Roboto, sans-serif; font-size: 12px; font-weight: 200;" fill="rgb(33, 33, 33)" stroke="none" stroke-width="1px">-500k</text><text x="32.20703125" y="0" dx="0em" dy="0.95em" style="text-anchor: middle; visibility: inherit; font-family: Roboto, sans-serif; font-size: 12px; font-weight: 200;" fill="rgb(33, 33, 33)" stroke="none" stroke-width="1px">0</text><text x="64.4140625" y="0" dx="0em" dy="0.95em" style="text-anchor: middle; visibility: inherit; font-family: Roboto, sans-serif; font-size: 12px; font-weight: 200;" fill="rgb(33, 33, 33)" stroke="none" stroke-width="1px">500k</text><text x="96.62109375" y="0" dx="0em" dy="0.95em" style="text-anchor: middle; visibility: inherit; font-family: Roboto, sans-serif; font-size: 12px; font-weight: 200;" fill="rgb(33, 33, 33)" stroke="none" stroke-width="1px">1M</text><text x="128.828125" y="0" dx="0em" dy="0.95em" style="text-anchor: middle; visibility: inherit; font-family: Roboto, sans-serif; font-size: 12px; font-weight: 200;" fill="rgb(33, 33, 33)" stroke="none" stroke-width="1px">1.5M</text><text x="161.03515625" y="0" dx="0em" dy="0.95em" style="text-anchor: middle; visibility: inherit; font-family: Roboto, sans-serif; font-size: 12px; font-weight: 200;" fill="rgb(33, 33, 33)" stroke="none" stroke-width="1px">2M</text><text x="193.2421875" y="0" dx="0em" dy="0.95em" style="text-anchor: middle; visibility: inherit; font-family: Roboto, sans-serif; font-size: 12px; font-weight: 200;" fill="rgb(33, 33, 33)" stroke="none" stroke-width="1px">2.5M</text><text x="225.44921875" y="0" dx="0em" dy="0.95em" style="text-anchor: middle; visibility: inherit; font-family: Roboto, sans-serif; font-size: 12px; font-weight: 200;" fill="rgb(33, 33, 33)" stroke="none" stroke-width="1px">3M</text><text x="257.65625" y="0" dx="0em" dy="0.95em" style="text-anchor: middle; visibility: hidden; font-family: Roboto, sans-serif; font-size: 12px; font-weight: 200;" fill="rgb(33, 33, 33)" stroke="none" stroke-width="1px">3.5M</text></g><line x1="0" y1="0" x2="257.65625" y2="0" fill="rgb(0, 0, 0)" stroke="rgb(204, 204, 204)" stroke-width="1px"></line></g></g></g></g></svg>