<svg viewBox="0 0 330 200" xmlns="http://www.w3.org/2000/svg"><g><g><g><g><g><line x1="51.5625" y1="177" x2="46.5625" y2="177" style="visibility: inherit;" fill="rgb(0, 0, 0)" stroke="rgb(204, 204, 204)" stroke-width="1px"></line><line x1="51.5625" y1="162.25" x2="46.5625" y2="162.25" style="visibility: inherit;" fill="rgb(0, 0, 0)" stroke="rgb(204, 204, 204)" stroke-width="1px"></line><line x1="51.5625" y1="147.5" x2="46.5625" y2="147.5" style="visibility: inherit;" fill="rgb(0, 0, 0)" stroke="rgb(204, 204, 204)" stroke-width="1px"></line><line x1="51.5625" y1="132.75" x2="46.5625" y2="132.75" style="visibility: inherit;" fill="rgb(0, 0, 0)" stroke="rgb(204, 204, 204)" stroke-width="1px"></line><line x1="51.5625" y1="118.00000000000001" x2="46.5625" y2="118.00000000000001" style="visibility: inherit;" fill="rgb(0, 0, 0)" stroke="rgb(204, 204, 204)" stroke-width="1px"></line><line x1="51.5625" y1="103.24999999999999" x2="46.5625" y2="103.24999999999999" style="visibility: inherit;" fill="rgb(0, 0, 0)" stroke="rgb(204, 204, 204)" stroke-width="1px"></line><line x1="51.5625" y1="88.5" x2="46.5625" y2="88.5" style="visibility: inherit;" fill="rgb(0, 0, 0)" stroke="rgb(204, 204, 204)" stroke-width="1px"></line><line x1="51.5625" y1="73.75" x2="46.5625" y2="73.75" style="visibility: inherit;" fill="rgb(0, 0, 0)" stroke="rgb(204, 204, 204)" stroke-width="1px"></line><line x1="51.5625" y1="59.00000000000001" x2="46.5625" y2="59.00000000000001" style="visibility: inherit;" fill="rgb(0, 0, 0)" stroke="rgb(204, 204, 204)" stroke-width="1px"></line><line x1="51.5625" y1="44.25" x2="46.5625" y2="44.25" style="visibility: inherit;" fill="rgb(0, 0, 0)" stroke="rgb(204, 204, 204)" stroke-width="1px"></line><line x1="51.5625" y1="29.499999999999993" x2="46.5625" y2="29.499999999999993" style="visibility: inherit;" fill="rgb(0, 0, 0)" stroke="rgb(204, 204, 204)" stroke-width="1px"></line><line x1="51.5625" y1="14.750000000000007" x2="46.5625" y2="14.750000000000007" style="visibility: inherit;" fill="rgb(0, 0, 0)" stroke="rgb(204, 204, 204)" stroke-width="1px"></line><line x1="51.5625" y1="0" x2="46.5625" y2="0" style="visibility: inherit;" fill="rgb(0, 0, 0)" stroke="rgb(204, 204, 204)" stroke-width="1px"></line></g><g transform="translate(41.5625, 0)"><text x="0" y="177" dx="0em" dy="0.3em" style="text-anchor: end; visibility: hidden; font-family: Roboto, sans-serif; font-size: 12px; font-weight: 200;" fill="rgb(33, 33, 33)" stroke="none" stroke-width="1px">-6</text><text x="0" y="162.25" dx="0em" dy="0.3em" style="text-anchor: end; visibility: inherit; font-family: Roboto, sans-serif; font-size: 12px; font-weight: 200;" fill="rgb(33, 33, 33)" stroke="none" stroke-width="1px">-5.5</text><text x="0" y="147.5" dx="0em" dy="0.3em" style="text-anchor: end; visibility: hidden; font-family: Roboto, sans-serif; font-size: 12px; font-weight: 200;" fill="rgb(33, 33, 33)" stroke="none" stroke-width="1px">-5</text><text x="0" y="132.75" dx="0em" dy="0.3em" style="text-anchor: end; visibility: inherit; font-family: Roboto, sans-serif; font-size: 12px; font-weight: 200;" fill="rgb(33, 33, 33)" stroke="none" stroke-width="1px">-4.5</text><text x="0" y="118.00000000000001" dx="0em" dy="0.3em" style="text-anchor: end; visibility: hidden; font-family: Roboto, sans-serif; font-size: 12px; font-weight: 200;" fill="rgb(33, 33, 33)" stroke="none" stroke-width="1px">-4</text><text x="0" y="103.24999999999999" dx="0em" dy="0.3em" style="text-anchor: end; visibility: inherit; font-family: Roboto, sans-serif; font-size: 12px; font-weight: 200;" fill="rgb(33, 33, 33)" stroke="none" stroke-width="1px">-3.5</text><text x="0" y="88.5" dx="0em" dy="0.3em" style="text-anchor: end; visibility: hidden; font-family: Roboto, sans-serif; font-size: 12px; font-weight: 200;" fill="rgb(33, 33, 33)" stroke="none" stroke-width="1px">-3</text><text x="0" y="73.75" dx="0em" dy="0.3em" style="text-anchor: end; visibility: inherit; font-family: Roboto, sans-serif; font-size: 12px; font-weight: 200;" fill="rgb(33, 33, 33)" stroke="none" stroke-width="1px">-2.5</text><text x="0" y="59.00000000000001" dx="0em" dy="0.3em" style="text-anchor: end; visibility: hidden; font-family: Roboto, sans-serif; font-size: 12px; font-weight: 200;" fill="rgb(33, 33, 33)" stroke="none" stroke-width="1px">-2</text><text x="0" y="44.25" dx="0em" dy="0.3em" style="text-anchor: end; visibility: inherit; font-family: Roboto, sans-serif; font-size: 12px; font-weight: 200;" fill="rgb(33, 33, 33)" stroke="none" stroke-width="1px">-1.5</text><text x="0" y="29.499999999999993" dx="0em" dy="0.3em" style="text-anchor: end; visibility: hidden; font-family: Roboto, sans-serif; font-size: 12px; font-weight: 200;" fill="rgb(33, 33, 33)" stroke="none" stroke-width="1px">-1</text><text x="0" y="14.750000000000007" dx="0em" dy="0.3em" style="text-anchor: end; visibility: inherit; font-family: Roboto, sans-serif; font-size: 12px; font-weight: 200;" fill="rgb(33, 33, 33)" stroke="none" stroke-width="1px">-0.5</text><text x="0" y="0" dx="0em" dy="0.3em" style="text-anchor: end; visibility: hidden; font-family: Roboto, sans-serif; font-size: 12px; font-weight: 200;" fill="rgb(33, 33, 33)" stroke="none" stroke-width="1px">0</text></g><line x1="51.5625" y1="0" x2="51.5625" y2="177" fill="rgb(0, 0, 0)" stroke="rgb(204, 204, 204)" stroke-width="1px"></line></g></g><g transform="translate(51, 0)" clip-path="url(#clip_0)"><clipPath id="clip_0"><rect width="278" height="177"></rect></clipPath><g><g><g><line x1="0" y1="0" x2="0" y2="177" fill="rgb(0, 0, 0)" stroke="rgb(66, 66, 66)" stroke-width="1px" opacity="0.25"></line><line x1="34.8046875" y1="0" x2="34.8046875" y2="177" fill="rgb(0, 0, 0)" stroke="rgb(66, 66, 66)" stroke-width="1px" opacity="0.25"></line><line x1="69.609375" y1="0" x2="69.609375" y2="177" fill="rgb(0, 0, 0)" stroke="rgb(66, 66, 66)" stroke-width="1px" opacity="0.25"></line><line x1="104.4140625" y1="0" x2="104.4140625" y2="177" fill="rgb(0, 0, 0)" stroke="rgb(66, 66, 66)" stroke-width="1px" opacity="0.25"></line><line x1="139.21875" y1="0" x2="139.21875" y2="177" fill="rgb(0, 0, 0)" stroke="rgb(66, 66, 66)" stroke-width="1px" opacity="0.25"></line><line x1="174.0234375" y1="0" x2="174.0234375" y2="177" fill="rgb(0, 0, 0)" stroke="rgb(66, 66, 66)" stroke-width="1px" opacity="0.25"></line><line x1="208.828125" y1="0" x2="208.828125" y2="177" fill="rgb(0, 0, 0)" stroke="rgb(66, 66, 66)" stroke-width="1px" opacity="0.25"></line><line x1="243.6328125" y1="0" x2="243.6328125" y2="177" fill="rgb(0, 0, 0)" stroke="rgb(66, 66, 66)" stroke-width="1px" opacity="0.25"></line><line x1="278.4375" y1="0" x2="278.4375" y2="177" fill="rgb(0, 0, 0)" stroke="rgb(66, 66, 66)" stroke-width="1px" opacity="0.25"></line></g><g><line x1="0" y1="177" x2="278.4375" y2="177" fill="rgb(0, 0, 0)" stroke="rgb(66, 66, 66)" stroke-width="1px" opacity="0.25"></line><line x1="0" y1="162.25" x2="278.4375" y2="162.25" fill="rgb(0, 0, 0)" stroke="rgb(66, 66, 66)" stroke-width="1px" opacity="0.25"></line><line x1="0" y1="147.5" x2="278.4375" y2="147.5" fill="rgb(0, 0, 0)" stroke="rgb(66, 66, 66)" stroke-width="1px" opacity="0.25"></line><line x1="0" y1="132.75" x2="278.4375" y2="132.75" fill="rgb(0, 0, 0)" stroke="rgb(66, 66, 66)" stroke-width="1px" opacity="0.25"></line><line x1="0" y1="118.00000000000001" x2="278.4375" y2="118.00000000000001" fill="rgb(0, 0, 0)" stroke="rgb(66, 66, 66)" stroke-width="1px" opacity="0.25"></line><line x1="0" y1="103.24999999999999" x2="278.4375" y2="103.24999999999999" fill="rgb(0, 0, 0)" stroke="rgb(66, 66, 66)" stroke-width="1px" opacity="0.25"></line><line x1="0" y1="88.5" x2="278.4375" y2="88.5" fill="rgb(0, 0, 0)" stroke="rgb(66, 66, 66)" stroke-width="1px" opacity="0.25"></line><line x1="0" y1="73.75" x2="278.4375" y2="73.75" fill="rgb(0, 0, 0)" stroke="rgb(66, 66, 66)" stroke-width="1px" opacity="0.25"></line><line x1="0" y1="59.00000000000001" x2="278.4375" y2="59.00000000000001" fill="rgb(0, 0, 0)" stroke="rgb(66, 66, 66)" stroke-width="1px" opacity="0.25"></line><line x1="0" y1="44.25" x2="278.4375" y2="44.25" fill="rgb(0, 0, 0)" stroke="rgb(66, 66, 66)" stroke-width="1px" opacity="0.25"></line><line x1="0" y1="29.499999999999993" x2="278.4375" y2="29.499999999999993" fill="rgb(0, 0, 0)" stroke="rgb(66, 66, 66)" stroke-width="1px" opacity="0.25"></line><line x1="0" y1="14.750000000000007" x2="278.4375" y2="14.750000000000007" fill="rgb(0, 0, 0)" stroke="rgb(66, 66, 66)" stroke-width="1px" opacity="0.25"></line><line x1="0" y1="0" x2="278.4375" y2="0" fill="rgb(0, 0, 0)" stroke="rgb(66, 66, 66)" stroke-width="1px" opacity="0.25"></line></g></g></g><g><g><line x1="0" y1="0" x2="278.4375" y2="0" fill="rgb(0, 0, 0)" stroke="rgb(153, 153, 153)" stroke-width="1.5px"></line></g></g><g><g><line x1="34.8046875" y1="0" x2="34.8046875" y2="177" fill="rgb(0, 0, 0)" stroke="rgb(153, 153, 153)" stroke-width="1.5px"></line></g></g><g><g><g><g><g><path stroke="rgb(255, 112, 67)" stroke-width="2px" d="M41.654250000000005,177.1595894580994L42.8236875,172.75468368124055L43.9374375,168.92560058773236L45.106875,165.24062791040444L46.220625000000005,162.33704383862565L47.3900625,159.51443786830887L48.503812499999995,157.17667202470008L49.67325,154.47594020135986L50.787,151.5275496541693L51.9564375,148.95783885718612L53.070187499999996,146.090391218509L54.239625000000004,143.97536450201477L55.353375,141.86194436958291L56.5228125,139.72731590363827L57.6365625,138.3644567056712L58.806,136.67666583833383L59.91975,134.62659617900522L61.0891875,132.78333182007287L62.2029375,131.3378326992901L63.372375,129.870309019989L64.486125,128.24604400050595L65.599875,126.74769828955785L66.7693125,125.32873942129075L67.8830625,123.25607776028178L69.0525,121.15064048010157L70.16625,118.28551564346674L71.33568749999999,115.8510070409855L72.4494375,113.94406984742795L73.618875,112.57659714602012L74.73262500000001,111.06848641264793L75.9020625,109.63835978111054L77.01581250000001,108.79462793104678L78.18525,107.60840784054975L79.29899999999999,105.27929029876319L80.4684375,103.1040045091484L81.58218749999999,100.13121904052855L82.751625,97.95931127185442L83.865375,95.3187796197033L85.0348125,93.50099582556172L86.1485625,91.15161387283162L87.318,87.81069851856081L88.43175,84.37617228042423L89.6011875,81.76720017419288L90.71493749999999,79.04157869762015L91.884375,76.92939409917967L92.998125,74.79209299743172L94.11187500000001,71.63792144639146L95.2813125,69.62648738861787L96.39506250000001,68.02375329519988L97.5645,66.68056715754966L98.67824999999999,64.81638172215354L99.84768749999999,62.70651404554221L100.96143749999999,59.02051990760549L102.130875,57.97219623537298L103.244625,55.325122756443974L104.4140625,52.083133109065024L105.5278125,48.39333962825822L106.69725,45.49755556200104L107.81099999999999,42.80595267007061L108.98043750000001,41.223778054175504L110.09418749999999,40.69092545046378L111.263625,42.5017855154824L112.377375,41.42037773104492L113.5468125,40.545614634525386L114.6605625,39.55807351072385L115.83,36.91421528308442L116.94375,35.45283115381957L118.11318750000001,31.60569988728017L119.2269375,26.07683745613009L120.396375,23.83589150986848L121.510125,22.754335730021666L122.623875,24.099025390203817L123.7933125,26.782457092399675L124.9070625,27.917149547314818L126.0765,28.127540700126946L127.19024999999999,28.216620521680575L128.3596875,29.771568326630756L129.47343750000002,32.72965458627106L130.642875,34.939669210324L131.756625,35.77210635753891L132.9260625,36.97490644159182L134.0398125,36.63604450769288L135.20925,35.67209286974652L136.323,34.99750770413436L137.4924375,34.899724705432035L138.6061875,33.418218971780846L139.775625,27.684267932650112L140.889375,25.635869261066574L142.0588125,23.22280420725617L143.1725625,19.859105416108257L144.34199999999998,18.10150672622465L145.45575,18.102408828202808L146.62518749999998,19.22097203097764L147.7389375,20.96001412720655L148.908375,22.48766238844352L150.022125,23.679576227147674L151.135875,24.503249225404534L152.3053125,25.074119920213406L153.41906250000002,23.469476262373036L154.5885,21.813661465798845L155.70225000000002,20.615042056960636L156.8716875,19.49337496168413L157.98543750000002,17.93898994988209L159.154875,17.494032072234845L160.26862500000001,17.07372203683101L161.4380625,17.865505592796794L162.55181249999998,19.908065645397656L163.72125,22.883455040126094L164.83499999999998,24.415825085593756L166.0044375,24.641805547762768L167.11818749999998,26.36253928510506L168.28762500000002,28.005805445773042L169.401375,29.3612954657581L170.57081250000002,31.38902260335536L171.6845625,33.48362448164646L172.854,34.78268615491831L173.96775,35.73578693118366L175.1371875,36.81121549439082L176.2509375,38.14776881544214L177.420375,39.54290691674811L178.534125,40.71301309786535L179.647875,41.590023195206136L180.81731249999999,42.46482299758084L181.9310625,43.16636748577003L183.10049999999998,43.560131912036475L184.21425,43.508837704248066L185.38368749999998,43.541097044822074L186.4974375,43.62175919435995L187.666875,43.537590082798104L188.78062500000001,43.39740611559602L189.9500625,43.02894692277229L191.0638125,42.562301971155875L192.23325,42.579448675454366L193.347,43.30053078991151L194.5164375,43.44219406283942L195.6301875,43.34822542619771L196.799625,43.31736904200308L197.913375,42.998680118597065L199.0828125,42.63686845027385L200.1965625,42.819711109092935L201.36599999999999,42.98999124969519L202.47975,43.03660199192652L203.6491875,42.81212469174108L204.76293750000002,42.92770750395874L205.932375,42.61874663492564L207.04612500000002,42.23337565106127L208.159875,41.267384099477795L209.32931250000001,40.60856793421116L210.4430625,40.756334168400954L211.6125,41.47258957651717L212.72625,41.980274583229466L213.8956875,42.58867355559542L215.0094375,42.82491696100374L216.178875,43.499812525816616L217.292625,44.487463826107L218.4620625,44.67323128948049L219.57581249999998,44.618145080250805L220.74525,44.6222442719313L221.85899999999998,43.8065827250795L223.02843750000002,43.15790084838371L224.1421875,42.728331005906455L225.31162500000002,41.80047111302371L226.425375,40.946854654594695L227.59481250000002,41.276620946556655L228.7085625,41.568990113536934L229.87800000000001,41.29368572622779L230.99175,40.44332077508507L232.16118749999998,39.83115426992981L233.2749375,40.34462570549708L234.44437499999998,41.710232584659245L235.558125,42.42931090410488L236.671875,42.626732293090996L237.8413125,42.553572943763335L238.9550625,41.745727712834665L240.1245,40.964638561675734L241.23825,40.05562001849468L242.4076875,38.63441717646061L243.52143750000002,37.382233454236825" style="fill: none;" fill="none"></path></g></g></g></g><g opacity="0.2"><g><g><g><path stroke="rgb(255, 112, 67)" stroke-width="2px" d="M39.3710625,180.64864778518677L40.5405,175.358163356781L41.654250000000005,171.12844848632812L42.8236875,166.43239450454712L43.9374375,163.3213336467743L45.106875,159.7845582962036L46.220625000000005,158.00821590423584L47.3900625,155.28898286819458L48.503812499999995,153.66838693618774L49.67325,150.4169545173645L50.787,147.0924174785614L51.9564375,145.09027647972107L53.070187499999996,141.77333545684814L54.239625000000004,140.7904953956604L55.353375,138.67912650108337L56.5228125,136.5123348236084L57.6365625,136.31175780296326L58.806,134.13450050354004L59.91975,131.5387167930603L61.0891875,130.0069239139557L62.2029375,129.16054487228394L63.372375,127.65983939170836L64.486125,125.79947662353516L65.599875,124.49079561233522L66.7693125,123.19141268730165L67.8830625,120.1341006755829L69.0525,117.97929382324219L70.16625,113.96987748146056L71.33568749999999,112.18399083614348L72.4494375,111.07171607017519L73.618875,110.51682007312775L74.73262500000001,108.79687106609344L75.9020625,107.48420917987822L77.01581250000001,107.52374362945558L78.18525,105.82164525985719L79.29899999999999,101.77102053165436L80.4684375,99.82744622230528L81.58218749999999,95.65341436862944L82.751625,94.6878411769867L83.865375,91.341437458992L85.0348125,90.76293051242827L86.1485625,87.61282050609589L87.318,82.77839243412018L88.43175,79.20286333560944L89.6011875,77.83739507198334L90.71493749999999,74.93606865406036L91.884375,73.74788296222687L92.998125,71.57274973392487L94.11187500000001,66.88690114021301L95.2813125,66.5967333316803L96.39506250000001,65.6096099615097L97.5645,64.65737199783325L98.67824999999999,62.008423209190376L99.84768749999999,59.52849280834199L100.96143749999999,53.46843349933625L102.130875,56.393142282962806L103.244625,51.33792686462402L104.4140625,47.19983541965484L105.5278125,42.83553040027619L106.69725,41.13573545217513L107.81099999999999,38.75168365240096L108.98043750000001,38.84060275554657L110.09418749999999,39.888307869434364L111.263625,45.229421854019165L112.377375,39.791490316391L113.5468125,39.22798901796341L114.6605625,38.0705742239952L115.83,32.93186241388321L116.94375,33.251598417758935L118.11318750000001,25.810898154973984L119.2269375,17.748901814222343L120.396375,20.460431575775154L121.510125,21.125225394964225L122.623875,26.124485254287727L123.7933125,30.824418127536767L124.9070625,29.62629783153534L126.0765,28.44444566965104L127.19024999999999,28.35079839825631L128.3596875,32.113732814788825L129.47343750000002,37.18531835079194L130.642875,38.26853835582733L131.756625,37.02597784996033L132.9260625,38.786642909049995L134.0398125,36.12562841176987L135.20925,34.22012561559677L136.323,33.981403231620796L137.4924375,34.75243753194809L138.6061875,31.186677753925323L139.775625,19.04741436243058L140.889375,22.550436675548546L142.0588125,19.588087171316154L143.1725625,14.792481422424316L144.34199999999998,15.45409616827964L145.45575,18.103767633438117L146.62518749999998,20.905825376510613L147.7389375,23.57947352528572L148.908375,24.78870651125908L150.022125,25.474915117025382L151.135875,25.743919581174858L152.3053125,25.93400284647941L153.41906250000002,21.052456617355354L154.5885,19.31956449151039L155.70225000000002,18.809602797031403L156.8716875,17.803846329450614L157.98543750000002,15.597673177719123L159.154875,16.823807299137123L160.26862500000001,16.440623462200158L161.4380625,19.058141976594918L162.55181249999998,22.984703719615943L163.72125,27.36518192291259L164.83499999999998,26.723981469869614L166.0044375,24.982192158699043L167.11818749999998,28.95442143082618L168.28762500000002,30.481000840663917L169.401375,31.403023540973656L170.57081250000002,34.44331836700439L171.6845625,36.63865137100219L172.854,36.739418148994446L173.96775,37.17140990495682L175.1371875,38.43109661340714L176.2509375,40.1609731912613L177.420375,41.6443555355072L178.534125,42.47550386190414L179.647875,42.911033391952515L180.81731249999999,43.78250390291213L181.9310625,44.223079860210426L183.10049999999998,44.153245747089386L184.21425,43.43157500028611L185.38368749999998,43.58968818187714L186.4974375,43.743257820606225L187.666875,43.41080904006958L188.78062500000001,43.18625181913376L189.9500625,42.4739494919777L191.0638125,41.85941070318223L192.23325,42.60527616739274L193.347,44.38667201995849L194.5164375,43.65557658672332L195.6301875,43.20668369531631L196.799625,43.27089112997054L197.913375,42.51864993572236L199.0828125,42.09188395738601L200.1965625,43.0951207280159L201.36599999999999,43.24647837877273L202.47975,43.10681015253067L203.6491875,42.474002242088325L204.76293750000002,43.101805925369256L205.932375,42.15336948633193L207.04612500000002,41.6529045701027L208.159875,39.81234419345856L209.32931250000001,39.61621576547622L210.4430625,40.97890937328338L211.6125,42.55146050453187L212.72625,42.74498307704925L213.8956875,43.50508403778076L215.0094375,43.18076229095458L216.178875,44.516384541988366L217.292625,45.9751290678978L218.4620625,44.95304644107819L219.57581249999998,44.5351706147194L220.74525,44.62841874361038L221.85899999999998,42.57797974348068L223.02843750000002,42.18081361055374L224.1421875,42.08128470182419L225.31162500000002,40.402867615222924L226.425375,39.661081492900855L227.59481250000002,41.77333658933639L228.7085625,42.009375751018524L229.87800000000001,40.879004180431366L230.99175,39.162445247173316L232.16118749999998,38.909068882465355L233.2749375,41.1180500984192L234.44437499999998,43.76719933748245L235.558125,43.51243388652801L236.671875,42.92410135269164L237.8413125,42.44337552785874L238.9550625,40.52889817953109L240.1245,39.78811079263687L241.23825,38.686396598815925L242.4076875,36.49370813369751L243.52143750000002,35.4961121082306" style="fill: none;" fill="none"></path></g></g></g></g></g></g><g transform="translate(51, 177)" clip-path="url(#clip_1)"><clipPath id="clip_1"><rect width="278" height="23"></rect></clipPath><g><g><line x1="0" y1="0" x2="0" y2="5" style="visibility: inherit;" fill="rgb(0, 0, 0)" stroke="rgb(204, 204, 204)" stroke-width="1px"></line><line x1="34.8046875" y1="0" x2="34.8046875" y2="5" style="visibility: inherit;" fill="rgb(0, 0, 0)" stroke="rgb(204, 204, 204)" stroke-width="1px"></line><line x1="69.609375" y1="0" x2="69.609375" y2="5" style="visibility: inherit;" fill="rgb(0, 0, 0)" stroke="rgb(204, 204, 204)" stroke-width="1px"></line><line x1="104.4140625" y1="0" x2="104.4140625" y2="5" style="visibility: inherit;" fill="rgb(0, 0, 0)" stroke="rgb(204, 204, 204)" stroke-width="1px"></line><line x1="139.21875" y1="0" x2="139.21875" y2="5" style="visibility: inherit;" fill="rgb(0, 0, 0)" stroke="rgb(204, 204, 204)" stroke-width="1px"></line><line x1="174.0234375" y1="0" x2="174.0234375" y2="5" style="visibility: inherit;" fill="rgb(0, 0, 0)" stroke="rgb(204, 204, 204)" stroke-width="1px"></line><line x1="208.828125" y1="0" x2="208.828125" y2="5" style="visibility: inherit;" fill="rgb(0, 0, 0)" stroke="rgb(204, 204, 204)" stroke-width="1px"></line><line x1="243.6328125" y1="0" x2="243.6328125" y2="5" style="visibility: inherit;" fill="rgb(0, 0, 0)" stroke="rgb(204, 204, 204)" stroke-width="1px"></line><line x1="278.4375" y1="0" x2="278.4375" y2="5" style="visibility: inherit;" fill="rgb(0, 0, 0)" stroke="rgb(204, 204, 204)" stroke-width="1px"></line></g><g transform="translate(0, 8)"><text x="0" y="0" dx="0em" dy="0.95em" style="text-anchor: middle; visibility: hidden; font-family: Roboto, sans-serif; font-size: 12px; font-weight: 200;" fill="rgb(33, 33, 33)" stroke="none" stroke-width="1px">-500k</text><text x="34.8046875" y="0" dx="0em" dy="0.95em" style="text-anchor: middle; visibility: inherit; font-family: Roboto, sans-serif; font-size: 12px; font-weight: 200;" fill="rgb(33, 33, 33)" stroke="none" stroke-width="1px">0</text><text x="69.609375" y="0" dx="0em" dy="0.95em" style="text-anchor: middle; visibility: inherit; font-family: Roboto, sans-serif; font-size: 12px; font-weight: 200;" fill="rgb(33, 33, 33)" stroke="none" stroke-width="1px">500k</text><text x="104.4140625" y="0" dx="0em" dy="0.95em" style="text-anchor: middle; visibility: inherit; font-family: Roboto, sans-serif; font-size: 12px; font-weight: 200;" fill="rgb(33, 33, 33)" stroke="none" stroke-width="1px">1M</text><text x="139.21875" y="0" dx="0em" dy="0.95em" style="text-anchor: middle; visibility: inherit; font-family: Roboto, sans-serif; font-size: 12px; font-weight: 200;" fill="rgb(33, 33, 33)" stroke="none" stroke-width="1px">1.5M</text><text x="174.0234375" y="0" dx="0em" dy="0.95em" style="text-anchor: middle; visibility: inherit; font-family: Roboto, sans-serif; font-size: 12px; font-weight: 200;" fill="rgb(33, 33, 33)" stroke="none" stroke-width="1px">2M</text><text x="208.828125" y="0" dx="0em" dy="0.95em" style="text-anchor: middle; visibility: inherit; font-family: Roboto, sans-serif; font-size: 12px; font-weight: 200;" fill="rgb(33, 33, 33)" stroke="none" stroke-width="1px">2.5M</text><text x="243.6328125" y="0" dx="0em" dy="0.95em" style="text-anchor: middle; visibility: inherit; font-family: Roboto, sans-serif; font-size: 12px; font-weight: 200;" fill="rgb(33, 33, 33)" stroke="none" stroke-width="1px">3M</text><text x="278.4375" y="0" dx="0em" dy="0.95em" style="text-anchor: middle; visibility: hidden; font-family: Roboto, sans-serif; font-size: 12px; font-weight: 200;" fill="rgb(33, 33, 33)" stroke="none" stroke-width="1px">3.5M</text></g><line x1="0" y1="0" x2="278.4375" y2="0" fill="rgb(0, 0, 0)" stroke="rgb(204, 204, 204)" stroke-width="1px"></line></g></g></g></g></svg>