<svg viewBox="0 0 330 200" xmlns="http://www.w3.org/2000/svg"><g><g><g><g><g><line x1="51.5625" y1="177" x2="46.5625" y2="177" style="visibility: inherit;" fill="rgb(0, 0, 0)" stroke="rgb(204, 204, 204)" stroke-width="1px"></line><line x1="51.5625" y1="159.3" x2="46.5625" y2="159.3" style="visibility: inherit;" fill="rgb(0, 0, 0)" stroke="rgb(204, 204, 204)" stroke-width="1px"></line><line x1="51.5625" y1="141.6" x2="46.5625" y2="141.6" style="visibility: inherit;" fill="rgb(0, 0, 0)" stroke="rgb(204, 204, 204)" stroke-width="1px"></line><line x1="51.5625" y1="123.89999999999999" x2="46.5625" y2="123.89999999999999" style="visibility: inherit;" fill="rgb(0, 0, 0)" stroke="rgb(204, 204, 204)" stroke-width="1px"></line><line x1="51.5625" y1="106.20000000000002" x2="46.5625" y2="106.20000000000002" style="visibility: inherit;" fill="rgb(0, 0, 0)" stroke="rgb(204, 204, 204)" stroke-width="1px"></line><line x1="51.5625" y1="88.5" x2="46.5625" y2="88.5" style="visibility: inherit;" fill="rgb(0, 0, 0)" stroke="rgb(204, 204, 204)" stroke-width="1px"></line><line x1="51.5625" y1="70.79999999999998" x2="46.5625" y2="70.79999999999998" style="visibility: inherit;" fill="rgb(0, 0, 0)" stroke="rgb(204, 204, 204)" stroke-width="1px"></line><line x1="51.5625" y1="53.10000000000001" x2="46.5625" y2="53.10000000000001" style="visibility: inherit;" fill="rgb(0, 0, 0)" stroke="rgb(204, 204, 204)" stroke-width="1px"></line><line x1="51.5625" y1="35.39999999999999" x2="46.5625" y2="35.39999999999999" style="visibility: inherit;" fill="rgb(0, 0, 0)" stroke="rgb(204, 204, 204)" stroke-width="1px"></line><line x1="51.5625" y1="17.699999999999978" x2="46.5625" y2="17.699999999999978" style="visibility: inherit;" fill="rgb(0, 0, 0)" stroke="rgb(204, 204, 204)" stroke-width="1px"></line><line x1="51.5625" y1="0" x2="46.5625" y2="0" style="visibility: inherit;" fill="rgb(0, 0, 0)" stroke="rgb(204, 204, 204)" stroke-width="1px"></line></g><g transform="translate(41.5625, 0)"><text x="0" y="177" dx="0em" dy="0.3em" style="text-anchor: end; visibility: hidden; font-family: Roboto, sans-serif; font-size: 12px; font-weight: 200;" fill="rgb(33, 33, 33)" stroke="none" stroke-width="1px">0.1</text><text x="0" y="159.3" dx="0em" dy="0.3em" style="text-anchor: end; visibility: inherit; font-family: Roboto, sans-serif; font-size: 12px; font-weight: 200;" fill="rgb(33, 33, 33)" stroke="none" stroke-width="1px">0.15</text><text x="0" y="141.6" dx="0em" dy="0.3em" style="text-anchor: end; visibility: hidden; font-family: Roboto, sans-serif; font-size: 12px; font-weight: 200;" fill="rgb(33, 33, 33)" stroke="none" stroke-width="1px">0.2</text><text x="0" y="123.89999999999999" dx="0em" dy="0.3em" style="text-anchor: end; visibility: inherit; font-family: Roboto, sans-serif; font-size: 12px; font-weight: 200;" fill="rgb(33, 33, 33)" stroke="none" stroke-width="1px">0.25</text><text x="0" y="106.20000000000002" dx="0em" dy="0.3em" style="text-anchor: end; visibility: hidden; font-family: Roboto, sans-serif; font-size: 12px; font-weight: 200;" fill="rgb(33, 33, 33)" stroke="none" stroke-width="1px">0.3</text><text x="0" y="88.5" dx="0em" dy="0.3em" style="text-anchor: end; visibility: inherit; font-family: Roboto, sans-serif; font-size: 12px; font-weight: 200;" fill="rgb(33, 33, 33)" stroke="none" stroke-width="1px">0.35</text><text x="0" y="70.79999999999998" dx="0em" dy="0.3em" style="text-anchor: end; visibility: hidden; font-family: Roboto, sans-serif; font-size: 12px; font-weight: 200;" fill="rgb(33, 33, 33)" stroke="none" stroke-width="1px">0.4</text><text x="0" y="53.10000000000001" dx="0em" dy="0.3em" style="text-anchor: end; visibility: inherit; font-family: Roboto, sans-serif; font-size: 12px; font-weight: 200;" fill="rgb(33, 33, 33)" stroke="none" stroke-width="1px">0.45</text><text x="0" y="35.39999999999999" dx="0em" dy="0.3em" style="text-anchor: end; visibility: hidden; font-family: Roboto, sans-serif; font-size: 12px; font-weight: 200;" fill="rgb(33, 33, 33)" stroke="none" stroke-width="1px">0.5</text><text x="0" y="17.699999999999978" dx="0em" dy="0.3em" style="text-anchor: end; visibility: inherit; font-family: Roboto, sans-serif; font-size: 12px; font-weight: 200;" fill="rgb(33, 33, 33)" stroke="none" stroke-width="1px">0.55</text><text x="0" y="0" dx="0em" dy="0.3em" style="text-anchor: end; visibility: hidden; font-family: Roboto, sans-serif; font-size: 12px; font-weight: 200;" fill="rgb(33, 33, 33)" stroke="none" stroke-width="1px">0.6</text></g><line x1="51.5625" y1="0" x2="51.5625" y2="177" fill="rgb(0, 0, 0)" stroke="rgb(204, 204, 204)" stroke-width="1px"></line></g></g><g transform="translate(51, 0)" clip-path="url(#clip_0)"><clipPath id="clip_0"><rect width="278" height="177"></rect></clipPath><g><g><g><line x1="0" y1="0" x2="0" y2="177" fill="rgb(0, 0, 0)" stroke="rgb(66, 66, 66)" stroke-width="1px" opacity="0.25"></line><line x1="34.8046875" y1="0" x2="34.8046875" y2="177" fill="rgb(0, 0, 0)" stroke="rgb(66, 66, 66)" stroke-width="1px" opacity="0.25"></line><line x1="69.609375" y1="0" x2="69.609375" y2="177" fill="rgb(0, 0, 0)" stroke="rgb(66, 66, 66)" stroke-width="1px" opacity="0.25"></line><line x1="104.4140625" y1="0" x2="104.4140625" y2="177" fill="rgb(0, 0, 0)" stroke="rgb(66, 66, 66)" stroke-width="1px" opacity="0.25"></line><line x1="139.21875" y1="0" x2="139.21875" y2="177" fill="rgb(0, 0, 0)" stroke="rgb(66, 66, 66)" stroke-width="1px" opacity="0.25"></line><line x1="174.0234375" y1="0" x2="174.0234375" y2="177" fill="rgb(0, 0, 0)" stroke="rgb(66, 66, 66)" stroke-width="1px" opacity="0.25"></line><line x1="208.828125" y1="0" x2="208.828125" y2="177" fill="rgb(0, 0, 0)" stroke="rgb(66, 66, 66)" stroke-width="1px" opacity="0.25"></line><line x1="243.6328125" y1="0" x2="243.6328125" y2="177" fill="rgb(0, 0, 0)" stroke="rgb(66, 66, 66)" stroke-width="1px" opacity="0.25"></line><line x1="278.4375" y1="0" x2="278.4375" y2="177" fill="rgb(0, 0, 0)" stroke="rgb(66, 66, 66)" stroke-width="1px" opacity="0.25"></line></g><g><line x1="0" y1="177" x2="278.4375" y2="177" fill="rgb(0, 0, 0)" stroke="rgb(66, 66, 66)" stroke-width="1px" opacity="0.25"></line><line x1="0" y1="159.3" x2="278.4375" y2="159.3" fill="rgb(0, 0, 0)" stroke="rgb(66, 66, 66)" stroke-width="1px" opacity="0.25"></line><line x1="0" y1="141.6" x2="278.4375" y2="141.6" fill="rgb(0, 0, 0)" stroke="rgb(66, 66, 66)" stroke-width="1px" opacity="0.25"></line><line x1="0" y1="123.89999999999999" x2="278.4375" y2="123.89999999999999" fill="rgb(0, 0, 0)" stroke="rgb(66, 66, 66)" stroke-width="1px" opacity="0.25"></line><line x1="0" y1="106.20000000000002" x2="278.4375" y2="106.20000000000002" fill="rgb(0, 0, 0)" stroke="rgb(66, 66, 66)" stroke-width="1px" opacity="0.25"></line><line x1="0" y1="88.5" x2="278.4375" y2="88.5" fill="rgb(0, 0, 0)" stroke="rgb(66, 66, 66)" stroke-width="1px" opacity="0.25"></line><line x1="0" y1="70.79999999999998" x2="278.4375" y2="70.79999999999998" fill="rgb(0, 0, 0)" stroke="rgb(66, 66, 66)" stroke-width="1px" opacity="0.25"></line><line x1="0" y1="53.10000000000001" x2="278.4375" y2="53.10000000000001" fill="rgb(0, 0, 0)" stroke="rgb(66, 66, 66)" stroke-width="1px" opacity="0.25"></line><line x1="0" y1="35.39999999999999" x2="278.4375" y2="35.39999999999999" fill="rgb(0, 0, 0)" stroke="rgb(66, 66, 66)" stroke-width="1px" opacity="0.25"></line><line x1="0" y1="17.699999999999978" x2="278.4375" y2="17.699999999999978" fill="rgb(0, 0, 0)" stroke="rgb(66, 66, 66)" stroke-width="1px" opacity="0.25"></line><line x1="0" y1="0" x2="278.4375" y2="0" fill="rgb(0, 0, 0)" stroke="rgb(66, 66, 66)" stroke-width="1px" opacity="0.25"></line></g></g></g><g><g><line x1="0" y1="212.4" x2="278.4375" y2="212.4" fill="rgb(0, 0, 0)" stroke="rgb(153, 153, 153)" stroke-width="1.5px"></line></g></g><g><g><line x1="34.8046875" y1="0" x2="34.8046875" y2="177" fill="rgb(0, 0, 0)" stroke="rgb(153, 153, 153)" stroke-width="1.5px"></line></g></g><g><g><g><g><g><path stroke="rgb(255, 112, 67)" stroke-width="2px" d="M35.974125,81.87546386718753L37.087875000000004,31.616529108746793L38.2573125,23.332793175691528L39.3710625,32.48782188498994L40.5405,38.02175579568225L41.654250000000005,39.98374743017277L42.8236875,39.99131345702997L43.9374375,40.16849709841598L45.106875,40.34271858695811L46.220625000000005,38.55094502648828L47.3900625,38.56017195263871L48.503812499999995,41.632951969521024L49.67325,40.7621370275266L50.787,41.588058165136495L51.9564375,38.44334529203118L53.070187499999996,38.08759707122168L54.239625000000004,37.42807470074246L55.353375,39.51573785410576L56.5228125,41.29533319544549L57.6365625,41.08108812860571L58.806,41.37907980967769L59.91975,44.484165381255615L61.0891875,45.608885079636096L62.2029375,45.35204451260905L63.372375,42.39327121590868L64.486125,40.01934302043595L65.599875,40.626307640224404L66.7693125,36.730604332521L67.8830625,36.98420172475951L69.0525,36.89695231024358L70.16625,40.742053898267955L71.33568749999999,41.60894673204015L72.4494375,41.92994525126874L73.618875,44.2884509769034L74.73262500000001,42.00234673881437L75.9020625,43.10778623299879L77.01581250000001,48.22143971633355L78.18525,42.94274551632205L79.29899999999999,46.864451295101794L80.4684375,52.738752912530785L81.58218749999999,52.89582364186895L82.751625,45.26152203528644L83.865375,50.71673878219839L85.0348125,46.60197789024158L86.1485625,38.977113076415286L87.318,34.14197653740305L88.43175,41.96571746307092L89.6011875,31.34314986857688L90.71493749999999,46.426064956787584L91.884375,30.31076452619246L92.998125,15.545990770012986L94.11187500000001,38.876864391233525L95.2813125,17.212211378864083L96.39506250000001,36.5359147825616L97.5645,28.79882244457914L98.67824999999999,7.861229838798285L99.84768749999999,-10.751765858694817L100.96143749999999,3.2333351536865864L102.130875,-7.980366073123662L103.244625,7.8878389899448305L104.4140625,8.987283566154465L105.5278125,6.913475855875981L106.69725,0.3212562509914074L107.81099999999999,5.7130865409168585L108.98043750000001,39.038178890092325L110.09418749999999,21.363602689893053L111.263625,-3.637739638544585L112.377375,33.289880720100314L113.5468125,77.29788645203536L114.6605625,86.19698416480492L115.83,54.88293815364767L116.94375,32.20272706656163L118.11318750000001,6.177547535552694L119.2269375,46.40979082307193L120.396375,46.040293451359915L121.510125,37.34812085566805L122.623875,19.3030143598424L123.7933125,4.163802729765925L124.9070625,15.431314984833147L126.0765,30.35508151233281L127.19024999999999,55.34547812299958L128.3596875,41.48962899341558L129.47343750000002,37.82534219672797L130.642875,50.37445131492378L131.756625,83.25953802552034L132.9260625,74.71220414249512L134.0398125,90.62939098925446L135.20925,80.57515168024783L136.323,61.434709056910336L137.4924375,73.30793489827572L138.6061875,66.26051933773091L139.775625,65.4087539701208L140.889375,70.95911195312692L142.0588125,50.47685822805649L143.1725625,74.15009238178624L144.34199999999998,110.07669393068066L145.45575,93.36215463720514L146.62518749999998,61.14185569300943L147.7389375,32.32887106661033L148.908375,24.596203206236584L150.022125,25.16283181024343L151.135875,43.0884319496946L152.3053125,38.09050867511736L153.41906250000002,30.978863781725323L154.5885,34.91796660381853L155.70225000000002,47.43742449178833L156.8716875,53.56502127034881L157.98543750000002,96.25760378484958L159.154875,60.7155721314218L160.26862500000001,50.0930900643634L161.4380625,53.96793464088946L162.55181249999998,75.43268875256747L163.72125,109.66732206373334L164.83499999999998,97.89041878705599L166.0044375,122.68595388623827L167.11818749999998,106.168076255166L168.28762500000002,98.0624456404848L169.401375,103.9171720792533L170.57081250000002,100.84685569795154L171.6845625,100.80510451196334L172.854,104.53530394528927L173.96775,119.40256893434987L175.1371875,116.64517088266928L176.2509375,117.06907637519404L177.420375,116.79969018185993L178.534125,117.03521671599151L179.647875,119.97427136833377L180.81731249999999,112.08687870653154L181.9310625,112.2286145046707L183.10049999999998,118.84332082765589L184.21425,128.27928194779227L185.38368749999998,138.79183311819853L186.4974375,136.5863199881221L187.666875,142.77743306730335L188.78062500000001,142.3998808285302L189.9500625,143.6669867460633L191.0638125,151.9684200754471L192.23325,145.00288049913L193.347,141.82179524877736L194.5164375,139.82030574973842L195.6301875,156.33350736257384L196.799625,160.41464650644983L197.913375,161.1190776543328L199.0828125,163.48043562875012L200.1965625,152.017293369472L201.36599999999999,150.59450385562744L202.47975,152.69812441732978L203.6491875,159.04532506678365L204.76293750000002,138.31263979061973L205.932375,142.34679937060776L207.04612500000002,139.6797825622654L208.159875,135.42940632045722L209.32931250000001,153.64198803643797L210.4430625,144.43105702630268L211.6125,152.36038231382355L212.72625,165.04082070027172L213.8956875,160.53378184296153L215.0094375,154.8801267220451L216.178875,141.78972111395575L217.292625,149.1651282122413L218.4620625,149.65192956146385L219.57581249999998,152.16267360647606L220.74525,153.6854230693783L221.85899999999998,144.5649236270959L223.02843750000002,143.15087621697725L224.1421875,143.20365114214275L225.31162500000002,146.16304959175145L226.425375,149.93740300381393L227.59481250000002,137.3630628844914L228.7085625,144.31066932385278L229.87800000000001,144.44725556197534L230.99175,140.96112455475614L232.16118749999998,159.0054104974977L233.2749375,145.55871486817583L234.44437499999998,132.91934138411904L235.558125,142.11500908357152L236.671875,148.54680739730966L237.8413125,151.5045294450493L238.9550625,143.2024807287961L240.1245,151.02716091312362L241.23825,144.43545786445412L242.4076875,150.2439919577395L243.52143750000002,175.04423916660144" style="fill: none;" fill="none"></path></g></g></g></g><g opacity="0.2"><g><g><g><path stroke="rgb(255, 112, 67)" stroke-width="2px" d="M35.974125,81.87546386718749L37.087875000000004,1.4109093189239423L38.2573125,15.362174177169791L39.3710625,43.284189784526816L40.5405,45.26981999874114L41.654250000000005,42.70730402469634L42.8236875,40.00217285156249L43.9374375,40.42782404422759L45.106875,40.60067560672759L46.220625000000005,35.87966730594634L47.3900625,38.573984706401816L48.503812499999995,46.244272792339316L49.67325,39.45337125062942L50.787,42.830454432964316L51.9564375,33.71037175655364L53.070187499999996,37.55200406312942L54.239625000000004,36.434946620464316L55.353375,42.65976562499999L56.5228125,43.975596034526816L57.6365625,40.75839843749999L58.806,41.82791748046874L59.91975,49.161142909526816L61.0891875,47.302988612651816L62.2029375,44.96517755985259L63.372375,37.936594569683066L64.486125,36.44358708858489L65.599875,41.54055597782134L66.7693125,30.86264648437499L67.8830625,37.36618652343749L69.0525,36.76553156375884L70.16625,46.53379704952239L71.33568749999999,42.91471745967864L72.4494375,42.41345425844192L73.618875,47.84098699092864L74.73262500000001,38.55886652469634L75.9020625,44.77287175655364L77.01581250000001,55.923960292339316L78.18525,34.99162974357604L79.29899999999999,52.77158203124999L80.4684375,61.58701171874999L81.58218749999999,53.13241388797759L82.751625,33.76223566532134L83.865375,58.93374445438384L85.0348125,40.40405484437942L86.1485625,27.49204101562499L87.318,26.85897638797759L88.43175,53.75034978389739L89.6011875,15.342741036415092L90.71493749999999,69.14494206905364L91.884375,6.036840820312492L92.998125,-6.693680977821358L94.11187500000001,74.01935824155807L95.2813125,-15.420511579513558L96.39506250000001,65.64254572391509L97.5645,17.14470591545104L98.67824999999999,-23.67634699344636L99.84768749999999,-38.78788218498231L100.96143749999999,24.29861261844634L102.130875,-24.87117919921876L103.244625,31.78957142829894L104.4140625,10.643339180946342L105.5278125,3.7897705078124924L106.69725,-9.608377790451058L107.81099999999999,13.834615373611442L108.98043750000001,89.23462125062942L110.09418749999999,-5.2590045690536575L111.263625,-41.29640314579011L112.377375,88.91268732547759L113.5468125,143.58563443422318L114.6605625,99.60138949155807L115.83,7.7156658411025925L116.94375,-1.9596961498260577L118.11318750000001,-33.02328679561616L119.2269375,107.01023747920989L120.396375,45.48373224735259L121.510125,24.25539972782134L122.623875,-7.877709960937508L123.7933125,-18.63987193107606L124.9070625,32.40318181514739L126.0765,52.834238612651816L127.19024999999999,92.98765447139739L128.3596875,20.61903920173644L129.47343750000002,32.30595281124114L130.642875,69.27674349546432L131.756625,132.79321500062943L132.9260625,61.83764859437942L134.0398125,114.60490300655364L135.20925,65.43079622983932L136.323,32.60411753654479L137.4924375,91.19216730594634L138.6061875,55.64523925781249L139.775625,64.12576904296874L140.889375,79.31942560672759L142.0588125,19.62514271736144L143.1725625,109.80827214717864L144.34199999999998,164.19170027375222L145.45575,68.18561800718307L146.62518749999998,12.609525704383842L147.7389375,-11.071138358116158L148.908375,12.948751115798942L150.022125,26.01632502079009L151.135875,70.08914794921874L152.3053125,30.56230845451354L153.41906250000002,20.26683726310729L154.5885,40.85130193233489L155.70225000000002,66.29505404233932L156.8716875,62.794809901714316L157.98543750000002,160.56397494077683L159.154875,7.179830217361443L160.26862500000001,34.09281005859374L161.4380625,59.80447998046874L162.55181249999998,107.76431086063384L163.72125,161.23377474546433L164.83499999999998,80.15127375125884L166.0044375,160.03461703062058L167.11818749999998,81.28776433467864L168.28762500000002,85.85321255922317L169.401375,112.73594548702239L170.57081250000002,96.22214355468749L171.6845625,100.74221613407134L172.854,110.15397527217864L173.96775,141.79661970734597L175.1371875,112.49179687499999L176.2509375,117.70759066343307L177.420375,116.39392300844192L178.534125,117.38998224735259L179.647875,124.40126847624778L180.81731249999999,100.20636996030807L181.9310625,112.44210627079009L183.10049999999998,128.80682584047318L184.21425,142.49234619140626L185.38368749999998,154.62652798891068L186.4974375,133.26423128843308L187.666875,152.10289412140847L188.78062500000001,141.83118685483933L189.9500625,145.5755848824978L191.0638125,164.47258406281472L192.23325,134.51092740297318L193.347,137.03023576140404L194.5164375,136.80553084015847L195.6301875,181.20677595734597L196.799625,166.56192626953126L197.913375,162.18013810515404L199.0828125,167.03726806640626L200.1965625,134.7507557809353L201.36599999999999,148.45140486359597L202.47975,155.86673583984376L203.6491875,168.60589546859265L204.76293750000002,107.08370783329009L205.932375,148.4233154296875L207.04612500000002,135.66254671812058L208.159875,129.02721052765847L209.32931250000001,181.0749745309353L210.4430625,130.55694791078568L211.6125,164.304052734375L212.72625,184.14092964828015L213.8956875,153.74498396515847L215.0094375,146.36422013640404L216.178875,122.07209261655807L217.292625,160.27445068359376L218.4620625,150.38518171906472L219.57581249999998,155.94452115297318L220.74525,155.97908830046654L221.85899999999998,130.82702847719193L223.02843750000002,141.02094515562058L224.1421875,143.28314419984818L225.31162500000002,150.62068986296654L226.425375,155.6225819528103L227.59481250000002,118.42276611328124L228.7085625,154.7756103515625L229.87800000000001,144.65299072265626L230.99175,135.71008511781693L232.16118749999998,186.18489884734154L233.2749375,125.30441894531249L234.44437499999998,113.88108708858489L235.558125,155.96612759828568L236.671875,158.23480435609818L237.8413125,155.95964460968972L238.9550625,130.69738980531693L240.1245,162.8132080078125L241.23825,134.50660189390183L242.4076875,158.9931874215603L243.52143750000002,212.4" style="fill: none;" fill="none"></path></g></g></g></g></g></g><g transform="translate(51, 177)" clip-path="url(#clip_1)"><clipPath id="clip_1"><rect width="278" height="23"></rect></clipPath><g><g><line x1="0" y1="0" x2="0" y2="5" style="visibility: inherit;" fill="rgb(0, 0, 0)" stroke="rgb(204, 204, 204)" stroke-width="1px"></line><line x1="34.8046875" y1="0" x2="34.8046875" y2="5" style="visibility: inherit;" fill="rgb(0, 0, 0)" stroke="rgb(204, 204, 204)" stroke-width="1px"></line><line x1="69.609375" y1="0" x2="69.609375" y2="5" style="visibility: inherit;" fill="rgb(0, 0, 0)" stroke="rgb(204, 204, 204)" stroke-width="1px"></line><line x1="104.4140625" y1="0" x2="104.4140625" y2="5" style="visibility: inherit;" fill="rgb(0, 0, 0)" stroke="rgb(204, 204, 204)" stroke-width="1px"></line><line x1="139.21875" y1="0" x2="139.21875" y2="5" style="visibility: inherit;" fill="rgb(0, 0, 0)" stroke="rgb(204, 204, 204)" stroke-width="1px"></line><line x1="174.0234375" y1="0" x2="174.0234375" y2="5" style="visibility: inherit;" fill="rgb(0, 0, 0)" stroke="rgb(204, 204, 204)" stroke-width="1px"></line><line x1="208.828125" y1="0" x2="208.828125" y2="5" style="visibility: inherit;" fill="rgb(0, 0, 0)" stroke="rgb(204, 204, 204)" stroke-width="1px"></line><line x1="243.6328125" y1="0" x2="243.6328125" y2="5" style="visibility: inherit;" fill="rgb(0, 0, 0)" stroke="rgb(204, 204, 204)" stroke-width="1px"></line><line x1="278.4375" y1="0" x2="278.4375" y2="5" style="visibility: inherit;" fill="rgb(0, 0, 0)" stroke="rgb(204, 204, 204)" stroke-width="1px"></line></g><g transform="translate(0, 8)"><text x="0" y="0" dx="0em" dy="0.95em" style="text-anchor: middle; visibility: hidden; font-family: Roboto, sans-serif; font-size: 12px; font-weight: 200;" fill="rgb(33, 33, 33)" stroke="none" stroke-width="1px">-500k</text><text x="34.8046875" y="0" dx="0em" dy="0.95em" style="text-anchor: middle; visibility: inherit; font-family: Roboto, sans-serif; font-size: 12px; font-weight: 200;" fill="rgb(33, 33, 33)" stroke="none" stroke-width="1px">0</text><text x="69.609375" y="0" dx="0em" dy="0.95em" style="text-anchor: middle; visibility: inherit; font-family: Roboto, sans-serif; font-size: 12px; font-weight: 200;" fill="rgb(33, 33, 33)" stroke="none" stroke-width="1px">500k</text><text x="104.4140625" y="0" dx="0em" dy="0.95em" style="text-anchor: middle; visibility: inherit; font-family: Roboto, sans-serif; font-size: 12px; font-weight: 200;" fill="rgb(33, 33, 33)" stroke="none" stroke-width="1px">1M</text><text x="139.21875" y="0" dx="0em" dy="0.95em" style="text-anchor: middle; visibility: inherit; font-family: Roboto, sans-serif; font-size: 12px; font-weight: 200;" fill="rgb(33, 33, 33)" stroke="none" stroke-width="1px">1.5M</text><text x="174.0234375" y="0" dx="0em" dy="0.95em" style="text-anchor: middle; visibility: inherit; font-family: Roboto, sans-serif; font-size: 12px; font-weight: 200;" fill="rgb(33, 33, 33)" stroke="none" stroke-width="1px">2M</text><text x="208.828125" y="0" dx="0em" dy="0.95em" style="text-anchor: middle; visibility: inherit; font-family: Roboto, sans-serif; font-size: 12px; font-weight: 200;" fill="rgb(33, 33, 33)" stroke="none" stroke-width="1px">2.5M</text><text x="243.6328125" y="0" dx="0em" dy="0.95em" style="text-anchor: middle; visibility: inherit; font-family: Roboto, sans-serif; font-size: 12px; font-weight: 200;" fill="rgb(33, 33, 33)" stroke="none" stroke-width="1px">3M</text><text x="278.4375" y="0" dx="0em" dy="0.95em" style="text-anchor: middle; visibility: hidden; font-family: Roboto, sans-serif; font-size: 12px; font-weight: 200;" fill="rgb(33, 33, 33)" stroke="none" stroke-width="1px">3.5M</text></g><line x1="0" y1="0" x2="278.4375" y2="0" fill="rgb(0, 0, 0)" stroke="rgb(204, 204, 204)" stroke-width="1px"></line></g></g></g></g></svg>