<svg viewBox="0 0 330 200" xmlns="http://www.w3.org/2000/svg"><g><g><g><g><g><line x1="41.171875" y1="177" x2="36.171875" y2="177" style="visibility: inherit;" fill="rgb(0, 0, 0)" stroke="rgb(204, 204, 204)" stroke-width="1px"></line><line x1="41.171875" y1="162.24999999999983" x2="36.171875" y2="162.24999999999983" style="visibility: inherit;" fill="rgb(0, 0, 0)" stroke="rgb(204, 204, 204)" stroke-width="1px"></line><line x1="41.171875" y1="147.49999999999966" x2="36.171875" y2="147.49999999999966" style="visibility: inherit;" fill="rgb(0, 0, 0)" stroke="rgb(204, 204, 204)" stroke-width="1px"></line><line x1="41.171875" y1="132.7499999999995" x2="36.171875" y2="132.7499999999995" style="visibility: inherit;" fill="rgb(0, 0, 0)" stroke="rgb(204, 204, 204)" stroke-width="1px"></line><line x1="41.171875" y1="118.00000000000034" x2="36.171875" y2="118.00000000000034" style="visibility: inherit;" fill="rgb(0, 0, 0)" stroke="rgb(204, 204, 204)" stroke-width="1px"></line><line x1="41.171875" y1="103.25000000000018" x2="36.171875" y2="103.25000000000018" style="visibility: inherit;" fill="rgb(0, 0, 0)" stroke="rgb(204, 204, 204)" stroke-width="1px"></line><line x1="41.171875" y1="88.5" x2="36.171875" y2="88.5" style="visibility: inherit;" fill="rgb(0, 0, 0)" stroke="rgb(204, 204, 204)" stroke-width="1px"></line><line x1="41.171875" y1="73.74999999999982" x2="36.171875" y2="73.74999999999982" style="visibility: inherit;" fill="rgb(0, 0, 0)" stroke="rgb(204, 204, 204)" stroke-width="1px"></line><line x1="41.171875" y1="58.99999999999965" x2="36.171875" y2="58.99999999999965" style="visibility: inherit;" fill="rgb(0, 0, 0)" stroke="rgb(204, 204, 204)" stroke-width="1px"></line><line x1="41.171875" y1="44.25000000000053" x2="36.171875" y2="44.25000000000053" style="visibility: inherit;" fill="rgb(0, 0, 0)" stroke="rgb(204, 204, 204)" stroke-width="1px"></line><line x1="41.171875" y1="29.500000000000348" x2="36.171875" y2="29.500000000000348" style="visibility: inherit;" fill="rgb(0, 0, 0)" stroke="rgb(204, 204, 204)" stroke-width="1px"></line><line x1="41.171875" y1="14.750000000000183" x2="36.171875" y2="14.750000000000183" style="visibility: inherit;" fill="rgb(0, 0, 0)" stroke="rgb(204, 204, 204)" stroke-width="1px"></line><line x1="41.171875" y1="0" x2="36.171875" y2="0" style="visibility: inherit;" fill="rgb(0, 0, 0)" stroke="rgb(204, 204, 204)" stroke-width="1px"></line></g><g transform="translate(31.171875, 0)"><text x="0" y="177" dx="0em" dy="0.3em" style="text-anchor: end; visibility: hidden; font-family: Roboto, sans-serif; font-size: 12px; font-weight: 200;" fill="rgb(33, 33, 33)" stroke="none" stroke-width="1px">103</text><text x="0" y="162.24999999999983" dx="0em" dy="0.3em" style="text-anchor: end; visibility: inherit; font-family: Roboto, sans-serif; font-size: 12px; font-weight: 200;" fill="rgb(33, 33, 33)" stroke="none" stroke-width="1px">103</text><text x="0" y="147.49999999999966" dx="0em" dy="0.3em" style="text-anchor: end; visibility: hidden; font-family: Roboto, sans-serif; font-size: 12px; font-weight: 200;" fill="rgb(33, 33, 33)" stroke="none" stroke-width="1px">103</text><text x="0" y="132.7499999999995" dx="0em" dy="0.3em" style="text-anchor: end; visibility: inherit; font-family: Roboto, sans-serif; font-size: 12px; font-weight: 200;" fill="rgb(33, 33, 33)" stroke="none" stroke-width="1px">103</text><text x="0" y="118.00000000000034" dx="0em" dy="0.3em" style="text-anchor: end; visibility: hidden; font-family: Roboto, sans-serif; font-size: 12px; font-weight: 200;" fill="rgb(33, 33, 33)" stroke="none" stroke-width="1px">104</text><text x="0" y="103.25000000000018" dx="0em" dy="0.3em" style="text-anchor: end; visibility: inherit; font-family: Roboto, sans-serif; font-size: 12px; font-weight: 200;" fill="rgb(33, 33, 33)" stroke="none" stroke-width="1px">104</text><text x="0" y="88.5" dx="0em" dy="0.3em" style="text-anchor: end; visibility: hidden; font-family: Roboto, sans-serif; font-size: 12px; font-weight: 200;" fill="rgb(33, 33, 33)" stroke="none" stroke-width="1px">104</text><text x="0" y="73.74999999999982" dx="0em" dy="0.3em" style="text-anchor: end; visibility: inherit; font-family: Roboto, sans-serif; font-size: 12px; font-weight: 200;" fill="rgb(33, 33, 33)" stroke="none" stroke-width="1px">104</text><text x="0" y="58.99999999999965" dx="0em" dy="0.3em" style="text-anchor: end; visibility: hidden; font-family: Roboto, sans-serif; font-size: 12px; font-weight: 200;" fill="rgb(33, 33, 33)" stroke="none" stroke-width="1px">104</text><text x="0" y="44.25000000000053" dx="0em" dy="0.3em" style="text-anchor: end; visibility: inherit; font-family: Roboto, sans-serif; font-size: 12px; font-weight: 200;" fill="rgb(33, 33, 33)" stroke="none" stroke-width="1px">105</text><text x="0" y="29.500000000000348" dx="0em" dy="0.3em" style="text-anchor: end; visibility: hidden; font-family: Roboto, sans-serif; font-size: 12px; font-weight: 200;" fill="rgb(33, 33, 33)" stroke="none" stroke-width="1px">105</text><text x="0" y="14.750000000000183" dx="0em" dy="0.3em" style="text-anchor: end; visibility: inherit; font-family: Roboto, sans-serif; font-size: 12px; font-weight: 200;" fill="rgb(33, 33, 33)" stroke="none" stroke-width="1px">105</text><text x="0" y="0" dx="0em" dy="0.3em" style="text-anchor: end; visibility: hidden; font-family: Roboto, sans-serif; font-size: 12px; font-weight: 200;" fill="rgb(33, 33, 33)" stroke="none" stroke-width="1px">105</text></g><line x1="41.171875" y1="0" x2="41.171875" y2="177" fill="rgb(0, 0, 0)" stroke="rgb(204, 204, 204)" stroke-width="1px"></line></g></g><g transform="translate(41, 0)" clip-path="url(#clip_0)"><clipPath id="clip_0"><rect width="288" height="177"></rect></clipPath><g><g><g><line x1="0" y1="0" x2="0" y2="177" fill="rgb(0, 0, 0)" stroke="rgb(66, 66, 66)" stroke-width="1px" opacity="0.25"></line><line x1="20.630580357142858" y1="0" x2="20.630580357142858" y2="177" fill="rgb(0, 0, 0)" stroke="rgb(66, 66, 66)" stroke-width="1px" opacity="0.25"></line><line x1="41.261160714285715" y1="0" x2="41.261160714285715" y2="177" fill="rgb(0, 0, 0)" stroke="rgb(66, 66, 66)" stroke-width="1px" opacity="0.25"></line><line x1="61.89174107142857" y1="0" x2="61.89174107142857" y2="177" fill="rgb(0, 0, 0)" stroke="rgb(66, 66, 66)" stroke-width="1px" opacity="0.25"></line><line x1="82.52232142857143" y1="0" x2="82.52232142857143" y2="177" fill="rgb(0, 0, 0)" stroke="rgb(66, 66, 66)" stroke-width="1px" opacity="0.25"></line><line x1="103.15290178571429" y1="0" x2="103.15290178571429" y2="177" fill="rgb(0, 0, 0)" stroke="rgb(66, 66, 66)" stroke-width="1px" opacity="0.25"></line><line x1="123.78348214285714" y1="0" x2="123.78348214285714" y2="177" fill="rgb(0, 0, 0)" stroke="rgb(66, 66, 66)" stroke-width="1px" opacity="0.25"></line><line x1="144.4140625" y1="0" x2="144.4140625" y2="177" fill="rgb(0, 0, 0)" stroke="rgb(66, 66, 66)" stroke-width="1px" opacity="0.25"></line><line x1="165.04464285714286" y1="0" x2="165.04464285714286" y2="177" fill="rgb(0, 0, 0)" stroke="rgb(66, 66, 66)" stroke-width="1px" opacity="0.25"></line><line x1="185.67522321428572" y1="0" x2="185.67522321428572" y2="177" fill="rgb(0, 0, 0)" stroke="rgb(66, 66, 66)" stroke-width="1px" opacity="0.25"></line><line x1="206.30580357142858" y1="0" x2="206.30580357142858" y2="177" fill="rgb(0, 0, 0)" stroke="rgb(66, 66, 66)" stroke-width="1px" opacity="0.25"></line><line x1="226.93638392857142" y1="0" x2="226.93638392857142" y2="177" fill="rgb(0, 0, 0)" stroke="rgb(66, 66, 66)" stroke-width="1px" opacity="0.25"></line><line x1="247.56696428571428" y1="0" x2="247.56696428571428" y2="177" fill="rgb(0, 0, 0)" stroke="rgb(66, 66, 66)" stroke-width="1px" opacity="0.25"></line><line x1="268.19754464285717" y1="0" x2="268.19754464285717" y2="177" fill="rgb(0, 0, 0)" stroke="rgb(66, 66, 66)" stroke-width="1px" opacity="0.25"></line><line x1="288.828125" y1="0" x2="288.828125" y2="177" fill="rgb(0, 0, 0)" stroke="rgb(66, 66, 66)" stroke-width="1px" opacity="0.25"></line></g><g><line x1="0" y1="177" x2="288.828125" y2="177" fill="rgb(0, 0, 0)" stroke="rgb(66, 66, 66)" stroke-width="1px" opacity="0.25"></line><line x1="0" y1="162.24999999999983" x2="288.828125" y2="162.24999999999983" fill="rgb(0, 0, 0)" stroke="rgb(66, 66, 66)" stroke-width="1px" opacity="0.25"></line><line x1="0" y1="147.49999999999966" x2="288.828125" y2="147.49999999999966" fill="rgb(0, 0, 0)" stroke="rgb(66, 66, 66)" stroke-width="1px" opacity="0.25"></line><line x1="0" y1="132.7499999999995" x2="288.828125" y2="132.7499999999995" fill="rgb(0, 0, 0)" stroke="rgb(66, 66, 66)" stroke-width="1px" opacity="0.25"></line><line x1="0" y1="118.00000000000034" x2="288.828125" y2="118.00000000000034" fill="rgb(0, 0, 0)" stroke="rgb(66, 66, 66)" stroke-width="1px" opacity="0.25"></line><line x1="0" y1="103.25000000000018" x2="288.828125" y2="103.25000000000018" fill="rgb(0, 0, 0)" stroke="rgb(66, 66, 66)" stroke-width="1px" opacity="0.25"></line><line x1="0" y1="88.5" x2="288.828125" y2="88.5" fill="rgb(0, 0, 0)" stroke="rgb(66, 66, 66)" stroke-width="1px" opacity="0.25"></line><line x1="0" y1="73.74999999999982" x2="288.828125" y2="73.74999999999982" fill="rgb(0, 0, 0)" stroke="rgb(66, 66, 66)" stroke-width="1px" opacity="0.25"></line><line x1="0" y1="58.99999999999965" x2="288.828125" y2="58.99999999999965" fill="rgb(0, 0, 0)" stroke="rgb(66, 66, 66)" stroke-width="1px" opacity="0.25"></line><line x1="0" y1="44.25000000000053" x2="288.828125" y2="44.25000000000053" fill="rgb(0, 0, 0)" stroke="rgb(66, 66, 66)" stroke-width="1px" opacity="0.25"></line><line x1="0" y1="29.500000000000348" x2="288.828125" y2="29.500000000000348" fill="rgb(0, 0, 0)" stroke="rgb(66, 66, 66)" stroke-width="1px" opacity="0.25"></line><line x1="0" y1="14.750000000000183" x2="288.828125" y2="14.750000000000183" fill="rgb(0, 0, 0)" stroke="rgb(66, 66, 66)" stroke-width="1px" opacity="0.25"></line><line x1="0" y1="0" x2="288.828125" y2="0" fill="rgb(0, 0, 0)" stroke="rgb(66, 66, 66)" stroke-width="1px" opacity="0.25"></line></g></g></g><g><g><line x1="0" y1="7758.499999999982" x2="288.828125" y2="7758.499999999982" fill="rgb(0, 0, 0)" stroke="rgb(153, 153, 153)" stroke-width="1.5px"></line></g></g><g><g><line x1="20.630580357142858" y1="0" x2="20.630580357142858" y2="177" fill="rgb(0, 0, 0)" stroke="rgb(153, 153, 153)" stroke-width="1.5px"></line></g></g><g><g><g><g><g><path stroke="rgb(255, 112, 67)" stroke-width="2px" d="M26.968294642857146,-53.72793343564878L29.08086607142857,11.14315959037305L31.193437499999998,44.39426138226198L33.30600892857143,62.71441057522009L35.41858035714286,103.23307432101382L37.531151785714286,97.30714478397311L39.643723214285714,123.24119599338162L41.75629464285714,138.7515740325119L43.86886607142857,148.0704926018209L45.981437500000006,153.68489909908473L48.094008928571434,157.0730432151638L50.206580357142855,159.11974262461257L52.31915178571428,160.35685306589752L54.43172321428571,161.1048870994903L56.54429464285714,132.42036570182273L58.656866071428574,144.204460859775L60.7694375,122.19962892672582L62.88200892857143,138.02020835784776L64.99458035714287,147.59122598799058L67.1071517857143,153.38153320140452L69.21972321428571,156.8846110697764L71.33229464285714,159.00395195268024L73.44486607142856,160.28614541715055L75.5574375,161.0618696192769L77.67000892857143,161.53118172063768L79.78258035714286,161.81511516095733L81.89515178571429,161.98689475289538L84.00772321428572,162.09082135497212L86.12029464285715,162.1536969305448L88.23286607142857,162.19173664692792L90.3454375,162.2147506728365L92.45800892857143,162.2286741575952L94.57058035714284,162.23709786553925L96.68315178571427,162.2421942087217L98.79572321428572,162.2452774963018L100.90829464285714,162.24714288527184L103.02086607142857,162.24827144559345L105.1334375,162.24895422458525L107.24600892857143,162.24936730587478L109.35858035714286,162.24961722005426L111.47115178571428,162.2497684181327L113.58372321428571,162.24985989297068L115.69629464285714,162.2499152352467L117.80886607142857,162.2499487173245L119.92143750000001,162.2499689739813L122.03400892857144,162.2499812292586L124.14658035714287,162.24998864370048L126.2591517857143,162.2499931294385L128.3717232142857,162.24999584331087L130.48429464285712,162.2499974852036L132.59686607142856,162.249998478548L134.7094375,162.24999907952113L136.82200892857142,162.2499994431098L138.93458035714286,162.24999966308195L141.04715178571428,162.24999979616447L143.15972321428572,162.2499998766799L145.27229464285716,162.2499999253912L147.38486607142855,162.24999995486132L149.4974375,162.24999997269182L151.6100089285714,162.24999998347838L153.72258035714285,162.24999999000457L155.8351517857143,162.24999999395257L157.9477232142857,162.24999999634107L160.06029464285714,162.2499999977853L162.17286607142856,162.2499999986604L164.2854375,162.2499999991897L166.39800892857141,162.24999999950933L168.51058035714286,162.2499999997022L170.62315178571427,162.24999999981955L172.7357232142857,162.24999999988978L174.84829464285713,162.24999999993378L176.96086607142857,162.24999999995893L179.0734375,162.24999999997573L181.18600892857143,162.24999999998516L183.29858035714287,162.24999999999145L185.41115178571428,162.2499999999946L187.52372321428572,162.24999999999667L189.63629464285714,162.24999999999773L191.74886607142858,162.24999999999878L193.8614375,162.24999999999983L195.97400892857144,162.24999999999983L198.08658035714288,162.24999999999983L200.1991517857143,162.24999999999983L202.31172321428573,162.24999999999983L204.42429464285715,162.24999999999983L206.5368660714286,162.24999999999983L208.6494375,162.24999999999983L210.76200892857145,162.24999999999983L212.87458035714286,162.24999999999983L214.9871517857143,162.24999999999983L217.09972321428572,162.24999999999983L219.21229464285713,162.24999999999983L221.32486607142854,162.24999999999983L223.4374375,162.24999999999983L225.55000892857143,162.24999999999983L227.66258035714284,162.24999999999983L229.77515178571429,162.24999999999983L231.8877232142857,133.11875000000018L234.00029464285714,115.49434375000051L236.11286607142856,104.83157796875015L238.2254375,98.38060467109366L240.3380089285714,94.47776582601217L242.45058035714285,92.11654832473823L244.56315178571427,90.6880117364671L246.6757232142857,89.82374710056284L248.78829464285715,89.30086699584075L250.90086607142857,88.98452453248409L253.0134375,88.79313734215361L255.12600892857142,88.67734809200243L257.23858035714284,88.60729559566238L259.3511517857143,59.43366383537591L261.4637232142857,41.7836166204028L263.57629464285714,31.105338055343392L265.68886607142855,24.644979523482455L267.8014375,20.73646261170758L269.91400892857143,18.37180988008354L272.02658035714285,16.94119497745071L274.1391517857143,16.07567296135722L276.25172321428573,15.552032141620678L278.36429464285715,15.235229445680812L280.47686607142856,15.043563814636528" style="fill: none;" fill="none"></path></g></g></g></g><g opacity="0.2"><g><g><g><path stroke="rgb(255, 112, 67)" stroke-width="2px" d="M22.743151785714286,-353.999999999999L24.855723214285714,14.750000000000183L26.968294642857146,14.750000000000183L29.08086607142857,88.5L31.193437499999998,88.5L33.30600892857143,88.5L35.41858035714286,162.24999999999983L37.531151785714286,88.5L39.643723214285714,162.24999999999983L41.75629464285714,162.24999999999983L43.86886607142857,162.24999999999983L45.981437500000006,162.24999999999983L48.094008928571434,162.24999999999983L50.206580357142855,162.24999999999983L52.31915178571428,162.24999999999983L54.43172321428571,162.24999999999983L56.54429464285714,88.5L58.656866071428574,162.24999999999983L60.7694375,88.5L62.88200892857143,162.24999999999983L64.99458035714287,162.24999999999983L67.1071517857143,162.24999999999983L69.21972321428571,162.24999999999983L71.33229464285714,162.24999999999983L73.44486607142856,162.24999999999983L75.5574375,162.24999999999983L77.67000892857143,162.24999999999983L79.78258035714286,162.24999999999983L81.89515178571429,162.24999999999983L84.00772321428572,162.24999999999983L86.12029464285715,162.24999999999983L88.23286607142857,162.24999999999983L90.3454375,162.24999999999983L92.45800892857143,162.24999999999983L94.57058035714284,162.24999999999983L96.68315178571427,162.24999999999983L98.79572321428572,162.24999999999983L100.90829464285714,162.24999999999983L103.02086607142857,162.24999999999983L105.1334375,162.24999999999983L107.24600892857143,162.24999999999983L109.35858035714286,162.24999999999983L111.47115178571428,162.24999999999983L113.58372321428571,162.24999999999983L115.69629464285714,162.24999999999983L117.80886607142857,162.24999999999983L119.92143750000001,162.24999999999983L122.03400892857144,162.24999999999983L124.14658035714287,162.24999999999983L126.2591517857143,162.24999999999983L128.3717232142857,162.24999999999983L130.48429464285712,162.24999999999983L132.59686607142856,162.24999999999983L134.7094375,162.24999999999983L136.82200892857142,162.24999999999983L138.93458035714286,162.24999999999983L141.04715178571428,162.24999999999983L143.15972321428572,162.24999999999983L145.27229464285716,162.24999999999983L147.38486607142855,162.24999999999983L149.4974375,162.24999999999983L151.6100089285714,162.24999999999983L153.72258035714285,162.24999999999983L155.8351517857143,162.24999999999983L157.9477232142857,162.24999999999983L160.06029464285714,162.24999999999983L162.17286607142856,162.24999999999983L164.2854375,162.24999999999983L166.39800892857141,162.24999999999983L168.51058035714286,162.24999999999983L170.62315178571427,162.24999999999983L172.7357232142857,162.24999999999983L174.84829464285713,162.24999999999983L176.96086607142857,162.24999999999983L179.0734375,162.24999999999983L181.18600892857143,162.24999999999983L183.29858035714287,162.24999999999983L185.41115178571428,162.24999999999983L187.52372321428572,162.24999999999983L189.63629464285714,162.24999999999983L191.74886607142858,162.24999999999983L193.8614375,162.24999999999983L195.97400892857144,162.24999999999983L198.08658035714288,162.24999999999983L200.1991517857143,162.24999999999983L202.31172321428573,162.24999999999983L204.42429464285715,162.24999999999983L206.5368660714286,162.24999999999983L208.6494375,162.24999999999983L210.76200892857145,162.24999999999983L212.87458035714286,162.24999999999983L214.9871517857143,162.24999999999983L217.09972321428572,162.24999999999983L219.21229464285713,162.24999999999983L221.32486607142854,162.24999999999983L223.4374375,162.24999999999983L225.55000892857143,162.24999999999983L227.66258035714284,162.24999999999983L229.77515178571429,162.24999999999983L231.8877232142857,88.5L234.00029464285714,88.5L236.11286607142856,88.5L238.2254375,88.5L240.3380089285714,88.5L242.45058035714285,88.5L244.56315178571427,88.5L246.6757232142857,88.5L248.78829464285715,88.5L250.90086607142857,88.5L253.0134375,88.5L255.12600892857142,88.5L257.23858035714284,88.5L259.3511517857143,14.750000000000183L261.4637232142857,14.750000000000183L263.57629464285714,14.750000000000183L265.68886607142855,14.750000000000183L267.8014375,14.750000000000183L269.91400892857143,14.750000000000183L272.02658035714285,14.750000000000183L274.1391517857143,14.750000000000183L276.25172321428573,14.750000000000183L278.36429464285715,14.750000000000183L280.47686607142856,14.750000000000183" style="fill: none;" fill="none"></path></g></g></g></g></g><g><g><span fill="rgb(0, 0, 0)" stroke="none" stroke-width="1px">Alt + Scroll to Zoom</span></g></g></g><g transform="translate(41, 177)" clip-path="url(#clip_1)"><clipPath id="clip_1"><rect width="288" height="23"></rect></clipPath><g><g><line x1="0" y1="0" x2="0" y2="5" style="visibility: inherit;" fill="rgb(0, 0, 0)" stroke="rgb(204, 204, 204)" stroke-width="1px"></line><line x1="20.630580357142858" y1="0" x2="20.630580357142858" y2="5" style="visibility: inherit;" fill="rgb(0, 0, 0)" stroke="rgb(204, 204, 204)" stroke-width="1px"></line><line x1="41.261160714285715" y1="0" x2="41.261160714285715" y2="5" style="visibility: inherit;" fill="rgb(0, 0, 0)" stroke="rgb(204, 204, 204)" stroke-width="1px"></line><line x1="61.89174107142857" y1="0" x2="61.89174107142857" y2="5" style="visibility: inherit;" fill="rgb(0, 0, 0)" stroke="rgb(204, 204, 204)" stroke-width="1px"></line><line x1="82.52232142857143" y1="0" x2="82.52232142857143" y2="5" style="visibility: inherit;" fill="rgb(0, 0, 0)" stroke="rgb(204, 204, 204)" stroke-width="1px"></line><line x1="103.15290178571429" y1="0" x2="103.15290178571429" y2="5" style="visibility: inherit;" fill="rgb(0, 0, 0)" stroke="rgb(204, 204, 204)" stroke-width="1px"></line><line x1="123.78348214285714" y1="0" x2="123.78348214285714" y2="5" style="visibility: inherit;" fill="rgb(0, 0, 0)" stroke="rgb(204, 204, 204)" stroke-width="1px"></line><line x1="144.4140625" y1="0" x2="144.4140625" y2="5" style="visibility: inherit;" fill="rgb(0, 0, 0)" stroke="rgb(204, 204, 204)" stroke-width="1px"></line><line x1="165.04464285714286" y1="0" x2="165.04464285714286" y2="5" style="visibility: inherit;" fill="rgb(0, 0, 0)" stroke="rgb(204, 204, 204)" stroke-width="1px"></line><line x1="185.67522321428572" y1="0" x2="185.67522321428572" y2="5" style="visibility: inherit;" fill="rgb(0, 0, 0)" stroke="rgb(204, 204, 204)" stroke-width="1px"></line><line x1="206.30580357142858" y1="0" x2="206.30580357142858" y2="5" style="visibility: inherit;" fill="rgb(0, 0, 0)" stroke="rgb(204, 204, 204)" stroke-width="1px"></line><line x1="226.93638392857142" y1="0" x2="226.93638392857142" y2="5" style="visibility: inherit;" fill="rgb(0, 0, 0)" stroke="rgb(204, 204, 204)" stroke-width="1px"></line><line x1="247.56696428571428" y1="0" x2="247.56696428571428" y2="5" style="visibility: inherit;" fill="rgb(0, 0, 0)" stroke="rgb(204, 204, 204)" stroke-width="1px"></line><line x1="268.19754464285717" y1="0" x2="268.19754464285717" y2="5" style="visibility: inherit;" fill="rgb(0, 0, 0)" stroke="rgb(204, 204, 204)" stroke-width="1px"></line><line x1="288.828125" y1="0" x2="288.828125" y2="5" style="visibility: inherit;" fill="rgb(0, 0, 0)" stroke="rgb(204, 204, 204)" stroke-width="1px"></line></g><g transform="translate(0, 8)"><text x="0" y="0" dx="0em" dy="0.95em" style="text-anchor: middle; visibility: hidden; font-family: Roboto, sans-serif; font-size: 12px; font-weight: 200;" fill="rgb(33, 33, 33)" stroke="none" stroke-width="1px">-20k</text><text x="20.630580357142858" y="0" dx="0em" dy="0.95em" style="text-anchor: middle; visibility: inherit; font-family: Roboto, sans-serif; font-size: 12px; font-weight: 200;" fill="rgb(33, 33, 33)" stroke="none" stroke-width="1px">0</text><text x="41.261160714285715" y="0" dx="0em" dy="0.95em" style="text-anchor: middle; visibility: hidden; font-family: Roboto, sans-serif; font-size: 12px; font-weight: 200;" fill="rgb(33, 33, 33)" stroke="none" stroke-width="1px">20k</text><text x="61.89174107142857" y="0" dx="0em" dy="0.95em" style="text-anchor: middle; visibility: inherit; font-family: Roboto, sans-serif; font-size: 12px; font-weight: 200;" fill="rgb(33, 33, 33)" stroke="none" stroke-width="1px">40k</text><text x="82.52232142857143" y="0" dx="0em" dy="0.95em" style="text-anchor: middle; visibility: hidden; font-family: Roboto, sans-serif; font-size: 12px; font-weight: 200;" fill="rgb(33, 33, 33)" stroke="none" stroke-width="1px">60k</text><text x="103.15290178571429" y="0" dx="0em" dy="0.95em" style="text-anchor: middle; visibility: inherit; font-family: Roboto, sans-serif; font-size: 12px; font-weight: 200;" fill="rgb(33, 33, 33)" stroke="none" stroke-width="1px">80k</text><text x="123.78348214285714" y="0" dx="0em" dy="0.95em" style="text-anchor: middle; visibility: hidden; font-family: Roboto, sans-serif; font-size: 12px; font-weight: 200;" fill="rgb(33, 33, 33)" stroke="none" stroke-width="1px">100k</text><text x="144.4140625" y="0" dx="0em" dy="0.95em" style="text-anchor: middle; visibility: inherit; font-family: Roboto, sans-serif; font-size: 12px; font-weight: 200;" fill="rgb(33, 33, 33)" stroke="none" stroke-width="1px">120k</text><text x="165.04464285714286" y="0" dx="0em" dy="0.95em" style="text-anchor: middle; visibility: hidden; font-family: Roboto, sans-serif; font-size: 12px; font-weight: 200;" fill="rgb(33, 33, 33)" stroke="none" stroke-width="1px">140k</text><text x="185.67522321428572" y="0" dx="0em" dy="0.95em" style="text-anchor: middle; visibility: inherit; font-family: Roboto, sans-serif; font-size: 12px; font-weight: 200;" fill="rgb(33, 33, 33)" stroke="none" stroke-width="1px">160k</text><text x="206.30580357142858" y="0" dx="0em" dy="0.95em" style="text-anchor: middle; visibility: hidden; font-family: Roboto, sans-serif; font-size: 12px; font-weight: 200;" fill="rgb(33, 33, 33)" stroke="none" stroke-width="1px">180k</text><text x="226.93638392857142" y="0" dx="0em" dy="0.95em" style="text-anchor: middle; visibility: inherit; font-family: Roboto, sans-serif; font-size: 12px; font-weight: 200;" fill="rgb(33, 33, 33)" stroke="none" stroke-width="1px">200k</text><text x="247.56696428571428" y="0" dx="0em" dy="0.95em" style="text-anchor: middle; visibility: hidden; font-family: Roboto, sans-serif; font-size: 12px; font-weight: 200;" fill="rgb(33, 33, 33)" stroke="none" stroke-width="1px">220k</text><text x="268.19754464285717" y="0" dx="0em" dy="0.95em" style="text-anchor: middle; visibility: inherit; font-family: Roboto, sans-serif; font-size: 12px; font-weight: 200;" fill="rgb(33, 33, 33)" stroke="none" stroke-width="1px">240k</text><text x="288.828125" y="0" dx="0em" dy="0.95em" style="text-anchor: middle; visibility: hidden; font-family: Roboto, sans-serif; font-size: 12px; font-weight: 200;" fill="rgb(33, 33, 33)" stroke="none" stroke-width="1px">260k</text></g><line x1="0" y1="0" x2="288.828125" y2="0" fill="rgb(0, 0, 0)" stroke="rgb(204, 204, 204)" stroke-width="1px"></line></g></g></g></g></svg>