<svg viewBox="0 0 330 200" xmlns="http://www.w3.org/2000/svg"><g><g><g><g><g><line x1="82.734375" y1="177" x2="77.734375" y2="177" style="visibility: inherit;" fill="rgb(0, 0, 0)" stroke="rgb(204, 204, 204)" stroke-width="1px"></line><line x1="82.734375" y1="157.33333333333331" x2="77.734375" y2="157.33333333333331" style="visibility: inherit;" fill="rgb(0, 0, 0)" stroke="rgb(204, 204, 204)" stroke-width="1px"></line><line x1="82.734375" y1="137.66666666666666" x2="77.734375" y2="137.66666666666666" style="visibility: inherit;" fill="rgb(0, 0, 0)" stroke="rgb(204, 204, 204)" stroke-width="1px"></line><line x1="82.734375" y1="118" x2="77.734375" y2="118" style="visibility: inherit;" fill="rgb(0, 0, 0)" stroke="rgb(204, 204, 204)" stroke-width="1px"></line><line x1="82.734375" y1="98.33333333333334" x2="77.734375" y2="98.33333333333334" style="visibility: inherit;" fill="rgb(0, 0, 0)" stroke="rgb(204, 204, 204)" stroke-width="1px"></line><line x1="82.734375" y1="78.66666666666669" x2="77.734375" y2="78.66666666666669" style="visibility: inherit;" fill="rgb(0, 0, 0)" stroke="rgb(204, 204, 204)" stroke-width="1px"></line><line x1="82.734375" y1="59.00000000000001" x2="77.734375" y2="59.00000000000001" style="visibility: inherit;" fill="rgb(0, 0, 0)" stroke="rgb(204, 204, 204)" stroke-width="1px"></line><line x1="82.734375" y1="39.33333333333335" x2="77.734375" y2="39.33333333333335" style="visibility: inherit;" fill="rgb(0, 0, 0)" stroke="rgb(204, 204, 204)" stroke-width="1px"></line><line x1="82.734375" y1="19.666666666666675" x2="77.734375" y2="19.666666666666675" style="visibility: inherit;" fill="rgb(0, 0, 0)" stroke="rgb(204, 204, 204)" stroke-width="1px"></line><line x1="82.734375" y1="0" x2="77.734375" y2="0" style="visibility: inherit;" fill="rgb(0, 0, 0)" stroke="rgb(204, 204, 204)" stroke-width="1px"></line></g><g transform="translate(72.734375, 0)"><text x="0" y="177" dx="0em" dy="0.3em" style="text-anchor: end; visibility: hidden; font-family: Roboto, sans-serif; font-size: 12px; font-weight: 200;" fill="rgb(33, 33, 33)" stroke="none" stroke-width="1px">-6e-3</text><text x="0" y="157.33333333333331" dx="0em" dy="0.3em" style="text-anchor: end; visibility: inherit; font-family: Roboto, sans-serif; font-size: 12px; font-weight: 200;" fill="rgb(33, 33, 33)" stroke="none" stroke-width="1px">-5.5e-3</text><text x="0" y="137.66666666666666" dx="0em" dy="0.3em" style="text-anchor: end; visibility: hidden; font-family: Roboto, sans-serif; font-size: 12px; font-weight: 200;" fill="rgb(33, 33, 33)" stroke="none" stroke-width="1px">-5e-3</text><text x="0" y="118" dx="0em" dy="0.3em" style="text-anchor: end; visibility: inherit; font-family: Roboto, sans-serif; font-size: 12px; font-weight: 200;" fill="rgb(33, 33, 33)" stroke="none" stroke-width="1px">-4.5e-3</text><text x="0" y="98.33333333333334" dx="0em" dy="0.3em" style="text-anchor: end; visibility: hidden; font-family: Roboto, sans-serif; font-size: 12px; font-weight: 200;" fill="rgb(33, 33, 33)" stroke="none" stroke-width="1px">-4e-3</text><text x="0" y="78.66666666666669" dx="0em" dy="0.3em" style="text-anchor: end; visibility: inherit; font-family: Roboto, sans-serif; font-size: 12px; font-weight: 200;" fill="rgb(33, 33, 33)" stroke="none" stroke-width="1px">-3.5e-3</text><text x="0" y="59.00000000000001" dx="0em" dy="0.3em" style="text-anchor: end; visibility: hidden; font-family: Roboto, sans-serif; font-size: 12px; font-weight: 200;" fill="rgb(33, 33, 33)" stroke="none" stroke-width="1px">-3e-3</text><text x="0" y="39.33333333333335" dx="0em" dy="0.3em" style="text-anchor: end; visibility: inherit; font-family: Roboto, sans-serif; font-size: 12px; font-weight: 200;" fill="rgb(33, 33, 33)" stroke="none" stroke-width="1px">-2.5e-3</text><text x="0" y="19.666666666666675" dx="0em" dy="0.3em" style="text-anchor: end; visibility: hidden; font-family: Roboto, sans-serif; font-size: 12px; font-weight: 200;" fill="rgb(33, 33, 33)" stroke="none" stroke-width="1px">-2e-3</text><text x="0" y="0" dx="0em" dy="0.3em" style="text-anchor: end; visibility: hidden; font-family: Roboto, sans-serif; font-size: 12px; font-weight: 200;" fill="rgb(33, 33, 33)" stroke="none" stroke-width="1px">-1.5e-3</text></g><line x1="82.734375" y1="0" x2="82.734375" y2="177" fill="rgb(0, 0, 0)" stroke="rgb(204, 204, 204)" stroke-width="1px"></line></g></g><g transform="translate(82, 0)" clip-path="url(#clip_0)"><clipPath id="clip_0"><rect width="247" height="177"></rect></clipPath><g><g><g><line x1="0" y1="0" x2="0" y2="177" fill="rgb(0, 0, 0)" stroke="rgb(66, 66, 66)" stroke-width="1px" opacity="0.25"></line><line x1="17.661830357142858" y1="0" x2="17.661830357142858" y2="177" fill="rgb(0, 0, 0)" stroke="rgb(66, 66, 66)" stroke-width="1px" opacity="0.25"></line><line x1="35.323660714285715" y1="0" x2="35.323660714285715" y2="177" fill="rgb(0, 0, 0)" stroke="rgb(66, 66, 66)" stroke-width="1px" opacity="0.25"></line><line x1="52.98549107142857" y1="0" x2="52.98549107142857" y2="177" fill="rgb(0, 0, 0)" stroke="rgb(66, 66, 66)" stroke-width="1px" opacity="0.25"></line><line x1="70.64732142857143" y1="0" x2="70.64732142857143" y2="177" fill="rgb(0, 0, 0)" stroke="rgb(66, 66, 66)" stroke-width="1px" opacity="0.25"></line><line x1="88.30915178571429" y1="0" x2="88.30915178571429" y2="177" fill="rgb(0, 0, 0)" stroke="rgb(66, 66, 66)" stroke-width="1px" opacity="0.25"></line><line x1="105.97098214285714" y1="0" x2="105.97098214285714" y2="177" fill="rgb(0, 0, 0)" stroke="rgb(66, 66, 66)" stroke-width="1px" opacity="0.25"></line><line x1="123.6328125" y1="0" x2="123.6328125" y2="177" fill="rgb(0, 0, 0)" stroke="rgb(66, 66, 66)" stroke-width="1px" opacity="0.25"></line><line x1="141.29464285714286" y1="0" x2="141.29464285714286" y2="177" fill="rgb(0, 0, 0)" stroke="rgb(66, 66, 66)" stroke-width="1px" opacity="0.25"></line><line x1="158.95647321428572" y1="0" x2="158.95647321428572" y2="177" fill="rgb(0, 0, 0)" stroke="rgb(66, 66, 66)" stroke-width="1px" opacity="0.25"></line><line x1="176.61830357142858" y1="0" x2="176.61830357142858" y2="177" fill="rgb(0, 0, 0)" stroke="rgb(66, 66, 66)" stroke-width="1px" opacity="0.25"></line><line x1="194.28013392857142" y1="0" x2="194.28013392857142" y2="177" fill="rgb(0, 0, 0)" stroke="rgb(66, 66, 66)" stroke-width="1px" opacity="0.25"></line><line x1="211.94196428571428" y1="0" x2="211.94196428571428" y2="177" fill="rgb(0, 0, 0)" stroke="rgb(66, 66, 66)" stroke-width="1px" opacity="0.25"></line><line x1="229.60379464285714" y1="0" x2="229.60379464285714" y2="177" fill="rgb(0, 0, 0)" stroke="rgb(66, 66, 66)" stroke-width="1px" opacity="0.25"></line><line x1="247.265625" y1="0" x2="247.265625" y2="177" fill="rgb(0, 0, 0)" stroke="rgb(66, 66, 66)" stroke-width="1px" opacity="0.25"></line></g><g><line x1="0" y1="177" x2="247.265625" y2="177" fill="rgb(0, 0, 0)" stroke="rgb(66, 66, 66)" stroke-width="1px" opacity="0.25"></line><line x1="0" y1="157.33333333333331" x2="247.265625" y2="157.33333333333331" fill="rgb(0, 0, 0)" stroke="rgb(66, 66, 66)" stroke-width="1px" opacity="0.25"></line><line x1="0" y1="137.66666666666666" x2="247.265625" y2="137.66666666666666" fill="rgb(0, 0, 0)" stroke="rgb(66, 66, 66)" stroke-width="1px" opacity="0.25"></line><line x1="0" y1="118" x2="247.265625" y2="118" fill="rgb(0, 0, 0)" stroke="rgb(66, 66, 66)" stroke-width="1px" opacity="0.25"></line><line x1="0" y1="98.33333333333334" x2="247.265625" y2="98.33333333333334" fill="rgb(0, 0, 0)" stroke="rgb(66, 66, 66)" stroke-width="1px" opacity="0.25"></line><line x1="0" y1="78.66666666666669" x2="247.265625" y2="78.66666666666669" fill="rgb(0, 0, 0)" stroke="rgb(66, 66, 66)" stroke-width="1px" opacity="0.25"></line><line x1="0" y1="59.00000000000001" x2="247.265625" y2="59.00000000000001" fill="rgb(0, 0, 0)" stroke="rgb(66, 66, 66)" stroke-width="1px" opacity="0.25"></line><line x1="0" y1="39.33333333333335" x2="247.265625" y2="39.33333333333335" fill="rgb(0, 0, 0)" stroke="rgb(66, 66, 66)" stroke-width="1px" opacity="0.25"></line><line x1="0" y1="19.666666666666675" x2="247.265625" y2="19.666666666666675" fill="rgb(0, 0, 0)" stroke="rgb(66, 66, 66)" stroke-width="1px" opacity="0.25"></line><line x1="0" y1="0" x2="247.265625" y2="0" fill="rgb(0, 0, 0)" stroke="rgb(66, 66, 66)" stroke-width="1px" opacity="0.25"></line></g></g></g><g><g><line x1="0" y1="-58.999999999999986" x2="247.265625" y2="-58.999999999999986" fill="rgb(0, 0, 0)" stroke="rgb(153, 153, 153)" stroke-width="1.5px"></line></g></g><g><g><line x1="17.661830357142858" y1="0" x2="17.661830357142858" y2="177" fill="rgb(0, 0, 0)" stroke="rgb(153, 153, 153)" stroke-width="1.5px"></line></g></g><g><g><g><g><g><path stroke="rgb(255, 112, 67)" stroke-width="2px" d="M20.311104910714285,183.79494894047582L22.077287946428573,147.8106183261917L23.843470982142858,128.79355298190367L25.609654017857146,115.15085485260019L27.375837053571427,102.86695019213033L29.142020089285715,102.89137412561381L30.908203125,105.86404727614759L32.674386160714285,108.42141555634647L34.44056919642857,110.80504927975853L36.20675223214286,116.22700158302698L37.972935267857146,125.08303756485174L39.73911830357143,134.68487308825533L41.50530133928571,131.89284169272955L43.271484375,136.5916949540634L45.037667410714285,138.12072135491948L46.80385044642857,138.6147492743319L48.570033482142854,143.98288665385488L50.336216517857146,154.2061524052294L52.10239955357143,154.62827492797734L53.868582589285715,156.19844513914373L56.51785714285714,152.2286113356584L58.28404017857143,142.90979101344203L60.050223214285715,152.92019695549652L61.81640625,151.0747210158819L63.58258928571428,153.27613852871974L65.34877232142857,144.90172331478092L67.11495535714285,142.28414659701295L68.88113839285714,144.80457330259708L70.64732142857143,148.12125826665215L72.41350446428572,143.4690188895228L74.1796875,144.33584859389708L75.94587053571429,148.86579066133203L77.71205357142857,157.31772782785205L79.47823660714286,160.89500813557032L81.24441964285714,154.47634450526212L83.01060267857142,157.99361275862222L84.77678571428571,156.9199115360548L86.54296875,158.31323409166177L88.30915178571429,156.53155917142723L90.07533482142857,161.35151072149657L91.84151785714286,151.79670510528533L94.49079241071428,157.8258853542396L96.25697544642857,146.0578364431977L98.02315848214285,154.52698468514794L99.78934151785714,144.39442724408536L101.55552455357143,152.52636193291585L103.32170758928572,149.8227179318938L105.087890625,153.64298234655718L106.85407366071429,148.3552749450645L108.62025669642857,149.65593981806416L110.38643973214286,147.83206170074487L112.15262276785714,144.50124458281465L113.91880580357142,138.92365108568197L115.68498883928571,140.78135953347373L117.451171875,133.01241534258693L119.21735491071429,131.2621747355524L120.98353794642857,125.87353351210584L122.74972098214286,118.10388900399774L124.51590401785714,107.10809246069064L126.28208705357142,120.36113655925008L128.04827008928572,112.10204582933721L129.814453125,102.88907914290404L132.46372767857142,92.81829185414934L134.2299107142857,92.71705755431522L135.99609375,94.02313469821102L137.76227678571428,85.32884390654489L139.52845982142858,83.97085700116585L141.29464285714286,81.59564345271765L143.06082589285717,83.9127714464705L144.82700892857144,79.9670461316216L146.59319196428572,78.01810647019683L148.359375,53.94551276427651L150.12555803571428,56.907139471407696L151.89174107142858,61.52767477818853L153.65792410714286,50.269550299502235L155.42410714285714,43.17198362168508L157.19029017857142,37.888069047436744L158.95647321428572,33.97520144806595L160.72265625,30.516481823799822L162.48883928571428,28.018657981996316L164.25502232142856,30.18992411009095L166.02120535714283,33.88561683782966L167.78738839285714,34.21849895454063L170.43666294642858,21.352644365933678L172.20284598214286,21.49083536050972L173.96902901785717,20.414908402794513L175.73521205357144,20.761622293912907L177.50139508928572,22.070683178592216L179.267578125,26.513744368475724L181.03376116071428,19.376838201991433L182.79994419642858,20.98039343838328L184.56612723214286,19.38558032390126L186.33231026785714,21.798840488150685L188.09849330357142,16.483835278168957L189.86467633928572,21.93906912967735L191.630859375,13.33549578451979L193.39704241071428,14.505789414284266L195.16322544642856,19.954135372446274L196.92940848214283,15.847752346745164L198.69559151785714,13.27724737314708L200.46177455357142,16.95644195550991L202.22795758928572,21.751198384816046L203.994140625,15.948478250197827L205.7603236607143,22.368496962804677L208.40959821428572,25.336697627212665L210.17578125,19.00814755867524L211.94196428571428,17.244397977808276L213.70814732142858,12.615386778293177L215.47433035714286,12.087170291943101L217.24051339285714,14.194000188406962L219.00669642857142,13.732113492816062L220.77287946428572,16.905779475920422L222.5390625,12.476686860670359L224.30524553571428,12.383611445766668L226.07142857142856,9.833670345161362L227.83761160714283,10.696659826669336L229.60379464285714,13.082938484126325L231.36997767857142,21.217064264452233L233.13616071428572,21.48884825924327L234.90234375,22.16617958554795L236.6685267857143,21.572172971680008L238.43470982142858,22.157956403839453" style="fill: none;" fill="none"></path></g></g></g></g><g opacity="0.2"><g><g><g><path stroke="rgb(255, 112, 67)" stroke-width="2px" d="M20.311104910714285,183.79494894047576L22.077287946428573,126.04009830454984L23.843470982142858,110.32750710596642L25.609654017857146,98.88234490901232L27.375837053571427,86.57303333034119L29.142020089285715,102.92575078457594L30.908203125,110.19385517636935L32.674386160714285,112.2221885100007L34.44056919642857,114.39040121684471L36.20675223214286,124.44133036832015L37.972935267857146,138.55823072046041L39.73911830357143,149.3330269282063L41.50530133928571,127.62672272572914L43.271484375,143.778202171127L45.037667410714285,140.4605865329504L46.80385044642857,139.37102200835943L48.570033482142854,152.2023215740919L50.336216517857146,169.86152006685734L52.10239955357143,155.27474077790976L53.868582589285715,158.60321781039238L56.51785714285714,146.14849542329708L58.28404017857143,128.63703387230635L60.050223214285715,168.25234863658747L61.81640625,148.248132986327L63.58258928571428,156.6479104111592L65.34877232142857,132.0751322284341L67.11495535714285,138.27495529999337L68.88113839285714,148.66496875633797L70.64732142857143,153.20124016205472L72.41350446428572,136.34344039857388L74.1796875,145.66352409372726L75.94587053571429,155.80405516922474L77.71205357142857,170.26309860001007L79.47823660714286,166.37413332611322L81.24441964285714,144.6452271665136L83.01060267857142,163.38082097222406L84.77678571428571,155.27538183828196L86.54296875,160.4473103930553L88.30915178571429,153.80266468723616L90.07533482142857,168.73396813621122L91.84151785714286,137.16212944189706L94.49079241071428,167.06045256058374L96.25697544642857,128.0333564778169L98.02315848214285,167.4987180630366L99.78934151785714,128.87494053443274L101.55552455357143,164.98160366962352L103.32170758928572,145.6816935762763L105.087890625,159.49427341173092L106.85407366071429,140.25638133039078L108.62025669642857,151.64809740831456L110.38643973214286,145.03852686285973L112.15262276785714,139.39961330095926L113.91880580357142,130.38075471669436L115.68498883928571,143.62671044717231L117.451171875,121.11314639200766L119.21735491071429,128.5814264640212L120.98353794642857,117.62004505594572L122.74972098214286,106.20354741563402L124.51590401785714,90.26642940069239L126.28208705357142,140.6601028367877L128.04827008928572,99.4520461037755L129.814453125,88.77807953457037L132.46372767857142,77.39341512074073L134.2299107142857,92.56200248748064L135.99609375,96.0235819692413L137.76227678571428,72.01227193449935L139.52845982142858,81.89090237393975L141.29464285714286,77.95765814433496L143.06082589285717,87.46179027234516L144.82700892857144,73.92359343419473L146.59319196428572,75.03302167231838L148.359375,17.074831265335288L150.12555803571428,61.44330189625423L151.89174107142858,68.60469721009335L153.65792410714286,33.026093819489084L155.42410714285714,32.30102706452211L157.19029017857142,29.794984699537363L158.95647321428572,27.982075124979026L160.72265625,25.218949234734L162.48883928571428,24.192877161006155L164.25502232142856,33.515534255653634L166.02120535714283,39.54610823094846L167.78738839285714,34.7283563738068L170.43666294642858,1.6467151859154412L172.20284598214286,21.702494985113564L173.96902901785717,18.766969644775003L175.73521205357144,21.292665089170146L177.50139508928572,24.075700482974465L179.267578125,33.31893935551246L181.03376116071428,8.445627491300316L182.79994419642858,23.43647171184422L184.56612723214286,16.942891882732525L186.33231026785714,25.495099727064392L188.09849330357142,8.343131095791865L189.86467633928572,30.294553889582563L191.630859375,0.15787078750632622L193.39704241071428,16.298264467467874L195.16322544642856,28.29907032102347L196.92940848214283,9.558228978266342L198.69559151785714,9.340144818648703L200.46177455357142,22.591664037356797L202.22795758928572,29.095065827171016L203.994140625,7.060767664263654L205.7603236607143,32.201690180848054L208.40959821428572,29.882929024597015L210.17578125,9.315051884079981L211.94196428571428,14.542958746353793L213.70814732142858,5.525382282833274L215.47433035714286,11.278129850824698L217.24051339285714,17.420916865269366L219.00669642857142,13.024666781847687L220.77287946428572,21.76671091839672L222.5390625,5.692886779084808L224.30524553571428,12.241052898888803L226.07142857142856,5.928064355626722L227.83761160714283,12.018453842649865L229.60379464285714,16.73787161769968L231.36997767857142,33.67566197862228L233.13616071428572,21.90512501075866L234.90234375,23.203611110647525L236.6685267857143,20.66236537322404L238.43470982142858,23.055169002463426" style="fill: none;" fill="none"></path></g></g></g></g></g></g><g transform="translate(82, 177)" clip-path="url(#clip_1)"><clipPath id="clip_1"><rect width="247" height="23"></rect></clipPath><g><g><line x1="0" y1="0" x2="0" y2="5" style="visibility: inherit;" fill="rgb(0, 0, 0)" stroke="rgb(204, 204, 204)" stroke-width="1px"></line><line x1="17.661830357142858" y1="0" x2="17.661830357142858" y2="5" style="visibility: inherit;" fill="rgb(0, 0, 0)" stroke="rgb(204, 204, 204)" stroke-width="1px"></line><line x1="35.323660714285715" y1="0" x2="35.323660714285715" y2="5" style="visibility: inherit;" fill="rgb(0, 0, 0)" stroke="rgb(204, 204, 204)" stroke-width="1px"></line><line x1="52.98549107142857" y1="0" x2="52.98549107142857" y2="5" style="visibility: inherit;" fill="rgb(0, 0, 0)" stroke="rgb(204, 204, 204)" stroke-width="1px"></line><line x1="70.64732142857143" y1="0" x2="70.64732142857143" y2="5" style="visibility: inherit;" fill="rgb(0, 0, 0)" stroke="rgb(204, 204, 204)" stroke-width="1px"></line><line x1="88.30915178571429" y1="0" x2="88.30915178571429" y2="5" style="visibility: inherit;" fill="rgb(0, 0, 0)" stroke="rgb(204, 204, 204)" stroke-width="1px"></line><line x1="105.97098214285714" y1="0" x2="105.97098214285714" y2="5" style="visibility: inherit;" fill="rgb(0, 0, 0)" stroke="rgb(204, 204, 204)" stroke-width="1px"></line><line x1="123.6328125" y1="0" x2="123.6328125" y2="5" style="visibility: inherit;" fill="rgb(0, 0, 0)" stroke="rgb(204, 204, 204)" stroke-width="1px"></line><line x1="141.29464285714286" y1="0" x2="141.29464285714286" y2="5" style="visibility: inherit;" fill="rgb(0, 0, 0)" stroke="rgb(204, 204, 204)" stroke-width="1px"></line><line x1="158.95647321428572" y1="0" x2="158.95647321428572" y2="5" style="visibility: inherit;" fill="rgb(0, 0, 0)" stroke="rgb(204, 204, 204)" stroke-width="1px"></line><line x1="176.61830357142858" y1="0" x2="176.61830357142858" y2="5" style="visibility: inherit;" fill="rgb(0, 0, 0)" stroke="rgb(204, 204, 204)" stroke-width="1px"></line><line x1="194.28013392857142" y1="0" x2="194.28013392857142" y2="5" style="visibility: inherit;" fill="rgb(0, 0, 0)" stroke="rgb(204, 204, 204)" stroke-width="1px"></line><line x1="211.94196428571428" y1="0" x2="211.94196428571428" y2="5" style="visibility: inherit;" fill="rgb(0, 0, 0)" stroke="rgb(204, 204, 204)" stroke-width="1px"></line><line x1="229.60379464285714" y1="0" x2="229.60379464285714" y2="5" style="visibility: inherit;" fill="rgb(0, 0, 0)" stroke="rgb(204, 204, 204)" stroke-width="1px"></line><line x1="247.265625" y1="0" x2="247.265625" y2="5" style="visibility: inherit;" fill="rgb(0, 0, 0)" stroke="rgb(204, 204, 204)" stroke-width="1px"></line></g><g transform="translate(0, 8)"><text x="0" y="0" dx="0em" dy="0.95em" style="text-anchor: middle; visibility: hidden; font-family: Roboto, sans-serif; font-size: 12px; font-weight: 200;" fill="rgb(33, 33, 33)" stroke="none" stroke-width="1px">-20k</text><text x="17.661830357142858" y="0" dx="0em" dy="0.95em" style="text-anchor: middle; visibility: inherit; font-family: Roboto, sans-serif; font-size: 12px; font-weight: 200;" fill="rgb(33, 33, 33)" stroke="none" stroke-width="1px">0</text><text x="35.323660714285715" y="0" dx="0em" dy="0.95em" style="text-anchor: middle; visibility: hidden; font-family: Roboto, sans-serif; font-size: 12px; font-weight: 200;" fill="rgb(33, 33, 33)" stroke="none" stroke-width="1px">20k</text><text x="52.98549107142857" y="0" dx="0em" dy="0.95em" style="text-anchor: middle; visibility: inherit; font-family: Roboto, sans-serif; font-size: 12px; font-weight: 200;" fill="rgb(33, 33, 33)" stroke="none" stroke-width="1px">40k</text><text x="70.64732142857143" y="0" dx="0em" dy="0.95em" style="text-anchor: middle; visibility: hidden; font-family: Roboto, sans-serif; font-size: 12px; font-weight: 200;" fill="rgb(33, 33, 33)" stroke="none" stroke-width="1px">60k</text><text x="88.30915178571429" y="0" dx="0em" dy="0.95em" style="text-anchor: middle; visibility: inherit; font-family: Roboto, sans-serif; font-size: 12px; font-weight: 200;" fill="rgb(33, 33, 33)" stroke="none" stroke-width="1px">80k</text><text x="105.97098214285714" y="0" dx="0em" dy="0.95em" style="text-anchor: middle; visibility: hidden; font-family: Roboto, sans-serif; font-size: 12px; font-weight: 200;" fill="rgb(33, 33, 33)" stroke="none" stroke-width="1px">100k</text><text x="123.6328125" y="0" dx="0em" dy="0.95em" style="text-anchor: middle; visibility: inherit; font-family: Roboto, sans-serif; font-size: 12px; font-weight: 200;" fill="rgb(33, 33, 33)" stroke="none" stroke-width="1px">120k</text><text x="141.29464285714286" y="0" dx="0em" dy="0.95em" style="text-anchor: middle; visibility: hidden; font-family: Roboto, sans-serif; font-size: 12px; font-weight: 200;" fill="rgb(33, 33, 33)" stroke="none" stroke-width="1px">140k</text><text x="158.95647321428572" y="0" dx="0em" dy="0.95em" style="text-anchor: middle; visibility: inherit; font-family: Roboto, sans-serif; font-size: 12px; font-weight: 200;" fill="rgb(33, 33, 33)" stroke="none" stroke-width="1px">160k</text><text x="176.61830357142858" y="0" dx="0em" dy="0.95em" style="text-anchor: middle; visibility: hidden; font-family: Roboto, sans-serif; font-size: 12px; font-weight: 200;" fill="rgb(33, 33, 33)" stroke="none" stroke-width="1px">180k</text><text x="194.28013392857142" y="0" dx="0em" dy="0.95em" style="text-anchor: middle; visibility: inherit; font-family: Roboto, sans-serif; font-size: 12px; font-weight: 200;" fill="rgb(33, 33, 33)" stroke="none" stroke-width="1px">200k</text><text x="211.94196428571428" y="0" dx="0em" dy="0.95em" style="text-anchor: middle; visibility: hidden; font-family: Roboto, sans-serif; font-size: 12px; font-weight: 200;" fill="rgb(33, 33, 33)" stroke="none" stroke-width="1px">220k</text><text x="229.60379464285714" y="0" dx="0em" dy="0.95em" style="text-anchor: middle; visibility: inherit; font-family: Roboto, sans-serif; font-size: 12px; font-weight: 200;" fill="rgb(33, 33, 33)" stroke="none" stroke-width="1px">240k</text><text x="247.265625" y="0" dx="0em" dy="0.95em" style="text-anchor: middle; visibility: hidden; font-family: Roboto, sans-serif; font-size: 12px; font-weight: 200;" fill="rgb(33, 33, 33)" stroke="none" stroke-width="1px">260k</text></g><line x1="0" y1="0" x2="247.265625" y2="0" fill="rgb(0, 0, 0)" stroke="rgb(204, 204, 204)" stroke-width="1px"></line></g></g></g></g></svg>