<svg viewBox="0 0 330 200" xmlns="http://www.w3.org/2000/svg"><g><g><g><g><g><line x1="61.953125" y1="177" x2="56.953125" y2="177" style="visibility: inherit;" fill="rgb(0, 0, 0)" stroke="rgb(204, 204, 204)" stroke-width="1px"></line><line x1="61.953125" y1="159.30000000000032" x2="56.953125" y2="159.30000000000032" style="visibility: inherit;" fill="rgb(0, 0, 0)" stroke="rgb(204, 204, 204)" stroke-width="1px"></line><line x1="61.953125" y1="141.60000000000065" x2="56.953125" y2="141.60000000000065" style="visibility: inherit;" fill="rgb(0, 0, 0)" stroke="rgb(204, 204, 204)" stroke-width="1px"></line><line x1="61.953125" y1="123.90000000000015" x2="56.953125" y2="123.90000000000015" style="visibility: inherit;" fill="rgb(0, 0, 0)" stroke="rgb(204, 204, 204)" stroke-width="1px"></line><line x1="61.953125" y1="106.20000000000047" x2="56.953125" y2="106.20000000000047" style="visibility: inherit;" fill="rgb(0, 0, 0)" stroke="rgb(204, 204, 204)" stroke-width="1px"></line><line x1="61.953125" y1="88.5" x2="56.953125" y2="88.5" style="visibility: inherit;" fill="rgb(0, 0, 0)" stroke="rgb(204, 204, 204)" stroke-width="1px"></line><line x1="61.953125" y1="70.80000000000032" x2="56.953125" y2="70.80000000000032" style="visibility: inherit;" fill="rgb(0, 0, 0)" stroke="rgb(204, 204, 204)" stroke-width="1px"></line><line x1="61.953125" y1="53.09999999999985" x2="56.953125" y2="53.09999999999985" style="visibility: inherit;" fill="rgb(0, 0, 0)" stroke="rgb(204, 204, 204)" stroke-width="1px"></line><line x1="61.953125" y1="35.40000000000015" x2="56.953125" y2="35.40000000000015" style="visibility: inherit;" fill="rgb(0, 0, 0)" stroke="rgb(204, 204, 204)" stroke-width="1px"></line><line x1="61.953125" y1="17.699999999999683" x2="56.953125" y2="17.699999999999683" style="visibility: inherit;" fill="rgb(0, 0, 0)" stroke="rgb(204, 204, 204)" stroke-width="1px"></line><line x1="61.953125" y1="0" x2="56.953125" y2="0" style="visibility: inherit;" fill="rgb(0, 0, 0)" stroke="rgb(204, 204, 204)" stroke-width="1px"></line></g><g transform="translate(51.953125, 0)"><text x="0" y="177" dx="0em" dy="0.3em" style="text-anchor: end; visibility: hidden; font-family: Roboto, sans-serif; font-size: 12px; font-weight: 200;" fill="rgb(33, 33, 33)" stroke="none" stroke-width="1px">-2.76</text><text x="0" y="159.30000000000032" dx="0em" dy="0.3em" style="text-anchor: end; visibility: inherit; font-family: Roboto, sans-serif; font-size: 12px; font-weight: 200;" fill="rgb(33, 33, 33)" stroke="none" stroke-width="1px">-2.75</text><text x="0" y="141.60000000000065" dx="0em" dy="0.3em" style="text-anchor: end; visibility: hidden; font-family: Roboto, sans-serif; font-size: 12px; font-weight: 200;" fill="rgb(33, 33, 33)" stroke="none" stroke-width="1px">-2.74</text><text x="0" y="123.90000000000015" dx="0em" dy="0.3em" style="text-anchor: end; visibility: inherit; font-family: Roboto, sans-serif; font-size: 12px; font-weight: 200;" fill="rgb(33, 33, 33)" stroke="none" stroke-width="1px">-2.73</text><text x="0" y="106.20000000000047" dx="0em" dy="0.3em" style="text-anchor: end; visibility: hidden; font-family: Roboto, sans-serif; font-size: 12px; font-weight: 200;" fill="rgb(33, 33, 33)" stroke="none" stroke-width="1px">-2.72</text><text x="0" y="88.5" dx="0em" dy="0.3em" style="text-anchor: end; visibility: inherit; font-family: Roboto, sans-serif; font-size: 12px; font-weight: 200;" fill="rgb(33, 33, 33)" stroke="none" stroke-width="1px">-2.71</text><text x="0" y="70.80000000000032" dx="0em" dy="0.3em" style="text-anchor: end; visibility: hidden; font-family: Roboto, sans-serif; font-size: 12px; font-weight: 200;" fill="rgb(33, 33, 33)" stroke="none" stroke-width="1px">-2.7</text><text x="0" y="53.09999999999985" dx="0em" dy="0.3em" style="text-anchor: end; visibility: inherit; font-family: Roboto, sans-serif; font-size: 12px; font-weight: 200;" fill="rgb(33, 33, 33)" stroke="none" stroke-width="1px">-2.69</text><text x="0" y="35.40000000000015" dx="0em" dy="0.3em" style="text-anchor: end; visibility: hidden; font-family: Roboto, sans-serif; font-size: 12px; font-weight: 200;" fill="rgb(33, 33, 33)" stroke="none" stroke-width="1px">-2.68</text><text x="0" y="17.699999999999683" dx="0em" dy="0.3em" style="text-anchor: end; visibility: inherit; font-family: Roboto, sans-serif; font-size: 12px; font-weight: 200;" fill="rgb(33, 33, 33)" stroke="none" stroke-width="1px">-2.67</text><text x="0" y="0" dx="0em" dy="0.3em" style="text-anchor: end; visibility: hidden; font-family: Roboto, sans-serif; font-size: 12px; font-weight: 200;" fill="rgb(33, 33, 33)" stroke="none" stroke-width="1px">-2.66</text></g><line x1="61.953125" y1="0" x2="61.953125" y2="177" fill="rgb(0, 0, 0)" stroke="rgb(204, 204, 204)" stroke-width="1px"></line></g></g><g transform="translate(61, 0)" clip-path="url(#clip_0)"><clipPath id="clip_0"><rect width="268" height="177"></rect></clipPath><g><g><g><line x1="0" y1="0" x2="0" y2="177" fill="rgb(0, 0, 0)" stroke="rgb(66, 66, 66)" stroke-width="1px" opacity="0.25"></line><line x1="19.146205357142858" y1="0" x2="19.146205357142858" y2="177" fill="rgb(0, 0, 0)" stroke="rgb(66, 66, 66)" stroke-width="1px" opacity="0.25"></line><line x1="38.292410714285715" y1="0" x2="38.292410714285715" y2="177" fill="rgb(0, 0, 0)" stroke="rgb(66, 66, 66)" stroke-width="1px" opacity="0.25"></line><line x1="57.43861607142857" y1="0" x2="57.43861607142857" y2="177" fill="rgb(0, 0, 0)" stroke="rgb(66, 66, 66)" stroke-width="1px" opacity="0.25"></line><line x1="76.58482142857143" y1="0" x2="76.58482142857143" y2="177" fill="rgb(0, 0, 0)" stroke="rgb(66, 66, 66)" stroke-width="1px" opacity="0.25"></line><line x1="95.73102678571429" y1="0" x2="95.73102678571429" y2="177" fill="rgb(0, 0, 0)" stroke="rgb(66, 66, 66)" stroke-width="1px" opacity="0.25"></line><line x1="114.87723214285714" y1="0" x2="114.87723214285714" y2="177" fill="rgb(0, 0, 0)" stroke="rgb(66, 66, 66)" stroke-width="1px" opacity="0.25"></line><line x1="134.0234375" y1="0" x2="134.0234375" y2="177" fill="rgb(0, 0, 0)" stroke="rgb(66, 66, 66)" stroke-width="1px" opacity="0.25"></line><line x1="153.16964285714286" y1="0" x2="153.16964285714286" y2="177" fill="rgb(0, 0, 0)" stroke="rgb(66, 66, 66)" stroke-width="1px" opacity="0.25"></line><line x1="172.31584821428572" y1="0" x2="172.31584821428572" y2="177" fill="rgb(0, 0, 0)" stroke="rgb(66, 66, 66)" stroke-width="1px" opacity="0.25"></line><line x1="191.46205357142858" y1="0" x2="191.46205357142858" y2="177" fill="rgb(0, 0, 0)" stroke="rgb(66, 66, 66)" stroke-width="1px" opacity="0.25"></line><line x1="210.60825892857142" y1="0" x2="210.60825892857142" y2="177" fill="rgb(0, 0, 0)" stroke="rgb(66, 66, 66)" stroke-width="1px" opacity="0.25"></line><line x1="229.75446428571428" y1="0" x2="229.75446428571428" y2="177" fill="rgb(0, 0, 0)" stroke="rgb(66, 66, 66)" stroke-width="1px" opacity="0.25"></line><line x1="248.90066964285714" y1="0" x2="248.90066964285714" y2="177" fill="rgb(0, 0, 0)" stroke="rgb(66, 66, 66)" stroke-width="1px" opacity="0.25"></line><line x1="268.046875" y1="0" x2="268.046875" y2="177" fill="rgb(0, 0, 0)" stroke="rgb(66, 66, 66)" stroke-width="1px" opacity="0.25"></line></g><g><line x1="0" y1="177" x2="268.046875" y2="177" fill="rgb(0, 0, 0)" stroke="rgb(66, 66, 66)" stroke-width="1px" opacity="0.25"></line><line x1="0" y1="159.30000000000032" x2="268.046875" y2="159.30000000000032" fill="rgb(0, 0, 0)" stroke="rgb(66, 66, 66)" stroke-width="1px" opacity="0.25"></line><line x1="0" y1="141.60000000000065" x2="268.046875" y2="141.60000000000065" fill="rgb(0, 0, 0)" stroke="rgb(66, 66, 66)" stroke-width="1px" opacity="0.25"></line><line x1="0" y1="123.90000000000015" x2="268.046875" y2="123.90000000000015" fill="rgb(0, 0, 0)" stroke="rgb(66, 66, 66)" stroke-width="1px" opacity="0.25"></line><line x1="0" y1="106.20000000000047" x2="268.046875" y2="106.20000000000047" fill="rgb(0, 0, 0)" stroke="rgb(66, 66, 66)" stroke-width="1px" opacity="0.25"></line><line x1="0" y1="88.5" x2="268.046875" y2="88.5" fill="rgb(0, 0, 0)" stroke="rgb(66, 66, 66)" stroke-width="1px" opacity="0.25"></line><line x1="0" y1="70.80000000000032" x2="268.046875" y2="70.80000000000032" fill="rgb(0, 0, 0)" stroke="rgb(66, 66, 66)" stroke-width="1px" opacity="0.25"></line><line x1="0" y1="53.09999999999985" x2="268.046875" y2="53.09999999999985" fill="rgb(0, 0, 0)" stroke="rgb(66, 66, 66)" stroke-width="1px" opacity="0.25"></line><line x1="0" y1="35.40000000000015" x2="268.046875" y2="35.40000000000015" fill="rgb(0, 0, 0)" stroke="rgb(66, 66, 66)" stroke-width="1px" opacity="0.25"></line><line x1="0" y1="17.699999999999683" x2="268.046875" y2="17.699999999999683" fill="rgb(0, 0, 0)" stroke="rgb(66, 66, 66)" stroke-width="1px" opacity="0.25"></line><line x1="0" y1="0" x2="268.046875" y2="0" fill="rgb(0, 0, 0)" stroke="rgb(66, 66, 66)" stroke-width="1px" opacity="0.25"></line></g></g></g><g><g><line x1="0" y1="-4708.200000000017" x2="268.046875" y2="-4708.200000000017" fill="rgb(0, 0, 0)" stroke="rgb(153, 153, 153)" stroke-width="1.5px"></line></g></g><g><g><line x1="19.146205357142858" y1="0" x2="19.146205357142858" y2="177" fill="rgb(0, 0, 0)" stroke="rgb(153, 153, 153)" stroke-width="1.5px"></line></g></g><g><g><g><g><g><path stroke="rgb(255, 112, 67)" stroke-width="2px" d="M22.018136160714285,168.0067222595218L23.932756696428573,130.87958396127382L25.847377232142858,63.143587940757676L27.761997767857146,123.7322534254097L29.676618303571427,131.91046549633242L31.591238839285715,134.70522118094027L33.505859375,149.48342155837773L35.420479910714285,108.51621133263492L37.33510044642857,51.899521863235954L39.24972098214286,101.97171625156484L41.164341517857146,68.13338379337877L43.07896205357143,15.758376917727965L44.99358258928571,46.236928302645815L46.908203125,6.792178414032059L48.822823660714285,27.84274137752753L50.73744419642857,49.0896772899687L52.652064732142854,38.020839912079445L54.566685267857146,68.87315630898395L56.48130580357143,121.68395513169557L58.395926339285715,143.47821885541532L61.26785714285714,161.3184349721998L63.18247767857143,183.55561043068323L67.01171875,247.6241360447787L68.92633928571428,148.104904894856L70.84095982142857,200.66141749888448L72.75558035714285,117.71058717543555L74.67020089285714,83.94624792119481L76.58482142857143,117.7088971615737L78.49944196428572,83.53768402638886L80.4140625,64.77271105290944L82.32868303571429,94.12219153939158L84.24330357142857,100.62469233427635L86.15792410714286,113.2622752998818L88.07254464285714,64.82204285847409L89.98716517857142,101.5040793040765L91.90178571428571,59.15920784088275L93.81640625,94.8677743475543L95.73102678571429,99.21167135892293L97.64564732142857,91.23805609900467L99.56026785714286,68.10925149723678L102.43219866071428,54.848928816593535L104.34681919642857,50.804165414177376L106.26143973214285,52.570848904829845L108.17606026785714,23.430233667306908L110.09068080357143,67.21005307430431L112.00530133928572,37.20815138319852L113.919921875,15.58717454418043L115.83454241071429,88.5565426508197L117.74916294642857,84.25162651276868L119.66378348214286,100.29680194100114L121.57840401785714,23.835557144025586L123.49302455357142,56.13533213390678L125.40764508928571,72.97947945618932L127.322265625,37.26066588579681L129.23688616071428,71.2611846505165L131.15150669642856,70.51230286306492L133.06612723214286,58.67861245450655L134.98074776785714,85.1893468494672L136.89536830357142,21.32165490009437L138.80998883928572,-1.0411527832470924L140.724609375,46.39451033295639L143.59654017857142,109.0019041909888L145.5111607142857,109.42172225983334L147.42578125,156.9779327625263L149.34040178571428,127.13011164165626L151.25502232142858,50.270992217139636L153.16964285714286,74.75497681066923L155.08426339285717,69.29924112306075L156.99888392857144,81.12100292655177L158.91350446428572,174.24338323226146L160.828125,146.5089783904754L162.74274553571428,89.93384271238972L164.65736607142858,134.31588765608993L166.57198660714286,105.52611953830511L168.48660714285714,59.44557083626185L170.40122767857142,76.72925542502293L172.31584821428572,139.90337455903264L174.23046875,91.20353391826221L176.14508928571428,70.36135521081435L178.05970982142856,71.25758928673582L179.97433035714283,41.399825088574204L181.88895089285714,2.7142812215869583L184.76088169642858,74.16367046781106L186.67550223214286,52.91839093236451L188.59012276785717,72.57544914353174L190.50474330357144,81.29718553159994L192.41936383928572,57.92026502482382L194.333984375,78.02826107863925L196.24860491071428,84.49445563909649L198.16322544642858,125.7149707005633L200.07784598214286,148.2030341739416L201.99246651785714,144.52135649156102L203.90708705357142,103.33240594455673L205.82170758928572,70.9758675364593L207.736328125,101.14489606298056L209.65094866071428,95.44992262997879L211.56556919642856,43.033172661637366L213.48018973214283,64.19821824349714L215.39481026785714,92.0425409209257L217.30943080357142,90.29288081280079L219.22405133928572,139.71317501035108L221.138671875,129.8476366560844L223.0532924107143,108.22426177105511L225.92522321428572,109.22295386558739L227.83984375,41.1264017652512L229.75446428571428,27.601586200929955L231.66908482142858,41.842258609864146L233.58370535714286,31.977739811209148L235.49832589285714,47.379408754032674L237.41294642857142,28.45607267739208L239.32756696428572,121.46162824972242L241.2421875,74.88304382292375L243.15680803571428,106.78370301446739L245.07142857142856,107.79300314676196L246.98604910714283,111.32254443827574L248.90066964285714,35.91339960520776L250.81529017857142,112.6822560173804L252.72991071428572,72.55044685968069L254.64453125,131.08746870053608L256.5591517857143,134.4156414527704L258.47377232142856,99.39509093088957" style="fill: none;" fill="none"></path></g></g></g></g><g opacity="0.2"><g><g><g><path stroke="rgb(255, 112, 67)" stroke-width="2px" d="M22.018136160714285,168.0067222595218L23.932756696428573,108.41766529083266L25.847377232142858,-2.6297575950625074L27.761997767857146,195.98242692947434L29.676618303571427,142.75840930938747L31.591238839285715,138.6388366699221L33.505859375,171.0084145545963L35.420479910714285,47.630547809600756L37.33510044642857,-33.260691833496466L39.24972098214286,177.83174686431923L41.164341517857146,16.645554828643608L43.07896205357143,-64.14271659851123L44.99358258928571,92.80700855255135L46.908203125,-53.535302352905724L48.822823660714285,60.05636386871334L50.73744419642857,81.61512308120732L52.652064732142854,21.072766113281077L54.566685267857146,116.1187594413759L56.48130580357143,202.5618427276616L58.395926339285715,176.85692481994667L61.26785714285714,188.64214353561442L72.75558035714285,-9.34041566848784L74.67020089285714,32.23131351470934L76.58482142857143,169.42126922607457L78.49944196428572,31.19952135086046L80.4140625,36.031431484222296L82.32868303571429,139.0751855850222L84.24330357142857,110.5842178344728L86.15792410714286,132.61857204437277L88.07254464285714,-9.371221733093552L89.98716517857142,157.687956619263L91.90178571428571,-5.698126029968552L93.81640625,149.5606415748599L95.73102678571429,105.86498193740857L97.64564732142857,79.02530364990237L99.56026785714286,32.68412046432482L102.43219866071428,34.53881435394274L104.34681919642857,44.60902147293081L106.26143973214285,55.27678184509272L108.17606026785714,-21.20286054611239L110.09068080357143,134.26521949768087L112.00530133928572,-8.74412841796904L115.83454241071429,200.3197520256047L117.74916294642857,77.65802078247073L119.66378348214286,124.87232379913348L121.57840401785714,-93.2759696960455L123.49302455357142,105.6071393966676L125.40764508928571,98.77874307632456L127.322265625,-17.447896671295496L129.23688616071428,123.33792858123797L131.15150669642856,69.3652813911438L133.06612723214286,40.553592967986944L134.98074776785714,125.79439573287982L136.89536830357142,-76.50101251602226L138.80998883928572,-35.2930480957035L140.724609375,119.04913358688373L143.59654017857142,204.89424161911057L145.5111607142857,110.06473474502577L147.42578125,229.81719188690244L149.34040178571428,81.41382865905766L151.25502232142858,-67.44993753433276L153.16964285714286,112.25576333999648L155.08426339285717,60.94298772811886L156.99888392857144,99.22775201797495L158.91350446428572,316.8738644599923L160.828125,104.0297000885011L162.74274553571428,3.2807868003842895L164.65736607142858,202.2934501647954L166.57198660714286,61.43039875030514L168.48660714285714,-11.133497428894334L170.40122767857142,103.20173435211191L172.31584821428572,236.6637342453009L174.23046875,16.612638759612846L176.14508928571428,38.438524532318L178.05970982142856,72.63030223846435L179.97433035714283,-4.331687164306892L184.76088169642858,183.5988109588627L186.67550223214286,20.378152656555002L188.59012276785717,102.68309526443491L190.50474330357144,94.65579442977914L192.41936383928572,22.115108299255198L194.333984375,108.82658414840712L196.24860491071428,94.39837388992318L198.16322544642858,188.85018997192424L200.07784598214286,182.64677696228065L201.99246651785714,138.88233118057275L203.90708705357142,40.245532321929815L205.82170758928572,21.417118835449045L207.736328125,147.3531549453738L209.65094866071428,86.72724180221564L211.56556919642856,-37.2507102012638L213.48018973214283,96.6155665397645L215.39481026785714,134.6901743888857L217.30943080357142,87.61302165985114L219.22405133928572,215.40754966735892L221.138671875,114.7371285438539L223.0532924107143,75.10491542816165L225.92522321428572,110.75259618759169L227.83984375,-63.1733805656438L229.75446428571428,6.886362361907727L231.66908482142858,63.653921413421614L233.58370535714286,16.868793296813774L235.49832589285714,70.96930675506592L237.41294642857142,-0.5277711868288648L239.32756696428572,263.9131753921516L241.2421875,3.541161346435315L243.15680803571428,155.6442063331607L245.07142857142856,109.33889322280898L246.98604910714283,116.72855072021501L248.90066964285714,-79.58668298721366L250.81529017857142,230.2649348258978L252.72991071428572,11.082739162444856L254.64453125,220.74543886184745L256.5591517857143,139.51322250366235L258.47377232142856,45.756019878387356" style="fill: none;" fill="none"></path></g></g></g></g></g></g><g transform="translate(61, 177)" clip-path="url(#clip_1)"><clipPath id="clip_1"><rect width="268" height="23"></rect></clipPath><g><g><line x1="0" y1="0" x2="0" y2="5" style="visibility: inherit;" fill="rgb(0, 0, 0)" stroke="rgb(204, 204, 204)" stroke-width="1px"></line><line x1="19.146205357142858" y1="0" x2="19.146205357142858" y2="5" style="visibility: inherit;" fill="rgb(0, 0, 0)" stroke="rgb(204, 204, 204)" stroke-width="1px"></line><line x1="38.292410714285715" y1="0" x2="38.292410714285715" y2="5" style="visibility: inherit;" fill="rgb(0, 0, 0)" stroke="rgb(204, 204, 204)" stroke-width="1px"></line><line x1="57.43861607142857" y1="0" x2="57.43861607142857" y2="5" style="visibility: inherit;" fill="rgb(0, 0, 0)" stroke="rgb(204, 204, 204)" stroke-width="1px"></line><line x1="76.58482142857143" y1="0" x2="76.58482142857143" y2="5" style="visibility: inherit;" fill="rgb(0, 0, 0)" stroke="rgb(204, 204, 204)" stroke-width="1px"></line><line x1="95.73102678571429" y1="0" x2="95.73102678571429" y2="5" style="visibility: inherit;" fill="rgb(0, 0, 0)" stroke="rgb(204, 204, 204)" stroke-width="1px"></line><line x1="114.87723214285714" y1="0" x2="114.87723214285714" y2="5" style="visibility: inherit;" fill="rgb(0, 0, 0)" stroke="rgb(204, 204, 204)" stroke-width="1px"></line><line x1="134.0234375" y1="0" x2="134.0234375" y2="5" style="visibility: inherit;" fill="rgb(0, 0, 0)" stroke="rgb(204, 204, 204)" stroke-width="1px"></line><line x1="153.16964285714286" y1="0" x2="153.16964285714286" y2="5" style="visibility: inherit;" fill="rgb(0, 0, 0)" stroke="rgb(204, 204, 204)" stroke-width="1px"></line><line x1="172.31584821428572" y1="0" x2="172.31584821428572" y2="5" style="visibility: inherit;" fill="rgb(0, 0, 0)" stroke="rgb(204, 204, 204)" stroke-width="1px"></line><line x1="191.46205357142858" y1="0" x2="191.46205357142858" y2="5" style="visibility: inherit;" fill="rgb(0, 0, 0)" stroke="rgb(204, 204, 204)" stroke-width="1px"></line><line x1="210.60825892857142" y1="0" x2="210.60825892857142" y2="5" style="visibility: inherit;" fill="rgb(0, 0, 0)" stroke="rgb(204, 204, 204)" stroke-width="1px"></line><line x1="229.75446428571428" y1="0" x2="229.75446428571428" y2="5" style="visibility: inherit;" fill="rgb(0, 0, 0)" stroke="rgb(204, 204, 204)" stroke-width="1px"></line><line x1="248.90066964285714" y1="0" x2="248.90066964285714" y2="5" style="visibility: inherit;" fill="rgb(0, 0, 0)" stroke="rgb(204, 204, 204)" stroke-width="1px"></line><line x1="268.046875" y1="0" x2="268.046875" y2="5" style="visibility: inherit;" fill="rgb(0, 0, 0)" stroke="rgb(204, 204, 204)" stroke-width="1px"></line></g><g transform="translate(0, 8)"><text x="0" y="0" dx="0em" dy="0.95em" style="text-anchor: middle; visibility: hidden; font-family: Roboto, sans-serif; font-size: 12px; font-weight: 200;" fill="rgb(33, 33, 33)" stroke="none" stroke-width="1px">-20k</text><text x="19.146205357142858" y="0" dx="0em" dy="0.95em" style="text-anchor: middle; visibility: inherit; font-family: Roboto, sans-serif; font-size: 12px; font-weight: 200;" fill="rgb(33, 33, 33)" stroke="none" stroke-width="1px">0</text><text x="38.292410714285715" y="0" dx="0em" dy="0.95em" style="text-anchor: middle; visibility: hidden; font-family: Roboto, sans-serif; font-size: 12px; font-weight: 200;" fill="rgb(33, 33, 33)" stroke="none" stroke-width="1px">20k</text><text x="57.43861607142857" y="0" dx="0em" dy="0.95em" style="text-anchor: middle; visibility: inherit; font-family: Roboto, sans-serif; font-size: 12px; font-weight: 200;" fill="rgb(33, 33, 33)" stroke="none" stroke-width="1px">40k</text><text x="76.58482142857143" y="0" dx="0em" dy="0.95em" style="text-anchor: middle; visibility: hidden; font-family: Roboto, sans-serif; font-size: 12px; font-weight: 200;" fill="rgb(33, 33, 33)" stroke="none" stroke-width="1px">60k</text><text x="95.73102678571429" y="0" dx="0em" dy="0.95em" style="text-anchor: middle; visibility: inherit; font-family: Roboto, sans-serif; font-size: 12px; font-weight: 200;" fill="rgb(33, 33, 33)" stroke="none" stroke-width="1px">80k</text><text x="114.87723214285714" y="0" dx="0em" dy="0.95em" style="text-anchor: middle; visibility: hidden; font-family: Roboto, sans-serif; font-size: 12px; font-weight: 200;" fill="rgb(33, 33, 33)" stroke="none" stroke-width="1px">100k</text><text x="134.0234375" y="0" dx="0em" dy="0.95em" style="text-anchor: middle; visibility: inherit; font-family: Roboto, sans-serif; font-size: 12px; font-weight: 200;" fill="rgb(33, 33, 33)" stroke="none" stroke-width="1px">120k</text><text x="153.16964285714286" y="0" dx="0em" dy="0.95em" style="text-anchor: middle; visibility: hidden; font-family: Roboto, sans-serif; font-size: 12px; font-weight: 200;" fill="rgb(33, 33, 33)" stroke="none" stroke-width="1px">140k</text><text x="172.31584821428572" y="0" dx="0em" dy="0.95em" style="text-anchor: middle; visibility: inherit; font-family: Roboto, sans-serif; font-size: 12px; font-weight: 200;" fill="rgb(33, 33, 33)" stroke="none" stroke-width="1px">160k</text><text x="191.46205357142858" y="0" dx="0em" dy="0.95em" style="text-anchor: middle; visibility: hidden; font-family: Roboto, sans-serif; font-size: 12px; font-weight: 200;" fill="rgb(33, 33, 33)" stroke="none" stroke-width="1px">180k</text><text x="210.60825892857142" y="0" dx="0em" dy="0.95em" style="text-anchor: middle; visibility: inherit; font-family: Roboto, sans-serif; font-size: 12px; font-weight: 200;" fill="rgb(33, 33, 33)" stroke="none" stroke-width="1px">200k</text><text x="229.75446428571428" y="0" dx="0em" dy="0.95em" style="text-anchor: middle; visibility: hidden; font-family: Roboto, sans-serif; font-size: 12px; font-weight: 200;" fill="rgb(33, 33, 33)" stroke="none" stroke-width="1px">220k</text><text x="248.90066964285714" y="0" dx="0em" dy="0.95em" style="text-anchor: middle; visibility: inherit; font-family: Roboto, sans-serif; font-size: 12px; font-weight: 200;" fill="rgb(33, 33, 33)" stroke="none" stroke-width="1px">240k</text><text x="268.046875" y="0" dx="0em" dy="0.95em" style="text-anchor: middle; visibility: hidden; font-family: Roboto, sans-serif; font-size: 12px; font-weight: 200;" fill="rgb(33, 33, 33)" stroke="none" stroke-width="1px">260k</text></g><line x1="0" y1="0" x2="268.046875" y2="0" fill="rgb(0, 0, 0)" stroke="rgb(204, 204, 204)" stroke-width="1px"></line></g></g></g></g></svg>