<svg viewBox="0 0 330 200" xmlns="http://www.w3.org/2000/svg"><g><g><g><g><g><line x1="72.34375" y1="177" x2="67.34375" y2="177" style="visibility: inherit;" fill="rgb(0, 0, 0)" stroke="rgb(204, 204, 204)" stroke-width="1px"></line><line x1="72.34375" y1="154.875" x2="67.34375" y2="154.875" style="visibility: inherit;" fill="rgb(0, 0, 0)" stroke="rgb(204, 204, 204)" stroke-width="1px"></line><line x1="72.34375" y1="132.75" x2="67.34375" y2="132.75" style="visibility: inherit;" fill="rgb(0, 0, 0)" stroke="rgb(204, 204, 204)" stroke-width="1px"></line><line x1="72.34375" y1="110.625" x2="67.34375" y2="110.625" style="visibility: inherit;" fill="rgb(0, 0, 0)" stroke="rgb(204, 204, 204)" stroke-width="1px"></line><line x1="72.34375" y1="88.5" x2="67.34375" y2="88.5" style="visibility: inherit;" fill="rgb(0, 0, 0)" stroke="rgb(204, 204, 204)" stroke-width="1px"></line><line x1="72.34375" y1="66.375" x2="67.34375" y2="66.375" style="visibility: inherit;" fill="rgb(0, 0, 0)" stroke="rgb(204, 204, 204)" stroke-width="1px"></line><line x1="72.34375" y1="44.25" x2="67.34375" y2="44.25" style="visibility: inherit;" fill="rgb(0, 0, 0)" stroke="rgb(204, 204, 204)" stroke-width="1px"></line><line x1="72.34375" y1="22.125" x2="67.34375" y2="22.125" style="visibility: inherit;" fill="rgb(0, 0, 0)" stroke="rgb(204, 204, 204)" stroke-width="1px"></line><line x1="72.34375" y1="0" x2="67.34375" y2="0" style="visibility: inherit;" fill="rgb(0, 0, 0)" stroke="rgb(204, 204, 204)" stroke-width="1px"></line></g><g transform="translate(62.34375, 0)"><text x="0" y="177" dx="0em" dy="0.3em" style="text-anchor: end; visibility: hidden; font-family: Roboto, sans-serif; font-size: 12px; font-weight: 200;" fill="rgb(33, 33, 33)" stroke="none" stroke-width="1px">5e+3</text><text x="0" y="154.875" dx="0em" dy="0.3em" style="text-anchor: end; visibility: inherit; font-family: Roboto, sans-serif; font-size: 12px; font-weight: 200;" fill="rgb(33, 33, 33)" stroke="none" stroke-width="1px">1e+4</text><text x="0" y="132.75" dx="0em" dy="0.3em" style="text-anchor: end; visibility: hidden; font-family: Roboto, sans-serif; font-size: 12px; font-weight: 200;" fill="rgb(33, 33, 33)" stroke="none" stroke-width="1px">1.5e+4</text><text x="0" y="110.625" dx="0em" dy="0.3em" style="text-anchor: end; visibility: inherit; font-family: Roboto, sans-serif; font-size: 12px; font-weight: 200;" fill="rgb(33, 33, 33)" stroke="none" stroke-width="1px">2e+4</text><text x="0" y="88.5" dx="0em" dy="0.3em" style="text-anchor: end; visibility: hidden; font-family: Roboto, sans-serif; font-size: 12px; font-weight: 200;" fill="rgb(33, 33, 33)" stroke="none" stroke-width="1px">2.5e+4</text><text x="0" y="66.375" dx="0em" dy="0.3em" style="text-anchor: end; visibility: inherit; font-family: Roboto, sans-serif; font-size: 12px; font-weight: 200;" fill="rgb(33, 33, 33)" stroke="none" stroke-width="1px">3e+4</text><text x="0" y="44.25" dx="0em" dy="0.3em" style="text-anchor: end; visibility: hidden; font-family: Roboto, sans-serif; font-size: 12px; font-weight: 200;" fill="rgb(33, 33, 33)" stroke="none" stroke-width="1px">3.5e+4</text><text x="0" y="22.125" dx="0em" dy="0.3em" style="text-anchor: end; visibility: inherit; font-family: Roboto, sans-serif; font-size: 12px; font-weight: 200;" fill="rgb(33, 33, 33)" stroke="none" stroke-width="1px">4e+4</text><text x="0" y="0" dx="0em" dy="0.3em" style="text-anchor: end; visibility: hidden; font-family: Roboto, sans-serif; font-size: 12px; font-weight: 200;" fill="rgb(33, 33, 33)" stroke="none" stroke-width="1px">4.5e+4</text></g><line x1="72.34375" y1="0" x2="72.34375" y2="177" fill="rgb(0, 0, 0)" stroke="rgb(204, 204, 204)" stroke-width="1px"></line></g></g><g transform="translate(72, 0)" clip-path="url(#clip_0)"><clipPath id="clip_0"><rect width="257" height="177"></rect></clipPath><g><g><g><line x1="0" y1="0" x2="0" y2="177" fill="rgb(0, 0, 0)" stroke="rgb(66, 66, 66)" stroke-width="1px" opacity="0.25"></line><line x1="18.404017857142858" y1="0" x2="18.404017857142858" y2="177" fill="rgb(0, 0, 0)" stroke="rgb(66, 66, 66)" stroke-width="1px" opacity="0.25"></line><line x1="36.808035714285715" y1="0" x2="36.808035714285715" y2="177" fill="rgb(0, 0, 0)" stroke="rgb(66, 66, 66)" stroke-width="1px" opacity="0.25"></line><line x1="55.21205357142857" y1="0" x2="55.21205357142857" y2="177" fill="rgb(0, 0, 0)" stroke="rgb(66, 66, 66)" stroke-width="1px" opacity="0.25"></line><line x1="73.61607142857143" y1="0" x2="73.61607142857143" y2="177" fill="rgb(0, 0, 0)" stroke="rgb(66, 66, 66)" stroke-width="1px" opacity="0.25"></line><line x1="92.02008928571429" y1="0" x2="92.02008928571429" y2="177" fill="rgb(0, 0, 0)" stroke="rgb(66, 66, 66)" stroke-width="1px" opacity="0.25"></line><line x1="110.42410714285714" y1="0" x2="110.42410714285714" y2="177" fill="rgb(0, 0, 0)" stroke="rgb(66, 66, 66)" stroke-width="1px" opacity="0.25"></line><line x1="128.828125" y1="0" x2="128.828125" y2="177" fill="rgb(0, 0, 0)" stroke="rgb(66, 66, 66)" stroke-width="1px" opacity="0.25"></line><line x1="147.23214285714286" y1="0" x2="147.23214285714286" y2="177" fill="rgb(0, 0, 0)" stroke="rgb(66, 66, 66)" stroke-width="1px" opacity="0.25"></line><line x1="165.63616071428572" y1="0" x2="165.63616071428572" y2="177" fill="rgb(0, 0, 0)" stroke="rgb(66, 66, 66)" stroke-width="1px" opacity="0.25"></line><line x1="184.04017857142858" y1="0" x2="184.04017857142858" y2="177" fill="rgb(0, 0, 0)" stroke="rgb(66, 66, 66)" stroke-width="1px" opacity="0.25"></line><line x1="202.44419642857142" y1="0" x2="202.44419642857142" y2="177" fill="rgb(0, 0, 0)" stroke="rgb(66, 66, 66)" stroke-width="1px" opacity="0.25"></line><line x1="220.84821428571428" y1="0" x2="220.84821428571428" y2="177" fill="rgb(0, 0, 0)" stroke="rgb(66, 66, 66)" stroke-width="1px" opacity="0.25"></line><line x1="239.25223214285714" y1="0" x2="239.25223214285714" y2="177" fill="rgb(0, 0, 0)" stroke="rgb(66, 66, 66)" stroke-width="1px" opacity="0.25"></line><line x1="257.65625" y1="0" x2="257.65625" y2="177" fill="rgb(0, 0, 0)" stroke="rgb(66, 66, 66)" stroke-width="1px" opacity="0.25"></line></g><g><line x1="0" y1="177" x2="257.65625" y2="177" fill="rgb(0, 0, 0)" stroke="rgb(66, 66, 66)" stroke-width="1px" opacity="0.25"></line><line x1="0" y1="154.875" x2="257.65625" y2="154.875" fill="rgb(0, 0, 0)" stroke="rgb(66, 66, 66)" stroke-width="1px" opacity="0.25"></line><line x1="0" y1="132.75" x2="257.65625" y2="132.75" fill="rgb(0, 0, 0)" stroke="rgb(66, 66, 66)" stroke-width="1px" opacity="0.25"></line><line x1="0" y1="110.625" x2="257.65625" y2="110.625" fill="rgb(0, 0, 0)" stroke="rgb(66, 66, 66)" stroke-width="1px" opacity="0.25"></line><line x1="0" y1="88.5" x2="257.65625" y2="88.5" fill="rgb(0, 0, 0)" stroke="rgb(66, 66, 66)" stroke-width="1px" opacity="0.25"></line><line x1="0" y1="66.375" x2="257.65625" y2="66.375" fill="rgb(0, 0, 0)" stroke="rgb(66, 66, 66)" stroke-width="1px" opacity="0.25"></line><line x1="0" y1="44.25" x2="257.65625" y2="44.25" fill="rgb(0, 0, 0)" stroke="rgb(66, 66, 66)" stroke-width="1px" opacity="0.25"></line><line x1="0" y1="22.125" x2="257.65625" y2="22.125" fill="rgb(0, 0, 0)" stroke="rgb(66, 66, 66)" stroke-width="1px" opacity="0.25"></line><line x1="0" y1="0" x2="257.65625" y2="0" fill="rgb(0, 0, 0)" stroke="rgb(66, 66, 66)" stroke-width="1px" opacity="0.25"></line></g></g></g><g><g><line x1="0" y1="199.125" x2="257.65625" y2="199.125" fill="rgb(0, 0, 0)" stroke="rgb(153, 153, 153)" stroke-width="1.5px"></line></g></g><g><g><line x1="18.404017857142858" y1="0" x2="18.404017857142858" y2="177" fill="rgb(0, 0, 0)" stroke="rgb(153, 153, 153)" stroke-width="1.5px"></line></g></g><g><g><g><g><g><path stroke="rgb(255, 112, 67)" stroke-width="2px" d="M21.164620535714285,2.5897658203125085L23.005022321428573,14.632565725394247L24.845424107142858,-12.495054561601336L26.685825892857146,10.505228583950696L28.526227678571427,1.164526671153973L30.366629464285715,8.077519124257194L32.20703125,20.90530110513499L34.047433035714285,21.887688517719784L35.88783482142857,33.9005701451053L37.72823660714286,45.44788560052424L39.568638392857146,53.76499820717173L41.40904017857143,42.5429876580161L43.24944196428571,36.45876123810855L45.08984375,30.684116326071038L46.930245535714285,44.44016849128244L48.77064732142857,40.98833578132376L50.611049107142854,57.65464272090881L52.451450892857146,59.04146695255863L54.29185267857143,45.60498700839126L56.132254464285715,66.59081377253905L58.89285714285714,77.48763785414356L60.73325892857143,84.42432162827677L62.573660714285715,88.91461553743522L64.4140625,92.98348179432507L66.25446428571428,79.57339066945931L68.09486607142857,85.19794885422704L69.93526785714285,89.56816030052418L71.77566964285714,98.25474806314159L73.61607142857143,106.37551917600562L75.45647321428572,100.01850057469858L77.296875,99.40198842722639L79.13727678571429,92.36166731680159L80.97767857142857,98.06469735456402L82.81808035714286,108.71199123174881L84.65848214285714,114.39751809102466L86.49888392857142,115.56126902619414L88.33928571428571,122.10357714193744L90.1796875,109.8481783985332L92.02008928571429,109.37483229562176L93.86049107142857,116.12591815396756L95.70089285714286,113.92653693965579L98.46149553571428,119.1394364106402L100.30189732142857,119.35719976241388L102.14229910714285,134.53846270831616L103.98270089285714,130.41596552750838L105.82310267857143,129.55221927809686L107.66350446428572,129.91668399761934L109.50390625,132.32262120047608L111.34430803571429,124.7633908598265L113.18470982142857,129.63622845707107L115.02511160714286,137.11999498330707L116.86551339285714,139.6256383930126L118.70591517857142,143.43507360644503L120.54631696428571,144.61730819254572L122.38671875,142.64164510590226L124.22712053571429,133.0409848576686L126.06752232142857,139.31388204531268L127.90792410714286,138.0514504964227L129.74832589285714,141.06547396146894L131.58872767857142,146.07089973277309L133.42912946428572,146.9807373415016L135.26953125,145.89882746660842L138.03013392857142,144.54836341283033L139.8705357142857,146.64344261830237L141.7109375,148.4650845853425L143.55133928571428,146.22680279730113L145.39174107142858,143.73429775596583L147.23214285714286,147.86828665285736L149.07254464285717,152.8629855044465L150.91294642857144,150.01218288058075L152.75334821428572,151.45521640117423L154.59375,152.20637836570356L156.43415178571428,152.58475270519597L158.27455357142858,149.87164393229784L160.11495535714286,149.71648210308805L161.95535714285714,146.55480863831067L163.79575892857142,145.24096939927364L165.63616071428572,146.82683042784473L167.4765625,146.1802762273275L169.31696428571428,148.7693026735634L171.15736607142856,150.63858543183693L172.99776785714283,154.19387240195957L174.83816964285714,153.98775525338084L177.59877232142858,151.4603595167964L179.43917410714286,154.79302671920968L181.27957589285717,149.79583440389138L183.11997767857144,145.89153919057497L184.96037946428572,148.9253389544385L186.80078125,152.03762756816772L188.64118303571428,161.16102000405886L190.48158482142858,153.17106491275834L192.32198660714286,147.67883841919146L194.16238839285714,151.64009367561766L196.00279017857142,154.42091420719595L197.84319196428572,153.73275003932326L199.68359375,154.4246880721304L201.52399553571428,157.5427481907434L203.36439732142856,155.54888011414L205.20479910714283,155.86934849883986L207.04520089285714,157.5295522023938L208.88560267857142,156.1612061130879L210.72600446428572,155.0137328644338L212.56640625,152.89360058610745L214.4068080357143,149.04203760447294L217.16741071428572,152.47751834555476L219.0078125,153.97957461920222L220.84821428571428,157.98063385250308L222.68861607142858,161.48971007726095L224.52901785714286,156.45730633416963L226.36941964285714,155.1629360180857L228.20982142857142,158.18048692216743L230.05022321428572,160.64306825044793L231.890625,162.75844645240966L233.73102678571428,159.55416741828304L235.57142857142856,158.72909275436984L237.41183035714283,162.18878435369845L239.25223214285714,158.04877410600903L241.09263392857142,157.57591285183565L242.93303571428572,156.7991722148137L244.7734375,155.82548231630506L246.6138392857143,161.7086641294285L248.45424107142858,160.38596344808454" style="fill: none;" fill="none"></path></g></g></g></g><g opacity="0.2"><g><g><g><path stroke="rgb(255, 112, 67)" stroke-width="2px" d="M21.164620535714285,2.5897658203125085L23.005022321428573,21.918459667968758L24.845424107142858,-38.83665205078125L26.685825892857146,37.9323791015625L28.526227678571427,-11.225395312499984L30.366629464285715,17.8075482421875L32.20703125,39.589437890625L34.047433035714285,23.3477173828125L35.88783482142857,51.96979277343749L37.72823660714286,62.94221982421875L39.568638392857146,66.42017475585938L41.40904017857143,25.423163378906256L43.24944196428571,27.162292089843746L45.08984375,21.852274804687497L46.930245535714285,65.49101982421875L48.77064732142857,35.704166894531255L50.611049107142854,83.17329389648438L52.451450892857146,61.16517612304688L54.29185267857143,25.027488867187493L56.132254464285715,98.73136918945312L58.89285714285714,94.17698979492187L60.73325892857143,95.04858515625001L62.573660714285715,95.79204565429689L64.4140625,99.21548320312499L66.25446428571428,59.03400278320312L68.09486607142857,93.81274833984375L69.93526785714285,96.2617611328125L71.77566964285714,111.55950468750001L73.61607142857143,118.81365263671876L75.45647321428572,90.28180576171873L77.296875,98.45771059570312L79.13727678571429,81.57839252929688L80.97767857142857,106.79971713867188L82.81808035714286,125.01987070312501L84.65848214285714,123.10572978515624L86.49888392857142,117.34372294921873L88.33928571428571,132.12407424316407L90.1796875,91.0772513671875L92.02008928571429,108.64983383789063L93.86049107142857,126.4661888671875L95.70089285714286,110.55786445312499L98.46149553571428,127.12375078125L100.30189732142857,119.69073603515626L102.14229910714285,157.79077683105467L103.98270089285714,124.10176098632812L105.82310267857143,128.22926616210938L107.66350446428572,130.4749147705078L109.50390625,136.0076642578125L111.34430803571429,113.18532919921876L113.18470982142857,137.09968857421876L115.02511160714286,148.58247282714845L116.86551339285714,143.46339602050782L118.70591517857142,149.26977817382812L120.54631696428571,146.42807255859375L122.38671875,139.61562949218748L124.22712053571429,118.33617612304688L126.06752232142857,148.92173723144532L127.90792410714286,136.11785280761717L129.74832589285714,145.6818896484375L131.58872767857142,153.73743793945312L133.42912946428572,148.37428608398437L135.26953125,144.241725L138.03013392857142,142.4799311279297L139.8705357142857,149.8523614013672L141.7109375,151.25519443359374L143.55133928571428,142.79854841308594L145.39174107142858,139.91666345214844L147.23214285714286,154.20009243164063L149.07254464285717,160.5130938720703L150.91294642857144,145.645763671875L152.75334821428572,153.6654322998047L154.59375,153.35689226074217L156.43415178571428,153.1642880859375L158.27455357142858,145.71612290039062L160.11495535714286,149.4788291748047L161.95535714285714,141.71224548339845L163.79575892857142,143.22863334960937L165.63616071428572,149.25580744628905L167.4765625,145.18998435058592L169.31696428571428,152.7347735595703L171.15736607142856,153.50166408691405L172.99776785714283,159.63931193847657L174.83816964285714,153.6720568359375L177.59877232142858,147.58928503417968L179.43917410714286,159.89749167480468L181.27957589285717,142.14190693359376L183.11997767857144,139.91154272460938L184.96037946428572,153.572044921875L186.80078125,156.80455063476563L188.64118303571428,175.13482360839845L190.48158482142858,140.93328559570313L192.32198660714286,139.26669404296874L194.16238839285714,157.70733273925782L196.00279017857142,158.68014565429687L197.84319196428572,152.6787264404297L199.68359375,155.48449189453126L201.52399553571428,162.31851115722657L203.36439732142856,152.49498090820313L205.20479910714283,156.36019248046875L207.04520089285714,160.07239584960936L208.88560267857142,154.06538488769533L210.72600446428572,153.256210546875L212.56640625,149.64630937500002L214.4068080357143,143.14280822753906L217.16741071428572,157.73945720214843L219.0078125,156.2801924560547L220.84821428571428,164.10883850097656L222.68861607142858,166.8643711303711L224.52901785714286,148.74944743652344L226.36941964285714,153.1804194580078L228.20982142857142,162.80230539550783L230.05022321428572,164.41487003173827L231.890625,165.99845610351562L233.73102678571428,154.64634763183594L235.57142857142856,157.46537080078124L237.41183035714283,167.4878056640625L239.25223214285714,151.70774575195313L241.09263392857142,156.85165700683592L242.93303571428572,155.609480859375L244.7734375,154.3341344970703L246.6138392857143,170.71961348876954L248.45424107142858,158.36005480957033" style="fill: none;" fill="none"></path></g></g></g></g></g></g><g transform="translate(72, 177)" clip-path="url(#clip_1)"><clipPath id="clip_1"><rect width="257" height="23"></rect></clipPath><g><g><line x1="0" y1="0" x2="0" y2="5" style="visibility: inherit;" fill="rgb(0, 0, 0)" stroke="rgb(204, 204, 204)" stroke-width="1px"></line><line x1="18.404017857142858" y1="0" x2="18.404017857142858" y2="5" style="visibility: inherit;" fill="rgb(0, 0, 0)" stroke="rgb(204, 204, 204)" stroke-width="1px"></line><line x1="36.808035714285715" y1="0" x2="36.808035714285715" y2="5" style="visibility: inherit;" fill="rgb(0, 0, 0)" stroke="rgb(204, 204, 204)" stroke-width="1px"></line><line x1="55.21205357142857" y1="0" x2="55.21205357142857" y2="5" style="visibility: inherit;" fill="rgb(0, 0, 0)" stroke="rgb(204, 204, 204)" stroke-width="1px"></line><line x1="73.61607142857143" y1="0" x2="73.61607142857143" y2="5" style="visibility: inherit;" fill="rgb(0, 0, 0)" stroke="rgb(204, 204, 204)" stroke-width="1px"></line><line x1="92.02008928571429" y1="0" x2="92.02008928571429" y2="5" style="visibility: inherit;" fill="rgb(0, 0, 0)" stroke="rgb(204, 204, 204)" stroke-width="1px"></line><line x1="110.42410714285714" y1="0" x2="110.42410714285714" y2="5" style="visibility: inherit;" fill="rgb(0, 0, 0)" stroke="rgb(204, 204, 204)" stroke-width="1px"></line><line x1="128.828125" y1="0" x2="128.828125" y2="5" style="visibility: inherit;" fill="rgb(0, 0, 0)" stroke="rgb(204, 204, 204)" stroke-width="1px"></line><line x1="147.23214285714286" y1="0" x2="147.23214285714286" y2="5" style="visibility: inherit;" fill="rgb(0, 0, 0)" stroke="rgb(204, 204, 204)" stroke-width="1px"></line><line x1="165.63616071428572" y1="0" x2="165.63616071428572" y2="5" style="visibility: inherit;" fill="rgb(0, 0, 0)" stroke="rgb(204, 204, 204)" stroke-width="1px"></line><line x1="184.04017857142858" y1="0" x2="184.04017857142858" y2="5" style="visibility: inherit;" fill="rgb(0, 0, 0)" stroke="rgb(204, 204, 204)" stroke-width="1px"></line><line x1="202.44419642857142" y1="0" x2="202.44419642857142" y2="5" style="visibility: inherit;" fill="rgb(0, 0, 0)" stroke="rgb(204, 204, 204)" stroke-width="1px"></line><line x1="220.84821428571428" y1="0" x2="220.84821428571428" y2="5" style="visibility: inherit;" fill="rgb(0, 0, 0)" stroke="rgb(204, 204, 204)" stroke-width="1px"></line><line x1="239.25223214285714" y1="0" x2="239.25223214285714" y2="5" style="visibility: inherit;" fill="rgb(0, 0, 0)" stroke="rgb(204, 204, 204)" stroke-width="1px"></line><line x1="257.65625" y1="0" x2="257.65625" y2="5" style="visibility: inherit;" fill="rgb(0, 0, 0)" stroke="rgb(204, 204, 204)" stroke-width="1px"></line></g><g transform="translate(0, 8)"><text x="0" y="0" dx="0em" dy="0.95em" style="text-anchor: middle; visibility: hidden; font-family: Roboto, sans-serif; font-size: 12px; font-weight: 200;" fill="rgb(33, 33, 33)" stroke="none" stroke-width="1px">-20k</text><text x="18.404017857142858" y="0" dx="0em" dy="0.95em" style="text-anchor: middle; visibility: inherit; font-family: Roboto, sans-serif; font-size: 12px; font-weight: 200;" fill="rgb(33, 33, 33)" stroke="none" stroke-width="1px">0</text><text x="36.808035714285715" y="0" dx="0em" dy="0.95em" style="text-anchor: middle; visibility: hidden; font-family: Roboto, sans-serif; font-size: 12px; font-weight: 200;" fill="rgb(33, 33, 33)" stroke="none" stroke-width="1px">20k</text><text x="55.21205357142857" y="0" dx="0em" dy="0.95em" style="text-anchor: middle; visibility: inherit; font-family: Roboto, sans-serif; font-size: 12px; font-weight: 200;" fill="rgb(33, 33, 33)" stroke="none" stroke-width="1px">40k</text><text x="73.61607142857143" y="0" dx="0em" dy="0.95em" style="text-anchor: middle; visibility: hidden; font-family: Roboto, sans-serif; font-size: 12px; font-weight: 200;" fill="rgb(33, 33, 33)" stroke="none" stroke-width="1px">60k</text><text x="92.02008928571429" y="0" dx="0em" dy="0.95em" style="text-anchor: middle; visibility: inherit; font-family: Roboto, sans-serif; font-size: 12px; font-weight: 200;" fill="rgb(33, 33, 33)" stroke="none" stroke-width="1px">80k</text><text x="110.42410714285714" y="0" dx="0em" dy="0.95em" style="text-anchor: middle; visibility: hidden; font-family: Roboto, sans-serif; font-size: 12px; font-weight: 200;" fill="rgb(33, 33, 33)" stroke="none" stroke-width="1px">100k</text><text x="128.828125" y="0" dx="0em" dy="0.95em" style="text-anchor: middle; visibility: inherit; font-family: Roboto, sans-serif; font-size: 12px; font-weight: 200;" fill="rgb(33, 33, 33)" stroke="none" stroke-width="1px">120k</text><text x="147.23214285714286" y="0" dx="0em" dy="0.95em" style="text-anchor: middle; visibility: hidden; font-family: Roboto, sans-serif; font-size: 12px; font-weight: 200;" fill="rgb(33, 33, 33)" stroke="none" stroke-width="1px">140k</text><text x="165.63616071428572" y="0" dx="0em" dy="0.95em" style="text-anchor: middle; visibility: inherit; font-family: Roboto, sans-serif; font-size: 12px; font-weight: 200;" fill="rgb(33, 33, 33)" stroke="none" stroke-width="1px">160k</text><text x="184.04017857142858" y="0" dx="0em" dy="0.95em" style="text-anchor: middle; visibility: hidden; font-family: Roboto, sans-serif; font-size: 12px; font-weight: 200;" fill="rgb(33, 33, 33)" stroke="none" stroke-width="1px">180k</text><text x="202.44419642857142" y="0" dx="0em" dy="0.95em" style="text-anchor: middle; visibility: inherit; font-family: Roboto, sans-serif; font-size: 12px; font-weight: 200;" fill="rgb(33, 33, 33)" stroke="none" stroke-width="1px">200k</text><text x="220.84821428571428" y="0" dx="0em" dy="0.95em" style="text-anchor: middle; visibility: hidden; font-family: Roboto, sans-serif; font-size: 12px; font-weight: 200;" fill="rgb(33, 33, 33)" stroke="none" stroke-width="1px">220k</text><text x="239.25223214285714" y="0" dx="0em" dy="0.95em" style="text-anchor: middle; visibility: inherit; font-family: Roboto, sans-serif; font-size: 12px; font-weight: 200;" fill="rgb(33, 33, 33)" stroke="none" stroke-width="1px">240k</text><text x="257.65625" y="0" dx="0em" dy="0.95em" style="text-anchor: middle; visibility: hidden; font-family: Roboto, sans-serif; font-size: 12px; font-weight: 200;" fill="rgb(33, 33, 33)" stroke="none" stroke-width="1px">260k</text></g><line x1="0" y1="0" x2="257.65625" y2="0" fill="rgb(0, 0, 0)" stroke="rgb(204, 204, 204)" stroke-width="1px"></line></g></g></g></g></svg>