<svg viewBox="0 0 330 200" xmlns="http://www.w3.org/2000/svg"><g><g><g><g><g><line x1="41.171875" y1="177" x2="36.171875" y2="177" style="visibility: inherit;" fill="rgb(0, 0, 0)" stroke="rgb(204, 204, 204)" stroke-width="1px"></line><line x1="41.171875" y1="154.875" x2="36.171875" y2="154.875" style="visibility: inherit;" fill="rgb(0, 0, 0)" stroke="rgb(204, 204, 204)" stroke-width="1px"></line><line x1="41.171875" y1="132.75" x2="36.171875" y2="132.75" style="visibility: inherit;" fill="rgb(0, 0, 0)" stroke="rgb(204, 204, 204)" stroke-width="1px"></line><line x1="41.171875" y1="110.625" x2="36.171875" y2="110.625" style="visibility: inherit;" fill="rgb(0, 0, 0)" stroke="rgb(204, 204, 204)" stroke-width="1px"></line><line x1="41.171875" y1="88.5" x2="36.171875" y2="88.5" style="visibility: inherit;" fill="rgb(0, 0, 0)" stroke="rgb(204, 204, 204)" stroke-width="1px"></line><line x1="41.171875" y1="66.375" x2="36.171875" y2="66.375" style="visibility: inherit;" fill="rgb(0, 0, 0)" stroke="rgb(204, 204, 204)" stroke-width="1px"></line><line x1="41.171875" y1="44.25000000000002" x2="36.171875" y2="44.25000000000002" style="visibility: inherit;" fill="rgb(0, 0, 0)" stroke="rgb(204, 204, 204)" stroke-width="1px"></line><line x1="41.171875" y1="22.125" x2="36.171875" y2="22.125" style="visibility: inherit;" fill="rgb(0, 0, 0)" stroke="rgb(204, 204, 204)" stroke-width="1px"></line><line x1="41.171875" y1="0" x2="36.171875" y2="0" style="visibility: inherit;" fill="rgb(0, 0, 0)" stroke="rgb(204, 204, 204)" stroke-width="1px"></line></g><g transform="translate(31.171875, 0)"><text x="0" y="177" dx="0em" dy="0.3em" style="text-anchor: end; visibility: hidden; font-family: Roboto, sans-serif; font-size: 12px; font-weight: 200;" fill="rgb(33, 33, 33)" stroke="none" stroke-width="1px">0.1</text><text x="0" y="154.875" dx="0em" dy="0.3em" style="text-anchor: end; visibility: inherit; font-family: Roboto, sans-serif; font-size: 12px; font-weight: 200;" fill="rgb(33, 33, 33)" stroke="none" stroke-width="1px">0.2</text><text x="0" y="132.75" dx="0em" dy="0.3em" style="text-anchor: end; visibility: hidden; font-family: Roboto, sans-serif; font-size: 12px; font-weight: 200;" fill="rgb(33, 33, 33)" stroke="none" stroke-width="1px">0.3</text><text x="0" y="110.625" dx="0em" dy="0.3em" style="text-anchor: end; visibility: inherit; font-family: Roboto, sans-serif; font-size: 12px; font-weight: 200;" fill="rgb(33, 33, 33)" stroke="none" stroke-width="1px">0.4</text><text x="0" y="88.5" dx="0em" dy="0.3em" style="text-anchor: end; visibility: hidden; font-family: Roboto, sans-serif; font-size: 12px; font-weight: 200;" fill="rgb(33, 33, 33)" stroke="none" stroke-width="1px">0.5</text><text x="0" y="66.375" dx="0em" dy="0.3em" style="text-anchor: end; visibility: inherit; font-family: Roboto, sans-serif; font-size: 12px; font-weight: 200;" fill="rgb(33, 33, 33)" stroke="none" stroke-width="1px">0.6</text><text x="0" y="44.25000000000002" dx="0em" dy="0.3em" style="text-anchor: end; visibility: hidden; font-family: Roboto, sans-serif; font-size: 12px; font-weight: 200;" fill="rgb(33, 33, 33)" stroke="none" stroke-width="1px">0.7</text><text x="0" y="22.125" dx="0em" dy="0.3em" style="text-anchor: end; visibility: inherit; font-family: Roboto, sans-serif; font-size: 12px; font-weight: 200;" fill="rgb(33, 33, 33)" stroke="none" stroke-width="1px">0.8</text><text x="0" y="0" dx="0em" dy="0.3em" style="text-anchor: end; visibility: hidden; font-family: Roboto, sans-serif; font-size: 12px; font-weight: 200;" fill="rgb(33, 33, 33)" stroke="none" stroke-width="1px">0.9</text></g><line x1="41.171875" y1="0" x2="41.171875" y2="177" fill="rgb(0, 0, 0)" stroke="rgb(204, 204, 204)" stroke-width="1px"></line></g></g><g transform="translate(41, 0)" clip-path="url(#clip_0)"><clipPath id="clip_0"><rect width="288" height="177"></rect></clipPath><g><g><g><line x1="0" y1="0" x2="0" y2="177" fill="rgb(0, 0, 0)" stroke="rgb(66, 66, 66)" stroke-width="1px" opacity="0.25"></line><line x1="20.630580357142858" y1="0" x2="20.630580357142858" y2="177" fill="rgb(0, 0, 0)" stroke="rgb(66, 66, 66)" stroke-width="1px" opacity="0.25"></line><line x1="41.261160714285715" y1="0" x2="41.261160714285715" y2="177" fill="rgb(0, 0, 0)" stroke="rgb(66, 66, 66)" stroke-width="1px" opacity="0.25"></line><line x1="61.89174107142857" y1="0" x2="61.89174107142857" y2="177" fill="rgb(0, 0, 0)" stroke="rgb(66, 66, 66)" stroke-width="1px" opacity="0.25"></line><line x1="82.52232142857143" y1="0" x2="82.52232142857143" y2="177" fill="rgb(0, 0, 0)" stroke="rgb(66, 66, 66)" stroke-width="1px" opacity="0.25"></line><line x1="103.15290178571429" y1="0" x2="103.15290178571429" y2="177" fill="rgb(0, 0, 0)" stroke="rgb(66, 66, 66)" stroke-width="1px" opacity="0.25"></line><line x1="123.78348214285714" y1="0" x2="123.78348214285714" y2="177" fill="rgb(0, 0, 0)" stroke="rgb(66, 66, 66)" stroke-width="1px" opacity="0.25"></line><line x1="144.4140625" y1="0" x2="144.4140625" y2="177" fill="rgb(0, 0, 0)" stroke="rgb(66, 66, 66)" stroke-width="1px" opacity="0.25"></line><line x1="165.04464285714286" y1="0" x2="165.04464285714286" y2="177" fill="rgb(0, 0, 0)" stroke="rgb(66, 66, 66)" stroke-width="1px" opacity="0.25"></line><line x1="185.67522321428572" y1="0" x2="185.67522321428572" y2="177" fill="rgb(0, 0, 0)" stroke="rgb(66, 66, 66)" stroke-width="1px" opacity="0.25"></line><line x1="206.30580357142858" y1="0" x2="206.30580357142858" y2="177" fill="rgb(0, 0, 0)" stroke="rgb(66, 66, 66)" stroke-width="1px" opacity="0.25"></line><line x1="226.93638392857142" y1="0" x2="226.93638392857142" y2="177" fill="rgb(0, 0, 0)" stroke="rgb(66, 66, 66)" stroke-width="1px" opacity="0.25"></line><line x1="247.56696428571428" y1="0" x2="247.56696428571428" y2="177" fill="rgb(0, 0, 0)" stroke="rgb(66, 66, 66)" stroke-width="1px" opacity="0.25"></line><line x1="268.19754464285717" y1="0" x2="268.19754464285717" y2="177" fill="rgb(0, 0, 0)" stroke="rgb(66, 66, 66)" stroke-width="1px" opacity="0.25"></line><line x1="288.828125" y1="0" x2="288.828125" y2="177" fill="rgb(0, 0, 0)" stroke="rgb(66, 66, 66)" stroke-width="1px" opacity="0.25"></line></g><g><line x1="0" y1="177" x2="288.828125" y2="177" fill="rgb(0, 0, 0)" stroke="rgb(66, 66, 66)" stroke-width="1px" opacity="0.25"></line><line x1="0" y1="154.875" x2="288.828125" y2="154.875" fill="rgb(0, 0, 0)" stroke="rgb(66, 66, 66)" stroke-width="1px" opacity="0.25"></line><line x1="0" y1="132.75" x2="288.828125" y2="132.75" fill="rgb(0, 0, 0)" stroke="rgb(66, 66, 66)" stroke-width="1px" opacity="0.25"></line><line x1="0" y1="110.625" x2="288.828125" y2="110.625" fill="rgb(0, 0, 0)" stroke="rgb(66, 66, 66)" stroke-width="1px" opacity="0.25"></line><line x1="0" y1="88.5" x2="288.828125" y2="88.5" fill="rgb(0, 0, 0)" stroke="rgb(66, 66, 66)" stroke-width="1px" opacity="0.25"></line><line x1="0" y1="66.375" x2="288.828125" y2="66.375" fill="rgb(0, 0, 0)" stroke="rgb(66, 66, 66)" stroke-width="1px" opacity="0.25"></line><line x1="0" y1="44.25000000000002" x2="288.828125" y2="44.25000000000002" fill="rgb(0, 0, 0)" stroke="rgb(66, 66, 66)" stroke-width="1px" opacity="0.25"></line><line x1="0" y1="22.125" x2="288.828125" y2="22.125" fill="rgb(0, 0, 0)" stroke="rgb(66, 66, 66)" stroke-width="1px" opacity="0.25"></line><line x1="0" y1="0" x2="288.828125" y2="0" fill="rgb(0, 0, 0)" stroke="rgb(66, 66, 66)" stroke-width="1px" opacity="0.25"></line></g></g></g><g><g><line x1="0" y1="199.125" x2="288.828125" y2="199.125" fill="rgb(0, 0, 0)" stroke="rgb(153, 153, 153)" stroke-width="1.5px"></line></g></g><g><g><line x1="20.630580357142858" y1="0" x2="20.630580357142858" y2="177" fill="rgb(0, 0, 0)" stroke="rgb(153, 153, 153)" stroke-width="1.5px"></line></g></g><g><g><g><g><g><path stroke="rgb(255, 112, 67)" stroke-width="2px" d="M31.977399553571427,181.49322044553753L34.040457589285715,176.3742124438192L36.103515625,171.60922231426514L38.166573660714285,165.87340189923864L40.22963169642857,160.96878521286266L42.29268973214286,155.91668904266794L44.355747767857146,151.80252872643413L46.41880580357143,147.10946510635785L48.48186383928571,141.4343706786121L50.544921875,138.1161441071519L52.607979910714285,133.4360354899565L54.67103794642857,130.75004521289682L56.734095982142854,125.06217976596632L58.797154017857146,119.27536408990592L60.86021205357143,114.60971733211296L62.923270089285715,113.11824508938231L66.01785714285714,106.60772071612729L68.08091517857143,103.32599727551099L70.14397321428571,98.52556165153771L72.20703125,96.53147217796445L74.27008928571428,94.88366818521621L76.33314732142857,92.30947611655604L78.39620535714285,90.63540476605978L80.45926339285714,86.56881296979157L82.52232142857143,82.89239524244057L84.58537946428572,80.61400485809605L86.6484375,77.82098723614762L88.71149553571429,74.86992838135542L90.77455357142857,73.64493012257444L92.83761160714286,70.93482848631012L94.90066964285714,68.12416523820228L96.96372767857142,65.70018412349813L99.02678571428571,63.95684457007958L101.08984375,62.31405101139909L103.15290178571429,62.60478093297735L105.21595982142857,61.008691606759086L107.27901785714286,60.107634449596496L110.37360491071428,59.42081328199176L112.43666294642857,56.820413554175275L114.49972098214285,54.06001346767635L116.56277901785714,53.3975676974768L118.62583705357143,49.535947341076835L120.68889508928572,47.887848133952886L122.751953125,47.12861524255759L124.81501116071429,45.77018285207355L126.87806919642857,44.26007722057547L128.94112723214286,42.84860612099591L131.00418526785714,41.82565771850346L133.06724330357142,41.23804921183828L135.13030133928572,40.162047865544714L137.193359375,39.763175786629674L139.25641741071428,39.177788461061674L141.31947544642856,38.261637824561326L143.38253348214286,37.44764228854122L145.44559151785714,37.37658902927829L147.50864955357142,35.66433860137427L149.57170758928572,35.20015936432767L151.634765625,34.68677705195827L154.72935267857142,33.522575100001724L156.7924107142857,32.75028055624754L158.85546875,31.89335678347484L160.91852678571428,33.21599197575216L162.98158482142858,32.82299069942738L165.04464285714286,30.90014697428473L167.10770089285717,29.775394500207277L169.17075892857144,30.011361959081256L171.23381696428572,30.922887745810897L173.296875,30.566325585598303L175.35993303571428,31.002172009806337L177.42299107142858,30.601592844307014L179.48604910714286,30.514577018693757L181.54910714285714,30.54207924790462L183.61216517857142,29.66941987250054L185.67522321428572,29.03757639907947L187.73828125,29.151454505034348L189.80133928571428,28.588443271103873L191.86439732142856,29.138994965085327L193.92745535714283,29.963356872740402L195.99051339285714,29.938031785942645L199.08510044642858,30.932640054867477L201.14815848214286,29.90705831072997L203.21121651785717,29.954139742076134L205.27427455357144,30.69637645771696L207.33733258928572,29.694457895550208L209.400390625,30.494621972248783L211.46344866071428,28.582427654766583L213.52650669642858,27.514687757127145L215.58956473214286,27.460768404465675L217.65262276785714,27.415598538226263L219.71568080357142,27.300784380989626L221.77873883928572,27.537281952513467L223.841796875,29.39080912382801L225.90485491071428,27.673013637904294L227.96791294642856,28.209398316461446L230.03097098214283,28.531176283440757L232.09402901785714,27.28078205852357L234.15708705357142,27.543235195910256L236.22014508928572,25.710361374673607L238.283203125,26.106295889015723L240.3462611607143,26.47251051772577L243.44084821428572,25.5491264475724L245.50390625,25.85013768142176L247.56696428571428,26.433478358410373L249.63002232142858,26.441657779692274L251.69308035714286,26.366199072189723L253.75613839285714,28.416516218828647L255.81919642857142,27.021943091769757L257.8822544642857,25.511173243471926L259.9453125,24.485230124582955L262.0083705357143,25.83421021716L264.07142857142856,26.33945004398427L266.13448660714283,26.080498252601963L268.19754464285717,25.624534687073435L270.26060267857144,25.213371047731435L272.3236607142857,24.554251450633508L274.38671875,25.185682545520848L276.4497767857143,23.36990172595072L278.51283482142856,23.605465752038622" style="fill: none;" fill="none"></path></g></g></g></g><g opacity="0.2"><g><g><g><path stroke="rgb(255, 112, 67)" stroke-width="2px" d="M29.914341517857146,180.95604202151299L31.977399553571427,175.6520183980465L34.040457589285715,169.16921442747116L36.103515625,164.66883873939514L38.166573660714285,157.3487982004881L40.22963169642857,153.59148694574833L42.29268973214286,148.26269714534283L44.355747767857146,145.54249262809753L46.41880580357143,139.94992589950562L48.48186383928571,132.7630398273468L50.544921875,133.04119116067886L52.607979910714285,126.27407728135586L54.67103794642857,126.63825085759163L56.734095982142854,116.353192538023L58.797154017857146,110.41374108195305L60.86021205357143,107.46444283425808L62.923270089285715,110.83400121331215L66.01785714285714,96.63633531332016L68.08091517857143,98.29969136416912L70.14397321428571,91.17311185598373L72.20703125,93.47726306319237L74.27008928571428,92.35983109474182L76.33314732142857,88.36674003303051L78.39620535714285,88.07132622599602L80.45926339285714,80.3402436375618L82.52232142857143,77.2614306807518L84.58537946428572,77.1243199557066L86.6484375,73.5430753827095L88.71149553571429,70.34995293617249L90.77455357142857,71.76866716146469L92.83761160714286,66.7839135825634L94.90066964285714,63.81922549009323L96.96372767857142,61.98750427365303L99.02678571428571,61.28666630387306L101.08984375,59.79787355661392L103.15290178571429,63.05007612705231L105.21595982142857,58.56404846906662L107.27901785714286,58.727534249424934L110.37360491071428,58.36884668469429L112.43666294642857,52.83752283453941L114.49972098214285,49.832058906555176L116.56277901785714,52.3829355686903L118.62583705357143,43.621313631534576L120.68889508928572,45.363544285297394L122.751953125,45.96573954820633L124.81501116071429,43.68954589962959L126.87806919642857,41.947130620479584L128.94112723214286,40.68673266470432L131.00418526785714,40.25886332988739L133.06724330357142,40.33804124593735L135.13030133928572,38.51399517059326L137.193359375,39.15224513411522L139.25641741071428,38.28118255734444L141.31947544642856,36.85841976106167L143.38253348214286,36.20088963210583L145.44559151785714,37.26776061952114L147.50864955357142,33.041777819395065L149.57170758928572,34.48920129239559L151.634765625,33.90045730769634L154.72935267857142,31.739430338144302L156.7924107142857,31.56739903986454L158.85546875,30.580853283405304L160.91852678571428,35.24180030822754L162.98158482142858,32.221052035689354L165.04464285714286,27.955031901597977L167.10770089285717,28.05267235636711L169.17075892857144,30.372780472040176L171.23381696428572,32.3190221786499L173.296875,30.020198732614517L175.35993303571428,31.66973425447941L177.42299107142858,29.988047540187836L179.48604910714286,30.38129961490631L181.54910714285714,30.58420291543007L183.61216517857142,28.332815006375313L185.67522321428572,28.069816142320633L187.73828125,29.325875401496887L189.80133928571428,27.726109609007835L191.86439732142856,29.98224502801895L193.92745535714283,31.225987136363983L195.99051339285714,29.899242728948593L199.08510044642858,32.456027403473854L201.14815848214286,28.33623057603836L203.21121651785717,30.026251807808876L205.27427455357144,31.833220034837723L207.33733258928572,28.15987376868725L209.400390625,31.72018973529339L211.46344866071428,25.653623700141907L213.52650669642858,25.87928867340088L215.58956473214286,27.37818306684494L217.65262276785714,27.3464143127203L219.71568080357142,27.124929785728455L221.77873883928572,27.89951241016388L223.841796875,32.22975580394268L225.90485491071428,25.041959792375565L227.96791294642856,29.030949532985687L230.03097098214283,29.024026080965996L232.09402901785714,25.3656212836504L234.15708705357142,27.9452203810215L236.22014508928572,22.903048306703568L238.283203125,26.71272723376751L240.3462611607143,27.03342153131962L243.44084821428572,24.134829327464104L245.50390625,26.31118020415306L247.56696428571428,27.326949521899223L249.63002232142858,26.454185754060745L251.69308035714286,26.25062307715416L253.75613839285714,31.55687539279461L255.81919642857142,24.885951340198517L257.8822544642857,23.197209298610687L259.9453125,22.913848891854286L262.0083705357143,27.900369599461555L264.07142857142856,27.113298386335373L266.13448660714283,25.683875888586044L268.19754464285717,24.926160112023354L270.26060267857144,24.583614081144333L272.3236607142857,23.544713839888573L274.38671875,26.15281118452549L276.4497767857143,20.5887690782547L278.51283482142856,23.966266348958015" style="fill: none;" fill="none"></path></g></g></g></g></g></g><g transform="translate(41, 177)" clip-path="url(#clip_1)"><clipPath id="clip_1"><rect width="288" height="23"></rect></clipPath><g><g><line x1="0" y1="0" x2="0" y2="5" style="visibility: inherit;" fill="rgb(0, 0, 0)" stroke="rgb(204, 204, 204)" stroke-width="1px"></line><line x1="20.630580357142858" y1="0" x2="20.630580357142858" y2="5" style="visibility: inherit;" fill="rgb(0, 0, 0)" stroke="rgb(204, 204, 204)" stroke-width="1px"></line><line x1="41.261160714285715" y1="0" x2="41.261160714285715" y2="5" style="visibility: inherit;" fill="rgb(0, 0, 0)" stroke="rgb(204, 204, 204)" stroke-width="1px"></line><line x1="61.89174107142857" y1="0" x2="61.89174107142857" y2="5" style="visibility: inherit;" fill="rgb(0, 0, 0)" stroke="rgb(204, 204, 204)" stroke-width="1px"></line><line x1="82.52232142857143" y1="0" x2="82.52232142857143" y2="5" style="visibility: inherit;" fill="rgb(0, 0, 0)" stroke="rgb(204, 204, 204)" stroke-width="1px"></line><line x1="103.15290178571429" y1="0" x2="103.15290178571429" y2="5" style="visibility: inherit;" fill="rgb(0, 0, 0)" stroke="rgb(204, 204, 204)" stroke-width="1px"></line><line x1="123.78348214285714" y1="0" x2="123.78348214285714" y2="5" style="visibility: inherit;" fill="rgb(0, 0, 0)" stroke="rgb(204, 204, 204)" stroke-width="1px"></line><line x1="144.4140625" y1="0" x2="144.4140625" y2="5" style="visibility: inherit;" fill="rgb(0, 0, 0)" stroke="rgb(204, 204, 204)" stroke-width="1px"></line><line x1="165.04464285714286" y1="0" x2="165.04464285714286" y2="5" style="visibility: inherit;" fill="rgb(0, 0, 0)" stroke="rgb(204, 204, 204)" stroke-width="1px"></line><line x1="185.67522321428572" y1="0" x2="185.67522321428572" y2="5" style="visibility: inherit;" fill="rgb(0, 0, 0)" stroke="rgb(204, 204, 204)" stroke-width="1px"></line><line x1="206.30580357142858" y1="0" x2="206.30580357142858" y2="5" style="visibility: inherit;" fill="rgb(0, 0, 0)" stroke="rgb(204, 204, 204)" stroke-width="1px"></line><line x1="226.93638392857142" y1="0" x2="226.93638392857142" y2="5" style="visibility: inherit;" fill="rgb(0, 0, 0)" stroke="rgb(204, 204, 204)" stroke-width="1px"></line><line x1="247.56696428571428" y1="0" x2="247.56696428571428" y2="5" style="visibility: inherit;" fill="rgb(0, 0, 0)" stroke="rgb(204, 204, 204)" stroke-width="1px"></line><line x1="268.19754464285717" y1="0" x2="268.19754464285717" y2="5" style="visibility: inherit;" fill="rgb(0, 0, 0)" stroke="rgb(204, 204, 204)" stroke-width="1px"></line><line x1="288.828125" y1="0" x2="288.828125" y2="5" style="visibility: inherit;" fill="rgb(0, 0, 0)" stroke="rgb(204, 204, 204)" stroke-width="1px"></line></g><g transform="translate(0, 8)"><text x="0" y="0" dx="0em" dy="0.95em" style="text-anchor: middle; visibility: hidden; font-family: Roboto, sans-serif; font-size: 12px; font-weight: 200;" fill="rgb(33, 33, 33)" stroke="none" stroke-width="1px">-20k</text><text x="20.630580357142858" y="0" dx="0em" dy="0.95em" style="text-anchor: middle; visibility: inherit; font-family: Roboto, sans-serif; font-size: 12px; font-weight: 200;" fill="rgb(33, 33, 33)" stroke="none" stroke-width="1px">0</text><text x="41.261160714285715" y="0" dx="0em" dy="0.95em" style="text-anchor: middle; visibility: hidden; font-family: Roboto, sans-serif; font-size: 12px; font-weight: 200;" fill="rgb(33, 33, 33)" stroke="none" stroke-width="1px">20k</text><text x="61.89174107142857" y="0" dx="0em" dy="0.95em" style="text-anchor: middle; visibility: inherit; font-family: Roboto, sans-serif; font-size: 12px; font-weight: 200;" fill="rgb(33, 33, 33)" stroke="none" stroke-width="1px">40k</text><text x="82.52232142857143" y="0" dx="0em" dy="0.95em" style="text-anchor: middle; visibility: hidden; font-family: Roboto, sans-serif; font-size: 12px; font-weight: 200;" fill="rgb(33, 33, 33)" stroke="none" stroke-width="1px">60k</text><text x="103.15290178571429" y="0" dx="0em" dy="0.95em" style="text-anchor: middle; visibility: inherit; font-family: Roboto, sans-serif; font-size: 12px; font-weight: 200;" fill="rgb(33, 33, 33)" stroke="none" stroke-width="1px">80k</text><text x="123.78348214285714" y="0" dx="0em" dy="0.95em" style="text-anchor: middle; visibility: hidden; font-family: Roboto, sans-serif; font-size: 12px; font-weight: 200;" fill="rgb(33, 33, 33)" stroke="none" stroke-width="1px">100k</text><text x="144.4140625" y="0" dx="0em" dy="0.95em" style="text-anchor: middle; visibility: inherit; font-family: Roboto, sans-serif; font-size: 12px; font-weight: 200;" fill="rgb(33, 33, 33)" stroke="none" stroke-width="1px">120k</text><text x="165.04464285714286" y="0" dx="0em" dy="0.95em" style="text-anchor: middle; visibility: hidden; font-family: Roboto, sans-serif; font-size: 12px; font-weight: 200;" fill="rgb(33, 33, 33)" stroke="none" stroke-width="1px">140k</text><text x="185.67522321428572" y="0" dx="0em" dy="0.95em" style="text-anchor: middle; visibility: inherit; font-family: Roboto, sans-serif; font-size: 12px; font-weight: 200;" fill="rgb(33, 33, 33)" stroke="none" stroke-width="1px">160k</text><text x="206.30580357142858" y="0" dx="0em" dy="0.95em" style="text-anchor: middle; visibility: hidden; font-family: Roboto, sans-serif; font-size: 12px; font-weight: 200;" fill="rgb(33, 33, 33)" stroke="none" stroke-width="1px">180k</text><text x="226.93638392857142" y="0" dx="0em" dy="0.95em" style="text-anchor: middle; visibility: inherit; font-family: Roboto, sans-serif; font-size: 12px; font-weight: 200;" fill="rgb(33, 33, 33)" stroke="none" stroke-width="1px">200k</text><text x="247.56696428571428" y="0" dx="0em" dy="0.95em" style="text-anchor: middle; visibility: hidden; font-family: Roboto, sans-serif; font-size: 12px; font-weight: 200;" fill="rgb(33, 33, 33)" stroke="none" stroke-width="1px">220k</text><text x="268.19754464285717" y="0" dx="0em" dy="0.95em" style="text-anchor: middle; visibility: inherit; font-family: Roboto, sans-serif; font-size: 12px; font-weight: 200;" fill="rgb(33, 33, 33)" stroke="none" stroke-width="1px">240k</text><text x="288.828125" y="0" dx="0em" dy="0.95em" style="text-anchor: middle; visibility: hidden; font-family: Roboto, sans-serif; font-size: 12px; font-weight: 200;" fill="rgb(33, 33, 33)" stroke="none" stroke-width="1px">260k</text></g><line x1="0" y1="0" x2="288.828125" y2="0" fill="rgb(0, 0, 0)" stroke="rgb(204, 204, 204)" stroke-width="1px"></line></g></g></g></g></svg>