<svg viewBox="0 0 330 200" xmlns="http://www.w3.org/2000/svg"><g><g><g><g><g><line x1="51.5625" y1="177" x2="46.5625" y2="177" style="visibility: inherit;" fill="rgb(0, 0, 0)" stroke="rgb(204, 204, 204)" stroke-width="1px"></line><line x1="51.5625" y1="154.8750003296882" x2="46.5625" y2="154.8750003296882" style="visibility: inherit;" fill="rgb(0, 0, 0)" stroke="rgb(204, 204, 204)" stroke-width="1px"></line><line x1="51.5625" y1="132.75000065937638" x2="46.5625" y2="132.75000065937638" style="visibility: inherit;" fill="rgb(0, 0, 0)" stroke="rgb(204, 204, 204)" stroke-width="1px"></line><line x1="51.5625" y1="110.62500098906457" x2="46.5625" y2="110.62500098906457" style="visibility: inherit;" fill="rgb(0, 0, 0)" stroke="rgb(204, 204, 204)" stroke-width="1px"></line><line x1="51.5625" y1="88.50000131875275" x2="46.5625" y2="88.50000131875275" style="visibility: inherit;" fill="rgb(0, 0, 0)" stroke="rgb(204, 204, 204)" stroke-width="1px"></line><line x1="51.5625" y1="66.37500164844094" x2="46.5625" y2="66.37500164844094" style="visibility: inherit;" fill="rgb(0, 0, 0)" stroke="rgb(204, 204, 204)" stroke-width="1px"></line><line x1="51.5625" y1="44.25000197812913" x2="46.5625" y2="44.25000197812913" style="visibility: inherit;" fill="rgb(0, 0, 0)" stroke="rgb(204, 204, 204)" stroke-width="1px"></line><line x1="51.5625" y1="22.12500230781732" x2="46.5625" y2="22.12500230781732" style="visibility: inherit;" fill="rgb(0, 0, 0)" stroke="rgb(204, 204, 204)" stroke-width="1px"></line><line x1="51.5625" y1="0.00000263750549200914" x2="46.5625" y2="0.00000263750549200914" style="visibility: inherit;" fill="rgb(0, 0, 0)" stroke="rgb(204, 204, 204)" stroke-width="1px"></line></g><g transform="translate(41.5625, 0)"><text x="0" y="177" dx="0em" dy="0.3em" style="text-anchor: end; visibility: hidden; font-family: Roboto, sans-serif; font-size: 12px; font-weight: 200;" fill="rgb(33, 33, 33)" stroke="none" stroke-width="1px">0</text><text x="0" y="154.8750003296882" dx="0em" dy="0.3em" style="text-anchor: end; visibility: inherit; font-family: Roboto, sans-serif; font-size: 12px; font-weight: 200;" fill="rgb(33, 33, 33)" stroke="none" stroke-width="1px">0.05</text><text x="0" y="132.75000065937638" dx="0em" dy="0.3em" style="text-anchor: end; visibility: hidden; font-family: Roboto, sans-serif; font-size: 12px; font-weight: 200;" fill="rgb(33, 33, 33)" stroke="none" stroke-width="1px">0.1</text><text x="0" y="110.62500098906457" dx="0em" dy="0.3em" style="text-anchor: end; visibility: inherit; font-family: Roboto, sans-serif; font-size: 12px; font-weight: 200;" fill="rgb(33, 33, 33)" stroke="none" stroke-width="1px">0.15</text><text x="0" y="88.50000131875275" dx="0em" dy="0.3em" style="text-anchor: end; visibility: hidden; font-family: Roboto, sans-serif; font-size: 12px; font-weight: 200;" fill="rgb(33, 33, 33)" stroke="none" stroke-width="1px">0.2</text><text x="0" y="66.37500164844094" dx="0em" dy="0.3em" style="text-anchor: end; visibility: inherit; font-family: Roboto, sans-serif; font-size: 12px; font-weight: 200;" fill="rgb(33, 33, 33)" stroke="none" stroke-width="1px">0.25</text><text x="0" y="44.25000197812913" dx="0em" dy="0.3em" style="text-anchor: end; visibility: hidden; font-family: Roboto, sans-serif; font-size: 12px; font-weight: 200;" fill="rgb(33, 33, 33)" stroke="none" stroke-width="1px">0.3</text><text x="0" y="22.12500230781732" dx="0em" dy="0.3em" style="text-anchor: end; visibility: inherit; font-family: Roboto, sans-serif; font-size: 12px; font-weight: 200;" fill="rgb(33, 33, 33)" stroke="none" stroke-width="1px">0.35</text><text x="0" y="0.00000263750549200914" dx="0em" dy="0.3em" style="text-anchor: end; visibility: hidden; font-family: Roboto, sans-serif; font-size: 12px; font-weight: 200;" fill="rgb(33, 33, 33)" stroke="none" stroke-width="1px">0.4</text></g><line x1="51.5625" y1="0" x2="51.5625" y2="177" fill="rgb(0, 0, 0)" stroke="rgb(204, 204, 204)" stroke-width="1px"></line></g></g><g transform="translate(51, 0)" clip-path="url(#clip_0)"><clipPath id="clip_0"><rect width="278" height="177"></rect></clipPath><g><g><g><line x1="0" y1="0" x2="0" y2="177" fill="rgb(0, 0, 0)" stroke="rgb(66, 66, 66)" stroke-width="1px" opacity="0.25"></line><line x1="19.888392857142858" y1="0" x2="19.888392857142858" y2="177" fill="rgb(0, 0, 0)" stroke="rgb(66, 66, 66)" stroke-width="1px" opacity="0.25"></line><line x1="39.776785714285715" y1="0" x2="39.776785714285715" y2="177" fill="rgb(0, 0, 0)" stroke="rgb(66, 66, 66)" stroke-width="1px" opacity="0.25"></line><line x1="59.66517857142857" y1="0" x2="59.66517857142857" y2="177" fill="rgb(0, 0, 0)" stroke="rgb(66, 66, 66)" stroke-width="1px" opacity="0.25"></line><line x1="79.55357142857143" y1="0" x2="79.55357142857143" y2="177" fill="rgb(0, 0, 0)" stroke="rgb(66, 66, 66)" stroke-width="1px" opacity="0.25"></line><line x1="99.44196428571429" y1="0" x2="99.44196428571429" y2="177" fill="rgb(0, 0, 0)" stroke="rgb(66, 66, 66)" stroke-width="1px" opacity="0.25"></line><line x1="119.33035714285714" y1="0" x2="119.33035714285714" y2="177" fill="rgb(0, 0, 0)" stroke="rgb(66, 66, 66)" stroke-width="1px" opacity="0.25"></line><line x1="139.21875" y1="0" x2="139.21875" y2="177" fill="rgb(0, 0, 0)" stroke="rgb(66, 66, 66)" stroke-width="1px" opacity="0.25"></line><line x1="159.10714285714286" y1="0" x2="159.10714285714286" y2="177" fill="rgb(0, 0, 0)" stroke="rgb(66, 66, 66)" stroke-width="1px" opacity="0.25"></line><line x1="178.99553571428572" y1="0" x2="178.99553571428572" y2="177" fill="rgb(0, 0, 0)" stroke="rgb(66, 66, 66)" stroke-width="1px" opacity="0.25"></line><line x1="198.88392857142858" y1="0" x2="198.88392857142858" y2="177" fill="rgb(0, 0, 0)" stroke="rgb(66, 66, 66)" stroke-width="1px" opacity="0.25"></line><line x1="218.77232142857142" y1="0" x2="218.77232142857142" y2="177" fill="rgb(0, 0, 0)" stroke="rgb(66, 66, 66)" stroke-width="1px" opacity="0.25"></line><line x1="238.66071428571428" y1="0" x2="238.66071428571428" y2="177" fill="rgb(0, 0, 0)" stroke="rgb(66, 66, 66)" stroke-width="1px" opacity="0.25"></line><line x1="258.54910714285717" y1="0" x2="258.54910714285717" y2="177" fill="rgb(0, 0, 0)" stroke="rgb(66, 66, 66)" stroke-width="1px" opacity="0.25"></line><line x1="278.4375" y1="0" x2="278.4375" y2="177" fill="rgb(0, 0, 0)" stroke="rgb(66, 66, 66)" stroke-width="1px" opacity="0.25"></line></g><g><line x1="0" y1="177" x2="278.4375" y2="177" fill="rgb(0, 0, 0)" stroke="rgb(66, 66, 66)" stroke-width="1px" opacity="0.25"></line><line x1="0" y1="154.8750003296882" x2="278.4375" y2="154.8750003296882" fill="rgb(0, 0, 0)" stroke="rgb(66, 66, 66)" stroke-width="1px" opacity="0.25"></line><line x1="0" y1="132.75000065937638" x2="278.4375" y2="132.75000065937638" fill="rgb(0, 0, 0)" stroke="rgb(66, 66, 66)" stroke-width="1px" opacity="0.25"></line><line x1="0" y1="110.62500098906457" x2="278.4375" y2="110.62500098906457" fill="rgb(0, 0, 0)" stroke="rgb(66, 66, 66)" stroke-width="1px" opacity="0.25"></line><line x1="0" y1="88.50000131875275" x2="278.4375" y2="88.50000131875275" fill="rgb(0, 0, 0)" stroke="rgb(66, 66, 66)" stroke-width="1px" opacity="0.25"></line><line x1="0" y1="66.37500164844094" x2="278.4375" y2="66.37500164844094" fill="rgb(0, 0, 0)" stroke="rgb(66, 66, 66)" stroke-width="1px" opacity="0.25"></line><line x1="0" y1="44.25000197812913" x2="278.4375" y2="44.25000197812913" fill="rgb(0, 0, 0)" stroke="rgb(66, 66, 66)" stroke-width="1px" opacity="0.25"></line><line x1="0" y1="22.12500230781732" x2="278.4375" y2="22.12500230781732" fill="rgb(0, 0, 0)" stroke="rgb(66, 66, 66)" stroke-width="1px" opacity="0.25"></line><line x1="0" y1="0.00000263750549200914" x2="278.4375" y2="0.00000263750549200914" fill="rgb(0, 0, 0)" stroke="rgb(66, 66, 66)" stroke-width="1px" opacity="0.25"></line></g></g></g><g><g><line x1="0" y1="177" x2="278.4375" y2="177" fill="rgb(0, 0, 0)" stroke="rgb(153, 153, 153)" stroke-width="1.5px"></line></g></g><g><g><line x1="19.888392857142858" y1="0" x2="19.888392857142858" y2="177" fill="rgb(0, 0, 0)" stroke="rgb(153, 153, 153)" stroke-width="1.5px"></line></g></g><g><g><g><g><g><path stroke="rgb(255, 112, 67)" stroke-width="2px" d="M22.871651785714285,88.5L24.860491071428573,88.5L26.849330357142858,88.5L28.838169642857146,88.5L30.827008928571427,88.5L32.815848214285715,88.5L34.8046875,88.5L36.793526785714285,88.5L38.78236607142857,88.5L40.77120535714286,88.5L42.760044642857146,88.5L44.74888392857143,88.5L46.73772321428571,88.5L48.7265625,88.5L50.715401785714285,88.5L52.70424107142857,88.5L54.693080357142854,88.5L56.681919642857146,88.5L58.67075892857143,88.5L60.659598214285715,88.5L63.64285714285714,88.5L65.63169642857143,88.5L67.62053571428571,88.5L69.609375,88.5L71.59821428571428,88.5L73.58705357142857,88.5L75.57589285714285,88.5L77.56473214285714,88.5L79.55357142857143,88.5L81.54241071428572,88.5L83.53125,88.5L85.52008928571429,88.5L87.50892857142857,88.5L89.49776785714286,88.5L91.48660714285714,88.5L93.47544642857142,88.5L95.46428571428571,88.5L97.453125,88.5L99.44196428571429,88.5L101.43080357142857,88.5L103.41964285714286,88.5L106.40290178571428,88.5L108.39174107142857,88.5L110.38058035714285,88.5L112.36941964285714,88.5L114.35825892857143,88.5L116.34709821428572,88.5L118.3359375,88.5L120.32477678571429,88.5L122.31361607142857,88.5L124.30245535714286,88.5L126.29129464285714,88.5L128.28013392857142,88.5L130.26897321428572,88.5L132.2578125,88.5L134.24665178571428,88.5L136.23549107142856,88.5L138.22433035714286,88.5L140.21316964285714,88.5L142.20200892857142,88.5L144.19084821428572,88.5L146.1796875,88.5L149.16294642857142,88.5L151.1517857142857,88.5L153.140625,88.5L155.12946428571428,88.5L157.11830357142858,88.5L159.10714285714286,88.5L161.09598214285717,88.5L163.08482142857144,88.5L165.07366071428572,88.5L167.0625,88.5L169.05133928571428,88.5L171.04017857142858,88.5L173.02901785714286,88.5L175.01785714285714,88.5L177.00669642857142,88.5L178.99553571428572,88.5L180.984375,88.5L182.97321428571428,88.5L184.96205357142856,88.5L186.95089285714283,88.5L188.93973214285714,88.5L191.92299107142858,88.5L193.91183035714286,88.5L195.90066964285717,88.5L197.88950892857144,88.5L199.87834821428572,88.5L201.8671875,88.5L203.85602678571428,88.5L205.84486607142858,88.5L207.83370535714286,88.5L209.82254464285714,88.5L211.81138392857142,88.5L213.80022321428572,88.5L215.7890625,88.5L217.77790178571428,88.5L219.76674107142856,88.5L221.75558035714283,88.5L223.74441964285714,88.5L225.73325892857142,88.5L227.72209821428572,88.5L229.7109375,88.5L231.6997767857143,88.5L234.68303571428572,88.5L236.671875,88.5L238.66071428571428,88.5L240.64955357142858,88.5L242.63839285714286,88.5L244.62723214285714,88.5L246.61607142857142,88.5L248.60491071428572,88.5L250.59375,88.5L252.58258928571428,88.5L254.57142857142856,88.5L256.56026785714283,88.5L258.54910714285717,88.5L260.53794642857144,88.5L262.5267857142857,88.5L264.515625,88.5L266.5044642857143,88.5L268.49330357142856,88.5" style="fill: none;" fill="none"></path></g></g></g></g><g opacity="0.2"><g><g><g><path stroke="rgb(255, 112, 67)" stroke-width="2px" d="M22.871651785714285,88.5L24.860491071428573,88.5L26.849330357142858,88.5L28.838169642857146,88.5L30.827008928571427,88.5L32.815848214285715,88.5L34.8046875,88.5L36.793526785714285,88.5L38.78236607142857,88.5L40.77120535714286,88.5L42.760044642857146,88.5L44.74888392857143,88.5L46.73772321428571,88.5L48.7265625,88.5L50.715401785714285,88.5L52.70424107142857,88.5L54.693080357142854,88.5L56.681919642857146,88.5L58.67075892857143,88.5L60.659598214285715,88.5L63.64285714285714,88.5L65.63169642857143,88.5L67.62053571428571,88.5L69.609375,88.5L71.59821428571428,88.5L73.58705357142857,88.5L75.57589285714285,88.5L77.56473214285714,88.5L79.55357142857143,88.5L81.54241071428572,88.5L83.53125,88.5L85.52008928571429,88.5L87.50892857142857,88.5L89.49776785714286,88.5L91.48660714285714,88.5L93.47544642857142,88.5L95.46428571428571,88.5L97.453125,88.5L99.44196428571429,88.5L101.43080357142857,88.5L103.41964285714286,88.5L106.40290178571428,88.5L108.39174107142857,88.5L110.38058035714285,88.5L112.36941964285714,88.5L114.35825892857143,88.5L116.34709821428572,88.5L118.3359375,88.5L120.32477678571429,88.5L122.31361607142857,88.5L124.30245535714286,88.5L126.29129464285714,88.5L128.28013392857142,88.5L130.26897321428572,88.5L132.2578125,88.5L134.24665178571428,88.5L136.23549107142856,88.5L138.22433035714286,88.5L140.21316964285714,88.5L142.20200892857142,88.5L144.19084821428572,88.5L146.1796875,88.5L149.16294642857142,88.5L151.1517857142857,88.5L153.140625,88.5L155.12946428571428,88.5L157.11830357142858,88.5L159.10714285714286,88.5L161.09598214285717,88.5L163.08482142857144,88.5L165.07366071428572,88.5L167.0625,88.5L169.05133928571428,88.5L171.04017857142858,88.5L173.02901785714286,88.5L175.01785714285714,88.5L177.00669642857142,88.5L178.99553571428572,88.5L180.984375,88.5L182.97321428571428,88.5L184.96205357142856,88.5L186.95089285714283,88.5L188.93973214285714,88.5L191.92299107142858,88.5L193.91183035714286,88.5L195.90066964285717,88.5L197.88950892857144,88.5L199.87834821428572,88.5L201.8671875,88.5L203.85602678571428,88.5L205.84486607142858,88.5L207.83370535714286,88.5L209.82254464285714,88.5L211.81138392857142,88.5L213.80022321428572,88.5L215.7890625,88.5L217.77790178571428,88.5L219.76674107142856,88.5L221.75558035714283,88.5L223.74441964285714,88.5L225.73325892857142,88.5L227.72209821428572,88.5L229.7109375,88.5L231.6997767857143,88.5L234.68303571428572,88.5L236.671875,88.5L238.66071428571428,88.5L240.64955357142858,88.5L242.63839285714286,88.5L244.62723214285714,88.5L246.61607142857142,88.5L248.60491071428572,88.5L250.59375,88.5L252.58258928571428,88.5L254.57142857142856,88.5L256.56026785714283,88.5L258.54910714285717,88.5L260.53794642857144,88.5L262.5267857142857,88.5L264.515625,88.5L266.5044642857143,88.5L268.49330357142856,88.5" style="fill: none;" fill="none"></path></g></g></g></g></g></g><g transform="translate(51, 177)" clip-path="url(#clip_1)"><clipPath id="clip_1"><rect width="278" height="23"></rect></clipPath><g><g><line x1="0" y1="0" x2="0" y2="5" style="visibility: inherit;" fill="rgb(0, 0, 0)" stroke="rgb(204, 204, 204)" stroke-width="1px"></line><line x1="19.888392857142858" y1="0" x2="19.888392857142858" y2="5" style="visibility: inherit;" fill="rgb(0, 0, 0)" stroke="rgb(204, 204, 204)" stroke-width="1px"></line><line x1="39.776785714285715" y1="0" x2="39.776785714285715" y2="5" style="visibility: inherit;" fill="rgb(0, 0, 0)" stroke="rgb(204, 204, 204)" stroke-width="1px"></line><line x1="59.66517857142857" y1="0" x2="59.66517857142857" y2="5" style="visibility: inherit;" fill="rgb(0, 0, 0)" stroke="rgb(204, 204, 204)" stroke-width="1px"></line><line x1="79.55357142857143" y1="0" x2="79.55357142857143" y2="5" style="visibility: inherit;" fill="rgb(0, 0, 0)" stroke="rgb(204, 204, 204)" stroke-width="1px"></line><line x1="99.44196428571429" y1="0" x2="99.44196428571429" y2="5" style="visibility: inherit;" fill="rgb(0, 0, 0)" stroke="rgb(204, 204, 204)" stroke-width="1px"></line><line x1="119.33035714285714" y1="0" x2="119.33035714285714" y2="5" style="visibility: inherit;" fill="rgb(0, 0, 0)" stroke="rgb(204, 204, 204)" stroke-width="1px"></line><line x1="139.21875" y1="0" x2="139.21875" y2="5" style="visibility: inherit;" fill="rgb(0, 0, 0)" stroke="rgb(204, 204, 204)" stroke-width="1px"></line><line x1="159.10714285714286" y1="0" x2="159.10714285714286" y2="5" style="visibility: inherit;" fill="rgb(0, 0, 0)" stroke="rgb(204, 204, 204)" stroke-width="1px"></line><line x1="178.99553571428572" y1="0" x2="178.99553571428572" y2="5" style="visibility: inherit;" fill="rgb(0, 0, 0)" stroke="rgb(204, 204, 204)" stroke-width="1px"></line><line x1="198.88392857142858" y1="0" x2="198.88392857142858" y2="5" style="visibility: inherit;" fill="rgb(0, 0, 0)" stroke="rgb(204, 204, 204)" stroke-width="1px"></line><line x1="218.77232142857142" y1="0" x2="218.77232142857142" y2="5" style="visibility: inherit;" fill="rgb(0, 0, 0)" stroke="rgb(204, 204, 204)" stroke-width="1px"></line><line x1="238.66071428571428" y1="0" x2="238.66071428571428" y2="5" style="visibility: inherit;" fill="rgb(0, 0, 0)" stroke="rgb(204, 204, 204)" stroke-width="1px"></line><line x1="258.54910714285717" y1="0" x2="258.54910714285717" y2="5" style="visibility: inherit;" fill="rgb(0, 0, 0)" stroke="rgb(204, 204, 204)" stroke-width="1px"></line><line x1="278.4375" y1="0" x2="278.4375" y2="5" style="visibility: inherit;" fill="rgb(0, 0, 0)" stroke="rgb(204, 204, 204)" stroke-width="1px"></line></g><g transform="translate(0, 8)"><text x="0" y="0" dx="0em" dy="0.95em" style="text-anchor: middle; visibility: hidden; font-family: Roboto, sans-serif; font-size: 12px; font-weight: 200;" fill="rgb(33, 33, 33)" stroke="none" stroke-width="1px">-20k</text><text x="19.888392857142858" y="0" dx="0em" dy="0.95em" style="text-anchor: middle; visibility: inherit; font-family: Roboto, sans-serif; font-size: 12px; font-weight: 200;" fill="rgb(33, 33, 33)" stroke="none" stroke-width="1px">0</text><text x="39.776785714285715" y="0" dx="0em" dy="0.95em" style="text-anchor: middle; visibility: hidden; font-family: Roboto, sans-serif; font-size: 12px; font-weight: 200;" fill="rgb(33, 33, 33)" stroke="none" stroke-width="1px">20k</text><text x="59.66517857142857" y="0" dx="0em" dy="0.95em" style="text-anchor: middle; visibility: inherit; font-family: Roboto, sans-serif; font-size: 12px; font-weight: 200;" fill="rgb(33, 33, 33)" stroke="none" stroke-width="1px">40k</text><text x="79.55357142857143" y="0" dx="0em" dy="0.95em" style="text-anchor: middle; visibility: hidden; font-family: Roboto, sans-serif; font-size: 12px; font-weight: 200;" fill="rgb(33, 33, 33)" stroke="none" stroke-width="1px">60k</text><text x="99.44196428571429" y="0" dx="0em" dy="0.95em" style="text-anchor: middle; visibility: inherit; font-family: Roboto, sans-serif; font-size: 12px; font-weight: 200;" fill="rgb(33, 33, 33)" stroke="none" stroke-width="1px">80k</text><text x="119.33035714285714" y="0" dx="0em" dy="0.95em" style="text-anchor: middle; visibility: hidden; font-family: Roboto, sans-serif; font-size: 12px; font-weight: 200;" fill="rgb(33, 33, 33)" stroke="none" stroke-width="1px">100k</text><text x="139.21875" y="0" dx="0em" dy="0.95em" style="text-anchor: middle; visibility: inherit; font-family: Roboto, sans-serif; font-size: 12px; font-weight: 200;" fill="rgb(33, 33, 33)" stroke="none" stroke-width="1px">120k</text><text x="159.10714285714286" y="0" dx="0em" dy="0.95em" style="text-anchor: middle; visibility: hidden; font-family: Roboto, sans-serif; font-size: 12px; font-weight: 200;" fill="rgb(33, 33, 33)" stroke="none" stroke-width="1px">140k</text><text x="178.99553571428572" y="0" dx="0em" dy="0.95em" style="text-anchor: middle; visibility: inherit; font-family: Roboto, sans-serif; font-size: 12px; font-weight: 200;" fill="rgb(33, 33, 33)" stroke="none" stroke-width="1px">160k</text><text x="198.88392857142858" y="0" dx="0em" dy="0.95em" style="text-anchor: middle; visibility: hidden; font-family: Roboto, sans-serif; font-size: 12px; font-weight: 200;" fill="rgb(33, 33, 33)" stroke="none" stroke-width="1px">180k</text><text x="218.77232142857142" y="0" dx="0em" dy="0.95em" style="text-anchor: middle; visibility: inherit; font-family: Roboto, sans-serif; font-size: 12px; font-weight: 200;" fill="rgb(33, 33, 33)" stroke="none" stroke-width="1px">200k</text><text x="238.66071428571428" y="0" dx="0em" dy="0.95em" style="text-anchor: middle; visibility: hidden; font-family: Roboto, sans-serif; font-size: 12px; font-weight: 200;" fill="rgb(33, 33, 33)" stroke="none" stroke-width="1px">220k</text><text x="258.54910714285717" y="0" dx="0em" dy="0.95em" style="text-anchor: middle; visibility: inherit; font-family: Roboto, sans-serif; font-size: 12px; font-weight: 200;" fill="rgb(33, 33, 33)" stroke="none" stroke-width="1px">240k</text><text x="278.4375" y="0" dx="0em" dy="0.95em" style="text-anchor: middle; visibility: hidden; font-family: Roboto, sans-serif; font-size: 12px; font-weight: 200;" fill="rgb(33, 33, 33)" stroke="none" stroke-width="1px">260k</text></g><line x1="0" y1="0" x2="278.4375" y2="0" fill="rgb(0, 0, 0)" stroke="rgb(204, 204, 204)" stroke-width="1px"></line></g></g></g></g></svg>