<svg viewBox="0 0 330 200" xmlns="http://www.w3.org/2000/svg"><g><g><g><g><g><line x1="41.6875" y1="175" x2="36.6875" y2="175" style="visibility: inherit;" fill="rgb(0, 0, 0)" stroke="rgb(204, 204, 204)" stroke-width="1px"></line><line x1="41.6875" y1="160.41666666666666" x2="36.6875" y2="160.41666666666666" style="visibility: inherit;" fill="rgb(0, 0, 0)" stroke="rgb(204, 204, 204)" stroke-width="1px"></line><line x1="41.6875" y1="145.83333333333334" x2="36.6875" y2="145.83333333333334" style="visibility: inherit;" fill="rgb(0, 0, 0)" stroke="rgb(204, 204, 204)" stroke-width="1px"></line><line x1="41.6875" y1="131.25" x2="36.6875" y2="131.25" style="visibility: inherit;" fill="rgb(0, 0, 0)" stroke="rgb(204, 204, 204)" stroke-width="1px"></line><line x1="41.6875" y1="116.66666666666669" x2="36.6875" y2="116.66666666666669" style="visibility: inherit;" fill="rgb(0, 0, 0)" stroke="rgb(204, 204, 204)" stroke-width="1px"></line><line x1="41.6875" y1="102.08333333333331" x2="36.6875" y2="102.08333333333331" style="visibility: inherit;" fill="rgb(0, 0, 0)" stroke="rgb(204, 204, 204)" stroke-width="1px"></line><line x1="41.6875" y1="87.5" x2="36.6875" y2="87.5" style="visibility: inherit;" fill="rgb(0, 0, 0)" stroke="rgb(204, 204, 204)" stroke-width="1px"></line><line x1="41.6875" y1="72.91666666666666" x2="36.6875" y2="72.91666666666666" style="visibility: inherit;" fill="rgb(0, 0, 0)" stroke="rgb(204, 204, 204)" stroke-width="1px"></line><line x1="41.6875" y1="58.33333333333334" x2="36.6875" y2="58.33333333333334" style="visibility: inherit;" fill="rgb(0, 0, 0)" stroke="rgb(204, 204, 204)" stroke-width="1px"></line><line x1="41.6875" y1="43.75" x2="36.6875" y2="43.75" style="visibility: inherit;" fill="rgb(0, 0, 0)" stroke="rgb(204, 204, 204)" stroke-width="1px"></line><line x1="41.6875" y1="29.16666666666666" x2="36.6875" y2="29.16666666666666" style="visibility: inherit;" fill="rgb(0, 0, 0)" stroke="rgb(204, 204, 204)" stroke-width="1px"></line><line x1="41.6875" y1="14.58333333333334" x2="36.6875" y2="14.58333333333334" style="visibility: inherit;" fill="rgb(0, 0, 0)" stroke="rgb(204, 204, 204)" stroke-width="1px"></line><line x1="41.6875" y1="0" x2="36.6875" y2="0" style="visibility: inherit;" fill="rgb(0, 0, 0)" stroke="rgb(204, 204, 204)" stroke-width="1px"></line></g><g transform="translate(31.6875, 0)"><text x="0" y="175" dx="0em" dy="0.3em" style="text-anchor: end; visibility: hidden; font-family: Roboto, sans-serif; font-size: 12px; font-weight: 200;" fill="rgb(33, 33, 33)" stroke="none" stroke-width="1px">692</text><text x="0" y="160.41666666666666" dx="0em" dy="0.3em" style="text-anchor: end; visibility: inherit; font-family: Roboto, sans-serif; font-size: 12px; font-weight: 200;" fill="rgb(33, 33, 33)" stroke="none" stroke-width="1px">692</text><text x="0" y="145.83333333333334" dx="0em" dy="0.3em" style="text-anchor: end; visibility: hidden; font-family: Roboto, sans-serif; font-size: 12px; font-weight: 200;" fill="rgb(33, 33, 33)" stroke="none" stroke-width="1px">693</text><text x="0" y="131.25" dx="0em" dy="0.3em" style="text-anchor: end; visibility: inherit; font-family: Roboto, sans-serif; font-size: 12px; font-weight: 200;" fill="rgb(33, 33, 33)" stroke="none" stroke-width="1px">693</text><text x="0" y="116.66666666666669" dx="0em" dy="0.3em" style="text-anchor: end; visibility: hidden; font-family: Roboto, sans-serif; font-size: 12px; font-weight: 200;" fill="rgb(33, 33, 33)" stroke="none" stroke-width="1px">694</text><text x="0" y="102.08333333333331" dx="0em" dy="0.3em" style="text-anchor: end; visibility: inherit; font-family: Roboto, sans-serif; font-size: 12px; font-weight: 200;" fill="rgb(33, 33, 33)" stroke="none" stroke-width="1px">694</text><text x="0" y="87.5" dx="0em" dy="0.3em" style="text-anchor: end; visibility: hidden; font-family: Roboto, sans-serif; font-size: 12px; font-weight: 200;" fill="rgb(33, 33, 33)" stroke="none" stroke-width="1px">695</text><text x="0" y="72.91666666666666" dx="0em" dy="0.3em" style="text-anchor: end; visibility: inherit; font-family: Roboto, sans-serif; font-size: 12px; font-weight: 200;" fill="rgb(33, 33, 33)" stroke="none" stroke-width="1px">695</text><text x="0" y="58.33333333333334" dx="0em" dy="0.3em" style="text-anchor: end; visibility: hidden; font-family: Roboto, sans-serif; font-size: 12px; font-weight: 200;" fill="rgb(33, 33, 33)" stroke="none" stroke-width="1px">696</text><text x="0" y="43.75" dx="0em" dy="0.3em" style="text-anchor: end; visibility: inherit; font-family: Roboto, sans-serif; font-size: 12px; font-weight: 200;" fill="rgb(33, 33, 33)" stroke="none" stroke-width="1px">696</text><text x="0" y="29.16666666666666" dx="0em" dy="0.3em" style="text-anchor: end; visibility: hidden; font-family: Roboto, sans-serif; font-size: 12px; font-weight: 200;" fill="rgb(33, 33, 33)" stroke="none" stroke-width="1px">697</text><text x="0" y="14.58333333333334" dx="0em" dy="0.3em" style="text-anchor: end; visibility: inherit; font-family: Roboto, sans-serif; font-size: 12px; font-weight: 200;" fill="rgb(33, 33, 33)" stroke="none" stroke-width="1px">697</text><text x="0" y="0" dx="0em" dy="0.3em" style="text-anchor: end; visibility: hidden; font-family: Roboto, sans-serif; font-size: 12px; font-weight: 200;" fill="rgb(33, 33, 33)" stroke="none" stroke-width="1px">698</text></g><line x1="41.6875" y1="0" x2="41.6875" y2="175" fill="rgb(0, 0, 0)" stroke="rgb(204, 204, 204)" stroke-width="1px"></line></g></g><g transform="translate(41, 0)" clip-path="url(#clip_0)"><clipPath id="clip_0"><rect width="288" height="175"></rect></clipPath><g><g><g><line x1="0" y1="0" x2="0" y2="175" fill="rgb(0, 0, 0)" stroke="rgb(66, 66, 66)" stroke-width="1px" opacity="0.25"></line><line x1="24.026041666666664" y1="0" x2="24.026041666666664" y2="175" fill="rgb(0, 0, 0)" stroke="rgb(66, 66, 66)" stroke-width="1px" opacity="0.25"></line><line x1="48.05208333333333" y1="0" x2="48.05208333333333" y2="175" fill="rgb(0, 0, 0)" stroke="rgb(66, 66, 66)" stroke-width="1px" opacity="0.25"></line><line x1="72.078125" y1="0" x2="72.078125" y2="175" fill="rgb(0, 0, 0)" stroke="rgb(66, 66, 66)" stroke-width="1px" opacity="0.25"></line><line x1="96.10416666666666" y1="0" x2="96.10416666666666" y2="175" fill="rgb(0, 0, 0)" stroke="rgb(66, 66, 66)" stroke-width="1px" opacity="0.25"></line><line x1="120.13020833333334" y1="0" x2="120.13020833333334" y2="175" fill="rgb(0, 0, 0)" stroke="rgb(66, 66, 66)" stroke-width="1px" opacity="0.25"></line><line x1="144.15625" y1="0" x2="144.15625" y2="175" fill="rgb(0, 0, 0)" stroke="rgb(66, 66, 66)" stroke-width="1px" opacity="0.25"></line><line x1="168.18229166666669" y1="0" x2="168.18229166666669" y2="175" fill="rgb(0, 0, 0)" stroke="rgb(66, 66, 66)" stroke-width="1px" opacity="0.25"></line><line x1="192.20833333333331" y1="0" x2="192.20833333333331" y2="175" fill="rgb(0, 0, 0)" stroke="rgb(66, 66, 66)" stroke-width="1px" opacity="0.25"></line><line x1="216.234375" y1="0" x2="216.234375" y2="175" fill="rgb(0, 0, 0)" stroke="rgb(66, 66, 66)" stroke-width="1px" opacity="0.25"></line><line x1="240.26041666666669" y1="0" x2="240.26041666666669" y2="175" fill="rgb(0, 0, 0)" stroke="rgb(66, 66, 66)" stroke-width="1px" opacity="0.25"></line><line x1="264.2864583333333" y1="0" x2="264.2864583333333" y2="175" fill="rgb(0, 0, 0)" stroke="rgb(66, 66, 66)" stroke-width="1px" opacity="0.25"></line><line x1="288.3125" y1="0" x2="288.3125" y2="175" fill="rgb(0, 0, 0)" stroke="rgb(66, 66, 66)" stroke-width="1px" opacity="0.25"></line></g><g><line x1="0" y1="175" x2="288.3125" y2="175" fill="rgb(0, 0, 0)" stroke="rgb(66, 66, 66)" stroke-width="1px" opacity="0.25"></line><line x1="0" y1="160.41666666666666" x2="288.3125" y2="160.41666666666666" fill="rgb(0, 0, 0)" stroke="rgb(66, 66, 66)" stroke-width="1px" opacity="0.25"></line><line x1="0" y1="145.83333333333334" x2="288.3125" y2="145.83333333333334" fill="rgb(0, 0, 0)" stroke="rgb(66, 66, 66)" stroke-width="1px" opacity="0.25"></line><line x1="0" y1="131.25" x2="288.3125" y2="131.25" fill="rgb(0, 0, 0)" stroke="rgb(66, 66, 66)" stroke-width="1px" opacity="0.25"></line><line x1="0" y1="116.66666666666669" x2="288.3125" y2="116.66666666666669" fill="rgb(0, 0, 0)" stroke="rgb(66, 66, 66)" stroke-width="1px" opacity="0.25"></line><line x1="0" y1="102.08333333333331" x2="288.3125" y2="102.08333333333331" fill="rgb(0, 0, 0)" stroke="rgb(66, 66, 66)" stroke-width="1px" opacity="0.25"></line><line x1="0" y1="87.5" x2="288.3125" y2="87.5" fill="rgb(0, 0, 0)" stroke="rgb(66, 66, 66)" stroke-width="1px" opacity="0.25"></line><line x1="0" y1="72.91666666666666" x2="288.3125" y2="72.91666666666666" fill="rgb(0, 0, 0)" stroke="rgb(66, 66, 66)" stroke-width="1px" opacity="0.25"></line><line x1="0" y1="58.33333333333334" x2="288.3125" y2="58.33333333333334" fill="rgb(0, 0, 0)" stroke="rgb(66, 66, 66)" stroke-width="1px" opacity="0.25"></line><line x1="0" y1="43.75" x2="288.3125" y2="43.75" fill="rgb(0, 0, 0)" stroke="rgb(66, 66, 66)" stroke-width="1px" opacity="0.25"></line><line x1="0" y1="29.16666666666666" x2="288.3125" y2="29.16666666666666" fill="rgb(0, 0, 0)" stroke="rgb(66, 66, 66)" stroke-width="1px" opacity="0.25"></line><line x1="0" y1="14.58333333333334" x2="288.3125" y2="14.58333333333334" fill="rgb(0, 0, 0)" stroke="rgb(66, 66, 66)" stroke-width="1px" opacity="0.25"></line><line x1="0" y1="0" x2="288.3125" y2="0" fill="rgb(0, 0, 0)" stroke="rgb(66, 66, 66)" stroke-width="1px" opacity="0.25"></line></g></g></g><g><g><line x1="0" y1="20343.75" x2="288.3125" y2="20343.75" fill="rgb(0, 0, 0)" stroke="rgb(153, 153, 153)" stroke-width="1.5px"></line></g></g><g><g><line x1="24.026041666666664" y1="0" x2="24.026041666666664" y2="175" fill="rgb(0, 0, 0)" stroke="rgb(153, 153, 153)" stroke-width="1.5px"></line></g></g><g><g><g><g><g><path stroke="rgb(255, 112, 67)" stroke-width="2px" d="M38.689231,-6.763155204733557L38.73843633333333,1.775440210609247L38.984463,6.898597459738679L39.230489666666664,9.972491809191784L39.32890033333334,11.816828418853706L39.722543,12.923430384646881L39.771748333333335,13.587391564124118L40.11618566666667,13.98576827180781L40.313007,14.224794296418022L40.755855000000004,26.034876577852142L41.14949766666667,33.1209259467073L41.936783,49.03922223469172L42.13360433333333,58.590200007484356L42.42883633333333,64.32078667115726L42.62565766666666,67.75913866936301L42.724068333333335,69.82214986828316L44.79069233333333,71.05995658763456L44.839897666666666,71.8026406192474L44.93830833333333,72.24825103821311L45.23354033333334,72.51561728959453L45.67638833333333,84.34270370708674L45.774798999999994,91.43895555758473L45.824004333333335,95.69670666788284L45.971620333333334,98.25135733406302L46.26685233333333,99.78414773376915L46.70970033333333,100.70382197359083L46.85731633333334,101.25562651748982L46.90652166666666,101.58670924382659L47.398574999999994,101.78535887962994L48.235065666666664,101.90454866110866L48.33347633333333,101.9760625299985L49.02235099999999,113.6856375179998L49.268377666666666,120.71138251080055L49.36678833333333,124.92682950647901L49.51440433333334,127.4560977038874L49.908047,128.9736586223351L50.203279,129.88419517340236L50.30168966666667,130.4305171040421L50.44930566666666,130.75831026242594L50.74453766666667,130.95498615745623L50.99056433333333,131.07299169447373L51.48261766666666,131.14379501668623L51.77784966666666,131.1862770100144L52.07308166666666,131.2117662060113L52.269903000000006,131.22705972360745L52.565135000000005,131.23623583416446L52.66354566666667,131.24174150049868L52.712751,131.24504490029852L52.81116166666666,131.24702694018043L52.90957233333333,131.24821616411094L52.95877766666667,131.24892969846655L53.20480433333333,131.24935781908061L53.25400966666667,131.24961469144836L53.69685766666667,131.249768814871L53.99208966666667,131.24986128892527L54.09050033333334,131.24991677335584L54.336527,131.2499500640148L54.58255366666667,131.24997003841088L54.680964333333336,131.24998202304522L55.27142833333333,131.2499892138258L55.61586566666667,131.24999352829815L55.665071,131.24999611698155L55.763481666666664,131.2499976701896L55.86189233333333,131.24999860211375L55.91109766666667,131.24999916126825L56.009508333333336,131.24999949676095L56.59997233333333,131.24999969805725L56.74758833333334,131.24999981883434L56.94440966666667,131.2499998912993L57.092025666666665,131.24999993478025L57.23964166666667,131.24999996086945L57.436463,131.24999997652367L57.48566833333333,131.2499999859142L57.68248966666666,131.2499999915512L57.928516333333334,131.24999999493338L57.97772166666667,131.24999999696269L58.469775000000006,131.2499999981763L58.66659633333334,131.24999999890576L58.81421233333333,131.24999999934346L59.207854999999995,131.24999999960875L59.404676333333335,131.2499999997679L59.552292333333334,131.24999999986073L59.60149766666667,131.24999999991712L59.650703,131.24999999995026L59.99514033333334,131.24999999997016L60.29037233333334,131.2499999999834L60.388783000000004,131.24999999999005L60.43798833333333,131.24999999999335L60.63480966666666,131.2499999999967L60.831631,119.5833333333307L60.979247,112.58333333333042L61.028452333333334,108.38333333333026L61.07765766666667,105.86333333333283L61.274479,104.35133333333039L61.717327000000004,103.4441333333329L61.91414833333334,102.89981333333174L61.96335366666666,102.57322133333372L62.012559,102.3772661333349L62.11096966666667,102.2596930133356L62.160175,102.18914914133467L62.455407,102.14682281813151L62.65222833333333,102.12142702421357L62.70143366666667,102.10618954786145L62.79984433333333,102.0970470620502L62.898255,102.09156157056282L63.045871,102.08827027567037L63.09507633333333,102.08629549873552L63.144281666666664,102.085110632576L63.193487,102.08439971288027L63.341103000000004,102.08397316105885L63.537924333333336,102.083717229966L63.783951,102.0835636713116L63.833156333333335,102.08347153611896L63.88236166666667,102.08341625500407L64.17759366666667,102.08338308633574L65.01408433333333,102.08336318513415L65.21090566666668,102.08335124441516L65.30931633333334,102.0833440799824L65.555343,102.08333978132015L66.736271,102.08333720212676L66.83468166666667,102.08333565460873L67.08070833333333,102.08333472609655L67.179119,102.08333416899126L67.37594033333333,102.08333383472547L67.474351,102.08333363416858L67.86799366666666,102.08333351383584L68.16322566666668,102.08333344163617L68.36004700000001,102.08333339831438L68.70448433333333,102.0833333723213L68.80289499999999,102.08333335672347L69.09812699999999,102.08333334736608L69.19653766666666,102.08333334175234L69.34415366666667,102.0833333383867L69.393359,102.08333333636403L69.49176966666667,102.08333333515043L69.88541233333333,102.08333333442096L69.93461766666667,102.08333333398326L70.08223366666667,102.08333333372462L70.426671,102.08333333356546L70.574287,102.08333333347258L71.017135,102.08333333341625L71.21395633333334,102.08333333338305L71.36157233333333,102.08333333336316L71.41077766666668,102.08333333335321L71.85362566666666,102.08333333334662L71.902831,102.08333333333997L72.09965233333334,102.08333333333667L72.14885766666666,102.08333333333331L72.198063,102.08333333333331L72.24726833333334,102.08333333333331L72.44408966666667,102.08333333333331L72.493295,102.08333333333331L72.640911,102.08333333333331L72.69011633333334,102.08333333333331L73.083759,102.08333333333331L73.28058033333333,102.08333333333331L73.378991,102.08333333333331L73.47740166666667,102.08333333333331L73.526607,102.08333333333331L73.969455,102.08333333333331L74.11707100000001,102.08333333333331L74.51071366666667,102.08333333333331L74.60912433333333,102.08333333333331L74.80594566666666,102.08333333333331L74.85515099999999,102.08333333333331L75.10117766666667,102.08333333333331L75.445615,102.08333333333331L75.98687366666665,102.08333333333331L76.08528433333333,102.08333333333331L76.38051633333333,102.08333333333331L76.52813233333333,102.08333333333331L76.626543,102.08333333333331L76.82336433333333,102.08333333333331L77.02018566666666,102.08333333333331L77.11859633333333,102.08333333333331L77.36462300000001,102.08333333333331L77.41382833333333,102.08333333333331L77.46303366666666,102.08333333333331L77.85667633333333,102.08333333333331L78.15190833333334,102.08333333333331L78.34872966666667,102.08333333333331L78.397935,102.08333333333331L78.44714033333332,102.08333333333331L78.88998833333333,102.08333333333331L79.136015,102.08333333333331L79.82488966666668,102.08333333333331L79.92330033333333,102.08333333333331L80.90740699999999,102.08333333333331L80.95661233333334,102.08333333333331L81.15343366666667,102.08333333333331L81.202639,102.08333333333331L81.25184433333334,102.08333333333331L82.13754033333333,102.08333333333331L82.383567,102.08333333333331L82.72800433333333,102.08333333333331L82.77720966666666,102.08333333333331L83.07244166666668,102.08333333333331L83.17085233333333,102.08333333333331L83.416879,102.08333333333331L83.51528966666666,102.08333333333331L83.61370033333334,102.08333333333331L83.81052166666667,102.08333333333331L84.69621766666667,102.08333333333331L84.79462833333334,102.08333333333331L84.893039,102.08333333333331L85.28668166666667,102.08333333333331L85.43429766666667,102.08333333333331L85.82794033333333,102.08333333333331L85.97555633333333,102.08333333333331L86.12317233333334,102.08333333333331L86.76284166666666,102.08333333333331L87.107279,102.08333333333331L87.40251099999999,102.08333333333331L87.59933233333332,102.08333333333331L87.697743,102.08333333333331L87.74694833333334,102.08333333333331L88.04218033333333,102.08333333333331L88.53423366666667,102.08333333333331L88.78026033333335,102.08333333333331L88.82946566666666,102.08333333333331L88.97708166666668,102.08333333333331L89.27231366666666,102.08333333333331L89.37072433333334,102.08333333333331L89.51834033333334,102.08333333333331L89.66595633333333,102.08333333333331L89.81357233333333,102.08333333333331L89.86277766666666,102.08333333333331L90.74847366666667,102.08333333333331L91.48655366666667,102.08333333333331L92.22463366666668,102.08333333333331L92.37224966666668,102.08333333333331L92.42145500000001,102.08333333333331L92.51986566666666,102.08333333333331L92.56907100000001,102.08333333333331L93.602383,102.08333333333331L93.65158833333334,102.08333333333331L93.897615,102.08333333333331L94.045231,102.08333333333331L94.24205233333333,102.08333333333331L94.340463,102.08333333333331L94.53728433333333,102.08333333333331L94.73410566666666,102.08333333333331L94.930927,102.08333333333331L96.16106033333332,102.08333333333331L96.21026566666667,102.08333333333331L96.75152433333334,102.08333333333331L97.145167,102.08333333333331L97.19437233333333,102.08333333333331L97.34198833333333,102.08333333333331L97.440399,102.08333333333331L97.48960433333333,102.08333333333331L97.93245233333333,102.08333333333331L98.27688966666668,102.08333333333331L99.01496966666666,102.08333333333331L99.064175,102.08333333333331L99.21179099999999,102.08333333333331L99.55622833333332,102.08333333333331L100.14669233333333,90.41666666666731L100.392719,83.41666666666706L100.44192433333333,79.2166666666669L100.540335,76.69666666666615L100.88477233333333,75.18466666666703L101.22920966666666,74.27746666666621L101.278415,73.73314666666508L101.72126300000001,73.40655466666703L101.91808433333334,73.21059946666821L102.01649499999999,73.09302634666892L102.21331633333332,73.02248247466801L102.65616433333334,72.98015615146815L103.00060166666665,72.95476035754689L103.049807,72.93952288119479L103.29583366666667,72.93038039538354L103.68947633333333,72.92489490389946L104.13232433333333,72.92160360900701L104.18152966666668,72.91962883206887L104.37835100000001,72.91844396590932L104.62437766666667,72.91773304621358L104.77199366666667,72.91730649439549L104.87040433333333,72.91705056330593L105.01802033333334,72.91689700465156L105.16563633333334,72.91680486945893L105.36245766666667,72.9167495883407L105.75610033333334,72.91671641967241L106.149743,72.91669651847079L106.34656433333333,72.91668457774847L106.49418033333333,72.91667741331574L106.54338566666667,72.91667311465679L106.83861766666668,72.91667053546007L106.887823,72.91666898794537L107.28146566666666,72.91666805943655L107.478287,72.91666750233125L107.52749233333333,72.9166671680654L107.57669766666666,72.91666696750858L107.67510833333333,72.91666684717248L107.82272433333334,72.91666677496949L108.16716166666667,72.91666673165102L108.216367,72.91666670565795L108.61000966666667,72.91666669006341L108.659215,72.91666668070604L109.10206299999999,72.91666667508898L109.29888433333332,72.91666667172004L109.397295,72.91666666969738L109.44650033333333,72.91666666848377L109.544911,72.9166666677576L109.79093766666666,72.9166666673232L109.840143,72.91666666706126L109.93855366666666,72.9166666669054L109.987759,72.91666666681257L110.03696433333333,72.91666666675289L110.28299100000001,72.91666666671972L110.97186566666666,72.91666666669983L111.41471366666667,72.91666666668655L111.70994566666667,72.91666666667993L112.054383,72.91666666667331L112.10358833333333,72.91666666667331L112.54643633333335,72.91666666667331L112.89087366666666,72.91666666667331L113.33372166666668,72.91666666667331L113.48133766666666,72.91666666667331L113.825775,72.91666666667331L113.92418566666667,72.91666666667331L114.121007,72.91666666667331L114.61306033333332,72.91666666667331L114.66226566666667,72.91666666667331L114.80988166666666,72.91666666667331L115.05590833333333,72.91666666667331L115.25272966666667,72.91666666667331L115.892399,72.91666666667331L115.99080966666668,72.91666666667331L116.040015,72.91666666667331L116.335247,72.91666666667331L116.38445233333334,72.91666666667331L116.43365766666666,72.91666666667331L116.53206833333334,72.91666666667331L117.22094299999999,72.91666666667331L118.106639,72.91666666667331L118.401871,72.91666666667331L118.74630833333333,72.91666666667331L119.04154033333334,72.91666666667331L119.23836166666668,72.91666666667331L119.33677233333333,72.91666666667331L119.43518300000001,72.91666666667331L119.730415,72.91666666667331L119.878031,72.91666666667331L119.97644166666667,72.91666666667331L120.12405766666666,72.91666666667331L120.27167366666666,72.91666666667331L120.41928966666667,72.91666666667331L120.86213766666667,72.91666666667331L120.96054833333334,72.91666666667331L121.55101233333333,72.91666666667331L121.60021766666667,72.91666666667331L121.649423,72.91666666667331L122.33829766666666,72.91666666667331L122.535119,72.91666666667331L122.73194033333333,72.91666666667331L122.92876166666666,72.91666666667331L122.97796699999999,72.91666666667331L123.12558299999999,72.91666666667331L123.22399366666667,72.91666666667331L123.32240433333332,72.91666666667331L123.71604699999999,72.91666666667331L123.81445766666667,72.91666666667331L123.96207366666667,72.91666666667331L124.10968966666667,72.91666666667331L124.25730566666667,72.91666666667331L124.35571633333333,72.91666666667331L124.50333233333333,72.91666666667331L124.65094833333333,72.91666666667331L125.43823366666666,72.91666666667331L125.782671,72.91666666667331L126.02869766666666,72.91666666667331L126.077903,72.91666666667331L126.12710833333334,72.91666666667331L126.22551899999999,72.91666666667331L126.27472433333334,72.91666666667331L126.37313499999999,72.91666666667331L126.47154566666667,72.91666666667331L126.668367,72.91666666667331L126.86518833333334,72.91666666667331L127.111215,72.91666666667331L127.20962566666667,72.91666666667331L127.554063,72.91666666667331L127.65247366666667,72.91666666667331L127.701679,72.91666666667331L127.94770566666668,72.91666666667331L128.144527,72.91666666667331L128.39055366666668,72.91666666667331L128.4889643333333,72.91666666667331L128.53816966666668,72.91666666667331L129.030223,72.91666666667331L129.07942833333334,72.91666666667331L129.27624966666667,72.91666666667331L129.42386566666667,72.91666666667331L129.57148166666667,72.91666666667331L129.620687,72.91666666667331L129.768303,72.91666666667331L129.81750833333334,72.91666666667331L129.915919,72.91666666667331L130.16194566666667,72.91666666667331L130.211151,72.91666666667331L130.55558833333333,72.91666666667331L130.60479366666667,72.91666666667331L130.801615,72.91666666667331L130.90002566666666,72.91666666667331L130.99843633333333,72.91666666667331L131.19525766666666,72.91666666667331L131.687311,72.91666666667331L131.78572166666666,72.91666666667331L131.88413233333333,72.91666666667331L131.93333766666666,72.91666666667331L132.130159,72.91666666667331L132.277775,72.91666666667331L132.67141766666666,72.91666666667331L132.868239,72.91666666667331L133.55711366666668,72.91666666667331L133.753935,72.91666666667331L133.85234566666668,72.91666666667331L134.09837233333334,72.91666666667331L134.14757766666668,72.91666666667331L134.24598833333334,72.91666666667331L134.344399,72.91666666667331L134.39360433333331,72.91666666667331L134.492015,72.91666666667331L134.59042566666665,72.91666666667331L134.639631,72.91666666667331L134.9840683333333,72.91666666667331L135.13168433333334,72.91666666667331L135.377711,72.91666666667331L135.968175,72.91666666667331L136.16499633333333,72.91666666667331L136.31261233333333,72.91666666667331L136.80466566666666,72.91666666667331L137.09989766666666,72.91666666667331L137.149103,72.91666666667331L137.24751366666666,72.91666666667331L137.39512966666666,72.91666666667331L137.54274566666666,72.91666666667331L137.591951,72.91666666667331L137.64115633333333,72.91666666667331L138.13320966666666,72.91666666667331L138.182415,72.91666666667331L138.23162033333335,72.91666666667331L138.330031,72.91666666667331L138.920495,72.91666666667331L138.96970033333332,72.91666666667331L139.01890566666668,72.91666666667331L139.068111,72.91666666667331L139.46175366666665,72.91666666667331L139.90460166666665,72.91666666667331L140.74109233333334,72.91666666667331L141.429967,72.91666666667331L141.62678833333334,72.91666666667331L141.67599366666667,72.91666666667331L141.77440433333334,72.91666666667331L142.168047,84.58333333333599L142.26645766666667,91.58333333333627L142.463279,95.78333333333643L142.95533233333333,98.30333333333385L143.348975,99.815333333333L143.39818033333333,100.72253333333379L143.939439,101.26685333333495L144.3330816666667,101.59344533333297L144.62831366666668,101.78940053333179L144.67751900000002,101.90697365333108L144.77592966666666,101.97751752533196L144.87434033333332,102.01984384853188L145.12036700000002,102.04523964245311L146.05526833333332,102.06047711880518L146.35050033333334,102.06961960461643L146.39970566666665,102.07510509610057L146.891759,102.07839639099302L146.99016966666667,102.0803711679311L147.13778566666667,102.08155603409068L147.18699099999998,102.08226695378642L147.2361963333333,102.08269350560454L147.72824966666667,102.08294943669404L147.777455,102.08310299534844L147.925071,102.08319513054107L148.220303,102.08325041165932L148.46632966666667,102.08328358032759L148.56474033333333,102.08330348152924L148.663151,102.08331542225153L148.76156166666667,102.08332258668423L149.2044096666667,102.08332688534324L149.401231,102.08332946453993L149.59805233333336,102.08333101205466L149.696463,102.08333194056348L149.844079,102.08333249766878L150.286927,102.08333283193457L150.33613233333335,102.08333303249145L150.53295366666666,102.08333315282755L150.82818566666668,102.08333322503051L150.92659633333332,102.08333326834901L151.51706033333335,102.08333329434208L151.56626566666668,102.08333330993656L151.615471,102.08333331929396L151.66467633333332,102.08333332491105L151.81229233333332,102.08333332827993L152.00911366666668,102.08333333030265L152.30434566666668,102.08333333151626L152.353551,102.08333333224243L152.50116699999998,102.08333333267677L152.89480966666665,102.08333333293876L153.14083633333334,102.08333333309457L153.2884523333333,102.08333333318745L153.43606833333334,102.08333333324714L153.48527366666667,102.08333333328028L153.78050566666667,102.08333333330017L153.87891633333334,102.08333333331342L154.17414833333333,102.08333333332007L154.32176433333333,102.08333333332672L154.4693803333333,102.08333333332672L154.51858566666667,102.08333333332672L154.715407,102.08333333332672L155.65030833333336,102.08333333332672L155.84712966666666,102.08333333332672L155.94554033333333,102.08333333332672L156.191567,102.08333333332672L156.4375936666667,102.08333333332672L157.077263,102.08333333332672L157.27408433333335,102.08333333332672L157.42170033333332,102.08333333332672L158.15978033333332,102.08333333332672L158.701039,102.08333333332672L158.75024433333334,102.08333333332672L158.89786033333334,102.08333333332672L159.19309233333334,102.08333333332672L159.53752966666667,102.08333333332672L159.586735,102.08333333332672L159.63594033333334,102.08333333332672L159.68514566666667,102.08333333332672L159.734351,102.08333333332672L159.7835563333333,102.08333333332672L160.17719899999997,102.08333333332672L161.30892166666666,102.08333333332672L161.35812700000002,102.08333333332672L161.40733233333336,102.08333333332672L161.7517696666667,102.08333333332672L162.29302833333333,102.08333333332672L162.391439,102.08333333332672L162.98190300000002,102.08333333332672L163.03110833333332,102.08333333332672L163.17872433333332,102.08333333332672L163.27713500000002,102.08333333332672L163.32634033333335,102.08333333332672L163.42475100000001,102.08333333332672L164.35965233333332,102.08333333332672L164.605679,102.08333333332672L164.75329499999998,102.08333333332672L164.900911,102.08333333332672L165.343759,102.08333333332672L165.39296433333334,102.08333333332672L165.68819633333334,102.08333333332672L165.786607,102.08333333332672L165.83581233333334,102.08333333332672L166.13104433333334,102.08333333332672L166.2786603333333,102.08333333332672L166.32786566666667,102.08333333332672L166.57389233333333,102.08333333332672L166.67230300000003,102.08333333332672L166.77071366666667,102.08333333332672L166.91832966666666,102.08333333332672L167.36117766666666,102.08333333332672L167.60720433333333,102.08333333332672L167.705615,102.08333333332672L167.75482033333333,102.08333333332672L167.80402566666666,102.08333333332672L168.34528433333332,102.08333333332672L168.83733766666666,102.08333333332672L169.23098033333332,102.08333333332672L170.06747099999998,102.08333333332672L170.41190833333332,102.08333333332672L170.46111366666665,102.08333333332672L170.60872966666668,102.08333333332672L171.100783,102.08333333332672L171.396015,102.08333333332672L171.5928363333333,102.08333333332672L171.838863,102.08333333332672L171.93727366666667,102.08333333332672L172.03568433333334,102.08333333332672L172.134095,102.08333333332672L172.23250566666667,102.08333333332672L172.429327,102.08333333332672L172.47853233333333,102.08333333332672L172.62614833333333,102.08333333332672L172.92138033333333,102.08333333332672L173.019791,102.08333333332672L173.16740700000003,102.08333333332672L173.5610496666667,102.08333333332672L173.65946033333333,102.08333333332672L173.70866566666666,102.08333333332672L173.757871,102.08333333332672L174.15151366666666,102.08333333332672L174.88959366666666,102.08333333332672L174.98800433333332,102.08333333332672L175.08641500000002,102.08333333332672L175.18482566666668,102.08333333332672L175.28323633333332,102.08333333332672L175.72608433333332,102.08333333332672L175.92290566666668,102.08333333332672L176.562575,102.08333333332672L176.75939633333334,102.08333333332672L177.69429766666664,102.08333333332672L178.43237766666667,102.08333333332672L178.481583,102.08333333332672L178.776815,102.08333333332672L178.82602033333333,102.08333333332672L178.924431,102.08333333332672L179.072047,102.08333333332672L179.31807366666666,102.08333333332672L179.46568966666666,102.08333333332672L179.514895,102.08333333332672L179.6133056666667,102.08333333332672L180.40059100000002,102.08333333332672L180.74502833333332,102.08333333332672L180.94184966666666,102.08333333332672L181.28628700000002,102.08333333332672L181.33549233333332,102.08333333332672L181.67992966666668,102.08333333332672L181.82754566666665,102.08333333332672L183.00847366666665,102.08333333332672L183.15608966666667,102.08333333332672L183.500527,102.08333333332672L183.648143,102.08333333332672L183.69734833333334,102.08333333332672L183.795759,102.08333333332672L183.84496433333334,102.08333333332672L184.18940166666667,102.08333333332672L184.28781233333333,102.08333333332672L184.829071,102.08333333332672L185.07509766666666,102.08333333332672L185.51794566666666,102.08333333332672L185.61635633333333,102.08333333332672L185.71476700000002,102.08333333332672L185.91158833333333,102.08333333332672L186.05920433333333,102.08333333332672L186.69887366666666,102.08333333332672L186.748079,102.08333333332672L186.79728433333332,102.08333333332672L187.09251633333332,102.08333333332672L187.486159,102.08333333332672L187.781391,102.08333333332672L187.83059633333332,102.08333333332672L187.87980166666665,102.08333333332672L188.076623,102.08333333332672L188.32264966666665,102.08333333332672L188.66708699999998,102.08333333332672L189.06072966666665,113.74999999999602L189.257551,120.7499999999963L189.4543723333333,124.94999999999646L189.552783,127.47000000000054L189.84801499999998,128.98200000000298L189.995631,129.88920000000047L190.09404166666667,130.43352000000158L190.19245233333334,130.76011199999965L190.290863,130.95606719999847L190.438479,131.07364031999776L190.68450566666667,131.14418419199865L191.27496966666666,131.18651051520186L191.52099633333333,131.2119063091198L191.767023,131.22714378547187L192.65271900000002,131.23628627128312L192.84954033333332,131.24177176277055L192.99715633333335,131.245063057663L193.243183,131.2470378345978L193.538415,131.24822270075737L193.58762033333332,131.2489336204531L193.78444166666668,131.24936017227452L193.88285233333335,131.24961610336737L194.17808433333335,131.24976966202172L194.22728966666668,131.24986179721435L194.52252166666668,131.2499170783293L194.866959,131.24995024699757L195.16219099999998,131.24997014819922L195.309807,131.24998208891822L195.605039,131.24998925335092L196.14629766666667,131.24999355201322L196.24470833333334,131.24999613120661L196.58914566666667,131.24999767872464L196.7367616666667,131.24999860723676L196.88437766666667,131.24999916434206L196.98278833333333,131.2499994986079L197.228815,131.24999969916473L198.01610033333333,131.24999981949753L198.114511,131.2499998916972L198.16371633333333,131.249999935019L198.3605376666667,131.24999996101207L198.409743,131.2499999766099L198.60656433333332,131.24999998596724L198.70497500000002,131.24999999158103L199.000207,131.24999999494992L199.04941233333335,131.24999999696928L199.39384966666665,131.2499999981829L199.98431366666665,131.24999999891241L200.23034033333334,131.2499999993501L200.37795633333334,131.24999999960875L200.8208043333333,131.2499999997679L200.87000966666665,131.24999999986073L201.16524166666667,131.24999999991712L201.21444699999998,131.24999999995026L201.90332166666667,131.24999999997016L202.100143,131.2499999999834L202.19855366666667,131.24999999999005L202.29696433333334,131.24999999999335L202.44458033333336,131.2499999999967L202.59219633333333,131.25L203.03504433333333,131.25L203.33027633333333,131.25L203.428687,131.25L203.9699456666667,131.25L204.01915100000002,131.25L204.314383,131.25L204.65882033333332,131.25L205.83974833333332,131.25L205.98736433333335,131.25L206.13498033333332,131.25L206.23339099999998,131.25L207.266703,131.25L207.414319,131.25L207.61114033333334,131.25L207.66034566666667,131.25L207.70955099999998,131.25L208.004783,131.25L208.152399,131.25L208.25080966666667,131.25L208.69365766666667,131.25L208.890479,131.25L209.038095,131.25L209.28412166666666,131.25L209.67776433333336,131.25L209.87458566666666,131.25L209.97299633333333,131.25L210.07140700000002,131.25L210.71107633333332,131.25L210.809487,131.25L210.95710300000002,131.25L211.547567,131.25L211.74438833333335,131.25L211.990415,131.25L212.08882566666668,131.25L212.58087899999998,131.25L212.67928966666665,131.25L212.77770033333334,131.25L213.41736966666664,131.25L213.71260166666667,131.25L214.20465499999997,131.25L214.45068166666667,131.25L214.795119,131.25L214.942735,131.25L215.04114566666667,131.25L216.02525233333333,131.25L216.07445766666666,131.25L216.123663,131.25L216.36968966666666,131.25L216.46810033333333,131.25L216.76333233333332,131.25L216.96015366666668,131.25L217.35379633333335,131.25L217.40300166666668,131.25L217.64902833333332,131.25L217.69823366666668,131.25L217.89505499999999,131.25L218.43631366666668,131.25L218.73154566666665,131.25L219.02677766666667,131.25L219.17439366666665,131.25L219.71565233333334,131.25L219.91247366666664,131.25L220.109295,131.25L220.20770566666667,131.25L220.45373233333333,131.25L220.65055366666667,131.25L220.89658033333333,131.25L221.142607,131.25L221.33942833333333,131.25L221.38863366666666,131.25L221.48704433333336,131.25L221.92989233333336,131.25L221.97909766666666,131.25L222.52035633333332,131.25L222.61876700000002,131.25L222.66797233333335,131.25L223.01240966666668,131.25L223.11082033333335,131.25L223.16002566666666,131.25L223.209231,131.25L223.25843633333332,131.25L223.45525766666668,131.25L223.55366833333332,131.25L224.63618566666668,131.25L224.78380166666665,131.25L225.47267633333334,131.25L225.718703,131.25L225.76790833333334,131.25L225.866319,131.25L226.25996166666667,131.25L226.50598833333333,131.25L226.85042566666667,131.25L228.228175,131.25L228.57261233333332,131.25L229.11387100000002,131.25L229.35989766666665,131.25L229.80274566666665,131.25L229.851951,131.25L230.34400433333334,131.25L230.39320966666668,131.25L230.442415,131.25L230.54082566666665,131.25L230.63923633333334,131.25L230.737647,131.25L230.78685233333334,131.25L230.83605766666668,131.25L230.9344683333333,131.25L231.82016433333334,131.25L232.06619099999998,131.25L232.31221766666667,131.25L232.45983366666667,131.25L232.60744966666667,131.25L232.85347633333333,131.25L233.394735,131.25L233.837583,131.25L233.985199,131.25L234.03440433333336,131.25L234.47725233333335,142.916666666666L234.77248433333332,149.91666666666626L235.51056433333332,154.11666666666642L235.55976966666668,156.6366666666672L235.85500166666665,158.14866666666632L236.051823,159.05586666666713L236.19943899999998,159.60018666666826L236.494671,159.9267786666663L236.59308166666665,160.12273386666513L237.03592966666665,160.24030698666442L237.232751,160.3108508586653L237.527983,160.3531771818652L237.77400966666664,160.37857297578645L238.06924166666667,160.39381045213852L238.266063,160.40295293794978L238.51208966666667,160.4084384294372L238.856527,160.41172972432966L239.05334833333333,160.41370450126445L239.49619633333333,160.41488936742402L239.64381233333333,160.41560028711976L240.23427633333333,160.41602683893785L240.5787136666667,160.41628277002738L240.72632966666666,160.41643632868178L240.82474033333332,160.4165284638744L240.87394566666666,160.41658374499264L241.070767,160.41661691366093L241.11997233333332,160.41663681486256L241.16917766666666,160.41664875558487L241.75964166666668,160.41665592001758L242.05487366666668,160.41666021867655L242.104079,160.41666279787327L242.20248966666668,160.4166643453913L242.44851633333334,160.41666527390342L242.49772166666668,160.41666583100871L242.64533766666665,160.41666616527124L242.94056966666668,160.4166663658314L243.13739099999998,160.4166664861642L243.4818283333333,160.41666655836386L243.97388166666667,160.41666660168565L244.26911366666664,160.41666662767872L244.465935,160.41666664327323L244.613551,160.4166666526306L245.00719366666667,160.41666665824437L245.10560433333333,160.41666666161328L245.74527366666666,160.41666666363597L245.942095,160.41666666484957L245.99130033333333,160.41666666557575L246.92620166666666,160.41666666601012L246.97540700000002,160.41666666627208L247.123023,160.41666666642791L247.46746033333335,160.4166666665241L247.565871,160.41666666658045L247.95951366666665,160.41666666661362L248.05792433333332,160.41666666663352L248.10712966666668,160.41666666664676L248.74679899999998,160.4166666666534L248.84520966666665,160.41666666666003L248.894415,160.41666666666336L249.28805766666667,160.41666666666666L249.337263,160.41666666666666L249.484879,160.41666666666666L249.58328966666664,160.41666666666666L250.02613766666667,160.41666666666666L250.17375366666667,160.41666666666666L250.27216433333334,160.41666666666666L250.37057499999997,160.41666666666666L250.961039,160.41666666666666L251.79752966666666,160.41666666666666L252.04355633333333,160.41666666666666L252.53560966666666,160.41666666666666L252.83084166666666,160.41666666666666L253.17527900000002,160.41666666666666L253.47051100000002,160.41666666666666L253.56892166666668,160.41666666666666L253.765743,160.41666666666666L254.11018033333332,160.41666666666666L254.15938566666665,160.41666666666666L254.208591,160.41666666666666L254.70064433333334,160.41666666666666L255.48792966666667,160.41666666666666L255.73395633333334,160.41666666666666L255.979983,160.41666666666666L256.2260096666667,160.41666666666666L256.275215,160.41666666666666L256.37362566666667,160.41666666666666L256.5212416666667,160.41666666666666L257.013295,160.41666666666666L257.2101163333333,160.41666666666666L257.25932166666666,160.41666666666666L257.55455366666666,160.41666666666666L257.751375,160.41666666666666L257.80058033333336,160.41666666666666L258.194223,160.41666666666666L258.29263366666663,160.41666666666666L258.341839,160.41666666666666L258.39104433333335,160.41666666666666L258.489455,160.41666666666666L258.637071,160.41666666666666L258.6862763333333,160.41666666666666L258.73548166666666,160.41666666666666L258.784687,160.41666666666666L258.98150833333335,160.41666666666666L259.07991899999996,160.41666666666666L259.227535,160.41666666666666L259.27674033333335,160.41666666666666L259.32594566666666,160.41666666666666L259.375151,160.41666666666666L259.4735616666667,160.41666666666666L259.62117766666665,160.41666666666666L259.670383,160.41666666666666L259.965615,160.41666666666666L260.260847,160.41666666666666L260.3592576666667,160.41666666666666L260.50687366666665,160.41666666666666L261.0973376666667,160.41666666666666L261.49098033333337,160.41666666666666L261.5401856666667,160.41666666666666L261.589391,160.41666666666666L261.88462300000003,160.41666666666666L262.22906033333334,160.41666666666666L262.475087,160.41666666666666L262.81952433333333,160.41666666666666L263.01634566666667,160.41666666666666L263.2623723333333,160.41666666666666L263.4591936666667,160.41666666666666L263.7544256666667,160.41666666666666L263.85283633333336,160.41666666666666L264.0004523333333,160.41666666666666L264.2956843333333,160.41666666666666" style="fill: none;" fill="none"></path></g></g></g></g><g opacity="0.2"><g><g><g><path stroke="rgb(255, 112, 67)" stroke-width="2px" d="M37.508303,-43.75L38.443204333333334,14.58333333333334L38.689231,14.58333333333334L38.73843633333333,14.58333333333334L38.984463,14.58333333333334L39.230489666666664,14.58333333333334L39.32890033333334,14.58333333333334L39.722543,14.58333333333334L39.771748333333335,14.58333333333334L40.11618566666667,14.58333333333334L40.313007,14.58333333333334L40.755855000000004,43.75L41.14949766666667,43.75L41.936783,72.91666666666666L42.13360433333333,72.91666666666666L42.42883633333333,72.91666666666666L42.62565766666666,72.91666666666666L42.724068333333335,72.91666666666666L44.79069233333333,72.91666666666666L44.839897666666666,72.91666666666666L44.93830833333333,72.91666666666666L45.23354033333334,72.91666666666666L45.67638833333333,102.08333333333331L45.774798999999994,102.08333333333331L45.824004333333335,102.08333333333331L45.971620333333334,102.08333333333331L46.26685233333333,102.08333333333331L46.70970033333333,102.08333333333331L46.85731633333334,102.08333333333331L46.90652166666666,102.08333333333331L47.398574999999994,102.08333333333331L48.235065666666664,102.08333333333331L48.33347633333333,102.08333333333331L49.02235099999999,131.25L49.268377666666666,131.25L49.36678833333333,131.25L49.51440433333334,131.25L49.908047,131.25L50.203279,131.25L50.30168966666667,131.25L50.44930566666666,131.25L50.74453766666667,131.25L50.99056433333333,131.25L51.48261766666666,131.25L51.77784966666666,131.25L52.07308166666666,131.25L52.269903000000006,131.25L52.565135000000005,131.25L52.66354566666667,131.25L52.712751,131.25L52.81116166666666,131.25L52.90957233333333,131.25L52.95877766666667,131.25L53.20480433333333,131.25L53.25400966666667,131.25L53.69685766666667,131.25L53.99208966666667,131.25L54.09050033333334,131.25L54.336527,131.25L54.58255366666667,131.25L54.680964333333336,131.25L55.27142833333333,131.25L55.61586566666667,131.25L55.665071,131.25L55.763481666666664,131.25L55.86189233333333,131.25L55.91109766666667,131.25L56.009508333333336,131.25L56.59997233333333,131.25L56.74758833333334,131.25L56.94440966666667,131.25L57.092025666666665,131.25L57.23964166666667,131.25L57.436463,131.25L57.48566833333333,131.25L57.68248966666666,131.25L57.928516333333334,131.25L57.97772166666667,131.25L58.469775000000006,131.25L58.66659633333334,131.25L58.81421233333333,131.25L59.207854999999995,131.25L59.404676333333335,131.25L59.552292333333334,131.25L59.60149766666667,131.25L59.650703,131.25L59.99514033333334,131.25L60.29037233333334,131.25L60.388783000000004,131.25L60.43798833333333,131.25L60.63480966666666,131.25L60.831631,102.08333333333331L60.979247,102.08333333333331L61.028452333333334,102.08333333333331L61.07765766666667,102.08333333333331L61.274479,102.08333333333331L61.717327000000004,102.08333333333331L61.91414833333334,102.08333333333331L61.96335366666666,102.08333333333331L62.012559,102.08333333333331L62.11096966666667,102.08333333333331L62.160175,102.08333333333331L62.455407,102.08333333333331L62.65222833333333,102.08333333333331L62.70143366666667,102.08333333333331L62.79984433333333,102.08333333333331L62.898255,102.08333333333331L63.045871,102.08333333333331L63.09507633333333,102.08333333333331L63.144281666666664,102.08333333333331L63.193487,102.08333333333331L63.341103000000004,102.08333333333331L63.537924333333336,102.08333333333331L63.783951,102.08333333333331L63.833156333333335,102.08333333333331L63.88236166666667,102.08333333333331L64.17759366666667,102.08333333333331L65.01408433333333,102.08333333333331L65.21090566666668,102.08333333333331L65.30931633333334,102.08333333333331L65.555343,102.08333333333331L66.736271,102.08333333333331L66.83468166666667,102.08333333333331L67.08070833333333,102.08333333333331L67.179119,102.08333333333331L67.37594033333333,102.08333333333331L67.474351,102.08333333333331L67.86799366666666,102.08333333333331L68.16322566666668,102.08333333333331L68.36004700000001,102.08333333333331L68.70448433333333,102.08333333333331L68.80289499999999,102.08333333333331L69.09812699999999,102.08333333333331L69.19653766666666,102.08333333333331L69.34415366666667,102.08333333333331L69.393359,102.08333333333331L69.49176966666667,102.08333333333331L69.88541233333333,102.08333333333331L69.93461766666667,102.08333333333331L70.08223366666667,102.08333333333331L70.426671,102.08333333333331L70.574287,102.08333333333331L71.017135,102.08333333333331L71.21395633333334,102.08333333333331L71.36157233333333,102.08333333333331L71.41077766666668,102.08333333333331L71.85362566666666,102.08333333333331L71.902831,102.08333333333331L72.09965233333334,102.08333333333331L72.14885766666666,102.08333333333331L72.198063,102.08333333333331L72.24726833333334,102.08333333333331L72.44408966666667,102.08333333333331L72.493295,102.08333333333331L72.640911,102.08333333333331L72.69011633333334,102.08333333333331L73.083759,102.08333333333331L73.28058033333333,102.08333333333331L73.378991,102.08333333333331L73.47740166666667,102.08333333333331L73.526607,102.08333333333331L73.969455,102.08333333333331L74.11707100000001,102.08333333333331L74.51071366666667,102.08333333333331L74.60912433333333,102.08333333333331L74.80594566666666,102.08333333333331L74.85515099999999,102.08333333333331L75.10117766666667,102.08333333333331L75.445615,102.08333333333331L75.98687366666665,102.08333333333331L76.08528433333333,102.08333333333331L76.38051633333333,102.08333333333331L76.52813233333333,102.08333333333331L76.626543,102.08333333333331L76.82336433333333,102.08333333333331L77.02018566666666,102.08333333333331L77.11859633333333,102.08333333333331L77.36462300000001,102.08333333333331L77.41382833333333,102.08333333333331L77.46303366666666,102.08333333333331L77.85667633333333,102.08333333333331L78.15190833333334,102.08333333333331L78.34872966666667,102.08333333333331L78.397935,102.08333333333331L78.44714033333332,102.08333333333331L78.88998833333333,102.08333333333331L79.136015,102.08333333333331L79.82488966666668,102.08333333333331L79.92330033333333,102.08333333333331L80.90740699999999,102.08333333333331L80.95661233333334,102.08333333333331L81.15343366666667,102.08333333333331L81.202639,102.08333333333331L81.25184433333334,102.08333333333331L82.13754033333333,102.08333333333331L82.383567,102.08333333333331L82.72800433333333,102.08333333333331L82.77720966666666,102.08333333333331L83.07244166666668,102.08333333333331L83.17085233333333,102.08333333333331L83.416879,102.08333333333331L83.51528966666666,102.08333333333331L83.61370033333334,102.08333333333331L83.81052166666667,102.08333333333331L84.69621766666667,102.08333333333331L84.79462833333334,102.08333333333331L84.893039,102.08333333333331L85.28668166666667,102.08333333333331L85.43429766666667,102.08333333333331L85.82794033333333,102.08333333333331L85.97555633333333,102.08333333333331L86.12317233333334,102.08333333333331L86.76284166666666,102.08333333333331L87.107279,102.08333333333331L87.40251099999999,102.08333333333331L87.59933233333332,102.08333333333331L87.697743,102.08333333333331L87.74694833333334,102.08333333333331L88.04218033333333,102.08333333333331L88.53423366666667,102.08333333333331L88.78026033333335,102.08333333333331L88.82946566666666,102.08333333333331L88.97708166666668,102.08333333333331L89.27231366666666,102.08333333333331L89.37072433333334,102.08333333333331L89.51834033333334,102.08333333333331L89.66595633333333,102.08333333333331L89.81357233333333,102.08333333333331L89.86277766666666,102.08333333333331L90.74847366666667,102.08333333333331L91.48655366666667,102.08333333333331L92.22463366666668,102.08333333333331L92.37224966666668,102.08333333333331L92.42145500000001,102.08333333333331L92.51986566666666,102.08333333333331L92.56907100000001,102.08333333333331L93.602383,102.08333333333331L93.65158833333334,102.08333333333331L93.897615,102.08333333333331L94.045231,102.08333333333331L94.24205233333333,102.08333333333331L94.340463,102.08333333333331L94.53728433333333,102.08333333333331L94.73410566666666,102.08333333333331L94.930927,102.08333333333331L96.16106033333332,102.08333333333331L96.21026566666667,102.08333333333331L96.75152433333334,102.08333333333331L97.145167,102.08333333333331L97.19437233333333,102.08333333333331L97.34198833333333,102.08333333333331L97.440399,102.08333333333331L97.48960433333333,102.08333333333331L97.93245233333333,102.08333333333331L98.27688966666668,102.08333333333331L99.01496966666666,102.08333333333331L99.064175,102.08333333333331L99.21179099999999,102.08333333333331L99.55622833333332,102.08333333333331L100.14669233333333,72.91666666666666L100.392719,72.91666666666666L100.44192433333333,72.91666666666666L100.540335,72.91666666666666L100.88477233333333,72.91666666666666L101.22920966666666,72.91666666666666L101.278415,72.91666666666666L101.72126300000001,72.91666666666666L101.91808433333334,72.91666666666666L102.01649499999999,72.91666666666666L102.21331633333332,72.91666666666666L102.65616433333334,72.91666666666666L103.00060166666665,72.91666666666666L103.049807,72.91666666666666L103.29583366666667,72.91666666666666L103.68947633333333,72.91666666666666L104.13232433333333,72.91666666666666L104.18152966666668,72.91666666666666L104.37835100000001,72.91666666666666L104.62437766666667,72.91666666666666L104.77199366666667,72.91666666666666L104.87040433333333,72.91666666666666L105.01802033333334,72.91666666666666L105.16563633333334,72.91666666666666L105.36245766666667,72.91666666666666L105.75610033333334,72.91666666666666L106.149743,72.91666666666666L106.34656433333333,72.91666666666666L106.49418033333333,72.91666666666666L106.54338566666667,72.91666666666666L106.83861766666668,72.91666666666666L106.887823,72.91666666666666L107.28146566666666,72.91666666666666L107.478287,72.91666666666666L107.52749233333333,72.91666666666666L107.57669766666666,72.91666666666666L107.67510833333333,72.91666666666666L107.82272433333334,72.91666666666666L108.16716166666667,72.91666666666666L108.216367,72.91666666666666L108.61000966666667,72.91666666666666L108.659215,72.91666666666666L109.10206299999999,72.91666666666666L109.29888433333332,72.91666666666666L109.397295,72.91666666666666L109.44650033333333,72.91666666666666L109.544911,72.91666666666666L109.79093766666666,72.91666666666666L109.840143,72.91666666666666L109.93855366666666,72.91666666666666L109.987759,72.91666666666666L110.03696433333333,72.91666666666666L110.28299100000001,72.91666666666666L110.97186566666666,72.91666666666666L111.41471366666667,72.91666666666666L111.70994566666667,72.91666666666666L112.054383,72.91666666666666L112.10358833333333,72.91666666666666L112.54643633333335,72.91666666666666L112.89087366666666,72.91666666666666L113.33372166666668,72.91666666666666L113.48133766666666,72.91666666666666L113.825775,72.91666666666666L113.92418566666667,72.91666666666666L114.121007,72.91666666666666L114.61306033333332,72.91666666666666L114.66226566666667,72.91666666666666L114.80988166666666,72.91666666666666L115.05590833333333,72.91666666666666L115.25272966666667,72.91666666666666L115.892399,72.91666666666666L115.99080966666668,72.91666666666666L116.040015,72.91666666666666L116.335247,72.91666666666666L116.38445233333334,72.91666666666666L116.43365766666666,72.91666666666666L116.53206833333334,72.91666666666666L117.22094299999999,72.91666666666666L118.106639,72.91666666666666L118.401871,72.91666666666666L118.74630833333333,72.91666666666666L119.04154033333334,72.91666666666666L119.23836166666668,72.91666666666666L119.33677233333333,72.91666666666666L119.43518300000001,72.91666666666666L119.730415,72.91666666666666L119.878031,72.91666666666666L119.97644166666667,72.91666666666666L120.12405766666666,72.91666666666666L120.27167366666666,72.91666666666666L120.41928966666667,72.91666666666666L120.86213766666667,72.91666666666666L120.96054833333334,72.91666666666666L121.55101233333333,72.91666666666666L121.60021766666667,72.91666666666666L121.649423,72.91666666666666L122.33829766666666,72.91666666666666L122.535119,72.91666666666666L122.73194033333333,72.91666666666666L122.92876166666666,72.91666666666666L122.97796699999999,72.91666666666666L123.12558299999999,72.91666666666666L123.22399366666667,72.91666666666666L123.32240433333332,72.91666666666666L123.71604699999999,72.91666666666666L123.81445766666667,72.91666666666666L123.96207366666667,72.91666666666666L124.10968966666667,72.91666666666666L124.25730566666667,72.91666666666666L124.35571633333333,72.91666666666666L124.50333233333333,72.91666666666666L124.65094833333333,72.91666666666666L125.43823366666666,72.91666666666666L125.782671,72.91666666666666L126.02869766666666,72.91666666666666L126.077903,72.91666666666666L126.12710833333334,72.91666666666666L126.22551899999999,72.91666666666666L126.27472433333334,72.91666666666666L126.37313499999999,72.91666666666666L126.47154566666667,72.91666666666666L126.668367,72.91666666666666L126.86518833333334,72.91666666666666L127.111215,72.91666666666666L127.20962566666667,72.91666666666666L127.554063,72.91666666666666L127.65247366666667,72.91666666666666L127.701679,72.91666666666666L127.94770566666668,72.91666666666666L128.144527,72.91666666666666L128.39055366666668,72.91666666666666L128.4889643333333,72.91666666666666L128.53816966666668,72.91666666666666L129.030223,72.91666666666666L129.07942833333334,72.91666666666666L129.27624966666667,72.91666666666666L129.42386566666667,72.91666666666666L129.57148166666667,72.91666666666666L129.620687,72.91666666666666L129.768303,72.91666666666666L129.81750833333334,72.91666666666666L129.915919,72.91666666666666L130.16194566666667,72.91666666666666L130.211151,72.91666666666666L130.55558833333333,72.91666666666666L130.60479366666667,72.91666666666666L130.801615,72.91666666666666L130.90002566666666,72.91666666666666L130.99843633333333,72.91666666666666L131.19525766666666,72.91666666666666L131.687311,72.91666666666666L131.78572166666666,72.91666666666666L131.88413233333333,72.91666666666666L131.93333766666666,72.91666666666666L132.130159,72.91666666666666L132.277775,72.91666666666666L132.67141766666666,72.91666666666666L132.868239,72.91666666666666L133.55711366666668,72.91666666666666L133.753935,72.91666666666666L133.85234566666668,72.91666666666666L134.09837233333334,72.91666666666666L134.14757766666668,72.91666666666666L134.24598833333334,72.91666666666666L134.344399,72.91666666666666L134.39360433333331,72.91666666666666L134.492015,72.91666666666666L134.59042566666665,72.91666666666666L134.639631,72.91666666666666L134.9840683333333,72.91666666666666L135.13168433333334,72.91666666666666L135.377711,72.91666666666666L135.968175,72.91666666666666L136.16499633333333,72.91666666666666L136.31261233333333,72.91666666666666L136.80466566666666,72.91666666666666L137.09989766666666,72.91666666666666L137.149103,72.91666666666666L137.24751366666666,72.91666666666666L137.39512966666666,72.91666666666666L137.54274566666666,72.91666666666666L137.591951,72.91666666666666L137.64115633333333,72.91666666666666L138.13320966666666,72.91666666666666L138.182415,72.91666666666666L138.23162033333335,72.91666666666666L138.330031,72.91666666666666L138.920495,72.91666666666666L138.96970033333332,72.91666666666666L139.01890566666668,72.91666666666666L139.068111,72.91666666666666L139.46175366666665,72.91666666666666L139.90460166666665,72.91666666666666L140.74109233333334,72.91666666666666L141.429967,72.91666666666666L141.62678833333334,72.91666666666666L141.67599366666667,72.91666666666666L141.77440433333334,72.91666666666666L142.168047,102.08333333333331L142.26645766666667,102.08333333333331L142.463279,102.08333333333331L142.95533233333333,102.08333333333331L143.348975,102.08333333333331L143.39818033333333,102.08333333333331L143.939439,102.08333333333331L144.3330816666667,102.08333333333331L144.62831366666668,102.08333333333331L144.67751900000002,102.08333333333331L144.77592966666666,102.08333333333331L144.87434033333332,102.08333333333331L145.12036700000002,102.08333333333331L146.05526833333332,102.08333333333331L146.35050033333334,102.08333333333331L146.39970566666665,102.08333333333331L146.891759,102.08333333333331L146.99016966666667,102.08333333333331L147.13778566666667,102.08333333333331L147.18699099999998,102.08333333333331L147.2361963333333,102.08333333333331L147.72824966666667,102.08333333333331L147.777455,102.08333333333331L147.925071,102.08333333333331L148.220303,102.08333333333331L148.46632966666667,102.08333333333331L148.56474033333333,102.08333333333331L148.663151,102.08333333333331L148.76156166666667,102.08333333333331L149.2044096666667,102.08333333333331L149.401231,102.08333333333331L149.59805233333336,102.08333333333331L149.696463,102.08333333333331L149.844079,102.08333333333331L150.286927,102.08333333333331L150.33613233333335,102.08333333333331L150.53295366666666,102.08333333333331L150.82818566666668,102.08333333333331L150.92659633333332,102.08333333333331L151.51706033333335,102.08333333333331L151.56626566666668,102.08333333333331L151.615471,102.08333333333331L151.66467633333332,102.08333333333331L151.81229233333332,102.08333333333331L152.00911366666668,102.08333333333331L152.30434566666668,102.08333333333331L152.353551,102.08333333333331L152.50116699999998,102.08333333333331L152.89480966666665,102.08333333333331L153.14083633333334,102.08333333333331L153.2884523333333,102.08333333333331L153.43606833333334,102.08333333333331L153.48527366666667,102.08333333333331L153.78050566666667,102.08333333333331L153.87891633333334,102.08333333333331L154.17414833333333,102.08333333333331L154.32176433333333,102.08333333333331L154.4693803333333,102.08333333333331L154.51858566666667,102.08333333333331L154.715407,102.08333333333331L155.65030833333336,102.08333333333331L155.84712966666666,102.08333333333331L155.94554033333333,102.08333333333331L156.191567,102.08333333333331L156.4375936666667,102.08333333333331L157.077263,102.08333333333331L157.27408433333335,102.08333333333331L157.42170033333332,102.08333333333331L158.15978033333332,102.08333333333331L158.701039,102.08333333333331L158.75024433333334,102.08333333333331L158.89786033333334,102.08333333333331L159.19309233333334,102.08333333333331L159.53752966666667,102.08333333333331L159.586735,102.08333333333331L159.63594033333334,102.08333333333331L159.68514566666667,102.08333333333331L159.734351,102.08333333333331L159.7835563333333,102.08333333333331L160.17719899999997,102.08333333333331L161.30892166666666,102.08333333333331L161.35812700000002,102.08333333333331L161.40733233333336,102.08333333333331L161.7517696666667,102.08333333333331L162.29302833333333,102.08333333333331L162.391439,102.08333333333331L162.98190300000002,102.08333333333331L163.03110833333332,102.08333333333331L163.17872433333332,102.08333333333331L163.27713500000002,102.08333333333331L163.32634033333335,102.08333333333331L163.42475100000001,102.08333333333331L164.35965233333332,102.08333333333331L164.605679,102.08333333333331L164.75329499999998,102.08333333333331L164.900911,102.08333333333331L165.343759,102.08333333333331L165.39296433333334,102.08333333333331L165.68819633333334,102.08333333333331L165.786607,102.08333333333331L165.83581233333334,102.08333333333331L166.13104433333334,102.08333333333331L166.2786603333333,102.08333333333331L166.32786566666667,102.08333333333331L166.57389233333333,102.08333333333331L166.67230300000003,102.08333333333331L166.77071366666667,102.08333333333331L166.91832966666666,102.08333333333331L167.36117766666666,102.08333333333331L167.60720433333333,102.08333333333331L167.705615,102.08333333333331L167.75482033333333,102.08333333333331L167.80402566666666,102.08333333333331L168.34528433333332,102.08333333333331L168.83733766666666,102.08333333333331L169.23098033333332,102.08333333333331L170.06747099999998,102.08333333333331L170.41190833333332,102.08333333333331L170.46111366666665,102.08333333333331L170.60872966666668,102.08333333333331L171.100783,102.08333333333331L171.396015,102.08333333333331L171.5928363333333,102.08333333333331L171.838863,102.08333333333331L171.93727366666667,102.08333333333331L172.03568433333334,102.08333333333331L172.134095,102.08333333333331L172.23250566666667,102.08333333333331L172.429327,102.08333333333331L172.47853233333333,102.08333333333331L172.62614833333333,102.08333333333331L172.92138033333333,102.08333333333331L173.019791,102.08333333333331L173.16740700000003,102.08333333333331L173.5610496666667,102.08333333333331L173.65946033333333,102.08333333333331L173.70866566666666,102.08333333333331L173.757871,102.08333333333331L174.15151366666666,102.08333333333331L174.88959366666666,102.08333333333331L174.98800433333332,102.08333333333331L175.08641500000002,102.08333333333331L175.18482566666668,102.08333333333331L175.28323633333332,102.08333333333331L175.72608433333332,102.08333333333331L175.92290566666668,102.08333333333331L176.562575,102.08333333333331L176.75939633333334,102.08333333333331L177.69429766666664,102.08333333333331L178.43237766666667,102.08333333333331L178.481583,102.08333333333331L178.776815,102.08333333333331L178.82602033333333,102.08333333333331L178.924431,102.08333333333331L179.072047,102.08333333333331L179.31807366666666,102.08333333333331L179.46568966666666,102.08333333333331L179.514895,102.08333333333331L179.6133056666667,102.08333333333331L180.40059100000002,102.08333333333331L180.74502833333332,102.08333333333331L180.94184966666666,102.08333333333331L181.28628700000002,102.08333333333331L181.33549233333332,102.08333333333331L181.67992966666668,102.08333333333331L181.82754566666665,102.08333333333331L183.00847366666665,102.08333333333331L183.15608966666667,102.08333333333331L183.500527,102.08333333333331L183.648143,102.08333333333331L183.69734833333334,102.08333333333331L183.795759,102.08333333333331L183.84496433333334,102.08333333333331L184.18940166666667,102.08333333333331L184.28781233333333,102.08333333333331L184.829071,102.08333333333331L185.07509766666666,102.08333333333331L185.51794566666666,102.08333333333331L185.61635633333333,102.08333333333331L185.71476700000002,102.08333333333331L185.91158833333333,102.08333333333331L186.05920433333333,102.08333333333331L186.69887366666666,102.08333333333331L186.748079,102.08333333333331L186.79728433333332,102.08333333333331L187.09251633333332,102.08333333333331L187.486159,102.08333333333331L187.781391,102.08333333333331L187.83059633333332,102.08333333333331L187.87980166666665,102.08333333333331L188.076623,102.08333333333331L188.32264966666665,102.08333333333331L188.66708699999998,102.08333333333331L189.06072966666665,131.25L189.257551,131.25L189.4543723333333,131.25L189.552783,131.25L189.84801499999998,131.25L189.995631,131.25L190.09404166666667,131.25L190.19245233333334,131.25L190.290863,131.25L190.438479,131.25L190.68450566666667,131.25L191.27496966666666,131.25L191.52099633333333,131.25L191.767023,131.25L192.65271900000002,131.25L192.84954033333332,131.25L192.99715633333335,131.25L193.243183,131.25L193.538415,131.25L193.58762033333332,131.25L193.78444166666668,131.25L193.88285233333335,131.25L194.17808433333335,131.25L194.22728966666668,131.25L194.52252166666668,131.25L194.866959,131.25L195.16219099999998,131.25L195.309807,131.25L195.605039,131.25L196.14629766666667,131.25L196.24470833333334,131.25L196.58914566666667,131.25L196.7367616666667,131.25L196.88437766666667,131.25L196.98278833333333,131.25L197.228815,131.25L198.01610033333333,131.25L198.114511,131.25L198.16371633333333,131.25L198.3605376666667,131.25L198.409743,131.25L198.60656433333332,131.25L198.70497500000002,131.25L199.000207,131.25L199.04941233333335,131.25L199.39384966666665,131.25L199.98431366666665,131.25L200.23034033333334,131.25L200.37795633333334,131.25L200.8208043333333,131.25L200.87000966666665,131.25L201.16524166666667,131.25L201.21444699999998,131.25L201.90332166666667,131.25L202.100143,131.25L202.19855366666667,131.25L202.29696433333334,131.25L202.44458033333336,131.25L202.59219633333333,131.25L203.03504433333333,131.25L203.33027633333333,131.25L203.428687,131.25L203.9699456666667,131.25L204.01915100000002,131.25L204.314383,131.25L204.65882033333332,131.25L205.83974833333332,131.25L205.98736433333335,131.25L206.13498033333332,131.25L206.23339099999998,131.25L207.266703,131.25L207.414319,131.25L207.61114033333334,131.25L207.66034566666667,131.25L207.70955099999998,131.25L208.004783,131.25L208.152399,131.25L208.25080966666667,131.25L208.69365766666667,131.25L208.890479,131.25L209.038095,131.25L209.28412166666666,131.25L209.67776433333336,131.25L209.87458566666666,131.25L209.97299633333333,131.25L210.07140700000002,131.25L210.71107633333332,131.25L210.809487,131.25L210.95710300000002,131.25L211.547567,131.25L211.74438833333335,131.25L211.990415,131.25L212.08882566666668,131.25L212.58087899999998,131.25L212.67928966666665,131.25L212.77770033333334,131.25L213.41736966666664,131.25L213.71260166666667,131.25L214.20465499999997,131.25L214.45068166666667,131.25L214.795119,131.25L214.942735,131.25L215.04114566666667,131.25L216.02525233333333,131.25L216.07445766666666,131.25L216.123663,131.25L216.36968966666666,131.25L216.46810033333333,131.25L216.76333233333332,131.25L216.96015366666668,131.25L217.35379633333335,131.25L217.40300166666668,131.25L217.64902833333332,131.25L217.69823366666668,131.25L217.89505499999999,131.25L218.43631366666668,131.25L218.73154566666665,131.25L219.02677766666667,131.25L219.17439366666665,131.25L219.71565233333334,131.25L219.91247366666664,131.25L220.109295,131.25L220.20770566666667,131.25L220.45373233333333,131.25L220.65055366666667,131.25L220.89658033333333,131.25L221.142607,131.25L221.33942833333333,131.25L221.38863366666666,131.25L221.48704433333336,131.25L221.92989233333336,131.25L221.97909766666666,131.25L222.52035633333332,131.25L222.61876700000002,131.25L222.66797233333335,131.25L223.01240966666668,131.25L223.11082033333335,131.25L223.16002566666666,131.25L223.209231,131.25L223.25843633333332,131.25L223.45525766666668,131.25L223.55366833333332,131.25L224.63618566666668,131.25L224.78380166666665,131.25L225.47267633333334,131.25L225.718703,131.25L225.76790833333334,131.25L225.866319,131.25L226.25996166666667,131.25L226.50598833333333,131.25L226.85042566666667,131.25L228.228175,131.25L228.57261233333332,131.25L229.11387100000002,131.25L229.35989766666665,131.25L229.80274566666665,131.25L229.851951,131.25L230.34400433333334,131.25L230.39320966666668,131.25L230.442415,131.25L230.54082566666665,131.25L230.63923633333334,131.25L230.737647,131.25L230.78685233333334,131.25L230.83605766666668,131.25L230.9344683333333,131.25L231.82016433333334,131.25L232.06619099999998,131.25L232.31221766666667,131.25L232.45983366666667,131.25L232.60744966666667,131.25L232.85347633333333,131.25L233.394735,131.25L233.837583,131.25L233.985199,131.25L234.03440433333336,131.25L234.47725233333335,160.41666666666666L234.77248433333332,160.41666666666666L235.51056433333332,160.41666666666666L235.55976966666668,160.41666666666666L235.85500166666665,160.41666666666666L236.051823,160.41666666666666L236.19943899999998,160.41666666666666L236.494671,160.41666666666666L236.59308166666665,160.41666666666666L237.03592966666665,160.41666666666666L237.232751,160.41666666666666L237.527983,160.41666666666666L237.77400966666664,160.41666666666666L238.06924166666667,160.41666666666666L238.266063,160.41666666666666L238.51208966666667,160.41666666666666L238.856527,160.41666666666666L239.05334833333333,160.41666666666666L239.49619633333333,160.41666666666666L239.64381233333333,160.41666666666666L240.23427633333333,160.41666666666666L240.5787136666667,160.41666666666666L240.72632966666666,160.41666666666666L240.82474033333332,160.41666666666666L240.87394566666666,160.41666666666666L241.070767,160.41666666666666L241.11997233333332,160.41666666666666L241.16917766666666,160.41666666666666L241.75964166666668,160.41666666666666L242.05487366666668,160.41666666666666L242.104079,160.41666666666666L242.20248966666668,160.41666666666666L242.44851633333334,160.41666666666666L242.49772166666668,160.41666666666666L242.64533766666665,160.41666666666666L242.94056966666668,160.41666666666666L243.13739099999998,160.41666666666666L243.4818283333333,160.41666666666666L243.97388166666667,160.41666666666666L244.26911366666664,160.41666666666666L244.465935,160.41666666666666L244.613551,160.41666666666666L245.00719366666667,160.41666666666666L245.10560433333333,160.41666666666666L245.74527366666666,160.41666666666666L245.942095,160.41666666666666L245.99130033333333,160.41666666666666L246.92620166666666,160.41666666666666L246.97540700000002,160.41666666666666L247.123023,160.41666666666666L247.46746033333335,160.41666666666666L247.565871,160.41666666666666L247.95951366666665,160.41666666666666L248.05792433333332,160.41666666666666L248.10712966666668,160.41666666666666L248.74679899999998,160.41666666666666L248.84520966666665,160.41666666666666L248.894415,160.41666666666666L249.28805766666667,160.41666666666666L249.337263,160.41666666666666L249.484879,160.41666666666666L249.58328966666664,160.41666666666666L250.02613766666667,160.41666666666666L250.17375366666667,160.41666666666666L250.27216433333334,160.41666666666666L250.37057499999997,160.41666666666666L250.961039,160.41666666666666L251.79752966666666,160.41666666666666L252.04355633333333,160.41666666666666L252.53560966666666,160.41666666666666L252.83084166666666,160.41666666666666L253.17527900000002,160.41666666666666L253.47051100000002,160.41666666666666L253.56892166666668,160.41666666666666L253.765743,160.41666666666666L254.11018033333332,160.41666666666666L254.15938566666665,160.41666666666666L254.208591,160.41666666666666L254.70064433333334,160.41666666666666L255.48792966666667,160.41666666666666L255.73395633333334,160.41666666666666L255.979983,160.41666666666666L256.2260096666667,160.41666666666666L256.275215,160.41666666666666L256.37362566666667,160.41666666666666L256.5212416666667,160.41666666666666L257.013295,160.41666666666666L257.2101163333333,160.41666666666666L257.25932166666666,160.41666666666666L257.55455366666666,160.41666666666666L257.751375,160.41666666666666L257.80058033333336,160.41666666666666L258.194223,160.41666666666666L258.29263366666663,160.41666666666666L258.341839,160.41666666666666L258.39104433333335,160.41666666666666L258.489455,160.41666666666666L258.637071,160.41666666666666L258.6862763333333,160.41666666666666L258.73548166666666,160.41666666666666L258.784687,160.41666666666666L258.98150833333335,160.41666666666666L259.07991899999996,160.41666666666666L259.227535,160.41666666666666L259.27674033333335,160.41666666666666L259.32594566666666,160.41666666666666L259.375151,160.41666666666666L259.4735616666667,160.41666666666666L259.62117766666665,160.41666666666666L259.670383,160.41666666666666L259.965615,160.41666666666666L260.260847,160.41666666666666L260.3592576666667,160.41666666666666L260.50687366666665,160.41666666666666L261.0973376666667,160.41666666666666L261.49098033333337,160.41666666666666L261.5401856666667,160.41666666666666L261.589391,160.41666666666666L261.88462300000003,160.41666666666666L262.22906033333334,160.41666666666666L262.475087,160.41666666666666L262.81952433333333,160.41666666666666L263.01634566666667,160.41666666666666L263.2623723333333,160.41666666666666L263.4591936666667,160.41666666666666L263.7544256666667,160.41666666666666L263.85283633333336,160.41666666666666L264.0004523333333,160.41666666666666L264.2956843333333,160.41666666666666" style="fill: none;" fill="none"></path></g></g></g></g></g></g><g transform="translate(41, 175)" clip-path="url(#clip_1)"><clipPath id="clip_1"><rect width="288" height="25"></rect></clipPath><g><g><line x1="0" y1="0" x2="0" y2="5" style="visibility: inherit;" fill="rgb(0, 0, 0)" stroke="rgb(204, 204, 204)" stroke-width="1px"></line><line x1="24.026041666666664" y1="0" x2="24.026041666666664" y2="5" style="visibility: inherit;" fill="rgb(0, 0, 0)" stroke="rgb(204, 204, 204)" stroke-width="1px"></line><line x1="48.05208333333333" y1="0" x2="48.05208333333333" y2="5" style="visibility: inherit;" fill="rgb(0, 0, 0)" stroke="rgb(204, 204, 204)" stroke-width="1px"></line><line x1="72.078125" y1="0" x2="72.078125" y2="5" style="visibility: inherit;" fill="rgb(0, 0, 0)" stroke="rgb(204, 204, 204)" stroke-width="1px"></line><line x1="96.10416666666666" y1="0" x2="96.10416666666666" y2="5" style="visibility: inherit;" fill="rgb(0, 0, 0)" stroke="rgb(204, 204, 204)" stroke-width="1px"></line><line x1="120.13020833333334" y1="0" x2="120.13020833333334" y2="5" style="visibility: inherit;" fill="rgb(0, 0, 0)" stroke="rgb(204, 204, 204)" stroke-width="1px"></line><line x1="144.15625" y1="0" x2="144.15625" y2="5" style="visibility: inherit;" fill="rgb(0, 0, 0)" stroke="rgb(204, 204, 204)" stroke-width="1px"></line><line x1="168.18229166666669" y1="0" x2="168.18229166666669" y2="5" style="visibility: inherit;" fill="rgb(0, 0, 0)" stroke="rgb(204, 204, 204)" stroke-width="1px"></line><line x1="192.20833333333331" y1="0" x2="192.20833333333331" y2="5" style="visibility: inherit;" fill="rgb(0, 0, 0)" stroke="rgb(204, 204, 204)" stroke-width="1px"></line><line x1="216.234375" y1="0" x2="216.234375" y2="5" style="visibility: inherit;" fill="rgb(0, 0, 0)" stroke="rgb(204, 204, 204)" stroke-width="1px"></line><line x1="240.26041666666669" y1="0" x2="240.26041666666669" y2="5" style="visibility: inherit;" fill="rgb(0, 0, 0)" stroke="rgb(204, 204, 204)" stroke-width="1px"></line><line x1="264.2864583333333" y1="0" x2="264.2864583333333" y2="5" style="visibility: inherit;" fill="rgb(0, 0, 0)" stroke="rgb(204, 204, 204)" stroke-width="1px"></line><line x1="288.3125" y1="0" x2="288.3125" y2="5" style="visibility: inherit;" fill="rgb(0, 0, 0)" stroke="rgb(204, 204, 204)" stroke-width="1px"></line></g><g transform="translate(0, 8)"><text x="0" y="0" dx="0em" dy="0.95em" style="text-anchor: middle; visibility: hidden; font-family: Roboto, sans-serif; font-size: 12px; font-weight: 200;" fill="rgb(33, 33, 33)" stroke="none" stroke-width="1px">-1M</text><text x="24.026041666666664" y="0" dx="0em" dy="0.95em" style="text-anchor: middle; visibility: inherit; font-family: Roboto, sans-serif; font-size: 12px; font-weight: 200;" fill="rgb(33, 33, 33)" stroke="none" stroke-width="1px">0</text><text x="48.05208333333333" y="0" dx="0em" dy="0.95em" style="text-anchor: middle; visibility: hidden; font-family: Roboto, sans-serif; font-size: 12px; font-weight: 200;" fill="rgb(33, 33, 33)" stroke="none" stroke-width="1px">1M</text><text x="72.078125" y="0" dx="0em" dy="0.95em" style="text-anchor: middle; visibility: inherit; font-family: Roboto, sans-serif; font-size: 12px; font-weight: 200;" fill="rgb(33, 33, 33)" stroke="none" stroke-width="1px">2M</text><text x="96.10416666666666" y="0" dx="0em" dy="0.95em" style="text-anchor: middle; visibility: hidden; font-family: Roboto, sans-serif; font-size: 12px; font-weight: 200;" fill="rgb(33, 33, 33)" stroke="none" stroke-width="1px">3M</text><text x="120.13020833333334" y="0" dx="0em" dy="0.95em" style="text-anchor: middle; visibility: inherit; font-family: Roboto, sans-serif; font-size: 12px; font-weight: 200;" fill="rgb(33, 33, 33)" stroke="none" stroke-width="1px">4M</text><text x="144.15625" y="0" dx="0em" dy="0.95em" style="text-anchor: middle; visibility: hidden; font-family: Roboto, sans-serif; font-size: 12px; font-weight: 200;" fill="rgb(33, 33, 33)" stroke="none" stroke-width="1px">5M</text><text x="168.18229166666669" y="0" dx="0em" dy="0.95em" style="text-anchor: middle; visibility: inherit; font-family: Roboto, sans-serif; font-size: 12px; font-weight: 200;" fill="rgb(33, 33, 33)" stroke="none" stroke-width="1px">6M</text><text x="192.20833333333331" y="0" dx="0em" dy="0.95em" style="text-anchor: middle; visibility: hidden; font-family: Roboto, sans-serif; font-size: 12px; font-weight: 200;" fill="rgb(33, 33, 33)" stroke="none" stroke-width="1px">7M</text><text x="216.234375" y="0" dx="0em" dy="0.95em" style="text-anchor: middle; visibility: inherit; font-family: Roboto, sans-serif; font-size: 12px; font-weight: 200;" fill="rgb(33, 33, 33)" stroke="none" stroke-width="1px">8M</text><text x="240.26041666666669" y="0" dx="0em" dy="0.95em" style="text-anchor: middle; visibility: hidden; font-family: Roboto, sans-serif; font-size: 12px; font-weight: 200;" fill="rgb(33, 33, 33)" stroke="none" stroke-width="1px">9M</text><text x="264.2864583333333" y="0" dx="0em" dy="0.95em" style="text-anchor: middle; visibility: inherit; font-family: Roboto, sans-serif; font-size: 12px; font-weight: 200;" fill="rgb(33, 33, 33)" stroke="none" stroke-width="1px">10M</text><text x="288.3125" y="0" dx="0em" dy="0.95em" style="text-anchor: middle; visibility: hidden; font-family: Roboto, sans-serif; font-size: 12px; font-weight: 200;" fill="rgb(33, 33, 33)" stroke="none" stroke-width="1px">11M</text></g><line x1="0" y1="0" x2="288.3125" y2="0" fill="rgb(0, 0, 0)" stroke="rgb(204, 204, 204)" stroke-width="1px"></line></g></g></g></g></svg>