<svg viewBox="0 0 330 200" xmlns="http://www.w3.org/2000/svg"><g><g><g><g><g><line x1="51.5625" y1="177" x2="46.5625" y2="177" style="visibility: inherit;" fill="rgb(0, 0, 0)" stroke="rgb(204, 204, 204)" stroke-width="1px"></line><line x1="51.5625" y1="157.33333333333331" x2="46.5625" y2="157.33333333333331" style="visibility: inherit;" fill="rgb(0, 0, 0)" stroke="rgb(204, 204, 204)" stroke-width="1px"></line><line x1="51.5625" y1="137.6666666666666" x2="46.5625" y2="137.6666666666666" style="visibility: inherit;" fill="rgb(0, 0, 0)" stroke="rgb(204, 204, 204)" stroke-width="1px"></line><line x1="51.5625" y1="117.99999999999993" x2="46.5625" y2="117.99999999999993" style="visibility: inherit;" fill="rgb(0, 0, 0)" stroke="rgb(204, 204, 204)" stroke-width="1px"></line><line x1="51.5625" y1="98.33333333333324" x2="46.5625" y2="98.33333333333324" style="visibility: inherit;" fill="rgb(0, 0, 0)" stroke="rgb(204, 204, 204)" stroke-width="1px"></line><line x1="51.5625" y1="78.66666666666654" x2="46.5625" y2="78.66666666666654" style="visibility: inherit;" fill="rgb(0, 0, 0)" stroke="rgb(204, 204, 204)" stroke-width="1px"></line><line x1="51.5625" y1="58.99999999999985" x2="46.5625" y2="58.99999999999985" style="visibility: inherit;" fill="rgb(0, 0, 0)" stroke="rgb(204, 204, 204)" stroke-width="1px"></line><line x1="51.5625" y1="39.33333333333315" x2="46.5625" y2="39.33333333333315" style="visibility: inherit;" fill="rgb(0, 0, 0)" stroke="rgb(204, 204, 204)" stroke-width="1px"></line><line x1="51.5625" y1="19.66666666666648" x2="46.5625" y2="19.66666666666648" style="visibility: inherit;" fill="rgb(0, 0, 0)" stroke="rgb(204, 204, 204)" stroke-width="1px"></line><line x1="51.5625" y1="0" x2="46.5625" y2="0" style="visibility: inherit;" fill="rgb(0, 0, 0)" stroke="rgb(204, 204, 204)" stroke-width="1px"></line></g><g transform="translate(41.5625, 0)"><text x="0" y="177" dx="0em" dy="0.3em" style="text-anchor: end; visibility: hidden; font-family: Roboto, sans-serif; font-size: 12px; font-weight: 200;" fill="rgb(33, 33, 33)" stroke="none" stroke-width="1px">0.73</text><text x="0" y="157.33333333333331" dx="0em" dy="0.3em" style="text-anchor: end; visibility: inherit; font-family: Roboto, sans-serif; font-size: 12px; font-weight: 200;" fill="rgb(33, 33, 33)" stroke="none" stroke-width="1px">0.74</text><text x="0" y="137.6666666666666" dx="0em" dy="0.3em" style="text-anchor: end; visibility: hidden; font-family: Roboto, sans-serif; font-size: 12px; font-weight: 200;" fill="rgb(33, 33, 33)" stroke="none" stroke-width="1px">0.75</text><text x="0" y="117.99999999999993" dx="0em" dy="0.3em" style="text-anchor: end; visibility: inherit; font-family: Roboto, sans-serif; font-size: 12px; font-weight: 200;" fill="rgb(33, 33, 33)" stroke="none" stroke-width="1px">0.76</text><text x="0" y="98.33333333333324" dx="0em" dy="0.3em" style="text-anchor: end; visibility: hidden; font-family: Roboto, sans-serif; font-size: 12px; font-weight: 200;" fill="rgb(33, 33, 33)" stroke="none" stroke-width="1px">0.77</text><text x="0" y="78.66666666666654" dx="0em" dy="0.3em" style="text-anchor: end; visibility: inherit; font-family: Roboto, sans-serif; font-size: 12px; font-weight: 200;" fill="rgb(33, 33, 33)" stroke="none" stroke-width="1px">0.78</text><text x="0" y="58.99999999999985" dx="0em" dy="0.3em" style="text-anchor: end; visibility: hidden; font-family: Roboto, sans-serif; font-size: 12px; font-weight: 200;" fill="rgb(33, 33, 33)" stroke="none" stroke-width="1px">0.79</text><text x="0" y="39.33333333333315" dx="0em" dy="0.3em" style="text-anchor: end; visibility: inherit; font-family: Roboto, sans-serif; font-size: 12px; font-weight: 200;" fill="rgb(33, 33, 33)" stroke="none" stroke-width="1px">0.8</text><text x="0" y="19.66666666666648" dx="0em" dy="0.3em" style="text-anchor: end; visibility: hidden; font-family: Roboto, sans-serif; font-size: 12px; font-weight: 200;" fill="rgb(33, 33, 33)" stroke="none" stroke-width="1px">0.81</text><text x="0" y="0" dx="0em" dy="0.3em" style="text-anchor: end; visibility: hidden; font-family: Roboto, sans-serif; font-size: 12px; font-weight: 200;" fill="rgb(33, 33, 33)" stroke="none" stroke-width="1px">0.82</text></g><line x1="51.5625" y1="0" x2="51.5625" y2="177" fill="rgb(0, 0, 0)" stroke="rgb(204, 204, 204)" stroke-width="1px"></line></g></g><g transform="translate(51, 0)" clip-path="url(#clip_0)"><clipPath id="clip_0"><rect width="278" height="177"></rect></clipPath><g><g><g><line x1="0" y1="0" x2="0" y2="177" fill="rgb(0, 0, 0)" stroke="rgb(66, 66, 66)" stroke-width="1px" opacity="0.25"></line><line x1="23.203125" y1="0" x2="23.203125" y2="177" fill="rgb(0, 0, 0)" stroke="rgb(66, 66, 66)" stroke-width="1px" opacity="0.25"></line><line x1="46.40625" y1="0" x2="46.40625" y2="177" fill="rgb(0, 0, 0)" stroke="rgb(66, 66, 66)" stroke-width="1px" opacity="0.25"></line><line x1="69.609375" y1="0" x2="69.609375" y2="177" fill="rgb(0, 0, 0)" stroke="rgb(66, 66, 66)" stroke-width="1px" opacity="0.25"></line><line x1="92.8125" y1="0" x2="92.8125" y2="177" fill="rgb(0, 0, 0)" stroke="rgb(66, 66, 66)" stroke-width="1px" opacity="0.25"></line><line x1="116.015625" y1="0" x2="116.015625" y2="177" fill="rgb(0, 0, 0)" stroke="rgb(66, 66, 66)" stroke-width="1px" opacity="0.25"></line><line x1="139.21875" y1="0" x2="139.21875" y2="177" fill="rgb(0, 0, 0)" stroke="rgb(66, 66, 66)" stroke-width="1px" opacity="0.25"></line><line x1="162.421875" y1="0" x2="162.421875" y2="177" fill="rgb(0, 0, 0)" stroke="rgb(66, 66, 66)" stroke-width="1px" opacity="0.25"></line><line x1="185.625" y1="0" x2="185.625" y2="177" fill="rgb(0, 0, 0)" stroke="rgb(66, 66, 66)" stroke-width="1px" opacity="0.25"></line><line x1="208.828125" y1="0" x2="208.828125" y2="177" fill="rgb(0, 0, 0)" stroke="rgb(66, 66, 66)" stroke-width="1px" opacity="0.25"></line><line x1="232.03125" y1="0" x2="232.03125" y2="177" fill="rgb(0, 0, 0)" stroke="rgb(66, 66, 66)" stroke-width="1px" opacity="0.25"></line><line x1="255.234375" y1="0" x2="255.234375" y2="177" fill="rgb(0, 0, 0)" stroke="rgb(66, 66, 66)" stroke-width="1px" opacity="0.25"></line><line x1="278.4375" y1="0" x2="278.4375" y2="177" fill="rgb(0, 0, 0)" stroke="rgb(66, 66, 66)" stroke-width="1px" opacity="0.25"></line></g><g><line x1="0" y1="177" x2="278.4375" y2="177" fill="rgb(0, 0, 0)" stroke="rgb(66, 66, 66)" stroke-width="1px" opacity="0.25"></line><line x1="0" y1="157.33333333333331" x2="278.4375" y2="157.33333333333331" fill="rgb(0, 0, 0)" stroke="rgb(66, 66, 66)" stroke-width="1px" opacity="0.25"></line><line x1="0" y1="137.6666666666666" x2="278.4375" y2="137.6666666666666" fill="rgb(0, 0, 0)" stroke="rgb(66, 66, 66)" stroke-width="1px" opacity="0.25"></line><line x1="0" y1="117.99999999999993" x2="278.4375" y2="117.99999999999993" fill="rgb(0, 0, 0)" stroke="rgb(66, 66, 66)" stroke-width="1px" opacity="0.25"></line><line x1="0" y1="98.33333333333324" x2="278.4375" y2="98.33333333333324" fill="rgb(0, 0, 0)" stroke="rgb(66, 66, 66)" stroke-width="1px" opacity="0.25"></line><line x1="0" y1="78.66666666666654" x2="278.4375" y2="78.66666666666654" fill="rgb(0, 0, 0)" stroke="rgb(66, 66, 66)" stroke-width="1px" opacity="0.25"></line><line x1="0" y1="58.99999999999985" x2="278.4375" y2="58.99999999999985" fill="rgb(0, 0, 0)" stroke="rgb(66, 66, 66)" stroke-width="1px" opacity="0.25"></line><line x1="0" y1="39.33333333333315" x2="278.4375" y2="39.33333333333315" fill="rgb(0, 0, 0)" stroke="rgb(66, 66, 66)" stroke-width="1px" opacity="0.25"></line><line x1="0" y1="19.66666666666648" x2="278.4375" y2="19.66666666666648" fill="rgb(0, 0, 0)" stroke="rgb(66, 66, 66)" stroke-width="1px" opacity="0.25"></line><line x1="0" y1="0" x2="278.4375" y2="0" fill="rgb(0, 0, 0)" stroke="rgb(66, 66, 66)" stroke-width="1px" opacity="0.25"></line></g></g></g><g><g><line x1="0" y1="1612.6666666666672" x2="278.4375" y2="1612.6666666666672" fill="rgb(0, 0, 0)" stroke="rgb(153, 153, 153)" stroke-width="1.5px"></line></g></g><g><g><line x1="23.203125" y1="0" x2="23.203125" y2="177" fill="rgb(0, 0, 0)" stroke="rgb(153, 153, 153)" stroke-width="1.5px"></line></g></g><g><g><g><g><g><path stroke="rgb(255, 112, 67)" stroke-width="2px" d="M29.903444999999998,183.34782838716814L30.426165,153.99013937454924L30.663765,168.81734750795272L30.806325,130.3231423961033L31.234005,110.8619089128306L31.281525,121.41774922795493L31.756725000000003,83.99176844548872L31.994325,45.01242146868031L32.089365,78.58699793884958L32.136885,74.02775174478961L32.326965,159.69943247223134L32.707125,166.95733954247734L33.087285,110.54057706449494L33.134805,87.62062587070957L33.372405,103.097375152699L33.895125,123.48659617365725L34.180245,140.55339859554056L34.417845,162.18553458117484L34.560405,125.17234050012532L35.130644999999994,135.70090835772808L35.415765,128.99922797231528L35.653365,7.967033406358L35.795925000000004,103.28615739331777L35.986005,137.42756831275503L36.176085,72.57652122078021L36.271125,18.985279292287057L37.174005,65.84649562837501L37.411604999999994,81.17336327270374L37.459125,115.09399993327685L37.696724999999994,77.78690056238645L37.934325,47.22726468369917L38.029365,45.743900943546365L38.409525,87.14141916167931L38.457045,110.62896459263376L38.789685,162.71193396826948L38.979765,136.93275043832503L39.407445,155.4012386012155L39.787605,119.5751044596033L40.547925,99.90560936002547L40.738005,125.80922248603213L41.023125,117.69317674621702L41.213205,112.59970127732397L41.308245,54.43780265166814L43.30408499999999,42.90047557700342L43.351605,59.47255660423828L43.446645,77.2149442434066L43.731764999999996,78.16434382596138L44.159445000000005,35.88246637502407L44.254485,29.27793747933177L44.302004999999994,30.942133053649155L44.444565000000004,55.36765441765889L44.729685,105.75209416630165L45.157365000000006,115.80342591811583L45.299925,130.8240160445931L45.347445,97.87893212838335L45.822645,78.51676818333065L46.630485,105.92264187694794L46.725525000000005,108.49490322487283L47.390805,91.32383367508685L47.628405,17.500258952915782L47.723445000000005,80.73348695667993L47.866005,81.58409419834065L48.246165,114.21800991205038L48.531285,148.2398860711316L48.626324999999994,167.10670674592998L48.768885,41.96760830531949L49.054005,89.39742995053795L49.291605000000004,33.29600471307988L49.766805000000005,70.7843581162898L50.051925000000004,57.09998451012401L50.337045,123.12222313685045L50.527125,127.43791184307808L50.812245,111.73654070783657L50.907285,82.60977714432657L50.954805,114.45450977389045L51.049845000000005,138.7219512854258L51.144885,127.52549839780168L51.192405,94.03992297310877L51.430005,117.59556658700657L51.477525,104.4878578482204L51.905205,112.87659669109986L52.190325,110.01612588677087L52.285365,117.81061801660039L52.522965,107.89564802655363L52.760565,96.71057282929881L52.855605,121.94912093706093L53.425845,67.9011253624788L53.758485,99.93985588409288L53.806005,129.42554616366493L53.901045,136.0709464993158L53.996085,64.545348337059L54.043605,87.88764506027977L54.138645,87.88972083794599L54.708885,106.58101038973048L54.851445,103.56685205801641L55.041525,99.69772673748524L55.184085,132.57126602194256L55.326645,113.43904854850899L55.516724999999994,117.34165032305475L55.564245,81.4931628521175L55.754325,102.8501700450515L55.991925,132.1123746329268L56.039445,116.02802127760981L56.514645,110.33694979049157L56.704724999999996,104.00946923393448L56.847285,40.50745168704865L57.227445,73.71721671052225L57.417525,25.23570070680443L57.560085,44.051065568227365L57.607605,53.73321133698949L57.655125000000005,26.290939063902275L57.987764999999996,114.81419121289784L58.272884999999995,114.0838304702314L58.367925,56.04394677940244L58.415445,81.10855349498921L58.605525,64.89411953646692L58.795605,100.09739383593468L58.938165000000005,135.0866357199468L58.985685,19.68494658343711L59.033205,74.16502723300088L59.223285000000004,109.20596500160462L59.650965,162.3248203034531L59.841044999999994,176.6227037411131L59.888565,184.57574715820138L59.936085,149.80154205127872L60.031125,137.77090417999597L60.078645,143.31265599524116L60.363765,118.07406140364303L60.553844999999995,60.42725684442369L60.601365,60.83795817413858L60.696405,107.71097542277342L60.791445,142.71143086015002L60.934005,109.91278063014438L60.981525,54.15870417011947L61.029044999999996,95.55496104272099L61.076565,53.04174903062121L61.219125,53.244038186632466L61.40920499999999,111.56613262623318L61.646805,50.03447041588869L61.694325000000006,37.49024420784608L61.741845,55.89936709686134L62.026965,82.48150674671356L62.834805,108.3767418394711L63.024885,131.6133828201032L63.119925,99.2514609677475L63.357525,113.38384710448275L64.49800499999999,176.58671244003736L64.593045,105.75073866855128L64.830645,86.43416436201932L64.925685,102.08011000764347L65.115765,128.92322822458732L65.21080500000001,131.388154991749L65.590965,142.6337588677504L65.876085,106.13250116008705L66.066165,96.51412918268535L66.398805,75.26111263890402L66.49384500000001,80.48986953214407L66.778965,110.05305353233585L66.874005,54.211639845943715L67.016565,92.420965586847L67.064085,117.10569516504559L67.159125,102.14319824984521L67.53928499999999,105.82849310126406L67.586805,119.34226038229363L67.729365,94.9584688316101L68.062005,27.428648072698707L68.204565,11.944270117015815L68.632245,56.342659049986494L68.82232499999999,133.5253948532096L68.964885,98.96456851338652L69.012405,123.32440017327855L69.440085,72.79203698634221L69.487605,71.62715977191404L69.677685,82.19959574794458L69.725205,85.48978715254272L69.77272500000001,73.27782646683887L69.820245,88.25522549868448L70.010325,26.081906349981665L70.057845,16.771531123831824L70.200405,24.970480675845295L70.247925,67.8912176581318L70.628085,1.5197413141784368L70.818165,45.93812573205985L70.913205,48.15858736982874L71.00824499999999,54.41913135459586L71.05576500000001,54.99403996235474L71.483445,-33.27341715316167L71.626005,30.557244842329375L72.006165,71.79633176232112L72.101205,85.7477208370253L72.29128499999999,61.48667940264646L72.33880500000001,96.20231520791263L72.576405,42.512998634533595L72.909045,78.89312054353353L73.431765,91.95731375398667L73.526805,98.66768064766573L73.811925,91.29701666038882L73.954485,96.99715349675212L74.049525,116.25159969489384L74.239605,120.77692112064726L74.42968499999999,133.8412167910915L74.524725,135.7108730088184L74.762325,65.07694914403592L74.809845,42.46602339623186L74.85736499999999,83.27278153346663L75.237525,78.08056195724032L75.522645,67.72739925472752L75.71272499999999,23.74356219662524L75.760245,0.00614508088412935L75.807765,-20.82275433483128L76.235445,-0.4718264290237695L76.473045,43.45603549787136L77.13832500000001,87.7468993761662L77.23336499999999,94.74765687576073L78.18376500000001,77.26875368788517L78.231285,66.14067376475334L78.42136500000001,84.04303291333184L78.468885,134.03259382382504L78.51640499999999,72.0046298289426L79.371765,84.68758052492909L79.609365,87.34306055250634L79.942005,79.95119950339922L79.989525,80.3011040200734L80.274645,71.95333767195191L80.36968499999999,112.7324303324598L80.607285,156.11495026363409L80.702325,141.70646186121382L80.797365,110.104661342192L80.98744500000001,113.12715446751592L81.842805,97.43000495315351L81.937845,98.9173903378692L82.032885,105.74381045775681L82.41304500000001,102.52690297132959L82.555605,85.03364717423652L82.93576499999999,95.95780217325523L83.07832499999999,87.16656121219684L83.220885,109.07242474916863L83.838645,61.9475582557713L84.171285,86.7267302901225L84.456405,103.0267389593925L84.646485,87.34321075946539L84.741525,88.9106497502553L84.78904499999999,94.25230104145786L85.074165,152.06692589770185L85.54936500000001,163.2321523673359L85.786965,156.0744671889358L85.834485,160.68773209660532L85.977045,182.3569231248455L86.262165,179.13545771935918L86.357205,112.48471030691867L86.499765,116.68774187425525L86.642325,123.69618044610687L86.78488499999999,76.71117645690342L86.83240500000001,68.29752687328757L87.687765,-19.101134691355437L88.400565,85.2516589679016L89.113365,89.32402884072212L89.255925,68.63978603942878L89.303445,59.167820076924514L89.39848500000001,90.01012998865966L89.446005,106.70428813723873L90.443925,114.1189131253647L90.49144500000001,70.17304862620551L90.729045,24.44980288991597L90.871605,38.89911506245089L91.06168500000001,82.21971081298318L91.156725,93.41474789739677L91.346805,54.65732989129052L91.536885,50.616673160095566L91.72696499999999,51.06760559588646L92.91496500000001,68.62983887658503L92.962485,99.62475019255871L93.48520500000001,41.766343086319694L93.865365,79.9097516195122L93.912885,37.539689885942714L94.055445,38.77816831312692L94.15048499999999,105.72808332786232L94.19800500000001,100.07956758069167L94.625685,112.73080554958479L94.958325,94.05907347613349L95.671125,106.86657169747626L95.718645,118.39990625751985L95.861205,88.93485002104242L96.19384500000001,116.93699008057794L96.76408500000001,94.379658241055L97.001685,49.973034170656355L97.049205,65.55287405692877L97.144245,68.72624859517806L97.47688500000001,68.16982060257207L97.809525,82.53073795785662L97.857045,92.0465253679959L98.284725,93.831858473361L98.474805,141.2454137468382L98.56984499999999,86.17356997712719L98.75992500000001,112.29536290556753L99.187605,80.30629892899933L99.520245,62.18797813110156L99.56776500000001,81.90989292215855L99.805365,135.73513075044698L100.185525,107.80305736262176L100.61320500000001,116.78230375249338L100.660725,108.23608569820195L100.85080500000001,174.62920552404407L101.088405,106.12099220302711L101.230965,144.67477993536195L101.326005,74.48643330952441L101.468565,116.48364083898616L101.611125,90.72292026439831L101.801205,105.97042831118608L102.181365,126.51919326982328L102.561525,108.27172167580164L102.751605,108.7473184554627L102.894165,110.09147674374893L102.94168499999999,158.12910787979632L103.226805,192.04636257918602L103.274325,72.99083304026873L103.654485,103.99354125431661L103.844565,73.71953945977373L103.892085,77.28391706321366L103.939605,128.35973558847348L104.034645,108.75720621361867L104.177205,85.36562553175987L104.509845,128.7646224605762L104.557365,98.10173103656703L104.937525,93.42418273357367L104.985045,110.53698641499571L105.41272500000001,110.0740301198207L105.602805,108.87015195606797L105.697845,104.25172533145718L105.745365,115.73370235890857L105.840405,49.686037391805954L106.07800499999999,57.284401454757116L106.12552500000001,24.059664431153074L106.220565,37.109677392008955L106.268085,68.52784663702835L106.315605,119.79047926822757L106.553205,122.36252595917051L107.218485,166.34544519942415L107.646165,136.4955139102226L107.93128499999999,115.09621737450487L108.263925,161.86665579905187L108.31144499999999,143.65389602917475L108.739125,160.00240803681638L109.071765,180.39492232554852L109.499445,131.60539869638487L109.642005,88.57600300414684L109.97464500000001,93.82105362159008L110.06968499999999,49.50808268234326L110.259765,51.95968146390824L110.734965,102.52645813981941L110.782485,135.78367559647708L110.92504500000001,49.18006304424697L111.162645,42.365519528717016L111.35272499999999,102.07273032176306L111.970485,115.84183698837636L112.06552500000001,111.64419374830332L112.113045,159.07367944300267L112.398165,150.34662221022515L112.445685,84.93573434043765L112.493205,88.48318603171197L112.588245,145.92021837154996L113.253525,100.17826246213895L114.108885,136.21843316748928L114.394005,118.57830724673568L114.72664499999999,130.11322052612164L115.011765,72.88337573608327L115.201845,129.82060294866903L115.296885,115.07041092030414L115.391925,59.96449736344143L115.677045,77.89361372542776L115.819605,104.23290355375848L115.91464500000001,86.72414958897082L116.05720500000001,118.50830923173535L116.199765,100.92671526265364L116.342325,151.08746264453063L116.77000500000001,113.93924227203125L116.865045,62.09707229243823L117.435285,77.79316889985664L117.482805,84.17246738122458L117.530325,118.65686342942638L118.195605,154.25182209309696L118.385685,127.4864421480699L118.57576499999999,78.11882499419464L118.765845,95.99637675819469L118.813365,99.13509745918316L118.955925,70.4333468488212L119.050965,71.25025542247444L119.14600499999999,96.60642760396877L119.526165,91.14218132536134L119.621205,61.09616431101474L119.763765,86.391305624471L119.90632500000001,96.69765619776203L120.048885,93.17502418562685L120.143925,109.58170404079496L120.286485,80.11473528967062L120.42904499999999,87.10622622425812L121.18936500000001,123.10592081857979L121.522005,126.50207295445539L121.75960500000001,118.68501201328388L121.807125,84.97072680228996L121.85464499999999,65.47095120410542L121.949685,75.82128853277601L121.997205,45.615721670843705L122.09224499999999,99.16318319324091L122.187285,118.35977120846586L122.377365,126.00403722713436L122.56744499999999,119.53909699473803L122.80504499999999,103.36963841331405L122.900085,127.84014137394658L123.232725,70.36713760579089L123.327765,42.68669294606333L123.37528499999999,15.676807669544374L123.612885,64.75563252831131L123.802965,105.89314907112514L124.040565,133.96652988584125L124.13560500000001,119.31869544182989L124.183125,70.04229208784163L124.65832499999999,85.73477899009087L124.70584500000001,107.56891317550802L124.895925,152.41290981402668L125.03848500000001,147.36544767318586L125.181045,150.53344382821587L125.228565,136.1272364336991L125.37112499999999,146.8342219121502L125.41864500000001,40.8851104216124L125.513685,36.537747281969224L125.751285,97.27414735447199L125.798805,69.68401133392756L126.131445,44.926935851819316L126.178965,15.370507951724639L126.369045,7.72523881364759L126.464085,45.01538204373247L126.55912500000001,46.35858498744966L126.749205,110.42201741575896L127.22440499999999,101.28224353813938L127.319445,81.15082227085304L127.414485,117.2982775383845L127.462005,126.05289246322644L127.652085,122.8158007245179L127.794645,158.76359847670287L128.17480500000002,143.25237225384802L128.36488500000002,163.3415617240944L129.03016499999998,146.7346977448549L129.220245,158.4163645300917L129.31528500000002,151.68074888747825L129.552885,30.698948701790364L129.600405,31.492399597508594L129.695445,62.82540929178964L129.790485,66.15020821011386L129.838005,61.40062252789532L129.933045,48.73855342930433L130.028085,75.79072619159552L130.075605,40.92930425413162L130.408245,66.48562677626431L130.550805,91.20336019153167L130.788405,66.80939309093208L131.358645,58.0173030870726L131.548725,43.7749522791844L131.691285,46.8374263604406L132.166485,46.124384349182705L132.451605,41.923402340568344L132.499125,58.43599082908446L132.594165,88.86807274350375L132.736725,76.74241416968209L132.879285,59.43474509706458L132.926805,63.6030786179921L132.974325,98.73581294278824L133.449525,59.929870613776615L133.497045,98.09732386769647L133.544565,107.25538388869245L133.639605,95.14209230729581L134.209845,107.29628609014733L134.257365,123.82415106133519L134.304885,120.87884573679712L134.352405,105.10273360734101L134.732565,103.66628961279926L135.160245,84.70804059812382L135.968085,39.437089214577014L136.633365,37.38563415796785L136.823445,61.60249293679734L136.870965,-13.090851357571031L137.34616499999998,-17.584887325721088L137.441205,29.631997501875592L137.631285,46.53542287907531L138.106485,60.725591928332214L138.486645,72.18305575285491L138.534165,25.515421538159035L139.056885,53.63880182222791L139.437045,-10.449399577083629L139.72216500000002,-3.3244899430885293L139.769685,49.32980951950857L139.864725,27.768658168827766L139.95976499999998,98.04983854753684L140.197365,113.38388560888912L141.10024499999997,143.12783270683542L141.38536499999998,139.82056260271855L141.432885,139.49391379454124L141.908085,147.1925295104488L142.003125,110.172121392284L142.145685,76.22543857888034L142.19320499999998,40.16246575352952L142.24072500000003,65.38103454651872L142.715925,58.65229553387036L142.763445,3.452321273518423L142.906005,59.469473653495065L143.191125,90.4416031043488L143.42872500000001,118.44656631156353L143.523765,84.43965301198502L143.61880499999998,83.62698989679042L143.71384500000002,113.29510638059955L144.141525,65.18281403943966L144.331605,69.53000295816894L144.52168500000002,88.254436329955L144.616725,63.52913493868938L144.75928499999998,44.5117846665218L145.18696500000001,56.80347621067947L145.234485,56.550872029609955L145.424565,43.782420838920686L145.709685,92.39863792561407L145.804725,109.78690058094017L146.374965,111.01081419449113L146.422485,115.91153021133577L146.470005,86.47502036577451L146.517525,66.36063287070975L146.660085,49.46004335132185L146.850165,-1.036489438731035L147.135285,27.982222840159004L147.182805,70.27724817095329L147.32536499999998,84.34234209079416L147.705525,95.47231053045711L147.943125,81.40861987311432L148.08568499999998,33.07964648746717L148.22824500000002,34.58617442812462L148.275765,85.06155048588495L148.560885,57.6695707168952L148.655925,86.87021500627846L148.941045,53.709889515801045L149.083605,40.83349138770317L149.226165,39.28832436168477L149.273685,5.793774735317381L149.463765,-57.54200972037385L150.366645,25.100523951151732L150.556725,59.27077382554526L150.65176499999998,54.28758696963332L150.889365,119.26476228386132L151.126965,130.3461651731528L151.744725,136.94914947722341L151.934805,148.75452984238072L152.077365,60.805737651573075L152.790165,53.768370022685986L153.31288500000002,19.624680028544773L153.36040500000001,39.04849639705033L153.502965,79.04352165363947L153.788085,60.93188183170181L154.120725,93.67287516988283L154.168245,127.39753070114234L154.215765,108.05590879900149L154.263285,144.22378029018373L154.310805,148.01764585329923L154.358325,151.52156576566213L154.73848500000003,134.38400647472733L155.831445,97.17082797744713L155.87896500000002,76.36296806688411L155.926485,87.34121999316592L156.259125,75.26344711685104L156.781845,88.20877551498373L156.876885,51.320776681874314L157.447125,64.80860319581079L157.494645,94.40074374782903L157.637205,145.31395050589964L157.732245,140.93201730671367L157.779765,113.47926488333648L157.874805,60.39022152511485L158.77768500000002,71.53366857104426L159.015285,68.87180763880178L159.157845,13.123068625130886L159.300405,20.013686927794645L159.728085,36.751442563119994L159.77560499999998,59.686598093261495L160.060725,46.43714965439852L160.155765,56.53130065435378L160.203285,55.807503034875005L160.488405,47.533854689322965L160.630965,31.263277303848408L160.678485,4.634868390365681L160.91608499999998,23.88148669024555L161.01112500000002,18.465397204678748L161.106165,64.46863902750884L161.24872499999998,103.99192156678407L161.676405,97.15860680512155L161.914005,142.8864193346394L162.009045,94.4265759062543L162.05656499999998,58.65768892398113L162.104085,115.31669167775293L162.626805,115.66493121046855L163.102005,127.7407273725213L163.48216499999998,138.1527121549175L164.290005,117.75889337571412L164.62264499999998,186.34519627399402L164.67016500000003,123.88267871562937L164.812725,181.00023011857843L165.287925,160.83203723725427L165.573045,145.8526065828209L165.763125,100.15476298025067L166.000725,137.8706743062981L166.09576499999997,83.3009265348184L166.190805,99.98321196744051L166.285845,121.94261673277147L166.380885,65.79289198231008L166.570965,71.74211603986019L166.618485,53.59843893798269L166.761045,64.47631876440104L167.046165,45.3261683668967L167.14120499999999,105.07057774183797L167.28376500000002,89.54175717900782L167.663925,127.64559518061431L167.758965,129.24017871277937L167.806485,86.87924132063435L167.854005,94.81411216247734L168.234165,98.94615957094418L168.946965,105.61548169227343L169.042005,72.92686446371825L169.137045,75.75330985305585L169.232085,25.30665395687742L169.327125,27.7097813806776L169.75480499999998,24.447520191779237L169.944885,75.22845807988094L170.562645,51.922245148730156L170.752725,99.1495113157702L171.655605,126.80682470302608L172.36840500000002,117.19547355513264L172.41592500000002,123.43449426694997L172.701045,111.9970813016352L172.748565,94.18652389567632L172.843605,88.29927729440645L172.986165,96.57352942748614L173.22376500000001,75.78336669518794L173.366325,108.48361979433439L173.41384499999998,119.02292216524594L173.50888500000002,130.4361624839215L174.269205,115.83258257641243L174.60184500000003,97.72269302805572L174.791925,110.40661246498622L175.124565,110.55111202550059L175.17208499999998,88.34997568697983L175.504725,83.01125306787833L175.64728499999998,48.28455338618795L176.787765,103.1854544107615L176.930325,108.84813915239764L177.262965,76.6744513981361L177.40552499999998,100.03349666234747L177.45304499999997,118.55973816973108L177.54808500000001,106.60760180788499L177.595605,92.23074865721013L177.928245,100.27746973265614L178.02328500000002,83.33546138900178L178.54600499999998,121.98005096771901L178.783605,106.38262582217784L179.211285,104.56551410592661L179.306325,124.0035739054505L179.401365,124.25888186158078L179.591445,135.83661526120505L179.73400500000002,57.14511525835673L180.351765,33.424692528681476L180.399285,37.3868194921235L180.446805,74.60664563000711L180.731925,91.9864078161349L181.11208499999998,71.86669950866089L181.39720499999999,23.46397433191565L181.444725,62.239335005541825L181.492245,97.68284050527825L181.682325,95.19732732715369L181.919925,129.69275444632063L182.25256499999998,138.97901300918252L182.632725,50.3612959484132L182.822805,61.08572593330574L183.012885,89.00135430693163L183.107925,106.74580941796023L183.393045,96.62938249627587L183.535605,81.76488723269995L183.630645,83.13658787754325L183.725685,102.81995315122887L183.820725,99.73165307105545L183.96328499999998,79.06456067757381L184.200885,60.101769478698145L184.77112499999998,20.80601665471762L185.008725,19.800923409629362L185.246325,-22.160657495716265L186.291765,-18.030732778475112L186.434325,5.20292333696361L186.671925,8.448911245271162L186.957045,29.389826044800785L187.00456499999999,58.910980041044574L187.194645,72.9949337175792L187.289685,56.52296521254211L187.574805,68.98773186596915L187.622325,80.13340443686263L187.907445,85.5119487900473L188.24008500000002,98.82667833520605L188.52520500000003,93.42556864790281L188.667765,76.68542274696924L188.952885,134.80821660874275L189.475605,127.5022480232595L189.57064499999998,82.12775157350758L189.90328499999998,95.99571810439292L190.045845,96.4793320314589L190.188405,65.48732500572027L190.283445,83.03555881161908L190.52104500000002,81.2032022824649L191.281365,82.71883407140355L191.376405,115.29309644046181L191.423925,76.00313447560508L191.614005,89.02741849409918L191.661525,72.8876244464759L191.851605,28.780995160693433L191.94664500000002,-8.33470674930742L192.27928500000002,-8.532495028658236L192.611925,68.67477181342214L193.182165,19.660176198404834L193.419765,9.24183376673171L193.562325,-34.53344349835336L193.990005,-1.2763696955087036L194.03752500000002,25.957530519578103L194.322645,94.3475535837094L194.370165,51.02977985504936L195.03544499999998,119.07446371533673L195.225525,99.00926588585881L195.320565,36.75644943680894L195.415605,35.22077179094073L195.558165,35.65300337556962L195.700725,-0.41189962972817407L196.128405,50.07811250080887L196.413525,41.1605477678194L196.508565,4.954992219651473L197.031285,55.92843845974089L197.07880500000002,79.68031187548644L197.36392500000002,125.46737450576468L197.696565,116.88165268629767L198.83704500000002,104.08759601114178L198.979605,67.7017384640254L199.122165,114.50210342438292L199.217205,55.39121910113867L200.215125,22.501519689035984L200.357685,58.855368778550094L200.547765,40.24744879729156L200.595285,96.87831121003599L200.64280499999998,114.08177769968496L200.927925,151.39423708591596L201.07048500000002,97.88888600154947L201.165525,83.35047752072954L201.593205,49.95852669722162L201.783285,25.338738588370777L201.925845,50.80225877039297L202.16344500000002,2.0814046625652667L202.543605,-21.69219813161947L202.733685,-0.16046296008741257L202.828725,68.51080306501197L202.923765,117.92091722566498L203.54152499999998,132.47403029170786L203.63656500000002,91.52954817354976L203.779125,109.40001812303242L204.349365,5.530726218566358L204.539445,64.19324124515758L204.77704500000002,107.34274738228758L204.872085,103.12840837555994L205.347285,98.75931844503403L205.442325,81.37594530616613L205.537365,141.57077042441207L206.155125,137.97902333049348L206.440245,130.161942310979L206.915445,91.58788286120692L207.153045,96.18423803530713L207.485685,92.18361318836149L207.628245,91.35097156800538L207.723285,65.6873800446852L208.67368499999998,84.78592192075251L208.721205,41.418457620987844L208.76872500000002,64.85957743743029L209.006325,54.78739293030274L209.101365,16.99409541852079L209.386485,0.01555085996867156L209.57656500000002,-20.705890189686983L209.956725,29.992718244942182L210.004245,44.82710928838581L210.241845,42.90042031876908L210.289365,66.56982811136646L210.479445,95.54839644338841L211.00216500000002,93.49555089576735L211.287285,53.6079998324535L211.572405,43.17443350415752L211.714965,74.94918658412301L212.237685,72.27058349893585L212.42776500000002,55.667807754950275L212.617845,90.06762556458122L212.712885,47.878008263655076L212.95048500000001,51.02636890650649L213.14056499999998,22.321587131664135L213.378165,51.005568563686865L213.615765,80.15586290741783L213.805845,77.5202546396939L213.853365,20.758194622144334L213.948405,89.13079520269952L214.37608500000002,85.05418319029445L214.423605,58.39657165123722L214.946325,38.344137995523425L215.041365,37.44421714688266L215.088885,15.210043141116202L215.421525,21.17129655015644L215.516565,50.60854416290235L215.564085,40.53343100467909L215.611605,25.689738435265866L215.659125,18.09439830942006L215.849205,12.095967433629738L215.944245,-39.29516020907268L216.989685,-7.465518709977412L217.13224499999998,51.1773595669111L217.797525,22.27451546141932L218.035125,25.916615449286052L218.082645,24.62636993104001L218.177685,74.45992853109297L218.557845,40.30126712638686L218.795445,91.00479359975576L219.128085,101.84705308805572L220.458645,125.43106593130413L220.791285,133.3709335015519L221.314005,95.50212085761444L221.551605,116.39101428499517L221.979285,159.31919852918807L222.02680500000002,138.96529148435445L222.502005,125.77540565182284L222.549525,107.74048626015284L222.59704499999998,108.98116392050014L222.692085,117.79657188745635L222.787125,103.32829789931961L222.882165,13.204491817645598L222.929685,89.86547278783259L222.977205,149.06829773240216L223.072245,127.23922842454655L223.927605,111.90265014397131L224.165205,101.55759655610923L224.402805,114.55291756297859L224.545365,103.84298002107367L224.687925,92.69806293278965L224.92552500000002,93.98880496599294L225.44824500000001,117.67677290625174L225.875925,80.70361276896871L226.01848500000003,109.52644787886973L226.06600500000002,97.08516947423972L226.493685,85.39443867998659L226.778805,103.10418805438682L227.49160500000002,146.70434283191997L227.539125,119.14766171162343L227.824245,70.89597274413723L228.014325,97.93941279382109L228.156885,75.39128528513884L228.442005,57.79633647488558L228.53704499999998,52.89746127697039L228.96472500000002,81.76392086052222L229.154805,117.29866769931714L229.43992500000002,86.53522879494417L229.67752499999997,99.05728197860638L229.96264499999998,97.67473523279781L230.152725,91.70331395741741L230.390325,101.74724488105244L230.722965,101.10444211550056L230.913045,99.08092813245958L231.340725,68.58117743662507L231.483285,84.3970976769816L232.053525,100.7517133295471L232.386165,124.58236745237922L232.52872499999998,147.8916979347046L232.623765,157.81792904422932L232.671285,94.70961242607984L232.861365,126.17392873977676L232.908885,110.9151320470277L232.956405,61.824691169236395L233.526645,55.05133309728341L233.811765,88.04162174125373L233.859285,156.46155023769472L233.95432499999998,176.75242357370823L234.191925,139.60423435917048L234.239445,115.65244978756027L234.382005,71.83879929834794L234.667125,66.65585793289044L234.85720500000002,118.20768019298212L235.189845,108.83736080769401L235.66504500000002,74.43531837568905L235.95016500000003,89.2114080816877L236.140245,76.04214502754024L236.282805,85.2161027831766L236.66296499999999,88.41733727313672L236.758005,49.526888156677686L237.37576499999997,57.075440564599745L237.565845,77.67019259066225L237.613365,66.23439946451288L238.51624500000003,55.84077618129144L238.56376500000002,60.30391887192176L238.706325,88.04120170691158L239.038965,109.26162456444035L239.134005,128.16371877374942L239.514165,134.9244370264769L239.609205,89.77814368027201L239.65672500000002,102.57864154746784L240.274485,116.85392320973078L240.369525,138.23357108129485L240.417045,136.74952801203776L240.79720500000002,76.2837367860639L240.844725,107.19744674413393L240.98728499999999,111.40322241812336L241.08232500000003,87.46601321873698L241.510005,82.515807882414L241.652565,112.97762634881275L241.747605,109.25041905956228L241.842645,95.48568695336651L242.412885,75.01437652240254L243.220725,90.5604855147801L243.458325,125.35177808967038L243.933525,116.81735884726119L244.218645,99.99495098340533L244.551285,122.78156455366614L244.836405,68.40284220382841L244.931445,28.676616128317114L245.12152500000002,56.997892309843564L245.454165,65.7944161631378L245.501685,56.148550510667384L245.549205,51.70651060755808L246.024405,6.377044080192389L246.784725,-65.9771687596076L247.02232500000002,-54.784845058661766L247.25992499999998,10.417902486795944L247.497525,16.702536815767147L247.545045,48.85526826840521L247.640085,95.52834078587236L247.782645,92.58596850782904L248.257845,116.76389354874841L248.44792500000003,100.09444230244637L248.49544500000002,100.1859542773926L248.780565,81.3103706506946L248.970645,85.22286287554451L249.018165,101.77120376989252L249.398325,53.418744524508796L249.49336499999998,52.357325371219865L249.540885,54.46558963623499L249.58840500000002,116.46444667597727L249.683445,118.87156971228187L249.82600499999998,85.3056654449227L249.873525,125.76108929609785L249.92104500000002,62.65737236199095L249.968565,125.11145769352092L250.158645,126.50686567700528L250.253685,143.73453106290077L250.396245,147.27766626957626L250.443765,141.3652745359155L250.491285,112.59611260134035L250.538805,94.56812116645598L250.633845,107.90013939426052L250.776405,51.32336823713212L250.823925,34.26090450627451L251.109045,40.59141545817938L251.39416500000002,57.59375460938007L251.489205,1.875806522341822L251.631765,83.88366109846372L252.202005,89.15278325906394L252.582165,99.82019874114394L252.629685,151.38815297678266L252.677205,101.69749775327337L252.962325,92.50769453921173L253.29496500000002,65.17364729451084L253.53256499999998,50.06707366113026L253.865205,52.886815069938706L254.055285,43.48791398932045L254.29288499999998,40.57287038761071L254.482965,43.828727833813495L254.768085,74.98648532572551L254.863125,53.06022552058976L255.005685,86.03938816829043L255.243285,100.81314013109694" style="fill: none;" fill="none"></path></g></g></g></g><g opacity="0.2"><g><g><g><path stroke="rgb(255, 112, 67)" stroke-width="2px" d="M29.285685,185.25781647364298L29.903444999999998,106.3656888008117L30.426165,109.95457188288367L30.663765,191.057866970698L30.806325,72.58229072888685L31.234005,81.67019701004021L31.281525,137.25146468480423L31.756725000000003,27.852893034617015L31.994325,-13.456539154052827L32.089365,128.94883171717322L32.136885,67.18888497352593L32.326965,288.2069251537323L32.707125,177.84419870376584L33.087285,25.915440082549964L33.134805,53.24070072174065L33.372405,126.31249841054274L33.895125,154.0704271793365L34.180245,166.15360196431473L34.417845,194.6337383588155L34.560405,69.65254958470655L35.130644999999994,151.49376010894773L35.415765,118.94670740763341L35.653365,-173.5812582969667L36.271125,-61.40158359209709L37.174005,136.13832012812293L37.411604999999994,104.16366473833713L37.459125,165.97495492299393L37.696724999999994,21.826251506805335L37.934325,1.3878108660379085L38.029365,43.518855333328176L38.409525,149.23769648869828L38.457045,145.86028273900345L38.789685,240.83638803164163L38.979765,98.26397514343256L39.407445,183.10397084554035L39.787605,65.83590324719741L40.547925,70.40136671066277L40.738005,164.6646421750386L41.023125,105.51910813649489L41.213205,104.95948807398473L41.308245,-32.80504528681448L43.30408499999999,25.594484965006426L43.351605,84.33067814509067L43.446645,103.82852570215856L43.731764999999996,79.58844319979343L44.159445000000005,-27.540349801381524L44.254485,19.371144135792957L44.302004999999994,33.43842641512545L44.444565000000004,92.00593646367383L44.729685,181.3287537892659L45.157365000000006,130.88042354583735L45.299925,153.35490123430884L45.347445,48.461306254068944L45.822645,49.47352226575208L46.630485,147.0314524173736L46.725525000000005,112.35329524675998L47.390805,65.56722935040784L47.628405,-93.23510313034069L47.723445000000005,175.58332896232602L47.866005,82.86000506083164L48.246165,163.16888348261512L48.531285,199.2727003097534L48.768885,-145.74103935559606L49.054005,160.54216241836542L49.291605000000004,-50.85613314310721L49.766805000000005,127.01688822110488L50.051925000000004,36.573424100875776L50.337045,222.15558107693988L50.527125,133.91144490242L50.812245,88.1844840049743L50.907285,38.919631799062L50.954805,162.22160871823624L51.049845000000005,175.12311355272925L51.144885,110.7308190663655L51.192405,43.81155983606967L51.430005,152.92903200785315L51.477525,84.82629474004104L51.905205,125.45970495541884L52.190325,105.72541968027745L52.285365,129.50235621134436L52.522965,93.02319304148351L52.760565,79.93296003341669L52.855605,159.80694309870398L53.425845,-13.170867999394844L53.758485,147.99795166651404L53.806005,173.65408158302304L53.901045,146.0390470027923L53.996085,-42.7430489063264L54.043605,122.90109014511104L54.138645,87.89283450444533L54.708885,134.6179447174072L54.851445,99.04561456044509L55.041525,93.89403875668837L55.184085,181.8815749486287L55.326645,84.7407223383585L55.516724999999994,123.1955529848734L55.564245,27.72043164571117L55.754325,134.88568083445224L55.991925,176.00568151473996L56.039445,91.90149124463392L56.514645,101.8003425598144L56.704724999999996,94.51824839909865L56.847285,-54.74557463328056L57.227445,123.53186424573258L57.417525,-47.4865732987723L57.560085,72.27411286036167L57.607605,68.25642999013257L57.655125000000005,-14.872469345728657L57.987764999999996,247.59906943639118L58.272884999999995,112.98828935623163L58.367925,-31.015878756841147L58.415445,118.7054635683695L58.605525,40.5724685986836L58.795605,152.90230528513587L58.938165000000005,187.5704985459645L58.985685,-153.41758712132787L59.033205,155.88514820734656L59.223285000000004,161.76737165451047L59.650965,242.00310325622556L59.888565,196.5053122838338L59.936085,97.6402343908945L60.031125,119.72494737307227L60.078645,151.62528371810907L60.363765,80.21616951624546L60.553844999999995,-26.04294999440522L60.601365,61.454010168711264L60.696405,178.0205012957255L60.791445,195.21211401621497L60.934005,60.71480528513583L60.981525,-29.47241051991793L61.029044999999996,157.64934635162348L61.076565,-10.728068987528596L61.219125,53.547471920649144L61.40920499999999,199.04927428563434L61.646805,-42.26302289962779L61.694325000000006,18.673904895782385L61.741845,83.51305143038425L62.026965,122.35471622149144L62.834805,147.21959447860712L63.024885,166.46834429105118L63.119925,50.70857818921399L63.357525,134.58242630958551L64.49800499999999,271.39101044336957L64.593045,-0.5032219886780702L64.830645,57.4593029022216L64.925685,125.54902847607926L65.115765,169.187905550003L65.21080500000001,135.0855451424916L65.590965,159.50216468175248L65.876085,51.38061459859204L66.066165,82.08657121658318L66.398805,43.38158782323193L66.49384500000001,88.33300487200412L66.778965,154.39782953262323L66.874005,-29.550480683644736L67.016565,149.73495419820145L67.064085,154.1327895323435L67.159125,79.6994528770446L67.53928499999999,111.35643537839248L67.586805,139.61291130383805L67.729365,58.382781505584646L68.062005,-73.86608306566887L68.204565,-11.282296816508076L68.632245,122.9402424494425L68.82232499999999,249.2994985580444L68.964885,47.12332900365185L69.012405,159.86414766311643L69.440085,-3.00650779406241L69.487605,69.87984395027152L69.677685,98.0582497119903L69.725205,90.42507425944004L69.77272500000001,54.959885438283216L69.820245,110.72132404645278L70.010325,-67.17807237307242L70.057845,2.8059682846068355L70.200405,37.26890500386548L70.247925,132.27232313156122L70.628085,-98.03747320175182L70.818165,112.5657023588816L70.913205,51.489279826482054L71.00824499999999,63.80994733174634L71.05576500000001,55.856402873992835L71.483445,-165.6746028264365L71.626005,126.30323783556615L72.006165,133.6549621423085L72.101205,106.67480444908135L72.29128499999999,25.095117251078197L72.33880500000001,148.2757689158121L72.576405,-38.020976225535186L72.909045,133.46330340703324L73.431765,111.55360356966648L73.526805,108.73323098818456L73.811925,80.24102067947382L73.954485,105.54735875129694L74.049525,145.13326899210608L74.239605,127.56490325927727L74.42968499999999,153.43766029675797L74.524725,138.51535733540848L74.762325,-40.8739366531373L74.809845,8.54963477452586L74.85736499999999,144.4829187393188L75.237525,70.29223259290053L75.522645,52.19765520095817L75.71272499999999,-42.23219339052849L75.807765,-52.06610345840465L76.235445,30.054565429687422L76.473045,109.34782838821405L77.13832500000001,154.18319519360855L77.23336499999999,105.24879312515253L78.18376500000001,51.0503989060719L78.231285,49.448553880055655L78.42136500000001,110.8965716361999L78.468885,209.016935189565L78.51640499999999,-21.037316163381035L79.371765,103.71200656890863L79.609365,91.32628059387201L79.942005,68.86340792973829L79.989525,80.82596079508457L80.274645,59.431688149770025L80.36968499999999,173.9010693232218L80.607285,221.1887301603953L80.702325,120.09372925758356L80.797365,62.7019605636596L80.98744500000001,117.66089415550226L81.842805,73.88428068161004L81.937845,101.14846841494236L82.032885,115.98344063758844L82.41304500000001,97.70154174168898L82.555605,58.79376347859694L82.93576499999999,112.34403467178339L83.07832499999999,73.97969977060947L83.220885,141.93122005462644L83.838645,-8.739741484324238L84.171285,123.89548834164931L84.456405,127.47675196329747L84.646485,63.817918459574315L84.741525,91.26180823643996L84.78904499999999,102.26477797826124L85.074165,238.78886318206787L85.54936500000001,179.97999207178748L85.786965,145.33793942133582L85.834485,167.6076294581095L85.977045,214.8607096672058L86.262165,174.30325961112973L86.357205,12.508589188257757L86.499765,122.99228922526038L86.642325,134.20883830388382L86.78488499999999,6.233670473098656L86.83240500000001,55.677052497863684L87.687765,-150.19912703832003L88.400565,241.7808494567871L89.113365,95.43258364995313L89.255925,37.61342183748874L89.303445,44.959871133168456L89.39848500000001,136.27359485626215L89.446005,131.74552536010737L90.443925,125.24085060755407L90.49144500000001,4.254251877466741L90.729045,-44.135065714518326L90.871605,60.57308332125338L91.06168500000001,147.20060443878168L91.156725,110.20730352401728L91.346805,-3.4787971178691466L91.536885,44.55568806330354L91.72696499999999,51.74400424957267L92.91496500000001,94.97318879763279L92.962485,146.1171171665191L93.48520500000001,-45.021267573038834L93.865365,137.1248644193013L93.912885,-26.01540271441152L94.055445,40.63588595390311L94.15048499999999,206.15295584996537L94.19800500000001,91.60679395993544L94.625685,131.70766250292456L94.958325,66.05147536595655L95.671125,126.0778190294901L95.718645,135.699908097585L95.861205,44.737265666325804L96.19384500000001,158.94020016988114L96.76408500000001,60.54366048177076L97.001685,-16.636901934941704L97.049205,88.9226338863372L97.144245,73.48631040255222L97.47688500000001,67.33517861366263L97.809525,104.07211399078362L97.857045,106.3202064832051L98.284725,96.50985813140862L98.474805,212.3657466570536L98.56984499999999,3.5658043225605276L98.75992500000001,151.4780522982279L99.187605,32.32270296414684L99.520245,35.01049693425489L99.56776500000001,111.49276510874427L99.805365,216.47298749287918L100.185525,65.90494728088372L100.61320500000001,130.25117333730057L100.660725,95.41675861676526L100.85080500000001,274.2188852628072L101.088405,3.358672221501581L101.230965,202.50546153386432L101.468565,179.47945213317868L101.611125,52.08183940251659L101.801205,128.84169038136795L102.181365,157.34234070777887L102.561525,80.90051428476963L102.751605,109.46071362495417L102.894165,112.10771417617792L102.94168499999999,230.18555458386737L103.274325,-105.59246126810723L103.654485,150.49760357538855L103.844565,28.308536767959517L103.892085,82.63048346837355L103.939605,204.97346337636307L104.034645,79.3534121513366L104.177205,50.2782545089721L104.509845,193.86311785380042L104.557365,52.10739390055332L104.937525,86.40786027908318L104.985045,136.20619193712866L105.41272500000001,109.37959567705786L105.602805,107.064334710439L105.697845,97.32408539454136L105.745365,132.9566679000854L105.840405,-49.385460058848174L106.07800499999999,68.68194754918409L106.12552500000001,-25.777441104253228L106.220565,56.68469683329257L106.268085,115.65510050455724L106.315605,196.68442821502683L106.553205,126.22059599558509L107.218485,232.31982405980426L107.646165,91.72061697642002L107.93128499999999,82.99727257092786L108.263925,232.02231343587238L108.31144499999999,116.33475637435907L108.739125,184.52517604827875L109.071765,210.9836937586466L109.499445,58.421113252639685L109.642005,24.031909465789703L109.97464500000001,101.68862954775486L110.06968499999999,-16.961373726526997L110.259765,55.63707963625583L110.734965,178.37662315368647L110.92504500000001,-80.72535578409843L111.162645,32.14370425542187L111.35272499999999,191.63354651133216L111.970485,136.49549698829645L112.06552500000001,105.34772888819371L112.113045,230.21790798505145L112.398165,137.2560363610585L112.445685,-13.180597464243657L112.493205,93.8043635686238L112.588245,232.07576688130695L113.253525,31.565328598022383L114.108885,190.27868922551468L114.394005,92.11811836560561L114.72664499999999,147.41559044520056L115.011765,-12.961391448974714L115.201845,215.2264437675476L115.296885,92.9451228777567L115.391925,-22.69437297185273L115.677045,104.78728826840711L115.819605,143.74183829625443L115.91464500000001,60.46101864178967L116.05720500000001,166.1845486958821L116.199765,74.55432430903109L116.342325,226.3285837173462L116.77000500000001,58.2169117132822L116.865045,-15.666182676951177L117.435285,101.33731381098423L117.482805,93.7414151032765L117.530325,170.3834575017293L118.195605,207.64426008860266L118.385685,87.33837223052971L118.57576499999999,4.067399263381873L118.765845,122.81270440419509L118.813365,103.84317851066582L118.955925,27.380720933278308L119.050965,72.47561828295383L119.14600499999999,134.64068587621048L119.526165,82.94581190745028L119.621205,16.027138789494746L119.763765,124.3340175946553L119.90632500000001,112.1571820576985L120.048885,87.89107616742446L120.143925,134.19172382354733L120.286485,35.91428216298413L120.42904499999999,97.59346262613927L121.18936500000001,177.10546271006262L121.522005,131.5963011582692L121.75960500000001,106.95942060152683L121.807125,34.39929898579907L121.85464499999999,36.221287806828734L121.949685,91.34679452578222L121.997205,0.3073713779448415L122.09224499999999,179.4843754768371L122.187285,147.15465323130286L122.377365,137.47043625513706L122.56744499999999,109.84168664614356L122.80504499999999,79.11545054117832L122.900085,164.54589581489557L123.232725,-15.842368046442754L123.327765,1.166025956471667L123.37528499999999,-24.838020245234272L123.612885,138.37386981646216L123.802965,167.59942388534543L124.040565,176.0766011079152L124.13560500000001,97.34694377581272L124.183125,-3.872312943140753L124.65832499999999,109.27350934346512L124.70584500000001,140.32011445363358L124.895925,219.6789047718048L125.03848500000001,139.7942544619242L125.181045,155.28543806076047L125.228565,114.51792534192398L125.37112499999999,162.89470012982682L125.41864500000001,-118.03855681419387L125.513685,30.016702572504588L125.751285,188.3787474632263L125.798805,28.298807303110664L126.131445,7.79132262865692L126.178965,-28.964133898417256L126.369045,-3.742664893468317L126.464085,100.95059688886002L126.55912500000001,48.373389403025236L126.749205,206.51716605822244L127.22440499999999,87.57258272171013L127.319445,50.953690369923834L127.414485,171.51946043968195L127.462005,139.18481485048923L127.652085,117.960163116455L127.794645,212.68529510498047L128.17480500000002,119.9855329195658L128.36488500000002,193.47534592946369L129.03016499999998,121.82440177599585L129.220245,175.93886470794675L129.31528500000002,141.5773254235585L129.552885,-150.7737515767417L129.600405,32.68257594108574L129.695445,109.8249238332112L129.790485,71.13740658760062L129.838005,54.276244004567396L129.933045,29.74544978141777L130.028085,116.36898533503211L130.075605,-11.362828652064092L130.408245,104.82011055946343L130.550805,128.27996031443274L130.788405,30.218442440032867L131.358645,44.8291680812835L131.548725,22.411426067352203L131.691285,51.43113748232517L132.166485,45.05482133229565L132.451605,35.621929327646804L132.499125,83.20487356185906L132.594165,134.5161956151326L132.736725,58.55392630894971L132.879285,33.473241488138754L132.926805,69.85557889938346L132.974325,151.43491442998246L133.449525,1.7209571202595089L133.497045,155.3485037485758L133.544565,120.99247392018631L133.639605,76.97215493520093L134.209845,125.52757676442458L134.257365,148.61594851811722L134.304885,116.46088774998977L134.352405,81.43856541315708L134.732565,101.51162362098687L135.160245,56.27066707611077L135.968085,-28.469337860743305L136.633365,34.30845157305391L136.823445,97.92778110504143L136.870965,-125.13086779912328L137.34616499999998,-22.862821658452475L137.441205,100.45732474327082L137.631285,71.89056094487502L138.106485,82.01084550221753L138.486645,89.36925148963923L138.534165,-44.486029783884796L139.056885,95.82387224833164L139.437045,-106.58170167605095L139.72216500000002,7.362874507903961L139.769685,128.3112587134043L139.864725,-4.573068857193098L139.95976499999998,203.47160911560056L140.197365,136.38495620091751L141.10024499999997,187.74375335375464L141.38536499999998,134.85965744654334L141.432885,139.00394058227533L141.908085,158.74045308430985L142.003125,54.64150921503696L142.145685,25.305414358774737L142.19320499999998,-13.931993484497175L142.24072500000003,103.20888773600254L142.715925,48.559187014897574L142.763445,-79.3476401170096L142.906005,143.49520222345984L143.191125,136.89979728062943L143.42872500000001,160.45401112238562L143.523765,33.42928306261691L143.61880499999998,82.40799522399897L143.71384500000002,157.79728110631302L144.141525,-6.985624472300299L144.331605,76.05078633626296L144.52168500000002,116.34108638763422L144.616725,26.441182851791304L144.75928499999998,15.985759258270178L145.18696500000001,75.24101352691643L145.234485,56.171965758005705L145.424565,24.629744052886885L145.709685,165.32296355565384L145.804725,135.8692945639292L146.374965,112.84668461481725L146.422485,123.26260423660271L146.470005,42.32025559743237L146.517525,36.18905162811271L146.660085,24.1091590722401L146.850165,-76.78128862380993L147.135285,71.510291258494L147.182805,133.71978616714472L147.32536499999998,105.43998297055556L147.705525,112.16726318995153L147.943125,60.31308388710014L148.08568499999998,-39.41381359100351L148.22824500000002,36.845966339111236L148.275765,160.774614572525L148.560885,16.581601063410357L148.655925,130.67118144035337L148.941045,3.9694012800851497L149.083605,21.51889419555655L149.226165,36.97057382265719L149.273685,-44.44804970423392L149.463765,-152.54568640391048L150.366645,149.0643244584401L150.556725,110.52614863713576L150.65176499999998,46.81280668576551L150.889365,216.73052525520322L151.126965,146.9682695070902L151.744725,146.8536259333292L151.934805,166.46260039011634L152.077365,-71.11745063463859L152.790165,43.2123185793558L153.31288500000002,-31.590854962666953L153.36040500000001,68.18422094980868L153.502965,139.0360595385233L153.788085,33.76442209879549L154.120725,142.78436517715448L154.168245,177.9845139980316L154.215765,79.04347594579055L154.263285,198.47558752695716L154.310805,153.70844419797257L154.358325,156.7774456342061L154.73848500000003,108.67766753832493L155.831445,41.35106023152662L155.87896500000002,45.151178201039556L155.926485,103.80859788258866L156.259125,57.14678780237826L156.781845,107.62676811218256L156.876885,-4.011221567789814L157.447125,85.04034296671543L157.494645,138.78895457585648L157.637205,221.68376064300534L157.732245,134.3591175079345L157.779765,72.3001362482706L157.874805,-19.243343512217304L158.77768500000002,88.24883913993828L159.015285,64.87901624043776L159.157845,-70.5000398953757L159.300405,30.349614381790076L159.728085,61.858076016108114L159.77560499999998,94.08933138847345L160.060725,26.56297699610384L160.155765,71.67252715428663L160.203285,54.72180660565686L160.488405,35.123382170995L160.630965,6.8574112256366995L160.678485,-35.30774497985849L160.91608499999998,52.751414140065435L161.01112500000002,10.34126297632845L161.106165,133.4735017617543L161.24872499999998,163.27684537569678L161.676405,86.90863466262812L161.914005,211.47813812891638L162.009045,21.736810763676875L162.05656499999998,5.0043584505715994L162.104085,200.30519580841062L162.626805,116.18729050954177L163.102005,145.85442161560053L163.48216499999998,153.7706893285115L164.290005,87.16816520690912L164.62264499999998,289.2246506214142L164.67016500000003,30.188902378082183L164.812725,266.6765572230021L165.287925,130.5797479152679L165.573045,123.3834606011708L165.763125,31.607997576395586L166.000725,194.44454129536942L166.09576499999997,1.44630487759898L166.190805,125.00664011637365L166.285845,154.88172388076777L166.380885,-18.43169514338187L166.570965,80.66595212618502L166.618485,26.382923285166328L166.761045,80.79313850402825L167.046165,16.60094277063996L167.14120499999999,194.68719180425003L167.28376500000002,66.24852633476249L167.663925,184.80135218302405L167.758965,131.63205401102695L167.806485,23.337835232416705L167.854005,106.71641842524204L168.234165,105.14423068364457L168.946965,115.61946487426752L169.042005,23.89393862088512L169.137045,79.99297793706252L169.232085,-50.36332988739024L169.327125,31.314472516377688L169.75480499999998,19.554128408431907L169.944885,151.39986491203305L170.562645,16.9629257520039L170.752725,169.99041056632993L171.655605,168.29279478391007L172.36840500000002,102.77844683329258L172.41592500000002,132.79302533467606L172.701045,94.84096185366307L172.748565,67.47068778673801L172.843605,79.46840739250176L172.986165,108.98490762710566L173.22376500000001,44.59812259674065L173.366325,157.53399944305414L173.41384499999998,134.8318757216135L173.50888500000002,147.55602296193436L174.269205,93.92721271514885L174.60184500000003,70.55785870552056L174.791925,129.43249162038163L175.124565,110.76786136627192L175.17208499999998,55.04827117919913L175.504725,75.00316913922622L175.64728499999998,-3.8054961363475535L176.787765,185.53680594762164L176.930325,117.34216626485184L177.262965,28.41391976674389L177.40552499999998,135.07206455866492L177.45304499999997,146.34910043080643L177.54808500000001,88.67939726511631L177.595605,70.66546893119805L177.928245,112.34755134582512L178.02328500000002,57.92244887351982L178.54600499999998,179.94693533579508L178.783605,82.9864881038665L179.211285,101.83984653155004L179.306325,153.1606636047363L179.401365,124.64184379577632L179.591445,153.20321536064142L179.73400500000002,-60.89213474591587L180.351765,-2.1559415658315983L180.399285,43.330009937286306L180.446805,130.43638483683264L180.731925,118.05605109532668L181.11208499999998,41.68713704744966L181.39720499999999,-49.14011343320222L181.444725,120.40237601598098L181.492245,150.84809875488278L181.682325,91.46905755996697L181.919925,181.43589512507117L182.25256499999998,152.9084008534749L182.632725,-82.565279642741L182.822805,77.17237091064446L183.012885,130.87479686737058L183.107925,133.36249208450315L183.393045,81.45474211374912L183.535605,59.468144337336156L183.630645,85.19413884480788L183.725685,132.34500106175736L183.820725,95.09920295079542L183.96328499999998,48.0639220873514L184.200885,31.657582680384234L184.77112499999998,-38.13761258125317L185.008725,18.293283541997187L185.246325,-85.10302885373444L186.101685,12.646560033162341L186.291765,-32.720176219940306L186.434325,40.05340751012159L186.671925,13.31789310773205L186.957045,60.801198244094785L187.00456499999999,103.1927110354105L187.194645,94.12086423238112L187.289685,31.815012454986487L187.574805,87.68488184610997L187.622325,96.85191329320267L187.907445,93.57976531982416L188.24008500000002,118.79877265294387L188.52520500000003,85.32390411694838L188.667765,51.57520389556876L188.952885,221.99240740140277L189.475605,116.54329514503472L189.57064499999998,14.066006898879907L189.90328499999998,116.79766790072118L190.045845,97.20475292205805L190.188405,18.999314467112132L190.283445,109.35790952046708L190.52104500000002,78.45466748873385L191.281365,84.99228175481153L191.376405,164.15448999404902L191.423925,17.068191528320227L191.614005,108.56384452184035L191.661525,48.67793337504061L191.851605,-37.37894876798005L192.23176500000002,-79.21834373474132L192.27928500000002,33.70100474357596L192.611925,184.48567207654312L193.562325,-100.19635939598098L193.990005,48.609241008758474L194.03752500000002,66.80838084220879L194.322645,196.9325881799062L195.03544499999998,221.1414895057678L195.225525,68.91146914164219L195.320565,-56.622775236765655L195.415605,32.91725532213839L195.558165,36.301350752512526L195.700725,-54.50925413767509L196.128405,125.81313069661452L196.413525,27.784200668334883L196.508565,-49.35334110260022L197.031285,132.38860781987503L197.07880500000002,115.30812199910477L197.36392500000002,194.147968451182L197.696565,104.00306995709731L198.83704500000002,84.89651099840792L198.979605,13.122952143351148L199.122165,184.70265086491898L200.215125,-26.83302942911794L200.357685,113.38614241282139L200.547765,12.335568825403753L200.595285,181.82460482915238L200.64280499999998,139.88697743415827L200.927925,207.36292616526282L201.07048500000002,17.6308593749999L201.165525,61.54286479949945L201.593205,-0.12939953804026594L201.783285,-11.5909435749055L201.925845,88.99753904342643L202.16344500000002,-70.99987649917614L202.543605,-57.35260232289646L202.733685,32.137139797210615L202.828725,171.5177021026611L202.923765,192.03608846664426L203.54152499999998,154.30369989077246L203.63656500000002,30.11282499631238L203.779125,136.20572304725644L204.349365,-150.2732116381329L204.539445,152.18701378504431L204.77704500000002,172.06700658798212L204.872085,96.80689986546828L205.347285,92.20568354924514L205.442325,55.30088559786472L205.537365,231.8630081017812L206.155125,132.59140268961585L206.440245,118.4363207817077L206.915445,33.726793686548795L207.153045,103.07877079645786L207.485685,86.18267591794326L207.628245,90.10200913747146L207.723285,27.191992759704505L208.67368499999998,113.43373473485305L208.721205,-23.632738828659164L208.76872500000002,100.02125716209406L209.006325,39.67911616961154L209.101365,-39.69585084915173L209.57656500000002,-51.788051764170426L209.956725,106.04063089688613L210.004245,67.07869585355117L210.241845,40.010386864344206L210.289365,102.07393980026238L210.479445,139.01624894142148L211.00216500000002,90.41628257433568L211.287285,-6.2233267625173765L211.572405,27.52408401171358L211.714965,122.61131620407099L212.237685,68.25267887115471L212.42776500000002,30.763644138971873L212.617845,141.66735227902726L212.712885,-15.406417687734077L212.95048500000001,55.748909870783415L213.14056499999998,-20.735585530599053L213.378165,94.03154071172071L213.615765,123.88130442301427L213.805845,73.56684223810824L213.853365,-64.38489540418L213.948405,191.6896960735321L214.37608500000002,78.93926517168674L214.423605,18.410154342651282L214.946325,8.265487511952632L215.041365,36.09433587392162L215.088885,-18.141217867533452L215.421525,30.11317666371654L215.516565,94.76441558202102L215.564085,25.420761267344062L215.611605,3.424199581146142L215.659125,6.701388120651154L215.849205,3.098321119944165L215.944245,-116.38185167312633L216.989685,40.27894353866568L217.13224499999998,139.1416769822438L217.797525,-21.07975069681815L218.035125,31.37976543108613L218.082645,22.691001653671172L218.177685,149.21026643117264L218.557845,-10.936724980672297L218.795445,167.06008330980933L219.128085,118.11044232050571L220.458645,160.80708519617713L220.791285,145.28073485692337L221.314005,38.69890189170829L221.551605,147.72435442606604L221.979285,223.71147489547727L222.02680500000002,108.43443091710402L222.502005,105.99057690302524L222.549525,80.68810717264803L222.59704499999998,110.84218041102086L222.692085,131.01968383789057L222.787125,81.62588691711419L222.882165,-121.98121730486567L222.977205,237.87253514925638L223.072245,94.4956244627634L223.927605,88.89778272310886L224.165205,86.04001617431634L224.402805,134.0458990732828L224.545365,87.77807370821628L224.687925,75.9806873003641L224.92552500000002,95.92491801579787L225.44824500000001,153.20872481664017L225.875925,25.24387256304414L226.01848500000003,152.76070054372147L226.06600500000002,78.42325186729423L226.493685,67.85834248860671L226.778805,129.6688121159871L227.49160500000002,212.1045749982198L227.539125,77.81264003117873L227.824245,-1.4815607070923638L228.014325,138.50457286834714L228.156885,41.56909402211499L228.442005,31.403913259506147L228.53704499999998,45.54914848009738L228.96472500000002,125.06361023584996L229.154805,170.60078795750934L229.43992500000002,40.390070438384925L229.67752499999997,117.84036175409946L229.96264499999998,95.60091511408481L230.152725,82.74618204434705L230.390325,116.81314126650489L230.722965,100.1402379671732L230.913045,96.04565715789788L231.340725,22.831551392873035L231.483285,108.12097803751621L232.053525,125.28363680839533L232.386165,160.32834863662717L232.52872499999998,182.8556936581929L232.623765,172.7072757085164L232.671285,0.047137498855492566L232.861365,173.37040321032202L232.908885,88.026937007904L232.956405,-11.810970147450874L233.526645,44.89129598935437L233.811765,137.52705470720923L233.859285,259.0914429823558L233.95432499999998,207.18873357772827L234.191925,83.88195053736362L234.239445,79.72477293014519L234.382005,6.118323564529334L234.667125,58.88144588470451L234.85720500000002,195.53541358311966L235.189845,94.78188172976171L235.66504500000002,22.8322547276814L235.95016500000003,111.37554264068598L236.140245,56.2882504463195L236.282805,98.977039416631L236.66296499999999,93.21918900807691L236.758005,-8.808785518010554L237.37576499999997,68.39826917648308L237.565845,108.5623206297556L237.613365,49.08070977528882L238.51624500000003,40.25034125645947L238.56376500000002,66.99863290786735L238.706325,129.6471259593963L239.038965,141.09225885073337L239.134005,156.51686008771256L239.514165,145.0655144055684L239.609205,22.058703660964866L239.65672500000002,121.77938834826146L240.274485,138.26684570312494L240.369525,170.3030428886413L240.417045,134.52346340815222L240.79720500000002,-14.414950052897222L240.844725,153.56801168123877L240.98728499999999,117.71188592910761L241.08232500000003,51.56019941965731L241.510005,75.0904998779296L241.652565,158.670354048411L241.747605,103.65960812568657L241.842645,74.83858879407241L242.412885,44.307410875956144L243.220725,113.87964900334671L243.458325,177.53871695200598L243.933525,104.0157299836476L244.218645,74.76133918762199L244.551285,156.96148490905756L244.836405,-13.16524132092802L244.931445,-30.91272298494985L245.12152500000002,99.47980658213292L245.454165,78.98920194307956L245.501685,41.67975203196199L245.549205,45.043450752894L246.024405,-61.61715571085623L247.02232500000002,-37.996359507242964L247.25992499999998,108.22202380498244L247.497525,26.129488309224353L247.545045,97.0843654473622L247.640085,165.53794956207273L247.782645,88.1724100907643L248.257845,153.03078111012772L248.44792500000003,75.09026543299349L248.49544500000002,100.32322223981215L248.780565,52.99699521064751L248.970645,91.09160121281936L249.018165,126.59371511141454L249.398325,-19.109944343567L249.49336499999998,50.765196641286124L249.540885,57.62798603375746L249.58840500000002,209.4627322355906L249.683445,122.48225426673885L249.82600499999998,34.95680904388419L249.873525,186.44422507286072L249.968565,218.79258569081622L250.158645,128.5999776522318L250.253685,169.57602914174393L250.396245,152.5923690795898L250.443765,132.49668693542475L250.491285,69.44236969947808L250.538805,67.52613401412955L250.633845,127.89816673596694L250.776405,-33.541788498560685L250.823925,8.667208909988318L251.109045,50.08718188603711L251.39416500000002,83.09726333618157L251.489205,-81.70111560821543L251.631765,206.89544296264648L252.202005,97.05646649996434L252.582165,115.82132196426386L252.629685,228.74008433024085L252.677205,27.161514918009345L252.962325,78.72298971811924L253.29496500000002,24.17257642745963L253.53256499999998,27.407213211059485L253.865205,57.11642718315117L254.055285,29.38956236839286L254.29288499999998,36.200304985046294L254.482965,48.712514003117796L254.768085,121.72312156359351L254.863125,20.170835812886462L255.005685,135.50813213984165L255.243285,122.97376807530716" style="fill: none;" fill="none"></path></g></g></g></g></g></g><g transform="translate(51, 177)" clip-path="url(#clip_1)"><clipPath id="clip_1"><rect width="278" height="23"></rect></clipPath><g><g><line x1="0" y1="0" x2="0" y2="5" style="visibility: inherit;" fill="rgb(0, 0, 0)" stroke="rgb(204, 204, 204)" stroke-width="1px"></line><line x1="23.203125" y1="0" x2="23.203125" y2="5" style="visibility: inherit;" fill="rgb(0, 0, 0)" stroke="rgb(204, 204, 204)" stroke-width="1px"></line><line x1="46.40625" y1="0" x2="46.40625" y2="5" style="visibility: inherit;" fill="rgb(0, 0, 0)" stroke="rgb(204, 204, 204)" stroke-width="1px"></line><line x1="69.609375" y1="0" x2="69.609375" y2="5" style="visibility: inherit;" fill="rgb(0, 0, 0)" stroke="rgb(204, 204, 204)" stroke-width="1px"></line><line x1="92.8125" y1="0" x2="92.8125" y2="5" style="visibility: inherit;" fill="rgb(0, 0, 0)" stroke="rgb(204, 204, 204)" stroke-width="1px"></line><line x1="116.015625" y1="0" x2="116.015625" y2="5" style="visibility: inherit;" fill="rgb(0, 0, 0)" stroke="rgb(204, 204, 204)" stroke-width="1px"></line><line x1="139.21875" y1="0" x2="139.21875" y2="5" style="visibility: inherit;" fill="rgb(0, 0, 0)" stroke="rgb(204, 204, 204)" stroke-width="1px"></line><line x1="162.421875" y1="0" x2="162.421875" y2="5" style="visibility: inherit;" fill="rgb(0, 0, 0)" stroke="rgb(204, 204, 204)" stroke-width="1px"></line><line x1="185.625" y1="0" x2="185.625" y2="5" style="visibility: inherit;" fill="rgb(0, 0, 0)" stroke="rgb(204, 204, 204)" stroke-width="1px"></line><line x1="208.828125" y1="0" x2="208.828125" y2="5" style="visibility: inherit;" fill="rgb(0, 0, 0)" stroke="rgb(204, 204, 204)" stroke-width="1px"></line><line x1="232.03125" y1="0" x2="232.03125" y2="5" style="visibility: inherit;" fill="rgb(0, 0, 0)" stroke="rgb(204, 204, 204)" stroke-width="1px"></line><line x1="255.234375" y1="0" x2="255.234375" y2="5" style="visibility: inherit;" fill="rgb(0, 0, 0)" stroke="rgb(204, 204, 204)" stroke-width="1px"></line><line x1="278.4375" y1="0" x2="278.4375" y2="5" style="visibility: inherit;" fill="rgb(0, 0, 0)" stroke="rgb(204, 204, 204)" stroke-width="1px"></line></g><g transform="translate(0, 8)"><text x="0" y="0" dx="0em" dy="0.95em" style="text-anchor: middle; visibility: hidden; font-family: Roboto, sans-serif; font-size: 12px; font-weight: 200;" fill="rgb(33, 33, 33)" stroke="none" stroke-width="1px">-1M</text><text x="23.203125" y="0" dx="0em" dy="0.95em" style="text-anchor: middle; visibility: inherit; font-family: Roboto, sans-serif; font-size: 12px; font-weight: 200;" fill="rgb(33, 33, 33)" stroke="none" stroke-width="1px">0</text><text x="46.40625" y="0" dx="0em" dy="0.95em" style="text-anchor: middle; visibility: hidden; font-family: Roboto, sans-serif; font-size: 12px; font-weight: 200;" fill="rgb(33, 33, 33)" stroke="none" stroke-width="1px">1M</text><text x="69.609375" y="0" dx="0em" dy="0.95em" style="text-anchor: middle; visibility: inherit; font-family: Roboto, sans-serif; font-size: 12px; font-weight: 200;" fill="rgb(33, 33, 33)" stroke="none" stroke-width="1px">2M</text><text x="92.8125" y="0" dx="0em" dy="0.95em" style="text-anchor: middle; visibility: hidden; font-family: Roboto, sans-serif; font-size: 12px; font-weight: 200;" fill="rgb(33, 33, 33)" stroke="none" stroke-width="1px">3M</text><text x="116.015625" y="0" dx="0em" dy="0.95em" style="text-anchor: middle; visibility: inherit; font-family: Roboto, sans-serif; font-size: 12px; font-weight: 200;" fill="rgb(33, 33, 33)" stroke="none" stroke-width="1px">4M</text><text x="139.21875" y="0" dx="0em" dy="0.95em" style="text-anchor: middle; visibility: hidden; font-family: Roboto, sans-serif; font-size: 12px; font-weight: 200;" fill="rgb(33, 33, 33)" stroke="none" stroke-width="1px">5M</text><text x="162.421875" y="0" dx="0em" dy="0.95em" style="text-anchor: middle; visibility: inherit; font-family: Roboto, sans-serif; font-size: 12px; font-weight: 200;" fill="rgb(33, 33, 33)" stroke="none" stroke-width="1px">6M</text><text x="185.625" y="0" dx="0em" dy="0.95em" style="text-anchor: middle; visibility: hidden; font-family: Roboto, sans-serif; font-size: 12px; font-weight: 200;" fill="rgb(33, 33, 33)" stroke="none" stroke-width="1px">7M</text><text x="208.828125" y="0" dx="0em" dy="0.95em" style="text-anchor: middle; visibility: inherit; font-family: Roboto, sans-serif; font-size: 12px; font-weight: 200;" fill="rgb(33, 33, 33)" stroke="none" stroke-width="1px">8M</text><text x="232.03125" y="0" dx="0em" dy="0.95em" style="text-anchor: middle; visibility: hidden; font-family: Roboto, sans-serif; font-size: 12px; font-weight: 200;" fill="rgb(33, 33, 33)" stroke="none" stroke-width="1px">9M</text><text x="255.234375" y="0" dx="0em" dy="0.95em" style="text-anchor: middle; visibility: inherit; font-family: Roboto, sans-serif; font-size: 12px; font-weight: 200;" fill="rgb(33, 33, 33)" stroke="none" stroke-width="1px">10M</text><text x="278.4375" y="0" dx="0em" dy="0.95em" style="text-anchor: middle; visibility: hidden; font-family: Roboto, sans-serif; font-size: 12px; font-weight: 200;" fill="rgb(33, 33, 33)" stroke="none" stroke-width="1px">11M</text></g><line x1="0" y1="0" x2="278.4375" y2="0" fill="rgb(0, 0, 0)" stroke="rgb(204, 204, 204)" stroke-width="1px"></line></g></g></g></g></svg>