<svg viewBox="0 0 330 200" xmlns="http://www.w3.org/2000/svg"><g><g><g><g><g><line x1="51.5625" y1="177" x2="46.5625" y2="177" style="visibility: inherit;" fill="rgb(0, 0, 0)" stroke="rgb(204, 204, 204)" stroke-width="1px"></line><line x1="51.5625" y1="154.8750003296882" x2="46.5625" y2="154.8750003296882" style="visibility: inherit;" fill="rgb(0, 0, 0)" stroke="rgb(204, 204, 204)" stroke-width="1px"></line><line x1="51.5625" y1="132.75000065937638" x2="46.5625" y2="132.75000065937638" style="visibility: inherit;" fill="rgb(0, 0, 0)" stroke="rgb(204, 204, 204)" stroke-width="1px"></line><line x1="51.5625" y1="110.62500098906457" x2="46.5625" y2="110.62500098906457" style="visibility: inherit;" fill="rgb(0, 0, 0)" stroke="rgb(204, 204, 204)" stroke-width="1px"></line><line x1="51.5625" y1="88.50000131875275" x2="46.5625" y2="88.50000131875275" style="visibility: inherit;" fill="rgb(0, 0, 0)" stroke="rgb(204, 204, 204)" stroke-width="1px"></line><line x1="51.5625" y1="66.37500164844094" x2="46.5625" y2="66.37500164844094" style="visibility: inherit;" fill="rgb(0, 0, 0)" stroke="rgb(204, 204, 204)" stroke-width="1px"></line><line x1="51.5625" y1="44.25000197812913" x2="46.5625" y2="44.25000197812913" style="visibility: inherit;" fill="rgb(0, 0, 0)" stroke="rgb(204, 204, 204)" stroke-width="1px"></line><line x1="51.5625" y1="22.12500230781732" x2="46.5625" y2="22.12500230781732" style="visibility: inherit;" fill="rgb(0, 0, 0)" stroke="rgb(204, 204, 204)" stroke-width="1px"></line><line x1="51.5625" y1="0.00000263750549200914" x2="46.5625" y2="0.00000263750549200914" style="visibility: inherit;" fill="rgb(0, 0, 0)" stroke="rgb(204, 204, 204)" stroke-width="1px"></line></g><g transform="translate(41.5625, 0)"><text x="0" y="177" dx="0em" dy="0.3em" style="text-anchor: end; visibility: hidden; font-family: Roboto, sans-serif; font-size: 12px; font-weight: 200;" fill="rgb(33, 33, 33)" stroke="none" stroke-width="1px">0</text><text x="0" y="154.8750003296882" dx="0em" dy="0.3em" style="text-anchor: end; visibility: inherit; font-family: Roboto, sans-serif; font-size: 12px; font-weight: 200;" fill="rgb(33, 33, 33)" stroke="none" stroke-width="1px">0.05</text><text x="0" y="132.75000065937638" dx="0em" dy="0.3em" style="text-anchor: end; visibility: hidden; font-family: Roboto, sans-serif; font-size: 12px; font-weight: 200;" fill="rgb(33, 33, 33)" stroke="none" stroke-width="1px">0.1</text><text x="0" y="110.62500098906457" dx="0em" dy="0.3em" style="text-anchor: end; visibility: inherit; font-family: Roboto, sans-serif; font-size: 12px; font-weight: 200;" fill="rgb(33, 33, 33)" stroke="none" stroke-width="1px">0.15</text><text x="0" y="88.50000131875275" dx="0em" dy="0.3em" style="text-anchor: end; visibility: hidden; font-family: Roboto, sans-serif; font-size: 12px; font-weight: 200;" fill="rgb(33, 33, 33)" stroke="none" stroke-width="1px">0.2</text><text x="0" y="66.37500164844094" dx="0em" dy="0.3em" style="text-anchor: end; visibility: inherit; font-family: Roboto, sans-serif; font-size: 12px; font-weight: 200;" fill="rgb(33, 33, 33)" stroke="none" stroke-width="1px">0.25</text><text x="0" y="44.25000197812913" dx="0em" dy="0.3em" style="text-anchor: end; visibility: hidden; font-family: Roboto, sans-serif; font-size: 12px; font-weight: 200;" fill="rgb(33, 33, 33)" stroke="none" stroke-width="1px">0.3</text><text x="0" y="22.12500230781732" dx="0em" dy="0.3em" style="text-anchor: end; visibility: inherit; font-family: Roboto, sans-serif; font-size: 12px; font-weight: 200;" fill="rgb(33, 33, 33)" stroke="none" stroke-width="1px">0.35</text><text x="0" y="0.00000263750549200914" dx="0em" dy="0.3em" style="text-anchor: end; visibility: hidden; font-family: Roboto, sans-serif; font-size: 12px; font-weight: 200;" fill="rgb(33, 33, 33)" stroke="none" stroke-width="1px">0.4</text></g><line x1="51.5625" y1="0" x2="51.5625" y2="177" fill="rgb(0, 0, 0)" stroke="rgb(204, 204, 204)" stroke-width="1px"></line></g></g><g transform="translate(51, 0)" clip-path="url(#clip_0)"><clipPath id="clip_0"><rect width="278" height="177"></rect></clipPath><g><g><g><line x1="0" y1="0" x2="0" y2="177" fill="rgb(0, 0, 0)" stroke="rgb(66, 66, 66)" stroke-width="1px" opacity="0.25"></line><line x1="23.203125" y1="0" x2="23.203125" y2="177" fill="rgb(0, 0, 0)" stroke="rgb(66, 66, 66)" stroke-width="1px" opacity="0.25"></line><line x1="46.40625" y1="0" x2="46.40625" y2="177" fill="rgb(0, 0, 0)" stroke="rgb(66, 66, 66)" stroke-width="1px" opacity="0.25"></line><line x1="69.609375" y1="0" x2="69.609375" y2="177" fill="rgb(0, 0, 0)" stroke="rgb(66, 66, 66)" stroke-width="1px" opacity="0.25"></line><line x1="92.8125" y1="0" x2="92.8125" y2="177" fill="rgb(0, 0, 0)" stroke="rgb(66, 66, 66)" stroke-width="1px" opacity="0.25"></line><line x1="116.015625" y1="0" x2="116.015625" y2="177" fill="rgb(0, 0, 0)" stroke="rgb(66, 66, 66)" stroke-width="1px" opacity="0.25"></line><line x1="139.21875" y1="0" x2="139.21875" y2="177" fill="rgb(0, 0, 0)" stroke="rgb(66, 66, 66)" stroke-width="1px" opacity="0.25"></line><line x1="162.421875" y1="0" x2="162.421875" y2="177" fill="rgb(0, 0, 0)" stroke="rgb(66, 66, 66)" stroke-width="1px" opacity="0.25"></line><line x1="185.625" y1="0" x2="185.625" y2="177" fill="rgb(0, 0, 0)" stroke="rgb(66, 66, 66)" stroke-width="1px" opacity="0.25"></line><line x1="208.828125" y1="0" x2="208.828125" y2="177" fill="rgb(0, 0, 0)" stroke="rgb(66, 66, 66)" stroke-width="1px" opacity="0.25"></line><line x1="232.03125" y1="0" x2="232.03125" y2="177" fill="rgb(0, 0, 0)" stroke="rgb(66, 66, 66)" stroke-width="1px" opacity="0.25"></line><line x1="255.234375" y1="0" x2="255.234375" y2="177" fill="rgb(0, 0, 0)" stroke="rgb(66, 66, 66)" stroke-width="1px" opacity="0.25"></line><line x1="278.4375" y1="0" x2="278.4375" y2="177" fill="rgb(0, 0, 0)" stroke="rgb(66, 66, 66)" stroke-width="1px" opacity="0.25"></line></g><g><line x1="0" y1="177" x2="278.4375" y2="177" fill="rgb(0, 0, 0)" stroke="rgb(66, 66, 66)" stroke-width="1px" opacity="0.25"></line><line x1="0" y1="154.8750003296882" x2="278.4375" y2="154.8750003296882" fill="rgb(0, 0, 0)" stroke="rgb(66, 66, 66)" stroke-width="1px" opacity="0.25"></line><line x1="0" y1="132.75000065937638" x2="278.4375" y2="132.75000065937638" fill="rgb(0, 0, 0)" stroke="rgb(66, 66, 66)" stroke-width="1px" opacity="0.25"></line><line x1="0" y1="110.62500098906457" x2="278.4375" y2="110.62500098906457" fill="rgb(0, 0, 0)" stroke="rgb(66, 66, 66)" stroke-width="1px" opacity="0.25"></line><line x1="0" y1="88.50000131875275" x2="278.4375" y2="88.50000131875275" fill="rgb(0, 0, 0)" stroke="rgb(66, 66, 66)" stroke-width="1px" opacity="0.25"></line><line x1="0" y1="66.37500164844094" x2="278.4375" y2="66.37500164844094" fill="rgb(0, 0, 0)" stroke="rgb(66, 66, 66)" stroke-width="1px" opacity="0.25"></line><line x1="0" y1="44.25000197812913" x2="278.4375" y2="44.25000197812913" fill="rgb(0, 0, 0)" stroke="rgb(66, 66, 66)" stroke-width="1px" opacity="0.25"></line><line x1="0" y1="22.12500230781732" x2="278.4375" y2="22.12500230781732" fill="rgb(0, 0, 0)" stroke="rgb(66, 66, 66)" stroke-width="1px" opacity="0.25"></line><line x1="0" y1="0.00000263750549200914" x2="278.4375" y2="0.00000263750549200914" fill="rgb(0, 0, 0)" stroke="rgb(66, 66, 66)" stroke-width="1px" opacity="0.25"></line></g></g></g><g><g><line x1="0" y1="177" x2="278.4375" y2="177" fill="rgb(0, 0, 0)" stroke="rgb(153, 153, 153)" stroke-width="1.5px"></line></g></g><g><g><line x1="23.203125" y1="0" x2="23.203125" y2="177" fill="rgb(0, 0, 0)" stroke="rgb(153, 153, 153)" stroke-width="1.5px"></line></g></g><g><g><g><g><g><path stroke="rgb(255, 112, 67)" stroke-width="2px" d="M23.535765,88.5L24.153525,88.5L24.438644999999998,88.5L25.198965,88.5L25.294005000000002,88.5L25.436565,88.5L25.531605,88.5L25.816724999999998,88.5L25.959284999999998,88.5L26.672085,88.5L26.814645,88.5L27.052245,88.5L27.432405,88.5L27.765045,88.5L28.145205,88.5L28.287765,88.5L28.335285,88.5L28.667925,88.5L28.905524999999997,88.5L29.285685,88.5L29.903444999999998,88.5L30.426165,88.5L30.663765,88.5L30.806325,88.5L31.234005,88.5L31.281525,88.5L31.756725000000003,88.5L31.994325,88.5L32.089365,88.5L32.136885,88.5L32.326965,88.5L32.707125,88.5L33.087285,88.5L33.134805,88.5L33.372405,88.5L33.895125,88.5L34.180245,88.5L34.417845,88.5L34.560405,88.5L35.130644999999994,88.5L35.415765,88.5L35.653365,88.5L35.795925000000004,88.5L35.986005,88.5L36.176085,88.5L36.271125,88.5L37.174005,88.5L37.411604999999994,88.5L37.459125,88.5L37.696724999999994,88.5L37.934325,88.5L38.029365,88.5L38.409525,88.5L38.457045,88.5L38.789685,88.5L38.979765,88.5L39.407445,88.5L39.787605,88.5L40.547925,88.5L40.738005,88.5L41.023125,88.5L41.213205,88.5L41.308245,88.5L43.30408499999999,88.5L43.351605,88.5L43.446645,88.5L43.731764999999996,88.5L44.159445000000005,88.5L44.254485,88.5L44.302004999999994,88.5L44.444565000000004,88.5L44.729685,88.5L45.157365000000006,88.5L45.299925,88.5L45.347445,88.5L45.822645,88.5L46.630485,88.5L46.725525000000005,88.5L47.390805,88.5L47.628405,88.5L47.723445000000005,88.5L47.866005,88.5L48.246165,88.5L48.531285,88.5L48.626324999999994,88.5L48.768885,88.5L49.054005,88.5L49.291605000000004,88.5L49.766805000000005,88.5L50.051925000000004,88.5L50.337045,88.5L50.527125,88.5L50.812245,88.5L50.907285,88.5L50.954805,88.5L51.049845000000005,88.5L51.144885,88.5L51.192405,88.5L51.430005,88.5L51.477525,88.5L51.905205,88.5L52.190325,88.5L52.285365,88.5L52.522965,88.5L52.760565,88.5L52.855605,88.5L53.425845,88.5L53.758485,88.5L53.806005,88.5L53.901045,88.5L53.996085,88.5L54.043605,88.5L54.138645,88.5L54.708885,88.5L54.851445,88.5L55.041525,88.5L55.184085,88.5L55.326645,88.5L55.516724999999994,88.5L55.564245,88.5L55.754325,88.5L55.991925,88.5L56.039445,88.5L56.514645,88.5L56.704724999999996,88.5L56.847285,88.5L57.227445,88.5L57.417525,88.5L57.560085,88.5L57.607605,88.5L57.655125000000005,88.5L57.987764999999996,88.5L58.272884999999995,88.5L58.367925,88.5L58.415445,88.5L58.605525,88.5L58.795605,88.5L58.938165000000005,88.5L58.985685,88.5L59.033205,88.5L59.223285000000004,88.5L59.650965,88.5L59.841044999999994,88.5L59.888565,88.5L59.936085,88.5L60.031125,88.5L60.078645,88.5L60.363765,88.5L60.553844999999995,88.5L60.601365,88.5L60.696405,88.5L60.791445,88.5L60.934005,88.5L60.981525,88.5L61.029044999999996,88.5L61.076565,88.5L61.219125,88.5L61.40920499999999,88.5L61.646805,88.5L61.694325000000006,88.5L61.741845,88.5L62.026965,88.5L62.834805,88.5L63.024885,88.5L63.119925,88.5L63.357525,88.5L64.49800499999999,88.5L64.593045,88.5L64.830645,88.5L64.925685,88.5L65.115765,88.5L65.21080500000001,88.5L65.590965,88.5L65.876085,88.5L66.066165,88.5L66.398805,88.5L66.49384500000001,88.5L66.778965,88.5L66.874005,88.5L67.016565,88.5L67.064085,88.5L67.159125,88.5L67.53928499999999,88.5L67.586805,88.5L67.729365,88.5L68.062005,88.5L68.204565,88.5L68.632245,88.5L68.82232499999999,88.5L68.964885,88.5L69.012405,88.5L69.440085,88.5L69.487605,88.5L69.677685,88.5L69.725205,88.5L69.77272500000001,88.5L69.820245,88.5L70.010325,88.5L70.057845,88.5L70.200405,88.5L70.247925,88.5L70.628085,88.5L70.818165,88.5L70.913205,88.5L71.00824499999999,88.5L71.05576500000001,88.5L71.483445,88.5L71.626005,88.5L72.006165,88.5L72.101205,88.5L72.29128499999999,88.5L72.33880500000001,88.5L72.576405,88.5L72.909045,88.5L73.431765,88.5L73.526805,88.5L73.811925,88.5L73.954485,88.5L74.049525,88.5L74.239605,88.5L74.42968499999999,88.5L74.524725,88.5L74.762325,88.5L74.809845,88.5L74.85736499999999,88.5L75.237525,88.5L75.522645,88.5L75.71272499999999,88.5L75.760245,88.5L75.807765,88.5L76.235445,88.5L76.473045,88.5L77.13832500000001,88.5L77.23336499999999,88.5L78.18376500000001,88.5L78.231285,88.5L78.42136500000001,88.5L78.468885,88.5L78.51640499999999,88.5L79.371765,88.5L79.609365,88.5L79.942005,88.5L79.989525,88.5L80.274645,88.5L80.36968499999999,88.5L80.607285,88.5L80.702325,88.5L80.797365,88.5L80.98744500000001,88.5L81.842805,88.5L81.937845,88.5L82.032885,88.5L82.41304500000001,88.5L82.555605,88.5L82.93576499999999,88.5L83.07832499999999,88.5L83.220885,88.5L83.838645,88.5L84.171285,88.5L84.456405,88.5L84.646485,88.5L84.741525,88.5L84.78904499999999,88.5L85.074165,88.5L85.54936500000001,88.5L85.786965,88.5L85.834485,88.5L85.977045,88.5L86.262165,88.5L86.357205,88.5L86.499765,88.5L86.642325,88.5L86.78488499999999,88.5L86.83240500000001,88.5L87.687765,88.5L88.400565,88.5L89.113365,88.5L89.255925,88.5L89.303445,88.5L89.39848500000001,88.5L89.446005,88.5L90.443925,88.5L90.49144500000001,88.5L90.729045,88.5L90.871605,88.5L91.06168500000001,88.5L91.156725,88.5L91.346805,88.5L91.536885,88.5L91.72696499999999,88.5L92.91496500000001,88.5L92.962485,88.5L93.48520500000001,88.5L93.865365,88.5L93.912885,88.5L94.055445,88.5L94.15048499999999,88.5L94.19800500000001,88.5L94.625685,88.5L94.958325,88.5L95.671125,88.5L95.718645,88.5L95.861205,88.5L96.19384500000001,88.5L96.76408500000001,88.5L97.001685,88.5L97.049205,88.5L97.144245,88.5L97.47688500000001,88.5L97.809525,88.5L97.857045,88.5L98.284725,88.5L98.474805,88.5L98.56984499999999,88.5L98.75992500000001,88.5L99.187605,88.5L99.520245,88.5L99.56776500000001,88.5L99.805365,88.5L100.185525,88.5L100.61320500000001,88.5L100.660725,88.5L100.85080500000001,88.5L101.088405,88.5L101.230965,88.5L101.326005,88.5L101.468565,88.5L101.611125,88.5L101.801205,88.5L102.181365,88.5L102.561525,88.5L102.751605,88.5L102.894165,88.5L102.94168499999999,88.5L103.226805,88.5L103.274325,88.5L103.654485,88.5L103.844565,88.5L103.892085,88.5L103.939605,88.5L104.034645,88.5L104.177205,88.5L104.509845,88.5L104.557365,88.5L104.937525,88.5L104.985045,88.5L105.41272500000001,88.5L105.602805,88.5L105.697845,88.5L105.745365,88.5L105.840405,88.5L106.07800499999999,88.5L106.12552500000001,88.5L106.220565,88.5L106.268085,88.5L106.315605,88.5L106.553205,88.5L107.218485,88.5L107.646165,88.5L107.93128499999999,88.5L108.263925,88.5L108.31144499999999,88.5L108.739125,88.5L109.071765,88.5L109.499445,88.5L109.642005,88.5L109.97464500000001,88.5L110.06968499999999,88.5L110.259765,88.5L110.734965,88.5L110.782485,88.5L110.92504500000001,88.5L111.162645,88.5L111.35272499999999,88.5L111.970485,88.5L112.06552500000001,88.5L112.113045,88.5L112.398165,88.5L112.445685,88.5L112.493205,88.5L112.588245,88.5L113.253525,88.5L114.108885,88.5L114.394005,88.5L114.72664499999999,88.5L115.011765,88.5L115.201845,88.5L115.296885,88.5L115.391925,88.5L115.677045,88.5L115.819605,88.5L115.91464500000001,88.5L116.05720500000001,88.5L116.199765,88.5L116.342325,88.5L116.77000500000001,88.5L116.865045,88.5L117.435285,88.5L117.482805,88.5L117.530325,88.5L118.195605,88.5L118.385685,88.5L118.57576499999999,88.5L118.765845,88.5L118.813365,88.5L118.955925,88.5L119.050965,88.5L119.14600499999999,88.5L119.526165,88.5L119.621205,88.5L119.763765,88.5L119.90632500000001,88.5L120.048885,88.5L120.143925,88.5L120.286485,88.5L120.42904499999999,88.5L121.18936500000001,88.5L121.522005,88.5L121.75960500000001,88.5L121.807125,88.5L121.85464499999999,88.5L121.949685,88.5L121.997205,88.5L122.09224499999999,88.5L122.187285,88.5L122.377365,88.5L122.56744499999999,88.5L122.80504499999999,88.5L122.900085,88.5L123.232725,88.5L123.327765,88.5L123.37528499999999,88.5L123.612885,88.5L123.802965,88.5L124.040565,88.5L124.13560500000001,88.5L124.183125,88.5L124.65832499999999,88.5L124.70584500000001,88.5L124.895925,88.5L125.03848500000001,88.5L125.181045,88.5L125.228565,88.5L125.37112499999999,88.5L125.41864500000001,88.5L125.513685,88.5L125.751285,88.5L125.798805,88.5L126.131445,88.5L126.178965,88.5L126.369045,88.5L126.464085,88.5L126.55912500000001,88.5L126.749205,88.5L127.22440499999999,88.5L127.319445,88.5L127.414485,88.5L127.462005,88.5L127.652085,88.5L127.794645,88.5L128.17480500000002,88.5L128.36488500000002,88.5L129.03016499999998,88.5L129.220245,88.5L129.31528500000002,88.5L129.552885,88.5L129.600405,88.5L129.695445,88.5L129.790485,88.5L129.838005,88.5L129.933045,88.5L130.028085,88.5L130.075605,88.5L130.408245,88.5L130.550805,88.5L130.788405,88.5L131.358645,88.5L131.548725,88.5L131.691285,88.5L132.166485,88.5L132.451605,88.5L132.499125,88.5L132.594165,88.5L132.736725,88.5L132.879285,88.5L132.926805,88.5L132.974325,88.5L133.449525,88.5L133.497045,88.5L133.544565,88.5L133.639605,88.5L134.209845,88.5L134.257365,88.5L134.304885,88.5L134.352405,88.5L134.732565,88.5L135.160245,88.5L135.968085,88.5L136.633365,88.5L136.823445,88.5L136.870965,88.5L136.966005,88.5L137.34616499999998,88.5L137.441205,88.5L137.631285,88.5L138.106485,88.5L138.486645,88.5L138.534165,88.5L139.056885,88.5L139.437045,88.5L139.72216500000002,88.5L139.769685,88.5L139.864725,88.5L139.95976499999998,88.5L140.197365,88.5L141.10024499999997,88.5L141.38536499999998,88.5L141.432885,88.5L141.908085,88.5L142.003125,88.5L142.145685,88.5L142.19320499999998,88.5L142.24072500000003,88.5L142.715925,88.5L142.763445,88.5L142.906005,88.5L143.191125,88.5L143.42872500000001,88.5L143.523765,88.5L143.61880499999998,88.5L143.71384500000002,88.5L144.141525,88.5L144.331605,88.5L144.52168500000002,88.5L144.616725,88.5L144.75928499999998,88.5L145.18696500000001,88.5L145.234485,88.5L145.424565,88.5L145.709685,88.5L145.804725,88.5L146.374965,88.5L146.422485,88.5L146.470005,88.5L146.517525,88.5L146.660085,88.5L146.850165,88.5L147.135285,88.5L147.182805,88.5L147.32536499999998,88.5L147.705525,88.5L147.943125,88.5L148.08568499999998,88.5L148.22824500000002,88.5L148.275765,88.5L148.560885,88.5L148.655925,88.5L148.941045,88.5L149.083605,88.5L149.226165,88.5L149.273685,88.5L149.463765,88.5L150.366645,88.5L150.556725,88.5L150.65176499999998,88.5L150.889365,88.5L151.126965,88.5L151.744725,88.5L151.934805,88.5L152.077365,88.5L152.790165,88.5L153.31288500000002,88.5L153.36040500000001,88.5L153.502965,88.5L153.788085,88.5L154.120725,88.5L154.168245,88.5L154.215765,88.5L154.263285,88.5L154.310805,88.5L154.358325,88.5L154.73848500000003,88.5L155.831445,88.5L155.87896500000002,88.5L155.926485,88.5L156.259125,88.5L156.781845,88.5L156.876885,88.5L157.447125,88.5L157.494645,88.5L157.637205,88.5L157.732245,88.5L157.779765,88.5L157.874805,88.5L158.77768500000002,88.5L159.015285,88.5L159.157845,88.5L159.300405,88.5L159.728085,88.5L159.77560499999998,88.5L160.060725,88.5L160.155765,88.5L160.203285,88.5L160.488405,88.5L160.630965,88.5L160.678485,88.5L160.91608499999998,88.5L161.01112500000002,88.5L161.106165,88.5L161.24872499999998,88.5L161.676405,88.5L161.914005,88.5L162.009045,88.5L162.05656499999998,88.5L162.104085,88.5L162.626805,88.5L163.102005,88.5L163.48216499999998,88.5L164.290005,88.5L164.62264499999998,88.5L164.67016500000003,88.5L164.812725,88.5L165.287925,88.5L165.573045,88.5L165.763125,88.5L166.000725,88.5L166.09576499999997,88.5L166.190805,88.5L166.285845,88.5L166.380885,88.5L166.570965,88.5L166.618485,88.5L166.761045,88.5L167.046165,88.5L167.14120499999999,88.5L167.28376500000002,88.5L167.663925,88.5L167.758965,88.5L167.806485,88.5L167.854005,88.5L168.234165,88.5L168.946965,88.5L169.042005,88.5L169.137045,88.5L169.232085,88.5L169.327125,88.5L169.75480499999998,88.5L169.944885,88.5L170.562645,88.5L170.752725,88.5L171.655605,88.5L172.36840500000002,88.5L172.41592500000002,88.5L172.701045,88.5L172.748565,88.5L172.843605,88.5L172.986165,88.5L173.22376500000001,88.5L173.366325,88.5L173.41384499999998,88.5L173.50888500000002,88.5L174.269205,88.5L174.60184500000003,88.5L174.791925,88.5L175.124565,88.5L175.17208499999998,88.5L175.504725,88.5L175.64728499999998,88.5L176.787765,88.5L176.930325,88.5L177.262965,88.5L177.40552499999998,88.5L177.45304499999997,88.5L177.54808500000001,88.5L177.595605,88.5L177.928245,88.5L178.02328500000002,88.5L178.54600499999998,88.5L178.783605,88.5L179.211285,88.5L179.306325,88.5L179.401365,88.5L179.591445,88.5L179.73400500000002,88.5L180.351765,88.5L180.399285,88.5L180.446805,88.5L180.731925,88.5L181.11208499999998,88.5L181.39720499999999,88.5L181.444725,88.5L181.492245,88.5L181.682325,88.5L181.919925,88.5L182.25256499999998,88.5L182.632725,88.5L182.822805,88.5L183.012885,88.5L183.107925,88.5L183.393045,88.5L183.535605,88.5L183.630645,88.5L183.725685,88.5L183.820725,88.5L183.96328499999998,88.5L184.200885,88.5L184.77112499999998,88.5L185.008725,88.5L185.246325,88.5L186.101685,88.5L186.291765,88.5L186.434325,88.5L186.671925,88.5L186.957045,88.5L187.00456499999999,88.5L187.194645,88.5L187.289685,88.5L187.574805,88.5L187.622325,88.5L187.907445,88.5L188.24008500000002,88.5L188.52520500000003,88.5L188.667765,88.5L188.952885,88.5L189.475605,88.5L189.57064499999998,88.5L189.90328499999998,88.5L190.045845,88.5L190.188405,88.5L190.283445,88.5L190.52104500000002,88.5L191.281365,88.5L191.376405,88.5L191.423925,88.5L191.614005,88.5L191.661525,88.5L191.851605,88.5L191.94664500000002,88.5L192.23176500000002,88.5L192.27928500000002,88.5L192.611925,88.5L193.182165,88.5L193.419765,88.5L193.562325,88.5L193.990005,88.5L194.03752500000002,88.5L194.322645,88.5L194.370165,88.5L195.03544499999998,88.5L195.225525,88.5L195.320565,88.5L195.415605,88.5L195.558165,88.5L195.700725,88.5L196.128405,88.5L196.413525,88.5L196.508565,88.5L197.031285,88.5L197.07880500000002,88.5L197.36392500000002,88.5L197.696565,88.5L198.83704500000002,88.5L198.979605,88.5L199.122165,88.5L199.217205,88.5L200.215125,88.5L200.357685,88.5L200.547765,88.5L200.595285,88.5L200.64280499999998,88.5L200.927925,88.5L201.07048500000002,88.5L201.165525,88.5L201.593205,88.5L201.783285,88.5L201.925845,88.5L202.16344500000002,88.5L202.543605,88.5L202.733685,88.5L202.828725,88.5L202.923765,88.5L203.54152499999998,88.5L203.63656500000002,88.5L203.779125,88.5L204.349365,88.5L204.539445,88.5L204.77704500000002,88.5L204.872085,88.5L205.347285,88.5L205.442325,88.5L205.537365,88.5L206.155125,88.5L206.440245,88.5L206.915445,88.5L207.153045,88.5L207.485685,88.5L207.628245,88.5L207.723285,88.5L208.67368499999998,88.5L208.721205,88.5L208.76872500000002,88.5L209.006325,88.5L209.101365,88.5L209.386485,88.5L209.57656500000002,88.5L209.956725,88.5L210.004245,88.5L210.241845,88.5L210.289365,88.5L210.479445,88.5L211.00216500000002,88.5L211.287285,88.5L211.572405,88.5L211.714965,88.5L212.237685,88.5L212.42776500000002,88.5L212.617845,88.5L212.712885,88.5L212.95048500000001,88.5L213.14056499999998,88.5L213.378165,88.5L213.615765,88.5L213.805845,88.5L213.853365,88.5L213.948405,88.5L214.37608500000002,88.5L214.423605,88.5L214.946325,88.5L215.041365,88.5L215.088885,88.5L215.421525,88.5L215.516565,88.5L215.564085,88.5L215.611605,88.5L215.659125,88.5L215.849205,88.5L215.944245,88.5L216.989685,88.5L217.13224499999998,88.5L217.797525,88.5L218.035125,88.5L218.082645,88.5L218.177685,88.5L218.557845,88.5L218.795445,88.5L219.128085,88.5L220.458645,88.5L220.791285,88.5L221.314005,88.5L221.551605,88.5L221.979285,88.5L222.02680500000002,88.5L222.502005,88.5L222.549525,88.5L222.59704499999998,88.5L222.692085,88.5L222.787125,88.5L222.882165,88.5L222.929685,88.5L222.977205,88.5L223.072245,88.5L223.927605,88.5L224.165205,88.5L224.402805,88.5L224.545365,88.5L224.687925,88.5L224.92552500000002,88.5L225.44824500000001,88.5L225.875925,88.5L226.01848500000003,88.5L226.06600500000002,88.5L226.493685,88.5L226.778805,88.5L227.49160500000002,88.5L227.539125,88.5L227.824245,88.5L228.014325,88.5L228.156885,88.5L228.442005,88.5L228.53704499999998,88.5L228.96472500000002,88.5L229.154805,88.5L229.43992500000002,88.5L229.67752499999997,88.5L229.96264499999998,88.5L230.152725,88.5L230.390325,88.5L230.722965,88.5L230.913045,88.5L231.340725,88.5L231.483285,88.5L232.053525,88.5L232.386165,88.5L232.52872499999998,88.5L232.623765,88.5L232.671285,88.5L232.861365,88.5L232.908885,88.5L232.956405,88.5L233.526645,88.5L233.811765,88.5L233.859285,88.5L233.95432499999998,88.5L234.191925,88.5L234.239445,88.5L234.382005,88.5L234.667125,88.5L234.85720500000002,88.5L235.189845,88.5L235.66504500000002,88.5L235.95016500000003,88.5L236.140245,88.5L236.282805,88.5L236.66296499999999,88.5L236.758005,88.5L237.37576499999997,88.5L237.565845,88.5L237.613365,88.5L238.51624500000003,88.5L238.56376500000002,88.5L238.706325,88.5L239.038965,88.5L239.134005,88.5L239.514165,88.5L239.609205,88.5L239.65672500000002,88.5L240.274485,88.5L240.369525,88.5L240.417045,88.5L240.79720500000002,88.5L240.844725,88.5L240.98728499999999,88.5L241.08232500000003,88.5L241.510005,88.5L241.652565,88.5L241.747605,88.5L241.842645,88.5L242.412885,88.5L243.220725,88.5L243.458325,88.5L243.933525,88.5L244.218645,88.5L244.551285,88.5L244.836405,88.5L244.931445,88.5L245.12152500000002,88.5L245.454165,88.5L245.501685,88.5L245.549205,88.5L246.024405,88.5L246.784725,88.5L247.02232500000002,88.5L247.25992499999998,88.5L247.497525,88.5L247.545045,88.5L247.640085,88.5L247.782645,88.5L248.257845,88.5L248.44792500000003,88.5L248.49544500000002,88.5L248.780565,88.5L248.970645,88.5L249.018165,88.5L249.398325,88.5L249.49336499999998,88.5L249.540885,88.5L249.58840500000002,88.5L249.683445,88.5L249.82600499999998,88.5L249.873525,88.5L249.92104500000002,88.5L249.968565,88.5L250.158645,88.5L250.253685,88.5L250.396245,88.5L250.443765,88.5L250.491285,88.5L250.538805,88.5L250.633845,88.5L250.776405,88.5L250.823925,88.5L251.109045,88.5L251.39416500000002,88.5L251.489205,88.5L251.631765,88.5L252.202005,88.5L252.582165,88.5L252.629685,88.5L252.677205,88.5L252.962325,88.5L253.29496500000002,88.5L253.53256499999998,88.5L253.865205,88.5L254.055285,88.5L254.29288499999998,88.5L254.482965,88.5L254.768085,88.5L254.863125,88.5L255.005685,88.5L255.243285,88.5" style="fill: none;" fill="none"></path></g></g></g></g><g opacity="0.2"><g><g><g><path stroke="rgb(255, 112, 67)" stroke-width="2px" d="M23.535765,88.5L24.153525,88.5L24.438644999999998,88.5L25.198965,88.5L25.294005000000002,88.5L25.436565,88.5L25.531605,88.5L25.816724999999998,88.5L25.959284999999998,88.5L26.672085,88.5L26.814645,88.5L27.052245,88.5L27.432405,88.5L27.765045,88.5L28.145205,88.5L28.287765,88.5L28.335285,88.5L28.667925,88.5L28.905524999999997,88.5L29.285685,88.5L29.903444999999998,88.5L30.426165,88.5L30.663765,88.5L30.806325,88.5L31.234005,88.5L31.281525,88.5L31.756725000000003,88.5L31.994325,88.5L32.089365,88.5L32.136885,88.5L32.326965,88.5L32.707125,88.5L33.087285,88.5L33.134805,88.5L33.372405,88.5L33.895125,88.5L34.180245,88.5L34.417845,88.5L34.560405,88.5L35.130644999999994,88.5L35.415765,88.5L35.653365,88.5L35.795925000000004,88.5L35.986005,88.5L36.176085,88.5L36.271125,88.5L37.174005,88.5L37.411604999999994,88.5L37.459125,88.5L37.696724999999994,88.5L37.934325,88.5L38.029365,88.5L38.409525,88.5L38.457045,88.5L38.789685,88.5L38.979765,88.5L39.407445,88.5L39.787605,88.5L40.547925,88.5L40.738005,88.5L41.023125,88.5L41.213205,88.5L41.308245,88.5L43.30408499999999,88.5L43.351605,88.5L43.446645,88.5L43.731764999999996,88.5L44.159445000000005,88.5L44.254485,88.5L44.302004999999994,88.5L44.444565000000004,88.5L44.729685,88.5L45.157365000000006,88.5L45.299925,88.5L45.347445,88.5L45.822645,88.5L46.630485,88.5L46.725525000000005,88.5L47.390805,88.5L47.628405,88.5L47.723445000000005,88.5L47.866005,88.5L48.246165,88.5L48.531285,88.5L48.626324999999994,88.5L48.768885,88.5L49.054005,88.5L49.291605000000004,88.5L49.766805000000005,88.5L50.051925000000004,88.5L50.337045,88.5L50.527125,88.5L50.812245,88.5L50.907285,88.5L50.954805,88.5L51.049845000000005,88.5L51.144885,88.5L51.192405,88.5L51.430005,88.5L51.477525,88.5L51.905205,88.5L52.190325,88.5L52.285365,88.5L52.522965,88.5L52.760565,88.5L52.855605,88.5L53.425845,88.5L53.758485,88.5L53.806005,88.5L53.901045,88.5L53.996085,88.5L54.043605,88.5L54.138645,88.5L54.708885,88.5L54.851445,88.5L55.041525,88.5L55.184085,88.5L55.326645,88.5L55.516724999999994,88.5L55.564245,88.5L55.754325,88.5L55.991925,88.5L56.039445,88.5L56.514645,88.5L56.704724999999996,88.5L56.847285,88.5L57.227445,88.5L57.417525,88.5L57.560085,88.5L57.607605,88.5L57.655125000000005,88.5L57.987764999999996,88.5L58.272884999999995,88.5L58.367925,88.5L58.415445,88.5L58.605525,88.5L58.795605,88.5L58.938165000000005,88.5L58.985685,88.5L59.033205,88.5L59.223285000000004,88.5L59.650965,88.5L59.841044999999994,88.5L59.888565,88.5L59.936085,88.5L60.031125,88.5L60.078645,88.5L60.363765,88.5L60.553844999999995,88.5L60.601365,88.5L60.696405,88.5L60.791445,88.5L60.934005,88.5L60.981525,88.5L61.029044999999996,88.5L61.076565,88.5L61.219125,88.5L61.40920499999999,88.5L61.646805,88.5L61.694325000000006,88.5L61.741845,88.5L62.026965,88.5L62.834805,88.5L63.024885,88.5L63.119925,88.5L63.357525,88.5L64.49800499999999,88.5L64.593045,88.5L64.830645,88.5L64.925685,88.5L65.115765,88.5L65.21080500000001,88.5L65.590965,88.5L65.876085,88.5L66.066165,88.5L66.398805,88.5L66.49384500000001,88.5L66.778965,88.5L66.874005,88.5L67.016565,88.5L67.064085,88.5L67.159125,88.5L67.53928499999999,88.5L67.586805,88.5L67.729365,88.5L68.062005,88.5L68.204565,88.5L68.632245,88.5L68.82232499999999,88.5L68.964885,88.5L69.012405,88.5L69.440085,88.5L69.487605,88.5L69.677685,88.5L69.725205,88.5L69.77272500000001,88.5L69.820245,88.5L70.010325,88.5L70.057845,88.5L70.200405,88.5L70.247925,88.5L70.628085,88.5L70.818165,88.5L70.913205,88.5L71.00824499999999,88.5L71.05576500000001,88.5L71.483445,88.5L71.626005,88.5L72.006165,88.5L72.101205,88.5L72.29128499999999,88.5L72.33880500000001,88.5L72.576405,88.5L72.909045,88.5L73.431765,88.5L73.526805,88.5L73.811925,88.5L73.954485,88.5L74.049525,88.5L74.239605,88.5L74.42968499999999,88.5L74.524725,88.5L74.762325,88.5L74.809845,88.5L74.85736499999999,88.5L75.237525,88.5L75.522645,88.5L75.71272499999999,88.5L75.760245,88.5L75.807765,88.5L76.235445,88.5L76.473045,88.5L77.13832500000001,88.5L77.23336499999999,88.5L78.18376500000001,88.5L78.231285,88.5L78.42136500000001,88.5L78.468885,88.5L78.51640499999999,88.5L79.371765,88.5L79.609365,88.5L79.942005,88.5L79.989525,88.5L80.274645,88.5L80.36968499999999,88.5L80.607285,88.5L80.702325,88.5L80.797365,88.5L80.98744500000001,88.5L81.842805,88.5L81.937845,88.5L82.032885,88.5L82.41304500000001,88.5L82.555605,88.5L82.93576499999999,88.5L83.07832499999999,88.5L83.220885,88.5L83.838645,88.5L84.171285,88.5L84.456405,88.5L84.646485,88.5L84.741525,88.5L84.78904499999999,88.5L85.074165,88.5L85.54936500000001,88.5L85.786965,88.5L85.834485,88.5L85.977045,88.5L86.262165,88.5L86.357205,88.5L86.499765,88.5L86.642325,88.5L86.78488499999999,88.5L86.83240500000001,88.5L87.687765,88.5L88.400565,88.5L89.113365,88.5L89.255925,88.5L89.303445,88.5L89.39848500000001,88.5L89.446005,88.5L90.443925,88.5L90.49144500000001,88.5L90.729045,88.5L90.871605,88.5L91.06168500000001,88.5L91.156725,88.5L91.346805,88.5L91.536885,88.5L91.72696499999999,88.5L92.91496500000001,88.5L92.962485,88.5L93.48520500000001,88.5L93.865365,88.5L93.912885,88.5L94.055445,88.5L94.15048499999999,88.5L94.19800500000001,88.5L94.625685,88.5L94.958325,88.5L95.671125,88.5L95.718645,88.5L95.861205,88.5L96.19384500000001,88.5L96.76408500000001,88.5L97.001685,88.5L97.049205,88.5L97.144245,88.5L97.47688500000001,88.5L97.809525,88.5L97.857045,88.5L98.284725,88.5L98.474805,88.5L98.56984499999999,88.5L98.75992500000001,88.5L99.187605,88.5L99.520245,88.5L99.56776500000001,88.5L99.805365,88.5L100.185525,88.5L100.61320500000001,88.5L100.660725,88.5L100.85080500000001,88.5L101.088405,88.5L101.230965,88.5L101.326005,88.5L101.468565,88.5L101.611125,88.5L101.801205,88.5L102.181365,88.5L102.561525,88.5L102.751605,88.5L102.894165,88.5L102.94168499999999,88.5L103.226805,88.5L103.274325,88.5L103.654485,88.5L103.844565,88.5L103.892085,88.5L103.939605,88.5L104.034645,88.5L104.177205,88.5L104.509845,88.5L104.557365,88.5L104.937525,88.5L104.985045,88.5L105.41272500000001,88.5L105.602805,88.5L105.697845,88.5L105.745365,88.5L105.840405,88.5L106.07800499999999,88.5L106.12552500000001,88.5L106.220565,88.5L106.268085,88.5L106.315605,88.5L106.553205,88.5L107.218485,88.5L107.646165,88.5L107.93128499999999,88.5L108.263925,88.5L108.31144499999999,88.5L108.739125,88.5L109.071765,88.5L109.499445,88.5L109.642005,88.5L109.97464500000001,88.5L110.06968499999999,88.5L110.259765,88.5L110.734965,88.5L110.782485,88.5L110.92504500000001,88.5L111.162645,88.5L111.35272499999999,88.5L111.970485,88.5L112.06552500000001,88.5L112.113045,88.5L112.398165,88.5L112.445685,88.5L112.493205,88.5L112.588245,88.5L113.253525,88.5L114.108885,88.5L114.394005,88.5L114.72664499999999,88.5L115.011765,88.5L115.201845,88.5L115.296885,88.5L115.391925,88.5L115.677045,88.5L115.819605,88.5L115.91464500000001,88.5L116.05720500000001,88.5L116.199765,88.5L116.342325,88.5L116.77000500000001,88.5L116.865045,88.5L117.435285,88.5L117.482805,88.5L117.530325,88.5L118.195605,88.5L118.385685,88.5L118.57576499999999,88.5L118.765845,88.5L118.813365,88.5L118.955925,88.5L119.050965,88.5L119.14600499999999,88.5L119.526165,88.5L119.621205,88.5L119.763765,88.5L119.90632500000001,88.5L120.048885,88.5L120.143925,88.5L120.286485,88.5L120.42904499999999,88.5L121.18936500000001,88.5L121.522005,88.5L121.75960500000001,88.5L121.807125,88.5L121.85464499999999,88.5L121.949685,88.5L121.997205,88.5L122.09224499999999,88.5L122.187285,88.5L122.377365,88.5L122.56744499999999,88.5L122.80504499999999,88.5L122.900085,88.5L123.232725,88.5L123.327765,88.5L123.37528499999999,88.5L123.612885,88.5L123.802965,88.5L124.040565,88.5L124.13560500000001,88.5L124.183125,88.5L124.65832499999999,88.5L124.70584500000001,88.5L124.895925,88.5L125.03848500000001,88.5L125.181045,88.5L125.228565,88.5L125.37112499999999,88.5L125.41864500000001,88.5L125.513685,88.5L125.751285,88.5L125.798805,88.5L126.131445,88.5L126.178965,88.5L126.369045,88.5L126.464085,88.5L126.55912500000001,88.5L126.749205,88.5L127.22440499999999,88.5L127.319445,88.5L127.414485,88.5L127.462005,88.5L127.652085,88.5L127.794645,88.5L128.17480500000002,88.5L128.36488500000002,88.5L129.03016499999998,88.5L129.220245,88.5L129.31528500000002,88.5L129.552885,88.5L129.600405,88.5L129.695445,88.5L129.790485,88.5L129.838005,88.5L129.933045,88.5L130.028085,88.5L130.075605,88.5L130.408245,88.5L130.550805,88.5L130.788405,88.5L131.358645,88.5L131.548725,88.5L131.691285,88.5L132.166485,88.5L132.451605,88.5L132.499125,88.5L132.594165,88.5L132.736725,88.5L132.879285,88.5L132.926805,88.5L132.974325,88.5L133.449525,88.5L133.497045,88.5L133.544565,88.5L133.639605,88.5L134.209845,88.5L134.257365,88.5L134.304885,88.5L134.352405,88.5L134.732565,88.5L135.160245,88.5L135.968085,88.5L136.633365,88.5L136.823445,88.5L136.870965,88.5L136.966005,88.5L137.34616499999998,88.5L137.441205,88.5L137.631285,88.5L138.106485,88.5L138.486645,88.5L138.534165,88.5L139.056885,88.5L139.437045,88.5L139.72216500000002,88.5L139.769685,88.5L139.864725,88.5L139.95976499999998,88.5L140.197365,88.5L141.10024499999997,88.5L141.38536499999998,88.5L141.432885,88.5L141.908085,88.5L142.003125,88.5L142.145685,88.5L142.19320499999998,88.5L142.24072500000003,88.5L142.715925,88.5L142.763445,88.5L142.906005,88.5L143.191125,88.5L143.42872500000001,88.5L143.523765,88.5L143.61880499999998,88.5L143.71384500000002,88.5L144.141525,88.5L144.331605,88.5L144.52168500000002,88.5L144.616725,88.5L144.75928499999998,88.5L145.18696500000001,88.5L145.234485,88.5L145.424565,88.5L145.709685,88.5L145.804725,88.5L146.374965,88.5L146.422485,88.5L146.470005,88.5L146.517525,88.5L146.660085,88.5L146.850165,88.5L147.135285,88.5L147.182805,88.5L147.32536499999998,88.5L147.705525,88.5L147.943125,88.5L148.08568499999998,88.5L148.22824500000002,88.5L148.275765,88.5L148.560885,88.5L148.655925,88.5L148.941045,88.5L149.083605,88.5L149.226165,88.5L149.273685,88.5L149.463765,88.5L150.366645,88.5L150.556725,88.5L150.65176499999998,88.5L150.889365,88.5L151.126965,88.5L151.744725,88.5L151.934805,88.5L152.077365,88.5L152.790165,88.5L153.31288500000002,88.5L153.36040500000001,88.5L153.502965,88.5L153.788085,88.5L154.120725,88.5L154.168245,88.5L154.215765,88.5L154.263285,88.5L154.310805,88.5L154.358325,88.5L154.73848500000003,88.5L155.831445,88.5L155.87896500000002,88.5L155.926485,88.5L156.259125,88.5L156.781845,88.5L156.876885,88.5L157.447125,88.5L157.494645,88.5L157.637205,88.5L157.732245,88.5L157.779765,88.5L157.874805,88.5L158.77768500000002,88.5L159.015285,88.5L159.157845,88.5L159.300405,88.5L159.728085,88.5L159.77560499999998,88.5L160.060725,88.5L160.155765,88.5L160.203285,88.5L160.488405,88.5L160.630965,88.5L160.678485,88.5L160.91608499999998,88.5L161.01112500000002,88.5L161.106165,88.5L161.24872499999998,88.5L161.676405,88.5L161.914005,88.5L162.009045,88.5L162.05656499999998,88.5L162.104085,88.5L162.626805,88.5L163.102005,88.5L163.48216499999998,88.5L164.290005,88.5L164.62264499999998,88.5L164.67016500000003,88.5L164.812725,88.5L165.287925,88.5L165.573045,88.5L165.763125,88.5L166.000725,88.5L166.09576499999997,88.5L166.190805,88.5L166.285845,88.5L166.380885,88.5L166.570965,88.5L166.618485,88.5L166.761045,88.5L167.046165,88.5L167.14120499999999,88.5L167.28376500000002,88.5L167.663925,88.5L167.758965,88.5L167.806485,88.5L167.854005,88.5L168.234165,88.5L168.946965,88.5L169.042005,88.5L169.137045,88.5L169.232085,88.5L169.327125,88.5L169.75480499999998,88.5L169.944885,88.5L170.562645,88.5L170.752725,88.5L171.655605,88.5L172.36840500000002,88.5L172.41592500000002,88.5L172.701045,88.5L172.748565,88.5L172.843605,88.5L172.986165,88.5L173.22376500000001,88.5L173.366325,88.5L173.41384499999998,88.5L173.50888500000002,88.5L174.269205,88.5L174.60184500000003,88.5L174.791925,88.5L175.124565,88.5L175.17208499999998,88.5L175.504725,88.5L175.64728499999998,88.5L176.787765,88.5L176.930325,88.5L177.262965,88.5L177.40552499999998,88.5L177.45304499999997,88.5L177.54808500000001,88.5L177.595605,88.5L177.928245,88.5L178.02328500000002,88.5L178.54600499999998,88.5L178.783605,88.5L179.211285,88.5L179.306325,88.5L179.401365,88.5L179.591445,88.5L179.73400500000002,88.5L180.351765,88.5L180.399285,88.5L180.446805,88.5L180.731925,88.5L181.11208499999998,88.5L181.39720499999999,88.5L181.444725,88.5L181.492245,88.5L181.682325,88.5L181.919925,88.5L182.25256499999998,88.5L182.632725,88.5L182.822805,88.5L183.012885,88.5L183.107925,88.5L183.393045,88.5L183.535605,88.5L183.630645,88.5L183.725685,88.5L183.820725,88.5L183.96328499999998,88.5L184.200885,88.5L184.77112499999998,88.5L185.008725,88.5L185.246325,88.5L186.101685,88.5L186.291765,88.5L186.434325,88.5L186.671925,88.5L186.957045,88.5L187.00456499999999,88.5L187.194645,88.5L187.289685,88.5L187.574805,88.5L187.622325,88.5L187.907445,88.5L188.24008500000002,88.5L188.52520500000003,88.5L188.667765,88.5L188.952885,88.5L189.475605,88.5L189.57064499999998,88.5L189.90328499999998,88.5L190.045845,88.5L190.188405,88.5L190.283445,88.5L190.52104500000002,88.5L191.281365,88.5L191.376405,88.5L191.423925,88.5L191.614005,88.5L191.661525,88.5L191.851605,88.5L191.94664500000002,88.5L192.23176500000002,88.5L192.27928500000002,88.5L192.611925,88.5L193.182165,88.5L193.419765,88.5L193.562325,88.5L193.990005,88.5L194.03752500000002,88.5L194.322645,88.5L194.370165,88.5L195.03544499999998,88.5L195.225525,88.5L195.320565,88.5L195.415605,88.5L195.558165,88.5L195.700725,88.5L196.128405,88.5L196.413525,88.5L196.508565,88.5L197.031285,88.5L197.07880500000002,88.5L197.36392500000002,88.5L197.696565,88.5L198.83704500000002,88.5L198.979605,88.5L199.122165,88.5L199.217205,88.5L200.215125,88.5L200.357685,88.5L200.547765,88.5L200.595285,88.5L200.64280499999998,88.5L200.927925,88.5L201.07048500000002,88.5L201.165525,88.5L201.593205,88.5L201.783285,88.5L201.925845,88.5L202.16344500000002,88.5L202.543605,88.5L202.733685,88.5L202.828725,88.5L202.923765,88.5L203.54152499999998,88.5L203.63656500000002,88.5L203.779125,88.5L204.349365,88.5L204.539445,88.5L204.77704500000002,88.5L204.872085,88.5L205.347285,88.5L205.442325,88.5L205.537365,88.5L206.155125,88.5L206.440245,88.5L206.915445,88.5L207.153045,88.5L207.485685,88.5L207.628245,88.5L207.723285,88.5L208.67368499999998,88.5L208.721205,88.5L208.76872500000002,88.5L209.006325,88.5L209.101365,88.5L209.386485,88.5L209.57656500000002,88.5L209.956725,88.5L210.004245,88.5L210.241845,88.5L210.289365,88.5L210.479445,88.5L211.00216500000002,88.5L211.287285,88.5L211.572405,88.5L211.714965,88.5L212.237685,88.5L212.42776500000002,88.5L212.617845,88.5L212.712885,88.5L212.95048500000001,88.5L213.14056499999998,88.5L213.378165,88.5L213.615765,88.5L213.805845,88.5L213.853365,88.5L213.948405,88.5L214.37608500000002,88.5L214.423605,88.5L214.946325,88.5L215.041365,88.5L215.088885,88.5L215.421525,88.5L215.516565,88.5L215.564085,88.5L215.611605,88.5L215.659125,88.5L215.849205,88.5L215.944245,88.5L216.989685,88.5L217.13224499999998,88.5L217.797525,88.5L218.035125,88.5L218.082645,88.5L218.177685,88.5L218.557845,88.5L218.795445,88.5L219.128085,88.5L220.458645,88.5L220.791285,88.5L221.314005,88.5L221.551605,88.5L221.979285,88.5L222.02680500000002,88.5L222.502005,88.5L222.549525,88.5L222.59704499999998,88.5L222.692085,88.5L222.787125,88.5L222.882165,88.5L222.929685,88.5L222.977205,88.5L223.072245,88.5L223.927605,88.5L224.165205,88.5L224.402805,88.5L224.545365,88.5L224.687925,88.5L224.92552500000002,88.5L225.44824500000001,88.5L225.875925,88.5L226.01848500000003,88.5L226.06600500000002,88.5L226.493685,88.5L226.778805,88.5L227.49160500000002,88.5L227.539125,88.5L227.824245,88.5L228.014325,88.5L228.156885,88.5L228.442005,88.5L228.53704499999998,88.5L228.96472500000002,88.5L229.154805,88.5L229.43992500000002,88.5L229.67752499999997,88.5L229.96264499999998,88.5L230.152725,88.5L230.390325,88.5L230.722965,88.5L230.913045,88.5L231.340725,88.5L231.483285,88.5L232.053525,88.5L232.386165,88.5L232.52872499999998,88.5L232.623765,88.5L232.671285,88.5L232.861365,88.5L232.908885,88.5L232.956405,88.5L233.526645,88.5L233.811765,88.5L233.859285,88.5L233.95432499999998,88.5L234.191925,88.5L234.239445,88.5L234.382005,88.5L234.667125,88.5L234.85720500000002,88.5L235.189845,88.5L235.66504500000002,88.5L235.95016500000003,88.5L236.140245,88.5L236.282805,88.5L236.66296499999999,88.5L236.758005,88.5L237.37576499999997,88.5L237.565845,88.5L237.613365,88.5L238.51624500000003,88.5L238.56376500000002,88.5L238.706325,88.5L239.038965,88.5L239.134005,88.5L239.514165,88.5L239.609205,88.5L239.65672500000002,88.5L240.274485,88.5L240.369525,88.5L240.417045,88.5L240.79720500000002,88.5L240.844725,88.5L240.98728499999999,88.5L241.08232500000003,88.5L241.510005,88.5L241.652565,88.5L241.747605,88.5L241.842645,88.5L242.412885,88.5L243.220725,88.5L243.458325,88.5L243.933525,88.5L244.218645,88.5L244.551285,88.5L244.836405,88.5L244.931445,88.5L245.12152500000002,88.5L245.454165,88.5L245.501685,88.5L245.549205,88.5L246.024405,88.5L246.784725,88.5L247.02232500000002,88.5L247.25992499999998,88.5L247.497525,88.5L247.545045,88.5L247.640085,88.5L247.782645,88.5L248.257845,88.5L248.44792500000003,88.5L248.49544500000002,88.5L248.780565,88.5L248.970645,88.5L249.018165,88.5L249.398325,88.5L249.49336499999998,88.5L249.540885,88.5L249.58840500000002,88.5L249.683445,88.5L249.82600499999998,88.5L249.873525,88.5L249.92104500000002,88.5L249.968565,88.5L250.158645,88.5L250.253685,88.5L250.396245,88.5L250.443765,88.5L250.491285,88.5L250.538805,88.5L250.633845,88.5L250.776405,88.5L250.823925,88.5L251.109045,88.5L251.39416500000002,88.5L251.489205,88.5L251.631765,88.5L252.202005,88.5L252.582165,88.5L252.629685,88.5L252.677205,88.5L252.962325,88.5L253.29496500000002,88.5L253.53256499999998,88.5L253.865205,88.5L254.055285,88.5L254.29288499999998,88.5L254.482965,88.5L254.768085,88.5L254.863125,88.5L255.005685,88.5L255.243285,88.5" style="fill: none;" fill="none"></path></g></g></g></g></g></g><g transform="translate(51, 177)" clip-path="url(#clip_1)"><clipPath id="clip_1"><rect width="278" height="23"></rect></clipPath><g><g><line x1="0" y1="0" x2="0" y2="5" style="visibility: inherit;" fill="rgb(0, 0, 0)" stroke="rgb(204, 204, 204)" stroke-width="1px"></line><line x1="23.203125" y1="0" x2="23.203125" y2="5" style="visibility: inherit;" fill="rgb(0, 0, 0)" stroke="rgb(204, 204, 204)" stroke-width="1px"></line><line x1="46.40625" y1="0" x2="46.40625" y2="5" style="visibility: inherit;" fill="rgb(0, 0, 0)" stroke="rgb(204, 204, 204)" stroke-width="1px"></line><line x1="69.609375" y1="0" x2="69.609375" y2="5" style="visibility: inherit;" fill="rgb(0, 0, 0)" stroke="rgb(204, 204, 204)" stroke-width="1px"></line><line x1="92.8125" y1="0" x2="92.8125" y2="5" style="visibility: inherit;" fill="rgb(0, 0, 0)" stroke="rgb(204, 204, 204)" stroke-width="1px"></line><line x1="116.015625" y1="0" x2="116.015625" y2="5" style="visibility: inherit;" fill="rgb(0, 0, 0)" stroke="rgb(204, 204, 204)" stroke-width="1px"></line><line x1="139.21875" y1="0" x2="139.21875" y2="5" style="visibility: inherit;" fill="rgb(0, 0, 0)" stroke="rgb(204, 204, 204)" stroke-width="1px"></line><line x1="162.421875" y1="0" x2="162.421875" y2="5" style="visibility: inherit;" fill="rgb(0, 0, 0)" stroke="rgb(204, 204, 204)" stroke-width="1px"></line><line x1="185.625" y1="0" x2="185.625" y2="5" style="visibility: inherit;" fill="rgb(0, 0, 0)" stroke="rgb(204, 204, 204)" stroke-width="1px"></line><line x1="208.828125" y1="0" x2="208.828125" y2="5" style="visibility: inherit;" fill="rgb(0, 0, 0)" stroke="rgb(204, 204, 204)" stroke-width="1px"></line><line x1="232.03125" y1="0" x2="232.03125" y2="5" style="visibility: inherit;" fill="rgb(0, 0, 0)" stroke="rgb(204, 204, 204)" stroke-width="1px"></line><line x1="255.234375" y1="0" x2="255.234375" y2="5" style="visibility: inherit;" fill="rgb(0, 0, 0)" stroke="rgb(204, 204, 204)" stroke-width="1px"></line><line x1="278.4375" y1="0" x2="278.4375" y2="5" style="visibility: inherit;" fill="rgb(0, 0, 0)" stroke="rgb(204, 204, 204)" stroke-width="1px"></line></g><g transform="translate(0, 8)"><text x="0" y="0" dx="0em" dy="0.95em" style="text-anchor: middle; visibility: hidden; font-family: Roboto, sans-serif; font-size: 12px; font-weight: 200;" fill="rgb(33, 33, 33)" stroke="none" stroke-width="1px">-1M</text><text x="23.203125" y="0" dx="0em" dy="0.95em" style="text-anchor: middle; visibility: inherit; font-family: Roboto, sans-serif; font-size: 12px; font-weight: 200;" fill="rgb(33, 33, 33)" stroke="none" stroke-width="1px">0</text><text x="46.40625" y="0" dx="0em" dy="0.95em" style="text-anchor: middle; visibility: hidden; font-family: Roboto, sans-serif; font-size: 12px; font-weight: 200;" fill="rgb(33, 33, 33)" stroke="none" stroke-width="1px">1M</text><text x="69.609375" y="0" dx="0em" dy="0.95em" style="text-anchor: middle; visibility: inherit; font-family: Roboto, sans-serif; font-size: 12px; font-weight: 200;" fill="rgb(33, 33, 33)" stroke="none" stroke-width="1px">2M</text><text x="92.8125" y="0" dx="0em" dy="0.95em" style="text-anchor: middle; visibility: hidden; font-family: Roboto, sans-serif; font-size: 12px; font-weight: 200;" fill="rgb(33, 33, 33)" stroke="none" stroke-width="1px">3M</text><text x="116.015625" y="0" dx="0em" dy="0.95em" style="text-anchor: middle; visibility: inherit; font-family: Roboto, sans-serif; font-size: 12px; font-weight: 200;" fill="rgb(33, 33, 33)" stroke="none" stroke-width="1px">4M</text><text x="139.21875" y="0" dx="0em" dy="0.95em" style="text-anchor: middle; visibility: hidden; font-family: Roboto, sans-serif; font-size: 12px; font-weight: 200;" fill="rgb(33, 33, 33)" stroke="none" stroke-width="1px">5M</text><text x="162.421875" y="0" dx="0em" dy="0.95em" style="text-anchor: middle; visibility: inherit; font-family: Roboto, sans-serif; font-size: 12px; font-weight: 200;" fill="rgb(33, 33, 33)" stroke="none" stroke-width="1px">6M</text><text x="185.625" y="0" dx="0em" dy="0.95em" style="text-anchor: middle; visibility: hidden; font-family: Roboto, sans-serif; font-size: 12px; font-weight: 200;" fill="rgb(33, 33, 33)" stroke="none" stroke-width="1px">7M</text><text x="208.828125" y="0" dx="0em" dy="0.95em" style="text-anchor: middle; visibility: inherit; font-family: Roboto, sans-serif; font-size: 12px; font-weight: 200;" fill="rgb(33, 33, 33)" stroke="none" stroke-width="1px">8M</text><text x="232.03125" y="0" dx="0em" dy="0.95em" style="text-anchor: middle; visibility: hidden; font-family: Roboto, sans-serif; font-size: 12px; font-weight: 200;" fill="rgb(33, 33, 33)" stroke="none" stroke-width="1px">9M</text><text x="255.234375" y="0" dx="0em" dy="0.95em" style="text-anchor: middle; visibility: inherit; font-family: Roboto, sans-serif; font-size: 12px; font-weight: 200;" fill="rgb(33, 33, 33)" stroke="none" stroke-width="1px">10M</text><text x="278.4375" y="0" dx="0em" dy="0.95em" style="text-anchor: middle; visibility: hidden; font-family: Roboto, sans-serif; font-size: 12px; font-weight: 200;" fill="rgb(33, 33, 33)" stroke="none" stroke-width="1px">11M</text></g><line x1="0" y1="0" x2="278.4375" y2="0" fill="rgb(0, 0, 0)" stroke="rgb(204, 204, 204)" stroke-width="1px"></line></g></g></g></g></svg>