<svg viewBox="0 0 330 200" xmlns="http://www.w3.org/2000/svg"><g><g><g><g><g><line x1="41.171875" y1="177" x2="36.171875" y2="177" style="visibility: inherit;" fill="rgb(0, 0, 0)" stroke="rgb(204, 204, 204)" stroke-width="1px"></line><line x1="41.171875" y1="162.25" x2="36.171875" y2="162.25" style="visibility: inherit;" fill="rgb(0, 0, 0)" stroke="rgb(204, 204, 204)" stroke-width="1px"></line><line x1="41.171875" y1="147.5" x2="36.171875" y2="147.5" style="visibility: inherit;" fill="rgb(0, 0, 0)" stroke="rgb(204, 204, 204)" stroke-width="1px"></line><line x1="41.171875" y1="132.75" x2="36.171875" y2="132.75" style="visibility: inherit;" fill="rgb(0, 0, 0)" stroke="rgb(204, 204, 204)" stroke-width="1px"></line><line x1="41.171875" y1="118.00000000000001" x2="36.171875" y2="118.00000000000001" style="visibility: inherit;" fill="rgb(0, 0, 0)" stroke="rgb(204, 204, 204)" stroke-width="1px"></line><line x1="41.171875" y1="103.24999999999999" x2="36.171875" y2="103.24999999999999" style="visibility: inherit;" fill="rgb(0, 0, 0)" stroke="rgb(204, 204, 204)" stroke-width="1px"></line><line x1="41.171875" y1="88.5" x2="36.171875" y2="88.5" style="visibility: inherit;" fill="rgb(0, 0, 0)" stroke="rgb(204, 204, 204)" stroke-width="1px"></line><line x1="41.171875" y1="73.75" x2="36.171875" y2="73.75" style="visibility: inherit;" fill="rgb(0, 0, 0)" stroke="rgb(204, 204, 204)" stroke-width="1px"></line><line x1="41.171875" y1="59.00000000000001" x2="36.171875" y2="59.00000000000001" style="visibility: inherit;" fill="rgb(0, 0, 0)" stroke="rgb(204, 204, 204)" stroke-width="1px"></line><line x1="41.171875" y1="44.25" x2="36.171875" y2="44.25" style="visibility: inherit;" fill="rgb(0, 0, 0)" stroke="rgb(204, 204, 204)" stroke-width="1px"></line><line x1="41.171875" y1="29.499999999999993" x2="36.171875" y2="29.499999999999993" style="visibility: inherit;" fill="rgb(0, 0, 0)" stroke="rgb(204, 204, 204)" stroke-width="1px"></line><line x1="41.171875" y1="14.750000000000007" x2="36.171875" y2="14.750000000000007" style="visibility: inherit;" fill="rgb(0, 0, 0)" stroke="rgb(204, 204, 204)" stroke-width="1px"></line><line x1="41.171875" y1="0" x2="36.171875" y2="0" style="visibility: inherit;" fill="rgb(0, 0, 0)" stroke="rgb(204, 204, 204)" stroke-width="1px"></line></g><g transform="translate(31.171875, 0)"><text x="0" y="177" dx="0em" dy="0.3em" style="text-anchor: end; visibility: hidden; font-family: Roboto, sans-serif; font-size: 12px; font-weight: 200;" fill="rgb(33, 33, 33)" stroke="none" stroke-width="1px">4</text><text x="0" y="162.25" dx="0em" dy="0.3em" style="text-anchor: end; visibility: inherit; font-family: Roboto, sans-serif; font-size: 12px; font-weight: 200;" fill="rgb(33, 33, 33)" stroke="none" stroke-width="1px">4.5</text><text x="0" y="147.5" dx="0em" dy="0.3em" style="text-anchor: end; visibility: hidden; font-family: Roboto, sans-serif; font-size: 12px; font-weight: 200;" fill="rgb(33, 33, 33)" stroke="none" stroke-width="1px">5</text><text x="0" y="132.75" dx="0em" dy="0.3em" style="text-anchor: end; visibility: inherit; font-family: Roboto, sans-serif; font-size: 12px; font-weight: 200;" fill="rgb(33, 33, 33)" stroke="none" stroke-width="1px">5.5</text><text x="0" y="118.00000000000001" dx="0em" dy="0.3em" style="text-anchor: end; visibility: hidden; font-family: Roboto, sans-serif; font-size: 12px; font-weight: 200;" fill="rgb(33, 33, 33)" stroke="none" stroke-width="1px">6</text><text x="0" y="103.24999999999999" dx="0em" dy="0.3em" style="text-anchor: end; visibility: inherit; font-family: Roboto, sans-serif; font-size: 12px; font-weight: 200;" fill="rgb(33, 33, 33)" stroke="none" stroke-width="1px">6.5</text><text x="0" y="88.5" dx="0em" dy="0.3em" style="text-anchor: end; visibility: hidden; font-family: Roboto, sans-serif; font-size: 12px; font-weight: 200;" fill="rgb(33, 33, 33)" stroke="none" stroke-width="1px">7</text><text x="0" y="73.75" dx="0em" dy="0.3em" style="text-anchor: end; visibility: inherit; font-family: Roboto, sans-serif; font-size: 12px; font-weight: 200;" fill="rgb(33, 33, 33)" stroke="none" stroke-width="1px">7.5</text><text x="0" y="59.00000000000001" dx="0em" dy="0.3em" style="text-anchor: end; visibility: hidden; font-family: Roboto, sans-serif; font-size: 12px; font-weight: 200;" fill="rgb(33, 33, 33)" stroke="none" stroke-width="1px">8</text><text x="0" y="44.25" dx="0em" dy="0.3em" style="text-anchor: end; visibility: inherit; font-family: Roboto, sans-serif; font-size: 12px; font-weight: 200;" fill="rgb(33, 33, 33)" stroke="none" stroke-width="1px">8.5</text><text x="0" y="29.499999999999993" dx="0em" dy="0.3em" style="text-anchor: end; visibility: hidden; font-family: Roboto, sans-serif; font-size: 12px; font-weight: 200;" fill="rgb(33, 33, 33)" stroke="none" stroke-width="1px">9</text><text x="0" y="14.750000000000007" dx="0em" dy="0.3em" style="text-anchor: end; visibility: inherit; font-family: Roboto, sans-serif; font-size: 12px; font-weight: 200;" fill="rgb(33, 33, 33)" stroke="none" stroke-width="1px">9.5</text><text x="0" y="0" dx="0em" dy="0.3em" style="text-anchor: end; visibility: hidden; font-family: Roboto, sans-serif; font-size: 12px; font-weight: 200;" fill="rgb(33, 33, 33)" stroke="none" stroke-width="1px">10</text></g><line x1="41.171875" y1="0" x2="41.171875" y2="177" fill="rgb(0, 0, 0)" stroke="rgb(204, 204, 204)" stroke-width="1px"></line></g></g><g transform="translate(41, 0)" clip-path="url(#clip_0)"><clipPath id="clip_0"><rect width="288" height="177"></rect></clipPath><g><g><g><line x1="0" y1="0" x2="0" y2="177" fill="rgb(0, 0, 0)" stroke="rgb(66, 66, 66)" stroke-width="1px" opacity="0.25"></line><line x1="24.069010416666664" y1="0" x2="24.069010416666664" y2="177" fill="rgb(0, 0, 0)" stroke="rgb(66, 66, 66)" stroke-width="1px" opacity="0.25"></line><line x1="48.13802083333333" y1="0" x2="48.13802083333333" y2="177" fill="rgb(0, 0, 0)" stroke="rgb(66, 66, 66)" stroke-width="1px" opacity="0.25"></line><line x1="72.20703125" y1="0" x2="72.20703125" y2="177" fill="rgb(0, 0, 0)" stroke="rgb(66, 66, 66)" stroke-width="1px" opacity="0.25"></line><line x1="96.27604166666666" y1="0" x2="96.27604166666666" y2="177" fill="rgb(0, 0, 0)" stroke="rgb(66, 66, 66)" stroke-width="1px" opacity="0.25"></line><line x1="120.34505208333334" y1="0" x2="120.34505208333334" y2="177" fill="rgb(0, 0, 0)" stroke="rgb(66, 66, 66)" stroke-width="1px" opacity="0.25"></line><line x1="144.4140625" y1="0" x2="144.4140625" y2="177" fill="rgb(0, 0, 0)" stroke="rgb(66, 66, 66)" stroke-width="1px" opacity="0.25"></line><line x1="168.48307291666669" y1="0" x2="168.48307291666669" y2="177" fill="rgb(0, 0, 0)" stroke="rgb(66, 66, 66)" stroke-width="1px" opacity="0.25"></line><line x1="192.55208333333331" y1="0" x2="192.55208333333331" y2="177" fill="rgb(0, 0, 0)" stroke="rgb(66, 66, 66)" stroke-width="1px" opacity="0.25"></line><line x1="216.62109375" y1="0" x2="216.62109375" y2="177" fill="rgb(0, 0, 0)" stroke="rgb(66, 66, 66)" stroke-width="1px" opacity="0.25"></line><line x1="240.69010416666669" y1="0" x2="240.69010416666669" y2="177" fill="rgb(0, 0, 0)" stroke="rgb(66, 66, 66)" stroke-width="1px" opacity="0.25"></line><line x1="264.7591145833333" y1="0" x2="264.7591145833333" y2="177" fill="rgb(0, 0, 0)" stroke="rgb(66, 66, 66)" stroke-width="1px" opacity="0.25"></line><line x1="288.828125" y1="0" x2="288.828125" y2="177" fill="rgb(0, 0, 0)" stroke="rgb(66, 66, 66)" stroke-width="1px" opacity="0.25"></line></g><g><line x1="0" y1="177" x2="288.828125" y2="177" fill="rgb(0, 0, 0)" stroke="rgb(66, 66, 66)" stroke-width="1px" opacity="0.25"></line><line x1="0" y1="162.25" x2="288.828125" y2="162.25" fill="rgb(0, 0, 0)" stroke="rgb(66, 66, 66)" stroke-width="1px" opacity="0.25"></line><line x1="0" y1="147.5" x2="288.828125" y2="147.5" fill="rgb(0, 0, 0)" stroke="rgb(66, 66, 66)" stroke-width="1px" opacity="0.25"></line><line x1="0" y1="132.75" x2="288.828125" y2="132.75" fill="rgb(0, 0, 0)" stroke="rgb(66, 66, 66)" stroke-width="1px" opacity="0.25"></line><line x1="0" y1="118.00000000000001" x2="288.828125" y2="118.00000000000001" fill="rgb(0, 0, 0)" stroke="rgb(66, 66, 66)" stroke-width="1px" opacity="0.25"></line><line x1="0" y1="103.24999999999999" x2="288.828125" y2="103.24999999999999" fill="rgb(0, 0, 0)" stroke="rgb(66, 66, 66)" stroke-width="1px" opacity="0.25"></line><line x1="0" y1="88.5" x2="288.828125" y2="88.5" fill="rgb(0, 0, 0)" stroke="rgb(66, 66, 66)" stroke-width="1px" opacity="0.25"></line><line x1="0" y1="73.75" x2="288.828125" y2="73.75" fill="rgb(0, 0, 0)" stroke="rgb(66, 66, 66)" stroke-width="1px" opacity="0.25"></line><line x1="0" y1="59.00000000000001" x2="288.828125" y2="59.00000000000001" fill="rgb(0, 0, 0)" stroke="rgb(66, 66, 66)" stroke-width="1px" opacity="0.25"></line><line x1="0" y1="44.25" x2="288.828125" y2="44.25" fill="rgb(0, 0, 0)" stroke="rgb(66, 66, 66)" stroke-width="1px" opacity="0.25"></line><line x1="0" y1="29.499999999999993" x2="288.828125" y2="29.499999999999993" fill="rgb(0, 0, 0)" stroke="rgb(66, 66, 66)" stroke-width="1px" opacity="0.25"></line><line x1="0" y1="14.750000000000007" x2="288.828125" y2="14.750000000000007" fill="rgb(0, 0, 0)" stroke="rgb(66, 66, 66)" stroke-width="1px" opacity="0.25"></line><line x1="0" y1="0" x2="288.828125" y2="0" fill="rgb(0, 0, 0)" stroke="rgb(66, 66, 66)" stroke-width="1px" opacity="0.25"></line></g></g></g><g><g><line x1="0" y1="295" x2="288.828125" y2="295" fill="rgb(0, 0, 0)" stroke="rgb(153, 153, 153)" stroke-width="1.5px"></line></g></g><g><g><line x1="24.069010416666664" y1="0" x2="24.069010416666664" y2="177" fill="rgb(0, 0, 0)" stroke="rgb(153, 153, 153)" stroke-width="1.5px"></line></g></g><g><g><g><g><g><path stroke="rgb(255, 112, 67)" stroke-width="2px" d="M30.378557083333334,-37.82551832148796L31.019370416666664,12.802257775088819L31.561597083333336,53.288873602626516L31.808063750000002,58.55140346016471L31.95594375,110.30649376744655L32.39958375,98.39568509819628L32.44887708333333,75.47558931524308L32.94181041666667,89.34579373426314L33.18827708333333,127.29607872346506L33.28686375,123.91332237165254L33.33615708333333,122.06782495851213L33.533330416666665,82.45153986366344L33.927677083333336,69.72210393537884L34.32202375,101.84805223682672L34.37131708333334,126.73151138395495L34.61778375,102.97105354334332L35.160010416666665,104.45987422968022L35.45577041666667,93.96273811343943L35.70223708333333,74.18287293530325L35.85011708333334,117.6928078691963L36.441637083333326,82.56916920978357L36.737397083333335,85.40108862530944L36.98386375,149.7813455832578L37.131743750000005,117.29969761462387L37.32891708333334,135.4838981999153L37.52609041666667,163.94907019274444L37.62467708333333,174.04189809466968L38.56125041666667,130.65985355396992L38.80771708333333,144.01342054408923L38.85701041666667,127.06075360872636L39.10347708333333,150.0984005601974L39.34994375,155.36133659316303L39.448530416666664,166.7984489228653L39.842877083333335,133.92359659822964L39.892170416666666,123.68001540750494L40.23722375,86.02334756997976L40.43439708333333,104.87193815320101L40.87803708333333,106.43983788734337L41.272383749999996,132.92240073350823L42.06107708333333,147.84188219349357L42.25825041666667,122.43117559218743L42.55401041666667,115.54885418572607L42.75118375,97.48786172484476L42.84977041666667,138.84602089652532L44.92009041666666,144.59360258537006L44.96938375,107.427835516676L45.06797041666667,105.04995673450507L45.36373041666666,68.87291952104971L45.80737041666667,124.63573472578297L45.905957083333334,112.31724920796735L45.955250416666665,107.09685167626967L46.103130416666666,107.55475473974005L46.39889041666667,111.59740743979127L46.84253041666667,130.9192280408401L46.99041041666666,129.69620416382904L47.03970375,108.78733214032619L47.532637083333334,117.02718424971084L48.37062375,101.7232398520421L48.46921041666667,105.04830424371426L49.159317083333335,97.78911667098441L49.405783750000005,136.64804771560335L49.50437041666667,95.29897286306561L49.65225041666667,96.87578598148072L50.04659708333333,110.18998832396538L50.34235708333333,120.64146444137015L50.440943749999995,115.65898192486239L50.58882375,166.63365035391493L50.88458375,148.5050873108902L51.13105041666667,177.06949416090242L51.62398375,152.8992846923422L51.91974375,143.40965176328132L52.21550375,116.4362579387671L52.412677083333335,97.58254276527441L52.70843708333333,90.25238153227257L52.80702375,109.44001553587964L52.85631708333334,110.15384649117502L52.95490375,105.09445680904216L53.05349041666667,110.70275152759446L53.10278375,122.83013785503324L53.34925041666667,127.75316636933098L53.398543749999995,143.26331034405953L53.84218375,123.3946581310268L54.13794375,98.70356810249302L54.23653041666667,101.06823251341228L54.48299708333334,100.4080860000518L54.729463749999994,133.12097779403132L54.82805041666666,113.14737333947419L55.41957041666667,139.22361677941083L55.76462375,116.09332762990233L55.81391708333334,116.06001288195752L55.91250375,80.75573104918186L56.01109041666667,137.12541805684674L56.06038375,110.24121572363444L56.15897041666666,139.80794917218728L56.75049041666667,114.75589539213681L56.898370416666666,121.54846139910045L57.09554375,95.79361369706525L57.243423750000005,81.22703634796936L57.39130375,98.5872144883776L57.58847708333333,121.1580721965971L57.63777041666667,148.52018740365165L57.83494375,149.48704759233746L58.08141041666667,120.33973898859948L58.13070375,135.08932932837087L58.62363708333333,111.84126859082745L58.82081041666667,88.31933081849793L58.96869041666667,138.80643499317395L59.36303708333333,132.00873587383404L59.56021041666666,161.17424329431995L59.70809041666667,171.4038341540822L59.75738375,173.98066924206785L59.806677083333334,183.20020650739892L60.151730416666666,122.53140091249597L60.44749041666666,118.05519346802981L60.54607708333333,133.12967446094484L60.59537041666667,128.3908801236494L60.79254375,143.19214135162494L60.98971708333333,127.04350231738364L61.13759708333334,138.91575640828296L61.186890416666664,177.9741285228186L61.23618375,152.39455220600684L61.433357083333334,123.17882765233946L61.87699708333333,106.67811291754501L62.07417041666666,71.7817670425192L62.12346375,43.82700757505986L62.17275708333333,52.4189539690166L62.27134375000001,71.33615021344119L62.32063708333333,85.49981844685132L62.61639708333333,102.83885352767501L62.813570416666664,140.02375050161478L62.86286375,145.98445570334314L62.96145041666667,122.11747481742215L63.060037083333334,143.58771025132364L63.20791708333333,162.1121693312599L63.257210416666666,160.75894397851667L63.30650375,146.43899113152526L63.355797083333336,160.1724557770139L63.50367708333333,141.74058474855698L63.70085041666666,121.54957116697474L63.94731708333333,146.60334084662347L63.99661041666667,158.14713233847945L64.04590375,167.29506465279778L64.34166375,147.88932507326436L65.17965041666666,156.73297210389515L65.37682375,121.34921605500067L65.47541041666666,149.51565989918996L65.72187708333334,135.20730319659404L66.90491708333333,97.54870137596423L67.00350375,143.10400210037406L67.24997041666667,119.91684862503155L67.34855708333333,96.38843362646548L67.54573041666667,69.87980128000525L67.64431708333333,83.25641365450826L68.03866375,85.3699911332262L68.33442375,80.01018046713664L68.53159708333334,97.86216497049806L68.87665041666666,120.4014496780996L68.97523708333334,137.82144470081116L69.27099708333333,131.3872901145541L69.36958375,158.85316092633744L69.51746375,115.02897075929367L69.56675708333333,88.15291693281009L69.66534375,112.1566991953306L70.05969041666667,88.07957745482042L70.10898375000001,112.90152206951093L70.25686375,119.9167931969983L70.60191708333333,164.61015220260757L70.74979708333333,161.73166739807212L71.19343708333334,140.01725294509936L71.39061041666666,91.90563947152738L71.53849041666668,118.05534314031388L71.58778375,114.5853967601954L72.03142375,135.73341855614774L72.08071708333333,131.98467822795743L72.27789041666666,143.27529866651076L72.32718375,98.10608839485275L72.37647708333334,69.35596794780031L72.42577041666667,70.13193356332742L72.62294375,125.59726807676292L72.67223708333333,150.97709892512881L72.82011708333333,164.21563743544533L72.86941041666667,126.61629843111582L73.26375708333333,169.63110589620916L73.46093041666666,159.1249827363339L73.55951708333333,155.75549224723855L73.65810375,143.82183553999351L73.70739708333333,150.14459792510084L74.15103708333334,184.24935231051094L74.29891708333334,159.30946732426435L74.69326375,162.0291795782134L74.79185041666666,158.58391428303034L74.98902374999999,149.87312202639168L75.03831708333334,130.84686887852422L75.28478375,158.8935141360287L75.62983708333334,124.52521761629127L76.17206375,113.5567390940973L76.27065041666667,125.19424042835169L76.56641041666667,128.56910630306206L76.71429041666667,134.71177542353033L76.81287708333333,135.9225330122969L77.01005041666667,146.46951082758076L77.20722375,135.13126065380553L77.30581041666667,106.44285513190735L77.55227708333334,147.0125446392793L77.60157041666666,161.76638851605048L77.65086375,140.57918640400285L78.04521041666668,143.35724036947082L78.34097041666666,119.67541361484045L78.53814375,150.4083849467821L78.58743708333333,171.9606437133543L78.63673041666668,174.71126138250784L79.08037041666667,169.84430939603303L79.32683708333333,152.36808418422018L80.01694375,122.59645285123035L80.11553041666666,135.38017986961273L81.10139708333334,146.99556168763678L81.15069041666666,134.05233016520046L81.34786375,94.0759245807487L81.39715708333333,91.12701102820387L81.44645041666666,109.01285489039034L82.33373041666667,82.67247810147053L82.58019708333333,81.3679323564878L82.92525041666667,99.56401951139637L82.97454375,130.38219823256415L83.27030375,147.37244218477775L83.36889041666666,85.71729179554683L83.61535708333334,19.02675016125144L83.71394375,61.4627892935282L83.81253041666668,93.63899826788938L84.00970375,108.21263079514526L84.89698374999999,127.99553759497655L84.99557041666667,100.9269505477086L85.09415708333333,94.44580102778289L85.48850375,119.75784516821392L85.63638375,109.51259188944152L86.03073041666666,104.74553473647865L86.17861041666666,88.49648399267456L86.32649041666667,89.18307353922044L86.96730375,138.1654132477541L87.31235708333332,103.17938386631604L87.60811708333334,103.82339150448199L87.80529041666667,123.29717182361813L87.90387708333333,82.11985926177344L87.95317041666667,54.60981037823104L88.24893041666667,-41.85894974107893L88.98833041666667,-6.225010633595046L89.03762375,18.560369443817564L89.18550375,43.382091398193595L89.48126375,43.47005626866471L89.57985041666667,85.9479739505604L89.72773041666667,95.05347732535333L89.87561041666667,103.3409161796053L90.02349041666666,114.97268287121537L90.07278375000001,97.8354219900327L90.96006374999999,151.94785162846784L91.69946374999999,119.87027404928529L92.43886375,106.05675820245935L92.58674375,127.1298722966587L92.63603708333333,147.58806336784815L92.73462375000001,154.54341772117886L92.78391708333334,126.21889359306496L93.81907708333333,118.76240629286292L93.86837041666668,153.0651455541296L94.11483708333334,174.4751852881815L94.26271708333334,118.79511025738155L94.45989041666667,70.27088100428246L94.55847708333333,51.9371044082335L94.75565041666667,86.4877940322692L94.95282375,112.35862872038692L95.14999708333333,109.14573629518989L96.38233041666668,115.59294037712004L96.43162375,94.95738194401494L96.97385041666666,141.04184721717496L97.36819708333334,122.96983613258159L97.41749041666667,136.00370400956606L97.56537041666667,131.62082258350455L97.66395708333333,92.80280170134782L97.71325041666667,108.75933185393855L98.15689041666667,119.58694142803697L98.50194375000001,135.0140530747482L99.24134375,78.66730597509795L99.29063708333334,76.68653070267352L99.43851708333334,50.87537171445079L99.78357041666668,50.49854742289652L100.37509041666667,91.85481082678476L100.62155708333333,135.86605870294952L100.67085041666667,133.0344873641037L100.76943708333334,122.03279387796542L101.11449041666667,100.76719076540842L101.45954375,100.81497621003851L101.50883708333333,100.54639568009416L101.95247708333333,117.91982301520372L102.14965041666667,98.67141046790518L102.24823708333332,101.72003187339446L102.44541041666668,73.2042914247569L102.88905041666666,122.17644963360168L103.23410375,146.84294220028124L103.28339708333334,134.3703075183499L103.52986374999999,104.25817274648358L103.92421041666667,96.69075779675488L104.36785041666667,113.56298821305657L104.41714375000001,96.1111681529011L104.61431708333333,67.66390185762201L104.86078375,101.00731204276532L105.00866375,46.83228143647466L105.10725041666666,110.97046785709354L105.25513041666666,41.64803770278149L105.40301041666666,68.84404360708147L105.60018375,80.44380104217858L105.99453041666666,83.72047116562088L106.38887708333333,68.90106169107176L106.58605041666667,91.40056514574655L106.73393041666667,112.00913095375043L106.78322374999999,90.84952983796681L107.07898375,79.62610774958185L107.12827708333333,138.32568586900265L107.52262375,138.55605366846578L107.71979708333333,156.81779162300026L107.76909041666666,159.07012930042978L107.81838375000001,127.28334974364896L107.91697041666666,122.99860939452921L108.06485041666667,151.58385983151123L108.40990375,99.16703323746876L108.45919708333334,120.13744270935747L108.85354375,57.74710681518968L108.90283708333332,37.38605953741704L109.34647708333334,50.55254808359523L109.54365041666667,36.93520125921475L109.64223708333333,78.62545247778839L109.69153041666668,33.26355655137029L109.79011708333333,86.03044676270083L110.03658374999999,111.72998718909024L110.08587708333334,148.0397342949605L110.18446374999999,147.58143201526974L110.23375708333333,139.83300065432178L110.28305041666667,71.60596933027617L110.52951708333333,76.68985856807537L111.21962375000001,49.298961336829116L111.66326375,92.37527476276031L111.95902375,116.47344461992428L112.30407708333333,41.423528098553675L112.35337041666666,0.33659690826551447L112.79701041666667,13.533067382630179L113.14206375,-41.79800281688184L113.58570375000001,5.0279455556594606L113.73358375000001,78.59017407739896L114.07863708333333,92.33383428957902L114.17722375,138.40474340860155L114.37439708333333,138.09539912667336L114.86733041666668,76.7404323013214L114.91662375,20.16482441375183L115.06450375,85.012190680203L115.31097041666666,116.79217711716721L115.50814375,59.704943988501014L116.14895708333333,52.67118855343994L116.24754375,69.28992416874608L116.29683708333333,70.07058831701303L116.59259708333333,41.78857853799834L116.64189041666667,101.12320949309927L116.69118375,87.44650584264912L116.78977041666667,71.85085428836535L117.47987708333332,108.04241583992598L118.36715708333334,99.59319652467704L118.66291708333334,89.22941625922759L119.00797041666667,96.04225409513616L119.30373041666667,135.83184216312114L119.50090375,91.32114776308266L119.59949041666667,110.55050087174729L119.69807708333333,150.2349246990738L119.99383708333335,84.4951231391464L120.14171708333333,78.34102396435942L120.24030375,116.88517010371329L120.38818375000001,103.15872562027243L120.53606375,128.78280890045326L120.68394375,85.02116639648533L121.12758375000001,93.90130247613584L121.22617041666666,128.37907556260106L121.81769041666666,111.47487680652424L121.86698374999999,121.42444987618143L121.91627708333334,97.00534732057578L122.60638374999999,64.74540371247485L122.80355708333333,79.38655468552325L123.00073041666666,136.75836780505784L123.19790375,114.90783459447269L123.24719708333333,102.25359071792629L123.39507708333333,129.77310474813856L123.49366375,146.7733832842164L123.59225041666666,153.82271174466922L123.98659708333334,142.83950326368998L124.08518375,159.76456469014758L124.23306375,128.51029206344768L124.38094375,76.3517839493113L124.52882375,88.62610418687802L124.62741041666666,87.27666501456821L124.77529041666668,123.24439551981881L124.92317041666666,113.28525034518599L125.71186375,63.59976119954324L126.05691708333333,89.51604215597474L126.30338375000001,107.47433858093835L126.35267708333333,114.25032914267311L126.40197041666666,145.5756417547842L126.50055708333333,126.75931680412171L126.54985041666667,130.94139654762196L126.64843708333332,92.32489137248187L126.74702375,82.48478086230749L126.94419708333334,70.56340956352706L127.14137041666666,111.36909117497535L127.38783708333332,137.630384243712L127.48642375,96.86126124691083L127.83147708333334,110.80769159693192L127.93006375,129.41824838101067L127.97935708333333,143.43048327314375L128.22582375000002,91.61636796681594L128.42299708333334,57.27859324865646L128.66946375,72.25345575006668L128.76805041666668,101.87383391375458L128.81734375,131.2629630679793L129.31027708333332,100.11197915762111L129.35957041666668,73.65742778235342L129.55674375,40.67456416758102L129.70462375,42.85432460589528L129.85250374999998,54.193946520586714L129.90179708333335,41.1066741943955L130.04967708333334,35.806459617650475L130.09897041666667,116.27176913740394L130.19755708333332,148.66630559636448L130.44402374999999,59.32785991116342L130.49331708333335,106.57667400410165L130.83837041666666,95.52188864928713L130.88766375,129.42479634035962L131.08483708333333,141.8267799839338L131.18342375,122.42345856576917L131.28201041666668,124.7935324606285L131.47918375,41.66809335333023L131.97211708333333,33.01005019534775L132.07070375,68.0855646478483L132.16929041666666,18.628389569958994L132.21858375,57.11288789084017L132.41575708333335,79.53060237866917L132.56363708333333,63.41635546864437L132.95798375,76.77736903298718L133.15515708333334,88.16129666011823L133.84526375,106.51608103180702L134.04243708333334,81.5383248428391L134.14102375000002,102.1782237112455L134.38749041666668,154.82021752714707L134.43678375,166.0587874395823L134.53537041666667,156.70181070227474L134.6339570833333,138.37137071167857L134.68325041666668,140.5630988590445L134.78183708333333,125.43447739556582L134.88042375,137.85087303325625L134.92971708333334,140.49623596671276L135.27477041666668,116.23036849500568L135.42265041666667,118.70884115697044L135.66911708333333,139.53876857281386L136.26063708333334,150.44256885242856L136.45781041666666,155.9027599775338L136.60569041666668,146.8761196782317L137.09862375,162.89156579077996L137.39438375,123.37971944272971L137.44367708333334,110.61061011946474L137.54226375000002,114.89645659444496L137.69014375,110.02415020178418L137.83802375,119.32940110510978L137.88731708333333,116.51539235679145L137.93661041666667,33.11838801722428L138.42954375,69.92735424054086L138.47883708333333,69.36737312324297L138.52813041666667,20.38663347630174L138.62671708333332,28.99732127230449L139.21823708333332,42.40682353044202L139.26753041666666,-21.795618978353478L139.31682375,4.535606403820435L139.36611708333334,29.863757431312056L139.76046374999999,53.526700389268214L140.20410375,111.54421094172132L141.04209041666667,146.82695033021528L141.73219708333335,169.1231647125945L141.92937041666667,142.84674180698784L141.97866375,176.32708595485923L142.07725041666666,181.6822793858733L142.47159708333334,188.0979038940362L142.57018375,162.7730857888753L142.76735708333334,145.33756716012329L143.26029041666666,147.85644616460425L143.65463708333334,163.58164957628026L143.70393041666668,174.50677234807836L144.24615708333334,123.60847644137873L144.64050375,166.38631780223568L144.93626375000002,157.18784966037583L144.98555708333333,114.72960776070303L145.08414375,140.09179540860384L145.18273041666666,88.18532932035761L145.42919708333332,96.83688147206688L146.36577041666666,55.79995088183634L146.66153041666666,-3.949302313305455L146.71082374999997,-21.16663739536856L147.20375708333336,23.63791171637385L147.30234375,75.96136965708261L147.45022375,95.39836443875032L147.49951708333333,106.24091742881417L147.54881041666667,52.33867677717372L148.04174375,50.2631458322344L148.09103708333333,119.14814562083114L148.23891708333332,50.26136509466662L148.53467708333332,61.3293436043769L148.78114375,70.90552385290323L148.87973041666666,81.28121752524291L148.97831708333334,79.07519108643481L149.07690375,86.94161790961236L149.52054375,118.42550722571735L149.71771708333333,97.55152454264476L149.91489041666668,98.77107356958098L150.01347708333333,82.27000860555475L150.16135708333331,86.42656796087924L150.60499708333336,65.0947499806291L150.65429041666667,107.41190627423563L150.85146375,132.82523004536412L151.14722375,76.99344334795822L151.24581041666667,62.12351599809379L151.83733041666667,59.93913569138554L151.88662375,64.49645794681376L151.93591708333332,89.8164624527196L151.98521041666666,84.50155721635221L152.13309041666668,107.35677568036674L152.33026375,154.45502133320787L152.62602375,141.52604653329263L152.67531708333334,103.84434820348388L152.82319708333333,52.21814323147752L153.21754374999998,50.76176476884256L153.46401041666667,89.02563891654238L153.61189041666665,130.72362447884694L153.75977041666667,115.82888847057234L153.80906375,96.79651969351893L154.10482375,110.25640817689013L154.20341041666666,121.85850188855595L154.4991704166667,131.34443749025027L154.64705041666667,109.71637051722143L154.7949304166667,129.10085950744593L154.84422375,146.44432517559792L155.04139708333332,184.07451582355182L155.97797041666666,149.84770298244285L156.17514375,110.28024749899942L156.27373041666667,124.74197261896755L156.52019708333333,80.36946774343863L156.76666375000002,29.08610115540156L157.40747708333333,14.609152758670643L157.60465041666666,41.790858915181644L157.75253041666664,105.86811242743237L158.49193041666666,123.74883376505318L159.03415708333335,159.06240231362784L159.08345041666666,165.74110082726364L159.23133041666665,121.60352184737133L159.52709041666668,150.38407503583676L159.87214375,110.35593730818417L159.92143708333333,60.15835608608238L159.97073041666667,33.76960872153469L160.02002374999998,14.999943104624922L160.06931708333332,-34.85382594630708L160.11861041666668,-39.67250808456892L160.51295708333333,32.35863485110188L161.64670375,99.06162484987011L161.69599708333334,134.7318948298897L161.74529041666668,133.5298579329375L162.09034375000002,123.47888830865162L162.63257041666665,102.39195639827692L162.73115708333333,104.89891867005136L163.32267708333333,121.3408526668746L163.37197041666667,132.6971503788113L163.51985041666666,133.76880235039465L163.61843708333333,139.32809821703L163.66773041666667,136.3864069458125L163.76631708333332,146.86119025208225L164.7028904166667,76.47019868646663L164.94935708333333,80.99592946502327L165.09723708333334,119.28182815630888L165.24511708333333,144.14459247064386L165.68875708333334,132.09322387380476L165.73805041666665,130.9699933910553L166.03381041666665,113.06948945428039L166.13239708333333,109.65469482842151L166.18169041666664,125.36524140419404L166.47745041666667,131.8367078994622L166.62533041666669,136.13701419203937L166.67462375,154.21094639402307L166.92109041666666,128.82176112712426L167.01967708333333,145.05419454324846L167.11826375,124.44036880343322L167.26614375,86.5209944677899L167.70978374999999,106.25297544196543L167.95625041666668,106.94366587278422L168.05483708333333,125.02300904439198L168.10413041666666,132.3822768583674L168.15342375,100.37000656454435L168.69565041666667,50.09469165997907L169.18858375,-0.9874381625818831L169.58293041666664,55.11153576349213L170.42091708333334,72.62527316555375L170.76597041666665,46.607853566080315L170.81526375,41.407432171386475L170.96314375,55.28123374741193L171.45607708333333,66.3540852305944L171.75183708333333,29.948793759206218L171.94901041666668,68.45239250079351L172.19547708333332,14.468297149035694L172.29406375,89.72160905915104L172.39265041666667,117.62041918228627L172.49123708333335,76.45195045346355L172.58982375,127.55059222146473L172.78699708333335,108.73859383919599L172.83629041666666,116.0762069359944L172.98417041666667,117.17821021887815L173.27993041666667,109.66133887775631L173.37851708333332,94.47943262581761L173.52639708333334,105.92570440962751L173.92074375,119.71150241491102L174.01933041666666,116.73136855481212L174.06862375,122.26199332069243L174.11791708333334,133.97852901930145L174.51226375,47.01732428261357L175.25166375,97.13959149949979L175.35025041666665,124.86457879801533L175.44883708333333,70.69746679937803L175.54742375,119.9139658145664L175.64601041666666,129.71343047216877L176.08965041666664,107.84714187857716L176.28682375,97.67319935367826L176.92763708333334,124.05088339928581L177.12481041666666,61.43315035512327L178.06138375,87.67959436422751L178.80078375000002,25.66086197284563L178.85007708333333,87.28857951395335L179.1458370833333,96.04329598565471L179.19513041666667,52.69322612654911L179.29371708333335,81.48731381161066L179.44159708333333,74.6927177814427L179.68806375,87.7934949343075L179.83594374999998,69.56134266523537L179.88523708333332,109.52928969185363L179.98382375,71.70701549602039L180.77251708333336,102.7164314159899L181.11757041666667,85.91376473719771L181.31474375,86.41654898056323L181.65979708333333,83.49708677130302L181.70909041666667,128.46194835184428L182.05414375,130.289539406767L182.20202375,132.92764639262586L183.38506375,24.256584402347976L183.53294375000002,25.6495917775782L183.87799708333333,65.04586211076688L184.0258770833333,69.57487282294817L184.07517041666665,86.40619450294248L184.17375708333336,109.50639027049108L184.22305041666667,98.30207463318087L184.56810375,74.76293003686655L184.66669041666668,71.40636260586017L185.20891708333332,67.84823088215012L185.45538375,87.920726420678L185.89902375,83.58176114690144L185.99761041666665,109.51049200613404L186.09619708333335,72.99632110547485L186.29337041666665,48.68244728059449L186.4412504166667,122.04408140546604L187.08206375,133.25624916295126L187.1313570833333,152.43461278283547L187.18065041666668,77.75534927370519L187.47641041666665,94.45692403031809L187.87075708333333,81.2629925186242L188.16651708333333,140.55260118095907L188.21581041666667,111.68311481624147L188.26510374999998,97.11633480161011L188.46227708333333,85.86417992454518L188.70874375000002,52.33257579530327L189.0537970833333,51.64469470813902L189.44814374999999,105.92533167740723L189.64531708333334,78.63062358225001L189.8424904166667,27.75731949999698L189.94107708333334,3.1885797798321738L190.23683708333334,54.21404136536636L190.38471708333333,37.11514681171248L190.48330375,64.53360205644888L190.58189041666665,47.05829104038791L190.68047708333333,28.63569541128109L190.82835708333334,48.20783383459825L191.07482375,48.61070398575651L191.66634374999998,96.91536724619023L191.91281041666667,101.65554788143609L192.15927708333334,151.7145444538067L193.04655708333334,158.75150184547127L193.24373041666666,137.2804787440015L193.39161041666668,150.91662556427198L193.63807708333331,169.03981050549436L193.93383708333332,131.43705063282542L193.98313041666665,101.55139492284708L194.18030375,106.54314583737522L194.27889041666666,97.22754155515948L194.57465041666666,40.00491902184086L194.62394375,57.35414274306055L194.91970375,65.810859440392L195.26475708333334,86.91157717622858L195.56051708333334,116.09001709888902L195.70839708333332,143.41416078728753L196.00415708333335,66.23522857381293L196.54638375,90.45379373761051L196.64497041666667,126.38223450977823L196.99002375,78.09674583434594L197.13790375000002,39.03429738616662L197.28578375,55.421653890226565L197.38437041666666,66.15954102493183L197.63083708333335,69.23668683419737L198.41953041666667,29.06189296752286L198.51811708333332,38.49792832201761L198.56741041666666,72.446195710099L198.76458375,68.69938666128893L198.81387708333332,55.1869610220419L199.01105041666668,102.1201132816211L199.10963708333333,143.32320799125048L199.40539708333336,162.69315393980037L199.45469041666666,159.84907746443565L199.79974375,126.3692059047783L200.39126375,160.8663209633687L200.63773041666667,167.89950363377685L200.78561041666666,191.42471022927734L201.22925041666664,191.5075929851769L201.27854375,142.4123796398305L201.57430374999998,97.08293746559994L201.62359708333332,117.76490739970912L202.31370375,97.14772055142824L202.51087708333336,117.44769853111328L202.60946375,149.3085940465702L202.70805041666665,140.85532120379048L202.85593041666667,109.06369063563487L203.00381041666665,150.796583779498L203.44745041666667,104.39318750372175L203.74321041666667,142.50821975511695L203.84179708333332,176.91304967190257L204.38402375,139.4685526691999L204.43331708333335,74.61909585017716L204.72907708333335,53.72794802676891L205.07413041666666,75.06796245390925L206.25717041666667,75.00954730877133L206.40505041666665,111.29025702219519L206.55293041666667,95.92210982168504L206.65151708333335,139.1441548700618L207.68667708333334,151.69225092145723L207.83455708333335,132.6116626942928L208.03173041666665,117.68338917999121L208.08102374999999,53.24304284637363L208.13031708333332,65.65359653225656L208.42607708333333,65.70503843540618L208.57395708333334,85.73177969881695L208.67254375000002,110.31242816703794L209.11618375,121.5659465852814L209.31335708333336,134.5052658118866L209.46123708333334,151.12981811750308L209.70770375,182.69985117666945L210.10205041666669,190.58346160741462L210.29922374999998,156.76280327136408L210.39781041666666,126.20031339821271L210.49639708333333,82.53246392546328L211.13721041666665,113.26575044237515L211.23579708333335,87.95837604667511L211.38367708333334,110.32302748957733L211.97519708333334,159.6966144788233L212.17237041666667,96.9487510054092L212.41883708333333,53.43292648367765L212.51742375,101.1351057933133L213.01035708333333,62.890592589757496L213.10894375,69.24167309688428L213.20753041666669,51.23611351541819L213.84834375,35.62561376507365L214.14410375,77.78736061820555L214.63703708333335,110.55367810111741L214.88350375,73.9564912234634L215.22855708333333,89.05000872104704L215.37643708333331,82.3617726009449L215.47502375000002,86.67398561485771L216.46089041666664,77.0902058449278L216.51018374999998,106.08336087267934L216.55947708333335,121.03149120927657L216.80594374999998,117.34542375159741L216.90453041666666,150.36804946275043L217.20029041666666,173.8322166920393L217.39746375000001,196.20890867237387L217.79181041666666,146.70520941927518L217.84110375,98.08149986573747L218.0875704166667,133.0631318396848L218.13686375,112.91793205180892L218.33403708333333,97.69955435895399L218.87626375000002,138.79028196038888L219.17202375,144.6859998875981L219.46778375,148.17617217148097L219.61566375,80.63298926022499L220.15789041666667,102.31639061729223L220.35506375000003,118.84509731745788L220.55223708333332,91.06534238705675L220.65082375,119.14022328883195L220.89729041666666,138.9516098644125L221.09446375,163.32055560027285L221.34093041666665,158.17269234224992L221.58739708333334,153.85643007972737L221.78457041666667,151.246399799698L221.83386374999998,171.23959379179087L221.93245041666668,147.48529165257696L222.37609041666667,118.9652880744319L222.42538375,88.10172876812106L222.96761041666664,107.2597534245079L223.06619708333335,78.64515087520033L223.11549041666666,115.99119513937801L223.46054375,127.67448507373915L223.55913041666668,82.94881602898468L223.60842375,124.26716239914435L223.65771708333332,149.087471149356L223.70701041666666,154.82788637995174L223.90418375000002,136.54419896435408L224.00277041666666,174.78010557551184L225.08722375,148.63058480297923L225.23510374999998,128.42695393964885L225.92521041666666,142.60186747792505L226.17167708333335,116.93977839996305L226.22097041666666,147.66299323588544L226.31955708333334,152.70158155173024L226.71390375,139.01675734168268L226.96037041666668,74.8249359205125L227.30542375000002,77.44954462496985L228.68563708333332,75.1779687145266L229.03069041666666,66.65315612190443L229.57291708333335,100.49516210575986L229.81938375,82.1466038323646L230.26302375,41.910374027324046L230.31231708333334,16.51324540485878L230.80525041666667,54.12123316591945L230.85454375,1.6501216057894648L230.90383708333331,56.72793860220659L231.00242375,62.22742382874338L231.10101041666667,64.10785846823602L231.19959708333334,129.38539093085618L231.24889041666665,34.14927616923149L231.29818375,71.4463413668221L231.39677041666667,54.67137213424124L232.28405041666667,93.39890940115022L232.5305170833333,74.64389047101238L232.77698375,62.44119706794679L232.92486375000001,75.37243880656398L233.07274375,64.78437465326209L233.3192104166667,89.7745378130449L233.86143708333333,105.91700702391701L234.30507708333332,120.45888036181113L234.45295708333336,43.069367180404576L234.50225041666667,78.51838718064876L234.94589041666669,76.02968951587825L235.2416504166667,98.75863526180356L235.98105041666668,25.54874385544634L236.03034375000001,95.6615992376147L236.32610375,117.39693846636645L236.52327708333334,92.1623072524883L236.67115708333333,104.05900706648931L236.96691708333333,135.54895938515727L237.06550374999998,108.37196882414857L237.50914375000002,120.25389189629576L237.70631708333332,89.24083897536292L238.00207708333335,114.17886779943281L238.24854374999998,80.67675713443263L238.54430374999998,56.81411244716348L238.74147708333334,-17.94250863643828L238.98794375,18.587351549551855L239.3329970833333,-5.800219876238145L239.53017041666666,49.60974005301688L239.97381041666668,75.3353507723802L240.12169041666667,57.51245046892126L240.71321041666667,57.441249044170156L241.05826375,66.62207774605167L241.20614375,32.04365871122964L241.30473041666664,22.624675260612275L241.35402375,88.09407619633015L241.55119708333334,28.017811226831306L241.60049041666664,27.018528037063128L241.64978374999998,93.67292407321443L242.24130375000001,96.1597378919572L242.53706375000002,56.53944777667825L242.58635708333333,19.457219500662703L242.68494375,4.751547848774101L242.93141041666667,49.57918235992974L242.98070375,30.13972266516437L243.12858375,78.22696084977001L243.42434375,67.71037981033808L243.62151708333334,-48.23248411941236L243.96657041666666,-25.462540779874992L244.45950375,7.193009856721L244.75526375,-2.5045161227105774L244.95243708333334,23.01059026839025L245.10031708333332,31.797140904198166L245.49466374999997,47.45191354032163L245.59325041666668,97.51788074061753L246.23406375,97.48002880981855L246.43123708333334,79.93692685467774L246.48053041666665,75.98798323454126L247.41710375000002,110.81658840645352L247.46639708333333,115.22278967183232L247.61427708333332,110.47055668044923L247.95933041666666,81.5081371927788L248.05791708333334,46.974211386712234L248.45226375,64.28765345327368L248.5508504166667,98.72925148434823L248.60014375,100.55495420710673L249.2409570833333,79.94281348953503L249.33954375000002,83.34311385971223L249.38883708333336,95.88761069787688L249.78318375,113.57446400173393L249.83247708333334,103.87499256043367L249.98035708333333,89.68219320242844L250.07894375,55.881340266855034L250.52258375000002,94.66532149409738L250.67046375,75.35315388736419L250.76905041666666,39.120416464193376L250.86763708333334,65.95161856519204L251.45915708333334,87.64270118061916L252.29714374999998,99.315106601621L252.54361041666667,87.63826993173674L253.03654375,104.78590623775908L253.33230375,126.6098259463298L253.67735708333333,89.51725550737308L253.97311708333334,131.4720822110553L254.07170375,155.75515842049L254.26887708333334,130.24895581965848L254.61393041666665,99.2882530770612L254.66322375000001,135.10666800033522L254.71251708333335,142.28821554476903L255.20545041666668,159.71115073379806L255.99414375,190.9372077036913L256.2406104166667,191.59218583399155L256.4870770833333,98.600143920744L256.73354375,121.51502152166636L256.78283708333333,126.03975145746392L256.88142375,59.98758149581624L257.02930375,71.45528073571607L257.5222370833333,62.40529372371724L257.7194104166667,82.6098071698993L257.76870375,57.783918283262814L258.06446374999996,69.65417369716106L258.2616370833333,48.036260512547116L258.3109304166667,35.899217550204064L258.7052770833333,90.19347034945837L258.80386375,57.23830358418674L258.8531570833334,53.350048304992015L258.9024504166667,63.26927189910239L259.00103708333336,83.79254162838355L259.14891708333334,113.94135806876598L259.19821041666665,83.06814717005598L259.24750375,134.32867831439322L259.29679708333333,64.38433810741033L259.4939704166667,64.31595118445354L259.5925570833333,49.122195146096935L259.74043708333335,13.356518114574698L259.78973041666666,29.10623531637661L259.83902375,50.42795770822805L259.88831708333333,55.17708035384916L259.98690375,54.859437299223565L260.13478375,89.02345399406661L260.1840770833333,109.02689635960527L260.47983708333334,129.4606970084206L260.77559708333337,73.87507924631213L260.87418375,119.32626610514505L261.02206375,50.37680118988145L261.61358375000003,70.87101718014593L262.0079304166667,-5.431938527666819L262.05722375,-21.185940765525864L262.10651708333336,41.47283714819791L262.40227708333333,61.73634186869169L262.74733041666667,51.334232374938125L262.99379708333333,92.94101374442089L263.3388504166667,102.54981513675871L263.53602375,129.39556500826373L263.78249041666663,100.70193804212867L263.97966375,137.8038083369044L264.27542375,116.53719346848176L264.3740104166667,130.19495259003068L264.5218904166667,130.62801586554187L264.76835708333334,102.59917079785903" style="fill: none;" fill="none"></path></g></g></g></g><g opacity="0.2"><g><g><g><path stroke="rgb(255, 112, 67)" stroke-width="2px" d="M29.195517083333332,-50.870321750640855L29.343397083333333,10.973063945770257L29.392690416666667,-46.76020193099974L30.378557083333334,-6.913021564483629L31.019370416666664,88.74114537239073L31.561597083333336,114.0174651145935L31.808063750000002,66.44509434700012L31.95594375,187.93851613998413L32.39958375,80.52955675125122L32.44887708333333,41.095543384552L32.94181041666667,110.15106487274169L33.18827708333333,184.2214479446411L33.28686375,118.83919095993043L33.33615708333333,119.2995798587799L33.533330416666665,23.02712535858155L33.927677083333336,50.627952575683594L34.32202375,150.03697085380554L34.37131708333334,164.05669832229614L34.61778375,67.33036780357361L35.160010416666665,106.69310522079466L35.45577041666667,78.2170341014862L35.70223708333333,44.51307535171509L35.85011708333334,182.9577100276947L36.441637083333326,29.88371133804322L36.737397083333335,89.64896774291994L36.98386375,246.35173094272614L37.131743750000005,68.57722568511963L37.32891708333334,162.7601990699768L37.52609041666667,206.64682817459106L37.62467708333333,189.1811399459839L38.56125041666667,65.58678674697876L38.80771708333333,164.04377102851868L38.85701041666667,101.63175320625304L39.10347708333333,184.65487098693848L39.34994375,163.2557406425476L39.448530416666664,183.9541174173355L39.842877083333335,84.61131811141968L39.892170416666666,108.31464362144469L40.23722375,29.538345813751228L40.43439708333333,133.14482402801514L40.87803708333333,108.79168748855592L41.272383749999996,172.64624500274658L42.06107708333333,170.22110438346863L42.25825041666667,84.31511569023132L42.55401041666667,105.22537207603455L42.75118375,70.39637303352356L42.84977041666667,200.8832596540451L44.92009041666666,153.21497511863708L44.96938375,51.67918491363525L45.06797041666667,101.4831385612488L45.36373041666666,14.607363700866706L45.80737041666667,208.2799575328827L45.905957083333334,93.83952093124391L45.955250416666665,99.26625537872314L46.103130416666666,108.2416093349457L46.39889041666667,117.66138648986818L46.84253041666667,159.90195894241333L46.99041041666666,127.86166834831238L47.03970375,77.42402410507202L47.532637083333334,129.38696241378784L48.37062375,78.76732325553894L48.46921041666667,110.03590083122252L49.159317083333335,86.90033531188965L49.405783750000005,194.93644428253174L49.50437041666667,33.27536058425903L49.65225041666667,99.24100565910341L50.04659708333333,130.16129183769226L50.34235708333333,136.31867861747742L50.440943749999995,108.1852581501007L50.58882375,243.09565299749374L50.88458375,121.31224274635316L51.13105041666667,219.91610443592072L51.62398375,116.64397048950194L51.91974375,129.17520236968994L52.21550375,75.97616720199585L52.412677083333335,69.3019700050354L52.70843708333333,79.25713968276978L52.80702375,138.22146654129028L52.85631708333334,111.22459292411803L52.95490375,97.5053722858429L53.05349041666667,119.11519360542297L53.10278375,141.0212173461914L53.34925041666667,135.1377091407776L53.398543749999995,166.52852630615234L53.84218375,93.59167981147768L54.13794375,61.666933059692376L54.23653041666667,104.61522912979127L54.48299708333334,99.417866230011L54.729463749999994,182.1903154850006L54.82805041666666,83.18696665763855L55.41957041666667,178.3379819393158L55.76462375,81.39789390563965L55.81391708333334,116.01004076004027L55.91250375,27.79930830001831L56.01109041666667,221.67994856834412L56.06038375,69.91491222381592L56.15897041666666,184.15804934501648L56.75049041666667,77.17781472206116L56.898370416666666,131.7373104095459L57.09554375,57.16134214401246L57.243423750000005,59.37717032432556L57.39130375,124.62748169898988L57.58847708333333,155.0143587589264L57.63777041666667,189.5633602142334L57.83494375,150.9373378753662L58.08141041666667,76.61877608299255L58.13070375,157.21371483802795L58.62363708333333,76.96917748451233L58.82081041666667,53.036424160003655L58.96869041666667,214.537091255188L59.36303708333333,121.81218719482423L59.56021041666666,204.92250442504883L59.806677083333334,197.0295124053955L60.151730416666666,31.5281925201416L60.44749041666666,111.34088230133057L60.54607708333333,155.74139595031738L60.59537041666667,121.28268861770628L60.79254375,165.39403319358826L60.98971708333333,102.82054376602174L61.13759708333334,156.72413754463196L61.186890416666664,236.56168669462204L61.23618375,114.02518773078918L61.433357083333334,79.35524082183838L61.87699708333333,81.9270408153534L62.07417041666666,19.437248229980476L62.12346375,1.8948683738708496L62.17275708333333,65.30687355995178L62.27134375000001,99.71194458007811L62.32063708333333,106.74532079696657L62.61639708333333,128.84740614891052L62.813570416666664,195.8010959625244L62.86286375,154.92551350593567L62.96145041666667,86.31700348854065L63.060037083333334,175.7930634021759L63.20791708333333,189.89885795116425L63.257210416666666,158.72910594940186L63.30650375,124.95906186103821L63.355797083333336,180.7726527452469L63.50367708333333,114.0927782058716L63.70085041666666,91.26305079460144L63.94731708333333,184.1839953660965L63.99661041666667,175.46281957626343L64.04590375,181.0169631242752L64.34166375,118.78071570396423L65.17965041666666,169.9984426498413L65.37682375,68.27358198165894L65.47541041666666,191.76532566547394L65.72187708333334,113.7447681427002L66.90491708333333,41.060798645019524L67.00350375,211.43695318698883L67.24997041666667,85.13611841201782L67.34855708333333,61.09581112861633L67.54573041666667,30.11685276031494L67.64431708333333,103.32133221626283L68.03866375,88.54035735130309L68.33442375,71.97046446800232L68.53159708333334,124.64014172554018L68.87665041666666,154.21037673950195L68.97523708333334,163.95143723487854L69.27099708333333,121.73605823516847L69.36958375,200.05196714401245L69.51746375,49.29268550872802L69.56675708333333,47.838836193084724L69.66534375,148.16237258911133L70.05969041666667,51.96389484405518L70.10898375000001,150.13443899154663L70.25686375,130.43969988822937L70.60191708333333,231.65019071102142L70.74979708333333,157.41394019126892L71.19343708333334,107.44563126564027L71.39061041666666,19.73821926116944L71.53849041666668,157.27989864349365L71.58778375,109.3804771900177L72.03142375,167.4554512500763L72.08071708333333,126.36156773567201L72.27789041666666,160.21122932434082L72.32718375,30.352272987365716L72.37647708333334,26.230787277221687L72.42577041666667,71.29588198661804L72.62294375,208.7952698469162L72.82011708333333,184.0734452009201L72.86941041666667,70.21728992462158L73.26375708333333,234.15331709384918L73.46093041666666,143.365797996521L73.55951708333333,150.70125651359558L73.65810375,125.92135047912598L73.70739708333333,159.62874150276184L74.15103708333334,235.4064838886261L74.29891708333334,121.89963984489441L74.69326375,166.10874795913696L74.79185041666666,153.41601634025574L74.98902374999999,136.80693364143372L75.03831708333334,102.30748915672302L75.28478375,200.96348202228546L75.62983708333334,72.97277283668518L76.17206375,97.10402131080626L76.27065041666667,142.65049242973328L76.56641041666667,133.63140511512756L76.71429041666667,143.9257791042328L76.81287708333333,137.73866939544678L77.01005041666667,162.2899775505066L77.20722375,118.12388539314269L77.30581041666667,63.410246849060066L77.55227708333334,207.86707890033722L77.60157041666666,183.89715433120728L77.65086375,108.79838323593138L78.04521041666668,147.52432131767273L78.34097041666666,84.1526734828949L78.53814375,196.50784194469452L78.63673041666668,178.8371878862381L79.08037041666667,162.5438814163208L79.32683708333333,126.15374636650085L80.01694375,77.9390058517456L80.11553041666666,154.55577039718628L81.10139708333334,164.41863441467285L81.15069041666666,114.637482881546L81.34786375,34.11131620407105L81.39715708333333,86.7036406993866L81.44645041666666,135.84162068367004L82.33373041666667,43.16191291809082L82.58019708333333,79.41111373901367L82.92525041666667,126.85815024375916L82.97454375,176.6094663143158L83.27030375,172.85780811309814L83.36889041666666,-6.7654337882995605L83.61535708333334,-81.00906229019165L83.71394375,125.11684799194336L83.81253041666668,141.90331172943115L84.00970375,130.07307958602905L84.89698374999999,157.6698977947235L84.99557041666667,60.32406997680665L85.09415708333333,84.72407674789429L85.48850375,157.72591137886047L85.63638375,94.14471197128297L86.03073041666666,97.59494900703432L86.17861041666666,64.12290787696838L86.32649041666667,90.21295785903929L86.96730375,211.6389228105545L87.31235708333332,50.70033979415894L87.60811708333334,104.78940296173096L87.80529041666667,152.5078423023224L87.90387708333333,20.35389041900634L87.95317041666667,13.344737052917488L88.24893041666667,-186.56208992004397L88.74186375000001,29.6645803451538L88.98833041666667,4.311779975891107L89.03762375,55.73843955993653L89.18550375,80.61467432975769L89.48126375,43.60200357437133L89.57985041666667,149.66485047340393L89.72773041666667,108.71173238754272L89.87561041666667,115.77207446098326L90.02349041666666,132.42033290863037L90.07278375000001,72.12953066825867L90.96006374999999,233.1164960861206L91.69946374999999,71.75390768051147L92.43886375,85.33648443222046L92.58674375,158.73954343795776L92.63603708333333,178.27534997463226L92.73462375000001,164.97644925117493L92.78391708333334,83.73210740089417L93.81907708333333,107.57767534255983L93.86837041666668,204.51925444602966L94.11483708333334,206.59024488925934L94.26271708333334,35.27499771118163L94.45989041666667,-2.515462875366211L94.55847708333333,24.436439514160163L94.75565041666667,138.31382846832275L94.95282375,151.16488075256348L95.14999708333333,104.3263976573944L96.38233041666668,125.26374650001526L96.43162375,64.0040442943573L96.97385041666666,210.16854512691498L97.36819708333334,95.86181950569151L97.41749041666667,155.55450582504272L97.56537041666667,125.04650044441223L97.66395708333333,34.5757703781128L97.71325041666667,132.6941270828247L98.15689041666667,135.82835578918457L98.50194375000001,158.15472054481506L99.24134375,-5.852814674377441L99.29063708333334,73.71536779403687L99.43851708333334,12.158633232116692L99.78357041666668,49.93331098556519L100.37509041666667,153.8892059326172L100.62155708333333,201.88293051719666L100.67085041666667,128.78713035583496L100.76943708333334,105.53025364875795L101.11449041666667,68.86878609657288L101.45954375,100.88665437698364L101.50883708333333,100.1435248851776L101.95247708333333,143.97996401786804L102.14965041666667,69.7987916469574L102.24823708333332,106.2929639816284L102.44541041666668,30.43068075180053L102.88905041666666,195.6346869468689L103.23410375,183.8426810503006L103.28339708333334,115.6613554954529L103.52986374999999,59.08997058868409L103.92421041666667,85.33963537216187L104.36785041666667,138.87133383750916L104.41714375000001,69.93343806266785L104.61431708333333,24.99300241470337L104.86078375,151.02242732048035L105.00866375,-34.43026447296141L105.25513041666666,-62.33560752868652L105.40301041666666,109.63805246353151L105.60018375,97.84343719482422L105.99453041666666,88.63547635078429L106.38887708333333,46.67194747924805L106.58605041666667,125.14982032775877L106.73393041666667,142.92197966575623L106.78322374999999,59.11012816429138L107.07898375,62.79097461700439L107.12827708333333,226.37505304813385L107.52262375,138.90160536766052L107.71979708333333,184.21039855480194L107.76909041666666,162.4486358165741L107.81838375000001,79.60318040847778L107.91697041666666,116.57149887084961L108.06485041666667,194.46173548698425L108.40990375,20.541793346405036L108.45919708333334,151.59305691719055L108.85354375,-35.838397026062L108.90283708333332,6.844488620758063L109.34647708333334,70.30228090286255L109.54365041666667,16.509181022644043L109.64223708333333,141.1608293056488L109.69153041666668,-34.779287338256836L109.79011708333333,165.18078207969666L110.03658374999999,150.27929782867432L110.08587708333334,202.50435495376587L110.18446374999999,146.89397859573364L110.23375708333333,128.21035361289978L110.28305041666667,-30.734577655792236L110.52951708333333,84.31569242477417L111.21962375000001,8.212615489959724L111.66326375,156.9897449016571L111.95902375,152.62069940567017L112.30407708333333,-71.15134668350218L112.35337041666666,-61.29379987716676L112.79701041666667,33.327773094177246L113.14206375,-124.7946081161499L113.58570375000001,75.26686811447144L113.73358375000001,188.93351686000824L114.07863708333333,112.94932460784914L114.17722375,207.51110708713531L114.37439708333333,137.63138270378113L114.86733041666668,-15.29201793670653L115.06450375,182.28324007987976L115.31097041666666,164.46215677261353L115.50814375,-25.925905704498305L116.14895708333333,42.120555400848396L116.24754375,94.21802759170532L116.29683708333333,71.24158453941345L116.59259708333333,-0.6344361305236816L116.64189041666667,190.12515592575073L116.69118375,66.93145036697388L116.78977041666667,48.45737695693969L117.47987708333332,162.32975816726685L118.36715708333334,86.91936755180359L118.66291708333334,73.68374586105347L119.00797041666667,106.26151084899902L119.30373041666667,195.51622426509857L119.50090375,24.55510616302491L119.59949041666667,139.39453053474426L119.69807708333333,209.76156044006348L119.99383708333335,-14.114579200744629L120.14171708333333,69.10987520217896L120.24030375,174.70138931274414L120.38818375000001,82.56905889511108L120.53606375,167.2189338207245L120.68394375,19.378702640533447L121.12758375000001,107.22150659561159L121.22617041666666,180.0957351922989L121.81769041666666,86.11857867240906L121.86698374999999,136.34880948066711L121.91627708333334,60.376693487167366L122.60638374999999,16.355488300323486L122.80355708333333,101.34828114509583L123.00073041666666,222.81608748435974L123.19790375,82.13203477859497L123.24719708333333,83.27222490310669L123.39507708333333,171.05237579345703L123.49366375,172.27380108833313L123.59225041666666,164.3967044353485L123.98659708333334,126.36469054222108L124.08518375,185.15215682983398L124.23306375,81.62888312339783L124.38094375,-1.8859782218932974L124.52882375,107.03758454322814L124.62741041666666,85.25250625610352L124.77529041666668,177.1959912776947L124.92317041666666,98.34653258323671L125.71186375,-10.928472518920898L126.05691708333333,128.39046359062195L126.30338375000001,134.4117832183838L126.35267708333333,124.41431498527525L126.40197041666666,192.56361067295074L126.50055708333333,98.53482937812807L126.54985041666667,137.21451616287231L126.64843708333332,34.400133609771736L126.74702375,67.7246150970459L126.94419708333334,52.68135261535644L127.14137041666666,172.57761359214783L127.38783708333332,177.02232384681702L127.48642375,35.70757675170899L127.83147708333334,131.7273371219635L127.93006375,157.3340835571289L127.97935708333333,164.44883561134338L128.22582375000002,13.895195007324226L128.42299708333334,5.7719311714172425L128.66946375,94.71574950218199L128.76805041666668,146.3044011592865L128.81734375,175.3466567993164L129.31027708333332,53.38550329208373L129.35957041666668,33.97560071945191L129.55674375,-8.799731254577637L129.70462375,46.12396526336669L129.85250374999998,71.2033793926239L129.90179708333335,21.47576570510865L130.04967708333334,27.856137752532952L130.09897041666667,236.96973341703415L130.49331708333335,177.4498951435089L130.83837041666666,78.93971061706543L130.88766375,180.27915787696838L131.08483708333333,160.42975544929504L131.18342375,93.31847643852235L131.28201041666668,128.34864330291748L131.47918375,-83.02006530761719L131.97211708333333,20.02298545837403L132.07070375,120.69883632659912L132.16929041666666,-55.557373046875014L132.21858375,114.83963537216188L132.41575708333335,113.1571741104126L132.56363708333333,39.24498510360718L132.95798375,96.81888937950136L133.15515708333334,105.23718810081482L133.84526375,134.0482575893402L134.04243708333334,44.0716905593872L134.14102375000002,133.13807201385498L134.38749041666668,233.78320825099945L134.43678375,182.91664230823517L134.53537041666667,142.66634559631348L134.6339570833333,110.8757107257843L134.68325041666668,143.85069108009338L134.78183708333333,102.74154520034791L134.88042375,156.47546648979187L134.92971708333334,144.46428036689758L135.27477041666668,79.83156728744507L135.42265041666667,122.4265501499176L135.66911708333333,170.78365969657898L136.26063708333334,166.7982692718506L136.45781041666666,164.09304666519165L136.60569041666668,133.33615922927856L137.09862375,186.91473495960236L137.39438375,64.1119499206543L137.44367708333334,91.45694613456727L137.54226375000002,121.32522630691527L137.69014375,102.71569061279297L137.83802375,133.28727746009827L137.88731708333333,112.29437923431398L137.93661041666667,-91.97711849212646L138.42954375,125.14080357551576L138.47883708333333,68.52740144729614L138.52813041666667,-53.08447599411009L138.62671708333332,41.9133529663086L139.21823708333332,62.521076917648315L139.26753041666666,-118.09928274154662L139.31682375,44.03244447708129L139.36611708333334,67.85598397254944L139.76046374999999,89.0211148262024L140.20410375,198.570476770401L141.73219708333335,202.56748628616333L141.92937041666667,103.4321074485779L141.97866375,226.54760217666626L142.47159708333334,197.72134065628052L142.57018375,124.78585863113405L142.76735708333334,119.18428921699523L143.26029041666666,151.63476467132568L143.65463708333334,187.16945469379425L143.70393041666668,190.89445650577545L144.24615708333334,47.26103258132935L144.64050375,230.55307984352112L144.93626375000002,143.39014744758606L144.98555708333333,51.042244911193855L145.08414375,178.13507688045502L145.18273041666666,10.325630187988274L145.42919708333332,109.81420969963074L146.36577041666666,-5.755445003509535L146.71082374999997,-46.99264001846312L147.20375708333336,90.84473538398741L147.30234375,154.44655656814575L147.45022375,124.55385661125183L147.49951708333333,122.50474691390991L147.54881041666667,-28.514684200286865L148.04174375,47.14984941482543L148.09103708333333,222.4756453037262L148.23891708333332,-53.06880569458008L148.53467708333332,77.93131136894226L148.78114375,85.26979422569275L148.87973041666666,96.84475803375246L148.97831708333334,75.76615142822266L149.07690375,98.74125814437865L149.52054375,165.65134119987488L149.71771708333333,66.24055051803589L149.91489041666668,100.60039710998537L150.01347708333333,57.518411159515374L150.16135708333331,92.66140699386595L150.60499708333336,33.097023010253906L150.65429041666667,170.88764071464539L150.85146375,170.94521570205688L151.14722375,-6.754236698150648L151.24581041666667,39.818624973297126L151.83733041666667,56.66256523132324L151.88662375,71.33244132995605L151.93591708333332,127.79646921157837L151.98521041666666,76.52919936180115L152.13309041666668,141.63960337638855L152.33026375,225.10238981246948L152.62602375,122.1325843334198L152.67531708333334,47.32180070877076L152.82319708333333,-25.221164226531997L153.21754374999998,48.57719707489014L153.46401041666667,146.42145013809204L153.61189041666665,193.27060282230377L153.75977041666667,93.4867844581604L153.80906375,68.24796652793884L154.10482375,130.44624090194702L154.20341041666666,139.2616424560547L154.4991704166667,145.57334089279175L154.64705041666667,77.27427005767822L154.7949304166667,158.1775929927826L154.84422375,172.45952367782593L155.04139708333332,240.51980179548264L155.97797041666666,98.50748372077943L156.17514375,50.929064273834236L156.27373041666667,146.43456029891968L156.52019708333333,13.81071043014527L156.76666375000002,-47.83894872665405L157.40747708333333,-7.106269836425795L157.60465041666666,82.56341814994812L157.75253041666664,201.9839926958084L158.49193041666666,150.56991577148438L159.03415708333335,212.03275513648987L159.08345041666666,175.75914859771729L159.23133041666665,55.39715337753296L159.52709041666668,193.55490481853485L159.87214375,50.31373071670532L159.92143708333333,-15.138015747070312L160.11861041666668,-46.900531291961684L160.51295708333333,140.40534925460815L161.64670375,199.11610984802246L161.69599708333334,188.23729979991913L161.74529041666668,131.72680258750916L162.09034375000002,108.40243387222291L162.63257041666665,70.76155853271484L162.73115708333333,108.65936207771301L163.32267708333333,146.00375366210938L163.37197041666667,149.7315969467163L163.51985041666666,135.37628030776978L163.61843708333333,147.66704201698303L163.66773041666667,131.9738700389862L163.76631708333332,162.57336521148682L164.7028904166667,-29.116288661956787L164.94935708333333,87.78452563285828L165.09723708333334,176.7106761932373L165.24511708333333,181.4387389421463L165.68875708333334,114.01617097854613L165.73805041666665,129.28514766693115L166.03381041666665,86.21873354911804L166.13239708333333,104.53250288963316L166.18169041666664,148.93106126785278L166.47745041666667,141.5439076423645L166.62533041666669,142.58747363090515L166.67462375,181.3218446969986L166.92109041666666,90.73798322677614L167.01967708333333,169.4028446674347L167.11826375,93.51963019371031L167.26614375,29.64193296432495L167.70978374999999,135.85094690322876L167.95625041666668,107.97970151901244L168.05483708333333,152.1420238018036L168.10413041666666,143.42117857933044L168.15342375,52.35160112380981L168.69565041666667,-25.318280696868896L169.18858375,-77.61063289642335L169.58293041666664,139.25999665260315L170.42091708333334,98.89587926864623L170.76597041666665,7.581724166870123L170.81526375,33.6068000793457L170.96314375,76.0919361114502L171.45607708333333,82.96336245536804L171.75183708333333,-24.65914344787599L171.94901041666668,126.20779061317445L172.19547708333332,-66.50784587860107L172.29406375,202.60157692432404L172.39265041666667,159.46863436698914L172.49123708333335,14.699247360229485L172.58982375,204.1985548734665L172.78699708333335,80.52059626579285L172.83629041666666,127.082626581192L172.98417041666667,118.83121514320375L173.27993041666667,98.38603186607362L173.37851708333332,71.70657324790955L173.52639708333334,123.09511208534242L173.92074375,140.3901994228363L174.01933041666666,112.26116776466371L174.06862375,130.55793046951294L174.11791708333334,151.55333256721497L174.51226375,-83.4244828224182L175.25166375,172.3229923248291L175.35025041666665,166.45205974578857L175.44883708333333,-10.553201198577868L175.54742375,193.73871433734894L175.64601041666666,144.4126274585724L176.08965041666664,75.0477089881897L176.28682375,82.41228556632996L176.92763708333334,163.61740946769714L177.12481041666666,-32.49344921112059L178.06138375,127.04926037788393L178.80078375000002,-67.36723661422731L178.85007708333333,179.73015582561493L179.1458370833333,109.1753706932068L179.19513041666667,-12.331878662109375L179.29371708333335,124.67844533920287L179.44159708333333,64.5008237361908L179.68806375,107.44466066360475L179.83594374999998,42.21311426162719L179.88523708333332,169.481210231781L179.98382375,14.973604202270508L180.77251708333336,149.2305552959442L181.11757041666667,60.7097647190094L181.31474375,87.17072534561157L181.65979708333333,79.11789345741272L181.70909041666667,195.90924072265625L182.05414375,133.030925989151L182.20202375,136.88480687141418L183.38506375,-138.75000858306885L183.53294375000002,27.73910284042359L183.87799708333333,124.14026761054991L184.0258770833333,76.36838889122009L184.07517041666665,111.65317702293395L184.17375708333336,144.15668392181396L184.22305041666667,81.49560117721558L184.56810375,39.45421314239502L184.66669041666668,66.37151145935059L185.20891708333332,62.51103329658508L185.45538375,118.02946972846985L185.89902375,77.07331323623657L185.99761041666665,148.4035882949829L186.09619708333335,18.225064754486077L186.29337041666665,12.211636543273919L186.4412504166667,232.08653259277344L187.08206375,150.07450079917908L187.1313570833333,181.20215821266174L187.18065041666668,-34.26354598999025L187.47641041666665,119.50928616523744L187.87075708333333,61.47209525108337L188.16651708333333,229.48701417446136L188.21581041666667,68.37888526916504L188.26510374999998,75.26616477966309L188.46227708333333,68.98594760894775L188.70874375000002,2.035169601440423L189.0537970833333,50.61287307739257L189.44814374999999,187.3462871313095L189.64531708333334,37.68856143951416L189.8424904166667,-48.55263662338257L189.94107708333334,-33.66452980041504L190.23683708333334,130.7522337436676L190.38471708333333,11.466804981231682L190.48330375,105.66128492355348L190.58189041666665,20.845324516296387L190.68047708333333,1.0018019676208563L190.82835708333334,77.56604146957397L191.07482375,49.2150092124939L191.66634374999998,169.37236213684082L191.91281041666667,108.76581883430482L192.15927708333334,226.80303931236267L193.04655708333334,169.30693793296814L193.24373041666666,105.07394409179689L193.39161041666668,171.37084579467773L193.63807708333331,196.22458791732788L193.93383708333332,75.03291082382202L193.98313041666665,56.72291135787964L194.18030375,114.03077220916747L194.27889041666666,83.25413513183594L194.57465041666666,-45.82901477813719L194.62394375,83.37797832489014L194.91970375,78.49593448638916L195.26475708333334,118.56265377998353L195.56051708333334,159.85767698287964L195.70839708333332,184.40037631988525L196.00415708333335,-49.53316974639891L196.54638375,126.78164148330688L196.64497041666667,180.27489566802979L196.99002375,5.6685128211975035L197.13790375000002,-19.55937528610228L197.28578375,80.00268864631653L197.38437041666666,82.26637172698975L197.63083708333335,73.8524055480957L198.41953041666667,-31.200297832489014L198.51811708333332,52.65198135375976L198.56741041666666,123.36859679222106L198.76458375,63.07917308807373L198.81387708333332,34.91832256317138L199.01105041666668,172.51984167099L199.10963708333333,205.12785005569458L199.40539708333336,191.74807286262512L199.45469041666666,155.58296275138855L199.79974375,76.14939856529236L200.39126375,212.61199355125427L201.22925041666664,191.63191711902618L201.27854375,68.76955962181091L201.57430374999998,29.08877420425415L201.62359708333332,148.7878623008728L202.31370375,66.22194027900696L202.51087708333336,147.89766550064087L202.60946375,197.09993731975555L202.70805041666665,128.17541193962097L202.85593041666667,61.376244783401496L203.00381041666665,213.39592349529266L203.44745041666667,34.788093090057366L203.74321041666667,199.68076813220978L203.84179708333332,228.520294547081L204.38402375,83.30180716514587L204.43331708333335,-22.65508937835692L204.72907708333335,22.391226291656487L205.07413041666666,107.07798409461977L206.25717041666667,74.92192459106445L206.40505041666665,165.71132159233093L206.55293041666667,72.8698890209198L206.65151708333335,203.97722244262695L207.68667708333334,170.51439499855042L207.83455708333335,103.99078035354613L208.03173041666665,95.2909789085388L208.08102374999999,-43.417476654052734L208.13031708333332,84.26942706108093L208.42607708333333,65.78220129013062L208.57395708333334,115.7718915939331L208.67254375000002,147.1834008693695L209.11618375,138.44622421264648L209.31335708333336,153.91424465179443L209.46123708333334,176.06664657592773L209.70770375,230.054900765419L210.10205041666669,202.4088772535324L210.29922374999998,106.03181576728821L210.39781041666666,80.35657858848572L210.49639708333333,17.03068971633911L211.13721041666665,159.36568021774292L211.23579708333335,49.997314453125L211.38367708333334,143.87000465393066L211.97519708333334,233.75699496269226L212.17237041666667,2.8269557952880926L212.41883708333333,-11.840810298919665L212.51742375,172.68837475776672L213.01035708333333,5.523822784423828L213.10894375,78.76829385757446L213.20753041666669,24.227774143218987L213.84834375,12.209864139556878L214.14410375,141.02998089790344L214.63703708333335,159.70315432548523L214.88350375,19.060710906982415L215.22855708333333,111.6902849674225L215.37643708333331,72.32941842079163L215.47502375000002,93.14230513572693L216.46089041666664,62.714536190032966L216.51018374999998,149.57309341430664L216.55947708333335,143.45368671417236L216.80594374999998,111.81632256507872L216.90453041666666,199.90198802947998L217.39746375000001,229.77394664287567L217.79181041666666,72.44966053962708L217.84110375,25.145935535430908L218.0875704166667,185.53557980060577L218.13686375,82.70013236999512L218.33403708333333,74.87198781967163L218.87626375000002,200.4263733625412L219.17202375,153.52957677841187L219.46778375,153.4114305973053L219.61566375,-20.68178510665895L220.15789041666667,134.84149265289307L220.35506375000003,143.6381573677063L220.55223708333332,49.39570999145508L220.65082375,161.25254464149475L220.89729041666666,168.6686897277832L221.09446375,199.87397420406342L221.34093041666665,150.45089745521545L221.58739708333334,147.3820366859436L221.78457041666667,147.33135437965393L221.83386374999998,201.22938477993011L221.93245041666668,111.85383844375609L222.37609041666667,76.18528270721436L222.42538375,41.80638980865478L222.96761041666664,135.99679040908813L223.06619708333335,35.72324705123901L223.11549041666666,172.01026153564453L223.46054375,145.19941997528076L223.55913041666668,15.860312461853027L223.60842375,186.24468195438385L223.65771708333332,186.31793427467346L223.70701041666666,163.43850922584534L223.90418375000002,109.11866784095764L224.00277041666666,232.13396549224854L225.08722375,109.4063036441803L225.23510374999998,98.1215076446533L225.92521041666666,163.86423778533936L226.17167708333335,78.44664478302002L226.22097041666666,193.74781548976898L226.31955708333334,160.25946402549744L226.71390375,118.48952102661134L226.96037041666668,-21.462796211242676L227.30542375000002,81.38645768165588L228.68563708333332,71.7706048488617L229.03069041666666,53.8659372329712L229.57291708333335,151.25817108154297L229.81938375,54.623766422271736L230.26302375,-18.443970680236816L230.31231708333334,-21.582447528839097L230.80525041666667,110.53321480751038L230.85454375,-77.05654573440553L230.90383708333331,139.34466409683228L231.00242375,70.47665166854858L231.10101041666667,66.92851042747498L231.19959708333334,227.30168962478638L231.24889041666665,-108.70489597320557L231.29818375,127.39193916320801L231.39677041666667,29.508918285369873L232.28405041666667,151.49021530151367L232.5305170833333,46.51136207580566L232.77698375,44.13715696334839L232.92486375000001,94.76930141448973L233.07274375,48.90227842330933L233.3192104166667,127.2597825527191L233.86143708333333,130.13071084022522L234.30507708333332,142.27169036865234L234.45295708333336,-73.01490259170531L234.50225041666667,131.69191718101501L234.94589041666669,72.29664301872253L235.2416504166667,132.85205388069153L235.98105041666668,-84.26609325408937L236.03034375000001,200.8308823108673L236.32610375,149.99994730949402L236.52327708333334,54.310360431671135L236.67115708333333,121.90405678749086L236.96691708333333,182.78388786315918L237.06550374999998,67.6064829826355L237.50914375000002,138.0767765045166L237.70631708333332,42.72125959396362L238.00207708333335,151.58591103553772L238.24854374999998,30.423591136932366L238.54430374999998,21.02014541625976L238.74147708333334,-130.07744026184082L238.98794375,73.38214182853699L239.3329970833333,-42.38157701492311L239.53017041666666,132.7246799468994L239.97381041666668,113.92376685142519L240.12169041666667,30.778100013732917L240.71321041666667,57.334446907043464L241.05826375,80.3933207988739L241.20614375,-19.823969841003404L241.30473041666664,8.496200084686286L241.35402375,186.29817759990692L241.55119708333334,-62.09658622741699L241.60049041666664,25.51960325241088L241.64978374999998,193.6545181274414L242.24130375000001,99.88995862007143L242.53706375000002,-2.8909873962402477L242.68494375,-17.306959629058852L242.93141041666667,116.82063412666322L242.98070375,0.980533123016364L243.12858375,150.35781812667847L243.42434375,51.93550825119018L243.62151708333334,-222.14678001403806L243.96657041666666,8.692374229431152L244.45950375,56.17633581161499L244.75526375,-17.050805091857924L244.95243708333334,61.2832498550415L245.10031708333332,44.97696685791015L245.49466374999997,70.93407249450684L245.59325041666668,172.6168315410614L246.23406375,97.42325091362L246.43123708333334,53.62227392196656L246.48053041666665,70.06456780433655L247.41710375000002,163.0594961643219L247.46639708333333,121.8320915699005L247.61427708333332,103.34220719337462L247.95933041666666,38.064507961273186L248.05791708333334,-4.826677322387695L248.45226375,90.25781655311583L248.5508504166667,150.39164853096008L248.60014375,103.29350829124449L249.2409570833333,49.02460241317749L249.33954375000002,88.44356441497803L249.38883708333336,114.7043559551239L249.78318375,140.10474395751953L249.83247708333334,89.32578539848326L249.98035708333333,68.39299416542053L250.07894375,5.180060863494873L250.52258375000002,152.84129333496094L250.67046375,46.384902477264404L250.76905041666666,-15.228689670562757L250.86763708333334,106.19842171669006L251.45915708333334,120.17932510375975L252.29714374999998,116.8237147331238L252.54361041666667,70.1230149269104L253.03654375,130.5073606967926L253.33230375,159.3457055091858L253.67735708333333,33.87839984893799L253.97311708333334,194.40432226657867L254.07170375,192.17977273464203L254.26887708333334,91.98965191841125L254.61393041666665,52.847198963165276L254.66322375000001,188.83429038524628L254.71251708333335,153.06053686141968L255.20545041666668,185.8455535173416L256.4870770833333,-40.8879189491272L256.73354375,155.88733792304993L256.78283708333333,132.82684636116028L256.88142375,-39.09067344665526L257.02930375,88.65682959556578L257.5222370833333,48.830313205718994L257.7194104166667,112.91657733917238L257.76870375,20.545084953308113L258.06446374999996,87.45955681800842L258.2616370833333,15.60939073562622L258.3109304166667,17.693653106689453L258.7052770833333,171.63484954833984L258.80386375,7.805553436279303L258.8531570833334,47.517665386199944L258.9024504166667,78.14810729026794L259.00103708333336,114.57744622230531L259.14891708333334,159.1645827293396L259.19821041666665,36.75833082199096L259.24750375,211.21947503089905L259.29679708333333,-40.532172203063965L259.4939704166667,64.21337080001831L259.5925570833333,26.33156108856202L259.74043708333335,-40.291997432708754L259.78973041666666,52.73081111907958L259.83902375,82.41054129600525L259.88831708333333,62.30076432228089L259.98690375,54.38297271728516L260.13478375,140.26947903633118L260.1840770833333,139.0320599079132L260.47983708333334,160.11139798164368L260.77559708333337,-9.503347396850574L261.02206375,-53.04739618301393L261.61358375000003,101.61234116554259L262.0079304166667,-119.88637208938597L262.05722375,-44.81694412231447L262.10651708333336,135.46100401878357L262.40227708333333,92.13159894943239L262.74733041666667,35.73106813430786L262.99379708333333,155.35118579864502L263.3388504166667,116.96301722526552L263.53602375,169.66418981552124L263.78249041666663,57.66149759292603L263.97966375,193.456613779068L264.27542375,84.63727116584778L264.3740104166667,150.68159127235413L264.5218904166667,131.2776107788086L264.76835708333334,60.55590319633484" style="fill: none;" fill="none"></path></g></g></g></g></g></g><g transform="translate(41, 177)" clip-path="url(#clip_1)"><clipPath id="clip_1"><rect width="288" height="23"></rect></clipPath><g><g><line x1="0" y1="0" x2="0" y2="5" style="visibility: inherit;" fill="rgb(0, 0, 0)" stroke="rgb(204, 204, 204)" stroke-width="1px"></line><line x1="24.069010416666664" y1="0" x2="24.069010416666664" y2="5" style="visibility: inherit;" fill="rgb(0, 0, 0)" stroke="rgb(204, 204, 204)" stroke-width="1px"></line><line x1="48.13802083333333" y1="0" x2="48.13802083333333" y2="5" style="visibility: inherit;" fill="rgb(0, 0, 0)" stroke="rgb(204, 204, 204)" stroke-width="1px"></line><line x1="72.20703125" y1="0" x2="72.20703125" y2="5" style="visibility: inherit;" fill="rgb(0, 0, 0)" stroke="rgb(204, 204, 204)" stroke-width="1px"></line><line x1="96.27604166666666" y1="0" x2="96.27604166666666" y2="5" style="visibility: inherit;" fill="rgb(0, 0, 0)" stroke="rgb(204, 204, 204)" stroke-width="1px"></line><line x1="120.34505208333334" y1="0" x2="120.34505208333334" y2="5" style="visibility: inherit;" fill="rgb(0, 0, 0)" stroke="rgb(204, 204, 204)" stroke-width="1px"></line><line x1="144.4140625" y1="0" x2="144.4140625" y2="5" style="visibility: inherit;" fill="rgb(0, 0, 0)" stroke="rgb(204, 204, 204)" stroke-width="1px"></line><line x1="168.48307291666669" y1="0" x2="168.48307291666669" y2="5" style="visibility: inherit;" fill="rgb(0, 0, 0)" stroke="rgb(204, 204, 204)" stroke-width="1px"></line><line x1="192.55208333333331" y1="0" x2="192.55208333333331" y2="5" style="visibility: inherit;" fill="rgb(0, 0, 0)" stroke="rgb(204, 204, 204)" stroke-width="1px"></line><line x1="216.62109375" y1="0" x2="216.62109375" y2="5" style="visibility: inherit;" fill="rgb(0, 0, 0)" stroke="rgb(204, 204, 204)" stroke-width="1px"></line><line x1="240.69010416666669" y1="0" x2="240.69010416666669" y2="5" style="visibility: inherit;" fill="rgb(0, 0, 0)" stroke="rgb(204, 204, 204)" stroke-width="1px"></line><line x1="264.7591145833333" y1="0" x2="264.7591145833333" y2="5" style="visibility: inherit;" fill="rgb(0, 0, 0)" stroke="rgb(204, 204, 204)" stroke-width="1px"></line><line x1="288.828125" y1="0" x2="288.828125" y2="5" style="visibility: inherit;" fill="rgb(0, 0, 0)" stroke="rgb(204, 204, 204)" stroke-width="1px"></line></g><g transform="translate(0, 8)"><text x="0" y="0" dx="0em" dy="0.95em" style="text-anchor: middle; visibility: hidden; font-family: Roboto, sans-serif; font-size: 12px; font-weight: 200;" fill="rgb(33, 33, 33)" stroke="none" stroke-width="1px">-1M</text><text x="24.069010416666664" y="0" dx="0em" dy="0.95em" style="text-anchor: middle; visibility: inherit; font-family: Roboto, sans-serif; font-size: 12px; font-weight: 200;" fill="rgb(33, 33, 33)" stroke="none" stroke-width="1px">0</text><text x="48.13802083333333" y="0" dx="0em" dy="0.95em" style="text-anchor: middle; visibility: hidden; font-family: Roboto, sans-serif; font-size: 12px; font-weight: 200;" fill="rgb(33, 33, 33)" stroke="none" stroke-width="1px">1M</text><text x="72.20703125" y="0" dx="0em" dy="0.95em" style="text-anchor: middle; visibility: inherit; font-family: Roboto, sans-serif; font-size: 12px; font-weight: 200;" fill="rgb(33, 33, 33)" stroke="none" stroke-width="1px">2M</text><text x="96.27604166666666" y="0" dx="0em" dy="0.95em" style="text-anchor: middle; visibility: hidden; font-family: Roboto, sans-serif; font-size: 12px; font-weight: 200;" fill="rgb(33, 33, 33)" stroke="none" stroke-width="1px">3M</text><text x="120.34505208333334" y="0" dx="0em" dy="0.95em" style="text-anchor: middle; visibility: inherit; font-family: Roboto, sans-serif; font-size: 12px; font-weight: 200;" fill="rgb(33, 33, 33)" stroke="none" stroke-width="1px">4M</text><text x="144.4140625" y="0" dx="0em" dy="0.95em" style="text-anchor: middle; visibility: hidden; font-family: Roboto, sans-serif; font-size: 12px; font-weight: 200;" fill="rgb(33, 33, 33)" stroke="none" stroke-width="1px">5M</text><text x="168.48307291666669" y="0" dx="0em" dy="0.95em" style="text-anchor: middle; visibility: inherit; font-family: Roboto, sans-serif; font-size: 12px; font-weight: 200;" fill="rgb(33, 33, 33)" stroke="none" stroke-width="1px">6M</text><text x="192.55208333333331" y="0" dx="0em" dy="0.95em" style="text-anchor: middle; visibility: hidden; font-family: Roboto, sans-serif; font-size: 12px; font-weight: 200;" fill="rgb(33, 33, 33)" stroke="none" stroke-width="1px">7M</text><text x="216.62109375" y="0" dx="0em" dy="0.95em" style="text-anchor: middle; visibility: inherit; font-family: Roboto, sans-serif; font-size: 12px; font-weight: 200;" fill="rgb(33, 33, 33)" stroke="none" stroke-width="1px">8M</text><text x="240.69010416666669" y="0" dx="0em" dy="0.95em" style="text-anchor: middle; visibility: hidden; font-family: Roboto, sans-serif; font-size: 12px; font-weight: 200;" fill="rgb(33, 33, 33)" stroke="none" stroke-width="1px">9M</text><text x="264.7591145833333" y="0" dx="0em" dy="0.95em" style="text-anchor: middle; visibility: inherit; font-family: Roboto, sans-serif; font-size: 12px; font-weight: 200;" fill="rgb(33, 33, 33)" stroke="none" stroke-width="1px">10M</text><text x="288.828125" y="0" dx="0em" dy="0.95em" style="text-anchor: middle; visibility: hidden; font-family: Roboto, sans-serif; font-size: 12px; font-weight: 200;" fill="rgb(33, 33, 33)" stroke="none" stroke-width="1px">11M</text></g><line x1="0" y1="0" x2="288.828125" y2="0" fill="rgb(0, 0, 0)" stroke="rgb(204, 204, 204)" stroke-width="1px"></line></g></g></g></g></svg>