<svg viewBox="0 0 330 200" xmlns="http://www.w3.org/2000/svg"><g><g><g><g><g><line x1="61.953125" y1="177" x2="56.953125" y2="177" style="visibility: inherit;" fill="rgb(0, 0, 0)" stroke="rgb(204, 204, 204)" stroke-width="1px"></line><line x1="61.953125" y1="159.29999999999998" x2="56.953125" y2="159.29999999999998" style="visibility: inherit;" fill="rgb(0, 0, 0)" stroke="rgb(204, 204, 204)" stroke-width="1px"></line><line x1="61.953125" y1="141.59999999999997" x2="56.953125" y2="141.59999999999997" style="visibility: inherit;" fill="rgb(0, 0, 0)" stroke="rgb(204, 204, 204)" stroke-width="1px"></line><line x1="61.953125" y1="123.89999999999998" x2="56.953125" y2="123.89999999999998" style="visibility: inherit;" fill="rgb(0, 0, 0)" stroke="rgb(204, 204, 204)" stroke-width="1px"></line><line x1="61.953125" y1="106.19999999999996" x2="56.953125" y2="106.19999999999996" style="visibility: inherit;" fill="rgb(0, 0, 0)" stroke="rgb(204, 204, 204)" stroke-width="1px"></line><line x1="61.953125" y1="88.49999999999996" x2="56.953125" y2="88.49999999999996" style="visibility: inherit;" fill="rgb(0, 0, 0)" stroke="rgb(204, 204, 204)" stroke-width="1px"></line><line x1="61.953125" y1="70.80000000000004" x2="56.953125" y2="70.80000000000004" style="visibility: inherit;" fill="rgb(0, 0, 0)" stroke="rgb(204, 204, 204)" stroke-width="1px"></line><line x1="61.953125" y1="53.10000000000003" x2="56.953125" y2="53.10000000000003" style="visibility: inherit;" fill="rgb(0, 0, 0)" stroke="rgb(204, 204, 204)" stroke-width="1px"></line><line x1="61.953125" y1="35.40000000000001" x2="56.953125" y2="35.40000000000001" style="visibility: inherit;" fill="rgb(0, 0, 0)" stroke="rgb(204, 204, 204)" stroke-width="1px"></line><line x1="61.953125" y1="17.700000000000017" x2="56.953125" y2="17.700000000000017" style="visibility: inherit;" fill="rgb(0, 0, 0)" stroke="rgb(204, 204, 204)" stroke-width="1px"></line><line x1="61.953125" y1="0" x2="56.953125" y2="0" style="visibility: inherit;" fill="rgb(0, 0, 0)" stroke="rgb(204, 204, 204)" stroke-width="1px"></line></g><g transform="translate(51.953125, 0)"><text x="0" y="177" dx="0em" dy="0.3em" style="text-anchor: end; visibility: hidden; font-family: Roboto, sans-serif; font-size: 12px; font-weight: 200;" fill="rgb(33, 33, 33)" stroke="none" stroke-width="1px">-0.4</text><text x="0" y="159.29999999999998" dx="0em" dy="0.3em" style="text-anchor: end; visibility: inherit; font-family: Roboto, sans-serif; font-size: 12px; font-weight: 200;" fill="rgb(33, 33, 33)" stroke="none" stroke-width="1px">-0.39</text><text x="0" y="141.59999999999997" dx="0em" dy="0.3em" style="text-anchor: end; visibility: hidden; font-family: Roboto, sans-serif; font-size: 12px; font-weight: 200;" fill="rgb(33, 33, 33)" stroke="none" stroke-width="1px">-0.38</text><text x="0" y="123.89999999999998" dx="0em" dy="0.3em" style="text-anchor: end; visibility: inherit; font-family: Roboto, sans-serif; font-size: 12px; font-weight: 200;" fill="rgb(33, 33, 33)" stroke="none" stroke-width="1px">-0.37</text><text x="0" y="106.19999999999996" dx="0em" dy="0.3em" style="text-anchor: end; visibility: hidden; font-family: Roboto, sans-serif; font-size: 12px; font-weight: 200;" fill="rgb(33, 33, 33)" stroke="none" stroke-width="1px">-0.36</text><text x="0" y="88.49999999999996" dx="0em" dy="0.3em" style="text-anchor: end; visibility: inherit; font-family: Roboto, sans-serif; font-size: 12px; font-weight: 200;" fill="rgb(33, 33, 33)" stroke="none" stroke-width="1px">-0.35</text><text x="0" y="70.80000000000004" dx="0em" dy="0.3em" style="text-anchor: end; visibility: hidden; font-family: Roboto, sans-serif; font-size: 12px; font-weight: 200;" fill="rgb(33, 33, 33)" stroke="none" stroke-width="1px">-0.34</text><text x="0" y="53.10000000000003" dx="0em" dy="0.3em" style="text-anchor: end; visibility: inherit; font-family: Roboto, sans-serif; font-size: 12px; font-weight: 200;" fill="rgb(33, 33, 33)" stroke="none" stroke-width="1px">-0.33</text><text x="0" y="35.40000000000001" dx="0em" dy="0.3em" style="text-anchor: end; visibility: hidden; font-family: Roboto, sans-serif; font-size: 12px; font-weight: 200;" fill="rgb(33, 33, 33)" stroke="none" stroke-width="1px">-0.32</text><text x="0" y="17.700000000000017" dx="0em" dy="0.3em" style="text-anchor: end; visibility: inherit; font-family: Roboto, sans-serif; font-size: 12px; font-weight: 200;" fill="rgb(33, 33, 33)" stroke="none" stroke-width="1px">-0.31</text><text x="0" y="0" dx="0em" dy="0.3em" style="text-anchor: end; visibility: hidden; font-family: Roboto, sans-serif; font-size: 12px; font-weight: 200;" fill="rgb(33, 33, 33)" stroke="none" stroke-width="1px">-0.3</text></g><line x1="61.953125" y1="0" x2="61.953125" y2="177" fill="rgb(0, 0, 0)" stroke="rgb(204, 204, 204)" stroke-width="1px"></line></g></g><g transform="translate(61, 0)" clip-path="url(#clip_0)"><clipPath id="clip_0"><rect width="268" height="177"></rect></clipPath><g><g><g><line x1="0" y1="0" x2="0" y2="177" fill="rgb(0, 0, 0)" stroke="rgb(66, 66, 66)" stroke-width="1px" opacity="0.25"></line><line x1="22.337239583333332" y1="0" x2="22.337239583333332" y2="177" fill="rgb(0, 0, 0)" stroke="rgb(66, 66, 66)" stroke-width="1px" opacity="0.25"></line><line x1="44.674479166666664" y1="0" x2="44.674479166666664" y2="177" fill="rgb(0, 0, 0)" stroke="rgb(66, 66, 66)" stroke-width="1px" opacity="0.25"></line><line x1="67.01171875" y1="0" x2="67.01171875" y2="177" fill="rgb(0, 0, 0)" stroke="rgb(66, 66, 66)" stroke-width="1px" opacity="0.25"></line><line x1="89.34895833333333" y1="0" x2="89.34895833333333" y2="177" fill="rgb(0, 0, 0)" stroke="rgb(66, 66, 66)" stroke-width="1px" opacity="0.25"></line><line x1="111.68619791666667" y1="0" x2="111.68619791666667" y2="177" fill="rgb(0, 0, 0)" stroke="rgb(66, 66, 66)" stroke-width="1px" opacity="0.25"></line><line x1="134.0234375" y1="0" x2="134.0234375" y2="177" fill="rgb(0, 0, 0)" stroke="rgb(66, 66, 66)" stroke-width="1px" opacity="0.25"></line><line x1="156.36067708333334" y1="0" x2="156.36067708333334" y2="177" fill="rgb(0, 0, 0)" stroke="rgb(66, 66, 66)" stroke-width="1px" opacity="0.25"></line><line x1="178.69791666666666" y1="0" x2="178.69791666666666" y2="177" fill="rgb(0, 0, 0)" stroke="rgb(66, 66, 66)" stroke-width="1px" opacity="0.25"></line><line x1="201.03515625" y1="0" x2="201.03515625" y2="177" fill="rgb(0, 0, 0)" stroke="rgb(66, 66, 66)" stroke-width="1px" opacity="0.25"></line><line x1="223.37239583333334" y1="0" x2="223.37239583333334" y2="177" fill="rgb(0, 0, 0)" stroke="rgb(66, 66, 66)" stroke-width="1px" opacity="0.25"></line><line x1="245.70963541666666" y1="0" x2="245.70963541666666" y2="177" fill="rgb(0, 0, 0)" stroke="rgb(66, 66, 66)" stroke-width="1px" opacity="0.25"></line><line x1="268.046875" y1="0" x2="268.046875" y2="177" fill="rgb(0, 0, 0)" stroke="rgb(66, 66, 66)" stroke-width="1px" opacity="0.25"></line></g><g><line x1="0" y1="177" x2="268.046875" y2="177" fill="rgb(0, 0, 0)" stroke="rgb(66, 66, 66)" stroke-width="1px" opacity="0.25"></line><line x1="0" y1="159.29999999999998" x2="268.046875" y2="159.29999999999998" fill="rgb(0, 0, 0)" stroke="rgb(66, 66, 66)" stroke-width="1px" opacity="0.25"></line><line x1="0" y1="141.59999999999997" x2="268.046875" y2="141.59999999999997" fill="rgb(0, 0, 0)" stroke="rgb(66, 66, 66)" stroke-width="1px" opacity="0.25"></line><line x1="0" y1="123.89999999999998" x2="268.046875" y2="123.89999999999998" fill="rgb(0, 0, 0)" stroke="rgb(66, 66, 66)" stroke-width="1px" opacity="0.25"></line><line x1="0" y1="106.19999999999996" x2="268.046875" y2="106.19999999999996" fill="rgb(0, 0, 0)" stroke="rgb(66, 66, 66)" stroke-width="1px" opacity="0.25"></line><line x1="0" y1="88.49999999999996" x2="268.046875" y2="88.49999999999996" fill="rgb(0, 0, 0)" stroke="rgb(66, 66, 66)" stroke-width="1px" opacity="0.25"></line><line x1="0" y1="70.80000000000004" x2="268.046875" y2="70.80000000000004" fill="rgb(0, 0, 0)" stroke="rgb(66, 66, 66)" stroke-width="1px" opacity="0.25"></line><line x1="0" y1="53.10000000000003" x2="268.046875" y2="53.10000000000003" fill="rgb(0, 0, 0)" stroke="rgb(66, 66, 66)" stroke-width="1px" opacity="0.25"></line><line x1="0" y1="35.40000000000001" x2="268.046875" y2="35.40000000000001" fill="rgb(0, 0, 0)" stroke="rgb(66, 66, 66)" stroke-width="1px" opacity="0.25"></line><line x1="0" y1="17.700000000000017" x2="268.046875" y2="17.700000000000017" fill="rgb(0, 0, 0)" stroke="rgb(66, 66, 66)" stroke-width="1px" opacity="0.25"></line><line x1="0" y1="0" x2="268.046875" y2="0" fill="rgb(0, 0, 0)" stroke="rgb(66, 66, 66)" stroke-width="1px" opacity="0.25"></line></g></g></g><g><g><line x1="0" y1="-530.9999999999999" x2="268.046875" y2="-530.9999999999999" fill="rgb(0, 0, 0)" stroke="rgb(153, 153, 153)" stroke-width="1.5px"></line></g></g><g><g><line x1="22.337239583333332" y1="0" x2="22.337239583333332" y2="177" fill="rgb(0, 0, 0)" stroke="rgb(153, 153, 153)" stroke-width="1.5px"></line></g></g><g><g><g><g><g><path stroke="rgb(255, 112, 67)" stroke-width="2px" d="M33.13345291666666,188.9142187676968L33.27069291666667,168.18922156497698L33.81965291666666,161.056812100442L34.094132916666666,175.92671160271215L34.32286625,196.18722428087128L34.917572916666664,183.80068367120262L35.786759583333335,167.72307360944563L36.015492916666666,163.67603731609682L36.06123958333333,153.07775180598102L36.28997291666666,147.13438807160824L36.51870625,158.8212753191034L36.61019958333333,156.15815117682874L36.97617291666666,145.64557129575476L37.021919583333336,140.57518226166223L37.34214625,110.13186167631409L37.525132916666664,115.36813251348843L37.936852916666666,103.02898244960328L38.302826249999995,104.52555437626394L39.03477291666666,111.19737694109712L39.21775958333334,112.65700784590985L39.49223958333334,117.3505017952154L39.67522625,110.97866829610038L39.766719583333334,113.91450317130192L41.68807958333333,118.83643202439376L41.73382625,120.03499405655513L41.82531958333333,124.27665706320568L42.09979958333333,109.68643553163975L42.51151958333333,140.99753083650094L42.60301291666667,156.41495405354388L42.64875958333333,146.92263957690176L42.785999583333336,141.35243745345463L43.06047958333333,119.96629683791748L43.472199583333335,112.94896176230401L43.609439583333334,112.83057669861005L43.65518625,113.71396396197608L44.11265291666667,150.07486766360842L44.89034625,145.18860758413462L44.98183958333333,131.57273862999435L45.622292916666666,113.77933937455263L45.851026250000004,129.25150855866102L45.942519583333336,121.27824437908548L46.079759583333335,137.14871828730244L46.445732916666664,127.05496669396962L46.72021291666666,128.64613137593992L46.81170625,126.48462794990017L46.94894625,146.78689169150985L47.22342625,127.84768917120927L47.452159583333334,105.74665054057502L47.90962625,105.40885496362723L48.18410625,94.21541776791031L48.45858625,102.0343952330041L48.64157291666667,98.8166833252959L48.916052916666665,104.31092965193108L49.00754625,101.28533448927112L49.05329291666667,96.71367861123392L49.14478625,91.19832917029561L49.236279583333335,93.4118661878997L49.28202625,95.92340548029502L49.51075958333333,103.30095216745707L49.55650625,117.51488340565317L49.96822625,108.34458833139394L50.24270625,128.99686563730978L50.33419958333333,116.85698297453378L50.56293291666667,104.37326397199902L50.79166625,126.95836044370819L50.88315958333333,125.14721460950193L51.43211958333334,148.58565714247112L51.752346249999995,131.74312914781024L51.79809291666667,119.93969179017692L51.88958625,105.36382205977043L51.98107958333333,113.67346598919622L52.02682625,108.55910426507229L52.11831958333333,104.0683653481593L52.66727958333334,101.6101791934843L52.80451958333333,111.05494130114765L52.987506249999996,103.00419559752979L53.12474625,83.3676994244817L53.26198625,80.37439215186622L53.444972916666664,92.38693084718815L53.49071958333334,104.58037342072747L53.67370625,104.20543063545946L53.90243958333334,86.06237068691678L53.94818625,74.20662898372905L54.40565291666667,73.97840270132602L54.58863958333333,64.88595405060516L54.72587958333333,73.83489426874196L55.09185291666667,89.99193032326143L55.27483958333333,103.5748268112053L55.41207958333334,112.65558305648027L55.45782625,137.41969251195817L55.50357291666667,151.2075630400194L55.82379958333333,141.6217354043492L56.09827958333333,133.69507746125274L56.18977291666666,129.06511325970294L56.235519583333335,129.65067169269915L56.41850625,145.1679378581107L56.601492916666665,117.85558375311254L56.73873291666667,108.13597517366625L56.78447958333333,130.0735562631811L56.83022625,113.2293943875626L57.01321291666667,109.77816771945929L57.42493291666666,109.10410694766979L57.60791958333333,88.25490920835104L57.65366625,92.80851104911193L57.69941291666667,98.17414757642764L57.790906250000006,86.57220430990232L57.836652916666665,76.6890409220468L58.11113291666667,87.51684023315968L58.294119583333334,88.70858889445826L58.33986625,95.0695668317387L58.43135958333333,107.86512972459253L58.52285291666667,112.42339561906489L58.66009291666666,117.33037261084927L58.705839583333336,103.90470137546197L58.751586249999995,84.71680978745066L58.79733291666667,102.53121623879576L58.93457291666666,113.35304358891189L59.11755958333333,87.82956585461814L59.34629291666666,88.46263945802994L59.392039583333336,89.18481073799703L59.43778625,96.13460897220945L59.71226625,106.24047896154981L60.48995958333333,123.12975845866364L60.67294625,111.46811984856697L60.764439583333335,115.75305604266988L60.993172916666666,104.10052012996597L62.09109291666667,92.02120821235604L62.18258625,94.03101227616088L62.41131958333334,82.34753178319234L62.50281291666667,74.83349003053246L62.685799583333335,58.18296011481604L62.77729291666667,63.584871245586385L63.143266249999996,47.297019668318896L63.41774625,54.173973839222214L63.600732916666665,48.89682722135706L63.920959583333335,47.27767889526087L64.01245291666667,57.83270097271561L64.28693291666667,51.39200063047388L64.37842625,69.28425805269225L64.51566625000001,58.29530234634012L64.56141291666667,55.624996849889335L64.65290625,57.64664065181894L65.01887958333333,57.270878001092015L65.06462625,67.72575640919095L65.20186625,61.497476936830815L65.52209291666667,60.10063076105935L65.65933291666666,72.36883664183159L66.07105291666666,70.0477938655159L66.25403958333334,39.23170509357104L66.39127958333333,55.65085124027047L66.43702625,60.43978421122625L66.84874625,65.16266837257616L66.89449291666666,62.80825668894338L67.07747958333333,60.50626391364992L67.12322625,53.61487609263571L67.16897291666668,34.777047265269196L67.21471958333333,30.74865352433787L67.39770625,51.46017758442082L67.44345291666666,42.78337636228276L67.58069291666666,43.79940327784935L67.62643958333332,41.94495625961733L67.99241291666667,64.91520335476945L68.17539958333333,55.558557785757415L68.26689291666666,53.03129591775419L68.35838625,50.81340452571202L68.40413291666667,48.527280786868864L68.81585291666667,64.04089585497195L68.95309291666666,60.765758106435605L69.31906625,63.12932843525727L69.41055958333332,76.75405723190022L69.59354624999999,64.6247439285261L69.63929291666668,62.075211662062536L69.86802625,56.90168346047914L70.18825291666667,61.91369856047936L70.69146625,84.26298058419407L70.78295958333334,106.99579425089937L71.05743958333333,105.7650152649485L71.19467958333334,111.16066833770292L71.28617291666667,110.83721671364319L71.46915958333334,98.42594581759937L71.65214625,85.45044418523892L71.74363958333333,65.1573745748412L71.97237291666667,93.49028396254855L72.01811958333333,105.31488504198832L72.06386624999999,103.7385614048698L72.42983958333335,96.52236157245987L72.70431958333333,68.33866184704041L72.88730625,69.27215863318764L72.93305291666667,63.867696196147996L72.97879958333334,71.60286535639119L73.39051958333333,80.92262736450766L73.61925291666667,94.97992782289462L74.25970625000001,78.10642972287347L74.35119958333333,78.61612016377929L75.26613291666668,82.31171983729647L75.31187958333334,87.280736412113L75.49486625,77.34889817565985L75.54061291666666,91.88348751264989L75.58635958333333,101.66639624236933L76.40979958333334,64.87539681314777L76.63853291666666,59.87598686527823L76.95875958333333,66.3257003135181L77.00450624999999,77.62135135571341L77.27898625,79.90943326616393L77.37047958333332,64.31833213605948L77.59921291666667,49.91755367540398L77.69070624999999,49.11168072952681L77.78219958333334,65.6656619926324L77.96518625,67.59286276221452L78.78862625,63.35850171876058L78.88011958333334,41.39160185236995L78.97161291666666,35.190174968118974L79.33758625,24.897266954824612L79.47482624999999,27.25602584519704L79.84079958333332,37.6540975179596L79.97803958333333,38.17915403880612L80.11527958333333,43.226400375592405L80.70998625,70.41440434469447L81.03021291666667,70.55769421585599L81.30469291666667,84.47191973881836L81.48767958333333,93.02531538222382L81.57917291666666,102.40449627527083L81.62491958333332,84.24273882084186L81.89939958333333,59.71946567161734L82.35686625000001,63.518153106354745L82.58559958333333,48.31764580916357L82.63134624999999,42.89877449340227L82.76858625,45.53307694713233L83.04306625,36.08622669291469L83.13455958333333,50.96287092633237L83.27179958333333,45.28387103716848L83.40903958333334,39.00021857166476L83.54627958333333,33.840357077981174L83.59202625,31.40208636097024L84.41546625,55.759648980926954L85.10166625,74.04251364602536L85.78786625,72.52269425233533L85.92510625,76.62360342884261L85.97085291666667,88.7929333957684L86.06234625,79.45634468273236L86.10809291666666,80.21210908815807L87.06877291666666,79.08468911603418L87.11451958333335,89.08703282806476L87.34325291666667,104.30500168402916L87.48049291666668,98.70082029581035L87.66347958333334,82.97026732492422L87.75497291666666,84.75671598272312L87.93795958333332,89.26755478952393L88.12094625,92.72066203936377L88.30393291666667,100.44033303370736L89.44759958333334,88.33268982476386L89.49334625,62.46520768586623L89.99655958333334,79.54074196209805L90.36253291666667,68.5388032686132L90.40827958333333,58.973126035417145L90.54551958333333,47.08634840338528L90.63701291666666,28.8945248299187L90.68275958333334,27.87933934768119L91.09447958333334,23.48445811891603L91.41470625000001,56.30543634309796L92.10090625000001,51.0263952077295L92.14665291666667,55.44673633938225L92.28389291666667,59.530958821565996L92.60411958333334,60.52134814869831L93.15307958333334,55.402386063405686L93.38181291666666,85.48953845147416L93.42755958333333,82.09101849820692L93.51905291666667,70.89661842600388L93.83927958333334,83.3939107776635L94.15950624999999,76.97178519493056L94.20525291666667,69.92634745076724L94.61697291666667,63.43675915977614L94.79995958333333,47.94013405192651L94.89145291666667,57.692819239787845L95.07443958333334,53.897089220340625L95.48615958333333,64.54275311068027L95.80638625,73.7180369915684L95.85213291666666,72.4157422436547L96.08086625,83.76414783318474L96.44683958333333,72.95032872867367L96.85855958333335,69.88075083560821L96.90430625,66.28966273109366L97.08729291666667,29.324747665168363L97.31602625,29.854995550776383L97.45326625,21.935075105467394L97.54475958333333,40.55716105773387L97.68199958333334,28.11916771217788L97.81923958333333,37.998814574984365L98.00222624999999,42.8773607922242L98.36819958333334,41.52457664684331L98.73417291666667,51.46861151621264L98.91715958333333,65.79075546124896L99.05439958333334,75.68521825706556L99.10014625,77.25876548430683L99.37462625,61.40162488544804L99.42037291666666,89.14771876767168L99.78634625,77.09256290218171L99.96933291666666,76.65440103304945L100.01507958333333,63.78602097566463L100.06082625,60.55444935641021L100.15231958333332,54.59829006005123L100.28955958333333,56.450365361027664L100.60978625,41.5042236664609L100.65553291666667,46.84336035363171L101.02150625,41.39563432283575L101.06725291666666,39.199070852681245L101.47897291666668,59.13495414357435L101.66195958333334,65.1137564712825L101.75345291666666,69.32049296701328L101.79919958333333,52.45262359621753L101.89069291666667,61.22129458810474L102.11942624999999,63.28240117207515L102.16517291666668,70.87057934269517L102.25666625,70.97203100958586L102.30241291666667,79.40894437574812L102.34815958333334,60.33857088532135L102.57689291666667,55.62645910528953L103.21734625,48.96160038916863L103.62906625000001,71.7085737503087L103.90354624999999,64.22305894592498L104.22377291666666,41.53646450459417L104.26951958333332,31.456613047238925L104.68123958333334,36.500109233448946L105.00146625000001,35.20757648825046L105.41318625,35.50972050118079L105.55042625,51.391950736568155L105.87065291666667,55.995124846771866L105.96214625,63.88419236545291L106.14513291666667,68.99274946334674L106.60259958333334,50.813726169363996L106.64834625,32.65741309076328L106.78558625000001,51.316178420482686L107.01431958333333,66.60609110551985L107.19730625,53.2442419550294L107.79201291666666,55.27541663774695L107.88350625,64.06952263432053L107.92925291666667,56.03717552135778L108.20373291666667,43.908543124856905L108.24947958333334,60.67277520600694L108.29522625,59.72135356488075L108.38671958333333,58.09556166781342L109.02717291666666,65.4741426494918L109.85061291666666,46.694386469554985L110.12509291666667,55.79668428136825L110.44531958333333,50.71939266701889L110.71979958333334,67.91897435772628L110.90278625,55.931018088985745L110.99427958333334,49.11399391575416L111.08577291666667,59.51887681057308L111.36025291666667,37.10419064742478L111.49749291666666,25.60038102854587L111.58898625,43.15893345588024L111.72622625000001,39.94569807954781L111.86346624999999,47.502669845272024L112.00070625,23.965607234387985L112.41242625000001,6.756032293170355L112.50391958333333,24.76686605520829L113.05287958333334,32.51919820730553L113.09862625,41.47289652123856L113.14437291666667,49.20228585299733L113.78482625,55.697588447909865L113.96781291666666,70.45679848443346L114.15079958333332,90.61530171067051L114.33378624999999,92.89097055334175L114.37953291666668,91.47241092049076L114.51677291666667,97.97432406141155L114.60826625,113.24297308560486L114.69975958333333,106.00259170315431L115.06573291666668,89.01749516357053L115.15722625,89.20563340681237L115.29446625,71.68381676970382L115.43170625,52.75621904074228L115.56894625,53.25398176395346L115.66043958333333,62.10826424052391L115.79767958333333,89.06095470958996L115.93491958333333,76.99803007825642L116.66686625000001,59.338246042635575L116.98709291666665,45.198285588685614L117.21582625,56.173930626549726L117.26157291666667,65.40150739040277L117.30731958333332,60.04842611125888L117.39881291666667,56.77462761385306L117.44455958333333,71.96468449105652L117.53605291666666,56.22155828755995L117.62754625,55.66648161102476L117.81053291666666,43.61461872869221L117.99351958333334,51.419941133341176L118.22225291666666,74.96330362920811L118.31374625000001,56.556196799068715L118.63397291666666,67.27221843611541L118.72546625,84.09343441135493L118.77121291666666,95.35156164054159L118.99994625000001,83.42910080840637L119.18293291666667,84.9284570556309L119.41166625,97.60016529210958L119.50315958333334,98.74818029671046L119.54890625,92.75080727737632L120.00637291666666,102.31279756546903L120.05211958333334,90.83347393227149L120.23510625,72.739582950786L120.37234625,72.15880111152845L120.50958625,83.66045445975608L120.55533291666667,85.92688504920575L120.69257291666666,76.99099791089408L120.73831958333334,94.90519874119587L120.82981291666667,102.53266399397742L121.05854624999999,83.21391273316318L121.10429291666667,91.74695578084331L121.42451958333332,90.14622761527265L121.47026625000001,93.18933421206209L121.65325291666667,94.11234837670172L121.74474624999999,81.37228499590778L121.83623958333334,78.6277827426161L122.01922625,50.99359169032373L122.47669291666666,54.168563189662706L122.56818625,68.04780010137388L122.65967958333333,42.240893362482915L122.70542625,50.090950655055344L122.88841291666667,55.77812807983889L123.02565291666667,56.01920338408196L123.39162625,74.76218717060112L123.57461291666667,78.71419854618084L124.21506624999999,77.94360878263093L124.39805291666666,82.76831411239016L124.48954625,75.40121518919769L124.71827958333333,78.77775978654569L124.76402625,81.29295437103478L124.85551958333333,71.90605047086466L124.94701291666667,65.56325864040615L124.99275958333334,69.01409976031645L125.08425291666667,77.92120866981902L125.17574625,60.30269675855493L125.22149291666666,48.79723745229627L125.54171958333333,53.482739172236755L125.67895958333334,70.27041411510513L125.90769291666668,86.53508026666292L126.45665291666667,76.70453557531143L126.63963958333333,78.98863712048596L126.77687958333334,77.35322794375456L127.23434625,89.82049654160517L127.50882625,70.78460089108098L127.55457291666667,60.12511269891702L127.64606625,75.80629058268326L127.78330625,83.96591689340272L127.92054625,83.05493940205571L127.96629291666666,91.04990402037618L128.01203958333335,56.793570489732716L128.46950625,73.49590750399138L128.51525291666667,64.60715465463936L128.56099958333334,43.65554469059552L128.65249291666666,56.13400264519836L129.20145291666665,57.63429856263627L129.24719958333333,39.69331819989101L129.29294625,50.385153980122894L129.33869291666667,52.72587910358133L129.70466625,59.95451719203016L130.11638625,67.28699902676597L130.89407958333334,81.31585202207008L131.53453291666668,76.43722413533823L131.71751958333334,64.79389342399772L131.76326625000002,65.60902445752821L131.85475958333333,66.89560035013801L132.22073291666666,63.36022505249758L132.31222625,61.90164676359999L132.49521291666667,69.96789674193688L132.95267958333335,78.22526309627915L133.31865291666668,74.73036008917462L133.36439958333332,91.29674502517679L133.86761291666667,96.28002789202868L134.23358625,103.65663351168357L134.50806625,78.83519254654722L134.55381291666666,70.30498301106734L134.64530625,91.21815068196088L134.73679958333332,76.5556874195983L134.96553291666666,79.35975229264797L135.8347195833333,70.36240381909316L136.10919958333332,59.68077575512468L136.15494625,49.845489331172324L136.61241291666667,49.707393662980984L136.70390625,63.11035524419061L136.84114624999998,67.77015380031528L136.88689291666665,64.51951985339325L136.93263958333335,61.328203682780355L137.39010625,48.661443331647014L137.43585291666668,63.752881109004036L137.57309291666667,64.06004522996228L137.84757291666665,75.31376451705154L138.07630625000002,80.19020215543665L138.16779958333333,81.10947163029041L138.25929291666665,82.58456115200241L138.35078625,74.71948981448483L138.76250625,72.65173087218093L138.94549291666667,74.7231705528419L139.12847958333333,63.935823031778426L139.21997291666668,74.72987612993441L139.35721291666664,67.40441034383133L139.76893291666667,63.809160149971L139.81467958333334,87.2210858564849L139.99766624999998,91.63699948199245L140.27214625,69.68746196870592L140.36363958333334,56.865658090380315L140.91259958333333,55.27510946146694L140.95834625,51.80478990764646L141.00409291666668,35.328422288246344L141.04983958333332,32.27956465491493L141.18707958333334,39.61655239825741L141.37006625,61.062094787152304L141.64454625,42.89140282833083L141.69029291666666,35.2868612692565L141.82753291666666,37.91980002437885L142.19350624999998,35.20694917508877L142.42223958333332,43.497567665987674L142.5594795833333,55.26771441245886L142.69671958333333,62.536899394660026L142.74246625,47.79132861308382L143.01694625000002,47.92737218387194L143.10843958333334,58.5821672001319L143.38291958333335,42.90173931830153L143.52015958333334,46.96290683694493L143.65739958333336,50.854096698449936L143.70314625,66.81659069519448L143.88613291666667,69.0867830685449L144.75531958333335,72.61697023938137L144.93830624999998,74.49076512950685L145.02979958333333,65.51510498224515L145.25853291666667,61.33011151134267L145.48726625,44.8789491938311L146.08197291666664,33.01433982174153L146.26495958333334,45.851848350289785L146.40219958333333,66.25548290391158L147.0883995833333,60.042657632704966L147.59161291666666,72.27600654308573L147.63735958333334,77.25065872874605L147.77459958333333,48.22115470055789L148.04907958333334,54.84427300145652L148.36930625,53.058697003426666L148.41505291666667,41.10677598613658L148.46079958333334,34.801062790740524L148.50654624999999,42.07640016567047L148.55229291666666,29.30688965613448L148.59803958333336,18.162621046869802L148.9640129166667,12.294382897477703L150.01618625,45.389781598723715L150.06193291666668,50.19517765311999L150.10767958333335,65.52672399204133L150.42790625,61.63292663765636L150.93111958333333,55.761272510723394L151.02261291666665,45.758899546167925L151.57157291666667,47.31040540725096L151.61731958333334,51.12216126555266L151.75455958333333,43.314194009507055L151.84605291666668,58.45455103266499L151.89179958333332,58.327013427902806L151.98329291666667,56.222671112352415L152.85247958333335,41.95714235361449L153.08121291666666,43.04103062186258L153.21845291666668,56.35841644783984L153.35569291666667,60.194143730283855L153.76741291666667,46.44431223743027L153.81315958333332,56.04861668510952L154.08763958333333,57.182693646929934L154.17913291666665,49.8874285975589L154.22487958333332,53.70590655562248L154.49935958333333,70.54479863975624L154.63659958333335,67.90423466404783L154.68234625,65.98197906995127L154.91107958333333,60.334252988006604L155.00257291666668,57.63755108994603L155.09406625,62.98815716554133L155.23130625,71.32652786522748L155.64302625,69.38755132645156L155.87175958333333,64.54132147961728L155.96325291666665,67.80391171177553L156.00899958333332,84.61072749257289L156.05474625000002,56.75339259123919L156.55795958333334,43.08697744259904L157.01542625,43.3217022421936L157.38139958333332,64.18493278044342L158.15909291666668,71.88737680445837L158.4793195833333,74.12363091665944L158.52506625,75.67686912750273L158.66230625,77.0941974719469L159.11977291666665,54.14851317406326L159.39425291666666,38.28392699718852L159.57723958333335,36.223618932726225L159.80597291666666,17.376619761086904L159.89746624999998,26.385969367562225L159.98895958333335,31.44296420034079L160.08045291666667,18.724880864717473L160.17194625,34.39128602176779L160.35493291666668,27.23719489949866L160.40067958333333,30.63876586185653L160.53791958333332,32.72000952378964L160.81239958333333,25.629680632448526L160.90389291666665,25.71293499403968L161.04113291666667,30.12110175093269L161.40710625,54.92123816847953L161.49859958333334,55.401447119952145L161.54434625,52.110013283873144L161.59009291666666,41.88347427701023L161.95606625,37.16260424050721L162.64226625,43.298065226036464L162.73375958333332,37.114606929277194L162.82525291666667,36.24710881260332L162.91674625,40.61878180234005L163.00823958333334,32.20169384317619L163.4199595833333,10.561214775067759L163.60294625,-9.056842177973843L164.19765291666667,10.871489828904425L164.38063958333333,19.473307696628513L165.24982625,36.032325820712956L165.93602625000003,26.221450183742512L165.98177291666667,36.34975288745952L166.25625291666665,27.613828244431016L166.30199958333336,23.60483254350613L166.39349291666667,24.043868788226796L166.53073291666666,32.03549824246422L166.75946625,32.07218383603485L166.89670625,33.955261295158834L166.94245291666667,41.49300130910826L167.03394625,38.70897429410904L167.76589291666667,39.01440842881375L168.08611958333336,46.683458208647885L168.26910625,41.81968252635454L168.58933291666668,47.069792847493005L168.63507958333332,70.65088418761412L168.95530625,54.35713364863114L169.09254625,62.04279464592761L170.19046625000001,63.48916350668807L170.32770625,65.02627822676985L170.64793291666666,54.708848887203224L170.78517291666665,45.787201555680085L170.83091958333333,55.920611734456294L170.92241291666667,45.111021921197455L170.96815958333335,46.929907849526415L171.28838625,42.6789192027426L171.37987958333335,40.02945120731451L171.88309291666667,30.633851239678048L172.11182625,35.65081090307042L172.52354624999998,30.68976978406788L172.61503958333333,35.854787087115476L172.70653291666667,27.074261555476703L172.88951958333334,38.911098008992454L173.02675958333336,58.154735044027674L173.62146625,54.408976695171184L173.66721291666664,60.19711483790349L173.71295958333334,51.031957419358896L173.98743958333333,37.84594804742522L174.35341291666666,44.45995048700922L174.62789291666667,56.189011526221954L174.67363958333334,51.91458782679726L174.71938624999999,45.29733250812814L174.90237291666668,39.60911921427321L175.13110625000002,45.65112106660407L175.45133291666664,40.26447217857475L175.81730624999997,63.12253986117618L176.00029291666667,46.51541418026312L176.18327958333336,38.827306045236675L176.27477291666668,49.93735013791463L176.5492529166667,56.53840955727421L176.68649291666668,47.9480847873278L176.77798625,48.84500281560347L176.86947958333332,55.59768636553243L176.96097291666666,55.7602840395496L177.09821291666665,59.23598082850732L177.32694625000002,51.74335031503652L177.87590624999999,43.79280856129057L178.10463958333332,41.2008309774192L178.3333729166667,57.942336798464844L179.15681291666667,47.81663188979359L179.33979958333333,57.01226047066056L179.47703958333335,69.57770650021554L179.70577291666666,64.01144123335081L179.98025291666667,51.887628151532375L180.02599958333332,41.02169077012322L180.20898625,38.27196774729118L180.30047958333333,43.25664194731727L180.57495958333334,33.38004868214616L180.62070625,31.41687093368351L180.89518625,29.38947650308122L181.21541291666668,33.1102602989358L181.4898929166667,39.190830046587166L181.62713291666668,46.00390423217599L181.90161291666666,51.394085674757825L182.40482624999999,45.888049810692706L182.49631958333333,32.294000011423215L182.81654625,31.2488758455151L182.95378625,12.212603538658323L183.09102625,25.391993647471658L183.18251958333332,12.46118181088893L183.41125291666665,11.497394258614378L184.14319958333334,7.332198604843622L184.23469291666666,-4.672404322086799L184.28043958333333,9.247054318750491L184.46342625,17.070426595309122L184.50917291666667,13.084208257257178L184.69215958333334,35.90500452951144L184.78365291666668,40.536363690111344L185.05813291666666,53.41374476493194L185.10387958333334,59.96796045148854L185.42410625000002,49.17198377516561L185.97306625,59.446841202179726L186.20179958333333,58.06770913720131L186.33903958333332,72.0933739478589L186.75075958333332,80.06862591118825L186.79650625000002,60.05683628565792L187.07098625,48.843124174158156L187.11673291666665,58.25138784830593L187.75718625,49.85065849652783L187.94017291666668,55.239993858521515L188.03166625,55.393262915721735L188.12315958333332,58.34033463770813L188.26039958333334,48.99062675460974L188.39763958333333,52.50636016264436L188.80935958333333,41.33897716364186L189.08383958333334,41.714784804349705L189.17533291666666,58.87427870235771L189.67854625,51.41200899959757L189.72429291666668,25.71222267080045L189.99877291666667,13.190463051370944L190.31899958333332,12.201878562672265L191.41691958333334,13.496084627570772L191.55415958333333,1.1174902779233915L191.69139958333332,-13.638513501741155L191.78289291666667,3.2075482271565496L192.74357291666666,10.193349317458567L192.88081291666668,6.6690923903866075L193.06379958333332,4.386455281644102L193.10954625,6.294321789782732L193.15529291666664,1.826746424699646L193.42977291666665,-3.2706611629337465L193.56701291666667,5.617064137696596L193.65850625000002,15.314137971067101L194.07022625,24.42531847695328L194.25321291666668,31.681943534253907L194.39045291666667,34.60383746530937L194.61918625,40.27641254369211L194.98515958333334,35.01005490841734L195.16814625,40.29407713545722L195.25963958333332,27.681172071298157L195.35113291666667,24.244163595676564L195.9458395833333,18.29971916856777L196.03733291666668,13.120249529972153L196.17457291666668,12.617663610157047L196.72353291666667,34.14358033429189L196.90651958333333,21.43420272881158L197.13525291666667,16.570255457248543L197.22674625,33.60263303451908L197.68421291666667,14.05489785392983L197.77570625,17.315812581300168L197.86719958333333,10.32813706011735L198.46190625,5.173433029718105L198.73638624999998,12.116002657453349L199.19385291666669,18.610862719082917L199.42258625,17.669707409777722L199.74281291666665,7.187655825757161L199.88005291666664,-11.812283981237915L200.8864795833333,-18.653070769927744L200.93222624999999,4.193917344676297L200.9779729166667,5.888736719290547L201.20670625,6.8207428660393825L201.29819958333331,18.42326661386501L201.57267958333333,15.116359927883183L201.75566625000002,23.672658621448583L202.12163958333335,22.30697010706559L202.16738625,28.828874294463994L202.39611958333336,27.226444139781126L202.44186625,17.223954686345166L202.62485291666667,11.224887519372434L203.12806625000002,34.26169998007596L203.40254625,40.70666338537679L203.67702624999998,48.06130994280908L203.81426625,40.72650054049933L204.31747958333332,39.95674261422424L204.50046625000002,46.12787666899841L204.68345291666665,33.79876458038617L204.77494625,38.44859969252188L205.00367958333334,29.16151063223987L205.18666624999997,34.838408187510396L205.41539958333334,23.109400579620495L205.64413291666668,21.735627692514107L205.8271195833333,16.07485401724181L205.87286625,27.99246432837492L205.96435958333333,24.256758084634804L206.37607958333334,25.436643213474618L206.42182625,21.393751627471396L206.92503958333333,36.66553109065668L207.01653291666668,23.669543297147666L207.06227958333335,23.90319716397285L207.38250625,12.967976256986603L207.47399958333332,12.09172313498272L207.51974625,18.09073794535888L207.56549291666667,42.71589782626687L207.61123958333332,37.566876070447336L207.79422625,29.394736657588208L207.88571958333333,33.40088339450868L208.89214625,23.645291136520598L209.02938625,19.2410235207185L209.66983958333333,28.2227305293622L209.89857291666667,7.371549804243039L209.94431958333334,17.33357009841951L210.03581291666666,14.030603012764177L210.40178625,27.36532378275619L210.63051958333332,-5.800325488570765L212.23165291666666,-4.003675409146535L212.55187958333332,1.3519652676651512L213.05509291666667,17.217231606964493L213.28382624999998,19.743077144339207L213.69554625,10.139051047154945L213.74129291666668,8.442297415249742L214.19875958333333,12.571601031013277L214.24450625,-6.469907928831641L214.38174625,-2.85015564298413L214.47323958333334,8.06936356344348L214.56473291666666,24.71065204691005L214.61047958333333,12.969933374828797L214.65622625,28.059174289766975L214.74771958333335,37.81803001789088L215.57115958333333,30.013554607795722L215.79989291666666,22.37251655755469L216.02862625,6.301282837975204L216.16586625000002,3.2863619059254088L216.30310625,-8.173371092681359L216.53183958333335,-1.3301309205319343L217.03505291666667,16.919447144435253L217.44677291666667,23.070157718996057L217.5840129166667,14.782067842686134L217.62975958333334,0.5851818724893959L218.04147958333334,8.261144352222933L218.31595958333335,17.929656357923466L219.00215958333334,0.2800055809971086L219.04790625,12.238735203037074L219.32238625,7.872185471111173L219.50537291666666,20.73232419637071L219.64261291666665,24.445180436058212L219.91709291666666,24.957017481376717L220.00858624999998,22.998797857791207L220.42030625,30.078456594961864L220.60329291666667,23.241997691642016L220.87777291666666,18.976301606089304L221.10650625,3.953488716835087L221.38098625,-5.932981247094699L222.11293291666667,-2.459576893555807L222.29591958333333,11.334668869550333L222.70763958333333,19.055588862166076L222.84487958333332,21.802598703423293L223.39383958333335,13.521018283676602L223.71406625,6.929096828169492L223.85130625,-6.18913006170578L223.9427995833333,2.071318534708127L223.98854625,11.153216044721596L224.17153291666665,7.390117431055052L224.21727958333332,8.35090121291307L224.26302625,28.819860200060816L224.81198625,28.7450285792192L225.08646625,43.433446505060196L225.13221291666667,23.452596174711285L225.22370625,26.600603620430455L225.45243958333333,34.64473409665859L225.49818625,20.496005888064165L225.63542625,26.952162406015102L225.90990625,19.79125057528479L226.09289291666667,24.014732544839728L226.41311958333333,28.585735598337944L226.87058625,38.063851355989144L227.14506625,20.310934853243488L227.32805291666668,25.58340944748388L227.46529291666664,21.398423992998964L227.83126625,28.157526161317612L227.92275958333335,20.77093986633098L228.51746624999998,39.41365888096496L228.70045291666668,30.223061957225845L228.74619958333332,37.70677416221246L229.61538625,28.939611582135825L229.66113291666667,35.17723454724289L229.79837291666666,27.69787639195049L230.11859958333332,31.17626670488315L230.21009291666667,32.888838407329224L230.57606625,35.11819774921624L230.66755958333334,25.213899678086626L230.71330625000002,25.31688441401446L231.30801291666666,27.234529647622836L231.39950625,29.34077999198096L231.44525291666667,36.01823185207642L231.81122625,38.227042498124895L231.85697291666668,34.91339975710704L231.99421291666667,44.82922607729425L232.08570625000002,47.50429040235045L232.49742625000002,53.09255315090284L232.63466625,34.45168977513952L232.72615958333333,8.992337712854404L232.81765291666667,5.154701762920819L233.36661291666667,8.511785062269063L234.14430625,8.761754841873508L234.37303958333334,18.239728672068978L234.83050624999998,18.852648629404115L235.10498625,9.010490091834637L235.42521291666668,2.1182825995649406L235.69969291666666,19.41813435752191L235.79118625,27.297500268214897L235.97417291666667,22.2189164493048L236.29439958333333,10.74723589024325L236.34014625,4.552743098744002L236.38589291666668,7.645833505158619L236.84335958333332,21.14625356970134L237.57530625,54.37087689863388L237.80403958333335,75.24728257075986L238.03277291666666,64.23037180075671L238.26150625,58.075522093591864L238.30725291666667,60.668378751646145L238.39874625,57.34204890797778L238.53598625,50.99379717391875L238.99345291666666,44.88920351911867L239.17643958333335,53.77719674735837L239.22218625000002,44.21907955544938L239.49666624999998,55.082706750260286L239.67965291666667,51.06113666345272L239.72539958333334,51.85204643040653L240.09137291666667,74.67989476936918L240.18286625,62.400550296413094L240.2286129166667,51.117999202315325L240.27435958333334,63.40626061338449L240.36585291666668,69.36416409241119L240.50309291666665,67.5204148163019L240.54883958333332,43.916348568774325L240.59458625000002,60.01639408598965L240.64033291666667,35.01953541475901L240.82331958333333,33.14619633697484L240.91481291666665,44.0356085845412L241.05205291666667,69.51703236988673L241.09779958333334,79.67353297764956L241.14354624999999,76.8058647483283L241.18929291666666,83.59060724793034L241.28078625,64.72321484218921L241.41802625,65.08629590112498L241.46377291666667,69.86105779313169L241.73825291666668,73.08197817506266L242.0127329166667,41.042298658501316L242.10422625,61.8868208788701L242.24146625,50.091895846299415L242.79042625,48.47107466922527L243.15639958333333,21.40211053410968L243.20214625,27.866341970680928L243.24789291666667,37.990093029927486L243.52237291666668,40.85376093232106L243.84259958333334,34.52797070409928L244.07133291666665,44.21685964623734L244.39155958333333,44.67721728539259L244.57454625,52.763064647053504L244.8032795833333,57.37274545689509L244.98626625,68.77809366142797L245.26074625,59.65238819453741L245.35223958333333,43.93181732853423L245.48947958333332,48.19000642037496L245.71821291666666,45.53698585352956" style="fill: none;" fill="none"></path></g></g></g></g><g opacity="0.2"><g><g><g><path stroke="rgb(255, 112, 67)" stroke-width="2px" d="M32.90471958333333,178.25308942794797L33.13345291666666,166.2959581017494L33.27069291666667,137.1017258763313L33.81965291666666,150.35819792747495L34.094132916666666,198.23156082630155L34.64309291666667,207.48767548799512L34.82607958333333,161.29466736316678L34.917572916666664,183.93665009737012L35.786759583333335,143.60665851831433L36.015492916666666,157.60548287630078L36.06123958333333,137.18032354116437L36.28997291666666,138.21934247016904L36.51870625,176.3516061902046L36.61019958333333,152.1634649634361L36.97617291666666,129.87670147418973L37.021919583333336,132.96959871053693L37.34214625,64.46688079833984L37.525132916666664,123.22253876924513L37.936852916666666,84.52025735378265L38.302826249999995,106.77041226625441L39.03477291666666,121.20511078834532L39.21775958333334,114.8464542031288L39.49223958333334,124.39074271917342L39.67522625,101.42091804742813L39.766719583333334,118.31825548410414L41.68807958333333,126.21932530403136L41.73382625,121.83283710479735L41.82531958333333,130.63915157318112L42.09979958333333,87.80110323429108L42.51151958333333,187.9641737937927L42.60301291666667,179.5410888791084L42.64875958333333,132.68416786193845L42.785999583333336,132.99713426828382L43.06047958333333,87.88708591461182L43.472199583333335,102.42295914888382L43.609439583333334,112.65299910306929L43.65518625,115.03904485702513L44.11265291666667,204.6162232160568L44.89034625,137.85921746492383L44.98183958333333,111.14893519878386L45.622292916666666,87.08924049139023L45.851026250000004,152.45976233482358L45.942519583333336,109.31834810972212L46.079759583333335,160.95442914962766L46.445732916666664,111.91433930397032L46.72021291666666,131.03287839889524L46.81170625,123.24237281084059L46.94894625,177.24028730392453L47.22342625,99.43888539075851L47.452159583333334,72.59509259462357L47.90962625,104.90216159820555L48.18410625,77.42526197433472L48.45858625,113.76286143064497L48.64157291666667,93.99011546373367L48.916052916666665,112.55229914188384L49.00754625,96.74694174528122L49.05329291666667,89.85619479417801L49.14478625,82.92530500888824L49.236279583333335,96.73217171430588L49.28202625,99.69071441888809L49.51075958333333,114.36727219820021L49.55650625,138.83578026294705L49.96822625,94.58914572000504L50.24270625,159.97528159618375L50.33419958333333,98.64715898036957L50.56293291666667,85.64768546819687L50.79166625,160.8360051512718L50.88315958333333,122.43049585819243L51.43211958333334,183.74332094192502L51.752346249999995,106.47933715581892L51.79809291666667,102.23453575372696L51.88958625,83.50001746416092L51.98107958333333,126.1379318833351L52.02682625,100.88756167888641L52.11831958333333,97.33225697278976L52.66727958333334,97.92289996147156L52.80451958333333,125.22208446264266L52.987506249999996,90.92807704210281L53.12474625,53.91295516490936L53.26198625,75.88443124294281L53.444972916666664,110.40573889017104L53.49071958333334,122.87053728103636L53.67370625,103.64301645755766L53.90243958333334,58.847780764102936L53.94818625,56.42301642894745L54.40565291666667,73.6360632777214L54.58863958333333,51.247281074523926L54.72587958333333,87.25830459594727L55.09185291666667,114.22748440504073L55.27483958333333,123.94917154312132L55.41207958333334,126.27671742439269L55.45782625,174.56585669517514L55.50357291666667,171.88936883211133L55.82379958333333,127.2429939508438L56.09827958333333,121.80509054660796L56.18977291666666,122.12016695737837L56.235519583333335,130.52900934219358L56.41850625,168.44383710622785L56.601492916666665,76.88705259561539L56.73873291666667,93.55656230449677L56.78447958333333,162.97992789745328L56.83022625,87.96315157413483L57.01321291666667,104.60132771730422L57.42493291666666,108.09301578998564L57.60791958333333,56.981112599372864L57.65366625,99.63891381025314L57.69941291666667,106.22260236740111L57.790906250000006,69.16928941011429L57.836652916666665,61.86429584026337L58.11113291666667,103.75853919982909L58.294119583333334,90.49621188640594L58.33986625,104.61103373765944L58.43135958333333,127.05847406387328L58.52285291666667,119.26079446077345L58.66009291666666,124.69083809852599L58.705839583333336,83.76619452238083L58.751586249999995,55.934972405433655L58.79733291666667,129.25282591581342L58.93457291666666,129.58578461408612L59.11755958333333,49.54434925317764L59.34629291666666,89.41224986314774L59.392039583333336,90.26806765794754L59.43778625,106.55930632352828L59.71226625,121.39928394556044L60.48995958333333,148.46367770433423L60.67294625,93.97566193342209L60.764439583333335,122.18046033382414L60.993172916666666,86.62171626091003L62.09109291666667,73.90224033594131L62.18258625,97.04571837186813L62.41131958333334,64.82231104373932L62.50281291666667,63.562427401542664L62.685799583333335,33.207165241241455L62.77729291666667,71.68773794174194L63.143266249999996,22.865242302417776L63.41774625,64.48940509557724L63.600732916666665,40.98110729455948L63.920959583333335,44.848956406116486L64.01245291666667,73.6652340888977L64.28693291666667,41.730950117111206L64.37842625,96.1226441860199L64.51566625000001,41.81186878681183L64.56141291666667,51.619538605213165L64.65290625,60.67910635471344L65.01887958333333,56.707234025001526L65.06462625,83.40807402133942L65.20186625,52.15505772829056L65.52209291666667,58.00536149740219L65.65933291666666,90.77114546298981L66.07105291666666,66.56622970104218L66.25403958333334,-6.992428064346274L66.39127958333333,80.27957046031952L66.43702625,67.62318366765976L66.84874625,72.24699461460114L66.89449291666666,59.27663916349411L67.07747958333333,57.053274750709534L67.12322625,43.2777943611145L67.16897291666668,6.5203040242195325L67.21471958333333,24.706062912941L67.39770625,82.52746367454529L67.44345291666666,29.768174529075623L67.58069291666666,45.32344365119934L67.62643958333332,39.16328573226929L67.99241291666667,99.37057399749756L68.17539958333333,41.52358943223953L68.26689291666666,49.24040311574936L68.35838625,47.48656743764877L68.40413291666667,45.098095178604126L68.81585291666667,87.31131845712662L68.95309291666666,55.853051483631134L69.31906625,66.67468392848969L69.41055958333332,97.19115042686462L69.59354624999999,46.430773973464966L69.63929291666668,58.25091326236725L69.86802625,49.14139115810394L70.18825291666667,69.43172121047974L70.69146625,117.78690361976622L70.78295958333334,141.09501475095746L71.05743958333333,103.91884678602217L71.19467958333334,119.25414794683455L71.28617291666667,110.35203927755354L71.46915958333334,79.80903947353363L71.65214625,65.98719173669815L71.74363958333333,34.71777015924454L71.97237291666667,135.98964804410932L72.01811958333333,123.05178666114806L72.06386624999999,101.37407594919205L72.42983958333335,85.69806182384491L72.70431958333333,26.063112258911154L72.88730625,70.67240381240845L72.93305291666667,55.76100254058838L72.97879958333334,83.20561909675598L73.39051958333333,94.90227037668228L73.61925291666667,116.06587851047514L74.25970625000001,52.796182572841644L74.35119958333333,79.38065582513809L75.26613291666668,87.85511934757233L75.31187958333334,94.73426127433777L75.49486625,62.45114082098007L75.54061291666666,113.68537151813506L75.58635958333333,116.34075933694838L76.40979958333334,9.688897669315358L76.63853291666666,52.376871943473816L76.95875958333333,76.00027048587799L77.00450624999999,94.56482791900635L77.27898625,83.34155613183975L77.37047958333332,40.93168044090271L77.59921291666667,28.316385984420798L77.69070624999999,47.90287131071091L77.78219958333334,90.49663388729095L77.96518625,70.48366391658783L78.78862625,57.00696015357971L78.88011958333334,8.441252052783986L78.97161291666666,25.888034641742728L79.33758625,9.457904934883137L79.47482624999999,30.794164180755615L79.84079958333332,53.251205027103424L79.97803958333333,38.96673882007599L80.11527958333333,50.79726988077164L80.70998625,111.19641029834746L81.03021291666667,70.77262902259827L81.30469291666667,105.34325802326201L81.48767958333333,105.85540884733199L81.57917291666666,116.47326761484145L81.62491958333332,57.0001026391983L81.89939958333333,22.93455594778063L82.35686625000001,69.216184258461L82.58559958333333,25.51688486337664L82.63134624999999,34.77046751976013L82.76858625,49.48453062772751L83.04306625,21.91595131158831L83.13455958333333,73.27783727645874L83.27179958333333,36.765371203422546L83.40903958333334,29.57473987340927L83.54627958333333,26.10056483745577L83.59202625,27.744680285453818L84.41546625,92.29599291086197L85.10166625,101.46681064367294L85.78786625,70.24296516180038L85.92510625,82.77496719360352L85.97085291666667,107.04692834615706L86.06234625,65.45146161317825L86.10809291666666,81.34575569629669L87.06877291666666,77.39355915784836L87.11451958333335,104.09054839611052L87.34325291666667,127.1319549679756L87.48049291666668,90.2945482134819L87.66347958333334,59.37443786859512L87.75497291666666,87.43638896942139L87.93795958333332,96.03381299972534L88.12094625,97.90032291412354L88.30393291666667,112.01983952522276L89.44759958333334,70.17122501134872L89.49334625,23.66398447752001L89.99655958333334,105.15404337644576L90.36253291666667,52.035895228385925L90.40827958333333,44.62461018562317L90.54551958333333,29.256181955337546L90.63701291666666,1.6067894697189526L90.68275958333334,26.35656112432482L91.09447958333334,16.8921362757683L91.41470625000001,105.53690367937087L92.10090625000001,43.10783350467682L92.14665291666667,62.07724803686142L92.28389291666667,65.65729254484177L92.60411958333334,62.00693213939667L93.15307958333334,47.723942935466766L93.38181291666666,130.62026703357694L93.42755958333333,76.99323856830597L93.51905291666667,54.10501831769943L93.83927958333334,102.1398493051529L94.15950624999999,67.3385968208313L94.20525291666667,59.35819083452225L94.61697291666667,53.70237672328949L94.79995958333333,24.695196390152L94.89145291666667,72.32184702157974L95.07443958333334,48.20349419116974L95.48615958333333,80.51124894618988L95.80638625,87.48096281290054L95.85213291666666,70.46230012178421L96.08086625,100.7867562174797L96.44683958333333,56.72960007190704L96.85855958333335,65.27638399600983L96.90430625,60.90303057432175L97.08729291666667,-26.122624933719596L97.31602625,30.650367379188538L97.45326625,10.055194437503834L97.54475958333333,68.49028998613358L97.68199958333334,9.462177693843861L97.81923958333333,52.81828486919403L98.00222624999999,50.195180118083954L98.36819958333334,39.49540042877197L98.73417291666667,66.38466382026672L98.91715958333333,87.27397137880325L99.05439958333334,90.5269124507904L99.10014625,79.61908632516861L99.37462625,37.61591398715973L99.42037291666666,130.7668595910072L99.78634625,59.009829103946686L99.96933291666666,75.99715822935104L100.01507958333333,44.4834508895874L100.06082625,55.70709192752838L100.15231958333332,45.66405111551285L100.28955958333333,59.22847831249237L100.60978625,19.085011124610922L100.65553291666667,54.85206538438797L101.02150625,33.224045276641846L101.06725291666666,35.90422564744949L101.47897291666668,89.0387790799141L101.66195958333334,74.08195996284485L101.75345291666666,75.63059771060944L101.79919958333333,27.150819540023825L101.89069291666667,74.37430107593536L102.11942624999999,66.37406104803085L102.16517291666668,82.25284659862518L102.25666625,71.12420850992203L102.30241291666667,92.06431442499161L102.34815958333334,31.73301064968109L102.57689291666667,48.5582914352417L103.21734625,38.96431231498718L103.62906625000001,105.82903379201888L103.90354624999999,52.994786739349365L104.22377291666666,7.506572842597981L104.26951958333332,16.336835861206076L104.68123958333334,44.06535351276398L105.00146625000001,33.26877737045288L105.41318625,35.96293652057648L105.55042625,75.2152960896492L105.87065291666667,62.89988601207733L105.96214625,75.71779364347458L106.14513291666667,76.65558511018753L106.60259958333334,23.54519122838976L106.64834625,5.422943472862263L106.78558625000001,79.30432641506195L107.01431958333333,89.54096013307571L107.19730625,33.20146822929382L107.79201291666666,58.32217866182327L107.88350625,77.26068162918091L107.92925291666667,43.98865485191345L108.20373291666667,25.715594530105612L108.24947958333334,85.81912332773209L108.29522625,58.294221103191376L108.38671958333333,55.65687382221222L109.02717291666666,76.54201412200928L109.85061291666666,18.524752199649832L110.12509291666667,69.45013099908829L110.44531958333333,43.10345524549484L110.71979958333334,93.71834689378738L110.90278625,37.94908368587494L110.99427958333334,38.88845765590668L111.08577291666667,75.12620115280151L111.36025291666667,3.482161402702351L111.49749291666666,8.344666600227375L111.58898625,69.49676209688187L111.72622625000001,35.12584501504898L111.86346624999999,58.83812749385834L112.00070625,-11.339986681938132L112.41242625000001,-19.05833011865612L112.50391958333333,51.783116698265076L113.05287958333334,44.14769643545151L113.09862625,54.90344399213791L113.14437291666667,60.79636985063553L113.78482625,65.44054234027863L113.96781291666666,92.5956135392189L114.15079958333332,120.85305655002593L114.33378624999999,96.30447381734848L114.37953291666668,89.3445714712143L114.51677291666667,107.7271937727928L114.60826625,136.1459466218948L114.69975958333333,95.14201962947845L115.06573291666668,63.53985035419464L115.15722625,89.48784077167511L115.29446625,45.40109181404114L115.43170625,24.36482244729998L115.56894625,54.00062584877014L115.66043958333333,75.38968795537949L115.79767958333333,129.4899904131889L115.93491958333333,58.9036431312561L116.66686625000001,32.84856998920441L116.98709291666665,23.98834490776064L117.21582625,72.6373981833458L117.26157291666667,79.2428725361824L117.30731958333332,52.01880419254303L117.39881291666667,51.863929867744446L117.44455958333333,94.74976980686188L117.53605291666666,32.60686898231506L117.62754625,54.833866596221924L117.81053291666666,25.53682440519335L117.99351958333334,63.127924740314484L118.22225291666666,110.27834737300871L118.31374625000001,28.945536553859732L118.63397291666666,83.34625089168549L118.72546625,109.32525837421416L118.77121291666666,112.23875248432158L118.99994625000001,65.54540956020355L119.18293291666667,87.1774914264679L119.41166625,116.60772764682768L119.50315958333334,100.47020280361176L119.54890625,83.75474774837494L120.00637291666666,116.65578299760817L120.05211958333334,73.61448848247528L120.23510625,45.59874647855759L120.37234625,71.28762835264206L120.50958625,100.91293448209763L120.55533291666667,89.32653093338013L120.69257291666666,63.58716720342636L120.73831958333334,121.77649998664855L120.82981291666667,113.97386187314986L121.05854624999999,54.23578584194183L121.10429291666667,104.54652035236357L121.42451958333332,87.74513536691666L121.47026625000001,97.7539941072464L121.65325291666667,95.49686962366104L121.74474624999999,62.26218992471695L121.83623958333334,74.51102936267853L122.01922625,9.54230511188509L122.47669291666666,58.93102043867111L122.56818625,88.86665546894073L122.65967958333333,3.5305332541465955L122.70542625,61.86603659391403L122.88841291666667,64.30889421701431L123.02565291666667,56.38081634044647L123.39162625,102.87666285037994L123.57461291666667,84.64221560955048L124.21506624999999,76.78772413730621L124.39805291666666,90.00537210702896L124.48954625,64.35056680440903L124.71827958333333,83.8425766825676L124.76402625,85.0657462477684L124.85551958333333,57.82569462060928L124.94701291666667,56.04907089471817L124.99275958333334,74.19036144018173L125.08425291666667,91.28187203407288L125.17574625,33.87492889165878L125.22149291666666,31.539048492908478L125.54171958333333,60.510991752147675L125.67895958333334,95.4519265294075L125.90769291666668,110.93207949399947L126.45665291666667,61.9587185382843L126.63963958333333,82.41478943824768L126.77687958333334,74.90011417865753L127.23434625,108.52139943838118L127.50882625,42.23075741529465L127.55457291666667,44.135880410671234L127.64606625,99.32805740833282L127.78330625,96.20535635948181L127.92054625,81.68847316503525L127.96629291666666,103.0423509478569L128.01203958333335,5.409070193767567L128.46950625,98.54941302537918L128.51525291666667,51.27402538061142L128.56099958333334,12.228129744529744L128.65249291666666,74.85168957710266L129.20145291666665,59.88474243879318L129.24719958333333,12.781847655773182L129.29294625,66.42290765047073L129.33869291666667,56.23696678876877L129.70466625,70.79747432470322L130.11638625,78.28572177886963L130.89407958333334,102.35913151502609L131.53453291666668,69.11928230524063L131.71751958333334,47.328897356987L131.76326625000002,66.83172100782394L131.85475958333333,68.82546418905258L132.22073291666666,58.05716210603714L132.31222625,59.7137793302536L132.49521291666667,82.06727170944214L132.95267958333335,90.61131262779236L133.31865291666668,69.48800557851791L133.36439958333332,116.14632242918013L133.86761291666667,103.7549521923065L134.23358625,114.72154194116591L134.50806625,41.60303109884262L134.55381291666666,57.509668707847595L134.64530625,122.58790218830107L134.73679958333332,54.56199252605438L134.96553291666666,83.56584960222244L135.8347195833333,56.866381108760834L136.10919958333332,43.65833365917206L136.15494625,35.092559695243835L136.61241291666667,49.50025016069412L136.70390625,83.21479761600494L136.84114624999998,74.75985163450241L136.88689291666665,59.6435689330101L136.93263958333335,56.54122942686081L137.39010625,29.6613028049469L137.43585291666668,86.39003777503967L137.57309291666667,64.52079141139984L137.84757291666665,92.19434344768524L138.07630625000002,87.50485861301422L138.16779958333333,82.48837584257126L138.25929291666665,84.79719543457031L138.35078625,62.921882808208466L138.76250625,69.55009245872498L138.94549291666667,77.83033007383347L139.12847958333333,47.754801750183105L139.21997291666668,90.92095577716827L139.35721291666664,56.416211664676666L139.76893291666667,58.41628485918045L139.81467958333334,122.33897441625594L139.99766624999998,98.26086992025375L140.27214625,36.763155698776245L140.36363958333334,37.632952272892L140.91259958333333,52.889286518096924L140.95834625,46.59931057691574L141.00409291666668,10.613870859146138L141.04983958333332,27.70627820491793L141.18707958333334,50.62203401327133L141.37006625,93.23040837049484L141.64454625,15.635364890098591L141.69029291666666,23.88004893064501L141.82753291666666,41.86920815706253L142.19350624999998,31.137672901153564L142.42223958333332,55.93349540233612L142.5594795833333,72.92293453216553L142.69671958333333,73.44067686796188L142.74246625,25.672972440719626L143.01694625000002,48.13143754005432L143.10843958333334,74.56435972452164L143.38291958333335,19.3810974955559L143.52015958333334,53.054658114910126L143.65739958333336,56.6908814907074L143.70314625,90.76033169031143L143.88613291666667,72.49207162857056L144.75531958333335,77.91225099563599L144.93830624999998,77.30145746469498L145.02979958333333,52.05161476135254L145.25853291666667,55.05262130498886L145.48726625,20.20220571756365L146.08197291666664,15.217425763607045L146.26495958333334,65.10811114311218L146.40219958333333,96.86093473434448L147.0883995833333,50.72341972589493L147.59161291666666,90.62602990865707L147.63735958333334,84.71263700723648L147.77459958333333,4.676898658275624L148.04907958333334,64.77895045280457L148.36930625,50.38033300638199L148.41505291666667,23.178894460201285L148.46079958333334,25.342492997646353L148.50654624999999,52.98940622806549L148.55229291666666,10.152623891830464L148.59803958333336,1.4462181329727368L148.9640129166667,3.4920256733894544L150.01618625,95.0328796505928L150.06193291666668,57.40327173471451L150.10767958333335,88.52404350042343L150.42790625,55.7922306060791L150.93111958333333,46.953791320323944L151.02261291666665,30.755340099334717L151.57157291666667,49.63766419887543L151.61731958333334,56.83979505300522L151.75455958333333,31.60224312543869L151.84605291666668,81.16508656740189L151.89179958333332,58.13570702075958L151.98329291666667,53.06615763902664L152.85247958333335,20.55884921550753L153.08121291666666,44.66686302423477L153.21845291666668,76.33449518680573L153.35569291666667,65.94773465394974L153.76741291666667,25.819564998149893L153.81315958333332,70.45507335662842L154.08763958333333,58.883809089660645L154.17913291666665,38.94453102350235L154.22487958333332,59.43362349271774L154.49935958333333,95.80313676595688L154.63659958333335,63.94338870048523L154.68234625,63.098595678806305L154.91107958333333,51.86266386508942L155.00257291666668,53.59249824285507L155.09406625,71.01406627893448L155.23130625,83.83408391475677L155.64302625,66.47908651828766L155.87175958333333,57.271976709365845L155.96325291666665,72.69779706001282L156.00899958333332,109.82095116376875L156.05474625000002,14.967390239238759L156.55795958333334,22.587354719638846L157.01542625,43.67378944158554L157.38139958333332,95.47977858781815L158.15909291666668,83.4410428404808L158.4793195833333,77.47801208496094L158.52506625,78.00672644376755L158.66230625,79.22018998861313L159.11977291666665,19.729986727237723L159.39425291666666,14.487047731876393L159.57723958333335,33.13315683603287L159.80597291666666,-10.893878996372184L159.89746624999998,39.899993777275085L159.98895958333335,39.02845644950867L160.08045291666667,-0.35224413871761207L160.17194625,57.89089375734329L160.35493291666668,16.506058216094992L160.40067958333333,35.74112230539322L160.53791958333332,35.8418750166893L160.81239958333333,14.994187295436879L160.90389291666665,25.837816536426566L161.04113291666667,36.73335188627243L161.40710625,92.1214427947998L161.49859958333334,56.1217605471611L161.54434625,47.17286252975464L161.59009291666666,26.543665766716025L161.95606625,30.08129918575287L162.64226625,52.501256704330444L162.73375958333332,27.83941948413851L162.82525291666667,34.945861637592316L162.91674625,47.17629128694534L163.00823958333334,19.57606190443041L163.4199595833333,-21.899503827094993L163.60294625,-38.48392760753627L164.19765291666667,40.763987839221954L164.38063958333333,32.37603449821472L165.24982625,60.87085300683975L165.93602625000003,11.505136728286763L165.98177291666667,51.542206943035126L166.25625291666665,14.509941279888173L166.30199958333336,17.591338992118857L166.39349291666667,24.70242315530779L166.53073291666666,44.022942423820496L166.75946625,32.12721222639084L166.89670625,36.77987748384476L166.94245291666667,52.79961133003235L167.03394625,34.53293377161026L167.76589291666667,39.47255963087082L168.08611958333336,58.187032878398895L168.26910625,34.52401900291443L168.58933291666668,54.944958329200745L168.63507958333332,106.02252119779585L168.95530625,29.916507840156555L169.09254625,73.5712861418724L170.19046625000001,65.65871679782867L170.32770625,67.3319503068924L170.64793291666666,39.232704877853394L170.78517291666665,32.404730558395386L170.83091958333333,71.1207270026207L170.92241291666667,28.896637201309225L170.96815958333335,49.65823674201965L171.28838625,36.30243623256683L171.37987958333335,36.05524921417236L171.88309291666667,16.540451288223288L172.11182625,43.17625039815903L172.52354624999998,23.24820810556414L172.61503958333333,43.60231304168701L172.70653291666667,13.903473258018513L172.88951958333334,56.666352689266205L173.02675958333336,87.0201905965805L173.62146625,48.790339171886444L173.66721291666664,68.87932205200195L173.71295958333334,37.28422129154205L173.98743958333333,18.066933989524863L174.35341291666666,54.38095414638519L174.62789291666667,73.78260308504105L174.67363958333334,45.50295227766037L174.71938624999999,35.371449530124664L174.90237291666668,31.076799273490906L175.13110625000002,54.7141238451004L175.45133291666664,32.184498846530914L175.81730624999997,97.40964138507843L176.00029291666667,21.604725658893607L176.18327958333336,27.295143842697165L176.27477291666668,66.60241627693176L176.5492529166667,66.43999868631363L176.68649291666668,35.06259763240814L176.77798625,50.19037985801697L176.86947958333332,65.72671169042587L176.96097291666666,56.004180550575256L177.09821291666665,64.44952601194382L177.32694625000002,40.50440454483032L177.87590624999999,31.866995930671692L178.10463958333332,37.31286460161209L178.3333729166667,83.05459553003311L179.15681291666667,32.628074526786804L179.33979958333333,70.8057033419609L179.47703958333335,88.42587554454803L179.70577291666666,55.66204333305359L179.98025291666667,33.70190852880478L180.02599958333332,24.722784698009512L180.20898625,34.14738321304321L180.30047958333333,50.733653247356415L180.57495958333334,18.565158784389517L180.62070625,28.4721043109894L180.89518625,26.348384857177756L181.21541291666668,38.69143599271774L181.4898929166667,48.31168466806412L181.62713291666668,56.22351551055908L181.90161291666666,59.479357838630676L182.40482624999999,37.62899601459503L182.49631958333333,11.902925312519093L182.81654625,29.681189596652985L182.95378625,-16.341804921627006L183.09102625,45.16107881069183L183.18251958333332,-6.935035943984946L183.41125291666665,10.051712930202504L184.14319958333334,1.084405124187489L184.23469291666666,-22.679308712482413L184.28043958333333,30.12624228000641L184.46342625,28.805485010147116L184.50917291666667,7.10488075017931L184.69215958333334,70.13619893789291L184.78365291666668,47.4834024310112L185.05813291666666,72.72981637716293L185.10387958333334,69.79928398132324L185.42410625000002,32.97801876068115L185.97306625,74.85912734270096L186.20179958333333,55.99901103973389L186.33903958333332,93.13187116384506L186.75075958333332,92.0315038561821L186.79650625000002,30.03915184736252L187.07098625,32.02255600690842L187.11673291666665,72.36378335952759L187.75718625,37.249564468860626L187.94017291666668,63.323996901512146L188.03166625,55.623166501522064L188.12315958333332,62.760942220687866L188.26039958333334,34.96606492996216L188.39763958333333,57.77996027469635L188.80935958333333,24.587902665138266L189.08383958333334,42.27849626541138L189.17533291666666,84.61351954936981L189.67854625,40.21860444545746L189.72429291666668,-12.837456822395286L189.99877291666667,-5.592176377773246L190.31899958333332,10.719001829624196L191.41691958333334,15.437393724918385L191.55415958333333,-17.45040124654766L191.69139958333332,-35.7725191712379L191.78289291666667,28.476640820503256L192.74357291666666,20.6720509529114L192.88081291666668,1.382706999778767L193.06379958333332,0.9624996185302931L193.10954625,9.156121551990529L193.15529291666664,-4.874616622924766L193.42977291666665,-10.916772544383964L193.56701291666667,18.94865208864214L193.65850625000002,29.85974872112274L194.07022625,38.09208923578262L194.25321291666668,42.566881120204926L194.39045291666667,38.9866783618927L194.61918625,48.78527516126633L194.98515958333334,27.110518455505392L195.16814625,48.220110476017L195.25963958333332,8.761814475059529L195.35113291666667,19.08865088224413L195.9458395833333,9.38305252790453L196.03733291666668,5.351045072078724L196.17457291666668,11.863784730434437L196.72353291666667,66.43245542049408L196.90651958333333,2.3701363205909924L197.13525291666667,9.27433454990389L197.22674625,59.15119940042496L197.68421291666667,-15.266704916954001L197.77570625,22.207184672355673L197.86719958333333,-0.15337622165676001L198.46190625,-2.5586230158805456L198.73638624999998,22.529857099056265L199.19385291666669,28.353152811527274L199.42258625,16.257974445819876L199.74281291666665,-8.535421550273856L199.88005291666664,-40.31219369173046L199.97154625000002,0.13564163446428357L200.8864795833333,-36.08300632238384L200.93222624999999,38.46439951658249L200.9779729166667,8.430965781211873L201.20670625,8.218752086162587L201.29819958333331,35.82705223560333L201.57267958333333,10.155999898910542L201.75566625000002,36.50710666179657L202.12163958333335,20.2584373354912L202.16738625,38.61173057556152L202.39611958333336,24.822798907756827L202.44186625,2.220220506191273L202.62485291666667,2.2262867689132886L203.12806625000002,68.81691867113113L203.40254625,50.374108493328094L203.67702624999998,59.09327977895737L203.81426625,29.724286437034607L204.31747958333332,38.802105724811554L204.50046625000002,55.38457775115967L204.68345291666665,15.305096447467823L204.77494625,45.4233523607254L205.00367958333334,15.230877041816731L205.18666624999997,43.35375452041626L205.41539958333334,5.515889167785664L205.64413291666668,19.674968361854575L205.8271195833333,7.583693504333516L205.87286625,45.86887979507446L205.96435958333333,18.65319871902468L206.37607958333334,27.206470906734488L206.42182625,15.329414248466511L206.92503958333333,59.57320028543472L207.01653291666668,4.175561606884022L207.06227958333335,24.25367796421053L207.38250625,-3.4348551034926977L207.47399958333332,10.777343451976796L207.51974625,27.089260160923025L207.56549291666667,79.65363764762878L207.61123958333332,29.843343436717987L207.79422625,17.136527538299582L207.88571958333333,39.410103499889374L208.89214625,9.011902749538441L209.02938625,12.6346220970154L209.66983958333333,41.69529104232788L209.89857291666667,-23.905221283435782L209.94431958333334,32.276600539684296L210.03581291666666,9.076152384281178L210.40178625,47.36740493774414L210.63051958333332,-55.548799395561176L210.95074625,-18.824225127696952L212.23165291666666,6.505639493465443L212.55187958333332,9.38542628288271L213.05509291666667,41.01513111591339L213.28382624999998,23.531845450401327L213.69554625,-4.266988098621329L213.74129291666668,5.897166967391987L214.19875958333333,18.76555645465853L214.24450625,-35.032171368598895L214.29025291666667,-8.775487303733787L214.38174625,3.962820410728474L214.47323958333334,24.448642373085043L214.56473291666666,49.672584772109985L214.61047958333333,-4.641144633293113L214.65622625,50.693035662174225L214.74771958333335,52.456313610076904L215.57115958333333,18.306841492652914L215.79989291666666,10.910959482193013L216.02862625,-17.805567741394004L216.30310625,-25.36297059059139L216.53183958333335,8.93472933769228L217.03505291666667,44.29381424188614L217.44677291666667,32.29622358083725L217.5840129166667,2.34993302822115L217.62975958333334,-20.710147082805594L218.04147958333334,19.77508807182314L218.31595958333335,32.43242436647415L219.00215958333334,-26.19447058439251L219.04790625,30.176829636096954L219.32238625,1.3223608732223706L219.50537291666666,40.022532284259796L219.64261291666665,30.014464795589447L219.91709291666666,25.724773049354575L220.00858624999998,20.061468422412894L220.42030625,40.697944700717926L220.60329291666667,12.987309336662312L220.87777291666666,12.577757477760334L221.10650625,-18.580730617046317L221.56397291666667,-35.73796784877773L221.79270624999998,6.122198939323445L222.11293291666667,6.247216701507588L222.29591958333333,32.02603751420975L222.70763958333333,30.636968851089478L222.84487958333332,25.923113465309164L223.39383958333335,1.0986476540565686L223.71406625,-2.958785355091056L223.85130625,-25.866470396518668L223.9427995833333,14.461991429328938L223.98854625,24.776062309741995L224.17153291666665,1.7454695105552869L224.21727958333332,9.792076885700245L224.26302625,59.52329868078232L224.81198625,28.63278114795687L225.08646625,65.46607339382172L225.13221291666667,-6.518679320812186L225.22370625,31.322614789009094L225.45243958333333,46.710929811000824L225.49818625,-0.7270864248275364L225.63542625,36.63639718294144L225.90990625,9.04988282918932L226.09289291666667,30.34995549917221L226.41311958333333,35.44224017858505L226.87058625,52.28102499246597L227.14506625,-6.3184399008750525L227.32805291666668,33.4921213388443L227.46529291666664,15.120945811271687L227.83126625,38.29617941379547L227.92275958333335,9.691060423851033L228.51746624999998,67.37773740291595L228.70045291666668,16.437166571617148L228.74619958333332,48.93234246969223L229.61538625,15.788867712020894L229.66113291666667,44.533668994903564L229.79837291666666,16.478839159011862L230.11859958333332,36.393852174282074L230.21009291666667,35.457695960998535L230.57606625,38.462236762046814L230.66755958333334,10.357452571392079L230.71330625000002,25.47136151790621L231.30801291666666,30.11099749803543L231.39950625,32.50015550851822L231.44525291666667,46.03440964221954L231.81122625,41.54025846719742L231.85697291666668,29.94293564558029L231.99421291666667,59.702965557575226L232.08570625000002,51.51688688993454L232.49742625000002,61.47494727373123L232.63466625,6.490394711494465L232.72615958333333,-29.196690380573234L232.81765291666667,-0.601752161979636L233.36661291666667,13.547410011291523L234.14430625,9.13670951128008L234.37303958333334,32.45668941736221L234.83050624999998,19.77202856540682L235.10498625,-5.752747714519462L235.42521291666668,-8.220028638839683L235.69969291666666,45.367911994457245L235.79118625,39.116549134254456L235.97417291666667,14.601040720939656L236.29439958333333,-6.46028494834896L236.34014625,-4.738996088504752L236.38589291666668,12.285469114780446L236.84335958333332,41.39688366651535L237.57530625,104.20781189203261L237.80403958333335,106.56189107894896L238.03277291666666,47.70500564575195L238.26150625,48.84324753284454L238.30725291666667,64.55766373872757L238.39874625,52.35255414247513L238.53598625,41.4714195728302L238.99345291666666,35.73231303691864L239.17643958333335,67.10918658971786L239.22218625000002,29.881903767585754L239.49666624999998,71.37814754247665L239.67965291666667,45.02878153324127L239.72539958333334,53.03841108083725L240.09137291666667,108.92166727781294L240.18286625,43.98153358697891L240.2286129166667,34.19417256116867L240.27435958333334,81.8386527299881L240.36585291666668,78.30101931095123L240.50309291666665,64.75479090213776L240.54883958333332,8.510249197483082L240.59458625000002,84.16646236181259L240.64033291666667,-2.475752592086753L240.82331958333333,30.336187720298767L240.91481291666665,60.369726955890656L241.05205291666667,107.73916804790495L241.09779958333334,94.90828388929367L241.14354624999999,72.50436240434647L241.18929291666666,93.76772099733353L241.28078625,36.42212623357773L241.41802625,65.63091748952866L241.46377291666667,77.02320063114166L241.73825291666668,77.91335874795914L242.0127329166667,-7.017220616340598L242.10422625,93.15360420942307L242.24146625,32.39950829744339L242.79042625,46.039842903614044L243.15639958333333,-19.201335668563804L243.20214625,37.56268912553787L243.24789291666667,53.1757196187973L243.52237291666668,45.14926278591156L243.84259958333334,25.039285361766837L244.07133291666665,58.75019305944443L244.39155958333333,45.367753744125366L244.57454625,64.89183568954468L244.8032795833333,64.28726667165756L244.98626625,85.88611596822739L245.26074625,45.96382999420166L245.35223958333333,20.350961029529593L245.48947958333332,54.577290058135986L245.71821291666666,41.557455003261566" style="fill: none;" fill="none"></path></g></g></g></g></g></g><g transform="translate(61, 177)" clip-path="url(#clip_1)"><clipPath id="clip_1"><rect width="268" height="23"></rect></clipPath><g><g><line x1="0" y1="0" x2="0" y2="5" style="visibility: inherit;" fill="rgb(0, 0, 0)" stroke="rgb(204, 204, 204)" stroke-width="1px"></line><line x1="22.337239583333332" y1="0" x2="22.337239583333332" y2="5" style="visibility: inherit;" fill="rgb(0, 0, 0)" stroke="rgb(204, 204, 204)" stroke-width="1px"></line><line x1="44.674479166666664" y1="0" x2="44.674479166666664" y2="5" style="visibility: inherit;" fill="rgb(0, 0, 0)" stroke="rgb(204, 204, 204)" stroke-width="1px"></line><line x1="67.01171875" y1="0" x2="67.01171875" y2="5" style="visibility: inherit;" fill="rgb(0, 0, 0)" stroke="rgb(204, 204, 204)" stroke-width="1px"></line><line x1="89.34895833333333" y1="0" x2="89.34895833333333" y2="5" style="visibility: inherit;" fill="rgb(0, 0, 0)" stroke="rgb(204, 204, 204)" stroke-width="1px"></line><line x1="111.68619791666667" y1="0" x2="111.68619791666667" y2="5" style="visibility: inherit;" fill="rgb(0, 0, 0)" stroke="rgb(204, 204, 204)" stroke-width="1px"></line><line x1="134.0234375" y1="0" x2="134.0234375" y2="5" style="visibility: inherit;" fill="rgb(0, 0, 0)" stroke="rgb(204, 204, 204)" stroke-width="1px"></line><line x1="156.36067708333334" y1="0" x2="156.36067708333334" y2="5" style="visibility: inherit;" fill="rgb(0, 0, 0)" stroke="rgb(204, 204, 204)" stroke-width="1px"></line><line x1="178.69791666666666" y1="0" x2="178.69791666666666" y2="5" style="visibility: inherit;" fill="rgb(0, 0, 0)" stroke="rgb(204, 204, 204)" stroke-width="1px"></line><line x1="201.03515625" y1="0" x2="201.03515625" y2="5" style="visibility: inherit;" fill="rgb(0, 0, 0)" stroke="rgb(204, 204, 204)" stroke-width="1px"></line><line x1="223.37239583333334" y1="0" x2="223.37239583333334" y2="5" style="visibility: inherit;" fill="rgb(0, 0, 0)" stroke="rgb(204, 204, 204)" stroke-width="1px"></line><line x1="245.70963541666666" y1="0" x2="245.70963541666666" y2="5" style="visibility: inherit;" fill="rgb(0, 0, 0)" stroke="rgb(204, 204, 204)" stroke-width="1px"></line><line x1="268.046875" y1="0" x2="268.046875" y2="5" style="visibility: inherit;" fill="rgb(0, 0, 0)" stroke="rgb(204, 204, 204)" stroke-width="1px"></line></g><g transform="translate(0, 8)"><text x="0" y="0" dx="0em" dy="0.95em" style="text-anchor: middle; visibility: hidden; font-family: Roboto, sans-serif; font-size: 12px; font-weight: 200;" fill="rgb(33, 33, 33)" stroke="none" stroke-width="1px">-1M</text><text x="22.337239583333332" y="0" dx="0em" dy="0.95em" style="text-anchor: middle; visibility: inherit; font-family: Roboto, sans-serif; font-size: 12px; font-weight: 200;" fill="rgb(33, 33, 33)" stroke="none" stroke-width="1px">0</text><text x="44.674479166666664" y="0" dx="0em" dy="0.95em" style="text-anchor: middle; visibility: hidden; font-family: Roboto, sans-serif; font-size: 12px; font-weight: 200;" fill="rgb(33, 33, 33)" stroke="none" stroke-width="1px">1M</text><text x="67.01171875" y="0" dx="0em" dy="0.95em" style="text-anchor: middle; visibility: inherit; font-family: Roboto, sans-serif; font-size: 12px; font-weight: 200;" fill="rgb(33, 33, 33)" stroke="none" stroke-width="1px">2M</text><text x="89.34895833333333" y="0" dx="0em" dy="0.95em" style="text-anchor: middle; visibility: hidden; font-family: Roboto, sans-serif; font-size: 12px; font-weight: 200;" fill="rgb(33, 33, 33)" stroke="none" stroke-width="1px">3M</text><text x="111.68619791666667" y="0" dx="0em" dy="0.95em" style="text-anchor: middle; visibility: inherit; font-family: Roboto, sans-serif; font-size: 12px; font-weight: 200;" fill="rgb(33, 33, 33)" stroke="none" stroke-width="1px">4M</text><text x="134.0234375" y="0" dx="0em" dy="0.95em" style="text-anchor: middle; visibility: hidden; font-family: Roboto, sans-serif; font-size: 12px; font-weight: 200;" fill="rgb(33, 33, 33)" stroke="none" stroke-width="1px">5M</text><text x="156.36067708333334" y="0" dx="0em" dy="0.95em" style="text-anchor: middle; visibility: inherit; font-family: Roboto, sans-serif; font-size: 12px; font-weight: 200;" fill="rgb(33, 33, 33)" stroke="none" stroke-width="1px">6M</text><text x="178.69791666666666" y="0" dx="0em" dy="0.95em" style="text-anchor: middle; visibility: hidden; font-family: Roboto, sans-serif; font-size: 12px; font-weight: 200;" fill="rgb(33, 33, 33)" stroke="none" stroke-width="1px">7M</text><text x="201.03515625" y="0" dx="0em" dy="0.95em" style="text-anchor: middle; visibility: inherit; font-family: Roboto, sans-serif; font-size: 12px; font-weight: 200;" fill="rgb(33, 33, 33)" stroke="none" stroke-width="1px">8M</text><text x="223.37239583333334" y="0" dx="0em" dy="0.95em" style="text-anchor: middle; visibility: hidden; font-family: Roboto, sans-serif; font-size: 12px; font-weight: 200;" fill="rgb(33, 33, 33)" stroke="none" stroke-width="1px">9M</text><text x="245.70963541666666" y="0" dx="0em" dy="0.95em" style="text-anchor: middle; visibility: inherit; font-family: Roboto, sans-serif; font-size: 12px; font-weight: 200;" fill="rgb(33, 33, 33)" stroke="none" stroke-width="1px">10M</text><text x="268.046875" y="0" dx="0em" dy="0.95em" style="text-anchor: middle; visibility: hidden; font-family: Roboto, sans-serif; font-size: 12px; font-weight: 200;" fill="rgb(33, 33, 33)" stroke="none" stroke-width="1px">11M</text></g><line x1="0" y1="0" x2="268.046875" y2="0" fill="rgb(0, 0, 0)" stroke="rgb(204, 204, 204)" stroke-width="1px"></line></g></g></g></g></svg>