<svg viewBox="0 0 330 200" xmlns="http://www.w3.org/2000/svg"><g><g><g><g><g><line x1="61.953125" y1="177" x2="56.953125" y2="177" style="visibility: inherit;" fill="rgb(0, 0, 0)" stroke="rgb(204, 204, 204)" stroke-width="1px"></line><line x1="61.953125" y1="159.29999999999998" x2="56.953125" y2="159.29999999999998" style="visibility: inherit;" fill="rgb(0, 0, 0)" stroke="rgb(204, 204, 204)" stroke-width="1px"></line><line x1="61.953125" y1="141.59999999999997" x2="56.953125" y2="141.59999999999997" style="visibility: inherit;" fill="rgb(0, 0, 0)" stroke="rgb(204, 204, 204)" stroke-width="1px"></line><line x1="61.953125" y1="123.89999999999999" x2="56.953125" y2="123.89999999999999" style="visibility: inherit;" fill="rgb(0, 0, 0)" stroke="rgb(204, 204, 204)" stroke-width="1px"></line><line x1="61.953125" y1="106.19999999999997" x2="56.953125" y2="106.19999999999997" style="visibility: inherit;" fill="rgb(0, 0, 0)" stroke="rgb(204, 204, 204)" stroke-width="1px"></line><line x1="61.953125" y1="88.49999999999999" x2="56.953125" y2="88.49999999999999" style="visibility: inherit;" fill="rgb(0, 0, 0)" stroke="rgb(204, 204, 204)" stroke-width="1px"></line><line x1="61.953125" y1="70.8" x2="56.953125" y2="70.8" style="visibility: inherit;" fill="rgb(0, 0, 0)" stroke="rgb(204, 204, 204)" stroke-width="1px"></line><line x1="61.953125" y1="53.09999999999999" x2="56.953125" y2="53.09999999999999" style="visibility: inherit;" fill="rgb(0, 0, 0)" stroke="rgb(204, 204, 204)" stroke-width="1px"></line><line x1="61.953125" y1="35.39999999999997" x2="56.953125" y2="35.39999999999997" style="visibility: inherit;" fill="rgb(0, 0, 0)" stroke="rgb(204, 204, 204)" stroke-width="1px"></line><line x1="61.953125" y1="17.700000000000017" x2="56.953125" y2="17.700000000000017" style="visibility: inherit;" fill="rgb(0, 0, 0)" stroke="rgb(204, 204, 204)" stroke-width="1px"></line><line x1="61.953125" y1="0" x2="56.953125" y2="0" style="visibility: inherit;" fill="rgb(0, 0, 0)" stroke="rgb(204, 204, 204)" stroke-width="1px"></line></g><g transform="translate(51.953125, 0)"><text x="0" y="177" dx="0em" dy="0.3em" style="text-anchor: end; visibility: hidden; font-family: Roboto, sans-serif; font-size: 12px; font-weight: 200;" fill="rgb(33, 33, 33)" stroke="none" stroke-width="1px">0.06</text><text x="0" y="159.29999999999998" dx="0em" dy="0.3em" style="text-anchor: end; visibility: inherit; font-family: Roboto, sans-serif; font-size: 12px; font-weight: 200;" fill="rgb(33, 33, 33)" stroke="none" stroke-width="1px">0.065</text><text x="0" y="141.59999999999997" dx="0em" dy="0.3em" style="text-anchor: end; visibility: hidden; font-family: Roboto, sans-serif; font-size: 12px; font-weight: 200;" fill="rgb(33, 33, 33)" stroke="none" stroke-width="1px">0.07</text><text x="0" y="123.89999999999999" dx="0em" dy="0.3em" style="text-anchor: end; visibility: inherit; font-family: Roboto, sans-serif; font-size: 12px; font-weight: 200;" fill="rgb(33, 33, 33)" stroke="none" stroke-width="1px">0.075</text><text x="0" y="106.19999999999997" dx="0em" dy="0.3em" style="text-anchor: end; visibility: hidden; font-family: Roboto, sans-serif; font-size: 12px; font-weight: 200;" fill="rgb(33, 33, 33)" stroke="none" stroke-width="1px">0.08</text><text x="0" y="88.49999999999999" dx="0em" dy="0.3em" style="text-anchor: end; visibility: inherit; font-family: Roboto, sans-serif; font-size: 12px; font-weight: 200;" fill="rgb(33, 33, 33)" stroke="none" stroke-width="1px">0.085</text><text x="0" y="70.8" dx="0em" dy="0.3em" style="text-anchor: end; visibility: hidden; font-family: Roboto, sans-serif; font-size: 12px; font-weight: 200;" fill="rgb(33, 33, 33)" stroke="none" stroke-width="1px">0.09</text><text x="0" y="53.09999999999999" dx="0em" dy="0.3em" style="text-anchor: end; visibility: inherit; font-family: Roboto, sans-serif; font-size: 12px; font-weight: 200;" fill="rgb(33, 33, 33)" stroke="none" stroke-width="1px">0.095</text><text x="0" y="35.39999999999997" dx="0em" dy="0.3em" style="text-anchor: end; visibility: hidden; font-family: Roboto, sans-serif; font-size: 12px; font-weight: 200;" fill="rgb(33, 33, 33)" stroke="none" stroke-width="1px">0.1</text><text x="0" y="17.700000000000017" dx="0em" dy="0.3em" style="text-anchor: end; visibility: inherit; font-family: Roboto, sans-serif; font-size: 12px; font-weight: 200;" fill="rgb(33, 33, 33)" stroke="none" stroke-width="1px">0.105</text><text x="0" y="0" dx="0em" dy="0.3em" style="text-anchor: end; visibility: hidden; font-family: Roboto, sans-serif; font-size: 12px; font-weight: 200;" fill="rgb(33, 33, 33)" stroke="none" stroke-width="1px">0.11</text></g><line x1="61.953125" y1="0" x2="61.953125" y2="177" fill="rgb(0, 0, 0)" stroke="rgb(204, 204, 204)" stroke-width="1px"></line></g></g><g transform="translate(61, 0)" clip-path="url(#clip_0)"><clipPath id="clip_0"><rect width="268" height="177"></rect></clipPath><g><g><g><line x1="0" y1="0" x2="0" y2="177" fill="rgb(0, 0, 0)" stroke="rgb(66, 66, 66)" stroke-width="1px" opacity="0.25"></line><line x1="22.337239583333332" y1="0" x2="22.337239583333332" y2="177" fill="rgb(0, 0, 0)" stroke="rgb(66, 66, 66)" stroke-width="1px" opacity="0.25"></line><line x1="44.674479166666664" y1="0" x2="44.674479166666664" y2="177" fill="rgb(0, 0, 0)" stroke="rgb(66, 66, 66)" stroke-width="1px" opacity="0.25"></line><line x1="67.01171875" y1="0" x2="67.01171875" y2="177" fill="rgb(0, 0, 0)" stroke="rgb(66, 66, 66)" stroke-width="1px" opacity="0.25"></line><line x1="89.34895833333333" y1="0" x2="89.34895833333333" y2="177" fill="rgb(0, 0, 0)" stroke="rgb(66, 66, 66)" stroke-width="1px" opacity="0.25"></line><line x1="111.68619791666667" y1="0" x2="111.68619791666667" y2="177" fill="rgb(0, 0, 0)" stroke="rgb(66, 66, 66)" stroke-width="1px" opacity="0.25"></line><line x1="134.0234375" y1="0" x2="134.0234375" y2="177" fill="rgb(0, 0, 0)" stroke="rgb(66, 66, 66)" stroke-width="1px" opacity="0.25"></line><line x1="156.36067708333334" y1="0" x2="156.36067708333334" y2="177" fill="rgb(0, 0, 0)" stroke="rgb(66, 66, 66)" stroke-width="1px" opacity="0.25"></line><line x1="178.69791666666666" y1="0" x2="178.69791666666666" y2="177" fill="rgb(0, 0, 0)" stroke="rgb(66, 66, 66)" stroke-width="1px" opacity="0.25"></line><line x1="201.03515625" y1="0" x2="201.03515625" y2="177" fill="rgb(0, 0, 0)" stroke="rgb(66, 66, 66)" stroke-width="1px" opacity="0.25"></line><line x1="223.37239583333334" y1="0" x2="223.37239583333334" y2="177" fill="rgb(0, 0, 0)" stroke="rgb(66, 66, 66)" stroke-width="1px" opacity="0.25"></line><line x1="245.70963541666666" y1="0" x2="245.70963541666666" y2="177" fill="rgb(0, 0, 0)" stroke="rgb(66, 66, 66)" stroke-width="1px" opacity="0.25"></line><line x1="268.046875" y1="0" x2="268.046875" y2="177" fill="rgb(0, 0, 0)" stroke="rgb(66, 66, 66)" stroke-width="1px" opacity="0.25"></line></g><g><line x1="0" y1="177" x2="268.046875" y2="177" fill="rgb(0, 0, 0)" stroke="rgb(66, 66, 66)" stroke-width="1px" opacity="0.25"></line><line x1="0" y1="159.29999999999998" x2="268.046875" y2="159.29999999999998" fill="rgb(0, 0, 0)" stroke="rgb(66, 66, 66)" stroke-width="1px" opacity="0.25"></line><line x1="0" y1="141.59999999999997" x2="268.046875" y2="141.59999999999997" fill="rgb(0, 0, 0)" stroke="rgb(66, 66, 66)" stroke-width="1px" opacity="0.25"></line><line x1="0" y1="123.89999999999999" x2="268.046875" y2="123.89999999999999" fill="rgb(0, 0, 0)" stroke="rgb(66, 66, 66)" stroke-width="1px" opacity="0.25"></line><line x1="0" y1="106.19999999999997" x2="268.046875" y2="106.19999999999997" fill="rgb(0, 0, 0)" stroke="rgb(66, 66, 66)" stroke-width="1px" opacity="0.25"></line><line x1="0" y1="88.49999999999999" x2="268.046875" y2="88.49999999999999" fill="rgb(0, 0, 0)" stroke="rgb(66, 66, 66)" stroke-width="1px" opacity="0.25"></line><line x1="0" y1="70.8" x2="268.046875" y2="70.8" fill="rgb(0, 0, 0)" stroke="rgb(66, 66, 66)" stroke-width="1px" opacity="0.25"></line><line x1="0" y1="53.09999999999999" x2="268.046875" y2="53.09999999999999" fill="rgb(0, 0, 0)" stroke="rgb(66, 66, 66)" stroke-width="1px" opacity="0.25"></line><line x1="0" y1="35.39999999999997" x2="268.046875" y2="35.39999999999997" fill="rgb(0, 0, 0)" stroke="rgb(66, 66, 66)" stroke-width="1px" opacity="0.25"></line><line x1="0" y1="17.700000000000017" x2="268.046875" y2="17.700000000000017" fill="rgb(0, 0, 0)" stroke="rgb(66, 66, 66)" stroke-width="1px" opacity="0.25"></line><line x1="0" y1="0" x2="268.046875" y2="0" fill="rgb(0, 0, 0)" stroke="rgb(66, 66, 66)" stroke-width="1px" opacity="0.25"></line></g></g></g><g><g><line x1="0" y1="389.40000000000003" x2="268.046875" y2="389.40000000000003" fill="rgb(0, 0, 0)" stroke="rgb(153, 153, 153)" stroke-width="1.5px"></line></g></g><g><g><line x1="22.337239583333332" y1="0" x2="22.337239583333332" y2="177" fill="rgb(0, 0, 0)" stroke="rgb(153, 153, 153)" stroke-width="1.5px"></line></g></g><g><g><g><g><g><path stroke="rgb(255, 112, 67)" stroke-width="2px" d="M22.657466250000002,212.2271484375L23.252172916666666,141.3580012187362L23.526652916666666,109.25700550128L24.258599583333336,103.11777576723082L24.350092916666668,94.06373471296308L24.487332916666666,74.52655585077933L24.57882625,77.2040144351026L24.85330625,86.14548589128385L24.990546249999998,103.00745358413626L25.67674625,98.68560945672533L25.81398625,76.81820536075585L26.042719583333334,65.8273913416428L26.408692916666666,67.97134010585637L26.728919583333333,35.83481226210846L27.094892916666666,38.56607358531933L27.232132916666668,15.99796071850263L27.277879583333334,34.34039681779402L27.598106249999997,43.960918275418756L27.82683958333333,77.1831045315248L28.192812916666668,92.89739460326645L28.78751958333333,83.17321922319574L29.29073291666667,82.31704948487426L29.51946625,130.68616066141857L29.65670625,112.06926021286863L30.068426249999998,124.54534581760072L30.114172916666664,140.1204392938285L30.571639583333337,128.37756616758395L30.800372916666667,114.69434168775685L30.89186625,132.06645305351762L30.937612916666666,117.25338207232251L31.120599583333334,160.7741443911768L31.486572916666667,177.6908921210483L31.85254625,146.14913892143935L31.89829291666667,138.83971540843555L32.12702625,176.0075819940077L32.630239583333335,153.7817322471489L32.90471958333333,145.77005914371668L33.13345291666666,140.4099282013312L33.27069291666667,131.10947252507808L33.81965291666666,158.23271691130824L34.094132916666666,174.5066635198419L34.32286625,91.3460251018769L34.46010625,141.77269320068623L34.64309291666667,112.91345966541213L34.82607958333333,85.01940181134339L34.917572916666664,71.32516093096079L35.786759583333335,105.49181108984618L36.015492916666666,106.14844391891802L36.06123958333333,143.9475059618644L36.28997291666666,95.4120994367308L36.51870625,102.86624192707016L36.61019958333333,74.98091281115217L36.97617291666666,93.71885807671956L37.021919583333336,118.72061594106681L37.34214625,152.389634134659L37.525132916666664,153.78479188578703L37.936852916666666,157.52580122648195L38.302826249999995,117.8711838608838L39.03477291666666,116.13426859652127L39.21775958333334,113.3636038129038L39.49223958333334,131.19886963275164L39.67522625,139.68752068464227L39.766719583333334,96.38227381577602L41.68807958333333,104.90030389947006L41.73382625,119.55253030969092L41.82531958333333,126.5462056858146L42.09979958333333,149.06467653648875L42.51151958333333,77.67106943688883L42.60301291666667,123.12748646713557L42.64875958333333,122.74508141027246L42.785999583333336,129.63712486115907L43.06047958333333,139.37274577669987L43.472199583333335,134.63560059101988L43.609439583333334,133.72925308961638L43.65518625,140.30693107377869L44.11265291666667,149.09338161427604L44.89034625,123.4593841235568L44.98183958333333,122.73680656914296L45.622292916666666,110.13450581648578L45.851026250000004,69.45477020990029L45.942519583333336,141.91293814093572L46.079759583333335,157.6624493295592L46.445732916666664,155.15083108273993L46.72021291666666,137.2575341196528L46.81170625,150.5133507067961L46.94894625,69.06801042407763L47.22342625,105.38205414444212L47.452159583333334,80.01657623666529L47.90962625,112.7808790219903L48.18410625,121.1004024131942L48.45858625,140.74992683791208L48.64157291666667,116.03338938273842L48.916052916666665,123.39761175464305L49.00754625,118.13645767778583L49.05329291666667,125.83484124666708L49.14478625,136.81480677799144L49.236279583333335,101.15787055179925L49.28202625,80.59339420607955L49.51075958333333,88.85861675865218L49.55650625,98.72672833518244L49.96822625,115.08783387610946L50.24270625,116.6767670456745L50.33419958333333,141.13793417240248L50.56293291666667,168.0525282384459L50.79166625,127.98995444306749L50.88315958333333,148.34068930583604L51.43211958333334,78.13550733350162L51.752346249999995,113.10419502510095L51.79809291666667,124.61314412506503L51.88958625,132.62475725503018L51.98107958333333,41.187987793035816L52.02682625,84.0907656458303L52.11831958333333,69.66172501249815L52.66727958333334,106.2914100074989L52.80451958333333,90.58758037949934L52.987506249999996,118.36294096270403L53.12474625,132.193387467618L53.26198625,115.11704810557076L53.444972916666664,95.95210808335128L53.49071958333334,78.02306383501524L53.67370625,129.21563623101133L53.90243958333334,148.73039525360238L53.94818625,137.06971730715256L54.40565291666667,128.0682366342915L54.58863958333333,124.1884398705705L54.72587958333333,83.34923579734227L55.09185291666667,109.5949278833965L55.27483958333333,102.66422657504673L55.41207958333334,109.01517868003246L55.45782625,104.80543322301504L55.50357291666667,41.85068391881349L55.82379958333333,69.27744582129698L56.09827958333333,91.54131124277816L56.18977291666666,67.42541385567134L56.235519583333335,95.82306292340722L56.41850625,75.52571486404878L56.601492916666665,114.37308411342705L56.73873291666667,124.2682233580518L56.78447958333333,10.522891359839933L56.83022625,82.1471733709062L57.01321291666667,125.74400925754816L57.42493291666666,129.15483883452006L57.60791958333333,122.48962416071643L57.65366625,94.49870059143866L57.69941291666667,79.36351722986323L57.790906250000006,96.76326869792238L57.836652916666665,102.08670699874457L58.11113291666667,87.58077630925115L58.294119583333334,37.461977190541816L58.33986625,56.480541469316236L58.43135958333333,81.44324675658974L58.52285291666667,60.19118664896267L58.66009291666666,28.149709879373173L58.705839583333336,42.94200920761503L58.751586249999995,105.33223888457343L58.79733291666667,113.51989020574409L58.93457291666666,82.20279771845532L59.11755958333333,128.8887119910776L59.34629291666666,97.99245016465538L59.392039583333336,90.37890337878437L59.43778625,77.2373420272706L59.71226625,94.6578781863712L60.48995958333333,50.90394355181827L60.67294625,107.48205363109096L60.764439583333335,68.41641545864574L60.993172916666666,92.13094724519631L62.09109291666667,100.34442350210894L62.18258625,42.9768124612698L62.41131958333334,83.64295825675305L62.50281291666667,113.15905831405625L62.685799583333335,152.37145166843595L62.77729291666667,162.62388451605716L63.143266249999996,155.01636406963874L63.41774625,128.1885726617921L63.600732916666665,152.81572172207524L63.920959583333335,156.4603663132363L64.01245291666667,129.95379369293295L64.28693291666667,133.2018116857686L64.37842625,85.71507560647001L64.51566625000001,135.21365579388421L64.56141291666667,155.44053511632612L64.65290625,145.2442387247868L65.01887958333333,164.98506096987649L65.06462625,148.6201772069259L65.20186625,118.61218655915995L65.52209291666667,47.85309318549599L65.65933291666666,63.89061013130644L66.07105291666666,101.03108060877501L66.25403958333334,151.10989731026282L66.39127958333333,114.36734463615772L66.43702625,131.45541100170348L66.84874625,122.14145183602649L66.89449291666666,142.1351075866203L67.07747958333333,117.69419377198105L67.12322625,134.69604329317977L67.16897291666668,156.78934367090562L67.21471958333333,137.41094573253451L67.39770625,87.89485290952956L67.44345291666666,94.27660135572218L67.58069291666666,85.86776190844216L67.62643958333332,115.66932902006529L67.99241291666667,8.060034912039132L68.17539958333333,51.00813032222346L68.26689291666666,54.72113241334288L68.35838625,84.39775968301016L68.40413291666667,95.08224955980607L68.81585291666667,7.046845515874795L68.95309291666666,82.89631043452488L69.31906625,73.64661649571931L69.41055958333332,88.42413966242717L69.59354624999999,73.02230051746517L69.63929291666668,87.2198646854791L69.86802625,68.42785631128741L70.18825291666667,124.97960335677026L70.69146625,139.0672890440533L70.78295958333334,123.2515474114364L71.05743958333333,112.5867139168707L71.19467958333334,107.43233663011357L71.28617291666667,111.04635932307697L71.46915958333334,96.69015723384177L71.65214625,129.56081098030063L71.74363958333333,134.1414105731848L71.97237291666667,60.00539743891976L72.01811958333333,64.75191244835625L72.06386624999999,105.76544434401372L72.42983958333335,109.14739371641262L72.70431958333333,120.7179716998564L72.88730625,68.54508411492272L72.93305291666667,66.07299007895804L72.97879958333334,84.98621803237924L73.39051958333333,95.29704542943199L73.61925291666667,95.468309602668L74.25970625000001,105.31988990159635L74.35119958333333,93.25427558095338L75.26613291666668,78.96256534857203L75.31187958333334,87.94925373913436L75.49486625,118.50846060348505L75.54061291666666,125.09007847209546L75.58635958333333,107.53631059825281L76.40979958333334,138.5575697189561L76.63853291666666,111.26094386136485L76.95875958333333,112.79039655182335L77.00450624999999,76.23385152610282L77.27898625,74.69640888567054L77.37047958333332,121.06612658140236L77.59921291666667,164.09889469884143L77.69070624999999,133.98379416431374L77.78219958333334,86.18426509359709L77.96518625,83.01743405615825L78.78862625,112.23061668369496L78.88011958333334,142.13469919021918L78.97161291666666,137.39902685914038L79.33758625,86.02089627047538L79.47482624999999,124.81863045728299L79.84079958333332,120.57930538437421L79.97803958333333,130.4118779956201L80.11527958333333,147.4430664073765L80.70998625,72.27310757943035L81.03021291666667,91.6101926726582L81.30469291666667,93.25619794860378L81.48767958333333,75.16098439416227L81.57917291666666,96.79995001149737L81.62491958333332,120.77668453688956L81.89939958333333,168.62679408213816L82.35686625000001,159.44779519928287L82.58559958333333,141.01110110457412L82.63134624999999,146.40455550775334L82.76858625,146.80585830465202L83.04306625,149.9505441227868L83.13455958333333,91.8924358486721L83.27179958333333,102.48295939919886L83.40903958333334,114.78337149952374L83.54627958333333,108.75033117970536L83.59202625,121.03285073781436L84.41546625,53.24650520768417L85.10166625,113.58915523461492L85.78786625,133.2009952507734L85.92510625,135.08098777546405L85.97085291666667,79.5828156352873L86.06234625,109.61671852116795L86.10809291666666,118.57964470770965L87.06877291666666,135.71130666963467L87.11451958333335,64.88834861178518L87.34325291666667,33.73363205706664L87.48049291666668,67.86424595424883L87.66347958333334,129.4812808925471L87.75497291666666,142.87454978552825L87.93795958333332,142.3370778413258L88.12094625,136.13764154980427L88.30393291666667,129.37578594487817L89.44759958333334,109.34719453693575L89.49334625,113.57808656717029L89.99655958333334,49.395918660311004L90.36253291666667,108.16747518119102L90.40827958333333,102.43001635871458L90.54551958333333,89.58441184521992L90.63701291666666,118.17587726212305L90.68275958333334,116.38622948227385L91.09447958333334,119.04603034435547L91.41470625000001,74.73254008161331L92.10090625000001,112.16866361896578L92.14665291666667,124.05182528138391L92.28389291666667,103.11062430882596L92.60411958333334,100.91699747529113L93.15307958333334,66.27504223517465L93.38181291666666,27.78986487109594L93.42755958333333,74.94563767265754L93.51905291666667,101.37230658859897L93.83927958333334,101.18768504816825L94.15950624999999,106.95386524890979L94.20525291666667,121.26864938435028L94.61697291666667,122.59775424061458L94.79995958333333,119.93818590437317L94.89145291666667,89.37251669761503L95.07443958333334,114.45342978356456L95.48615958333333,87.60276521514758L95.80638625,71.28494248909297L95.85213291666666,97.17080502344693L96.08086625,105.64998090406374L96.44683958333333,96.28710002744268L96.85855958333335,109.61389853146116L96.90430625,103.57442864886782L97.08729291666667,130.5109061343185L97.31602625,88.66380719558666L97.45326625,148.3219583023564L97.54475958333333,98.31332912140944L97.68199958333334,136.41166723784124L97.81923958333333,138.73590659270474L98.00222624999999,145.86912419062728L98.36819958333334,142.4053068593852L98.73417291666667,136.5934163806267L98.91715958333333,121.55979982837606L99.05439958333334,123.18728192701678L99.10014625,128.79620150121895L99.37462625,151.59006254072693L99.42037291666666,54.433955179427294L99.78634625,72.60982623265636L99.96933291666666,49.083315504589365L100.01507958333333,66.28811430275364L100.06082625,105.8574800666566L100.15231958333332,96.75730264999837L100.28955958333333,26.65070127498135L100.60978625,62.23167498499764L100.65553291666667,16.928690380994176L101.02150625,73.26877672859652L101.06725291666666,112.74235767715348L101.47897291666668,111.05189898129213L101.66195958333334,117.98879563877526L101.75345291666666,68.1521012882563L101.79919958333333,110.77860663295817L101.89069291666667,41.217016169792615L102.11942624999999,53.617162826875585L102.16517291666668,13.557643556129777L102.25666625,65.92232261868229L102.30241291666667,97.41026435120052L102.34815958333334,158.7553794707247L102.57689291666667,130.4319819024437L103.21734625,132.1750464064618L103.62906625000001,120.36073518888591L103.90354624999999,93.84362861333155L104.22377291666666,132.6235979879967L104.26951958333332,143.93025465280243L104.68123958333334,157.07518404168144L105.00146625000001,173.9504229250089L105.41318625,150.19666000500533L105.55042625,75.86120334801203L105.87065291666667,87.3329698988028L105.96214625,22.58634865929055L106.14513291666667,45.34266646056988L106.60259958333334,88.10466448634635L106.64834625,147.9173278318034L106.78558625000001,70.55257997907316L107.01431958333333,76.40404798744389L107.19730625,140.41297566746633L107.79201291666666,134.7757562604842L107.88350625,105.53482453628168L107.92925291666667,118.89613331677783L108.20373291666667,151.8035383100645L108.24947958333334,80.48977501602985L108.29522625,97.30074422962673L108.38671958333333,104.41427677278045L109.02717291666666,78.19137645366385L109.85061291666666,96.75139048220271L110.12509291666667,118.25849264932604L110.44531958333333,122.7967341045912L110.71979958333334,82.99819460275026L110.90278625,127.77571363665015L110.99427958333334,142.1969125569901L111.08577291666667,68.22658503419404L111.36025291666667,101.0053302405253L111.49749291666666,121.08741478431077L111.58898625,77.54760723059093L111.72622625000001,109.50184769835897L111.86346624999999,75.64353471402417L112.00070625,111.9547145784145L112.41242625000001,116.66369023205313L112.50391958333333,77.17501523424067L113.05287958333334,69.7298571105533L113.09862625,67.82096325133644L113.14437291666667,64.67054248079303L113.78482625,112.63068486347579L113.96781291666666,104.96966302808991L114.15079958333332,25.63204063187165L114.33378624999999,52.42477336412739L114.37953291666668,90.07228589347642L114.51677291666667,69.10219966108586L114.60826625,39.23499167165149L114.69975958333333,60.58654398799532L115.06573291666668,61.36700029778834L115.15722625,29.477470023681835L115.29446625,65.3796830292047L115.43170625,101.78624520751839L115.56894625,88.02276063950663L115.66043958333333,107.83576786870842L115.79767958333333,87.02005447122507L115.93491958333333,97.48531182273064L116.66686625000001,159.76837248363395L116.98709291666665,131.73118396018918L117.21582625,110.69128850111349L117.26157291666667,95.50915021067254L117.30731958333332,55.4248651264035L117.39881291666667,92.01062009083769L117.44455958333333,77.66324494449819L117.53605291666666,125.40442923169448L117.62754625,120.99991894400787L117.81053291666666,132.25448261640472L117.99351958333334,102.08613128985168L118.22225291666666,60.54644228890654L118.31374625000001,109.87966119334169L118.63397291666666,73.65771437099617L118.72546625,60.01400784260652L118.77121291666666,54.10941611055506L118.99994625000001,87.83346427633747L119.18293291666667,102.6057774707936L119.41166625,87.33909148247616L119.50315958333334,59.44196629447686L119.54890625,17.813066181677282L120.00637291666666,70.96463236399752L120.05211958333334,88.5434648083941L120.23510625,135.32045283003424L120.37234625,147.06945919802058L120.50958625,132.47784528380797L120.55533291666667,138.2424081852803L120.69257291666666,143.56794069115935L120.73831958333334,15.880065509704444L120.82981291666667,6.679449775831517L121.05854624999999,98.16337404550114L121.10429291666667,46.50802653730509L121.42451958333332,73.17809506237863L121.47026625000001,9.875841412427192L121.65325291666667,22.920272582460758L121.74474624999999,71.81645831447203L121.83623958333334,34.64089061368324L122.01922625,115.21680210321439L122.47669291666666,102.85687813692859L122.56818625,77.60264039715274L122.65967958333333,92.45713533330053L122.70542625,84.22295518498476L122.88841291666667,112.539081390982L123.02565291666667,146.6756342245848L123.39162625,162.31772217474645L123.57461291666667,133.05336978985227L124.21506624999999,127.38694374891138L124.39805291666666,134.4964610143424L124.48954625,118.1582630135966L124.71827958333333,47.442449368140245L124.76402625,72.21765712088416L124.85551958333333,103.19254950753488L124.94701291666667,146.8755286495187L124.99275958333334,149.9923463297068L125.08425291666667,125.72727857781526L125.17574625,122.50730675669357L125.22149291666666,106.6780538190117L125.54171958333333,123.93792182139818L125.67895958333334,147.91454891283666L125.90769291666668,103.87670231771085L126.45665291666667,60.65282037563093L126.63963958333333,60.300522460382986L126.77687958333334,63.61530925622096L127.23434625,25.779187663736984L127.50882625,77.61111056825105L127.55457291666667,86.03213720095508L127.64606625,90.87732919557304L127.78330625,121.64811837734828L127.92054625,113.49145126141342L127.96629291666666,116.27205403683918L128.01203958333335,138.54432406209907L128.46950625,114.77917256225942L128.51525291666667,128.6603139273512L128.56099958333334,164.09212691141292L128.65249291666666,154.3762178668566L129.20145291666665,166.59236923510954L129.24719958333333,191.69120384606794L129.29294625,168.58487644763633L129.33869291666667,157.07186758859064L129.70466625,152.44569445814554L130.11638625,57.78210417488729L130.89407958333334,21.03473125493237L131.53453291666668,-3.4336143720405805L131.71751958333334,50.8185792667712L131.76326625000002,-11.905887909946166L132.22073291666666,-16.50464752157349L132.31222625,23.409160392047024L132.49521291666667,40.23596920523705L132.95267958333335,18.942204413137798L133.31865291666668,-21.835997037099563L133.36439958333332,-44.15957541227739L133.86761291666667,8.752143267629123L134.23358625,-52.56410044441366L134.50806625,22.79224496835621L134.55381291666666,94.4869084260115L134.64530625,37.11151583559802L134.73679958333332,97.47808137635882L134.96553291666666,98.7128602308064L135.8347195833333,129.59904426348382L136.10919958333332,153.17802241809474L136.15494625,151.9070478258568L136.61241291666667,116.02102346050967L136.70390625,77.5499557163014L136.84114624999998,91.8032525697764L136.88689291666665,67.37515466686587L136.93263958333335,125.38509174511728L137.39010625,107.4367602820748L137.43585291666668,-10.845921020772812L137.57309291666667,74.44229324754075L137.84757291666665,73.20662594852443L138.07630625000002,96.80272345911021L138.16779958333333,58.966634075466125L138.25929291666665,83.21146060027083L138.35078625,81.44117534516693L138.76250625,84.52744169210456L138.94549291666667,117.35420361027158L139.12847958333333,111.60650865116739L139.21997291666668,106.84421347069157L139.35721291666664,98.59387605242377L139.76893291666667,103.94562250645423L139.81467958333334,15.337928818890237L139.99766624999998,28.82487088634303L140.27214625,93.88890690680581L140.36363958333334,121.44998054907465L140.91259958333333,104.93741442445362L140.95834625,104.70956224968104L141.00409291666668,110.24238008481305L141.04983958333332,68.41324055088778L141.18707958333334,63.228258940537096L141.37006625,-17.181950885677747L141.64454625,54.32348360858892L141.69029291666666,102.82713915015782L141.82753291666666,141.88557825509025L142.19350624999998,155.3643959380586L142.42223958333332,89.19464896782634L142.5594795833333,1.4400664106869718L142.69671958333333,41.02091695641663L142.74246625,115.51864181384555L143.01694625000002,113.68563399329848L143.10843958333334,93.22645430097025L143.38291958333335,64.21891734557771L143.52015958333334,71.42846189235102L143.65739958333336,50.10301252540621L143.70314625,4.8116597052614445L143.88613291666667,-62.8104176118254L144.75531958333335,13.80968482290034L144.93830624999998,60.611431673731374L145.02979958333333,53.36162673924325L145.25853291666667,125.82697709854818L145.48726625,145.93665395412668L146.08197291666664,177.84582260748044L146.26495958333334,157.02804043948828L146.40219958333333,54.516268948675254L147.0883995833333,28.201790509200745L147.59161291666666,-22.226343349470667L147.63735958333334,-19.710571634682395L147.77459958333333,50.04068615918616L148.04907958333334,-7.878483149497176L148.36930625,71.03720909530611L148.41505291666667,100.68662022217923L148.46079958333334,131.33642736831197L148.50654624999999,130.98919806098277L148.55229291666666,161.68672301659188L148.59803958333336,159.01734208994625L148.9640129166667,125.81845001896333L150.01618625,55.772161651373565L150.06193291666668,50.73462300581968L150.10767958333335,74.60780927350064L150.42790625,99.44109392410478L150.93111958333333,111.16059174445844L151.02261291666665,138.38135610167726L151.57157291666667,139.22631366100637L151.61731958333334,148.5141454615994L151.75455958333333,146.4813757919552L151.84605291666668,120.99336094518198L151.89179958333332,100.51500516211803L151.98329291666667,89.40338020727528L152.85247958333335,135.49069894436298L153.08121291666666,103.75129225661334L153.21845291666668,23.10335769897687L153.35569291666667,18.48060414937729L153.76741291666667,26.28546975462193L153.81315958333332,52.609406852773155L154.08763958333333,99.72447434666829L154.17913291666665,135.52983874799656L154.22487958333332,106.88610426379351L154.49935958333333,90.39126982327168L154.63659958333335,80.49436915895862L154.68234625,38.94880688537074L154.91107958333333,24.392563271218037L155.00257291666668,12.409209837730838L155.09406625,64.05787387264733L155.23130625,98.84980666859722L155.64302625,97.11597353114948L155.87175958333333,146.13349247869414L155.96325291666665,128.59751314220762L156.00899958333332,89.24428702532009L156.05474625000002,129.03430764519427L156.55795958333334,154.29113251711877L157.01542625,149.80928888527131L157.38139958333332,120.22448380117167L158.15909291666668,91.8950830157074L158.4793195833333,129.51853629442886L158.52506625,95.05159263666172L158.66230625,63.65462956700146L159.11977291666665,96.39535164519202L159.39425291666666,112.99760161211523L159.57723958333335,91.22340893727802L159.80597291666666,142.59795372237122L159.89746624999998,86.09806910842269L159.98895958333335,87.5981362300492L160.08045291666667,125.55755572303396L160.17194625,39.021885623838095L160.35493291666668,86.24813559431175L160.40067958333333,78.07763346659146L160.53791958333332,132.3597061349571L160.81239958333333,147.85121219596982L160.90389291666665,156.45470958257744L161.04113291666667,130.78009559455535L161.40710625,67.94485423173322L161.49859958333334,128.9073791790355L161.54434625,129.18606602241687L161.59009291666666,112.34469070845894L161.95606625,161.56251860507754L162.64226625,96.50884350805538L162.73375958333332,48.76491547983324L162.82525291666667,98.24746491289994L162.91674625,38.26160605774439L163.00823958333334,71.06501261965104L163.4199595833333,101.80955655679506L163.60294625,152.890655809077L164.19765291666667,82.66314770545506L164.38063958333333,85.39890424827303L165.24982625,101.97473739397265L165.93602625000003,131.69444970137917L165.98177291666667,75.20010521082305L166.25625291666665,100.557012031485L166.30199958333336,113.90436135888658L166.39349291666667,92.8737084553275L166.53073291666666,118.6975084332009L166.75946625,116.28436021491169L166.89670625,137.92944636395143L166.94245291666667,70.50594906837085L167.03394625,102.5112278010269L167.76589291666667,125.86283254062057L168.08611958333336,164.34957241436788L168.26910625,203.62052364361853L168.58933291666668,192.05966004617554L168.63507958333332,98.8356397777053L168.95530625,96.0012297266276L169.09254625,39.541210805985386L170.19046625000001,96.58511605358902L170.32770625,47.704424787144575L170.64793291666666,54.19085588728234L170.78517291666665,88.36631040736938L170.83091958333333,106.03681327441278L170.92241291666667,128.3930212446388L170.96815958333335,124.86729290177443L171.28838625,124.13466839605582L171.37987958333335,118.92439478763346L171.88309291666667,145.80526292758228L172.11182625,124.73613072655824L172.52354624999998,109.12160242093934L172.61503958333333,85.0259302025636L172.70653291666667,114.47282374653813L172.88951958333334,136.77337963791842L173.02675958333336,20.23847246773339L173.62146625,49.74175957564892L173.66721291666664,37.851542230393775L173.71295958333334,94.53420553323407L173.98743958333333,99.29732230494488L174.35341291666666,97.93761002296249L174.62789291666667,13.807340078795225L174.67363958333334,66.8326810772683L174.71938624999999,91.24984091135656L174.90237291666668,96.56615243680949L175.13110625000002,102.59070919709009L175.45133291666664,99.91364215824964L175.81730624999997,40.22927693494536L176.00029291666667,74.11240991096722L176.18327958333336,120.92315118158476L176.27477291666668,104.2756136789597L176.5492529166667,46.85661820737582L176.68649291666668,55.687256394434314L176.77798625,55.108686181669455L176.86947958333332,100.46349084899727L176.96097291666666,103.06231747940718L177.09821291666665,98.81379462763992L177.32694625000002,89.8346006815751L177.87590624999999,44.34552181393622L178.10463958333332,58.951297463361755L178.3333729166667,-32.05515058196521L179.15681291666667,13.80230027582087L179.33979958333333,11.102319775496968L179.47703958333335,27.94287624029816L179.70577291666666,-27.08326707083883L179.98025291666667,57.71667827249228L180.02599958333332,73.74977469849979L180.20898625,118.56220645909544L180.30047958333333,102.51334372046607L180.57495958333334,120.05628326227078L180.62070625,104.10119605237134L180.89518625,77.58869060143165L181.21541291666668,66.59016537585455L181.4898929166667,44.71097844552156L181.62713291666668,26.190495427317362L181.90161291666666,76.95906499139483L182.40482624999999,75.13153696484576L182.49631958333333,67.74321905390745L182.81654625,85.50437315235334L182.95378625,104.25051662641644L183.09102625,62.25992146085431L183.18251958333332,118.651501861517L183.41125291666665,135.89270010191467L184.14319958333334,156.88507107614436L184.23469291666666,155.37581038069104L184.28043958333333,95.49329872841462L184.46342625,58.73410634705318L184.50917291666667,57.42077841823631L184.69215958333334,5.330440020950651L184.78365291666668,-18.31829426742076L185.10387958333334,-18.177019216262615L185.42410625000002,36.994413470242435L185.97306625,-19.57812598287226L186.20179958333333,2.689691130285473L186.33903958333332,-91.67072501184649L186.75075958333332,-38.83735266209904L186.79650625000002,36.69782277774059L187.07098625,95.15564679164432L187.11673291666665,63.02565580999099L187.75718625,110.88320704099678L187.94017291666668,77.09461172459807L188.03166625,23.426541099776557L188.12315958333332,69.42373926987035L188.26039958333334,87.68807379692662L188.39763958333333,25.35760146313829L188.80935958333333,83.92651294788077L189.08383958333334,19.574509958746138L189.17533291666666,-57.478883554743426L189.67854625,12.030482367153969L189.72429291666668,65.28258418528796L189.99877291666667,113.41275258117055L190.31899958333332,119.82015576871117L191.41691958333334,78.03178518123558L191.55415958333333,57.93688571874576L191.69139958333332,120.27525748624969L191.78289291666667,52.65367011674977L192.74357291666666,48.31040097504103L192.88081291666668,75.91890105503349L193.06379958333332,76.16680938302005L193.10954625,113.85891586481641L193.15529291666664,124.789407798881L193.42977291666665,150.49965924932638L193.56701291666667,126.86136226960468L193.65850625000002,108.80650486176279L194.07022625,65.82319979205768L194.25321291666668,19.844156360239026L194.39045291666667,7.675091786152262L194.61918625,-41.87127305330865L195.16814625,-15.870162519199921L195.25963958333332,44.32462545848887L195.35113291666667,103.74188676009774L195.9458395833333,95.62622580605868L196.03733291666668,85.08730009363963L196.17457291666668,80.42331544617937L196.72353291666667,7.86202770268988L196.90651958333333,85.66706248161837L197.13525291666667,129.16961037896658L197.22674625,94.15083083738435L197.68421291666667,119.74034014242618L197.77570625,105.6401458054646L197.86719958333333,118.06049584328318L198.46190625,106.63731313096991L198.73638624999998,76.34473584859076L199.19385291666669,52.4305154941589L199.42258625,105.83979578149979L199.74281291666665,111.47364731390871L199.88005291666664,136.49497069334743L199.97154625000002,113.27300226101731L200.8864795833333,114.27418987160598L200.93222624999999,39.09678376797243L200.9779729166667,82.07549213578343L201.20670625,89.05646926647448L201.29819958333331,38.7622409348847L201.57267958333333,-4.6893045040868815L201.75566625000002,-45.34888676243446L202.12163958333335,13.224103332534883L202.16738625,40.76242863951652L202.39611958333336,-8.605593911298902L202.44186625,74.74938013822509L202.62485291666667,115.7049384729306L203.12806625000002,30.48295886374951L203.40254625,38.81070859824083L203.67702624999998,44.706188673940055L203.81426625,98.43957468936847L204.31747958333332,62.99092809361221L204.50046625000002,44.76393396617175L204.68345291666665,77.80116865969421L204.77494625,10.50632197580766L205.00367958333334,8.156757715475704L205.18666624999997,-15.170556855718967L205.41539958333334,-8.908740363431376L205.64413291666668,4.597181876950014L205.8271195833333,27.220266471178878L205.87286625,-20.94847355731035L205.96435958333333,67.412791920616L206.37607958333334,87.79517304236519L206.42182625,95.80702992042796L206.92503958333333,86.37117107725678L207.01653291666668,140.44715682635626L207.06227958333335,69.11267120581817L207.38250625,65.44556725348205L207.47399958333332,103.41601222708921L207.51974625,38.527975151271185L207.56549291666667,13.838115325767152L207.61123958333332,51.571074430464755L207.79422625,57.40967590827887L207.88571958333333,-24.268421645050378L208.89214625,5.68332201296979L209.02938625,38.104754612773L209.66983958333333,62.19004448767269L209.89857291666667,117.98730899760581L209.94431958333334,63.173086413559055L210.03581291666666,87.32556848813098L210.40178625,56.73737234287861L210.63051958333332,129.71921922572497L210.95074625,146.9583263004305L212.23165291666666,126.0502301552583L212.55187958333332,152.0858433281594L213.05509291666667,109.35251740188676L213.28382624999998,103.55588966114091L213.69554625,138.24353590668895L213.74129291666668,132.09127990401777L214.19875958333333,119.82648247240185L214.24450625,119.10510823344109L214.29025291666667,93.15939728507347L214.38174625,97.7810311060485L214.47323958333334,111.6165113986335L214.56473291666666,-21.336499410819922L214.61047958333333,67.31825554850585L214.65622625,94.51423457910349L214.74771958333335,92.99353863745763L215.57115958333333,27.987763807474593L215.79989291666666,64.5550041444892L216.02862625,85.66566295670235L216.16586625000002,80.97775714902144L216.30310625,87.98298030440844L216.53183958333335,88.45252466764948L217.03505291666667,104.08346792558967L217.44677291666667,95.20891310036264L217.5840129166667,129.01776762521317L217.62975958333334,101.38862510511903L218.04147958333334,111.22286678308028L218.31595958333335,99.07770444484812L219.00215958333334,122.55818516690887L219.04790625,37.63709016012761L219.32238625,70.34459995608101L219.50537291666666,85.47496520865307L219.64261291666665,88.74536553018297L219.91709291666666,60.83885783310539L220.00858624999998,99.75315633985883L220.42030625,95.92946770890644L220.60329291666667,101.51729211034831L220.87777291666666,96.84967003120455L221.10650625,133.1826947537271L221.38098625,100.01571271224068L221.56397291666667,134.8057568073466L221.79270624999998,90.89501447440351L222.11293291666667,106.65521602965096L222.29591958333333,87.07227446279941L222.70763958333333,98.83032202268848L222.84487958333332,100.00819743362196L223.39383958333335,126.43523307017759L223.71406625,133.64887632711097L223.85130625,168.19151329626658L223.9427995833333,172.25420590776216L223.98854625,92.27619330965287L224.17153291666665,105.0640014558006L224.21727958333332,88.46832274848038L224.26302625,23.198415524088183L224.81198625,59.4688972844618L225.08646625,100.17571337067707L225.13221291666667,130.20019259240402L225.22370625,106.93792383543357L225.45243958333333,95.88447727126896L225.49818625,128.66256030775915L225.63542625,70.1313643096555L225.90990625,107.19545499078447L226.09289291666667,136.48625631446845L226.41311958333333,117.00136316368106L226.87058625,103.44363250821306L227.14506625,119.50821286493228L227.32805291666668,64.08562873395492L227.46529291666664,79.23051575536857L227.83126625,100.9010396082123L227.92275958333335,60.31936954491855L228.51746624999998,71.50865508695556L228.70045291666668,94.2628493021733L228.74619958333332,69.40403981630841L229.61538625,65.96609154477616L229.66113291666667,67.49864352187453L229.79837291666666,95.1064496281203L230.11859958333332,104.82621563687663L230.21009291666667,102.7760376621171L230.57606625,87.16468931727913L230.66755958333334,71.02209695037187L230.71330625000002,91.62013739023197L231.30801291666666,122.57778555913917L231.39950625,119.16565360047905L231.44525291666667,90.56837864529183L231.81122625,67.74048453218394L231.85697291666668,88.13006774930152L231.99421291666667,76.51030205457208L232.08570625000002,90.8337572477388L232.49742625000002,37.75439497364327L232.63466625,58.937634874181555L232.72615958333333,89.07101420450007L232.81765291666667,111.71432727270005L233.36661291666667,116.38117870862887L234.14430625,74.51644160017732L234.37303958333334,82.2393962101064L234.83050624999998,88.87824288105503L235.10498625,50.616635338637444L235.42521291666668,96.03974471817804L235.69969291666666,6.722522925915673L235.79118625,6.92358766054057L235.97417291666667,67.33485994133318L236.29439958333333,97.2898222147999L236.34014625,65.48154957887998L236.38589291666668,37.47744959233681L236.84335958333332,-13.964467744597895L237.80403958333335,-46.22948710604993L238.03277291666666,60.95590148637001L238.26150625,73.20424190681759L238.30725291666667,54.7637909240817L238.39874625,89.05577455444904L238.53598625,107.14189801266058L238.99345291666666,128.71036896258747L239.17643958333335,85.64754528254359L239.22218625000002,97.56063654452612L239.49666624999998,86.38622567671564L239.67965291666667,94.75423751603385L239.72539958333334,108.34847789961586L240.09137291666667,61.81479408477834L240.18286625,89.96762434086256L240.2286129166667,121.72455686951311L240.27435958333334,118.10058927669898L240.36585291666668,97.81136708101498L240.50309291666665,37.65424423361343L240.54883958333332,87.0177766951592L240.59458625000002,25.232002582113182L240.64033291666667,102.31170365927235L240.82331958333333,128.23217422555456L240.91481291666665,119.30867953533273L241.05205291666667,117.41161397119961L241.09779958333334,91.79759760272862L241.14354624999999,91.294422156646L241.18929291666666,88.71087415399204L241.28078625,113.01933488239081L241.41802625,81.34933741443893L241.46377291666667,42.22741283865895L241.73825291666668,-2.748469951795764L242.0127329166667,70.58904091891813L242.10422625,-17.467035758631425L242.24146625,74.82548061481893L242.79042625,75.37247797889577L243.15639958333333,131.5662982323352L243.20214625,139.5622747193923L243.24789291666667,60.3540012366265L243.52237291666668,83.55989863197145L243.84259958333334,92.02133191418727L244.07133291666665,88.04076578850795L244.39155958333333,115.93602197310476L244.57454625,75.21731208885403L244.8032795833333,78.37320186331684L244.98626625,18.731568927972386L245.26074625,52.2946487017923L245.35223958333333,77.68717773607095L245.48947958333332,41.13637125164701L245.71821291666666,34.27854572099708" style="fill: none;" fill="none"></path></g></g></g></g><g opacity="0.2"><g><g><g><path stroke="rgb(255, 112, 67)" stroke-width="2px" d="M22.657466250000002,212.2271484375L23.252172916666666,98.83651288747787L23.526652916666666,78.44004961252212L24.258599583333336,95.89804159998893L24.350092916666668,82.24277871251105L24.487332916666666,47.49960409998893L24.57882625,81.03282305002212L24.85330625,99.18223711252212L24.990546249999998,127.87558066248893L25.67674625,92.26817461252212L25.81398625,44.215434962511054L26.042719583333334,49.400981837511054L26.408692916666666,71.18026288747787L26.728919583333333,-12.307020699977883L27.094892916666666,42.659755074977866L27.232132916666668,-17.838291800022134L27.277879583333334,61.84628906249999L27.598106249999997,58.38925781249999L27.82683958333333,127.01132284998893L28.192812916666668,116.46739336252212L28.78751958333333,68.58748944997787L29.29073291666667,81.03282305002212L29.51946625,203.23887246251107L29.65670625,84.14413007497787L30.068426249999998,143.25938555002213L30.114172916666664,163.48301308751107L30.571639583333337,110.76328652501105L30.800372916666667,94.16952597498893L30.89186625,158.12460409998894L30.937612916666666,95.03378378748893L31.120599583333334,226.0552734375L31.486572916666667,203.06601034998894L31.85254625,98.83651288747787L31.89829291666667,127.87558066248893L32.12702625,231.75938027501107L32.630239583333335,120.44295819997787L32.90471958333333,133.75254961252213L33.13345291666666,132.36973183751107L33.27069291666667,117.15878906249999L33.81965291666666,198.91758340001107L34.46010625,217.4126953125L34.64309291666667,69.62460937499999L34.82607958333333,43.17831503748893L34.917572916666664,50.78379961252212L35.786759583333335,156.74178632497788L36.015492916666666,107.13339316248893L36.06123958333333,200.64609902501107L36.28997291666666,22.608989650011054L36.51870625,114.04745566248893L36.61019958333333,33.152919137477866L36.97617291666666,121.82577597498893L37.021919583333336,156.22325273752213L37.34214625,202.89316142499447L37.525132916666664,155.87752851247788L37.936852916666666,163.13731523752213L38.302826249999995,58.38925781249999L39.03477291666666,113.52889569997787L39.21775958333334,109.20760663747787L39.49223958333334,157.95176836252213L39.67522625,152.42049726247788L39.766719583333334,31.424403512477866L41.68807958333333,117.67734902501105L41.73382625,141.53086992502213L41.82531958333333,137.03671875L42.09979958333333,182.8423828125L42.60301291666667,191.31211201250554L42.64875958333333,122.17147382497787L42.785999583333336,139.97519003748894L43.06047958333333,153.97617715001107L43.472199583333335,127.52988281249999L43.609439583333334,132.36973183751107L43.65518625,150.17344805002213L44.11265291666667,162.27305742502213L44.89034625,85.00838788747787L44.98183958333333,121.65294023752212L45.622292916666666,91.23105468749999L45.851026250000004,8.435166800022117L45.942519583333336,250.60019003748894L46.079759583333335,181.28671611249447L46.445732916666664,151.38340371251107L46.72021291666666,110.41758867502212L46.81170625,170.39707558751107L46.94894625,-53.10000000000001L47.22342625,159.85311972498894L47.452159583333334,41.96835937499999L47.90962625,161.92733319997788L48.18410625,133.5796875L48.45858625,170.22421347498894L48.64157291666667,78.95858319997787L48.916052916666665,134.4439453125L49.00754625,110.24472656249999L49.05329291666667,137.38241659998894L49.14478625,153.28475507497788L49.236279583333335,47.672466212511054L49.28202625,49.74667968749999L49.51075958333333,101.25645058751105L49.55650625,113.52889569997787L49.96822625,139.6294921875L50.24270625,119.06016680002212L50.33419958333333,177.82968486249447L50.56293291666667,208.42441933751107L50.79166625,67.89609374999999L50.88315958333333,178.86679159998894L51.43211958333334,-27.17226562500001L51.752346249999995,165.5572265625L51.79809291666667,141.87656777501107L51.88958625,144.64217694997788L51.98107958333333,-95.96716639995576L52.02682625,148.44493242502213L52.11831958333333,48.01816406249999L52.66727958333334,161.2359375L52.80451958333333,67.03183593749999L52.987506249999996,160.02598183751107L53.12474625,152.93905722498894L53.26198625,89.50253906249999L53.444972916666664,67.20469805002212L53.49071958333334,51.129497462511054L53.67370625,206.00449482500554L53.90243958333334,178.00253378748894L53.94818625,119.57870038747787L54.40565291666667,114.56601562499999L54.58863958333333,118.36874472498893L54.72587958333333,22.09042968749999L55.09185291666667,148.96346601247788L55.27483958333333,92.26817461252212L55.41207958333334,118.54160683751105L55.45782625,98.49081503748893L55.50357291666667,-52.581440037488946L55.82379958333333,110.41758867502212L56.09827958333333,124.93710937499999L56.18977291666666,31.251567775011054L56.235519583333335,138.41953652501107L56.41850625,45.079692775011054L56.601492916666665,172.64413798749447L56.73873291666667,139.11093222498894L56.78447958333333,-160.09510663747787L57.01321291666667,191.13926308751107L57.42493291666666,134.27108319997788L57.60791958333333,112.49180215001105L57.65366625,52.51231523752212L57.69941291666667,56.66074218749999L57.790906250000006,122.86289590001105L57.836652916666665,110.07186444997787L58.11113291666667,65.82188027501105L58.294119583333334,-37.716221487522134L58.33986625,85.00838788747787L58.43135958333333,118.88730468749999L58.52285291666667,28.313096487522117L58.66009291666666,-19.91250527501107L58.705839583333336,65.13045819997787L58.751586249999995,198.91758340001107L58.79733291666667,125.80136718749999L58.93457291666666,35.22715898752212L59.11755958333333,198.91758340001107L59.34629291666666,51.64805742502212L59.392039583333336,78.95858319997787L59.43778625,57.52499999999999L59.71226625,120.78868242502212L60.48995958333333,-14.726958400011071L60.67294625,192.34921875L60.764439583333335,9.817958199977866L60.993172916666666,127.70274492502212L62.09109291666667,112.66463788747787L62.18258625,-43.074604099988946L62.41131958333334,144.64217694997788L62.50281291666667,157.43320840001107L62.685799583333335,211.19004170000554L62.77729291666667,178.00253378748894L63.143266249999996,143.60508340001107L63.41774625,87.94688555002212L63.600732916666665,189.7564453125L63.920959583333335,161.92733319997788L64.01245291666667,90.19393476247787L64.28693291666667,138.07383867502213L64.37842625,14.484971487522117L64.51566625000001,209.46152607500554L64.56141291666667,185.78085409998894L64.65290625,129.94979413747788L65.01887958333333,194.59629433751107L65.06462625,124.07285156249999L65.20186625,73.60020058751105L65.52209291666667,-58.28554687500001L65.65933291666666,87.94688555002212L66.07105291666666,156.74178632497788L66.25403958333334,226.22812236249447L66.39127958333333,59.25351562499999L66.43702625,157.08751055002213L66.84874625,108.17051308751105L66.89449291666666,172.12559121251107L67.07747958333333,81.03282305002212L67.12322625,160.19881757497788L67.16897291666668,189.92929423749447L67.21471958333333,108.34334882497787L67.39770625,13.620713675022117L67.44345291666666,103.84922402501105L67.58069291666666,73.25450273752212L67.62643958333332,160.3716796875L67.99241291666667,-153.35390625L68.17539958333333,115.43027343749999L68.26689291666666,60.29063555002212L68.35838625,128.91270058751107L68.40413291666667,111.10898437499999L68.81585291666667,-125.00626055002213L68.95309291666666,196.6705078125L69.31906625,59.772075587511054L69.41055958333332,110.59042441248893L69.59354624999999,49.91954180002212L69.63929291666668,108.51621093749999L69.86802625,40.23984374999999L70.18825291666667,209.80722392499447L70.69146625,160.19881757497788L70.78295958333334,99.52793496251105L71.05743958333333,96.58946367502212L71.19467958333334,99.70077069997787L71.28617291666667,116.46739336252212L71.46915958333334,75.15585409998893L71.65214625,178.86679159998894L71.74363958333333,141.01230996251107L71.97237291666667,-51.19862226247788L72.01811958333333,71.87168496251105L72.06386624999999,167.2857421875L72.42983958333335,114.22031777501105L72.70431958333333,138.07383867502213L72.88730625,-9.714247262477883L72.93305291666667,62.364849025011054L72.97879958333334,113.35605996251105L73.39051958333333,110.76328652501105L73.61925291666667,95.72520586252212L74.25970625000001,120.09726034998893L74.35119958333333,75.15585409998893L75.26613291666668,57.52499999999999L75.31187958333334,101.42928632497787L75.49486625,164.34727090001107L75.54061291666666,134.96250527501107L75.58635958333333,81.20565878748893L76.40979958333334,185.08945840001107L76.63853291666666,70.31600507497787L76.95875958333333,115.08457558751105L77.00450624999999,21.399033987522117L77.27898625,72.39024492502212L77.37047958333332,190.620703125L77.59921291666667,228.648046875L77.69070624999999,88.81114336252212L77.78219958333334,14.484971487522117L77.96518625,78.26718749999999L78.78862625,156.050390625L78.88011958333334,186.99082295000554L78.97161291666666,130.29551836252213L79.33758625,8.953700387477866L79.47482624999999,183.01523173749447L79.84079958333332,114.22031777501105L79.97803958333333,145.16073691248894L80.11527958333333,172.98984902501107L80.70998625,-40.481830662488946L81.03021291666667,120.61582031249999L81.30469291666667,95.72520586252212L81.48767958333333,48.01816406249999L81.57917291666666,129.2583984375L81.62491958333332,156.74178632497788L81.89939958333333,240.40195840001107L82.35686625000001,145.679296875L82.58559958333333,113.35605996251105L82.63134624999999,154.49473711252213L82.76858625,147.4078125L83.04306625,154.66757284998894L83.13455958333333,4.805273437499992L83.27179958333333,118.36874472498893L83.40903958333334,133.23398965001107L83.54627958333333,99.70077069997787L83.59202625,139.45663007497788L84.41546625,-48.43301308751107L85.10166625,204.10313027501107L85.78786625,162.61875527501107L85.92510625,137.9009765625L85.97085291666667,-3.6644425749778824L86.06234625,154.66757284998894L86.10809291666666,132.02403398752213L87.06877291666666,161.40879961252213L87.11451958333335,-41.346088474988946L87.34325291666667,-12.998442775011071L87.48049291666668,119.06016680002212L87.66347958333334,221.90683329999447L87.75497291666666,162.964453125L87.93795958333332,141.53086992502213L88.12094625,126.83848711252212L88.30393291666667,119.23300253748893L89.44759958333334,79.30430742502212L89.49334625,119.92442461252212L89.99655958333334,-46.87733319997788L90.36253291666667,196.32480996251107L90.40827958333333,93.82382812499999L90.54551958333333,70.31600507497787L90.63701291666666,161.06307538747788L90.68275958333334,113.70175781249999L91.09447958333334,123.03573163747787L91.41470625000001,8.262304687499991L92.10090625000001,168.32284892499447L92.14665291666667,141.87656777501107L92.28389291666667,71.69882284998893L92.60411958333334,97.62655722498893L93.15307958333334,14.312109374999991L93.38181291666666,-29.937901175022134L93.42755958333333,145.679296875L93.51905291666667,141.01230996251107L93.83927958333334,100.91075273752212L94.15950624999999,115.60313555002212L94.20525291666667,142.74082558751107L94.61697291666667,124.59141152501105L94.79995958333333,115.94883340001105L94.89145291666667,43.524012887477866L95.07443958333334,152.07479941248894L95.48615958333333,47.32676836252212L95.80638625,46.808208400011054L95.85213291666666,135.99959882497788L96.08086625,118.36874472498893L96.44683958333333,82.24277871251105L96.85855958333335,129.60409628748894L96.90430625,94.51522382497787L97.08729291666667,170.91562236249447L97.31602625,25.89315878748893L97.45326625,237.80918496251107L97.54475958333333,23.30038534998893L97.68199958333334,193.55917441248894L97.81923958333333,142.222265625L98.00222624999999,156.56895058751107L98.36819958333334,137.20958086252213L98.73417291666667,127.87558066248893L98.91715958333333,99.00937499999999L99.05439958333334,125.62850507497787L99.10014625,137.20958086252213L99.37462625,185.78085409998894L99.42037291666666,-91.30020586252213L99.78634625,99.87363281249999L99.96933291666666,13.793549412488929L100.01507958333333,92.09531249999999L100.06082625,165.21152871251107L100.15231958333332,83.10703652501105L100.28955958333333,-78.50920078754426L100.60978625,115.60313555002212L100.65553291666667,-51.02578652501107L101.02150625,157.77890625L101.06725291666666,171.95272909998894L101.47897291666668,108.51621093749999L101.66195958333334,128.394140625L101.75345291666666,-6.602940237522133L101.79919958333333,174.71836465001107L101.89069291666667,-63.12536952495576L102.11942624999999,72.21738281249999L102.16517291666668,-46.531635349988946L102.25666625,144.46934121251107L102.30241291666667,144.64217694997788L102.34815958333334,250.77305215001107L102.57689291666667,87.94688555002212L103.21734625,134.78964316248894L103.62906625000001,102.63926836252212L103.90354624999999,54.06796874999999L104.22377291666666,190.79355204999447L104.26951958333332,160.89023965001107L104.68123958333334,176.792578125L105.00146625000001,199.26328125L105.41318625,114.56601562499999L105.55042625,-35.64198163747788L105.87065291666667,104.54061972498893L105.96214625,-74.53358319997788L106.14513291666667,79.47714316248893L106.60259958333334,152.24766152501107L106.64834625,237.63632284998894L106.78558625000001,-45.494541800022134L107.01431958333333,85.18124999999999L107.19730625,236.4263671875L107.79201291666666,126.31992715001105L107.88350625,61.673426949977866L107.92925291666667,138.93809648752213L108.20373291666667,201.16464579999447L108.24947958333334,-26.480869925022134L108.29522625,122.51719805002212L108.38671958333333,115.08457558751105L109.02717291666666,38.85702597498893L109.85061291666666,124.59141152501105L110.12509291666667,150.51914590001107L110.44531958333333,129.60409628748894L110.71979958333334,23.30038534998893L110.90278625,194.9419921875L110.99427958333334,163.8287109375L111.08577291666667,-42.72890625000001L111.36025291666667,150.17344805002213L111.49749291666666,151.21054159998894L111.58898625,12.237895900011054L111.72622625000001,157.43320840001107L111.86346624999999,24.856065237522117L112.00070625,166.421484375L112.41242625000001,123.72715371251105L112.50391958333333,17.942002737522117L113.05287958333334,58.56211992502212L113.09862625,64.95762246251105L113.14437291666667,59.944911324977866L113.78482625,184.5708984375L113.96781291666666,93.47813027501105L114.15079958333332,-93.37439296245576L114.33378624999999,92.61387246251105L114.37953291666668,146.5435546875L114.51677291666667,37.64707031249999L114.60826625,-5.565820312500008L114.69975958333333,92.61387246251105L115.06573291666668,62.537684762477866L115.15722625,-18.356825387477883L115.29446625,119.23300253748893L115.43170625,156.39608847498894L115.56894625,67.37753378748893L115.66043958333333,137.55527871251107L115.79767958333333,55.79648437499999L115.93491958333333,113.18319784998893L116.66686625000001,253.19296347498894L116.98709291666665,89.67540117502212L117.21582625,79.13144531249999L117.26157291666667,72.73594277501105L117.30731958333332,-4.701562500000008L117.39881291666667,146.88925253748894L117.44455958333333,56.14218222498893L117.53605291666666,197.01620566248894L117.62754625,114.39315351247787L117.81053291666666,149.136328125L117.99351958333334,56.83360430002212L118.22225291666666,-1.7630912125110705L118.31374625000001,183.87948954999447L118.63397291666666,19.324794137477866L118.72546625,39.54844805002212L118.77121291666666,45.252528512477866L118.99994625000001,138.41953652501107L119.18293291666667,124.76424726247787L119.41166625,64.43906249999999L119.50315958333334,17.596278512477866L119.54890625,-44.630283987522134L120.00637291666666,150.69198163747788L120.05211958333334,114.91171347498893L120.23510625,205.48593486249447L120.37234625,164.69296875L120.50958625,110.59042441248893L120.55533291666667,146.88925253748894L120.69257291666666,151.55623944997788L120.73831958333334,-175.65174726247787L121.10429291666667,-30.974994724988946L121.42451958333332,113.18319784998893L121.47026625000001,-85.07753906250001L121.65325291666667,42.486919337511054L121.74474624999999,145.16073691248894L121.83623958333334,-21.12246093750001L122.01922625,236.08066933751107L122.47669291666666,84.31699218749999L122.56818625,39.72128378748893L122.65967958333333,114.73887773752212L122.70542625,71.87168496251105L122.88841291666667,155.01327069997788L123.02565291666667,197.88046347498894L123.39162625,185.78085409998894L123.57461291666667,89.15684121251105L124.21506624999999,118.88730468749999L124.39805291666666,145.16073691248894L124.48954625,93.65096601247787L124.71827958333333,-58.63127110004426L124.76402625,109.38046874999999L124.85551958333333,149.65488808751107L124.94701291666667,212.39999736249447L124.99275958333334,154.66757284998894L125.08425291666667,89.32967694997787L125.17574625,117.67734902501105L125.22149291666666,82.93417441248893L125.54171958333333,149.82772382497788L125.67895958333334,183.87948954999447L125.90769291666668,37.81993242502212L126.45665291666667,-4.183002537488945L126.63963958333333,59.772075587511054L126.77687958333334,68.58748944997787L127.23434625,-30.974994724988946L127.50882625,155.35899492502213L127.55457291666667,98.66367715001105L127.64606625,98.14511718749999L127.78330625,167.80430215001107L127.92054625,101.25645058751105L127.96629291666666,120.44295819997787L128.01203958333335,171.95272909998894L128.46950625,79.13144531249999L128.51525291666667,149.48202597498894L128.56099958333334,217.23984638750554L128.65249291666666,139.80235430002213L129.20145291666665,184.91659628748894L129.24719958333333,229.33945576250554L129.29294625,133.92538534998894L129.33869291666667,139.80235430002213L129.70466625,145.50643476247788L130.11638625,-84.21328125000001L131.53453291666668,-40.13613281250001L131.71751958333334,132.19686972498894L131.76326625000002,-105.99258867502213L132.22073291666666,-22.332416599988946L132.31222625,83.27987226247787L132.49521291666667,65.47618242502212L132.95267958333335,-12.998442775011071L133.36439958333332,-77.64494297504426L133.86761291666667,88.11972128748893L134.23358625,-144.53846601247787L134.50806625,135.82676308751107L134.55381291666666,202.02890361249447L134.73679958333332,188.0279296875L134.96553291666666,100.56502851247787L135.8347195833333,175.9283203125L136.10919958333332,188.54648965001107L136.15494625,150.0005859375L136.61241291666667,62.19198691248893L136.70390625,19.84335409998893L136.84114624999998,113.18319784998893L136.88689291666665,30.73300781249999L136.93263958333335,212.39999736249447L137.39010625,80.51426308751105L137.43585291666668,-188.26994297504422L137.57309291666667,202.37461465001107L137.84757291666665,71.35312499999999L138.07630625000002,132.19686972498894L138.16779958333333,2.2124999999999924L138.25929291666665,119.57870038747787L138.35078625,78.78574746251105L138.76250625,89.15684121251105L138.94549291666667,166.59434648752213L139.12847958333333,102.98496621251105L139.21997291666668,99.70077069997787L139.35721291666664,86.21836992502212L139.76893291666667,111.97324218749999L139.81467958333334,-117.57361171245576L139.99766624999998,49.05528398752212L140.27214625,191.4849609375L140.36363958333334,162.79159101247788L140.91259958333333,80.16856523752212L140.95834625,104.36778398752212L141.00409291666668,118.54160683751105L141.04983958333332,5.669531249999992L141.18707958333334,55.450786525011054L141.37006625,-137.797265625L141.64454625,161.58163534998894L141.69029291666666,175.58262246251107L141.82753291666666,200.47323691248894L142.19350624999998,175.58262246251107L142.42223958333332,-10.059971487522134L142.5594795833333,-130.19180742502212L142.69671958333333,100.39219277501105L142.74246625,227.26522909998894L143.01694625000002,110.93612226247787L143.10843958333334,62.537684762477866L143.38291958333335,20.70761191248893L143.52015958333334,82.24277871251105L143.65739958333336,18.11483847498893L143.70314625,-63.12536952495576L143.88613291666667,-164.24353358745574L144.75531958333335,128.73983847498894L144.93830624999998,130.81405194997788L145.02979958333333,42.486919337511054L145.25853291666667,234.52500263750554L145.48726625,176.10116923749447L146.08197291666664,225.70957558751107L146.26495958333334,125.80136718749999L146.40219958333333,-99.25138828754426L147.63735958333334,-15.936914062500009L147.77459958333333,154.66757284998894L148.04907958333334,-94.75723711252213L148.36930625,189.41074746251107L148.41505291666667,145.16073691248894L148.46079958333334,177.31113808751107L148.50654624999999,130.46835409998894L148.55229291666666,207.73301045000554L148.59803958333336,155.01327069997788L148.9640129166667,76.02011191248893L150.01618625,-49.29727090001107L150.06193291666668,43.17831503748893L150.10767958333335,110.41758867502212L150.42790625,136.69102090001107L150.93111958333333,128.73983847498894L151.02261291666665,179.21250263750554L151.57157291666667,140.49375L151.61731958333334,162.44589316248894L151.75455958333333,143.43222128748894L151.84605291666668,82.76133867502212L151.89179958333332,69.79747148752212L151.98329291666667,72.73594277501105L152.85247958333335,204.62167704999447L153.08121291666666,56.14218222498893L153.21845291666668,-97.86854413747788L153.35569291666667,11.546473824977866L153.76741291666667,37.99276816248893L153.81315958333332,92.09531249999999L154.08763958333333,170.39707558751107L154.17913291666665,189.23788534998894L154.22487958333332,63.92050253748893L154.49935958333333,65.64901816248893L154.63659958333335,65.64901816248893L154.68234625,-23.36953652501107L154.91107958333333,2.5581978499889297L155.00257291666668,-5.565820312500008L155.09406625,141.53086992502213L155.23130625,151.03770586252213L155.64302625,94.51522382497787L155.87175958333333,219.65977090001107L155.96325291666665,102.29354413747787L156.00899958333332,30.21444784998893L156.05474625000002,188.71933857500554L156.55795958333334,192.17636982500554L157.01542625,143.0865234375L157.38139958333332,75.84727617502212L158.15909291666668,49.400981837511054L158.4793195833333,185.95371621251107L158.52506625,43.351177150011054L158.66230625,16.559184962511054L159.11977291666665,145.50643476247788L159.39425291666666,137.9009765625L159.57723958333335,58.56211992502212L159.80597291666666,219.65977090001107L159.89746624999998,1.3482421874999921L159.98895958333335,89.84823691248893L160.08045291666667,182.49668496251107L160.17194625,-90.78161952495576L160.35493291666668,157.08751055002213L160.40067958333333,65.82188027501105L160.53791958333332,213.78281513750554L160.81239958333333,171.08847128748894L160.90389291666665,169.35995566248894L161.04113291666667,92.26817461252212L161.40710625,-26.30800781250001L161.49859958333334,220.35116659998894L161.54434625,129.60409628748894L161.59009291666666,87.08262773752212L161.95606625,235.38926045000554L162.73375958333332,-22.85097656250001L162.82525291666667,172.4712890625L162.91674625,-51.717182224988946L163.00823958333334,120.27012246251105L163.4199595833333,147.92637246251107L163.60294625,229.5123046875L164.19765291666667,-22.678114449977883L164.38063958333333,89.50253906249999L165.24982625,126.83848711252212L165.93602625000003,176.27401816248894L165.98177291666667,-9.541411525011071L166.25625291666665,138.59237226247788L166.30199958333336,133.92538534998894L166.39349291666667,61.32772909998893L166.53073291666666,157.43320840001107L166.75946625,112.66463788747787L166.89670625,170.39707558751107L166.94245291666667,-30.62929687500001L167.03394625,150.51914590001107L167.76589291666667,160.89023965001107L168.08611958333336,222.07968222498894L168.26910625,262.52695048749445L168.58933291666668,174.71836465001107L168.63507958333332,-41.00039062500001L168.95530625,91.74961465001105L169.09254625,-45.14881757497788L170.32770625,-25.616612112522134L170.64793291666666,63.92050253748893L170.78517291666665,139.6294921875L170.83091958333333,132.54256757497788L170.92241291666667,161.92733319997788L170.96815958333335,119.57870038747787L171.28838625,123.03573163747787L171.37987958333335,111.10898437499999L171.88309291666667,186.12656513750554L172.11182625,93.13243242502212L172.52354624999998,85.69980996251105L172.61503958333333,48.88242187499999L172.70653291666667,158.6431640625L172.88951958333334,170.22421347498894L173.02675958333336,-154.56388828754424L173.62146625,93.99669023752212L173.66721291666664,20.016216212511054L173.71295958333334,179.55820048749447L173.98743958333333,106.44199746251105L174.35341291666666,95.89804159998893L174.62789291666667,-112.38806483745576L174.67363958333334,146.37069257497788L174.71938624999999,127.87558066248893L174.90237291666668,104.54061972498893L175.13110625000002,111.62754433751105L175.45133291666664,95.89804159998893L175.81730624999997,-49.29727090001107L176.00029291666667,124.93710937499999L176.18327958333336,191.13926308751107L176.27477291666668,79.30430742502212L176.5492529166667,-39.27187500000001L176.68649291666668,68.93321367502212L176.77798625,54.24083086252212L176.86947958333332,168.49569784998894L176.96097291666666,106.96055742502212L177.09821291666665,92.44101034998893L177.32694625000002,76.36580976247787L177.87590624999999,-23.888096487522134L178.10463958333332,80.85996093749999L178.3333729166667,-168.56482264995574L179.15681291666667,82.58847656249999L179.33979958333333,7.052349025011055L179.47703958333335,53.20371093749999L179.70577291666666,-109.62248203754426L179.98025291666667,184.91659628748894L180.02599958333332,97.79941933751105L180.20898625,185.78085409998894L180.30047958333333,78.44004961252212L180.57495958333334,146.37069257497788L180.62070625,80.16856523752212L180.89518625,37.81993242502212L181.21541291666668,50.09237753748893L181.4898929166667,11.892198050022117L181.62713291666668,-1.5902290999889452L181.90161291666666,153.11191933751107L182.40482624999999,72.39024492502212L182.49631958333333,56.66074218749999L182.81654625,112.14610430002212L182.95378625,132.36973183751107L183.09102625,-0.7259712874889452L183.18251958333332,203.23887246251107L183.41125291666665,161.75449746251107L184.14319958333334,188.37362753748894L184.23469291666666,153.11191933751107L184.28043958333333,5.669531249999992L184.46342625,3.595317775011055L184.50917291666667,55.450786525011054L184.69215958333334,-72.80506757497788L185.05813291666666,-65.19960937500001L185.10387958333334,10.163682425022117L185.42410625000002,119.75156249999999L185.97306625,-104.43693516254426L186.20179958333333,36.09141680002212L186.33903958333332,-233.21134922504422L186.75075958333332,40.41270586252212L186.79650625000002,150.0005859375L187.07098625,182.8423828125L187.11673291666665,14.830669337511054L187.75718625,182.66953388750554L187.94017291666668,26.41171874999999L188.03166625,-57.07556483745576L188.12315958333332,138.41953652501107L188.26039958333334,115.08457558751105L188.39763958333333,-68.13810703754426L188.80935958333333,171.77988017499447L189.08383958333334,-76.95349452495576L189.17533291666666,-173.05897382497787L189.67854625,116.29453124999999L189.72429291666668,145.16073691248894L189.99877291666667,185.60800517499447L190.31899958333332,129.43126055002213L191.41691958333334,15.349229300022117L191.55415958333333,27.794536525011054L191.69139958333332,213.78281513750554L191.78289291666667,-48.77871093750001L192.74357291666666,41.795497262477866L192.88081291666668,117.33165117502212L193.06379958333332,76.53867187499999L193.10954625,170.39707558751107L193.15529291666664,141.18514569997788L193.42977291666665,189.06503642499447L193.56701291666667,91.40391680002212L193.65850625000002,81.72421874999999L194.07022625,1.3482421874999921L194.25321291666668,-49.124408787488946L194.98515958333334,-34.08632812500001L195.16814625,18.460536324977866L195.25963958333332,134.61680742502213L195.35113291666667,192.86777871251107L195.9458395833333,83.45273437499999L196.03733291666668,69.27891152501105L196.17457291666668,73.42733847498893L196.72353291666667,-100.97990391254426L197.13525291666667,194.42343222498894L197.22674625,41.622661525011054L197.68421291666667,158.12460409998894L197.77570625,84.48985430002212L197.86719958333333,136.69102090001107L198.46190625,89.50253906249999L198.73638624999998,30.905869925022117L199.19385291666669,16.559184962511054L199.42258625,185.95371621251107L199.74281291666665,119.92442461252212L199.88005291666664,174.02695576250554L199.97154625000002,78.44004961252212L200.8864795833333,115.77597128748893L200.93222624999999,-73.66932538747788L200.9779729166667,146.5435546875L201.20670625,99.52793496251105L201.29819958333331,-36.67910156250001L201.75566625000002,-106.33826014995576L202.12163958333335,101.08358847498893L202.16738625,82.06991659998893L202.39611958333336,-82.65762773752213L203.12806625000002,-97.35001055002213L203.40254625,51.302333199977866L203.67702624999998,53.54940878748893L203.81426625,179.03965371251107L204.31747958333332,9.817958199977866L204.50046625000002,17.423442775011054L204.68345291666665,127.35702069997787L204.77494625,-90.43594805002213L205.00367958333334,4.632411324977867L205.18666624999997,-50.16152871251107L205.41539958333334,0.48398437499999214L205.64413291666668,24.856065237522117L205.8271195833333,61.15489336252212L205.87286625,-93.20158360004426L205.96435958333333,199.95469013750554L206.37607958333334,118.36874472498893L206.42182625,107.82481523752212L206.92503958333333,72.21738281249999L207.01653291666668,221.56113545000554L207.06227958333335,-37.889057224988946L207.38250625,59.944911324977866L207.47399958333332,160.3716796875L207.51974625,-58.80408046245576L207.56549291666667,-23.196674412488946L207.61123958333332,108.17051308751105L207.79422625,66.16757812499999L207.88571958333333,-146.78556797504424L208.89214625,50.61093749999999L209.02938625,86.73690351247787L209.66983958333333,98.31797930002212L209.89857291666667,201.68320576250554L209.94431958333334,-19.04824746251107L210.03581291666666,123.55429159998893L210.40178625,10.855078124999991L210.63051958333332,239.19198954999447L210.95074625,172.81698691248894L212.23165291666666,94.68808593749999L212.55187958333332,191.13926308751107L213.05509291666667,45.252528512477866L213.28382624999998,94.86094805002212L213.69554625,190.27500527501107L213.74129291666668,122.86289590001105L214.19875958333333,101.42928632497787L214.24450625,118.02304687499999L214.29025291666667,54.24083086252212L214.38174625,104.71348183751105L214.47323958333334,132.36973183751107L214.56473291666666,-220.76601562499997L214.61047958333333,200.30038798749447L214.65622625,135.308203125L214.74771958333335,90.71249472498893L215.57115958333333,-69.52089843750001L215.79989291666666,119.40586465001105L216.02862625,117.33165117502212L216.16586625000002,73.94589843749999L216.30310625,98.49081503748893L216.53183958333335,89.15684121251105L217.03505291666667,127.52988281249999L217.44677291666667,81.89708086252212L217.5840129166667,179.73104941248894L217.62975958333334,59.944911324977866L218.04147958333334,125.97422930002212L218.31595958333335,80.85996093749999L219.00215958333334,157.77890625L219.04790625,-89.74455235004426L219.32238625,119.40586465001105L219.50537291666666,108.17051308751105L219.64261291666665,93.65096601247787L219.91709291666666,18.97909628748893L220.00858624999998,158.12460409998894L220.42030625,90.19393476247787L220.60329291666667,109.89902871251105L220.87777291666666,89.84823691248893L221.10650625,187.68223183751107L221.38098625,50.265239650011054L221.56397291666667,186.99082295000554L221.79270624999998,25.02890097498893L222.11293291666667,130.29551836252213L222.29591958333333,57.69786211252212L222.70763958333333,116.46739336252212L222.84487958333332,101.77501055002212L223.39383958333335,166.07578652501107L223.71406625,144.46934121251107L223.85130625,220.00546875L223.98854625,-27.69082558751107L224.17153291666665,124.24571367502212L224.21727958333332,63.57480468749999L224.26302625,-74.70644531250001L224.81198625,113.87461992502212L225.08646625,161.2359375L225.13221291666667,175.23691142499447L225.22370625,72.04452069997787L225.45243958333333,79.30430742502212L225.49818625,177.82968486249447L225.63542625,-17.66542968750001L225.90990625,162.79159101247788L226.09289291666667,180.42245829999447L226.41311958333333,87.77402343749999L226.87058625,83.10703652501105L227.14506625,143.60508340001107L227.32805291666668,-19.04824746251107L227.46529291666664,101.94784628748893L227.83126625,133.40682538747788L227.92275958333335,-0.5531355500221331L228.51746624999998,88.29258340001105L228.70045291666668,128.394140625L228.74619958333332,32.115825587511054L229.61538625,60.809169137477866L229.66113291666667,69.79747148752212L229.79837291666666,136.51815878748894L230.11859958333332,119.40586465001105L230.21009291666667,99.70077069997787L230.57606625,63.74766680002212L230.66755958333334,46.808208400011054L230.71330625000002,122.51719805002212L231.30801291666666,169.0142578125L231.39950625,114.04745566248893L231.44525291666667,47.672466212511054L231.81122625,33.49864336252212L231.85697291666668,118.71444257497787L231.99421291666667,59.080653512477866L232.08570625000002,112.31894003748893L232.49742625000002,-41.86464843750001L232.63466625,90.71249472498893L232.72615958333333,134.27108319997788L232.81765291666667,145.679296875L233.36661291666667,123.38145586252212L234.14430625,11.719335937499991L234.37303958333334,93.82382812499999L234.83050624999998,98.83651288747787L235.10498625,-6.775775974988945L235.42521291666668,164.17440878748894L235.69969291666666,-127.25330976247788L235.79118625,7.225184762477867L235.97417291666667,157.95176836252213L236.29439958333333,142.222265625L236.34014625,17.76914062499999L236.38589291666668,-4.528700387477882L238.03277291666666,221.733984375L238.26150625,91.57675253748893L238.30725291666667,27.103114449977866L238.39874625,140.49375L238.53598625,134.27108319997788L238.99345291666666,161.06307538747788L239.17643958333335,21.053309762477866L239.22218625000002,115.43027343749999L239.49666624999998,69.62460937499999L239.67965291666667,107.30625527501105L239.72539958333334,128.73983847498894L240.09137291666667,-7.985731637477882L240.18286625,132.19686972498894L240.2286129166667,169.35995566248894L240.27435958333334,112.66463788747787L240.36585291666668,67.37753378748893L240.50309291666665,-52.581440037488946L240.54883958333332,161.06307538747788L240.59458625000002,-67.44665858745576L240.64033291666667,217.93125527501107L240.82331958333333,167.11288007497788L240.91481291666665,105.92343749999999L241.05205291666667,114.56601562499999L241.09779958333334,53.37657305002212L241.14354624999999,90.53965898752212L241.18929291666666,84.83555215001105L241.28078625,149.48202597498894L241.41802625,33.844341212511054L241.46377291666667,-16.45547402501107L242.24146625,213.26425517499447L242.79042625,76.19297402501105L243.15639958333333,215.85702861249447L243.20214625,151.55623944997788L243.24789291666667,-58.458408987522134L243.52237291666668,118.36874472498893L243.84259958333334,104.71348183751105L244.07133291666665,82.06991659998893L244.39155958333333,157.77890625L244.57454625,14.139247262477866L244.8032795833333,83.10703652501105L244.98626625,-70.73088047504426L245.26074625,102.63926836252212L245.35223958333333,115.77597128748893L245.48947958333332,-13.689838474988946L245.71821291666666,23.991807425022117" style="fill: none;" fill="none"></path></g></g></g></g></g></g><g transform="translate(61, 177)" clip-path="url(#clip_1)"><clipPath id="clip_1"><rect width="268" height="23"></rect></clipPath><g><g><line x1="0" y1="0" x2="0" y2="5" style="visibility: inherit;" fill="rgb(0, 0, 0)" stroke="rgb(204, 204, 204)" stroke-width="1px"></line><line x1="22.337239583333332" y1="0" x2="22.337239583333332" y2="5" style="visibility: inherit;" fill="rgb(0, 0, 0)" stroke="rgb(204, 204, 204)" stroke-width="1px"></line><line x1="44.674479166666664" y1="0" x2="44.674479166666664" y2="5" style="visibility: inherit;" fill="rgb(0, 0, 0)" stroke="rgb(204, 204, 204)" stroke-width="1px"></line><line x1="67.01171875" y1="0" x2="67.01171875" y2="5" style="visibility: inherit;" fill="rgb(0, 0, 0)" stroke="rgb(204, 204, 204)" stroke-width="1px"></line><line x1="89.34895833333333" y1="0" x2="89.34895833333333" y2="5" style="visibility: inherit;" fill="rgb(0, 0, 0)" stroke="rgb(204, 204, 204)" stroke-width="1px"></line><line x1="111.68619791666667" y1="0" x2="111.68619791666667" y2="5" style="visibility: inherit;" fill="rgb(0, 0, 0)" stroke="rgb(204, 204, 204)" stroke-width="1px"></line><line x1="134.0234375" y1="0" x2="134.0234375" y2="5" style="visibility: inherit;" fill="rgb(0, 0, 0)" stroke="rgb(204, 204, 204)" stroke-width="1px"></line><line x1="156.36067708333334" y1="0" x2="156.36067708333334" y2="5" style="visibility: inherit;" fill="rgb(0, 0, 0)" stroke="rgb(204, 204, 204)" stroke-width="1px"></line><line x1="178.69791666666666" y1="0" x2="178.69791666666666" y2="5" style="visibility: inherit;" fill="rgb(0, 0, 0)" stroke="rgb(204, 204, 204)" stroke-width="1px"></line><line x1="201.03515625" y1="0" x2="201.03515625" y2="5" style="visibility: inherit;" fill="rgb(0, 0, 0)" stroke="rgb(204, 204, 204)" stroke-width="1px"></line><line x1="223.37239583333334" y1="0" x2="223.37239583333334" y2="5" style="visibility: inherit;" fill="rgb(0, 0, 0)" stroke="rgb(204, 204, 204)" stroke-width="1px"></line><line x1="245.70963541666666" y1="0" x2="245.70963541666666" y2="5" style="visibility: inherit;" fill="rgb(0, 0, 0)" stroke="rgb(204, 204, 204)" stroke-width="1px"></line><line x1="268.046875" y1="0" x2="268.046875" y2="5" style="visibility: inherit;" fill="rgb(0, 0, 0)" stroke="rgb(204, 204, 204)" stroke-width="1px"></line></g><g transform="translate(0, 8)"><text x="0" y="0" dx="0em" dy="0.95em" style="text-anchor: middle; visibility: hidden; font-family: Roboto, sans-serif; font-size: 12px; font-weight: 200;" fill="rgb(33, 33, 33)" stroke="none" stroke-width="1px">-1M</text><text x="22.337239583333332" y="0" dx="0em" dy="0.95em" style="text-anchor: middle; visibility: inherit; font-family: Roboto, sans-serif; font-size: 12px; font-weight: 200;" fill="rgb(33, 33, 33)" stroke="none" stroke-width="1px">0</text><text x="44.674479166666664" y="0" dx="0em" dy="0.95em" style="text-anchor: middle; visibility: hidden; font-family: Roboto, sans-serif; font-size: 12px; font-weight: 200;" fill="rgb(33, 33, 33)" stroke="none" stroke-width="1px">1M</text><text x="67.01171875" y="0" dx="0em" dy="0.95em" style="text-anchor: middle; visibility: inherit; font-family: Roboto, sans-serif; font-size: 12px; font-weight: 200;" fill="rgb(33, 33, 33)" stroke="none" stroke-width="1px">2M</text><text x="89.34895833333333" y="0" dx="0em" dy="0.95em" style="text-anchor: middle; visibility: hidden; font-family: Roboto, sans-serif; font-size: 12px; font-weight: 200;" fill="rgb(33, 33, 33)" stroke="none" stroke-width="1px">3M</text><text x="111.68619791666667" y="0" dx="0em" dy="0.95em" style="text-anchor: middle; visibility: inherit; font-family: Roboto, sans-serif; font-size: 12px; font-weight: 200;" fill="rgb(33, 33, 33)" stroke="none" stroke-width="1px">4M</text><text x="134.0234375" y="0" dx="0em" dy="0.95em" style="text-anchor: middle; visibility: hidden; font-family: Roboto, sans-serif; font-size: 12px; font-weight: 200;" fill="rgb(33, 33, 33)" stroke="none" stroke-width="1px">5M</text><text x="156.36067708333334" y="0" dx="0em" dy="0.95em" style="text-anchor: middle; visibility: inherit; font-family: Roboto, sans-serif; font-size: 12px; font-weight: 200;" fill="rgb(33, 33, 33)" stroke="none" stroke-width="1px">6M</text><text x="178.69791666666666" y="0" dx="0em" dy="0.95em" style="text-anchor: middle; visibility: hidden; font-family: Roboto, sans-serif; font-size: 12px; font-weight: 200;" fill="rgb(33, 33, 33)" stroke="none" stroke-width="1px">7M</text><text x="201.03515625" y="0" dx="0em" dy="0.95em" style="text-anchor: middle; visibility: inherit; font-family: Roboto, sans-serif; font-size: 12px; font-weight: 200;" fill="rgb(33, 33, 33)" stroke="none" stroke-width="1px">8M</text><text x="223.37239583333334" y="0" dx="0em" dy="0.95em" style="text-anchor: middle; visibility: hidden; font-family: Roboto, sans-serif; font-size: 12px; font-weight: 200;" fill="rgb(33, 33, 33)" stroke="none" stroke-width="1px">9M</text><text x="245.70963541666666" y="0" dx="0em" dy="0.95em" style="text-anchor: middle; visibility: inherit; font-family: Roboto, sans-serif; font-size: 12px; font-weight: 200;" fill="rgb(33, 33, 33)" stroke="none" stroke-width="1px">10M</text><text x="268.046875" y="0" dx="0em" dy="0.95em" style="text-anchor: middle; visibility: hidden; font-family: Roboto, sans-serif; font-size: 12px; font-weight: 200;" fill="rgb(33, 33, 33)" stroke="none" stroke-width="1px">11M</text></g><line x1="0" y1="0" x2="268.046875" y2="0" fill="rgb(0, 0, 0)" stroke="rgb(204, 204, 204)" stroke-width="1px"></line></g></g></g></g></svg>