<svg viewBox="0 0 330 200" xmlns="http://www.w3.org/2000/svg"><g><g><g><g><g><line x1="72.34375" y1="177" x2="67.34375" y2="177" style="visibility: inherit;" fill="rgb(0, 0, 0)" stroke="rgb(204, 204, 204)" stroke-width="1px"></line><line x1="72.34375" y1="162.25000070058738" x2="67.34375" y2="162.25000070058738" style="visibility: inherit;" fill="rgb(0, 0, 0)" stroke="rgb(204, 204, 204)" stroke-width="1px"></line><line x1="72.34375" y1="147.50000140117473" x2="67.34375" y2="147.50000140117473" style="visibility: inherit;" fill="rgb(0, 0, 0)" stroke="rgb(204, 204, 204)" stroke-width="1px"></line><line x1="72.34375" y1="132.75000210176213" x2="67.34375" y2="132.75000210176213" style="visibility: inherit;" fill="rgb(0, 0, 0)" stroke="rgb(204, 204, 204)" stroke-width="1px"></line><line x1="72.34375" y1="118.00000280234948" x2="67.34375" y2="118.00000280234948" style="visibility: inherit;" fill="rgb(0, 0, 0)" stroke="rgb(204, 204, 204)" stroke-width="1px"></line><line x1="72.34375" y1="103.25000350293686" x2="67.34375" y2="103.25000350293686" style="visibility: inherit;" fill="rgb(0, 0, 0)" stroke="rgb(204, 204, 204)" stroke-width="1px"></line><line x1="72.34375" y1="88.50000420352424" x2="67.34375" y2="88.50000420352424" style="visibility: inherit;" fill="rgb(0, 0, 0)" stroke="rgb(204, 204, 204)" stroke-width="1px"></line><line x1="72.34375" y1="73.75000490411162" x2="67.34375" y2="73.75000490411162" style="visibility: inherit;" fill="rgb(0, 0, 0)" stroke="rgb(204, 204, 204)" stroke-width="1px"></line><line x1="72.34375" y1="59.000005604698984" x2="67.34375" y2="59.000005604698984" style="visibility: inherit;" fill="rgb(0, 0, 0)" stroke="rgb(204, 204, 204)" stroke-width="1px"></line><line x1="72.34375" y1="44.25000630528637" x2="67.34375" y2="44.25000630528637" style="visibility: inherit;" fill="rgb(0, 0, 0)" stroke="rgb(204, 204, 204)" stroke-width="1px"></line><line x1="72.34375" y1="29.500007005873726" x2="67.34375" y2="29.500007005873726" style="visibility: inherit;" fill="rgb(0, 0, 0)" stroke="rgb(204, 204, 204)" stroke-width="1px"></line><line x1="72.34375" y1="14.750007706461108" x2="67.34375" y2="14.750007706461108" style="visibility: inherit;" fill="rgb(0, 0, 0)" stroke="rgb(204, 204, 204)" stroke-width="1px"></line><line x1="72.34375" y1="0.000008407048488034974" x2="67.34375" y2="0.000008407048488034974" style="visibility: inherit;" fill="rgb(0, 0, 0)" stroke="rgb(204, 204, 204)" stroke-width="1px"></line></g><g transform="translate(62.34375, 0)"><text x="0" y="177" dx="0em" dy="0.3em" style="text-anchor: end; visibility: hidden; font-family: Roboto, sans-serif; font-size: 12px; font-weight: 200;" fill="rgb(33, 33, 33)" stroke="none" stroke-width="1px">0</text><text x="0" y="162.25000070058738" dx="0em" dy="0.3em" style="text-anchor: end; visibility: inherit; font-family: Roboto, sans-serif; font-size: 12px; font-weight: 200;" fill="rgb(33, 33, 33)" stroke="none" stroke-width="1px">5e-5</text><text x="0" y="147.50000140117473" dx="0em" dy="0.3em" style="text-anchor: end; visibility: hidden; font-family: Roboto, sans-serif; font-size: 12px; font-weight: 200;" fill="rgb(33, 33, 33)" stroke="none" stroke-width="1px">1e-4</text><text x="0" y="132.75000210176213" dx="0em" dy="0.3em" style="text-anchor: end; visibility: inherit; font-family: Roboto, sans-serif; font-size: 12px; font-weight: 200;" fill="rgb(33, 33, 33)" stroke="none" stroke-width="1px">1.5e-4</text><text x="0" y="118.00000280234948" dx="0em" dy="0.3em" style="text-anchor: end; visibility: hidden; font-family: Roboto, sans-serif; font-size: 12px; font-weight: 200;" fill="rgb(33, 33, 33)" stroke="none" stroke-width="1px">2e-4</text><text x="0" y="103.25000350293686" dx="0em" dy="0.3em" style="text-anchor: end; visibility: inherit; font-family: Roboto, sans-serif; font-size: 12px; font-weight: 200;" fill="rgb(33, 33, 33)" stroke="none" stroke-width="1px">2.5e-4</text><text x="0" y="88.50000420352424" dx="0em" dy="0.3em" style="text-anchor: end; visibility: hidden; font-family: Roboto, sans-serif; font-size: 12px; font-weight: 200;" fill="rgb(33, 33, 33)" stroke="none" stroke-width="1px">3e-4</text><text x="0" y="73.75000490411162" dx="0em" dy="0.3em" style="text-anchor: end; visibility: inherit; font-family: Roboto, sans-serif; font-size: 12px; font-weight: 200;" fill="rgb(33, 33, 33)" stroke="none" stroke-width="1px">3.5e-4</text><text x="0" y="59.000005604698984" dx="0em" dy="0.3em" style="text-anchor: end; visibility: hidden; font-family: Roboto, sans-serif; font-size: 12px; font-weight: 200;" fill="rgb(33, 33, 33)" stroke="none" stroke-width="1px">4e-4</text><text x="0" y="44.25000630528637" dx="0em" dy="0.3em" style="text-anchor: end; visibility: inherit; font-family: Roboto, sans-serif; font-size: 12px; font-weight: 200;" fill="rgb(33, 33, 33)" stroke="none" stroke-width="1px">4.5e-4</text><text x="0" y="29.500007005873726" dx="0em" dy="0.3em" style="text-anchor: end; visibility: hidden; font-family: Roboto, sans-serif; font-size: 12px; font-weight: 200;" fill="rgb(33, 33, 33)" stroke="none" stroke-width="1px">5e-4</text><text x="0" y="14.750007706461108" dx="0em" dy="0.3em" style="text-anchor: end; visibility: inherit; font-family: Roboto, sans-serif; font-size: 12px; font-weight: 200;" fill="rgb(33, 33, 33)" stroke="none" stroke-width="1px">5.5e-4</text><text x="0" y="0.000008407048488034974" dx="0em" dy="0.3em" style="text-anchor: end; visibility: hidden; font-family: Roboto, sans-serif; font-size: 12px; font-weight: 200;" fill="rgb(33, 33, 33)" stroke="none" stroke-width="1px">6e-4</text></g><line x1="72.34375" y1="0" x2="72.34375" y2="177" fill="rgb(0, 0, 0)" stroke="rgb(204, 204, 204)" stroke-width="1px"></line></g></g><g transform="translate(72, 0)" clip-path="url(#clip_0)"><clipPath id="clip_0"><rect width="257" height="177"></rect></clipPath><g><g><g><line x1="0" y1="0" x2="0" y2="177" fill="rgb(0, 0, 0)" stroke="rgb(66, 66, 66)" stroke-width="1px" opacity="0.25"></line><line x1="21.471354166666664" y1="0" x2="21.471354166666664" y2="177" fill="rgb(0, 0, 0)" stroke="rgb(66, 66, 66)" stroke-width="1px" opacity="0.25"></line><line x1="42.94270833333333" y1="0" x2="42.94270833333333" y2="177" fill="rgb(0, 0, 0)" stroke="rgb(66, 66, 66)" stroke-width="1px" opacity="0.25"></line><line x1="64.4140625" y1="0" x2="64.4140625" y2="177" fill="rgb(0, 0, 0)" stroke="rgb(66, 66, 66)" stroke-width="1px" opacity="0.25"></line><line x1="85.88541666666666" y1="0" x2="85.88541666666666" y2="177" fill="rgb(0, 0, 0)" stroke="rgb(66, 66, 66)" stroke-width="1px" opacity="0.25"></line><line x1="107.35677083333334" y1="0" x2="107.35677083333334" y2="177" fill="rgb(0, 0, 0)" stroke="rgb(66, 66, 66)" stroke-width="1px" opacity="0.25"></line><line x1="128.828125" y1="0" x2="128.828125" y2="177" fill="rgb(0, 0, 0)" stroke="rgb(66, 66, 66)" stroke-width="1px" opacity="0.25"></line><line x1="150.29947916666669" y1="0" x2="150.29947916666669" y2="177" fill="rgb(0, 0, 0)" stroke="rgb(66, 66, 66)" stroke-width="1px" opacity="0.25"></line><line x1="171.77083333333331" y1="0" x2="171.77083333333331" y2="177" fill="rgb(0, 0, 0)" stroke="rgb(66, 66, 66)" stroke-width="1px" opacity="0.25"></line><line x1="193.2421875" y1="0" x2="193.2421875" y2="177" fill="rgb(0, 0, 0)" stroke="rgb(66, 66, 66)" stroke-width="1px" opacity="0.25"></line><line x1="214.71354166666669" y1="0" x2="214.71354166666669" y2="177" fill="rgb(0, 0, 0)" stroke="rgb(66, 66, 66)" stroke-width="1px" opacity="0.25"></line><line x1="236.18489583333331" y1="0" x2="236.18489583333331" y2="177" fill="rgb(0, 0, 0)" stroke="rgb(66, 66, 66)" stroke-width="1px" opacity="0.25"></line><line x1="257.65625" y1="0" x2="257.65625" y2="177" fill="rgb(0, 0, 0)" stroke="rgb(66, 66, 66)" stroke-width="1px" opacity="0.25"></line></g><g><line x1="0" y1="177" x2="257.65625" y2="177" fill="rgb(0, 0, 0)" stroke="rgb(66, 66, 66)" stroke-width="1px" opacity="0.25"></line><line x1="0" y1="162.25000070058738" x2="257.65625" y2="162.25000070058738" fill="rgb(0, 0, 0)" stroke="rgb(66, 66, 66)" stroke-width="1px" opacity="0.25"></line><line x1="0" y1="147.50000140117473" x2="257.65625" y2="147.50000140117473" fill="rgb(0, 0, 0)" stroke="rgb(66, 66, 66)" stroke-width="1px" opacity="0.25"></line><line x1="0" y1="132.75000210176213" x2="257.65625" y2="132.75000210176213" fill="rgb(0, 0, 0)" stroke="rgb(66, 66, 66)" stroke-width="1px" opacity="0.25"></line><line x1="0" y1="118.00000280234948" x2="257.65625" y2="118.00000280234948" fill="rgb(0, 0, 0)" stroke="rgb(66, 66, 66)" stroke-width="1px" opacity="0.25"></line><line x1="0" y1="103.25000350293686" x2="257.65625" y2="103.25000350293686" fill="rgb(0, 0, 0)" stroke="rgb(66, 66, 66)" stroke-width="1px" opacity="0.25"></line><line x1="0" y1="88.50000420352424" x2="257.65625" y2="88.50000420352424" fill="rgb(0, 0, 0)" stroke="rgb(66, 66, 66)" stroke-width="1px" opacity="0.25"></line><line x1="0" y1="73.75000490411162" x2="257.65625" y2="73.75000490411162" fill="rgb(0, 0, 0)" stroke="rgb(66, 66, 66)" stroke-width="1px" opacity="0.25"></line><line x1="0" y1="59.000005604698984" x2="257.65625" y2="59.000005604698984" fill="rgb(0, 0, 0)" stroke="rgb(66, 66, 66)" stroke-width="1px" opacity="0.25"></line><line x1="0" y1="44.25000630528637" x2="257.65625" y2="44.25000630528637" fill="rgb(0, 0, 0)" stroke="rgb(66, 66, 66)" stroke-width="1px" opacity="0.25"></line><line x1="0" y1="29.500007005873726" x2="257.65625" y2="29.500007005873726" fill="rgb(0, 0, 0)" stroke="rgb(66, 66, 66)" stroke-width="1px" opacity="0.25"></line><line x1="0" y1="14.750007706461108" x2="257.65625" y2="14.750007706461108" fill="rgb(0, 0, 0)" stroke="rgb(66, 66, 66)" stroke-width="1px" opacity="0.25"></line><line x1="0" y1="0.000008407048488034974" x2="257.65625" y2="0.000008407048488034974" fill="rgb(0, 0, 0)" stroke="rgb(66, 66, 66)" stroke-width="1px" opacity="0.25"></line></g></g></g><g><g><line x1="0" y1="177" x2="257.65625" y2="177" fill="rgb(0, 0, 0)" stroke="rgb(153, 153, 153)" stroke-width="1.5px"></line></g></g><g><g><line x1="21.471354166666664" y1="0" x2="21.471354166666664" y2="177" fill="rgb(0, 0, 0)" stroke="rgb(153, 153, 153)" stroke-width="1.5px"></line></g></g><g><g><g><g><g><path stroke="rgb(255, 112, 67)" stroke-width="2px" d="M21.7791675,88.5L22.350820833333334,88.5L22.614660833333332,88.5L23.318234166666667,88.5L23.406180833333334,88.5L23.538100833333335,88.5L23.6260475,88.5L23.8898875,88.5L24.021807499999998,88.5L24.6814075,88.5L24.8133275,88.5L25.033194166666668,88.5L25.384980833333334,88.5L25.69279416666667,88.5L26.044580833333335,88.5L26.176500833333332,88.5L26.220474166666666,88.5L26.528287499999998,88.5L26.748154166666666,88.5L27.099940833333335,88.5L27.671594166666665,88.5L28.155300833333335,88.5L28.3751675,88.5L28.5070875,88.5L28.9028475,88.5L28.946820833333334,88.5L29.38655416666667,88.5L29.606420833333335,88.5L29.694367500000002,88.5L29.738340833333336,88.5L29.914234166666667,88.5L30.266020833333332,88.5L30.617807499999998,88.5L30.661780833333335,88.5L30.8816475,88.5L31.365354166666666,88.5L31.629194166666665,88.5L31.849060833333333,88.5L31.980980833333334,88.5L32.50866083333333,88.5L32.77250083333334,88.5L32.9923675,88.5L33.1242875,88.5L33.300180833333336,88.5L33.47607416666667,88.5L33.56402083333333,88.5L34.39951416666667,88.5L34.61938083333333,88.5L34.663354166666664,88.5L34.88322083333333,88.5L35.1030875,88.5L35.19103416666667,88.5L35.54282083333333,88.5L35.58679416666667,88.5L35.8946075,88.5L36.070500833333334,88.5L36.46626083333333,88.5L36.8180475,88.5L37.52162083333333,88.5L37.69751416666667,88.5L37.961354166666666,88.5L38.1372475,88.5L38.22519416666667,88.5L40.07207416666667,88.5L40.1160475,88.5L40.20399416666667,88.5L40.46783416666666,88.5L40.863594166666665,88.5L40.95154083333333,88.5L40.995514166666666,88.5L41.12743416666667,88.5L41.39127416666667,88.5L41.78703416666667,88.5L41.918954166666666,88.5L41.9629275,88.5L42.402660833333336,88.5L43.1502075,88.5L43.23815416666667,88.5L43.85378083333333,88.5L44.07364750000001,88.5L44.16159416666667,88.5L44.29351416666667,88.5L44.64530083333333,88.5L44.90914083333333,88.5L44.9970875,88.5L45.1290075,88.5L45.3928475,88.5L45.61271416666667,88.5L46.0524475,88.5L46.3162875,88.5L46.5801275,88.5L46.75602083333333,88.5L47.01986083333333,88.5L47.1078075,88.5L47.15178083333333,88.5L47.2397275,88.5L47.32767416666667,88.5L47.371647499999995,88.5L47.59151416666667,88.5L47.635487499999996,88.5L48.0312475,88.5L48.2950875,88.5L48.38303416666667,88.5L48.60290083333334,88.5L48.8227675,88.5L48.910714166666665,88.5L49.43839416666667,88.5L49.7462075,88.5L49.79018083333334,88.5L49.878127500000005,88.5L49.966074166666665,88.5L50.0100475,88.5L50.097994166666666,88.5L50.62567416666667,88.5L50.757594166666664,88.5L50.9334875,88.5L51.0654075,88.5L51.1973275,88.5L51.37322083333333,88.5L51.41719416666667,88.5L51.5930875,88.5L51.81295416666667,88.5L51.8569275,88.5L52.296660833333334,88.5L52.47255416666666,88.5L52.60447416666667,88.5L52.95626083333333,88.5L53.132154166666666,88.5L53.26407416666667,88.5L53.3080475,88.5L53.352020833333334,88.5L53.65983416666666,88.5L53.923674166666665,88.5L54.01162083333333,88.5L54.055594166666666,88.5L54.2314875,88.5L54.407380833333335,88.5L54.539300833333336,88.5L54.58327416666667,88.5L54.6272475,88.5L54.80314083333334,88.5L55.19890083333333,88.5L55.37479416666666,88.5L55.4187675,88.5L55.46274083333333,88.5L55.5506875,88.5L55.594660833333336,88.5L55.85850083333333,88.5L56.034394166666665,88.5L56.0783675,88.5L56.166314166666666,88.5L56.25426083333333,88.5L56.386180833333334,88.5L56.43015416666667,88.5L56.474127499999994,88.5L56.518100833333335,88.5L56.65002083333333,88.5L56.825914166666664,88.5L57.04578083333333,88.5L57.08975416666667,88.5L57.1337275,88.5L57.3975675,88.5L58.145114166666666,88.5L58.3210075,88.5L58.40895416666667,88.5L58.628820833333336,88.5L59.68418083333333,88.5L59.772127499999996,88.5L59.99199416666667,88.5L60.07994083333333,88.5L60.255834166666666,88.5L60.343780833333334,88.5L60.6955675,88.5L60.9594075,88.5L61.13530083333333,88.5L61.44311416666667,88.5L61.531060833333335,88.5L61.79490083333334,88.5L61.8828475,88.5L62.014767500000005,88.5L62.05874083333333,88.5L62.1466875,88.5L62.49847416666667,88.5L62.5424475,88.5L62.674367499999995,88.5L62.98218083333333,88.5L63.11410083333333,88.5L63.509860833333335,88.5L63.68575416666666,88.5L63.81767416666667,88.5L63.8616475,88.5L64.2574075,88.5L64.30138083333333,88.5L64.47727416666666,88.5L64.5212475,88.5L64.56522083333334,88.5L64.60919416666667,88.5L64.7850875,88.5L64.82906083333333,88.5L64.96098083333334,88.5L65.00495416666666,88.5L65.35674083333333,88.5L65.53263416666665,88.5L65.62058083333334,88.5L65.70852749999999,88.5L65.75250083333334,88.5L66.14826083333334,88.5L66.28018083333333,88.5L66.6319675,88.5L66.71991416666665,88.5L66.89580749999999,88.5L66.93978083333333,88.5L67.1596475,88.5L67.46746083333333,88.5L67.95116750000001,88.5L68.03911416666666,88.5L68.30295416666667,88.5L68.43487416666667,88.5L68.52282083333333,88.5L68.69871416666666,88.5L68.8746075,88.5L68.96255416666668,88.5L69.18242083333334,88.5L69.22639416666667,88.5L69.27036749999999,88.5L69.62215416666668,88.5L69.88599416666666,88.5L70.0618875,88.5L70.10586083333332,88.5L70.14983416666668,88.5L70.54559416666667,88.5L70.76546083333334,88.5L71.3810875,88.5L71.46903416666666,88.5L72.34850083333335,88.5L72.39247416666667,88.5L72.56836750000001,88.5L72.61234083333333,88.5L72.65631416666666,88.5L73.44783416666667,88.5L73.66770083333333,88.5L73.97551416666667,88.5L74.0194875,88.5L74.2833275,88.5L74.37127416666667,88.5L74.59114083333334,88.5L74.6790875,88.5L74.76703416666668,88.5L74.9429275,88.5L75.73444749999999,88.5L75.82239416666667,88.5L75.91034083333332,88.5L76.2621275,88.5L76.3940475,88.5L76.74583416666665,88.5L76.87775416666666,88.5L77.00967416666667,88.5L77.5813275,88.5L77.88914083333333,88.5L78.15298083333334,88.5L78.32887416666667,88.5L78.41682083333333,88.5L78.46079416666666,88.5L78.72463416666666,88.5L79.16436750000001,88.5L79.38423416666667,88.5L79.4282075,88.5L79.56012750000001,88.5L79.8239675,88.5L79.91191416666666,88.5L80.04383416666667,88.5L80.17575416666668,88.5L80.30767416666666,88.5L80.35164750000001,88.5L81.14316749999999,88.5L81.8027675,88.5L82.4623675,88.5L82.59428750000001,88.5L82.63826083333333,88.5L82.7262075,88.5L82.77018083333334,88.5L83.69362083333333,88.5L83.73759416666667,88.5L83.95746083333334,88.5L84.08938083333334,88.5L84.26527416666667,88.5L84.35322083333332,88.5L84.52911416666666,88.5L84.7050075,88.5L84.88090083333333,88.5L85.98023416666668,88.5L86.0242075,88.5L86.50791416666667,88.5L86.85970083333333,88.5L86.90367416666666,88.5L87.03559416666667,88.5L87.12354083333332,88.5L87.16751416666668,88.5L87.56327416666667,88.5L87.8710875,88.5L88.5306875,88.5L88.57466083333334,88.5L88.70658083333333,88.5L89.01439416666668,88.5L89.54207416666667,88.5L89.76194083333334,88.5L89.80591416666667,88.5L89.89386083333333,88.5L90.20167416666668,88.5L90.50948749999999,88.5L90.55346083333333,88.5L90.94922083333333,88.5L91.12511416666666,88.5L91.21306083333333,88.5L91.38895416666668,88.5L91.78471416666667,88.5L92.0925275,88.5L92.13650083333333,88.5L92.35636749999999,88.5L92.70815416666666,88.5L93.10391416666667,88.5L93.1478875,88.5L93.32378083333333,88.5L93.54364749999999,88.5L93.6755675,88.5L93.76351416666667,88.5L93.89543416666666,88.5L94.02735416666667,88.5L94.2032475,88.5L94.55503416666666,88.5L94.90682083333333,88.5L95.08271416666666,88.5L95.21463416666667,88.5L95.2586075,88.5L95.5224475,88.5L95.56642083333334,88.5L95.9182075,88.5L96.09410083333333,88.5L96.13807416666666,88.5L96.18204750000001,88.5L96.26999416666666,88.5L96.40191416666667,88.5L96.7097275,88.5L96.75370083333333,88.5L97.1054875,88.5L97.14946083333332,88.5L97.54522083333333,88.5L97.72111416666667,88.5L97.80906083333333,88.5L97.85303416666667,88.5L97.94098083333333,88.5L98.16084749999999,88.5L98.20482083333334,88.5L98.2927675,88.5L98.33674083333332,88.5L98.38071416666668,88.5L98.60058083333334,88.5L99.21620750000001,88.5L99.6119675,88.5L99.8758075,88.5L100.18362083333334,88.5L100.22759416666666,88.5L100.62335416666667,88.5L100.9311675,88.5L101.3269275,88.5L101.4588475,88.5L101.76666083333333,88.5L101.8546075,88.5L102.03050083333333,88.5L102.47023416666667,88.5L102.5142075,88.5L102.6461275,88.5L102.86599416666667,88.5L103.0418875,88.5L103.61354083333333,88.5L103.7014875,88.5L103.74546083333333,88.5L104.00930083333334,88.5L104.05327416666667,88.5L104.0972475,88.5L104.18519416666668,88.5L104.80082083333333,88.5L105.59234083333334,88.5L105.85618083333334,88.5L106.16399416666665,88.5L106.42783416666667,88.5L106.6037275,88.5L106.69167416666667,88.5L106.77962083333334,88.5L107.04346083333334,88.5L107.17538083333334,88.5L107.2633275,88.5L107.39524750000001,88.5L107.52716749999999,88.5L107.6590875,88.5L108.05484750000001,88.5L108.14279416666666,88.5L108.67047416666666,88.5L108.71444749999999,88.5L108.75842083333333,88.5L109.37404749999999,88.5L109.54994083333332,88.5L109.72583416666666,88.5L109.90172749999999,88.5L109.94570083333333,88.5L110.07762083333333,88.5L110.1655675,88.5L110.25351416666666,88.5L110.60530083333335,88.5L110.6932475,88.5L110.8251675,88.5L110.9570875,88.5L111.0890075,88.5L111.17695416666668,88.5L111.30887416666667,88.5L111.44079416666666,88.5L112.1443675,88.5L112.45218083333333,88.5L112.6720475,88.5L112.71602083333333,88.5L112.75999416666666,88.5L112.84794083333334,88.5L112.89191416666667,88.5L112.97986083333333,88.5L113.0678075,88.5L113.24370083333334,88.5L113.41959416666667,88.5L113.63946083333333,88.5L113.7274075,88.5L114.03522083333334,88.5L114.1231675,88.5L114.16714083333332,88.5L114.38700750000001,88.5L114.56290083333333,88.5L114.7827675,88.5L114.87071416666667,88.5L114.9146875,88.5L115.35442083333332,88.5L115.39839416666668,88.5L115.5742875,88.5L115.7062075,88.5L115.8381275,88.5L115.88210083333334,88.5L116.01402083333333,88.5L116.05799416666667,88.5L116.14594083333333,88.5L116.36580749999999,88.5L116.40978083333334,88.5L116.71759416666666,88.5L116.7615675,88.5L116.93746083333333,88.5L117.0254075,88.5L117.11335416666667,88.5L117.2892475,88.5L117.72898083333332,88.5L117.8169275,88.5L117.90487416666666,88.5L117.9488475,88.5L118.12474083333333,88.5L118.25666083333334,88.5L118.60844750000001,88.5L118.78434083333335,88.5L119.3999675,88.5L119.57586083333332,88.5L119.6638075,88.5L119.88367416666667,88.5L119.92764749999999,88.5L120.01559416666667,88.5L120.10354083333333,88.5L120.14751416666667,88.5L120.23546083333333,88.5L120.3234075,88.5L120.36738083333333,88.5L120.67519416666667,88.5L120.80711416666668,88.5L121.02698083333334,88.5L121.55466083333333,88.5L121.73055416666666,88.5L121.86247416666667,88.5L122.3022075,88.5L122.5660475,88.5L122.61002083333334,88.5L122.6979675,88.5L122.8298875,88.5L122.96180749999999,88.5L123.00578083333333,88.5L123.04975416666667,88.5L123.4894875,88.5L123.53346083333334,88.5L123.57743416666666,88.5L123.66538083333333,88.5L124.19306083333333,88.5L124.23703416666667,88.5L124.2810075,88.5L124.32498083333333,88.5L124.6767675,88.5L125.0725275,88.5L125.82007416666667,88.5L126.43570083333334,88.5L126.61159416666668,88.5L126.6555675,88.5L126.74351416666666,88.5L127.09530083333333,88.5L127.1832475,88.5L127.35914083333333,88.5L127.79887416666668,88.5L128.15066083333335,88.5L128.19463416666667,88.5L128.67834083333332,88.5L129.0301275,88.5L129.2939675,88.5L129.33794083333333,88.5L129.4258875,88.5L129.51383416666667,88.5L129.73370083333333,88.5L130.56919416666665,88.5L130.83303416666666,88.5L130.8770075,88.5L131.31674083333334,88.5L131.4046875,88.5L131.5366075,88.5L131.58058083333333,88.5L131.62455416666668,88.5L132.0642875,88.5L132.10826083333333,88.5L132.2401808333333,88.5L132.50402083333333,88.5L132.72388750000002,88.5L132.81183416666667,88.5L132.89978083333332,88.5L132.9877275,88.5L133.3834875,88.5L133.55938083333334,88.5L133.73527416666667,88.5L133.82322083333332,88.5L133.95514083333333,88.5L134.35090083333336,88.5L134.39487416666668,88.5L134.5707675,88.5L134.8346075,88.5L134.92255416666666,88.5L135.45023416666666,88.5L135.4942075,88.5L135.53818083333334,88.5L135.58215416666667,88.5L135.71407416666668,88.5L135.88996749999998,88.5L136.1538075,88.5L136.19778083333333,88.5L136.32970083333333,88.5L136.68148749999997,88.5L136.90135416666666,88.5L137.03327416666664,88.5L137.16519416666668,88.5L137.2091675,88.5L137.4730075,88.5L137.56095416666668,88.5L137.82479416666666,88.5L137.95671416666667,88.5L138.08863416666668,88.5L138.1326075,88.5L138.30850083333334,88.5L139.1439941666667,88.5L139.3198875,88.5L139.40783416666665,88.5L139.62770083333334,88.5L139.8475675,88.5L140.41922083333333,88.5L140.59511416666666,88.5L140.72703416666667,88.5L141.38663416666665,88.5L141.87034083333333,88.5L141.91431416666668,88.5L142.04623416666666,88.5L142.31007416666668,88.5L142.6178875,88.5L142.66186083333332,88.5L142.70583416666668,88.5L142.7498075,88.5L142.79378083333333,88.5L142.83775416666668,88.5L143.18954083333335,88.5L144.2009275,88.5L144.24490083333333,88.5L144.28887416666666,88.5L144.5966875,88.5L145.08039416666665,88.5L145.16834083333333,88.5L145.69602083333334,88.5L145.73999416666666,88.5L145.87191416666664,88.5L145.95986083333335,88.5L146.00383416666668,88.5L146.09178083333333,88.5L146.92727416666668,88.5L147.14714083333334,88.5L147.27906083333335,88.5L147.41098083333333,88.5L147.80674083333332,88.5L147.85071416666665,88.5L148.11455416666666,88.5L148.20250083333332,88.5L148.24647416666664,88.5L148.51031416666666,88.5L148.64223416666667,88.5L148.6862075,88.5L148.90607416666666,88.5L148.99402083333334,88.5L149.0819675,88.5L149.2138875,88.5L149.6096475,88.5L149.82951416666666,88.5L149.91746083333334,88.5L149.96143416666666,88.5L150.00540750000002,88.5L150.48911416666667,88.5L150.9288475,88.5L151.28063416666666,88.5L152.02818083333335,88.5L152.33599416666667,88.5L152.37996750000002,88.5L152.5118875,88.5L152.95162083333332,88.5L153.21546083333334,88.5L153.39135416666667,88.5L153.61122083333333,88.5L153.6991675,88.5L153.78711416666667,88.5L153.87506083333332,88.5L153.9630075,88.5L154.13890083333334,88.5L154.18287416666666,88.5L154.31479416666667,88.5L154.57863416666666,88.5L154.6665808333333,88.5L154.79850083333335,88.5L155.15028750000002,88.5L155.23823416666667,88.5L155.2822075,88.5L155.32618083333332,88.5L155.6779675,88.5L156.3375675,88.5L156.42551416666666,88.5L156.51346083333334,88.5L156.6014075,88.5L156.68935416666665,88.5L157.08511416666664,88.5L157.2610075,88.5L157.83266083333334,88.5L158.00855416666667,88.5L158.84404750000002,88.5L159.5036475,88.5L159.54762083333335,88.5L159.8114608333333,88.5L159.85543416666667,88.5L159.94338083333335,88.5L160.07530083333333,88.5L160.2951675,88.5L160.4270875,88.5L160.47106083333333,88.5L160.5590075,88.5L161.26258083333335,88.5L161.5703941666667,88.5L161.7462875,88.5L162.05410083333334,88.5L162.09807416666666,88.5L162.4058875,88.5L162.53780749999999,88.5L163.59316750000002,88.5L163.7250875,88.5L164.03290083333334,88.5L164.16482083333332,88.5L164.20879416666665,88.5L164.29674083333333,88.5L164.3407141666667,88.5L164.6485275,88.5L164.73647416666668,88.5L165.22018083333333,88.5L165.4400475,88.5L165.8358075,88.5L165.92375416666667,88.5L166.01170083333335,88.5L166.18759416666666,88.5L166.31951416666666,88.5L166.8911675,88.5L166.93514083333332,88.5L166.97911416666668,88.5L167.24295416666666,88.5L167.59474083333333,88.5L167.85858083333332,88.5L167.90255416666665,88.5L167.9465275,88.5L168.12242083333334,88.5L168.34228750000003,88.5L168.6501008333333,88.5L169.00188749999998,88.5L169.17778083333334,88.5L169.35367416666668,88.5L169.44162083333333,88.5L169.70546083333335,88.5L169.83738083333333,88.5L169.9253275,88.5L170.01327416666666,88.5L170.10122083333334,88.5L170.23314083333332,88.5L170.4530075,88.5L170.9806875,88.5L171.20055416666668,88.5L171.42042083333334,88.5L172.21194083333333,88.5L172.38783416666666,88.5L172.51975416666667,88.5L172.73962083333333,88.5L173.00346083333332,88.5L173.04743416666665,88.5L173.2233275,88.5L173.31127416666666,88.5L173.57511416666668,88.5L173.6190875,88.5L173.8829275,88.5L174.19074083333334,88.5L174.45458083333335,88.5L174.58650083333333,88.5L174.85034083333335,88.5L175.3340475,88.5L175.42199416666665,88.5L175.7298075,88.5L175.8617275,88.5L175.9936475,88.5L176.08159416666666,88.5L176.30146083333332,88.5L177.00503416666666,88.5L177.0929808333333,88.5L177.13695416666667,88.5L177.3128475,88.5L177.35682083333333,88.5L177.5327141666667,88.5L177.62066083333335,88.5L177.88450083333333,88.5L177.92847416666666,88.5L178.2362875,88.5L178.7639675,88.5L178.98383416666667,88.5L179.11575416666665,88.5L179.51151416666664,88.5L179.55548750000003,88.5L179.81932749999999,88.5L179.8633008333333,88.5L180.4789275,88.5L180.65482083333333,88.5L180.7427675,88.5L180.83071416666667,88.5L180.96263416666667,88.5L181.09455416666665,88.5L181.49031416666665,88.5L181.75415416666667,88.5L181.84210083333332,88.5L182.3258075,88.5L182.36978083333335,88.5L182.63362083333334,88.5L182.94143416666665,88.5L183.9967941666667,88.5L184.12871416666667,88.5L184.26063416666665,88.5L184.34858083333336,88.5L185.27202083333333,88.5L185.40394083333334,88.5L185.57983416666667,88.5L185.6238075,88.5L185.66778083333332,88.5L185.9316208333333,88.5L186.06354083333335,88.5L186.1514875,88.5L186.5472475,88.5L186.72314083333333,88.5L186.85506083333334,88.5L187.0749275,88.5L187.42671416666667,88.5L187.6026075,88.5L187.69055416666666,88.5L187.77850083333334,88.5L188.35015416666667,88.5L188.43810083333335,88.5L188.57002083333333,88.5L189.09770083333333,88.5L189.27359416666667,88.5L189.49346083333333,88.5L189.5814075,88.5L190.02114083333333,88.5L190.10908750000002,88.5L190.19703416666667,88.5L190.7686875,88.5L191.0325275,88.5L191.47226083333334,88.5L191.6921275,88.5L191.99994083333334,88.5L192.13186083333332,88.5L192.2198075,88.5L193.09927416666665,88.5L193.14324749999997,88.5L193.18722083333336,88.5L193.4070875,88.5L193.49503416666664,88.5L193.75887416666666,88.5L193.9347675,88.5L194.28655416666666,88.5L194.3305275,88.5L194.55039416666668,88.5L194.5943675,88.5L194.77026083333334,88.5L195.25396750000002,88.5L195.51780749999998,88.5L195.7816475,88.5L195.9135675,88.5L196.39727416666668,88.5L196.5731675,88.5L196.74906083333335,88.5L196.8370075,88.5L197.05687416666666,88.5L197.2327675,88.5L197.45263416666666,88.5L197.67250083333334,88.5L197.84839416666665,88.5L197.89236749999998,88.5L197.9803141666667,88.5L198.37607416666668,88.5L198.4200475,88.5L198.90375416666666,88.5L198.99170083333334,88.5L199.03567416666667,88.5L199.3434875,88.5L199.43143416666666,88.5L199.4754075,88.5L199.51938083333332,88.5L199.56335416666667,88.5L199.7392475,88.5L199.82719416666666,88.5L200.7946075,88.5L200.9265275,88.5L201.54215416666665,88.5L201.76202083333334,88.5L201.80599416666666,88.5L201.89394083333332,88.5L202.2457275,88.5L202.46559416666668,88.5L202.77340750000002,88.5L204.00466083333333,88.5L204.31247416666665,88.5L204.79618083333335,88.5L205.01604749999998,88.5L205.4118075,88.5L205.45578083333334,88.5L205.89551416666666,88.5L205.93948749999998,88.5L205.98346083333334,88.5L206.0714075,88.5L206.15935416666667,88.5L206.24730083333333,88.5L206.29127416666665,88.5L206.33524749999998,88.5L206.4231941666667,88.5L207.21471416666668,88.5L207.4345808333333,88.5L207.6544475,88.5L207.7863675,88.5L207.9182875,88.5L208.13815416666668,88.5L208.62186083333333,88.5L209.01762083333332,88.5L209.14954083333333,88.5L209.1935141666667,88.5L209.58927416666668,88.5L209.85311416666667,88.5L210.51271416666668,88.5L210.5566875,88.5L210.8205275,88.5L210.99642083333333,88.5L211.1283408333333,88.5L211.39218083333333,88.5L211.48012749999998,88.5L211.8758875,88.5L212.05178083333334,88.5L212.31562083333333,88.5L212.5354875,88.5L212.7993275,88.5L212.97522083333334,88.5L213.1950875,88.5L213.5029008333333,88.5L213.67879416666668,88.5L214.07455416666667,88.5L214.20647416666665,88.5L214.73415416666666,88.5L215.0419675,88.5L215.1738875,88.5L215.26183416666666,88.5L215.30580750000001,88.5L215.48170083333332,88.5L215.52567416666665,88.5L215.5696475,88.5L216.0973275,88.5L216.36116750000002,88.5L216.40514083333335,88.5L216.4930875,88.5L216.71295416666666,88.5L216.7569275,88.5L216.8888475,88.5L217.15268749999998,88.5L217.32858083333335,88.5L217.63639416666666,88.5L218.0761275,88.5L218.3399675,88.5L218.51586083333333,88.5L218.64778083333331,88.5L218.99956749999998,88.5L219.08751416666667,88.5L219.6591675,88.5L219.83506083333333,88.5L219.87903416666666,88.5L220.7145275,88.5L220.75850083333333,88.5L220.89042083333334,88.5L221.19823416666668,88.5L221.28618083333333,88.5L221.6379675,88.5L221.72591416666668,88.5L221.7698875,88.5L222.3415408333333,88.5L222.42948750000002,88.5L222.47346083333335,88.5L222.82524750000002,88.5L222.86922083333334,88.5L223.00114083333332,88.5L223.0890875,88.5L223.4848475,88.5L223.6167675,88.5L223.70471416666666,88.5L223.79266083333334,88.5L224.32034083333332,88.5L225.06788749999998,88.5L225.28775416666667,88.5L225.7274875,88.5L225.9913275,88.5L226.29914083333333,88.5L226.56298083333334,88.5L226.6509275,88.5L226.82682083333336,88.5L227.13463416666664,88.5L227.17860750000003,88.5L227.22258083333335,88.5L227.66231416666668,88.5L228.36588749999999,88.5L228.58575416666667,88.5L228.80562083333334,88.5L229.0254875,88.5L229.06946083333332,88.5L229.15740749999998,88.5L229.2893275,88.5L229.72906083333334,88.5L229.90495416666667,88.5L229.9489275,88.5L230.21276749999998,88.5L230.38866083333335,88.5L230.43263416666667,88.5L230.78442083333334,88.5L230.8723675,88.5L230.91634083333335,88.5L230.96031416666668,88.5L231.04826083333333,88.5L231.18018083333334,88.5L231.22415416666666,88.5L231.26812750000002,88.5L231.31210083333335,88.5L231.48799416666665,88.5L231.57594083333333,88.5L231.70786083333334,88.5L231.75183416666667,88.5L231.7958075,88.5L231.83978083333332,88.5L231.9277275,88.5L232.0596475,88.5L232.10362083333334,88.5L232.36746083333333,88.5L232.63130083333334,88.5L232.7192475,88.5L232.8511675,88.5L233.3788475,88.5L233.73063416666668,88.5L233.7746075,88.5L233.81858083333333,88.5L234.08242083333334,88.5L234.3902341666667,88.5L234.61010083333332,88.5L234.91791416666666,88.5L235.0938075,88.5L235.31367416666666,88.5L235.4895675,88.5L235.7534075,88.5L235.84135416666666,88.5L235.97327416666664,88.5L236.19314083333333,88.5" style="fill: none;" fill="none"></path></g></g></g></g><g opacity="0.2"><g><g><g><path stroke="rgb(255, 112, 67)" stroke-width="2px" d="M21.7791675,88.5L22.350820833333334,88.5L22.614660833333332,88.5L23.318234166666667,88.5L23.406180833333334,88.5L23.538100833333335,88.5L23.6260475,88.5L23.8898875,88.5L24.021807499999998,88.5L24.6814075,88.5L24.8133275,88.5L25.033194166666668,88.5L25.384980833333334,88.5L25.69279416666667,88.5L26.044580833333335,88.5L26.176500833333332,88.5L26.220474166666666,88.5L26.528287499999998,88.5L26.748154166666666,88.5L27.099940833333335,88.5L27.671594166666665,88.5L28.155300833333335,88.5L28.3751675,88.5L28.5070875,88.5L28.9028475,88.5L28.946820833333334,88.5L29.38655416666667,88.5L29.606420833333335,88.5L29.694367500000002,88.5L29.738340833333336,88.5L29.914234166666667,88.5L30.266020833333332,88.5L30.617807499999998,88.5L30.661780833333335,88.5L30.8816475,88.5L31.365354166666666,88.5L31.629194166666665,88.5L31.849060833333333,88.5L31.980980833333334,88.5L32.50866083333333,88.5L32.77250083333334,88.5L32.9923675,88.5L33.1242875,88.5L33.300180833333336,88.5L33.47607416666667,88.5L33.56402083333333,88.5L34.39951416666667,88.5L34.61938083333333,88.5L34.663354166666664,88.5L34.88322083333333,88.5L35.1030875,88.5L35.19103416666667,88.5L35.54282083333333,88.5L35.58679416666667,88.5L35.8946075,88.5L36.070500833333334,88.5L36.46626083333333,88.5L36.8180475,88.5L37.52162083333333,88.5L37.69751416666667,88.5L37.961354166666666,88.5L38.1372475,88.5L38.22519416666667,88.5L40.07207416666667,88.5L40.1160475,88.5L40.20399416666667,88.5L40.46783416666666,88.5L40.863594166666665,88.5L40.95154083333333,88.5L40.995514166666666,88.5L41.12743416666667,88.5L41.39127416666667,88.5L41.78703416666667,88.5L41.918954166666666,88.5L41.9629275,88.5L42.402660833333336,88.5L43.1502075,88.5L43.23815416666667,88.5L43.85378083333333,88.5L44.07364750000001,88.5L44.16159416666667,88.5L44.29351416666667,88.5L44.64530083333333,88.5L44.90914083333333,88.5L44.9970875,88.5L45.1290075,88.5L45.3928475,88.5L45.61271416666667,88.5L46.0524475,88.5L46.3162875,88.5L46.5801275,88.5L46.75602083333333,88.5L47.01986083333333,88.5L47.1078075,88.5L47.15178083333333,88.5L47.2397275,88.5L47.32767416666667,88.5L47.371647499999995,88.5L47.59151416666667,88.5L47.635487499999996,88.5L48.0312475,88.5L48.2950875,88.5L48.38303416666667,88.5L48.60290083333334,88.5L48.8227675,88.5L48.910714166666665,88.5L49.43839416666667,88.5L49.7462075,88.5L49.79018083333334,88.5L49.878127500000005,88.5L49.966074166666665,88.5L50.0100475,88.5L50.097994166666666,88.5L50.62567416666667,88.5L50.757594166666664,88.5L50.9334875,88.5L51.0654075,88.5L51.1973275,88.5L51.37322083333333,88.5L51.41719416666667,88.5L51.5930875,88.5L51.81295416666667,88.5L51.8569275,88.5L52.296660833333334,88.5L52.47255416666666,88.5L52.60447416666667,88.5L52.95626083333333,88.5L53.132154166666666,88.5L53.26407416666667,88.5L53.3080475,88.5L53.352020833333334,88.5L53.65983416666666,88.5L53.923674166666665,88.5L54.01162083333333,88.5L54.055594166666666,88.5L54.2314875,88.5L54.407380833333335,88.5L54.539300833333336,88.5L54.58327416666667,88.5L54.6272475,88.5L54.80314083333334,88.5L55.19890083333333,88.5L55.37479416666666,88.5L55.4187675,88.5L55.46274083333333,88.5L55.5506875,88.5L55.594660833333336,88.5L55.85850083333333,88.5L56.034394166666665,88.5L56.0783675,88.5L56.166314166666666,88.5L56.25426083333333,88.5L56.386180833333334,88.5L56.43015416666667,88.5L56.474127499999994,88.5L56.518100833333335,88.5L56.65002083333333,88.5L56.825914166666664,88.5L57.04578083333333,88.5L57.08975416666667,88.5L57.1337275,88.5L57.3975675,88.5L58.145114166666666,88.5L58.3210075,88.5L58.40895416666667,88.5L58.628820833333336,88.5L59.68418083333333,88.5L59.772127499999996,88.5L59.99199416666667,88.5L60.07994083333333,88.5L60.255834166666666,88.5L60.343780833333334,88.5L60.6955675,88.5L60.9594075,88.5L61.13530083333333,88.5L61.44311416666667,88.5L61.531060833333335,88.5L61.79490083333334,88.5L61.8828475,88.5L62.014767500000005,88.5L62.05874083333333,88.5L62.1466875,88.5L62.49847416666667,88.5L62.5424475,88.5L62.674367499999995,88.5L62.98218083333333,88.5L63.11410083333333,88.5L63.509860833333335,88.5L63.68575416666666,88.5L63.81767416666667,88.5L63.8616475,88.5L64.2574075,88.5L64.30138083333333,88.5L64.47727416666666,88.5L64.5212475,88.5L64.56522083333334,88.5L64.60919416666667,88.5L64.7850875,88.5L64.82906083333333,88.5L64.96098083333334,88.5L65.00495416666666,88.5L65.35674083333333,88.5L65.53263416666665,88.5L65.62058083333334,88.5L65.70852749999999,88.5L65.75250083333334,88.5L66.14826083333334,88.5L66.28018083333333,88.5L66.6319675,88.5L66.71991416666665,88.5L66.89580749999999,88.5L66.93978083333333,88.5L67.1596475,88.5L67.46746083333333,88.5L67.95116750000001,88.5L68.03911416666666,88.5L68.30295416666667,88.5L68.43487416666667,88.5L68.52282083333333,88.5L68.69871416666666,88.5L68.8746075,88.5L68.96255416666668,88.5L69.18242083333334,88.5L69.22639416666667,88.5L69.27036749999999,88.5L69.62215416666668,88.5L69.88599416666666,88.5L70.0618875,88.5L70.10586083333332,88.5L70.14983416666668,88.5L70.54559416666667,88.5L70.76546083333334,88.5L71.3810875,88.5L71.46903416666666,88.5L72.34850083333335,88.5L72.39247416666667,88.5L72.56836750000001,88.5L72.61234083333333,88.5L72.65631416666666,88.5L73.44783416666667,88.5L73.66770083333333,88.5L73.97551416666667,88.5L74.0194875,88.5L74.2833275,88.5L74.37127416666667,88.5L74.59114083333334,88.5L74.6790875,88.5L74.76703416666668,88.5L74.9429275,88.5L75.73444749999999,88.5L75.82239416666667,88.5L75.91034083333332,88.5L76.2621275,88.5L76.3940475,88.5L76.74583416666665,88.5L76.87775416666666,88.5L77.00967416666667,88.5L77.5813275,88.5L77.88914083333333,88.5L78.15298083333334,88.5L78.32887416666667,88.5L78.41682083333333,88.5L78.46079416666666,88.5L78.72463416666666,88.5L79.16436750000001,88.5L79.38423416666667,88.5L79.4282075,88.5L79.56012750000001,88.5L79.8239675,88.5L79.91191416666666,88.5L80.04383416666667,88.5L80.17575416666668,88.5L80.30767416666666,88.5L80.35164750000001,88.5L81.14316749999999,88.5L81.8027675,88.5L82.4623675,88.5L82.59428750000001,88.5L82.63826083333333,88.5L82.7262075,88.5L82.77018083333334,88.5L83.69362083333333,88.5L83.73759416666667,88.5L83.95746083333334,88.5L84.08938083333334,88.5L84.26527416666667,88.5L84.35322083333332,88.5L84.52911416666666,88.5L84.7050075,88.5L84.88090083333333,88.5L85.98023416666668,88.5L86.0242075,88.5L86.50791416666667,88.5L86.85970083333333,88.5L86.90367416666666,88.5L87.03559416666667,88.5L87.12354083333332,88.5L87.16751416666668,88.5L87.56327416666667,88.5L87.8710875,88.5L88.5306875,88.5L88.57466083333334,88.5L88.70658083333333,88.5L89.01439416666668,88.5L89.54207416666667,88.5L89.76194083333334,88.5L89.80591416666667,88.5L89.89386083333333,88.5L90.20167416666668,88.5L90.50948749999999,88.5L90.55346083333333,88.5L90.94922083333333,88.5L91.12511416666666,88.5L91.21306083333333,88.5L91.38895416666668,88.5L91.78471416666667,88.5L92.0925275,88.5L92.13650083333333,88.5L92.35636749999999,88.5L92.70815416666666,88.5L93.10391416666667,88.5L93.1478875,88.5L93.32378083333333,88.5L93.54364749999999,88.5L93.6755675,88.5L93.76351416666667,88.5L93.89543416666666,88.5L94.02735416666667,88.5L94.2032475,88.5L94.55503416666666,88.5L94.90682083333333,88.5L95.08271416666666,88.5L95.21463416666667,88.5L95.2586075,88.5L95.5224475,88.5L95.56642083333334,88.5L95.9182075,88.5L96.09410083333333,88.5L96.13807416666666,88.5L96.18204750000001,88.5L96.26999416666666,88.5L96.40191416666667,88.5L96.7097275,88.5L96.75370083333333,88.5L97.1054875,88.5L97.14946083333332,88.5L97.54522083333333,88.5L97.72111416666667,88.5L97.80906083333333,88.5L97.85303416666667,88.5L97.94098083333333,88.5L98.16084749999999,88.5L98.20482083333334,88.5L98.2927675,88.5L98.33674083333332,88.5L98.38071416666668,88.5L98.60058083333334,88.5L99.21620750000001,88.5L99.6119675,88.5L99.8758075,88.5L100.18362083333334,88.5L100.22759416666666,88.5L100.62335416666667,88.5L100.9311675,88.5L101.3269275,88.5L101.4588475,88.5L101.76666083333333,88.5L101.8546075,88.5L102.03050083333333,88.5L102.47023416666667,88.5L102.5142075,88.5L102.6461275,88.5L102.86599416666667,88.5L103.0418875,88.5L103.61354083333333,88.5L103.7014875,88.5L103.74546083333333,88.5L104.00930083333334,88.5L104.05327416666667,88.5L104.0972475,88.5L104.18519416666668,88.5L104.80082083333333,88.5L105.59234083333334,88.5L105.85618083333334,88.5L106.16399416666665,88.5L106.42783416666667,88.5L106.6037275,88.5L106.69167416666667,88.5L106.77962083333334,88.5L107.04346083333334,88.5L107.17538083333334,88.5L107.2633275,88.5L107.39524750000001,88.5L107.52716749999999,88.5L107.6590875,88.5L108.05484750000001,88.5L108.14279416666666,88.5L108.67047416666666,88.5L108.71444749999999,88.5L108.75842083333333,88.5L109.37404749999999,88.5L109.54994083333332,88.5L109.72583416666666,88.5L109.90172749999999,88.5L109.94570083333333,88.5L110.07762083333333,88.5L110.1655675,88.5L110.25351416666666,88.5L110.60530083333335,88.5L110.6932475,88.5L110.8251675,88.5L110.9570875,88.5L111.0890075,88.5L111.17695416666668,88.5L111.30887416666667,88.5L111.44079416666666,88.5L112.1443675,88.5L112.45218083333333,88.5L112.6720475,88.5L112.71602083333333,88.5L112.75999416666666,88.5L112.84794083333334,88.5L112.89191416666667,88.5L112.97986083333333,88.5L113.0678075,88.5L113.24370083333334,88.5L113.41959416666667,88.5L113.63946083333333,88.5L113.7274075,88.5L114.03522083333334,88.5L114.1231675,88.5L114.16714083333332,88.5L114.38700750000001,88.5L114.56290083333333,88.5L114.7827675,88.5L114.87071416666667,88.5L114.9146875,88.5L115.35442083333332,88.5L115.39839416666668,88.5L115.5742875,88.5L115.7062075,88.5L115.8381275,88.5L115.88210083333334,88.5L116.01402083333333,88.5L116.05799416666667,88.5L116.14594083333333,88.5L116.36580749999999,88.5L116.40978083333334,88.5L116.71759416666666,88.5L116.7615675,88.5L116.93746083333333,88.5L117.0254075,88.5L117.11335416666667,88.5L117.2892475,88.5L117.72898083333332,88.5L117.8169275,88.5L117.90487416666666,88.5L117.9488475,88.5L118.12474083333333,88.5L118.25666083333334,88.5L118.60844750000001,88.5L118.78434083333335,88.5L119.3999675,88.5L119.57586083333332,88.5L119.6638075,88.5L119.88367416666667,88.5L119.92764749999999,88.5L120.01559416666667,88.5L120.10354083333333,88.5L120.14751416666667,88.5L120.23546083333333,88.5L120.3234075,88.5L120.36738083333333,88.5L120.67519416666667,88.5L120.80711416666668,88.5L121.02698083333334,88.5L121.55466083333333,88.5L121.73055416666666,88.5L121.86247416666667,88.5L122.3022075,88.5L122.5660475,88.5L122.61002083333334,88.5L122.6979675,88.5L122.8298875,88.5L122.96180749999999,88.5L123.00578083333333,88.5L123.04975416666667,88.5L123.4894875,88.5L123.53346083333334,88.5L123.57743416666666,88.5L123.66538083333333,88.5L124.19306083333333,88.5L124.23703416666667,88.5L124.2810075,88.5L124.32498083333333,88.5L124.6767675,88.5L125.0725275,88.5L125.82007416666667,88.5L126.43570083333334,88.5L126.61159416666668,88.5L126.6555675,88.5L126.74351416666666,88.5L127.09530083333333,88.5L127.1832475,88.5L127.35914083333333,88.5L127.79887416666668,88.5L128.15066083333335,88.5L128.19463416666667,88.5L128.67834083333332,88.5L129.0301275,88.5L129.2939675,88.5L129.33794083333333,88.5L129.4258875,88.5L129.51383416666667,88.5L129.73370083333333,88.5L130.56919416666665,88.5L130.83303416666666,88.5L130.8770075,88.5L131.31674083333334,88.5L131.4046875,88.5L131.5366075,88.5L131.58058083333333,88.5L131.62455416666668,88.5L132.0642875,88.5L132.10826083333333,88.5L132.2401808333333,88.5L132.50402083333333,88.5L132.72388750000002,88.5L132.81183416666667,88.5L132.89978083333332,88.5L132.9877275,88.5L133.3834875,88.5L133.55938083333334,88.5L133.73527416666667,88.5L133.82322083333332,88.5L133.95514083333333,88.5L134.35090083333336,88.5L134.39487416666668,88.5L134.5707675,88.5L134.8346075,88.5L134.92255416666666,88.5L135.45023416666666,88.5L135.4942075,88.5L135.53818083333334,88.5L135.58215416666667,88.5L135.71407416666668,88.5L135.88996749999998,88.5L136.1538075,88.5L136.19778083333333,88.5L136.32970083333333,88.5L136.68148749999997,88.5L136.90135416666666,88.5L137.03327416666664,88.5L137.16519416666668,88.5L137.2091675,88.5L137.4730075,88.5L137.56095416666668,88.5L137.82479416666666,88.5L137.95671416666667,88.5L138.08863416666668,88.5L138.1326075,88.5L138.30850083333334,88.5L139.1439941666667,88.5L139.3198875,88.5L139.40783416666665,88.5L139.62770083333334,88.5L139.8475675,88.5L140.41922083333333,88.5L140.59511416666666,88.5L140.72703416666667,88.5L141.38663416666665,88.5L141.87034083333333,88.5L141.91431416666668,88.5L142.04623416666666,88.5L142.31007416666668,88.5L142.6178875,88.5L142.66186083333332,88.5L142.70583416666668,88.5L142.7498075,88.5L142.79378083333333,88.5L142.83775416666668,88.5L143.18954083333335,88.5L144.2009275,88.5L144.24490083333333,88.5L144.28887416666666,88.5L144.5966875,88.5L145.08039416666665,88.5L145.16834083333333,88.5L145.69602083333334,88.5L145.73999416666666,88.5L145.87191416666664,88.5L145.95986083333335,88.5L146.00383416666668,88.5L146.09178083333333,88.5L146.92727416666668,88.5L147.14714083333334,88.5L147.27906083333335,88.5L147.41098083333333,88.5L147.80674083333332,88.5L147.85071416666665,88.5L148.11455416666666,88.5L148.20250083333332,88.5L148.24647416666664,88.5L148.51031416666666,88.5L148.64223416666667,88.5L148.6862075,88.5L148.90607416666666,88.5L148.99402083333334,88.5L149.0819675,88.5L149.2138875,88.5L149.6096475,88.5L149.82951416666666,88.5L149.91746083333334,88.5L149.96143416666666,88.5L150.00540750000002,88.5L150.48911416666667,88.5L150.9288475,88.5L151.28063416666666,88.5L152.02818083333335,88.5L152.33599416666667,88.5L152.37996750000002,88.5L152.5118875,88.5L152.95162083333332,88.5L153.21546083333334,88.5L153.39135416666667,88.5L153.61122083333333,88.5L153.6991675,88.5L153.78711416666667,88.5L153.87506083333332,88.5L153.9630075,88.5L154.13890083333334,88.5L154.18287416666666,88.5L154.31479416666667,88.5L154.57863416666666,88.5L154.6665808333333,88.5L154.79850083333335,88.5L155.15028750000002,88.5L155.23823416666667,88.5L155.2822075,88.5L155.32618083333332,88.5L155.6779675,88.5L156.3375675,88.5L156.42551416666666,88.5L156.51346083333334,88.5L156.6014075,88.5L156.68935416666665,88.5L157.08511416666664,88.5L157.2610075,88.5L157.83266083333334,88.5L158.00855416666667,88.5L158.84404750000002,88.5L159.5036475,88.5L159.54762083333335,88.5L159.8114608333333,88.5L159.85543416666667,88.5L159.94338083333335,88.5L160.07530083333333,88.5L160.2951675,88.5L160.4270875,88.5L160.47106083333333,88.5L160.5590075,88.5L161.26258083333335,88.5L161.5703941666667,88.5L161.7462875,88.5L162.05410083333334,88.5L162.09807416666666,88.5L162.4058875,88.5L162.53780749999999,88.5L163.59316750000002,88.5L163.7250875,88.5L164.03290083333334,88.5L164.16482083333332,88.5L164.20879416666665,88.5L164.29674083333333,88.5L164.3407141666667,88.5L164.6485275,88.5L164.73647416666668,88.5L165.22018083333333,88.5L165.4400475,88.5L165.8358075,88.5L165.92375416666667,88.5L166.01170083333335,88.5L166.18759416666666,88.5L166.31951416666666,88.5L166.8911675,88.5L166.93514083333332,88.5L166.97911416666668,88.5L167.24295416666666,88.5L167.59474083333333,88.5L167.85858083333332,88.5L167.90255416666665,88.5L167.9465275,88.5L168.12242083333334,88.5L168.34228750000003,88.5L168.6501008333333,88.5L169.00188749999998,88.5L169.17778083333334,88.5L169.35367416666668,88.5L169.44162083333333,88.5L169.70546083333335,88.5L169.83738083333333,88.5L169.9253275,88.5L170.01327416666666,88.5L170.10122083333334,88.5L170.23314083333332,88.5L170.4530075,88.5L170.9806875,88.5L171.20055416666668,88.5L171.42042083333334,88.5L172.21194083333333,88.5L172.38783416666666,88.5L172.51975416666667,88.5L172.73962083333333,88.5L173.00346083333332,88.5L173.04743416666665,88.5L173.2233275,88.5L173.31127416666666,88.5L173.57511416666668,88.5L173.6190875,88.5L173.8829275,88.5L174.19074083333334,88.5L174.45458083333335,88.5L174.58650083333333,88.5L174.85034083333335,88.5L175.3340475,88.5L175.42199416666665,88.5L175.7298075,88.5L175.8617275,88.5L175.9936475,88.5L176.08159416666666,88.5L176.30146083333332,88.5L177.00503416666666,88.5L177.0929808333333,88.5L177.13695416666667,88.5L177.3128475,88.5L177.35682083333333,88.5L177.5327141666667,88.5L177.62066083333335,88.5L177.88450083333333,88.5L177.92847416666666,88.5L178.2362875,88.5L178.7639675,88.5L178.98383416666667,88.5L179.11575416666665,88.5L179.51151416666664,88.5L179.55548750000003,88.5L179.81932749999999,88.5L179.8633008333333,88.5L180.4789275,88.5L180.65482083333333,88.5L180.7427675,88.5L180.83071416666667,88.5L180.96263416666667,88.5L181.09455416666665,88.5L181.49031416666665,88.5L181.75415416666667,88.5L181.84210083333332,88.5L182.3258075,88.5L182.36978083333335,88.5L182.63362083333334,88.5L182.94143416666665,88.5L183.9967941666667,88.5L184.12871416666667,88.5L184.26063416666665,88.5L184.34858083333336,88.5L185.27202083333333,88.5L185.40394083333334,88.5L185.57983416666667,88.5L185.6238075,88.5L185.66778083333332,88.5L185.9316208333333,88.5L186.06354083333335,88.5L186.1514875,88.5L186.5472475,88.5L186.72314083333333,88.5L186.85506083333334,88.5L187.0749275,88.5L187.42671416666667,88.5L187.6026075,88.5L187.69055416666666,88.5L187.77850083333334,88.5L188.35015416666667,88.5L188.43810083333335,88.5L188.57002083333333,88.5L189.09770083333333,88.5L189.27359416666667,88.5L189.49346083333333,88.5L189.5814075,88.5L190.02114083333333,88.5L190.10908750000002,88.5L190.19703416666667,88.5L190.7686875,88.5L191.0325275,88.5L191.47226083333334,88.5L191.6921275,88.5L191.99994083333334,88.5L192.13186083333332,88.5L192.2198075,88.5L193.09927416666665,88.5L193.14324749999997,88.5L193.18722083333336,88.5L193.4070875,88.5L193.49503416666664,88.5L193.75887416666666,88.5L193.9347675,88.5L194.28655416666666,88.5L194.3305275,88.5L194.55039416666668,88.5L194.5943675,88.5L194.77026083333334,88.5L195.25396750000002,88.5L195.51780749999998,88.5L195.7816475,88.5L195.9135675,88.5L196.39727416666668,88.5L196.5731675,88.5L196.74906083333335,88.5L196.8370075,88.5L197.05687416666666,88.5L197.2327675,88.5L197.45263416666666,88.5L197.67250083333334,88.5L197.84839416666665,88.5L197.89236749999998,88.5L197.9803141666667,88.5L198.37607416666668,88.5L198.4200475,88.5L198.90375416666666,88.5L198.99170083333334,88.5L199.03567416666667,88.5L199.3434875,88.5L199.43143416666666,88.5L199.4754075,88.5L199.51938083333332,88.5L199.56335416666667,88.5L199.7392475,88.5L199.82719416666666,88.5L200.7946075,88.5L200.9265275,88.5L201.54215416666665,88.5L201.76202083333334,88.5L201.80599416666666,88.5L201.89394083333332,88.5L202.2457275,88.5L202.46559416666668,88.5L202.77340750000002,88.5L204.00466083333333,88.5L204.31247416666665,88.5L204.79618083333335,88.5L205.01604749999998,88.5L205.4118075,88.5L205.45578083333334,88.5L205.89551416666666,88.5L205.93948749999998,88.5L205.98346083333334,88.5L206.0714075,88.5L206.15935416666667,88.5L206.24730083333333,88.5L206.29127416666665,88.5L206.33524749999998,88.5L206.4231941666667,88.5L207.21471416666668,88.5L207.4345808333333,88.5L207.6544475,88.5L207.7863675,88.5L207.9182875,88.5L208.13815416666668,88.5L208.62186083333333,88.5L209.01762083333332,88.5L209.14954083333333,88.5L209.1935141666667,88.5L209.58927416666668,88.5L209.85311416666667,88.5L210.51271416666668,88.5L210.5566875,88.5L210.8205275,88.5L210.99642083333333,88.5L211.1283408333333,88.5L211.39218083333333,88.5L211.48012749999998,88.5L211.8758875,88.5L212.05178083333334,88.5L212.31562083333333,88.5L212.5354875,88.5L212.7993275,88.5L212.97522083333334,88.5L213.1950875,88.5L213.5029008333333,88.5L213.67879416666668,88.5L214.07455416666667,88.5L214.20647416666665,88.5L214.73415416666666,88.5L215.0419675,88.5L215.1738875,88.5L215.26183416666666,88.5L215.30580750000001,88.5L215.48170083333332,88.5L215.52567416666665,88.5L215.5696475,88.5L216.0973275,88.5L216.36116750000002,88.5L216.40514083333335,88.5L216.4930875,88.5L216.71295416666666,88.5L216.7569275,88.5L216.8888475,88.5L217.15268749999998,88.5L217.32858083333335,88.5L217.63639416666666,88.5L218.0761275,88.5L218.3399675,88.5L218.51586083333333,88.5L218.64778083333331,88.5L218.99956749999998,88.5L219.08751416666667,88.5L219.6591675,88.5L219.83506083333333,88.5L219.87903416666666,88.5L220.7145275,88.5L220.75850083333333,88.5L220.89042083333334,88.5L221.19823416666668,88.5L221.28618083333333,88.5L221.6379675,88.5L221.72591416666668,88.5L221.7698875,88.5L222.3415408333333,88.5L222.42948750000002,88.5L222.47346083333335,88.5L222.82524750000002,88.5L222.86922083333334,88.5L223.00114083333332,88.5L223.0890875,88.5L223.4848475,88.5L223.6167675,88.5L223.70471416666666,88.5L223.79266083333334,88.5L224.32034083333332,88.5L225.06788749999998,88.5L225.28775416666667,88.5L225.7274875,88.5L225.9913275,88.5L226.29914083333333,88.5L226.56298083333334,88.5L226.6509275,88.5L226.82682083333336,88.5L227.13463416666664,88.5L227.17860750000003,88.5L227.22258083333335,88.5L227.66231416666668,88.5L228.36588749999999,88.5L228.58575416666667,88.5L228.80562083333334,88.5L229.0254875,88.5L229.06946083333332,88.5L229.15740749999998,88.5L229.2893275,88.5L229.72906083333334,88.5L229.90495416666667,88.5L229.9489275,88.5L230.21276749999998,88.5L230.38866083333335,88.5L230.43263416666667,88.5L230.78442083333334,88.5L230.8723675,88.5L230.91634083333335,88.5L230.96031416666668,88.5L231.04826083333333,88.5L231.18018083333334,88.5L231.22415416666666,88.5L231.26812750000002,88.5L231.31210083333335,88.5L231.48799416666665,88.5L231.57594083333333,88.5L231.70786083333334,88.5L231.75183416666667,88.5L231.7958075,88.5L231.83978083333332,88.5L231.9277275,88.5L232.0596475,88.5L232.10362083333334,88.5L232.36746083333333,88.5L232.63130083333334,88.5L232.7192475,88.5L232.8511675,88.5L233.3788475,88.5L233.73063416666668,88.5L233.7746075,88.5L233.81858083333333,88.5L234.08242083333334,88.5L234.3902341666667,88.5L234.61010083333332,88.5L234.91791416666666,88.5L235.0938075,88.5L235.31367416666666,88.5L235.4895675,88.5L235.7534075,88.5L235.84135416666666,88.5L235.97327416666664,88.5L236.19314083333333,88.5" style="fill: none;" fill="none"></path></g></g></g></g></g></g><g transform="translate(72, 177)" clip-path="url(#clip_1)"><clipPath id="clip_1"><rect width="257" height="23"></rect></clipPath><g><g><line x1="0" y1="0" x2="0" y2="5" style="visibility: inherit;" fill="rgb(0, 0, 0)" stroke="rgb(204, 204, 204)" stroke-width="1px"></line><line x1="21.471354166666664" y1="0" x2="21.471354166666664" y2="5" style="visibility: inherit;" fill="rgb(0, 0, 0)" stroke="rgb(204, 204, 204)" stroke-width="1px"></line><line x1="42.94270833333333" y1="0" x2="42.94270833333333" y2="5" style="visibility: inherit;" fill="rgb(0, 0, 0)" stroke="rgb(204, 204, 204)" stroke-width="1px"></line><line x1="64.4140625" y1="0" x2="64.4140625" y2="5" style="visibility: inherit;" fill="rgb(0, 0, 0)" stroke="rgb(204, 204, 204)" stroke-width="1px"></line><line x1="85.88541666666666" y1="0" x2="85.88541666666666" y2="5" style="visibility: inherit;" fill="rgb(0, 0, 0)" stroke="rgb(204, 204, 204)" stroke-width="1px"></line><line x1="107.35677083333334" y1="0" x2="107.35677083333334" y2="5" style="visibility: inherit;" fill="rgb(0, 0, 0)" stroke="rgb(204, 204, 204)" stroke-width="1px"></line><line x1="128.828125" y1="0" x2="128.828125" y2="5" style="visibility: inherit;" fill="rgb(0, 0, 0)" stroke="rgb(204, 204, 204)" stroke-width="1px"></line><line x1="150.29947916666669" y1="0" x2="150.29947916666669" y2="5" style="visibility: inherit;" fill="rgb(0, 0, 0)" stroke="rgb(204, 204, 204)" stroke-width="1px"></line><line x1="171.77083333333331" y1="0" x2="171.77083333333331" y2="5" style="visibility: inherit;" fill="rgb(0, 0, 0)" stroke="rgb(204, 204, 204)" stroke-width="1px"></line><line x1="193.2421875" y1="0" x2="193.2421875" y2="5" style="visibility: inherit;" fill="rgb(0, 0, 0)" stroke="rgb(204, 204, 204)" stroke-width="1px"></line><line x1="214.71354166666669" y1="0" x2="214.71354166666669" y2="5" style="visibility: inherit;" fill="rgb(0, 0, 0)" stroke="rgb(204, 204, 204)" stroke-width="1px"></line><line x1="236.18489583333331" y1="0" x2="236.18489583333331" y2="5" style="visibility: inherit;" fill="rgb(0, 0, 0)" stroke="rgb(204, 204, 204)" stroke-width="1px"></line><line x1="257.65625" y1="0" x2="257.65625" y2="5" style="visibility: inherit;" fill="rgb(0, 0, 0)" stroke="rgb(204, 204, 204)" stroke-width="1px"></line></g><g transform="translate(0, 8)"><text x="0" y="0" dx="0em" dy="0.95em" style="text-anchor: middle; visibility: hidden; font-family: Roboto, sans-serif; font-size: 12px; font-weight: 200;" fill="rgb(33, 33, 33)" stroke="none" stroke-width="1px">-1M</text><text x="21.471354166666664" y="0" dx="0em" dy="0.95em" style="text-anchor: middle; visibility: inherit; font-family: Roboto, sans-serif; font-size: 12px; font-weight: 200;" fill="rgb(33, 33, 33)" stroke="none" stroke-width="1px">0</text><text x="42.94270833333333" y="0" dx="0em" dy="0.95em" style="text-anchor: middle; visibility: hidden; font-family: Roboto, sans-serif; font-size: 12px; font-weight: 200;" fill="rgb(33, 33, 33)" stroke="none" stroke-width="1px">1M</text><text x="64.4140625" y="0" dx="0em" dy="0.95em" style="text-anchor: middle; visibility: inherit; font-family: Roboto, sans-serif; font-size: 12px; font-weight: 200;" fill="rgb(33, 33, 33)" stroke="none" stroke-width="1px">2M</text><text x="85.88541666666666" y="0" dx="0em" dy="0.95em" style="text-anchor: middle; visibility: hidden; font-family: Roboto, sans-serif; font-size: 12px; font-weight: 200;" fill="rgb(33, 33, 33)" stroke="none" stroke-width="1px">3M</text><text x="107.35677083333334" y="0" dx="0em" dy="0.95em" style="text-anchor: middle; visibility: inherit; font-family: Roboto, sans-serif; font-size: 12px; font-weight: 200;" fill="rgb(33, 33, 33)" stroke="none" stroke-width="1px">4M</text><text x="128.828125" y="0" dx="0em" dy="0.95em" style="text-anchor: middle; visibility: hidden; font-family: Roboto, sans-serif; font-size: 12px; font-weight: 200;" fill="rgb(33, 33, 33)" stroke="none" stroke-width="1px">5M</text><text x="150.29947916666669" y="0" dx="0em" dy="0.95em" style="text-anchor: middle; visibility: inherit; font-family: Roboto, sans-serif; font-size: 12px; font-weight: 200;" fill="rgb(33, 33, 33)" stroke="none" stroke-width="1px">6M</text><text x="171.77083333333331" y="0" dx="0em" dy="0.95em" style="text-anchor: middle; visibility: hidden; font-family: Roboto, sans-serif; font-size: 12px; font-weight: 200;" fill="rgb(33, 33, 33)" stroke="none" stroke-width="1px">7M</text><text x="193.2421875" y="0" dx="0em" dy="0.95em" style="text-anchor: middle; visibility: inherit; font-family: Roboto, sans-serif; font-size: 12px; font-weight: 200;" fill="rgb(33, 33, 33)" stroke="none" stroke-width="1px">8M</text><text x="214.71354166666669" y="0" dx="0em" dy="0.95em" style="text-anchor: middle; visibility: hidden; font-family: Roboto, sans-serif; font-size: 12px; font-weight: 200;" fill="rgb(33, 33, 33)" stroke="none" stroke-width="1px">9M</text><text x="236.18489583333331" y="0" dx="0em" dy="0.95em" style="text-anchor: middle; visibility: inherit; font-family: Roboto, sans-serif; font-size: 12px; font-weight: 200;" fill="rgb(33, 33, 33)" stroke="none" stroke-width="1px">10M</text><text x="257.65625" y="0" dx="0em" dy="0.95em" style="text-anchor: middle; visibility: hidden; font-family: Roboto, sans-serif; font-size: 12px; font-weight: 200;" fill="rgb(33, 33, 33)" stroke="none" stroke-width="1px">11M</text></g><line x1="0" y1="0" x2="257.65625" y2="0" fill="rgb(0, 0, 0)" stroke="rgb(204, 204, 204)" stroke-width="1px"></line></g></g></g></g></svg>