<svg viewBox="0 0 330 200" xmlns="http://www.w3.org/2000/svg"><g><g><g><g><g><line x1="61.953125" y1="177" x2="56.953125" y2="177" style="visibility: inherit;" fill="rgb(0, 0, 0)" stroke="rgb(204, 204, 204)" stroke-width="1px"></line><line x1="61.953125" y1="159.3" x2="56.953125" y2="159.3" style="visibility: inherit;" fill="rgb(0, 0, 0)" stroke="rgb(204, 204, 204)" stroke-width="1px"></line><line x1="61.953125" y1="141.6" x2="56.953125" y2="141.6" style="visibility: inherit;" fill="rgb(0, 0, 0)" stroke="rgb(204, 204, 204)" stroke-width="1px"></line><line x1="61.953125" y1="123.89999999999999" x2="56.953125" y2="123.89999999999999" style="visibility: inherit;" fill="rgb(0, 0, 0)" stroke="rgb(204, 204, 204)" stroke-width="1px"></line><line x1="61.953125" y1="106.19999999999997" x2="56.953125" y2="106.19999999999997" style="visibility: inherit;" fill="rgb(0, 0, 0)" stroke="rgb(204, 204, 204)" stroke-width="1px"></line><line x1="61.953125" y1="88.49999999999999" x2="56.953125" y2="88.49999999999999" style="visibility: inherit;" fill="rgb(0, 0, 0)" stroke="rgb(204, 204, 204)" stroke-width="1px"></line><line x1="61.953125" y1="70.8" x2="56.953125" y2="70.8" style="visibility: inherit;" fill="rgb(0, 0, 0)" stroke="rgb(204, 204, 204)" stroke-width="1px"></line><line x1="61.953125" y1="53.09999999999999" x2="56.953125" y2="53.09999999999999" style="visibility: inherit;" fill="rgb(0, 0, 0)" stroke="rgb(204, 204, 204)" stroke-width="1px"></line><line x1="61.953125" y1="35.39999999999997" x2="56.953125" y2="35.39999999999997" style="visibility: inherit;" fill="rgb(0, 0, 0)" stroke="rgb(204, 204, 204)" stroke-width="1px"></line><line x1="61.953125" y1="17.699999999999957" x2="56.953125" y2="17.699999999999957" style="visibility: inherit;" fill="rgb(0, 0, 0)" stroke="rgb(204, 204, 204)" stroke-width="1px"></line><line x1="61.953125" y1="0" x2="56.953125" y2="0" style="visibility: inherit;" fill="rgb(0, 0, 0)" stroke="rgb(204, 204, 204)" stroke-width="1px"></line></g><g transform="translate(51.953125, 0)"><text x="0" y="177" dx="0em" dy="0.3em" style="text-anchor: end; visibility: hidden; font-family: Roboto, sans-serif; font-size: 12px; font-weight: 200;" fill="rgb(33, 33, 33)" stroke="none" stroke-width="1px">6e-3</text><text x="0" y="159.3" dx="0em" dy="0.3em" style="text-anchor: end; visibility: inherit; font-family: Roboto, sans-serif; font-size: 12px; font-weight: 200;" fill="rgb(33, 33, 33)" stroke="none" stroke-width="1px">8e-3</text><text x="0" y="141.6" dx="0em" dy="0.3em" style="text-anchor: end; visibility: hidden; font-family: Roboto, sans-serif; font-size: 12px; font-weight: 200;" fill="rgb(33, 33, 33)" stroke="none" stroke-width="1px">0.01</text><text x="0" y="123.89999999999999" dx="0em" dy="0.3em" style="text-anchor: end; visibility: inherit; font-family: Roboto, sans-serif; font-size: 12px; font-weight: 200;" fill="rgb(33, 33, 33)" stroke="none" stroke-width="1px">0.012</text><text x="0" y="106.19999999999997" dx="0em" dy="0.3em" style="text-anchor: end; visibility: hidden; font-family: Roboto, sans-serif; font-size: 12px; font-weight: 200;" fill="rgb(33, 33, 33)" stroke="none" stroke-width="1px">0.014</text><text x="0" y="88.49999999999999" dx="0em" dy="0.3em" style="text-anchor: end; visibility: inherit; font-family: Roboto, sans-serif; font-size: 12px; font-weight: 200;" fill="rgb(33, 33, 33)" stroke="none" stroke-width="1px">0.016</text><text x="0" y="70.8" dx="0em" dy="0.3em" style="text-anchor: end; visibility: hidden; font-family: Roboto, sans-serif; font-size: 12px; font-weight: 200;" fill="rgb(33, 33, 33)" stroke="none" stroke-width="1px">0.018</text><text x="0" y="53.09999999999999" dx="0em" dy="0.3em" style="text-anchor: end; visibility: inherit; font-family: Roboto, sans-serif; font-size: 12px; font-weight: 200;" fill="rgb(33, 33, 33)" stroke="none" stroke-width="1px">0.02</text><text x="0" y="35.39999999999997" dx="0em" dy="0.3em" style="text-anchor: end; visibility: hidden; font-family: Roboto, sans-serif; font-size: 12px; font-weight: 200;" fill="rgb(33, 33, 33)" stroke="none" stroke-width="1px">0.022</text><text x="0" y="17.699999999999957" dx="0em" dy="0.3em" style="text-anchor: end; visibility: inherit; font-family: Roboto, sans-serif; font-size: 12px; font-weight: 200;" fill="rgb(33, 33, 33)" stroke="none" stroke-width="1px">0.024</text><text x="0" y="0" dx="0em" dy="0.3em" style="text-anchor: end; visibility: hidden; font-family: Roboto, sans-serif; font-size: 12px; font-weight: 200;" fill="rgb(33, 33, 33)" stroke="none" stroke-width="1px">0.026</text></g><line x1="61.953125" y1="0" x2="61.953125" y2="177" fill="rgb(0, 0, 0)" stroke="rgb(204, 204, 204)" stroke-width="1px"></line></g></g><g transform="translate(61, 0)" clip-path="url(#clip_0)"><clipPath id="clip_0"><rect width="268" height="177"></rect></clipPath><g><g><g><line x1="0" y1="0" x2="0" y2="177" fill="rgb(0, 0, 0)" stroke="rgb(66, 66, 66)" stroke-width="1px" opacity="0.25"></line><line x1="22.337239583333332" y1="0" x2="22.337239583333332" y2="177" fill="rgb(0, 0, 0)" stroke="rgb(66, 66, 66)" stroke-width="1px" opacity="0.25"></line><line x1="44.674479166666664" y1="0" x2="44.674479166666664" y2="177" fill="rgb(0, 0, 0)" stroke="rgb(66, 66, 66)" stroke-width="1px" opacity="0.25"></line><line x1="67.01171875" y1="0" x2="67.01171875" y2="177" fill="rgb(0, 0, 0)" stroke="rgb(66, 66, 66)" stroke-width="1px" opacity="0.25"></line><line x1="89.34895833333333" y1="0" x2="89.34895833333333" y2="177" fill="rgb(0, 0, 0)" stroke="rgb(66, 66, 66)" stroke-width="1px" opacity="0.25"></line><line x1="111.68619791666667" y1="0" x2="111.68619791666667" y2="177" fill="rgb(0, 0, 0)" stroke="rgb(66, 66, 66)" stroke-width="1px" opacity="0.25"></line><line x1="134.0234375" y1="0" x2="134.0234375" y2="177" fill="rgb(0, 0, 0)" stroke="rgb(66, 66, 66)" stroke-width="1px" opacity="0.25"></line><line x1="156.36067708333334" y1="0" x2="156.36067708333334" y2="177" fill="rgb(0, 0, 0)" stroke="rgb(66, 66, 66)" stroke-width="1px" opacity="0.25"></line><line x1="178.69791666666666" y1="0" x2="178.69791666666666" y2="177" fill="rgb(0, 0, 0)" stroke="rgb(66, 66, 66)" stroke-width="1px" opacity="0.25"></line><line x1="201.03515625" y1="0" x2="201.03515625" y2="177" fill="rgb(0, 0, 0)" stroke="rgb(66, 66, 66)" stroke-width="1px" opacity="0.25"></line><line x1="223.37239583333334" y1="0" x2="223.37239583333334" y2="177" fill="rgb(0, 0, 0)" stroke="rgb(66, 66, 66)" stroke-width="1px" opacity="0.25"></line><line x1="245.70963541666666" y1="0" x2="245.70963541666666" y2="177" fill="rgb(0, 0, 0)" stroke="rgb(66, 66, 66)" stroke-width="1px" opacity="0.25"></line><line x1="268.046875" y1="0" x2="268.046875" y2="177" fill="rgb(0, 0, 0)" stroke="rgb(66, 66, 66)" stroke-width="1px" opacity="0.25"></line></g><g><line x1="0" y1="177" x2="268.046875" y2="177" fill="rgb(0, 0, 0)" stroke="rgb(66, 66, 66)" stroke-width="1px" opacity="0.25"></line><line x1="0" y1="159.3" x2="268.046875" y2="159.3" fill="rgb(0, 0, 0)" stroke="rgb(66, 66, 66)" stroke-width="1px" opacity="0.25"></line><line x1="0" y1="141.6" x2="268.046875" y2="141.6" fill="rgb(0, 0, 0)" stroke="rgb(66, 66, 66)" stroke-width="1px" opacity="0.25"></line><line x1="0" y1="123.89999999999999" x2="268.046875" y2="123.89999999999999" fill="rgb(0, 0, 0)" stroke="rgb(66, 66, 66)" stroke-width="1px" opacity="0.25"></line><line x1="0" y1="106.19999999999997" x2="268.046875" y2="106.19999999999997" fill="rgb(0, 0, 0)" stroke="rgb(66, 66, 66)" stroke-width="1px" opacity="0.25"></line><line x1="0" y1="88.49999999999999" x2="268.046875" y2="88.49999999999999" fill="rgb(0, 0, 0)" stroke="rgb(66, 66, 66)" stroke-width="1px" opacity="0.25"></line><line x1="0" y1="70.8" x2="268.046875" y2="70.8" fill="rgb(0, 0, 0)" stroke="rgb(66, 66, 66)" stroke-width="1px" opacity="0.25"></line><line x1="0" y1="53.09999999999999" x2="268.046875" y2="53.09999999999999" fill="rgb(0, 0, 0)" stroke="rgb(66, 66, 66)" stroke-width="1px" opacity="0.25"></line><line x1="0" y1="35.39999999999997" x2="268.046875" y2="35.39999999999997" fill="rgb(0, 0, 0)" stroke="rgb(66, 66, 66)" stroke-width="1px" opacity="0.25"></line><line x1="0" y1="17.699999999999957" x2="268.046875" y2="17.699999999999957" fill="rgb(0, 0, 0)" stroke="rgb(66, 66, 66)" stroke-width="1px" opacity="0.25"></line><line x1="0" y1="0" x2="268.046875" y2="0" fill="rgb(0, 0, 0)" stroke="rgb(66, 66, 66)" stroke-width="1px" opacity="0.25"></line></g></g></g><g><g><line x1="0" y1="230.1" x2="268.046875" y2="230.1" fill="rgb(0, 0, 0)" stroke="rgb(153, 153, 153)" stroke-width="1.5px"></line></g></g><g><g><line x1="22.337239583333332" y1="0" x2="22.337239583333332" y2="177" fill="rgb(0, 0, 0)" stroke="rgb(153, 153, 153)" stroke-width="1.5px"></line></g></g><g><g><g><g><g><path stroke="rgb(255, 112, 67)" stroke-width="2px" d="M23.526652916666666,177.2382413929024L24.258599583333336,174.6442456415656L24.350092916666668,171.2871701334671L24.487332916666666,167.77138432925062L24.57882625,167.24602857177535L24.85330625,165.75845286803582L24.990546249999998,167.66253806163377L25.67674625,166.278160664225L25.81398625,163.2695125367022L26.042719583333334,158.51989435461627L26.408692916666666,157.22403158429776L26.728919583333333,151.94655676521774L27.094892916666666,149.30074540040067L27.232132916666668,146.61775665319155L27.277879583333334,147.56194921434704L27.598106249999997,147.08631665917875L27.82683958333333,153.1307801867376L28.192812916666668,156.66268761500797L28.78751958333333,148.35134344350854L29.29073291666667,145.73941244581948L29.51946625,163.6360499890384L29.65670625,143.1062185780624L30.068426249999998,151.72970135019628L30.114172916666664,159.699578814476L30.571639583333337,160.43835637329386L30.800372916666667,154.17107397275174L30.89186625,155.35131055230136L30.937612916666666,151.85057930825317L31.120599583333334,164.58255265416724L31.486572916666667,171.11238418169953L31.85254625,155.13758044878713L31.89829291666667,154.59913852215917L32.12702625,165.4651566901209L32.630239583333335,161.8062510827326L32.90471958333333,168.07341352655604L33.13345291666666,169.00531266650356L33.27069291666667,152.34127064610763L33.81965291666666,160.31633133145456L34.094132916666666,165.04027156859902L34.32286625,129.00679640365263L34.46010625,153.76843627165036L34.64309291666667,134.42168138821697L34.82607958333333,116.43796985439153L34.917572916666664,123.60437512586519L35.786759583333335,137.80969010921828L36.015492916666666,140.00562531376352L36.06123958333333,150.67313859975982L36.28997291666666,134.8006953686185L36.51870625,134.38198424307544L36.61019958333333,111.82375781725064L36.97617291666666,121.06265689443303L37.021919583333336,136.14761438243633L37.34214625,150.68097545869395L37.525132916666664,155.70848106372395L37.936852916666666,160.16886375168386L38.302826249999995,146.5729617780096L39.03477291666666,142.5621562433625L39.21775958333334,151.7203483710374L39.49223958333334,159.9366698783451L39.67522625,154.0842049985714L39.766719583333334,134.89160507527492L41.68807958333333,139.2531690434069L41.73382625,146.44553662913745L41.82531958333333,136.13657585443676L42.09979958333333,153.47376939244043L42.51151958333333,121.51972481153588L42.60301291666667,138.52376076730897L42.64875958333333,140.86244146631842L42.785999583333336,149.1992117938053L43.06047958333333,150.99982526848623L43.472199583333335,150.34223875537458L43.609439583333334,100.93019053360787L43.65518625,119.53867048872092L44.11265291666667,136.34542235584604L44.89034625,143.0577853113505L44.98183958333333,151.21175522313075L45.622292916666666,141.92247103813622L45.851026250000004,112.58519328423341L45.942519583333336,144.65177032761574L46.079759583333335,154.2933723617363L46.445732916666664,155.37111811660338L46.72021291666666,156.25568175597553L46.81170625,166.10415002738574L46.94894625,126.44993060788593L47.22342625,140.7012798658674L47.452159583333334,111.72108464906603L47.90962625,132.07270447832343L48.18410625,144.4145790722787L48.45858625,144.60914284746764L48.64157291666667,145.38554762101722L48.916052916666665,150.4008402605149L49.00754625,143.703916363823L49.05329291666667,152.6267340168551L49.14478625,154.50406538845274L49.236279583333335,143.42497217685684L49.28202625,128.17639311808765L49.51075958333333,135.51608626281273L49.55650625,141.81446523225335L49.96822625,144.4135649519028L50.24270625,141.87444998513828L50.33419958333333,149.64529004374845L50.56293291666667,161.09278694885793L50.79166625,144.75588501988545L50.88315958333333,159.47139195217903L51.43211958333334,128.51609781690965L51.752346249999995,142.00886463833467L51.79809291666667,142.05804098911653L51.88958625,145.02302451829655L51.98107958333333,94.04865987778032L52.02682625,122.3567487971057L52.11831958333333,121.56594734660203L52.66727958333334,134.5640524337972L52.80451958333333,130.327826090174L52.987506249999996,137.15764856279915L53.12474625,151.44687660688774L53.26198625,142.18098209905395L53.444972916666664,131.97320784931046L53.49071958333334,126.4880493749956L53.67370625,146.04043585343837L53.90243958333334,154.18490142894493L53.94818625,140.51090871645633L54.40565291666667,135.3173179656483L54.58863958333333,136.9480075013767L54.72587958333333,111.73340654147448L55.09185291666667,128.21318481667507L55.27483958333333,115.52906844439308L55.41207958333334,127.57755600555062L55.45782625,134.13757602970793L55.50357291666667,111.20113545358772L55.82379958333333,129.75398228377458L56.09827958333333,138.83924654326057L56.18977291666666,128.73084013969427L56.235519583333335,138.8854003129049L56.41850625,118.96708983586095L56.601492916666665,138.1001018944732L56.73873291666667,143.589141706577L56.78447958333333,84.94087017563051L56.83022625,118.86429940879087L57.01321291666667,141.56990742717528L57.42493291666666,142.01990963479489L57.60791958333333,143.24452971136932L57.65366625,133.87055408874966L57.69941291666667,132.33718706038485L57.790906250000006,132.84791139076287L57.836652916666665,136.8257965480395L58.11113291666667,133.58839326948572L58.294119583333334,102.05287549049046L58.33986625,118.0123710680031L58.43135958333333,127.06244982782145L58.52285291666667,122.73270458446824L58.66009291666666,99.39523161570361L58.705839583333336,105.02582469594554L58.751586249999995,132.40331977292644L58.79733291666667,135.420572205393L58.93457291666666,124.70246248424559L59.11755958333333,144.9756741859347L59.34629291666666,117.4758962752122L59.392039583333336,130.04693858931648L59.43778625,103.81275820440165L59.71226625,120.36460828993387L60.48995958333333,100.15373147197762L60.67294625,127.11303779635251L60.764439583333335,115.33608575867665L60.993172916666666,127.41415941928061L62.09109291666667,134.32624481984516L62.18258625,103.5995407358917L62.41131958333334,125.60784572935773L62.50281291666667,141.9852038940887L62.685799583333335,157.00720632179682L62.77729291666667,163.7547048080957L63.143266249999996,164.38042725296296L63.41774625,148.6747109089582L63.600732916666665,152.78729577119879L63.920959583333335,130.682176936601L64.01245291666667,131.69861003558896L64.28693291666667,138.2126875740353L64.37842625,126.85562792641304L64.51566625000001,149.3718020707213L64.56141291666667,160.3995116490032L64.65290625,159.40019840838946L65.01887958333333,169.07075698669215L65.06462625,146.72039765504275L65.20186625,131.81408012159034L65.52209291666667,60.249087039514556L65.65933291666666,82.37397334375034L66.07105291666666,116.45406307085186L66.25403958333334,143.708427415513L66.39127958333333,131.38782004578292L66.43702625,138.3808888395928L66.84874625,129.99707824977057L66.89449291666666,142.88067341754922L67.07747958333333,135.11475031709725L67.12322625,128.972466675407L67.16897291666668,150.01616042969601L67.21471958333333,142.6729815998255L67.39770625,113.30544171861281L67.44345291666666,121.98697024677081L67.58069291666666,124.25942717414429L67.62643958333332,139.2932177808662L67.99241291666667,43.73519446651814L68.17539958333333,85.82179437265205L68.26689291666666,100.15532212159279L68.35838625,120.9149854591563L68.40413291666667,126.06018189570753L68.81585291666667,64.93498242128757L68.95309291666666,106.74442309031704L69.31906625,101.13850216516747L69.41055958333332,114.85603546335633L69.59354624999999,100.45913503548107L69.63929291666668,106.85439057204485L69.86802625,110.88479062738037L70.18825291666667,131.26907544789918L70.69146625,139.25586367462998L70.78295958333334,126.49315146708445L71.05743958333333,131.039964471781L71.19467958333334,132.33549773903115L71.28617291666667,138.6945014207746L71.46915958333334,135.00743342707665L71.65214625,147.10706911411947L71.74363958333333,154.0189536561195L71.97237291666667,113.34384063122415L72.01811958333333,112.09628238164032L72.06386624999999,134.96250154991534L72.42983958333335,133.24756386917582L72.70431958333333,127.12244604195206L72.88730625,103.10943831840184L72.93305291666667,107.27347722643034L72.97879958333334,116.0445019447411L73.39051958333333,119.937143652654L73.61925291666667,123.80348084078211L74.25970625000001,130.41388483930217L74.35119958333333,127.94704354398601L75.26613291666668,118.15815015431136L75.31187958333334,123.56518130866225L75.49486625,140.59036310549104L75.54061291666666,147.70913629940463L75.58635958333333,126.29887368521875L76.40979958333334,147.89928674782388L76.63853291666666,130.7943617678289L76.95875958333333,128.41611747170117L77.00450624999999,122.08076980337275L77.27898625,112.84396561547979L77.37047958333332,132.31355575972717L77.59921291666667,154.0772588102008L77.69070624999999,137.4259573109737L77.78219958333334,95.98920680748168L77.96518625,104.92186434755767L78.78862625,125.68179432505399L78.88011958333334,147.8755183427276L78.97161291666666,145.09322342939626L79.33758625,127.52796659807831L79.47482624999999,147.2313872357635L79.84079958333332,150.04710332426L79.97803958333333,148.49699702723368L80.11527958333333,154.75029825129235L80.70998625,108.7230545899756L81.03021291666667,127.48510018804595L81.30469291666667,130.3005559055145L81.48767958333333,121.83760238874767L81.57917291666666,130.6235022594858L81.62491958333332,143.63896447697752L81.89939958333333,161.7890256735949L82.35686625000001,152.5478695323031L82.58559958333333,148.18408598035342L82.63134624999999,155.6533728092448L82.76858625,154.95862765249825L83.04306625,156.04363555185327L83.13455958333333,128.46564937157828L83.27179958333333,138.95833358868L83.40903958333334,139.01108721407675L83.54627958333333,112.56940402634396L83.59202625,126.6771256592718L84.41546625,92.17096464674752L85.10166625,122.50787945533446L85.78786625,135.6075661866048L85.92510625,136.14705085773343L85.97085291666667,114.48521427165907L86.06234625,131.3604109518316L86.10809291666666,144.24814126924196L87.06877291666666,148.71357607654048L87.11451958333335,101.85071771866865L87.34325291666667,94.07810055867901L87.48049291666668,117.23811020735545L87.66347958333334,143.69065012668753L87.75497291666666,156.02829580775014L87.93795958333332,153.90280217183297L88.12094625,153.63776621835035L88.30393291666667,134.50863776887417L89.44759958333334,132.8828966412542L89.49334625,135.7391738442241L89.99655958333334,97.83899507300009L90.36253291666667,130.4400640891549L90.40827958333333,120.55769715795259L90.54551958333333,112.9323510519525L90.63701291666666,131.5281009350336L90.68275958333334,124.91552219176985L91.09447958333334,132.2904454985839L91.41470625000001,112.0936292683829L92.10090625000001,88.9963556924909L92.14665291666667,121.0428785675436L92.28389291666667,119.0643609595996L92.60411958333334,106.57709861831079L93.15307958333334,81.61397051177151L93.38181291666666,67.58804851926399L93.42755958333333,104.49419690255542L93.51905291666667,97.1217000006689L93.83927958333334,115.79072988236268L94.15950624999999,127.52321614387225L94.20525291666667,121.35929586716053L94.61697291666667,125.23280008064245L94.79995958333333,130.2865955521258L94.89145291666667,118.67541245323969L95.07443958333334,133.1397373041663L95.48615958333333,111.33441253460367L95.80638625,102.87470552537988L95.85213291666666,104.65031625100464L96.08086625,120.37730229373867L96.44683958333333,122.43600521311816L96.85855958333335,132.21431508422287L96.90430625,131.3560839029276L97.08729291666667,150.94072425273797L97.31602625,124.42703648094977L97.45326625,148.34631454622533L97.54475958333333,118.78530340239875L97.68199958333334,138.67131029700025L97.81923958333333,137.70073685219754L98.00222624999999,137.6258092869572L98.36819958333334,148.08260852183415L98.73417291666667,147.49693180165L98.91715958333333,137.5510784920532L99.05439958333334,140.45082383686176L99.10014625,149.8151539008103L99.37462625,155.5733551069517L99.42037291666666,89.78441391881817L99.78634625,98.45199363468001L99.96933291666666,80.04610208235923L100.01507958333333,102.52589875213947L100.06082625,119.38628584237483L100.15231958333332,115.050201037476L100.28955958333333,57.652862769633224L100.60978625,91.70879045353514L100.65553291666667,49.12895732001173L101.02150625,92.94017339811151L101.06725291666666,115.46334090212241L101.47897291666668,129.8685402424887L101.66195958333334,128.35901089857552L101.75345291666666,82.9409432545336L101.79919958333333,112.60766325295162L101.89069291666667,75.78719757825247L102.11942624999999,94.36366436916656L102.16517291666668,65.7891990806941L102.25666625,98.92885628454589L102.30241291666667,120.28560843028251L102.34815958333334,148.07560239833666L102.57689291666667,136.89523090274378L103.21734625,142.37926635593917L103.62906625000001,135.45833440036026L103.90354624999999,109.06911774909761L104.22377291666666,136.32289685434858L104.26951958333332,148.4623014589504L104.68123958333334,149.6209788687739L105.00146625000001,163.01322760665198L105.41318625,155.15527018239368L105.55042625,119.96742278921762L105.87065291666667,124.35268038951253L105.96214625,99.47176418955858L106.14513291666667,80.96106655094466L106.60259958333334,101.50602650251055L106.64834625,134.22983829606216L106.78558625000001,105.09714592742108L107.01431958333333,65.90440468875875L107.19730625,109.09637675717954L107.79201291666666,124.99001650473764L107.88350625,34.79317507065113L107.92925291666667,83.85474156479104L108.20373291666667,117.94661827036778L108.24947958333334,60.757211318904396L108.29522625,97.59558353814138L108.38671958333333,119.08547914634737L109.02717291666666,88.28180182284468L109.85061291666666,103.26693608436794L110.12509291666667,129.8991372315515L110.44531958333333,140.19164652487208L110.71979958333334,120.6592933744822L110.90278625,141.53521006111112L110.99427958333334,147.12758225175028L111.08577291666667,88.01393102629352L111.36025291666667,109.63886313467243L111.49749291666666,116.6043781405927L111.58898625,114.1322443667794L111.72622625000001,123.12833075143365L111.86346624999999,103.1112661112396L112.00070625,120.44273567432451L112.41242625000001,118.50140489196353L112.50391958333333,103.32534952286227L113.05287958333334,107.24768146707618L113.09862625,103.08572984477283L113.14437291666667,94.14107109987972L113.78482625,122.87707071622754L113.96781291666666,124.38130138826692L114.15079958333332,76.84398686088517L114.33378624999999,101.19840134887333L114.37953291666668,123.76372265731355L114.51677291666667,110.10411440172827L114.60826625,88.9213908999505L114.69975958333333,98.48403708588135L115.06573291666668,110.15538253844412L115.15722625,91.68551085806267L115.29446625,111.2045171659671L115.43170625,131.87242817157403L115.56894625,116.00515536695059L115.66043958333333,130.8676302723845L115.79767958333333,128.38781421975852L115.93491958333333,125.02049419356322L116.66686625000001,149.53336166648828L116.98709291666665,129.08849085097768L117.21582625,119.46724356636558L117.26157291666667,0.043082879931617635L117.30731958333332,6.486918753952349L117.39881291666667,66.93481540862949L117.44455958333333,44.919633076096936L117.53605291666666,92.1652050153198L117.62754625,99.23878627498638L117.81053291666666,113.08555527853783L117.99351958333334,103.25476582782159L118.22225291666666,101.09423752776794L118.31374625000001,125.30912686170349L118.63397291666666,95.55971650887255L118.72546625,103.19276847323017L118.77121291666666,104.07040896582744L118.99994625000001,122.7561792818793L119.18293291666667,129.05198394376566L119.41166625,127.56567826431115L119.50315958333334,107.44460690445374L119.54890625,78.76900523797673L120.00637291666666,103.14669161689879L120.05211958333334,67.17182021470427L120.23510625,113.8394643703494L120.37234625,130.66835879411659L120.50958625,135.97542823047257L120.55533291666667,135.3420817455102L120.69257291666666,137.65673742758923L120.73831958333334,38.18945899586491L120.82981291666667,42.100233861092406L121.05854624999999,98.0959482296012L121.10429291666667,77.50806758962284L121.42451958333332,98.22355274297125L121.47026625000001,4.457890438063847L121.65325291666667,25.16290236921544L121.74474624999999,76.55757257080934L121.83623958333334,53.39472603879485L122.01922625,87.45894515727231L122.47669291666666,86.19808232405344L122.56818625,94.22731314312551L122.65967958333333,108.94704305744847L122.70542625,111.27978714192916L122.88841291666667,135.58985339759295L123.02565291666667,149.90557356064622L123.39162625,153.48270003742041L123.57461291666667,134.3334166848425L124.21506624999999,136.47918320648455L124.39805291666666,144.1004412150537L124.48954625,133.9874399403426L124.71827958333333,114.69351162551003L124.76402625,115.97968886159751L124.85551958333333,131.39225764207774L124.94701291666667,151.42923235801004L124.99275958333334,143.32549439404693L125.08425291666667,135.07287672420912L125.17574625,37.72260347104412L125.22149291666666,64.08023204205237L125.54171958333333,108.71558875969234L125.67895958333334,130.67899342086127L125.90769291666668,115.84167170662408L126.45665291666667,95.73703770064546L126.63963958333333,104.5930323861434L126.77687958333334,101.3805529886421L127.23434625,84.41966955685236L127.50882625,110.02165042220722L127.55457291666667,120.75858291542035L127.64606625,123.7227100235552L127.78330625,134.37209986104548L127.92054625,135.6964670314132L127.96629291666666,135.76745801918142L128.01203958333335,149.3447897387441L128.46950625,137.40097780185317L128.51525291666667,147.15767122392282L128.56099958333334,157.4107745106335L128.65249291666666,152.4041467766652L129.20145291666665,154.06021051858005L129.24719958333333,165.77807483243427L129.29294625,156.81597202162433L129.33869291666667,152.7366235102146L129.70466625,150.73218456714923L130.11638625,87.0889251274441L130.89407958333334,76.78439649835673L131.53453291666668,67.96714098331597L131.71751958333334,97.5325738823549L131.76326625000002,-42.27526345395236L131.85475958333333,-7.469018971283382L132.22073291666666,25.004803993487887L132.31222625,62.94150517340571L132.49521291666667,80.64637277562063L132.95267958333335,69.02011759840632L133.31865291666668,34.928743782122L133.36439958333332,26.350125555085597L133.86761291666667,55.73339462899412L134.23358625,-5.781835126738271L134.50806625,47.995405033164886L134.55381291666666,98.37381281640154L134.64530625,55.725643341755955L134.73679958333332,104.8486717940963L134.96553291666666,115.39627997080068L135.8347195833333,134.2068777178948L136.10919958333332,148.39681675234286L136.15494625,153.6550120247832L136.61241291666667,109.4265323950905L136.70390625,89.83167567634929L136.84114624999998,103.7587839152476L136.88689291666665,92.22236892140276L136.93263958333335,127.03470626149395L137.39010625,122.47402115582717L137.43585291666668,40.58435142230566L137.57309291666667,91.70871870050776L137.84757291666665,110.5325816361901L138.07630625000002,124.19311770372373L138.16779958333333,83.98934680952298L138.25929291666665,102.7679217279474L138.35078625,112.46571462217094L138.76250625,109.14914927862955L138.94549291666667,122.55267812092826L139.12847958333333,128.06760686072545L139.21997291666668,129.7740091500153L139.35721291666664,119.29544493228016L139.76893291666667,127.57324824374807L139.81467958333334,48.80498487378292L139.99766624999998,66.33309081956823L140.27214625,109.70328045809318L140.36363958333334,125.99899585887222L140.91259958333333,104.42443641122834L140.95834625,105.53510289115701L141.00409291666668,117.11477865054007L141.04983958333332,82.43246055050967L141.18707958333334,85.63408923330472L141.37006625,42.655187717572225L141.64454625,79.46586899339879L141.69029291666666,108.21693114209009L141.82753291666666,127.77920685734054L142.19350624999998,136.4547415684205L142.42223958333332,107.27280596646914L142.5594795833333,39.50102478953153L142.69671958333333,62.33938325698344L142.74246625,106.72816961276631L143.01694625000002,108.1117404888159L143.10843958333334,89.74214171797547L143.38291958333335,56.41898081052608L143.52015958333334,69.30607447325174L143.65739958333336,68.69537976800791L143.70314625,52.2919336561524L143.88613291666667,-13.074907049884592L144.75531958333335,52.5321414455174L144.93830624999998,82.22564660530678L145.02979958333333,89.20791219947571L145.25853291666667,128.18581126363776L145.48726625,143.0671591304642L146.08197291666664,158.67390107410563L146.26495958333334,148.70949137701044L146.40219958333333,87.02193177427917L147.0883995833333,65.93033549538892L147.59161291666666,31.46701817960523L147.63735958333334,38.30828575283873L147.77459958333333,79.08543751770607L148.04907958333334,44.007924609091L148.36930625,90.47735823792583L148.41505291666667,115.98089506851056L148.46079958333334,130.38794339910996L148.50654624999999,136.66110108116774L148.55229291666666,151.6026946788699L148.59803958333336,156.9353210792345L148.9640129166667,2.997697875225633L150.01618625,20.19335187186247L150.06193291666668,50.3639143741694L150.10767958333335,85.90594616839687L150.42790625,116.79999904682876L150.93111958333333,124.68468335718299L151.02261291666665,139.47966941692164L151.57157291666667,140.9938022599979L151.61731958333334,142.50983466186307L151.75455958333333,145.4849506221901L151.84605291666668,135.50940940932577L151.89179958333332,124.21935882229295L151.98329291666667,103.36863505815676L152.85247958333335,125.4143235199166L153.08121291666666,113.70912646517232L153.21845291666668,47.70488969484015L153.35569291666667,63.7590289169493L153.76741291666667,17.846199836965923L153.81315958333332,52.896201479814394L154.08763958333333,92.99770164929745L154.17913291666665,115.76335905026149L154.22487958333332,108.08117967132179L154.49935958333333,102.86811076213986L154.63659958333335,95.9127741397027L154.68234625,80.9560912388923L154.91107958333333,81.05835784544719L155.00257291666668,82.6120645953427L155.09406625,111.67968108762567L155.23130625,129.3480688201443L155.64302625,119.05797731918427L155.87175958333333,146.08105722631413L155.96325291666665,123.61361170539496L156.00899958333332,94.31817988234303L156.05474625000002,116.4458103691193L156.55795958333334,133.1498435835333L157.01542625,141.08776376562068L157.38139958333332,130.90300385544745L158.15909291666668,112.72958889329463L158.4793195833333,133.224881719047L158.52506625,115.38100356280454L158.66230625,101.04291067760974L159.11977291666665,121.6583873787033L159.39425291666666,133.75185625842258L159.57723958333335,61.757364852673064L159.80597291666666,108.0988264739193L159.89746624999998,69.21156055031284L159.98895958333335,86.1241890688125L160.08045291666667,105.66584875594877L160.17194625,43.905347909398685L160.35493291666668,92.19002922020424L160.40067958333333,-437.38976802800846L160.81239958333333,-63.612406823917404L160.90389291666665,24.92493374429095L161.04113291666667,67.20506386269301L161.40710625,65.51538809513549L161.49859958333334,106.63471311234238L161.54434625,115.39607196705222L161.59009291666666,116.27309504781175L161.95606625,142.0198621006847L162.64226625,90.33128722262624L162.73375958333332,66.07446877749108L162.82525291666667,103.28126551205722L162.91674625,61.85558863964559L163.00823958333334,88.83593261547017L163.4199595833333,113.7523536336847L163.60294625,142.4920940081732L164.19765291666667,98.06259911182264L164.38063958333333,115.35357771708213L165.24982625,127.298205985389L165.93602625000003,141.11967644930593L165.98177291666667,90.73212571138566L166.25625291666665,106.89414508175506L166.30199958333336,117.95106003988776L166.39349291666667,84.71016735857124L166.53073291666666,110.49798304915662L166.75946625,102.01930340516708L166.89670625,123.64475823365535L166.94245291666667,89.57396799816422L167.03394625,121.59408011447627L167.76589291666667,129.98164005837586L168.08611958333336,146.96125845483985L168.26910625,166.03860176852075L168.58933291666668,171.35761095338006L168.63507958333332,110.54060303212964L168.95530625,105.69178066814997L169.09254625,32.060598558575215L170.19046625000001,89.39296585121174L170.32770625,77.72995770393857L170.64793291666666,98.72904654558927L170.78517291666665,121.2018732286479L170.83091958333333,129.88971050885235L170.92241291666667,130.4445253585691L170.96815958333335,135.48004377126185L171.28838625,133.75462292664938L171.37987958333335,123.87218780329043L171.88309291666667,138.18007918617258L172.11182625,130.954550859011L172.52354624999998,122.17519199590491L172.61503958333333,126.69444317156437L172.70653291666667,126.88468694871285L172.88951958333334,136.6990807299949L173.02675958333336,43.54243447095971L173.62146625,72.06819071165216L173.66721291666664,71.34081733340913L173.71295958333334,108.73971346625625L173.98743958333333,117.08569199597203L174.35341291666666,120.11677862498382L174.62789291666667,60.010717422921765L174.67363958333334,96.77106130132633L174.71938624999999,112.02432983016703L174.90237291666668,122.17402632114728L175.13110625000002,130.60908116535805L175.45133291666664,123.26202204994239L175.81730624999997,81.00134901000186L176.00029291666667,105.45396020676569L176.18327958333336,127.58572121078295L176.27477291666668,109.00480885663346L176.5492529166667,52.68528011893457L176.68649291666668,78.86284923616186L176.77798625,64.9983974096962L176.86947958333332,104.40544659832348L176.96097291666666,70.51244184427993L177.09821291666665,95.24852923425162L177.32694625000002,96.73577903671338L177.87590624999999,44.46857193328898L178.10463958333332,68.7752284146426L178.3333729166667,-15.910327319677073L179.15681291666667,20.501748318746483L179.33979958333333,28.91325699345752L179.47703958333335,64.77458769653131L179.70577291666666,-25.21393410281012L179.98025291666667,45.06484821876487L180.02599958333332,69.09024681502937L180.20898625,101.65271420257902L180.30047958333333,108.24708131925831L180.57495958333334,121.10108912364586L180.62070625,115.95825558096732L180.89518625,111.8384950367544L181.21541291666668,92.27097074824178L181.4898929166667,76.43366498969554L181.62713291666668,73.14186855925652L181.90161291666666,95.86126705213505L182.40482624999999,108.15239396157335L182.49631958333333,98.2222974098472L182.81654625,121.64985240246344L182.95378625,124.56194535431555L183.09102625,73.91087439320857L183.18251958333332,111.04558908529506L183.41125291666665,126.18107583738818L184.14319958333334,143.9728123278466L184.23469291666666,146.18640019572064L184.28043958333333,99.85717534557749L184.46342625,85.86928311548097L184.50917291666667,99.19222867838418L184.69215958333334,34.99552776069564L184.78365291666668,7.07662650079203L185.05813291666666,-45.585077377970954L185.10387958333334,-2.894151879141317L185.42410625000002,50.45045741868638L185.97306625,31.08063293917548L186.20179958333333,43.27219544245942L186.33903958333332,-42.807359920179024L186.75075958333332,7.837182887056359L186.79650625000002,58.992484314238375L187.07098625,94.25657764717661L187.11673291666665,70.6082357886119L187.75718625,109.17185022683046L187.94017291666668,68.61075572312532L188.03166625,37.3492359357515L188.12315958333332,74.73641307294005L188.26039958333334,98.3217279764392L188.39763958333333,56.182469430111524L188.80935958333333,101.35366983952683L189.08383958333334,45.7835022681508L189.17533291666666,-34.039826410200995L189.67854625,6.462998485155813L189.72429291666668,53.39289519017213L189.99877291666667,101.17557226032183L190.31899958333332,97.12327933198311L191.41691958333334,89.3650325598484L191.55415958333333,57.202220557759134L191.69139958333332,95.02453567840455L191.78289291666667,45.682254991875844L192.74357291666666,16.111688465444317L192.88081291666668,55.53726775322441L193.06379958333332,82.29935287251523L193.10954625,112.96493604907064L193.15529291666664,113.9414585100333L193.42977291666665,130.1826421309543L193.56701291666667,121.36343446546982L193.65850625000002,109.6991558138978L194.07022625,97.94872678246804L194.25321291666668,36.8486355741424L194.39045291666667,9.26773207721724L194.61918625,-29.366318650617544L194.98515958333334,-10.812022062286356L195.16814625,15.57767479381284L195.25963958333332,63.69418476618123L195.35113291666667,111.07466668670949L195.9458395833333,98.9267976265286L196.03733291666668,92.82581086880771L196.17457291666668,97.06424786419754L196.72353291666667,53.29567682845044L196.90651958333333,102.91466334873526L197.13525291666667,129.26933663451126L197.22674625,99.2115642354694L197.68421291666667,117.28413062860412L197.77570625,122.75726082679535L197.86719958333333,117.40776241813248L198.46190625,114.99431310530987L198.73638624999998,102.2448092540293L199.19385291666669,77.20429881544048L199.42258625,109.80211656484684L199.74281291666665,112.01745770182418L199.88005291666664,128.12400584343797L199.97154625000002,107.49611776366068L200.8864795833333,106.00524721410413L200.93222624999999,60.027440618077165L200.9779729166667,86.86474039083674L201.20670625,100.82785270557375L201.29819958333331,64.56161346790535L201.57267958333333,13.64222199116551L201.75566625000002,0.41479162451269824L202.12163958333335,49.95143177942419L202.16738625,65.74463706753242L202.39611958333336,50.46281013155932L202.44186625,102.52463791319701L202.62485291666667,127.05949344828113L203.12806625000002,61.91747448590029L203.40254625,78.71774140385763L203.67702624999998,77.19823794685587L203.81426625,112.70775579339436L204.31747958333332,98.07472546742063L204.50046625000002,93.78715284911215L204.68345291666665,111.60119179798615L204.77494625,61.493322463711806L205.00367958333334,63.252320603061136L205.18666624999997,4.016664045767971L205.41539958333334,-790.5804911364813L205.96435958333333,-27.48881839379998L206.37607958333334,41.59989617755812L206.42182625,39.658173882310415L206.92503958333333,72.65034710755636L207.01653291666668,114.7609787168544L207.06227958333335,44.868815399553824L207.38250625,14.341348645893603L207.47399958333332,64.82212334233992L207.51974625,40.514494006386215L207.56549291666667,42.25064238223481L207.61123958333332,66.79065284408955L207.79422625,50.515126891004L207.88571958333333,-1.0264432304699154L208.89214625,8.464892269158439L209.02938625,40.505604445924796L209.66983958333333,72.86284435629275L209.89857291666667,105.30219286822931L209.94431958333334,89.02590083505903L210.03581291666666,97.05549412266132L210.40178625,81.37563848314115L210.63051958333332,115.832305427074L210.95074625,130.1885352892754L212.23165291666666,131.24113499019012L212.55187958333332,145.51659829158166L213.05509291666667,124.60077081256257L213.28382624999998,123.13329780047025L213.69554625,143.16863013078205L213.74129291666668,136.43062253918905L214.19875958333333,113.4227981956402L214.24450625,-132.33151784946926L214.38174625,-35.170257214345014L214.47323958333334,36.82767238638553L214.56473291666666,-29.38912850426586L214.61047958333333,54.67720345910222L214.65622625,87.97484534326692L214.74771958333335,100.82076492156683L215.57115958333333,-1565.3279602012274L217.03505291666667,-2.8405428134030437L217.44677291666667,35.92083613201223L217.5840129166667,83.43300836696768L217.62975958333334,82.35479894318905L218.04147958333334,97.75326347016528L218.31595958333335,89.19212066866898L219.00215958333334,119.9520946209159L219.04790625,47.04397909668248L219.32238625,80.15488354028561L219.50537291666666,83.48577320016201L219.64261291666665,90.12931689373718L219.91709291666666,64.18040151835719L220.00858624999998,87.78253275508423L220.42030625,78.09182694408142L220.60329291666667,96.83194035889412L220.87777291666666,98.10244278834287L221.10650625,129.71914608590916L221.38098625,121.40725098230313L221.56397291666667,133.48056458951754L221.79270624999998,97.72904203785492L222.11293291666667,107.15916091041585L222.29591958333333,91.21938848636638L222.70763958333333,104.82075919161493L222.84487958333332,101.97963940113935L223.39383958333335,123.6136374565074L223.71406625,137.36800569412762L223.85130625,149.40662406097442L223.9427995833333,146.98820898598785L223.98854625,81.0647746686122L224.17153291666665,95.36541531780249L224.21727958333332,73.6750728961759L224.26302625,37.82620833617052L224.81198625,81.7046607297754L225.08646625,113.54379892883276L225.13221291666667,116.29602015055761L225.22370625,112.97183387093273L225.45243958333333,120.54519651241618L225.49818625,136.208383541152L225.63542625,97.25450254371471L225.90990625,121.28158699074808L226.09289291666667,133.99325409978286L226.41311958333333,111.46041158348116L226.87058625,97.68929245269176L227.14506625,118.80634236988946L227.32805291666668,86.77565382455303L227.46529291666664,85.29097070058887L227.83126625,110.63477556354229L227.92275958333335,73.08069455234062L228.51746624999998,79.72339581851872L228.70045291666668,92.1661022360904L228.74619958333332,96.66685007189409L229.61538625,71.76940358325656L229.66113291666667,84.07247750785837L229.79837291666666,106.12276931242282L230.11859958333332,117.10367308429561L230.21009291666667,122.65265572978069L230.57606625,89.19725679792766L230.66755958333334,43.82439841233376L230.71330625000002,72.83327059181141L231.30801291666666,104.59872024957306L231.39950625,113.69835704776028L231.44525291666667,103.69885542459716L231.81122625,80.41890396098749L231.85697291666668,104.17395485085521L231.99421291666667,88.8440310003893L232.08570625000002,105.42065111890653L232.49742625000002,-53.80757084789745L232.63466625,19.251947720182713L232.72615958333333,65.56949551900193L232.81765291666667,97.16159938961248L233.36661291666667,103.41603954488026L234.14430625,83.30066327008001L234.37303958333334,97.83427768663998L234.83050624999998,102.19239132920764L235.10498625,81.12137187254346L235.42521291666668,110.78557536084602L235.69969291666666,63.67184219645946L235.79118625,63.83961102686814L235.97417291666667,91.49232766909891L236.29439958333333,116.37467935403282L236.34014625,90.23875565004406L236.38589291666668,70.0345915679458L236.84335958333332,8.777910263199987L237.57530625,-1.3880250723008192L237.80403958333335,29.96691765005331L238.03277291666666,80.14050320842827L238.26150625,90.22756017347555L238.30725291666667,87.82380325943461L238.39874625,112.32103687003392L238.53598625,120.97918935343706L238.99345291666666,129.18897055685568L239.17643958333335,78.90573938638L239.22218625000002,103.39998534008878L239.49666624999998,92.10631932815919L239.67965291666667,87.25443056911831L239.72539958333334,90.42647633681062L240.09137291666667,52.69085405844069L240.18286625,91.13869146244295L240.2286129166667,114.81802918545345L240.27435958333334,109.86986103687846L240.36585291666668,117.84870491957166L240.50309291666665,90.13413279018101L240.54883958333332,117.10943209848581L240.59458625000002,68.85174339486227L240.64033291666667,111.50782196222586L240.82331958333333,121.4226921902528L240.91481291666665,120.05026492604199L241.05205291666667,126.19149139242519L241.09779958333334,114.35349178086013L241.14354624999999,110.36411234018381L241.18929291666666,96.2663989271353L241.28078625,116.13631114859166L241.41802625,92.11148789166677L241.46377291666667,33.54039945923841L241.73825291666668,5.753689982733466L242.0127329166667,73.32288213729345L242.10422625,29.878734094258984L242.24146625,86.41555239266567L242.79042625,65.55583915654668L243.15639958333333,109.14606244940367L243.20214625,118.28471357660776L243.24789291666667,79.54962948821357L243.52237291666668,93.22596155114394L243.84259958333334,103.3905240530218L244.07133291666665,106.32031184580596L244.39155958333333,113.30472482619687L244.57454625,81.51364518569711L244.8032795833333,93.79477420682791L244.98626625,56.669982824534635L245.26074625,67.99676361996558L245.35223958333333,94.57935243677274L245.48947958333332,75.32191917289003L245.71821291666666,76.9678117417616" style="fill: none;" fill="none"></path></g></g></g></g><g opacity="0.2"><g><g><g><path stroke="rgb(255, 112, 67)" stroke-width="2px" d="M22.657466250000002,188.73295937888324L23.252172916666666,172.2477997675538L23.526652916666666,176.0944078931585L24.258599583333336,171.59370663799345L24.350092916666668,166.90417235009372L24.487332916666666,162.9077868791297L24.57882625,166.49476143289357L24.85330625,163.58955321125686L24.990546249999998,170.47069387268274L25.67674625,164.22252156995236L25.81398625,158.7838285624981L26.042719583333334,151.4213142938912L26.408692916666666,155.28446864560246L26.728919583333333,144.0406836591661L27.094892916666666,145.3351384051144L27.232132916666668,142.59516578391194L27.277879583333334,148.977838505432L27.598106249999997,146.3729885894805L27.82683958333333,162.19655466489493L28.192812916666668,161.96022592708468L28.78751958333333,135.88478300012648L29.29073291666667,141.82160189598798L29.51946625,190.48065296597778L29.65670625,112.31171465702354L30.068426249999998,164.66486421637237L30.114172916666664,171.65436102300882L30.571639583333337,161.54652082119136L30.800372916666667,144.77015999369323L30.89186625,157.1216643344611L30.937612916666666,146.59948437698185L31.120599583333334,183.6805084509775L31.486572916666667,180.90713017378002L31.85254625,131.17537675648927L31.89829291666667,153.7914756707847L32.12702625,181.76418347507715L32.630239583333335,156.31789276599883L32.90471958333333,177.47415709532797L33.13345291666666,170.403161367774L33.27069291666667,127.34520770832897L33.81965291666666,172.27892233282327L34.094132916666666,172.1261819148436L34.32286625,74.956583699584L34.46010625,190.9108960557729L34.64309291666667,105.40154907144606L34.82607958333333,89.46240255832672L34.917572916666664,134.35398303195834L35.786759583333335,159.117662582919L36.015492916666666,143.29952812045812L36.06123958333333,166.674408528395L36.28997291666666,110.99203052222728L36.51870625,133.75391755476593L36.61019958333333,77.98641817867755L36.97617291666666,134.92100551016628L37.021919583333336,158.7750506144017L37.34214625,172.4810170730576L37.525132916666664,163.24973947126418L37.936852916666666,166.85943778362125L38.302826249999995,126.17910881750286L39.03477291666666,136.54594794139265L39.21775958333334,165.45763656254857L39.49223958333334,172.26115213930606L39.67522625,145.30550767891108L39.766719583333334,106.10270519033074L41.68807958333333,145.79551499560475L41.73382625,157.23408800773322L41.82531958333333,120.67313469238579L42.09979958333333,179.47955969944596L42.51151958333333,73.5886579401791L42.60301291666667,164.02981470096856L42.64875958333333,144.3704625148326L42.785999583333336,161.70436728503554L43.06047958333333,153.7007454805076L43.472199583333335,149.35585898570716L43.609439583333334,26.812118200957745L43.65518625,147.45139042139053L44.11265291666667,161.5555501565337L44.89034625,153.1263297446072L44.98183958333333,163.4427100908011L45.622292916666666,127.98854476064444L45.851026250000004,68.5792766533792L45.942519583333336,192.75163589268922L46.079759583333335,168.75577541291713L46.445732916666664,156.98773674890398L46.72021291666666,157.58252721503376L46.81170625,180.87685243450105L46.94894625,66.96860147863626L47.22342625,162.07830375283956L47.452159583333334,68.25079182386398L47.90962625,162.60013422220945L48.18410625,162.92739096321165L48.45858625,144.90098851025104L48.64157291666667,146.55015478134155L48.916052916666665,157.92377921976149L49.00754625,133.6585305187851L49.05329291666667,166.01096049640327L49.14478625,157.32006244584917L49.236279583333335,126.80633235946298L49.28202625,105.30352452993392L49.51075958333333,146.52562597990035L49.55650625,151.26203368641436L49.96822625,148.31221453137695L50.24270625,138.0657775349915L50.33419958333333,161.30155013166367L50.56293291666667,178.26403230652213L50.79166625,120.25053212642669L50.88315958333333,181.54465235061943L51.43211958333334,82.08315661400556L51.752346249999995,162.24801487047225L51.79809291666667,142.1318055152893L51.88958625,149.47049981206655L51.98107958333333,17.587112917005985L52.02682625,164.81888217609375L52.11831958333333,120.37974517084658L52.66727958333334,154.06121006458997L52.80451958333333,123.97348657473921L52.987506249999996,147.40238227173685L53.12474625,172.8807186730206L53.26198625,128.28214033730328L53.444972916666664,116.6615464746952L53.49071958333334,118.26031166352331L53.67370625,175.3690155711025L53.90243958333334,166.4015997922048L53.94818625,119.99991964772343L54.40565291666667,127.5269318394363L54.58863958333333,139.3940418049693L54.72587958333333,73.91150510162115L55.09185291666667,152.93285222947597L55.27483958333333,96.50289388597011L55.41207958333334,145.65028734728693L55.45782625,143.97760606594383L55.50357291666667,76.79647458940744L55.82379958333333,157.58325252905487L56.09827958333333,152.4671429324895L56.18977291666666,113.5682305343449L56.235519583333335,154.11724057272076L56.41850625,89.08962412029504L56.601492916666665,166.7996199823916L56.73873291666667,151.8227014247328L56.78447958333333,-3.031537120789321L56.83022625,169.7494432585314L57.01321291666667,175.6283194547519L57.42493291666666,142.6949129462242L57.60791958333333,145.081459826231L57.65366625,119.8095906548202L57.69941291666667,130.03713651783764L57.790906250000006,133.61399788632988L57.836652916666665,142.7926242839545L58.11113291666667,128.732288351655L58.294119583333334,54.74959882199763L58.33986625,141.95161443427205L58.43135958333333,140.63756796754896L58.52285291666667,116.23808671943843L58.66009291666666,64.38902216255664L58.705839583333336,113.47171431630849L58.751586249999995,173.46956238839775L58.79733291666667,139.94645085409283L58.93457291666666,108.62529790252447L59.11755958333333,175.3854917384684L59.34629291666666,76.22622940912842L59.392039583333336,148.90350206047296L59.43778625,64.46148762702941L59.71226625,145.1923834182322L60.48995958333333,69.83741624504327L60.67294625,167.5519972829148L60.764439583333335,97.67065770216286L60.993172916666666,145.53126991018652L62.09109291666667,144.69437292069196L62.18258625,57.5094846099615L62.41131958333334,158.6203032195568L62.50281291666667,166.55124114118516L62.685799583333335,179.54020996335893L62.77729291666667,173.87595253754407L63.143266249999996,165.31901092026382L63.41774625,125.11613639295102L63.600732916666665,158.9561730645597L63.920959583333335,97.5244986847043L64.01245291666667,133.22325968407094L64.28693291666667,147.9838038817048L64.37842625,109.82003845497965L64.51566625000001,183.14606328718364L64.56141291666667,176.94107601642608L64.65290625,157.90122854746878L65.01887958333333,183.57659485414624L65.06462625,113.19485865756869L65.20186625,109.45460382141172L65.52209291666667,-47.098402583599125L65.65933291666666,115.56130280010402L66.07105291666666,167.57419766150414L66.25403958333334,184.58997393250465L66.39127958333333,112.9069089911878L66.43702625,148.87049203030764L66.84874625,117.4213623650372L66.89449291666666,162.20606616921722L67.07747958333333,123.46586566641926L67.12322625,119.75904121287167L67.16897291666668,181.58170106112956L67.21471958333333,131.65821335501968L67.39770625,69.25413189679384L67.44345291666666,135.00926303900778L67.58069291666666,127.66811256520451L67.62643958333332,161.84390369094908L67.99241291666667,-99.601840505004L68.17539958333333,148.95169423185288L68.26689291666666,121.65561374500393L68.35838625,152.05448046550154L68.40413291666667,133.77797655053436L68.81585291666667,-26.75281679034236L68.95309291666666,169.45858409386128L69.31906625,92.72962077744305L69.41055958333332,135.43233541063964L69.59354624999999,78.86378439366817L69.63929291666668,116.44727387689053L69.86802625,116.93039071038365L70.18825291666667,161.84550267867743L70.69146625,151.23604601472616L70.78295958333334,107.34908315576612L71.05743958333333,137.8601839788258L71.19467958333334,134.2787976399064L71.28617291666667,148.23300694338977L71.46915958333334,129.47683143652975L71.65214625,165.2565226446837L71.74363958333333,164.38678046911954L71.97237291666667,52.33117109388112L72.01811958333333,110.22494500726461L72.06386624999999,169.26183030232787L72.42983958333335,130.67515734806656L72.70431958333333,117.93476930111646L72.88730625,67.08992673307657L72.93305291666667,113.51953558847308L72.97879958333334,129.20103902220725L73.39051958333333,125.77610621452332L73.61925291666667,129.60298662297427L74.25970625000001,140.32949083708226L74.35119958333333,124.24678160101175L75.26613291666668,103.47481006979942L75.31187958333334,131.67572804018855L75.49486625,166.12813580073416L75.54061291666666,158.38729609027504L75.58635958333333,94.18347976393997L76.40979958333334,180.29990634173154L76.63853291666666,105.13697429783642L76.95875958333333,124.84875102750958L77.00450624999999,112.57774830088019L77.27898625,98.98875933364033L77.37047958333332,161.51794097609817L77.59921291666667,186.72281338591128L77.69070624999999,112.44900506213307L77.78219958333334,33.834081052243675L77.96518625,118.32085065767168L78.78862625,156.82168929129838L78.88011958333334,181.166104369238L78.97161291666666,140.91978105939924L79.33758625,101.18008135110139L79.47482624999999,176.78651819229125L79.84079958333332,154.27067745700478L79.97803958333333,146.17183758169412L80.11527958333333,164.1302500873804L80.70998625,39.682189098000514L81.03021291666667,155.62816858515143L81.30469291666667,134.52373948171734L81.48767958333333,109.14317211359739L81.57917291666666,143.802352065593L81.62491958333332,163.16215780321508L81.89939958333333,189.014117468521L82.35686625000001,138.68613532036542L82.58559958333333,141.63841065242886L82.63134624999999,166.85730305258184L82.76858625,153.91650991737842L83.04306625,157.67114740088581L83.13455958333333,87.09867010116577L83.27179958333333,154.69735991433262L83.40903958333334,139.09021765217184L83.54627958333333,72.90687924474477L83.59202625,147.83870810866355L84.41546625,40.411723127961146L85.10166625,168.0132516682148L85.78786625,155.25709628351032L85.92510625,136.95627786442637L85.97085291666667,81.9924593925476L86.06234625,156.67320597209036L86.10809291666666,163.5797367453575L87.06877291666666,155.41172828748822L87.11451958333335,31.556430181860893L87.34325291666667,82.41917481869459L87.48049291666668,151.9781246803701L87.66347958333334,183.36946000568568L87.75497291666666,174.53476432934403L87.93795958333332,150.71456171795725L88.12094625,153.24021228812634L88.30393291666667,105.81494509465992L89.44759958333334,130.4442849498242L89.49334625,140.0235896486789L89.99655958333334,40.98872691616415L90.36253291666667,179.3416676133871L90.40827958333333,105.73414676114916L90.54551958333333,101.49433189295232L90.63701291666666,159.42172575965523L90.68275958333334,114.99665407687425L91.09447958333334,143.35283045880496L91.41470625000001,81.79840492308139L92.10090625000001,54.350445328652846L92.14665291666667,169.11266288012266L92.28389291666667,116.09658454768359L92.60411958333334,87.8462051063776L93.15307958333334,44.169278351962554L93.38181291666666,46.54916553050278L93.42755958333333,159.85341947749257L93.51905291666667,86.06295464783906L93.83927958333334,143.79427470490336L94.15950624999999,145.12194553613662L94.20525291666667,112.11341545209288L94.61697291666667,131.0430564008653L94.79995958333333,137.86728875935077L94.89145291666667,101.25863780491053L95.07443958333334,154.83622458055615L95.48615958333333,78.62642538025975L95.80638625,90.18514501154422L95.85213291666666,107.31373233944177L96.08086625,143.9677813578397L96.44683958333333,125.52405959218741L96.85855958333335,146.88177989087998L96.90430625,130.06873713098466L97.08729291666667,180.31768477745354L97.31602625,84.65650482326745L97.45326625,184.2252316441387L97.54475958333333,74.44378668665885L97.68199958333334,168.50032063890248L97.81923958333333,136.2448766849935L98.00222624999999,137.51341793909668L98.36819958333334,163.76780737414956L98.73417291666667,146.6184167213738L98.91715958333333,122.63229852765798L99.05439958333334,144.8004418540746L99.10014625,163.86164899673312L99.37462625,164.21065691616386L99.42037291666666,-8.898997863382132L99.78634625,111.45336320847272L99.96933291666666,52.437264753878104L100.01507958333333,136.24559375680982L100.06082625,144.67686647772788L100.15231958333332,108.54607383012771L100.28955958333333,-28.443144632130892L100.60978625,142.792681979388L100.65553291666667,-14.740792380273373L101.02150625,158.65699751526117L101.06725291666666,149.24809215813875L101.47897291666668,151.47633925303816L101.66195958333334,126.0947168827057L101.75345291666666,14.813841788470715L101.79919958333333,157.10774325057864L101.89069291666667,20.556499066203802L102.11942624999999,122.2283645555377L102.16517291666668,22.927501147985428L102.25666625,148.63834209032356L102.30241291666667,152.3207366488874L102.34815958333334,189.7605933504179L102.57689291666667,120.12467365935444L103.21734625,150.60531953573226L103.62906625000001,125.07693646699191L103.90354624999999,69.48529277220368L104.22377291666666,177.20356551222503L104.26951958333332,166.67140836585313L104.68123958333334,151.35899498350918L105.00146625000001,183.10160071346908L105.41318625,143.3683340460062L105.55042625,67.18565169945359L105.87065291666667,130.9305667899549L105.96214625,62.15038988962768L106.14513291666667,53.195020093023764L106.60259958333334,132.3234664298594L106.64834625,183.3155559863895L106.78558625000001,61.39810737445949L107.01431958333333,7.115292830765216L107.19730625,173.88433485981076L107.79201291666666,148.83047612607479L107.88350625,-100.50208708047874L107.92925291666667,157.44709130600094L108.20373291666667,169.08443332873284L108.24947958333334,-25.026899108290703L108.29522625,152.85314186699688L108.38671958333333,151.32032255865633L109.02717291666666,42.07628583759068L109.85061291666666,125.74463747665287L110.12509291666667,169.84743895232677L110.44531958333333,155.63041046485304L110.71979958333334,91.3607636488974L110.90278625,172.84908509105443L110.99427958333334,155.516140537709L111.08577291666667,-0.6565458118915872L111.36025291666667,142.07626129724085L111.49749291666666,127.05265064947308L111.58898625,110.42404370605945L111.72622625000001,136.62246032841503L111.86346624999999,73.08566915094852L112.00070625,146.4399400189519L112.41242625000001,115.58940871842205L112.50391958333333,80.56126646921038L113.05287958333334,113.1311793833971L113.09862625,96.84280241131782L113.14437291666667,80.72408298254012L113.78482625,165.9810701407492L113.96781291666666,126.63764739632607L114.15079958333332,5.538015069812505L114.33378624999999,137.7300230808556L114.37953291666668,157.6117046199739L114.51677291666667,89.61470201835036L114.60826625,57.14730564728378L114.69975958333333,112.82800636477768L115.06573291666668,127.66240071728826L115.15722625,63.980703337490546L115.29446625,140.4830266278237L115.43170625,162.87429467998444L115.56894625,92.20424616001546L115.66043958333333,153.16134263053536L115.79767958333333,124.66809014081954L115.93491958333333,119.96951415427029L116.66686625000001,186.30266287587582L116.98709291666665,98.42118462771177L117.21582625,105.03537263944744L117.26157291666667,-179.09315814971927L117.30731958333332,16.152672564983337L117.39881291666667,157.60666039064526L117.44455958333333,11.896859577298134L117.53605291666666,163.0335629241541L117.62754625,109.84915816448628L117.81053291666666,133.85570878386497L117.99351958333334,88.50858165174722L118.22225291666666,97.8534450776875L118.31374625000001,161.63146086260676L118.63397291666666,50.935600979626166L118.72546625,114.64234641976654L118.77121291666666,105.38686970472335L118.99994625000001,150.78483475595712L119.18293291666667,138.4956909365952L119.41166625,125.33621974512936L119.50315958333334,77.26299986466765L119.54890625,35.75560273826119L120.00637291666666,139.71322118528187L120.05211958333334,13.209513111412495L120.23510625,183.8409306038171L120.37234625,155.91170042976736L120.50958625,143.93603238500654L120.55533291666667,134.39206201806664L120.69257291666666,141.1287209507078L120.73831958333334,-111.01145865172155L120.82981291666667,47.96639615893363L121.05854624999999,182.08951978236436L121.10429291666667,46.62624662965535L121.42451958333332,129.29678047299385L121.47026625000001,-136.19060301929719L121.65325291666667,56.2204202659428L121.74474624999999,153.64957787320017L121.83623958333334,18.65045624077317L122.01922625,138.55527383498847L122.47669291666666,84.30678807422518L122.56818625,106.27115937173366L122.65967958333333,131.0266379289329L122.70542625,114.77890326865017L122.88841291666667,172.05495278108864L123.02565291666667,171.37915380522608L123.39162625,158.8483897525817L123.57461291666667,105.60949165597557L124.21506624999999,139.69783298894762L124.39805291666666,155.5323282279074L124.48954625,118.81793802827596L124.71827958333333,85.75261915326118L124.76402625,117.90895471572875L124.85551958333333,154.51111081279814L124.94701291666667,181.48469443190842L124.99275958333334,131.16988744810223L125.08425291666667,122.69395021945238L125.17574625,-108.3028064087034L125.22149291666666,103.61667489856481L125.54171958333333,175.66862383615225L125.67895958333334,163.62410041261464L125.90769291666668,93.58568913526832L126.45665291666667,65.58008669167756L126.63963958333333,117.87702441439032L126.77687958333334,96.56183389239013L127.23434625,58.978344409167754L127.50882625,148.42462172023951L127.55457291666667,136.86398165524005L127.64606625,128.1689006857574L127.78330625,150.34618461728095L127.92054625,137.68301778696477L127.96629291666666,135.87394450083374L128.01203958333335,169.7107873180881L128.46950625,119.4852598965168L128.51525291666667,161.7927113570273L128.56099958333334,172.7904294406995L128.65249291666666,144.8942051757127L129.20145291666665,156.54430613145232L129.24719958333333,183.35487130321562L129.29294625,143.37281780540943L129.33869291666667,146.61760074310004L129.70466625,147.72552615255117L130.11638625,-8.375964032113583L130.89407958333334,61.327603554725634L131.53453291666668,54.74125771075486L131.71751958333334,141.88072323091328L131.76326625000002,-251.98701945841324L131.85475958333333,44.740347752720105L132.22073291666666,73.71553844064474L132.31222625,119.84655694328248L132.49521291666667,107.20367417894303L132.95267958333335,51.580734832584845L133.31865291666668,-16.208316942304403L133.36439958333332,13.482198214530914L133.86761291666667,99.80829823985695L134.23358625,-98.05467976033695L134.50806625,128.66126527301967L134.55381291666666,173.94142449125647L134.64530625,-8.246610870212347L134.73679958333332,178.53321447260677L134.96553291666666,131.21769223585724L135.8347195833333,162.42277433853596L136.10919958333332,169.68172530401498L136.15494625,161.54230493344366L136.61241291666667,43.0838129505515L136.70390625,60.4393905982375L136.84114624999998,124.64944627359509L136.88689291666665,74.91774643063545L136.93263958333335,179.25321227163076L137.39010625,115.63299349732696L137.43585291666668,-82.25015317797669L137.57309291666667,168.39526961781084L137.84757291666665,138.76837603971362L138.07630625000002,144.68392180502414L138.16779958333333,23.683690468221872L138.25929291666665,130.93578410558402L138.35078625,127.01240396350623L138.76250625,104.17430126331746L138.94549291666667,142.65797138437628L139.12847958333333,136.3399999704212L139.21997291666668,132.33361258395016L139.35721291666664,103.57759860567748L139.76893291666667,139.9899532109499L139.81467958333334,-69.34741018116482L139.99766624999998,92.6252497382462L140.27214625,174.75856491588056L140.36363958333334,150.4425689600408L140.91259958333333,72.06259723976254L140.95834625,107.20110261105L141.00409291666668,134.48429228961467L141.04983958333332,30.408983400464027L141.18707958333334,90.4365322574973L141.37006625,-21.81316455602649L141.64454625,134.68189090713858L141.69029291666666,151.34352436512708L141.82753291666666,157.1226204302162L142.19350624999998,149.46804363504052L142.42223958333332,63.499902563542115L142.5594795833333,-62.156646975874935L142.69671958333333,96.59692095816135L142.74246625,173.31134914644062L143.01694625000002,110.1870968028903L143.10843958333334,62.187743561714875L143.38291958333335,6.4342394493519945L143.52015958333334,88.63671496734023L143.65739958333336,67.77933771014213L143.70314625,27.686764488369196L143.88613291666667,-111.1251681089402L144.75531958333335,150.94271418862044L144.93830624999998,126.76590434499086L145.02979958333333,99.68131059072911L145.25853291666667,186.6526598598808L145.48726625,165.38918093070387L146.08197291666664,182.08401398956775L146.26495958333334,133.7628768313676L146.40219958333333,-5.509407629817756L147.0883995833333,34.29294107705351L147.59161291666666,-20.227957794070274L147.63735958333334,48.570187112689005L147.77459958333333,140.2511651650071L148.04907958333334,-8.608344753831656L148.36930625,160.1815086811781L148.41505291666667,154.23620031438767L148.46079958333334,151.99851589500904L148.50654624999999,146.07083760425448L148.55229291666666,174.01508507542312L148.59803958333336,164.93426067978143L148.9640129166667,-227.90873693078768L150.01618625,45.9868328668177L150.06193291666668,95.61975812762975L150.10767958333335,139.2189938597381L150.42790625,163.14107836447656L150.93111958333333,136.51170982271432L151.02261291666665,161.67214850652962L151.57157291666667,143.2650015246123L151.61731958333334,144.78388326466083L151.75455958333333,149.94762456268072L151.84605291666668,120.54609759002923L151.89179958333332,107.28428294174373L151.98329291666667,72.09254941195249L152.85247958333335,158.48285621255636L153.08121291666666,96.15133088305592L153.21845291666668,-51.30146546065811L153.35569291666667,87.840237750113L153.76741291666667,-51.023043783009086L153.81315958333332,105.47120394408702L154.08763958333333,153.149951903522L154.17913291666665,149.91184515170752L154.22487958333332,96.5579106029123L154.49935958333333,95.04850739836692L154.63659958333335,85.47976920604705L154.68234625,58.5210668876767L154.91107958333333,81.21175775527954L155.00257291666668,84.94262472018599L155.09406625,155.28110582605004L155.23130625,155.8506504189223L155.64302625,103.62284006774425L155.87175958333333,186.61567708700895L155.96325291666665,89.91244342401623L156.00899958333332,50.37503214776515L156.05474625000002,149.6372560992837L156.55795958333334,158.20589340515434L157.01542625,152.99464403875172L157.38139958333332,115.62586399018764L158.15909291666668,85.46946645006537L158.4793195833333,163.96782095767557L158.52506625,88.6151863284409L158.66230625,79.53577134981751L159.11977291666665,152.58160243034362L159.39425291666666,151.8920595780015L159.57723958333335,-46.2343722559512L159.80597291666666,177.61101890578865L159.89746624999998,10.880661664903133L159.98895958333335,111.49313184656202L160.08045291666667,134.97833828665316L160.17194625,-48.73540336042646L160.35493291666668,164.61705118641257L160.40067958333333,-1231.7594639003278L160.53791958333332,179.88723975364118L160.81239958333333,126.68743031322957L160.90389291666665,157.7309445966035L161.04113291666667,130.62525904029607L161.40710625,62.980874443799244L161.49859958333334,168.31370063815265L161.54434625,128.538110249117L161.59009291666666,117.58862966895103L161.95606625,180.6400126799941L162.64226625,12.798424905538528L162.73375958333332,29.689241109788387L162.82525291666667,159.09146061390638L162.91674625,-0.2829266689718084L163.00823958333334,129.30644857920706L163.4199595833333,151.12698516100644L163.60294625,185.601704569906L164.19765291666667,31.41835676729676L164.38063958333333,141.29004562497138L165.24982625,145.21514838784933L165.93602625000003,161.8518821451813L165.98177291666667,15.15079960450527L166.25625291666665,131.1371741373092L166.30199958333336,134.53643247708678L166.39349291666667,34.848828336596455L166.53073291666666,149.17970658503472L166.75946625,89.30128393918275L166.89670625,156.08294047638773L166.94245291666667,38.46778264492747L167.03394625,169.62424828894436L167.76589291666667,142.56297997422516L168.08611958333336,172.43068604953586L168.26910625,194.6546167390421L168.58933291666668,179.33612473066896L168.63507958333332,19.31509115025398L168.95530625,98.41854712218046L169.09254625,-78.38617460578688L170.19046625000001,175.3915167901665L170.32770625,60.235445483028876L170.64793291666666,130.2276798080653L170.78517291666665,154.9111132532358L170.83091958333333,142.92146642915904L170.92241291666667,131.27674763314425L170.96815958333335,143.03332139030098L171.28838625,131.16649165973067L171.37987958333335,109.04853511825203L171.88309291666667,159.64191626049578L172.11182625,120.1162583682686L172.52354624999998,109.00615370124578L172.61503958333333,133.47331993505358L172.70653291666667,127.17005261443556L172.88951958333334,151.42067140191793L173.02675958333336,-96.19253491759308L173.62146625,114.85682507269084L173.66721291666664,70.24975726604461L173.71295958333334,164.83805766552686L173.98743958333333,129.6046597905457L174.35341291666666,124.66340856850147L174.62789291666667,-30.14837438017133L174.67363958333334,151.9115771189332L174.71938624999999,134.9042326234281L174.90237291666668,137.39857105761766L175.13110625000002,143.26166343167424L175.45133291666664,112.24143337681889L175.81730624999997,17.610339450091093L176.00029291666667,142.1328770019114L176.18327958333336,160.7833627168089L176.27477291666668,81.13344032540917L176.5492529166667,-31.79401298761371L176.68649291666668,118.1292029120028L176.77798625,44.20171966999768L176.86947958333332,163.51602038126438L176.96097291666666,19.672934713214605L177.09821291666665,132.3526603192091L177.32694625000002,98.96665374040603L177.87590624999999,-33.93223872184757L178.10463958333332,105.23521313667297L178.3333729166667,-142.93866092115647L179.15681291666667,75.11986177638173L179.33979958333333,41.530520005524146L179.47703958333335,118.56658375114202L179.70577291666666,-160.19671680182225L179.98025291666667,150.48302170112729L180.02599958333332,105.12834470942616L180.20898625,150.49641528390347L180.30047958333333,118.13863199427723L180.57495958333334,140.38210083022713L180.62070625,108.24400526694953L180.89518625,105.65885422043502L181.21541291666668,62.91968431547283L181.4898929166667,52.677706351876246L181.62713291666668,68.20417391359805L181.90161291666666,129.94036479145288L182.40482624999999,126.58908432573081L182.49631958333333,83.32715258225798L182.81654625,156.79118489138781L182.95378625,128.93008478209376L183.09102625,-2.065732048451932L183.18251958333332,166.74766112342476L183.41125291666665,148.8843059655279L184.14319958333334,170.66041706353425L184.23469291666666,149.50678199753165L184.28043958333333,30.363338070362776L184.46342625,64.88744477033615L184.50917291666667,119.17664702273905L184.69215958333334,-61.29952361583713L185.05813291666666,-124.57763319611557L185.10387958333334,61.14223636910318L185.42410625000002,130.46737136542797L185.97306625,2.0258962199091597L186.20179958333333,61.5595391973853L186.33903958333332,-171.92669296413666L186.75075958333332,83.80399709790944L186.79650625000002,135.72543645501136L187.07098625,147.1527176465839L187.11673291666665,35.13572300076481L187.75718625,167.01727188415825L187.94017291666668,7.769113967567651L188.03166625,-9.543043745309145L188.12315958333332,130.81717877872288L188.26039958333334,133.69970033168792L188.39763958333333,-7.02641838938001L188.80935958333333,169.11047045364975L189.08383958333334,-37.571749088913236L189.17533291666666,-153.77481942772872L189.67854625,67.21723582819104L189.72429291666668,123.78774024769663L189.99877291666667,172.84958786554634L190.31899958333332,91.04483993947505L191.41691958333334,77.72766240164637L191.55415958333333,8.958002554625242L191.69139958333332,151.7580083593726L191.78289291666667,-28.331166037917168L192.74357291666666,-28.244161324203045L192.88081291666668,114.67563668489456L193.06379958333332,122.44248055145144L193.10954625,158.9633108139038L193.15529291666664,115.40624220147728L193.42977291666665,154.54441756233572L193.56701291666667,108.13462296724319L193.65850625000002,92.20273783653974L194.07022625,80.32308323532342L194.25321291666668,-54.801501238346134L194.61918625,-87.31739474236973L194.98515958333334,17.019422820210426L195.16814625,55.16222007796167L195.25963958333332,135.86894972473382L195.35113291666667,182.14538956750184L195.9458395833333,80.70499403625726L196.03733291666668,83.67433073222637L196.17457291666668,103.42190335728228L196.72353291666667,-12.357179725170166L196.90651958333333,177.34314312916248L197.13525291666667,168.80134656317531L197.22674625,54.12490563690661L197.68421291666667,144.39298021830618L197.77570625,130.9669561240822L197.86719958333333,109.3835148051381L198.46190625,111.37413913607597L198.73638624999998,83.12055347710847L199.19385291666669,39.643533157557236L199.42258625,158.69884318895637L199.74281291666665,115.34046940729021L199.88005291666664,152.2838280558586L199.97154625000002,76.5542856439948L200.8864795833333,103.76894138976931L200.93222624999999,-8.939269275963337L200.9779729166667,127.12069004997612L201.20670625,121.7725211776793L201.29819958333331,10.16225461140272L201.57267958333333,-62.73686522394422L201.75566625000002,-19.426353925466568L202.12163958333335,124.25639201179146L202.16738625,89.43444499969482L202.39611958333336,27.54006972759959L202.44186625,180.61737958565354L202.62485291666667,163.8617767509073L203.12806625000002,-35.79555395767096L203.40254625,103.91814178079366L203.67702624999998,74.91898276135325L203.81426625,165.97203256320208L204.31747958333332,76.12517997846007L204.50046625000002,87.35579392164945L204.68345291666665,138.32225022129714L204.77494625,-13.66848153769973L205.00367958333334,65.89081781208515L205.18666624999997,-84.8368207901717L205.41539958333334,-1982.476223909855L205.64413291666668,90.61505841314792L205.8271195833333,72.59703828245401L205.87286625,-45.05003336593512L205.96435958333333,168.74826676435768L206.37607958333334,145.23296803459525L206.42182625,36.745590439438786L206.92503958333333,122.13860694542527L207.01653291666668,177.92692613080143L207.38250625,-31.44985148459676L207.47399958333332,140.54328538700938L207.51974625,4.05305000245568L207.56549291666667,44.854864946007716L207.61123958333332,103.60066853687167L207.79422625,26.101837961375683L207.88571958333333,-78.3387984126807L208.89214625,22.70189551860091L209.02938625,88.56667271107435L209.66983958333333,121.39870422184467L209.89857291666667,153.96121563613414L209.94431958333334,64.61146278530359L210.03581291666666,109.09988405406474L210.40178625,57.85585502386092L210.63051958333332,167.5173058429733L210.95074625,151.72288008257746L212.23165291666666,132.8200345415622L212.55187958333332,166.92979324366897L213.05509291666667,93.22702959403395L213.28382624999998,120.93208828233182L213.69554625,173.22162862624972L213.74129291666668,126.32361115179957L214.19875958333333,78.91106168031692L214.24450625,-500.96299191713337L214.29025291666667,-157.81643399745232L214.38174625,125.86258342713118L214.47323958333334,144.8245667874813L214.56473291666666,-128.71432984024293L214.61047958333333,180.7767014041543L214.65622625,137.92130816951394L214.74771958333335,120.08964428901672L215.57115958333333,-4064.5510478854185L215.79989291666666,133.94947210550308L216.02862625,117.50046280436217L216.16586625000002,94.78536676838993L216.30310625,81.00346075594425L216.53183958333335,-20.197807808965475L217.03505291666667,112.31832490526139L217.44677291666667,94.06290455013513L217.5840129166667,154.70126671940088L217.62975958333334,80.7374848075211L218.04147958333334,120.85096026062965L218.31595958333335,76.35040646642446L219.00215958333334,166.0920555492863L219.04790625,-62.318194189667736L219.32238625,129.82124020569026L219.50537291666666,88.48210768997669L219.64261291666665,100.0946324340999L219.91709291666666,25.257028455287188L220.00858624999998,123.18572961017489L220.42030625,63.5557682275772L220.60329291666667,124.9421104811132L220.87777291666666,100.00819643251597L221.10650625,177.14420103225856L221.38098625,108.93940832689404L221.56397291666667,151.59053500033914L221.79270624999998,44.10175821036099L222.11293291666667,121.30433921925723L222.29591958333333,67.3097298502922L222.70763958333333,125.22281524948777L222.84487958333332,97.71795971542596L223.39383958333335,156.06463453955948L223.71406625,157.99955805055797L223.85130625,167.46455161124467L223.9427995833333,143.36058637350797L223.98854625,-17.82037680745128L224.17153291666665,116.81637629158794L224.21727958333332,41.139559263736L224.26302625,-15.947088503837616L224.81198625,147.5223393201828L225.08646625,161.30250622741877L225.13221291666667,120.42435198314487L225.22370625,107.9855544514954L225.45243958333333,131.90524047464132L225.49818625,159.7031640842557L225.63542625,38.82368104755877L225.90990625,157.32221366129815L226.09289291666667,153.06075476333498L226.41311958333333,77.66114780902862L226.87058625,77.03261375650763L227.14506625,150.48191724568605L227.32805291666668,38.72962100654839L227.46529291666664,83.06394601464271L227.83126625,148.65048285797238L227.92275958333335,16.749573035538166L228.51746624999998,89.68744771778583L228.70045291666668,110.83016186244785L228.74619958333332,103.41797182559966L229.61538625,34.42323385030028L229.66113291666667,102.52708839476108L229.79837291666666,139.19820701926946L230.11859958333332,133.57502874210476L230.21009291666667,130.9761296980083L230.57606625,39.01415840014814L230.66755958333334,-24.23488916605714L230.71330625000002,116.34657886102795L231.30801291666666,152.24689473621547L231.39950625,127.34781224504114L231.44525291666667,88.69960298985242L231.81122625,45.49897676557301L231.85697291666668,139.80653118565678L231.99421291666667,65.84914522469043L232.08570625000002,130.28558129668235L232.49742625000002,-292.6499037981034L232.63466625,128.84122557230293L232.72615958333333,135.0458172172308L232.81765291666667,144.54975519552826L233.36661291666667,112.79769977778196L234.14430625,53.127598857879626L234.37303958333334,119.63469931147992L234.83050624999998,108.7295617930591L235.10498625,49.514842687547194L235.42521291666668,155.28188059329986L235.69969291666666,-6.998757550120385L235.79118625,64.0912642724812L235.97417291666667,132.9714026324451L236.29439958333333,153.69820688143372L236.34014625,51.034870094060885L236.38589291666668,39.72834544479846L236.84335958333332,-83.10711169391878L237.57530625,-16.636928075552017L237.80403958333335,76.9993317335844L238.03277291666666,155.4008815459907L238.26150625,105.35814562104642L238.30725291666667,84.21816788837313L238.39874625,149.0668872859329L238.53598625,133.96641807854175L238.99345291666666,141.50364236198365L239.17643958333335,3.480892630666463L239.22218625000002,140.14135427065193L239.49666624999998,75.16582031026482L239.67965291666667,79.976597430557L239.72539958333334,95.18454498834907L240.09137291666667,-3.9125793591142015L240.18286625,148.8104475684464L240.2286129166667,150.33703576996922L240.27435958333334,102.44760881401598L240.36585291666668,129.81697074361145L240.50309291666665,48.56227459609507L240.54883958333332,157.572381060943L240.59458625000002,-3.534789660573037L240.64033291666667,175.49193981327116L240.82331958333333,136.2949975322932L240.91481291666665,117.99162402972578L241.05205291666667,135.403331092L241.09779958333334,96.59649236351251L241.14354624999999,104.38004317916929L241.18929291666666,75.11982880756258L241.28078625,145.94117948077619L241.41802625,56.074253006279456L241.46377291666667,-54.316233189404045L241.73825291666668,-35.92637423202399L242.0127329166667,174.67667036913335L242.10422625,-35.2874879702926L242.24146625,171.22077984027564L242.79042625,34.26626930236813L243.15639958333333,174.53139738868921L243.20214625,131.99269026741385L243.24789291666667,21.44700335562226L243.52237291666668,113.74045964553952L243.84259958333334,118.63736780583858L244.07133291666665,110.7149935349822L244.39155958333333,123.7813442967832L244.57454625,33.82702572494742L244.8032795833333,112.21646773852407L244.98626625,0.9827957510947867L245.26074625,84.98693481311201L245.35223958333333,134.45323566198348L245.48947958333332,46.43576927706598L245.71821291666666,79.43665059506893" style="fill: none;" fill="none"></path></g></g></g></g></g></g><g transform="translate(61, 177)" clip-path="url(#clip_1)"><clipPath id="clip_1"><rect width="268" height="23"></rect></clipPath><g><g><line x1="0" y1="0" x2="0" y2="5" style="visibility: inherit;" fill="rgb(0, 0, 0)" stroke="rgb(204, 204, 204)" stroke-width="1px"></line><line x1="22.337239583333332" y1="0" x2="22.337239583333332" y2="5" style="visibility: inherit;" fill="rgb(0, 0, 0)" stroke="rgb(204, 204, 204)" stroke-width="1px"></line><line x1="44.674479166666664" y1="0" x2="44.674479166666664" y2="5" style="visibility: inherit;" fill="rgb(0, 0, 0)" stroke="rgb(204, 204, 204)" stroke-width="1px"></line><line x1="67.01171875" y1="0" x2="67.01171875" y2="5" style="visibility: inherit;" fill="rgb(0, 0, 0)" stroke="rgb(204, 204, 204)" stroke-width="1px"></line><line x1="89.34895833333333" y1="0" x2="89.34895833333333" y2="5" style="visibility: inherit;" fill="rgb(0, 0, 0)" stroke="rgb(204, 204, 204)" stroke-width="1px"></line><line x1="111.68619791666667" y1="0" x2="111.68619791666667" y2="5" style="visibility: inherit;" fill="rgb(0, 0, 0)" stroke="rgb(204, 204, 204)" stroke-width="1px"></line><line x1="134.0234375" y1="0" x2="134.0234375" y2="5" style="visibility: inherit;" fill="rgb(0, 0, 0)" stroke="rgb(204, 204, 204)" stroke-width="1px"></line><line x1="156.36067708333334" y1="0" x2="156.36067708333334" y2="5" style="visibility: inherit;" fill="rgb(0, 0, 0)" stroke="rgb(204, 204, 204)" stroke-width="1px"></line><line x1="178.69791666666666" y1="0" x2="178.69791666666666" y2="5" style="visibility: inherit;" fill="rgb(0, 0, 0)" stroke="rgb(204, 204, 204)" stroke-width="1px"></line><line x1="201.03515625" y1="0" x2="201.03515625" y2="5" style="visibility: inherit;" fill="rgb(0, 0, 0)" stroke="rgb(204, 204, 204)" stroke-width="1px"></line><line x1="223.37239583333334" y1="0" x2="223.37239583333334" y2="5" style="visibility: inherit;" fill="rgb(0, 0, 0)" stroke="rgb(204, 204, 204)" stroke-width="1px"></line><line x1="245.70963541666666" y1="0" x2="245.70963541666666" y2="5" style="visibility: inherit;" fill="rgb(0, 0, 0)" stroke="rgb(204, 204, 204)" stroke-width="1px"></line><line x1="268.046875" y1="0" x2="268.046875" y2="5" style="visibility: inherit;" fill="rgb(0, 0, 0)" stroke="rgb(204, 204, 204)" stroke-width="1px"></line></g><g transform="translate(0, 8)"><text x="0" y="0" dx="0em" dy="0.95em" style="text-anchor: middle; visibility: hidden; font-family: Roboto, sans-serif; font-size: 12px; font-weight: 200;" fill="rgb(33, 33, 33)" stroke="none" stroke-width="1px">-1M</text><text x="22.337239583333332" y="0" dx="0em" dy="0.95em" style="text-anchor: middle; visibility: inherit; font-family: Roboto, sans-serif; font-size: 12px; font-weight: 200;" fill="rgb(33, 33, 33)" stroke="none" stroke-width="1px">0</text><text x="44.674479166666664" y="0" dx="0em" dy="0.95em" style="text-anchor: middle; visibility: hidden; font-family: Roboto, sans-serif; font-size: 12px; font-weight: 200;" fill="rgb(33, 33, 33)" stroke="none" stroke-width="1px">1M</text><text x="67.01171875" y="0" dx="0em" dy="0.95em" style="text-anchor: middle; visibility: inherit; font-family: Roboto, sans-serif; font-size: 12px; font-weight: 200;" fill="rgb(33, 33, 33)" stroke="none" stroke-width="1px">2M</text><text x="89.34895833333333" y="0" dx="0em" dy="0.95em" style="text-anchor: middle; visibility: hidden; font-family: Roboto, sans-serif; font-size: 12px; font-weight: 200;" fill="rgb(33, 33, 33)" stroke="none" stroke-width="1px">3M</text><text x="111.68619791666667" y="0" dx="0em" dy="0.95em" style="text-anchor: middle; visibility: inherit; font-family: Roboto, sans-serif; font-size: 12px; font-weight: 200;" fill="rgb(33, 33, 33)" stroke="none" stroke-width="1px">4M</text><text x="134.0234375" y="0" dx="0em" dy="0.95em" style="text-anchor: middle; visibility: hidden; font-family: Roboto, sans-serif; font-size: 12px; font-weight: 200;" fill="rgb(33, 33, 33)" stroke="none" stroke-width="1px">5M</text><text x="156.36067708333334" y="0" dx="0em" dy="0.95em" style="text-anchor: middle; visibility: inherit; font-family: Roboto, sans-serif; font-size: 12px; font-weight: 200;" fill="rgb(33, 33, 33)" stroke="none" stroke-width="1px">6M</text><text x="178.69791666666666" y="0" dx="0em" dy="0.95em" style="text-anchor: middle; visibility: hidden; font-family: Roboto, sans-serif; font-size: 12px; font-weight: 200;" fill="rgb(33, 33, 33)" stroke="none" stroke-width="1px">7M</text><text x="201.03515625" y="0" dx="0em" dy="0.95em" style="text-anchor: middle; visibility: inherit; font-family: Roboto, sans-serif; font-size: 12px; font-weight: 200;" fill="rgb(33, 33, 33)" stroke="none" stroke-width="1px">8M</text><text x="223.37239583333334" y="0" dx="0em" dy="0.95em" style="text-anchor: middle; visibility: hidden; font-family: Roboto, sans-serif; font-size: 12px; font-weight: 200;" fill="rgb(33, 33, 33)" stroke="none" stroke-width="1px">9M</text><text x="245.70963541666666" y="0" dx="0em" dy="0.95em" style="text-anchor: middle; visibility: inherit; font-family: Roboto, sans-serif; font-size: 12px; font-weight: 200;" fill="rgb(33, 33, 33)" stroke="none" stroke-width="1px">10M</text><text x="268.046875" y="0" dx="0em" dy="0.95em" style="text-anchor: middle; visibility: hidden; font-family: Roboto, sans-serif; font-size: 12px; font-weight: 200;" fill="rgb(33, 33, 33)" stroke="none" stroke-width="1px">11M</text></g><line x1="0" y1="0" x2="268.046875" y2="0" fill="rgb(0, 0, 0)" stroke="rgb(204, 204, 204)" stroke-width="1px"></line></g></g></g></g></svg>