<svg viewBox="0 0 330 200" xmlns="http://www.w3.org/2000/svg"><g><g><g><g><g><line x1="82.734375" y1="177" x2="77.734375" y2="177" style="visibility: inherit;" fill="rgb(0, 0, 0)" stroke="rgb(204, 204, 204)" stroke-width="1px"></line><line x1="82.734375" y1="164.35714285714283" x2="77.734375" y2="164.35714285714283" style="visibility: inherit;" fill="rgb(0, 0, 0)" stroke="rgb(204, 204, 204)" stroke-width="1px"></line><line x1="82.734375" y1="151.7142857142857" x2="77.734375" y2="151.7142857142857" style="visibility: inherit;" fill="rgb(0, 0, 0)" stroke="rgb(204, 204, 204)" stroke-width="1px"></line><line x1="82.734375" y1="139.07142857142864" x2="77.734375" y2="139.07142857142864" style="visibility: inherit;" fill="rgb(0, 0, 0)" stroke="rgb(204, 204, 204)" stroke-width="1px"></line><line x1="82.734375" y1="126.42857142857147" x2="77.734375" y2="126.42857142857147" style="visibility: inherit;" fill="rgb(0, 0, 0)" stroke="rgb(204, 204, 204)" stroke-width="1px"></line><line x1="82.734375" y1="113.78571428571432" x2="77.734375" y2="113.78571428571432" style="visibility: inherit;" fill="rgb(0, 0, 0)" stroke="rgb(204, 204, 204)" stroke-width="1px"></line><line x1="82.734375" y1="101.14285714285715" x2="77.734375" y2="101.14285714285715" style="visibility: inherit;" fill="rgb(0, 0, 0)" stroke="rgb(204, 204, 204)" stroke-width="1px"></line><line x1="82.734375" y1="88.5" x2="77.734375" y2="88.5" style="visibility: inherit;" fill="rgb(0, 0, 0)" stroke="rgb(204, 204, 204)" stroke-width="1px"></line><line x1="82.734375" y1="75.85714285714285" x2="77.734375" y2="75.85714285714285" style="visibility: inherit;" fill="rgb(0, 0, 0)" stroke="rgb(204, 204, 204)" stroke-width="1px"></line><line x1="82.734375" y1="63.21428571428572" x2="77.734375" y2="63.21428571428572" style="visibility: inherit;" fill="rgb(0, 0, 0)" stroke="rgb(204, 204, 204)" stroke-width="1px"></line><line x1="82.734375" y1="50.57142857142857" x2="77.734375" y2="50.57142857142857" style="visibility: inherit;" fill="rgb(0, 0, 0)" stroke="rgb(204, 204, 204)" stroke-width="1px"></line><line x1="82.734375" y1="37.92857142857143" x2="77.734375" y2="37.92857142857143" style="visibility: inherit;" fill="rgb(0, 0, 0)" stroke="rgb(204, 204, 204)" stroke-width="1px"></line><line x1="82.734375" y1="25.285714285714274" x2="77.734375" y2="25.285714285714274" style="visibility: inherit;" fill="rgb(0, 0, 0)" stroke="rgb(204, 204, 204)" stroke-width="1px"></line><line x1="82.734375" y1="12.642857142857157" x2="77.734375" y2="12.642857142857157" style="visibility: inherit;" fill="rgb(0, 0, 0)" stroke="rgb(204, 204, 204)" stroke-width="1px"></line><line x1="82.734375" y1="0" x2="77.734375" y2="0" style="visibility: inherit;" fill="rgb(0, 0, 0)" stroke="rgb(204, 204, 204)" stroke-width="1px"></line></g><g transform="translate(72.734375, 0)"><text x="0" y="177" dx="0em" dy="0.3em" style="text-anchor: end; visibility: hidden; font-family: Roboto, sans-serif; font-size: 12px; font-weight: 200;" fill="rgb(33, 33, 33)" stroke="none" stroke-width="1px">-0.019</text><text x="0" y="164.35714285714283" dx="0em" dy="0.3em" style="text-anchor: end; visibility: inherit; font-family: Roboto, sans-serif; font-size: 12px; font-weight: 200;" fill="rgb(33, 33, 33)" stroke="none" stroke-width="1px">-0.0185</text><text x="0" y="151.7142857142857" dx="0em" dy="0.3em" style="text-anchor: end; visibility: hidden; font-family: Roboto, sans-serif; font-size: 12px; font-weight: 200;" fill="rgb(33, 33, 33)" stroke="none" stroke-width="1px">-0.018</text><text x="0" y="139.07142857142864" dx="0em" dy="0.3em" style="text-anchor: end; visibility: inherit; font-family: Roboto, sans-serif; font-size: 12px; font-weight: 200;" fill="rgb(33, 33, 33)" stroke="none" stroke-width="1px">-0.0175</text><text x="0" y="126.42857142857147" dx="0em" dy="0.3em" style="text-anchor: end; visibility: hidden; font-family: Roboto, sans-serif; font-size: 12px; font-weight: 200;" fill="rgb(33, 33, 33)" stroke="none" stroke-width="1px">-0.017</text><text x="0" y="113.78571428571432" dx="0em" dy="0.3em" style="text-anchor: end; visibility: inherit; font-family: Roboto, sans-serif; font-size: 12px; font-weight: 200;" fill="rgb(33, 33, 33)" stroke="none" stroke-width="1px">-0.0165</text><text x="0" y="101.14285714285715" dx="0em" dy="0.3em" style="text-anchor: end; visibility: hidden; font-family: Roboto, sans-serif; font-size: 12px; font-weight: 200;" fill="rgb(33, 33, 33)" stroke="none" stroke-width="1px">-0.016</text><text x="0" y="88.5" dx="0em" dy="0.3em" style="text-anchor: end; visibility: inherit; font-family: Roboto, sans-serif; font-size: 12px; font-weight: 200;" fill="rgb(33, 33, 33)" stroke="none" stroke-width="1px">-0.0155</text><text x="0" y="75.85714285714285" dx="0em" dy="0.3em" style="text-anchor: end; visibility: hidden; font-family: Roboto, sans-serif; font-size: 12px; font-weight: 200;" fill="rgb(33, 33, 33)" stroke="none" stroke-width="1px">-0.015</text><text x="0" y="63.21428571428572" dx="0em" dy="0.3em" style="text-anchor: end; visibility: inherit; font-family: Roboto, sans-serif; font-size: 12px; font-weight: 200;" fill="rgb(33, 33, 33)" stroke="none" stroke-width="1px">-0.0145</text><text x="0" y="50.57142857142857" dx="0em" dy="0.3em" style="text-anchor: end; visibility: hidden; font-family: Roboto, sans-serif; font-size: 12px; font-weight: 200;" fill="rgb(33, 33, 33)" stroke="none" stroke-width="1px">-0.014</text><text x="0" y="37.92857142857143" dx="0em" dy="0.3em" style="text-anchor: end; visibility: inherit; font-family: Roboto, sans-serif; font-size: 12px; font-weight: 200;" fill="rgb(33, 33, 33)" stroke="none" stroke-width="1px">-0.0135</text><text x="0" y="25.285714285714274" dx="0em" dy="0.3em" style="text-anchor: end; visibility: hidden; font-family: Roboto, sans-serif; font-size: 12px; font-weight: 200;" fill="rgb(33, 33, 33)" stroke="none" stroke-width="1px">-0.013</text><text x="0" y="12.642857142857157" dx="0em" dy="0.3em" style="text-anchor: end; visibility: inherit; font-family: Roboto, sans-serif; font-size: 12px; font-weight: 200;" fill="rgb(33, 33, 33)" stroke="none" stroke-width="1px">-0.0125</text><text x="0" y="0" dx="0em" dy="0.3em" style="text-anchor: end; visibility: hidden; font-family: Roboto, sans-serif; font-size: 12px; font-weight: 200;" fill="rgb(33, 33, 33)" stroke="none" stroke-width="1px">-0.012</text></g><line x1="82.734375" y1="0" x2="82.734375" y2="177" fill="rgb(0, 0, 0)" stroke="rgb(204, 204, 204)" stroke-width="1px"></line></g></g><g transform="translate(82, 0)" clip-path="url(#clip_0)"><clipPath id="clip_0"><rect width="247" height="177"></rect></clipPath><g><g><g><line x1="0" y1="0" x2="0" y2="177" fill="rgb(0, 0, 0)" stroke="rgb(66, 66, 66)" stroke-width="1px" opacity="0.25"></line><line x1="20.60546875" y1="0" x2="20.60546875" y2="177" fill="rgb(0, 0, 0)" stroke="rgb(66, 66, 66)" stroke-width="1px" opacity="0.25"></line><line x1="41.2109375" y1="0" x2="41.2109375" y2="177" fill="rgb(0, 0, 0)" stroke="rgb(66, 66, 66)" stroke-width="1px" opacity="0.25"></line><line x1="61.81640625" y1="0" x2="61.81640625" y2="177" fill="rgb(0, 0, 0)" stroke="rgb(66, 66, 66)" stroke-width="1px" opacity="0.25"></line><line x1="82.421875" y1="0" x2="82.421875" y2="177" fill="rgb(0, 0, 0)" stroke="rgb(66, 66, 66)" stroke-width="1px" opacity="0.25"></line><line x1="103.02734375" y1="0" x2="103.02734375" y2="177" fill="rgb(0, 0, 0)" stroke="rgb(66, 66, 66)" stroke-width="1px" opacity="0.25"></line><line x1="123.6328125" y1="0" x2="123.6328125" y2="177" fill="rgb(0, 0, 0)" stroke="rgb(66, 66, 66)" stroke-width="1px" opacity="0.25"></line><line x1="144.23828125" y1="0" x2="144.23828125" y2="177" fill="rgb(0, 0, 0)" stroke="rgb(66, 66, 66)" stroke-width="1px" opacity="0.25"></line><line x1="164.84375" y1="0" x2="164.84375" y2="177" fill="rgb(0, 0, 0)" stroke="rgb(66, 66, 66)" stroke-width="1px" opacity="0.25"></line><line x1="185.44921875" y1="0" x2="185.44921875" y2="177" fill="rgb(0, 0, 0)" stroke="rgb(66, 66, 66)" stroke-width="1px" opacity="0.25"></line><line x1="206.0546875" y1="0" x2="206.0546875" y2="177" fill="rgb(0, 0, 0)" stroke="rgb(66, 66, 66)" stroke-width="1px" opacity="0.25"></line><line x1="226.66015625" y1="0" x2="226.66015625" y2="177" fill="rgb(0, 0, 0)" stroke="rgb(66, 66, 66)" stroke-width="1px" opacity="0.25"></line><line x1="247.265625" y1="0" x2="247.265625" y2="177" fill="rgb(0, 0, 0)" stroke="rgb(66, 66, 66)" stroke-width="1px" opacity="0.25"></line></g><g><line x1="0" y1="177" x2="247.265625" y2="177" fill="rgb(0, 0, 0)" stroke="rgb(66, 66, 66)" stroke-width="1px" opacity="0.25"></line><line x1="0" y1="164.35714285714283" x2="247.265625" y2="164.35714285714283" fill="rgb(0, 0, 0)" stroke="rgb(66, 66, 66)" stroke-width="1px" opacity="0.25"></line><line x1="0" y1="151.7142857142857" x2="247.265625" y2="151.7142857142857" fill="rgb(0, 0, 0)" stroke="rgb(66, 66, 66)" stroke-width="1px" opacity="0.25"></line><line x1="0" y1="139.07142857142864" x2="247.265625" y2="139.07142857142864" fill="rgb(0, 0, 0)" stroke="rgb(66, 66, 66)" stroke-width="1px" opacity="0.25"></line><line x1="0" y1="126.42857142857147" x2="247.265625" y2="126.42857142857147" fill="rgb(0, 0, 0)" stroke="rgb(66, 66, 66)" stroke-width="1px" opacity="0.25"></line><line x1="0" y1="113.78571428571432" x2="247.265625" y2="113.78571428571432" fill="rgb(0, 0, 0)" stroke="rgb(66, 66, 66)" stroke-width="1px" opacity="0.25"></line><line x1="0" y1="101.14285714285715" x2="247.265625" y2="101.14285714285715" fill="rgb(0, 0, 0)" stroke="rgb(66, 66, 66)" stroke-width="1px" opacity="0.25"></line><line x1="0" y1="88.5" x2="247.265625" y2="88.5" fill="rgb(0, 0, 0)" stroke="rgb(66, 66, 66)" stroke-width="1px" opacity="0.25"></line><line x1="0" y1="75.85714285714285" x2="247.265625" y2="75.85714285714285" fill="rgb(0, 0, 0)" stroke="rgb(66, 66, 66)" stroke-width="1px" opacity="0.25"></line><line x1="0" y1="63.21428571428572" x2="247.265625" y2="63.21428571428572" fill="rgb(0, 0, 0)" stroke="rgb(66, 66, 66)" stroke-width="1px" opacity="0.25"></line><line x1="0" y1="50.57142857142857" x2="247.265625" y2="50.57142857142857" fill="rgb(0, 0, 0)" stroke="rgb(66, 66, 66)" stroke-width="1px" opacity="0.25"></line><line x1="0" y1="37.92857142857143" x2="247.265625" y2="37.92857142857143" fill="rgb(0, 0, 0)" stroke="rgb(66, 66, 66)" stroke-width="1px" opacity="0.25"></line><line x1="0" y1="25.285714285714274" x2="247.265625" y2="25.285714285714274" fill="rgb(0, 0, 0)" stroke="rgb(66, 66, 66)" stroke-width="1px" opacity="0.25"></line><line x1="0" y1="12.642857142857157" x2="247.265625" y2="12.642857142857157" fill="rgb(0, 0, 0)" stroke="rgb(66, 66, 66)" stroke-width="1px" opacity="0.25"></line><line x1="0" y1="0" x2="247.265625" y2="0" fill="rgb(0, 0, 0)" stroke="rgb(66, 66, 66)" stroke-width="1px" opacity="0.25"></line></g></g></g><g><g><line x1="0" y1="-303.42857142857144" x2="247.265625" y2="-303.42857142857144" fill="rgb(0, 0, 0)" stroke="rgb(153, 153, 153)" stroke-width="1.5px"></line></g></g><g><g><line x1="20.60546875" y1="0" x2="20.60546875" y2="177" fill="rgb(0, 0, 0)" stroke="rgb(153, 153, 153)" stroke-width="1.5px"></line></g></g><g><g><g><g><g><path stroke="rgb(255, 112, 67)" stroke-width="2px" d="M25.12086875,208.61325928890383L25.16306875,173.36939399365798L25.458468749999998,161.5574326012078L25.66946875,126.69771668534257L26.007068750000002,109.85970761923099L26.55566875,110.45882343375494L27.01986875,100.72540706305757L27.230868750000003,58.23130209162422L27.35746875,62.097788525518155L27.73726875,62.58262838963405L27.77946875,58.57374011850177L28.20146875,46.76053270931423L28.412468750000002,82.11588031799594L28.49686875,70.78886676461607L28.539068750000002,83.61707264611489L28.70786875,41.27909484477666L29.045468749999998,32.75277844954749L29.38306875,47.72041716883184L29.42526875,46.40758797168136L29.63626875,10.656042711813965L30.10046875,30.1061109422961L30.35366875,53.229877539971554L30.56466875,47.58138732937189L30.691268750000003,36.837976392831656L31.19766875,20.840542659669488L31.45086875,5.84682937326897L31.66186875,124.67482025469779L31.788468750000003,63.89166771403962L31.95726875,63.451373419280145L32.12606875,78.31245271614179L32.210468750000004,75.76153709128074L33.012268750000004,50.38707110356167L33.223268749999995,46.86530498343131L33.265468750000004,28.87611987331707L33.476468749999995,36.692998551086546L33.68746875,30.78024990549721L33.77186875,59.99448871138868L34.10946875,53.65122376182184L34.15166875,43.95355783792697L34.44706875,11.180932827696063L34.61586875,-1.7806841053897045L34.99566875,-1.042166228194916L35.33326875,22.966604276583773L36.00846875,24.095191235934337L36.17726875,33.97546681924957L36.43046875,18.878898121331L36.59926875,24.59242908630185L36.68366875,61.31330900389327L38.45606875,55.42859447852932L38.49826875,42.96221729175795L38.58266875,50.018635348674124L38.835868749999996,36.111478227238514L39.21566875,87.77394832585753L39.30006875,48.283256710769045L39.342268749999995,23.6710934331084L39.46886875,25.05723577167698L39.72206875,28.2608675777765L40.10186875,10.686238407143266L40.22846875,17.00012309068763L40.27066875,17.238908376438477L40.69266875,9.76242606793142L41.41006875,39.289855112927356L41.49446875,18.669491426610982L42.08526875,17.015313862072418L42.29626875,86.58142123462042L42.380668750000005,22.430551265724205L42.50726875,17.17376701706937L42.844868749999996,11.19552148258688L43.098068749999996,16.28392329312395L43.18246875,-7.5558709481109885L43.30906875,122.58437328891036L43.56226875,69.32402241442246L43.77326875,81.18039591524897L44.195268750000004,34.55227543447468L44.44846875,19.60892873852452L44.70166875,6.739478472252378L44.87046875,38.684346678738756L45.12366875,37.42082006890388L45.208068749999995,37.7993182723962L45.250268750000004,25.183234724374298L45.33466875,2.099098844681625L45.41906875,12.481782646986519L45.461268749999995,34.48469332917152L45.67226875,36.22885195991428L45.714468749999995,36.2255163206094L46.09426875,10.432054821031752L46.34746875,31.139313446934057L46.43186875,8.719611307313162L46.64286875,-18.71649979503575L46.85386875,14.664056642854742L46.93826875,17.49931145761965L47.444668750000005,77.74117126837963L47.74006875,49.27730170312028L47.78226875,39.52526385525083L47.86666875,37.92852596178609L47.951068750000005,144.49353934538766L47.99326875,95.5071357743968L48.07766875,83.72585212672782L48.58406875,61.12299386935169L48.710668749999996,68.35113367560687L48.87946875,55.62445887230323L49.006068750000004,42.5651868578514L49.13266875,56.657119322479176L49.30146875,52.17414613201133L49.34366875,49.42676098085933L49.512468750000004,5.829925354516846L49.72346875,-9.315394130913354L49.765668749999996,10.765710304211263L50.18766875,29.85333830758628L50.35646875,22.0570041162737L50.48306875,78.25120166251298L50.82066875,58.634551287689064L50.98946875,79.2193123985178L51.116068750000004,67.61450699543887L51.15826875,55.879142271647744L51.200468750000006,114.76118731500337L51.49586875,84.47847031270727L51.74906875,55.739404061442485L51.833468749999994,83.01068056762573L51.87566875,56.78922412904881L52.04446875,60.784185165413376L52.21326875,30.88224079180929L52.33986875,10.668476946255335L52.38206875,154.61312956722338L52.42426875,85.5832572100693L52.59306875,41.67798710616095L52.972868749999996,33.225627921105804L53.141668749999994,27.41347840126669L53.18386875,54.896400335749696L53.226068749999996,60.25168840444473L53.310468750000005,46.05263374702821L53.35266875,34.21026425165519L53.60586875,58.47865848474682L53.77466875,102.63254476456206L53.816868750000005,85.42640229981163L53.90126875,74.23315950627594L53.98566875,79.48930358058068L54.11226875,115.84222353369935L54.15446875,114.46508339225953L54.19666875,65.57401002497154L54.23886875,67.99852149303878L54.36546875,94.5148153520592L54.534268749999995,41.67778392194657L54.74526875,71.67113364672035L54.78746875,54.427027032245576L54.829668749999996,83.5219997523755L55.082868749999996,57.337008288159595L55.80026875,101.79196065958756L55.96906875,58.419642685204714L56.05346875,63.94006448204605L56.26446875,47.26781569379312L57.27726875,34.08022483221476L57.36166875,107.62839450088782L57.57266875,71.96804414862689L57.65706875,53.341261843460046L57.82586875,14.485316062596944L57.91026875,7.314064277699349L58.24786875,6.046837162071934L58.50106875,34.22914900121191L58.66986875,-3.1821525474448773L58.96526875,-3.7363941712926083L59.04966875,26.89910597838459L59.30286875,18.552245282413686L59.38726875,87.12758483401153L59.51386875,56.86599997314255L59.55606875,32.08581110403122L59.64046875,14.456691054749717L59.97806875,5.870055298527436L60.02026875,-4.853308062583871L60.146868749999996,10.573713874321793L60.442268750000004,113.0818740307017L60.56886875,94.82292280112902L60.948668749999996,55.09096318705285L61.11746875,30.90306208905476L61.244068750000004,47.9989318708337L61.28626875,26.990248035263107L61.66606875,38.490472439024884L61.708268749999995,24.35699971119491L61.87706875,33.71722956018747L61.91926875000001,23.800927841765287L61.96146875,11.286018756774354L62.00366875,25.81699265235078L62.17246875,73.02952749503842L62.214668749999994,62.348275654922496L62.34126875,54.663518214129866L62.38346875,34.07341184550728L62.72106874999999,179.3598980438194L62.88986874999999,118.49633783332254L62.97426875,103.73041629844235L63.058668749999995,78.0446048309746L63.100868750000004,55.948237725772145L63.48066875,182.73681803948062L63.60726875,105.08873058842309L63.94486875,109.13645194548099L64.02926875,95.79754919243213L64.19806874999999,77.65572105520667L64.24026875,61.73851795002046L64.45126875,61.75817767469337L64.74666875,21.70305238393182L65.21086875,16.10729949184029L65.29526874999999,35.87891559264863L65.54846875,50.92860421302711L65.67506875000001,43.91113667772461L65.75946875,39.59967737334434L65.92826875,42.13225654496655L66.09706875,25.149514352540784L66.18146875000001,20.405818717124152L66.39246875,101.1315168240321L66.43466875,87.39343226373678L66.47686875,46.872289593256724L66.81446875,45.5664422849809L67.06766875,47.44654131642378L67.23646875,84.32025163768L67.27866875,113.11759289655333L67.32086875,94.7952588391072L67.70066875,64.8743086209669L67.91166874999999,58.2289601943784L68.50246875,34.65723640555359L68.58686875,36.54829531213172L69.43086875,54.964771184839286L69.47306875,39.5157705106584L69.64186875,31.852658073031318L69.68406875,30.110483786843847L69.72626874999999,43.89217089028686L70.48586875,18.49564808554365L70.69686875,62.42174039962325L70.99226875,53.71662029519846L71.03446875,60.27443767127495L71.28766875,54.287943808316925L71.37206875,26.19905624998966L71.58306875000001,12.863986539835166L71.66746875,16.947985638547028L71.75186875,58.83730673667164L71.92066875,49.64368954823235L72.68026875,23.953625632337804L72.76466875,5.216603483564895L72.84906874999999,4.356732905392207L73.18666875000001,29.8746009148351L73.31326874999999,9.577273249543891L73.65086875,4.289557663834114L73.77746875,10.348744012428396L73.90406875000001,-3.7553991494356342L74.45266875,75.84565526311356L74.74806875,53.091447171529126L75.00126875000001,66.16907065116676L75.17006875,94.44484887721129L75.25446875,69.32131339304269L75.29666875,46.2683799231464L75.54986875,19.427877381025862L75.97186875,36.90868584318281L76.18286875,27.383185510144273L76.22506874999999,37.35946071830305L76.35166875,27.89292870488199L76.60486875,24.982475081669445L76.68926875,62.54250511672755L76.81586875,49.22285999572845L76.94246875,32.58119455960477L77.06906875,36.86649433238982L77.11126875000001,39.664414894790056L77.87086875,139.21204881970147L78.50386875,79.09304662792034L79.13686875,59.37636496870606L79.26346875,45.556245013851935L79.30566875,92.10005130030882L79.39006875000001,44.12979617170539L79.43226875,38.45337842631708L80.31846875,16.986558696711562L80.36066875,70.31182137281486L80.57166875,101.23129118685681L80.69826875000001,69.17178523832843L80.86706875,40.842942242162586L80.95146875,38.157730521931L81.12026875,24.332400151254138L81.28906875,21.836360697842437L81.45786875,39.4822985124824L82.51286875000001,33.42534562515924L82.55506875,30.85638701956098L83.01926875000001,111.53812585497273L83.35686875,44.3135009378796L83.39906875,42.0813366097573L83.52566875,55.22520258304512L83.61006875,38.895302809936L83.65226875,36.893763358987705L84.03206875,27.471000213638487L84.32746875000001,81.48375544841873L84.96046875,57.28721474645013L85.00266875,47.72752755391795L85.12926875000001,79.26524483608982L85.42466875000001,58.177660448750814L85.93106875000001,80.97543545653197L86.14206875,121.98442259910146L86.18426875,80.9988861236207L86.26866875,59.34498240754115L86.56406875,86.41286392334167L86.85946874999999,63.40564543371667L86.90166875,48.12849357260709L87.28146875,30.70760139459723L87.45026875,20.112979896954503L87.53466875,31.48632927082633L87.70346875000001,28.363589642216958L88.08326875,48.997202932782805L88.37866875,70.13904182652361L88.42086875,50.49208579427693L88.63186875,52.305207931371115L88.96946874999999,63.92376477152968L89.34926875000001,41.22231169165549L89.39146875,58.63755144974982L89.56026875,27.366161827197857L89.77126875,97.16363311049412L89.89786875,47.813276923690076L89.98226874999999,95.71557349213167L90.10886875,57.024422113586695L90.23546875,37.69016129940107L90.40426875,24.131059140976433L90.74186875,20.72490901411544L91.07946875,25.09770471592187L91.24826875,35.07473813863832L91.37486875,16.108526264433934L91.41706875,28.075885067125228L91.67026875,-4.5118008197903166L91.71246875,118.81124040832765L92.05006875,69.21650127083447L92.21886875,116.67450673032884L92.26106874999999,76.99945453919987L92.30326875,38.636956355679146L92.38766875,62.402145869557906L92.51426875,111.45779469517076L92.80966875,75.43079291399074L92.85186875,115.85573959036408L93.18946875,76.19742074633166L93.23166875,55.75490620278604L93.61146875,67.520595820719L93.78026875,61.088829690968836L93.86466874999999,76.5577590740826L93.90686875,59.741828401938044L93.99126875,114.91994419782377L94.20226875,110.35127171671658L94.24446875000001,153.6494793343322L94.32886875,96.7110796109645L94.37106874999999,73.36097410534671L94.41326875,26.811873186915193L94.62426875,45.87459435633451L95.21506875,21.95200049068367L95.59486875,13.212996392421102L95.84806875,54.220598920992906L96.14346875,47.44534418273683L96.18566874999999,42.289450927309446L96.56546875000001,25.442161978238467L96.86086875000001,23.111321437501477L97.24066875,23.954376546144907L97.36726875000001,66.04991339472383L97.66266875000001,57.478259871084475L97.74706875,112.34058150033891L97.91586875,85.05011914897409L98.33786875,62.906515040652366L98.38006875,39.27023453036328L98.50666875,89.2562252595047L98.71766875,75.0855118576811L98.88646875,31.65980713885921L99.43506875,26.874001324392463L99.51946875,48.821520242650166L99.56166875,21.539325154245947L99.81486875,13.700765411338446L99.85706875,70.02844313825612L99.89926874999999,65.60966695148447L99.98366875,46.86618874123343L100.57446875,70.43700224293516L101.33406875,45.42403461203638L101.58726875,19.77456917137731L101.88266875,7.751712816013464L102.13586875,60.9610559437424L102.30466875,42.20719084915307L102.38906875,27.313899022713287L102.47346875,97.92921656341424L102.72666875,83.4555095747518L102.85326875,53.884728364500404L102.93766875,76.47282770075724L103.06426875000001,53.44411670062223L103.19086874999999,78.73860091929176L103.31746875,51.43022989652136L103.69726875,31.36664063968916L103.78166875,71.28633814851781L104.28806875,84.33380449976443L104.33026874999999,87.18936182785158L104.37246875000001,69.74805721478533L104.96326875,45.83388958944428L105.13206875,58.12768015564752L105.30086874999999,118.86117179658486L105.46966875,109.26552934328599L105.51186875,80.13297792984687L105.63846875,77.82800546799004L105.72286875,110.07242626343229L105.80726874999999,65.89566230668204L106.14486875,52.63423358394L106.22926875,90.89952891124405L106.35586875,75.3237989092485L106.48246875000001,47.92980694100099L106.60906874999999,66.94139190424671L106.69346875000001,44.87611813150502L106.82006875,82.98781129174453L106.94666875,52.29353289618759L107.62186875,4.552708378606751L107.91726874999999,0.5910265929541959L108.12826875,17.985192288750373L108.17046875,34.12637125922596L108.21266874999999,59.75444163110725L108.29706875000001,52.03042790769512L108.33926875,76.5635151287086L108.42366874999999,40.380179503059146L108.50806875,60.36282940374703L108.67686875,52.12571911272681L108.84566875,64.76044917515426L109.05666875,104.06397918708039L109.14106875,56.156943072530524L109.43646875,100.98252828185646L109.52086874999999,82.3320303630439L109.56306875,72.98047801257246L109.77406875,63.83923602896719L109.94286875,45.66756173209164L110.15386875,61.26332089615781L110.23826875,77.85750755343304L110.28046875,104.73420155024046L110.70246875,76.89339636719963L110.74466875,66.75689546908414L110.91346875,31.191921938332744L111.04006875,17.712478231286134L111.16666875,22.24526655471884L111.20886875000001,38.08560644011491L111.33546874999999,34.530814011135746L111.37766875000001,181.5619414214299L111.46206875,173.5114210635257L111.67306875,101.80504609796678L111.71526875,126.62151821304471L112.01066875,111.94965546807548L112.05286875,142.6972331765433L112.22166875,108.40284695831352L112.30606875,76.04272596176341L112.39046875,110.02766267653121L112.55926875,57.08332032805735L112.98126875,66.9206706518977L113.06566875,70.73761464225686L113.15006874999999,61.90208565036915L113.19226875000001,72.96900512693885L113.36106875,43.34095954676177L113.48766875000001,10.114670378785418L113.82526875,7.607345035650713L113.99406875000001,19.651881681752954L114.58486875,11.558869443034226L114.75366875,22.768183648319376L114.83806875,26.82300581149707L115.04906875,158.2429940822186L115.09126875,121.97072476069614L115.17566875,72.289546092445L115.26006874999999,40.01418720063652L115.30226875000001,34.27684049022163L115.38666875,43.967260139741L115.47106875,18.91939091153673L115.51326875,43.41332239446822L115.80866875000001,35.11528636452511L115.93526875,21.89054861414322L116.14626875,48.48941365500451L116.65266875,71.28533540993173L116.82146875,100.64061696683055L116.94806875,110.83992740638149L117.37006875,167.2574788858973L117.62326875000001,112.71531819329414L117.66546875,97.54879096761792L117.74986875,87.29014309500639L117.87646875,66.51219982103356L118.00306875,56.48974210779236L118.04526874999999,42.95272643380725L118.08746875,42.51879855487479L118.50946875,74.84331552084525L118.55166875,67.70944872606962L118.59386875,31.30619521035823L118.67826875,25.447564299326707L119.18466875,11.149142200857476L119.22686875000001,9.043224570646503L119.26906875,19.843991659578474L119.31126875,30.394688127507276L119.64886874999999,19.599207994042654L120.02866875000001,73.7912256749095L120.74606875,114.96359604615272L121.33686875000001,141.23793540267266L121.50566875,106.39882097208228L121.54786875,184.10747354026023L121.63226875,175.33527131384412L121.96986874999999,164.28449042996385L122.05426875,124.1814203624422L122.22306875,87.77332073323608L122.64506875000001,123.68397306127952L122.98266875,156.32857326870754L123.02486875,177.6398852241372L123.48906875,129.05355770508172L123.82666875,236.16437749593436L124.07986875,138.53669172500102L124.12206875000001,78.53933139002467L124.20646875,145.98742392019972L124.29086874999999,71.15124440916594L124.50186875,67.0018418994099L125.30366874999999,47.15272300554898L125.55686874999999,41.45989930484559L125.59906874999999,39.1396741675284L126.02106875000001,47.94162983893177L126.10546875,73.16785556111316L126.23206875,55.06140382437626L126.27426874999999,56.88189974081605L126.31646875000001,41.09913547214837L126.73846875000001,43.79751448302509L126.78066875,204.08087735966564L126.90726874999999,133.34417585659878L127.16046874999999,102.97759724336181L127.37146875,67.62759798998596L127.45586875,91.70143956682058L127.54026875,82.1715539669878L127.62466875000001,80.05397779159212L128.00446875,65.14495692158364L128.17326875,41.35364746156106L128.34206875,38.68970747481023L128.42646875,61.13518301404513L128.55306875,68.90933729095029L128.93286875,63.219020819816734L128.97506875000002,137.36772699297126L129.14386875,114.63723039498034L129.39706875,79.56778704489189L129.48146875,53.48573492855204L129.98786875000002,74.8155275048806L130.03006875,62.47426399021453L130.07226875,43.30272709727604L130.11446875,66.82985351494571L130.24106875,76.08942668019141L130.40986875,214.0074248625967L130.66306875,120.40760513926345L130.70526875,89.89752995456423L130.83186874999998,59.60194987816143L131.16946875,39.152324879456984L131.38046875,40.57832485267318L131.50706874999997,129.14558422974315L131.63366875,97.73452075113656L131.67586875,40.51819634780596L131.92906875,44.862616294551884L132.01346875,51.316249053606235L132.26666875,65.11385184581809L132.39326875,78.37871192471482L132.51986875,103.63180825883497L132.56206875,157.45513010656873L132.73086874999998,274.06957219281566L133.53266875,181.45705554585064L133.70146875,127.45509348375694L133.78586875,136.52387727877223L133.99686875,70.57951552617982L134.20786875000002,55.47714696793812L134.75646874999998,23.514858743363963L134.92526875000001,23.552599052505876L135.05186874999998,99.37767970897646L135.68486875,122.02222794921504L136.14906875,159.29217406121256L136.19126875,150.7904664661642L136.31786875,73.60959016470476L136.57106875,130.1699123053198L136.86646875,66.18006548948895L136.90866875,33.23310556426613L136.95086874999998,22.28216711828091L136.99306875,27.0785558356071L137.03526875,8.859283750249432L137.07746875,6.6499889697308605L137.41506875000002,13.066894365546796L138.38566875,70.7333598402895L138.42786875000002,82.2240938754959L138.47006875,49.67494050506682L138.76546875,51.594641947667505L139.22966875,35.0967467808251L139.31406875,25.922711423760376L139.82046875,25.02293214304791L139.86266875,6.58184355048183L139.98926874999998,15.021477861348986L140.07366875,32.54567292775503L140.11586875,39.285674641064695L140.20026875,52.025766897348284L141.00206875,36.97091272788676L141.21306875,59.2268790587545L141.33966875000002,111.4434623240856L141.46626875,96.97272368657583L141.84606875,98.72821806389602L141.88826874999998,73.03191475240638L142.14146875,39.624649502701196L142.22586875,15.576283786132214L142.26806875,42.259070976635364L142.52126875,65.1428362785428L142.64786875000001,82.77394730117102L142.69006875,108.03732158615182L142.90106874999998,108.17009884299374L142.98546875000002,125.23933243433981L143.06986875,68.29118217167044L143.19646874999998,70.32071783922186L143.57626875,71.11618402385245L143.78726875,21.95927388411314L143.87166875,51.30117882370173L143.91386874999998,55.358039892192L143.95606875000001,25.065460399672556L144.42026875,8.380828643372784L144.84226875,19.235195713530068L145.17986875,46.748266113317875L145.89726875000002,62.68396746581093L146.19266875,45.411764948927605L146.23486875,88.19314373182763L146.36146875,80.07077763551693L146.78346875,51.57193985966238L147.03666875,64.15847784341383L147.20546875000002,75.39524077213412L147.41646875,44.012645896721054L147.50086875,93.89726700571073L147.58526875,71.28023513879796L147.66966875,36.911240837476036L147.75406875,107.62929831151538L147.92286875000002,82.07047753115263L147.96506875,100.5687480714137L148.09166875,35.16373513190658L148.34486875,22.804425623026045L148.42926874999998,13.00924474869845L148.55586875,28.58772563987351L148.89346875,80.68296690529893L148.97786875,41.788559053390514L149.02006875,31.64682701428833L149.06226875,32.484825345363554L149.39986875,11.226847279276505L150.03286875,54.64696257858982L150.11726875,77.24877889739321L150.20166875,52.010024059677065L150.28606875,93.3385622222123L150.37046875,90.26410916815726L150.75026874999998,69.42315227397313L150.91906875,25.96524652647651L151.46766875,83.70425898403248L151.63646875,78.25150670025367L152.43826875000002,70.11294173035905L153.07126875,73.33171107882876L153.11346875,110.61588017736361L153.36666874999997,69.78560748624918L153.40886875,71.53862120168276L153.49326875,91.47853908725988L153.61986875,69.58548126988654L153.83086875,54.19769725851614L153.95746875,43.52206641483883L153.99966874999998,71.29811905736585L154.08406875,65.58652259784432L154.75926875000002,41.08552816011434L155.05466875000002,9.652831898404417L155.22346875,-19.303232389781062L155.51886875,-11.78365103403603L155.56106875,74.17732055698197L155.85646875,62.261854554074574L155.98306875,124.53087276680155L156.99586875,100.72047661180169L157.12246875,116.70139520682953L157.41786875,97.87012720893664L157.54446875,72.58801855788562L157.58666875,51.565676449470466L157.67106875000002,27.542638908209913L157.71326875,30.852768776900184L158.00866875,52.47420876976479L158.09306875000001,63.122318872210336L158.55726875,35.27970711748757L158.76826875,38.67805499394174L159.14806875,56.00857663700927L159.23246874999998,66.61092893468454L159.31686875,48.09703658292107L159.48566875,42.46594297109832L159.61226875,169.20534414864568L160.16086875,161.06483839556057L160.20306875,125.21025735968466L160.24526875,91.78687286661255L160.49846875,60.84584103524965L160.83606874999998,58.81572527289553L161.08926875,141.07831361225774L161.13146874999998,108.61066742481566L161.17366875,79.48334671360465L161.34246875,91.14724575631573L161.55346875,88.46139018498936L161.84886874999998,80.73268200443603L162.18646875,116.64970446689202L162.35526875,93.3869469101454L162.52406875000003,64.68912173123509L162.60846875000001,77.54518630307012L162.86166875,116.00279523594693L162.98826875,83.43509327909314L163.07266875,75.46331551865744L163.15706874999998,46.13686578348029L163.24146875,29.979529137801496L163.36806875,25.622807228372704L163.57906875,46.796587184211496L164.08546875,99.35923437271684L164.29646875,88.85737711102551L164.50746875000002,219.61794903565777L165.26706875,161.0347232766027L165.43586875,147.79433903719294L165.56246875,128.38012443898162L165.77346874999998,152.02222977998113L166.02666875,93.89148087880935L166.06886874999998,103.88885056127266L166.23766875,49.19095101743434L166.32206875,65.12116950837756L166.57526875,57.92417934844824L166.61746875,55.170176747159935L166.87066875,70.0311973179253L167.16606875,94.94648490883708L167.41926875000001,67.28093425356029L167.54586875,75.22769038247952L167.79906875,51.615110701386605L168.26326875,45.89227158490682L168.34766875,51.13886256911672L168.64306875,46.86347306480427L168.76966875000002,35.80554690869617L168.89626875,73.51008509515333L168.98066874999998,35.85168654231536L169.19166875,33.224410536509026L169.86686875,21.93695679931547L169.95126875,20.981145059126543L169.99346874999998,73.35885017900856L170.16226875,86.92008462337454L170.20446875,83.08671366871647L170.37326875000002,110.17061271915158L170.45766875,125.28558137548423L170.71086875,151.04262524564538L170.75306875,135.24192119925047L171.04846875,86.40901195664216L171.55486875,128.79900282843883L171.76586875,104.84067617788304L171.89246875,256.7832748775318L172.27226875,207.84212884045024L172.31446875,135.28127049433732L172.56766875,82.07360672243392L172.60986874999998,95.01690554620176L173.20066875,36.68082634679711L173.36946875,63.55401300916131L173.45386875,129.60407729975108L173.53826875,83.54420808700326L173.66486875,78.45483303984L173.79146875,119.1719781547274L174.17126875,82.96593770151819L174.42446875,137.54570639760016L174.50886875,243.6027889468117L174.97306875,165.79092313370455L175.01526875000002,114.23655093835886L175.26846875,71.50200407580792L175.56386874999998,45.048707602393485L176.57666875,46.54021988262477L176.70326875,79.21251920602003L176.82986875,38.525630842948765L176.91426875000002,83.77836472810453L177.80046875,67.83543481626512L177.92706875000002,33.28727157489641L178.09586875,65.68406504395455L178.13806875,59.22052747481209L178.18026874999998,52.464000950380736L178.43346875,21.91249875135691L178.56006875,32.987928432526154L178.64446875000002,50.99537167686342L179.02426875,87.27783962672677L179.19306875,119.37925849310002L179.31966875,113.31628884729328L179.53066875000002,209.55486946446226L180.03706875,184.577740380252L180.12146875,118.2229938195086L180.20586875,72.2455513030423L180.75446875,49.78636828704334L180.83886875000002,72.9607687315818L180.96546875,55.75152865776281L181.47186875,173.53294399048775L181.64066875,102.78485054259747L181.85166875000002,72.36743751840655L181.93606875,78.68800065324821L182.35806875,50.30001109101329L182.44246875000002,82.33924173951631L182.52686875,59.817538876178766L183.07546875,73.80270710348232L183.32866875,65.69994112790823L183.75066875000002,101.1521391234981L183.96166875,59.5205806007156L184.25706875,54.651174535250526L184.38366875,27.605624232485514L184.46806875000001,36.06498787671856L185.31206874999998,47.27259919097914L185.35426875,118.3492207138506L185.39646875000003,64.33752993738116L185.60746874999998,50.88108691059542L185.69186875,122.91048712081655L185.94506875,153.10065849749412L186.11386875,234.92280314470804L186.45146875,157.40624463323041L186.49366875,127.95978343643715L186.70466875000002,163.06723378139378L186.74686875,94.43892941369619L186.91566874999998,69.939534804615L187.37986875,108.20150835001026L187.63306874999998,116.04823489511425L187.88626875,126.88521197921108L188.01286875000002,94.05377899910935L188.47706875,64.59990719057961L188.64586875,55.278585993975305L188.81466875,43.64651788738024L188.89906875,101.84539849014502L189.11006875,94.95518698237625L189.27886875,127.75746937019143L189.48986875,128.39520109717978L189.70086875,141.82655964168015L189.86966875,146.42138803950783L189.91186875,189.51821628524823L189.99626875,103.67539183343963L190.37606875,64.70917087054139L190.41826875,57.48719280344346L190.88246875,64.54548654954327L190.96686875,29.729075497818666L191.00906875,92.80970911937348L191.30446875,90.29459008940775L191.38886875,56.700348659993075L191.43106875,88.85626748395704L191.47326875,128.80180735702962L191.51546875,86.66565983781604L191.68426875,97.35916056720333L191.76866875,215.1853785799363L192.69706875,162.8445942602408L192.82366875,115.08058114531177L193.41446875,99.54786084786289L193.62546875,59.325405289332046L193.66766875,109.59006628370284L193.75206875,96.2029495033468L194.08966875,114.98587790344374L194.30066875,64.49251796007114L194.59606875,50.6859605039015L195.77766874999998,47.91193521937285L196.07306875,26.68627188243515L196.53726875,37.007325537261195L196.74826875,20.466657018729453L197.12806875,2.5973921922682646L197.17026875000002,30.787093694762426L197.59226875,43.388244525048734L197.63446875,48.13381233370094L197.67666875,56.962139535282816L197.76106875,45.982646498368766L197.84546875,39.152789989795544L197.92986875,200.18244711823158L197.97206875,126.62952429428125L198.01426874999999,100.0964226412952L198.09866875,98.15000943641378L198.85826875,151.74687422182186L199.06926875,130.08823755133335L199.28026875,76.85603415603067L199.40686875,49.794901054622784L199.53346875,56.1813024329845L199.74446875,41.345029823983786L200.20866875,23.411533612101064L200.58846875,17.787196075202868L200.71506875,20.91662567530128L200.75726875,40.496928551979046L201.13706875,54.418998854867894L201.39026875000002,54.22715641963362L202.02326875,37.197775084508464L202.06546875,104.96111522496862L202.31866875,73.97504941622518L202.48746875,61.5165710968637L202.61406875,77.67909126673467L202.86726875,95.80041924916019L202.95166874999998,67.77099851635198L203.33146875,59.26019800651898L203.50026875,74.86209237970776L203.75346875,73.83120287936505L203.96446874999998,48.89833461631283L204.21766875,75.45699175657766L204.38646875,58.398329436126396L204.59746875,62.72799334784927L204.89286875,70.20808760355544L205.06166875,75.46629577212198L205.44146875,72.94471533113602L205.56806874999998,84.46478399727782L206.07446875,51.63431725174893L206.36986875,39.20410758077671L206.49646875,11.84981750780939L206.58086874999998,9.82937641470955L206.62306875000002,83.51380057139507L206.79186875,63.681073255218095L206.83406875,73.768427127867L206.87626874999998,122.91716175163504L207.38266875,95.93869017464178L207.63586875000001,80.52418911654249L207.67806875,52.31879426188933L207.76246875,60.666015926032124L207.97346875,55.8926604195324L208.01566875,29.923326249013712L208.14226875,61.3156615807016L208.39546875,46.67193341633075L208.56426875000002,38.60213721663849L208.85966875,54.37713157330044L209.28166875,84.18904215298262L209.53486875000002,58.99574775177679L209.70366875,90.08141706649671L209.83026875,76.29329977576177L210.16786875,71.44081251196323L210.25226875,102.21957241518653L210.80086874999998,103.32224551197761L210.96966875,84.55505107981661L211.01186875,96.8451814438606L211.81366875,105.72265665445957L211.85586875,87.93027543936427L211.98246875,67.96807669860958L212.27786875,68.4852240143843L212.36226875,72.2992595286062L212.69986875,71.27752661838049L212.78426875000002,79.69327116432989L212.82646875,65.92615057311944L213.37506875,36.55711136032634L213.45946875,48.1245470825148L213.50166875000002,58.0177807350941L213.83926875,68.90717296668386L213.88146875,53.0104251044814L214.00806875,104.30165627824213L214.09246875000002,85.30733440270478L214.47226875,99.83066675207716L214.59886875,76.65163842822136L214.68326875,65.31999049646105L214.76766875,53.327969998493465L215.27406875,37.12630742768072L215.99146875,67.88451080395267L216.20246875,54.637303978727914L216.62446875,57.569575648536606L216.87766875,37.961950581176964L217.17306875,12.296525093600275L217.42626875000002,132.8541709532734L217.51066875,137.8745495315345L217.67946875,103.57163101138102L217.97486874999998,80.55306027992278L218.01706875000002,115.38822999481299L218.05926875,107.54255617958096L218.48126875,155.05921203844247L219.15646875,267.0304117472406L219.36746875,248.56865481819472L219.57846874999998,153.10393297076257L219.78946875,124.54986175494561L219.83166875,96.6287497479407L219.91606875,90.12565511031504L220.04266875000002,80.7061650152248L220.46466875,65.72204384179365L220.63346875000002,58.17640608744975L220.67566875,63.87085509502898L220.92886875,57.746602570949335L221.09766875,62.96543711820403L221.13986875,68.14339504054115L221.47746874999999,91.59193120417974L221.56186875,73.51274289244064L221.60406875,64.29677198774098L221.64626875000002,58.323485657253734L221.73066875,77.94786699522837L221.85726875,133.68547415679276L221.89946874999998,85.92890771850433L221.94166875000002,112.36100409488289L221.98386875,64.4161489605247L222.15266875,35.57553643963483L222.23706875,45.80331675612263L222.36366875000002,75.06057508572795L222.40586875,88.14507410227738L222.44806875,65.29923132368185L222.49026874999998,74.5361586857334L222.57466875,54.701263623914265L222.70126875,78.62839011740412L222.74346875,102.16009561312377L222.99666875,145.46129019996545L223.24986875000002,83.41581560465872L223.33426875,162.29701599908915L223.46086875,88.39353864238204L223.96726875000002,66.3703254635153L224.30486875,29.334146168190454L224.34706875,29.76883717686002L224.38926874999999,74.41545053649843L224.64246875,53.19337634895724L224.93786875,56.04128053961598L225.14886875,48.64365842065542L225.44426875,39.46112640572383L225.61306875,82.34160091119965L225.82406874999998,75.5865558841107L225.99286875,132.075019226823L226.24606875,110.91307052241703L226.33046875,69.0177919412243L226.45706875,123.35899040113279L226.66806875,136.4684931457662" style="fill: none;" fill="none"></path></g></g></g></g><g opacity="0.2"><g><g><g><path stroke="rgb(255, 112, 67)" stroke-width="2px" d="M24.65666875,216.09327993009774L24.99426875,172.30838029299466L25.12086875,193.59060081839561L25.16306875,120.51851007342339L25.458468749999998,143.84248956825053L25.66946875,74.41345333840165L26.007068750000002,84.60423308078732L26.55566875,111.35746429860592L27.01986875,86.1256027892232L27.230868750000003,-5.5090163935508105L27.35746875,67.89747237414122L27.73726875,63.30988473977361L27.77946875,52.56042480788061L28.20146875,29.040751822292805L28.412468750000002,135.14884745223182L28.49686875,53.798356868326664L28.539068750000002,102.85937437840872L28.70786875,-22.227857817496588L29.045468749999998,19.963305553155276L29.38306875,70.17187346092292L29.42526875,44.43834426999092L29.63626875,-42.97127364150118L30.10046875,59.28121278647866L30.35366875,87.9155270787222L30.56466875,39.10865206590721L30.691268750000003,20.722860047859793L31.19766875,-3.1556078866124153L31.788468750000003,-27.283061053071727L31.95726875,62.79093197733164L32.12606875,100.60407165757248L32.210468750000004,71.935163654387L33.012268750000004,12.325372124356871L33.223268749999995,41.58265580343348L33.265468750000004,1.8923422087515962L33.476468749999995,48.41831656758275L33.68746875,21.911126937185017L33.77186875,103.81584692001343L34.10946875,44.13632633749927L34.15166875,29.407058952110145L34.44706875,-37.97800468759877L34.61586875,-21.22310950500625L34.99566875,0.06561058759689331L35.33326875,58.979760033743716L36.00846875,25.78807167495999L36.17726875,48.795880194221226L36.43046875,-3.76595492554563L36.59926875,33.16272553375789L36.68366875,116.39462888027941L38.45606875,46.601522690483506L38.49826875,24.262651511601035L38.58266875,60.60326243404832L38.835868749999996,15.250742545085286L39.21566875,165.26765347378597L39.30006875,-10.952780711863745L39.342268749999995,-13.247151483382515L39.46886875,27.136449279529696L39.72206875,33.06631528692586L40.10186875,-15.675705348806733L40.22846875,26.47095011600426L40.27066875,17.597086305064803L40.69266875,-1.4522973948291482L41.41006875,83.58099868042129L41.49446875,-12.261054102863602L42.08526875,14.534047515264573L42.29626875,190.93058229344234L42.380668750000005,-73.79575368762016L42.50726875,9.288590644087108L42.844868749999996,2.228153180863173L43.098068749999996,23.916526008929523L43.18246875,-43.31556230996339L43.56226875,-10.566503897309303L43.77326875,98.96495616648879L44.195268750000004,-35.38990528668677L44.70166875,-12.564696927155785L44.87046875,86.60164898846831L45.12366875,35.52553015415157L45.208068749999995,38.36706557763475L45.250268750000004,6.25910940234149L45.33466875,-32.527104974857394L45.41906875,28.05580835044384L45.461268749999995,67.489059352449L45.67226875,38.845089906028335L45.714468749999995,36.220512861652026L46.09426875,-28.258137428334777L46.34746875,62.20020138578755L46.43186875,-24.90994190211808L46.64286875,-59.8706664485591L46.85386875,64.73489129969052L46.93826875,21.752193679766986L47.444668750000005,168.10396098451957L47.74006875,6.581497355231203L47.78226875,24.897207083446627L47.86666875,35.53341912158898L47.951068750000005,304.34105942079003L47.99326875,22.02753041791064L48.07766875,66.05392665522439L48.58406875,27.21870648328746L48.710668749999996,79.19334338498967L48.87946875,36.53444666734764L49.006068750000004,22.97627883617366L49.13266875,77.79501801942077L49.30146875,45.44968634630952L49.34366875,45.30568325413125L49.512468750000004,-59.565328084996764L49.72346875,-32.03337335905861L49.765668749999996,40.88736695689815L50.18766875,58.48478031264884L50.35646875,10.362502829304757L50.48306875,162.5424979818719L50.82066875,29.20957572545323L50.98946875,110.09645406476089L51.116068750000004,50.20729889082057L51.15826875,38.27609518596104L51.200468750000006,203.08425488003664L51.49586875,39.05439480926309L51.74906875,12.63080468454531L51.833468749999994,123.91759532690048L51.87566875,17.457039471183506L52.04446875,66.77662671996015L52.21326875,-13.970675768596774L52.59306875,-24.179918049701627L52.972868749999996,20.547089143523152L53.141668749999994,18.695254121507915L53.18386875,96.12078323747431L53.226068749999996,68.28462050748723L53.310468750000005,24.754051760903423L53.35266875,16.446710008595673L53.60586875,94.88124983438425L53.77466875,168.8633741842849L53.816868750000005,59.61718860268593L53.90126875,57.44329531597239L53.98566875,87.37351969203779L54.11226875,170.37160346337728L54.15446875,112.3993731800999L54.19666875,-7.762600025960383L54.23886875,71.63528869513955L54.36546875,134.2892561405897L54.534268749999995,-37.57776322322232L54.74526875,116.661158233881L54.78746875,28.560867110533362L54.829668749999996,127.16445883257049L55.082868749999996,18.05952109183583L55.80026875,168.47438921672958L55.96906875,-6.638834276369634L56.05346875,72.22069717730794L56.26446875,22.25944251141378L57.27726875,14.298838539847292L57.36166875,217.9506490038974L57.57266875,18.477518620235568L57.65706875,25.4010883857097L57.82586875,-43.79860260869776L57.91026875,-3.442813399646986L58.24786875,4.145996488630772L58.50106875,76.50261675992182L58.66986875,-59.29910487043006L58.96526875,-4.567756607064185L59.04966875,72.85235620290041L59.30286875,6.0319542384573275L59.38726875,189.9905941614083L59.51386875,11.473622681839114L59.55606875,-5.084472199635858L60.02026875,-20.938353104250783L60.146868749999996,33.71424677968025L60.442268750000004,266.8441142652716L60.56886875,67.43449595677001L60.948668749999996,-4.506976234061366L61.11746875,-5.378789557942328L61.244068750000004,73.64273654350212L61.28626875,-4.522777718092731L61.66606875,55.74080904466766L61.708268749999995,3.1567906194499478L61.87706875,47.757574333676274L61.91926875000001,8.926475264132023L61.96146875,-7.4863448707120925L62.00366875,47.61345349571535L62.17246875,143.84832975906986L62.214668749999994,46.326397894748624L62.34126875,43.136382052940974L62.38346875,3.188252292573452L62.72106874999999,397.28962734128754L62.88986874999999,27.200997517577235L62.97426875,81.58153399612223L63.058668749999995,39.515887629772934L63.100868750000004,22.803687067968493L63.48066875,372.91968851004333L63.60726875,-11.383400588163314L63.94486875,115.2080339810678L64.02926875,75.78919506285872L64.19806874999999,50.44297884936843L64.24026875,37.8627132922411L64.45126875,61.78766726170268L64.74666875,-38.379635552210495L65.21086875,7.7136701537030055L65.29526874999999,65.53633974386113L65.54846875,73.50313714359488L65.67506875000001,33.38493537477085L65.75946875,33.132488416773924L65.92826875,45.931125302399906L66.09706875,-0.32459893609797374L66.18146875000001,13.290275263999192L66.39246875,222.22006398439407L66.43466875,66.7863054232938L66.47686875,-13.909424412463416L66.81446875,43.607671322567114L67.06766875,50.26668986358813L67.23646875,139.63081711956434L67.27866875,156.31360478486334L67.32086875,67.31175775293794L67.70066875,19.992883293756403L67.91166874999999,48.26093755449567L68.50246875,-0.7003492776836724L68.58686875,39.38488367199898L69.43086875,82.58948499390057L69.47306875,16.342269499387058L69.64186875,20.357989416590755L69.68406875,27.497222357562606L69.72626874999999,64.56470154545137L70.48586875,-19.599136121571064L70.69686875,128.31087887074267L70.99226875,40.65894013856138L71.03446875,70.11116373538971L71.28766875,45.308203013879904L71.37206875,-15.934275087501339L71.58306875000001,-7.138618025396574L71.66746875,23.07398428661483L71.75186875,121.67128838385855L71.92066875,35.8532637655735L72.68026875,-14.581470241504068L72.76466875,-22.88892973959446L72.84906874999999,3.0669270381331444L73.18666875000001,68.15140292899949L73.31326874999999,-20.86871824839287L73.65086875,-3.642015714730552L73.77746875,19.437523535319723L73.90406875000001,-24.911613892231692L74.45266875,195.2472368819373L74.74806875,18.960135034152426L75.00126875000001,85.78550587062325L75.17006875,136.85851621627808L75.25446875,31.636010166789802L75.29666875,11.68897971830198L75.54986875,-20.832876432154883L75.97186875,63.12989853641817L76.18286875,13.094935010586468L76.22506874999999,52.32387353054115L76.35166875,13.693130684750413L76.60486875,20.61679464685065L76.68926875,118.88255016931467L76.81586875,29.243392314229695L76.94246875,7.618696405419268L77.06906875,43.294443991567405L77.11126875000001,43.86129573839051L77.87086875,288.53349970706876L78.50386875,-11.08545665975129L79.13686875,29.801342479884624L79.26346875,24.82606508157083L79.30566875,161.9157607299941L79.39006875000001,-27.825586521199767L79.43226875,29.938751808234628L80.31846875,-15.213670897696723L80.36066875,150.29971538696972L80.57166875,147.61049590791976L80.69826875000001,21.082526315535816L80.86706875,-1.650322252086225L80.95146875,34.12991294158357L81.12026875,3.5944045952388106L81.28906875,18.09230151772499L81.45786875,65.95120523444244L82.51286875000001,24.339916294174525L82.55506875,27.002949111163616L83.01926875000001,232.5607341080904L83.35686875,-56.523436437760104L83.39906875,38.73309011757374L83.52566875,74.94100154297692L83.61006875,14.40045315027237L83.65226875,33.89145418256521L84.03206875,13.336855495614653L84.32746875000001,162.50288830058918L84.96046875,20.99240369349718L85.00266875,33.38799676511968L85.12926875000001,126.5718207593475L85.42466875000001,26.546283867742332L85.93106875000001,115.17209796820369L86.14206875,183.4979033129556L86.18426875,19.5205814103995L86.26866875,26.86412683342183L86.56406875,127.01468619704247L86.85946874999999,28.894817699279102L86.90166875,25.21276578094277L87.28146875,4.576263127582405L87.45026875,4.221047650490491L87.53466875,48.54635333163398L87.70346875000001,23.679480199302944L88.08326875,79.94762286863157L88.37866875,101.85180016713483L88.42086875,21.021651745906894L88.63186875,55.02489113701242L88.96946874999999,81.35160003176757L89.34926875000001,7.170132071844163L89.39146875,84.76041108689138L89.56026875,-19.540922606629973L89.89786875,-26.21225735651595L89.98226874999999,167.56901834479402L90.10886875,-1.0123049542307854L90.23546875,8.688770078122616L90.40426875,3.792405903339386L90.74186875,15.615683823823929L91.07946875,31.656898268631522L91.24826875,50.040288272712914L91.37486875,-12.340791546872678L91.41706875,46.02692327116216L91.67026875,-53.39332965016365L92.21886875,187.8615149195705L92.26106874999999,17.486876252506462L92.30326875,-18.906790919601917L92.38766875,98.04993014037609L92.51426875,185.0412679335901L92.80966875,21.390290242220672L92.85186875,176.49315960492407L93.18946875,16.709942480283114L93.23166875,25.09113438746759L93.61146875,85.16913024761847L93.78026875,51.44118049634355L93.86466874999999,99.76115314875331L93.90686875,34.51793239372117L93.99126875,197.68711789165226L94.20226875,103.49826299505574L94.24446875000001,218.59679076075554L94.32886875,11.303480025913032L94.37106874999999,38.33581584692001L94.41326875,-43.011778190732L94.62426875,74.46867611046348L95.21506875,-13.931890307792601L95.59486875,0.10449024502719029L95.84806875,115.73200271385056L96.14346875,37.28246207535267L96.18566874999999,34.55561104416847L96.56546875000001,0.17122855463197972L96.86086875000001,19.615060626396097L97.24066875,25.218959209110054L97.36726875000001,129.19321866759233L97.66266875000001,44.62077958562544L97.74706875,194.63406394422054L97.91586875,44.114425621926785L98.33786875,29.691108878169743L98.38006875,3.8158137649297714L98.50666875,164.23521135321687L98.71766875,53.82944175494569L98.88646875,-33.47874993937356L99.43506875,19.695292602692334L99.51946875,81.74279862003667L99.56166875,-19.383967478360464L99.81486875,1.9429257969771057L99.85706875,154.51995972863267L99.89926874999999,58.98150267132691L99.98366875,18.75097142585686L100.57446875,105.79322249548775L101.33406875,7.904583165688162L101.58726875,-18.699628989611377L101.88266875,-10.28257171703237L102.13586875,140.7750706353358L102.30466875,14.076393207269048L102.38906875,4.973961283053668L102.47346875,203.8521928744657L102.72666875,61.744949091758045L102.85326875,9.52855654912335L102.93766875,110.35497670514243L103.06426875000001,18.901050200419757L103.19086874999999,116.68032724729606L103.31746875,10.467673362365785L103.69726875,1.2712567544409095L103.78166875,131.16588441176074L104.28806875,103.90500402663436L104.33026874999999,91.47269781998226L104.37246875000001,43.58610029518604L104.96326875,9.962638151432785L105.13206875,76.56836600495237L105.30086874999999,209.961409257991L105.46966875,94.87206566333771L105.51186875,36.43415080968822L105.63846875,74.3705467752048L105.72286875,158.43905745659558L105.80726874999999,-0.3694836284433036L106.14486875,32.742090499826844L106.22926875,148.29747190220016L106.35586875,51.9602039062551L106.48246875000001,6.838818988629736L106.60906874999999,95.45876934911524L106.69346875000001,11.778207472392477L106.82006875,140.15535103210382L106.94666875,6.252115302852216L107.62186875,-67.05852839776449L107.91726874999999,-5.351496085524559L108.12826875,44.076440832444604L108.17046875,58.33813971493926L108.21266874999999,98.19654718892915L108.29706875000001,40.444407322577064L108.33926875,113.36314596022879L108.42366874999999,-13.894823935415081L108.50806875,90.3368042547788L108.67686875,39.77005367619651L108.84566875,83.71254426879543L109.05666875,163.0192742049694L109.14106875,-15.703611099294248L109.43646875,168.22090609584538L109.52086874999999,54.35628348482507L109.56306875,58.953149486865314L109.77406875,50.12737305355924L109.94286875,18.410050286778368L110.15386875,84.65695964225701L110.23826875,102.74878753934588L110.28046875,145.04924254545145L110.70246875,35.132188592638286L110.74466875,51.55214412191084L110.91346875,-22.155538357794285L111.04006875,-2.5066873292837766L111.16666875,29.044449039867942L111.20886875000001,61.846116268209045L111.33546874999999,29.198625367666992L111.37766875000001,402.10863253687114L111.46206875,161.43564052666937L111.67306875,-5.754516350371485L111.71526875,163.84622638566154L112.01066875,89.94186135062151L112.05286875,188.81859973924503L112.22166875,56.96126763096878L112.30606875,27.50254446693829L112.39046875,161.00506774868285L112.55926875,-22.333193194653322L112.98126875,81.67669613765818L113.06566875,76.46303062779563L113.15006874999999,48.648792162537575L113.19226875000001,89.56938434179341L113.36106875,-1.1011088235037836L113.48766875000001,-39.72476337317912L113.82526875,3.8463570209486173L113.99406875000001,37.71868665090629L114.58486875,-0.5806489150438934L114.75366875,39.58215495624712L114.83806875,32.90523905626365L115.04906875,355.37297648830076L115.09126875,67.56232077841248L115.17566875,-2.232221909931722L115.26006874999999,-8.398851137076129L115.30226875000001,25.670820424599295L115.38666875,58.50288961402008L115.47106875,-18.652412930769568L115.51326875,80.15421961886543L115.80866875000001,22.66823231961045L115.93526875,2.0534419885703383L116.14626875,88.38771121629647L116.65266875,105.47921804232257L116.82146875,144.6735393021788L116.94806875,126.13889306570803L117.37006875,251.88380610517095L117.62326875000001,30.902077154389445L117.66546875,74.79900012910366L117.74986875,71.90217128608909L117.87646875,35.3452849100743L118.00306875,41.45605553793055L118.04526874999999,22.647202922829564L118.08746875,41.86790673647607L118.50946875,123.33009096980095L118.55166875,57.00864853390625L118.59386875,-23.29868506320887L118.67826875,16.659617932779437L119.18466875,-10.29849094684636L119.22686875000001,5.884348125330034L119.26906875,36.04514229297638L119.31126875,46.220732829400475L119.64886874999999,3.4059877938457785L120.02866875000001,155.07925219620978L120.74606875,176.72215160301755L121.33686875000001,180.64944443745273L121.50566875,54.140149326196735L121.54786875,300.67045239252707L121.63226875,162.17696797422002L121.96986874999999,147.70831910414356L122.05426875,64.02681526115963L122.22306875,33.16117128942693L122.64506875000001,177.54995155334473L123.02486875,209.60685315728188L123.48906875,56.174066426498555L123.82666875,396.83060718221327L124.29086874999999,-41.103024857384845L124.50186875,60.777738134775845L125.30366874999999,17.379044664757583L125.55686874999999,32.92066375379051L125.59906874999999,35.659336461552556L126.02106875000001,61.14456334603685L126.10546875,111.00719414438521L126.23206875,27.901726219270913L126.27426874999999,59.61264361547572L126.31646875000001,17.424989069146758L126.73846875000001,47.84508299934012L126.78066875,444.5059216746263L126.90726874999999,27.2391236019986L127.16046874999999,57.427729323506355L127.37146875,14.602599109922139L127.45586875,127.81220193207264L127.54026875,67.87672556723867L127.62466875000001,76.87761352849859L128.00446875,42.781425616570885L128.17326875,5.66668327152729L128.34206875,34.69379749468395L128.42646875,94.8033963228975L128.55306875,80.5705687063081L128.93286875,54.68354611311641L128.97506875000002,248.590786252703L129.14386875,80.54148549799409L129.39706875,26.963622019759242L129.48146875,14.362656754042419L129.98786875000002,106.81021636937346L130.03006875,43.9623687182154L130.07226875,14.545421757868352L130.11446875,102.12054314145021L130.24106875,89.97878642805986L130.40986875,420.88442213620465L130.66306875,-19.99212444573641L130.70526875,44.132417177515364L130.83186874999998,14.158579763557228L131.16946875,8.477887381400379L131.38046875,42.71732481249741L131.50706874999997,261.99647329534804L131.63366875,50.617925533226554L131.67586875,-45.30629025718998L131.92906875,51.3792462146708L132.01346875,60.99669819218772L132.26666875,85.81025603413582L132.39326875,98.27600204305989L132.51986875,141.51145276001523L132.56206875,238.19011287816934L132.73086874999998,448.99123532218596L133.53266875,42.53828057540315L133.70146875,46.45215039061648L133.78586875,150.12705297129497L133.99686875,-28.337027102708817L134.20786875000002,32.82359413057566L134.75646874999998,-24.428573593497276L134.92526875000001,23.609209516218726L135.05186874999998,213.1153006936823L135.68486875,155.98905030957292L136.14906875,215.1970932292087L136.19126875,138.03790507359165L136.31786875,-42.1617242874844L136.90866875,-16.187334323567992L136.95086874999998,5.85575944930315L136.99306875,34.27313891159636L137.03526875,-18.469624377787113L137.07746875,3.336046798952974L137.41506875000002,22.692252459270602L138.38566875,157.2330580524036L138.42786875000002,99.4601949283055L138.47006875,0.851210449423106L138.76546875,54.47419411156859L139.22966875,10.349904030561447L139.31406875,12.16165838816336L139.82046875,23.67326322197914L139.86266875,-21.079789338367338L139.98926874999998,27.680929327649718L140.07366875,58.83196552736419L140.11586875,49.395677211029195L140.20026875,71.13590528177363L141.00206875,14.38863147369453L141.21306875,92.61082855505603L141.33966875000002,189.7683372220823L141.46626875,75.26661573031119L141.84606875,101.36145962987628L141.88826874999998,34.48745978517192L142.14146875,-10.486248371856565L142.22586875,-20.496264788721312L142.26806875,82.28325176239014L142.52126875,99.46848423140389L142.64786875000001,109.2206138351134L142.69006875,145.9323830136231L142.90106874999998,108.36926472825664L142.98546875000002,150.84318282135897L143.06986875,-17.13104322233372L143.19646874999998,73.36502134054899L143.57626875,72.30938330079827L143.78726875,-51.77609132549595L143.87166875,95.31403623308455L143.91386874999998,61.443331494927406L143.95606875000001,-20.37340883910656L144.42026875,-16.646118991076946L144.84226875,35.51674631876605L145.17986875,88.01787171299969L145.89726875000002,86.58751949455058L146.19266875,19.5034611736025L146.23486875,152.36521190617768L146.36146875,67.88722849105086L146.78346875,8.823683195880475L147.03666875,83.03828481904098L147.20546875000002,92.25038516521454L147.41646875,-3.061246416398463L147.50086875,168.7241986691952L147.58526875,37.35468733842883L147.66966875,-14.642250614506846L147.75406875,213.7063845225743L147.92286875000002,43.732246360608514L147.96506875,128.3161538818053L148.09166875,-62.94378427735399L148.34486875,4.265461359705241L148.42926874999998,-1.683526562792903L148.55586875,51.95544697663614L148.89346875,158.8258288034371L148.97786875,-16.55305272447211L149.02006875,16.43422895563499L149.06226875,33.74182284197637L149.39986875,-20.66011981985401L150.03286875,119.7771355275597L150.11726875,111.15150337559837L150.20166875,14.151891803102826L150.28606875,155.33136946601527L150.37046875,85.65242958707469L150.75026874999998,38.16171693269695L150.91906875,-39.22161209476846L151.46766875,170.31277767036644L151.63646875,70.07237827458552L152.43826875000002,57.90509427551713L153.07126875,78.15986510153328L153.11346875,166.5421338251659L153.36666874999997,8.540198449577602L153.40886875,74.1681417748332L153.49326875,121.38841591562544L153.61986875,36.74589454382658L153.83086875,31.11602124146053L153.95746875,27.508620149322923L153.99966874999998,112.96219802115645L154.08406875,57.01912790856191L154.75926875000002,4.334036503519328L155.05466875000002,-37.49621249416047L155.56106875,203.11877794350897L155.85646875,44.38865554971355L155.98306875,217.934400085892L156.99586875,65.00488237930196L157.12246875,140.67277309937137L157.41786875,69.62322521209717L157.54446875,34.66485558130911L157.58666875,20.032163286847716L157.67106875000002,-8.491917403680926L157.71326875,35.81796357993568L158.00866875,84.9063687590616L158.09306875000001,79.09448402587857L158.55726875,-6.4842105145965245L158.76826875,43.7755768086229L159.14806875,82.00435910161053L159.23246874999998,82.51445738119739L159.31686875,20.326198055275835L159.48566875,34.01930255336421L159.61226875,359.31444591496677L160.16086875,148.8540797659329L160.20306875,71.4283858058708L160.24526875,41.651796127004275L160.49846875,14.434293288205353L160.83606874999998,55.77055162936449L161.08926875,264.472196121301L161.13146874999998,59.9091981436525L161.17366875,35.792365646788056L161.34246875,108.6430943203824L161.55346875,84.43260682799986L161.84886874999998,69.13961973360607L162.18646875,170.52523816057615L162.35526875,58.492810575025416L162.52406875000003,21.642383962869644L162.60846875000001,96.82928316082274L162.86166875,173.6892086352621L162.98826875,34.58354034381253L163.07266875,63.50564887800387L163.15706874999998,2.147191180714525L163.24146875,5.743524169283245L163.36806875,19.087724364229597L163.57906875,78.55725711796966L164.08546875,178.20320515547482L164.29646875,73.10459121848855L164.50746875000002,415.7588069226061L165.26706875,73.15988463801997L165.43586875,127.93376267807824L165.56246875,99.25880254166466L165.77346874999998,187.48538779148035L166.02666875,6.695357527051656L166.06886874999998,118.88490508496761L166.23766875,-32.855898298323154L166.32206875,89.01649724479233L166.57526875,47.1286941085543L166.61746875,51.039172845227384L166.87066875,92.32272817407335L167.16606875,132.31941629520486L167.41926875000001,25.78260827064514L167.54586875,87.14782457585846L167.79906875,16.19624117974723L168.26326875,37.308012910187244L168.34766875,59.008749045431614L168.64306875,40.450388808335575L168.76966875000002,19.21865767453397L168.89626875,130.0668923748391L168.98066874999998,-20.635911286941592L169.19166875,29.283496527799542L169.86686875,5.005776193525107L169.95126875,19.54742744884321L169.99346874999998,151.92540785883156L170.16226875,107.26193628992354L170.20446875,77.33665723672935L170.37326875000002,150.79646129480432L170.45766875,147.95803435998306L170.71086875,189.6781910508871L170.75306875,111.54086512965816L171.04846875,13.159648092729693L171.55486875,192.3839891361339L171.76586875,68.90318620204926L171.89246875,484.697172927005L172.27226875,134.43040978482793L172.31446875,26.439982975167876L172.56766875,2.2621110645788027L172.60986874999998,114.4318537818534L173.20066875,-50.823292452309836L173.36946875,103.86379300270762L173.45386875,228.67917373563563L173.53826875,14.4544042678816L173.66486875,70.82077046909502L173.79146875,180.24769582705838L174.17126875,28.656877021704403L174.42446875,219.41535944172315L174.50886875,402.68841277062893L174.97306875,49.07312441404376L175.01526875000002,36.9049926453403L175.26846875,7.400183781981468L175.56386874999998,5.368762892271788L176.57666875,48.77748830297163L176.70326875,128.2209681911128L176.82986875,-22.504701701658124L176.91426875000002,151.6574655558382L177.80046875,43.92103994850601L177.92706875000002,-18.534973287156646L178.09586875,114.27925524754184L178.13806875,49.52522112109831L178.18026874999998,42.32921116373369L178.43346875,-23.914754547178745L178.56006875,49.60107295428004L178.64446875000002,78.0065365433693L179.02426875,141.70154155152187L179.19306875,167.5313867926598L179.31966875,104.2218343785831L179.53066875000002,353.9127403902156L179.86826875,216.832723445126L180.03706875,142.7453343655382L180.12146875,18.69087397839341L180.20586875,3.279387528342849L180.75446875,16.097593763044898L180.83886875000002,107.72236939838955L180.96546875,29.937668547034264L181.47186875,350.20506698957513L181.64066875,-3.3372896292380037L181.85166875000002,26.74131798212016L181.93606875,88.16884535551071L182.35806875,7.718026747660969L182.44246875000002,130.3980877122709L182.52686875,26.034984581172466L183.07546875,94.78045944443771L183.32866875,53.54579216454711L183.75066875000002,154.33043611688274L183.96166875,-2.9267571834581405L184.25706875,47.34706543705293L184.38366875,-12.96270122166192L184.46806875000001,48.75403334306819L185.31206874999998,64.08401616236993L185.35426875,224.9641529981579L185.39646875000003,-16.68000622732299L185.60746874999998,30.696422370416766L185.69186875,230.9545874361481L186.11386875,357.6560201155288L186.45146875,41.131406866014004L186.49366875,83.79009164124727L186.70466875000002,215.7284092988287L186.74686875,-8.503527137850035L186.91566874999998,33.19044289099318L187.37986875,165.59446866810322L187.63306874999998,127.81832471277033L187.88626875,143.1406776053565L188.01286875000002,44.80662952895675L188.47706875,20.419099477784965L188.64586875,41.29660419906888L188.81466875,26.198415727487628L188.89906875,189.14371939429216L189.11006875,84.61986972072295L189.27886875,176.96089295191425L189.48986875,129.3517986876624L189.70086875,161.9735974584307L189.86966875,153.3136306362493L189.91186875,254.16345865385875L189.99626875,-25.088844844273154L190.37606875,6.259839426193921L190.41826875,46.654225702796666L190.88246875,75.13292716869286L190.96686875,-22.495541079768117L191.00906875,187.43065955170565L191.30446875,86.52191154445921L191.38886875,6.30898651587111L191.43106875,137.09014571990286L191.47326875,188.72011716663837L191.51546875,23.461438558995724L191.68426875,113.39941166128432L191.76866875,391.9247055990355L192.69706875,84.33341778069735L192.82366875,43.434561472918304L193.41446875,76.24878040168967L193.62546875,-1.0082780484642357L193.66766875,184.98705777525902L193.75206875,76.12227433281285L194.08966875,143.1602705035891L194.30066875,-11.247521954987754L194.59606875,29.97612431964704L195.77766874999998,43.75089729257992L196.07306875,-5.15222312297141L196.53726875,52.48890601950032L196.74826875,-4.344345759068239L197.12806875,-24.206505047423526L197.17026875000002,73.0716459485037L197.59226875,62.28997077047825L197.63446875,55.252164046679226L197.67666875,70.20463033765554L197.76106875,29.513406942997662L197.84546875,28.908005226935657L197.92986875,441.7269328108856L197.97206875,16.300140058355662L198.01426874999999,60.296770161816056L198.09866875,95.23038962909155L198.85826875,232.14217139993397L199.06926875,97.60028254560062L199.28026875,-2.992270936923379L199.40686875,9.203201402510913L199.53346875,65.76090450052705L199.74446875,19.090620910482738L200.20866875,-3.488710705723098L200.58846875,9.350689769855562L200.71506875,25.610770075448926L200.75726875,69.86738286699567L201.13706875,75.30210430920124L201.39026875000002,53.93939276678222L202.02326875,11.653703081820694L202.06546875,206.60612543565887L202.31866875,27.49595070311001L202.48746875,42.82885361782142L202.61406875,101.92287152154105L202.86726875,122.98241122279849L202.95166874999998,25.726867417139655L203.33146875,46.49399724176952L203.50026875,98.264933939491L203.75346875,72.284868628851L203.96446874999998,11.499032221734524L204.21766875,115.29497746697494L204.38646875,32.81033595544952L204.59746875,69.2224892154336L204.89286875,81.42822898711478L205.06166875,83.35360802497183L205.44146875,69.16234466965709L205.56806874999998,101.74488699649062L206.07446875,2.3886171334556088L206.36986875,20.558793074318345L206.49646875,-29.18161760164159L206.58086874999998,6.798714775059907L206.62306875000002,194.04043680642334L206.79186875,33.93198228095258L206.83406875,88.8994579368404L206.87626874999998,196.64026368728707L207.38266875,55.47098280915192L207.63586875000001,57.40243752939361L207.67806875,10.010701979909626L207.76246875,73.18684842224631L207.97346875,48.73262715978282L208.01566875,-9.030675006764287L208.14226875,108.40416457823345L208.39546875,24.706341169774532L208.56426875000002,26.497442917100017L208.85966875,78.03962310829333L209.28166875,128.90690802250592L209.53486875000002,21.205806149968083L209.70366875,136.70992103857654L209.83026875,55.611123839659356L210.16786875,64.16208161626544L210.25226875,148.38771227002144L210.80086874999998,104.97625515716416L210.96966875,56.40425943157503L211.01186875,115.28037698992662L211.81366875,119.0388694703579L211.85586875,61.241703616721296L211.98246875,38.02477858747754L212.27786875,69.26094498804638L212.36226875,78.02031279993909L212.69986875,69.74492725304195L212.78426875000002,92.31688798325402L212.82646875,45.27546968630382L213.37506875,-7.496447458863258L213.45946875,65.4757006657975L213.50166875000002,72.85763121396303L213.83926875,85.24126131406852L213.88146875,29.165303311177667L214.00806875,181.2385030388832L214.09246875000002,56.81585158939872L214.47226875,121.61566527613573L214.59886875,41.88309594243765L214.68326875,48.32251859882048L214.76766875,35.33993925154209L215.27406875,12.823813571461596L215.99146875,114.02181586836066L216.20246875,34.76649374089071L216.62446875,61.967983153249534L216.87766875,8.550512980137555L217.17306875,-26.201613137764618L217.42626875000002,313.69063974278316L217.51066875,145.4051173989262L217.67946875,52.11725323115077L217.97486874999998,46.02520418273551L218.01706875000002,167.64098456714837L218.05926875,95.77404545673303L218.48126875,226.33419582673483L219.36746875,220.8760194246258L219.57846874999998,9.906850199614254L219.78946875,81.71875493121999L219.83166875,54.74708173743316L219.91606875,80.37101315387658L220.04266875000002,66.57692987258945L220.46466875,43.24586208164692L220.63346875000002,46.857949455933905L220.67566875,72.41252860639777L220.92886875,48.56022378482989L221.09766875,70.79368893908602L221.13986875,75.91033192404679L221.47746874999999,126.7647354496377L221.56186875,46.39396042483193L221.60406875,50.472815630691386L221.64626875000002,49.363556161522865L221.73066875,107.38443900219032L221.85726875,217.2918848991394L221.89946874999998,14.294058061071791L221.94166875000002,152.0091486594507L221.98386875,-7.5011337410126355L222.15266875,-7.6853823416999525L222.23706875,61.14498723085437L222.36366875000002,118.94646258013589L222.40586875,107.77182262710163L222.44806875,31.030467155788628L222.49026874999998,88.39154972881079L222.57466875,24.948921031185563L222.70126875,114.5190798576389L222.74346875,137.45765385670322L222.99666875,210.413082080228L223.46086875,-22.461677392678613L223.96726875000002,33.33550569521529L224.30486875,-26.220122774796838L224.34706875,30.420873689864365L224.38926874999999,141.38537057595596L224.64246875,21.360265067645486L224.93786875,60.313136825604104L225.14886875,37.54722524221454L225.44426875,25.68732838332653L225.61306875,146.66231266941344L225.82406874999998,65.45398834347725L225.99286875,216.8077142408916L226.24606875,79.17014746580806L226.33046875,6.174874069435244L226.45706875,204.8707880909954L226.66806875,156.1327472627163" style="fill: none;" fill="none"></path></g></g></g></g></g></g><g transform="translate(82, 177)" clip-path="url(#clip_1)"><clipPath id="clip_1"><rect width="247" height="23"></rect></clipPath><g><g><line x1="0" y1="0" x2="0" y2="5" style="visibility: inherit;" fill="rgb(0, 0, 0)" stroke="rgb(204, 204, 204)" stroke-width="1px"></line><line x1="20.60546875" y1="0" x2="20.60546875" y2="5" style="visibility: inherit;" fill="rgb(0, 0, 0)" stroke="rgb(204, 204, 204)" stroke-width="1px"></line><line x1="41.2109375" y1="0" x2="41.2109375" y2="5" style="visibility: inherit;" fill="rgb(0, 0, 0)" stroke="rgb(204, 204, 204)" stroke-width="1px"></line><line x1="61.81640625" y1="0" x2="61.81640625" y2="5" style="visibility: inherit;" fill="rgb(0, 0, 0)" stroke="rgb(204, 204, 204)" stroke-width="1px"></line><line x1="82.421875" y1="0" x2="82.421875" y2="5" style="visibility: inherit;" fill="rgb(0, 0, 0)" stroke="rgb(204, 204, 204)" stroke-width="1px"></line><line x1="103.02734375" y1="0" x2="103.02734375" y2="5" style="visibility: inherit;" fill="rgb(0, 0, 0)" stroke="rgb(204, 204, 204)" stroke-width="1px"></line><line x1="123.6328125" y1="0" x2="123.6328125" y2="5" style="visibility: inherit;" fill="rgb(0, 0, 0)" stroke="rgb(204, 204, 204)" stroke-width="1px"></line><line x1="144.23828125" y1="0" x2="144.23828125" y2="5" style="visibility: inherit;" fill="rgb(0, 0, 0)" stroke="rgb(204, 204, 204)" stroke-width="1px"></line><line x1="164.84375" y1="0" x2="164.84375" y2="5" style="visibility: inherit;" fill="rgb(0, 0, 0)" stroke="rgb(204, 204, 204)" stroke-width="1px"></line><line x1="185.44921875" y1="0" x2="185.44921875" y2="5" style="visibility: inherit;" fill="rgb(0, 0, 0)" stroke="rgb(204, 204, 204)" stroke-width="1px"></line><line x1="206.0546875" y1="0" x2="206.0546875" y2="5" style="visibility: inherit;" fill="rgb(0, 0, 0)" stroke="rgb(204, 204, 204)" stroke-width="1px"></line><line x1="226.66015625" y1="0" x2="226.66015625" y2="5" style="visibility: inherit;" fill="rgb(0, 0, 0)" stroke="rgb(204, 204, 204)" stroke-width="1px"></line><line x1="247.265625" y1="0" x2="247.265625" y2="5" style="visibility: inherit;" fill="rgb(0, 0, 0)" stroke="rgb(204, 204, 204)" stroke-width="1px"></line></g><g transform="translate(0, 8)"><text x="0" y="0" dx="0em" dy="0.95em" style="text-anchor: middle; visibility: hidden; font-family: Roboto, sans-serif; font-size: 12px; font-weight: 200;" fill="rgb(33, 33, 33)" stroke="none" stroke-width="1px">-1M</text><text x="20.60546875" y="0" dx="0em" dy="0.95em" style="text-anchor: middle; visibility: inherit; font-family: Roboto, sans-serif; font-size: 12px; font-weight: 200;" fill="rgb(33, 33, 33)" stroke="none" stroke-width="1px">0</text><text x="41.2109375" y="0" dx="0em" dy="0.95em" style="text-anchor: middle; visibility: hidden; font-family: Roboto, sans-serif; font-size: 12px; font-weight: 200;" fill="rgb(33, 33, 33)" stroke="none" stroke-width="1px">1M</text><text x="61.81640625" y="0" dx="0em" dy="0.95em" style="text-anchor: middle; visibility: inherit; font-family: Roboto, sans-serif; font-size: 12px; font-weight: 200;" fill="rgb(33, 33, 33)" stroke="none" stroke-width="1px">2M</text><text x="82.421875" y="0" dx="0em" dy="0.95em" style="text-anchor: middle; visibility: hidden; font-family: Roboto, sans-serif; font-size: 12px; font-weight: 200;" fill="rgb(33, 33, 33)" stroke="none" stroke-width="1px">3M</text><text x="103.02734375" y="0" dx="0em" dy="0.95em" style="text-anchor: middle; visibility: inherit; font-family: Roboto, sans-serif; font-size: 12px; font-weight: 200;" fill="rgb(33, 33, 33)" stroke="none" stroke-width="1px">4M</text><text x="123.6328125" y="0" dx="0em" dy="0.95em" style="text-anchor: middle; visibility: hidden; font-family: Roboto, sans-serif; font-size: 12px; font-weight: 200;" fill="rgb(33, 33, 33)" stroke="none" stroke-width="1px">5M</text><text x="144.23828125" y="0" dx="0em" dy="0.95em" style="text-anchor: middle; visibility: inherit; font-family: Roboto, sans-serif; font-size: 12px; font-weight: 200;" fill="rgb(33, 33, 33)" stroke="none" stroke-width="1px">6M</text><text x="164.84375" y="0" dx="0em" dy="0.95em" style="text-anchor: middle; visibility: hidden; font-family: Roboto, sans-serif; font-size: 12px; font-weight: 200;" fill="rgb(33, 33, 33)" stroke="none" stroke-width="1px">7M</text><text x="185.44921875" y="0" dx="0em" dy="0.95em" style="text-anchor: middle; visibility: inherit; font-family: Roboto, sans-serif; font-size: 12px; font-weight: 200;" fill="rgb(33, 33, 33)" stroke="none" stroke-width="1px">8M</text><text x="206.0546875" y="0" dx="0em" dy="0.95em" style="text-anchor: middle; visibility: hidden; font-family: Roboto, sans-serif; font-size: 12px; font-weight: 200;" fill="rgb(33, 33, 33)" stroke="none" stroke-width="1px">9M</text><text x="226.66015625" y="0" dx="0em" dy="0.95em" style="text-anchor: middle; visibility: inherit; font-family: Roboto, sans-serif; font-size: 12px; font-weight: 200;" fill="rgb(33, 33, 33)" stroke="none" stroke-width="1px">10M</text><text x="247.265625" y="0" dx="0em" dy="0.95em" style="text-anchor: middle; visibility: hidden; font-family: Roboto, sans-serif; font-size: 12px; font-weight: 200;" fill="rgb(33, 33, 33)" stroke="none" stroke-width="1px">11M</text></g><line x1="0" y1="0" x2="247.265625" y2="0" fill="rgb(0, 0, 0)" stroke="rgb(204, 204, 204)" stroke-width="1px"></line></g></g></g></g></svg>