<svg viewBox="0 0 330 200" xmlns="http://www.w3.org/2000/svg"><g><g><g><g><g><line x1="41.171875" y1="177" x2="36.171875" y2="177" style="visibility: inherit;" fill="rgb(0, 0, 0)" stroke="rgb(204, 204, 204)" stroke-width="1px"></line><line x1="41.171875" y1="154.875" x2="36.171875" y2="154.875" style="visibility: inherit;" fill="rgb(0, 0, 0)" stroke="rgb(204, 204, 204)" stroke-width="1px"></line><line x1="41.171875" y1="132.75" x2="36.171875" y2="132.75" style="visibility: inherit;" fill="rgb(0, 0, 0)" stroke="rgb(204, 204, 204)" stroke-width="1px"></line><line x1="41.171875" y1="110.625" x2="36.171875" y2="110.625" style="visibility: inherit;" fill="rgb(0, 0, 0)" stroke="rgb(204, 204, 204)" stroke-width="1px"></line><line x1="41.171875" y1="88.5" x2="36.171875" y2="88.5" style="visibility: inherit;" fill="rgb(0, 0, 0)" stroke="rgb(204, 204, 204)" stroke-width="1px"></line><line x1="41.171875" y1="66.375" x2="36.171875" y2="66.375" style="visibility: inherit;" fill="rgb(0, 0, 0)" stroke="rgb(204, 204, 204)" stroke-width="1px"></line><line x1="41.171875" y1="44.25" x2="36.171875" y2="44.25" style="visibility: inherit;" fill="rgb(0, 0, 0)" stroke="rgb(204, 204, 204)" stroke-width="1px"></line><line x1="41.171875" y1="22.125" x2="36.171875" y2="22.125" style="visibility: inherit;" fill="rgb(0, 0, 0)" stroke="rgb(204, 204, 204)" stroke-width="1px"></line><line x1="41.171875" y1="0" x2="36.171875" y2="0" style="visibility: inherit;" fill="rgb(0, 0, 0)" stroke="rgb(204, 204, 204)" stroke-width="1px"></line></g><g transform="translate(31.171875, 0)"><text x="0" y="177" dx="0em" dy="0.3em" style="text-anchor: end; visibility: hidden; font-family: Roboto, sans-serif; font-size: 12px; font-weight: 200;" fill="rgb(33, 33, 33)" stroke="none" stroke-width="1px">1</text><text x="0" y="154.875" dx="0em" dy="0.3em" style="text-anchor: end; visibility: inherit; font-family: Roboto, sans-serif; font-size: 12px; font-weight: 200;" fill="rgb(33, 33, 33)" stroke="none" stroke-width="1px">1.5</text><text x="0" y="132.75" dx="0em" dy="0.3em" style="text-anchor: end; visibility: hidden; font-family: Roboto, sans-serif; font-size: 12px; font-weight: 200;" fill="rgb(33, 33, 33)" stroke="none" stroke-width="1px">2</text><text x="0" y="110.625" dx="0em" dy="0.3em" style="text-anchor: end; visibility: inherit; font-family: Roboto, sans-serif; font-size: 12px; font-weight: 200;" fill="rgb(33, 33, 33)" stroke="none" stroke-width="1px">2.5</text><text x="0" y="88.5" dx="0em" dy="0.3em" style="text-anchor: end; visibility: hidden; font-family: Roboto, sans-serif; font-size: 12px; font-weight: 200;" fill="rgb(33, 33, 33)" stroke="none" stroke-width="1px">3</text><text x="0" y="66.375" dx="0em" dy="0.3em" style="text-anchor: end; visibility: inherit; font-family: Roboto, sans-serif; font-size: 12px; font-weight: 200;" fill="rgb(33, 33, 33)" stroke="none" stroke-width="1px">3.5</text><text x="0" y="44.25" dx="0em" dy="0.3em" style="text-anchor: end; visibility: hidden; font-family: Roboto, sans-serif; font-size: 12px; font-weight: 200;" fill="rgb(33, 33, 33)" stroke="none" stroke-width="1px">4</text><text x="0" y="22.125" dx="0em" dy="0.3em" style="text-anchor: end; visibility: inherit; font-family: Roboto, sans-serif; font-size: 12px; font-weight: 200;" fill="rgb(33, 33, 33)" stroke="none" stroke-width="1px">4.5</text><text x="0" y="0" dx="0em" dy="0.3em" style="text-anchor: end; visibility: hidden; font-family: Roboto, sans-serif; font-size: 12px; font-weight: 200;" fill="rgb(33, 33, 33)" stroke="none" stroke-width="1px">5</text></g><line x1="41.171875" y1="0" x2="41.171875" y2="177" fill="rgb(0, 0, 0)" stroke="rgb(204, 204, 204)" stroke-width="1px"></line></g></g><g transform="translate(41, 0)" clip-path="url(#clip_0)"><clipPath id="clip_0"><rect width="288" height="177"></rect></clipPath><g><g><g><line x1="0" y1="0" x2="0" y2="177" fill="rgb(0, 0, 0)" stroke="rgb(66, 66, 66)" stroke-width="1px" opacity="0.25"></line><line x1="24.069010416666664" y1="0" x2="24.069010416666664" y2="177" fill="rgb(0, 0, 0)" stroke="rgb(66, 66, 66)" stroke-width="1px" opacity="0.25"></line><line x1="48.13802083333333" y1="0" x2="48.13802083333333" y2="177" fill="rgb(0, 0, 0)" stroke="rgb(66, 66, 66)" stroke-width="1px" opacity="0.25"></line><line x1="72.20703125" y1="0" x2="72.20703125" y2="177" fill="rgb(0, 0, 0)" stroke="rgb(66, 66, 66)" stroke-width="1px" opacity="0.25"></line><line x1="96.27604166666666" y1="0" x2="96.27604166666666" y2="177" fill="rgb(0, 0, 0)" stroke="rgb(66, 66, 66)" stroke-width="1px" opacity="0.25"></line><line x1="120.34505208333334" y1="0" x2="120.34505208333334" y2="177" fill="rgb(0, 0, 0)" stroke="rgb(66, 66, 66)" stroke-width="1px" opacity="0.25"></line><line x1="144.4140625" y1="0" x2="144.4140625" y2="177" fill="rgb(0, 0, 0)" stroke="rgb(66, 66, 66)" stroke-width="1px" opacity="0.25"></line><line x1="168.48307291666669" y1="0" x2="168.48307291666669" y2="177" fill="rgb(0, 0, 0)" stroke="rgb(66, 66, 66)" stroke-width="1px" opacity="0.25"></line><line x1="192.55208333333331" y1="0" x2="192.55208333333331" y2="177" fill="rgb(0, 0, 0)" stroke="rgb(66, 66, 66)" stroke-width="1px" opacity="0.25"></line><line x1="216.62109375" y1="0" x2="216.62109375" y2="177" fill="rgb(0, 0, 0)" stroke="rgb(66, 66, 66)" stroke-width="1px" opacity="0.25"></line><line x1="240.69010416666669" y1="0" x2="240.69010416666669" y2="177" fill="rgb(0, 0, 0)" stroke="rgb(66, 66, 66)" stroke-width="1px" opacity="0.25"></line><line x1="264.7591145833333" y1="0" x2="264.7591145833333" y2="177" fill="rgb(0, 0, 0)" stroke="rgb(66, 66, 66)" stroke-width="1px" opacity="0.25"></line><line x1="288.828125" y1="0" x2="288.828125" y2="177" fill="rgb(0, 0, 0)" stroke="rgb(66, 66, 66)" stroke-width="1px" opacity="0.25"></line></g><g><line x1="0" y1="177" x2="288.828125" y2="177" fill="rgb(0, 0, 0)" stroke="rgb(66, 66, 66)" stroke-width="1px" opacity="0.25"></line><line x1="0" y1="154.875" x2="288.828125" y2="154.875" fill="rgb(0, 0, 0)" stroke="rgb(66, 66, 66)" stroke-width="1px" opacity="0.25"></line><line x1="0" y1="132.75" x2="288.828125" y2="132.75" fill="rgb(0, 0, 0)" stroke="rgb(66, 66, 66)" stroke-width="1px" opacity="0.25"></line><line x1="0" y1="110.625" x2="288.828125" y2="110.625" fill="rgb(0, 0, 0)" stroke="rgb(66, 66, 66)" stroke-width="1px" opacity="0.25"></line><line x1="0" y1="88.5" x2="288.828125" y2="88.5" fill="rgb(0, 0, 0)" stroke="rgb(66, 66, 66)" stroke-width="1px" opacity="0.25"></line><line x1="0" y1="66.375" x2="288.828125" y2="66.375" fill="rgb(0, 0, 0)" stroke="rgb(66, 66, 66)" stroke-width="1px" opacity="0.25"></line><line x1="0" y1="44.25" x2="288.828125" y2="44.25" fill="rgb(0, 0, 0)" stroke="rgb(66, 66, 66)" stroke-width="1px" opacity="0.25"></line><line x1="0" y1="22.125" x2="288.828125" y2="22.125" fill="rgb(0, 0, 0)" stroke="rgb(66, 66, 66)" stroke-width="1px" opacity="0.25"></line><line x1="0" y1="0" x2="288.828125" y2="0" fill="rgb(0, 0, 0)" stroke="rgb(66, 66, 66)" stroke-width="1px" opacity="0.25"></line></g></g></g><g><g><line x1="0" y1="221.25" x2="288.828125" y2="221.25" fill="rgb(0, 0, 0)" stroke="rgb(153, 153, 153)" stroke-width="1.5px"></line></g></g><g><g><line x1="24.069010416666664" y1="0" x2="24.069010416666664" y2="177" fill="rgb(0, 0, 0)" stroke="rgb(153, 153, 153)" stroke-width="1.5px"></line></g></g><g><g><g><g><g><path stroke="rgb(255, 112, 67)" stroke-width="2px" d="M29.984210416666667,-13.786060600798166L30.378557083333334,48.47610945829449L31.019370416666664,90.38871880112995L31.561597083333336,94.61499047509069L31.808063750000002,116.44989494283382L31.95594375,135.00132918122242L32.39958375,86.59200280564961L32.44887708333333,118.99442515887885L32.94181041666667,109.66734032949552L33.18827708333333,132.70739266210362L33.28686375,122.56564675571805L33.33615708333333,127.1532278952354L33.533330416666665,83.16739720172623L33.927677083333336,95.70482893867472L34.32202375,119.4519814630289L34.37131708333334,126.4470474328027L34.61778375,113.28724926769611L35.160010416666665,94.84620550959195L35.45577041666667,91.08800568453553L35.70223708333333,113.61640029136302L35.85011708333334,126.41583082537748L36.441637083333326,116.01437377410038L36.737397083333335,102.77465284881201L36.98386375,134.4880264376262L37.131743750000005,80.25942937803052L37.32891708333334,113.97179764063145L37.52609041666667,138.09064911586998L37.62467708333333,153.97281023829666L38.56125041666667,117.85719142402856L38.80771708333333,131.11584590730425L38.85701041666667,131.42791470800674L39.10347708333333,124.67397993150756L39.34994375,131.3680889329246L39.448530416666664,145.80837920437077L39.842877083333335,139.96855174975457L39.892170416666666,137.06911246464463L40.23722375,116.45390212824128L40.43439708333333,120.56523978883293L40.87803708333333,117.28945012196387L41.272383749999996,126.20028953137806L42.06107708333333,133.52995257605858L42.25825041666667,134.99646684545138L42.55401041666667,120.09849870811573L42.75118375,100.13815191156039L42.84977041666667,126.58324439982424L44.92009041666666,135.07189293897068L44.96938375,135.5216164242978L45.06797041666667,76.97457287620026L45.36373041666666,50.433777796688744L45.80737041666667,101.07173560706565L45.905957083333334,59.693573133038186L45.955250416666665,100.55680830233497L46.103130416666666,112.4929470476699L46.39889041666667,131.10988651854944L46.84253041666667,137.90330811228247L46.99041041666666,132.65684456757242L47.03970375,134.02674333531579L47.532637083333334,137.10559396910025L48.37062375,116.61317763905139L48.46921041666667,120.27659860956915L49.159317083333335,75.4418423158422L49.405783750000005,114.80661857023804L49.50437041666667,104.81880240377765L49.65225041666667,102.91141887150397L50.04659708333333,85.25656282688492L50.34235708333333,73.25891797414609L50.440943749999995,88.24606964988224L50.58882375,125.16398964525887L50.88458375,137.73735665203114L51.13105041666667,152.07518176389323L51.62398375,124.85013251395574L51.91974375,133.2141712122652L52.21550375,114.99867949566203L52.412677083333335,101.34493409205052L52.70843708333333,103.55717774992331L52.80702375,118.7695684240171L52.85631708333334,141.07946014439514L52.95490375,97.42019963285595L53.05349041666667,85.57298991692824L53.10278375,106.64605198867775L53.34925041666667,116.27233392338549L53.398543749999995,133.94337752068398L53.84218375,129.0630887186787L54.13794375,131.40018460966715L54.23653041666667,132.1216302264784L54.48299708333334,126.01101095372762L54.729463749999994,150.23588902291252L54.82805041666666,73.45159253201841L55.41957041666667,50.595511202347026L55.76462375,72.45616565008865L55.81391708333334,45.1250901333088L55.91250375,35.28608565995659L56.01109041666667,91.93685320299606L56.06038375,116.43877785969818L56.15897041666666,138.25430209379817L56.75049041666667,143.376220935234L56.898370416666666,136.55244712451014L57.09554375,117.30254855405637L57.243423750000005,76.04797977597326L57.39130375,96.29738756651167L57.58847708333333,127.78967279573968L57.63777041666667,120.10622338283474L57.83494375,130.80934204952965L58.08141041666667,118.35366620002418L58.13070375,126.09330608474153L58.62363708333333,128.13068805949055L58.82081041666667,103.80298082122899L58.96869041666667,132.2543755775076L59.36303708333333,133.92994283469807L59.56021041666666,150.20821050901586L59.70809041666667,160.3344689971171L59.75738375,140.73007130419984L59.806677083333334,157.16001521823273L60.151730416666666,142.52336747215668L60.44749041666666,155.88477806309746L60.54607708333333,135.79730231797626L60.59537041666667,126.35519618532616L60.79254375,135.41189758027528L60.98971708333333,124.63718092468343L61.13759708333334,127.90243377701618L61.186890416666664,153.56113620052443L61.23618375,136.60310487419193L61.433357083333334,129.14074318689003L61.87699708333333,120.07177930523093L62.07417041666666,71.26542123227796L62.12346375,61.14581441920688L62.17275708333333,89.64544737363869L62.27134375000001,101.13260271564134L62.32063708333333,101.38143726834657L62.61639708333333,107.77045152574183L62.813570416666664,128.82148774855972L62.86286375,129.22739372488047L62.96145041666667,99.32285226485838L63.060037083333334,125.30231921137397L63.20791708333333,140.50078796303885L63.257210416666666,134.97445721004377L63.30650375,132.30449735268334L63.355797083333336,136.7428163358234L63.50367708333333,84.03781249932423L63.70085041666666,82.87100652940259L63.94731708333333,95.14244945101252L63.99661041666667,113.59580230267233L64.04590375,123.69849697084061L64.34166375,101.62551943856973L65.17965041666666,124.45281560658513L65.37682375,98.77380571031033L65.47541041666666,131.17356339254056L65.72187708333334,134.0811683008556L66.90491708333333,93.23839996275213L67.00350375,127.48607487092558L67.24997041666667,103.39496516352978L67.34855708333333,99.21104127863697L67.54573041666667,82.31444045722276L67.64431708333333,62.35160305988664L68.03866375,91.32022449309751L68.33442375,77.3513862665601L68.53159708333334,72.47261049605056L68.87665041666666,103.51201691780474L68.97523708333334,119.7416624102234L69.27099708333333,114.96619993884796L69.36958375,138.58088929915093L69.51746375,88.73749642052448L69.56675708333333,111.59354981469032L69.66534375,125.34706726483654L70.05969041666667,127.98239237554164L70.10898375000001,112.54348994783932L70.25686375,102.39430955345853L70.60191708333333,131.65410213050498L70.74979708333333,148.807559742792L71.19343708333334,128.01202126399488L71.39061041666666,70.78923537764436L71.53849041666668,64.40685998459747L71.58778375,94.46390325462873L72.03142375,117.65723140618833L72.08071708333333,119.54918451059837L72.27789041666666,132.1079730805694L72.32718375,140.9315030942523L72.37647708333334,106.84459135354538L72.42577041666667,126.21889599216567L72.62294375,151.58665183217875L72.67223708333333,160.72172024864884L72.82011708333333,163.64165480744202L72.86941041666667,131.75351748354055L73.26375708333333,151.24803877763043L73.46093041666666,136.9365922504192L73.55951708333333,147.3973715003446L73.65810375,153.1129534540245L73.70739708333333,146.7958187161487L74.15103708333334,162.6667901515127L74.29891708333334,156.32972203726536L74.69326375,156.2571693005262L74.79185041666666,154.08961647403825L74.98902374999999,159.19937317164295L75.03831708333334,143.49196710939142L75.28478375,157.79565419408638L75.62983708333334,107.48306845219707L76.17206375,121.12268689031468L76.27065041666667,107.42722493860164L76.56641041666667,120.1177157548251L76.71429041666667,137.74178894681825L76.81287708333333,127.92970137788708L77.01005041666667,140.5373887836567L77.20722375,107.4952910077352L77.30581041666667,107.42236190627688L77.55227708333334,135.66043910736246L77.60157041666666,143.0384264788294L77.65086375,139.22991172082808L78.04521041666668,128.08198036913623L78.34097041666666,123.9989377627644L78.53814375,119.781840012662L78.58743708333333,148.46166645061516L78.63673041666668,160.41769588930333L79.08037041666667,147.0705594119008L79.32683708333333,126.02890257218931L80.01694375,108.78952713119658L80.11553041666666,118.04772481505675L81.10139708333334,115.597219116596L81.15069041666666,132.8375360769675L81.34786375,128.66212326303994L81.39715708333333,108.31423505554125L81.44645041666666,131.16380590444518L82.33373041666667,116.43002411273548L82.58019708333333,107.17299962370056L82.92525041666667,97.1484071751145L82.97454375,114.37988062737628L83.27030375,127.54827852271941L83.36889041666666,120.00403422846166L83.61535708333334,96.89280499657252L83.71394375,101.3161681749836L83.81253041666668,130.0702803884992L84.00970375,115.7519141170412L84.89698374999999,114.41989193755565L84.99557041666667,110.49071916579115L85.09415708333333,105.40281491660421L85.48850375,130.47069003095237L85.63638375,121.60613051599269L86.03073041666666,127.19135751453642L86.17861041666666,51.72594546155692L86.32649041666667,91.11061523483134L86.96730375,123.09015178755483L87.31235708333332,108.38016943976618L87.60811708333334,113.35072670486772L87.80529041666667,126.51609855954173L87.90387708333333,124.74611667432977L87.95317041666667,128.44913576625942L88.24893041666667,66.16670035471415L88.74186375000001,59.50407442539867L88.98833041666667,41.19123292618952L89.03762375,30.58631658943867L89.18550375,77.60019303794131L89.48126375,70.82169786355152L89.57985041666667,87.18246933973585L89.72773041666667,85.86051848624201L89.87561041666667,116.74746925290854L90.02349041666666,122.86259283218642L90.07278375000001,129.0276186442009L90.96006374999999,149.35460523817727L91.69946374999999,125.06188404592152L92.43886375,89.3439310314195L92.58674375,113.49536959659676L92.63603708333333,110.99034543235075L92.73462375000001,129.20657562851292L92.78391708333334,90.4940412976705L93.81907708333333,121.23616746296662L93.86837041666668,136.40284443634854L94.11483708333334,153.6098083420879L94.26271708333334,21.795836386936095L94.45989041666667,70.10269875398707L94.55847708333333,42.8430720512356L94.75565041666667,64.88357405330454L94.95282375,86.42278235236238L95.14999708333333,116.39557774710315L96.38233041666668,108.20560381321702L96.43162375,116.37439382975455L96.97385041666666,139.3195626908848L97.36819708333334,60.10953212823328L97.41749041666667,110.52210163501414L97.56537041666667,110.28664362089343L97.66395708333333,124.62855523619953L97.71325041666667,114.99597390767278L98.15689041666667,133.70743004248345L98.50194375000001,130.96227009156826L99.24134375,107.07563886081864L99.29063708333334,121.00539699218088L99.43851708333334,64.66739339245206L99.78357041666668,41.77437755234744L100.37509041666667,90.32705495815101L100.62155708333333,111.5032484177388L100.67085041666667,116.14586110375149L100.76943708333334,123.73977009929312L101.11449041666667,50.12851176546271L101.45954375,71.15055869749936L101.50883708333333,65.59296890933368L101.95247708333333,104.12239038252267L102.14965041666667,53.75260870041507L102.24823708333332,62.64695544470583L102.44541041666668,36.61026217597265L102.88905041666666,73.42072099481545L103.23410375,106.81903173944069L103.28339708333334,118.07914643538423L103.52986374999999,106.36685925157326L103.92421041666667,123.89200483221684L104.36785041666667,133.48305794274137L104.41714375000001,104.03773932859495L104.61431708333333,99.82843490365265L104.86078375,130.33021979286144L105.00866375,103.16627421828431L105.10725041666666,134.1097960880537L105.25513041666666,78.2725449330294L105.40301041666666,93.23657810251021L105.60018375,80.28593301510872L105.99453041666666,83.06126367888487L106.38887708333333,83.36495218182587L106.58605041666667,71.60565010014166L106.73393041666667,111.60368448080415L106.78322374999999,109.589165744673L107.07898375,93.23167773335622L107.12827708333333,124.86440063863664L107.52262375,114.37918353885216L107.71979708333333,108.76270609384656L107.76909041666666,138.6798453705661L107.81838375000001,148.33948372466284L107.91697041666666,82.8553989807541L108.06485041666667,122.97832907317726L108.40990375,95.77940898584515L108.45919708333334,117.64500957397932L108.85354375,126.4699074606199L108.90283708333332,88.1750750172197L109.34647708333334,96.79607417750712L109.54365041666667,59.475345197727414L109.64223708333333,83.79080132449278L109.69153041666668,104.02674857261543L109.79011708333333,132.93708123852468L110.03658374999999,143.5077823286632L110.08587708333334,156.02993330272315L110.18446374999999,146.92310516185927L110.23375708333333,145.48941634981256L110.28305041666667,95.64283603959333L110.52951708333333,109.14115616400868L111.21962375000001,95.64925787877935L111.66326375,125.58524167556702L111.95902375,112.95958957683527L112.30407708333333,93.90082839495828L112.35337041666666,58.71285097221665L112.79701041666667,59.4170671726473L113.14206375,16.371408392501348L113.58570375000001,64.23050550789384L113.73358375000001,113.60684542161671L114.07863708333333,129.80973489464787L114.17722375,140.52141302455348L114.37439708333333,141.05486315267612L114.86733041666668,110.50496924982865L114.91662375,69.59194672743321L115.06450375,108.6463109889021L115.31097041666666,138.10938865771237L115.50814375,139.51179525155035L116.14895708333333,132.00690570412996L116.24754375,97.20952014290646L116.29683708333333,95.1355579624376L116.59259708333333,33.46147260247475L116.64189041666667,97.11901937233692L116.69118375,95.27098487798742L116.78977041666667,70.39641208043321L117.47987708333332,100.61320224160329L118.36715708333334,96.75763580056653L118.66291708333334,86.23642092259304L119.00797041666667,102.77287927455649L119.30373041666667,123.98888213149874L119.50090375,108.10114793009858L119.59949041666667,107.80477325932564L119.69807708333333,137.49824839720952L119.99383708333335,65.95828674965995L120.14171708333333,74.05278617581068L120.24030375,109.12375960612499L120.38818375000001,114.2255999437821L120.53606375,129.86405439328266L120.68394375,121.03484541863867L121.12758375000001,106.76866604501409L121.22617041666666,124.32416457900048L121.81769041666666,107.96720649581337L121.86698374999999,111.46761954892386L121.91627708333334,108.66539447944587L122.60638374999999,110.98765779400603L122.80355708333333,104.85222459354839L123.00073041666666,134.13290203522945L123.19790375,133.05378041810573L123.24719708333333,88.87032872525918L123.39507708333333,123.44021004490892L123.49366375,130.536571419554L123.59225041666666,142.2965553976995L123.98659708333334,97.70738117563144L124.08518375,104.68053341309677L124.23306375,84.31972654104501L124.38094375,89.24139043951197L124.52882375,84.9527649716387L124.62741041666666,79.76617619012892L124.77529041666668,82.7936690367168L124.92317041666666,97.26124487620032L125.71186375,76.32633375109097L126.05691708333333,98.67927159655608L126.30338375000001,114.04396155946564L126.35267708333333,118.4475386588163L126.40197041666666,142.13062055995385L126.50055708333333,95.77858147674989L126.54985041666667,68.0486353972804L126.64843708333332,58.46399898166964L126.74702375,88.23168122074311L126.94419708333334,106.83337264836612L127.14137041666666,136.1629793976592L127.38783708333332,152.43138157933038L127.48642375,113.95589024787594L127.83147708333334,127.05923281291396L127.93006375,143.25946732866328L127.97935708333333,133.64551511113382L128.22582375000002,69.51905917349183L128.42299708333334,55.92058510317041L128.66946375,83.03891362389108L128.76805041666668,104.50407275939097L128.81734375,129.711352285052L129.31027708333332,104.67142706889193L129.35957041666668,105.43100556003023L129.55674375,94.74271364371162L129.70462375,76.47628223514664L129.85250374999998,64.1115444637305L129.90179708333335,91.86439510208169L130.04967708333334,65.56764905465721L130.09897041666667,111.22746959217237L130.19755708333332,135.11814238362223L130.44402374999999,-2.427222479982917L130.49331708333335,32.40262056016699L130.83837041666666,76.34974841251238L130.88766375,81.31128118022838L131.08483708333333,94.54936758032177L131.18342375,89.62109958738527L131.28201041666668,95.25911521679427L131.47918375,86.45698664049068L131.97211708333333,107.52022671377514L132.07070375,109.11973957822237L132.16929041666666,60.28326690557904L132.21858375,100.22178830124918L132.41575708333335,89.79593296896209L132.56363708333333,105.37617192298644L132.95798375,109.46405316371008L133.15515708333334,122.48418624984195L133.84526375,123.65531835429054L134.04243708333334,117.56166914386857L134.14102375000002,131.5827886300284L134.38749041666668,152.24382500869027L134.43678375,156.03768449438806L134.53537041666667,153.99759156354187L134.6339570833333,132.9203670194621L134.68325041666668,136.39912710016222L134.78183708333333,89.0673470582083L134.88042375,94.62413714441746L134.92971708333334,106.59384740658456L135.27477041666668,90.44769674103175L135.42265041666667,92.67474556899496L135.66911708333333,99.93276136479633L136.26063708333334,109.78996020175133L136.45781041666666,132.18725427160928L136.60569041666668,122.29451420408647L137.09862375,132.82420318425991L137.39438375,90.37154098213492L137.44367708333334,77.274368452196L137.54226375000002,108.1504036469249L137.69014375,116.16767100590397L137.83802375,95.81481072961049L137.88731708333333,115.97760774885867L137.93661041666667,88.67426391956363L138.42954375,80.48548498461933L138.47883708333333,87.31855739778455L138.52813041666667,60.18045209423407L138.62671708333332,70.99873894796195L139.21823708333332,61.613261284502876L139.26753041666666,13.184248532100025L139.31682375,48.65181432082862L139.36611708333334,85.93757080980902L139.76046374999999,74.85067820518474L140.20410375,106.63258130532061L141.04209041666667,136.5511538635585L141.73219708333335,158.3635706812676L141.92937041666667,155.34149357739307L141.97866375,169.59501843490133L142.07725041666666,163.92277589343743L142.47159708333334,159.46120617927767L142.57018375,146.90631872499975L142.76735708333334,133.98425349047776L143.26029041666666,151.0816969659984L143.65463708333334,162.48724163693547L143.70393041666668,141.7237305231235L144.24615708333334,87.96632578297505L144.64050375,128.11911128952534L144.93626375000002,127.73573140498657L144.98555708333333,130.2170380604068L145.08414375,148.4427358538985L145.18273041666666,81.14159585422752L145.42919708333332,88.6816190325408L146.36577041666666,96.8116305019372L146.66153041666666,54.84766574775655L146.71082374999997,40.151831078979235L147.20375708333336,84.22453464773469L147.30234375,120.02758781735403L147.45022375,132.35614878311338L147.49951708333333,110.5455680988704L147.54881041666667,81.1733995141074L148.04174375,16.96574982771187L148.09103708333333,77.13791676025932L148.23891708333332,39.37139680183732L148.53467708333332,78.26197658894542L148.78114375,113.14580715249828L148.87973041666666,44.65209024280815L148.97831708333334,82.50084642845695L149.07690375,118.44684364961567L149.52054375,113.72628509144178L149.71771708333333,113.36950420820828L149.91489041666668,96.18969189813205L150.01347708333333,66.32003366762679L150.16135708333331,103.99356794246603L150.60499708333336,111.91328573160511L150.65429041666667,105.86799166162693L150.85146375,123.99434050059249L151.14722375,116.43259353718715L151.24581041666667,71.83739831019376L151.83733041666667,57.00749474745354L151.88662375,88.109780037292L151.93591708333332,106.75305370324143L151.98521041666666,127.57394376893812L152.13309041666668,82.05429677665217L152.33026375,120.02180227339258L152.62602375,103.62001924931998L152.67531708333334,112.04658282530305L152.82319708333333,68.03313582379816L153.21754374999998,18.689513643021566L153.46401041666667,73.6400670048208L153.61189041666665,113.19512570122548L153.75977041666667,100.49034891259473L153.80906375,91.2029720886457L154.10482375,119.5761600341742L154.20341041666666,137.0429648403135L154.4991704166667,136.07470809482376L154.64705041666667,45.78102056421541L154.7949304166667,87.11712712191166L154.84422375,117.06073258008135L155.04139708333332,140.38712155631524L155.97797041666666,122.39340362436381L156.17514375,120.32603751115087L156.27373041666667,129.26110363299898L156.52019708333333,85.50639925179036L156.76666375000002,82.48026479349824L157.40747708333333,64.91635087171966L157.60465041666666,85.33064069175586L157.75253041666664,87.75832558765332L158.49193041666666,95.03824067768048L159.03415708333335,123.03842919264191L159.08345041666666,132.1781881165144L159.23133041666665,116.41315528819783L159.52709041666668,138.9058397595276L159.87214375,97.3468858232611L159.92143708333333,99.94127713623723L159.97073041666667,-24.422987014156096L160.02002374999998,14.79250958555845L160.06931708333332,35.44328042861168L160.11861041666668,-48.84340197446141L160.51295708333333,8.011594136940282L161.64670375,73.35505425953082L161.69599708333334,105.62356660379895L161.74529041666668,79.84541686543183L162.09034375000002,51.143448306133486L162.63257041666665,85.25987120450148L162.73115708333333,101.31311643112069L163.32267708333333,124.71854578249675L163.37197041666667,110.21506611581457L163.51985041666666,119.84043244168647L163.61843708333333,114.726879451546L163.66773041666667,99.85004037253437L163.76631708333332,108.60633104820478L164.7028904166667,78.55373478996411L164.94935708333333,66.4564927403191L165.09723708333334,109.78799551630374L165.24511708333333,128.48683258238052L165.68875708333334,74.07251441682943L165.73805041666665,91.06471052292328L166.03381041666665,40.83670500828827L166.13239708333333,12.884203600370904L166.18169041666664,48.33621535747292L166.47745041666667,70.95108588963177L166.62533041666669,104.98555513876335L166.67462375,133.3341014543632L166.92109041666666,146.93838262316342L167.01967708333333,147.30964815471623L167.11826375,140.25870315941603L167.26614375,146.41681679911872L167.70978374999999,136.27684805886423L167.95625041666668,126.78565276918694L168.05483708333333,129.40538693224124L168.10413041666666,123.94223635646541L168.15342375,133.54079782517456L168.69565041666667,19.747849914739742L169.18858375,22.557117446249837L169.58293041666664,45.13554088114865L170.42091708333334,90.08213205241661L170.76597041666665,54.80120040836036L170.81526375,44.06747418559848L170.96314375,-0.6671980981990404L171.45607708333333,46.272822882833196L171.75183708333333,45.73312441474326L171.94901041666668,86.65309340933638L172.19547708333332,44.2726074169855L172.29406375,95.686490733074L172.39265041666667,116.82920548835209L172.49123708333335,110.25933907937296L172.58982375,133.95792438096575L172.78699708333335,115.12898777429325L172.83629041666666,119.4161775738243L172.98417041666667,121.80680319251081L173.27993041666667,121.67047860968984L173.37851708333332,61.78334299772309L173.52639708333334,41.66568827658491L173.92074375,91.89644494074344L174.01933041666666,94.82391473303889L174.06862375,118.76029892355595L174.11791708333334,125.05019567960734L174.51226375,77.82178830238722L175.25166375,101.15157401044692L175.35025041666665,104.34850580382066L175.44883708333333,68.0710187368853L175.54742375,112.29347270210164L175.64601041666666,128.527700146911L176.08965041666664,111.62028176836816L176.28682375,94.77873999627022L176.92763708333334,102.76055764407866L177.12481041666666,66.93884882480474L178.06138375,70.68159461707216L178.80078375000002,29.236562065424586L178.85007708333333,79.19066869744186L179.1458370833333,80.14405824857072L179.19513041666667,6.9831014282531445L179.29371708333335,36.74278968614502L179.44159708333333,82.81177353884078L179.68806375,104.79615758672536L179.83594374999998,103.32759346255769L179.88523708333332,120.29803348594373L179.98382375,47.97606497414984L180.77251708333336,60.89325981979416L181.11757041666667,93.33616093185454L181.31474375,92.64846441380327L181.65979708333333,86.01012652654734L181.70909041666667,115.37322016679815L182.05414375,127.9569644935344L182.20202375,144.96470879360524L183.38506375,105.00970351007275L183.53294375000002,1.5355864721935304L183.87799708333333,36.840877172851656L184.0258770833333,78.23028741926198L184.07517041666665,95.97639705330279L184.17375708333336,116.22435719722597L184.22305041666667,90.95707680555634L184.56810375,82.35241213901313L184.66669041666668,78.67481169380827L185.20891708333332,24.678125293720264L185.45538375,67.54239723185806L185.89902375,32.219076759219796L185.99761041666665,60.92564256584682L186.09619708333335,84.3492645716431L186.29337041666665,58.858190601811536L186.4412504166667,107.40982091173274L187.08206375,98.29673151817764L187.1313570833333,121.18005361942556L187.18065041666668,68.38979839556279L187.47641041666665,104.94601224227466L187.87075708333333,105.41976963498425L188.16651708333333,131.02339352976222L188.21581041666667,132.04173668510282L188.26510374999998,130.33724060229397L188.46227708333333,131.02765976531467L188.70874375000002,118.95923902477719L189.0537970833333,76.5216332071179L189.44814374999999,120.49074239690029L189.64531708333334,108.5742539832528L189.8424904166667,100.60884000477407L189.94107708333334,118.65594864855535L190.23683708333334,132.68896240574318L190.38471708333333,33.48404714216111L190.48330375,85.00929524153064L190.58189041666665,22.513588152227335L190.68047708333333,60.63492448443027L190.82835708333334,93.00587955304294L191.07482375,94.38676058762258L191.66634374999998,124.2531511158525L191.91281041666667,109.19672430579537L192.15927708333334,140.35750828996106L193.04655708333334,130.31943518409017L193.24373041666666,144.08996258073378L193.39161041666668,135.77254577811556L193.63807708333331,133.11576059064862L193.93383708333332,116.37081114412307L193.98313041666665,134.27077201581574L194.18030375,105.05579125628815L194.27889041666666,124.13691565839021L194.57465041666666,64.77105658917169L194.62394375,49.41577044527852L194.91970375,62.32781397939397L195.26475708333334,69.34827861571713L195.56051708333334,105.96509383549932L195.70839708333332,130.70109070796158L196.00415708333335,72.31546634112826L196.54638375,71.68550258681196L196.64497041666667,72.8531067955793L196.99002375,88.91599541832812L197.13790375000002,93.68256393629198L197.28578375,39.79569577907253L197.38437041666666,77.35664012273985L197.63083708333335,111.27356623554729L198.41953041666667,2.9396286901504154L198.51811708333332,25.94564328769864L198.56741041666666,61.41159981596483L198.76458375,-25.635993468117615L198.81387708333332,-38.35547618112081L199.01105041666668,25.949725675337824L199.10963708333333,87.31080664858419L199.40539708333336,123.87535295882938L199.45469041666666,128.38520681857537L199.79974375,135.89469823836964L200.39126375,155.9618656253796L200.63773041666667,159.42155032253152L200.78561041666666,166.99621413288048L201.22925041666664,166.2914332398029L201.27854375,116.48485430766652L201.57430374999998,118.69585087710328L201.62359708333332,140.72572994717186L202.31370375,131.0958901434435L202.51087708333336,128.14100760157666L202.60946375,149.03976545295572L202.70805041666665,154.25792937017357L202.85593041666667,92.39081027827784L203.00381041666665,122.59127023650483L203.44745041666667,80.06574627657696L203.74321041666667,115.60101508438565L203.84179708333332,142.2764581879376L204.38402375,131.04440698864454L204.43331708333335,120.14078291560647L204.72907708333335,49.847563554676974L205.07413041666666,76.30912216295756L206.25717041666667,66.10993478172993L206.40505041666665,106.58398949786411L206.55293041666667,93.80049547960989L206.65151708333335,121.95302029496808L207.68667708333334,132.49396624592768L207.83455708333335,112.41028391377824L208.03173041666665,128.6424430075687L208.08102374999999,99.83417312284718L208.13031708333332,111.37392678249125L208.42607708333333,98.8088159465089L208.57395708333334,6.895593017536056L208.67254375000002,52.09371784341196L209.11618375,103.14845972664273L209.31335708333336,97.51884687785575L209.46123708333334,95.09917309787434L209.70770375,122.28293307367898L210.10205041666669,140.30008557882272L210.29922374999998,126.62297603754021L210.39781041666666,124.67703858177553L210.49639708333333,90.66590260959083L211.13721041666665,123.17039673028238L211.23579708333335,63.34797902403981L211.38367708333334,107.96413365303701L211.97519708333334,136.75882088720337L212.17237041666667,86.61087648617944L212.41883708333333,53.68608665792774L212.51742375,104.83871537642855L213.01035708333333,70.10688561318624L213.10894375,85.73175748657172L213.20753041666669,82.85568685812346L213.84834375,87.38858768631573L214.14410375,114.34658412509893L214.63703708333335,138.24326390250764L214.88350375,109.29378615751409L215.22855708333333,125.79180163702097L215.37643708333331,115.97290231323674L215.47502375000002,106.15020669422407L216.46089041666664,96.85926275802767L216.51018374999998,92.32216447206208L216.55947708333335,111.97965477473657L216.80594374999998,113.81954053978396L216.90453041666666,139.13577066624327L217.20029041666666,153.77118736960986L217.39746375000001,163.04116927658617L217.79181041666666,127.01265441820084L217.84110375,116.64821598199046L218.0875704166667,136.37102553407573L218.13686375,134.028922946216L218.33403708333333,90.56907457766611L218.87626375000002,113.49062698279428L219.17202375,127.81892498251563L219.46778375,142.68745305488565L219.61566375,90.98621422261034L220.15789041666667,113.52588021880409L220.35506375000003,104.4922955997349L220.55223708333332,104.54194727942712L220.65082375,126.24973595980029L220.89729041666666,141.11771114375128L221.09446375,134.9683213693257L221.34093041666665,116.27953958883023L221.58739708333334,112.8366192363151L221.78457041666667,139.59173818722059L221.83386374999998,146.6882543342989L221.93245041666668,90.83179191217906L222.37609041666667,68.37648141065888L222.42538375,59.698516486165836L222.96761041666664,76.19924361591214L223.06619708333335,19.24476360729143L223.11549041666666,55.49092862278704L223.46054375,98.83852349084904L223.55913041666668,33.64594136692461L223.60842375,88.55877248655186L223.65771708333332,115.91301400786892L223.70701041666666,81.65587467745695L223.90418375000002,119.40202192542407L224.00277041666666,143.45517472670946L225.08722375,152.273343719521L225.23510374999998,148.46902673094203L225.92521041666666,153.64584023147066L226.17167708333335,126.94508375161432L226.22097041666666,145.0991181935879L226.31955708333334,153.07841821944788L226.71390375,146.5286764886145L226.96037041666668,103.42665837920691L227.30542375000002,52.84831551740758L228.68563708333332,91.97315485495443L229.03069041666666,68.90002731810877L229.57291708333335,83.17252102095406L229.81938375,84.38261384128644L230.26302375,62.42476312136122L230.31231708333334,44.36209239849729L230.80525041666667,86.17280553751756L230.85454375,27.80963029249651L230.90383708333331,74.18310124745453L231.00242375,78.6278347198396L231.10101041666667,98.6272512927192L231.19959708333334,125.41648351279125L231.24889041666665,97.06266853289142L231.29818375,115.68793439314564L231.39677041666667,100.75113293794274L232.28405041666667,120.03804450790574L232.5305170833333,80.79574402308755L232.77698375,64.67804350934203L232.92486375000001,79.57368144084082L233.07274375,-21.382675786679616L233.3192104166667,43.00295997866056L233.86143708333333,72.1721109939102L234.30507708333332,109.85708947136901L234.45295708333336,49.523291988104006L234.50225041666667,64.9847500818547L234.94589041666669,76.32033937558985L235.2416504166667,54.0321338259307L235.98105041666668,13.233727460093933L236.03034375000001,80.60822655855873L236.32610375,114.20391041099585L236.52327708333334,82.88378752505515L236.67115708333333,62.73637355110487L236.96691708333333,98.15641766036417L237.06550374999998,123.31458559778251L237.50914375000002,132.300183767956L237.70631708333332,102.91630232029051L238.00207708333335,93.1391103010946L238.24854374999998,51.14010027298767L238.54430374999998,20.502841491993888L238.74147708333334,-36.07416399747335L238.98794375,42.231621250926246L239.3329970833333,81.78772912348435L239.53017041666666,121.90196165993885L239.97381041666668,107.16941247913286L240.12169041666667,95.66773258765366L240.71321041666667,85.41174587678806L241.05826375,63.995154101085035L241.20614375,69.26588749792062L241.30473041666664,53.370316028033976L241.35402375,82.70390932526308L241.55119708333334,100.15598519305061L241.60049041666664,89.12796940600676L241.64978374999998,108.38576017734886L242.24130375000001,73.8771685774176L242.53706375000002,11.190816975536848L242.58635708333333,47.21905931049759L242.68494375,83.15578817256792L242.93141041666667,107.97861155824963L242.98070375,-24.508777374284836L243.12858375,56.502724031056545L243.42434375,24.229247533944598L243.62151708333334,-49.12412082930365L243.96657041666666,11.606343056082956L244.45950375,17.736846986603865L244.75526375,15.08420766782294L244.95243708333334,62.944966586777745L245.10031708333332,60.31132645150968L245.49466374999997,91.62321854079335L245.59325041666668,94.86096525457245L246.23406375,88.38211720148767L246.43123708333334,102.57457962608365L246.48053041666665,121.08169818506258L247.41710375000002,117.145108727131L247.46639708333333,54.523829858013215L247.61427708333332,97.0314274790932L247.95933041666666,11.50140887278611L248.05791708333334,29.992265330423674L248.45226375,82.50965601603374L248.5508504166667,118.95481052637211L248.60014375,92.27868355894155L249.2409570833333,97.50187583913842L249.33954375000002,115.02678098768259L249.38883708333336,113.49502939278044L249.78318375,138.75219115194176L249.83247708333334,120.38979797706898L249.98035708333333,87.45237854210077L250.07894375,106.34320766381943L250.52258375000002,112.31781281621768L250.67046375,112.15085299963663L250.76905041666666,83.6090075025255L250.86763708333334,94.26651414926617L251.45915708333334,96.02543547568183L252.29714374999998,87.0245071817485L252.54361041666667,87.13188043648289L253.03654375,99.91208569654397L253.33230375,131.1824134555374L253.67735708333333,52.842886946613426L253.97311708333334,73.63401411891866L254.07170375,111.93090558600956L254.26887708333334,116.38024549813588L254.61393041666665,119.59010763842772L254.66322375000001,117.55019564556426L254.71251708333335,132.5758039780101L255.20545041666668,141.76310057804827L255.99414375,158.17228938559202L256.2406104166667,166.3275688554019L256.4870770833333,83.2787345925075L256.73354375,117.11223412031545L256.78283708333333,128.920570388285L256.88142375,62.89936896255472L257.02930375,85.37016496712482L257.5222370833333,105.66732808145592L257.7194104166667,126.9027629744572L257.76870375,98.89675996610896L258.06446374999996,73.37339185422287L258.2616370833333,81.2086093350984L258.3109304166667,65.4166763260804L258.7052770833333,94.53883787601247L258.80386375,65.56671951180132L258.8531570833334,69.56788336017986L258.9024504166667,89.77343622910534L259.00103708333336,107.19771940748426L259.14891708333334,101.21527466321308L259.19821041666665,104.27775712695313L259.24750375,127.91511180333254L259.29679708333333,75.17315541703674L259.4939704166667,47.30178357958301L259.5925570833333,73.20228210568132L259.74043708333335,44.647615906475195L259.78973041666666,-20.695037557555327L259.83902375,40.24554822810108L259.88831708333333,81.064917743013L259.98690375,72.2417302249704L260.13478375,82.65555575602258L260.1840770833333,103.86282450624113L260.47983708333334,121.61797646682146L260.77559708333337,111.07155778408459L260.87418375,139.20520298123606L261.02206375,101.59229238295703L261.61358375000003,90.97529880681125L262.0079304166667,23.772750905027912L262.05722375,60.672505790514315L262.10651708333336,101.58511029155409L262.40227708333333,68.02964149994465L262.74733041666667,24.294002646701426L262.99379708333333,86.32096722394043L263.3388504166667,104.51718944710382L263.53602375,119.96893826962642L263.78249041666663,136.67985050583562L263.97966375,139.27793525877405L264.27542375,79.50176167024856L264.3740104166667,105.18761483152917L264.5218904166667,89.84510116171963L264.76835708333334,89.80132501359061" style="fill: none;" fill="none"></path></g></g></g></g><g opacity="0.2"><g><g><g><path stroke="rgb(255, 112, 67)" stroke-width="2px" d="M28.801170416666668,-90.28379774093628L29.195517083333332,71.64936751127243L29.343397083333333,-65.07057416439056L29.392690416666667,-100.45477867126465L29.73774375,23.44814157485962L29.984210416666667,27.848344802856445L30.378557083333334,141.8636735379696L31.019370416666664,153.2553342282772L31.561597083333336,100.9542589187622L31.808063750000002,149.2018205523491L31.95594375,162.8282607793808L32.39958375,13.978357315063477L32.44887708333333,167.5979205071926L32.94181041666667,95.67673695087433L33.18827708333333,167.26743578910828L33.28686375,107.35303723812103L33.33615708333333,134.03459706902504L33.533330416666665,17.188665747642517L33.927677083333336,114.51097404956818L34.32202375,155.07270741462708L34.37131708333334,136.9396458864212L34.61778375,93.5475525856018L35.160010416666665,67.18464034795761L35.45577041666667,85.45070600509644L35.70223708333333,147.4089919924736L35.85011708333334,145.61497655510902L36.441637083333326,100.41218823194504L36.737397083333335,82.91507148742676L36.98386375,182.05808678269386L37.131743750000005,-1.0834661722183228L37.32891708333334,164.5403500199318L37.52609041666667,174.26892632246017L37.62467708333333,177.7960519194603L38.56125041666667,63.683763206005096L38.80771708333333,151.00382763147354L38.85701041666667,131.89601790905L39.10347708333333,114.5430777668953L39.34994375,141.40925243496895L39.448530416666664,167.46881461143494L39.842877083333335,131.20881056785583L39.892170416666666,132.7199535369873L40.23722375,85.53108662366867L40.43439708333333,126.73224627971649L40.87803708333333,112.37576562166214L41.272383749999996,139.56654864549637L42.06107708333333,144.52444714307785L42.25825041666667,137.19623824954033L42.55401041666667,97.75154650211334L42.75118375,70.19763171672821L42.84977041666667,166.25088313221931L44.92009041666666,147.8048657476902L44.96938375,136.19620165228844L45.06797041666667,-10.84599244594574L45.36373041666666,10.62258517742157L45.80737041666667,177.02867232263088L45.905957083333334,-2.3736705780029297L45.955250416666665,161.85166105628014L46.103130416666666,130.3971551656723L46.39889041666667,159.03529572486877L46.84253041666667,148.093440502882L46.99041041666666,124.78714925050735L47.03970375,136.08159148693085L47.532637083333334,141.72386991977692L48.37062375,85.87455314397812L48.46921041666667,125.77173006534576L49.159317083333335,8.18970787525177L49.405783750000005,173.85378295183182L49.50437041666667,89.83707815408707L49.65225041666667,100.05034357309341L50.04659708333333,58.77427875995636L50.34235708333333,55.26245069503784L50.440943749999995,110.72679716348648L50.58882375,180.54086963832378L50.88458375,156.59740716218948L51.13105041666667,173.5819194316864L51.62398375,84.01255863904953L51.91974375,145.76022925972939L52.21550375,87.6754419207573L52.412677083333335,80.8643159866333L52.70843708333333,106.87554323673248L52.80702375,141.58815443515778L52.85631708333334,174.54429772496223L52.95490375,31.93130886554718L53.05349041666667,67.80217534303665L53.10278375,138.25564509630203L53.34925041666667,130.71175682544708L53.398543749999995,160.4499429166317L53.84218375,121.74265551567078L54.13794375,134.90582844614983L54.23653041666667,133.20379865169525L54.48299708333334,116.84508204460144L54.729463749999994,186.5732061266899L54.82805041666666,-41.724852204322815L55.41957041666667,16.311389207839966L55.76462375,105.24714732170105L55.81391708333334,4.128476858139038L55.91250375,20.527578949928284L56.01109041666667,176.91300451755524L56.06038375,153.19166484475136L56.15897041666666,170.9775884449482L56.75049041666667,151.0590991973877L56.898370416666666,126.31678640842438L57.09554375,88.4277006983757L57.243423750000005,14.166126608848572L57.39130375,126.67149925231934L57.58847708333333,175.02810063958168L57.63777041666667,108.58104926347733L57.83494375,146.864020049572L58.08141041666667,99.67015242576599L58.13070375,137.70276591181755L58.62363708333333,131.18676102161407L58.82081041666667,67.31141996383667L58.96869041666667,174.9314677119255L59.36303708333333,136.44329372048378L59.56021041666666,174.62561202049255L59.70809041666667,175.52385672926903L59.75738375,111.32347476482391L59.806677083333334,181.80493108928204L60.151730416666666,120.5683958530426L60.44749041666666,175.92689394950867L60.54607708333333,105.6660887002945L60.59537041666667,112.19203698635101L60.79254375,148.99694967269897L60.98971708333333,108.47510594129562L61.13759708333334,132.8003130555153L61.186890416666664,192.04918983578682L61.23618375,111.16605788469315L61.433357083333334,117.9472006559372L61.87699708333333,106.46833348274231L62.07417041666666,-1.9441158771514893L62.12346375,45.96640419960022L62.17275708333333,132.3948968052864L62.27134375000001,118.36333572864532L62.32063708333333,101.75468909740448L62.61639708333333,117.35397291183472L62.813570416666664,160.39804208278656L62.86286375,129.83625268936157L62.96145041666667,54.46604007482529L63.060037083333334,164.27151963114738L63.20791708333333,163.29849109053612L63.257210416666666,126.68496108055115L63.30650375,128.29955756664276L63.355797083333336,143.40029481053352L63.50367708333333,4.9803067445755005L63.70085041666666,81.12079757452011L63.94731708333333,113.54961383342743L63.99661041666667,141.27583158016205L64.04590375,138.85253897309303L64.34166375,68.51605314016342L65.17965041666666,158.69375985860825L65.37682375,60.25529086589813L65.47541041666666,179.77319991588593L65.72187708333334,138.44257566332817L66.90491708333333,31.974247455596924L67.00350375,178.85758723318577L67.24997041666667,67.25830060243607L67.34855708333333,92.93515545129776L67.54573041666667,56.96953922510147L67.64431708333333,32.407346963882446L68.03866375,134.77315664291382L68.33442375,56.398128926754L68.53159708333334,65.15444684028625L68.87665041666666,150.07112655043602L68.97523708333334,144.0861306488514L69.27099708333333,107.80300623178482L69.36958375,174.00292333960533L69.51746375,13.972407102584839L69.56675708333333,145.8776299059391L69.66534375,145.97734344005585L70.05969041666667,131.93538004159927L70.10898375000001,89.38513630628586L70.25686375,87.17053896188736L70.60191708333333,175.54379099607468L70.74979708333333,174.53774616122246L71.19343708333334,96.81871354579926L71.39061041666666,-15.044943451881409L71.53849041666668,54.83329689502716L71.58778375,139.5494681596756L72.03142375,152.44722363352776L72.08071708333333,122.38711416721344L72.27789041666666,150.9461559355259L72.32718375,154.1667981147766L72.37647708333334,55.714223742485046L72.42577041666667,155.28035295009613L72.62294375,189.63828559219837L72.67223708333333,174.42432287335396L72.82011708333333,168.0215566456318L72.86941041666667,83.9213114976883L73.26375708333333,180.48982071876526L73.46093041666666,115.46942245960236L73.55951708333333,163.0885403752327L73.65810375,161.68632638454437L73.70739708333333,137.32011660933495L74.15103708333334,186.47324730455875L74.29891708333334,146.82411986589432L74.69326375,156.1483401954174L74.79185041666666,150.83828723430634L74.98902374999999,166.86400821805L75.03831708333334,119.9308580160141L75.28478375,179.25118482112885L75.62983708333334,32.0141898393631L76.17206375,141.58211454749107L76.27065041666667,86.8840320110321L76.56641041666667,139.1534519791603L76.71429041666667,164.17789873480797L76.81287708333333,113.21157002449036L77.01005041666667,159.4489198923111L77.20722375,57.932144343853L77.30581041666667,107.31296825408936L77.55227708333334,178.01755490899086L77.60157041666666,154.10540753602982L77.65086375,133.51713958382607L78.04521041666668,111.36008334159851L78.34097041666666,117.87437385320663L78.53814375,113.45619338750839L78.58743708333333,191.4814061075449L78.63673041666668,178.35174004733562L79.08037041666667,127.04985469579697L79.32683708333333,94.46641731262207L80.01694375,82.93046396970749L80.11553041666666,131.93502134084702L81.10139708333334,111.92146056890488L81.15069041666666,158.69801151752472L81.34786375,122.39900404214859L81.39715708333333,77.79240274429321L81.44645041666666,165.43816217780113L82.33373041666667,94.3293514251709L82.58019708333333,93.28746289014816L82.92525041666667,82.11151850223541L82.97454375,140.22709080576897L83.27030375,147.3008753657341L83.36889041666666,108.68766778707504L83.61535708333334,62.22596114873886L83.71394375,107.95121294260025L83.81253041666668,173.20144870877266L84.00970375,94.27436470985413L84.89698374999999,112.42185866832733L84.99557041666667,104.59696000814438L85.09415708333333,97.77095854282379L85.48850375,168.0725027024746L85.63638375,108.30929124355316L86.03073041666666,135.569198012352L86.17861041666666,-61.47217261791229L86.32649041666667,150.18761989474297L86.96730375,171.0594566166401L87.31235708333332,86.31519591808319L87.60811708333334,120.80656260251999L87.80529041666667,146.26415634155273L87.90387708333333,122.09114384651184L87.95317041666667,134.00366440415382L88.24893041666667,-27.25695276260376L88.74186375000001,49.510135531425476L88.98833041666667,13.721970677375793L89.03762375,14.678942084312439L89.18550375,148.12100771069527L89.48126375,60.65395510196686L89.57985041666667,111.7236265540123L89.72773041666667,83.87759220600128L89.87561041666667,163.07789540290833L90.02349041666666,132.0352782011032L90.07278375000001,138.27515736222267L90.96006374999999,179.8450851291418L91.69946374999999,88.62280225753784L92.43886375,35.76700150966644L92.58674375,149.72252744436264L92.63603708333333,107.23280918598175L92.73462375000001,156.5309209227562L92.78391708333334,32.42523980140686L93.81907708333333,167.3493567109108L93.86837041666668,159.15285989642143L94.11483708333334,179.42025420069695L94.26271708333334,-175.92512154579163L94.45989041666667,142.56299230456352L94.55847708333333,1.9536319971084595L94.75565041666667,97.94432705640793L94.95282375,118.7315948009491L95.14999708333333,161.35477083921432L96.38233041666668,95.92064291238785L96.43162375,128.62757885456085L96.97385041666666,173.73731598258018L97.36819708333334,-58.70551371574402L97.41749041666667,186.14095589518547L97.56537041666667,109.93345659971237L97.66395708333333,146.1414226591587L97.71325041666667,100.54710191488266L98.15689041666667,161.77461424469948L98.50194375000001,126.84453016519547L99.24134375,71.24569201469421L99.29063708333334,141.90003418922424L99.43851708333334,-19.839612007141113L99.78357041666668,7.434853792190552L100.37509041666667,163.15607106685638L100.62155708333333,143.2675386071205L100.67085041666667,123.10978013277054L100.76943708333334,135.1306335926056L101.11449041666667,-60.2883757352829L101.45954375,102.68362909555435L101.50883708333333,57.25658422708511L101.95247708333333,161.91652259230614L102.14965041666667,-21.802063822746277L102.24823708333332,75.98847556114197L102.44541041666668,-2.444777727127075L102.88905041666666,128.63640922307968L103.23410375,156.91649785637856L103.28339708333334,134.96931847929955L103.52986374999999,88.79842847585678L103.92421041666667,150.17972320318222L104.36785041666667,147.86963760852814L104.41714375000001,59.869761407375336L104.61431708333333,93.51447826623917L104.86078375,176.08289712667465L105.00866375,62.42035585641861L105.10725041666666,180.52507889270782L105.25513041666666,-5.483331799507141L105.40301041666666,115.68262785673141L105.60018375,60.8599653840065L105.99453041666666,87.2242596745491L106.38887708333333,83.82048493623734L106.58605041666667,53.966696977615356L106.73393041666667,171.60073605179787L106.78322374999999,106.56738764047623L107.07898375,68.69544571638107L107.12827708333333,172.31348499655724L107.52262375,98.65135788917542L107.71979708333333,100.3379899263382L107.76909041666666,183.55555428564548L107.81838375000001,162.82894125580788L107.91697041666666,-15.370728135108948L108.06485041666667,183.16272421181202L108.40990375,54.981028854846954L108.45919708333334,150.44341045618057L108.85354375,139.70725429058075L108.90283708333332,30.732826352119446L109.34647708333334,109.72757291793823L109.54365041666667,3.4942517280578613L109.64223708333333,120.26398551464081L109.69153041666668,134.38066944479942L109.79011708333333,176.3025802373886L110.03658374999999,159.363833963871L110.08587708333334,174.81315976381302L110.18446374999999,133.26286295056343L110.23375708333333,143.33888313174248L110.28305041666667,20.872965574264526L110.52951708333333,129.3886363506317L111.21962375000001,75.41141045093536L111.66326375,170.48921737074852L111.95902375,94.02111142873764L112.30407708333333,65.31268662214279L112.35337041666666,5.930884838104248L112.79701041666667,60.473391473293304L113.14206375,-48.19707977771759L113.58570375000001,136.0191511809826L113.73358375000001,187.67135529220104L114.07863708333333,154.11406910419464L114.17722375,156.58893021941185L114.37439708333333,141.85503834486008L114.86733041666668,64.6801283955574L114.91662375,8.222412943840027L115.06450375,167.22785738110542L115.31097041666666,182.30400516092777L115.50814375,141.61540514230728L116.14895708333333,120.74957138299942L116.24754375,45.01344180107117L116.29683708333333,92.02461469173431L116.59259708333333,-59.04965543746948L116.64189041666667,192.60533952713013L116.69118375,92.49893313646317L116.78977041666667,33.08455288410187L117.47987708333332,145.93838748335838L118.36715708333334,90.97428613901138L118.66291708333334,70.45459860563278L119.00797041666667,127.57756680250168L119.30373041666667,155.81288641691208L119.50090375,84.26954662799835L119.59949041666667,107.3602112531662L119.69807708333333,182.03846110403538L119.99383708333335,-41.35165572166443L120.14171708333333,86.19453531503677L120.24030375,161.73021975159645L120.38818375000001,121.87836045026779L120.53606375,153.3217360675335L120.68394375,107.79103195667267L121.12758375000001,85.36939698457718L121.22617041666666,150.6574123799801L121.81769041666666,83.43176937103271L121.86698374999999,116.71823912858963L121.91627708333334,104.46205687522888L122.60638374999999,114.47105276584625L122.80355708333333,95.64907479286194L123.00073041666666,178.05391819775105L123.19790375,131.4350979924202L123.24719708333333,22.59515118598938L123.39507708333333,175.29503202438354L123.49366375,141.1811134815216L123.59225041666666,159.93653136491776L123.98659708333334,30.823619842529297L124.08518375,115.14026176929474L124.23306375,53.77851623296738L124.38094375,96.62388628721237L124.52882375,78.5198267698288L124.62741041666666,71.98629301786423L124.77529041666668,87.33490830659866L124.92317041666666,118.96260863542557L125.71186375,44.92396706342697L126.05691708333333,132.20867836475372L126.30338375000001,137.09099650382996L126.35267708333333,125.05290430784225L126.40197041666666,177.6552434116602L126.50055708333333,26.25052285194397L126.54985041666667,26.453716278076172L126.64843708333332,44.08704435825348L126.74702375,132.88320457935333L126.94419708333334,134.73590978980064L127.14137041666666,180.15738952159882L127.38783708333332,176.83398485183716L127.48642375,56.242653250694275L127.83147708333334,146.71424666047096L127.93006375,167.5598191022873L127.97935708333333,119.22458678483963L128.22582375000002,-26.67062473297119L128.42299708333334,35.52287399768829L128.66946375,123.71640640497208L128.76805041666668,136.70181146264076L128.81734375,167.52227157354355L129.31027708333332,67.1115392446518L129.35957041666668,106.57037329673767L129.55674375,78.7102757692337L129.70462375,49.076635122299194L129.85250374999998,45.56443780660629L129.90179708333335,133.49367105960846L130.04967708333334,26.122529983520508L130.09897041666667,179.71720039844513L130.19755708333332,170.95415157079697L130.44402374999999,-208.74526977539062L130.49331708333335,84.64738512039185L130.83837041666666,142.2704401910305L130.88766375,88.75358033180237L131.08483708333333,114.40649718046188L131.18342375,82.2286975979805L131.28201041666668,103.71613866090775L131.47918375,73.25379377603531L131.97211708333333,139.11508682370186L132.07070375,111.51900887489319L132.16929041666666,-12.971442103385925L132.21858375,160.1295703947544L132.41575708333335,74.15714997053146L132.56363708333333,128.74653035402298L132.95798375,115.59587502479553L133.15515708333334,142.01438587903976L133.84526375,125.41201651096344L134.04243708333334,108.42119532823563L134.14102375000002,152.6144678592682L134.38749041666668,183.23537957668304L134.43678375,161.72847372293472L134.53537041666667,150.93745216727257L134.6339570833333,101.30453020334244L134.68325041666668,141.6172672212124L134.78183708333333,18.069676995277405L134.88042375,102.95932227373123L134.92971708333334,124.5484127998352L135.27477041666668,66.22847074270248L135.42265041666667,96.01531881093979L135.66911708333333,110.81978505849838L136.26063708333334,124.57575845718384L136.45781041666666,165.78319537639618L136.60569041666668,107.45540410280228L137.09862375,148.61873665452003L137.39438375,26.69254767894745L137.44367708333334,57.6286096572876L137.54226375000002,154.46445643901825L137.69014375,128.19357204437256L137.83802375,65.28552031517029L137.88731708333333,146.22180327773094L137.93661041666667,47.71924817562103L138.42954375,68.20231658220291L138.47883708333333,97.56816601753235L138.52813041666667,19.473294138908386L138.62671708333332,87.22616922855377L139.21823708333332,47.53504478931427L139.26753041666666,-59.45927059650421L139.31682375,101.85316300392151L139.36611708333334,141.86620554327965L139.76046374999999,58.22033929824829L140.20410375,154.30543595552444L141.04209041666667,181.42901270091534L141.73219708333335,191.0821959078312L141.92937041666667,150.80837792158127L141.97866375,190.97530572116375L142.07725041666666,155.4144120812416L142.47159708333334,152.76885160803795L142.57018375,128.07398754358292L142.76735708333334,114.60115563869476L143.26029041666666,176.72786217927933L143.65463708333334,179.59555864334106L143.70393041666668,110.57846385240555L144.24615708333334,7.33021867275238L144.64050375,188.34828954935074L144.93626375000002,127.1606615781784L144.98555708333333,133.93899804353714L145.08414375,175.78128254413605L145.18273041666666,-19.81011414527893L145.42919708333332,99.99165380001068L146.36577041666666,109.0066477060318L146.66153041666666,-8.098281383514404L146.71082374999997,18.108079075813293L147.20375708333336,150.33359000086784L147.30234375,173.73216757178307L147.45022375,150.8489902317524L147.49951708333333,77.82969707250595L147.54881041666667,37.11514663696289L148.04174375,-79.34572470188141L148.09103708333333,167.3961671590805L148.23891708333332,-17.278383135795593L148.53467708333332,136.59784626960754L148.78114375,165.47155299782753L148.87973041666666,-58.08848512172699L148.97831708333334,139.27398070693016L149.07690375,172.36583948135376L149.52054375,106.64544725418091L149.71771708333333,112.834332883358L149.91489041666668,70.41997343301773L150.01347708333333,21.515546321868896L150.16135708333331,160.50386935472488L150.60499708333336,123.79286241531372L150.65429041666667,96.8000505566597L150.85146375,151.18386375904083L151.14722375,105.08997309207916L151.24581041666667,4.944605469703674L151.83733041666667,34.7626394033432L151.88662375,134.7632079720497L151.93591708333332,134.7179642021656L151.98521041666666,158.80527886748314L152.13309041666668,13.774826288223267L152.33026375,176.9730605185032L152.62602375,79.01734471321106L152.67531708333334,124.68642818927765L152.82319708333333,2.0129653215408325L153.21754374999998,-55.32591962814331L153.46401041666667,156.06589704751968L153.61189041666665,172.52771374583244L153.75977041666667,81.43318372964859L153.80906375,77.27190685272217L154.10482375,162.13594195246696L154.20341041666666,163.2431720495224L154.4991704166667,134.6223229765892L154.64705041666667,-89.65951073169708L154.7949304166667,149.12128695845604L154.84422375,161.9761407673359L155.04139708333332,175.37670502066612L155.97797041666666,95.40282672643661L156.17514375,117.22498834133148L156.27373041666667,142.6637028157711L156.52019708333333,19.874342679977417L156.76666375000002,77.94106310606003L157.40747708333333,38.57047998905182L157.60465041666666,115.95207542181015L157.75253041666664,91.39985293149948L158.49193041666666,105.95811331272125L159.03415708333335,165.03871196508408L159.08345041666666,145.88782650232315L159.23133041666665,92.76560604572296L159.52709041666668,172.64486646652222L159.87214375,35.00845491886139L159.92143708333333,103.83286410570145L159.97073041666667,-210.9693832397461L160.02002374999998,73.61575448513031L160.06931708333332,66.41943669319153L160.11861041666668,-175.27342557907104L160.51295708333333,93.29408830404282L161.64670375,171.3702444434166L161.69599708333334,154.0263351202011L161.74529041666668,41.178192257881165L162.09034375000002,8.090495467185974L162.63257041666665,136.43450555205345L162.73115708333333,125.3929842710495L163.32267708333333,159.82668980956078L163.37197041666667,88.45984661579132L163.51985041666666,134.2784819304943L163.61843708333333,107.0565499663353L163.66773041666667,77.53478175401688L163.76631708333332,121.74076706171036L164.7028904166667,33.47484040260315L164.94935708333333,48.31062966585159L165.09723708333334,174.78524968028069L165.24511708333333,156.53508818149567L165.68875708333334,-7.548962831497192L165.73805041666665,116.55300468206406L166.03381041666665,-34.505303263664246L166.13239708333333,-29.044548511505127L166.18169041666664,101.51423299312592L166.47745041666667,104.87339168787003L166.62533041666669,156.0372590124607L166.67462375,175.85692092776299L166.92109041666666,167.34480437636375L167.01967708333333,147.86654645204544L167.11826375,129.68228566646576L167.26614375,155.65398725867271L167.70978374999999,121.06689494848251L167.95625041666668,112.54885983467102L168.05483708333333,133.33498817682266L168.10413041666666,115.74751049280167L168.15342375,147.9386400282383L168.69565041666667,-150.94157195091248L169.18858375,26.771018743515015L169.58293041666664,79.00317603349686L170.42091708333334,157.50201880931854L170.76597041666665,1.879802942276001L170.81526375,27.96688485145569L170.96314375,-67.76920652389526L171.45607708333333,116.68285435438156L171.75183708333333,44.92357671260834L171.94901041666668,148.03304690122604L172.19547708333332,-19.298121571540833L172.29406375,172.80731570720673L172.39265041666667,148.54327762126923L172.49123708333335,100.40453946590424L172.58982375,169.50580233335495L172.78699708333335,86.88558286428452L172.83629041666666,125.84696227312088L172.98417041666667,125.39274162054062L173.27993041666667,121.46599173545837L173.37851708333332,-28.04736042022705L173.52639708333334,11.489206194877625L173.92074375,167.2425799369812L174.01933041666666,99.21511942148209L174.06862375,154.6648752093315L174.11791708333334,134.48504081368446L174.51226375,6.979177236557007L175.25166375,136.14625257253647L175.35025041666665,109.14390349388123L175.44883708333333,13.654788136482239L175.54742375,178.62715364992619L175.64601041666666,152.87904131412506L176.08965041666664,86.2591542005539L176.28682375,69.51642733812332L176.92763708333334,114.73328411579132L177.12481041666666,13.20628559589386L178.06138375,76.29571330547333L178.80078375000002,-32.930986762046814L178.85007708333333,154.12182864546776L179.1458370833333,81.57414257526398L179.19513041666667,-102.7583338022232L179.29371708333335,81.38232207298279L179.44159708333333,151.91524931788445L179.68806375,137.77273365855217L179.83594374999998,101.12474727630615L179.88523708333332,145.7536935210228L179.98382375,-60.506887793540955L180.77251708333336,80.26905208826065L181.11757041666667,142.00051259994507L181.31474375,91.61691963672638L181.65979708333333,76.05261969566345L181.70909041666667,159.41786062717438L182.05414375,146.83258098363876L182.20202375,170.47632524371147L183.38506375,45.07719558477402L183.53294375000002,-153.67558908462524L183.87799708333333,89.7988132238388L184.0258770833333,140.3144027888775L184.07517041666665,122.59556150436401L184.17375708333336,146.59629741311073L184.22305041666667,53.05615621805191L184.56810375,69.4454151391983L184.66669041666668,73.15841102600098L185.20891708333332,-56.31690430641174L185.45538375,131.8388051390648L185.89902375,-20.76590394973755L185.99761041666665,103.98549127578735L186.09619708333335,119.48469758033752L186.29337041666665,20.62157964706421L186.4412504166667,180.23726637661457L187.08206375,84.627097427845L187.1313570833333,155.50503677129745L187.18065041666668,-10.795584440231323L187.47641041666665,159.78033301234245L187.87075708333333,106.13040572404861L188.16651708333333,169.42882937192917L188.21581041666667,133.5692514181137L188.26510374999998,127.78049647808075L188.46227708333333,132.06328850984573L188.70874375000002,100.85660791397095L189.0537970833333,12.865224480628967L189.44814374999999,186.44440618157387L189.64531708333334,90.69952136278152L189.8424904166667,88.66071903705597L189.94107708333334,145.7266116142273L190.23683708333334,153.7384830415249L190.38471708333333,-115.32332575321198L190.48330375,162.29716739058495L190.58189041666665,-71.2299724817276L190.68047708333333,117.81692898273468L190.82835708333334,141.562312155962L191.07482375,96.45808213949203L191.66634374999998,169.0527369081974L191.91281041666667,86.61208409070969L192.15927708333334,187.0986842662096L193.04655708333334,115.26232552528381L193.24373041666666,164.74575367569923L193.39161041666668,123.29642057418823L193.63807708333331,129.13058280944824L193.93383708333332,91.25338697433472L193.98313041666665,161.12071332335472L194.18030375,61.233320116996765L194.27889041666666,152.75860226154327L194.57465041666666,-24.277732014656067L194.62394375,26.38284122943878L194.91970375,81.69587928056717L195.26475708333334,79.87897557020187L195.56051708333334,160.89031666517258L195.70839708333332,167.80508601665497L196.00415708333335,-15.262970209121704L196.54638375,70.74055695533752L196.64497041666667,74.60451310873032L196.99002375,113.01032835245132L197.13790375000002,100.83241671323776L197.28578375,-41.03460645675659L197.38437041666666,133.6980566382408L197.63083708333335,162.14895540475845L198.41953041666667,-159.56127762794495L198.51811708333332,60.454665184020996L198.56741041666666,114.6105346083641L198.76458375,-156.20738339424133L198.81387708333332,-57.43470025062561L199.01105041666668,122.40752846002579L199.10963708333333,179.35242810845375L199.40539708333336,178.7221724241972L199.45469041666666,135.14998760819435L199.79974375,147.15893536806107L200.39126375,186.06261670589447L200.63773041666667,164.61107736825943L200.78561041666666,178.35820984840393L201.22925041666664,165.23426190018654L201.27854375,41.774985909461975L201.57430374999998,122.01234573125839L201.62359708333332,173.7705485522747L202.31370375,116.65113043785095L202.51087708333336,123.7086837887764L202.60946375,180.38790223002434L202.70805041666665,162.0851752460003L202.85593041666667,-0.40986835956573486L203.00381041666665,167.8919601738453L203.44745041666667,16.27746033668518L203.74321041666667,168.9039182960987L203.84179708333332,182.28962284326553L204.38402375,114.1963301897049L204.43331708333335,103.78534680604935L204.72907708333335,-55.592265486717224L205.07413041666666,116.00146007537842L206.25717041666667,50.81115370988846L206.40505041666665,167.29507157206535L206.55293041666667,74.62525445222855L206.65151708333335,164.18180751800537L207.68667708333334,148.3053851723671L207.83455708333335,82.28476041555405L208.03173041666665,152.9906816482544L208.08102374999999,56.62176829576492L208.13031708333332,128.6835572719574L208.42607708333333,79.9611496925354L208.57395708333334,-130.97424137592316L208.67254375000002,119.8909050822258L209.11618375,179.73057255148888L209.31335708333336,89.0744276046753L209.46123708333334,91.46966242790222L209.70770375,163.05857303738594L210.10205041666669,167.32581433653831L210.29922374999998,106.10731172561646L210.39781041666666,121.75813239812851L210.49639708333333,39.64919865131378L211.13721041666665,171.92713791131973L211.23579708333335,-26.385647535324097L211.38367708333334,174.88836559653282L211.97519708333334,179.9508517384529L212.17237041666667,11.388959884643555L212.41883708333333,4.298901915550232L212.51742375,181.56765845417976L213.01035708333333,18.009140968322754L213.10894375,109.16906529664993L213.20753041666669,78.54158091545105L213.84834375,94.18793892860413L214.14410375,154.7835787832737L214.63703708333335,174.08828356862068L214.88350375,65.8695695400238L215.22855708333333,150.53882485628128L215.37643708333331,101.24455332756042L215.47502375000002,91.41616326570511L216.46089041666664,82.92284685373306L216.51018374999998,85.51651704311371L216.55947708333335,141.46589022874832L216.80594374999998,116.57936918735504L216.90453041666666,177.11011585593224L217.20029041666666,175.72431242465973L217.39746375000001,176.94614213705063L217.79181041666666,72.96988213062286L217.84110375,101.10155832767487L218.0875704166667,165.9552398622036L218.13686375,130.51576906442642L218.33403708333333,25.37930202484131L218.87626375000002,147.87295559048653L219.17202375,149.31137198209763L219.46778375,164.9902451634407L219.61566375,13.434355974197388L220.15789041666667,147.3353792130947L220.35506375000003,90.94191867113113L220.55223708333332,104.61642479896545L220.65082375,158.81141898036003L220.89729041666666,163.41967391967773L221.09446375,125.74423670768738L221.34093041666665,88.246366918087L221.58739708333334,107.67223870754242L221.78457041666667,179.7244166135788L221.83386374999998,157.33302855491638L221.93245041666668,7.047098278999329L222.37609041666667,34.6935156583786L222.42538375,46.68156909942627L222.96761041666664,100.95033431053162L223.06619708333335,-66.18695640563965L223.11549041666666,109.86017614603043L223.46054375,163.85991579294205L223.55913041666668,-64.1429318189621L223.60842375,170.92801916599274L223.65771708333332,156.9443762898445L223.70701041666666,30.27016568183899L223.90418375000002,176.02124279737473L224.00277041666666,179.5349039286375L225.08722375,165.50059720873833L225.23510374999998,142.76255124807358L225.92521041666666,161.41106048226357L226.17167708333335,86.89394903182983L226.22097041666666,172.3301698565483L226.31955708333334,165.04736825823784L226.71390375,136.7040638923645L226.96037041666668,38.77363121509552L227.30542375000002,-23.019198775291443L228.68563708333332,150.66041386127472L229.03069041666666,34.29033601284027L229.57291708333335,104.58126157522202L229.81938375,86.19775307178497L230.26302375,29.48798704147339L230.31231708333334,17.268086314201355L230.80525041666667,148.88887524604797L230.85454375,-59.735132575035095L230.90383708333331,143.7433076798916L231.00242375,85.2949349284172L231.10101041666667,128.62637615203857L231.19959708333334,165.60033184289932L231.24889041666665,54.53194606304169L231.29818375,143.625833183527L231.39677041666667,78.3459307551384L232.28405041666667,148.9684118628502L232.5305170833333,21.93229329586029L232.77698375,40.501492738723755L232.92486375000001,101.91713833808899L233.07274375,-172.8172116279602L233.3192104166667,139.58141362667084L233.86143708333333,115.92583751678467L234.30507708333332,166.38455718755722L234.45295708333336,-40.97740423679352L234.50225041666667,88.17693722248077L234.94589041666669,93.32372331619263L235.2416504166667,20.599825501441956L235.98105041666668,-47.963882088661194L236.03034375000001,181.6699752062559L236.32610375,164.5974361896515L236.52327708333334,35.903603196144104L236.67115708333333,32.51525259017944L236.96691708333333,151.28648382425308L237.06550374999998,161.05183750391006L237.50914375000002,145.77858102321625L237.70631708333332,58.84048014879227L238.00207708333335,78.47332227230072L238.24854374999998,-11.858414769172668L238.74147708333334,-120.9396722316742L238.98794375,159.69029912352562L239.3329970833333,141.12189093232155L239.53017041666666,182.0733104646206L239.97381041666668,85.07058870792389L240.12169041666667,78.41521275043488L240.71321041666667,70.02776581048965L241.05826375,31.870266437530518L241.20614375,77.17198759317398L241.30473041666664,29.52695882320404L241.35402375,126.70429927110672L241.55119708333334,126.3340989947319L241.60049041666664,72.58594572544098L241.64978374999998,137.27244633436203L242.24130375000001,22.114281177520752L242.53706375000002,-82.83871042728424L242.58635708333333,101.26142281293869L242.68494375,137.06088146567345L242.93141041666667,145.21284663677216L242.98070375,-223.23986077308655L243.62151708333334,-159.15417337417603L243.96657041666666,102.7020388841629L244.45950375,26.932602882385254L244.75526375,11.10524868965149L244.95243708333334,134.73610496520996L245.10031708333332,56.360866248607635L245.49466374999997,138.59105667471886L245.59325041666668,99.71758532524109L246.23406375,78.6638451218605L246.43123708333334,123.8632732629776L246.48053041666665,148.84237602353096L247.41710375000002,111.24022454023361L247.46639708333333,-39.40808844566345L247.61427708333332,160.7928239107132L247.95933041666666,-116.7936190366745L248.05791708333334,57.728550016880035L248.45226375,161.28574204444885L248.5508504166667,173.62254229187965L248.60014375,52.264493107795715L249.2409570833333,105.33666425943375L249.33954375000002,141.3141387104988L249.38883708333336,111.19740200042725L249.78318375,176.63793379068375L249.83247708333334,92.84620821475983L249.98035708333333,38.04624938964844L250.07894375,134.6794513463974L250.52258375000002,121.27972054481506L250.67046375,111.90041327476501L250.76905041666666,40.796239256858826L250.86763708333334,110.25277411937714L251.45915708333334,98.66381746530533L252.29714374999998,73.52311474084854L252.54361041666667,87.29294031858444L253.03654375,119.08239358663559L253.33230375,178.08790509402752L253.67735708333333,-64.66640281677246L253.97311708333334,104.82070487737656L254.07170375,169.3762427866459L254.26887708333334,123.05425536632538L254.61393041666665,124.40490084886551L254.66322375000001,114.49032765626907L254.71251708333335,155.11421647667885L255.20545041666668,155.54404547810555L255.99414375,182.78607259690762L256.4870770833333,-41.294516801834106L256.73354375,167.86248341202736L256.78283708333333,146.63307479023933L256.88142375,-36.13243317604065L257.02930375,119.07635897397995L257.5222370833333,136.11307275295258L257.7194104166667,158.75591531395912L257.76870375,56.88775545358658L258.06446374999996,35.08833968639374L258.2616370833333,92.96143555641174L258.3109304166667,41.728776812553406L258.7052770833333,138.22208020091057L258.80386375,22.10854196548462L258.8531570833334,75.56962913274765L258.9024504166667,120.08176553249359L259.00103708333336,133.33414417505264L259.14891708333334,92.24160754680634L259.19821041666665,108.87148082256317L259.24750375,163.3711438179016L259.29679708333333,-3.9397791624069214L259.4939704166667,5.494725823402405L259.5925570833333,112.0530298948288L259.74043708333335,1.8156166076660156L259.78973041666666,-118.70901775360107L259.83902375,131.6564269065857L259.88831708333333,142.29397201538086L259.98690375,59.006948947906494L260.13478375,98.27629405260086L260.1840770833333,135.6737276315689L260.47983708333334,148.25070440769196L260.77559708333337,95.25192975997925L260.87418375,181.40567077696323L261.02206375,45.17292648553848L261.61358375000003,75.04980844259262L262.0079304166667,-77.0310709476471L262.05722375,116.0221381187439L262.10651708333336,162.9540170431137L262.40227708333333,17.696438312530518L262.74733041666667,-41.30945563316345L262.99379708333333,179.36141408979893L263.3388504166667,131.8115227818489L263.53602375,143.14656150341034L263.78249041666663,161.74621886014938L263.97966375,143.1750623881817L264.27542375,-10.162498712539673L264.3740104166667,143.7163945734501L264.5218904166667,66.83133065700531L264.76835708333334,89.7356607913971" style="fill: none;" fill="none"></path></g></g></g></g></g></g><g transform="translate(41, 177)" clip-path="url(#clip_1)"><clipPath id="clip_1"><rect width="288" height="23"></rect></clipPath><g><g><line x1="0" y1="0" x2="0" y2="5" style="visibility: inherit;" fill="rgb(0, 0, 0)" stroke="rgb(204, 204, 204)" stroke-width="1px"></line><line x1="24.069010416666664" y1="0" x2="24.069010416666664" y2="5" style="visibility: inherit;" fill="rgb(0, 0, 0)" stroke="rgb(204, 204, 204)" stroke-width="1px"></line><line x1="48.13802083333333" y1="0" x2="48.13802083333333" y2="5" style="visibility: inherit;" fill="rgb(0, 0, 0)" stroke="rgb(204, 204, 204)" stroke-width="1px"></line><line x1="72.20703125" y1="0" x2="72.20703125" y2="5" style="visibility: inherit;" fill="rgb(0, 0, 0)" stroke="rgb(204, 204, 204)" stroke-width="1px"></line><line x1="96.27604166666666" y1="0" x2="96.27604166666666" y2="5" style="visibility: inherit;" fill="rgb(0, 0, 0)" stroke="rgb(204, 204, 204)" stroke-width="1px"></line><line x1="120.34505208333334" y1="0" x2="120.34505208333334" y2="5" style="visibility: inherit;" fill="rgb(0, 0, 0)" stroke="rgb(204, 204, 204)" stroke-width="1px"></line><line x1="144.4140625" y1="0" x2="144.4140625" y2="5" style="visibility: inherit;" fill="rgb(0, 0, 0)" stroke="rgb(204, 204, 204)" stroke-width="1px"></line><line x1="168.48307291666669" y1="0" x2="168.48307291666669" y2="5" style="visibility: inherit;" fill="rgb(0, 0, 0)" stroke="rgb(204, 204, 204)" stroke-width="1px"></line><line x1="192.55208333333331" y1="0" x2="192.55208333333331" y2="5" style="visibility: inherit;" fill="rgb(0, 0, 0)" stroke="rgb(204, 204, 204)" stroke-width="1px"></line><line x1="216.62109375" y1="0" x2="216.62109375" y2="5" style="visibility: inherit;" fill="rgb(0, 0, 0)" stroke="rgb(204, 204, 204)" stroke-width="1px"></line><line x1="240.69010416666669" y1="0" x2="240.69010416666669" y2="5" style="visibility: inherit;" fill="rgb(0, 0, 0)" stroke="rgb(204, 204, 204)" stroke-width="1px"></line><line x1="264.7591145833333" y1="0" x2="264.7591145833333" y2="5" style="visibility: inherit;" fill="rgb(0, 0, 0)" stroke="rgb(204, 204, 204)" stroke-width="1px"></line><line x1="288.828125" y1="0" x2="288.828125" y2="5" style="visibility: inherit;" fill="rgb(0, 0, 0)" stroke="rgb(204, 204, 204)" stroke-width="1px"></line></g><g transform="translate(0, 8)"><text x="0" y="0" dx="0em" dy="0.95em" style="text-anchor: middle; visibility: hidden; font-family: Roboto, sans-serif; font-size: 12px; font-weight: 200;" fill="rgb(33, 33, 33)" stroke="none" stroke-width="1px">-1M</text><text x="24.069010416666664" y="0" dx="0em" dy="0.95em" style="text-anchor: middle; visibility: inherit; font-family: Roboto, sans-serif; font-size: 12px; font-weight: 200;" fill="rgb(33, 33, 33)" stroke="none" stroke-width="1px">0</text><text x="48.13802083333333" y="0" dx="0em" dy="0.95em" style="text-anchor: middle; visibility: hidden; font-family: Roboto, sans-serif; font-size: 12px; font-weight: 200;" fill="rgb(33, 33, 33)" stroke="none" stroke-width="1px">1M</text><text x="72.20703125" y="0" dx="0em" dy="0.95em" style="text-anchor: middle; visibility: inherit; font-family: Roboto, sans-serif; font-size: 12px; font-weight: 200;" fill="rgb(33, 33, 33)" stroke="none" stroke-width="1px">2M</text><text x="96.27604166666666" y="0" dx="0em" dy="0.95em" style="text-anchor: middle; visibility: hidden; font-family: Roboto, sans-serif; font-size: 12px; font-weight: 200;" fill="rgb(33, 33, 33)" stroke="none" stroke-width="1px">3M</text><text x="120.34505208333334" y="0" dx="0em" dy="0.95em" style="text-anchor: middle; visibility: inherit; font-family: Roboto, sans-serif; font-size: 12px; font-weight: 200;" fill="rgb(33, 33, 33)" stroke="none" stroke-width="1px">4M</text><text x="144.4140625" y="0" dx="0em" dy="0.95em" style="text-anchor: middle; visibility: hidden; font-family: Roboto, sans-serif; font-size: 12px; font-weight: 200;" fill="rgb(33, 33, 33)" stroke="none" stroke-width="1px">5M</text><text x="168.48307291666669" y="0" dx="0em" dy="0.95em" style="text-anchor: middle; visibility: inherit; font-family: Roboto, sans-serif; font-size: 12px; font-weight: 200;" fill="rgb(33, 33, 33)" stroke="none" stroke-width="1px">6M</text><text x="192.55208333333331" y="0" dx="0em" dy="0.95em" style="text-anchor: middle; visibility: hidden; font-family: Roboto, sans-serif; font-size: 12px; font-weight: 200;" fill="rgb(33, 33, 33)" stroke="none" stroke-width="1px">7M</text><text x="216.62109375" y="0" dx="0em" dy="0.95em" style="text-anchor: middle; visibility: inherit; font-family: Roboto, sans-serif; font-size: 12px; font-weight: 200;" fill="rgb(33, 33, 33)" stroke="none" stroke-width="1px">8M</text><text x="240.69010416666669" y="0" dx="0em" dy="0.95em" style="text-anchor: middle; visibility: hidden; font-family: Roboto, sans-serif; font-size: 12px; font-weight: 200;" fill="rgb(33, 33, 33)" stroke="none" stroke-width="1px">9M</text><text x="264.7591145833333" y="0" dx="0em" dy="0.95em" style="text-anchor: middle; visibility: inherit; font-family: Roboto, sans-serif; font-size: 12px; font-weight: 200;" fill="rgb(33, 33, 33)" stroke="none" stroke-width="1px">10M</text><text x="288.828125" y="0" dx="0em" dy="0.95em" style="text-anchor: middle; visibility: hidden; font-family: Roboto, sans-serif; font-size: 12px; font-weight: 200;" fill="rgb(33, 33, 33)" stroke="none" stroke-width="1px">11M</text></g><line x1="0" y1="0" x2="288.828125" y2="0" fill="rgb(0, 0, 0)" stroke="rgb(204, 204, 204)" stroke-width="1px"></line></g></g></g></g></svg>