<svg viewBox="0 0 330 200" xmlns="http://www.w3.org/2000/svg"><g><g><g><g><g><line x1="83.9375" y1="175" x2="78.9375" y2="175" style="visibility: inherit;" fill="rgb(0, 0, 0)" stroke="rgb(204, 204, 204)" stroke-width="1px"></line><line x1="83.9375" y1="155.55555555555554" x2="78.9375" y2="155.55555555555554" style="visibility: inherit;" fill="rgb(0, 0, 0)" stroke="rgb(204, 204, 204)" stroke-width="1px"></line><line x1="83.9375" y1="136.11111111111111" x2="78.9375" y2="136.11111111111111" style="visibility: inherit;" fill="rgb(0, 0, 0)" stroke="rgb(204, 204, 204)" stroke-width="1px"></line><line x1="83.9375" y1="116.66666666666669" x2="78.9375" y2="116.66666666666669" style="visibility: inherit;" fill="rgb(0, 0, 0)" stroke="rgb(204, 204, 204)" stroke-width="1px"></line><line x1="83.9375" y1="97.22222222222223" x2="78.9375" y2="97.22222222222223" style="visibility: inherit;" fill="rgb(0, 0, 0)" stroke="rgb(204, 204, 204)" stroke-width="1px"></line><line x1="83.9375" y1="77.77777777777777" x2="78.9375" y2="77.77777777777777" style="visibility: inherit;" fill="rgb(0, 0, 0)" stroke="rgb(204, 204, 204)" stroke-width="1px"></line><line x1="83.9375" y1="58.33333333333334" x2="78.9375" y2="58.33333333333334" style="visibility: inherit;" fill="rgb(0, 0, 0)" stroke="rgb(204, 204, 204)" stroke-width="1px"></line><line x1="83.9375" y1="38.888888888888886" x2="78.9375" y2="38.888888888888886" style="visibility: inherit;" fill="rgb(0, 0, 0)" stroke="rgb(204, 204, 204)" stroke-width="1px"></line><line x1="83.9375" y1="19.444444444444454" x2="78.9375" y2="19.444444444444454" style="visibility: inherit;" fill="rgb(0, 0, 0)" stroke="rgb(204, 204, 204)" stroke-width="1px"></line><line x1="83.9375" y1="0" x2="78.9375" y2="0" style="visibility: inherit;" fill="rgb(0, 0, 0)" stroke="rgb(204, 204, 204)" stroke-width="1px"></line></g><g transform="translate(73.9375, 0)"><text x="0" y="175" dx="0em" dy="0.3em" style="text-anchor: end; visibility: hidden; font-family: Roboto, sans-serif; font-size: 12px; font-weight: 200;" fill="rgb(33, 33, 33)" stroke="none" stroke-width="1px">1.01e+3</text><text x="0" y="155.55555555555554" dx="0em" dy="0.3em" style="text-anchor: end; visibility: inherit; font-family: Roboto, sans-serif; font-size: 12px; font-weight: 200;" fill="rgb(33, 33, 33)" stroke="none" stroke-width="1px">1.02e+3</text><text x="0" y="136.11111111111111" dx="0em" dy="0.3em" style="text-anchor: end; visibility: hidden; font-family: Roboto, sans-serif; font-size: 12px; font-weight: 200;" fill="rgb(33, 33, 33)" stroke="none" stroke-width="1px">1.03e+3</text><text x="0" y="116.66666666666669" dx="0em" dy="0.3em" style="text-anchor: end; visibility: inherit; font-family: Roboto, sans-serif; font-size: 12px; font-weight: 200;" fill="rgb(33, 33, 33)" stroke="none" stroke-width="1px">1.04e+3</text><text x="0" y="97.22222222222223" dx="0em" dy="0.3em" style="text-anchor: end; visibility: hidden; font-family: Roboto, sans-serif; font-size: 12px; font-weight: 200;" fill="rgb(33, 33, 33)" stroke="none" stroke-width="1px">1.05e+3</text><text x="0" y="77.77777777777777" dx="0em" dy="0.3em" style="text-anchor: end; visibility: inherit; font-family: Roboto, sans-serif; font-size: 12px; font-weight: 200;" fill="rgb(33, 33, 33)" stroke="none" stroke-width="1px">1.06e+3</text><text x="0" y="58.33333333333334" dx="0em" dy="0.3em" style="text-anchor: end; visibility: hidden; font-family: Roboto, sans-serif; font-size: 12px; font-weight: 200;" fill="rgb(33, 33, 33)" stroke="none" stroke-width="1px">1.07e+3</text><text x="0" y="38.888888888888886" dx="0em" dy="0.3em" style="text-anchor: end; visibility: inherit; font-family: Roboto, sans-serif; font-size: 12px; font-weight: 200;" fill="rgb(33, 33, 33)" stroke="none" stroke-width="1px">1.08e+3</text><text x="0" y="19.444444444444454" dx="0em" dy="0.3em" style="text-anchor: end; visibility: hidden; font-family: Roboto, sans-serif; font-size: 12px; font-weight: 200;" fill="rgb(33, 33, 33)" stroke="none" stroke-width="1px">1.09e+3</text><text x="0" y="0" dx="0em" dy="0.3em" style="text-anchor: end; visibility: hidden; font-family: Roboto, sans-serif; font-size: 12px; font-weight: 200;" fill="rgb(33, 33, 33)" stroke="none" stroke-width="1px">1.1e+3</text></g><line x1="83.9375" y1="0" x2="83.9375" y2="175" fill="rgb(0, 0, 0)" stroke="rgb(204, 204, 204)" stroke-width="1px"></line></g></g><g transform="translate(83, 0)" clip-path="url(#clip_0)"><clipPath id="clip_0"><rect width="246" height="175"></rect></clipPath><g><g><g><line x1="0" y1="0" x2="0" y2="175" fill="rgb(0, 0, 0)" stroke="rgb(66, 66, 66)" stroke-width="1px" opacity="0.25"></line><line x1="20.505208333333332" y1="0" x2="20.505208333333332" y2="175" fill="rgb(0, 0, 0)" stroke="rgb(66, 66, 66)" stroke-width="1px" opacity="0.25"></line><line x1="41.010416666666664" y1="0" x2="41.010416666666664" y2="175" fill="rgb(0, 0, 0)" stroke="rgb(66, 66, 66)" stroke-width="1px" opacity="0.25"></line><line x1="61.515625" y1="0" x2="61.515625" y2="175" fill="rgb(0, 0, 0)" stroke="rgb(66, 66, 66)" stroke-width="1px" opacity="0.25"></line><line x1="82.02083333333333" y1="0" x2="82.02083333333333" y2="175" fill="rgb(0, 0, 0)" stroke="rgb(66, 66, 66)" stroke-width="1px" opacity="0.25"></line><line x1="102.52604166666667" y1="0" x2="102.52604166666667" y2="175" fill="rgb(0, 0, 0)" stroke="rgb(66, 66, 66)" stroke-width="1px" opacity="0.25"></line><line x1="123.03125" y1="0" x2="123.03125" y2="175" fill="rgb(0, 0, 0)" stroke="rgb(66, 66, 66)" stroke-width="1px" opacity="0.25"></line><line x1="143.53645833333334" y1="0" x2="143.53645833333334" y2="175" fill="rgb(0, 0, 0)" stroke="rgb(66, 66, 66)" stroke-width="1px" opacity="0.25"></line><line x1="164.04166666666666" y1="0" x2="164.04166666666666" y2="175" fill="rgb(0, 0, 0)" stroke="rgb(66, 66, 66)" stroke-width="1px" opacity="0.25"></line><line x1="184.546875" y1="0" x2="184.546875" y2="175" fill="rgb(0, 0, 0)" stroke="rgb(66, 66, 66)" stroke-width="1px" opacity="0.25"></line><line x1="205.05208333333334" y1="0" x2="205.05208333333334" y2="175" fill="rgb(0, 0, 0)" stroke="rgb(66, 66, 66)" stroke-width="1px" opacity="0.25"></line><line x1="225.55729166666666" y1="0" x2="225.55729166666666" y2="175" fill="rgb(0, 0, 0)" stroke="rgb(66, 66, 66)" stroke-width="1px" opacity="0.25"></line><line x1="246.0625" y1="0" x2="246.0625" y2="175" fill="rgb(0, 0, 0)" stroke="rgb(66, 66, 66)" stroke-width="1px" opacity="0.25"></line></g><g><line x1="0" y1="175" x2="246.0625" y2="175" fill="rgb(0, 0, 0)" stroke="rgb(66, 66, 66)" stroke-width="1px" opacity="0.25"></line><line x1="0" y1="155.55555555555554" x2="246.0625" y2="155.55555555555554" fill="rgb(0, 0, 0)" stroke="rgb(66, 66, 66)" stroke-width="1px" opacity="0.25"></line><line x1="0" y1="136.11111111111111" x2="246.0625" y2="136.11111111111111" fill="rgb(0, 0, 0)" stroke="rgb(66, 66, 66)" stroke-width="1px" opacity="0.25"></line><line x1="0" y1="116.66666666666669" x2="246.0625" y2="116.66666666666669" fill="rgb(0, 0, 0)" stroke="rgb(66, 66, 66)" stroke-width="1px" opacity="0.25"></line><line x1="0" y1="97.22222222222223" x2="246.0625" y2="97.22222222222223" fill="rgb(0, 0, 0)" stroke="rgb(66, 66, 66)" stroke-width="1px" opacity="0.25"></line><line x1="0" y1="77.77777777777777" x2="246.0625" y2="77.77777777777777" fill="rgb(0, 0, 0)" stroke="rgb(66, 66, 66)" stroke-width="1px" opacity="0.25"></line><line x1="0" y1="58.33333333333334" x2="246.0625" y2="58.33333333333334" fill="rgb(0, 0, 0)" stroke="rgb(66, 66, 66)" stroke-width="1px" opacity="0.25"></line><line x1="0" y1="38.888888888888886" x2="246.0625" y2="38.888888888888886" fill="rgb(0, 0, 0)" stroke="rgb(66, 66, 66)" stroke-width="1px" opacity="0.25"></line><line x1="0" y1="19.444444444444454" x2="246.0625" y2="19.444444444444454" fill="rgb(0, 0, 0)" stroke="rgb(66, 66, 66)" stroke-width="1px" opacity="0.25"></line><line x1="0" y1="0" x2="246.0625" y2="0" fill="rgb(0, 0, 0)" stroke="rgb(66, 66, 66)" stroke-width="1px" opacity="0.25"></line></g></g></g><g><g><line x1="0" y1="2138.8888888888887" x2="246.0625" y2="2138.8888888888887" fill="rgb(0, 0, 0)" stroke="rgb(153, 153, 153)" stroke-width="1.5px"></line></g></g><g><g><line x1="20.505208333333332" y1="0" x2="20.505208333333332" y2="175" fill="rgb(0, 0, 0)" stroke="rgb(153, 153, 153)" stroke-width="1.5px"></line></g></g><g><g><g><g><g><path stroke="rgb(255, 112, 67)" stroke-width="2px" d="M24.494701666666668,-2.4539784639900697L24.704675,7.861323398718312L24.914648333333332,17.93923734015436L25.124621666666666,26.31920825825312L25.334595,31.347120217447973L25.54456833333333,34.3638419804023L25.754541666666668,35.39608590071788L25.964515000000002,36.01543037469747L26.174488333333333,36.38703638293122L26.384461666666667,36.60999974445676L26.594434999999997,36.743777673743104L26.80440833333333,36.82404439976848L27.01438166666667,36.87220442402691L27.224355,36.90110043449346L27.434328333333333,36.14066022438344L27.644301666666667,35.684396121557775L27.854274999999998,35.41063766822869L28.064248333333335,35.2463825992432L28.27422166666667,35.14782955893615L28.484195,34.31091995447584L28.694168333333334,33.808774193789L28.904141666666664,33.507486738092595L29.114114999999998,33.32671426493258L29.324088333333336,32.440473002977356L29.534061666666666,32.68650602407965L29.744035,32.0563480587832L29.954008333333334,31.67825327967485L30.163981666666665,31.451396412235297L30.373955,31.315282291780402L30.583928333333336,31.23361381951074L30.793901666666663,31.18461273615044L31.003875,30.37743430835039L31.213848333333335,30.670905029456L31.423821666666665,30.06920968433886L31.633795000000003,29.70819247726954L31.84376833333333,29.491582153028475L32.05374166666667,29.36161595848376L32.263715,29.283636241756554L32.473688333333335,29.236848411720686L32.683661666666666,28.430997935921223L32.893634999999996,27.94748765044143L33.103608333333334,27.657381479154115L33.313581666666664,27.483317776381448L33.523555,27.378879554717763L33.73352833333334,27.31621662171955L33.94350166666666,27.2786188619207L34.153475,27.25606020604131L34.36344833333333,27.242525012513404L34.57342166666667,27.234403896397012L34.783395000000006,27.22953122672701L34.99336833333333,27.22660762492537L35.20334166666667,27.22485346384367L35.413315,26.446023189417478L35.623288333333335,25.97872502476125L35.833261666666665,25.698346125967763L36.043235,25.530118786691858L36.25320833333333,25.42918238312641L36.463181666666664,25.368620540987134L36.673155,25.332283435703474L36.88312833333333,25.31048117253338L37.09310166666667,25.297399814631312L37.303075,25.289550999889723L37.51304833333333,24.507063933267172L37.72302166666667,24.03757169329355L37.932995,23.755876349309553L38.142968333333336,23.586859142919057L38.352941666666666,23.485448819084674L38.562915,23.42460262478388L38.772888333333334,23.388094908203314L38.982861666666665,23.366190278255143L39.192835,23.353047500286337L39.40280833333333,23.3451618335054L39.61278166666666,23.340430433436392L39.822755,23.33759159339517L40.03272833333333,23.335888289370438L40.24270166666667,23.33486630695524L40.452675,23.334253117506663L40.66264833333334,23.333885203837145L40.87262166666667,23.333664455635457L41.082595,23.33353200671442L41.292568333333335,23.333452537361907L41.502541666666666,23.333404855750747L41.712515,23.33337624678343L41.922488333333334,23.33335908140322L42.132461666666664,23.333348782175445L42.342435,23.333342602638513L42.55240833333333,23.333338894916167L42.76238166666667,23.33333667028304L42.972355,23.3333353355028L43.18232833333333,23.33333453463493L43.39230166666667,23.33333405411419L43.602275,23.33333376580186L43.812248333333336,23.333333592814448L44.02222166666667,23.333333489021655L44.232195,23.333333426746155L44.44216833333333,23.333333389381206L44.652141666666665,23.333333366961963L44.862115,23.333333353510593L45.07208833333333,23.333333345439343L45.28206166666667,23.333333340596845L45.492034999999994,23.333333337691716L45.70200833333333,23.333333335948012L45.91198166666667,23.33333333490196L46.121955,23.333333334274155L46.33192833333334,23.333333333897464L46.54190166666667,23.333333333671995L46.751875,23.33333333353671L46.961848333333336,23.33333333345536L47.171821666666666,23.33333333340673L47.381795000000004,23.33333333337755L47.591768333333334,23.333333333359867L47.801741666666665,23.33333333334924L48.011714999999995,23.333333333343063L48.22168833333333,23.33333333333908L48.43166166666667,23.333333333336864L48.641635,23.333333333335098L48.85160833333333,23.33333333333422L49.06158166666666,23.333333333333776L49.271555,23.33333333333333L49.48152833333334,23.33333333333333L49.69150166666667,23.33333333333333L49.901475000000005,23.33333333333333L50.11144833333333,23.33333333333333L50.321421666666666,23.33333333333333L50.531394999999996,23.33333333333333L50.741368333333334,23.33333333333333L50.95134166666667,23.33333333333333L51.161315,23.33333333333333L51.37128833333333,23.33333333333333L51.58126166666666,23.33333333333333L51.791235,23.33333333333333L52.00120833333334,22.55555555555537L52.21118166666667,22.86666666666621L52.421155,22.275555555555364L52.63112833333333,22.698666666666817L52.84110166666667,22.95253333333361L53.051075000000004,23.104853333333676L53.261048333333335,23.19624533333354L53.47102166666667,23.251080533333628L53.680994999999996,23.283981653333345L53.89096833333333,23.30372232533352L54.100941666666664,23.315566728533348L54.310915,23.322673370453604L54.52088833333334,23.326937355605402L54.73086166666666,23.329495746696313L54.940835,23.331030781350936L55.15080833333333,23.33195180214381L55.36078166666667,23.332504414619535L55.570755000000005,23.332835982104953L55.780728333333336,23.333034922596315L55.990701666666666,23.333154286890863L56.200675,23.3332259054675L56.410648333333334,23.33326887661365L56.620621666666665,23.333294659301167L56.830595,23.33331012891387L57.04056833333333,23.333319410681817L57.25054166666666,23.33332497974261L57.460515,23.3333283211789L57.67048833333333,23.333330326040848L57.88046166666667,23.333331528957494L58.09043500000001,23.33333225070747L58.30040833333333,23.33333268375782L58.51038166666667,23.333332943588196L58.720355,23.33333309948608L58.930328333333335,23.33333319302488L59.140301666666666,23.333333249148357L59.350274999999996,23.333333282822533L59.560248333333334,23.333333303026766L59.770221666666664,23.33333331514912L59.980195,23.333333322422813L60.19016833333333,23.333333326786935L60.40014166666667,23.33333332940558L60.610115,23.333333330976856L60.82008833333333,23.333333331919448L61.03006166666667,23.333333332484905L61.240035,23.33333333282402L61.45000833333334,23.33333333302738L61.65998166666667,22.555555555371903L61.869955,22.088888888778612L62.07992833333333,21.808888888822807L62.28990166666667,21.640888888849506L62.499875,22.31786666664322L62.70984833333333,21.946275555541387L62.91982166666667,21.723320888880394L63.129795,21.589548088883877L63.33976833333333,21.509284408886057L63.54974166666666,21.46112620088711L63.75971500000001,21.432231276087727L63.96968833333333,21.4148943212082L64.17966166666666,21.40449214828039L64.38963500000001,21.398250844524046L64.59960833333334,21.394506062270064L64.80958166666666,21.392259192917507L65.019555,21.390911071305894L65.22952833333333,21.39010219833917L65.43950166666667,21.38961687455915L65.649475,21.389325680290963L65.85944833333333,21.389150963729858L66.06942166666667,21.389046133793393L66.279395,21.388983235831848L66.48936833333335,21.388945497054753L66.69934166666667,21.388922853788152L66.90931499999999,21.388909267828357L67.11928833333333,21.38890111625257L67.32926166666667,21.38889622530718L67.539235,21.388893290740036L67.74920833333333,21.388891529999672L67.95918166666667,21.388890473555445L68.169155,21.38888983968873L68.37912833333333,21.38888945936906L68.58910166666666,21.388889231176908L68.799075,21.3888890942617L69.00904833333334,21.388889012112667L69.21902166666666,21.38888896282298L69.428995,21.38888893324943L69.63896833333334,21.388888915505127L69.84894166666666,21.388888904858536L70.058915,21.38888889847041L70.26888833333334,21.38888889463771L70.47886166666666,21.38888889233828L70.688835,21.388888890958437L70.89880833333333,21.38888889013036L71.10878166666667,21.388888889633854L71.318755,21.38888888933587L71.52872833333333,21.388888889156814L71.73870166666667,21.38888888904982L71.948675,21.388888888985278L72.15864833333333,21.38888888894681L72.36862166666667,21.388888888923375L72.578595,21.38888888890966L72.78856833333333,21.388888888901267L72.99854166666667,21.38888888889641L73.208515,21.3888888888933L73.41848833333333,21.388888888891533L73.62846166666667,21.38888888889066L73.838435,21.388888888889763L74.04840833333333,21.388888888889337L74.25838166666666,21.38888888888889L74.468355,21.38888888888889L74.67832833333334,21.38888888888889L74.88830166666666,21.38888888888889L75.098275,21.38888888888889L75.30824833333334,21.38888888888889L75.51822166666666,21.38888888888889L75.728195,21.38888888888889L75.93816833333334,21.38888888888889L76.14814166666666,21.38888888888889L76.358115,21.38888888888889L76.56808833333334,21.38888888888889L76.77806166666667,21.38888888888889L76.988035,21.38888888888889L77.19800833333333,21.38888888888889L77.40798166666667,20.611111111110933L77.617955,20.144444444444687L77.82792833333333,19.86444444444468L78.03790166666667,19.69644444444486L78.24787500000001,19.59564444444468L78.45784833333333,19.53516444444442L78.66782166666665,19.49887644444477L78.877795,19.477103644444476L79.08776833333333,19.46403996444455L79.29774166666667,19.45620175644459L79.507715,19.451498831644535L79.71768833333333,19.448677076764323L79.92766166666667,19.446984023836453L80.137635,19.44596819207965L80.34760833333334,19.445358693025575L80.55758166666666,19.44499299359286L80.76755499999999,19.444773573933585L80.97752833333334,19.44464192213793L81.18750166666666,19.444562931060617L81.397475,19.444515536414237L81.60744833333334,19.444487099626595L81.81742166666668,19.444470037553728L82.027395,19.4444598003101L82.23736833333332,19.444453657963933L82.44734166666667,19.44444997255648L82.657315,19.444447761311498L82.86728833333333,19.444446434564505L83.07726166666667,19.44444563851656L83.287235,19.444445160887717L83.49720833333333,19.44444487431068L83.70718166666667,19.444444702364013L83.91715500000001,19.444444599196366L84.12712833333333,19.444444537295762L84.33710166666665,19.444444500155413L84.547075,19.444444477871027L84.75704833333333,19.44444446450058L84.96702166666667,19.44444445647794L85.176995,19.44444445166464L85.38696833333333,19.44444444877628L85.59694166666667,19.444444447043633L85.80691499999999,19.444444446004226L86.01688833333334,19.4444444453804L86.22686166666666,19.444444445005928L86.436835,19.444444444781332L86.64680833333334,19.44444444464694L86.85678166666666,19.44444444456602L87.066755,19.44444444451739L87.27672833333334,19.444444444488205L87.48670166666668,19.444444444470975L87.696675,19.444444444460366L87.90664833333332,19.444444444454167L88.11662166666667,19.44444444445063L88.326595,19.44444444444799L88.53656833333334,19.44444444444665L88.74654166666667,19.444444444445775L88.956515,19.444444444445327L89.16648833333333,19.444444444445327L89.37646166666666,18.66666666666737L89.58643500000001,18.200000000000248L89.79640833333333,17.92000000000024L90.00638166666666,17.751999999999956L90.21635500000001,17.651199999999797L90.42632833333333,17.590719999999962L90.63630166666667,17.554431999999885L90.84627499999999,17.53265920000002L91.05624833333334,17.519595520000113L91.26622166666667,17.51175731200015L91.47619499999999,17.507054387200096L91.68616833333334,17.504232632319887L91.89614166666667,17.502539579392014L92.106115,17.50152374763521L92.31608833333334,17.500914248581118L92.52606166666666,17.50054854914885L92.736035,17.500329129489128L92.94600833333332,17.500197477693472L93.15598166666668,17.500118486616177L93.365955,17.500071091969797L93.57592833333332,17.50004265518169L93.78590166666667,17.50002559310884L93.995875,17.500015355865216L94.20584833333334,17.50000921351905L94.41582166666666,17.500005528111593L94.625795,17.50000331686704L94.83576833333333,17.500001990120047L95.04574166666666,17.50000119407212L95.25571500000001,17.500000716443278L95.46568833333333,17.500000429865796L95.67566166666667,17.500000257919556L95.88563500000001,17.50000015475191L96.09560833333333,17.500000092851327L96.30558166666667,17.500000055710977L96.51555499999999,17.500000033426588L96.72552833333334,17.500000020056124L96.93550166666667,17.5000000120335L97.14547499999999,17.500000007220184L97.35544833333334,17.500000004332293L97.56542166666667,17.500000002599194L97.775395,17.50000000155934L97.98536833333333,17.50000000093552L98.19534166666666,17.500000000561492L98.405315,17.500000000336893L98.61528833333332,17.500000000202036L98.82526166666668,17.500000000121137L99.035235,17.500000000072504L99.24520833333332,17.500000000043322L99.45518166666668,17.500000000026088L99.665155,17.500000000015483L99.87512833333334,17.500000000009283L100.08510166666666,17.50000000000575L100.29507500000001,17.50000000000353L100.50504833333333,17.50000000000221L100.71502166666666,17.500000000001318L100.92499500000001,17.500000000000888L101.13496833333333,17.500000000000444L101.34494166666667,17.500000000000444L101.554915,17.500000000000444L101.76488833333333,17.500000000000444L101.97486166666667,17.500000000000444L102.18483499999999,17.500000000000444L102.39480833333334,17.500000000000444L102.60478166666667,17.500000000000444L102.81475499999999,17.500000000000444L103.02472833333333,17.500000000000444L103.23470166666667,17.500000000000444L103.444675,17.500000000000444L103.65464833333333,17.500000000000444L103.86462166666666,17.500000000000444L104.074595,17.500000000000444L104.28456833333333,17.500000000000444L104.49454166666668,17.500000000000444L104.704515,17.500000000000444L104.91448833333334,17.500000000000444L105.12446166666666,17.500000000000444L105.334435,17.500000000000444L105.54440833333334,17.500000000000444L105.75438166666666,17.500000000000444L105.96435500000001,17.500000000000444L106.17432833333334,17.500000000000444L106.38430166666666,17.500000000000444L106.594275,17.500000000000444L106.80424833333333,17.500000000000444L107.01422166666667,17.500000000000444L107.224195,17.500000000000444L107.43416833333333,17.500000000000444L107.64414166666667,17.500000000000444L107.854115,17.500000000000444L108.06408833333334,17.500000000000444L108.27406166666667,17.500000000000444L108.48403499999999,17.500000000000444L108.69400833333333,17.500000000000444L108.90398166666667,17.500000000000444L109.113955,17.500000000000444L109.32392833333333,17.500000000000444L109.53390166666668,17.500000000000444L109.743875,17.500000000000444L109.95384833333333,17.500000000000444L110.16382166666666,18.277777777777953L110.373795,18.744444444444646L110.58376833333334,19.024444444444654L110.79374166666666,19.19244444444492L111.003715,20.071022222222588L111.21368833333334,20.598168888889116L111.42366166666666,20.914456888888754L111.63363500000001,21.104229688888907L111.84360833333334,21.218093368888972L112.05358166666666,22.064189354666727L112.263555,22.57184694613355L112.47352833333333,22.876441501013637L112.68350166666667,23.0591982339417L112.893475,23.946630051476134L113.10344833333333,24.47908914199679L113.31342166666667,25.576342374086867L113.523395,27.01247209111879L113.73336833333333,27.87414992133802L113.94334166666667,29.168934397247433L114.153315,29.945805082792905L114.36328833333333,31.189705271897875L114.57326166666667,32.71382316313856L114.783235,33.62829389788305L114.99320833333333,34.9547541165076L115.20318166666667,36.528408025460195L115.413155,37.47260037083176L115.62312833333333,38.81689355583231L115.83310166666666,40.4012472446104L116.043075,42.12963723565495L116.25304833333334,43.944449008059735L116.46302166666666,45.811113849280275L116.672995,47.70889053179012L116.88296833333334,49.62533431907407L117.09294166666666,52.33075614700017L117.302915,54.7317870215338L117.51288833333334,56.17240554625344L117.72286166666666,57.81455443886316L117.932835,58.799843774429014L118.14280833333333,59.391017375768335L118.35278166666667,60.52349931434971L118.562755,61.202988477498366L118.77272833333333,62.38845975316578L118.98270166666667,63.09974251856596L119.192675,64.30428995558411L119.40264833333333,65.02701841779482L119.61262166666667,65.46065549512126L119.822595,66.49861551929507L120.03256833333333,67.12139153379925L120.24254166666667,67.49505714250151L120.452515,68.4970342855009L120.66248833333333,69.09822057130037L120.87246166666667,69.45893234278022L121.082435,69.67535940566823L121.29240833333333,70.58299342117898L121.50238166666666,71.12757383048499L121.712355,71.45432207606859L121.92232833333334,71.6503710234191L122.13230166666666,71.76800039182915L122.342275,71.83857801287527L122.55224833333334,72.6587023632808L122.76222166666666,73.15077697352422L122.972195,73.44602173967L123.18216833333334,73.62316859935738L123.39214166666666,73.72945671517017L123.602115,74.57100736243535L123.81208833333334,75.07593775079437L124.02206166666666,75.37889598380994L124.232035,75.56067092361913L124.44200833333335,75.66973588750481L124.65198166666666,75.73517486583613L124.861955,76.55221603061287L125.07192833333335,77.04244072947883L125.28190166666666,77.3365755487985L125.49187500000001,77.51305644038995L125.70184833333334,77.61894497534526L125.91182166666665,77.68247809631835L126.121795,78.49837574667991L126.33176833333334,78.9879143368969L126.54174166666667,79.28163749102686L126.751715,79.45787138350492L126.96168833333333,79.56361171899175L127.17166166666667,80.40483369806137L127.381635,80.90956688550312L127.59160833333333,81.2124067979682L127.80158166666666,81.39411074544759L128.01155500000002,81.50313311393487L128.2215283333333,81.5685465350275L128.43150166666666,81.60779458768326L128.641475,82.4091211970543L128.85144833333334,82.88991716267712L129.06142166666666,83.17839474205054L129.271395,83.35148128967477L129.48136833333334,83.45533321824948L129.69134166666666,83.51764437539404L129.90131499999998,84.33280884745847L130.11128833333333,84.82190753069713L130.3212616666667,85.11536674064051L130.53123499999998,85.29144226660644L130.74120833333333,86.17486535996395L130.95118166666668,86.70491921597811L131.16115499999998,87.02295152958703L131.37112833333333,87.21377091775241L131.58110166666668,87.32826255065143L131.79107499999998,87.39695753039085L132.00104833333333,88.21595229601239L132.21102166666668,88.7073491553853L132.420995,89.0021872710088L132.63096833333333,89.17909014038285L132.84094166666668,89.28523186200759L133.050915,89.3489168949826L133.26088833333333,90.16490569254529L133.47086166666665,90.65449897108238L133.680835,90.9482549382049L133.89080833333333,91.12450851847875L134.10078166666665,91.23026066664264L134.310755,91.29371195554106L134.52072833333335,91.33178272887992L134.73070166666665,92.1324029706611L134.940675,92.6127751157299L135.15064833333335,92.9009984027712L135.36062166666665,93.07393237499613L135.570595,93.17769275833093L135.78056833333335,93.23994898833172L135.99054166666667,93.27730272633245L136.200515,94.07749274691058L136.41048833333335,94.55760675925754L136.62046166666667,94.84567516666573L136.830435,95.01851621111055L137.04040833333332,95.12222083777753L137.25038166666667,95.18444361377753L137.460355,95.9995550571553L137.67032833333332,96.48862192318208L137.88030166666667,96.78206204279832L138.09027500000002,96.9581261145677L138.30024833333331,97.0637645576297L138.51022166666667,97.12714762346687L138.72019500000002,97.16517746296884L138.9301683333333,97.96577314444814L139.14014166666666,98.44613055333538L139.35011500000002,98.7343449986679L139.56008833333334,98.90727366586741L139.77006166666666,99.01103086618693L139.98003500000002,99.07328518637881L140.19000833333334,99.11063777849405L140.39998166666666,99.91082711154063L140.60995499999999,100.39094071136861L140.81992833333334,100.67900887126554L141.02990166666666,100.85184976720377L141.23987499999998,100.95555430476679L141.44984833333334,101.01777702730442L141.6598216666667,101.05511066082703L141.86979499999998,101.85528861871843L142.07976833333333,102.33539539345328L142.28974166666669,102.62345945829402L142.49971499999998,102.79629789719846L142.70968833333333,102.90000096054112L142.91966166666668,102.96222279854672L143.129635,102.99955590135033L143.33960833333333,103.02195576303232L143.54958166666668,103.81317345781959L143.759555,104.28790407469174L143.96952833333333,104.57274244481513L144.17950166666665,104.74364546688909L144.389475,104.84618728013346L144.59944833333333,104.90771236807998L144.80942166666665,104.94462742084781L145.019395,105.74455423028627L145.22936833333335,106.22451031594954L145.43934166666665,106.51248396734785L145.649315,106.68526815818683L145.85928833333335,106.7889386726899L146.06926166666665,106.8511409813919L146.279235,106.8884623666131L146.48920833333335,106.910855197746L146.69918166666665,106.92429089642536L146.909155,107.71013009341085L147.11912833333335,108.18163361160234L147.32910166666667,108.46453572251714L147.539075,108.63427698906592L147.74904833333332,108.73612174899536L147.95902166666667,108.7972286049526L148.168995,108.83389271852694L148.37896833333332,108.8558911866718L148.58894166666667,108.86909026755892L148.79891500000002,109.6547874938685L149.00888833333332,110.12620582965408L149.21886166666667,110.40905683112543L149.42883500000002,110.57876743200823L149.63880833333332,110.68059379253845L149.84878166666667,110.74168960885623L150.05875500000002,110.7783470986467L150.2687283333333,110.80034159252136L150.47870166666667,110.8135382888458L150.68867500000002,110.82145630664046L150.89864833333334,111.60398489509538L151.10862166666666,112.07350204816845L151.318595,112.35521234001224L151.52856833333334,112.52423851511848L151.73854166666666,112.62565422018218L151.948515,112.6865036432205L152.15848833333334,112.72301329704325L152.3684616666667,112.74491908933688L152.57843499999998,112.75806256471323L152.78840833333334,113.54372642771676L152.9983816666667,114.01512474551876L153.20835499999998,114.29796373620023L153.41832833333333,114.46766713060912L153.6283016666667,114.56948916725436L153.83827499999998,114.6305823892416L154.04824833333333,114.66723832243368L154.25822166666666,114.68923188234909L154.468195,114.70242801829835L154.67816833333333,115.48812347764567L154.88814166666666,115.9595407532538L155.098115,116.24239111861912L155.30808833333333,116.41210133783822L155.51806166666665,116.51392746936986L155.728035,116.57502314828876L155.93800833333333,116.61168055563974L156.14798166666665,116.63367500005053L156.357955,116.64687166669707L156.56792833333336,116.65478966668462L156.77790166666665,116.65954046667747L156.987875,116.66239094667316L157.19784833333335,117.44187901244851L157.40782166666665,117.90957185191373L157.617795,118.19018755559259L157.82776833333332,118.35855697779974L158.03774166666668,118.45957863112429L158.247715,118.52019162311902L158.45768833333332,118.55655941831603L158.66766166666667,118.57838009543407L158.877635,118.59147250170469L159.08760833333332,118.59932794546745L159.29758166666667,118.6040412117248L159.507555,119.38464694925712L159.71752833333332,119.85301039177658L159.92750166666667,120.13402845728781L160.13747500000002,120.30263929659492L160.34744833333332,120.40380580017882L160.55742166666667,120.46450570232915L160.76739500000002,120.5009256436199L160.97736833333332,120.52277760839407L161.18734166666667,120.53588878725891L161.397315,120.54375549457758L161.60728833333334,120.54847551896842L161.81726166666667,120.55130753360343L162.027235,121.33078452016208L162.23720833333334,121.79847071209741L162.44718166666667,122.07908242725846L162.657155,122.24744945635508L162.86712833333334,122.34846967381321L163.07710166666666,122.40908180428801L163.287075,122.4454490825729L163.49704833333334,122.46726944954382L163.7070216666667,122.48036166972628L163.916995,122.48821700183585L164.12696833333334,122.4929302011017L164.3369416666667,122.49575812066111L164.54691499999998,123.27523265017443L164.75688833333334,123.74291736788236L164.96686166666666,124.02352819850738L165.176835,124.19189469688237L165.38680833333333,124.29291459590728L165.59678166666666,124.35352653532233L165.806755,124.3898936989711L166.01672833333333,124.41171399716035L166.22670166666666,124.42480617607399L166.436675,124.43266148342198L166.64664833333333,124.43737466783097L166.85662166666665,124.44020257847644L167.066595,124.44189932486356L167.27656833333336,124.44291737269593L167.48654166666665,125.22130597917302L167.696515,125.6883391430592L167.90648833333336,125.96855904139117L168.11646166666665,126.13669098039014L168.326435,126.23757014378965L168.53640833333333,126.29809764182943L168.74638166666665,126.33441414065348L168.956355,126.35620403994747L169.16632833333333,126.36927797952403L169.37630166666668,126.3771223432698L169.586275,126.38182896151761L169.79624833333332,126.3846529324663L170.00622166666668,126.38634731503568L170.216195,127.16514172235458L170.42616833333332,127.63241836674625L170.63614166666667,127.91278435338116L170.84611500000003,128.0810039453623L171.05608833333332,128.18193570055078L171.26606166666667,128.2424947536638L171.47603500000002,128.27883018553152L171.68600833333332,128.30063144465208L171.89598166666667,128.3137122001245L172.105955,128.32156065340794L172.31592833333332,128.3262697253781L172.52590166666667,129.1068729463378L172.735875,129.57523487891396L172.94584833333334,129.85625203845942L173.15582166666667,130.02486233418685L173.365795,130.12602851162305L173.57576833333334,130.1867282180851L173.78574166666667,130.22314804196236L173.995715,130.24499993628854L174.20568833333334,130.25811107288405L174.41566166666667,130.26597775484117L174.625635,130.27069776401575L174.83560833333334,130.27352976952062L175.04558166666666,131.05300675060144L175.255555,131.52069293924967L175.46552833333334,131.80130465243886L175.67550166666666,131.96967168035238L175.88547499999999,132.0706918971005L176.09544833333334,132.1313040271491L176.30542166666666,132.16767130517843L176.515395,132.18949167199597L176.72536833333334,132.20258389208647L176.93534166666666,132.21043922414077L177.145315,132.21515242337344L177.35528833333333,132.9957581206909L177.56526166666666,133.46412153908102L177.775235,133.7451395901152L177.98520833333333,133.9137504207356L178.19518166666666,134.01491691910786L178.405155,134.07561681813155L178.61512833333333,134.1120367575455L178.82510166666665,134.13388872119407L179.035075,134.14699989938293L179.24504833333333,134.1548666062966L179.45502166666665,134.15958663044472L179.664995,134.1624186449334L179.87496833333333,134.9418956314045L180.08494166666668,135.40958182328723L180.294915,135.69019353841688L180.50488833333333,135.85856056749446L180.71486166666668,135.95958078494115L180.924835,136.0201929154093L181.13480833333332,136.05656019369022L181.34478166666668,136.07838056065893L181.554755,136.0914727808396L181.76472833333332,136.0993281129483L181.97470166666668,136.1040413122137L182.184675,136.88464700955063L182.39464833333332,137.35301042795268L182.60462166666667,137.6340284789939L182.814595,137.80263930961874L183.02456833333332,137.90380580799365L183.23454166666667,137.96450570701825L183.444515,138.00092564643307L183.65448833333335,138.02277761008207L183.86446166666667,138.03588878827136L184.074435,138.04375549518505L184.28440833333335,138.04847551933315L184.49438166666667,138.05130753382187L184.704355,138.0530067425154L184.91432833333334,138.831804045509L185.12430166666667,139.2990824273053L185.334275,139.5794494563831L185.54424833333334,139.74766967382985L185.75422166666667,139.8486018042979L185.964195,139.90916108257858L186.17416833333334,139.94549664954707L186.38414166666666,139.96729798972814L186.594115,139.9803787938368L186.80408833333334,139.98822727630207L187.01406166666666,139.99293636578133L187.224035,139.9957618194686L187.43400833333334,140.77523486945887L187.64398166666666,141.24291869945327L187.853955,141.52352899744983L188.06392833333334,141.69189517624784L188.27390166666666,141.7929148835264L188.483875,141.8535267078937L188.69384833333334,141.88989380251408L188.90382166666666,141.91171405928642L189.113795,141.92480621334963L189.32376833333333,141.93266150578773L189.53374166666666,141.9373746812505L189.743715,141.94020258652827L189.95368833333333,141.94189932969456L190.16366166666666,141.94291737559442L190.373635,142.7213059809123L190.58360833333333,143.18833914410303L190.79358166666665,143.46855904201718L191.003555,143.63669098076596L191.21352833333333,143.7375701440151L191.42350166666668,143.79809764196474L191.633475,143.8344141407344L191.84344833333333,143.8562040399961L192.05342166666668,143.86927797955323L192.263395,143.87712234328748L192.47336833333333,143.8818289615282L192.68334166666668,143.8846529324725L192.893315,143.88634731503925L193.10328833333332,144.66514172235722L193.31326166666668,145.13241836674803L193.523235,145.4127843533825L193.73320833333332,145.5810039453632L193.94318166666667,145.68193570055124L194.153155,145.74249475366426L194.36312833333332,145.77883018553197L194.57310166666667,145.8006314446525L194.783075,145.81371220012494L194.99304833333335,145.8215606534084L195.20302166666667,145.8262697253781L195.412995,145.82909516856026L195.62296833333335,145.83079043446978L195.83294166666664,145.8318075940152L196.042915,146.61019566752032L196.25288833333335,147.07722851162305L196.46286166666667,147.35744821808484L196.672835,147.5255800419623L196.88280833333334,147.6264591362883L197.09278166666667,147.68698659288418L197.302755,147.72330306684188L197.51272833333334,147.74509295121624L197.72270166666667,147.75816688184085L197.932675,147.7660112402158L198.14264833333334,147.77071785524058L198.35262166666666,147.7735418242555L198.56259500000002,147.7752362056643L198.77256833333334,147.7762528345098L198.98254166666666,147.77686281181698L199.19251500000001,148.55500657597895L199.4024883333333,149.02189283447618L199.61246166666666,149.30202458957453L199.822435,149.47010364263363L200.0324083333333,149.57095107446892L200.24238166666666,149.6314595335702L200.452355,149.66776460903105L200.66232833333333,149.68954765430757L200.87230166666666,149.70261748147337L201.082275,149.71045937777288L201.29224833333333,149.71516451555257L201.50222166666666,149.71798759822028L201.712195,149.71968144782105L201.92216833333333,149.72069775758138L202.13214166666668,149.72130754343775L202.342115,149.72167341495154L202.55208833333333,150.49967071563754L202.76206166666668,150.9664690960491L202.97203499999998,151.24654812429597L203.18200833333333,151.41459554124424L203.39198166666668,151.51542399141312L203.60195499999998,151.57592106151463L203.81192833333333,151.6122193035756L204.02190166666668,151.63399824881222L204.231875,151.64706561595398L204.44184833333333,151.65490603623923L204.65182166666668,151.65961028841014L204.861795,151.66243283971272L205.07176833333332,151.6641263704945L205.28174166666668,151.6651424889632L205.491715,151.6657521600444L205.70168833333332,151.6661179626934L205.91166166666667,152.4441152220604L206.121635,152.9109135776808L206.33160833333335,153.1909925910531L206.54158166666664,153.35903999907637L206.751555,153.45986844389034L206.96152833333335,153.52036551077856L207.17150166666664,153.5566637509115L207.381475,153.5784426949915L207.59144833333335,153.59151006143918L207.80142166666667,153.59935048130797L208.011395,153.60405473322902L208.22136833333334,153.60687728438177L208.43134166666667,153.60857081507334L208.641315,153.60958693348852L208.85128833333334,153.61019660453746L209.06126166666667,153.610562407167L209.271235,154.38855966652253L209.48120833333334,154.85535802213582L209.69118166666667,155.1354370355037L209.90115500000002,155.30348444352458L210.1111283333333,155.40431288833702L210.32110166666666,155.46480995522455L210.53107500000002,155.50110819535706L210.7410483333333,155.52288713943642L210.95102166666666,155.53595450588406L211.160995,155.54379492575262L211.37096833333334,155.54849917767393L211.58094166666666,155.55132172882668L211.790915,155.55301525951822L212.00088833333334,155.5540313779332L212.21086166666666,155.55464104898215L212.420835,156.3327846293892L212.63080833333333,156.79967077763342L212.84078166666666,157.07980246658005L213.050755,157.24788147994798L213.26072833333333,157.34872888796875L213.47070166666668,157.4092373327813L213.68067499999998,157.44554239966885L213.89064833333333,157.46732543980136L214.10062166666668,157.48039526388078L214.31059499999998,157.48823715832845L214.52056833333333,157.49294229499714L214.73054166666668,157.49576537699835L214.940515,157.49745922619897L215.15048833333333,157.49847553571948L215.36046166666668,157.49908532143172L215.570435,157.49945119285908L215.78040833333333,157.4996707157154L215.99038166666668,157.49980242942934L216.200355,158.27765923543532L216.41032833333333,158.74437331903897L216.62030166666668,159.02440176920106L216.830275,159.19241883929837L217.04024833333335,159.2932290813568L217.25022166666665,159.35371522659182L217.460195,159.39000691373286L217.67016833333335,159.41178192601737L217.88014166666665,159.42484693338812L218.090115,159.43268593781067L218.30008833333335,159.4373893404642L218.51006166666664,159.44021138205628L218.720035,159.4419046070115L218.93000833333335,159.4429205419846L219.13998166666667,159.44353010296845L219.349955,159.44389583955876L219.55992833333335,159.44411528151304L219.76990166666667,160.22202472446352L219.979875,160.68877039023366L220.18984833333332,160.96881778969558L220.39982166666667,161.13684622937274L220.60979500000002,161.23766329317928L220.81976833333331,161.29815353146302L221.02974166666667,161.33444767443356L221.23971500000002,161.3562241602158L221.4496883333333,161.36929005168483L221.65966166666666,161.37712958656664L221.86963500000002,161.38183330749553L222.0796083333333,161.3846555400528L222.28958166666666,161.38634887958733L222.49955500000002,161.38736488330804L222.70952833333334,161.38797448554038L222.91950166666666,161.38834024687986L223.129475,161.38855970368348L223.33944833333334,161.38869137776572L223.54942166666666,161.38877038221483L223.75939499999998,162.16659556266222L223.96936833333334,162.63329067093076L224.17934166666666,162.91330773589198L224.38931499999998,163.0813179748685L224.59928833333333,163.18212411825425L224.80926166666669,163.2426078042858L225.01923499999998,163.2788980159049L225.22920833333333,163.30067214287635L225.43918166666668,163.31373661905906L225.64915499999998,163.32157530476877" style="fill: none;" fill="none"></path></g></g></g></g><g opacity="0.2"><g><g><g><path stroke="rgb(255, 112, 67)" stroke-width="2px" d="M24.074755,-7.777777777777789L24.28472833333333,1.9444444444444375L24.494701666666668,17.499999999999996L24.704675,23.33333333333333L24.914648333333332,33.05555555555556L25.124621666666666,38.888888888888886L25.334595,38.888888888888886L25.54456833333333,38.888888888888886L25.754541666666668,36.94444444444445L25.964515000000002,36.94444444444445L26.174488333333333,36.94444444444445L26.384461666666667,36.94444444444445L26.594434999999997,36.94444444444445L26.80440833333333,36.94444444444445L27.01438166666667,36.94444444444445L27.224355,36.94444444444445L27.434328333333333,34.99999999999999L27.644301666666667,34.99999999999999L27.854274999999998,34.99999999999999L28.064248333333335,34.99999999999999L28.27422166666667,34.99999999999999L28.484195,33.05555555555556L28.694168333333334,33.05555555555556L28.904141666666664,33.05555555555556L29.114114999999998,33.05555555555556L29.324088333333336,31.111111111111118L29.534061666666666,33.05555555555556L29.744035,31.111111111111118L29.954008333333334,31.111111111111118L30.163981666666665,31.111111111111118L30.373955,31.111111111111118L30.583928333333336,31.111111111111118L30.793901666666663,31.111111111111118L31.003875,29.16666666666666L31.213848333333335,31.111111111111118L31.423821666666665,29.16666666666666L31.633795000000003,29.16666666666666L31.84376833333333,29.16666666666666L32.05374166666667,29.16666666666666L32.263715,29.16666666666666L32.473688333333335,29.16666666666666L32.683661666666666,27.22222222222222L32.893634999999996,27.22222222222222L33.103608333333334,27.22222222222222L33.313581666666664,27.22222222222222L33.523555,27.22222222222222L33.73352833333334,27.22222222222222L33.94350166666666,27.22222222222222L34.153475,27.22222222222222L34.36344833333333,27.22222222222222L34.57342166666667,27.22222222222222L34.783395000000006,27.22222222222222L34.99336833333333,27.22222222222222L35.20334166666667,27.22222222222222L35.413315,25.277777777777786L35.623288333333335,25.277777777777786L35.833261666666665,25.277777777777786L36.043235,25.277777777777786L36.25320833333333,25.277777777777786L36.463181666666664,25.277777777777786L36.673155,25.277777777777786L36.88312833333333,25.277777777777786L37.09310166666667,25.277777777777786L37.303075,25.277777777777786L37.51304833333333,23.33333333333333L37.72302166666667,23.33333333333333L37.932995,23.33333333333333L38.142968333333336,23.33333333333333L38.352941666666666,23.33333333333333L38.562915,23.33333333333333L38.772888333333334,23.33333333333333L38.982861666666665,23.33333333333333L39.192835,23.33333333333333L39.40280833333333,23.33333333333333L39.61278166666666,23.33333333333333L39.822755,23.33333333333333L40.03272833333333,23.33333333333333L40.24270166666667,23.33333333333333L40.452675,23.33333333333333L40.66264833333334,23.33333333333333L40.87262166666667,23.33333333333333L41.082595,23.33333333333333L41.292568333333335,23.33333333333333L41.502541666666666,23.33333333333333L41.712515,23.33333333333333L41.922488333333334,23.33333333333333L42.132461666666664,23.33333333333333L42.342435,23.33333333333333L42.55240833333333,23.33333333333333L42.76238166666667,23.33333333333333L42.972355,23.33333333333333L43.18232833333333,23.33333333333333L43.39230166666667,23.33333333333333L43.602275,23.33333333333333L43.812248333333336,23.33333333333333L44.02222166666667,23.33333333333333L44.232195,23.33333333333333L44.44216833333333,23.33333333333333L44.652141666666665,23.33333333333333L44.862115,23.33333333333333L45.07208833333333,23.33333333333333L45.28206166666667,23.33333333333333L45.492034999999994,23.33333333333333L45.70200833333333,23.33333333333333L45.91198166666667,23.33333333333333L46.121955,23.33333333333333L46.33192833333334,23.33333333333333L46.54190166666667,23.33333333333333L46.751875,23.33333333333333L46.961848333333336,23.33333333333333L47.171821666666666,23.33333333333333L47.381795000000004,23.33333333333333L47.591768333333334,23.33333333333333L47.801741666666665,23.33333333333333L48.011714999999995,23.33333333333333L48.22168833333333,23.33333333333333L48.43166166666667,23.33333333333333L48.641635,23.33333333333333L48.85160833333333,23.33333333333333L49.06158166666666,23.33333333333333L49.271555,23.33333333333333L49.48152833333334,23.33333333333333L49.69150166666667,23.33333333333333L49.901475000000005,23.33333333333333L50.11144833333333,23.33333333333333L50.321421666666666,23.33333333333333L50.531394999999996,23.33333333333333L50.741368333333334,23.33333333333333L50.95134166666667,23.33333333333333L51.161315,23.33333333333333L51.37128833333333,23.33333333333333L51.58126166666666,23.33333333333333L51.791235,23.33333333333333L52.00120833333334,21.38888888888889L52.21118166666667,23.33333333333333L52.421155,21.38888888888889L52.63112833333333,23.33333333333333L52.84110166666667,23.33333333333333L53.051075000000004,23.33333333333333L53.261048333333335,23.33333333333333L53.47102166666667,23.33333333333333L53.680994999999996,23.33333333333333L53.89096833333333,23.33333333333333L54.100941666666664,23.33333333333333L54.310915,23.33333333333333L54.52088833333334,23.33333333333333L54.73086166666666,23.33333333333333L54.940835,23.33333333333333L55.15080833333333,23.33333333333333L55.36078166666667,23.33333333333333L55.570755000000005,23.33333333333333L55.780728333333336,23.33333333333333L55.990701666666666,23.33333333333333L56.200675,23.33333333333333L56.410648333333334,23.33333333333333L56.620621666666665,23.33333333333333L56.830595,23.33333333333333L57.04056833333333,23.33333333333333L57.25054166666666,23.33333333333333L57.460515,23.33333333333333L57.67048833333333,23.33333333333333L57.88046166666667,23.33333333333333L58.09043500000001,23.33333333333333L58.30040833333333,23.33333333333333L58.51038166666667,23.33333333333333L58.720355,23.33333333333333L58.930328333333335,23.33333333333333L59.140301666666666,23.33333333333333L59.350274999999996,23.33333333333333L59.560248333333334,23.33333333333333L59.770221666666664,23.33333333333333L59.980195,23.33333333333333L60.19016833333333,23.33333333333333L60.40014166666667,23.33333333333333L60.610115,23.33333333333333L60.82008833333333,23.33333333333333L61.03006166666667,23.33333333333333L61.240035,23.33333333333333L61.45000833333334,23.33333333333333L61.65998166666667,21.38888888888889L61.869955,21.38888888888889L62.07992833333333,21.38888888888889L62.28990166666667,21.38888888888889L62.499875,23.33333333333333L62.70984833333333,21.38888888888889L62.91982166666667,21.38888888888889L63.129795,21.38888888888889L63.33976833333333,21.38888888888889L63.54974166666666,21.38888888888889L63.75971500000001,21.38888888888889L63.96968833333333,21.38888888888889L64.17966166666666,21.38888888888889L64.38963500000001,21.38888888888889L64.59960833333334,21.38888888888889L64.80958166666666,21.38888888888889L65.019555,21.38888888888889L65.22952833333333,21.38888888888889L65.43950166666667,21.38888888888889L65.649475,21.38888888888889L65.85944833333333,21.38888888888889L66.06942166666667,21.38888888888889L66.279395,21.38888888888889L66.48936833333335,21.38888888888889L66.69934166666667,21.38888888888889L66.90931499999999,21.38888888888889L67.11928833333333,21.38888888888889L67.32926166666667,21.38888888888889L67.539235,21.38888888888889L67.74920833333333,21.38888888888889L67.95918166666667,21.38888888888889L68.169155,21.38888888888889L68.37912833333333,21.38888888888889L68.58910166666666,21.38888888888889L68.799075,21.38888888888889L69.00904833333334,21.38888888888889L69.21902166666666,21.38888888888889L69.428995,21.38888888888889L69.63896833333334,21.38888888888889L69.84894166666666,21.38888888888889L70.058915,21.38888888888889L70.26888833333334,21.38888888888889L70.47886166666666,21.38888888888889L70.688835,21.38888888888889L70.89880833333333,21.38888888888889L71.10878166666667,21.38888888888889L71.318755,21.38888888888889L71.52872833333333,21.38888888888889L71.73870166666667,21.38888888888889L71.948675,21.38888888888889L72.15864833333333,21.38888888888889L72.36862166666667,21.38888888888889L72.578595,21.38888888888889L72.78856833333333,21.38888888888889L72.99854166666667,21.38888888888889L73.208515,21.38888888888889L73.41848833333333,21.38888888888889L73.62846166666667,21.38888888888889L73.838435,21.38888888888889L74.04840833333333,21.38888888888889L74.25838166666666,21.38888888888889L74.468355,21.38888888888889L74.67832833333334,21.38888888888889L74.88830166666666,21.38888888888889L75.098275,21.38888888888889L75.30824833333334,21.38888888888889L75.51822166666666,21.38888888888889L75.728195,21.38888888888889L75.93816833333334,21.38888888888889L76.14814166666666,21.38888888888889L76.358115,21.38888888888889L76.56808833333334,21.38888888888889L76.77806166666667,21.38888888888889L76.988035,21.38888888888889L77.19800833333333,21.38888888888889L77.40798166666667,19.444444444444454L77.617955,19.444444444444454L77.82792833333333,19.444444444444454L78.03790166666667,19.444444444444454L78.24787500000001,19.444444444444454L78.45784833333333,19.444444444444454L78.66782166666665,19.444444444444454L78.877795,19.444444444444454L79.08776833333333,19.444444444444454L79.29774166666667,19.444444444444454L79.507715,19.444444444444454L79.71768833333333,19.444444444444454L79.92766166666667,19.444444444444454L80.137635,19.444444444444454L80.34760833333334,19.444444444444454L80.55758166666666,19.444444444444454L80.76755499999999,19.444444444444454L80.97752833333334,19.444444444444454L81.18750166666666,19.444444444444454L81.397475,19.444444444444454L81.60744833333334,19.444444444444454L81.81742166666668,19.444444444444454L82.027395,19.444444444444454L82.23736833333332,19.444444444444454L82.44734166666667,19.444444444444454L82.657315,19.444444444444454L82.86728833333333,19.444444444444454L83.07726166666667,19.444444444444454L83.287235,19.444444444444454L83.49720833333333,19.444444444444454L83.70718166666667,19.444444444444454L83.91715500000001,19.444444444444454L84.12712833333333,19.444444444444454L84.33710166666665,19.444444444444454L84.547075,19.444444444444454L84.75704833333333,19.444444444444454L84.96702166666667,19.444444444444454L85.176995,19.444444444444454L85.38696833333333,19.444444444444454L85.59694166666667,19.444444444444454L85.80691499999999,19.444444444444454L86.01688833333334,19.444444444444454L86.22686166666666,19.444444444444454L86.436835,19.444444444444454L86.64680833333334,19.444444444444454L86.85678166666666,19.444444444444454L87.066755,19.444444444444454L87.27672833333334,19.444444444444454L87.48670166666668,19.444444444444454L87.696675,19.444444444444454L87.90664833333332,19.444444444444454L88.11662166666667,19.444444444444454L88.326595,19.444444444444454L88.53656833333334,19.444444444444454L88.74654166666667,19.444444444444454L88.956515,19.444444444444454L89.16648833333333,19.444444444444454L89.37646166666666,17.499999999999996L89.58643500000001,17.499999999999996L89.79640833333333,17.499999999999996L90.00638166666666,17.499999999999996L90.21635500000001,17.499999999999996L90.42632833333333,17.499999999999996L90.63630166666667,17.499999999999996L90.84627499999999,17.499999999999996L91.05624833333334,17.499999999999996L91.26622166666667,17.499999999999996L91.47619499999999,17.499999999999996L91.68616833333334,17.499999999999996L91.89614166666667,17.499999999999996L92.106115,17.499999999999996L92.31608833333334,17.499999999999996L92.52606166666666,17.499999999999996L92.736035,17.499999999999996L92.94600833333332,17.499999999999996L93.15598166666668,17.499999999999996L93.365955,17.499999999999996L93.57592833333332,17.499999999999996L93.78590166666667,17.499999999999996L93.995875,17.499999999999996L94.20584833333334,17.499999999999996L94.41582166666666,17.499999999999996L94.625795,17.499999999999996L94.83576833333333,17.499999999999996L95.04574166666666,17.499999999999996L95.25571500000001,17.499999999999996L95.46568833333333,17.499999999999996L95.67566166666667,17.499999999999996L95.88563500000001,17.499999999999996L96.09560833333333,17.499999999999996L96.30558166666667,17.499999999999996L96.51555499999999,17.499999999999996L96.72552833333334,17.499999999999996L96.93550166666667,17.499999999999996L97.14547499999999,17.499999999999996L97.35544833333334,17.499999999999996L97.56542166666667,17.499999999999996L97.775395,17.499999999999996L97.98536833333333,17.499999999999996L98.19534166666666,17.499999999999996L98.405315,17.499999999999996L98.61528833333332,17.499999999999996L98.82526166666668,17.499999999999996L99.035235,17.499999999999996L99.24520833333332,17.499999999999996L99.45518166666668,17.499999999999996L99.665155,17.499999999999996L99.87512833333334,17.499999999999996L100.08510166666666,17.499999999999996L100.29507500000001,17.499999999999996L100.50504833333333,17.499999999999996L100.71502166666666,17.499999999999996L100.92499500000001,17.499999999999996L101.13496833333333,17.499999999999996L101.34494166666667,17.499999999999996L101.554915,17.499999999999996L101.76488833333333,17.499999999999996L101.97486166666667,17.499999999999996L102.18483499999999,17.499999999999996L102.39480833333334,17.499999999999996L102.60478166666667,17.499999999999996L102.81475499999999,17.499999999999996L103.02472833333333,17.499999999999996L103.23470166666667,17.499999999999996L103.444675,17.499999999999996L103.65464833333333,17.499999999999996L103.86462166666666,17.499999999999996L104.074595,17.499999999999996L104.28456833333333,17.499999999999996L104.49454166666668,17.499999999999996L104.704515,17.499999999999996L104.91448833333334,17.499999999999996L105.12446166666666,17.499999999999996L105.334435,17.499999999999996L105.54440833333334,17.499999999999996L105.75438166666666,17.499999999999996L105.96435500000001,17.499999999999996L106.17432833333334,17.499999999999996L106.38430166666666,17.499999999999996L106.594275,17.499999999999996L106.80424833333333,17.499999999999996L107.01422166666667,17.499999999999996L107.224195,17.499999999999996L107.43416833333333,17.499999999999996L107.64414166666667,17.499999999999996L107.854115,17.499999999999996L108.06408833333334,17.499999999999996L108.27406166666667,17.499999999999996L108.48403499999999,17.499999999999996L108.69400833333333,17.499999999999996L108.90398166666667,17.499999999999996L109.113955,17.499999999999996L109.32392833333333,17.499999999999996L109.53390166666668,17.499999999999996L109.743875,17.499999999999996L109.95384833333333,17.499999999999996L110.16382166666666,19.444444444444454L110.373795,19.444444444444454L110.58376833333334,19.444444444444454L110.79374166666666,19.444444444444454L111.003715,21.38888888888889L111.21368833333334,21.38888888888889L111.42366166666666,21.38888888888889L111.63363500000001,21.38888888888889L111.84360833333334,21.38888888888889L112.05358166666666,23.33333333333333L112.263555,23.33333333333333L112.47352833333333,23.33333333333333L112.68350166666667,23.33333333333333L112.893475,25.277777777777786L113.10344833333333,25.277777777777786L113.31342166666667,27.22222222222222L113.523395,29.16666666666666L113.73336833333333,29.16666666666666L113.94334166666667,31.111111111111118L114.153315,31.111111111111118L114.36328833333333,33.05555555555556L114.57326166666667,34.99999999999999L114.783235,34.99999999999999L114.99320833333333,36.94444444444445L115.20318166666667,38.888888888888886L115.413155,38.888888888888886L115.62312833333333,40.83333333333332L115.83310166666666,42.77777777777778L116.043075,44.72222222222222L116.25304833333334,46.66666666666668L116.46302166666666,48.611111111111114L116.672995,50.55555555555555L116.88296833333334,52.50000000000001L117.09294166666666,56.388888888888886L117.302915,58.33333333333334L117.51288833333334,58.33333333333334L117.72286166666666,60.27777777777778L117.932835,60.27777777777778L118.14280833333333,60.27777777777778L118.35278166666667,62.222222222222214L118.562755,62.222222222222214L118.77272833333333,64.16666666666667L118.98270166666667,64.16666666666667L119.192675,66.11111111111111L119.40264833333333,66.11111111111111L119.61262166666667,66.11111111111111L119.822595,68.05555555555554L120.03256833333333,68.05555555555554L120.24254166666667,68.05555555555554L120.452515,70L120.66248833333333,70L120.87246166666667,70L121.082435,70L121.29240833333333,71.94444444444444L121.50238166666666,71.94444444444444L121.712355,71.94444444444444L121.92232833333334,71.94444444444444L122.13230166666666,71.94444444444444L122.342275,71.94444444444444L122.55224833333334,73.8888888888889L122.76222166666666,73.8888888888889L122.972195,73.8888888888889L123.18216833333334,73.8888888888889L123.39214166666666,73.8888888888889L123.602115,75.83333333333334L123.81208833333334,75.83333333333334L124.02206166666666,75.83333333333334L124.232035,75.83333333333334L124.44200833333335,75.83333333333334L124.65198166666666,75.83333333333334L124.861955,77.77777777777777L125.07192833333335,77.77777777777777L125.28190166666666,77.77777777777777L125.49187500000001,77.77777777777777L125.70184833333334,77.77777777777777L125.91182166666665,77.77777777777777L126.121795,79.72222222222223L126.33176833333334,79.72222222222223L126.54174166666667,79.72222222222223L126.751715,79.72222222222223L126.96168833333333,79.72222222222223L127.17166166666667,81.66666666666667L127.381635,81.66666666666667L127.59160833333333,81.66666666666667L127.80158166666666,81.66666666666667L128.01155500000002,81.66666666666667L128.2215283333333,81.66666666666667L128.43150166666666,81.66666666666667L128.641475,83.6111111111111L128.85144833333334,83.6111111111111L129.06142166666666,83.6111111111111L129.271395,83.6111111111111L129.48136833333334,83.6111111111111L129.69134166666666,83.6111111111111L129.90131499999998,85.55555555555556L130.11128833333333,85.55555555555556L130.3212616666667,85.55555555555556L130.53123499999998,85.55555555555556L130.74120833333333,87.5L130.95118166666668,87.5L131.16115499999998,87.5L131.37112833333333,87.5L131.58110166666668,87.5L131.79107499999998,87.5L132.00104833333333,89.44444444444444L132.21102166666668,89.44444444444444L132.420995,89.44444444444444L132.63096833333333,89.44444444444444L132.84094166666668,89.44444444444444L133.050915,89.44444444444444L133.26088833333333,91.38888888888887L133.47086166666665,91.38888888888887L133.680835,91.38888888888887L133.89080833333333,91.38888888888887L134.10078166666665,91.38888888888887L134.310755,91.38888888888887L134.52072833333335,91.38888888888887L134.73070166666665,93.33333333333333L134.940675,93.33333333333333L135.15064833333335,93.33333333333333L135.36062166666665,93.33333333333333L135.570595,93.33333333333333L135.78056833333335,93.33333333333333L135.99054166666667,93.33333333333333L136.200515,95.27777777777779L136.41048833333335,95.27777777777779L136.62046166666667,95.27777777777779L136.830435,95.27777777777779L137.04040833333332,95.27777777777779L137.25038166666667,95.27777777777779L137.460355,97.22222222222223L137.67032833333332,97.22222222222223L137.88030166666667,97.22222222222223L138.09027500000002,97.22222222222223L138.30024833333331,97.22222222222223L138.51022166666667,97.22222222222223L138.72019500000002,97.22222222222223L138.9301683333333,99.16666666666666L139.14014166666666,99.16666666666666L139.35011500000002,99.16666666666666L139.56008833333334,99.16666666666666L139.77006166666666,99.16666666666666L139.98003500000002,99.16666666666666L140.19000833333334,99.16666666666666L140.39998166666666,101.1111111111111L140.60995499999999,101.1111111111111L140.81992833333334,101.1111111111111L141.02990166666666,101.1111111111111L141.23987499999998,101.1111111111111L141.44984833333334,101.1111111111111L141.6598216666667,101.1111111111111L141.86979499999998,103.05555555555556L142.07976833333333,103.05555555555556L142.28974166666669,103.05555555555556L142.49971499999998,103.05555555555556L142.70968833333333,103.05555555555556L142.91966166666668,103.05555555555556L143.129635,103.05555555555556L143.33960833333333,103.05555555555556L143.54958166666668,105L143.759555,105L143.96952833333333,105L144.17950166666665,105L144.389475,105L144.59944833333333,105L144.80942166666665,105L145.019395,106.94444444444446L145.22936833333335,106.94444444444446L145.43934166666665,106.94444444444446L145.649315,106.94444444444446L145.85928833333335,106.94444444444446L146.06926166666665,106.94444444444446L146.279235,106.94444444444446L146.48920833333335,106.94444444444446L146.69918166666665,106.94444444444446L146.909155,108.88888888888889L147.11912833333335,108.88888888888889L147.32910166666667,108.88888888888889L147.539075,108.88888888888889L147.74904833333332,108.88888888888889L147.95902166666667,108.88888888888889L148.168995,108.88888888888889L148.37896833333332,108.88888888888889L148.58894166666667,108.88888888888889L148.79891500000002,110.83333333333333L149.00888833333332,110.83333333333333L149.21886166666667,110.83333333333333L149.42883500000002,110.83333333333333L149.63880833333332,110.83333333333333L149.84878166666667,110.83333333333333L150.05875500000002,110.83333333333333L150.2687283333333,110.83333333333333L150.47870166666667,110.83333333333333L150.68867500000002,110.83333333333333L150.89864833333334,112.77777777777777L151.10862166666666,112.77777777777777L151.318595,112.77777777777777L151.52856833333334,112.77777777777777L151.73854166666666,112.77777777777777L151.948515,112.77777777777777L152.15848833333334,112.77777777777777L152.3684616666667,112.77777777777777L152.57843499999998,112.77777777777777L152.78840833333334,114.72222222222223L152.9983816666667,114.72222222222223L153.20835499999998,114.72222222222223L153.41832833333333,114.72222222222223L153.6283016666667,114.72222222222223L153.83827499999998,114.72222222222223L154.04824833333333,114.72222222222223L154.25822166666666,114.72222222222223L154.468195,114.72222222222223L154.67816833333333,116.66666666666669L154.88814166666666,116.66666666666669L155.098115,116.66666666666669L155.30808833333333,116.66666666666669L155.51806166666665,116.66666666666669L155.728035,116.66666666666669L155.93800833333333,116.66666666666669L156.14798166666665,116.66666666666669L156.357955,116.66666666666669L156.56792833333336,116.66666666666669L156.77790166666665,116.66666666666669L156.987875,116.66666666666669L157.19784833333335,118.61111111111111L157.40782166666665,118.61111111111111L157.617795,118.61111111111111L157.82776833333332,118.61111111111111L158.03774166666668,118.61111111111111L158.247715,118.61111111111111L158.45768833333332,118.61111111111111L158.66766166666667,118.61111111111111L158.877635,118.61111111111111L159.08760833333332,118.61111111111111L159.29758166666667,118.61111111111111L159.507555,120.55555555555556L159.71752833333332,120.55555555555556L159.92750166666667,120.55555555555556L160.13747500000002,120.55555555555556L160.34744833333332,120.55555555555556L160.55742166666667,120.55555555555556L160.76739500000002,120.55555555555556L160.97736833333332,120.55555555555556L161.18734166666667,120.55555555555556L161.397315,120.55555555555556L161.60728833333334,120.55555555555556L161.81726166666667,120.55555555555556L162.027235,122.49999999999999L162.23720833333334,122.49999999999999L162.44718166666667,122.49999999999999L162.657155,122.49999999999999L162.86712833333334,122.49999999999999L163.07710166666666,122.49999999999999L163.287075,122.49999999999999L163.49704833333334,122.49999999999999L163.7070216666667,122.49999999999999L163.916995,122.49999999999999L164.12696833333334,122.49999999999999L164.3369416666667,122.49999999999999L164.54691499999998,124.44444444444444L164.75688833333334,124.44444444444444L164.96686166666666,124.44444444444444L165.176835,124.44444444444444L165.38680833333333,124.44444444444444L165.59678166666666,124.44444444444444L165.806755,124.44444444444444L166.01672833333333,124.44444444444444L166.22670166666666,124.44444444444444L166.436675,124.44444444444444L166.64664833333333,124.44444444444444L166.85662166666665,124.44444444444444L167.066595,124.44444444444444L167.27656833333336,124.44444444444444L167.48654166666665,126.38888888888889L167.696515,126.38888888888889L167.90648833333336,126.38888888888889L168.11646166666665,126.38888888888889L168.326435,126.38888888888889L168.53640833333333,126.38888888888889L168.74638166666665,126.38888888888889L168.956355,126.38888888888889L169.16632833333333,126.38888888888889L169.37630166666668,126.38888888888889L169.586275,126.38888888888889L169.79624833333332,126.38888888888889L170.00622166666668,126.38888888888889L170.216195,128.33333333333334L170.42616833333332,128.33333333333334L170.63614166666667,128.33333333333334L170.84611500000003,128.33333333333334L171.05608833333332,128.33333333333334L171.26606166666667,128.33333333333334L171.47603500000002,128.33333333333334L171.68600833333332,128.33333333333334L171.89598166666667,128.33333333333334L172.105955,128.33333333333334L172.31592833333332,128.33333333333334L172.52590166666667,130.27777777777777L172.735875,130.27777777777777L172.94584833333334,130.27777777777777L173.15582166666667,130.27777777777777L173.365795,130.27777777777777L173.57576833333334,130.27777777777777L173.78574166666667,130.27777777777777L173.995715,130.27777777777777L174.20568833333334,130.27777777777777L174.41566166666667,130.27777777777777L174.625635,130.27777777777777L174.83560833333334,130.27777777777777L175.04558166666666,132.22222222222223L175.255555,132.22222222222223L175.46552833333334,132.22222222222223L175.67550166666666,132.22222222222223L175.88547499999999,132.22222222222223L176.09544833333334,132.22222222222223L176.30542166666666,132.22222222222223L176.515395,132.22222222222223L176.72536833333334,132.22222222222223L176.93534166666666,132.22222222222223L177.145315,132.22222222222223L177.35528833333333,134.16666666666666L177.56526166666666,134.16666666666666L177.775235,134.16666666666666L177.98520833333333,134.16666666666666L178.19518166666666,134.16666666666666L178.405155,134.16666666666666L178.61512833333333,134.16666666666666L178.82510166666665,134.16666666666666L179.035075,134.16666666666666L179.24504833333333,134.16666666666666L179.45502166666665,134.16666666666666L179.664995,134.16666666666666L179.87496833333333,136.11111111111111L180.08494166666668,136.11111111111111L180.294915,136.11111111111111L180.50488833333333,136.11111111111111L180.71486166666668,136.11111111111111L180.924835,136.11111111111111L181.13480833333332,136.11111111111111L181.34478166666668,136.11111111111111L181.554755,136.11111111111111L181.76472833333332,136.11111111111111L181.97470166666668,136.11111111111111L182.184675,138.05555555555554L182.39464833333332,138.05555555555554L182.60462166666667,138.05555555555554L182.814595,138.05555555555554L183.02456833333332,138.05555555555554L183.23454166666667,138.05555555555554L183.444515,138.05555555555554L183.65448833333335,138.05555555555554L183.86446166666667,138.05555555555554L184.074435,138.05555555555554L184.28440833333335,138.05555555555554L184.49438166666667,138.05555555555554L184.704355,138.05555555555554L184.91432833333334,140L185.12430166666667,140L185.334275,140L185.54424833333334,140L185.75422166666667,140L185.964195,140L186.17416833333334,140L186.38414166666666,140L186.594115,140L186.80408833333334,140L187.01406166666666,140L187.224035,140L187.43400833333334,141.94444444444446L187.64398166666666,141.94444444444446L187.853955,141.94444444444446L188.06392833333334,141.94444444444446L188.27390166666666,141.94444444444446L188.483875,141.94444444444446L188.69384833333334,141.94444444444446L188.90382166666666,141.94444444444446L189.113795,141.94444444444446L189.32376833333333,141.94444444444446L189.53374166666666,141.94444444444446L189.743715,141.94444444444446L189.95368833333333,141.94444444444446L190.16366166666666,141.94444444444446L190.373635,143.88888888888889L190.58360833333333,143.88888888888889L190.79358166666665,143.88888888888889L191.003555,143.88888888888889L191.21352833333333,143.88888888888889L191.42350166666668,143.88888888888889L191.633475,143.88888888888889L191.84344833333333,143.88888888888889L192.05342166666668,143.88888888888889L192.263395,143.88888888888889L192.47336833333333,143.88888888888889L192.68334166666668,143.88888888888889L192.893315,143.88888888888889L193.10328833333332,145.83333333333334L193.31326166666668,145.83333333333334L193.523235,145.83333333333334L193.73320833333332,145.83333333333334L193.94318166666667,145.83333333333334L194.153155,145.83333333333334L194.36312833333332,145.83333333333334L194.57310166666667,145.83333333333334L194.783075,145.83333333333334L194.99304833333335,145.83333333333334L195.20302166666667,145.83333333333334L195.412995,145.83333333333334L195.62296833333335,145.83333333333334L195.83294166666664,145.83333333333334L196.042915,147.77777777777777L196.25288833333335,147.77777777777777L196.46286166666667,147.77777777777777L196.672835,147.77777777777777L196.88280833333334,147.77777777777777L197.09278166666667,147.77777777777777L197.302755,147.77777777777777L197.51272833333334,147.77777777777777L197.72270166666667,147.77777777777777L197.932675,147.77777777777777L198.14264833333334,147.77777777777777L198.35262166666666,147.77777777777777L198.56259500000002,147.77777777777777L198.77256833333334,147.77777777777777L198.98254166666666,147.77777777777777L199.19251500000001,149.72222222222223L199.4024883333333,149.72222222222223L199.61246166666666,149.72222222222223L199.822435,149.72222222222223L200.0324083333333,149.72222222222223L200.24238166666666,149.72222222222223L200.452355,149.72222222222223L200.66232833333333,149.72222222222223L200.87230166666666,149.72222222222223L201.082275,149.72222222222223L201.29224833333333,149.72222222222223L201.50222166666666,149.72222222222223L201.712195,149.72222222222223L201.92216833333333,149.72222222222223L202.13214166666668,149.72222222222223L202.342115,149.72222222222223L202.55208833333333,151.66666666666669L202.76206166666668,151.66666666666669L202.97203499999998,151.66666666666669L203.18200833333333,151.66666666666669L203.39198166666668,151.66666666666669L203.60195499999998,151.66666666666669L203.81192833333333,151.66666666666669L204.02190166666668,151.66666666666669L204.231875,151.66666666666669L204.44184833333333,151.66666666666669L204.65182166666668,151.66666666666669L204.861795,151.66666666666669L205.07176833333332,151.66666666666669L205.28174166666668,151.66666666666669L205.491715,151.66666666666669L205.70168833333332,151.66666666666669L205.91166166666667,153.61111111111111L206.121635,153.61111111111111L206.33160833333335,153.61111111111111L206.54158166666664,153.61111111111111L206.751555,153.61111111111111L206.96152833333335,153.61111111111111L207.17150166666664,153.61111111111111L207.381475,153.61111111111111L207.59144833333335,153.61111111111111L207.80142166666667,153.61111111111111L208.011395,153.61111111111111L208.22136833333334,153.61111111111111L208.43134166666667,153.61111111111111L208.641315,153.61111111111111L208.85128833333334,153.61111111111111L209.06126166666667,153.61111111111111L209.271235,155.55555555555554L209.48120833333334,155.55555555555554L209.69118166666667,155.55555555555554L209.90115500000002,155.55555555555554L210.1111283333333,155.55555555555554L210.32110166666666,155.55555555555554L210.53107500000002,155.55555555555554L210.7410483333333,155.55555555555554L210.95102166666666,155.55555555555554L211.160995,155.55555555555554L211.37096833333334,155.55555555555554L211.58094166666666,155.55555555555554L211.790915,155.55555555555554L212.00088833333334,155.55555555555554L212.21086166666666,155.55555555555554L212.420835,157.5L212.63080833333333,157.5L212.84078166666666,157.5L213.050755,157.5L213.26072833333333,157.5L213.47070166666668,157.5L213.68067499999998,157.5L213.89064833333333,157.5L214.10062166666668,157.5L214.31059499999998,157.5L214.52056833333333,157.5L214.73054166666668,157.5L214.940515,157.5L215.15048833333333,157.5L215.36046166666668,157.5L215.570435,157.5L215.78040833333333,157.5L215.99038166666668,157.5L216.200355,159.44444444444443L216.41032833333333,159.44444444444443L216.62030166666668,159.44444444444443L216.830275,159.44444444444443L217.04024833333335,159.44444444444443L217.25022166666665,159.44444444444443L217.460195,159.44444444444443L217.67016833333335,159.44444444444443L217.88014166666665,159.44444444444443L218.090115,159.44444444444443L218.30008833333335,159.44444444444443L218.51006166666664,159.44444444444443L218.720035,159.44444444444443L218.93000833333335,159.44444444444443L219.13998166666667,159.44444444444443L219.349955,159.44444444444443L219.55992833333335,159.44444444444443L219.76990166666667,161.38888888888889L219.979875,161.38888888888889L220.18984833333332,161.38888888888889L220.39982166666667,161.38888888888889L220.60979500000002,161.38888888888889L220.81976833333331,161.38888888888889L221.02974166666667,161.38888888888889L221.23971500000002,161.38888888888889L221.4496883333333,161.38888888888889L221.65966166666666,161.38888888888889L221.86963500000002,161.38888888888889L222.0796083333333,161.38888888888889L222.28958166666666,161.38888888888889L222.49955500000002,161.38888888888889L222.70952833333334,161.38888888888889L222.91950166666666,161.38888888888889L223.129475,161.38888888888889L223.33944833333334,161.38888888888889L223.54942166666666,161.38888888888889L223.75939499999998,163.33333333333334L223.96936833333334,163.33333333333334L224.17934166666666,163.33333333333334L224.38931499999998,163.33333333333334L224.59928833333333,163.33333333333334L224.80926166666669,163.33333333333334L225.01923499999998,163.33333333333334L225.22920833333333,163.33333333333334L225.43918166666668,163.33333333333334L225.64915499999998,163.33333333333334" style="fill: none;" fill="none"></path></g></g></g></g></g></g><g transform="translate(83, 175)" clip-path="url(#clip_1)"><clipPath id="clip_1"><rect width="246" height="25"></rect></clipPath><g><g><line x1="0" y1="0" x2="0" y2="5" style="visibility: inherit;" fill="rgb(0, 0, 0)" stroke="rgb(204, 204, 204)" stroke-width="1px"></line><line x1="20.505208333333332" y1="0" x2="20.505208333333332" y2="5" style="visibility: inherit;" fill="rgb(0, 0, 0)" stroke="rgb(204, 204, 204)" stroke-width="1px"></line><line x1="41.010416666666664" y1="0" x2="41.010416666666664" y2="5" style="visibility: inherit;" fill="rgb(0, 0, 0)" stroke="rgb(204, 204, 204)" stroke-width="1px"></line><line x1="61.515625" y1="0" x2="61.515625" y2="5" style="visibility: inherit;" fill="rgb(0, 0, 0)" stroke="rgb(204, 204, 204)" stroke-width="1px"></line><line x1="82.02083333333333" y1="0" x2="82.02083333333333" y2="5" style="visibility: inherit;" fill="rgb(0, 0, 0)" stroke="rgb(204, 204, 204)" stroke-width="1px"></line><line x1="102.52604166666667" y1="0" x2="102.52604166666667" y2="5" style="visibility: inherit;" fill="rgb(0, 0, 0)" stroke="rgb(204, 204, 204)" stroke-width="1px"></line><line x1="123.03125" y1="0" x2="123.03125" y2="5" style="visibility: inherit;" fill="rgb(0, 0, 0)" stroke="rgb(204, 204, 204)" stroke-width="1px"></line><line x1="143.53645833333334" y1="0" x2="143.53645833333334" y2="5" style="visibility: inherit;" fill="rgb(0, 0, 0)" stroke="rgb(204, 204, 204)" stroke-width="1px"></line><line x1="164.04166666666666" y1="0" x2="164.04166666666666" y2="5" style="visibility: inherit;" fill="rgb(0, 0, 0)" stroke="rgb(204, 204, 204)" stroke-width="1px"></line><line x1="184.546875" y1="0" x2="184.546875" y2="5" style="visibility: inherit;" fill="rgb(0, 0, 0)" stroke="rgb(204, 204, 204)" stroke-width="1px"></line><line x1="205.05208333333334" y1="0" x2="205.05208333333334" y2="5" style="visibility: inherit;" fill="rgb(0, 0, 0)" stroke="rgb(204, 204, 204)" stroke-width="1px"></line><line x1="225.55729166666666" y1="0" x2="225.55729166666666" y2="5" style="visibility: inherit;" fill="rgb(0, 0, 0)" stroke="rgb(204, 204, 204)" stroke-width="1px"></line><line x1="246.0625" y1="0" x2="246.0625" y2="5" style="visibility: inherit;" fill="rgb(0, 0, 0)" stroke="rgb(204, 204, 204)" stroke-width="1px"></line></g><g transform="translate(0, 8)"><text x="0" y="0" dx="0em" dy="0.95em" style="text-anchor: middle; visibility: hidden; font-family: Roboto, sans-serif; font-size: 12px; font-weight: 200;" fill="rgb(33, 33, 33)" stroke="none" stroke-width="1px">-200k</text><text x="20.505208333333332" y="0" dx="0em" dy="0.95em" style="text-anchor: middle; visibility: inherit; font-family: Roboto, sans-serif; font-size: 12px; font-weight: 200;" fill="rgb(33, 33, 33)" stroke="none" stroke-width="1px">0</text><text x="41.010416666666664" y="0" dx="0em" dy="0.95em" style="text-anchor: middle; visibility: hidden; font-family: Roboto, sans-serif; font-size: 12px; font-weight: 200;" fill="rgb(33, 33, 33)" stroke="none" stroke-width="1px">200k</text><text x="61.515625" y="0" dx="0em" dy="0.95em" style="text-anchor: middle; visibility: inherit; font-family: Roboto, sans-serif; font-size: 12px; font-weight: 200;" fill="rgb(33, 33, 33)" stroke="none" stroke-width="1px">400k</text><text x="82.02083333333333" y="0" dx="0em" dy="0.95em" style="text-anchor: middle; visibility: hidden; font-family: Roboto, sans-serif; font-size: 12px; font-weight: 200;" fill="rgb(33, 33, 33)" stroke="none" stroke-width="1px">600k</text><text x="102.52604166666667" y="0" dx="0em" dy="0.95em" style="text-anchor: middle; visibility: inherit; font-family: Roboto, sans-serif; font-size: 12px; font-weight: 200;" fill="rgb(33, 33, 33)" stroke="none" stroke-width="1px">800k</text><text x="123.03125" y="0" dx="0em" dy="0.95em" style="text-anchor: middle; visibility: hidden; font-family: Roboto, sans-serif; font-size: 12px; font-weight: 200;" fill="rgb(33, 33, 33)" stroke="none" stroke-width="1px">1M</text><text x="143.53645833333334" y="0" dx="0em" dy="0.95em" style="text-anchor: middle; visibility: inherit; font-family: Roboto, sans-serif; font-size: 12px; font-weight: 200;" fill="rgb(33, 33, 33)" stroke="none" stroke-width="1px">1.2M</text><text x="164.04166666666666" y="0" dx="0em" dy="0.95em" style="text-anchor: middle; visibility: hidden; font-family: Roboto, sans-serif; font-size: 12px; font-weight: 200;" fill="rgb(33, 33, 33)" stroke="none" stroke-width="1px">1.4M</text><text x="184.546875" y="0" dx="0em" dy="0.95em" style="text-anchor: middle; visibility: inherit; font-family: Roboto, sans-serif; font-size: 12px; font-weight: 200;" fill="rgb(33, 33, 33)" stroke="none" stroke-width="1px">1.6M</text><text x="205.05208333333334" y="0" dx="0em" dy="0.95em" style="text-anchor: middle; visibility: hidden; font-family: Roboto, sans-serif; font-size: 12px; font-weight: 200;" fill="rgb(33, 33, 33)" stroke="none" stroke-width="1px">1.8M</text><text x="225.55729166666666" y="0" dx="0em" dy="0.95em" style="text-anchor: middle; visibility: inherit; font-family: Roboto, sans-serif; font-size: 12px; font-weight: 200;" fill="rgb(33, 33, 33)" stroke="none" stroke-width="1px">2M</text><text x="246.0625" y="0" dx="0em" dy="0.95em" style="text-anchor: middle; visibility: hidden; font-family: Roboto, sans-serif; font-size: 12px; font-weight: 200;" fill="rgb(33, 33, 33)" stroke="none" stroke-width="1px">2.2M</text></g><line x1="0" y1="0" x2="246.0625" y2="0" fill="rgb(0, 0, 0)" stroke="rgb(204, 204, 204)" stroke-width="1px"></line></g></g></g></g></svg>