<svg viewBox="0 0 330 200" xmlns="http://www.w3.org/2000/svg"><g><g><g><g><g><line x1="51.5625" y1="177" x2="46.5625" y2="177" style="visibility: inherit;" fill="rgb(0, 0, 0)" stroke="rgb(204, 204, 204)" stroke-width="1px"></line><line x1="51.5625" y1="154.8750003296882" x2="46.5625" y2="154.8750003296882" style="visibility: inherit;" fill="rgb(0, 0, 0)" stroke="rgb(204, 204, 204)" stroke-width="1px"></line><line x1="51.5625" y1="132.75000065937638" x2="46.5625" y2="132.75000065937638" style="visibility: inherit;" fill="rgb(0, 0, 0)" stroke="rgb(204, 204, 204)" stroke-width="1px"></line><line x1="51.5625" y1="110.62500098906457" x2="46.5625" y2="110.62500098906457" style="visibility: inherit;" fill="rgb(0, 0, 0)" stroke="rgb(204, 204, 204)" stroke-width="1px"></line><line x1="51.5625" y1="88.50000131875275" x2="46.5625" y2="88.50000131875275" style="visibility: inherit;" fill="rgb(0, 0, 0)" stroke="rgb(204, 204, 204)" stroke-width="1px"></line><line x1="51.5625" y1="66.37500164844094" x2="46.5625" y2="66.37500164844094" style="visibility: inherit;" fill="rgb(0, 0, 0)" stroke="rgb(204, 204, 204)" stroke-width="1px"></line><line x1="51.5625" y1="44.25000197812913" x2="46.5625" y2="44.25000197812913" style="visibility: inherit;" fill="rgb(0, 0, 0)" stroke="rgb(204, 204, 204)" stroke-width="1px"></line><line x1="51.5625" y1="22.12500230781732" x2="46.5625" y2="22.12500230781732" style="visibility: inherit;" fill="rgb(0, 0, 0)" stroke="rgb(204, 204, 204)" stroke-width="1px"></line><line x1="51.5625" y1="0.00000263750549200914" x2="46.5625" y2="0.00000263750549200914" style="visibility: inherit;" fill="rgb(0, 0, 0)" stroke="rgb(204, 204, 204)" stroke-width="1px"></line></g><g transform="translate(41.5625, 0)"><text x="0" y="177" dx="0em" dy="0.3em" style="text-anchor: end; visibility: hidden; font-family: Roboto, sans-serif; font-size: 12px; font-weight: 200;" fill="rgb(33, 33, 33)" stroke="none" stroke-width="1px">0</text><text x="0" y="154.8750003296882" dx="0em" dy="0.3em" style="text-anchor: end; visibility: inherit; font-family: Roboto, sans-serif; font-size: 12px; font-weight: 200;" fill="rgb(33, 33, 33)" stroke="none" stroke-width="1px">0.05</text><text x="0" y="132.75000065937638" dx="0em" dy="0.3em" style="text-anchor: end; visibility: hidden; font-family: Roboto, sans-serif; font-size: 12px; font-weight: 200;" fill="rgb(33, 33, 33)" stroke="none" stroke-width="1px">0.1</text><text x="0" y="110.62500098906457" dx="0em" dy="0.3em" style="text-anchor: end; visibility: inherit; font-family: Roboto, sans-serif; font-size: 12px; font-weight: 200;" fill="rgb(33, 33, 33)" stroke="none" stroke-width="1px">0.15</text><text x="0" y="88.50000131875275" dx="0em" dy="0.3em" style="text-anchor: end; visibility: hidden; font-family: Roboto, sans-serif; font-size: 12px; font-weight: 200;" fill="rgb(33, 33, 33)" stroke="none" stroke-width="1px">0.2</text><text x="0" y="66.37500164844094" dx="0em" dy="0.3em" style="text-anchor: end; visibility: inherit; font-family: Roboto, sans-serif; font-size: 12px; font-weight: 200;" fill="rgb(33, 33, 33)" stroke="none" stroke-width="1px">0.25</text><text x="0" y="44.25000197812913" dx="0em" dy="0.3em" style="text-anchor: end; visibility: hidden; font-family: Roboto, sans-serif; font-size: 12px; font-weight: 200;" fill="rgb(33, 33, 33)" stroke="none" stroke-width="1px">0.3</text><text x="0" y="22.12500230781732" dx="0em" dy="0.3em" style="text-anchor: end; visibility: inherit; font-family: Roboto, sans-serif; font-size: 12px; font-weight: 200;" fill="rgb(33, 33, 33)" stroke="none" stroke-width="1px">0.35</text><text x="0" y="0.00000263750549200914" dx="0em" dy="0.3em" style="text-anchor: end; visibility: hidden; font-family: Roboto, sans-serif; font-size: 12px; font-weight: 200;" fill="rgb(33, 33, 33)" stroke="none" stroke-width="1px">0.4</text></g><line x1="51.5625" y1="0" x2="51.5625" y2="177" fill="rgb(0, 0, 0)" stroke="rgb(204, 204, 204)" stroke-width="1px"></line></g></g><g transform="translate(51, 0)" clip-path="url(#clip_0)"><clipPath id="clip_0"><rect width="278" height="177"></rect></clipPath><g><g><g><line x1="0" y1="0" x2="0" y2="177" fill="rgb(0, 0, 0)" stroke="rgb(66, 66, 66)" stroke-width="1px" opacity="0.25"></line><line x1="23.203125" y1="0" x2="23.203125" y2="177" fill="rgb(0, 0, 0)" stroke="rgb(66, 66, 66)" stroke-width="1px" opacity="0.25"></line><line x1="46.40625" y1="0" x2="46.40625" y2="177" fill="rgb(0, 0, 0)" stroke="rgb(66, 66, 66)" stroke-width="1px" opacity="0.25"></line><line x1="69.609375" y1="0" x2="69.609375" y2="177" fill="rgb(0, 0, 0)" stroke="rgb(66, 66, 66)" stroke-width="1px" opacity="0.25"></line><line x1="92.8125" y1="0" x2="92.8125" y2="177" fill="rgb(0, 0, 0)" stroke="rgb(66, 66, 66)" stroke-width="1px" opacity="0.25"></line><line x1="116.015625" y1="0" x2="116.015625" y2="177" fill="rgb(0, 0, 0)" stroke="rgb(66, 66, 66)" stroke-width="1px" opacity="0.25"></line><line x1="139.21875" y1="0" x2="139.21875" y2="177" fill="rgb(0, 0, 0)" stroke="rgb(66, 66, 66)" stroke-width="1px" opacity="0.25"></line><line x1="162.421875" y1="0" x2="162.421875" y2="177" fill="rgb(0, 0, 0)" stroke="rgb(66, 66, 66)" stroke-width="1px" opacity="0.25"></line><line x1="185.625" y1="0" x2="185.625" y2="177" fill="rgb(0, 0, 0)" stroke="rgb(66, 66, 66)" stroke-width="1px" opacity="0.25"></line><line x1="208.828125" y1="0" x2="208.828125" y2="177" fill="rgb(0, 0, 0)" stroke="rgb(66, 66, 66)" stroke-width="1px" opacity="0.25"></line><line x1="232.03125" y1="0" x2="232.03125" y2="177" fill="rgb(0, 0, 0)" stroke="rgb(66, 66, 66)" stroke-width="1px" opacity="0.25"></line><line x1="255.234375" y1="0" x2="255.234375" y2="177" fill="rgb(0, 0, 0)" stroke="rgb(66, 66, 66)" stroke-width="1px" opacity="0.25"></line><line x1="278.4375" y1="0" x2="278.4375" y2="177" fill="rgb(0, 0, 0)" stroke="rgb(66, 66, 66)" stroke-width="1px" opacity="0.25"></line></g><g><line x1="0" y1="177" x2="278.4375" y2="177" fill="rgb(0, 0, 0)" stroke="rgb(66, 66, 66)" stroke-width="1px" opacity="0.25"></line><line x1="0" y1="154.8750003296882" x2="278.4375" y2="154.8750003296882" fill="rgb(0, 0, 0)" stroke="rgb(66, 66, 66)" stroke-width="1px" opacity="0.25"></line><line x1="0" y1="132.75000065937638" x2="278.4375" y2="132.75000065937638" fill="rgb(0, 0, 0)" stroke="rgb(66, 66, 66)" stroke-width="1px" opacity="0.25"></line><line x1="0" y1="110.62500098906457" x2="278.4375" y2="110.62500098906457" fill="rgb(0, 0, 0)" stroke="rgb(66, 66, 66)" stroke-width="1px" opacity="0.25"></line><line x1="0" y1="88.50000131875275" x2="278.4375" y2="88.50000131875275" fill="rgb(0, 0, 0)" stroke="rgb(66, 66, 66)" stroke-width="1px" opacity="0.25"></line><line x1="0" y1="66.37500164844094" x2="278.4375" y2="66.37500164844094" fill="rgb(0, 0, 0)" stroke="rgb(66, 66, 66)" stroke-width="1px" opacity="0.25"></line><line x1="0" y1="44.25000197812913" x2="278.4375" y2="44.25000197812913" fill="rgb(0, 0, 0)" stroke="rgb(66, 66, 66)" stroke-width="1px" opacity="0.25"></line><line x1="0" y1="22.12500230781732" x2="278.4375" y2="22.12500230781732" fill="rgb(0, 0, 0)" stroke="rgb(66, 66, 66)" stroke-width="1px" opacity="0.25"></line><line x1="0" y1="0.00000263750549200914" x2="278.4375" y2="0.00000263750549200914" fill="rgb(0, 0, 0)" stroke="rgb(66, 66, 66)" stroke-width="1px" opacity="0.25"></line></g></g></g><g><g><line x1="0" y1="177" x2="278.4375" y2="177" fill="rgb(0, 0, 0)" stroke="rgb(153, 153, 153)" stroke-width="1.5px"></line></g></g><g><g><line x1="23.203125" y1="0" x2="23.203125" y2="177" fill="rgb(0, 0, 0)" stroke="rgb(153, 153, 153)" stroke-width="1.5px"></line></g></g><g><g><g><g><g><path stroke="rgb(255, 112, 67)" stroke-width="2px" d="M23.678325,88.5L23.915925,88.5L24.153525,88.5L24.391125,88.5L24.628725,88.5L24.866325000000003,88.5L25.103925,88.5L25.341525,88.5L25.579125,88.5L25.816724999999998,88.5L26.054325,88.5L26.291925000000003,88.5L26.529525,88.5L26.767125,88.5L27.004725,88.5L27.242324999999997,88.5L27.479924999999998,88.5L27.717525000000002,88.5L27.955125000000002,88.5L28.192725,88.5L28.430325,88.5L28.667925,88.5L28.905524999999997,88.5L29.143125,88.5L29.380725,88.5L29.618325,88.5L29.855925,88.5L30.093525,88.5L30.331124999999997,88.5L30.568725,88.5L30.806325,88.5L31.043925,88.5L31.281525,88.5L31.519125,88.5L31.756725000000003,88.5L31.994325,88.5L32.231925000000004,88.5L32.469525,88.5L32.707125,88.5L32.944725,88.5L33.182325,88.5L33.419925,88.5L33.657525,88.5L33.895125,88.5L34.132725,88.5L34.370325,88.5L34.607925,88.5L34.845524999999995,88.5L35.083125,88.5L35.320725,88.5L35.558324999999996,88.5L35.795925000000004,88.5L36.033525,88.5L36.271125,88.5L36.508725,88.5L36.746325,88.5L36.983925,88.5L37.221525,88.5L37.459125,88.5L37.696724999999994,88.5L37.934325,88.5L38.171925,88.5L38.409525,88.5L38.647125,88.5L38.884724999999996,88.5L39.122325000000004,88.5L39.359925000000004,88.5L39.597525,88.5L39.835125000000005,88.5L40.072725,88.5L40.310325,88.5L40.547925,88.5L40.785525,88.5L41.023125,88.5L41.260725,88.5L41.498325,88.5L41.735924999999995,88.5L41.973525,88.5L42.211125,88.5L42.448724999999996,88.5L42.686325000000004,88.5L42.923925,88.5L43.161525,88.5L43.399125,88.5L43.636725,88.5L43.874325000000006,88.5L44.111925,88.5L44.349525,88.5L44.587125,88.5L44.824725,88.5L45.062325,88.5L45.299925,88.5L45.537525,88.5L45.775124999999996,88.5L46.012725,88.5L46.250325000000004,88.5L46.487925,88.5L46.725525000000005,88.5L46.963125,88.5L47.200725,88.5L47.438325,88.5L47.675925,88.5L47.913525,88.5L48.151125,88.5L48.388725,88.5L48.626324999999994,88.5L48.863925,88.5L49.101525,88.5L49.339124999999996,88.5L49.576725,88.5L49.814325,88.5L50.051925000000004,88.5L50.289525,88.5L50.527125,88.5L50.764725000000006,88.5L51.002325,88.5L51.239925,88.5L51.477525,88.5L51.715125,88.5L51.952725,88.5L52.190325,88.5L52.427925,88.5L52.665524999999995,88.5L52.903125,88.5L53.140725,88.5L53.378325,88.5L53.615925000000004,88.5L53.853525,88.5L54.091125,88.5L54.328725,88.5L54.566325,88.5L54.803925,88.5L55.041525,88.5L55.279125,88.5L55.516724999999994,88.5L55.754325,88.5L55.991925,88.5L56.229525,88.5L56.467125,88.5L56.704724999999996,88.5L56.942325000000004,88.5L57.179925,88.5L57.417525,88.5L57.655125000000005,88.5L57.892725,88.5L58.130325,88.5L58.367925,88.5L58.605525,88.5L58.843125,88.5L59.080725,88.5L59.318325,88.5L59.555924999999995,88.5L59.793525,88.5L60.031125,88.5L60.268724999999996,88.5L60.506325000000004,88.5L60.743925,88.5L60.981525,88.5L61.219125,88.5L61.456725,88.5L61.694325000000006,88.5L61.931925,88.5L62.169525,88.5L62.407125,88.5L62.644725,88.5L62.882325,88.5L63.119925,88.5L63.357525,88.5L63.595124999999996,88.5L63.832725,88.5L64.070325,88.5L64.307925,88.5L64.545525,88.5L64.783125,88.5L65.020725,88.5L65.258325,88.5L65.495925,88.5L65.733525,88.5L65.971125,88.5L66.208725,88.5L66.446325,88.5L66.683925,88.5L66.921525,88.5L67.159125,88.5L67.396725,88.5L67.634325,88.5L67.871925,88.5L68.10952499999999,88.5L68.347125,88.5L68.584725,88.5L68.82232499999999,88.5L69.059925,88.5L69.297525,88.5L69.535125,88.5L69.77272500000001,88.5L70.010325,88.5L70.247925,88.5L70.48552500000001,88.5L70.723125,88.5L70.960725,88.5L71.19832500000001,88.5L71.435925,88.5L71.673525,88.5L71.911125,88.5L72.148725,88.5L72.386325,88.5L72.623925,88.5L72.861525,88.5L73.099125,88.5L73.336725,88.5L73.57432499999999,88.5L73.811925,88.5L74.049525,88.5L74.28712499999999,88.5L74.524725,88.5L74.762325,88.5L74.99992499999999,88.5L75.237525,88.5L75.475125,88.5L75.71272499999999,88.5L75.95032499999999,88.5L76.187925,88.5L76.42552500000001,88.5L76.663125,88.5L76.90072500000001,88.5L77.13832500000001,88.5L77.375925,88.5L77.613525,88.5L77.85112500000001,88.5L78.088725,88.5L78.326325,88.5L78.56392500000001,88.5L78.801525,88.5L79.039125,88.5L79.276725,88.5L79.514325,88.5L79.751925,88.5L79.989525,88.5L80.227125,88.5L80.464725,88.5L80.702325,88.5L80.939925,88.5L81.177525,88.5L81.415125,88.5L81.65272499999999,88.5L81.890325,88.5L82.127925,88.5L82.36552499999999,88.5L82.603125,88.5L82.840725,88.5L83.07832499999999,88.5L83.315925,88.5L83.55352500000001,88.5L83.791125,88.5L84.028725,88.5L84.26632500000001,88.5L84.503925,88.5L84.741525,88.5L84.97912500000001,88.5L85.216725,88.5L85.454325,88.5L85.691925,88.5L85.929525,88.5L86.167125,88.5L86.404725,88.5L86.642325,88.5L86.879925,88.5L87.117525,88.5L87.35512499999999,88.5L87.592725,88.5L87.830325,88.5L88.06792499999999,88.5L88.305525,88.5L88.543125,88.5L88.780725,88.5L89.01832499999999,88.5L89.255925,88.5L89.493525,88.5L89.73112499999999,88.5L89.968725,88.5L90.206325,88.5L90.443925,88.5L90.68152500000001,88.5L90.91912500000001,88.5L91.156725,88.5L91.394325,88.5L91.63192500000001,88.5L91.869525,88.5L92.107125,88.5L92.34472500000001,88.5L92.582325,88.5L92.819925,88.5L93.057525,88.5L93.295125,88.5L93.532725,88.5L93.770325,88.5L94.007925,88.5L94.245525,88.5L94.483125,88.5L94.720725,88.5L94.958325,88.5L95.195925,88.5L95.43352499999999,88.5L95.671125,88.5L95.908725,88.5L96.14632499999999,88.5L96.383925,88.5L96.621525,88.5L96.85912499999999,88.5L97.09672499999999,88.5L97.334325,88.5L97.571925,88.5L97.809525,88.5L98.04712500000001,88.5L98.284725,88.5L98.522325,88.5L98.75992500000001,88.5L98.997525,88.5L99.235125,88.5L99.472725,88.5L99.71032500000001,88.5L99.947925,88.5L100.185525,88.5L100.42312500000001,88.5L100.660725,88.5L100.898325,88.5L101.13592499999999,88.5L101.373525,88.5L101.611125,88.5L101.848725,88.5L102.086325,88.5L102.323925,88.5L102.561525,88.5L102.79912499999999,88.5L103.036725,88.5L103.274325,88.5L103.51192499999999,88.5L103.749525,88.5L103.987125,88.5L104.22472499999999,88.5L104.462325,88.5L104.69992500000001,88.5L104.937525,88.5L105.175125,88.5L105.41272500000001,88.5L105.650325,88.5L105.887925,88.5L106.12552500000001,88.5L106.363125,88.5L106.600725,88.5L106.838325,88.5L107.075925,88.5L107.313525,88.5L107.551125,88.5L107.788725,88.5L108.026325,88.5L108.263925,88.5L108.501525,88.5L108.739125,88.5L108.976725,88.5L109.21432499999999,88.5L109.451925,88.5L109.689525,88.5L109.92712499999999,88.5L110.164725,88.5L110.402325,88.5L110.63992499999999,88.5L110.87752499999999,88.5L111.115125,88.5L111.35272499999999,88.5L111.59032499999999,88.5L111.82792500000001,88.5L112.06552500000001,88.5L112.303125,88.5L112.54072500000001,88.5L112.77832500000001,88.5L113.015925,88.5L113.253525,88.5L113.49112500000001,88.5L113.728725,88.5L113.966325,88.5L114.20392500000001,88.5L114.441525,88.5L114.679125,88.5L114.916725,88.5L115.154325,88.5L115.391925,88.5L115.629525,88.5L115.867125,88.5L116.104725,88.5L116.342325,88.5L116.57992499999999,88.5L116.817525,88.5L117.055125,88.5L117.29272499999999,88.5L117.530325,88.5L117.767925,88.5L118.00552499999999,88.5L118.243125,88.5L118.480725,88.5L118.718325,88.5L118.955925,88.5L119.19352500000001,88.5L119.431125,88.5L119.668725,88.5L119.90632500000001,88.5L120.143925,88.5L120.381525,88.5L120.619125,88.5L120.856725,88.5L121.094325,88.5L121.331925,88.5L121.569525,88.5L121.807125,88.5L122.044725,88.5L122.28232500000001,88.5L122.519925,88.5L122.757525,88.5L122.99512499999999,88.5L123.232725,88.5L123.470325,88.5L123.70792499999999,88.5L123.945525,88.5L124.183125,88.5L124.420725,88.5L124.65832499999999,88.5L124.895925,88.5L125.133525,88.5L125.37112499999999,88.5L125.608725,88.5L125.84632500000001,88.5L126.083925,88.5L126.32152500000001,88.5L126.55912500000001,88.5L126.796725,88.5L127.034325,88.5L127.27192500000001,88.5L127.509525,88.5L127.747125,88.5L127.98472500000001,88.5L128.222325,88.5L128.459925,88.5L128.69752499999998,88.5L128.935125,88.5L129.17272499999999,88.5L129.410325,88.5L129.64792500000001,88.5L129.885525,88.5L130.123125,88.5L130.360725,88.5L130.59832500000002,88.5L130.835925,88.5L131.073525,88.5L131.311125,88.5L131.548725,88.5L131.786325,88.5L132.02392500000002,88.5L132.261525,88.5L132.499125,88.5L132.736725,88.5L132.974325,88.5L133.211925,88.5L133.449525,88.5L133.687125,88.5L133.924725,88.5L134.162325,88.5L134.399925,88.5L134.637525,88.5L134.875125,88.5L135.11272499999998,88.5L135.350325,88.5L135.587925,88.5L135.825525,88.5L136.063125,88.5L136.300725,88.5L136.538325,88.5L136.775925,88.5L137.01352500000002,88.5L137.251125,88.5L137.488725,88.5L137.726325,88.5L137.963925,88.5L138.201525,88.5L138.439125,88.5L138.676725,88.5L138.914325,88.5L139.151925,88.5L139.389525,88.5L139.62712499999998,88.5L139.864725,88.5L140.102325,88.5L140.339925,88.5L140.577525,88.5L140.81512500000002,88.5L141.05272499999998,88.5L141.290325,88.5L141.527925,88.5L141.765525,88.5L142.003125,88.5L142.24072500000003,88.5L142.47832499999998,88.5L142.715925,88.5L142.953525,88.5L143.191125,88.5L143.42872500000001,88.5L143.66632499999997,88.5L143.903925,88.5L144.141525,88.5L144.379125,88.5L144.616725,88.5L144.85432500000002,88.5L145.091925,88.5L145.329525,88.5L145.567125,88.5L145.804725,88.5L146.042325,88.5L146.27992500000002,88.5L146.517525,88.5L146.755125,88.5L146.99272499999998,88.5L147.230325,88.5L147.467925,88.5L147.705525,88.5L147.943125,88.5L148.180725,88.5L148.41832499999998,88.5L148.655925,88.5L148.893525,88.5L149.131125,88.5L149.368725,88.5L149.606325,88.5L149.84392499999998,88.5L150.081525,88.5L150.319125,88.5L150.556725,88.5L150.79432500000001,88.5L151.03192499999997,88.5L151.269525,88.5L151.507125,88.5L151.744725,88.5L151.982325,88.5L152.21992500000002,88.5L152.45752499999998,88.5L152.695125,88.5L152.932725,88.5L153.170325,88.5L153.407925,88.5L153.64552500000002,88.5L153.88312499999998,88.5L154.120725,88.5L154.358325,88.5L154.595925,88.5L154.833525,88.5L155.071125,88.5L155.308725,88.5L155.546325,88.5L155.78392499999998,88.5L156.021525,88.5L156.259125,88.5L156.496725,88.5L156.734325,88.5L156.971925,88.5L157.20952499999999,88.5L157.447125,88.5L157.68472500000001,88.5L157.922325,88.5L158.15992500000002,88.5L158.397525,88.5L158.635125,88.5L158.872725,88.5L159.110325,88.5L159.347925,88.5L159.58552500000002,88.5L159.82312499999998,88.5L160.060725,88.5L160.298325,88.5L160.535925,88.5L160.773525,88.5L161.01112500000002,88.5L161.24872499999998,88.5L161.486325,88.5L161.723925,88.5L161.961525,88.5L162.199125,88.5L162.43672500000002,88.5L162.67432499999998,88.5L162.911925,88.5L163.14952499999998,88.5L163.387125,88.5L163.624725,88.5L163.862325,88.5L164.09992499999998,88.5L164.337525,88.5L164.57512499999999,88.5L164.812725,88.5L165.05032500000002,88.5L165.287925,88.5L165.52552500000002,88.5L165.763125,88.5L166.000725,88.5L166.238325,88.5L166.47592500000002,88.5L166.713525,88.5L166.95112500000002,88.5L167.18872499999998,88.5L167.426325,88.5L167.663925,88.5L167.901525,88.5L168.139125,88.5L168.37672500000002,88.5L168.61432499999998,88.5L168.851925,88.5L169.089525,88.5L169.327125,88.5L169.564725,88.5L169.80232500000002,88.5L170.03992499999998,88.5L170.277525,88.5L170.515125,88.5L170.752725,88.5L170.990325,88.5L171.227925,88.5L171.46552499999999,88.5L171.703125,88.5L171.940725,88.5L172.178325,88.5L172.41592500000002,88.5L172.653525,88.5L172.891125,88.5L173.128725,88.5L173.366325,88.5L173.603925,88.5L173.84152500000002,88.5L174.079125,88.5L174.316725,88.5L174.55432499999998,88.5L174.791925,88.5L175.029525,88.5L175.267125,88.5L175.504725,88.5L175.74232500000002,88.5L175.97992499999998,88.5L176.217525,88.5L176.455125,88.5L176.692725,88.5L176.930325,88.5L177.16792500000003,88.5L177.40552499999998,88.5L177.643125,88.5L177.880725,88.5L178.118325,88.5L178.355925,88.5L178.59352499999997,88.5L178.831125,88.5L179.068725,88.5L179.306325,88.5L179.543925,88.5L179.78152500000002,88.5L180.019125,88.5L180.256725,88.5L180.494325,88.5L180.731925,88.5L180.969525,88.5L181.20712500000002,88.5L181.444725,88.5L181.682325,88.5L181.919925,88.5L182.157525,88.5L182.395125,88.5L182.632725,88.5L182.870325,88.5L183.107925,88.5L183.34552499999998,88.5L183.583125,88.5L183.820725,88.5L184.058325,88.5L184.295925,88.5L184.533525,88.5L184.77112499999998,88.5L185.008725,88.5L185.246325,88.5L185.483925,88.5L185.721525,88.5L185.95912500000003,88.5L186.196725,88.5L186.434325,88.5L186.671925,88.5L186.909525,88.5L187.14712500000002,88.5L187.38472499999997,88.5L187.622325,88.5L187.859925,88.5L188.097525,88.5L188.335125,88.5L188.57272500000002,88.5L188.81032499999998,88.5L189.047925,88.5L189.285525,88.5L189.523125,88.5L189.760725,88.5L189.99832500000002,88.5L190.235925,88.5L190.473525,88.5L190.71112499999998,88.5L190.948725,88.5L191.186325,88.5L191.423925,88.5L191.661525,88.5L191.899125,88.5L192.13672499999998,88.5L192.374325,88.5L192.611925,88.5L192.849525,88.5L193.08712500000001,88.5L193.324725,88.5L193.562325,88.5L193.799925,88.5L194.03752500000002,88.5L194.275125,88.5L194.51272500000002,88.5L194.75032499999998,88.5L194.987925,88.5L195.225525,88.5L195.463125,88.5L195.700725,88.5L195.93832500000002,88.5L196.17592499999998,88.5L196.413525,88.5L196.651125,88.5L196.888725,88.5L197.126325,88.5L197.36392500000002,88.5L197.60152499999998,88.5L197.839125,88.5L198.07672499999998,88.5L198.314325,88.5L198.551925,88.5L198.789525,88.5L199.02712499999998,88.5L199.264725,88.5L199.50232499999998,88.5L199.739925,88.5L199.977525,88.5L200.215125,88.5L200.45272500000002,88.5L200.690325,88.5L200.927925,88.5L201.165525,88.5L201.40312500000002,88.5L201.640725,88.5L201.87832500000002,88.5L202.11592499999998,88.5L202.353525,88.5L202.591125,88.5L202.828725,88.5L203.066325,88.5L203.30392500000002,88.5L203.54152499999998,88.5L203.779125,88.5L204.016725,88.5L204.254325,88.5L204.491925,88.5L204.72952500000002,88.5L204.96712499999998,88.5L205.204725,88.5L205.442325,88.5L205.679925,88.5L205.917525,88.5L206.155125,88.5L206.39272499999998,88.5L206.630325,88.5L206.86792499999999,88.5L207.105525,88.5L207.34312500000001,88.5L207.580725,88.5L207.818325,88.5L208.055925,88.5L208.293525,88.5L208.531125,88.5L208.76872500000002,88.5L209.006325,88.5L209.243925,88.5L209.481525,88.5L209.719125,88.5L209.956725,88.5L210.194325,88.5L210.431925,88.5L210.66952500000002,88.5L210.90712499999998,88.5L211.144725,88.5L211.382325,88.5L211.619925,88.5L211.857525,88.5L212.09512500000002,88.5L212.33272499999998,88.5L212.570325,88.5L212.807925,88.5L213.045525,88.5L213.283125,88.5L213.52072500000003,88.5L213.75832499999999,88.5L213.995925,88.5L214.233525,88.5L214.471125,88.5L214.70872500000002,88.5L214.946325,88.5L215.183925,88.5L215.421525,88.5L215.659125,88.5L215.896725,88.5L216.13432500000002,88.5L216.371925,88.5L216.609525,88.5L216.847125,88.5L217.084725,88.5L217.322325,88.5L217.55992500000002,88.5L217.797525,88.5L218.035125,88.5L218.27272499999998,88.5L218.510325,88.5L218.747925,88.5L218.985525,88.5L219.223125,88.5L219.460725,88.5L219.69832499999998,88.5L219.935925,88.5L220.173525,88.5L220.411125,88.5L220.648725,88.5L220.88632500000003,88.5L221.12392499999999,88.5L221.361525,88.5L221.599125,88.5L221.836725,88.5L222.07432500000002,88.5L222.31192499999997,88.5L222.549525,88.5L222.787125,88.5L223.024725,88.5L223.262325,88.5L223.49992500000002,88.5L223.73752499999998,88.5L223.975125,88.5L224.212725,88.5L224.450325,88.5L224.687925,88.5L224.92552500000002,88.5L225.163125,88.5L225.400725,88.5L225.63832499999998,88.5L225.875925,88.5L226.113525,88.5L226.351125,88.5L226.588725,88.5L226.826325,88.5L227.06392499999998,88.5L227.301525,88.5L227.539125,88.5L227.776725,88.5L228.014325,88.5L228.251925,88.5L228.489525,88.5L228.727125,88.5L228.96472500000002,88.5L229.202325,88.5L229.43992500000002,88.5L229.67752499999997,88.5L229.915125,88.5L230.152725,88.5L230.390325,88.5L230.627925,88.5L230.86552500000002,88.5L231.10312499999998,88.5L231.340725,88.5L231.578325,88.5L231.815925,88.5L232.053525,88.5L232.29112500000002,88.5L232.52872499999998,88.5L232.766325,88.5L233.003925,88.5L233.241525,88.5L233.479125,88.5L233.716725,88.5L233.95432499999998,88.5L234.191925,88.5L234.42952499999998,88.5L234.667125,88.5L234.904725,88.5L235.142325,88.5L235.37992500000001,88.5L235.617525,88.5L235.855125,88.5L236.092725,88.5L236.33032500000002,88.5L236.567925,88.5L236.80552500000002,88.5L237.043125,88.5L237.280725,88.5L237.518325,88.5L237.755925,88.5L237.993525,88.5L238.23112500000002,88.5L238.46872499999998,88.5L238.706325,88.5L238.943925,88.5L239.181525,88.5L239.419125,88.5L239.65672500000002,88.5L239.89432499999998,88.5L240.131925,88.5L240.369525,88.5L240.607125,88.5L240.844725,88.5L241.08232500000003,88.5L241.31992499999998,88.5L241.557525,88.5L241.79512499999998,88.5L242.032725,88.5L242.270325,88.5L242.507925,88.5L242.745525,88.5L242.983125,88.5L243.220725,88.5L243.458325,88.5L243.69592500000002,88.5L243.933525,88.5L244.171125,88.5L244.408725,88.5L244.646325,88.5L244.883925,88.5L245.12152500000002,88.5L245.359125,88.5L245.596725,88.5L245.83432499999998,88.5L246.071925,88.5L246.309525,88.5L246.547125,88.5L246.784725,88.5L247.02232500000002,88.5L247.25992499999998,88.5L247.497525,88.5L247.735125,88.5L247.972725,88.5L248.210325,88.5L248.44792500000003,88.5L248.68552499999998,88.5L248.923125,88.5L249.16072499999999,88.5L249.398325,88.5L249.63592500000001,88.5L249.873525,88.5L250.111125,88.5L250.348725,88.5L250.586325,88.5L250.823925,88.5L251.06152500000002,88.5L251.299125,88.5L251.536725,88.5L251.774325,88.5L252.011925,88.5L252.249525,88.5L252.48712500000002,88.5L252.724725,88.5L252.962325,88.5L253.19992499999998,88.5L253.437525,88.5L253.675125,88.5L253.912725,88.5L254.150325,88.5L254.387925,88.5L254.62552499999998,88.5L254.863125,88.5L255.100725,88.5L255.338325,88.5" style="fill: none;" fill="none"></path></g></g></g></g><g opacity="0.2"><g><g><g><path stroke="rgb(255, 112, 67)" stroke-width="2px" d="M23.678325,88.5L23.915925,88.5L24.153525,88.5L24.391125,88.5L24.628725,88.5L24.866325000000003,88.5L25.103925,88.5L25.341525,88.5L25.579125,88.5L25.816724999999998,88.5L26.054325,88.5L26.291925000000003,88.5L26.529525,88.5L26.767125,88.5L27.004725,88.5L27.242324999999997,88.5L27.479924999999998,88.5L27.717525000000002,88.5L27.955125000000002,88.5L28.192725,88.5L28.430325,88.5L28.667925,88.5L28.905524999999997,88.5L29.143125,88.5L29.380725,88.5L29.618325,88.5L29.855925,88.5L30.093525,88.5L30.331124999999997,88.5L30.568725,88.5L30.806325,88.5L31.043925,88.5L31.281525,88.5L31.519125,88.5L31.756725000000003,88.5L31.994325,88.5L32.231925000000004,88.5L32.469525,88.5L32.707125,88.5L32.944725,88.5L33.182325,88.5L33.419925,88.5L33.657525,88.5L33.895125,88.5L34.132725,88.5L34.370325,88.5L34.607925,88.5L34.845524999999995,88.5L35.083125,88.5L35.320725,88.5L35.558324999999996,88.5L35.795925000000004,88.5L36.033525,88.5L36.271125,88.5L36.508725,88.5L36.746325,88.5L36.983925,88.5L37.221525,88.5L37.459125,88.5L37.696724999999994,88.5L37.934325,88.5L38.171925,88.5L38.409525,88.5L38.647125,88.5L38.884724999999996,88.5L39.122325000000004,88.5L39.359925000000004,88.5L39.597525,88.5L39.835125000000005,88.5L40.072725,88.5L40.310325,88.5L40.547925,88.5L40.785525,88.5L41.023125,88.5L41.260725,88.5L41.498325,88.5L41.735924999999995,88.5L41.973525,88.5L42.211125,88.5L42.448724999999996,88.5L42.686325000000004,88.5L42.923925,88.5L43.161525,88.5L43.399125,88.5L43.636725,88.5L43.874325000000006,88.5L44.111925,88.5L44.349525,88.5L44.587125,88.5L44.824725,88.5L45.062325,88.5L45.299925,88.5L45.537525,88.5L45.775124999999996,88.5L46.012725,88.5L46.250325000000004,88.5L46.487925,88.5L46.725525000000005,88.5L46.963125,88.5L47.200725,88.5L47.438325,88.5L47.675925,88.5L47.913525,88.5L48.151125,88.5L48.388725,88.5L48.626324999999994,88.5L48.863925,88.5L49.101525,88.5L49.339124999999996,88.5L49.576725,88.5L49.814325,88.5L50.051925000000004,88.5L50.289525,88.5L50.527125,88.5L50.764725000000006,88.5L51.002325,88.5L51.239925,88.5L51.477525,88.5L51.715125,88.5L51.952725,88.5L52.190325,88.5L52.427925,88.5L52.665524999999995,88.5L52.903125,88.5L53.140725,88.5L53.378325,88.5L53.615925000000004,88.5L53.853525,88.5L54.091125,88.5L54.328725,88.5L54.566325,88.5L54.803925,88.5L55.041525,88.5L55.279125,88.5L55.516724999999994,88.5L55.754325,88.5L55.991925,88.5L56.229525,88.5L56.467125,88.5L56.704724999999996,88.5L56.942325000000004,88.5L57.179925,88.5L57.417525,88.5L57.655125000000005,88.5L57.892725,88.5L58.130325,88.5L58.367925,88.5L58.605525,88.5L58.843125,88.5L59.080725,88.5L59.318325,88.5L59.555924999999995,88.5L59.793525,88.5L60.031125,88.5L60.268724999999996,88.5L60.506325000000004,88.5L60.743925,88.5L60.981525,88.5L61.219125,88.5L61.456725,88.5L61.694325000000006,88.5L61.931925,88.5L62.169525,88.5L62.407125,88.5L62.644725,88.5L62.882325,88.5L63.119925,88.5L63.357525,88.5L63.595124999999996,88.5L63.832725,88.5L64.070325,88.5L64.307925,88.5L64.545525,88.5L64.783125,88.5L65.020725,88.5L65.258325,88.5L65.495925,88.5L65.733525,88.5L65.971125,88.5L66.208725,88.5L66.446325,88.5L66.683925,88.5L66.921525,88.5L67.159125,88.5L67.396725,88.5L67.634325,88.5L67.871925,88.5L68.10952499999999,88.5L68.347125,88.5L68.584725,88.5L68.82232499999999,88.5L69.059925,88.5L69.297525,88.5L69.535125,88.5L69.77272500000001,88.5L70.010325,88.5L70.247925,88.5L70.48552500000001,88.5L70.723125,88.5L70.960725,88.5L71.19832500000001,88.5L71.435925,88.5L71.673525,88.5L71.911125,88.5L72.148725,88.5L72.386325,88.5L72.623925,88.5L72.861525,88.5L73.099125,88.5L73.336725,88.5L73.57432499999999,88.5L73.811925,88.5L74.049525,88.5L74.28712499999999,88.5L74.524725,88.5L74.762325,88.5L74.99992499999999,88.5L75.237525,88.5L75.475125,88.5L75.71272499999999,88.5L75.95032499999999,88.5L76.187925,88.5L76.42552500000001,88.5L76.663125,88.5L76.90072500000001,88.5L77.13832500000001,88.5L77.375925,88.5L77.613525,88.5L77.85112500000001,88.5L78.088725,88.5L78.326325,88.5L78.56392500000001,88.5L78.801525,88.5L79.039125,88.5L79.276725,88.5L79.514325,88.5L79.751925,88.5L79.989525,88.5L80.227125,88.5L80.464725,88.5L80.702325,88.5L80.939925,88.5L81.177525,88.5L81.415125,88.5L81.65272499999999,88.5L81.890325,88.5L82.127925,88.5L82.36552499999999,88.5L82.603125,88.5L82.840725,88.5L83.07832499999999,88.5L83.315925,88.5L83.55352500000001,88.5L83.791125,88.5L84.028725,88.5L84.26632500000001,88.5L84.503925,88.5L84.741525,88.5L84.97912500000001,88.5L85.216725,88.5L85.454325,88.5L85.691925,88.5L85.929525,88.5L86.167125,88.5L86.404725,88.5L86.642325,88.5L86.879925,88.5L87.117525,88.5L87.35512499999999,88.5L87.592725,88.5L87.830325,88.5L88.06792499999999,88.5L88.305525,88.5L88.543125,88.5L88.780725,88.5L89.01832499999999,88.5L89.255925,88.5L89.493525,88.5L89.73112499999999,88.5L89.968725,88.5L90.206325,88.5L90.443925,88.5L90.68152500000001,88.5L90.91912500000001,88.5L91.156725,88.5L91.394325,88.5L91.63192500000001,88.5L91.869525,88.5L92.107125,88.5L92.34472500000001,88.5L92.582325,88.5L92.819925,88.5L93.057525,88.5L93.295125,88.5L93.532725,88.5L93.770325,88.5L94.007925,88.5L94.245525,88.5L94.483125,88.5L94.720725,88.5L94.958325,88.5L95.195925,88.5L95.43352499999999,88.5L95.671125,88.5L95.908725,88.5L96.14632499999999,88.5L96.383925,88.5L96.621525,88.5L96.85912499999999,88.5L97.09672499999999,88.5L97.334325,88.5L97.571925,88.5L97.809525,88.5L98.04712500000001,88.5L98.284725,88.5L98.522325,88.5L98.75992500000001,88.5L98.997525,88.5L99.235125,88.5L99.472725,88.5L99.71032500000001,88.5L99.947925,88.5L100.185525,88.5L100.42312500000001,88.5L100.660725,88.5L100.898325,88.5L101.13592499999999,88.5L101.373525,88.5L101.611125,88.5L101.848725,88.5L102.086325,88.5L102.323925,88.5L102.561525,88.5L102.79912499999999,88.5L103.036725,88.5L103.274325,88.5L103.51192499999999,88.5L103.749525,88.5L103.987125,88.5L104.22472499999999,88.5L104.462325,88.5L104.69992500000001,88.5L104.937525,88.5L105.175125,88.5L105.41272500000001,88.5L105.650325,88.5L105.887925,88.5L106.12552500000001,88.5L106.363125,88.5L106.600725,88.5L106.838325,88.5L107.075925,88.5L107.313525,88.5L107.551125,88.5L107.788725,88.5L108.026325,88.5L108.263925,88.5L108.501525,88.5L108.739125,88.5L108.976725,88.5L109.21432499999999,88.5L109.451925,88.5L109.689525,88.5L109.92712499999999,88.5L110.164725,88.5L110.402325,88.5L110.63992499999999,88.5L110.87752499999999,88.5L111.115125,88.5L111.35272499999999,88.5L111.59032499999999,88.5L111.82792500000001,88.5L112.06552500000001,88.5L112.303125,88.5L112.54072500000001,88.5L112.77832500000001,88.5L113.015925,88.5L113.253525,88.5L113.49112500000001,88.5L113.728725,88.5L113.966325,88.5L114.20392500000001,88.5L114.441525,88.5L114.679125,88.5L114.916725,88.5L115.154325,88.5L115.391925,88.5L115.629525,88.5L115.867125,88.5L116.104725,88.5L116.342325,88.5L116.57992499999999,88.5L116.817525,88.5L117.055125,88.5L117.29272499999999,88.5L117.530325,88.5L117.767925,88.5L118.00552499999999,88.5L118.243125,88.5L118.480725,88.5L118.718325,88.5L118.955925,88.5L119.19352500000001,88.5L119.431125,88.5L119.668725,88.5L119.90632500000001,88.5L120.143925,88.5L120.381525,88.5L120.619125,88.5L120.856725,88.5L121.094325,88.5L121.331925,88.5L121.569525,88.5L121.807125,88.5L122.044725,88.5L122.28232500000001,88.5L122.519925,88.5L122.757525,88.5L122.99512499999999,88.5L123.232725,88.5L123.470325,88.5L123.70792499999999,88.5L123.945525,88.5L124.183125,88.5L124.420725,88.5L124.65832499999999,88.5L124.895925,88.5L125.133525,88.5L125.37112499999999,88.5L125.608725,88.5L125.84632500000001,88.5L126.083925,88.5L126.32152500000001,88.5L126.55912500000001,88.5L126.796725,88.5L127.034325,88.5L127.27192500000001,88.5L127.509525,88.5L127.747125,88.5L127.98472500000001,88.5L128.222325,88.5L128.459925,88.5L128.69752499999998,88.5L128.935125,88.5L129.17272499999999,88.5L129.410325,88.5L129.64792500000001,88.5L129.885525,88.5L130.123125,88.5L130.360725,88.5L130.59832500000002,88.5L130.835925,88.5L131.073525,88.5L131.311125,88.5L131.548725,88.5L131.786325,88.5L132.02392500000002,88.5L132.261525,88.5L132.499125,88.5L132.736725,88.5L132.974325,88.5L133.211925,88.5L133.449525,88.5L133.687125,88.5L133.924725,88.5L134.162325,88.5L134.399925,88.5L134.637525,88.5L134.875125,88.5L135.11272499999998,88.5L135.350325,88.5L135.587925,88.5L135.825525,88.5L136.063125,88.5L136.300725,88.5L136.538325,88.5L136.775925,88.5L137.01352500000002,88.5L137.251125,88.5L137.488725,88.5L137.726325,88.5L137.963925,88.5L138.201525,88.5L138.439125,88.5L138.676725,88.5L138.914325,88.5L139.151925,88.5L139.389525,88.5L139.62712499999998,88.5L139.864725,88.5L140.102325,88.5L140.339925,88.5L140.577525,88.5L140.81512500000002,88.5L141.05272499999998,88.5L141.290325,88.5L141.527925,88.5L141.765525,88.5L142.003125,88.5L142.24072500000003,88.5L142.47832499999998,88.5L142.715925,88.5L142.953525,88.5L143.191125,88.5L143.42872500000001,88.5L143.66632499999997,88.5L143.903925,88.5L144.141525,88.5L144.379125,88.5L144.616725,88.5L144.85432500000002,88.5L145.091925,88.5L145.329525,88.5L145.567125,88.5L145.804725,88.5L146.042325,88.5L146.27992500000002,88.5L146.517525,88.5L146.755125,88.5L146.99272499999998,88.5L147.230325,88.5L147.467925,88.5L147.705525,88.5L147.943125,88.5L148.180725,88.5L148.41832499999998,88.5L148.655925,88.5L148.893525,88.5L149.131125,88.5L149.368725,88.5L149.606325,88.5L149.84392499999998,88.5L150.081525,88.5L150.319125,88.5L150.556725,88.5L150.79432500000001,88.5L151.03192499999997,88.5L151.269525,88.5L151.507125,88.5L151.744725,88.5L151.982325,88.5L152.21992500000002,88.5L152.45752499999998,88.5L152.695125,88.5L152.932725,88.5L153.170325,88.5L153.407925,88.5L153.64552500000002,88.5L153.88312499999998,88.5L154.120725,88.5L154.358325,88.5L154.595925,88.5L154.833525,88.5L155.071125,88.5L155.308725,88.5L155.546325,88.5L155.78392499999998,88.5L156.021525,88.5L156.259125,88.5L156.496725,88.5L156.734325,88.5L156.971925,88.5L157.20952499999999,88.5L157.447125,88.5L157.68472500000001,88.5L157.922325,88.5L158.15992500000002,88.5L158.397525,88.5L158.635125,88.5L158.872725,88.5L159.110325,88.5L159.347925,88.5L159.58552500000002,88.5L159.82312499999998,88.5L160.060725,88.5L160.298325,88.5L160.535925,88.5L160.773525,88.5L161.01112500000002,88.5L161.24872499999998,88.5L161.486325,88.5L161.723925,88.5L161.961525,88.5L162.199125,88.5L162.43672500000002,88.5L162.67432499999998,88.5L162.911925,88.5L163.14952499999998,88.5L163.387125,88.5L163.624725,88.5L163.862325,88.5L164.09992499999998,88.5L164.337525,88.5L164.57512499999999,88.5L164.812725,88.5L165.05032500000002,88.5L165.287925,88.5L165.52552500000002,88.5L165.763125,88.5L166.000725,88.5L166.238325,88.5L166.47592500000002,88.5L166.713525,88.5L166.95112500000002,88.5L167.18872499999998,88.5L167.426325,88.5L167.663925,88.5L167.901525,88.5L168.139125,88.5L168.37672500000002,88.5L168.61432499999998,88.5L168.851925,88.5L169.089525,88.5L169.327125,88.5L169.564725,88.5L169.80232500000002,88.5L170.03992499999998,88.5L170.277525,88.5L170.515125,88.5L170.752725,88.5L170.990325,88.5L171.227925,88.5L171.46552499999999,88.5L171.703125,88.5L171.940725,88.5L172.178325,88.5L172.41592500000002,88.5L172.653525,88.5L172.891125,88.5L173.128725,88.5L173.366325,88.5L173.603925,88.5L173.84152500000002,88.5L174.079125,88.5L174.316725,88.5L174.55432499999998,88.5L174.791925,88.5L175.029525,88.5L175.267125,88.5L175.504725,88.5L175.74232500000002,88.5L175.97992499999998,88.5L176.217525,88.5L176.455125,88.5L176.692725,88.5L176.930325,88.5L177.16792500000003,88.5L177.40552499999998,88.5L177.643125,88.5L177.880725,88.5L178.118325,88.5L178.355925,88.5L178.59352499999997,88.5L178.831125,88.5L179.068725,88.5L179.306325,88.5L179.543925,88.5L179.78152500000002,88.5L180.019125,88.5L180.256725,88.5L180.494325,88.5L180.731925,88.5L180.969525,88.5L181.20712500000002,88.5L181.444725,88.5L181.682325,88.5L181.919925,88.5L182.157525,88.5L182.395125,88.5L182.632725,88.5L182.870325,88.5L183.107925,88.5L183.34552499999998,88.5L183.583125,88.5L183.820725,88.5L184.058325,88.5L184.295925,88.5L184.533525,88.5L184.77112499999998,88.5L185.008725,88.5L185.246325,88.5L185.483925,88.5L185.721525,88.5L185.95912500000003,88.5L186.196725,88.5L186.434325,88.5L186.671925,88.5L186.909525,88.5L187.14712500000002,88.5L187.38472499999997,88.5L187.622325,88.5L187.859925,88.5L188.097525,88.5L188.335125,88.5L188.57272500000002,88.5L188.81032499999998,88.5L189.047925,88.5L189.285525,88.5L189.523125,88.5L189.760725,88.5L189.99832500000002,88.5L190.235925,88.5L190.473525,88.5L190.71112499999998,88.5L190.948725,88.5L191.186325,88.5L191.423925,88.5L191.661525,88.5L191.899125,88.5L192.13672499999998,88.5L192.374325,88.5L192.611925,88.5L192.849525,88.5L193.08712500000001,88.5L193.324725,88.5L193.562325,88.5L193.799925,88.5L194.03752500000002,88.5L194.275125,88.5L194.51272500000002,88.5L194.75032499999998,88.5L194.987925,88.5L195.225525,88.5L195.463125,88.5L195.700725,88.5L195.93832500000002,88.5L196.17592499999998,88.5L196.413525,88.5L196.651125,88.5L196.888725,88.5L197.126325,88.5L197.36392500000002,88.5L197.60152499999998,88.5L197.839125,88.5L198.07672499999998,88.5L198.314325,88.5L198.551925,88.5L198.789525,88.5L199.02712499999998,88.5L199.264725,88.5L199.50232499999998,88.5L199.739925,88.5L199.977525,88.5L200.215125,88.5L200.45272500000002,88.5L200.690325,88.5L200.927925,88.5L201.165525,88.5L201.40312500000002,88.5L201.640725,88.5L201.87832500000002,88.5L202.11592499999998,88.5L202.353525,88.5L202.591125,88.5L202.828725,88.5L203.066325,88.5L203.30392500000002,88.5L203.54152499999998,88.5L203.779125,88.5L204.016725,88.5L204.254325,88.5L204.491925,88.5L204.72952500000002,88.5L204.96712499999998,88.5L205.204725,88.5L205.442325,88.5L205.679925,88.5L205.917525,88.5L206.155125,88.5L206.39272499999998,88.5L206.630325,88.5L206.86792499999999,88.5L207.105525,88.5L207.34312500000001,88.5L207.580725,88.5L207.818325,88.5L208.055925,88.5L208.293525,88.5L208.531125,88.5L208.76872500000002,88.5L209.006325,88.5L209.243925,88.5L209.481525,88.5L209.719125,88.5L209.956725,88.5L210.194325,88.5L210.431925,88.5L210.66952500000002,88.5L210.90712499999998,88.5L211.144725,88.5L211.382325,88.5L211.619925,88.5L211.857525,88.5L212.09512500000002,88.5L212.33272499999998,88.5L212.570325,88.5L212.807925,88.5L213.045525,88.5L213.283125,88.5L213.52072500000003,88.5L213.75832499999999,88.5L213.995925,88.5L214.233525,88.5L214.471125,88.5L214.70872500000002,88.5L214.946325,88.5L215.183925,88.5L215.421525,88.5L215.659125,88.5L215.896725,88.5L216.13432500000002,88.5L216.371925,88.5L216.609525,88.5L216.847125,88.5L217.084725,88.5L217.322325,88.5L217.55992500000002,88.5L217.797525,88.5L218.035125,88.5L218.27272499999998,88.5L218.510325,88.5L218.747925,88.5L218.985525,88.5L219.223125,88.5L219.460725,88.5L219.69832499999998,88.5L219.935925,88.5L220.173525,88.5L220.411125,88.5L220.648725,88.5L220.88632500000003,88.5L221.12392499999999,88.5L221.361525,88.5L221.599125,88.5L221.836725,88.5L222.07432500000002,88.5L222.31192499999997,88.5L222.549525,88.5L222.787125,88.5L223.024725,88.5L223.262325,88.5L223.49992500000002,88.5L223.73752499999998,88.5L223.975125,88.5L224.212725,88.5L224.450325,88.5L224.687925,88.5L224.92552500000002,88.5L225.163125,88.5L225.400725,88.5L225.63832499999998,88.5L225.875925,88.5L226.113525,88.5L226.351125,88.5L226.588725,88.5L226.826325,88.5L227.06392499999998,88.5L227.301525,88.5L227.539125,88.5L227.776725,88.5L228.014325,88.5L228.251925,88.5L228.489525,88.5L228.727125,88.5L228.96472500000002,88.5L229.202325,88.5L229.43992500000002,88.5L229.67752499999997,88.5L229.915125,88.5L230.152725,88.5L230.390325,88.5L230.627925,88.5L230.86552500000002,88.5L231.10312499999998,88.5L231.340725,88.5L231.578325,88.5L231.815925,88.5L232.053525,88.5L232.29112500000002,88.5L232.52872499999998,88.5L232.766325,88.5L233.003925,88.5L233.241525,88.5L233.479125,88.5L233.716725,88.5L233.95432499999998,88.5L234.191925,88.5L234.42952499999998,88.5L234.667125,88.5L234.904725,88.5L235.142325,88.5L235.37992500000001,88.5L235.617525,88.5L235.855125,88.5L236.092725,88.5L236.33032500000002,88.5L236.567925,88.5L236.80552500000002,88.5L237.043125,88.5L237.280725,88.5L237.518325,88.5L237.755925,88.5L237.993525,88.5L238.23112500000002,88.5L238.46872499999998,88.5L238.706325,88.5L238.943925,88.5L239.181525,88.5L239.419125,88.5L239.65672500000002,88.5L239.89432499999998,88.5L240.131925,88.5L240.369525,88.5L240.607125,88.5L240.844725,88.5L241.08232500000003,88.5L241.31992499999998,88.5L241.557525,88.5L241.79512499999998,88.5L242.032725,88.5L242.270325,88.5L242.507925,88.5L242.745525,88.5L242.983125,88.5L243.220725,88.5L243.458325,88.5L243.69592500000002,88.5L243.933525,88.5L244.171125,88.5L244.408725,88.5L244.646325,88.5L244.883925,88.5L245.12152500000002,88.5L245.359125,88.5L245.596725,88.5L245.83432499999998,88.5L246.071925,88.5L246.309525,88.5L246.547125,88.5L246.784725,88.5L247.02232500000002,88.5L247.25992499999998,88.5L247.497525,88.5L247.735125,88.5L247.972725,88.5L248.210325,88.5L248.44792500000003,88.5L248.68552499999998,88.5L248.923125,88.5L249.16072499999999,88.5L249.398325,88.5L249.63592500000001,88.5L249.873525,88.5L250.111125,88.5L250.348725,88.5L250.586325,88.5L250.823925,88.5L251.06152500000002,88.5L251.299125,88.5L251.536725,88.5L251.774325,88.5L252.011925,88.5L252.249525,88.5L252.48712500000002,88.5L252.724725,88.5L252.962325,88.5L253.19992499999998,88.5L253.437525,88.5L253.675125,88.5L253.912725,88.5L254.150325,88.5L254.387925,88.5L254.62552499999998,88.5L254.863125,88.5L255.100725,88.5L255.338325,88.5" style="fill: none;" fill="none"></path></g></g></g></g></g></g><g transform="translate(51, 177)" clip-path="url(#clip_1)"><clipPath id="clip_1"><rect width="278" height="23"></rect></clipPath><g><g><line x1="0" y1="0" x2="0" y2="5" style="visibility: inherit;" fill="rgb(0, 0, 0)" stroke="rgb(204, 204, 204)" stroke-width="1px"></line><line x1="23.203125" y1="0" x2="23.203125" y2="5" style="visibility: inherit;" fill="rgb(0, 0, 0)" stroke="rgb(204, 204, 204)" stroke-width="1px"></line><line x1="46.40625" y1="0" x2="46.40625" y2="5" style="visibility: inherit;" fill="rgb(0, 0, 0)" stroke="rgb(204, 204, 204)" stroke-width="1px"></line><line x1="69.609375" y1="0" x2="69.609375" y2="5" style="visibility: inherit;" fill="rgb(0, 0, 0)" stroke="rgb(204, 204, 204)" stroke-width="1px"></line><line x1="92.8125" y1="0" x2="92.8125" y2="5" style="visibility: inherit;" fill="rgb(0, 0, 0)" stroke="rgb(204, 204, 204)" stroke-width="1px"></line><line x1="116.015625" y1="0" x2="116.015625" y2="5" style="visibility: inherit;" fill="rgb(0, 0, 0)" stroke="rgb(204, 204, 204)" stroke-width="1px"></line><line x1="139.21875" y1="0" x2="139.21875" y2="5" style="visibility: inherit;" fill="rgb(0, 0, 0)" stroke="rgb(204, 204, 204)" stroke-width="1px"></line><line x1="162.421875" y1="0" x2="162.421875" y2="5" style="visibility: inherit;" fill="rgb(0, 0, 0)" stroke="rgb(204, 204, 204)" stroke-width="1px"></line><line x1="185.625" y1="0" x2="185.625" y2="5" style="visibility: inherit;" fill="rgb(0, 0, 0)" stroke="rgb(204, 204, 204)" stroke-width="1px"></line><line x1="208.828125" y1="0" x2="208.828125" y2="5" style="visibility: inherit;" fill="rgb(0, 0, 0)" stroke="rgb(204, 204, 204)" stroke-width="1px"></line><line x1="232.03125" y1="0" x2="232.03125" y2="5" style="visibility: inherit;" fill="rgb(0, 0, 0)" stroke="rgb(204, 204, 204)" stroke-width="1px"></line><line x1="255.234375" y1="0" x2="255.234375" y2="5" style="visibility: inherit;" fill="rgb(0, 0, 0)" stroke="rgb(204, 204, 204)" stroke-width="1px"></line><line x1="278.4375" y1="0" x2="278.4375" y2="5" style="visibility: inherit;" fill="rgb(0, 0, 0)" stroke="rgb(204, 204, 204)" stroke-width="1px"></line></g><g transform="translate(0, 8)"><text x="0" y="0" dx="0em" dy="0.95em" style="text-anchor: middle; visibility: hidden; font-family: Roboto, sans-serif; font-size: 12px; font-weight: 200;" fill="rgb(33, 33, 33)" stroke="none" stroke-width="1px">-200k</text><text x="23.203125" y="0" dx="0em" dy="0.95em" style="text-anchor: middle; visibility: inherit; font-family: Roboto, sans-serif; font-size: 12px; font-weight: 200;" fill="rgb(33, 33, 33)" stroke="none" stroke-width="1px">0</text><text x="46.40625" y="0" dx="0em" dy="0.95em" style="text-anchor: middle; visibility: hidden; font-family: Roboto, sans-serif; font-size: 12px; font-weight: 200;" fill="rgb(33, 33, 33)" stroke="none" stroke-width="1px">200k</text><text x="69.609375" y="0" dx="0em" dy="0.95em" style="text-anchor: middle; visibility: inherit; font-family: Roboto, sans-serif; font-size: 12px; font-weight: 200;" fill="rgb(33, 33, 33)" stroke="none" stroke-width="1px">400k</text><text x="92.8125" y="0" dx="0em" dy="0.95em" style="text-anchor: middle; visibility: hidden; font-family: Roboto, sans-serif; font-size: 12px; font-weight: 200;" fill="rgb(33, 33, 33)" stroke="none" stroke-width="1px">600k</text><text x="116.015625" y="0" dx="0em" dy="0.95em" style="text-anchor: middle; visibility: inherit; font-family: Roboto, sans-serif; font-size: 12px; font-weight: 200;" fill="rgb(33, 33, 33)" stroke="none" stroke-width="1px">800k</text><text x="139.21875" y="0" dx="0em" dy="0.95em" style="text-anchor: middle; visibility: hidden; font-family: Roboto, sans-serif; font-size: 12px; font-weight: 200;" fill="rgb(33, 33, 33)" stroke="none" stroke-width="1px">1M</text><text x="162.421875" y="0" dx="0em" dy="0.95em" style="text-anchor: middle; visibility: inherit; font-family: Roboto, sans-serif; font-size: 12px; font-weight: 200;" fill="rgb(33, 33, 33)" stroke="none" stroke-width="1px">1.2M</text><text x="185.625" y="0" dx="0em" dy="0.95em" style="text-anchor: middle; visibility: hidden; font-family: Roboto, sans-serif; font-size: 12px; font-weight: 200;" fill="rgb(33, 33, 33)" stroke="none" stroke-width="1px">1.4M</text><text x="208.828125" y="0" dx="0em" dy="0.95em" style="text-anchor: middle; visibility: inherit; font-family: Roboto, sans-serif; font-size: 12px; font-weight: 200;" fill="rgb(33, 33, 33)" stroke="none" stroke-width="1px">1.6M</text><text x="232.03125" y="0" dx="0em" dy="0.95em" style="text-anchor: middle; visibility: hidden; font-family: Roboto, sans-serif; font-size: 12px; font-weight: 200;" fill="rgb(33, 33, 33)" stroke="none" stroke-width="1px">1.8M</text><text x="255.234375" y="0" dx="0em" dy="0.95em" style="text-anchor: middle; visibility: inherit; font-family: Roboto, sans-serif; font-size: 12px; font-weight: 200;" fill="rgb(33, 33, 33)" stroke="none" stroke-width="1px">2M</text><text x="278.4375" y="0" dx="0em" dy="0.95em" style="text-anchor: middle; visibility: hidden; font-family: Roboto, sans-serif; font-size: 12px; font-weight: 200;" fill="rgb(33, 33, 33)" stroke="none" stroke-width="1px">2.2M</text></g><line x1="0" y1="0" x2="278.4375" y2="0" fill="rgb(0, 0, 0)" stroke="rgb(204, 204, 204)" stroke-width="1px"></line></g></g></g></g></svg>