<svg viewBox="0 0 330 200" xmlns="http://www.w3.org/2000/svg"><g><g><g><g><g><line x1="51.5625" y1="177" x2="46.5625" y2="177" style="visibility: inherit;" fill="rgb(0, 0, 0)" stroke="rgb(204, 204, 204)" stroke-width="1px"></line><line x1="51.5625" y1="154.875" x2="46.5625" y2="154.875" style="visibility: inherit;" fill="rgb(0, 0, 0)" stroke="rgb(204, 204, 204)" stroke-width="1px"></line><line x1="51.5625" y1="132.75" x2="46.5625" y2="132.75" style="visibility: inherit;" fill="rgb(0, 0, 0)" stroke="rgb(204, 204, 204)" stroke-width="1px"></line><line x1="51.5625" y1="110.625" x2="46.5625" y2="110.625" style="visibility: inherit;" fill="rgb(0, 0, 0)" stroke="rgb(204, 204, 204)" stroke-width="1px"></line><line x1="51.5625" y1="88.5" x2="46.5625" y2="88.5" style="visibility: inherit;" fill="rgb(0, 0, 0)" stroke="rgb(204, 204, 204)" stroke-width="1px"></line><line x1="51.5625" y1="66.375" x2="46.5625" y2="66.375" style="visibility: inherit;" fill="rgb(0, 0, 0)" stroke="rgb(204, 204, 204)" stroke-width="1px"></line><line x1="51.5625" y1="44.25" x2="46.5625" y2="44.25" style="visibility: inherit;" fill="rgb(0, 0, 0)" stroke="rgb(204, 204, 204)" stroke-width="1px"></line><line x1="51.5625" y1="22.125" x2="46.5625" y2="22.125" style="visibility: inherit;" fill="rgb(0, 0, 0)" stroke="rgb(204, 204, 204)" stroke-width="1px"></line><line x1="51.5625" y1="0" x2="46.5625" y2="0" style="visibility: inherit;" fill="rgb(0, 0, 0)" stroke="rgb(204, 204, 204)" stroke-width="1px"></line></g><g transform="translate(41.5625, 0)"><text x="0" y="177" dx="0em" dy="0.3em" style="text-anchor: end; visibility: hidden; font-family: Roboto, sans-serif; font-size: 12px; font-weight: 200;" fill="rgb(33, 33, 33)" stroke="none" stroke-width="1px">27</text><text x="0" y="154.875" dx="0em" dy="0.3em" style="text-anchor: end; visibility: inherit; font-family: Roboto, sans-serif; font-size: 12px; font-weight: 200;" fill="rgb(33, 33, 33)" stroke="none" stroke-width="1px">27.5</text><text x="0" y="132.75" dx="0em" dy="0.3em" style="text-anchor: end; visibility: hidden; font-family: Roboto, sans-serif; font-size: 12px; font-weight: 200;" fill="rgb(33, 33, 33)" stroke="none" stroke-width="1px">28</text><text x="0" y="110.625" dx="0em" dy="0.3em" style="text-anchor: end; visibility: inherit; font-family: Roboto, sans-serif; font-size: 12px; font-weight: 200;" fill="rgb(33, 33, 33)" stroke="none" stroke-width="1px">28.5</text><text x="0" y="88.5" dx="0em" dy="0.3em" style="text-anchor: end; visibility: hidden; font-family: Roboto, sans-serif; font-size: 12px; font-weight: 200;" fill="rgb(33, 33, 33)" stroke="none" stroke-width="1px">29</text><text x="0" y="66.375" dx="0em" dy="0.3em" style="text-anchor: end; visibility: inherit; font-family: Roboto, sans-serif; font-size: 12px; font-weight: 200;" fill="rgb(33, 33, 33)" stroke="none" stroke-width="1px">29.5</text><text x="0" y="44.25" dx="0em" dy="0.3em" style="text-anchor: end; visibility: hidden; font-family: Roboto, sans-serif; font-size: 12px; font-weight: 200;" fill="rgb(33, 33, 33)" stroke="none" stroke-width="1px">30</text><text x="0" y="22.125" dx="0em" dy="0.3em" style="text-anchor: end; visibility: inherit; font-family: Roboto, sans-serif; font-size: 12px; font-weight: 200;" fill="rgb(33, 33, 33)" stroke="none" stroke-width="1px">30.5</text><text x="0" y="0" dx="0em" dy="0.3em" style="text-anchor: end; visibility: hidden; font-family: Roboto, sans-serif; font-size: 12px; font-weight: 200;" fill="rgb(33, 33, 33)" stroke="none" stroke-width="1px">31</text></g><line x1="51.5625" y1="0" x2="51.5625" y2="177" fill="rgb(0, 0, 0)" stroke="rgb(204, 204, 204)" stroke-width="1px"></line></g></g><g transform="translate(51, 0)" clip-path="url(#clip_0)"><clipPath id="clip_0"><rect width="278" height="177"></rect></clipPath><g><g><g><line x1="0" y1="0" x2="0" y2="177" fill="rgb(0, 0, 0)" stroke="rgb(66, 66, 66)" stroke-width="1px" opacity="0.25"></line><line x1="23.203125" y1="0" x2="23.203125" y2="177" fill="rgb(0, 0, 0)" stroke="rgb(66, 66, 66)" stroke-width="1px" opacity="0.25"></line><line x1="46.40625" y1="0" x2="46.40625" y2="177" fill="rgb(0, 0, 0)" stroke="rgb(66, 66, 66)" stroke-width="1px" opacity="0.25"></line><line x1="69.609375" y1="0" x2="69.609375" y2="177" fill="rgb(0, 0, 0)" stroke="rgb(66, 66, 66)" stroke-width="1px" opacity="0.25"></line><line x1="92.8125" y1="0" x2="92.8125" y2="177" fill="rgb(0, 0, 0)" stroke="rgb(66, 66, 66)" stroke-width="1px" opacity="0.25"></line><line x1="116.015625" y1="0" x2="116.015625" y2="177" fill="rgb(0, 0, 0)" stroke="rgb(66, 66, 66)" stroke-width="1px" opacity="0.25"></line><line x1="139.21875" y1="0" x2="139.21875" y2="177" fill="rgb(0, 0, 0)" stroke="rgb(66, 66, 66)" stroke-width="1px" opacity="0.25"></line><line x1="162.421875" y1="0" x2="162.421875" y2="177" fill="rgb(0, 0, 0)" stroke="rgb(66, 66, 66)" stroke-width="1px" opacity="0.25"></line><line x1="185.625" y1="0" x2="185.625" y2="177" fill="rgb(0, 0, 0)" stroke="rgb(66, 66, 66)" stroke-width="1px" opacity="0.25"></line><line x1="208.828125" y1="0" x2="208.828125" y2="177" fill="rgb(0, 0, 0)" stroke="rgb(66, 66, 66)" stroke-width="1px" opacity="0.25"></line><line x1="232.03125" y1="0" x2="232.03125" y2="177" fill="rgb(0, 0, 0)" stroke="rgb(66, 66, 66)" stroke-width="1px" opacity="0.25"></line><line x1="255.234375" y1="0" x2="255.234375" y2="177" fill="rgb(0, 0, 0)" stroke="rgb(66, 66, 66)" stroke-width="1px" opacity="0.25"></line><line x1="278.4375" y1="0" x2="278.4375" y2="177" fill="rgb(0, 0, 0)" stroke="rgb(66, 66, 66)" stroke-width="1px" opacity="0.25"></line></g><g><line x1="0" y1="177" x2="278.4375" y2="177" fill="rgb(0, 0, 0)" stroke="rgb(66, 66, 66)" stroke-width="1px" opacity="0.25"></line><line x1="0" y1="154.875" x2="278.4375" y2="154.875" fill="rgb(0, 0, 0)" stroke="rgb(66, 66, 66)" stroke-width="1px" opacity="0.25"></line><line x1="0" y1="132.75" x2="278.4375" y2="132.75" fill="rgb(0, 0, 0)" stroke="rgb(66, 66, 66)" stroke-width="1px" opacity="0.25"></line><line x1="0" y1="110.625" x2="278.4375" y2="110.625" fill="rgb(0, 0, 0)" stroke="rgb(66, 66, 66)" stroke-width="1px" opacity="0.25"></line><line x1="0" y1="88.5" x2="278.4375" y2="88.5" fill="rgb(0, 0, 0)" stroke="rgb(66, 66, 66)" stroke-width="1px" opacity="0.25"></line><line x1="0" y1="66.375" x2="278.4375" y2="66.375" fill="rgb(0, 0, 0)" stroke="rgb(66, 66, 66)" stroke-width="1px" opacity="0.25"></line><line x1="0" y1="44.25" x2="278.4375" y2="44.25" fill="rgb(0, 0, 0)" stroke="rgb(66, 66, 66)" stroke-width="1px" opacity="0.25"></line><line x1="0" y1="22.125" x2="278.4375" y2="22.125" fill="rgb(0, 0, 0)" stroke="rgb(66, 66, 66)" stroke-width="1px" opacity="0.25"></line><line x1="0" y1="0" x2="278.4375" y2="0" fill="rgb(0, 0, 0)" stroke="rgb(66, 66, 66)" stroke-width="1px" opacity="0.25"></line></g></g></g><g><g><line x1="0" y1="1371.75" x2="278.4375" y2="1371.75" fill="rgb(0, 0, 0)" stroke="rgb(153, 153, 153)" stroke-width="1.5px"></line></g></g><g><g><line x1="23.203125" y1="0" x2="23.203125" y2="177" fill="rgb(0, 0, 0)" stroke="rgb(153, 153, 153)" stroke-width="1.5px"></line></g></g><g><g><g><g><g><path stroke="rgb(255, 112, 67)" stroke-width="2px" d="M24.153525,239.5594798594104L24.391125,132.00194571649325L24.628725,64.26279355617636L24.866325000000003,37.41520016751657L25.103925,26.179001161888987L25.341525,33.87813212872147L25.579125,38.808040852701566L25.816724999999998,56.87966437356276L26.054325,48.689050879326686L26.291925000000003,53.57902890198301L26.529525,54.740025220432244L26.767125,60.05616486055769L27.004725,56.90333371285835L27.242324999999997,48.91332194035362L27.479924999999998,72.26876126396552L27.717525000000002,73.19856928351369L27.955125000000002,76.30675105228387L28.192725,81.12599070827628L28.430325,85.60954783730003L28.667925,80.53621990214225L28.905524999999997,89.56928386131246L29.143125,95.90158185849532L29.380725,96.98885221539334L29.618325,103.3246963054245L29.855925,103.12217982726283L30.093525,103.65045055475011L30.331124999999997,108.08138276715282L30.568725,100.48649887969825L30.806325,96.07784387243026L31.043925,80.32560655141945L31.281525,83.55782288646587L31.519125,86.24281129385399L31.756725000000003,86.64380957068147L31.994325,97.2735640274027L32.231925000000004,95.02625864942092L32.469525,93.57153120811554L32.707125,94.05341887090162L32.944725,67.57020760580397L33.182325,78.5910072474926L33.419925,89.55870496259914L33.657525,90.41337925832387L33.895125,95.0454188750717L34.132725,96.65472115095486L34.370325,98.40495408197863L34.607925,107.23121974871168L34.845524999999995,106.14970177412943L35.083125,105.6468370556818L35.320725,99.31543453926591L35.558324999999996,104.99523930787664L35.795925000000004,104.76780398511589L36.033525,111.27981481448172L36.271125,101.15160947736265L36.508725,101.25065234718434L36.746325,108.70333101402636L36.983925,103.77117177278245L37.221525,91.58410103577474L37.459125,87.17232131634965L37.696724999999994,88.8950220088651L37.934325,98.34388023260212L38.171925,98.87616151358465L38.409525,100.14371563068494L38.647125,104.0801930014578L38.884724999999996,103.37305266763504L39.122325000000004,104.48589825097136L39.359925000000004,98.68406195320739L39.597525,107.62487694548403L39.835125000000005,97.37556951598424L40.072725,88.91794405791805L40.310325,86.06950785168195L40.547925,98.70152164368756L40.785525,96.7942850641544L41.023125,96.32392916990136L41.260725,103.67179547496325L41.498325,99.48850971905998L41.735924999999995,101.10540308027637L41.973525,102.56428364198908L42.211125,87.0668554024787L42.448724999999996,86.53514612417767L42.686325000000004,90.29177134455061L42.923925,92.80792718661318L43.161525,96.20183776338392L43.399125,102.13379243921938L43.636725,104.4502570385439L43.874325000000006,101.7791031214418L44.111925,97.72387666778702L44.349525,96.83739091919031L44.587125,91.24307557324266L44.824725,91.12573139893824L45.062325,96.53154597895032L45.299925,95.2485519541305L45.537525,92.41463105040793L45.775124999999996,97.46598882769358L46.012725,105.93730642375226L46.250325000000004,106.06114770160237L46.487925,108.02780571690856L46.725525000000005,102.18391651577753L46.963125,88.02962290446166L47.200725,89.24691574096818L47.438325,91.304501106263L47.675925,93.9433024703984L47.913525,92.91655845520053L48.151125,88.48602916644313L48.388725,95.86728144792484L48.626324999999994,101.698662478374L48.863925,103.38801882186334L49.101525,98.12374490212676L49.339124999999996,96.72830024785571L49.576725,97.68406457559328L49.814325,100.4478428057197L50.051925000000004,97.55363171645178L50.289525,94.25489154665567L50.527125,92.05752362733435L50.764725000000006,100.51976674750662L51.002325,95.07966896268849L51.239925,98.025674035389L51.477525,107.38990069045957L51.715125,104.37963266738853L51.952725,99.00969125967384L52.190325,95.43571015680521L52.427925,93.41923840334827L52.665524999999995,100.12923164064175L52.903125,102.04238731202173L53.140725,101.19043540082376L53.378325,102.57414950801132L53.615925000000004,98.98626502676727L53.853525,105.08061323358953L54.091125,98.41119810220194L54.328725,76.54631908104768L54.566325,81.48376297572815L54.803925,87.67207159769272L55.041525,96.22726372582764L55.279125,82.19613721193711L55.516724999999994,94.62882887257238L55.754325,100.57552005608741L55.991925,98.17482176875981L56.229525,87.04657911930045L56.467125,95.27389454647034L56.704724999999996,80.81944441678604L56.942325000000004,89.1723494045882L57.179925,92.85256144481593L57.417525,73.35802715467042L57.655125000000005,63.28864327339298L57.892725,72.5256393865822L58.130325,78.96973734593848L58.367925,80.56758688388145L58.605525,72.56566485463301L58.843125,85.09348845898333L59.080725,70.24015202772156L59.318325,76.14223803670124L59.555924999999995,70.74274257177676L59.793525,80.7978286943112L60.031125,101.2393072248264L60.268724999999996,88.34521054034012L60.506325000000004,81.24317178013654L60.743925,59.73770947982505L60.981525,67.99885680514353L61.219125,81.66030937574982L61.456725,76.58508428420227L61.694325000000006,86.66127338698858L61.931925,73.27739090139488L62.169525,75.38760763654011L62.407125,76.08076175599633L62.644725,69.79318704932527L62.882325,87.60764173704146L63.119925,78.06160843394848L63.357525,82.40238940729292L63.595124999999996,75.25445129879466L63.832725,77.61301261429877L64.070325,80.36241492178968L64.307925,62.36089301435301L64.545525,25.390422107745046L64.783125,44.615204001646475L65.020725,42.943268481004914L65.258325,55.16632386631288L65.495925,9.045271233239843L65.733525,30.793264577102107L65.971125,37.69674865562399L66.208725,57.042923308364635L66.446325,63.15310441073899L66.683925,71.00208584438045L66.921525,50.81889162045889L67.159125,43.24406667698722L67.396725,42.79521358102156L67.634325,56.68308613353728L67.871925,68.91148551496133L68.10952499999999,90.43102960701137L68.347125,85.4083261306009L68.584725,79.57745989650019L68.82232499999999,87.25406375223113L69.059925,80.8866526525837L69.297525,80.54119760046139L69.535125,89.68573426157072L69.77272500000001,66.58793935149806L70.010325,71.09224267584024L70.247925,63.09578559268677L70.48552500000001,76.58111656587829L70.723125,71.43104146052313L70.960725,80.10449050741747L71.19832500000001,87.12461542414029L71.435925,95.46183342532146L71.673525,74.72673537013425L71.911125,87.94613243149226L72.148725,85.70093236569454L72.386325,81.71556407334737L72.623925,78.71274565531206L72.861525,88.15791835113396L73.099125,71.16411460473552L73.336725,85.71139848848821L73.57432499999999,88.81534102332981L73.811925,99.26191350682012L74.049525,84.80586617507602L74.28712499999999,83.68932834457182L74.524725,93.36430158132809L74.762325,84.89161142059868L74.99992499999999,93.31344356744694L75.237525,83.37501205569036L75.475125,86.98114393690545L75.71272499999999,87.37961024367401L75.95032499999999,89.20392791225669L76.187925,107.85976462241507L76.42552500000001,110.04131958887876L76.663125,110.61104205850292L76.90072500000001,113.95812952282144L77.13832500000001,108.85283124305069L77.375925,100.41984293375765L77.613525,106.20557397314528L77.85112500000001,98.03846450870407L78.088725,110.70275342598663L78.326325,103.90339930138039L78.56392500000001,102.88953885603588L78.801525,107.31302610140236L79.039125,106.90075873792881L79.276725,109.2437410322469L79.514325,99.50587119863272L79.751925,80.47329219702381L79.989525,88.58873968436416L80.227125,80.08081644245446L80.464725,79.26170092504302L80.702325,68.40187243033093L80.939925,86.1400204384842L81.177525,91.08333153036354L81.415125,96.20192781989046L81.65272499999999,90.81281185093079L81.890325,91.93618068660831L82.127925,104.73084388712371L82.36552499999999,98.96556321703979L82.603125,91.501572656176L82.840725,93.29512427302686L83.07832499999999,96.95221265585704L83.315925,92.16380272168799L83.55352500000001,97.69849983369642L83.791125,107.88571138093064L84.028725,110.61224080866093L84.26632500000001,96.54975930300668L84.503925,102.3181705918748L84.741525,101.78351042549832L84.97912500000001,107.63365014720564L85.216725,108.28499870496151L85.454325,103.42851379512045L85.691925,96.96404244302687L85.929525,97.49189287304259L86.167125,106.93675235437978L86.404725,109.21820814327985L86.642325,106.97995309183949L86.879925,105.79361302942016L87.117525,103.81884474331122L87.35512499999999,104.13343731626257L87.592725,109.73676805534583L87.830325,107.02931345008989L88.06792499999999,95.02810900511247L88.305525,92.37814260185911L88.543125,96.31036506093236L88.780725,98.10593911407403L89.01832499999999,94.4111287379147L89.255925,103.31227782868635L89.493525,102.78161832990233L89.73112499999999,101.66553967775107L89.968725,111.82865520466083L90.206325,118.4211770781798L90.443925,96.81386843257673L90.68152500000001,96.83347143491221L90.91912500000001,75.0507443294532L91.156725,78.92744824562111L91.394325,101.58678987785378L91.63192500000001,103.7291220376743L91.869525,108.0967482775362L92.107125,101.42125220596266L92.34472500000001,112.54033124148532L92.582325,114.68796293556501L92.819925,108.5293404139268L93.057525,78.87405661804605L93.295125,84.79368999041992L93.532725,80.04103275798474L93.770325,84.0218353072567L94.007925,98.40672167538187L94.245525,98.37316508530712L94.483125,90.49074952268083L94.720725,105.54260854997327L94.958325,81.22201498197377L95.195925,76.8516681185177L95.43352499999999,80.23065018599092L95.671125,81.47841811147252L95.908725,50.61803097705206L96.14632499999999,47.303756017566656L96.383925,63.60285259430458L96.621525,76.97009454455885L96.85912499999999,63.5298041479999L97.09672499999999,52.79341902597029L97.334325,53.83595932879024L97.571925,49.4149943671106L97.809525,69.84977996834989L98.04712500000001,76.72504227452806L98.284725,77.54373832400645L98.522325,91.86156175050735L98.75992500000001,96.91676615186682L98.997525,98.51346530025086L99.235125,96.4604240745596L99.472725,74.71966016830747L99.71032500000001,80.19233057821837L99.947925,60.12763665869857L100.185525,66.46928829404723L100.42312500000001,81.675966706592L100.660725,82.48270767135502L100.898325,91.80753575088423L101.13592499999999,77.90663315249574L101.373525,87.81229577894862L101.611125,92.41187373659515L101.848725,82.34505553162998L102.086325,73.41344830463478L102.323925,59.870266324699784L102.561525,78.16019461537654L102.79912499999999,82.77169488659653L103.036725,86.96414779896219L103.274325,91.27619547411615L103.51192499999999,88.10868241050716L103.749525,92.66411291157542L103.987125,87.08213073370062L104.22472499999999,86.37790793393378L104.462325,77.88391524681056L104.69992500000001,79.99752291517625L104.937525,87.88431563661808L105.175125,98.9542368810553L105.41272500000001,88.90878919131625L105.650325,97.15102474312224L105.887925,80.33894572508474L106.12552500000001,75.23005963475794L106.363125,74.34049702353047L106.600725,64.55822182099085L106.838325,65.54383907556573L107.075925,54.35169559621831L107.313525,69.64091981592178L107.551125,33.137112314357786L107.788725,51.08481026581178L108.026325,47.64557076031705L108.263925,25.593870738355758L108.501525,-15.813135564799044L109.21432499999999,-7.526259451491214L109.451925,14.913266355167346L109.689525,49.85486880205317L109.92712499999999,59.889804788006806L110.164725,55.387887351258705L110.402325,47.87845880540854L110.63992499999999,57.28188332767872L110.87752499999999,62.220040564844474L111.115125,57.47389025992725L111.35272499999999,59.89074551765066L111.59032499999999,56.73969862284622L111.82792500000001,62.044118055238464L112.06552500000001,62.87102573426609L112.303125,27.542131050300775L112.54072500000001,39.46582066051491L112.77832500000001,21.67812787909703L113.015925,-3.5524380003248286L114.20392500000001,-11.5204743599111L114.441525,2.027078291463008L114.679125,-13.160411655493352L114.916725,7.773084748036997L115.154325,17.132727878241113L115.391925,13.358453903763579L115.629525,4.01977052341049L115.867125,9.655186784566315L116.104725,23.808161051452586L116.342325,27.539708108532746L116.57992499999999,35.56690176178704L116.817525,39.78211989313169L117.055125,46.734258927761346L117.29272499999999,15.908502553617192L117.530325,35.10880106372546L117.767925,10.249938116567764L118.00552499999999,43.012888017950914L118.243125,53.599259414469344L118.480725,60.766219161865195L118.718325,33.239189543078595L118.955925,56.38045430049312L119.19352500000001,62.7042401782572L119.431125,49.30248204182981L119.668725,52.07666840142833L119.90632500000001,54.86613329641123L120.143925,29.51436915631347L120.381525,64.33823384425186L120.619125,64.5097096775837L120.856725,72.71545105069092L121.094325,70.30755889945758L121.331925,59.43691056092699L121.569525,59.428560978890175L121.807125,52.99215646190692L122.044725,70.97665812732735L122.28232500000001,54.94501663542971L122.519925,43.48485875902876L122.757525,34.66637835966527L122.99512499999999,71.5095464829623L123.232725,87.99490196967237L123.470325,69.0784780470378L123.70792499999999,61.94255573081051L123.945525,52.172492590707954L124.183125,33.02647452781348L124.420725,6.8160968138559594L124.65832499999999,9.09590522729047L124.895925,21.9929894941013L125.133525,45.41772191148754L125.37112499999999,46.37162828696821L125.608725,44.25356455000078L125.84632500000001,45.84422990889448L126.083925,13.557450611657458L126.32152500000001,-3.148381615122225L126.55912500000001,-12.216200866961582L126.796725,24.378446937403588L127.034325,24.688852143765487L127.27192500000001,17.199709410954053L127.509525,25.535422036342972L127.747125,59.16957589941815L127.98472500000001,54.26285832499025L128.222325,32.163228567687085L128.459925,7.964006171373905L128.69752499999998,35.420765725224186L128.935125,39.60213823762468L129.17272499999999,23.89855139045069L129.410325,44.603109983135255L129.64792500000001,44.35643328877019L129.885525,10.546024356196778L130.123125,10.710650845712664L130.360725,13.727816059795888L130.59832500000002,25.57295863306998L130.835925,35.724932482698335L131.073525,52.12272880724586L131.311125,48.456905640670826L131.548725,52.777089093631005L131.786325,66.28953550726516L132.02392500000002,89.38644103092156L132.261525,55.1236883871685L132.499125,42.94913502174202L132.736725,0.6820348002766572L132.974325,18.146593278542333L133.211925,25.119108692345222L133.449525,20.909087857924256L133.687125,57.999877000643195L133.924725,34.462764373298484L134.162325,60.45269371919393L134.399925,63.1559422126565L134.637525,48.479406887957666L134.875125,32.90182317177594L135.11272499999998,32.96052482652742L135.350325,14.587965935039954L135.587925,51.60497758958846L135.825525,56.24728773936092L136.063125,60.03463897052079L136.300725,18.523580127612828L136.538325,55.61002267220985L136.775925,41.611809616204326L137.01352500000002,29.448532608101566L137.251125,43.0651665848194L137.488725,43.25740592012977L137.726325,51.208495714248144L137.963925,43.1769256222134L138.201525,50.96375768350871L138.439125,16.21165648083267L138.676725,43.3768718181871L138.914325,46.71226887338297L139.151925,56.09541666765777L139.389525,60.69849279081683L139.62712499999998,56.10040670964635L139.864725,62.3373985668035L140.102325,50.596820091009924L140.339925,44.57057546067294L140.577525,41.511093369055104L140.81512500000002,64.36120676453599L141.05272499999998,60.244370695684516L141.290325,59.45839018627058L141.527925,38.74075238111058L141.765525,49.14743967176944L142.003125,34.524926205405414L142.24072500000003,50.237428677039574L142.47832499999998,58.09886799571343L142.715925,63.11872822235472L142.953525,21.555838717165305L143.191125,40.71243732758916L143.42872500000001,50.07478562348208L143.66632499999997,79.16111549945543L143.903925,75.8824406696073L144.141525,53.12905889944508L144.379125,47.22631648895904L144.616725,56.56028940509411L144.85432500000002,61.31994611162327L145.091925,66.0394648440981L145.329525,39.213291485804504L145.567125,50.76276416760575L145.804725,63.28807823170356L146.042325,52.225471069271066L146.27992500000002,51.04417565456319L146.517525,16.309365767188595L146.755125,31.722069464890858L146.99272499999998,49.437628962259744L147.230325,22.25646184543455L147.467925,26.971643106101126L147.705525,34.299450097059236L147.943125,52.67577448938789L148.180725,59.21860308322013L148.41832499999998,76.39786259456099L148.655925,88.28454561307198L148.893525,78.6758815960537L149.131125,80.08425935008827L149.368725,45.71675567566572L149.606325,26.45995777093908L149.84392499999998,32.4370111539574L150.081525,69.69479507891018L150.319125,77.90119368247791L150.556725,69.73726619727971L150.79432500000001,48.97812460331656L151.03192499999997,38.86282023470738L151.269525,43.54881968904226L151.507125,50.25572385077881L151.744725,55.791304717571904L151.982325,77.64855259067491L152.21992500000002,50.95410614852122L152.45752499999998,24.41071060683747L152.695125,18.476843997159122L152.932725,22.96823339719684L153.170325,28.326027661914296L153.407925,32.21367747208745L153.64552500000002,57.579615823157255L153.88312499999998,22.71807188494663L154.120725,7.748387114427388L154.358325,6.830405483378049L154.595925,53.50222449882823L154.833525,65.85461972584716L155.071125,83.45943759936334L155.308725,28.240121406663967L155.546325,26.948025824039945L155.78392499999998,34.834893680459L156.021525,74.31980007698884L156.259125,83.180012332265L156.496725,88.90551430396111L156.734325,66.88059057242809L156.971925,70.4560387459228L157.20952499999999,68.00831753771482L157.447125,79.70283769822703L157.68472500000001,69.77489761863094L157.922325,54.861958148204934L158.15992500000002,65.49635217316371L158.397525,52.27055739001884L158.635125,60.89756869457038L158.872725,63.69375800598796L159.110325,60.32717685406885L159.347925,68.35456283393789L159.58552500000002,79.85754780473273L159.82312499999998,11.417934063088722L160.060725,36.63818242729409L160.298325,48.67017790425246L160.535925,45.23371780364757L160.773525,44.1740432050766L161.01112500000002,65.19900371235254L161.24872499999998,61.337343702326166L161.486325,65.9929501590788L161.723925,82.00736543999065L161.961525,59.48216641823029L162.199125,71.70731170701724L162.43672500000002,63.48106560544814L162.67432499999998,77.12851515672591L162.911925,79.38581308878643L163.14952499999998,88.54119892810102L163.387125,51.55686790880141L163.624725,65.9215726800953L163.862325,66.79809722591607L164.09992499999998,51.68806892209756L164.337525,57.07450192912526L164.57512499999999,72.0650619133956L164.812725,80.81902619985621L165.05032500000002,78.84381249420568L165.287925,66.60702125354254L165.52552500000002,59.54846358372947L165.763125,56.6160625939023L166.000725,48.58572260883174L166.238325,70.70424022881225L166.47592500000002,59.37344192628891L166.713525,34.147264618663975L166.95112500000002,46.032781302326285L167.18872499999998,55.547248470421714L167.426325,80.83879543998007L167.663925,82.61030031238889L167.901525,90.74745727178393L168.139125,85.79638810513578L168.37672500000002,95.70122992729043L168.61432499999998,90.24292023023904L168.851925,61.60021209145155L169.089525,88.37026691093786L169.327125,61.35542850288602L169.564725,88.07964637632875L169.80232500000002,50.71229454729392L170.03992499999998,63.78512876542479L170.277525,65.83951731510207L170.515125,63.25628340236703L170.752725,51.60053594107839L170.990325,63.4450381707872L171.227925,65.20323277185699L171.46552499999999,63.14597740572888L171.703125,81.38011173488029L171.940725,74.12300264883834L172.178325,65.44191148310189L172.41592500000002,41.42248293417269L172.653525,37.97893264685612L172.891125,36.76318489786703L173.128725,71.25261346862742L173.366325,110.29746861676L173.603925,134.24091078889154L173.84152500000002,114.27953354151117L174.079125,120.96416024941846L174.316725,106.68589055883082L174.55432499999998,109.91405604092606L174.791925,91.58029473905759L175.029525,84.39462211778758L175.267125,81.92746369273071L175.504725,79.35614442962775L175.74232500000002,70.08844099127275L175.97992499999998,74.07695623447312L176.217525,89.43200824385774L176.455125,96.89977882937131L176.692725,120.51061906001289L176.930325,91.71561006058049L177.16792500000003,87.35564663022039L177.40552499999998,99.01798411613285L177.643125,104.81460840943808L177.880725,110.38145360614863L178.118325,111.38850351134542L178.355925,110.10973174547917L178.59352499999997,117.37274040684564L178.831125,104.76020201388273L179.068725,98.08698325361766L179.306325,103.3385104477761L179.543925,85.16872669102901L179.78152500000002,90.92593217398033L180.019125,95.21801162067224L180.256725,101.54197755040616L180.494325,93.92548693765349L180.731925,87.20109237163744L180.969525,73.98030660706443L181.20712500000002,78.20716608856739L181.444725,56.93358672436843L181.682325,49.92806318269244L181.919925,91.41387335578243L182.157525,105.85756282877698L182.395125,97.6445175938116L182.632725,110.25244770838651L182.870325,132.4109079026809L183.107925,133.9156844129341L183.34552499999998,135.56937429369563L183.583125,137.8007516208951L183.820725,144.02290473840617L184.058325,135.0984657434343L184.295925,104.88062428401234L184.533525,95.95247582773152L184.77112499999998,97.87550714123114L185.008725,80.43387381141099L185.246325,84.11146011295756L185.483925,100.65851348842874L185.721525,77.2948593747955L185.95912500000003,97.03440826251145L186.196725,118.71926575371045L186.434325,115.91794212739711L186.671925,107.84643406916284L186.909525,93.22853705435183L187.14712500000002,93.11492756098028L187.38472499999997,73.9623288815589L187.622325,71.03539579542698L187.859925,86.1683528031838L188.097525,93.73138830697131L188.335125,109.47718175432432L188.57272500000002,114.23069133866643L188.81032499999998,118.59872554843902L189.047925,136.7486384815292L189.285525,113.73520394005271L189.523125,124.35832741163898L189.760725,110.63344718398291L189.99832500000002,107.29251395095365L190.235925,113.27798372762797L190.473525,127.24049438391566L190.71112499999998,108.26052740427517L190.948725,112.53965079315107L191.186325,120.99164020733592L191.423925,122.95285613367884L191.661525,118.77044453042703L191.899125,99.67369574199877L192.13672499999998,104.88562670881016L192.374325,109.31126513203665L192.611925,111.13247059655585L192.849525,119.09000043196919L193.08712500000001,113.75128400399356L193.324725,109.05599405809684L193.562325,128.41246835258275L193.799925,130.07550454060245L194.03752500000002,144.62475371313104L194.275125,148.09033169717793L194.51272500000002,127.67507323247928L194.75032499999998,144.76585040463655L194.987925,133.6513734935143L195.225525,127.44398495426293L195.463125,116.68344667476725L195.700725,115.78605696512638L195.93832500000002,101.36828411193727L196.17592499999998,115.55229084832705L196.413525,118.3597074099972L196.651125,112.30381711415023L196.888725,96.36041584069467L197.126325,76.18125537905063L197.36392500000002,87.41493189259167L197.60152499999998,114.90822980358475L197.839125,116.11312464209949L198.07672499999998,139.11429850657316L198.314325,138.06168575525L198.551925,140.5334450926765L198.789525,170.85418437280566L199.02712499999998,138.04832738851482L199.264725,148.07424942383153L199.50232499999998,136.9205447180806L199.739925,130.7656134214244L199.977525,123.7369908479595L200.215125,136.0477689258899L200.45272500000002,139.93817788080256L200.690325,153.77265633175307L200.927925,146.79100335257962L201.165525,151.83221748243398L201.40312500000002,138.33338314754153L201.640725,140.49413942374213L201.87832500000002,123.07380737708476L202.11592499999998,125.01060885099452L202.353525,131.34118777458596L202.591125,133.41358526912177L202.828725,133.41367411832107L203.066325,121.97092023026993L203.30392500000002,146.54247702677267L203.54152499999998,121.73008655023108L203.779125,140.6852326781245L204.016725,144.5506882900412L204.254325,138.66153804268927L204.491925,138.79425654295972L204.72952500000002,136.19968491485045L204.96712499999998,121.87383659893474L205.204725,109.60185589918025L205.442325,121.68338793831185L205.679925,130.80531588981816L205.917525,139.93961729878347L206.155125,142.81510228082044L206.39272499999998,137.22640897133644L206.630325,140.14878502666178L206.86792499999999,116.01147732245457L207.105525,130.6796309537145L207.34312500000001,127.65423529067363L207.580725,101.28124719094457L207.818325,108.36933406133188L208.055925,92.09592809640613L208.293525,89.80126642205269L208.531125,127.8169691504117L208.76872500000002,133.0542401755498L209.006325,134.27903076914822L209.243925,131.72175806109834L209.481525,109.52660246696912L209.719125,121.21971228126783L209.956725,135.13370591642916L210.194325,134.42289093877352L210.431925,149.5376479848949L210.66952500000002,149.1697521820502L210.90712499999998,167.18549598543862L211.144725,168.18217256837482L211.382325,177.51694724067102L211.619925,170.65818527402902L211.857525,159.68909356035235L212.09512500000002,140.80178888462441L212.33272499999998,149.75667662514735L212.570325,150.93144318517142L212.807925,168.13130491409362L213.045525,180.16471434494053L213.52072500000003,189.36715399096082L213.75832499999999,159.83614131730602L213.995925,156.6725130374538L214.233525,144.93817064138085L214.471125,140.5884116469134L214.70872500000002,153.12251376976425L214.946325,134.69920463484434L215.183925,134.1103009410017L215.421525,132.80377688570692L215.659125,119.9985764417879L215.896725,118.73787076436473L216.13432500000002,104.51867384411689L216.371925,103.75923039137015L216.609525,125.23359991084762L216.847125,134.15357394797329L217.084725,133.75581319202612L217.322325,149.28749861162686L217.55992500000002,145.8619143357384L217.797525,133.9004137152737L218.035125,140.4550845405046L218.27272499999998,129.36712001446386L218.510325,148.89429716279216L218.747925,139.69009525781925L218.985525,146.48800811294345L219.223125,130.07466293051027L219.460725,117.33017678662641L219.69832499999998,127.5423937535555L219.935925,116.87500023223583L220.173525,95.64626326190003L220.411125,128.70064095274554L220.648725,150.64512879619568L220.88632500000003,154.22460283618918L221.12392499999999,151.63990181554408L221.361525,127.08220063369885L221.599125,139.4217725439156L221.836725,141.7777774240545L222.07432500000002,139.04125484859773L222.31192499999997,131.77444086692222L222.549525,133.10187784565392L222.787125,112.72608299096163L223.024725,131.30626556300948L223.262325,122.2088657678594L223.49992500000002,126.80329721340112L223.73752499999998,133.91750345926613L223.975125,134.59618383825512L224.212725,140.73075431693024L224.450325,142.21088014905706L224.687925,146.5945408991876L224.92552500000002,150.87077712129954L225.163125,150.6416913933241L225.400725,146.493408505123L225.63832499999998,157.2359558010109L225.875925,128.72242446327266L226.113525,124.09162270774866L226.351125,133.25988542884852L226.588725,148.14236161619584L226.826325,136.8366010517488L227.06392499999998,140.05351912561707L227.301525,135.66456119766022L227.539125,125.60609774917472L227.776725,119.0091170616753L228.014325,153.11581359790603L228.251925,139.43641511492038L228.489525,134.3927023404367L228.727125,130.66460280379812L228.96472500000002,129.13093159652448L229.202325,137.68137401376185L229.43992500000002,133.7621512057425L229.67752499999997,117.60268104326974L229.915125,103.98593552262939L230.152725,110.84674949259372L230.390325,127.89341251141326L230.627925,132.47632136396467L230.86552500000002,150.51397713692128L231.10312499999998,152.36105065745778L231.340725,146.87943022967968L231.578325,151.34366079283708L231.815925,149.3832278019963L232.053525,171.87466820280434L232.29112500000002,163.58486771703173L232.52872499999998,159.51160483432056L232.766325,155.70910809559967L233.003925,152.65085834338277L233.241525,132.58469377800245L233.479125,140.7527606179977L233.716725,149.20924513880394L233.95432499999998,146.41585775222762L234.191925,145.65414931777937L234.42952499999998,137.89424702169782L234.667125,129.54785726453244L234.904725,135.24652346363897L235.142325,135.8010798954441L235.37992500000001,139.6823685564681L235.617525,117.01454389083887L235.855125,123.74997045986956L236.092725,130.42957593436887L236.33032500000002,118.5365146722545L236.567925,115.01665157831602L236.80552500000002,108.57473456118639L237.043125,102.23699676545927L237.280725,122.2152855608015L237.518325,121.12013012249167L237.755925,108.04247049140263L237.993525,104.38161709098422L238.23112500000002,110.42279864661931L238.46872499999998,122.9119231302324L238.706325,129.65815241329574L238.943925,135.56235627646876L239.181525,143.94374330231918L239.419125,111.09114279383047L239.65672500000002,105.2390030743696L239.89432499999998,101.33917458784688L240.131925,90.61162166555006L240.369525,113.29973419165181L240.607125,128.8707195738289L240.844725,152.0344474684793L241.08232500000003,144.10089042017455L241.31992499999998,120.06861721414093L241.557525,157.7713928397761L241.79512499999998,126.84691887952489L242.032725,98.89849480305674L242.270325,103.62285695263492L242.507925,110.04647360914198L242.745525,116.62396723433278L242.983125,106.07804149630036L243.220725,119.06202303315615L243.458325,131.81919357148055L243.69592500000002,146.48674548248783L243.933525,128.44626481878964L244.171125,135.08457560269943L244.408725,135.94161583738875L244.646325,150.93205705736486L244.883925,121.77825202616695L245.12152500000002,117.4692428950824L245.359125,118.08439340855807L245.596725,130.5682851235041L245.83432499999998,150.5618649339657L246.071925,136.4585072050083L246.309525,115.95191210803921L246.547125,142.5292260306926L246.784725,131.04356501447276L247.02232500000002,146.4562655803389L247.25992499999998,146.37982700567397L247.497525,163.74170292795273L247.735125,113.5478879295622L247.972725,124.9893008043073L248.210325,131.04269146738662L248.44792500000003,140.19915633093254L248.68552499999998,129.80855057651365L248.923125,114.83600047835438L249.16072499999999,125.28108732467119L249.398325,111.94815640786425L249.63592500000001,124.26011069499937L249.873525,124.87562074591796L250.111125,122.3730588336592L250.348725,130.89887039541026L250.586325,149.8485929052759L250.823925,147.66939591650538L251.06152500000002,141.11465119889002L251.299125,138.58963308078418L251.536725,129.94159189070683L251.774325,133.8788232755984L252.011925,112.31887721731206L252.249525,120.52798976727695L252.48712500000002,143.30024608509763L252.724725,146.0247292550625L252.962325,130.08875398827914L253.19992499999998,131.1333001911243L253.437525,135.25274355766763L253.675125,144.84903363917815L253.912725,131.54431875070662L254.150325,138.38013529491852L254.387925,145.28833622761033L254.62552499999998,148.87500025646358L254.863125,149.56059623847287L255.100725,153.48428407365017L255.338325,154.44295672806467" style="fill: none;" fill="none"></path></g></g></g></g><g opacity="0.2"><g><g><g><path stroke="rgb(255, 112, 67)" stroke-width="2px" d="M23.915925,307.9903407096863L24.153525,86.75477313995361L24.391125,5.514285564422607L24.628725,-24.177443504333496L24.866325000000003,0.2753133773803711L25.103925,10.111056804656982L25.341525,45.10353899002075L25.579125,46.07869863510132L25.816724999999998,83.71391916275024L26.054325,36.47741889953613L26.291925000000003,60.88738489151001L26.529525,56.477728843688965L26.767125,68.01995944976807L27.004725,52.17779302597046L27.242324999999997,36.9339394569397L27.479924999999998,107.29203701019287L27.717525000000002,74.59304523468018L27.955125000000002,80.96855020523071L28.192725,88.35440969467163L28.430325,92.33463764190674L28.667925,72.92639493942261L28.905524999999997,103.1187014579773L29.143125,105.39995384216309L29.380725,98.61975002288818L29.618325,112.82843542098999L29.855925,102.81840562820435L30.093525,104.44285583496094L30.331124999999997,114.72777700424194L30.568725,89.09417724609375L30.806325,89.46486282348633L31.043925,56.697253704071045L31.281525,88.40614700317383L31.519125,90.27029371261597L31.756725000000003,87.24530696868896L31.994325,113.21819543838501L32.231925000000004,91.65530061721802L32.469525,91.38944005966187L32.707125,94.77625036239624L32.944725,27.845390796661377L33.182325,95.12220668792725L33.419925,106.01025152206421L33.657525,91.69539070129395L33.895125,101.99347829818726L34.132725,99.06867456436157L34.370325,101.03030347824097L34.607925,120.47061824798584L34.845524999999995,104.5274248123169L35.083125,104.89253997802734L35.320725,89.81833076477051L35.558324999999996,113.51494646072388L35.795925000000004,104.42665100097656L36.033525,121.0478310585022L36.271125,85.9593014717102L36.508725,101.3992166519165L36.746325,119.88234901428223L36.983925,96.37293291091919L37.221525,73.30349493026733L37.459125,80.55465173721313L37.696724999999994,91.47907304763794L37.934325,112.51716756820679L38.171925,99.6745834350586L38.409525,102.04504680633545L38.647125,109.98490905761719L38.884724999999996,102.31234216690063L39.122325000000004,106.15516662597656L39.359925000000004,89.98130750656128L39.597525,121.03609943389893L39.835125000000005,82.00160837173462L40.072725,76.23150587081909L40.310325,81.79685354232788L40.547925,117.64954233169556L40.785525,93.93343019485474L41.023125,95.61839532852173L41.260725,114.69359493255615L41.498325,93.21358108520508L41.735924999999995,103.53074312210083L41.973525,104.7526044845581L42.211125,63.82071304321289L42.448724999999996,85.73758220672607L42.686325000000004,95.92670917510986L42.923925,96.58216094970703L43.161525,101.29270362854004L43.399125,111.03172445297241L43.636725,107.92495393753052L43.874325000000006,97.77237224578857L44.111925,91.64103698730469L44.349525,95.50766229629517L44.587125,82.85160255432129L44.824725,90.94971513748169L45.062325,104.6402678489685L45.299925,93.32406091690063L45.537525,88.16374969482422L45.775124999999996,105.04302549362183L46.012725,118.64428281784058L46.250325000000004,106.24690961837769L46.487925,110.97779273986816L46.725525000000005,93.41808271408081L46.963125,66.7981824874878L47.200725,91.07285499572754L47.438325,94.39087915420532L47.675925,97.90150451660156L47.913525,91.37644243240356L48.151125,81.84023523330688L48.388725,106.9391598701477L48.626324999999994,110.44573402404785L48.863925,105.92205333709717L49.101525,90.22733402252197L49.339124999999996,94.63513326644897L49.576725,99.1177110671997L49.814325,104.59351015090942L50.051925000000004,93.21231508255005L50.289525,89.30678129196167L50.527125,88.76147174835205L50.764725000000006,113.21313142776489L51.002325,86.91952228546143L51.239925,102.4446816444397L51.477525,121.43624067306519L51.715125,99.86423063278198L51.952725,90.9547791481018L52.190325,90.07473850250244L52.427925,90.39453077316284L52.665524999999995,110.19422149658203L52.903125,104.9121208190918L53.140725,99.9125075340271L53.378325,104.64972066879272L53.615925000000004,93.60443830490112L53.853525,114.22213554382324L54.091125,88.40707540512085L54.328725,43.749000549316406L54.566325,88.88992881774902L54.803925,96.95453453063965L55.041525,109.06005191802979L55.279125,61.149447441101074L55.516724999999994,113.27786636352539L55.754325,109.49555683135986L55.991925,94.57377433776855L56.229525,70.35421514511108L56.467125,107.61486768722534L56.704724999999996,59.13776922225952L56.942325000000004,101.7017068862915L57.179925,98.37287950515747L57.417525,44.116225719451904L57.655125000000005,48.18456745147705L57.892725,86.38113355636597L58.130325,88.63588428497314L58.367925,82.9643611907959L58.605525,60.5627818107605L58.843125,103.88522386550903L59.080725,47.96014738082886L59.318325,84.9953670501709L59.555924999999995,62.64349937438965L59.793525,95.8804578781128L60.031125,131.90152502059937L60.268724999999996,69.00406551361084L60.506325000000004,70.59011363983154L60.743925,27.47951602935791L60.981525,80.39057779312134L61.219125,102.15248823165894L61.456725,68.9722466468811L61.694325000000006,101.77555704116821L61.931925,53.20156717300415L62.169525,78.55293273925781L62.407125,77.12049293518066L62.644725,60.36182498931885L62.882325,114.32932376861572L63.119925,63.74255847930908L63.357525,88.91356086730957L63.595124999999996,64.53254413604736L63.832725,81.15085458755493L64.070325,84.48651838302612L64.307925,35.35861015319824L64.545525,-30.065284252166748L64.783125,73.45237684249878L65.020725,40.435365200042725L65.258325,73.5009069442749L65.495925,-60.13630771636963L65.733525,63.41525459289551L65.971125,48.05197477340698L66.208725,86.06218528747559L66.446325,72.31837606430054L66.683925,82.77555799484253L66.921525,20.544100284576416L67.159125,31.881829261779785L67.396725,42.121933937072754L67.634325,77.51489496231079L67.871925,87.25408458709717L68.10952499999999,122.71034574508667L68.347125,77.87427091598511L68.584725,70.83116054534912L68.82232499999999,98.76896953582764L69.059925,71.3355360031128L69.297525,80.02301502227783L69.535125,103.40253925323486L69.77272500000001,31.94124698638916L70.010325,77.84869766235352L70.247925,51.10109996795654L70.48552500000001,96.80911302566528L70.723125,63.705928802490234L70.960725,93.11466407775879L71.19832500000001,97.65480279922485L71.435925,107.9676604270935L71.673525,43.624088287353516L71.911125,107.77522802352905L72.148725,82.33313226699829L72.386325,75.73751163482666L72.623925,74.20851802825928L72.861525,102.32567739486694L73.099125,45.67340898513794L73.336725,107.53232431411743L73.57432499999999,93.47125482559204L73.811925,114.93177223205566L74.049525,63.12179517745972L74.28712499999999,82.01452159881592L74.524725,107.8767614364624L74.762325,72.1825761795044L74.99992499999999,105.94619178771973L75.237525,68.46736478805542L75.475125,92.39034175872803L75.71272499999999,87.9773097038269L75.95032499999999,91.94040441513062L76.187925,135.8435196876526L76.42552500000001,113.31365203857422L76.663125,111.46562576293945L76.90072500000001,118.97876071929932L77.13832500000001,101.19488382339478L77.375925,87.77036046981812L77.613525,114.88417053222656L77.85112500000001,85.78780031204224L78.088725,129.6991868019104L78.326325,93.70436811447144L78.56392500000001,101.3687481880188L78.801525,113.9482569694519L79.039125,106.2823576927185L79.276725,112.75821447372437L79.514325,84.89906644821167L79.751925,51.924423694610596L79.989525,100.76191091537476L80.227125,67.31893157958984L80.464725,78.03302764892578L80.702325,52.11212968826294L80.939925,112.74724245071411L81.177525,98.49829816818237L81.415125,103.87982225418091L81.65272499999999,82.72913789749146L81.890325,93.62123394012451L82.127925,123.92283868789673L82.36552499999999,90.31764221191406L82.603125,80.30558681488037L82.840725,95.98545169830322L83.07832499999999,102.43784523010254L83.315925,84.98118782043457L83.55352500000001,106.00054550170898L83.791125,123.16652870178223L84.028725,114.70203495025635L84.26632500000001,75.45603704452515L84.503925,110.970787525177L84.741525,100.98152017593384L84.97912500000001,116.40885972976685L85.216725,109.26202154159546L85.454325,96.14378643035889L85.691925,87.26733541488647L85.929525,98.2836685180664L86.167125,121.1040415763855L86.404725,112.64039182662964L86.642325,103.62257051467896L86.879925,104.01410293579102L87.117525,100.85669231414795L87.35512499999999,104.6053261756897L87.592725,118.14176416397095L87.830325,102.96813154220581L88.06792499999999,77.02630233764648L88.305525,88.40319299697876L88.543125,102.20869874954224L88.780725,100.79930019378662L89.01832499999999,88.86891317367554L89.255925,116.66400146484375L89.493525,101.98562908172607L89.73112499999999,99.99142169952393L89.968725,127.07332849502563L90.206325,128.30995988845825L90.443925,64.40290546417236L90.68152500000001,96.86287593841553L90.91912500000001,42.37665367126465L91.156725,84.74250411987305L91.394325,135.5758023262024L91.63192500000001,106.94262027740479L91.869525,114.6481876373291L92.107125,91.4080080986023L92.34472500000001,129.2189497947693L92.582325,117.90941047668457L92.819925,99.29140663146973L93.057525,34.39113092422485L93.295125,93.67314004898071L93.532725,72.91204690933228L93.770325,89.99303913116455L94.007925,119.98405122756958L94.245525,98.32283020019531L94.483125,78.66712617874146L94.720725,128.12039709091187L94.958325,44.741124629974365L95.195925,70.29614782333374L95.43352499999999,85.29912328720093L95.671125,83.35006999969482L95.908725,4.327450275421143L96.14632499999999,42.33234357833862L96.383925,88.05149745941162L96.621525,97.02095746994019L96.85912499999999,43.36936855316162L97.09672499999999,36.688841342926025L97.334325,55.39976978302002L97.571925,42.783546924591064L97.809525,100.50195837020874L98.04712500000001,87.03793573379517L98.284725,78.77178239822388L98.522325,113.33829689025879L98.75992500000001,104.49957275390625L98.997525,100.90851402282715L99.235125,93.38086223602295L99.472725,42.10851430892944L99.71032500000001,88.40133619308472L99.947925,30.030595779418945L100.185525,75.98176574707031L100.42312500000001,104.48598432540894L100.660725,83.69281911849976L100.898325,105.79477787017822L101.13592499999999,57.05527925491333L101.373525,102.67078971862793L101.611125,99.31124067306519L101.848725,67.24482822418213L102.086325,60.016037464141846L102.323925,39.55549335479736L102.561525,105.5950870513916L102.79912499999999,89.68894529342651L103.036725,93.25282716751099L103.274325,97.74426698684692L103.51192499999999,83.357412815094L103.749525,99.49725866317749L103.987125,78.70915746688843L104.22472499999999,85.32157373428345L104.462325,65.14292621612549L104.69992500000001,83.16793441772461L104.937525,99.71450471878052L105.175125,115.55911874771118L105.41272500000001,73.84061765670776L105.650325,109.5143780708313L105.887925,55.120827198028564L106.12552500000001,67.56673049926758L106.363125,73.00615310668945L106.600725,49.8848090171814L106.838325,67.02226495742798L107.075925,37.563480377197266L107.313525,92.5747561454773L107.551125,-21.61859893798828L107.788725,78.00635719299316L108.026325,42.486711502075195L108.263925,-7.483679294586182L109.21432499999999,-1.9280376434326172L109.451925,48.57255506515503L109.689525,102.26727247238159L109.92712499999999,74.94220876693726L110.164725,48.635011196136475L110.402325,36.6143159866333L110.63992499999999,71.38702011108398L110.87752499999999,69.62727642059326L111.115125,50.35466480255127L111.35272499999999,63.51602840423584L111.59032499999999,52.01312828063965L111.82792500000001,70.0007472038269L112.06552500000001,64.11138725280762L112.303125,-25.451210975646973L112.54072500000001,57.35135507583618L112.77832500000001,-5.003411293029785L113.966325,-14.397066593170166L114.20392500000001,7.823643207550049L114.441525,22.34840726852417L114.679125,-35.941646575927734L114.916725,39.17332935333252L115.154325,31.172192573547363L115.391925,7.697042942047119L115.629525,-9.98825454711914L115.867125,18.10831117630005L116.104725,45.03762245178223L116.342325,33.13702869415283L116.57992499999999,47.6076922416687L116.817525,46.104947090148926L117.055125,57.16246747970581L117.29272499999999,-30.330132007598877L117.530325,63.90924882888794L117.767925,-27.0383563041687L118.00552499999999,92.15731287002563L118.243125,69.47881650924683L118.480725,71.51665878295898L118.718325,-8.051354885101318L118.955925,91.09235143661499L119.19352500000001,72.18991899490356L119.431125,29.19984483718872L119.668725,56.237947940826416L119.90632500000001,59.0503306388855L120.143925,-8.513277053833008L120.381525,116.57403087615967L120.619125,64.76692342758179L120.856725,85.02406311035156L121.094325,66.69572067260742L121.331925,43.1309380531311L121.569525,59.41603660583496L121.807125,43.337549686431885L122.044725,97.95341062545776L122.28232500000001,30.897554397583008L122.519925,26.29462194442749L122.757525,21.438657760620117L122.99512499999999,126.77429866790771L123.232725,112.72293519973755L123.470325,40.70384216308594L123.70792499999999,51.23867225646973L123.945525,37.5173978805542L124.183125,4.30744743347168L124.420725,-32.49946975708008L124.65832499999999,12.515617847442627L124.895925,41.33861589431763L125.133525,80.55482053756714L125.37112499999999,47.80248785018921L125.608725,41.07646894454956L125.84632500000001,48.23022794723511L126.083925,-34.872718334198L126.55912500000001,-25.81792974472046L126.796725,79.27041864395142L127.034325,25.154459953308105L127.27192500000001,5.9659953117370605L127.509525,38.03899097442627L127.747125,109.62080669403076L127.98472500000001,46.90278196334839L128.222325,-0.9862160682678223L128.459925,-28.334827423095703L128.69752499999998,76.60590505599976L128.935125,45.874197006225586L129.17272499999999,0.3431711196899414L129.410325,75.65994787216187L129.64792500000001,43.9864182472229L129.885525,-40.169589042663574L130.123125,10.957590579986572L130.360725,18.25356388092041L130.59832500000002,43.34067249298096L130.835925,50.95289325714111L131.073525,76.71942329406738L131.311125,42.958170890808105L131.548725,59.25736427307129L131.786325,86.55820512771606L132.02392500000002,124.03179931640625L132.261525,3.7295594215393066L132.499125,24.687304973602295L132.736725,-62.71861553192139L132.974325,44.34343099594116L133.211925,35.577881813049316L133.449525,14.594056606292725L133.687125,113.63606071472168L133.924725,-0.8429045677185059L134.162325,99.43758773803711L134.399925,67.21081495285034L134.637525,26.464603900909424L134.875125,9.535447597503662L135.11272499999998,33.048577308654785L135.350325,-12.970872402191162L135.587925,107.13049507141113L135.825525,63.210752964019775L136.063125,65.71566581726074L136.300725,-43.74300813674927L136.538325,111.23968648910522L136.775925,20.614490032196045L137.01352500000002,11.203617095947266L137.251125,63.49011754989624L137.488725,43.5457649230957L137.726325,63.135130405426025L137.963925,31.129570484161377L138.201525,62.64400577545166L138.439125,-35.91649532318115L138.676725,84.12469482421875L138.914325,51.71536445617676L139.151925,70.17013835906982L139.389525,67.60310697555542L139.62712499999998,49.203277587890625L139.864725,71.69288635253906L140.102325,32.985952377319336L140.339925,35.531208515167236L140.577525,36.92187023162842L140.81512500000002,98.63637685775757L141.05272499999998,54.06911659240723L141.290325,58.27941942214966L141.527925,7.664295673370361L141.765525,64.75747060775757L142.003125,12.591156005859375L142.24072500000003,73.80618238449097L142.47832499999998,69.89102697372437L142.715925,70.6485185623169L142.953525,-40.7884955406189L143.191125,69.4473352432251L143.42872500000001,64.11830806732178L143.66632499999997,122.79061031341553L143.903925,70.9644284248352L144.141525,18.99898624420166L144.379125,38.37220287322998L144.616725,70.56124877929688L144.85432500000002,68.45943117141724L145.091925,73.11874294281006L145.329525,-1.0259685516357422L145.567125,68.08697319030762L145.804725,82.07604932785034L146.042325,35.63156032562256L146.27992500000002,49.27223253250122L146.517525,-35.79284906387329L146.755125,54.84112501144409L146.99272499999998,76.01096820831299L147.230325,-18.515288829803467L147.467925,34.04441499710083L147.705525,45.291160583496094L147.943125,80.24026107788086L148.180725,69.0328459739685L148.41832499999998,102.16675186157227L148.655925,106.11457014083862L148.893525,64.26288557052612L149.131125,82.19682598114014L149.368725,-5.834499835968018L149.606325,-2.425239086151123L149.84392499999998,41.40259122848511L150.081525,125.58147096633911L150.319125,90.21079158782959L150.556725,57.49137496948242L150.79432500000001,17.839412212371826L151.03192499999997,23.689863681793213L151.269525,50.577818870544434L151.507125,60.31608009338379L151.744725,64.09467601776123L151.982325,110.43442440032959L152.21992500000002,10.912436485290527L152.45752499999998,-15.404382705688477L152.695125,9.576044082641602L152.932725,29.705317497253418L153.170325,36.36271905899048L153.407925,38.04515218734741L153.64552500000002,95.62852334976196L153.88312499999998,-29.574244022369385L154.120725,-14.706140041351318L154.358325,5.453433036804199L154.595925,123.50995302200317L154.833525,84.38321256637573L155.071125,109.86666440963745L155.308725,-54.588852882385254L155.546325,25.00988245010376L155.78392499999998,46.66519546508789L156.021525,133.54715967178345L156.259125,96.47033071517944L156.496725,97.49376726150513L156.734325,33.843204975128174L156.971925,75.81921100616455L157.20952499999999,64.33673572540283L157.447125,97.24461793899536L157.68472500000001,54.88298749923706L157.922325,32.49254894256592L158.15992500000002,81.4479432106018L158.397525,32.431865215301514L158.635125,73.8380856513977L158.872725,67.88804197311401L159.110325,55.277305126190186L159.347925,80.39564180374146L159.58552500000002,97.1120252609253L159.82312499999998,-91.24148654937744L160.060725,74.4685549736023L160.298325,66.71817111968994L160.535925,40.07902765274048L160.773525,42.58453130722046L161.01112500000002,96.7364444732666L161.24872499999998,55.54485368728638L161.486325,72.97635984420776L161.723925,106.02898836135864L161.961525,25.6943678855896L162.199125,90.04502964019775L162.43672500000002,51.14169645309448L162.67432499999998,97.59968948364258L162.911925,82.77175998687744L163.14952499999998,102.27427768707275L163.387125,-3.919628620147705L163.624725,87.46862983703613L163.862325,68.11288404464722L164.09992499999998,29.02302646636963L164.337525,65.15415143966675L164.57512499999999,94.55090188980103L164.812725,93.94997262954712L165.05032500000002,75.88099193572998L165.287925,48.25183439254761L165.52552500000002,48.96062707901001L165.763125,52.21746110916138L166.000725,36.540212631225586L166.238325,103.88201665878296L166.47592500000002,42.37724447250366L166.713525,-3.6920013427734375L166.95112500000002,63.861056327819824L167.18872499999998,69.8189492225647L167.426325,118.77611589431763L167.663925,85.2675576210022L167.901525,102.95319271087646L168.139125,78.36978435516357L168.37672500000002,110.55849266052246L168.61432499999998,82.05545568466187L168.851925,18.636149883270264L169.089525,128.52534914016724L169.327125,20.833170890808105L169.564725,128.16597318649292L169.80232500000002,-5.338733196258545L170.03992499999998,83.39438009262085L170.277525,68.92110013961792L170.515125,59.38143253326416L170.752725,34.11691474914551L170.990325,81.21179151535034L171.227925,67.84052467346191L171.46552499999999,60.060094356536865L171.703125,108.73131322860718L171.940725,63.23733901977539L172.178325,52.42027473449707L172.41592500000002,5.393340110778809L172.653525,32.81360721588135L172.891125,34.939563274383545L173.128725,122.98675632476807L173.366325,168.86475133895874L173.603925,170.15607404708862L173.84152500000002,84.33746767044067L174.079125,130.9911003112793L174.316725,85.26848602294922L174.55432499999998,114.7563042640686L174.791925,64.07965278625488L175.029525,73.61611318588257L175.267125,78.22672605514526L175.504725,75.49916553497314L175.74232500000002,56.186885833740234L175.97992499999998,80.05972909927368L176.217525,112.46458625793457L176.455125,108.1014347076416L176.692725,155.92687940597534L176.930325,48.523096561431885L177.16792500000003,80.81570148468018L177.40552499999998,116.51149034500122L177.643125,113.50954484939575L177.880725,118.7317214012146L178.118325,112.89907836914062L178.355925,108.19157409667969L178.59352499999997,128.26725339889526L178.831125,85.84139442443848L179.068725,88.07715511322021L179.306325,111.21580123901367L179.543925,57.9140510559082L179.78152500000002,99.56174039840698L180.019125,101.65613079071045L180.256725,111.02792644500732L180.494325,82.50075101852417L180.731925,77.11450052261353L180.969525,54.14912796020508L181.20712500000002,84.54745531082153L181.444725,25.02321767807007L181.682325,39.41977787017822L181.919925,153.64258861541748L182.157525,127.52309703826904L182.395125,85.32494974136353L182.632725,129.16434288024902L182.870325,165.64859819412231L183.107925,136.1728491783142L183.34552499999998,138.04990911483765L183.583125,141.14781761169434L183.820725,153.35613441467285L184.058325,121.71180725097656L184.295925,59.55386209487915L184.533525,82.56025314331055L184.77112499999998,100.76005411148071L185.008725,54.27142381668091L185.246325,89.6278395652771L185.483925,125.47909355163574L185.721525,42.2493782043457L185.95912500000003,126.6437315940857L186.196725,151.24655199050903L186.434325,111.71595668792725L186.671925,95.73917198181152L186.909525,71.30169153213501L187.14712500000002,92.94451332092285L187.38472499999997,45.23343086242676L187.622325,66.64499616622925L187.859925,108.86778831481934L188.097525,105.07594156265259L188.335125,133.095871925354L188.57272500000002,121.36095571517944L188.81032499999998,125.15077686309814L189.047925,163.97350788116455L189.285525,79.21505212783813L189.523125,140.29301261901855L189.760725,90.04612684249878L189.99832500000002,102.28111410140991L190.235925,122.25618839263916L190.473525,148.18426036834717L190.71112499999998,79.79057693481445L190.948725,118.95833587646484L191.186325,133.66962432861328L191.423925,125.89468002319336L191.661525,112.49682712554932L191.899125,71.02857255935669L192.13672499999998,112.7035231590271L192.374325,115.94972276687622L192.611925,113.86427879333496L192.849525,131.0262951850891L193.08712500000001,105.74320936203003L193.324725,102.01305913925171L193.562325,157.44717979431152L193.799925,132.57005882263184L194.03752500000002,166.44862747192383L194.275125,153.2886986732483L194.51272500000002,97.05218553543091L194.75032499999998,170.40201616287231L194.987925,116.97965812683105L195.225525,118.13290214538574L195.463125,100.54263925552368L195.700725,114.43997240066528L195.93832500000002,79.74162483215332L196.17592499999998,136.82830095291138L196.413525,122.57083225250244L196.651125,103.21998167037964L196.888725,72.44531393051147L197.126325,45.91251468658447L197.36392500000002,104.26544666290283L197.60152499999998,156.14817667007446L197.839125,117.92046689987183L198.07672499999998,173.6160593032837L198.314325,136.48276662826538L198.551925,144.24108409881592L198.789525,216.33529329299927L199.02712499999998,88.83954191207886L199.264725,163.11313247680664L199.50232499999998,120.18998765945435L199.739925,121.53321647644043L199.977525,113.19405698776245L200.215125,154.51393604278564L200.45272500000002,145.7737913131714L200.690325,174.5243740081787L200.927925,136.31852388381958L201.165525,159.39403867721558L201.40312500000002,118.08513164520264L201.640725,143.7352738380432L201.87832500000002,96.94330930709839L202.11592499999998,127.91581106185913L202.353525,140.83705615997314L202.591125,136.5221815109253L202.828725,133.41380739212036L203.066325,104.80678939819336L203.30392500000002,183.3998122215271L203.54152499999998,84.5115008354187L203.779125,169.1179518699646L204.016725,150.34887170791626L204.254325,129.82781267166138L204.491925,138.99333429336548L204.72952500000002,132.30782747268677L204.96712499999998,100.38506412506104L205.204725,91.19388484954834L205.442325,139.80568599700928L205.679925,144.48820781707764L205.917525,153.64106941223145L206.155125,147.12832975387573L206.39272499999998,128.8433690071106L206.630325,144.53234910964966L206.86792499999999,79.8055157661438L207.105525,152.68186140060425L207.34312500000001,123.11614179611206L207.580725,61.72176504135132L207.818325,119.00146436691284L208.055925,67.68581914901733L208.293525,86.35927391052246L208.531125,184.84052324295044L208.76872500000002,140.91014671325684L209.006325,136.1162166595459L209.243925,127.88584899902344L209.481525,76.23386907577515L209.719125,138.75937700271606L209.956725,156.00469636917114L210.194325,133.35666847229004L210.431925,172.20978355407715L210.66952500000002,148.6179084777832L210.90712499999998,194.20911169052124L211.144725,169.67718744277954L211.382325,191.519109249115L211.619925,160.37004232406616L211.857525,143.23545598983765L212.09512500000002,112.47083187103271L212.33272499999998,163.1890082359314L212.570325,152.69359302520752L212.807925,193.9310975074768L213.52072500000003,190.85673666000366L213.75832499999999,115.53962230682373L213.995925,151.92707061767578L214.233525,127.33665704727173L214.471125,134.0637731552124L214.70872500000002,171.92366695404053L214.946325,107.0642409324646L215.183925,133.22694540023804L215.421525,130.8439908027649L215.659125,100.79077577590942L215.896725,116.84681224822998L216.13432500000002,83.18987846374512L216.371925,102.62006521224976L216.609525,157.44515419006348L216.847125,147.5335350036621L217.084725,133.15917205810547L217.322325,172.58502674102783L217.55992500000002,140.72353792190552L217.797525,115.95816278457642L218.035125,150.28709077835083L218.27272499999998,112.73517322540283L218.510325,178.18506288528442L218.747925,125.88379240036011L218.985525,156.68487739562988L219.223125,105.45464515686035L219.460725,98.21344757080078L219.69832499999998,142.86071920394897L219.935925,100.87390995025635L220.173525,63.803157806396484L220.411125,178.28220748901367L220.648725,183.56186056137085L220.88632500000003,159.5938138961792L221.12392499999999,147.76285028457642L221.361525,90.2456488609314L221.599125,157.93113040924072L221.836725,145.3117847442627L222.07432500000002,134.9364709854126L222.31192499999997,120.87421989440918L222.549525,135.09303331375122L222.787125,82.16239070892334L223.024725,159.17653942108154L223.262325,108.56276607513428L223.49992500000002,133.69494438171387L223.73752499999998,144.58881282806396L223.975125,135.61420440673828L224.212725,149.93261003494263L224.450325,144.43106889724731L224.687925,153.17003202438354L224.92552500000002,157.28513145446777L225.163125,150.29806280136108L225.400725,140.27098417282104L225.63832499999998,173.34977674484253L225.875925,85.95212745666504L226.113525,117.14542007446289L226.351125,147.01227951049805L226.588725,170.4660758972168L226.826325,119.87796020507812L227.06392499999998,144.87889623641968L227.301525,129.0811243057251L227.539125,110.51840257644653L227.776725,109.11364603042603L228.014325,204.2758584022522L228.251925,118.9173173904419L228.489525,126.82713317871094L228.727125,125.07245349884033L228.96472500000002,126.83042478561401L229.202325,150.50703763961792L229.43992500000002,127.88331699371338L229.67752499999997,93.36347579956055L229.915125,83.5608172416687L230.152725,121.13797044754028L230.390325,153.46340703964233L230.627925,139.35068464279175L230.86552500000002,177.5704607963562L231.10312499999998,155.13166093826294L231.340725,138.6569995880127L231.578325,158.04000663757324L231.815925,146.44257831573486L232.053525,205.6118288040161L232.29112500000002,151.1501669883728L232.52872499999998,153.4017105102539L232.766325,150.0053629875183L233.003925,148.06348371505737L233.241525,102.48544692993164L233.479125,153.00486087799072L233.716725,161.89397192001343L233.95432499999998,142.22577667236328L234.191925,144.51158666610718L234.42952499999998,126.25439357757568L234.667125,117.02827262878418L234.904725,143.79452276229858L235.142325,136.63291454315186L235.37992500000001,145.50430154800415L235.617525,83.01280689239502L235.855125,133.85311031341553L236.092725,140.44898414611816L236.33032500000002,100.69692277908325L236.567925,109.73685693740845L236.80552500000002,98.91185903549194L237.043125,92.7303900718689L237.280725,152.1827187538147L237.518325,119.47739696502686L237.755925,88.42598104476929L237.993525,98.89033699035645L238.23112500000002,119.48457098007202L238.46872499999998,141.64560985565186L238.706325,139.77749633789062L238.943925,144.41866207122803L239.181525,156.51582384109497L239.419125,61.81224203109741L239.65672500000002,96.46079349517822L239.89432499999998,95.48943185806274L240.131925,74.52029228210449L240.369525,147.33190298080444L240.607125,152.22719764709473L240.844725,186.78003931045532L241.08232500000003,132.20055484771729L241.31992499999998,84.02020740509033L241.557525,214.32555627822876L241.79512499999998,80.46020793914795L242.032725,56.97585868835449L242.270325,110.70940017700195L242.507925,119.68189859390259L242.745525,126.49020767211914L242.983125,90.25915288925171L243.220725,138.53799533843994L243.458325,150.95494937896729L243.69592500000002,168.48807334899902L243.933525,101.38554382324219L244.171125,145.04204177856445L244.408725,137.2271761894226L244.646325,173.4177188873291L244.883925,78.04754447937012L245.12152500000002,111.00572919845581L245.359125,119.00711917877197L245.596725,149.29412269592285L245.83432499999998,180.5522346496582L246.071925,115.30347061157227L246.309525,85.19201946258545L246.547125,182.39519691467285L246.784725,113.81507349014282L247.02232500000002,169.57531642913818L247.25992499999998,146.26516914367676L247.497525,189.78451681137085L247.735125,38.25716543197632L247.972725,142.15142011642456L248.210325,140.12277746200562L248.44792500000003,153.93385362625122L248.68552499999998,114.22264194488525L248.923125,92.37717533111572L249.16072499999999,140.94871759414673L249.398325,91.94876003265381L249.63592500000001,142.7280421257019L249.873525,125.79888582229614L250.111125,118.619215965271L250.348725,143.6875877380371L250.586325,178.27317667007446L250.823925,144.4006004333496L251.06152500000002,131.28253412246704L251.299125,134.8021059036255L251.536725,116.96953010559082L251.774325,139.7846703529358L252.011925,79.97895812988281L252.249525,132.84165859222412L252.48712500000002,177.4586305618286L252.724725,150.11145401000977L252.962325,106.18479108810425L253.19992499999998,132.70011949539185L253.437525,141.4319086074829L253.675125,159.2434687614441L253.912725,111.58724641799927L254.150325,148.63386011123657L254.387925,155.65063762664795L254.62552499999998,154.25499629974365L254.863125,150.58899021148682L255.100725,159.36981582641602L255.338325,155.88096570968628" style="fill: none;" fill="none"></path></g></g></g></g></g></g><g transform="translate(51, 177)" clip-path="url(#clip_1)"><clipPath id="clip_1"><rect width="278" height="23"></rect></clipPath><g><g><line x1="0" y1="0" x2="0" y2="5" style="visibility: inherit;" fill="rgb(0, 0, 0)" stroke="rgb(204, 204, 204)" stroke-width="1px"></line><line x1="23.203125" y1="0" x2="23.203125" y2="5" style="visibility: inherit;" fill="rgb(0, 0, 0)" stroke="rgb(204, 204, 204)" stroke-width="1px"></line><line x1="46.40625" y1="0" x2="46.40625" y2="5" style="visibility: inherit;" fill="rgb(0, 0, 0)" stroke="rgb(204, 204, 204)" stroke-width="1px"></line><line x1="69.609375" y1="0" x2="69.609375" y2="5" style="visibility: inherit;" fill="rgb(0, 0, 0)" stroke="rgb(204, 204, 204)" stroke-width="1px"></line><line x1="92.8125" y1="0" x2="92.8125" y2="5" style="visibility: inherit;" fill="rgb(0, 0, 0)" stroke="rgb(204, 204, 204)" stroke-width="1px"></line><line x1="116.015625" y1="0" x2="116.015625" y2="5" style="visibility: inherit;" fill="rgb(0, 0, 0)" stroke="rgb(204, 204, 204)" stroke-width="1px"></line><line x1="139.21875" y1="0" x2="139.21875" y2="5" style="visibility: inherit;" fill="rgb(0, 0, 0)" stroke="rgb(204, 204, 204)" stroke-width="1px"></line><line x1="162.421875" y1="0" x2="162.421875" y2="5" style="visibility: inherit;" fill="rgb(0, 0, 0)" stroke="rgb(204, 204, 204)" stroke-width="1px"></line><line x1="185.625" y1="0" x2="185.625" y2="5" style="visibility: inherit;" fill="rgb(0, 0, 0)" stroke="rgb(204, 204, 204)" stroke-width="1px"></line><line x1="208.828125" y1="0" x2="208.828125" y2="5" style="visibility: inherit;" fill="rgb(0, 0, 0)" stroke="rgb(204, 204, 204)" stroke-width="1px"></line><line x1="232.03125" y1="0" x2="232.03125" y2="5" style="visibility: inherit;" fill="rgb(0, 0, 0)" stroke="rgb(204, 204, 204)" stroke-width="1px"></line><line x1="255.234375" y1="0" x2="255.234375" y2="5" style="visibility: inherit;" fill="rgb(0, 0, 0)" stroke="rgb(204, 204, 204)" stroke-width="1px"></line><line x1="278.4375" y1="0" x2="278.4375" y2="5" style="visibility: inherit;" fill="rgb(0, 0, 0)" stroke="rgb(204, 204, 204)" stroke-width="1px"></line></g><g transform="translate(0, 8)"><text x="0" y="0" dx="0em" dy="0.95em" style="text-anchor: middle; visibility: hidden; font-family: Roboto, sans-serif; font-size: 12px; font-weight: 200;" fill="rgb(33, 33, 33)" stroke="none" stroke-width="1px">-200k</text><text x="23.203125" y="0" dx="0em" dy="0.95em" style="text-anchor: middle; visibility: inherit; font-family: Roboto, sans-serif; font-size: 12px; font-weight: 200;" fill="rgb(33, 33, 33)" stroke="none" stroke-width="1px">0</text><text x="46.40625" y="0" dx="0em" dy="0.95em" style="text-anchor: middle; visibility: hidden; font-family: Roboto, sans-serif; font-size: 12px; font-weight: 200;" fill="rgb(33, 33, 33)" stroke="none" stroke-width="1px">200k</text><text x="69.609375" y="0" dx="0em" dy="0.95em" style="text-anchor: middle; visibility: inherit; font-family: Roboto, sans-serif; font-size: 12px; font-weight: 200;" fill="rgb(33, 33, 33)" stroke="none" stroke-width="1px">400k</text><text x="92.8125" y="0" dx="0em" dy="0.95em" style="text-anchor: middle; visibility: hidden; font-family: Roboto, sans-serif; font-size: 12px; font-weight: 200;" fill="rgb(33, 33, 33)" stroke="none" stroke-width="1px">600k</text><text x="116.015625" y="0" dx="0em" dy="0.95em" style="text-anchor: middle; visibility: inherit; font-family: Roboto, sans-serif; font-size: 12px; font-weight: 200;" fill="rgb(33, 33, 33)" stroke="none" stroke-width="1px">800k</text><text x="139.21875" y="0" dx="0em" dy="0.95em" style="text-anchor: middle; visibility: hidden; font-family: Roboto, sans-serif; font-size: 12px; font-weight: 200;" fill="rgb(33, 33, 33)" stroke="none" stroke-width="1px">1M</text><text x="162.421875" y="0" dx="0em" dy="0.95em" style="text-anchor: middle; visibility: inherit; font-family: Roboto, sans-serif; font-size: 12px; font-weight: 200;" fill="rgb(33, 33, 33)" stroke="none" stroke-width="1px">1.2M</text><text x="185.625" y="0" dx="0em" dy="0.95em" style="text-anchor: middle; visibility: hidden; font-family: Roboto, sans-serif; font-size: 12px; font-weight: 200;" fill="rgb(33, 33, 33)" stroke="none" stroke-width="1px">1.4M</text><text x="208.828125" y="0" dx="0em" dy="0.95em" style="text-anchor: middle; visibility: inherit; font-family: Roboto, sans-serif; font-size: 12px; font-weight: 200;" fill="rgb(33, 33, 33)" stroke="none" stroke-width="1px">1.6M</text><text x="232.03125" y="0" dx="0em" dy="0.95em" style="text-anchor: middle; visibility: hidden; font-family: Roboto, sans-serif; font-size: 12px; font-weight: 200;" fill="rgb(33, 33, 33)" stroke="none" stroke-width="1px">1.8M</text><text x="255.234375" y="0" dx="0em" dy="0.95em" style="text-anchor: middle; visibility: inherit; font-family: Roboto, sans-serif; font-size: 12px; font-weight: 200;" fill="rgb(33, 33, 33)" stroke="none" stroke-width="1px">2M</text><text x="278.4375" y="0" dx="0em" dy="0.95em" style="text-anchor: middle; visibility: hidden; font-family: Roboto, sans-serif; font-size: 12px; font-weight: 200;" fill="rgb(33, 33, 33)" stroke="none" stroke-width="1px">2.2M</text></g><line x1="0" y1="0" x2="278.4375" y2="0" fill="rgb(0, 0, 0)" stroke="rgb(204, 204, 204)" stroke-width="1px"></line></g></g></g></g></svg>