<svg viewBox="0 0 330 200" xmlns="http://www.w3.org/2000/svg"><g><g><g><g><g><line x1="51.5625" y1="177" x2="46.5625" y2="177" style="visibility: inherit;" fill="rgb(0, 0, 0)" stroke="rgb(204, 204, 204)" stroke-width="1px"></line><line x1="51.5625" y1="157.33333333333331" x2="46.5625" y2="157.33333333333331" style="visibility: inherit;" fill="rgb(0, 0, 0)" stroke="rgb(204, 204, 204)" stroke-width="1px"></line><line x1="51.5625" y1="137.66666666666666" x2="46.5625" y2="137.66666666666666" style="visibility: inherit;" fill="rgb(0, 0, 0)" stroke="rgb(204, 204, 204)" stroke-width="1px"></line><line x1="51.5625" y1="118.00000000000001" x2="46.5625" y2="118.00000000000001" style="visibility: inherit;" fill="rgb(0, 0, 0)" stroke="rgb(204, 204, 204)" stroke-width="1px"></line><line x1="51.5625" y1="98.33333333333334" x2="46.5625" y2="98.33333333333334" style="visibility: inherit;" fill="rgb(0, 0, 0)" stroke="rgb(204, 204, 204)" stroke-width="1px"></line><line x1="51.5625" y1="78.66666666666666" x2="46.5625" y2="78.66666666666666" style="visibility: inherit;" fill="rgb(0, 0, 0)" stroke="rgb(204, 204, 204)" stroke-width="1px"></line><line x1="51.5625" y1="59.00000000000001" x2="46.5625" y2="59.00000000000001" style="visibility: inherit;" fill="rgb(0, 0, 0)" stroke="rgb(204, 204, 204)" stroke-width="1px"></line><line x1="51.5625" y1="39.33333333333333" x2="46.5625" y2="39.33333333333333" style="visibility: inherit;" fill="rgb(0, 0, 0)" stroke="rgb(204, 204, 204)" stroke-width="1px"></line><line x1="51.5625" y1="19.666666666666675" x2="46.5625" y2="19.666666666666675" style="visibility: inherit;" fill="rgb(0, 0, 0)" stroke="rgb(204, 204, 204)" stroke-width="1px"></line><line x1="51.5625" y1="0" x2="46.5625" y2="0" style="visibility: inherit;" fill="rgb(0, 0, 0)" stroke="rgb(204, 204, 204)" stroke-width="1px"></line></g><g transform="translate(41.5625, 0)"><text x="0" y="177" dx="0em" dy="0.3em" style="text-anchor: end; visibility: hidden; font-family: Roboto, sans-serif; font-size: 12px; font-weight: 200;" fill="rgb(33, 33, 33)" stroke="none" stroke-width="1px">12</text><text x="0" y="157.33333333333331" dx="0em" dy="0.3em" style="text-anchor: end; visibility: inherit; font-family: Roboto, sans-serif; font-size: 12px; font-weight: 200;" fill="rgb(33, 33, 33)" stroke="none" stroke-width="1px">12.5</text><text x="0" y="137.66666666666666" dx="0em" dy="0.3em" style="text-anchor: end; visibility: hidden; font-family: Roboto, sans-serif; font-size: 12px; font-weight: 200;" fill="rgb(33, 33, 33)" stroke="none" stroke-width="1px">13</text><text x="0" y="118.00000000000001" dx="0em" dy="0.3em" style="text-anchor: end; visibility: inherit; font-family: Roboto, sans-serif; font-size: 12px; font-weight: 200;" fill="rgb(33, 33, 33)" stroke="none" stroke-width="1px">13.5</text><text x="0" y="98.33333333333334" dx="0em" dy="0.3em" style="text-anchor: end; visibility: hidden; font-family: Roboto, sans-serif; font-size: 12px; font-weight: 200;" fill="rgb(33, 33, 33)" stroke="none" stroke-width="1px">14</text><text x="0" y="78.66666666666666" dx="0em" dy="0.3em" style="text-anchor: end; visibility: inherit; font-family: Roboto, sans-serif; font-size: 12px; font-weight: 200;" fill="rgb(33, 33, 33)" stroke="none" stroke-width="1px">14.5</text><text x="0" y="59.00000000000001" dx="0em" dy="0.3em" style="text-anchor: end; visibility: hidden; font-family: Roboto, sans-serif; font-size: 12px; font-weight: 200;" fill="rgb(33, 33, 33)" stroke="none" stroke-width="1px">15</text><text x="0" y="39.33333333333333" dx="0em" dy="0.3em" style="text-anchor: end; visibility: inherit; font-family: Roboto, sans-serif; font-size: 12px; font-weight: 200;" fill="rgb(33, 33, 33)" stroke="none" stroke-width="1px">15.5</text><text x="0" y="19.666666666666675" dx="0em" dy="0.3em" style="text-anchor: end; visibility: hidden; font-family: Roboto, sans-serif; font-size: 12px; font-weight: 200;" fill="rgb(33, 33, 33)" stroke="none" stroke-width="1px">16</text><text x="0" y="0" dx="0em" dy="0.3em" style="text-anchor: end; visibility: hidden; font-family: Roboto, sans-serif; font-size: 12px; font-weight: 200;" fill="rgb(33, 33, 33)" stroke="none" stroke-width="1px">16.5</text></g><line x1="51.5625" y1="0" x2="51.5625" y2="177" fill="rgb(0, 0, 0)" stroke="rgb(204, 204, 204)" stroke-width="1px"></line></g></g><g transform="translate(51, 0)" clip-path="url(#clip_0)"><clipPath id="clip_0"><rect width="278" height="177"></rect></clipPath><g><g><g><line x1="0" y1="0" x2="0" y2="177" fill="rgb(0, 0, 0)" stroke="rgb(66, 66, 66)" stroke-width="1px" opacity="0.25"></line><line x1="23.203125" y1="0" x2="23.203125" y2="177" fill="rgb(0, 0, 0)" stroke="rgb(66, 66, 66)" stroke-width="1px" opacity="0.25"></line><line x1="46.40625" y1="0" x2="46.40625" y2="177" fill="rgb(0, 0, 0)" stroke="rgb(66, 66, 66)" stroke-width="1px" opacity="0.25"></line><line x1="69.609375" y1="0" x2="69.609375" y2="177" fill="rgb(0, 0, 0)" stroke="rgb(66, 66, 66)" stroke-width="1px" opacity="0.25"></line><line x1="92.8125" y1="0" x2="92.8125" y2="177" fill="rgb(0, 0, 0)" stroke="rgb(66, 66, 66)" stroke-width="1px" opacity="0.25"></line><line x1="116.015625" y1="0" x2="116.015625" y2="177" fill="rgb(0, 0, 0)" stroke="rgb(66, 66, 66)" stroke-width="1px" opacity="0.25"></line><line x1="139.21875" y1="0" x2="139.21875" y2="177" fill="rgb(0, 0, 0)" stroke="rgb(66, 66, 66)" stroke-width="1px" opacity="0.25"></line><line x1="162.421875" y1="0" x2="162.421875" y2="177" fill="rgb(0, 0, 0)" stroke="rgb(66, 66, 66)" stroke-width="1px" opacity="0.25"></line><line x1="185.625" y1="0" x2="185.625" y2="177" fill="rgb(0, 0, 0)" stroke="rgb(66, 66, 66)" stroke-width="1px" opacity="0.25"></line><line x1="208.828125" y1="0" x2="208.828125" y2="177" fill="rgb(0, 0, 0)" stroke="rgb(66, 66, 66)" stroke-width="1px" opacity="0.25"></line><line x1="232.03125" y1="0" x2="232.03125" y2="177" fill="rgb(0, 0, 0)" stroke="rgb(66, 66, 66)" stroke-width="1px" opacity="0.25"></line><line x1="255.234375" y1="0" x2="255.234375" y2="177" fill="rgb(0, 0, 0)" stroke="rgb(66, 66, 66)" stroke-width="1px" opacity="0.25"></line><line x1="278.4375" y1="0" x2="278.4375" y2="177" fill="rgb(0, 0, 0)" stroke="rgb(66, 66, 66)" stroke-width="1px" opacity="0.25"></line></g><g><line x1="0" y1="177" x2="278.4375" y2="177" fill="rgb(0, 0, 0)" stroke="rgb(66, 66, 66)" stroke-width="1px" opacity="0.25"></line><line x1="0" y1="157.33333333333331" x2="278.4375" y2="157.33333333333331" fill="rgb(0, 0, 0)" stroke="rgb(66, 66, 66)" stroke-width="1px" opacity="0.25"></line><line x1="0" y1="137.66666666666666" x2="278.4375" y2="137.66666666666666" fill="rgb(0, 0, 0)" stroke="rgb(66, 66, 66)" stroke-width="1px" opacity="0.25"></line><line x1="0" y1="118.00000000000001" x2="278.4375" y2="118.00000000000001" fill="rgb(0, 0, 0)" stroke="rgb(66, 66, 66)" stroke-width="1px" opacity="0.25"></line><line x1="0" y1="98.33333333333334" x2="278.4375" y2="98.33333333333334" fill="rgb(0, 0, 0)" stroke="rgb(66, 66, 66)" stroke-width="1px" opacity="0.25"></line><line x1="0" y1="78.66666666666666" x2="278.4375" y2="78.66666666666666" fill="rgb(0, 0, 0)" stroke="rgb(66, 66, 66)" stroke-width="1px" opacity="0.25"></line><line x1="0" y1="59.00000000000001" x2="278.4375" y2="59.00000000000001" fill="rgb(0, 0, 0)" stroke="rgb(66, 66, 66)" stroke-width="1px" opacity="0.25"></line><line x1="0" y1="39.33333333333333" x2="278.4375" y2="39.33333333333333" fill="rgb(0, 0, 0)" stroke="rgb(66, 66, 66)" stroke-width="1px" opacity="0.25"></line><line x1="0" y1="19.666666666666675" x2="278.4375" y2="19.666666666666675" fill="rgb(0, 0, 0)" stroke="rgb(66, 66, 66)" stroke-width="1px" opacity="0.25"></line><line x1="0" y1="0" x2="278.4375" y2="0" fill="rgb(0, 0, 0)" stroke="rgb(66, 66, 66)" stroke-width="1px" opacity="0.25"></line></g></g></g><g><g><line x1="0" y1="649" x2="278.4375" y2="649" fill="rgb(0, 0, 0)" stroke="rgb(153, 153, 153)" stroke-width="1.5px"></line></g></g><g><g><line x1="23.203125" y1="0" x2="23.203125" y2="177" fill="rgb(0, 0, 0)" stroke="rgb(153, 153, 153)" stroke-width="1.5px"></line></g></g><g><g><g><g><g><path stroke="rgb(255, 112, 67)" stroke-width="2px" d="M24.153525,234.11035544207303L24.391125,101.64157962097838L24.628725,65.86642800065728L24.866325000000003,90.90212650210292L25.103925,114.99258636106497L25.341525,85.85048535070722L25.579125,72.63524342845682L25.816724999999998,44.11211746127487L26.054325,35.47051907938279L26.291925000000003,104.14920501757084L26.529525,117.57922184943982L26.767125,52.26516183628003L27.004725,51.32171859274275L27.242324999999997,72.12841475743267L27.479924999999998,83.57589230188988L27.717525000000002,74.88043107906265L27.955125000000002,32.555089301550545L28.192725,70.72365908594347L28.430325,78.15956558358481L28.667925,67.9983656673345L28.905524999999997,126.8494032932495L29.143125,94.11017654227426L29.380725,110.3057225874442L29.618325,79.28964030859707L29.855925,102.39386093269137L30.093525,84.33087003225933L30.331124999999997,122.19158253920669L30.568725,70.08492447464113L30.806325,98.43147704017234L31.043925,110.32221928307746L31.281525,74.85985514500344L31.519125,118.14240816254758L31.756725000000003,141.67357676159997L31.994325,150.28533485631598L32.231925000000004,128.1486096309596L32.469525,83.97706997246841L32.707125,87.94017952282816L32.944725,87.48677566149571L33.182325,95.94157661380235L33.419925,144.2947479324683L33.657525,89.47253254085224L33.895125,122.89091444810686L34.132725,164.88466921766278L34.370325,101.81238111650782L34.607925,82.41884193822187L34.845524999999995,59.95967486254282L35.083125,38.304769659258724L35.320725,80.19812439965361L35.558324999999996,52.622468084482556L35.795925000000004,50.54758592270502L36.033525,36.252018553923534L36.271125,8.783442781088404L36.508725,45.67143260186313L36.746325,15.24584306126919L36.983925,4.606461220060034L37.221525,35.99931603257742L37.459125,46.11835869303356L37.696724999999994,53.05842340877295L37.934325,13.001585925959315L38.171925,69.74615012328492L38.409525,118.15427271557303L38.647125,70.51526107807403L38.884724999999996,23.796304168816864L39.122325000000004,51.732045298327904L39.359925000000004,84.23525582483013L39.597525,86.6244123144782L39.835125000000005,16.944177621434264L40.072725,33.28237215310138L40.310325,61.533156964956525L40.547925,93.33574831512297L40.785525,100.83795894797672L41.023125,80.46036381890005L41.260725,79.83337695222869L41.498325,92.85804237617116L41.735924999999995,100.43862176155879L41.973525,50.75921797881028L42.211125,14.738552332696333L42.448724999999996,72.29985086169465L42.686325000000004,114.83439075179874L42.923925,132.37409890827325L43.161525,88.79398932339821L43.399125,69.18940552641197L43.636725,105.62313250245202L43.874325000000006,86.72222443148422L44.111925,48.60772278144913L44.349525,69.52806928695219L44.587125,3.8830555614291438L44.824725,87.27267721910042L45.062325,87.23802954923366L45.299925,64.9177689014152L45.537525,90.27932294159781L45.775124999999996,121.57719739248145L46.012725,125.24011294029032L46.250325000000004,156.71903699228292L46.487925,160.70172528578314L46.725525000000005,142.98316489152197L46.963125,102.65386454160266L47.200725,67.16732177671936L47.438325,120.48290191612924L47.675925,143.81930378192044L47.913525,103.86486947008002L48.151125,154.55115002474008L48.388725,120.64905320454135L48.626324999999994,32.27661606579126L48.863925,100.80718896930877L49.101525,46.72793978539387L49.339124999999996,130.86783890378848L49.576725,133.10068482827566L49.814325,87.51434410415935L50.051925000000004,82.71560236296766L50.289525,39.03049972344465L50.527125,22.549240589275126L50.764725000000006,41.053514893929645L51.002325,82.36688651407584L51.239925,104.1537292188296L51.477525,124.59043673987519L51.715125,37.96571783412689L51.952725,77.44669322285571L52.190325,101.29420586494719L52.427925,65.12647113045918L52.665524999999995,53.07354325159912L52.903125,126.05365913373943L53.140725,85.05236556487904L53.378325,99.79572597955242L53.615925000000004,60.2105949708695L53.853525,12.587635262144056L54.091125,52.62127037644335L54.328725,29.58613960623709L54.566325,38.261196855783275L54.803925,43.08813341701818L55.041525,76.17633179174732L55.279125,82.62758303094031L55.516724999999994,69.52576577111954L55.754325,36.47823717263266L55.991925,80.86745148937067L56.229525,33.34044261400003L56.467125,70.84751736893713L56.704724999999996,66.3413198696044L56.942325000000004,104.9092129015804L57.179925,92.53441425624771L57.417525,155.64515620348823L57.655125000000005,117.79621008561828L57.892725,74.26601645664442L58.130325,95.60458184867741L58.367925,86.27682432486392L58.605525,58.10137444110973L58.843125,74.1683052860037L59.080725,24.438258358776697L59.318325,56.88254933492748L59.555924999999995,90.34141289156517L59.793525,73.57028454320731L60.031125,96.38094381755846L60.268724999999996,64.45223216374468L60.506325000000004,66.45949364598442L60.743925,72.53653908309852L60.981525,103.31758079849189L61.219125,44.76667050871757L61.456725,94.15986319593695L61.694325000000006,72.74569030729204L61.931925,107.45243254578477L62.169525,143.24897926217136L62.407125,128.89395313957823L62.644725,77.62202709614928L62.882325,142.28847860713617L63.119925,159.9258866434484L63.357525,91.2725150182956L63.595124999999996,41.61367634903076L63.832725,70.24817305388459L64.070325,81.16481747775723L64.307925,71.94224909871484L64.545525,47.93908348836304L64.783125,29.120796691325065L65.020725,4.291406034000874L65.258325,23.970911176145997L65.495925,54.415403710489L65.733525,53.48990410170032L65.971125,71.90114715258917L66.208725,36.500817584359496L66.446325,116.3839304411594L66.683925,77.98463072563318L66.921525,57.80026762198474L67.159125,68.45436559028067L67.396725,68.39692533357919L67.634325,86.13769362177838L67.871925,127.1835034716511L68.10952499999999,149.67526728481363L68.347125,63.1779773467996L68.584725,34.07665386006543L68.82232499999999,85.52541583898851L69.059925,99.84706178977007L69.297525,108.4916947663262L69.535125,99.78038368108476L69.77272500000001,55.83223625113133L70.010325,67.82137518777189L70.247925,38.83482086054718L70.48552500000001,58.721268594616056L70.723125,20.988982165070436L70.960725,49.45764609428964L71.19832500000001,128.20273910514152L71.435925,119.97782734166563L71.673525,114.50833082475845L71.911125,120.2790733036116L72.148725,54.10892703473858L72.386325,73.08893944227876L72.623925,69.82483608764909L72.861525,62.43463375911613L73.099125,92.93822445916436L73.336725,75.25589452453835L73.57432499999999,88.3919499532484L73.811925,93.95017012453695L74.049525,42.61162785190316L74.28712499999999,60.62253396211846L74.524725,47.364929170402604L74.762325,51.452883639529965L74.99992499999999,93.38127709940811L75.237525,99.6040149779066L75.475125,79.48286669955323L75.71272499999999,79.8399906089246L75.95032499999999,50.187255473753154L76.187925,87.15471931208388L76.42552500000001,76.85586386467544L76.663125,101.88123911348302L76.90072500000001,126.83224815762428L77.13832500000001,156.00483010591898L77.375925,120.91923666625321L77.613525,162.08366988874934L77.85112500000001,159.56634115444103L78.088725,71.44398712674663L78.326325,49.81946641341778L78.56392500000001,34.07450760683971L78.801525,50.03989295928616L79.039125,-20.206968358542902L79.276725,11.069857884613802L79.514325,52.53765066216481L79.751925,8.141925826172487L79.989525,10.28058497975303L80.227125,18.558146926979358L80.464725,66.10887217514924L80.702325,48.4804228941195L80.939925,73.98913289703486L81.177525,26.63568249700998L81.415125,46.65489455476525L81.65272499999999,70.22834577013127L81.890325,105.93081747998237L82.127925,130.85535048351358L82.36552499999999,107.68881352090243L82.603125,83.21861317561114L82.840725,66.9085673499468L83.07832499999999,50.480223417780515L83.315925,92.23084187537533L83.55352500000001,84.30322044708393L83.791125,107.30773386330245L84.028725,87.17220796527963L84.26632500000001,55.858755382195085L84.503925,74.03967186945378L84.741525,88.11679196241118L84.97912500000001,15.68751343021371L85.216725,-27.026881997210353L85.454325,-5.135863898847045L85.691925,74.86464839856606L85.929525,66.17021344709865L86.167125,93.49560493593496L86.404725,95.24121977308437L86.642325,115.25235566349258L86.879925,135.42381279181302L87.117525,126.94686300264316L87.35512499999999,130.15270667894592L87.592725,92.69686082377375L87.830325,105.83638685966136L88.06792499999999,45.118168175367096L88.305525,89.7518589537229L88.543125,137.65909571891345L88.780725,75.72514798310594L89.01832499999999,69.4474417968622L89.255925,94.22533305907439L89.493525,79.38143498355657L89.73112499999999,66.1273091712863L89.968725,111.49107819076005L90.206325,100.4445650256214L90.443925,43.749361797762134L90.68152500000001,38.20129732564615L90.91912500000001,61.88165562317086L91.156725,76.24218103666296L91.394325,122.06342970557522L91.63192500000001,89.25754151678586L91.869525,56.26295284789707L92.107125,31.172770589760354L92.34472500000001,66.37927423129761L92.582325,52.83320418721611L92.819925,72.84443112845923L93.057525,76.91755065502151L93.295125,126.12696777094266L93.532725,156.4997857549321L93.770325,138.77008146475936L94.007925,162.11031471747867L94.245525,85.61737392977108L94.483125,89.20589086990688L94.720725,64.00972760666093L94.958325,77.11468360989504L95.195925,33.01688704988884L95.43352499999999,77.0820217257829L95.671125,67.28427290078548L95.908725,41.899849934318915L96.14632499999999,67.72154727952042L96.383925,82.79358510599347L96.621525,70.57231449539948L96.85912499999999,54.33238507582043L97.09672499999999,39.10951303605212L97.334325,92.49585486549519L97.571925,83.65266174335306L97.809525,94.25344091808213L98.04712500000001,109.42419157518194L98.284725,97.30242067631035L98.522325,103.67597399188647L98.75992500000001,137.2743127785141L98.997525,133.63033550036042L99.235125,155.7173350078985L99.472725,129.11853195566687L99.71032500000001,108.91143798036627L99.947925,85.67047042371779L100.185525,70.26293848388559L100.42312500000001,58.830151548583366L100.660725,67.87837479348927L100.898325,109.08201551736954L101.13592499999999,124.5114628809784L101.373525,120.65275861847965L101.611125,104.17379094379285L101.848725,61.33623613447236L102.086325,85.64629225848289L102.323925,154.32655251573425L102.561525,31.86870626936887L102.79912499999999,22.1361331244143L103.036725,18.8933838744858L103.274325,-18.738521066910057L103.51192499999999,33.11988606794311L103.749525,77.18335793064219L103.987125,56.55256516325187L104.22472499999999,88.2884940540058L104.462325,77.8640065174458L104.69992500000001,61.96938835667515L104.937525,102.2142875855383L105.175125,115.5407343148321L105.41272500000001,119.0162188990392L105.650325,34.59378895661098L105.887925,54.94527712762865L106.12552500000001,87.68536899467614L106.363125,105.59504173982327L106.600725,103.0881420381159L106.838325,9.891424855031007L107.075925,37.625718458754285L107.313525,53.23238119935737L107.551125,30.335210173064937L107.788725,59.80087051912219L108.026325,93.30149627997916L108.263925,-19.94538142716222L108.739125,-8.88302723483958L108.976725,27.6297056520975L109.21432499999999,129.19523773858924L109.451925,87.333670963466L109.689525,69.3098418094435L109.92712499999999,66.41541685527872L110.164725,47.64989708582349L110.402325,52.37047210566082L110.63992499999999,94.80860172449678L110.87752499999999,106.82772415522213L111.115125,137.70481218681815L111.35272499999999,121.0249828524555L111.59032499999999,91.62000400387238L111.82792500000001,70.12310205238855L112.06552500000001,94.37107675674233L112.303125,73.89131238501864L112.54072500000001,70.79717629616421L112.77832500000001,76.90074916759104L113.015925,79.41938677675908L113.253525,85.84815128195709L113.49112500000001,49.753187033822684L113.728725,73.96258065697982L113.966325,57.31284705955242L114.20392500000001,43.568241835585L114.441525,78.56809938805345L114.679125,114.61399221136396L114.916725,146.9902543050898L115.154325,97.69239095585665L115.391925,103.42537160557777L115.629525,84.97151400948925L115.867125,13.413951394788532L116.104725,-17.283775871297475L116.817525,-0.20231928001338617L117.055125,48.00779061176084L117.29272499999999,53.56734119648359L117.530325,100.02426982002225L117.767925,113.1798313622282L118.00552499999999,135.47429921813446L118.243125,136.98104406945487L118.480725,121.69295078249324L118.718325,47.44946391025118L118.955925,-9.018974709676149L119.19352500000001,68.26564840783696L119.431125,74.91154714610191L119.668725,99.50758400868978L119.90632500000001,31.694164764751637L120.143925,106.9861356488087L120.381525,142.55311200248516L120.619125,116.16445005671571L120.856725,84.40188607813747L121.094325,98.00274485692483L121.331925,66.09217171477344L121.569525,88.40726098581393L121.807125,77.65000158050204L122.044725,10.226683585833788L122.28232500000001,49.61348970472295L122.519925,88.24250203613126L122.757525,125.84564770605373L122.99512499999999,-6.741176541569585L123.232725,31.408604977971706L123.470325,80.05020576225502L123.70792499999999,75.01105200553005L123.945525,65.65742644054134L124.183125,131.02416447231641L124.420725,149.53704023815874L124.65832499999999,116.69590552920712L124.895925,86.6776881234324L125.133525,55.880498473831594L125.37112499999999,73.34909783104376L125.608725,37.66514615793615L125.84632500000001,61.166007403013595L126.083925,59.65592742968256L126.32152500000001,73.56622923816438L126.55912500000001,113.59409112973131L126.796725,57.23937805837263L127.034325,3.4561929564428016L127.27192500000001,51.91055735711763L127.509525,87.76078779358369L127.747125,56.29529815629344L127.98472500000001,49.45148461887368L128.222325,64.98659562565366L128.459925,41.61732053457183L128.69752499999998,76.8512186350334L128.935125,81.82543505878694L129.17272499999999,51.15441529145709L129.410325,24.388188522204956L129.64792500000001,51.627468777385474L129.885525,79.2075288331631L130.123125,44.88688047942255L130.360725,6.26118203928111L130.59832500000002,16.296609939714443L130.835925,79.17531754667374L131.073525,65.56499786036105L131.311125,66.11501113687098L131.548725,52.49933403401064L131.786325,75.25947921475854L132.02392500000002,104.84191723466571L132.261525,72.27780125022328L132.499125,30.74296503154677L132.736725,30.462683722704117L132.974325,69.00708309332306L133.211925,67.96083682091901L133.449525,22.130769975852182L133.687125,48.552274343096L133.924725,27.039500592185746L134.162325,31.13573369067928L134.399925,61.207816048554754L134.637525,65.22167042340367L134.875125,14.385519954237525L135.11272499999998,109.89585970203476L135.350325,120.62642980234065L135.587925,94.24803246229635L135.825525,82.3134551992202L136.063125,104.34499704938236L136.300725,77.29465463221734L136.538325,140.71242357767022L136.775925,54.11697237576877L137.01352500000002,123.55545462500552L137.251125,178.88466564813157L137.488725,167.00305992761588L137.726325,131.80607866286837L137.963925,76.48448185348275L138.201525,107.96261548334621L138.439125,59.0878120064791L138.676725,71.69326795339919L138.914325,46.0685013604184L139.151925,21.807060492357834L139.389525,59.65935989160607L139.62712499999998,104.89124251170522L139.864725,154.8377156303141L140.102325,148.33611046746253L140.339925,160.99071097855696L140.577525,130.11100475282424L140.81512500000002,161.54784573092627L141.05272499999998,124.96788666829208L141.290325,13.1275708885078L141.527925,17.0853145566235L141.765525,66.81909822900994L142.003125,-28.98797780982718L142.24072500000003,-25.885500105492632L142.47832499999998,65.74014362160032L142.715925,91.84385729112428L142.953525,71.35721210009768L143.191125,88.42766395032554L143.42872500000001,60.6314579893359L143.66632499999997,57.78040397857872L143.903925,29.488697302511785L144.141525,79.73594604263988L144.379125,72.76089618800252L144.616725,101.4000929089278L144.85432500000002,64.47498006176292L145.091925,61.47941272984743L145.329525,62.99567579546054L145.567125,97.65134021034922L145.804725,100.02164315615745L146.042325,137.92645787855773L146.27992500000002,175.2455198585637L146.517525,81.30808055120595L146.755125,74.3284231089625L146.99272499999998,98.09129646995109L147.230325,140.67868636992642L147.467925,108.23784562119084L147.705525,95.9136411597425L147.943125,147.7877436151164L148.180725,81.6148407898381L148.41832499999998,164.29830281985014L148.655925,107.57033885947193L148.893525,111.00315785466427L149.131125,137.27501686449136L149.368725,116.42116424263686L149.606325,109.90843737614858L149.84392499999998,149.38604829605046L150.081525,109.75006540951506L150.319125,172.25810631317324L150.556725,156.05520456752632L150.79432500000001,101.9677640063849L151.03192499999997,112.84776096323851L151.269525,94.98745398191448L151.507125,72.91490713239412L151.744725,83.6612403202893L151.982325,48.74085989448478L152.21992500000002,98.44236800781717L152.45752499999998,109.40984880355101L152.695125,37.97897609528164L152.932725,39.83814198448015L153.170325,53.95224406723434L153.407925,-18.88412332691197L153.64552500000002,56.082055504178385L153.88312499999998,54.98171188933971L154.120725,83.52002078594761L154.358325,110.8752034403999L154.595925,92.17165755618328L154.833525,84.84505207968981L155.071125,13.561730954845123L155.308725,116.59681767650413L155.546325,29.28044625775792L155.78392499999998,49.36786873732081L156.021525,114.63995291150057L156.259125,112.74040917569272L156.496725,57.94337168542864L156.734325,92.95755184019596L156.971925,68.93521200214812L157.20952499999999,125.47729948319L157.447125,144.61592604611513L157.68472500000001,107.64937918520492L157.922325,127.6496436345767L158.15992500000002,93.4792293875331L158.397525,86.23877690050489L158.635125,38.96746505387715L158.872725,96.65755295607308L159.110325,53.05499828568818L159.347925,103.0999532662534L159.58552500000002,70.61170764700786L159.82312499999998,13.975075125314106L160.060725,12.305084442864157L160.298325,50.29957288251535L160.535925,105.984516678728L160.773525,129.9135994623963L161.01112500000002,175.68703067963503L161.24872499999998,96.28244494993598L161.486325,129.00422165949612L161.723925,97.59239073292099L161.961525,87.5613970658919L162.199125,72.70583975524153L162.43672500000002,59.147884854935256L162.67432499999998,18.913766516802223L162.911925,23.253111187750658L163.14952499999998,69.3870283032265L163.387125,68.20224795727766L163.624725,84.38808512283669L163.862325,49.307085591117364L164.09992499999998,71.16665059580001L164.337525,127.59581021221634L164.57512499999999,135.34527782451403L164.812725,153.70477309933082L165.05032500000002,102.28360502984594L165.287925,49.4501872285195L165.52552500000002,94.35796405219962L165.763125,61.17241799837705L166.000725,-13.887920864385254L166.238325,-21.410743749913596L166.47592500000002,29.416661049856597L166.713525,-5.290286573211009L166.95112500000002,31.16100541406496L167.18872499999998,68.76754466486149L167.426325,100.91920828695403L167.663925,110.6211760036665L167.901525,101.2883161063503L168.139125,90.21895854605305L168.37672500000002,133.11241557359543L168.61432499999998,179.5551466911625L168.851925,110.61214685258807L169.089525,99.4126056978159L169.327125,94.52983397736465L169.564725,133.4815193642834L169.80232500000002,85.50507728832916L170.03992499999998,99.47508133596948L170.277525,98.50443382151984L170.515125,163.24358105910653L170.752725,145.7711300706039L170.990325,91.92161816687405L171.227925,119.57057699957099L171.46552499999999,100.72254614074191L171.703125,97.75755163057143L171.940725,100.22345620010398L172.178325,93.37839567033907L172.41592500000002,128.17647994777636L172.653525,62.05337738923869L172.891125,18.752663945750275L173.128725,54.16516470249242L173.366325,77.71304637195121L173.603925,92.897265231618L173.84152500000002,109.7262189920795L174.079125,121.48551700926136L174.316725,70.0715790654201L174.55432499999998,114.5615751146264L174.791925,120.14194944296204L175.029525,68.00245177026939L175.267125,7.767586886543147L175.504725,98.36360923031455L175.74232500000002,48.42191462266141L175.97992499999998,47.7045825911424L176.217525,35.00142234521276L176.455125,94.10336525812049L176.692725,102.02016938273687L176.930325,46.70406380819024L177.16792500000003,101.59418511108599L177.40552499999998,75.04214288224405L177.643125,74.78612353859127L177.880725,66.59913053388065L178.118325,134.34993547364874L178.355925,130.71052153606098L178.59352499999997,104.81318425952719L178.831125,114.75715341460305L179.068725,130.66048915162645L179.306325,114.12718719825125L179.543925,138.11089967043193L179.78152500000002,148.27925774862956L180.019125,75.62590476717907L180.256725,122.58745056497868L180.494325,131.326784710732L180.731925,134.65852988202187L180.969525,139.06030373040124L181.20712500000002,123.03959613798035L181.444725,117.9530466740805L181.682325,92.26026311390464L181.919925,107.4431906950843L182.157525,123.4012301213963L182.395125,127.01384522005459L182.632725,67.25408604235179L182.870325,101.3948458820029L183.107925,161.7747928136255L183.34552499999998,171.7829944829344L183.583125,143.15254357696767L183.820725,145.83139151279846L184.058325,167.6249119238737L184.295925,152.07727055927214L184.533525,145.3397336632814L184.77112499999998,129.34493109966152L185.008725,167.0521206064115L185.246325,153.2669931890422L185.483925,118.39875767083093L185.721525,180.10180851688656L185.95912500000003,190.05640473090017L186.196725,115.68397508137863L186.434325,56.61237733805247L186.671925,139.4665973419591L186.909525,169.04894440777966L187.14712500000002,119.26098590736306L187.38472499999997,123.18654302146858L187.622325,129.47123443714872L187.859925,81.47410164454836L188.097525,103.13365379678764L188.335125,138.2021545074834L188.57272500000002,142.42944929018338L188.81032499999998,87.58908538628451L189.047925,131.1159268177082L189.285525,143.22229250013012L189.523125,67.16427658243481L189.760725,81.49440487768355L189.99832500000002,56.376764284845784L190.235925,108.53038825230395L190.473525,96.86456804456266L190.71112499999998,122.64097313671483L190.948725,156.22557611021904L191.186325,142.6133562252134L191.423925,160.23157625547313L191.661525,168.39621046275656L191.899125,170.9342767740732L192.13672499999998,105.56323177489313L192.374325,142.38346874836688L192.611925,142.12695421451494L192.849525,79.13469049338995L193.08712500000001,140.2026536921928L193.324725,128.04901098769523L193.562325,117.56156220174799L193.799925,122.34478186450586L194.03752500000002,156.3117000513207L194.275125,145.9427283437807L194.51272500000002,93.36978841414602L194.75032499999998,109.51562050535615L194.987925,127.79421752822996L195.225525,153.7218435255643L195.463125,149.00866255251304L195.700725,170.24200656267647L195.93832500000002,86.45073219688325L196.17592499999998,21.77674221526539L196.413525,45.6780636600512L196.651125,23.960009989650505L196.888725,52.35475024631308L197.126325,88.24630885750467L197.36392500000002,116.59929288286217L197.60152499999998,160.50980232273483L197.839125,121.22831588257318L198.07672499999998,93.62282988192024L198.314325,119.98728384630712L198.551925,86.41297704810002L198.789525,76.73650566041928L199.02712499999998,134.30774354517737L199.264725,135.00855105467804L199.50232499999998,160.05931789883877L199.739925,82.37266501908842L199.977525,63.50471447979609L200.215125,73.47208451673505L200.45272500000002,137.99315951334506L200.690325,114.89776185790937L200.927925,111.47658639534451L201.165525,61.01392018030564L201.40312500000002,37.77507014610656L201.640725,110.45348482651491L201.87832500000002,133.18746209138422L202.11592499999998,136.45012272195294L202.353525,164.78489754674604L202.591125,143.37692989157307L202.828725,34.69899678178622L203.066325,58.05389030743436L203.30392500000002,59.06162190418718L203.54152499999998,64.71742765097586L203.779125,98.14699101441363L204.016725,101.24087862964426L204.254325,105.50708007492193L204.491925,137.86214904592973L204.72952500000002,111.91322372321213L204.96712499999998,114.80157955863429L205.204725,76.30390204019365L205.442325,149.02435884293126L205.679925,125.96554863502311L205.917525,119.8918528321369L206.155125,84.6468586780419L206.39272499999998,130.12335131115458L206.630325,119.49859295018557L206.86792499999999,60.40351622339909L207.105525,56.436918948313554L207.34312500000001,76.95170520199596L207.580725,10.537223377545317L207.818325,91.99340514265671L208.055925,100.74598586513505L208.293525,185.32166709077703L208.531125,106.88113400283859L208.76872500000002,92.17410149341868L209.006325,132.97591068446263L209.243925,55.363031050163286L209.481525,51.63203168348341L209.719125,79.7517030900868L209.956725,81.8179593642246L210.194325,84.05767142135056L210.431925,136.79912082766384L210.66952500000002,134.8238063995931L210.90712499999998,132.60174843936525L211.144725,135.97606294911716L211.382325,107.87775584198002L211.619925,105.38491207045487L211.857525,110.22279014795332L212.09512500000002,82.2770497398137L212.33272499999998,150.70844074069817L212.570325,121.49001627750813L212.807925,151.12943279100037L213.045525,139.85562471162822L213.283125,160.4798499958409L213.52072500000003,158.61912871698692L213.75832499999999,159.55710879147145L213.995925,88.47978122540368L214.233525,90.04461312000784L214.471125,26.54171894215438L214.70872500000002,22.43646375868458L214.946325,69.02483296712477L215.183925,62.5250870564793L215.421525,81.60433929239994L215.659125,149.99725272501678L215.896725,100.40328047819045L216.13432500000002,73.47251002478863L216.371925,88.22014719936207L216.609525,80.93981816784321L216.847125,65.09114106346635L217.084725,34.61861133485719L217.322325,111.19919694210897L217.55992500000002,137.50737954425304L217.797525,159.55022087840734L218.035125,154.949648009629L218.27272499999998,169.810500780875L218.510325,136.289523124775L218.747925,147.09202365880057L218.985525,168.04462078097376L219.223125,155.81703634390973L219.460725,140.72765797374493L219.69832499999998,145.41467985708226L219.935925,84.4616664957923L220.173525,60.327098570978L220.411125,48.94518721265514L220.648725,67.87784027355657L220.88632500000003,87.29597601471984L221.12392499999999,123.16585210866913L221.361525,116.5814535055986L221.599125,116.11221286263651L221.836725,50.08855727080454L222.07432500000002,96.63393575408432L222.31192499999997,98.06118776674099L222.549525,124.61178869967678L222.787125,89.19630753377086L223.024725,109.09428827392456L223.262325,84.27029519335868L223.49992500000002,56.95768492851518L223.73752499999998,126.8225683138799L223.975125,82.65364790157663L224.212725,51.6986971231074L224.450325,55.850020428405486L224.687925,25.89848169877502L224.92552500000002,45.77315299428131L225.163125,65.14019082814431L225.400725,56.88128348288919L225.63832499999998,62.048003539033594L225.875925,57.074817290656526L226.113525,106.80802132532166L226.351125,170.7380830080022L226.588725,216.8798569459146L226.826325,173.7442901542838L227.06392499999998,144.66468602087434L227.301525,147.26252824663916L227.539125,109.18042852838714L227.776725,123.11726717766057L228.014325,104.14888254373821L228.251925,101.71030934395122L228.489525,58.70469309334985L228.727125,35.150764362683105L228.96472500000002,92.22138233383714L229.202325,111.48065858324495L229.43992500000002,80.26287482523999L229.67752499999997,104.66443113293693L229.915125,93.11493217829731L230.152725,138.58791479200445L230.390325,173.85717646716233L230.627925,170.17756322486116L230.86552500000002,130.19049052077284L231.10312499999998,193.0816046457157L231.340725,144.49444287979594L231.578325,146.93854118564118L231.815925,132.12406348295048L232.053525,133.1083070065997L232.29112500000002,161.8234978453172L232.52872499999998,139.06233804638305L232.766325,115.82186327704855L233.003925,158.9710196792825L233.241525,169.4141107801444L233.479125,145.56607231322013L233.716725,141.56906029873937L233.95432499999998,170.903158998254L234.191925,140.61401250507228L234.42952499999998,113.03669439879532L234.667125,143.61231026924142L234.904725,117.65595936304226L235.142325,178.72775759414372L235.37992500000001,100.11378976970241L235.617525,69.54616616528824L235.855125,92.25300665514627L236.092725,85.97700464616392L236.33032500000002,123.63277464642228L236.567925,91.4188323191848L236.80552500000002,125.75447016787807L237.043125,114.85677654245863L237.280725,87.1653003615103L237.518325,90.08625729413603L237.755925,57.87246411362353L237.993525,87.6701027154072L238.23112500000002,120.72878917847933L238.46872499999998,147.74953953898859L238.706325,163.46682704574013L238.943925,147.08562982729757L239.181525,106.45719378382971L239.419125,54.82040544266118L239.65672500000002,72.89369590231544L239.89432499999998,100.20227665393811L240.131925,51.111688359713135L240.369525,43.487227350951606L240.607125,73.5873994293698L240.844725,59.95678917544416L241.08232500000003,58.85208813335897L241.31992499999998,-14.284241708200742L241.557525,66.27010032013162L241.79512499999998,74.12982727175019L242.032725,133.09352085442382L242.270325,52.17642552128058L242.507925,9.512484239363323L242.745525,36.59537455647607L242.983125,75.39113434081924L243.220725,106.72573869978783L243.458325,142.71124761236945L243.69592500000002,160.4742359534894L243.933525,158.10641835228566L244.171125,150.02996734437923L244.408725,102.4393757720247L244.646325,75.99305966731639L244.883925,115.3753813936515L245.12152500000002,87.48627619947212L245.359125,87.6687241852595L245.596725,79.34824327987312L245.83432499999998,103.28968581574287L246.071925,104.68216160744706L246.309525,117.3231837340809L246.547125,191.7216329170436L246.784725,148.6749053076806L247.02232500000002,134.77974838073465L247.25992499999998,95.07272141410166L247.497525,85.10749444107164L247.735125,47.551948853770604L247.972725,74.19456093416994L248.210325,91.81758164310288L248.44792500000003,65.71721397406162L248.68552499999998,99.17755128482759L248.923125,108.43933767600723L249.16072499999999,153.39765310202355L249.398325,105.3611260409016L249.63592500000001,82.80567912388992L249.873525,91.34036395626751L250.111125,127.83718447890378L250.348725,93.65096155607597L250.586325,99.16243565760388L250.823925,86.46416569957537L251.06152500000002,107.38911851968017L251.299125,153.4928379737873L251.536725,100.55070995590324L251.774325,88.98055745344105L252.011925,52.29747906434978L252.249525,126.49792204961248L252.48712500000002,100.57076301573748L252.724725,87.86686347960853L252.962325,138.13375741068177L253.19992499999998,141.763669668577L253.437525,60.31492075459675L253.675125,122.19661897700938L253.912725,89.46106195220499L254.150325,121.1476241097996L254.387925,118.83101399021247L254.62552499999998,98.50260848568023L254.863125,99.75260650376165L255.100725,133.32010994310983L255.338325,124.92107851876303" style="fill: none;" fill="none"></path></g></g></g></g><g opacity="0.2"><g><g><g><path stroke="rgb(255, 112, 67)" stroke-width="2px" d="M23.915925,225.13079516092938L24.153525,152.5469430287679L24.391125,-54.141700744628906L24.628725,19.158390045166023L24.866325000000003,125.53551038106283L25.103925,149.44232940673828L25.341525,43.36102231343586L25.579125,53.14532852172852L25.816724999999998,1.7585995992024783L26.054325,22.58650016784668L26.291925000000003,206.79348754882812L26.529525,137.68039576212567L26.767125,-45.5779711405436L27.004725,49.90766270955403L27.242324999999997,103.3237845102946L27.479924999999998,100.7422644297282L27.717525000000002,61.83944702148437L27.955125000000002,-30.92647552490233L28.192725,127.97302500406902L28.430325,89.31301752726237L28.667925,52.75690015157064L28.905524999999997,215.12479782104492L29.143125,45.00172424316407L29.380725,134.59892654418945L29.618325,32.765649159749344L29.855925,137.05013275146484L30.093525,57.236411412556954L30.331124999999997,178.98261642456055L30.568725,-8.075033823649084L30.806325,140.951296488444L31.043925,128.15833028157553L31.281525,21.66631317138671L31.519125,183.06623458862305L31.756725000000003,176.9703286488851L31.994325,163.2029717763265L32.231925000000004,94.94352213541667L32.469525,17.719760894775384L32.707125,93.88484382629396L32.944725,86.80666987101237L33.182325,108.62377802530925L33.419925,216.82450485229492L33.657525,7.239209493001306L33.895125,173.01848729451498L34.132725,227.87530136108398L34.370325,7.203948974609381L34.607925,53.328533172607415L34.845524999999995,26.270924250284832L35.083125,5.822411855061847L35.320725,143.0381565093994L35.558324999999996,11.258983612060547L35.795925000000004,47.43526268005371L36.033525,14.8086675008138L36.271125,-32.419420878092446L36.508725,101.00341733296713L36.746325,-30.392541249593105L36.983925,-11.35261154174806L37.221525,83.08859825134277L37.459125,61.29692268371581L37.696724999999994,63.46852048238117L37.934325,-47.08367029825845L38.171925,154.86299641927084L38.409525,190.7664566040039L38.884724999999996,-46.282131195068374L39.122325000000004,93.6356569925944L39.359925000000004,132.99007161458334L39.597525,90.20814704895018L39.835125000000005,-87.57617441813149L40.072725,57.78966395060222L40.310325,103.90933418273924L40.547925,141.0396353403727L40.785525,112.09127489725749L41.023125,49.89397112528483L41.260725,78.89289665222168L41.498325,112.39504051208496L41.735924999999995,111.8094908396403L41.973525,-23.759887695312486L42.211125,-39.292446136474624L42.448724999999996,158.64179865519205L42.686325000000004,178.63620058695474L42.923925,158.68366114298502L43.161525,23.42382494608562L43.399125,39.78252983093262L43.636725,160.27372296651205L43.874325000000006,58.370862325032554L44.111925,-8.564029693603528L44.349525,100.90858904520671L44.587125,-94.58446502685545L44.824725,212.3571097056071L45.062325,87.1860580444336L45.299925,31.4373779296875L45.537525,128.32165400187174L45.775124999999996,168.52400906880698L46.012725,130.73448626200357L46.250325000000004,203.9374230702718L46.487925,166.6757577260335L46.725525000000005,116.4053243001302L46.963125,42.15991401672363L47.200725,13.937507629394531L47.438325,200.45627212524414L47.675925,178.8239065806071L47.913525,43.93321800231934L48.151125,230.58057085673013L48.388725,69.79590797424316L48.626324999999994,-100.282039642334L49.339124999999996,257.07768758138025L49.576725,136.4499537150065L49.814325,19.13483301798502L50.051925000000004,75.51748975118001L50.289525,-26.49715423583983L50.527125,-2.172648111979149L50.764725000000006,68.80992635091145L51.002325,144.33694394429526L51.239925,136.8339932759603L51.477525,155.2454980214437L51.715125,-91.97136052449547L51.952725,136.66815630594888L52.190325,137.0654748280843L52.427925,10.874869028727222L52.665524999999995,34.994151433308915L52.903125,235.5238329569499L53.140725,23.55042521158855L53.378325,121.91076660156251L53.615925000000004,0.8328984578450565L53.853525,-58.84680430094401L54.091125,112.67172304789226L54.328725,-4.966556549072279L54.566325,51.27378273010254L54.803925,50.328538258870445L55.041525,125.80862935384116L55.279125,92.30445988972983L55.516724999999994,49.873039881388344L55.754325,-13.093055725097644L55.991925,147.45127296447754L56.229525,-37.95007069905599L56.467125,127.10812950134279L56.704724999999996,59.582023620605476L56.942325000000004,162.76105244954428L57.179925,73.9722162882487L57.417525,250.31126912434894L57.655125000000005,61.02279090881347L57.892725,8.970726013183594L58.130325,127.6124299367269L58.367925,72.28518803914388L58.605525,15.838199615478516L58.843125,98.26870155334471L59.080725,-50.15681203206382L59.318325,105.54898579915364L59.555924999999995,140.52970822652182L59.793525,48.41359202067057L60.031125,130.5969327290853L60.268724999999996,16.55916468302409L60.506325000000004,69.47038586934407L60.743925,81.65210723876953L60.981525,149.48914337158203L61.219125,-43.05969492594402L61.456725,168.24965222676593L61.694325000000006,40.62443097432453L61.931925,159.51254590352374L62.169525,196.9437993367513L62.407125,107.36141395568848L62.644725,0.7141380310058528L62.882325,239.28815587361655L63.595124999999996,-32.87458165486654L63.832725,113.19991811116537L64.070325,97.53978411356609L64.307925,58.108396530151374L64.545525,11.934335072835283L64.783125,0.8933664957682379L65.020725,-32.952679951985694L65.258325,53.49016888936361L65.495925,100.08214251200359L65.733525,52.101654688517264L65.971125,99.51801172892253L66.208725,-16.59967676798501L66.446325,236.20859972635904L66.683925,20.38568115234375L66.921525,27.523722966512043L67.159125,84.43551254272461L67.396725,68.31076494852701L67.634325,112.74884605407715L67.871925,188.75221824645996L68.584725,-9.575331370035803L68.82232499999999,162.69855880737305L69.059925,121.32953071594237L69.297525,121.45864423116049L69.535125,86.71341705322266L69.77272500000001,-10.08998489379884L70.010325,85.80508359273274L70.247925,-4.645010630289709L70.48552500000001,88.55094019571939L70.723125,-35.60944747924805L70.960725,92.1606419881185L71.19832500000001,246.32037862141928L71.435925,107.64045969645183L71.673525,106.3040860493978L71.911125,128.9351870218913L72.148725,-45.14629236857096L72.386325,101.55895805358885L72.623925,64.92868105570474L72.861525,51.34933026631672L73.099125,138.69361050923666L73.336725,48.732399622599296L73.57432499999999,108.09603309631348L73.811925,102.28750038146971L74.049525,-34.39618555704754L74.28712499999999,87.6388931274414L74.524725,27.478521982828777L74.762325,57.58481534322102L74.99992499999999,156.27386728922525L75.237525,108.93812179565431L75.475125,49.30114428202311L75.71272499999999,80.37567647298178L75.95032499999999,5.708152770996094L76.187925,142.60591506958008L76.42552500000001,61.40758069356283L76.663125,139.41930198669434L76.90072500000001,164.25876172383627L77.13832500000001,199.763703028361L77.375925,68.29084650675455L77.613525,223.8303197224935L77.85112500000001,155.79034805297852L78.088725,-60.739543914794936L78.326325,17.382685343424473L78.56392500000001,10.457069396972663L78.801525,73.98797098795573L79.039125,-125.57726033528645L79.276725,57.985097249348954L79.514325,114.73933982849121L79.751925,-58.45166142781577L79.989525,13.488573710123706L80.227125,30.974489847819004L80.464725,137.434960047404L80.702325,22.03774897257487L80.939925,112.25219790140787L81.177525,-44.394493103027344L81.415125,76.68371264139812L81.65272499999999,105.58852259318034L81.890325,159.4845250447591L82.127925,168.2421499888102L82.36552499999999,72.93900807698569L82.603125,46.513312657674156L82.840725,42.443498611450195L83.07832499999999,25.837707519531243L83.315925,154.85676956176758L83.55352500000001,72.4117883046468L83.791125,141.8145039876302L84.028725,56.96891911824544L84.26632500000001,8.888576507568366L84.503925,101.31104660034181L84.741525,109.23247210184734L84.97912500000001,-92.95640436808269L85.216725,-91.09847513834634L85.454325,27.700663248697918L85.691925,194.86541684468585L85.929525,53.12856101989746L86.167125,134.48369216918945L86.404725,97.8596420288086L86.642325,145.26905949910483L86.879925,165.68099848429364L87.117525,114.23143831888835L87.35512499999999,134.96147219340006L87.592725,36.51309204101563L87.830325,125.54567591349284L88.06792499999999,-45.959159851074205L88.305525,156.7023951212565L88.543125,209.51995086669922L88.780725,-17.17577362060547L89.01832499999999,60.03088251749676L89.255925,131.39216995239258L89.493525,57.115587870279946L89.73112499999999,46.24612045288087L89.968725,179.5367317199707L90.206325,83.8747952779134L90.443925,-41.29344304402671L90.68152500000001,29.879200617472332L90.91912500000001,97.40219306945801L91.156725,97.78296915690103L91.394325,190.79530270894367L91.63192500000001,40.04870923360188L91.869525,6.7710698445638L92.107125,-6.462502797444679L92.34472500000001,119.18902969360353L92.582325,32.51409912109374L92.819925,102.8612715403239L93.057525,83.02722994486491L93.295125,199.94109344482422L93.532725,202.05901273091632L93.770325,112.17552502950032L94.007925,197.12066459655762L94.245525,-29.122037251790356L94.483125,94.58866628011069L94.720725,26.215482711791985L94.958325,96.77211761474608L95.195925,-33.129807790120445L95.43352499999999,143.17972373962402L95.671125,52.587649663289376L95.908725,3.8232154846191473L96.14632499999999,106.45409329732259L96.383925,105.40164184570312L96.621525,52.240408579508475L96.85912499999999,29.972490946451817L97.09672499999999,16.27520497639974L97.334325,172.57536760965982L97.571925,70.38787206013997L97.809525,110.15460968017577L98.04712500000001,132.1803175608317L98.284725,79.11976432800293L98.522325,113.23630396525064L98.75992500000001,187.67182095845538L98.997525,128.16436958312988L99.235125,188.84783426920575L99.472725,89.22032737731932L99.71032500000001,78.60079701741536L99.947925,50.80901908874511L100.185525,47.15164057413737L100.42312500000001,41.680971145629876L100.660725,81.45070966084798L100.898325,170.88747660319012L101.13592499999999,147.6556339263916L101.373525,114.86470222473146L101.611125,79.4553394317627L101.848725,-2.920096079508446L102.086325,122.1113764444987L102.323925,257.3469429016113L102.561525,-151.81806310017905L102.79912499999999,7.537273406982422L103.036725,14.02925999959309L103.274325,-75.1863784790039L103.51192499999999,110.90749677022298L103.749525,143.27856572469076L103.987125,25.606376012166347L104.22472499999999,135.89238739013672L104.462325,62.2272752126058L104.69992500000001,38.12746111551921L104.937525,162.581636428833L105.175125,135.53040440877277L105.41272500000001,124.22944577534993L105.650325,-92.03985595703126L105.887925,85.47250938415527L106.12552500000001,136.7955067952474L106.363125,132.45955085754395L106.600725,99.32779248555501L106.838325,-129.90365091959634L107.075925,79.2271588643392L107.313525,76.64237531026204L107.551125,-4.0105463663736804L107.788725,103.99936103820802L108.026325,143.55243492126465L108.263925,-189.8156979878743L108.501525,-26.887570699055996L108.739125,11.875817616780603L108.976725,82.39880498250325L109.21432499999999,281.54353586832684L109.451925,24.541320800781243L109.689525,42.27409807840984L109.92712499999999,62.07377942403157L110.164725,19.501617431640618L110.402325,59.45133463541667L110.63992499999999,158.46579615275067L110.87752499999999,124.85640780131023L111.115125,184.02044423421225L111.35272499999999,96.00523885091147L111.59032499999999,47.51253573099772L111.82792500000001,37.87774912516276L112.06552500000001,130.74303881327313L112.303125,43.171665827433266L112.54072500000001,66.15597216288249L112.77832500000001,86.05610847473145L113.015925,83.19734319051108L113.253525,95.49129803975423L113.49112500000001,-4.38925933837892L113.728725,110.2766710917155L113.966325,32.338246663411454L114.20392500000001,22.951333999633796L114.441525,131.0678857167562L114.679125,168.68283144632974L114.916725,195.5546474456787L115.154325,23.74559593200683L115.391925,112.0248425801595L115.629525,57.29072761535645L115.867125,-93.92239252726235L116.342325,-150.73158899943033L116.57992499999999,41.255294164021805L116.817525,38.33763631184896L117.055125,120.32295544942221L117.29272499999999,61.906667073567704L117.530325,169.7096627553304L117.767925,132.9131736755371L118.00552499999999,168.9160010019938L118.243125,139.24116134643555L118.480725,98.7608108520508L118.718325,-63.91576639811196L119.19352500000001,184.19258308410645L119.431125,84.88039525349934L119.668725,136.40163930257162L119.90632500000001,-70.02596410115562L120.381525,195.90357653299967L120.619125,76.58145713806152L120.856725,36.758040110270194L121.094325,118.4040330251058L121.331925,18.226312001546216L121.569525,121.87989489237467L121.807125,61.51411247253419L122.044725,-90.9082934061686L122.28232500000001,108.69369888305665L122.519925,146.1860205332438L122.757525,182.2503662109375L122.99512499999999,-205.6214129130046L123.232725,88.63327725728352L123.470325,153.01260693868002L123.70792499999999,67.45232137044272L123.945525,51.62698809305828L124.183125,229.07427151997885L124.420725,177.3063538869222L124.65832499999999,67.43420346577962L124.895925,41.650362014770515L125.133525,9.684713999430334L125.37112499999999,99.55199686686197L125.608725,-15.860781351725256L125.84632500000001,96.41729927062987L126.083925,57.390807469685875L126.32152500000001,94.43168195088705L126.55912500000001,173.63588396708172L126.796725,-27.29269154866537L127.034325,-77.2185846964518L127.27192500000001,124.59210395812987L127.509525,141.5361334482829L127.747125,9.097063700358081L127.98472500000001,39.18576431274413L128.222325,88.28926213582356L128.459925,6.5634078979492125L128.69752499999998,129.7020657857259L128.935125,89.28675969441731L129.17272499999999,5.1478856404622375L129.410325,-15.761151631673169L129.64792500000001,92.48638916015625L129.885525,120.57761891682942L130.123125,-6.594092051188159L130.360725,-51.677365620931006L130.59832500000002,31.349751790364582L130.835925,173.49337895711264L131.073525,45.14951833089192L131.311125,66.94003105163574L131.548725,32.075818379720054L131.786325,109.39969698588054L132.02392500000002,149.21557426452637L132.261525,23.431627273559563L132.499125,-31.559289296468105L132.736725,30.042261759440105L132.974325,126.8236821492513L133.211925,66.39146741231282L133.449525,-46.61433029174806L133.687125,88.1845308939616L133.924725,-5.229660034179674L134.162325,37.2800833384196L134.399925,106.31593958536784L134.637525,71.24245198567708L134.875125,-61.86870574951172L135.11272499999998,253.16136932373047L135.350325,136.7222849527995L135.587925,54.680436452229806L135.825525,64.41158930460612L136.063125,137.39230982462564L136.300725,36.71914100646973L136.538325,235.8390769958496L137.251125,261.8784821828206L137.488725,149.18065134684244L137.726325,79.01060676574707L137.963925,-6.4979133605957164L138.201525,155.17981592814127L138.439125,-14.224393208821606L138.676725,90.60145187377928L138.914325,7.631351470947272L139.151925,-14.585100809733081L139.389525,116.43780899047852L139.62712499999998,172.73906644185382L139.864725,229.75742530822754L140.102325,138.5837027231852L140.339925,179.97261174519858L140.577525,83.79144541422525L140.81512500000002,208.70310719807944L141.05272499999998,70.09794807434082L141.290325,-154.6329027811686L141.527925,23.021930058797192L141.765525,141.4197737375895L142.003125,-172.69859186808267L142.47832499999998,203.1786092122396L142.715925,130.99942779541016L142.953525,40.627244313557945L143.191125,114.03334172566731L143.42872500000001,18.937149047851555L143.66632499999997,53.50382296244304L143.903925,-12.948862711588525L144.141525,155.10681915283203L144.379125,62.298321406046554L144.616725,144.35888799031576L144.85432500000002,9.087310791015618L145.091925,56.986061731974296L145.329525,65.27007039388022L145.567125,149.6348368326823L145.804725,103.5770975748698L146.042325,194.7836799621582L146.517525,-59.59807840983074L146.755125,63.85893694559734L146.99272499999998,133.73560651143393L147.230325,204.55977121988934L147.467925,59.57658449808757L147.705525,77.42733446756998L147.943125,225.59889729817706L148.41832499999998,288.32349586486816L148.655925,22.478392918904614L148.893525,116.1523863474528L149.131125,176.68280537923178L149.368725,85.14038530985515L149.606325,100.139347076416L149.84392499999998,208.60246467590332L150.081525,50.296091079711914L150.319125,266.02016766866046L150.556725,131.750851949056L150.79432500000001,20.83660316467286L151.03192499999997,129.1677563985189L151.269525,68.19699350992838L151.507125,39.806086858113595L151.744725,99.78074010213216L151.982325,-3.6397107442220094L152.21992500000002,172.99463017781574L152.45752499999998,125.86106999715169L152.695125,-69.1673329671224L152.932725,42.62689081827801L153.170325,75.12339719136556L153.407925,-128.1386744181315L153.64552500000002,168.5313237508138L153.88312499999998,53.33119646708172L154.120725,126.32748413085938L154.358325,151.90797742207846L154.595925,64.1163387298584L154.833525,73.85514386494954L155.071125,-93.36325073242189L155.546325,-101.69411087036133L155.78392499999998,79.49900245666504L156.021525,212.5480791727702L156.259125,109.8910935719808L156.496725,-24.252184549967442L156.734325,145.478822072347L156.971925,32.90170224507649L157.20952499999999,210.2904307047526L157.447125,173.32386589050293L157.68472500000001,52.19955889383953L157.922325,157.65004030863443L158.15992500000002,42.22360801696778L158.397525,75.37809816996256L158.635125,-31.939502716064467L159.347925,178.16738573710123L159.58552500000002,21.87933921813964L159.82312499999998,-70.97987365722656L160.060725,9.80009841918946L160.298325,107.2913055419922L160.535925,189.51193237304688L160.773525,165.80722363789877L161.01112500000002,244.34717750549316L161.486325,178.08688672383627L161.723925,50.474644343058266L161.961525,72.5149065653483L162.199125,50.422503789265946L162.43672500000002,38.810952504475914L162.67432499999998,-41.43741099039713L162.911925,29.76212819417317L163.14952499999998,138.58790397644043L163.387125,66.42507743835449L163.624725,108.66684087117513L163.862325,-3.314413706461571L164.09992499999998,103.95599810282388L164.337525,212.23954963684082L164.57512499999999,146.96947924296063L164.812725,181.244016011556L165.05032500000002,25.15185292561848L165.287925,-29.799939473470044L165.52552500000002,161.71962928771973L165.763125,11.394098917643237L166.000725,-126.47842915852866L166.238325,-32.69497807820638L166.47592500000002,105.6577682495117L166.713525,-57.350708007812514L166.95112500000002,85.83794339497884L167.18872499999998,125.17735354105632L167.426325,149.14670372009277L167.663925,125.17412757873534L167.901525,87.28902626037598L168.139125,73.6149222056071L168.37672500000002,197.45260111490887L168.61432499999998,249.21924336751303L168.851925,7.1976470947265625L169.089525,82.61329396565756L169.327125,87.20567639668783L169.564725,191.90904744466144L169.80232500000002,13.540414174397778L170.03992499999998,120.43008740743001L170.277525,97.04846254984538L170.515125,260.35230191548663L170.752725,119.56245358784993L170.990325,11.14735031127929L171.227925,161.04401524861655L171.46552499999999,72.45049985249838L171.703125,93.31005986531575L171.940725,103.92231305440268L172.178325,83.11080487569173L172.41592500000002,180.37360636393228L172.891125,-46.198406219482436L173.128725,107.28391583760579L173.366325,113.03486887613933L173.603925,115.67359352111818L173.84152500000002,134.9696496327718L174.079125,139.12446403503418L174.316725,-7.0493278503417836L174.55432499999998,181.29656918843585L174.791925,128.5125109354655L175.029525,-10.206794738769544L175.74232500000002,-26.490627288818374L175.97992499999998,46.62858454386394L176.217525,15.946681976318352L176.455125,182.7562796274821L176.692725,113.89537556966147L176.930325,-36.270094553629555L177.16792500000003,183.9293670654297L177.40552499999998,35.21407953898112L177.643125,74.40209452311197L177.880725,54.31864102681478L178.118325,235.97614288330078L178.355925,125.25140062967937L178.59352499999997,65.96717834472656L178.831125,129.6731071472168L179.068725,154.51549275716147L179.306325,89.32723426818849L179.543925,174.0864683787028L179.78152500000002,163.53179486592612L180.019125,-33.35412470499673L180.256725,193.02976926167807L180.494325,144.435785929362L180.731925,139.6561476389567L180.969525,145.6629645029704L181.20712500000002,99.00853474934897L181.444725,110.3232224782308L181.682325,53.72108777364095L181.919925,130.21758206685382L182.157525,147.33828926086426L182.395125,132.432767868042L182.632725,-22.385552724202466L182.870325,152.6059856414795L183.107925,252.34471321105957L183.34552499999998,186.7952969868978L183.583125,100.20686721801756L183.820725,149.8496634165446L184.058325,200.31519254048666L184.295925,128.75580851236978L184.533525,135.23342831929526L184.77112499999998,105.35272725423178L185.008725,223.61290486653647L185.246325,132.58930206298828L185.483925,66.09640439351399L185.721525,272.65638478597003L185.95912500000003,204.98829905192056L186.196725,4.125330607096356L186.434325,-31.99501927693684L186.909525,213.42246500651044L187.14712500000002,44.57904815673829L187.38472499999997,129.07487869262695L187.622325,138.89827156066895L187.859925,9.478402455647778L188.097525,135.62298202514648L188.335125,190.80490557352704L188.57272500000002,148.7703914642334L188.81032499999998,5.3285395304362L189.047925,196.40618896484375L189.285525,161.381841023763L189.523125,-46.92274729410807L189.760725,102.98959732055665L189.99832500000002,18.700303395589184L190.235925,186.7608242034912L190.473525,79.36583773295084L190.71112499999998,161.30558077494302L190.948725,206.60248057047525L191.186325,122.19502639770509L191.423925,186.65890630086264L191.661525,180.64316177368164L191.899125,174.74137624104816L192.13672499999998,7.506664276123041L192.374325,197.61382420857746L192.611925,141.74218241373697L192.849525,-15.353705088297522L193.08712500000001,231.80459849039713L193.324725,109.8185469309489L193.562325,101.83038902282713L193.799925,129.51961135864258L194.03752500000002,207.26207733154297L194.275125,130.3892707824707L194.51272500000002,14.510378519694006L194.75032499999998,133.7343686421712L194.987925,155.21211306254068L195.225525,192.61328252156574L195.463125,141.93889109293622L195.700725,202.09202257792154L196.17592499999998,-75.23424275716145L196.413525,81.53004582722981L196.651125,-8.617070515950537L196.888725,94.94686063130698L197.126325,142.083646774292L197.36392500000002,159.12876892089844L197.60152499999998,226.37556648254395L197.839125,62.306086222330734L198.07672499999998,52.21460088094074L198.314325,159.5339647928874L198.551925,36.05151685078938L198.789525,62.22179857889811L199.02712499999998,220.66460037231445L199.264725,136.05976231892902L199.50232499999998,197.63546816507974L199.739925,-34.157314300537095L199.977525,35.20278867085774L200.215125,88.42313957214355L200.45272500000002,234.7747720082601L200.690325,80.25466537475586L200.927925,106.34482320149739L201.165525,-14.680079142252588L201.40312500000002,2.916795094807934L201.640725,219.47110684712726L201.87832500000002,167.28842798868814L202.11592499999998,141.344113667806L202.353525,207.28705978393555L202.591125,111.26497840881346L202.828725,-128.31790288289386L203.066325,93.08623059590657L203.30392500000002,60.57321929931641L203.54152499999998,73.20113627115886L203.779125,148.2913360595703L204.016725,105.88171005249023L204.254325,111.90638224283855L204.491925,186.3947525024414L204.72952500000002,72.98983573913574L204.96712499999998,119.13411331176756L205.204725,18.55738576253255L205.442325,258.1050440470377L205.679925,91.3773333231608L205.917525,110.78130912780762L206.155125,31.779367446899414L206.39272499999998,198.33809026082358L206.630325,103.5614554087321L206.86792499999999,-28.239098866780616L207.105525,50.487023035685226L207.34312500000001,107.72388458251952L207.580725,-89.08449935913087L207.818325,214.1776777903239L208.055925,113.87485694885255L208.293525,312.1851889292399L208.531125,-10.779665629069019L208.76872500000002,70.11355272928873L209.006325,194.17862447102866L209.243925,-61.05628840128579L209.481525,46.03553263346354L209.719125,121.93121019999185L209.956725,84.9173437754313L210.194325,87.41723950703938L210.431925,215.9112949371338L210.66952500000002,131.860834757487L210.90712499999998,129.26866149902344L211.144725,141.03753471374512L211.382325,65.73029518127441L211.619925,101.64564641316731L211.857525,117.47960726420084L212.09512500000002,40.358439127604164L212.33272499999998,253.35552724202475L212.570325,77.66237958272299L212.807925,195.5885575612386L213.045525,122.94491259256999L213.283125,191.41618792215982L213.52072500000003,155.82804679870605L213.75832499999999,160.96407890319824L213.995925,-18.13621012369791L214.233525,92.39186096191406L214.471125,-68.71262232462566L214.70872500000002,16.278580983479817L214.946325,138.90738677978516L215.183925,52.77546819051107L215.421525,110.22321764628092L215.659125,252.58662287394205L215.896725,26.012322107950848L216.13432500000002,33.07635434468586L216.371925,110.34160296122234L216.609525,70.01932462056477L216.847125,41.318125406901046L217.084725,-11.09018325805664L217.322325,226.07007535298666L217.55992500000002,176.96965344746908L217.797525,192.61448287963867L218.035125,148.0487887064616L218.27272499999998,192.10177993774414L218.510325,86.008056640625L218.747925,163.29577445983887L218.985525,199.4735164642334L219.223125,137.47565968831378L219.460725,118.09359041849773L219.69832499999998,152.4452126820882L219.935925,-6.9678535461425914L220.173525,24.125246683756504L220.411125,31.87232017517089L220.648725,96.27681986490886L220.88632500000003,116.42317962646483L221.12392499999999,176.9706662495931L221.361525,106.70485560099284L221.599125,115.40835189819335L221.836725,-48.946926116943345L222.07432500000002,166.4520034790039L222.31192499999997,100.2020657857259L222.549525,164.4376900990804L222.787125,36.0730857849121L223.024725,138.94125938415527L223.262325,47.03430557250976L223.49992500000002,15.98876953125L223.73752499999998,231.6198933919271L223.975125,16.40026728312174L224.212725,5.26627095540365L224.450325,62.07700538635254L224.687925,-19.028826395670567L224.92552500000002,75.5851599375407L225.163125,94.1907475789388L225.400725,44.492922465006515L225.63832499999998,69.79808362325032L225.875925,49.61503791809083L226.113525,181.40782737731934L226.588725,286.0925178527832L226.826325,109.04093996683756L227.06392499999998,101.0452798207601L227.301525,151.15929158528644L227.539125,52.0572789510091L227.776725,144.02252515157065L228.014325,75.69630559285481L228.251925,98.05244954427084L228.489525,-5.8037312825520875L228.96472500000002,177.82730929056802L229.202325,140.36957295735675L229.43992500000002,33.43619918823243L229.67752499999997,141.26676559448242L229.915125,75.79068374633789L230.152725,206.79738871256512L230.390325,226.7610689798991L230.627925,164.65814336140951L230.86552500000002,70.2098814646403L231.10312499999998,287.4182758331299L231.340725,71.61370023091634L231.578325,150.60468864440918L231.815925,109.90234692891438L232.053525,134.58467229207358L232.29112500000002,204.89628410339355L232.52872499999998,104.92059834798178L232.766325,80.96115112304688L233.003925,223.69475428263345L233.241525,185.07874743143717L233.479125,109.79401461283366L233.716725,135.57354227701822L233.95432499999998,214.90430704752603L234.191925,95.18029276529948L234.42952499999998,71.67071723937988L234.667125,189.4757340749105L234.904725,78.7214330037435L235.142325,270.3354549407959L235.37992500000001,-17.807161966959644L235.617525,23.694730758667L235.855125,126.31326738993326L236.092725,76.56300163269043L236.33032500000002,180.1164296468099L236.567925,43.097918828328446L236.80552500000002,177.25792694091797L237.043125,98.51023610432944L237.280725,45.62808609008789L237.518325,94.46769269307454L237.755925,9.551774342854822L237.993525,132.3665606180827L238.23112500000002,170.31681887308756L238.46872499999998,188.28066507975262L238.706325,187.04275830586752L238.943925,122.51383399963377L239.181525,45.51453971862794L239.419125,-22.634777069091797L239.65672500000002,100.00363159179686L239.89432499999998,141.16514778137207L240.131925,-22.524194081624366L240.369525,32.05053583780926L240.607125,118.73765754699708L240.844725,39.51087379455566L241.08232500000003,57.19503657023113L241.31992499999998,-123.98873647054039L241.557525,187.1016133626302L241.79512499999998,85.91941769917807L242.032725,221.53906122843426L242.507925,-54.48342768351238L242.745525,77.21971003214517L242.983125,133.58477401733398L243.220725,153.72764523824057L243.458325,196.68951098124185L243.69592500000002,187.11871846516928L243.933525,154.55469195048016L244.171125,137.91529083251953L244.408725,31.053488413492833L244.646325,36.3235855102539L244.883925,174.4488639831543L245.12152500000002,45.65261840820313L245.359125,87.94239616394043L245.596725,66.86752192179361L245.83432499999998,139.20184961954752L246.071925,106.77087529500325L246.309525,136.28471692403158L246.547125,303.3193066914876L246.784725,84.10481389363608L247.02232500000002,113.93701299031575L247.25992499999998,35.512180964152016L247.497525,70.15965398152669L247.735125,-8.781369527180994L247.972725,114.15847905476888L248.210325,118.25211270650229L248.44792500000003,26.566662470499676L248.68552499999998,149.36805725097656L248.923125,122.3320172627767L249.16072499999999,220.8351262410482L249.398325,33.30633544921875L249.63592500000001,48.97250874837239L249.873525,104.14239120483398L250.111125,182.58241526285806L250.348725,42.37162717183431L250.586325,107.42964680989584L250.823925,67.41676076253255L251.06152500000002,138.77654774983725L251.299125,222.64841715494794L251.536725,21.13751792907715L251.774325,71.62532869974771L252.011925,-2.7271385192871094L252.249525,237.79858652750653L252.48712500000002,61.68002446492513L252.724725,68.81101417541504L252.962325,213.53409830729166L253.19992499999998,147.20853805541992L253.437525,-61.858202616373696L253.675125,215.01916631062824L253.912725,40.35772641499836L254.150325,168.6774673461914L254.387925,115.3560988108317L254.62552499999998,68.01000022888184L254.863125,101.62760353088379L255.100725,183.67136510213217L255.338325,112.32253138224284" style="fill: none;" fill="none"></path></g></g></g></g></g></g><g transform="translate(51, 177)" clip-path="url(#clip_1)"><clipPath id="clip_1"><rect width="278" height="23"></rect></clipPath><g><g><line x1="0" y1="0" x2="0" y2="5" style="visibility: inherit;" fill="rgb(0, 0, 0)" stroke="rgb(204, 204, 204)" stroke-width="1px"></line><line x1="23.203125" y1="0" x2="23.203125" y2="5" style="visibility: inherit;" fill="rgb(0, 0, 0)" stroke="rgb(204, 204, 204)" stroke-width="1px"></line><line x1="46.40625" y1="0" x2="46.40625" y2="5" style="visibility: inherit;" fill="rgb(0, 0, 0)" stroke="rgb(204, 204, 204)" stroke-width="1px"></line><line x1="69.609375" y1="0" x2="69.609375" y2="5" style="visibility: inherit;" fill="rgb(0, 0, 0)" stroke="rgb(204, 204, 204)" stroke-width="1px"></line><line x1="92.8125" y1="0" x2="92.8125" y2="5" style="visibility: inherit;" fill="rgb(0, 0, 0)" stroke="rgb(204, 204, 204)" stroke-width="1px"></line><line x1="116.015625" y1="0" x2="116.015625" y2="5" style="visibility: inherit;" fill="rgb(0, 0, 0)" stroke="rgb(204, 204, 204)" stroke-width="1px"></line><line x1="139.21875" y1="0" x2="139.21875" y2="5" style="visibility: inherit;" fill="rgb(0, 0, 0)" stroke="rgb(204, 204, 204)" stroke-width="1px"></line><line x1="162.421875" y1="0" x2="162.421875" y2="5" style="visibility: inherit;" fill="rgb(0, 0, 0)" stroke="rgb(204, 204, 204)" stroke-width="1px"></line><line x1="185.625" y1="0" x2="185.625" y2="5" style="visibility: inherit;" fill="rgb(0, 0, 0)" stroke="rgb(204, 204, 204)" stroke-width="1px"></line><line x1="208.828125" y1="0" x2="208.828125" y2="5" style="visibility: inherit;" fill="rgb(0, 0, 0)" stroke="rgb(204, 204, 204)" stroke-width="1px"></line><line x1="232.03125" y1="0" x2="232.03125" y2="5" style="visibility: inherit;" fill="rgb(0, 0, 0)" stroke="rgb(204, 204, 204)" stroke-width="1px"></line><line x1="255.234375" y1="0" x2="255.234375" y2="5" style="visibility: inherit;" fill="rgb(0, 0, 0)" stroke="rgb(204, 204, 204)" stroke-width="1px"></line><line x1="278.4375" y1="0" x2="278.4375" y2="5" style="visibility: inherit;" fill="rgb(0, 0, 0)" stroke="rgb(204, 204, 204)" stroke-width="1px"></line></g><g transform="translate(0, 8)"><text x="0" y="0" dx="0em" dy="0.95em" style="text-anchor: middle; visibility: hidden; font-family: Roboto, sans-serif; font-size: 12px; font-weight: 200;" fill="rgb(33, 33, 33)" stroke="none" stroke-width="1px">-200k</text><text x="23.203125" y="0" dx="0em" dy="0.95em" style="text-anchor: middle; visibility: inherit; font-family: Roboto, sans-serif; font-size: 12px; font-weight: 200;" fill="rgb(33, 33, 33)" stroke="none" stroke-width="1px">0</text><text x="46.40625" y="0" dx="0em" dy="0.95em" style="text-anchor: middle; visibility: hidden; font-family: Roboto, sans-serif; font-size: 12px; font-weight: 200;" fill="rgb(33, 33, 33)" stroke="none" stroke-width="1px">200k</text><text x="69.609375" y="0" dx="0em" dy="0.95em" style="text-anchor: middle; visibility: inherit; font-family: Roboto, sans-serif; font-size: 12px; font-weight: 200;" fill="rgb(33, 33, 33)" stroke="none" stroke-width="1px">400k</text><text x="92.8125" y="0" dx="0em" dy="0.95em" style="text-anchor: middle; visibility: hidden; font-family: Roboto, sans-serif; font-size: 12px; font-weight: 200;" fill="rgb(33, 33, 33)" stroke="none" stroke-width="1px">600k</text><text x="116.015625" y="0" dx="0em" dy="0.95em" style="text-anchor: middle; visibility: inherit; font-family: Roboto, sans-serif; font-size: 12px; font-weight: 200;" fill="rgb(33, 33, 33)" stroke="none" stroke-width="1px">800k</text><text x="139.21875" y="0" dx="0em" dy="0.95em" style="text-anchor: middle; visibility: hidden; font-family: Roboto, sans-serif; font-size: 12px; font-weight: 200;" fill="rgb(33, 33, 33)" stroke="none" stroke-width="1px">1M</text><text x="162.421875" y="0" dx="0em" dy="0.95em" style="text-anchor: middle; visibility: inherit; font-family: Roboto, sans-serif; font-size: 12px; font-weight: 200;" fill="rgb(33, 33, 33)" stroke="none" stroke-width="1px">1.2M</text><text x="185.625" y="0" dx="0em" dy="0.95em" style="text-anchor: middle; visibility: hidden; font-family: Roboto, sans-serif; font-size: 12px; font-weight: 200;" fill="rgb(33, 33, 33)" stroke="none" stroke-width="1px">1.4M</text><text x="208.828125" y="0" dx="0em" dy="0.95em" style="text-anchor: middle; visibility: inherit; font-family: Roboto, sans-serif; font-size: 12px; font-weight: 200;" fill="rgb(33, 33, 33)" stroke="none" stroke-width="1px">1.6M</text><text x="232.03125" y="0" dx="0em" dy="0.95em" style="text-anchor: middle; visibility: hidden; font-family: Roboto, sans-serif; font-size: 12px; font-weight: 200;" fill="rgb(33, 33, 33)" stroke="none" stroke-width="1px">1.8M</text><text x="255.234375" y="0" dx="0em" dy="0.95em" style="text-anchor: middle; visibility: inherit; font-family: Roboto, sans-serif; font-size: 12px; font-weight: 200;" fill="rgb(33, 33, 33)" stroke="none" stroke-width="1px">2M</text><text x="278.4375" y="0" dx="0em" dy="0.95em" style="text-anchor: middle; visibility: hidden; font-family: Roboto, sans-serif; font-size: 12px; font-weight: 200;" fill="rgb(33, 33, 33)" stroke="none" stroke-width="1px">2.2M</text></g><line x1="0" y1="0" x2="278.4375" y2="0" fill="rgb(0, 0, 0)" stroke="rgb(204, 204, 204)" stroke-width="1px"></line></g></g></g></g></svg>