<svg viewBox="0 0 330 200" xmlns="http://www.w3.org/2000/svg"><g><g><g><g><g><line x1="51.5625" y1="177" x2="46.5625" y2="177" style="visibility: inherit;" fill="rgb(0, 0, 0)" stroke="rgb(204, 204, 204)" stroke-width="1px"></line><line x1="51.5625" y1="157.33333333333331" x2="46.5625" y2="157.33333333333331" style="visibility: inherit;" fill="rgb(0, 0, 0)" stroke="rgb(204, 204, 204)" stroke-width="1px"></line><line x1="51.5625" y1="137.66666666666666" x2="46.5625" y2="137.66666666666666" style="visibility: inherit;" fill="rgb(0, 0, 0)" stroke="rgb(204, 204, 204)" stroke-width="1px"></line><line x1="51.5625" y1="118.00000000000001" x2="46.5625" y2="118.00000000000001" style="visibility: inherit;" fill="rgb(0, 0, 0)" stroke="rgb(204, 204, 204)" stroke-width="1px"></line><line x1="51.5625" y1="98.33333333333334" x2="46.5625" y2="98.33333333333334" style="visibility: inherit;" fill="rgb(0, 0, 0)" stroke="rgb(204, 204, 204)" stroke-width="1px"></line><line x1="51.5625" y1="78.66666666666666" x2="46.5625" y2="78.66666666666666" style="visibility: inherit;" fill="rgb(0, 0, 0)" stroke="rgb(204, 204, 204)" stroke-width="1px"></line><line x1="51.5625" y1="59.00000000000001" x2="46.5625" y2="59.00000000000001" style="visibility: inherit;" fill="rgb(0, 0, 0)" stroke="rgb(204, 204, 204)" stroke-width="1px"></line><line x1="51.5625" y1="39.333333333333314" x2="46.5625" y2="39.333333333333314" style="visibility: inherit;" fill="rgb(0, 0, 0)" stroke="rgb(204, 204, 204)" stroke-width="1px"></line><line x1="51.5625" y1="19.666666666666657" x2="46.5625" y2="19.666666666666657" style="visibility: inherit;" fill="rgb(0, 0, 0)" stroke="rgb(204, 204, 204)" stroke-width="1px"></line><line x1="51.5625" y1="0" x2="46.5625" y2="0" style="visibility: inherit;" fill="rgb(0, 0, 0)" stroke="rgb(204, 204, 204)" stroke-width="1px"></line></g><g transform="translate(41.5625, 0)"><text x="0" y="177" dx="0em" dy="0.3em" style="text-anchor: end; visibility: hidden; font-family: Roboto, sans-serif; font-size: 12px; font-weight: 200;" fill="rgb(33, 33, 33)" stroke="none" stroke-width="1px">0</text><text x="0" y="157.33333333333331" dx="0em" dy="0.3em" style="text-anchor: end; visibility: inherit; font-family: Roboto, sans-serif; font-size: 12px; font-weight: 200;" fill="rgb(33, 33, 33)" stroke="none" stroke-width="1px">0.01</text><text x="0" y="137.66666666666666" dx="0em" dy="0.3em" style="text-anchor: end; visibility: hidden; font-family: Roboto, sans-serif; font-size: 12px; font-weight: 200;" fill="rgb(33, 33, 33)" stroke="none" stroke-width="1px">0.02</text><text x="0" y="118.00000000000001" dx="0em" dy="0.3em" style="text-anchor: end; visibility: inherit; font-family: Roboto, sans-serif; font-size: 12px; font-weight: 200;" fill="rgb(33, 33, 33)" stroke="none" stroke-width="1px">0.03</text><text x="0" y="98.33333333333334" dx="0em" dy="0.3em" style="text-anchor: end; visibility: hidden; font-family: Roboto, sans-serif; font-size: 12px; font-weight: 200;" fill="rgb(33, 33, 33)" stroke="none" stroke-width="1px">0.04</text><text x="0" y="78.66666666666666" dx="0em" dy="0.3em" style="text-anchor: end; visibility: inherit; font-family: Roboto, sans-serif; font-size: 12px; font-weight: 200;" fill="rgb(33, 33, 33)" stroke="none" stroke-width="1px">0.05</text><text x="0" y="59.00000000000001" dx="0em" dy="0.3em" style="text-anchor: end; visibility: hidden; font-family: Roboto, sans-serif; font-size: 12px; font-weight: 200;" fill="rgb(33, 33, 33)" stroke="none" stroke-width="1px">0.06</text><text x="0" y="39.333333333333314" dx="0em" dy="0.3em" style="text-anchor: end; visibility: inherit; font-family: Roboto, sans-serif; font-size: 12px; font-weight: 200;" fill="rgb(33, 33, 33)" stroke="none" stroke-width="1px">0.07</text><text x="0" y="19.666666666666657" dx="0em" dy="0.3em" style="text-anchor: end; visibility: hidden; font-family: Roboto, sans-serif; font-size: 12px; font-weight: 200;" fill="rgb(33, 33, 33)" stroke="none" stroke-width="1px">0.08</text><text x="0" y="0" dx="0em" dy="0.3em" style="text-anchor: end; visibility: hidden; font-family: Roboto, sans-serif; font-size: 12px; font-weight: 200;" fill="rgb(33, 33, 33)" stroke="none" stroke-width="1px">0.09</text></g><line x1="51.5625" y1="0" x2="51.5625" y2="177" fill="rgb(0, 0, 0)" stroke="rgb(204, 204, 204)" stroke-width="1px"></line></g></g><g transform="translate(51, 0)" clip-path="url(#clip_0)"><clipPath id="clip_0"><rect width="278" height="177"></rect></clipPath><g><g><g><line x1="0" y1="0" x2="0" y2="177" fill="rgb(0, 0, 0)" stroke="rgb(66, 66, 66)" stroke-width="1px" opacity="0.25"></line><line x1="23.203125" y1="0" x2="23.203125" y2="177" fill="rgb(0, 0, 0)" stroke="rgb(66, 66, 66)" stroke-width="1px" opacity="0.25"></line><line x1="46.40625" y1="0" x2="46.40625" y2="177" fill="rgb(0, 0, 0)" stroke="rgb(66, 66, 66)" stroke-width="1px" opacity="0.25"></line><line x1="69.609375" y1="0" x2="69.609375" y2="177" fill="rgb(0, 0, 0)" stroke="rgb(66, 66, 66)" stroke-width="1px" opacity="0.25"></line><line x1="92.8125" y1="0" x2="92.8125" y2="177" fill="rgb(0, 0, 0)" stroke="rgb(66, 66, 66)" stroke-width="1px" opacity="0.25"></line><line x1="116.015625" y1="0" x2="116.015625" y2="177" fill="rgb(0, 0, 0)" stroke="rgb(66, 66, 66)" stroke-width="1px" opacity="0.25"></line><line x1="139.21875" y1="0" x2="139.21875" y2="177" fill="rgb(0, 0, 0)" stroke="rgb(66, 66, 66)" stroke-width="1px" opacity="0.25"></line><line x1="162.421875" y1="0" x2="162.421875" y2="177" fill="rgb(0, 0, 0)" stroke="rgb(66, 66, 66)" stroke-width="1px" opacity="0.25"></line><line x1="185.625" y1="0" x2="185.625" y2="177" fill="rgb(0, 0, 0)" stroke="rgb(66, 66, 66)" stroke-width="1px" opacity="0.25"></line><line x1="208.828125" y1="0" x2="208.828125" y2="177" fill="rgb(0, 0, 0)" stroke="rgb(66, 66, 66)" stroke-width="1px" opacity="0.25"></line><line x1="232.03125" y1="0" x2="232.03125" y2="177" fill="rgb(0, 0, 0)" stroke="rgb(66, 66, 66)" stroke-width="1px" opacity="0.25"></line><line x1="255.234375" y1="0" x2="255.234375" y2="177" fill="rgb(0, 0, 0)" stroke="rgb(66, 66, 66)" stroke-width="1px" opacity="0.25"></line><line x1="278.4375" y1="0" x2="278.4375" y2="177" fill="rgb(0, 0, 0)" stroke="rgb(66, 66, 66)" stroke-width="1px" opacity="0.25"></line></g><g><line x1="0" y1="177" x2="278.4375" y2="177" fill="rgb(0, 0, 0)" stroke="rgb(66, 66, 66)" stroke-width="1px" opacity="0.25"></line><line x1="0" y1="157.33333333333331" x2="278.4375" y2="157.33333333333331" fill="rgb(0, 0, 0)" stroke="rgb(66, 66, 66)" stroke-width="1px" opacity="0.25"></line><line x1="0" y1="137.66666666666666" x2="278.4375" y2="137.66666666666666" fill="rgb(0, 0, 0)" stroke="rgb(66, 66, 66)" stroke-width="1px" opacity="0.25"></line><line x1="0" y1="118.00000000000001" x2="278.4375" y2="118.00000000000001" fill="rgb(0, 0, 0)" stroke="rgb(66, 66, 66)" stroke-width="1px" opacity="0.25"></line><line x1="0" y1="98.33333333333334" x2="278.4375" y2="98.33333333333334" fill="rgb(0, 0, 0)" stroke="rgb(66, 66, 66)" stroke-width="1px" opacity="0.25"></line><line x1="0" y1="78.66666666666666" x2="278.4375" y2="78.66666666666666" fill="rgb(0, 0, 0)" stroke="rgb(66, 66, 66)" stroke-width="1px" opacity="0.25"></line><line x1="0" y1="59.00000000000001" x2="278.4375" y2="59.00000000000001" fill="rgb(0, 0, 0)" stroke="rgb(66, 66, 66)" stroke-width="1px" opacity="0.25"></line><line x1="0" y1="39.333333333333314" x2="278.4375" y2="39.333333333333314" fill="rgb(0, 0, 0)" stroke="rgb(66, 66, 66)" stroke-width="1px" opacity="0.25"></line><line x1="0" y1="19.666666666666657" x2="278.4375" y2="19.666666666666657" fill="rgb(0, 0, 0)" stroke="rgb(66, 66, 66)" stroke-width="1px" opacity="0.25"></line><line x1="0" y1="0" x2="278.4375" y2="0" fill="rgb(0, 0, 0)" stroke="rgb(66, 66, 66)" stroke-width="1px" opacity="0.25"></line></g></g></g><g><g><line x1="0" y1="177" x2="278.4375" y2="177" fill="rgb(0, 0, 0)" stroke="rgb(153, 153, 153)" stroke-width="1.5px"></line></g></g><g><g><line x1="23.203125" y1="0" x2="23.203125" y2="177" fill="rgb(0, 0, 0)" stroke="rgb(153, 153, 153)" stroke-width="1.5px"></line></g></g><g><g><g><g><g><path stroke="rgb(255, 112, 67)" stroke-width="2px" d="M23.678325,116.59798030555247L23.915925,114.3173027144124L24.153525,126.65159443466841L24.391125,118.05959431788719L24.628725,118.21700745276725L24.866325000000003,124.74984425553006L25.103925,132.49966472054362L25.341525,135.60190395271567L25.579125,138.05040120902484L25.816724999999998,138.3056114228733L26.054325,132.2509841776599L26.291925000000003,141.2202451368083L26.529525,141.20465305246356L26.767125,138.31219213838384L27.004725,130.8521667730628L27.242324999999997,134.29339124886292L27.479924999999998,141.3518387371581L27.717525000000002,145.81663481179075L27.955125000000002,149.53239510360316L28.192725,154.48901939913014L28.430325,134.10819892142524L28.667925,136.2460678696295L28.905524999999997,138.68112407993155L29.143125,141.7554339534062L29.380725,148.170986944979L29.618325,141.18825704600323L29.855925,149.13666013285453L30.093525,151.02483563436894L30.331124999999997,125.96111493183841L30.568725,136.31286887121635L30.806325,138.72118576995845L31.043925,140.28140979587087L31.281525,146.24944482778508L31.519125,142.14797377776955L31.756725000000003,140.53214361388447L31.994325,146.93764590245593L32.231925000000004,146.63251000069752L32.469525,154.93836019792641L32.707125,153.62239126235207L32.944725,143.65247149547343L33.182325,153.41921720685346L33.419925,157.20504602419794L33.657525,152.60089278263507L33.895125,153.18019727454282L34.132725,148.49587878090543L34.370325,151.67747533193645L34.607925,145.21273490586378L34.845524999999995,150.28376088182688L35.083125,151.98197542564708L35.320725,155.42082573388797L35.558324999999996,153.48934439865675L35.795925000000004,158.97563796247405L36.033525,158.23421060942698L36.271125,161.28479705246463L36.508725,159.31241468981088L36.746325,157.20711041874713L36.983925,149.4908024165237L37.221525,157.84409078828335L37.459125,157.86257441116476L37.696724999999994,159.83264874010158L37.934325,159.59346945239426L38.171925,162.1771755679647L38.409525,163.3432846539736L38.647125,150.4452940021069L38.884724999999996,150.69608265126413L39.122325000000004,143.2026750463128L39.359925000000004,136.86288077639816L39.597525,146.3493689443108L39.835125000000005,146.81730336519698L40.072725,153.66642353925678L40.310325,157.3917810603593L40.547925,146.25980763343657L40.785525,152.6789313817979L41.023125,152.11308828880158L41.260725,153.38686324341953L41.498325,160.10490444101706L41.735924999999995,162.21515605974884L41.973525,145.6199796386283L42.211125,154.56131084637173L42.448724999999996,156.85319290435115L42.686325000000004,156.653452200944L42.923925,158.68464959209447L43.161525,160.67159719345145L43.399125,161.5180624094735L43.636725,156.4178688422122L43.874325000000006,162.53809109699398L44.111925,161.02467757486303L44.349525,157.38941577338974L44.587125,160.93156620396456L44.824725,150.45789805571206L45.062325,153.43085877162198L45.299925,155.44510409769603L45.537525,155.77018731208955L45.775124999999996,157.42487309697657L46.012725,154.1924241512421L46.250325000000004,146.9521738268576L46.487925,144.3749501294479L46.725525000000005,142.13720995405825L46.963125,147.51657105715776L47.200725,155.50720840582275L47.438325,152.81135644002174L47.675925,153.1528297820692L47.913525,150.86096899563103L48.151125,153.1349410654348L48.388725,154.38408949273278L48.626324999999994,156.51639119563967L48.863925,151.95723025766097L49.101525,153.79269782265274L49.339124999999996,157.1986654953276L49.576725,152.2513607555299L49.814325,158.5785507550539L50.051925000000004,146.12681853914467L50.289525,143.26515420959913L50.527125,148.53904058895424L50.764725000000006,143.29126318809537L51.002325,145.7890806829958L51.239925,149.09311001465892L51.477525,141.54948550740582L51.715125,148.58515990791543L51.952725,148.00513225655448L52.190325,152.76584006365553L52.427925,153.58645701666524L52.665524999999995,157.3822127516658L52.903125,152.70719282044516L53.140725,140.8370758158776L53.378325,145.0079749492494L53.615925000000004,137.13942067927246L53.853525,146.28482398950732L54.091125,151.92571239509388L54.328725,149.04917802316868L54.566325,154.65984535556788L54.803925,160.40775609841L55.041525,159.17030470071268L55.279125,151.97470915515044L55.516724999999994,138.82271641114642L55.754325,144.49076526335452L55.991925,148.65982374134603L56.229525,138.21659707675147L56.467125,147.96823949605087L56.704724999999996,135.45854815735336L56.942325000000004,137.05624927219102L57.179925,129.52593677025845L57.417525,127.08196860521123L57.655125000000005,133.9124621200706L57.892725,128.40789364565285L58.130325,133.286792892946L58.367925,139.63275281910094L58.605525,138.5236624011834L58.843125,139.6635469851557L59.080725,131.66648727303726L59.318325,126.36890278048902L59.555924999999995,124.30428496273909L59.793525,130.8246276831978L60.031125,100.20493168769397L60.268724999999996,115.13585022372872L60.506325000000004,121.17512963284773L60.743925,114.4276049936L60.981525,131.62062564268805L61.219125,131.37328625783385L61.456725,134.1057420019213L61.694325000000006,139.58636201434751L61.931925,138.80311929194184L62.169525,140.59945028627746L62.407125,133.99495721621216L62.644725,136.40856287139397L62.882325,115.96219501450304L63.119925,104.96195359759318L63.357525,103.00959461966823L63.595124999999996,106.3707295579096L63.832725,97.70902686252475L64.070325,89.05497399529386L64.307925,82.09561577773434L64.545525,81.30020742219494L64.783125,88.92777953109227L65.020725,107.48609421587635L65.258325,94.57551069619248L65.495925,103.49973408716114L65.733525,97.98382424118435L65.971125,114.68664900443346L66.208725,114.87500964988106L66.446325,115.7562552038163L66.683925,105.33773691117744L66.921525,111.41670493976262L67.159125,114.56473709163659L67.396725,126.78623779525911L67.634325,127.93489401187831L67.871925,127.62538894601462L68.10952499999999,127.43968590649642L68.347125,125.90704129667685L68.584725,135.85789694606228L68.82232499999999,143.59533683291454L69.059925,109.86475476919439L69.297525,108.48643098651664L69.535125,117.22389042802232L69.77272500000001,112.09527234292572L70.010325,110.32409166131346L70.247925,122.59015812178806L70.48552500000001,115.1229756675185L70.723125,126.58342140329012L70.960725,118.01828083641604L71.19832500000001,118.79456166573728L71.435925,126.9042109577757L71.673525,133.76739665938825L71.911125,118.98687028729962L72.148725,110.4258473029378L72.386325,108.669440087317L72.623925,116.60387759405688L72.861525,123.70763847032177L73.099125,118.21338399330172L73.336725,108.19482609875635L73.57432499999999,114.93629728703283L73.811925,108.91737615832834L74.049525,104.26891527833035L74.28712499999999,103.16994350311055L74.524725,90.91029826297498L74.762325,96.19188149667265L74.99992499999999,100.82046802578259L75.237525,111.74084793769057L75.475125,121.365992551502L75.71272499999999,134.24719984409595L75.95032499999999,137.0592571134014L76.187925,132.10130947637418L76.42552500000001,125.01651602471586L76.663125,125.95118536343999L76.90072500000001,132.580997090285L77.13832500000001,135.0608381305605L77.375925,128.36710242278198L77.613525,136.68093853700253L77.85112500000001,136.82939704164718L78.088725,130.54216918193214L78.326325,136.14222888554877L78.56392500000001,138.42674416744163L78.801525,133.34432716435262L79.039125,138.55334123680632L79.276725,135.1872133684733L79.514325,137.469620273863L79.751925,137.7251315393178L79.989525,140.7208868013697L80.227125,137.87055262109897L80.464725,130.09134198932605L80.702325,109.52147127414996L80.939925,118.11379363671097L81.177525,131.83494270216516L81.415125,132.15487157824293L81.65272499999999,137.5323757788896L81.890325,140.10588321455475L82.127925,144.60767026067666L82.36552499999999,138.16681569807267L82.603125,126.27430758273125L82.840725,127.39726625519307L83.07832499999999,136.175860046172L83.315925,127.49965723881554L83.55352500000001,141.4612527498867L83.791125,132.43781935826536L84.028725,122.41438432329255L84.26632500000001,134.76100009258604L84.503925,141.55438680694112L84.741525,143.32573133555417L84.97912500000001,147.11575100827633L85.216725,144.6267428577448L85.454325,149.39440538270307L85.691925,147.83768518934468L85.929525,129.5416736136068L86.167125,130.31797233205174L86.404725,128.1717726895082L86.642325,133.99017269564877L86.879925,138.51832236738926L87.117525,135.8576080037669L87.35512499999999,139.7924299717058L87.592725,138.00488448024447L87.830325,138.6608728103677L88.06792499999999,127.76149647232927L88.305525,132.2843718417309L88.543125,136.11202994115087L88.780725,131.6482072549677L89.01832499999999,127.3566321002016L89.255925,131.11957763234196L89.493525,142.98021026759992L89.73112499999999,140.41690278833897L89.968725,133.04037634105956L90.206325,118.32018993241473L90.443925,118.43794758583834L90.68152500000001,124.57761230150301L90.91912500000001,134.17677556770707L91.156725,137.40111713090138L91.394325,135.11046165215134L91.63192500000001,140.76536567948554L91.869525,113.89007995491599L92.107125,124.03834514100578L92.34472500000001,112.80373566515779L92.582325,130.68471565048418L92.819925,120.9399966430695L93.057525,128.3835292358417L93.295125,137.9967840616436L93.532725,122.10067460365282L93.770325,122.85727946913552L94.007925,118.47139775925665L94.245525,115.87828253611198L94.483125,123.3106937730567L94.720725,117.51428084716737L94.958325,103.12757833885473L95.195925,112.58735458803568L95.43352499999999,125.29251691948807L95.671125,129.0360576128052L95.908725,135.20014960657076L96.14632499999999,126.18441268060914L96.383925,144.47484024343476L96.621525,148.72709193911703L96.85912499999999,141.94445887458255L97.09672499999999,129.42435820252854L97.334325,128.44224571596277L97.571925,128.73644147263386L97.809525,133.5991571363593L98.04712500000001,132.52199428181558L98.284725,140.40304061214553L98.522325,148.05093865756447L98.75992500000001,143.11363611120535L98.997525,138.61479625005654L99.235125,145.40312283475674L99.472725,131.03861732029605L99.71032500000001,132.82942009912145L99.947925,141.20207884975005L100.185525,136.27710727096238L100.42312500000001,134.66652536535642L100.660725,134.19952488727003L100.898325,128.11919351291633L101.13592499999999,135.18779214941645L101.373525,138.0461394174289L101.611125,121.17000135879067L101.848725,125.52543860833057L102.086325,129.09898741638784L102.323925,133.62462741094504L102.561525,132.1147509910127L102.79912499999999,132.20752246960762L103.036725,117.97412402898924L103.274325,133.0187195021164L103.51192499999999,117.57737753460316L103.749525,114.15111284853721L103.987125,119.39353258551182L104.22472499999999,126.18807296936328L104.462325,136.2569841135618L104.69992500000001,123.59195029869142L104.937525,129.28329547227102L105.175125,131.1232319055836L105.41272500000001,123.9687302239045L105.650325,111.26391925378466L105.887925,121.11824767866031L106.12552500000001,97.3387877349752L106.363125,92.25145089654313L106.600725,99.37808525181723L106.838325,98.66057628164835L107.075925,98.49894993565567L107.313525,103.85640003916873L107.551125,86.32868260127655L107.788725,64.5574936746499L108.026325,78.57486137423561L108.263925,81.06991682454135L108.501525,95.43478863639149L108.739125,80.69954388461021L108.976725,90.98730445576612L109.21432499999999,71.19381262067698L109.451925,75.25847565851853L109.689525,81.34636202289013L109.92712499999999,72.70742717484642L110.164725,64.87367505490786L110.402325,60.40389487739409L110.63992499999999,74.66147637921178L110.87752499999999,58.13334181641103L111.115125,73.56802650929228L111.35272499999999,48.68105028057538L111.59032499999999,74.2345422127909L111.82792500000001,66.90387695545353L112.06552500000001,59.50938580938816L112.303125,86.07073535924337L112.54072500000001,67.16835501832871L112.77832500000001,69.30934517210588L113.015925,32.48977376993018L113.253525,50.000243884179106L113.49112500000001,42.03061508050747L113.728725,39.438289751079786L113.966325,49.02221747008987L114.20392500000001,56.65473614594157L114.441525,52.39961486534764L114.679125,55.10891071643327L114.916725,68.21951192430195L115.154325,81.96282694624784L115.391925,58.48094903163266L115.629525,63.94325809120428L115.867125,57.46412959360653L116.104725,83.49918058810775L116.342325,69.62021147786464L116.57992499999999,94.32668417838545L116.817525,93.59392717369795L117.055125,73.37237192921874L117.29272499999999,53.78761821031395L117.530325,50.21840191507233L117.767925,67.58989414348538L118.00552499999999,76.62997756664556L118.243125,85.58788354554534L118.480725,71.02707674121119L118.718325,67.70661062806003L118.955925,87.72409629211319L119.19352500000001,80.25997802248891L119.431125,72.78541506905135L119.668725,85.70106616365179L119.90632500000001,81.1587901537454L120.143925,80.89175846724724L120.381525,75.46917083590635L120.619125,88.50207424598581L120.856725,76.27103621425816L121.094325,66.74296144244623L121.331925,59.873772829359076L121.569525,73.15264852816978L121.807125,83.27101502801052L122.044725,74.93773805291497L122.28232500000001,72.31928404286133L122.519925,29.993654931274786L122.757525,54.80205233376487L122.99512499999999,41.761961739150266L123.232725,29.59741141849017L123.470325,32.516131487210124L123.70792499999999,47.28884555899274L123.945525,50.62122341594997L124.183125,38.21635618568601L124.420725,49.97916208363258L124.65832499999999,51.96653429462521L124.895925,51.50726667122448L125.133525,45.00904515828534L125.37112499999999,67.42196413941689L125.608725,69.88403903087482L125.84632500000001,34.371048418524886L126.083925,55.507915509448246L126.32152500000001,66.80722385011462L126.55912500000001,63.86870872395642L126.796725,33.258595026040545L127.034325,21.883411051732992L127.27192500000001,58.54007325881881L127.509525,87.0256061622351L127.747125,61.0576802334497L127.98472500000001,61.41767988451181L128.222325,44.69423006682312L128.459925,64.35221570953954L128.69752499999998,65.54544518128172L128.935125,47.785469061544354L129.17272499999999,34.210216073042645L129.410325,32.01884032160828L129.64792500000001,35.23656226518227L129.885525,42.19909881744269L130.123125,30.28222205158165L130.360725,52.40162606984034L130.59832500000002,56.76180838912521L130.835925,38.78937670014179L131.073525,12.948627192309738L131.311125,5.472169934827828L131.548725,35.595021883121355L131.786325,43.75857562987282L132.02392500000002,25.072074805706382L132.261525,44.28204813898185L132.499125,35.910895550055784L132.736725,54.972187199475464L132.974325,40.711698908576615L133.211925,45.17688796458793L133.449525,56.42175777875276L133.687125,43.30995688114299L133.924725,48.04183291757346L134.162325,29.063251964435416L134.399925,57.08625905644024L134.637525,37.178709731088816L134.875125,18.781053963653264L135.11272499999998,10.354440842083307L135.350325,30.304331758028976L135.587925,28.215673143708756L135.825525,31.879145814007966L136.063125,25.818765874520786L136.300725,35.472898977487795L136.538325,29.012125975384016L136.775925,37.61938613245507L137.01352500000002,24.384650168357027L137.251125,8.492637887122877L137.488725,16.933994190607052L137.726325,27.491647686588905L137.963925,18.80735723139533L138.201525,17.245871499945867L138.439125,18.728903108300866L138.676725,16.92991998998053L138.914325,23.686465274538968L139.151925,8.342605986940686L139.389525,21.760642889389096L139.62712499999998,29.38893664474212L139.864725,27.39755703962795L140.102325,43.75676456266814L140.339925,25.800803529267537L140.577525,22.594283028669146L140.81512500000002,39.95292456998049L141.05272499999998,36.61680916977099L141.290325,29.31435750742059L141.527925,9.721946665560996L141.765525,21.013375160445236L142.003125,30.707505435158488L142.24072500000003,21.812393886095087L142.47832499999998,9.25397161776571L142.715925,-9.919754790456631L142.953525,9.2667680896174L143.191125,-11.218064146229597L143.42872500000001,13.711737292812888L143.66632499999997,-8.704726113196243L143.903925,10.264664332082262L144.141525,15.69252255758268L144.379125,10.767595695658247L144.616725,27.863419656278918L144.85432500000002,29.171048929883376L145.091925,17.43348873293003L145.329525,16.383142459207377L145.567125,25.394207219966408L145.804725,25.53847745697983L146.042325,12.872436604745902L146.27992500000002,15.835963135072209L146.517525,24.98907788104333L146.755125,6.051256884176612L146.99272499999998,-3.9670346722767347L147.230325,13.299336488300634L147.467925,-13.753598887570256L147.705525,0.9358638452405446L147.943125,2.412950598810981L148.180725,16.781626870402615L148.41832499999998,13.533688491683552L148.655925,48.92086472278914L148.893525,27.09392625589816L149.131125,23.946328539647542L149.368725,27.589023426571213L149.606325,13.142477728167423L149.84392499999998,22.41270017856712L150.081525,8.577047190473614L150.319125,9.916933783733542L150.556725,-1.8012720214265234L150.79432500000001,14.329915042702083L151.03192499999997,15.596514389505236L151.269525,10.056997175369823L151.507125,18.064667055221882L151.744725,19.681116769241807L151.982325,26.374297405994447L152.21992500000002,14.641507871379343L152.45752499999998,23.619411103385616L152.695125,37.57190649258569L152.932725,24.39457618721809L153.170325,16.33453451511354L153.407925,-1.0236282492652282L153.64552500000002,13.221629169882846L153.88312499999998,2.831933490813675L154.120725,-1.3276616499537917L154.358325,3.3979366044770893L154.595925,-11.205510042871795L154.833525,-0.14726318683171535L155.071125,8.907607974017003L155.308725,13.07295137330155L155.546325,24.25314347953157L155.78392499999998,32.1136024932696L156.021525,2.259565401512405L156.259125,-7.202336020208566L156.496725,0.8334184406575514L156.734325,8.535730492177239L156.971925,24.334848581415013L157.20952499999999,30.011587404406995L157.447125,31.996407912093563L157.68472500000001,53.43013758614747L157.922325,49.619798957239105L158.15992500000002,36.34792221323482L158.397525,23.50654213072356L158.635125,30.09077540899214L158.872725,44.06670541484094L159.110325,40.35265111278853L159.347925,22.145055381564465L159.58552500000002,32.50044351504734L159.82312499999998,33.681778870144434L160.060725,28.09109739986197L160.298325,13.789422892692501L160.535925,-1.8592878004931657L160.773525,24.013202775258417L161.01112500000002,28.474198879046387L161.24872499999998,24.04467674965251L161.486325,10.286048497008812L161.723925,2.914336259313937L161.961525,12.818784047255035L162.199125,8.774473553353015L162.43672500000002,22.67275704867846L162.67432499999998,10.922533265315732L162.911925,-15.218094624143916L163.14952499999998,1.8625037727383673L163.387125,14.223493019201035L163.624725,26.32628331152061L163.862325,25.329493945245705L164.09992499999998,37.82972703103507L164.337525,40.6820810102877L164.57512499999999,33.942972564505965L164.812725,5.892346038703568L165.05032500000002,-3.4093816989951558L165.287925,10.138483219486865L165.52552500000002,22.76134748447481L165.763125,13.472432318460209L166.000725,13.123043896634126L166.238325,22.01692529631381L166.47592500000002,28.23671885001297L166.713525,15.18278886279049L166.95112500000002,20.717613681558266L167.18872499999998,33.14202888671766L167.426325,16.474281004255293L167.663925,1.7106079247704826L167.901525,-20.822071572913014L168.139125,-5.41784997429845L168.37672500000002,20.80254639597892L168.61432499999998,12.98855908758733L168.851925,14.714879071994385L169.089525,25.89129957931266L169.327125,20.267071414254275L169.564725,13.550738812443917L169.80232500000002,17.318466465249024L170.03992499999998,25.225586259707427L170.277525,46.60201783637878L170.515125,43.21823960737791L170.752725,38.07664806165144L170.990325,28.423331414766178L171.227925,17.21532931830907L171.46552499999999,18.67216399653608L171.703125,43.937543775700675L171.940725,8.58570100430435L172.178325,7.425381280365295L172.41592500000002,12.106793612668534L172.653525,21.44558892871712L172.891125,50.364620154454954L173.128725,39.21473797878902L173.366325,47.31321720116106L173.603925,55.51410336792131L173.84152500000002,61.74062230686144L174.079125,75.57874838411688L174.316725,61.44933470825282L174.55432499999998,60.46191794717269L174.791925,54.06933826830362L175.029525,55.64980549986983L175.267125,60.66969983603053L175.504725,53.42577823495165L175.74232500000002,38.93880261875371L175.97992499999998,47.80065253514359L176.217525,56.84367277108614L176.455125,55.278600668209705L176.692725,48.462603109259135L176.930325,47.29227775167149L177.16792500000003,48.741120687111554L177.40552499999998,42.85001329838296L177.643125,58.63631064847545L177.880725,36.41863300296926L178.118325,39.75860284900623L178.355925,30.123911709403725L178.59352499999997,33.56184702564222L178.831125,63.242447343164336L179.068725,60.03973806700724L179.306325,47.74701875131299L179.543925,51.93323846467915L179.78152500000002,62.58819828714083L180.019125,74.66607118617586L180.256725,42.46422838948819L180.494325,25.71668924758427L180.731925,48.47154883465924L180.969525,58.859490628570846L181.20712500000002,13.774550888258537L181.444725,46.22293365795511L181.682325,44.10472490866439L181.919925,56.31622094797764L182.157525,57.88139982156559L182.395125,52.48261359015665L182.632725,53.89113065409399L182.870325,75.28637110078972L183.107925,76.75372428825283L183.34552499999998,76.21291048406036L183.583125,73.4300912126609L183.820725,46.98500902482122L184.058325,65.45780111766805L184.295925,63.63522695948849L184.533525,68.0345221784721L184.77112499999998,38.94623531264128L185.008725,39.392999259802075L185.246325,15.88436726421458L185.483925,42.30327660852873L185.721525,27.463869351233267L185.95912500000003,52.861655530185615L186.196725,60.533268187553354L186.434325,30.412279793090008L186.671925,28.126792614737965L186.909525,50.64742914939712L187.14712500000002,42.45734004242096L187.38472499999997,58.7079966032279L187.622325,48.983782336936734L187.859925,27.2853203132707L188.097525,53.791634310183404L188.335125,28.364694127776673L188.57272500000002,45.60462318222033L188.81032499999998,40.5455864093322L189.047925,24.56550405949066L189.285525,33.146075613477095L189.523125,30.842592112528248L189.760725,38.52560852307495L189.99832500000002,40.94596641662767L190.235925,44.203518522201286L190.473525,22.53500291054544L190.71112499999998,31.082718151877888L190.948725,50.922937010568724L191.186325,72.1226430007869L191.423925,70.97593072269682L191.661525,67.7911585641761L191.899125,80.05412104961431L192.13672499999998,73.31489450476859L192.374325,86.59492570008216L192.611925,93.98677254227029L192.849525,94.38867752258314L193.08712500000001,67.81862435244123L193.324725,66.89547207257709L193.562325,62.385199324100576L193.799925,58.56510279723567L194.03752500000002,58.76978967278338L194.275125,35.50002601756136L194.51272500000002,51.53751619664918L194.75032499999998,52.93995763465615L194.987925,58.92855850023936L195.225525,16.92731621958559L195.463125,25.02930405396866L195.700725,25.895707432381204L195.93832500000002,50.42271091776205L196.17592499999998,38.250892175657256L196.413525,25.60861056651036L196.651125,41.454228253793886L196.888725,40.552094243942975L197.126325,24.915109540807745L197.36392500000002,48.489951141151295L197.60152499999998,28.7175372207994L197.839125,44.395106251925334L198.07672499999998,61.86805392060088L198.314325,60.82838502180619L198.551925,59.97411551864173L198.789525,50.51168285285171L199.02712499999998,33.92537143116038L199.264725,35.57384382258756L199.50232499999998,31.454202126885882L199.739925,48.4570253122402L199.977525,54.39504793456509L200.215125,54.42400851351806L200.45272500000002,55.8241967747775L200.690325,57.31730335097516L200.927925,50.60769737446907L201.165525,49.69326425801478L201.40312500000002,39.733797096475534L201.640725,31.9911873717693L201.87832500000002,38.60018000083689L202.11592499999998,46.8676606699478L202.353525,71.80210740474766L202.591125,76.62214985951525L202.828725,48.247250593491856L203.066325,47.08623863664576L203.30392500000002,37.36293875420474L203.54152499999998,48.81411800530185L203.779125,58.45044938373543L204.016725,59.46922679134991L204.254325,57.58374844425193L204.491925,47.19530349433386L204.72952500000002,53.83007213548798L204.96712499999998,58.23345877573478L205.204725,51.54150521265819L205.442325,51.213835419261585L205.679925,67.49574975433595L205.917525,65.6646361803769L206.155125,62.6069842471138L206.39272499999998,48.17343651215963L206.630325,41.74117362674514L206.86792499999999,50.67282976215943L207.105525,29.566328065628973L207.34312500000001,55.23706363660207L207.580725,47.7078655264106L207.818325,55.9429496547377L208.055925,45.903531381733956L208.293525,33.23469695404038L208.531125,42.64967351131558L208.76872500000002,39.617667517897985L209.006325,57.465132346851135L209.243925,56.99587745533535L209.481525,79.45390668153453L209.719125,55.51596614503675L209.956725,74.80163580646403L210.194325,66.66796123665742L210.431925,59.06054353921914L210.66952500000002,45.6998654457488L210.90712499999998,61.8058555952246L211.144725,66.36072748491377L211.382325,57.03245211594826L211.619925,54.73887465568499L211.857525,58.24098221563568L212.09512500000002,50.58573281826537L212.33272499999998,51.29336560206786L212.570325,65.54607027234935L212.807925,58.61787419396025L213.045525,63.410827510818145L213.283125,61.86928179259954L213.52072500000003,66.0146686200054L213.75832499999999,78.9498162108909L213.995925,83.48434167930986L214.233525,57.08917037146988L214.471125,73.78657455343627L214.70872500000002,87.45410560428273L214.946325,71.45540841535234L215.183925,71.95840188532374L215.421525,66.46006834508559L215.659125,65.77304562927235L215.896725,50.8413025081214L216.13432500000002,34.43043020209015L216.371925,55.38989816014175L216.609525,41.57690530163568L216.847125,58.83273230876042L217.084725,44.295605271372295L217.322325,55.93139903504437L217.55992500000002,59.148554134917966L217.797525,69.06842876983845L218.035125,75.51970368134874L218.27272499999998,60.18473653102654L218.510325,64.69664862417025L218.747925,61.64207713005648L218.985525,58.08082153914992L219.223125,57.78781642626895L219.460725,43.36136290298604L219.69832499999998,49.993249447345946L219.935925,54.6253779239656L220.173525,68.62079967104604L220.411125,49.323388916511604L220.648725,54.68439793324028L220.88632500000003,58.976525348835494L221.12392499999999,55.17549737040996L221.361525,68.0289957528003L221.599125,64.90906470445918L221.836725,61.03970848378417L222.07432500000002,48.923172876379155L222.31192499999997,47.18450502861018L222.549525,51.21161564772412L222.787125,39.60769972752583L223.024725,45.551599589294504L223.262325,47.19736365912734L223.49992500000002,37.19914853436775L223.73752499999998,37.92222466784532L223.975125,60.48106976181951L224.212725,66.75661060709172L224.450325,73.28755894203033L224.687925,61.07331544299352L224.92552500000002,63.46286947412944L225.163125,71.31131426225296L225.400725,72.25605997679745L225.63832499999998,28.188791063853795L225.875925,47.57330067997893L226.113525,57.974840955212024L226.351125,50.11876108424323L226.588725,40.52685326442992L226.826325,48.100486372545625L227.06392499999998,42.734511745752066L227.301525,51.422479053009255L227.539125,43.46012805680556L227.776725,52.28037429519568L228.014325,58.60963024100505L228.251925,63.866820397382035L228.489525,63.17998865787491L228.727125,63.45929410583359L228.96472500000002,59.59367424960881L229.202325,49.59201066920727L229.43992500000002,54.00052007374906L229.67752499999997,42.471794074800066L229.915125,44.38919389209735L230.152725,59.905522715816424L230.390325,66.64175054337751L230.627925,43.257705403801815L230.86552500000002,63.14459720061441L231.10312499999998,57.48428318981064L231.340725,59.58093449721971L231.578325,36.94699937055648L231.815925,61.08668920566723L232.053525,52.10109972061766L232.29112500000002,53.43175416848295L232.52872499999998,76.43196799553176L232.766325,76.51920683898574L233.003925,66.27727813950008L233.241525,54.60087326425806L233.479125,68.5676860030005L233.716725,58.12615613235096L233.95432499999998,67.14899979885254L234.191925,50.62976680709421L234.42952499999998,37.9910111259232L234.667125,26.33614078943789L234.904725,41.27616364032939L235.142325,27.039658861980353L235.37992500000001,52.03095736163389L235.617525,49.01076191698033L235.855125,59.56713306129686L236.092725,43.8143672062201L236.33032500000002,20.41934714594936L236.567925,15.024913234786913L236.80552500000002,16.12874885198081L237.043125,40.222039805630466L237.280725,30.133094847269657L237.518325,24.924778783361777L237.755925,7.4339060727997905L237.993525,25.4406833575712L238.23112500000002,26.641885145100755L238.46872499999998,29.936172753727107L238.706325,41.47719903001528L238.943925,52.62707521245485L239.181525,59.08653275803092L239.419125,46.29163085203586L239.65672500000002,27.629016141779502L239.89432499999998,12.129365154517053L240.131925,19.692202426043554L240.369525,41.361414619513816L240.607125,60.355128849483606L240.844725,41.55995465413952L241.08232500000003,61.93388945915038L241.31992499999998,65.74614038104454L241.557525,36.99703435918475L241.79512499999998,14.792489104394834L242.032725,22.058305962636904L242.270325,35.44448878591546L242.507925,41.20992478266529L242.745525,31.647698489041165L242.983125,27.98458497954072L243.220725,42.572522993282455L243.458325,75.67814950569232L243.69592500000002,69.61378957285737L243.933525,62.82543520204773L244.171125,43.04213846567799L244.408725,55.25614362663148L244.646325,49.98558721764557L244.883925,33.99382863337003L245.12152500000002,37.91960564391334L245.359125,32.93848096412332L245.596725,50.38470374791966L245.83432499999998,66.15321690986046L246.071925,56.984767515358264L246.309525,61.970027175881626L246.547125,59.46834325830428L246.784725,70.64311415775789L247.02232500000002,51.573891672437405L247.25992499999998,73.1662094173501L247.497525,77.86313652263105L247.735125,80.10512091079963L247.972725,56.636510046479785L248.210325,50.775393266771836L248.44792500000003,64.9279969628421L248.68552499999998,38.349899480487984L248.923125,40.264369116075486L249.16072499999999,47.6357059752033L249.398325,55.784418376788636L249.63592500000001,52.06948149552252L249.873525,64.39845973064685L250.111125,61.80886750505478L250.348725,54.6470369085835L250.586325,47.1617921979328L250.823925,62.10683977153501L251.06152500000002,72.91761948792102L251.299125,77.02257807331063L251.536725,63.42956246898636L251.774325,64.26203494250414L252.011925,63.916464584944485L252.249525,49.343239298191385L252.48712500000002,62.10972079280618L252.724725,73.5339308479047L252.962325,85.91970746707615L253.19992499999998,71.84075677191237L253.437525,79.33414156314741L253.675125,68.27353181288845L253.912725,49.268677551624414L254.150325,44.43412085319195L254.387925,34.772973684139856L254.62552499999998,51.4469885077086L254.863125,38.02040781851652L255.100725,48.40195940500125L255.338325,45.604197648558774" style="fill: none;" fill="none"></path></g></g></g></g><g opacity="0.2"><g><g><g><path stroke="rgb(255, 112, 67)" stroke-width="2px" d="M23.678325,116.59798030555247L23.915925,112.94889615972838L24.153525,138.49251448611417L24.391125,107.95540218055247L24.628725,118.42252604166666L24.866325000000003,133.787109375L25.103925,143.58203198264044L25.341525,140.12499853471914L25.579125,141.66145906597376L25.816724999999998,138.68456884721914L26.054325,123.22395833333334L26.291925000000003,154.62532625347376L26.529525,141.1813158368071L26.767125,133.97916739930707L27.004725,119.67089770485957L27.242324999999997,139.45280094444752L27.479924999999998,151.93652307117978L27.717525000000002,152.5126953125L27.955125000000002,155.10546948264042L28.192725,161.92350278732678L28.430325,103.5380859375L28.667925,139.45280094444752L28.905524999999997,142.33366031944752L29.143125,146.36686234548688L29.380725,157.79427083333334L29.618325,130.7141919756929L29.855925,161.05924442534644L30.093525,153.85709598784646L30.331124999999997,88.36555696527162L30.568725,151.84049405902624L30.806325,142.33366031944752L31.043925,142.62174552430707L31.281525,155.20149666319293L31.519125,135.99576749652624L31.756725000000003,138.1083984375L31.994325,156.54589917014044L32.231925000000004,146.17480615278086L32.469525,167.39713541666666L32.707125,151.64843786632022L32.944725,128.69759187847376L33.182325,168.0693357543399L33.419925,162.8837892456601L33.657525,145.69466292361417L33.895125,154.04915401215356L34.132725,141.46940104166666L34.370325,156.44987015798688L34.607925,135.51562426735958L34.845524999999995,157.89029984548688L35.083125,154.52929724132022L35.320725,160.57910119617978L35.558324999999996,150.59212239583331L35.795925000000004,167.2050783081601L36.033525,157.12206957985958L36.271125,165.86067671701312L36.508725,156.35384114583334L36.746325,154.04915401215356L36.983925,137.91634041319293L37.221525,170.37402334591997L37.459125,157.89029984548688L37.696724999999994,162.78776023350656L37.934325,159.23470052083331L38.171925,166.0527347413202L38.409525,165.09244828298688L38.647125,131.0983080243071L38.884724999999996,151.072265625L39.122325000000004,131.9625636388858L39.359925000000004,127.35318937152624L39.597525,160.57910119617978L39.835125000000005,147.51920499652624L40.072725,163.94010380034646L40.310325,162.97981734201312L40.547925,129.56184749305248L40.785525,162.30761700433987L41.023125,151.26432364930707L41.260725,155.29752567534646L41.498325,170.18196623741338L41.735924999999995,165.38053348784644L41.973525,120.72721500694752L42.211125,167.97330765798688L42.448724999999996,160.29101599132022L42.686325000000004,156.35384114583334L42.923925,161.7314456788202L43.161525,163.65201859548688L43.399125,162.78776023350656L43.636725,148.7675784913202L43.874325000000006,171.71842447916666L44.111925,158.75455729166666L44.349525,151.93652307117978L44.587125,166.24479184982678L44.824725,134.74739583333334L45.062325,157.89029984548688L45.299925,158.4664720868071L45.537525,156.25781213367978L45.775124999999996,159.90690177430707L46.012725,149.34375073264042L46.250325000000004,136.09179834028086L46.487925,140.50911458333334L46.725525000000005,138.78059969097376L46.963125,155.58561271180707L47.200725,167.49316442882022L47.438325,148.7675784913202L47.675925,153.66503979514042L47.913525,147.42317781597376L48.151125,156.54589917014044L48.388725,156.25781213367978L48.626324999999994,159.71484375L48.863925,145.1184888506929L49.101525,156.54589917014044L49.339124999999996,162.30761700433987L49.576725,144.83040364583334L49.814325,168.0693357543399L50.051925000000004,127.44922021528085L50.289525,138.97265771528083L50.527125,156.44987015798688L50.764725000000006,135.4195970868071L51.002325,149.53580692534646L51.239925,154.04915401215356L51.477525,130.23404874652624L51.715125,159.13867150867978L51.952725,147.13509077951312L52.190325,159.90690177430707L52.427925,154.81738244617978L52.665524999999995,163.07584635416666L52.903125,145.69466292361417L53.140725,123.03190030902624L53.378325,151.26432364930707L53.615925000000004,125.33658927430709L53.853525,160.00292895485958L54.091125,160.38704500347376L54.328725,144.73437646528086L54.566325,163.07584635416666L54.803925,169.02962221267322L55.041525,157.31412760416666L55.279125,141.1813158368071L55.516724999999994,119.09472729514042L55.754325,152.99283854166666L55.991925,154.91341145833331L56.229525,122.55175707985958L56.467125,162.595703125L56.704724999999996,116.69401114930709L56.942325000000004,139.45280094444752L57.179925,118.23046801735958L57.417525,123.41601635764042L57.655125000000005,144.15820239235958L57.892725,120.15104093402624L58.130325,140.6051417638858L58.367925,149.15169270833334L58.605525,136.8600267743071L58.843125,141.37337386111417L59.080725,119.67089770485957L59.318325,118.42252604166666L59.555924999999995,121.20735823611419L59.793525,140.6051417638858L60.031125,54.275387694438294L60.268724999999996,137.53222802778086L60.506325000000004,130.23404874652624L60.743925,104.30631803472838L60.981525,157.4101566163202L61.219125,131.00227718055248L61.456725,138.20442561805248L61.694325000000006,147.80729203298688L61.931925,137.62825520833331L62.169525,143.29394677778083L62.407125,124.08821761111417L62.644725,140.02897135416666L62.882325,85.29264322916667L63.119925,88.46159147222836L63.357525,100.08105615278085L63.595124999999996,111.41243196527162L63.832725,84.7164728194475L64.070325,76.0738946944475L64.307925,71.65657845139503L64.545525,80.10709488888581L64.783125,100.3691376944383L65.020725,135.32356624305248L65.258325,75.20963541666666L65.495925,116.88606917361419L65.733525,89.70995947221915L65.971125,139.7408861493071L66.208725,115.15755061805248L66.446325,117.07812353471914L66.683925,89.70995947221915L66.921525,120.53515698264043L67.159125,119.2867853194475L67.396725,145.1184888506929L67.634325,129.65787833680707L67.871925,127.16113134721915L68.10952499999999,127.16113134721915L68.347125,123.6080743819475L68.584725,150.78418042014042L68.82232499999999,155.20149666319293L69.059925,59.26888167361418L69.297525,106.4189453125L69.535125,130.33007959028083L69.77272500000001,104.40234521528085L70.010325,107.66732063889502L70.247925,140.9892578125L70.48552500000001,103.92220198611419L70.723125,143.77409000694752L70.960725,105.17056998610497L71.19832500000001,119.95898290971915L71.435925,139.06868489583334L71.673525,144.0621752118071L71.911125,96.81608072916666L72.148725,97.58431282639503L72.386325,106.03482926388581L72.623925,128.50553385416666L72.861525,134.36327978471914L73.099125,109.97200227777164L73.336725,93.1669892569383L73.57432499999999,125.04850406944752L73.811925,99.88899446527161L74.049525,97.29622395833334L74.28712499999999,101.52148584028085L74.524725,72.52083040277162L74.762325,104.11425634721914L74.99992499999999,107.76334781944752L75.237525,128.12141780555248L75.475125,135.80370947221914L75.71272499999999,153.56901078298688L75.95032499999999,141.27734301735956L76.187925,124.66438802083333L76.42552500000001,114.38932584722836L76.663125,127.35318937152624L76.90072500000001,142.52571468055248L77.13832500000001,138.78059969097376L77.375925,118.32649886111419L77.613525,149.15169270833334L77.85112500000001,137.05208479861417L78.088725,121.11132739235957L78.326325,144.54231844097376L78.56392500000001,141.85351709028086L78.801525,125.72070165971914L79.039125,146.36686234548688L79.276725,130.13802156597376L79.514325,140.89323063194752L79.751925,138.1083984375L79.989525,145.21451969444752L80.227125,133.59505135069293L80.464725,118.42252604166666L80.702325,78.66666520138583L80.939925,131.00227718055248L81.177525,152.41666630034644L81.415125,132.63476489235956L81.65272499999999,145.59863207985956L81.890325,143.96614436805248L82.127925,151.36035082985958L82.36552499999999,128.50553385416666L82.603125,108.43554540971914L82.840725,129.08170426388583L83.07832499999999,149.34375073264042L83.315925,114.48535302778085L83.55352500000001,162.40364601649344L83.791125,118.90266927083334L84.028725,107.37923177083333L84.26632500000001,153.28092374652624L84.503925,151.74446687847376L84.741525,145.98274812847376L84.97912500000001,152.80078051735958L85.216725,140.89323063194752L85.454325,156.54589917014044L85.691925,145.5026048993071L85.929525,102.09765625L86.167125,131.48242040971914L86.404725,124.95247322569291L86.642325,142.71777270485958L86.879925,145.310546875L87.117525,131.86653645833334L87.35512499999999,145.69466292361417L87.592725,135.32356624305248L87.830325,139.64485530555248L88.06792499999999,111.41243196527162L88.305525,139.06868489583334L88.543125,141.85351709028086L88.780725,124.95247322569291L89.01832499999999,120.91926936805247L89.255925,136.76399593055248L89.493525,160.77115922048688L89.73112499999999,136.57194156944752L89.968725,121.97558667014043L90.206325,96.23991031944752L90.443925,118.61458406597374L90.68152500000001,133.787109375L90.91912500000001,148.57552046701312L91.156725,142.23762947569293L91.394325,131.67447843402624L91.63192500000001,149.24772172048688L91.869525,73.57715136806169L92.107125,139.26074292014044L92.34472500000001,95.95182145138583L92.582325,157.50618562847376L92.819925,106.3229181319475L93.057525,139.548828125L93.295125,152.41666630034644L93.532725,98.25651041666664L93.770325,123.99218676735957L94.007925,111.89257519443831L94.245525,111.98860970139502L94.483125,134.45931062847376L94.720725,108.81966145833333L94.958325,81.54752457638581L95.195925,126.77701896180709L95.43352499999999,144.35026041666666L95.671125,134.65136865278083L95.908725,144.44628759721914L96.14632499999999,112.66080729166667L96.383925,171.91048158767325L96.621525,155.10546948264042L96.85912499999999,131.77050927778086L97.09672499999999,110.6442071944475L97.334325,126.96907698611419L97.571925,129.17773510764042L97.809525,140.89323063194752L98.04712500000001,130.90625L98.284725,152.22461010764044L98.522325,159.52278572569293L98.75992500000001,135.70768229166666L98.997525,131.86653645833334L99.235125,155.58561271180707L99.472725,109.49185904860497L99.71032500000001,135.51562426735958L99.947925,153.7610669756929L100.185525,128.88964990278086L100.42312500000001,132.25065250694752L100.660725,133.49902417014042L100.898325,118.99869645138581L101.13592499999999,145.79069010416666L101.373525,142.33366031944752L101.611125,95.85579427083333L101.848725,132.05859448264042L102.086325,134.45931062847376L102.323925,140.41308740278086L102.561525,129.84993636111417L102.79912499999999,132.3466796875L103.036725,96.62402636806168L103.274325,155.58561271180707L103.51192499999999,94.41536458333333L103.749525,109.0117158194383L103.987125,127.25716219097374L104.22472499999999,136.37988354514042L104.462325,151.36035082985958L104.69992500000001,104.59439957638583L104.937525,137.82031323264042L105.175125,133.88313655555248L105.41272500000001,113.23697770138583L105.650325,92.20670279860497L105.887925,135.89974031597376L106.12552500000001,61.66959781944752L106.363125,84.62044563889503L106.600725,110.06803678472836L106.838325,97.58431282639503L107.075925,98.25651041666664L107.313525,111.89257519443831L107.551125,60.0371064444383L107.788725,31.900710284709923L108.026325,99.60091292361416L108.263925,84.8125L108.501525,116.98209635416667L108.739125,58.596676756938294L108.976725,106.4189453125L109.21432499999999,41.50357486804325L109.451925,81.35547021528086L109.689525,90.47819156944752L109.92712499999999,59.74902490278085L110.164725,53.123046874999986L110.402325,53.6992246111234L110.63992499999999,96.0478486319383L110.87752499999999,33.34113997220993L111.115125,96.72005354861419L111.35272499999999,11.350585937499993L111.59032499999999,112.56478011111419L111.82792500000001,55.90787906944751L112.06552500000001,48.41764909029007L112.303125,125.91275968402623L112.54072500000001,38.81478450695674L112.77832500000001,72.52083040277162L113.015925,-22.73958333333335L113.253525,76.26594905555248L113.49112500000001,30.076171875L113.728725,35.54980175693829L113.966325,63.39810904860495L114.20392500000001,68.10351415971914L114.441525,46.016932944456734L114.679125,59.17285449306169L114.916725,87.88541373610497L115.154325,102.57779947916664L115.391925,23.258132159709923L115.629525,72.13672168056169L115.867125,47.745436847209916L116.104725,122.55175707985958L116.342325,48.801757812499986L116.57992499999999,131.38639322916666L116.817525,92.49479166666666L117.055125,43.0400390625L117.29272499999999,24.41048763195673L117.530325,44.86457747220992L117.767925,93.64713248610495L118.00552499999999,90.19010270138581L118.243125,99.02474251389502L118.480725,49.18586653470992L118.718325,62.725911458333336L118.955925,117.7503247881929L119.19352500000001,69.06380061805247L119.431125,61.57357063889503L119.668725,105.07454280555248L119.90632500000001,74.34537613888583L120.143925,80.4912109375L120.381525,67.33528938889503L120.619125,108.05142936110497L120.856725,57.924479166666664L121.094325,52.45084928472837L121.331925,49.569989909728356L121.569525,93.07096207638581L121.807125,98.44856477777162L122.044725,62.43782259027162L122.28232500000001,68.39160302778086L122.519925,-33.494788736104994L122.757525,92.01464843749999L122.99512499999999,22.201825847228353L123.232725,11.350585937499993L123.470325,36.894211590290055L123.70792499999999,69.44791666666666L123.945525,55.61979020138581L124.183125,19.609055340290055L124.420725,67.62337093055248L124.65832499999999,54.94759261111418L124.895925,50.818365236123405L125.133525,35.261712888876595L125.37112499999999,101.04134261111419L125.608725,73.57715136806169L125.84632500000001,-18.898437500000025L126.083925,87.21321614583333L126.32152500000001,83.75618636111417L126.55912500000001,59.46093603471914L126.796725,-12.656575520833325L127.034325,4.820635090271634L127.27192500000001,113.52506656944752L127.509525,129.75390551735958L127.747125,22.105791340271633L127.98472500000001,61.957679361104965L128.222325,19.609055340290055L128.459925,93.83919417361417L128.69752499999998,67.33528938889503L128.935125,21.145504881938283L129.17272499999999,13.84733659029007L129.410325,28.73177669445673L129.64792500000001,40.063145180543266L129.885525,52.64290364583333L130.123125,12.406906902790062L130.360725,85.58073209722836L130.59832500000002,63.30208186805248L130.835925,11.83072916666667L131.073525,-25.812497069438304L131.311125,-5.742515951395048L131.548725,80.77929980556169L131.786325,56.00390625L132.02392500000002,-2.957676430543255L132.261525,73.09700813889502L132.499125,23.35416666666666L132.736725,83.56412467360497L132.974325,19.32096647222836L133.211925,51.87467154860496L133.449525,73.2890625L133.687125,23.64225553472836L133.924725,55.13964697221914L134.162325,0.5953805347283528L134.399925,99.12076969444752L134.637525,7.31738574306169L134.875125,-8.8154296875L135.11272499999998,-2.2854788402716406L135.350325,60.22916813194751L135.587925,25.082685222228367L135.825525,37.374354819456734L136.063125,16.728195965290062L136.300725,49.954098631938294L136.538325,19.32096647222836L136.775925,50.53027636806169L137.01352500000002,4.532546222209917L137.251125,-15.34538053472836L137.488725,29.596028645833325L137.726325,43.3281279305617L137.963925,5.780921548604965L138.201525,14.90364290277162L138.439125,20.953450520833325L138.676725,14.231445312499988L138.914325,33.82128320137659L139.151925,-14.673182944456745L139.389525,41.88769824306169L139.62712499999998,40.83137727777162L139.864725,24.41048763195673L140.102325,68.29557584722836L140.339925,-1.1331380208333508L140.577525,17.784502277771633L140.81512500000002,65.99088688194752L141.05272499999998,31.612636069456727L141.290325,18.360680013895028L141.527925,-19.66666959722836L141.765525,37.95051790277163L142.003125,45.248700847228356L142.24072500000003,8.4697265625L142.47832499999998,-9.583661784728372L142.715925,-38.680344402790084L142.953525,38.04655240972836L143.191125,-41.945312500000014L143.42872500000001,51.10643945137659L143.66632499999997,-42.32942122220993L143.903925,38.71875L144.141525,23.834309895833318L144.379125,3.3802054027716277L144.616725,53.50715559720992L144.85432500000002,31.13249284029007L145.091925,-0.1728515625L145.329525,14.8076230486234L145.567125,38.91080436110496L145.804725,25.7548828125L146.042325,-6.126624673604965L146.27992500000002,20.281252930561692L146.517525,38.71875L146.755125,-22.355474611123395L146.99272499999998,-18.994472006956745L147.230325,39.19889322916666L147.467925,-54.333001951376616L147.705525,22.970057944456727L147.943125,4.628580729166655L148.180725,38.33464127779006L148.41832499999998,8.661780923604958L148.655925,102.0016290694475L148.893525,-5.64648144443829L149.131125,19.224931965271622L149.368725,33.053065756956734L149.606325,-8.527340819438303L149.84392499999998,36.318033854166664L150.081525,-12.17643229166669L150.319125,11.926763673623388L150.556725,-19.37858072916666L150.79432500000001,38.52669563889502L151.03192499999997,17.496413409709916L151.269525,1.7477213541666623L151.507125,30.076171875L151.744725,22.105791340271633L151.982325,36.4140683611234L152.21992500000002,-2.957676430543255L152.45752499999998,37.086265951395035L152.695125,58.500649576385804L152.932725,4.628580729166655L153.170325,4.244472006956738L153.407925,-27.06087239583335L153.64552500000002,34.58951529860496L153.88312499999998,-12.752610027790082L154.120725,-7.567054361104992L154.358325,10.4863339861234L154.595925,-33.110680013895035L154.833525,16.440107097228367L155.071125,22.48991471529007L155.308725,19.32096647222836L155.546325,41.0234316388766L155.78392499999998,43.904291013876595L156.021525,-42.521490236123405L156.259125,-21.395188152790084L156.496725,12.88705013195674L156.734325,20.08919856945673L156.971925,48.03352571527164L157.20952499999999,38.52669563889502L157.447125,34.97363867362339L157.68472500000001,85.58073209722836L157.922325,43.904291013876595L158.15992500000002,16.440107097228367L158.397525,4.244472006956738L158.635125,39.96712532639503L158.872725,65.03060042361419L159.110325,34.781569659709916L159.347925,-5.1663382152716535L159.58552500000002,48.03352571527164L159.82312499999998,35.45378190279007L160.060725,19.705075194438297L160.298325,-7.66308886806171L160.535925,-25.332353840271626L160.773525,62.821938638885804L161.01112500000002,35.16569303472837L161.24872499999998,17.400393555561696L161.486325,-10.351893881956745L161.723925,-8.143232097228385L161.961525,27.67545572916666L162.199125,2.7080078124999933L162.43672500000002,43.52018229166666L162.67432499999998,-6.70280240972836L162.911925,-54.429036458333336L163.14952499999998,27.483401368061703L163.387125,32.764976888895035L163.624725,44.480468749999986L163.862325,23.834309895833318L164.09992499999998,56.58007665971915L164.337525,44.960611979166664L164.57512499999999,23.834309895833318L164.812725,-36.18359375000003L165.05032500000002,-17.36197330554328L165.287925,30.460280597209916L165.52552500000002,41.695643881956734L165.763125,-0.4609404305616971L166.000725,12.598961263895022L166.238325,35.35774739583333L166.47592500000002,37.56640918056169L166.713525,-4.398106118043281L166.95112500000002,29.01985090970993L167.18872499999998,51.77865169445674L167.426325,-8.527340819438303L167.901525,-54.621090819438315L168.139125,17.688482423623395L168.37672500000002,60.13314095139502L168.61432499999998,1.267578124999987L168.851925,17.304359048604958L169.089525,42.65593034029006L169.327125,11.83072916666667L169.564725,3.476239909728366L169.80232500000002,22.970057944456727L170.03992499999998,37.086265951395035L170.277525,78.66666520138583L170.515125,38.14257226387659L170.752725,30.364260743061696L170.990325,13.94335644443829L171.227925,0.4033261736233942L171.46552499999999,20.857416013876588L171.703125,81.83561344444752L171.940725,-44.44206315279007L172.178325,5.684901694456725L172.41592500000002,19.1289121111234L172.653525,35.45378190279007L172.891125,93.7431669930617L173.128725,22.48991471529007L173.366325,59.46093603471914L173.603925,67.81543261806169L173.84152500000002,71.08040071527162L174.079125,96.33593749999999L174.316725,40.25521419445673L174.55432499999998,58.98079280555248L174.791925,44.480468749999986L175.029525,58.020506347219154L175.267125,68.19954134027162L175.504725,42.55989583333332L175.74232500000002,17.208339194456737L175.97992499999998,61.09342740972837L176.217525,70.40820312499999L176.455125,52.93099251389503L176.692725,38.23860677083332L176.930325,45.536789715290055L177.16792500000003,50.91438509027163L177.40552499999998,34.01335221529006L177.643125,82.31575667361419L177.880725,3.0921165347099304L178.118325,44.768557618061706L178.355925,15.671874999999993L178.59352499999997,38.71875L178.831125,107.76334781944752L179.068725,55.23567415277163L179.306325,29.307939777771626L179.543925,58.212568034728356L179.78152500000002,78.57063802083333L180.019125,92.78288053472836L180.256725,-5.838535805543268L180.494325,0.5953805347283528L180.731925,82.60383821527164L180.969525,74.4414033194383L181.20712500000002,-53.852858722209945L181.444725,94.8955078125L181.682325,40.927411784728356L181.919925,74.63346500694752L182.157525,60.22916813194751L182.395125,44.384434243043266L182.632725,56.00390625L182.870325,107.37923177083333L183.107925,78.95475406944752L183.34552499999998,75.40168977777162L183.583125,69.25586230556169L183.820725,7.31738574306169L184.058325,93.1669892569383L184.295925,60.90136572221915L184.533525,74.63346500694752L184.77112499999998,-4.6861949861049785L185.008725,40.063145180543266L185.246325,-19.37858072916666L185.483925,81.931640625L185.721525,5.20475846529007L185.95912500000003,90.95833479861416L186.196725,72.04068717360495L186.434325,-14.769202798604965L186.671925,24.69856184720993L186.909525,84.42838395138581L187.14712500000002,30.172206381956737L187.38472499999997,83.0839814444383L187.622325,34.3974609375L187.859925,-5.262372722228372L188.097525,93.55110530555248L188.335125,-9.77571614583335L188.57272500000002,71.46451676388581L188.81032499999998,32.95703124999999L189.047925,0.5953805347283528L189.285525,46.016932944456734L189.523125,27.387366861104965L189.760725,50.050133138895035L189.99832500000002,44.57650325695673L190.235925,49.089846680561706L190.473525,-9.96777050693829L190.71112499999998,43.904291013876595L190.948725,80.68326529860495L191.186325,103.92220198611419L191.423925,69.25586230556169L191.661525,63.014000326395035L191.899125,98.44856477777162L192.13672499999998,63.20605468749999L192.374325,106.51497249305248L192.611925,105.07454280555248L192.849525,94.99153499305247L193.08712500000001,27.96354459722836L193.324725,65.51074365278085L193.562325,55.61979020138581L193.799925,52.83495800693829L194.03752500000002,59.07681998610495L194.275125,0.5953805347283528L194.51272500000002,75.59375146528085L194.75032499999998,55.04361979166667L194.987925,67.91145979861417L195.225525,-46.074547201395035L195.463125,37.18228580554325L195.700725,27.195312499999986L195.93832500000002,87.21321614583333L196.17592499999998,19.993164062499993L196.413525,6.645188152790056L196.651125,65.22265478471914L196.888725,39.19889322916666L197.126325,1.4596324861049652L197.36392500000002,83.85221354166666L197.60152499999998,-0.9410836597283725L197.839125,67.91145979861417L198.07672499999998,88.07747542361417L198.314325,59.26888167361418L198.551925,58.692711263895035L198.789525,36.318033854166664L199.02712499999998,9.045904298623395L199.264725,38.04655240972836L199.50232499999998,25.274739583333325L199.739925,73.96126009027164L199.977525,63.30208186805248L200.215125,54.4674493819475L200.45272500000002,57.924479166666664L200.690325,59.55696321527163L200.927925,40.54328840970992L201.165525,48.32161458333333L201.40312500000002,24.794596354166668L201.640725,20.37727278470993L201.87832500000002,48.51366894443829L202.11592499999998,59.26888167361418L202.353525,109.20377750694752L202.591125,83.85221354166666L202.828725,5.684901694456725L203.066325,45.3447207013766L203.30392500000002,22.77798893054325L203.54152499999998,65.99088688194752L203.779125,72.90494645138581L204.016725,60.99739290277164L204.254325,54.75553092360495L204.491925,31.612636069456727L204.72952500000002,63.78222509721914L204.96712499999998,64.83853873610497L205.204725,41.50357486804325L205.442325,50.72233072916667L205.679925,91.91862125694752L205.917525,62.917965819438294L206.155125,58.020506347219154L206.39272499999998,26.523114909728353L206.630325,32.0927792986234L206.86792499999999,64.07031396528086L207.105525,-2.0934244791666625L207.34312500000001,93.7431669930617L207.580725,36.4140683611234L207.818325,68.29557584722836L208.055925,30.844403972228374L208.293525,14.231445312499988L208.531125,56.77213834722837L208.76872500000002,35.06965852777164L209.006325,84.23632959028085L209.243925,56.2919951180617L209.481525,113.14095052083333L209.719125,19.609055340290055L209.956725,103.73014029860497L210.194325,54.4674493819475L210.431925,47.6494169930617L210.66952500000002,25.658848305543263L210.90712499999998,85.96484081943831L211.144725,73.19303531944752L211.382325,43.0400390625L211.619925,51.29850846529006L211.857525,63.49414355556169L212.09512500000002,39.102858722209916L212.33272499999998,52.35481477777164L212.570325,86.92512727777164L212.807925,48.225580076376595L213.045525,70.60025748610497L213.283125,59.55696321527163L213.52072500000003,72.23274886111417L213.75832499999999,98.35253759721915L213.995925,90.28612988193831L214.233525,17.496413409709916L214.471125,98.83268082638581L214.70872500000002,107.95540218055247L214.946325,47.45736263195674L215.183925,72.71289209028086L215.421525,58.212568034728356L215.659125,64.74251155555247L215.896725,28.443687826395035L216.13432500000002,9.814121743043248L216.371925,86.82910009721914L216.609525,20.857416013876588L216.847125,84.7164728194475L217.084725,22.48991471529007L217.322325,73.38508968055247L217.55992500000002,63.97428678472836L217.797525,83.94824072221915L218.035125,85.19661604861417L218.27272499999998,37.18228580554325L218.510325,71.46451676388581L218.747925,57.06021988888582L218.985525,52.73893815279007L219.223125,57.34830875694752L219.460725,21.721682618061696L219.69832499999998,59.94107926388581L219.935925,61.57357063889503L220.173525,89.61393229166664L220.411125,20.37727278470993L220.648725,62.725911458333336L220.88632500000003,65.41471647222838L221.12392499999999,49.47395540277162L221.361525,87.30924332638583L221.599125,60.22916813194751L221.836725,55.23567415277163L222.07432500000002,30.748369465271633L222.31192499999997,44.57650325695673L222.549525,57.25228157639503L222.787125,22.201825847228353L223.024725,54.4674493819475L223.262325,49.6660097638766L223.49992500000002,22.201825847228353L223.73752499999998,39.0068388680617L223.975125,94.31933740278086L224.212725,76.169921875L224.450325,83.0839814444383L224.687925,42.7519501944383L224.92552500000002,67.04720052083334L225.163125,83.0839814444383L225.400725,73.67317854861419L225.63832499999998,-37.91211230556171L225.875925,76.65006510416667L226.113525,73.57715136806169L226.351125,38.33464127779006L226.588725,26.138991534709916L226.826325,59.46093603471914L227.06392499999998,34.6855498055617L227.301525,64.45443001389502L227.539125,31.516601562499986L227.776725,65.51074365278085L228.014325,68.10351415971914L228.251925,71.7526056319475L228.489525,62.149741048614175L228.727125,63.87825227777163L228.96472500000002,53.79524446527162L229.202325,34.58951529860496L229.43992500000002,60.6132841805617L229.67752499999997,25.178705076376588L229.915125,47.26529361804326L230.152725,83.18001595139503L230.390325,76.74609228471914L230.627925,8.181637694438283L230.86552500000002,92.97493489583334L231.10312499999998,48.993812173604965L231.340725,62.725911458333336L231.578325,2.9960966805616907L231.815925,97.29622395833334L232.053525,38.62271549304326L232.29112500000002,55.42773584028085L232.52872499999998,110.93228873610495L232.766325,76.65006510416667L233.003925,50.91438509027163L233.241525,37.086265951395035L233.479125,89.51790511111417L233.716725,42.46386132637659L233.95432499999998,80.68326529860495L234.191925,25.850917319456737L234.42952499999998,19.03287760416666L234.667125,8.853835284709918L234.904725,63.68619791666667L235.142325,5.684901694456725L235.37992500000001,89.51790511111417L235.617525,44.480468749999986L235.855125,75.40168977777162L236.092725,20.18521842360495L236.33032500000002,-14.673182944456745L236.567925,6.9332623680432555L236.80552500000002,17.784502277771633L237.043125,76.36197623610495L237.280725,14.99967740972836L237.518325,17.1123046875L237.755925,-18.80240299304327L237.993525,52.45084928472837L238.23112500000002,28.443687826395035L238.46872499999998,34.87760416666666L238.706325,58.7887384444475L238.943925,69.35188948611419L239.181525,68.77571907639502L239.419125,27.09927799304325L239.65672500000002,-0.3649059236049783L239.89432499999998,-11.12011132637662L240.131925,31.036458333333332L240.369525,73.86523290971914L240.607125,88.8457001944383L240.844725,13.367193361123395L241.08232500000003,92.49479166666666L241.31992499999998,71.46451676388581L241.557525,-6.126624673604965L241.79512499999998,-18.51432877779007L242.032725,32.95703124999999L242.270325,55.52376302083332L242.507925,49.858078777790055L242.745525,17.304359048604958L242.983125,22.48991471529007L243.220725,64.45443001389502L243.458325,125.33658927430709L243.69592500000002,60.51724967360496L243.933525,52.64290364583333L244.171125,13.367193361123395L244.408725,73.57715136806169L244.646325,42.07975260416667L244.883925,10.006190756956725L245.12152500000002,43.80827115972837L245.359125,25.466793944438283L245.596725,76.55403792361417L245.83432499999998,89.80598665277162L246.071925,43.23209342360496L246.309525,69.44791666666666L246.547125,55.7158173819383L246.784725,87.4052705069383L247.02232500000002,22.970057944456727L247.25992499999998,105.55468603471915L247.497525,84.90852718055248L247.735125,83.46809749305248L247.972725,21.43359375L248.210325,41.98371809720993L248.44792500000003,86.15690250694752L248.68552499999998,-1.5172467430432681L248.923125,43.13607356945674L249.16072499999999,58.692711263895035L249.398325,68.00748697916667L249.63592500000001,46.497076173623405L249.873525,82.89192708333333L250.111125,57.924479166666664L250.348725,43.904291013876595L250.586325,35.93392513195673L250.823925,84.5244111319383L251.06152500000002,89.1337890625L251.299125,83.18001595139503L251.536725,43.0400390625L251.774325,65.51074365278085L252.011925,63.39810904860495L252.249525,27.483401368061703L252.48712500000002,81.25944303472836L252.724725,90.67024593055247L252.962325,104.49837239583333L253.19992499999998,50.72233072916667L253.437525,90.57421875L253.675125,51.6826171875L253.912725,20.761396159728367L254.150325,37.18228580554325L254.387925,20.281252930561692L254.62552499999998,76.45801074306169L254.863125,17.880536784728353L255.100725,63.97428678472836L255.338325,41.407555013895035" style="fill: none;" fill="none"></path></g></g></g></g></g></g><g transform="translate(51, 177)" clip-path="url(#clip_1)"><clipPath id="clip_1"><rect width="278" height="23"></rect></clipPath><g><g><line x1="0" y1="0" x2="0" y2="5" style="visibility: inherit;" fill="rgb(0, 0, 0)" stroke="rgb(204, 204, 204)" stroke-width="1px"></line><line x1="23.203125" y1="0" x2="23.203125" y2="5" style="visibility: inherit;" fill="rgb(0, 0, 0)" stroke="rgb(204, 204, 204)" stroke-width="1px"></line><line x1="46.40625" y1="0" x2="46.40625" y2="5" style="visibility: inherit;" fill="rgb(0, 0, 0)" stroke="rgb(204, 204, 204)" stroke-width="1px"></line><line x1="69.609375" y1="0" x2="69.609375" y2="5" style="visibility: inherit;" fill="rgb(0, 0, 0)" stroke="rgb(204, 204, 204)" stroke-width="1px"></line><line x1="92.8125" y1="0" x2="92.8125" y2="5" style="visibility: inherit;" fill="rgb(0, 0, 0)" stroke="rgb(204, 204, 204)" stroke-width="1px"></line><line x1="116.015625" y1="0" x2="116.015625" y2="5" style="visibility: inherit;" fill="rgb(0, 0, 0)" stroke="rgb(204, 204, 204)" stroke-width="1px"></line><line x1="139.21875" y1="0" x2="139.21875" y2="5" style="visibility: inherit;" fill="rgb(0, 0, 0)" stroke="rgb(204, 204, 204)" stroke-width="1px"></line><line x1="162.421875" y1="0" x2="162.421875" y2="5" style="visibility: inherit;" fill="rgb(0, 0, 0)" stroke="rgb(204, 204, 204)" stroke-width="1px"></line><line x1="185.625" y1="0" x2="185.625" y2="5" style="visibility: inherit;" fill="rgb(0, 0, 0)" stroke="rgb(204, 204, 204)" stroke-width="1px"></line><line x1="208.828125" y1="0" x2="208.828125" y2="5" style="visibility: inherit;" fill="rgb(0, 0, 0)" stroke="rgb(204, 204, 204)" stroke-width="1px"></line><line x1="232.03125" y1="0" x2="232.03125" y2="5" style="visibility: inherit;" fill="rgb(0, 0, 0)" stroke="rgb(204, 204, 204)" stroke-width="1px"></line><line x1="255.234375" y1="0" x2="255.234375" y2="5" style="visibility: inherit;" fill="rgb(0, 0, 0)" stroke="rgb(204, 204, 204)" stroke-width="1px"></line><line x1="278.4375" y1="0" x2="278.4375" y2="5" style="visibility: inherit;" fill="rgb(0, 0, 0)" stroke="rgb(204, 204, 204)" stroke-width="1px"></line></g><g transform="translate(0, 8)"><text x="0" y="0" dx="0em" dy="0.95em" style="text-anchor: middle; visibility: hidden; font-family: Roboto, sans-serif; font-size: 12px; font-weight: 200;" fill="rgb(33, 33, 33)" stroke="none" stroke-width="1px">-200k</text><text x="23.203125" y="0" dx="0em" dy="0.95em" style="text-anchor: middle; visibility: inherit; font-family: Roboto, sans-serif; font-size: 12px; font-weight: 200;" fill="rgb(33, 33, 33)" stroke="none" stroke-width="1px">0</text><text x="46.40625" y="0" dx="0em" dy="0.95em" style="text-anchor: middle; visibility: hidden; font-family: Roboto, sans-serif; font-size: 12px; font-weight: 200;" fill="rgb(33, 33, 33)" stroke="none" stroke-width="1px">200k</text><text x="69.609375" y="0" dx="0em" dy="0.95em" style="text-anchor: middle; visibility: inherit; font-family: Roboto, sans-serif; font-size: 12px; font-weight: 200;" fill="rgb(33, 33, 33)" stroke="none" stroke-width="1px">400k</text><text x="92.8125" y="0" dx="0em" dy="0.95em" style="text-anchor: middle; visibility: hidden; font-family: Roboto, sans-serif; font-size: 12px; font-weight: 200;" fill="rgb(33, 33, 33)" stroke="none" stroke-width="1px">600k</text><text x="116.015625" y="0" dx="0em" dy="0.95em" style="text-anchor: middle; visibility: inherit; font-family: Roboto, sans-serif; font-size: 12px; font-weight: 200;" fill="rgb(33, 33, 33)" stroke="none" stroke-width="1px">800k</text><text x="139.21875" y="0" dx="0em" dy="0.95em" style="text-anchor: middle; visibility: hidden; font-family: Roboto, sans-serif; font-size: 12px; font-weight: 200;" fill="rgb(33, 33, 33)" stroke="none" stroke-width="1px">1M</text><text x="162.421875" y="0" dx="0em" dy="0.95em" style="text-anchor: middle; visibility: inherit; font-family: Roboto, sans-serif; font-size: 12px; font-weight: 200;" fill="rgb(33, 33, 33)" stroke="none" stroke-width="1px">1.2M</text><text x="185.625" y="0" dx="0em" dy="0.95em" style="text-anchor: middle; visibility: hidden; font-family: Roboto, sans-serif; font-size: 12px; font-weight: 200;" fill="rgb(33, 33, 33)" stroke="none" stroke-width="1px">1.4M</text><text x="208.828125" y="0" dx="0em" dy="0.95em" style="text-anchor: middle; visibility: inherit; font-family: Roboto, sans-serif; font-size: 12px; font-weight: 200;" fill="rgb(33, 33, 33)" stroke="none" stroke-width="1px">1.6M</text><text x="232.03125" y="0" dx="0em" dy="0.95em" style="text-anchor: middle; visibility: hidden; font-family: Roboto, sans-serif; font-size: 12px; font-weight: 200;" fill="rgb(33, 33, 33)" stroke="none" stroke-width="1px">1.8M</text><text x="255.234375" y="0" dx="0em" dy="0.95em" style="text-anchor: middle; visibility: inherit; font-family: Roboto, sans-serif; font-size: 12px; font-weight: 200;" fill="rgb(33, 33, 33)" stroke="none" stroke-width="1px">2M</text><text x="278.4375" y="0" dx="0em" dy="0.95em" style="text-anchor: middle; visibility: hidden; font-family: Roboto, sans-serif; font-size: 12px; font-weight: 200;" fill="rgb(33, 33, 33)" stroke="none" stroke-width="1px">2.2M</text></g><line x1="0" y1="0" x2="278.4375" y2="0" fill="rgb(0, 0, 0)" stroke="rgb(204, 204, 204)" stroke-width="1px"></line></g></g></g></g></svg>