<svg viewBox="0 0 330 200" xmlns="http://www.w3.org/2000/svg"><g><g><g><g><g><line x1="61.953125" y1="177" x2="56.953125" y2="177" style="visibility: inherit;" fill="rgb(0, 0, 0)" stroke="rgb(204, 204, 204)" stroke-width="1px"></line><line x1="61.953125" y1="154.875" x2="56.953125" y2="154.875" style="visibility: inherit;" fill="rgb(0, 0, 0)" stroke="rgb(204, 204, 204)" stroke-width="1px"></line><line x1="61.953125" y1="132.75" x2="56.953125" y2="132.75" style="visibility: inherit;" fill="rgb(0, 0, 0)" stroke="rgb(204, 204, 204)" stroke-width="1px"></line><line x1="61.953125" y1="110.625" x2="56.953125" y2="110.625" style="visibility: inherit;" fill="rgb(0, 0, 0)" stroke="rgb(204, 204, 204)" stroke-width="1px"></line><line x1="61.953125" y1="88.5" x2="56.953125" y2="88.5" style="visibility: inherit;" fill="rgb(0, 0, 0)" stroke="rgb(204, 204, 204)" stroke-width="1px"></line><line x1="61.953125" y1="66.375" x2="56.953125" y2="66.375" style="visibility: inherit;" fill="rgb(0, 0, 0)" stroke="rgb(204, 204, 204)" stroke-width="1px"></line><line x1="61.953125" y1="44.25" x2="56.953125" y2="44.25" style="visibility: inherit;" fill="rgb(0, 0, 0)" stroke="rgb(204, 204, 204)" stroke-width="1px"></line><line x1="61.953125" y1="22.12499999999998" x2="56.953125" y2="22.12499999999998" style="visibility: inherit;" fill="rgb(0, 0, 0)" stroke="rgb(204, 204, 204)" stroke-width="1px"></line><line x1="61.953125" y1="0" x2="56.953125" y2="0" style="visibility: inherit;" fill="rgb(0, 0, 0)" stroke="rgb(204, 204, 204)" stroke-width="1px"></line></g><g transform="translate(51.953125, 0)"><text x="0" y="177" dx="0em" dy="0.3em" style="text-anchor: end; visibility: hidden; font-family: Roboto, sans-serif; font-size: 12px; font-weight: 200;" fill="rgb(33, 33, 33)" stroke="none" stroke-width="1px">0</text><text x="0" y="154.875" dx="0em" dy="0.3em" style="text-anchor: end; visibility: inherit; font-family: Roboto, sans-serif; font-size: 12px; font-weight: 200;" fill="rgb(33, 33, 33)" stroke="none" stroke-width="1px">5e-3</text><text x="0" y="132.75" dx="0em" dy="0.3em" style="text-anchor: end; visibility: hidden; font-family: Roboto, sans-serif; font-size: 12px; font-weight: 200;" fill="rgb(33, 33, 33)" stroke="none" stroke-width="1px">0.01</text><text x="0" y="110.625" dx="0em" dy="0.3em" style="text-anchor: end; visibility: inherit; font-family: Roboto, sans-serif; font-size: 12px; font-weight: 200;" fill="rgb(33, 33, 33)" stroke="none" stroke-width="1px">0.015</text><text x="0" y="88.5" dx="0em" dy="0.3em" style="text-anchor: end; visibility: hidden; font-family: Roboto, sans-serif; font-size: 12px; font-weight: 200;" fill="rgb(33, 33, 33)" stroke="none" stroke-width="1px">0.02</text><text x="0" y="66.375" dx="0em" dy="0.3em" style="text-anchor: end; visibility: inherit; font-family: Roboto, sans-serif; font-size: 12px; font-weight: 200;" fill="rgb(33, 33, 33)" stroke="none" stroke-width="1px">0.025</text><text x="0" y="44.25" dx="0em" dy="0.3em" style="text-anchor: end; visibility: hidden; font-family: Roboto, sans-serif; font-size: 12px; font-weight: 200;" fill="rgb(33, 33, 33)" stroke="none" stroke-width="1px">0.03</text><text x="0" y="22.12499999999998" dx="0em" dy="0.3em" style="text-anchor: end; visibility: inherit; font-family: Roboto, sans-serif; font-size: 12px; font-weight: 200;" fill="rgb(33, 33, 33)" stroke="none" stroke-width="1px">0.035</text><text x="0" y="0" dx="0em" dy="0.3em" style="text-anchor: end; visibility: hidden; font-family: Roboto, sans-serif; font-size: 12px; font-weight: 200;" fill="rgb(33, 33, 33)" stroke="none" stroke-width="1px">0.04</text></g><line x1="61.953125" y1="0" x2="61.953125" y2="177" fill="rgb(0, 0, 0)" stroke="rgb(204, 204, 204)" stroke-width="1px"></line></g></g><g transform="translate(61, 0)" clip-path="url(#clip_0)"><clipPath id="clip_0"><rect width="268" height="177"></rect></clipPath><g><g><g><line x1="0" y1="0" x2="0" y2="177" fill="rgb(0, 0, 0)" stroke="rgb(66, 66, 66)" stroke-width="1px" opacity="0.25"></line><line x1="22.337239583333332" y1="0" x2="22.337239583333332" y2="177" fill="rgb(0, 0, 0)" stroke="rgb(66, 66, 66)" stroke-width="1px" opacity="0.25"></line><line x1="44.674479166666664" y1="0" x2="44.674479166666664" y2="177" fill="rgb(0, 0, 0)" stroke="rgb(66, 66, 66)" stroke-width="1px" opacity="0.25"></line><line x1="67.01171875" y1="0" x2="67.01171875" y2="177" fill="rgb(0, 0, 0)" stroke="rgb(66, 66, 66)" stroke-width="1px" opacity="0.25"></line><line x1="89.34895833333333" y1="0" x2="89.34895833333333" y2="177" fill="rgb(0, 0, 0)" stroke="rgb(66, 66, 66)" stroke-width="1px" opacity="0.25"></line><line x1="111.68619791666667" y1="0" x2="111.68619791666667" y2="177" fill="rgb(0, 0, 0)" stroke="rgb(66, 66, 66)" stroke-width="1px" opacity="0.25"></line><line x1="134.0234375" y1="0" x2="134.0234375" y2="177" fill="rgb(0, 0, 0)" stroke="rgb(66, 66, 66)" stroke-width="1px" opacity="0.25"></line><line x1="156.36067708333334" y1="0" x2="156.36067708333334" y2="177" fill="rgb(0, 0, 0)" stroke="rgb(66, 66, 66)" stroke-width="1px" opacity="0.25"></line><line x1="178.69791666666666" y1="0" x2="178.69791666666666" y2="177" fill="rgb(0, 0, 0)" stroke="rgb(66, 66, 66)" stroke-width="1px" opacity="0.25"></line><line x1="201.03515625" y1="0" x2="201.03515625" y2="177" fill="rgb(0, 0, 0)" stroke="rgb(66, 66, 66)" stroke-width="1px" opacity="0.25"></line><line x1="223.37239583333334" y1="0" x2="223.37239583333334" y2="177" fill="rgb(0, 0, 0)" stroke="rgb(66, 66, 66)" stroke-width="1px" opacity="0.25"></line><line x1="245.70963541666666" y1="0" x2="245.70963541666666" y2="177" fill="rgb(0, 0, 0)" stroke="rgb(66, 66, 66)" stroke-width="1px" opacity="0.25"></line><line x1="268.046875" y1="0" x2="268.046875" y2="177" fill="rgb(0, 0, 0)" stroke="rgb(66, 66, 66)" stroke-width="1px" opacity="0.25"></line></g><g><line x1="0" y1="177" x2="268.046875" y2="177" fill="rgb(0, 0, 0)" stroke="rgb(66, 66, 66)" stroke-width="1px" opacity="0.25"></line><line x1="0" y1="154.875" x2="268.046875" y2="154.875" fill="rgb(0, 0, 0)" stroke="rgb(66, 66, 66)" stroke-width="1px" opacity="0.25"></line><line x1="0" y1="132.75" x2="268.046875" y2="132.75" fill="rgb(0, 0, 0)" stroke="rgb(66, 66, 66)" stroke-width="1px" opacity="0.25"></line><line x1="0" y1="110.625" x2="268.046875" y2="110.625" fill="rgb(0, 0, 0)" stroke="rgb(66, 66, 66)" stroke-width="1px" opacity="0.25"></line><line x1="0" y1="88.5" x2="268.046875" y2="88.5" fill="rgb(0, 0, 0)" stroke="rgb(66, 66, 66)" stroke-width="1px" opacity="0.25"></line><line x1="0" y1="66.375" x2="268.046875" y2="66.375" fill="rgb(0, 0, 0)" stroke="rgb(66, 66, 66)" stroke-width="1px" opacity="0.25"></line><line x1="0" y1="44.25" x2="268.046875" y2="44.25" fill="rgb(0, 0, 0)" stroke="rgb(66, 66, 66)" stroke-width="1px" opacity="0.25"></line><line x1="0" y1="22.12499999999998" x2="268.046875" y2="22.12499999999998" fill="rgb(0, 0, 0)" stroke="rgb(66, 66, 66)" stroke-width="1px" opacity="0.25"></line><line x1="0" y1="0" x2="268.046875" y2="0" fill="rgb(0, 0, 0)" stroke="rgb(66, 66, 66)" stroke-width="1px" opacity="0.25"></line></g></g></g><g><g><line x1="0" y1="177" x2="268.046875" y2="177" fill="rgb(0, 0, 0)" stroke="rgb(153, 153, 153)" stroke-width="1.5px"></line></g></g><g><g><line x1="22.337239583333332" y1="0" x2="22.337239583333332" y2="177" fill="rgb(0, 0, 0)" stroke="rgb(153, 153, 153)" stroke-width="1.5px"></line></g></g><g><g><g><g><g><path stroke="rgb(255, 112, 67)" stroke-width="2px" d="M22.79470625,133.15164362825453L23.023439583333335,145.42995049373712L23.252172916666666,154.41680194870852L23.48090625,151.62135363376174L23.70963958333333,147.74468763393114L23.93837291666667,150.74668205350582L24.16710625,148.2171033104527L24.395839583333334,149.77749309159717L24.624572916666665,153.75253190625986L24.85330625,158.96381568038595L25.082039583333334,148.33153230967233L25.310772916666668,153.42059509817113L25.539506250000002,149.97145297804087L25.768239583333333,153.85285758038899L25.996972916666667,157.0659752918082L26.225706249999998,157.71072109310617L26.454439583333333,161.10628458830152L26.683172916666667,165.8510314374642L26.91190625,167.61631424589532L27.140639583333332,170.12824127777532L27.369372916666666,157.90393519439246L27.598106249999997,157.70095889086355L27.82683958333333,161.42988417935308L28.05557291666667,164.57731753104758L28.28430625,162.7228258637906L28.513039583333335,155.7190186210234L28.741772916666665,161.44373358398175L28.97050625,162.70671179060045L29.19923958333333,137.80304024338665L29.42797291666667,150.87545973015054L29.65670625,156.4482556208075L29.885439583333334,159.39943226523386L30.114172916666664,162.86117856271295L30.34290625,158.91377027611463L30.571639583333337,148.6551005140291L30.800372916666667,155.80054423030293L31.02910625,132.86767508092672L31.257839583333332,148.8126525473715L31.486572916666667,156.82725433182748L31.715306249999998,160.47821186570573L31.944039583333335,163.66483416595412L32.172772916666666,167.13183135324803L32.40150625,143.2976002611488L32.630239583333335,153.85802349653255L32.858972916666666,155.49060653066564L33.08770625,161.221749908054L33.316439583333334,164.1028058604926L33.545172916666665,164.8423810392765L33.77390625,165.45188801174822L34.002639583333334,164.98152725629777L34.231372916666665,165.18900944915674L34.46010625,168.4292734769402L34.68883958333333,168.50597680436903L34.917572916666664,169.01370300445288L35.146306249999995,169.4495886237804L35.37503958333333,162.5106757023984L35.60377291666667,165.0789550161921L35.83250625,169.46263678098163L36.06123958333333,164.5273573877625L36.28997291666666,167.80609625646542L36.51870625,160.5593917265924L36.74743958333334,163.46272024922553L36.97617291666666,167.1663338721666L37.20490625,164.76853876623872L37.43363958333333,165.42231682530186L37.66237291666667,163.9990233473324L37.89110625000001,159.09771672180852L38.11983958333333,159.0879019791875L38.34857291666667,159.346454383507L38.57730625,162.34194726525598L38.80603958333334,159.20657808909627L39.03477291666666,152.36920510354526L39.26350625,161.14527574254802L39.49223958333334,159.63916718221446L39.72097291666667,163.2830983555812L39.94970625,167.5371095335259L40.17843958333333,169.81692035904112L40.40717291666667,160.36810386611867L40.635906250000005,163.2389744587025L40.864639583333336,166.83753863243012L41.09337291666667,168.55715311822817L41.32210625,169.14173439531416L41.550839583333335,169.54689428251135L41.779572916666666,171.45200464079466L42.00830625,167.77459595732205L42.237039583333335,170.56177386573682L42.465772916666666,170.85094252309116L42.69450625,169.15145378170337L42.92323958333333,168.220052270862L43.151972916666665,160.2602603979543L43.38070625,162.83740411079364L43.609439583333334,165.1271664699625L43.83817291666667,169.0984766801894L44.066906249999995,170.5900563325731L44.29563958333333,159.6947260339557L44.52437291666667,162.49150827352696L44.75310625,127.02999350249465L44.98183958333333,143.2235331086871L45.21057291666666,153.38785086605478L45.43930625,161.67553979108536L45.66803958333333,157.63793456748013L45.89677291666666,160.14561230609868L46.12550625,163.1122937654968L46.35423958333333,166.0875047570588L46.58297291666667,168.90604537569155L46.81170625,171.4679448767501L47.04043958333333,168.16400293064848L47.26917291666667,160.1559514151304L47.49790625,164.72417680533837L47.72663958333334,160.06446562252705L47.95537291666666,166.1425636204267L48.18410625,158.81571444468554L48.41283958333333,160.4274930700845L48.64157291666667,157.51756146223462L48.870306250000006,159.60523409591536L49.09903958333333,159.89325162587417L49.32777291666667,164.7486416593513L49.55650625,164.009249491897L49.785239583333336,165.1123471656631L50.01397291666667,164.73985069249588L50.24270625,168.36184803049912L50.471439583333336,169.769351996451L50.700172916666666,166.88248298818283L50.92890625,166.23189710139135L51.157639583333335,161.2074804954016L51.386372916666666,165.2712561948655L51.615106250000004,138.46266579634297L51.843839583333335,148.37783873876614L52.072572916666665,153.1955511256348L52.301306249999996,157.70653832312172L52.530039583333334,163.09960290549952L52.75877291666667,151.68480416727817L52.987506249999996,159.5247219656535L53.21623958333333,154.03057988835144L53.444972916666664,28.011717256026074L53.67370625,82.10401270735508L53.90243958333334,116.09975502497403L54.131172916666664,112.09861097399265L54.35990625,135.5827910052601L54.58863958333333,129.67551964279195L54.81737291666667,128.75352472331335L55.046106249999994,88.21490815738564L55.27483958333333,109.17114245010748L55.50357291666667,131.54413178351274L55.73230625,122.89488473705501L55.96103958333333,118.55794643787772L56.18977291666666,129.88486887322802L56.41850625,132.2523769061681L56.64723958333334,143.95751969305672L56.87597291666667,143.34618240915538L57.10470625,134.59871610371948L57.33343958333333,131.7278057910125L57.56217291666667,143.8147399119434L57.790906250000006,42.09945804428443L58.01963958333333,83.76824874070365L58.24837291666667,99.43432701460767L58.47710625,119.01232789114714L58.705839583333336,126.75769377145528L58.93457291666666,130.66993611763928L59.16330625,135.79860528796027L59.392039583333336,146.43284780656015L59.62077291666667,-84.66033097580244L59.849506250000005,12.706961033641283L60.07823958333333,63.09291743659912L60.306972916666666,103.18530147579797L60.535706250000004,114.16450244297081L60.764439583333335,123.7176820474684L60.993172916666666,129.1117517266613L61.221906249999996,134.6784700578938L61.450639583333334,75.17865340718568L61.679372916666665,75.14862559770907L61.90810625,91.56509379989127L62.136839583333334,99.16285490436088L62.365572916666665,120.90748277309675L62.59430625,137.96122342303403L62.82303958333333,136.21452472816412L63.051772916666664,142.9483386514217L63.28050625,136.8612799774933L63.50923958333333,148.8706502881879L63.73797291666667,149.58438435802515L63.966706249999994,149.06460887817835L64.19543958333334,140.94901915418086L64.42417291666666,146.27530231119383L64.65290625,147.14202129753642L64.88163958333334,149.7471903825534L65.11037291666666,154.01479082959042L65.33910625,156.62162242336734L65.56783958333332,149.58909313420153L65.79657291666666,154.18550950629086L66.02530625,148.41151110473317L66.25403958333334,153.05125827055002L66.48277291666666,133.46579245454564L66.71150625,136.0207913427144L66.94023958333334,136.33603459051784L67.16897291666668,93.75726347238741L67.39770625,103.51800711420728L67.62643958333332,127.46476622027564L67.85517291666667,135.5109455254445L68.08390625,143.28362914405133L68.31263958333334,135.40264072183888L68.54137291666667,136.7387311840899L68.77010625,140.8264395911528L68.99883958333334,149.17379965783854L69.22757291666666,142.97091653735458L69.45630625000001,121.54415272200715L69.68503958333334,123.09212206244237L69.91377291666666,134.76574843489985L70.14250625000001,143.9954893398366L70.37123958333333,140.926146136706L70.59997291666666,133.79309089898163L70.82870625,139.96465118646827L71.05743958333333,144.1888705459324L71.28617291666667,134.5433974969141L71.51490625,136.91816301131263L71.74363958333333,123.0856907679678L71.97237291666667,118.36243414068464L72.20110625,23.69883251896052L72.42983958333335,76.74197139455705L72.65857291666667,112.53016526785541L72.88730625,131.68118162084102L73.11603958333333,140.22130630744832L73.34477291666667,134.02800395910938L73.57350625,143.61393387623133L73.80223958333333,149.5735143604204L74.03097291666667,149.27674515458645L74.25970625000001,154.4277297640604L74.48843958333333,150.35893127697034L74.71717291666666,152.9822348138456L74.94590625000001,154.58837966748413L75.17463958333333,130.24189011307558L75.40337291666667,135.49012873315513L75.63210625,144.69019534546854L75.86083958333333,148.16909615723026L76.08957291666667,154.89213944429298L76.31830624999999,155.9033667690181L76.54703958333333,159.334759081792L76.77577291666667,141.31295888223715L77.00450624999999,144.01651435925643L77.23323958333334,97.80516053339292L77.46197291666667,72.53861999124555L77.69070624999999,85.00956956586403L77.91943958333334,34.269649786002404L78.14817291666667,88.08211953555052L78.37690625,115.09929311865274L78.60563958333333,128.30557407792628L78.83437291666667,143.61035572651755L79.06310625,147.1764036510586L79.29183958333333,150.89186365979606L79.52057291666667,150.71975187109527L79.74930625,154.067076413276L79.97803958333333,160.29412084911297L80.20677291666667,139.94558661002833L80.43550625,152.90701855382983L80.66423958333333,152.26736781823882L80.89297291666666,126.79146492229847L81.12170625,135.1755126911965L81.35043958333334,147.06239537429838L81.57917291666666,155.4493969537364L81.80790625,160.46017476272115L82.03663958333334,143.89809528053718L82.26537291666666,153.36320288683274L82.49410624999999,143.5068760537672L82.72283958333334,129.09330132371593L82.95157291666666,123.90499503063506L83.18030625,129.88128885565607L83.40903958333334,133.30536133498495L83.63777291666666,143.3188437172058L83.86650625,150.57946721472786L84.09523958333332,149.3351255167779L84.32397291666668,144.48229198809008L84.55270625,102.779261674914L84.78143958333332,114.38466907415285L85.01017291666668,128.6308245684862L85.23890625,75.42247151590345L85.46763958333334,106.60017761946148L85.69637291666666,102.11788314646736L85.92510625,126.06787898049136L86.15383958333334,144.12664597276077L86.38257291666666,152.83355706788288L86.61130625,100.22593839083424L86.84003958333334,105.64925516874679L87.06877291666666,128.89733066659323L87.29750625000001,126.09855488166899L87.52623958333334,141.32577651892268L87.75497291666666,146.7161617742727L87.98370625,144.36832511934637L88.21243958333334,149.05663586601912L88.44117291666667,126.83023771611035L88.66990625,133.84767624492753L88.89863958333333,135.48751272897604L89.12737291666667,148.39164724322072L89.35610625,144.89549928864486L89.58483958333332,148.24482815018683L89.81357291666667,157.54265768931143L90.04230625,150.82223852563402L90.27103958333333,149.87210922945886L90.49977291666667,140.42665492525308L90.72850625,140.10692810434466L90.95723958333333,148.00526685721942L91.18597291666667,134.67055492785437L91.41470625000001,108.9533146392516L91.64343958333333,114.24163141675064L91.87217291666666,132.75729859312486L92.10090625000001,142.625389889457L92.32963958333333,146.97428807371298L92.55837291666666,126.29913389088775L92.78710625000001,145.83435535000007L93.01583958333333,154.07218000239126L93.24457291666667,156.39653815818426L93.47330625,134.42698503728266L93.70203958333333,140.52035953332816L93.93077291666667,134.76730578753254L94.15950624999999,133.0911560061598L94.38823958333334,143.0641257708832L94.61697291666667,140.59094890180614L94.84570624999999,152.27269150431238L95.07443958333334,153.58525261929054L95.30317291666667,138.4427347512568L95.53190624999999,151.73334950396568L95.76063958333333,137.20808838867634L95.98937291666667,145.61610391885634L96.21810625,152.16103077359853L96.44683958333333,154.81613556289886L96.67557291666667,155.9505724902851L96.90430625,131.47953846951742L97.13303958333333,138.72894529454658L97.36177291666667,134.2216315180972L97.59050625,144.09030053028704L97.81923958333333,129.22209896748805L98.04797291666667,124.13940795424905L98.27670625,119.4731211433609L98.50543958333334,126.48577133050856L98.73417291666667,141.50281190898298L98.96290624999999,148.55508484911937L99.19163958333334,89.9924968568803L99.42037291666666,120.79339749836599L99.64910624999999,100.35398560895727L99.87783958333334,119.8083436966491L100.10657291666666,134.36019640784278L100.33530625,142.86103731726595L100.56403958333334,152.7531253609284L100.79277291666666,119.99724105675364L101.02150625,137.96695499592258L101.25023958333333,141.0705419579788L101.47897291666668,111.29668071863912L101.70770625,58.09717487095514L101.93643958333332,95.51977157435546L102.16517291666668,90.81986233050662L102.39390625,89.91764046224974L102.62263958333332,100.02100932135L102.85137291666666,94.80411737357865L103.08010625,99.6651195418554L103.30883958333334,112.50181103761298L103.53757291666666,111.14570221984569L103.76630625,78.28847121259084L103.99503958333334,102.95386227405376L104.22377291666666,113.62172802797737L104.45250625000001,128.0963299595522L104.68123958333334,123.34345210928957L104.90997291666666,123.45103298031832L105.13870625,76.63155352266755L105.36743958333334,80.5859602730997L105.59617291666666,107.97724246760623L105.82490625,-23.79935340416184L106.05363958333334,31.849243639667336L106.28237291666667,48.04826504961221L106.51110625,88.27033045873385L106.73983958333332,93.77468021428788L106.96857291666667,108.97804471308712L107.19730625,105.60224015536738L107.42603958333333,105.21930025606056L107.65477291666667,106.07602704816283L107.88350625,99.28849171700013L108.11223958333333,119.96855771006307L108.34097291666667,110.86513516134715L108.56970625000001,109.12636247173963L108.79843958333333,84.93061374065887L109.02717291666666,90.97625878267057L109.25590625000001,82.06010468937494L109.48463958333333,98.02537362210475L109.71337291666666,109.9045271724166L109.94210625000001,113.90184587089428L110.17083958333333,107.05028759746676L110.39957291666667,113.64231711065128L110.62830625,126.44900997540566L110.85703958333333,128.10653325877317L111.08577291666667,125.13172174036045L111.31450625,101.11501882248841L111.54323958333335,101.95870040520265L111.77197291666667,120.33665672564051L112.00070625,118.94221855438376L112.22943958333333,134.22931930973604L112.45817291666667,127.67098246062979L112.68690624999999,59.6005842151951L112.91563958333333,64.79788683654137L113.14437291666667,59.65382406593125L113.37310625,87.08741023752546L113.60183958333333,86.80712311409984L113.83057291666667,110.68294249888105L114.05930625,109.95383938575293L114.28803958333333,115.95840894981924L114.51677291666667,132.08942477083772L114.74550625,119.32538018555387L114.97423958333333,123.22184208888376L115.20297291666667,114.63961881389358L115.43170625,119.90314020210586L115.66043958333333,124.31321426999023L115.88917291666667,120.32526303244502L116.11790624999999,79.56382235534711L116.34663958333334,89.47395174144341L116.57537291666667,98.73327041529795L116.80410624999999,96.88959041454304L117.03283958333334,106.67843971605842L117.26157291666667,120.9220808041438L117.49030625,118.83405910051434L117.71903958333334,115.0635492357854L117.94777291666666,16.93494785447382L118.17650625,41.64322208460846L118.40523958333333,42.520229855756035L118.63397291666666,7.530563097941914L118.86270625,38.61890561237814L119.09143958333333,70.73906216870179L119.32017291666668,72.0442425867941L119.54890625,46.20693497872507L119.77763958333333,42.548783315814475L120.00637291666666,63.3142714231294L120.23510625,89.23233630979549L120.46383958333334,96.9171084171503L120.69257291666666,116.4820791132581L120.92130625,120.01141510291885L121.15003958333334,69.22933972557779L121.37877291666666,86.66385794612998L121.60750625000001,108.2660779941573L121.83623958333334,95.07223365536298L122.06497291666666,86.90818615753035L122.29370625,85.75320552512157L122.52243958333334,102.84538674897938L122.75117291666666,118.399940276426L122.97990625,105.55974034549709L123.20863958333334,58.45357908208321L123.43737291666667,14.968356558079417L123.66610625,53.681482340183805L123.89483958333332,73.02043173181232L124.12357291666667,43.359176733894444L124.35230625,52.003439764710244L124.58103958333332,77.91712657505691L124.80977291666667,27.52706902560247L125.03850625,30.69644861123952L125.26723958333334,43.242623389226154L125.49597291666666,-31.08019522699001L125.72470625,26.68506576793027L125.95343958333333,47.88572728068609L126.18217291666666,48.775886550134295L126.41090625000001,51.076444847634946L126.63963958333333,76.27989852957518L126.86837291666666,72.4818330520844L127.09710625000001,61.98088677239152L127.32583958333333,87.48801754682799L127.55457291666667,61.39122167837345L127.78330625,92.83086613259748L128.01203958333335,96.3288258146765L128.24077291666666,56.869033593328126L128.46950625,85.71183766701301L128.69823958333333,102.48773426579521L128.92697291666667,64.15703044841938L129.15570625,71.20407551235111L129.38443958333332,-105.01970688875824L129.84190625,-8.608100343798313L130.07063958333333,22.28467688020784L130.29937291666667,63.698105755786415L130.52810625,68.10790853103417L130.75683958333332,83.85861886680375L130.98557291666668,91.26815977254658L131.21430625,93.27621268814296L131.44303958333333,98.05683926469379L131.67177291666667,99.10147904218013L131.90050625,96.03340448803172L132.12923958333334,93.95371384839098L132.35797291666665,99.85116569948126L132.58670625000002,113.34626305029946L132.81543958333333,97.66906749264093L133.04417291666667,95.05042668986734L133.27290625,72.84098891054639L133.50163958333334,72.24034752330215L133.73037291666665,97.17597163174172L133.95910625,-3.561340871729729L134.18783958333333,44.95642043939035L134.41657291666667,69.89717603573679L134.64530625,62.12784168556023L134.87403958333334,85.88676105326229L135.10277291666665,91.04052946126944L135.33150625,92.48506497237973L135.56023958333336,90.42691792633471L135.78897291666667,105.01251648641428L136.01770625,94.26183003575683L136.24643958333334,68.04884307915616L136.47517291666665,87.62170846810727L136.70390625,102.70991329357499L136.93263958333335,97.78311066779777L137.16137291666666,88.56239957930616L137.39010625,94.73509719265682L137.61883958333334,112.34794240731406L137.84757291666665,109.0386103475893L138.07630625000002,115.68462215906708L138.30503958333333,90.3527600157042L138.53377291666666,85.918792993592L138.76250625,90.95359562159585L138.9912395833333,99.08632392664853L139.21997291666668,112.24185817974868L139.44870625000001,100.58411180772222L139.67743958333332,78.00428225277565L139.90617291666666,58.819995636813054L140.13490625,28.837970179362415L140.36363958333334,59.18560665073591L140.59237291666668,74.54531990273354L140.82110625,85.34394129832718L141.04983958333332,80.82405009996972L141.27857291666666,74.8295419343238L141.50730625,70.01010925191193L141.73603958333334,89.71831471021504L141.96477291666667,77.7725611339243L142.19350624999998,81.39076256067943L142.42223958333332,81.96448919213647L142.6509729166667,98.58399703748128L142.87970625,21.953237296027545L143.10843958333334,66.79066757984914L143.33717291666667,29.528428576159232L143.56590624999998,43.04917841659055L143.79463958333332,55.8698229603831L144.0233729166667,67.32947422789717L144.25210625,88.94636252806893L144.48083958333333,41.31553976110406L144.70957291666667,48.88323848394624L144.93830624999998,-17.97992835671857L145.16703958333335,31.43677396487502L145.39577291666666,44.21330097115819L145.62450625,57.41714797643892L145.85323958333333,78.84212123924834L146.08197291666664,94.68287190392223L146.31070625,97.04854433145884L146.53943958333335,76.98106719497898L146.76817291666666,64.31323044117724L146.99690625,87.52830890561006L147.22563958333333,94.0352307937733L147.45437291666667,93.84500276191186L147.68310625,49.47842229392022L147.91183958333335,60.97245322606499L148.14057291666666,79.49319606984577L148.36930625,90.0054740955825L148.59803958333336,90.79127253445358L148.82677291666667,-22.507717717573815L149.05550625,32.33120642929628L149.28423958333332,35.066332516547185L149.51297291666666,68.21506243346698L149.74170625,73.28395899026734L149.97043958333333,88.31446899742868L150.19917291666667,80.76033373860112L150.42790625,48.651640985534115L150.65663958333332,65.39779832460017L150.88537291666665,77.75268366037328L151.11410625000002,51.37545012294363L151.34283958333333,81.84961296012467L151.57157291666667,84.89080899143497L151.80030625,102.2240113295423L152.02903958333332,90.60329519971052L152.25777291666668,72.96406124540474L152.48650625000002,71.67218910907687L152.71523958333333,79.29568458127966L152.94397291666667,81.01749436722987L153.17270624999998,79.83974397728917L153.40143958333334,50.146044171154955L153.63017291666668,80.23774839940695L153.85890625,26.138891476410787L154.08763958333333,58.78466720313917L154.31637291666667,67.95271319407874L154.54510625,66.26031151568088L154.77383958333334,77.94066493082163L155.00257291666668,44.36487054001164L155.23130625,67.20262703326866L155.46003958333333,65.63699548707918L155.6887729166667,31.571054805913658L155.91750625,57.077351066231195L156.14623958333334,12.963654776072202L156.37497291666668,56.21052719110588L156.60370625,78.0797944923004L156.83243958333333,80.02846933214428L157.06117291666666,75.25562154015041L157.28990625,88.9898719940939L157.51863958333334,108.36458263236929L157.74737291666665,112.06755070649773L157.97610625,104.05002076484675L158.20483958333335,111.72632765878984L158.43357291666666,47.19030321454851L158.66230625,47.468605868910856L158.89103958333334,68.3791398706407L159.11977291666665,75.40519416346376L159.34850625,94.18550153383151L159.57723958333335,89.64191282724461L159.80597291666666,87.22978101185036L160.03470625,85.19585805169386L160.26343958333334,76.90730265546824L160.49217291666668,89.51162556979945L160.72090625,76.22495074226791L160.94963958333332,95.76164554412266L161.17837291666666,93.95979511800469L161.40710625,96.34439680241381L161.6358395833333,92.10844750710031L161.86457291666667,26.224828621791L162.09330625,50.53824146303308L162.32203958333332,73.25023150198324L162.55077291666666,89.19750726597107L162.77950625,-30.967996615906973L163.00823958333334,12.399333693092803L163.23697291666667,34.84188639074908L163.46570625,59.15696845025029L163.69443958333332,84.8296648756129L163.92317291666666,100.17323497208729L164.15190625000002,103.30578204257951L164.38063958333333,43.19105267830887L164.60937291666667,30.05116498952033L164.83810624999998,26.408295114248528L165.06683958333332,48.423285426592535L165.29557291666669,75.56793736295145L165.52430625,64.44489572123435L165.75303958333333,77.19374059394447L165.98177291666667,78.22025794092087L166.21050624999998,81.5212281051473L166.43923958333335,71.51969180945731L166.66797291666668,75.12121554505333L166.89670625,92.19356732393209L167.12543958333333,55.17117148533406L167.35417291666667,77.97917204064096L167.58290625,84.50035899109821L167.81163958333335,90.3219460083674L168.04037291666666,102.10318352258986L168.26910625,102.93172641308179L168.49783958333333,47.5100720477764L168.72657291666664,73.69832399354364L168.95530625,44.83921859184496L169.18403958333334,76.2603408412313L169.41277291666665,84.60823847300861L169.64150625,95.55409761263164L169.87023958333333,109.50259155217249L170.09897291666667,90.9766401450839L170.32770625,90.89915523088017L170.55643958333334,76.61416979674122L170.78517291666665,70.31345757868067L171.01390625,96.31979457528101L171.24263958333336,35.509875535909565L171.47137291666667,59.011343322661055L171.70010625,15.020841573158828L171.9288395833333,56.17667715667481L172.15757291666665,86.83835899185415L172.38630625000002,94.48577911169097L172.61503958333333,77.19596455103616L172.84377291666667,105.43761956382669L173.07250625,120.12804976516291L173.3012395833333,123.92975499876336L173.52997291666668,78.95482890992162L173.75870625000002,67.95231277459142L173.98743958333333,92.87151960410641L174.21617291666666,114.06480769032518L174.44490625,94.70548068859743L174.67363958333334,111.12202847900133L174.90237291666668,109.9597187774011L175.13110625000002,118.34397992412022L175.35983958333333,121.12025074389442L175.58857291666666,84.12939693168916L175.81730624999997,92.98400197855304L176.04603958333334,104.91939633298917L176.27477291666668,47.744672646874214L176.50350625,65.63273645535351L176.73223958333332,83.10282546338583L176.96097291666666,77.20601567511049L177.18970625,87.84862994780711L177.41843958333334,99.68122109103545L177.64717291666668,93.6297050406238L177.87590624999999,97.79048787592058L178.10463958333332,63.971025228728074L178.3333729166667,12.195655113595246L178.56210625,46.89466193237157L178.79083958333334,68.96414473902136L179.01957291666668,95.66957649477393L179.24830624999998,99.33625236086888L179.47703958333335,-34.815709573430745L179.70577291666666,2.833256682811424L179.93450625,56.53519402097659L180.16323958333334,50.16014394179581L180.39197291666665,77.30999863529563L180.62070625,85.81885802378869L180.84943958333335,96.53500840816268L181.07817291666666,98.8550693951748L181.30690625,91.50745776818408L181.53563958333334,111.68889225215443L181.76437291666664,95.6307368088706L181.99310625,74.52259227835796L182.22183958333335,99.15633620368638L182.45057291666666,88.98065358130454L182.67930625,98.6291931247909L182.90803958333333,109.77340917519923L183.13677291666667,108.44365944702743L183.36550625,89.25307906859706L183.59423958333332,83.86777278896325L183.82297291666666,101.91073171491118L184.05170625,110.95664580654915L184.28043958333333,106.53004170502314L184.50917291666667,96.32520872530394L184.73790625,94.31864403889806L184.96663958333332,54.556022800244286L185.19537291666666,89.62207097395502L185.42410625000002,106.63296952297833L185.65283958333333,113.93971473507908L185.88157291666667,74.97861517091292L186.11030625,94.0977511629146L186.33903958333332,104.76835750041496L186.56777291666668,110.46063063404316L186.79650625000002,116.51976906649085L187.02523958333333,38.13396334732657L187.25397291666667,9.696880724043144L187.48270624999998,43.65252045602232L187.71143958333334,75.52963852993028L187.94017291666668,35.27570657796487L188.16890625,69.78762899855869L188.39763958333333,-10.480995875477207L188.62637291666667,48.460188351568924L188.85510624999998,54.91168793141685L189.08383958333334,69.80645745456127L189.31257291666668,73.29459539776984L189.54130625,87.88634982914294L189.77003958333333,90.93925399831275L189.99877291666667,63.04781583697402L190.22750625,36.19926654249908L190.45623958333334,68.71278551414896L190.68497291666665,84.73421349120314L190.91370625,103.07115556555792L191.14243958333333,92.08205519844773L191.37117291666667,98.43661735120227L191.59990625,104.40894417189246L191.82863958333334,102.54295382036379L192.05737291666665,84.01951890741952L192.28610625,97.5571968305419L192.51483958333336,103.0067263456917L192.74357291666666,108.20550076441384L192.97230625,70.02854346648704L193.20103958333334,92.86107842387764L193.42977291666665,112.44927887290423L193.65850625000002,115.44474940922682L193.88723958333335,105.07138773829831L194.11597291666666,96.1275057973331L194.34470625,99.9404277895013L194.5734395833333,99.58848632390017L194.80217291666665,114.80719201461802L195.03090625000002,112.0175679367562L195.25963958333332,110.48468573863981L195.48837291666666,100.3624457611184L195.71710625,108.89425568542127L195.9458395833333,99.98824113316084L196.17457291666668,96.65308297325222L196.40330625,106.61216572239428L196.63203958333332,113.09632260279018L196.86077291666666,70.63900516436193L197.08950625,89.38214766759094L197.31823958333334,98.39135759601544L197.54697291666668,93.8916177878055L197.77570625,90.2467128115459L198.00443958333332,106.60227441579482L198.23317291666666,112.37964436733951L198.46190625,76.57352325811523L198.69063958333334,95.26174349632585L198.91937291666667,83.3127581427796L199.14810624999998,97.5743554845633L199.37683958333332,96.33840421156178L199.6055729166667,104.29057918006832L199.83430625,98.60552315422686L200.06303958333334,110.55421070387239L200.29177291666667,103.4235474005656L200.52050624999998,88.13221540065507L200.74923958333335,55.533030638169656L200.9779729166667,68.64969449583973L201.20670625,97.18117593806556L201.43543958333333,107.53789295006735L201.66417291666667,126.11482069771107L201.89290624999998,116.17507094967732L202.12163958333335,129.52727309437614L202.35037291666666,125.21112925490452L202.57910625,109.78606679100221L202.80783958333333,95.72133686651843L203.03657291666664,112.54517967334422L203.26530625,56.99107922810931L203.49403958333335,51.7540663820423L203.72277291666666,82.13377921011552L203.95150625,95.81256429650786L204.18023958333333,97.08237652583958L204.40897291666667,54.99233235480809L204.63770625,87.81195269748522L204.86643958333335,-26.707769991606725L205.09517291666666,19.888076465338308L205.32390625,63.54542997576885L205.55263958333336,35.80837789236361L205.78137291666667,82.47956912478122L206.01010625,102.37788544601388L206.23883958333332,54.76489500407093L206.46757291666665,86.93279015915819L206.69630625000002,78.58034335239067L206.92503958333333,86.01563641824325L207.15377291666667,106.96698477803467L207.38250625,118.61190736778855L207.61123958333332,119.3892860396998L207.83997291666665,-1.4124853590549666L208.06870625000002,28.556589126323377L208.29743958333333,50.87620291545076L208.52617291666667,85.45218813156534L208.75490625,109.11251299894126L208.98363958333331,107.33189617881935L209.21237291666668,110.32223169231274L209.44110625000002,114.99767371475015L209.66983958333333,124.36984141109477L209.89857291666667,130.66262005791418L210.12730624999998,80.78521506205412L210.35603958333334,97.59115666428333L210.58477291666668,90.63892833607869L210.81350625,97.75480779948816L211.04223958333333,100.96934810097805L211.27097291666666,100.45667188057774L211.49970625,82.46719280072733L211.72843958333334,107.56105982233545L211.95717291666668,121.93335039373909L212.18590625,104.8804929984014L212.41463958333333,74.34636213972573L212.6433729166667,92.21667622607592L212.87210625,106.21008036632325L213.10083958333334,119.57436399630598L213.32957291666665,110.69691713882621L213.55830625,117.62552451444051L213.78703958333335,82.46982004852524L214.01577291666666,48.36537158257619L214.24450625,67.45024509738002L214.47323958333334,82.9009232663221L214.70197291666665,87.45829240862172L214.93070625,102.56903716181901L215.15943958333335,108.07152169573418L215.38817291666666,64.15356296675272L215.61690625,98.7302847940586L215.84563958333334,95.49819628380907L216.07437291666665,114.97564222113445L216.30310625,119.7352627996871L216.53183958333335,118.87307877148804L216.76057291666666,130.0863049868084L216.98930625,116.5359376888476L217.2180395833333,69.84221484190239L217.44677291666667,40.477477305686556L217.67550625,77.66257426429158L217.90423958333332,85.70722984843472L218.13297291666666,86.97042024104607L218.36170625,103.39256224911695L218.59043958333334,116.86785797182493L218.81917291666667,117.80753674040002L219.04790625,115.97812258410313L219.27663958333332,127.47259311539148L219.50537291666666,131.15914437383245L219.73410625000002,124.532169334351L219.96283958333333,125.86885017142234L220.19157291666667,118.17315213373624L220.42030625,118.95994258219791L220.64903958333332,119.03889335495111L220.87777291666666,115.28180550405011L221.10650625,100.2357548184313L221.33523958333333,104.3200001627724L221.56397291666667,116.72825004148605L221.79270624999998,121.1009708850868L222.02143958333332,108.36557786818071L222.25017291666668,107.33213082197742L222.47890625,103.9478512972202L222.70763958333333,116.46729879160858L222.93637291666667,102.9142079164394L223.16510624999998,118.58603697589388L223.39383958333335,127.57612906885952L223.62257291666668,132.0332549925465L223.85130625,139.07547460944616L224.08003958333333,133.83353714615797L224.30877291666667,130.75447715056356L224.53750625,110.57661838297497L224.76623958333334,124.30215485186548L224.99497291666665,103.55574997688038L225.22370625,113.19348161920728L225.45243958333333,95.87744060012592L225.68117291666667,90.81237918646869L225.90990625,87.00028287328324L226.13863958333334,90.24395990346099L226.36737291666665,78.30343245178L226.59610625,92.07859548827732L226.82483958333336,107.574103168924L227.05357291666667,107.91817765707037L227.28230625,109.31723311669684L227.51103958333334,101.8612977378193L227.73977291666665,90.58490421251197L227.96850625,87.95929240510307L228.19723958333336,109.67779392197993L228.42597291666667,85.99522664961377L228.65470625,83.79813269714808L228.8834395833333,85.50363135451254L229.11217291666665,96.88346691683935L229.34090625000002,107.41376829225425L229.56963958333333,111.7026820336497L229.79837291666666,122.75000751083888L230.02710625,128.35831621253965L230.2558395833333,128.0912650977938L230.48457291666668,98.97147096129468L230.71330625000002,77.28060766269094L230.94203958333333,86.51278286999062L231.17077291666666,98.41531076103804L231.39950625,112.65908260908935L231.62823958333334,122.89564718465337L231.85697291666668,122.89534326738315L232.08570625000002,132.2995643818897L232.31443958333332,135.45501010817418L232.54317291666666,122.00155598418196L232.77190625,105.05333119181562L233.00063958333334,99.36015748410088L233.22937291666668,113.45557890566386L233.45810625,97.39553973217129L233.68683958333332,95.79929905765843L233.9155729166667,80.93991907691115L234.14430625,100.84927913326118L234.37303958333334,118.66400764750298L234.60177291666668,114.39159298124525L234.83050624999998,119.16058759015867L235.05923958333332,119.89176180211942L235.2879729166667,126.42140786087955L235.51670625,131.32488571173812L235.74543958333334,104.7167000282816L235.97417291666667,111.51217721791637L236.20290624999998,123.1286659442876L236.43163958333335,89.71285689046944L236.66037291666666,67.93553499085286L236.88910625,75.75266667874206L237.11783958333334,73.0368103782627L237.34657291666664,96.13801722044009L237.57530625,101.72677229047868L237.80403958333335,93.859412480599L238.03277291666666,110.49543275785824L238.26150625,115.33552131341327L238.49023958333333,50.52701033226507L238.71897291666667,55.53360257340585L238.94770625,76.13870711203286L239.17643958333335,79.74372171804828L239.40517291666666,88.2773580451043L239.63390625,99.62960605169722L239.8626395833333,117.02900816221768L240.09137291666667,123.52759140562853L240.32010625,111.36060389254594L240.54883958333332,122.9254367448336L240.77757291666666,114.3079958474604L241.00630625,124.51548423117208L241.23503958333333,116.10432821509721L241.46377291666667,120.2966813094764L241.69250625,126.59726636990005L241.92123958333332,119.34642195930537L242.14997291666666,120.5389826564816L242.37870625000002,120.74930489026472L242.60743958333333,117.59453695915917L242.83617291666667,46.5248547339605L243.06490625,75.93101912106077L243.29363958333332,82.15551227399706L243.52237291666668,86.08526488732696L243.75110625,98.08645814003884L243.97983958333333,119.60257988701665L244.20857291666667,105.83457683119418L244.43730624999998,102.36787319238925L244.66603958333334,99.97583740163414L244.89477291666668,58.182465679696605L245.12350625,85.44158793374982L245.35223958333333,91.08434792912058L245.58097291666667,108.53737045932442L245.80970625,73.36105482345002" style="fill: none;" fill="none"></path></g></g></g></g><g opacity="0.2"><g><g><g><path stroke="rgb(255, 112, 67)" stroke-width="2px" d="M22.79470625,133.15164362825453L23.023439583333335,152.79693461302668L23.252172916666666,163.0441793454811L23.48090625,148.33390641538426L23.70963958333333,142.6833125045523L23.93837291666667,154.8995210537687L24.16710625,144.59976523462683L24.395839583333334,152.05255637224764L24.624572916666665,159.614942046348L24.85330625,166.70196474110708L25.082039583333334,132.4795412812382L25.310772916666668,161.02649482595734L25.539506250000002,144.80900184530765L25.768239583333333,159.66736040823162L25.996972916666667,161.88187495968305L26.225706249999998,158.6773850703612L26.454439583333333,166.19819294242188L26.683172916666667,172.96694702049717L26.91190625,170.26396953547373L27.140639583333332,173.89590222551487L27.369372916666666,139.56814647931606L27.598106249999997,157.39650111459196L27.82683958333333,167.0231984909624L28.05557291666667,169.29843027424067L28.28430625,159.94110154383816L28.513039583333335,145.21333762491122L28.741772916666665,170.03079138044268L28.97050625,164.60117716155946L29.19923958333333,100.44755586236715L29.42797291666667,170.48408173536882L29.65670625,164.80744760879315L29.885439583333334,163.82619664468803L30.114172916666664,168.05379759566858L30.34290625,152.99265812896192L30.571639583333337,133.26709631178528L30.800372916666667,166.51870962046087L31.02910625,98.46837171167135L31.257839583333332,172.7301185990218L31.486572916666667,168.8491569638718L31.715306249999998,165.95464815432206L31.944039583333335,168.44476760993712L32.172772916666666,172.3323271300178L32.40150625,107.54625364020467L32.630239583333335,169.69865834503435L32.858972916666666,157.93948108144104L33.08770625,169.81846497324295L33.316439583333334,168.42438978888094L33.545172916666665,165.95174380741082L33.77390625,166.3661484704353L34.002639583333334,164.2759861231316L34.231372916666665,165.50023273844272L34.46010625,173.28966951859184L34.68883958333333,168.62103179551195L34.917572916666664,169.7752923045773L35.146306249999995,170.10341705277096L35.37503958333333,152.102306320332L35.60377291666667,168.93137398688123L35.83250625,176.03815942816436L36.06123958333333,157.12443829793483L36.28997291666666,172.72420455951942L36.51870625,149.68933493178338L36.74743958333334,167.8177130331751L36.97617291666666,172.72175430657808L37.20490625,161.17184610734694L37.43363958333333,166.4029839138966L37.66237291666667,161.86408313037828L37.89110625000001,151.74575678352267L38.11983958333333,159.07317986525595L38.34857291666667,159.73428298998624L38.57730625,166.83518658787943L38.80603958333334,154.5035243248567L39.03477291666666,142.11314562521875L39.26350625,174.3093817010522L39.49223958333334,157.38000434171408L39.72097291666667,168.74899511563126L39.94970625,173.91812630044296L40.17843958333333,173.23663659731392L40.40717291666667,146.19487912673503L40.635906250000005,167.54528034757823L40.864639583333336,172.23538489302155L41.09337291666667,171.1365748469252L41.32210625,170.01860631094314L41.550839583333335,170.1546341133071L41.779572916666666,174.30967017821968L42.00830625,162.2584829321131L42.237039583333335,174.74254072835902L42.465772916666666,171.28469550912268L42.69450625,166.6022206696216L42.92323958333333,166.8229500046L43.151972916666665,148.32057258859277L43.38070625,166.70311968005262L43.609439583333334,168.56181000871584L43.83817291666667,175.0554419955297L44.066906249999995,172.82742581114871L44.29563958333333,143.3517305860296L44.52437291666667,166.68668163288385L44.75310625,73.83772134594619L44.98183958333333,167.51384251797572L45.21057291666666,168.63432750210632L45.43930625,174.10707317863125L45.66803958333333,151.58152673207223L45.89677291666666,163.90712891402654L46.12550625,167.56231595459394L46.35423958333333,170.55032124440186L46.58297291666667,173.13385630364064L46.81170625,175.31079412833788L47.04043958333333,163.2080900114961L47.26917291666667,148.1438741418533L47.49790625,171.5765148906503L47.72663958333334,153.0748988483101L47.95537291666666,175.25971061727614L48.18410625,147.82544068107381L48.41283958333333,162.8451610081829L48.64157291666667,153.15266405045986L48.870306250000006,162.73674304643646L49.09903958333333,160.32527792081237L49.32777291666667,172.031726709567L49.55650625,162.90016124071553L49.785239583333336,166.76699367631227L50.01397291666667,164.18110598274507L50.24270625,173.79484403750394L50.471439583333336,171.88060794537887L50.700172916666666,162.55217947578058L50.92890625,165.25601827120408L51.157639583333335,153.67085558641702L51.386372916666666,171.3669197440613L51.615106250000004,98.24978019855917L51.843839583333335,163.25059815240093L52.072572916666665,160.4221197059378L52.301306249999996,164.4730191193521L52.530039583333334,171.18919977906626L52.75877291666667,134.56260605994612L52.987506249999996,171.28459866321646L53.21623958333333,145.78936677239835L53.444972916666664,-161.01657669246197L53.67370625,163.2424558843486L53.90243958333334,167.09336850140244L54.131172916666664,106.09689489752054L54.35990625,170.80906105216127L54.58863958333333,120.81461259908974L54.81737291666667,127.37053234409541L55.046106249999994,27.40698330849409L55.27483958333333,140.60549388919026L55.50357291666667,165.10361578362063L55.73230625,109.92101416736841L55.96103958333333,112.05253898911178L56.18977291666666,146.87525252625346L56.41850625,135.8036389555782L56.64723958333334,161.51523387338966L56.87597291666667,142.4291764833033L57.10470625,121.47751664556563L57.33343958333333,127.4214403219521L57.56217291666667,161.94514109333977L57.790906250000006,-110.47346475720406L58.01963958333333,146.27143478533253L58.24837291666667,122.93344442546368L58.47710625,148.3793292059563L58.705839583333336,138.37574259191751L58.93457291666666,136.53829963691533L59.16330625,143.4916090434417L59.392039583333336,162.38421158446L59.62077291666667,-431.30009914934635L59.849506250000005,158.75789904780686L60.07823958333333,138.6718520410359L60.306972916666666,163.32387753459625L60.535706250000004,130.63330389373004L60.764439583333335,138.04745145421475L60.993172916666666,137.20285624545068L61.221906249999996,143.02854755474254L61.450639583333334,-14.071071568876505L61.679372916666665,75.10358388349414L61.90810625,116.18979610316455L62.136839583333334,110.55949656106532L62.365572916666665,153.52442457620054L62.59430625,163.54183439793997L62.82303958333333,133.59447668585926L63.051772916666664,153.04905953630805L63.28050625,127.73069196660072L63.50923958333333,166.8847057542298L63.73797291666667,150.65498546278104L63.966706249999994,148.2849456584081L64.19543958333334,128.7756345681846L64.42417291666666,154.26472704671323L64.65290625,148.44209977705032L64.88163958333334,153.6549440100789L65.11037291666666,160.41619150014594L65.33910625,160.5318698140327L65.56783958333332,139.04029920045286L65.79657291666666,161.08013406442478L66.02530625,139.75051350239664L66.25403958333334,160.0108790192753L66.48277291666666,104.08759373053908L66.71150625,139.85328967496753L66.94023958333334,136.80889946222305L67.16897291666668,29.889106795191765L67.39770625,118.15912257693708L67.62643958333332,163.38490487937815L67.85517291666667,147.58021448319778L68.08390625,154.9426545719616L68.31263958333334,123.58115808852017L68.54137291666667,138.74286687746644L68.77010625,146.95800220174715L68.99883958333334,161.69483975786716L69.22757291666666,133.66659185662866L69.45630625000001,89.404006998986L69.68503958333334,125.4140760730952L69.91377291666666,152.27618799358606L70.14250625000001,157.84010069724172L70.37123958333333,136.32213133201003L70.59997291666666,123.09350804239511L70.82870625,149.22199161769822L71.05743958333333,150.52519958512858L71.28617291666667,120.0751879233867L71.51490625,140.4803112829104L71.74363958333333,102.33698240295053L71.97237291666667,111.27754919975996L72.20110625,-118.29656991362572L72.42983958333335,156.30667970795184L72.65857291666667,166.21245607780293L72.88730625,160.40770615031943L73.11603958333333,153.03149333735928L73.34477291666667,124.73805043660104L73.57350625,157.9928287519142L73.80223958333333,158.51288508670405L74.03097291666667,148.83159134583548L74.25970625000001,162.1542066782713L74.48843958333333,144.25573354633525L74.71717291666666,156.91719011915848L74.94590625000001,156.99759694794193L75.17463958333333,93.72215578146279L75.40337291666667,143.36248666327447L75.63210625,158.4902952639386L75.86083958333333,153.38744737487286L76.08957291666667,164.97670437488705L76.31830624999999,157.4202077561058L76.54703958333333,164.4818475509528L76.77577291666667,114.28025858290493L77.00450624999999,148.07184757478535L77.23323958333334,28.488129794597626L77.46197291666667,34.63880917802453L77.69070624999999,103.71599392779171L77.91943958333334,-41.840229883790016L78.14817291666667,168.80082415987272L78.37690625,155.62505349330604L78.60563958333333,148.11499551683664L78.83437291666667,166.56752819940448L79.06310625,152.52547553787008L79.29183958333333,156.4650536729023L79.52057291666667,150.46158418804407L79.74930625,159.0880632265471L79.97803958333333,169.63468750286847L80.20677291666667,109.42278525140136L80.43550625,172.34916646953207L80.66423958333333,151.3078917148523L80.89297291666666,88.57761057838798L81.12170625,147.75158434454352L81.35043958333334,164.89271939895116L81.57917291666666,168.02989932289347L81.80790625,167.9763414761983L82.03663958333334,119.05497605726123L82.26537291666666,167.56086429627612L82.49410624999999,128.72238580416888L82.72283958333334,107.472939228639L82.95157291666666,116.12253559101373L83.18030625,138.84572959318757L83.40903958333334,138.44147005397826L83.63777291666666,158.33906729053706L83.86650625,161.47040246101096L84.09523958333332,147.46861296985298L84.32397291666668,137.20304169505835L84.55270625,40.22471620514989L84.78143958333332,131.79278017301112L85.01017291666668,150.00005780998617L85.23890625,-4.390058062970638L85.46763958333334,153.36673677479848L85.69637291666666,95.3944414369762L85.92510625,161.9928727315273L86.15383958333334,171.21479646116495L86.38257291666666,165.893923710566L86.61130625,21.314510375261307L86.84003958333334,113.78423033561558L87.06877291666666,163.76944391336292L87.29750625000001,121.90039120428264L87.52623958333334,164.16660897480324L87.75497291666666,154.80173965729773L87.98370625,140.84657013695687L88.21243958333334,156.08910198602825L88.44117291666667,93.49064049124718L88.66990625,144.3738340381533L88.89863958333333,137.94726745504886L89.12737291666667,167.7478490145877L89.35610625,139.65127735678107L89.58483958333332,153.26882144249976L89.81357291666667,171.48940199799836L90.04230625,140.74160978011787L90.27103958333333,148.44691528519616L90.49977291666667,126.25847346894443L90.72850625,139.62733787298203L90.95723958333333,159.85277498653159L91.18597291666667,114.66848703380674L91.41470625000001,70.37745420634747L91.64343958333333,122.17410658299923L91.87217291666666,160.5307993576862L92.10090625000001,157.4275268339552L92.32963958333333,153.49763535009697L92.55837291666666,95.28640261664987L92.78710625000001,175.1371875386685L93.01583958333333,166.4289169809781L93.24457291666667,159.88307539187372L93.47330625,101.47265535593033L93.70203958333333,149.66042127739638L93.93077291666667,126.1377251688391L94.15950624999999,130.57693133410066L94.38823958333334,158.02358041796833L94.61697291666667,136.88118359819055L94.84570624999999,169.79530540807173L95.07443958333334,155.5540942917578L95.30317291666667,115.72895794920623L95.53190624999999,171.66927163302898L95.76063958333333,115.42019671574235L95.98937291666667,158.2281272141263L96.21810625,161.9784210557118L96.44683958333333,158.79879274684936L96.67557291666667,157.65222788136452L96.90430625,94.77298743836582L97.13303958333333,149.60305553209037L97.36177291666667,127.46066085342318L97.59050625,158.89330404857174L97.81923958333333,106.91979662328959L98.04797291666667,116.51537143439054L98.27670625,112.47369092702866L98.50543958333334,137.00474661123008L98.73417291666667,164.0283727766946L98.96290624999999,159.13349425932392L99.19163958333334,2.1486148685216904L99.42037291666666,166.99474846059456L99.64910624999999,69.69486777484417L99.87783958333334,148.98988082818687L100.10657291666666,156.18797547463328L100.33530625,155.61229868140072L100.56403958333334,167.5912574264221L100.79277291666666,70.86341460049152L101.02150625,164.92152590467595L101.25023958333333,145.72592240106314L101.47897291666668,66.63588885962963L101.70770625,-21.70208390057087L101.93643958333332,151.65366662945598L102.16517291666668,83.76999846473336L102.39390625,88.56430765986443L102.62263958333332,115.17606261000037L102.85137291666666,86.97877945192158L103.08010625,106.95662279427052L103.30883958333334,131.7568482812494L103.53757291666666,109.1115389931947L103.76630625,29.002624701708555L103.99503958333334,139.95194886624813L104.22377291666666,129.62352665886283L104.45250625000001,149.8082328569144L104.68123958333334,116.21413533389568L104.90997291666666,123.61240428686142L105.13870625,6.402334336191416L105.36743958333334,86.51757039874792L105.59617291666666,149.064165759366L105.82490625,-221.46424721181393L106.05363958333334,115.32213920541108L106.28237291666667,72.34679716452956L106.51110625,148.6034285724163L106.73983958333332,102.03120484761894L106.96857291666667,131.78309146128595L107.19730625,100.53853331878781L107.42603958333333,104.64489040710032L107.65477291666667,107.3611172363162L107.88350625,89.10718872025609L108.11223958333333,150.98865669965744L108.34097291666667,97.21000133827329L108.56970625000001,106.51820343732834L108.79843958333333,48.63699064403772L109.02717291666666,100.0447263456881L109.25590625000001,68.68587354943156L109.48463958333333,121.97327702119946L109.71337291666666,127.72325749788433L109.94210625000001,119.89782391861081L110.17083958333333,96.77295018732548L110.39957291666667,123.53036138042808L110.62830625,145.65904927253723L110.85703958333333,130.59281818382442L111.08577291666667,120.66950446274132L111.31450625,65.08996444568038L111.54323958333335,103.22422277927399L111.77197291666667,147.90359120629728L112.00070625,116.85056129749864L112.22943958333333,157.15997044276446L112.45817291666667,117.83347718697041L112.68690624999999,-42.50501315295696L112.91563958333333,72.59384076856077L113.14437291666667,51.93772991001606L113.37310625,128.2377894949168L113.60183958333333,86.3866924289614L113.83057291666667,146.4966715760529L114.05930625,108.86018471606076L114.28803958333333,124.9652632959187L114.51677291666667,156.2859485023655L114.74550625,100.17931330762804L114.97423958333333,129.06653494387865L115.20297291666667,101.76628390140831L115.43170625,127.7984222844243L115.66043958333333,130.92832537181675L115.88917291666667,114.3433361761272L116.11790624999999,18.421661339700222L116.34663958333334,104.33914582058787L116.57537291666667,112.62224842607975L116.80410624999999,94.12407041341066L117.03283958333334,121.3617136683315L117.26157291666667,142.2875424362719L117.49030625,115.70202654507011L117.71903958333334,109.40778443869203L117.94777291666666,-130.25795421749353L118.17650625,78.7056334298104L118.40523958333333,43.8357415124774L118.63397291666666,-44.95393703877926L118.86270625,85.25141938403249L119.09143958333333,118.91929700318724L119.32017291666668,74.00201321393251L119.54890625,7.450973566621542L119.77763958333333,37.061555821448565L120.00637291666666,94.4625035841018L120.23510625,128.1094336397946L120.46383958333334,108.44426657818258L120.69257291666666,145.82953515741974L120.92130625,125.30541908740997L121.15003958333334,-6.943773340433836L121.37877291666666,112.81563527695835L121.60750625000001,140.66940806619823L121.83623958333334,75.2814671471715L122.06497291666666,74.66211491078138L122.29370625,84.0207345765084L122.52243958333334,128.4836585847661L122.75117291666666,141.73177056759596L122.97990625,86.29944044910371L123.20863958333334,-12.205662813037634L123.43737291666667,-50.259477227926254L123.66610625,111.75117101334035L123.89483958333332,102.02885581925511L124.12357291666667,-1.1327057629823685L124.35230625,64.96983431093395L124.58103958333332,116.78765679057688L124.80977291666667,-48.058017298579216L125.03850625,35.45051798969507L125.26723958333334,62.06188555620611L125.49597291666666,-142.56442315131426L125.72470625,113.33295726031065L125.95343958333333,79.68671954981983L126.18217291666666,50.1111254543066L126.41090625000001,54.527282293885946L126.63963958333333,114.08507905248553L126.86837291666666,66.78473483584821L127.09710625000001,46.229467352852225L127.32583958333333,125.74871370848268L127.55457291666667,22.246027875691652L127.78330625,139.9903328139335L128.01203958333335,101.57576533779502L128.24077291666666,-2.3206547386944294L128.46950625,128.97604377754033L128.69823958333333,127.65157916396856L128.92697291666667,6.660974722355604L129.15570625,81.77464310824871L129.38443958333332,-369.35538049042225L129.61317291666668,64.83776946365833L129.84190625,34.09482366219163L130.07063958333333,68.62384271621704L130.29937291666667,125.81824906915426L130.52810625,74.72261269390583L130.75683958333332,107.48468437045813L130.98557291666668,102.38247113116086L131.21430625,96.2882920615375L131.44303958333333,105.22777912952006L131.67177291666667,100.66843870840967L131.90050625,91.43129265680909L132.12923958333334,90.83417788892984L132.35797291666665,108.69734347611666L132.58670625000002,133.58890907652676L132.81543958333333,74.1532741561532L133.04417291666667,91.12246548570693L133.27290625,39.52683224156499L133.50163958333334,71.33938544243574L133.73037291666665,134.57940779440105L133.95910625,-154.6673096269369L134.18783958333333,117.73306240607053L134.41657291666667,107.30830943025649L134.64530625,50.47384016029537L134.87403958333334,121.52514010481536L135.10277291666665,98.77118207328022L135.33150625,94.65186823904514L135.56023958333336,87.33969735726714L135.78897291666667,126.89091432653368L136.01770625,78.13580035977066L136.24643958333334,28.72936264425516L136.47517291666665,116.98100655153394L136.70390625,125.34222053177655L136.93263958333335,90.39290672913194L137.16137291666666,74.73133294656873L137.39010625,103.99414361268282L137.61883958333334,138.76721022929996L137.84757291666665,104.07461225800216L138.07630625000002,125.6536398762837L138.30503958333333,52.354966800659895L138.53377291666666,79.26784246042371L138.76250625,98.50579956360161L138.9912395833333,111.28541638422757L139.21997291666668,131.9751595593989L139.44870625000001,83.09749224968255L139.67743958333332,44.1345379203558L139.90617291666666,30.043565712869167L140.13490625,-16.135068006813526L140.36363958333334,104.70706135779619L140.59237291666668,97.58488978073001L140.82110625,101.54187339171767L141.04983958333332,74.04421330243349L141.27857291666666,65.83777968585491L141.50730625,62.780960228294134L141.73603958333334,119.28062289766967L141.96477291666667,59.853930769488215L142.19350624999998,86.8180647008121L142.42223958333332,82.82507913932204L142.6509729166667,123.51325880549848L142.87970625,-92.99290231615305L143.10843958333334,134.0468130055815L143.33717291666667,-26.36492992937565L143.56590624999998,63.33030317723751L143.79463958333332,75.1007897760719L144.0233729166667,84.51895112916827L144.25210625,121.37169497832656L144.48083958333333,-30.13069438934326L144.70957291666667,60.23478656820953L144.93830624999998,-118.27467861771584L145.16703958333335,105.56182744726539L145.39577291666666,63.37809148058295L145.62450625,77.22291848435998L145.85323958333333,110.97958113346249L146.08197291666664,118.44399790093303L146.31070625,100.59705297276378L146.53943958333335,46.87985149025917L146.76817291666666,45.311475310474634L146.99690625,122.35092660225928L147.22563958333333,103.79561362601817L147.45437291666667,93.55966071411967L147.68310625,-17.071448408067226L147.91183958333335,78.21349962428212L148.14057291666666,107.27431033551693L148.36930625,105.77389113418758L148.59803958333336,91.96997019276023L148.82677291666667,-192.4562030956149L149.05550625,114.5895926496014L149.28423958333332,39.169021647423506L149.51297291666666,117.93815730884671L149.74170625,80.88730382546782L149.97043958333333,110.86023400817066L150.19917291666667,69.4291308503598L150.42790625,0.48860185593366623L150.65663958333332,90.51703433319926L150.88537291666665,96.28501166403294L151.11410625000002,11.809599816799164L151.34283958333333,127.56085721589625L151.57157291666667,89.45260303840041L151.80030625,128.22381483670324L152.02903958333332,73.17222100496292L152.25777291666668,46.50521031394601L152.48650625000002,69.73438090458512L152.71523958333333,90.7309277895838L152.94397291666667,83.60020904615521L153.17270624999998,78.07311839237809L153.40143958333334,5.60549446195364L153.63017291666668,125.37530474178493L153.85890625,-55.00939390808344L154.08763958333333,107.75333079323173L154.31637291666667,81.70478218048811L154.54510625,63.72170899808407L154.77383958333334,95.46119505353272L155.00257291666668,-5.998821046203375L155.23130625,101.45926177315414L155.46003958333333,63.28854816779494L155.6887729166667,-19.527856215834618L155.91750625,95.33679545670748L156.14623958333334,-53.206889659166336L156.37497291666668,121.08083581365645L156.60370625,110.88369544409215L156.83243958333333,82.95148159191012L157.06117291666666,68.09634985215962L157.28990625,109.59124767500907L157.51863958333334,137.42664858978242L157.74737291666665,117.62200281769037L157.97610625,92.02372585237026L158.20483958333335,123.24078799970448L158.43357291666666,-49.61373345181346L158.66230625,47.88605985045433L158.89103958333334,99.74494087323546L159.11977291666665,85.94427560269833L159.34850625,122.35596258938313L159.57723958333335,82.82652976736426L159.80597291666666,83.611583288759L160.03470625,82.14497361145914L160.26343958333334,64.47446956112981L160.49217291666668,108.41810994129628L160.72090625,56.2949385009706L160.94963958333332,125.06668774690479L161.17837291666666,91.25701947882771L161.40710625,99.92129932902753L161.6358395833333,85.75452356413007L161.86457291666667,-72.60059970617294L162.09330625,87.00836072489619L162.32203958333332,107.31821656040847L162.55077291666666,113.11842091195285L162.77950625,-211.21625243872404L163.00823958333334,77.45032915659249L163.23697291666667,68.50571543723345L163.46570625,95.62959153950214L163.69443958333332,123.3387095136568L163.92317291666666,123.18859011679888L164.15190625000002,108.00460264831781L164.38063958333333,-46.98104136809707L164.60937291666667,10.341333456337452L164.83810624999998,20.94399030134082L165.06683958333332,81.44577089510858L165.29557291666669,116.28491526748985L165.52430625,47.76033325865865L165.75303958333333,96.31700790300965L165.98177291666667,79.76003396138549L166.21050624999998,86.47268335148692L166.43923958333335,56.51738736592233L166.66797291666668,80.5235011484474L166.89670625,117.8020949922502L167.12543958333333,-0.36242227256298065L167.35417291666667,112.19117287360132L167.58290625,94.28213941678405L167.81163958333335,99.05432653427124L168.04037291666666,119.7750397939235L168.26910625,104.17454074881971L168.49783958333333,-35.622409500181675L168.72657291666664,112.98070191219449L168.95530625,1.5505604892969131L169.18403958333334,123.39202421531081L169.41277291666665,97.13008492067456L169.64150625,111.97288632206619L169.87023958333333,130.42533246148378L170.09897291666667,63.18771303445101L170.32770625,90.78292785957456L170.55643958333334,55.18669164553285L170.78517291666665,60.862389251589775L171.01390625,135.3293000701815L171.24263958333336,-55.70500302314758L171.47137291666667,94.2635450027883L171.70010625,-50.96491105109453L171.9288395833333,117.9104305319488L172.15757291666665,132.83088174462318L172.38630625000002,105.95690929144621L172.61503958333333,51.26124271005392L172.84377291666667,147.80010208301246L173.07250625,142.16369506716728L173.3012395833333,129.632312849164L173.52997291666668,11.492439776659012L173.75870625000002,51.448538571596146L173.98743958333333,130.2503298483789L174.21617291666666,145.85473981965333L174.44490625,65.66649018600583L174.67363958333334,135.74685016460717L174.90237291666668,108.21625422500074L175.13110625000002,130.9203716441989L175.35983958333333,125.28465697355568L175.58857291666666,28.64311621338129L175.81730624999997,106.26590954884887L176.04603958333334,122.82248786464334L176.27477291666668,-38.01741288229823L176.50350625,92.46483216807246L176.73223958333332,109.3079589754343L176.96097291666666,68.36080099269748L177.18970625,103.81255135685205L177.41843958333334,117.43010780587792L177.64717291666668,84.55243096500635L177.87590624999999,104.03166212886572L178.10463958333332,13.241831257939339L178.3333729166667,-65.46740005910397L178.56210625,98.94317216053605L178.79083958333334,102.06836894899607L179.01957291666668,135.72772412840277L179.24830624999998,104.83626616001129L179.47703958333335,-236.04365247488022L179.70577291666666,59.30670606717467L179.93450625,137.0881000282243L180.16323958333334,40.59756882302463L180.39197291666665,118.03478067554533L180.62070625,98.58214710652828L180.84943958333335,112.60923398472369L181.07817291666666,102.33516087569296L181.30690625,80.48604032769799L181.53563958333334,141.96104397810996L181.76437291666664,71.54350364394486L181.99310625,42.860375482589006L182.22183958333335,136.10695209167898L182.45057291666666,73.71712964773178L182.67930625,113.10200244002044L182.90803958333333,126.4897332508117L183.13677291666667,106.4490348547697L183.36550625,60.46720850095153L183.59423958333332,75.78981336951256L183.82297291666666,128.97517010383308L184.05170625,124.52551694400609L184.28043958333333,99.89013555273414L184.50917291666667,81.01795925572515L184.73790625,91.30879700928926L184.96663958333332,-5.087909057736397L185.19537291666666,142.22114323452115L185.42410625000002,132.14931734651327L185.65283958333333,124.89983255323023L185.88157291666667,16.53696582466364L186.11030625,122.77645515091717L186.33903958333332,120.77426700666547L186.56777291666668,118.99904033448547L186.79650625000002,125.6084767151624L187.02523958333333,-79.4447452314198L187.25397291666667,-32.95874321088195L187.48270624999998,94.58598005399108L187.71143958333334,123.34531564079225L187.94017291666668,-25.105191349983215L188.16890625,121.55551262944937L188.39763958333333,-130.88393318653107L188.62637291666667,136.87196469213814L188.85510624999998,64.58893730118871L189.08383958333334,92.14861173927784L189.31257291666668,78.52680231258273L189.54130625,109.77398147620261L189.77003958333333,95.51861025206745L189.99877291666667,21.210658594965935L190.22750625,-4.073557399213314L190.45623958333334,117.48306397162378L190.68497291666665,108.76635545678437L190.91370625,130.5765686770901L191.14243958333333,75.59840464778244L191.37117291666667,107.96846058033407L191.59990625,113.36743440292776L191.82863958333334,99.7439682930708L192.05737291666665,56.23436653800309L192.28610625,117.86371371522546L192.51483958333336,111.18102061841637L192.74357291666666,116.00366239249706L192.97230625,12.763107519596815L193.20103958333334,127.1098808599636L193.42977291666665,141.83157954644412L193.65850625000002,119.93795521371067L193.88723958333335,89.51134523190558L194.11597291666666,82.71168288588524L194.34470625,105.65981077775359L194.5734395833333,99.06057412549853L194.80217291666665,137.63525055069476L195.03090625000002,107.83313181996346L195.25963958333332,108.18536244146526L195.48837291666666,85.17908579483628L195.71710625,121.69197057187557L195.9458395833333,86.62921930477023L196.17457291666668,91.65034573338926L196.40330625,121.55078984610736L196.63203958333332,122.82255792338401L196.86077291666666,6.953029006719589L197.08950625,117.49686142243445L197.31823958333334,111.90517248865217L197.54697291666668,87.1420080754906L197.77570625,84.77935534715652L198.00443958333332,131.13561682216823L198.23317291666666,121.04569929465652L198.46190625,22.864341594278812L198.69063958333334,123.29407385364175L198.91937291666667,65.38928011246026L199.14810624999998,118.96675149723887L199.37683958333332,94.48447730205953L199.6055729166667,116.21884163282812L199.83430625,90.07793911546469L200.06303958333334,128.4772420283407L200.29177291666667,92.7275524456054L200.52050624999998,65.19521740078926L200.74923958333335,6.634253494441509L200.9779729166667,88.32469028234482L201.20670625,139.9783981014043L201.43543958333333,123.07296846807003L201.66417291666667,153.98021231917664L201.89290624999998,101.2654463276267L202.12163958333335,149.55557631142437L202.35037291666666,118.73691349569708L202.57910625,86.6484730951488L202.80783958333333,74.62424197979271L203.03657291666664,137.78094388358295L203.26530625,-26.340071439743042L203.49403958333335,43.89854711294174L203.72277291666666,127.70334845222533L203.95150625,116.33074192609638L204.18023958333333,98.98709486983716L204.40897291666667,-8.14273390173912L204.63770625,137.04138321150094L204.86643958333335,-198.4873540252447L205.09517291666666,89.78184615075588L205.32390625,129.0314602414146L205.55263958333336,-5.797200232744217L205.78137291666667,152.48635597340763L206.01010625,132.22535992786288L206.23883958333332,-16.654590658843517L206.46757291666665,135.18463289178908L206.69630625000002,66.05167314223945L206.92503958333333,97.16857601702213L207.15377291666667,138.39400731772184L207.38250625,136.07929125241935L207.61123958333332,120.55535404756665L207.83997291666665,-182.61514245718718L208.06870625000002,73.51020085439086L208.29743958333333,84.35562359914184L208.52617291666667,137.31616595573723L208.75490625,144.60300030000508L208.98363958333331,104.66097094863653L209.21237291666668,114.80773496255279L209.44110625000002,122.01083674840629L209.66983958333333,138.42809295561165L209.89857291666667,140.10178802814335L210.12730624999998,5.969107568264008L210.35603958333334,122.80006906762719L210.58477291666668,80.2105858437717L210.81350625,108.42862699460238L211.04223958333333,105.79115855321288L211.27097291666666,99.6876575499773L211.49970625,55.482974180951715L211.72843958333334,145.20186035474762L211.95717291666668,143.4917862508446L212.18590625,79.30120690539479L212.41463958333333,28.545165851712227L212.6433729166667,119.02214735560119L212.87210625,127.20018657669425L213.10083958333334,139.62078944128007L213.32957291666665,97.38074685260653L213.55830625,128.01843557786196L213.78703958333335,29.73626334965229L214.01577291666666,-2.791301116347313L214.24450625,96.07755536958575L214.47323958333334,106.07694051973522L214.70197291666665,94.29434612207115L214.93070625,125.23515429161489L215.15943958333335,116.32524849660695L215.38817291666666,-1.7233751267194748L215.61690625,150.59536753501743L215.84563958333334,90.65006351843476L216.07437291666665,144.1918111271225L216.30310625,126.87469366751611L216.53183958333335,117.5798027291894L216.76057291666666,146.90614430978894L216.98930625,96.2103867419064L217.2180395833333,-0.19836942851543427L217.44677291666667,-3.5696289986371994L217.67550625,133.4402197021991L217.90423958333332,97.77421322464943L218.13297291666666,88.86520582996309L218.36170625,128.02577526122332L218.59043958333334,137.08080155588686L218.81917291666667,119.21705489326268L219.04790625,113.23400134965777L219.27663958333332,144.714298912324L219.50537291666666,136.68897126149386L219.73410625000002,114.59170677512884L219.96283958333333,127.87387142702937L220.19157291666667,106.62960507720709L220.42030625,120.14012825489044L220.64903958333332,119.15731951408088L220.87777291666666,109.64617372769862L221.10650625,77.66667879000306L221.33523958333333,110.44636817928404L221.56397291666667,135.34062485955656L221.79270624999998,127.6600521504879L222.02143958333332,89.2624883428216L222.25017291666668,105.78196025267243L222.47890625,98.87143201008439L222.70763958333333,135.24647003319114L222.93637291666667,82.58457160368562L223.16510624999998,142.09378056507558L223.39383958333335,141.06126720830798L223.62257291666668,138.71894387807697L223.85130625,149.6388040347956L224.08003958333333,125.97063095122576L224.30877291666667,126.13588715717196L224.53750625,80.30983023159206L224.76623958333334,144.89045955520123L224.99497291666665,72.43614266440272L225.22370625,127.65007908269763L225.45243958333333,69.90337907150388L225.68117291666667,83.21478706598282L225.90990625,81.28213840350509L226.13863958333334,95.10947544872761L226.36737291666665,60.392641274258494L226.59610625,112.74134004302323L226.82483958333336,130.81736468989402L227.05357291666667,108.43428938928992L227.28230625,111.41581630613655L227.51103958333334,90.67739466950297L227.73977291666665,73.67031392455101L227.96850625,84.02087469398975L228.19723958333336,142.2555461972952L228.42597291666667,50.47137574106455L228.65470625,80.50249176844954L228.8834395833333,88.06187934055924L229.11217291666665,113.95322026032954L229.34090625000002,123.2092203553766L229.56963958333333,118.1360526457429L229.79837291666666,139.32099572662264L230.02710625,136.77077926509082L230.2558395833333,127.69068842567503L230.48457291666668,55.29177975654602L230.71330625000002,44.74431271478534L230.94203958333333,100.36104568094015L231.17077291666666,116.26910259760916L231.39950625,134.02474038116634L231.62823958333334,138.25049404799938L231.85697291666668,122.89488739147782L232.08570625000002,146.40589605364949L232.31443958333332,140.18817869760096L232.54317291666666,101.82137479819357L232.77190625,79.6309940032661L233.00063958333334,90.82039692252874L233.22937291666668,134.59871103800833L233.45810625,73.30548097193241L233.68683958333332,93.40493804588914L233.9155729166667,58.65084910579026L234.14430625,130.7133192177862L234.37303958333334,145.38610041886568L234.60177291666668,107.98297098185867L234.83050624999998,126.31407950352877L235.05923958333332,120.98852312006056L235.2879729166667,136.21587694901973L235.51670625,138.68010248802602L235.74543958333334,64.80442150309682L235.97417291666667,121.70539300236851L236.20290624999998,140.55339903384447L236.43163958333335,39.58914330974221L236.66037291666666,35.269552141427994L236.88910625,87.47836421057582L237.11783958333334,68.96302592754364L237.34657291666664,130.78982748370618L237.57530625,110.1099048955366L237.80403958333335,82.0583727657795L238.03277291666666,135.44946317374706L238.26150625,122.5956541467458L238.49023958333333,-46.685756139457226L238.71897291666667,63.043490935117006L238.94770625,107.04636391997337L239.17643958333335,85.15124362707138L239.40517291666666,101.07781253568828L239.63390625,116.65797806158662L239.8626395833333,143.12811132799834L240.09137291666667,133.2754662707448L240.32010625,93.11012262292206L240.54883958333332,140.27268602326512L240.77757291666666,101.38183450140059L241.00630625,139.82671680673957L241.23503958333333,103.48759419098496L241.46377291666667,126.58521095104516L241.69250625,136.04814396053553L241.92123958333332,108.47015534341335L242.14997291666666,122.32782370224595L242.37870625000002,121.06478824093938L242.60743958333333,112.86238506250083L242.83617291666667,-60.07966860383749L243.06490625,120.04026570171118L243.29363958333332,91.49225200340152L243.52237291666668,91.97989380732179L243.75110625,116.08824801910669L243.97983958333333,151.87676250748336L244.20857291666667,85.18257224746048L244.43730624999998,97.16781773418188L244.66603958333334,96.38778371550143L244.89477291666668,-4.507591903209686L245.12350625,126.33027131482959L245.35223958333333,99.54848792217672L245.58097291666667,134.7169042546302L245.80970625,20.596581369638443" style="fill: none;" fill="none"></path></g></g></g></g></g></g><g transform="translate(61, 177)" clip-path="url(#clip_1)"><clipPath id="clip_1"><rect width="268" height="23"></rect></clipPath><g><g><line x1="0" y1="0" x2="0" y2="5" style="visibility: inherit;" fill="rgb(0, 0, 0)" stroke="rgb(204, 204, 204)" stroke-width="1px"></line><line x1="22.337239583333332" y1="0" x2="22.337239583333332" y2="5" style="visibility: inherit;" fill="rgb(0, 0, 0)" stroke="rgb(204, 204, 204)" stroke-width="1px"></line><line x1="44.674479166666664" y1="0" x2="44.674479166666664" y2="5" style="visibility: inherit;" fill="rgb(0, 0, 0)" stroke="rgb(204, 204, 204)" stroke-width="1px"></line><line x1="67.01171875" y1="0" x2="67.01171875" y2="5" style="visibility: inherit;" fill="rgb(0, 0, 0)" stroke="rgb(204, 204, 204)" stroke-width="1px"></line><line x1="89.34895833333333" y1="0" x2="89.34895833333333" y2="5" style="visibility: inherit;" fill="rgb(0, 0, 0)" stroke="rgb(204, 204, 204)" stroke-width="1px"></line><line x1="111.68619791666667" y1="0" x2="111.68619791666667" y2="5" style="visibility: inherit;" fill="rgb(0, 0, 0)" stroke="rgb(204, 204, 204)" stroke-width="1px"></line><line x1="134.0234375" y1="0" x2="134.0234375" y2="5" style="visibility: inherit;" fill="rgb(0, 0, 0)" stroke="rgb(204, 204, 204)" stroke-width="1px"></line><line x1="156.36067708333334" y1="0" x2="156.36067708333334" y2="5" style="visibility: inherit;" fill="rgb(0, 0, 0)" stroke="rgb(204, 204, 204)" stroke-width="1px"></line><line x1="178.69791666666666" y1="0" x2="178.69791666666666" y2="5" style="visibility: inherit;" fill="rgb(0, 0, 0)" stroke="rgb(204, 204, 204)" stroke-width="1px"></line><line x1="201.03515625" y1="0" x2="201.03515625" y2="5" style="visibility: inherit;" fill="rgb(0, 0, 0)" stroke="rgb(204, 204, 204)" stroke-width="1px"></line><line x1="223.37239583333334" y1="0" x2="223.37239583333334" y2="5" style="visibility: inherit;" fill="rgb(0, 0, 0)" stroke="rgb(204, 204, 204)" stroke-width="1px"></line><line x1="245.70963541666666" y1="0" x2="245.70963541666666" y2="5" style="visibility: inherit;" fill="rgb(0, 0, 0)" stroke="rgb(204, 204, 204)" stroke-width="1px"></line><line x1="268.046875" y1="0" x2="268.046875" y2="5" style="visibility: inherit;" fill="rgb(0, 0, 0)" stroke="rgb(204, 204, 204)" stroke-width="1px"></line></g><g transform="translate(0, 8)"><text x="0" y="0" dx="0em" dy="0.95em" style="text-anchor: middle; visibility: hidden; font-family: Roboto, sans-serif; font-size: 12px; font-weight: 200;" fill="rgb(33, 33, 33)" stroke="none" stroke-width="1px">-200k</text><text x="22.337239583333332" y="0" dx="0em" dy="0.95em" style="text-anchor: middle; visibility: inherit; font-family: Roboto, sans-serif; font-size: 12px; font-weight: 200;" fill="rgb(33, 33, 33)" stroke="none" stroke-width="1px">0</text><text x="44.674479166666664" y="0" dx="0em" dy="0.95em" style="text-anchor: middle; visibility: hidden; font-family: Roboto, sans-serif; font-size: 12px; font-weight: 200;" fill="rgb(33, 33, 33)" stroke="none" stroke-width="1px">200k</text><text x="67.01171875" y="0" dx="0em" dy="0.95em" style="text-anchor: middle; visibility: inherit; font-family: Roboto, sans-serif; font-size: 12px; font-weight: 200;" fill="rgb(33, 33, 33)" stroke="none" stroke-width="1px">400k</text><text x="89.34895833333333" y="0" dx="0em" dy="0.95em" style="text-anchor: middle; visibility: hidden; font-family: Roboto, sans-serif; font-size: 12px; font-weight: 200;" fill="rgb(33, 33, 33)" stroke="none" stroke-width="1px">600k</text><text x="111.68619791666667" y="0" dx="0em" dy="0.95em" style="text-anchor: middle; visibility: inherit; font-family: Roboto, sans-serif; font-size: 12px; font-weight: 200;" fill="rgb(33, 33, 33)" stroke="none" stroke-width="1px">800k</text><text x="134.0234375" y="0" dx="0em" dy="0.95em" style="text-anchor: middle; visibility: hidden; font-family: Roboto, sans-serif; font-size: 12px; font-weight: 200;" fill="rgb(33, 33, 33)" stroke="none" stroke-width="1px">1M</text><text x="156.36067708333334" y="0" dx="0em" dy="0.95em" style="text-anchor: middle; visibility: inherit; font-family: Roboto, sans-serif; font-size: 12px; font-weight: 200;" fill="rgb(33, 33, 33)" stroke="none" stroke-width="1px">1.2M</text><text x="178.69791666666666" y="0" dx="0em" dy="0.95em" style="text-anchor: middle; visibility: hidden; font-family: Roboto, sans-serif; font-size: 12px; font-weight: 200;" fill="rgb(33, 33, 33)" stroke="none" stroke-width="1px">1.4M</text><text x="201.03515625" y="0" dx="0em" dy="0.95em" style="text-anchor: middle; visibility: inherit; font-family: Roboto, sans-serif; font-size: 12px; font-weight: 200;" fill="rgb(33, 33, 33)" stroke="none" stroke-width="1px">1.6M</text><text x="223.37239583333334" y="0" dx="0em" dy="0.95em" style="text-anchor: middle; visibility: hidden; font-family: Roboto, sans-serif; font-size: 12px; font-weight: 200;" fill="rgb(33, 33, 33)" stroke="none" stroke-width="1px">1.8M</text><text x="245.70963541666666" y="0" dx="0em" dy="0.95em" style="text-anchor: middle; visibility: inherit; font-family: Roboto, sans-serif; font-size: 12px; font-weight: 200;" fill="rgb(33, 33, 33)" stroke="none" stroke-width="1px">2M</text><text x="268.046875" y="0" dx="0em" dy="0.95em" style="text-anchor: middle; visibility: hidden; font-family: Roboto, sans-serif; font-size: 12px; font-weight: 200;" fill="rgb(33, 33, 33)" stroke="none" stroke-width="1px">2.2M</text></g><line x1="0" y1="0" x2="268.046875" y2="0" fill="rgb(0, 0, 0)" stroke="rgb(204, 204, 204)" stroke-width="1px"></line></g></g></g></g></svg>