<svg viewBox="0 0 330 200" xmlns="http://www.w3.org/2000/svg"><g><g><g><g><g><line x1="61.953125" y1="177" x2="56.953125" y2="177" style="visibility: inherit;" fill="rgb(0, 0, 0)" stroke="rgb(204, 204, 204)" stroke-width="1px"></line><line x1="61.953125" y1="157.33333333333334" x2="56.953125" y2="157.33333333333334" style="visibility: inherit;" fill="rgb(0, 0, 0)" stroke="rgb(204, 204, 204)" stroke-width="1px"></line><line x1="61.953125" y1="137.66666666666669" x2="56.953125" y2="137.66666666666669" style="visibility: inherit;" fill="rgb(0, 0, 0)" stroke="rgb(204, 204, 204)" stroke-width="1px"></line><line x1="61.953125" y1="118.00000000000001" x2="56.953125" y2="118.00000000000001" style="visibility: inherit;" fill="rgb(0, 0, 0)" stroke="rgb(204, 204, 204)" stroke-width="1px"></line><line x1="61.953125" y1="98.33333333333334" x2="56.953125" y2="98.33333333333334" style="visibility: inherit;" fill="rgb(0, 0, 0)" stroke="rgb(204, 204, 204)" stroke-width="1px"></line><line x1="61.953125" y1="78.66666666666666" x2="56.953125" y2="78.66666666666666" style="visibility: inherit;" fill="rgb(0, 0, 0)" stroke="rgb(204, 204, 204)" stroke-width="1px"></line><line x1="61.953125" y1="59.00000000000001" x2="56.953125" y2="59.00000000000001" style="visibility: inherit;" fill="rgb(0, 0, 0)" stroke="rgb(204, 204, 204)" stroke-width="1px"></line><line x1="61.953125" y1="39.33333333333335" x2="56.953125" y2="39.33333333333335" style="visibility: inherit;" fill="rgb(0, 0, 0)" stroke="rgb(204, 204, 204)" stroke-width="1px"></line><line x1="61.953125" y1="19.666666666666657" x2="56.953125" y2="19.666666666666657" style="visibility: inherit;" fill="rgb(0, 0, 0)" stroke="rgb(204, 204, 204)" stroke-width="1px"></line><line x1="61.953125" y1="0" x2="56.953125" y2="0" style="visibility: inherit;" fill="rgb(0, 0, 0)" stroke="rgb(204, 204, 204)" stroke-width="1px"></line></g><g transform="translate(51.953125, 0)"><text x="0" y="177" dx="0em" dy="0.3em" style="text-anchor: end; visibility: hidden; font-family: Roboto, sans-serif; font-size: 12px; font-weight: 200;" fill="rgb(33, 33, 33)" stroke="none" stroke-width="1px">-0.18</text><text x="0" y="157.33333333333334" dx="0em" dy="0.3em" style="text-anchor: end; visibility: inherit; font-family: Roboto, sans-serif; font-size: 12px; font-weight: 200;" fill="rgb(33, 33, 33)" stroke="none" stroke-width="1px">-0.16</text><text x="0" y="137.66666666666669" dx="0em" dy="0.3em" style="text-anchor: end; visibility: hidden; font-family: Roboto, sans-serif; font-size: 12px; font-weight: 200;" fill="rgb(33, 33, 33)" stroke="none" stroke-width="1px">-0.14</text><text x="0" y="118.00000000000001" dx="0em" dy="0.3em" style="text-anchor: end; visibility: inherit; font-family: Roboto, sans-serif; font-size: 12px; font-weight: 200;" fill="rgb(33, 33, 33)" stroke="none" stroke-width="1px">-0.12</text><text x="0" y="98.33333333333334" dx="0em" dy="0.3em" style="text-anchor: end; visibility: hidden; font-family: Roboto, sans-serif; font-size: 12px; font-weight: 200;" fill="rgb(33, 33, 33)" stroke="none" stroke-width="1px">-0.1</text><text x="0" y="78.66666666666666" dx="0em" dy="0.3em" style="text-anchor: end; visibility: inherit; font-family: Roboto, sans-serif; font-size: 12px; font-weight: 200;" fill="rgb(33, 33, 33)" stroke="none" stroke-width="1px">-0.08</text><text x="0" y="59.00000000000001" dx="0em" dy="0.3em" style="text-anchor: end; visibility: hidden; font-family: Roboto, sans-serif; font-size: 12px; font-weight: 200;" fill="rgb(33, 33, 33)" stroke="none" stroke-width="1px">-0.06</text><text x="0" y="39.33333333333335" dx="0em" dy="0.3em" style="text-anchor: end; visibility: inherit; font-family: Roboto, sans-serif; font-size: 12px; font-weight: 200;" fill="rgb(33, 33, 33)" stroke="none" stroke-width="1px">-0.04</text><text x="0" y="19.666666666666657" dx="0em" dy="0.3em" style="text-anchor: end; visibility: hidden; font-family: Roboto, sans-serif; font-size: 12px; font-weight: 200;" fill="rgb(33, 33, 33)" stroke="none" stroke-width="1px">-0.02</text><text x="0" y="0" dx="0em" dy="0.3em" style="text-anchor: end; visibility: hidden; font-family: Roboto, sans-serif; font-size: 12px; font-weight: 200;" fill="rgb(33, 33, 33)" stroke="none" stroke-width="1px">0</text></g><line x1="61.953125" y1="0" x2="61.953125" y2="177" fill="rgb(0, 0, 0)" stroke="rgb(204, 204, 204)" stroke-width="1px"></line></g></g><g transform="translate(61, 0)" clip-path="url(#clip_0)"><clipPath id="clip_0"><rect width="268" height="177"></rect></clipPath><g><g><g><line x1="0" y1="0" x2="0" y2="177" fill="rgb(0, 0, 0)" stroke="rgb(66, 66, 66)" stroke-width="1px" opacity="0.25"></line><line x1="22.337239583333332" y1="0" x2="22.337239583333332" y2="177" fill="rgb(0, 0, 0)" stroke="rgb(66, 66, 66)" stroke-width="1px" opacity="0.25"></line><line x1="44.674479166666664" y1="0" x2="44.674479166666664" y2="177" fill="rgb(0, 0, 0)" stroke="rgb(66, 66, 66)" stroke-width="1px" opacity="0.25"></line><line x1="67.01171875" y1="0" x2="67.01171875" y2="177" fill="rgb(0, 0, 0)" stroke="rgb(66, 66, 66)" stroke-width="1px" opacity="0.25"></line><line x1="89.34895833333333" y1="0" x2="89.34895833333333" y2="177" fill="rgb(0, 0, 0)" stroke="rgb(66, 66, 66)" stroke-width="1px" opacity="0.25"></line><line x1="111.68619791666667" y1="0" x2="111.68619791666667" y2="177" fill="rgb(0, 0, 0)" stroke="rgb(66, 66, 66)" stroke-width="1px" opacity="0.25"></line><line x1="134.0234375" y1="0" x2="134.0234375" y2="177" fill="rgb(0, 0, 0)" stroke="rgb(66, 66, 66)" stroke-width="1px" opacity="0.25"></line><line x1="156.36067708333334" y1="0" x2="156.36067708333334" y2="177" fill="rgb(0, 0, 0)" stroke="rgb(66, 66, 66)" stroke-width="1px" opacity="0.25"></line><line x1="178.69791666666666" y1="0" x2="178.69791666666666" y2="177" fill="rgb(0, 0, 0)" stroke="rgb(66, 66, 66)" stroke-width="1px" opacity="0.25"></line><line x1="201.03515625" y1="0" x2="201.03515625" y2="177" fill="rgb(0, 0, 0)" stroke="rgb(66, 66, 66)" stroke-width="1px" opacity="0.25"></line><line x1="223.37239583333334" y1="0" x2="223.37239583333334" y2="177" fill="rgb(0, 0, 0)" stroke="rgb(66, 66, 66)" stroke-width="1px" opacity="0.25"></line><line x1="245.70963541666666" y1="0" x2="245.70963541666666" y2="177" fill="rgb(0, 0, 0)" stroke="rgb(66, 66, 66)" stroke-width="1px" opacity="0.25"></line><line x1="268.046875" y1="0" x2="268.046875" y2="177" fill="rgb(0, 0, 0)" stroke="rgb(66, 66, 66)" stroke-width="1px" opacity="0.25"></line></g><g><line x1="0" y1="177" x2="268.046875" y2="177" fill="rgb(0, 0, 0)" stroke="rgb(66, 66, 66)" stroke-width="1px" opacity="0.25"></line><line x1="0" y1="157.33333333333334" x2="268.046875" y2="157.33333333333334" fill="rgb(0, 0, 0)" stroke="rgb(66, 66, 66)" stroke-width="1px" opacity="0.25"></line><line x1="0" y1="137.66666666666669" x2="268.046875" y2="137.66666666666669" fill="rgb(0, 0, 0)" stroke="rgb(66, 66, 66)" stroke-width="1px" opacity="0.25"></line><line x1="0" y1="118.00000000000001" x2="268.046875" y2="118.00000000000001" fill="rgb(0, 0, 0)" stroke="rgb(66, 66, 66)" stroke-width="1px" opacity="0.25"></line><line x1="0" y1="98.33333333333334" x2="268.046875" y2="98.33333333333334" fill="rgb(0, 0, 0)" stroke="rgb(66, 66, 66)" stroke-width="1px" opacity="0.25"></line><line x1="0" y1="78.66666666666666" x2="268.046875" y2="78.66666666666666" fill="rgb(0, 0, 0)" stroke="rgb(66, 66, 66)" stroke-width="1px" opacity="0.25"></line><line x1="0" y1="59.00000000000001" x2="268.046875" y2="59.00000000000001" fill="rgb(0, 0, 0)" stroke="rgb(66, 66, 66)" stroke-width="1px" opacity="0.25"></line><line x1="0" y1="39.33333333333335" x2="268.046875" y2="39.33333333333335" fill="rgb(0, 0, 0)" stroke="rgb(66, 66, 66)" stroke-width="1px" opacity="0.25"></line><line x1="0" y1="19.666666666666657" x2="268.046875" y2="19.666666666666657" fill="rgb(0, 0, 0)" stroke="rgb(66, 66, 66)" stroke-width="1px" opacity="0.25"></line><line x1="0" y1="0" x2="268.046875" y2="0" fill="rgb(0, 0, 0)" stroke="rgb(66, 66, 66)" stroke-width="1px" opacity="0.25"></line></g></g></g><g><g><line x1="0" y1="0" x2="268.046875" y2="0" fill="rgb(0, 0, 0)" stroke="rgb(153, 153, 153)" stroke-width="1.5px"></line></g></g><g><g><line x1="22.337239583333332" y1="0" x2="22.337239583333332" y2="177" fill="rgb(0, 0, 0)" stroke="rgb(153, 153, 153)" stroke-width="1.5px"></line></g></g><g><g><g><g><g><path stroke="rgb(255, 112, 67)" stroke-width="2px" d="M22.79470625,39.359103081127L23.023439583333335,46.18556037700424L23.252172916666666,51.171214215862896L23.48090625,52.68867779728573L23.70963958333333,60.44977947387937L23.93837291666667,51.54375192475687L24.16710625,43.450153200408366L24.395839583333334,41.773348836007585L24.624572916666665,37.5652213153911L24.85330625,38.94931797745255L25.082039583333334,42.7429919955079L25.310772916666668,37.23836534057062L25.539506250000002,33.989588976012925L25.768239583333333,34.120695052262754L25.996972916666667,41.84249613352001L26.225706249999998,42.771181212918286L26.454439583333333,38.85825584579549L26.683172916666667,37.335811994054716L26.91190625,35.35015564607525L27.140639583333332,31.815293298431957L27.369372916666666,39.58474252451859L27.598106249999997,44.11112171423655L27.82683958333333,37.765748630819616L28.05557291666667,36.884488210150835L28.28430625,28.899773956036185L28.513039583333335,36.241684836593016L28.741772916666665,30.113142977515075L28.97050625,30.895662564976696L29.19923958333333,38.889429117498935L29.42797291666667,35.02132645631451L29.65670625,34.70347748782951L29.885439583333334,33.84197422911864L30.114172916666664,30.497173918804148L30.34290625,30.258712038631096L30.571639583333337,34.87218280531544L30.800372916666667,32.35260286254197L31.02910625,27.158152806336837L31.257839583333332,21.861616333323294L31.486572916666667,24.142216211669872L31.715306249999998,33.82509107659L31.944039583333335,27.42998331929764L32.172772916666666,23.971673254368547L32.40150625,24.01610753688378L32.630239583333335,28.440786601394993L32.858972916666666,32.716840849540425L33.08770625,36.25636498923629L33.316439583333334,40.41611065956937L33.545172916666665,34.175641524609816L33.77390625,33.640988879087445L34.002639583333334,32.24615228930949L34.231372916666665,34.699526763529576L34.46010625,26.00526806157541L34.68883958333333,23.161621618911898L34.917572916666664,20.511743798538433L35.146306249999995,20.161917259107433L35.37503958333333,19.647926472014237L35.60377291666667,21.05226874791778L35.83250625,16.661557251124158L36.06123958333333,15.781988064542485L36.28997291666666,17.79221885259663L36.51870625,16.050827671720814L36.74743958333334,14.122818741232637L36.97617291666666,16.581315112430186L37.20490625,22.50720571715735L37.43363958333333,23.05033218605779L37.66237291666667,30.432621136765473L37.89110625000001,29.023026150739668L38.11983958333333,23.090012224630396L38.34857291666667,27.397980676362433L38.57730625,20.784963065645808L38.80603958333334,18.820177501993406L39.03477291666666,24.703189126585137L39.26350625,22.80863482272676L39.49223958333334,23.97888290494313L39.72097291666667,20.642783667303895L39.94970625,16.343693061813397L40.17843958333333,14.938594263778935L40.40717291666667,25.410362648161342L40.635906250000005,21.127922326639546L40.864639583333336,24.7982452752085L41.09337291666667,29.67635544788191L41.32210625,24.56077337603578L41.550839583333335,21.434131651664618L41.779572916666666,24.501807127124977L42.00830625,28.199995835856754L42.237039583333335,20.026016694199726L42.465772916666666,18.325211196775246L42.69450625,21.100326941689865L42.92323958333333,21.693462123243613L43.151972916666665,24.82935391998406L43.38070625,22.61517186345328L43.609439583333334,22.06805221616229L43.83817291666667,25.038319574568668L44.066906249999995,21.936679132843427L44.29563958333333,23.610430693962815L44.52437291666667,37.80136015693664L44.75310625,32.44696058589411L44.98183958333333,36.865962879408556L45.21057291666666,35.69217679592914L45.43930625,27.40246890972823L45.66803958333333,30.533081426168106L45.89677291666666,30.91219408349869L46.12550625,29.121639525612245L46.35423958333333,26.484611871274353L46.58297291666667,22.488800779441224L46.81170625,20.478214939212336L47.04043958333333,22.046465038622735L47.26917291666667,23.445628934223645L47.49790625,20.64137455013546L47.72663958333334,23.550910268846053L47.95537291666666,19.76218203954275L48.18410625,24.26142886928147L48.41283958333333,28.124421684849803L48.64157291666667,25.453587394798905L48.870306250000006,28.402528279132717L49.09903958333333,27.58540909028475L49.32777291666667,28.64275329134719L49.55650625,30.039217215708035L49.785239583333336,25.79208161449301L50.01397291666667,27.027789144312532L50.24270625,22.817191526946534L50.471439583333336,22.347059376432767L50.700172916666666,17.924060136265137L50.92890625,22.83941755802623L51.157639583333335,30.38922704822537L51.386372916666666,25.94078016320895L51.615106250000004,29.769527805090142L51.843839583333335,26.083768728220576L52.072572916666665,22.67859732727851L52.301306249999996,24.74184076857952L52.530039583333334,22.201717677448517L52.75877291666667,17.274160895139573L52.987506249999996,17.778889440530886L53.21623958333333,23.84895037792186L53.444972916666664,23.553639558049415L53.67370625,22.8160197727436L53.90243958333334,23.15517010694073L54.131172916666664,27.293577521475118L54.35990625,23.75687825198885L54.58863958333333,33.88599495599221L54.81737291666667,32.83665102527271L55.046106249999994,37.875807464951656L55.27483958333333,42.90393154670856L55.50357291666667,38.98687575270771L55.73230625,40.97395565019074L55.96103958333333,37.09595966382438L56.18977291666666,33.23200553234586L56.41850625,32.932609103577356L56.64723958333334,33.223708837702084L56.87597291666667,37.80158452360285L57.10470625,39.82525977294716L57.33343958333333,38.35350987991335L57.56217291666667,37.357466276570015L57.790906250000006,49.05869251852267L58.01963958333333,44.62362666248302L58.24837291666667,41.388636639628906L58.47710625,48.50787854348468L58.705839583333336,38.292795610357395L58.93457291666666,40.91673142230256L59.16330625,37.11667572865334L59.392039583333336,33.771359689490694L59.62077291666667,39.27462678201399L59.849506250000005,37.38145869104505L60.07823958333333,43.140165802608585L60.306972916666666,39.814155278665204L60.535706250000004,53.766144103643725L60.764439583333335,65.038848441941L60.993172916666666,68.53125499016193L61.221906249999996,69.31213099554866L61.450639583333334,77.4958467511079L61.679372916666665,84.8894869403685L61.90810625,93.58070304691662L62.136839583333334,91.67151854852756L62.365572916666665,89.7397469366784L62.59430625,87.80691604128648L62.82303958333333,81.79857386337422L63.051772916666664,79.59154026619616L63.28050625,83.54039699978843L63.50923958333333,71.17497721501519L63.73797291666667,77.5555367222726L63.966706249999994,79.67670008249878L64.19543958333334,81.18729523643533L64.42417291666666,74.96902017886251L64.65290625,64.42310717162376L64.88163958333334,56.296522705496656L65.11037291666666,57.04536174560069L65.33910625,54.94427351548957L65.56783958333332,49.94715733862732L65.79657291666666,54.770367792468136L66.02530625,47.378721431625394L66.25403958333334,40.03837914013814L66.48277291666666,65.24780746744445L66.71150625,71.58227169382397L66.94023958333334,58.35943745891942L67.16897291666668,59.85527929060077L67.39770625,65.71989012594472L67.62643958333332,59.09379491409927L67.85517291666667,59.80705848853551L68.08390625,48.40088830801307L68.31263958333334,52.51899766770476L68.54137291666667,55.29050228206797L68.77010625,51.953932725639056L68.99883958333334,53.141196742604706L69.22757291666666,61.12552568810217L69.45630625000001,61.61785941618899L69.68503958333334,71.74814266740216L69.91377291666666,60.47411390808582L70.14250625000001,51.34753497640706L70.37123958333333,56.59606608073165L70.59997291666666,58.19672869038732L70.82870625,56.940718996875404L71.05743958333333,71.37661010524803L71.28617291666667,70.50397548378214L71.51490625,65.79278908153793L71.74363958333333,68.22404122539612L71.97237291666667,67.35752367688171L72.20110625,58.42753260063897L72.42983958333335,52.11293081677618L72.65857291666667,48.34816518567003L72.88730625,38.78764941429297L73.11603958333333,35.00393072000265L73.34477291666667,39.16084990937187L73.57350625,40.951483454537424L73.80223958333333,46.215756514409414L74.03097291666667,43.40342982832942L74.25970625000001,42.68685710961234L74.48843958333333,43.571484332489646L74.71717291666666,38.627967012052345L74.94590625000001,41.40616343744077L75.17463958333333,42.18703328864262L75.40337291666667,35.19997325120261L75.63210625,36.0615392371688L75.86083958333333,39.74599695769987L76.08957291666667,38.301740973600005L76.31830624999999,36.492252780641074L76.54703958333333,31.696071659710977L76.77577291666667,32.36083036771633L77.00450624999999,31.507517386642412L77.23323958333334,36.96840777347524L77.46197291666667,37.21966601520802L77.69070624999999,45.843501257558785L77.91943958333334,38.02456878929942L78.14817291666667,35.62962749586272L78.37690625,34.80168326091229L78.60563958333333,32.91495789870498L78.83437291666667,31.91420671712283L79.06310625,27.69737106981432L79.29183958333333,31.541258965467748L79.52057291666667,38.27290691407641L79.74930625,37.34535408003402L79.97803958333333,30.489166793127485L80.20677291666667,32.401090766131645L80.43550625,29.518001159612215L80.66423958333333,34.3053246571127L80.89297291666666,42.31394574245831L81.12170625,36.21753582974883L81.35043958333334,36.94274932416644L81.57917291666666,35.00073031746764L81.80790625,28.243920002858356L82.03663958333334,32.89455816317432L82.26537291666666,29.81636963388623L82.49410624999999,33.93795863052985L82.72283958333334,48.369561385675944L82.95157291666666,41.956314519980374L83.18030625,42.98934732433486L83.40903958333334,35.82770879550575L83.63777291666666,30.488092633985268L83.86650625,33.69075793498919L84.09523958333332,33.272151207769895L84.32397291666668,34.03739388635456L84.55270625,29.488315045937092L84.78143958333332,41.92248487578085L85.01017291666668,39.42813535495351L85.23890625,34.56102875101816L85.46763958333334,35.95380944845031L85.69637291666666,34.655510238827965L85.92510625,37.8013616663347L86.15383958333334,28.995042606421126L86.38257291666666,29.796604304052078L86.61130625,37.074760862312715L86.84003958333334,45.33114610699138L87.06877291666666,49.90532005481316L87.29750625000001,45.525677281533035L87.52623958333334,40.51683514490586L87.75497291666666,42.28421774014748L87.98370625,41.72214913768521L88.21243958333334,37.782293747283724L88.44117291666667,48.662555927287144L88.66990625,41.726339810640006L88.89863958333333,54.0584517241818L89.12737291666667,40.82137813248051L89.35610625,46.68023407008935L89.58483958333332,41.74322010803237L89.81357291666667,37.75474953687994L90.04230625,49.188611177822786L90.27103958333333,46.21938023560494L90.49977291666667,50.72364449159255L90.72850625,63.07403270198475L90.95723958333333,55.04039008693043L91.18597291666667,62.31395276949491L91.41470625000001,64.03577579597048L91.64343958333333,56.92425106588648L91.87217291666666,49.16279085749573L92.10090625000001,45.57308756773188L92.32963958333333,38.20220052777435L92.55837291666666,37.03703305867536L92.78710625000001,26.072774969521507L93.01583958333333,26.42719572860997L93.24457291666667,29.28908035802247L93.47330625,34.043739804510686L93.70203958333333,33.79195848239526L93.93077291666667,37.93672682324886L94.15950624999999,36.96826216467123L94.38823958333334,42.38737511269988L94.61697291666667,38.476799180901494L94.84570624999999,32.13326123900997L95.07443958333334,37.34464826711686L95.30317291666667,36.91966754215165L95.53190624999999,34.278683905406034L95.76063958333333,39.244771700861L95.98937291666667,38.02206044004079L96.21810625,35.829786159231546L96.44683958333333,37.26551129776297L96.67557291666667,36.089378114688756L96.90430625,28.613252276866632L97.13303958333333,40.13216694276869L97.36177291666667,31.35839050063297L97.59050625,29.01805594095867L97.81923958333333,32.44618294355839L98.04797291666667,32.79839243124469L98.27670625,34.19787480312908L98.50543958333334,29.726578320831006L98.73417291666667,33.142061224045335L98.96290624999999,32.99236296542206L99.19163958333334,37.967555417186304L99.42037291666666,32.270791000266655L99.64910624999999,48.52883132267384L99.87783958333334,51.62795573156111L100.10657291666666,54.37937320578714L100.33530625,51.03881920164001L100.56403958333334,49.02140770227814L100.79277291666666,50.51301781657003L101.02150625,49.37536094182329L101.25023958333333,48.62156735515753L101.47897291666668,48.479208360053036L101.70770625,55.451731389723385L101.93643958333332,50.78437154847115L102.16517291666668,64.18456961924473L102.39390625,71.34210877745134L102.62263958333332,65.3145873335726L102.85137291666666,69.49949639763794L103.08010625,66.11028628186202L103.30883958333334,64.5795420307069L103.53757291666666,83.5601105589558L103.76630625,93.39013428284065L103.99503958333334,93.74348181958996L104.22377291666666,99.51328888620537L104.45250625000001,90.91422079057853L104.68123958333334,94.24236944149749L104.90997291666666,84.36237194635956L105.13870625,101.1631301154603L105.36743958333334,97.84826002180036L105.59617291666666,86.25076464807664L105.82490625,95.20747106470071L106.05363958333334,106.7107705743953L106.28237291666667,99.46764986545905L106.51110625,98.59027011691173L106.73983958333332,109.87928972740157L106.96857291666667,96.00620269437145L107.19730625,127.12484488681662L107.42603958333333,112.54389900840744L107.65477291666667,113.35541865553911L107.88350625,114.9968809067793L108.11223958333333,93.6905080783121L108.34097291666667,113.18800546970482L108.56970625000001,110.85566315996557L108.79843958333333,133.24813137818123L109.02717291666666,124.85326329093425L109.25590625000001,134.00103767248737L109.48463958333333,142.65706511060046L109.71337291666666,131.93581787776742L109.94210625000001,116.36402788578545L110.17083958333333,126.04742059798483L110.39957291666667,121.40093074058359L110.62830625,113.82342055925649L110.85703958333333,99.75312228295557L111.08577291666667,109.09804617540054L111.31450625,98.82458849852885L111.54323958333335,112.98743200762434L111.77197291666667,91.99961684622384L112.00070625,95.26125776257922L112.22943958333333,76.44777342669254L112.45817291666667,76.06649058059108L112.68690624999999,94.52460288203906L112.91563958333333,107.61350758391906L113.14437291666667,109.30993368735885L113.37310625,102.43171027607306L113.60183958333333,92.94189813518474L113.83057291666667,85.22309235404302L114.05930625,92.34431667131408L114.28803958333333,99.3756153663132L114.51677291666667,86.4716354099989L114.74550625,89.59210995364667L114.97423958333333,92.69967039542486L115.20297291666667,79.83294701646024L115.43170625,88.06153968614491L115.66043958333333,85.61372082814864L115.88917291666667,86.44374159804161L116.11790624999999,80.54320959944232L116.34663958333334,93.40315768340453L116.57537291666667,100.59547325503361L116.80410624999999,105.10378733594139L117.03283958333334,94.35346805246027L117.26157291666667,88.80826031083676L117.49030625,96.39226453452198L117.71903958333334,98.11898295252853L117.94777291666666,120.09172046682833L118.17650625,103.50322398246287L118.40523958333333,98.60748433689847L118.63397291666666,105.75165634525166L118.86270625,113.756189555957L119.09143958333333,115.24138762217802L119.32017291666668,115.53338242766486L119.54890625,120.19703054346972L119.77763958333333,114.14321455708146L120.00637291666666,115.32297761252127L120.23510625,115.94904346869748L120.46383958333334,122.00383315646468L120.69257291666666,102.63340062994052L120.92130625,98.8764522200721L121.15003958333334,115.71931487674895L121.37877291666666,106.78041386418771L121.60750625000001,104.09263799277879L121.83623958333334,102.17927046430867L122.06497291666666,124.41442448583899L122.29370625,137.01666954370933L122.52243958333334,110.31018786557074L122.75117291666666,89.68097536023988L122.97990625,107.2106520429643L123.20863958333334,101.03936339986673L123.43737291666667,105.90490204436988L123.66610625,93.30763073172217L123.89483958333332,97.4886878415309L124.12357291666667,102.08844785398419L124.35230625,115.57047890329069L124.58103958333332,123.43699828805745L124.80977291666667,131.58639388892385L125.03850625,122.34070718852679L125.26723958333334,132.0651555293878L125.49597291666666,118.93166721268972L125.72470625,106.38448767108409L125.95343958333333,108.06395206198707L126.18217291666666,138.43688464172055L126.41090625000001,144.20126147671962L126.63963958333333,124.70698103867623L126.86837291666666,120.89001623131428L127.09710625000001,131.98190155031838L127.32583958333333,116.20126484276389L127.55457291666667,123.32998713915465L127.78330625,111.3906261885062L128.01203958333335,121.42166133109104L128.24077291666666,115.74322671920085L128.46950625,111.72245651223277L128.69823958333333,117.29816343230813L128.92697291666667,118.31552006309913L129.15570625,124.95590468747827L129.38443958333332,107.43111374280899L129.61317291666668,109.53096510351925L129.84190625,135.59863752949968L130.07063958333333,147.53540955083807L130.29937291666667,127.58051058906659L130.52810625,134.13951735451823L130.75683958333332,139.40711959653103L130.98557291666668,147.56574806244973L131.21430625,142.99035783611816L131.44303958333333,147.28439151845228L131.67177291666667,136.55818039934945L131.90050625,151.5824207748638L132.12923958333334,165.26607656989495L132.35797291666665,157.08638281333845L132.58670625000002,167.06003507400592L132.81543958333333,162.1474133556587L133.04417291666667,156.70076866699273L133.27290625,150.0235480651439L133.50163958333334,151.27994185200419L133.73037291666665,151.34191939539363L133.95910625,156.5155014155705L134.18783958333333,146.79655590206778L134.41657291666667,138.2077117277209L134.64530625,147.90130483188372L134.87403958333334,133.9237494890579L135.10277291666665,148.7799700274878L135.33150625,154.72818490911405L135.56023958333336,145.6408735735151L135.78897291666667,152.838262217617L136.01770625,151.27414373400367L136.24643958333334,159.09831002062097L136.47517291666665,162.5156651419731L136.70390625,149.11897612506144L136.93263958333335,154.6019355429848L137.16137291666666,155.42399068516335L137.39010625,166.84402235254748L137.61883958333334,161.82384356601102L137.84757291666665,172.847180951097L138.07630625000002,154.0842656623076L138.30503958333333,178.44000345453125L138.53377291666666,164.88134107580484L138.76250625,154.91454258515859L138.9912395833333,161.20235744091525L139.21997291666668,159.6876741824904L139.44870625000001,156.56988301148172L139.67743958333332,155.82511253120595L139.90617291666666,154.56620917893704L140.13490625,140.35111670401054L140.36363958333334,140.85883212907925L140.59237291666668,154.3523077934413L140.82110625,162.99998351550673L141.04983958333332,152.58580956031824L141.27857291666666,167.1268212586837L141.50730625,177.18087173244538L141.73603958333334,170.56462260131747L141.96477291666667,206.09282548454235L142.19350624999998,190.05155034001766L142.42223958333332,174.9890576827691L142.6509729166667,165.27883992760377L142.87970625,170.6444364955167L143.10843958333334,147.26803852141737L143.33717291666667,157.75358191939694L143.56590624999998,158.61488776492575L143.79463958333332,154.134301625217L144.0233729166667,173.72750289193291L144.25210625,164.1063709872057L144.48083958333333,163.0909722934419L144.70957291666667,160.2892567847324L144.93830624999998,170.02898981973445L145.16703958333335,154.87003901087195L145.39577291666666,157.0149844595767L145.62450625,158.10454909258942L145.85323958333333,144.31418224724447L146.08197291666664,145.37343190840275L146.31070625,145.47078990974856L146.53943958333335,147.28563686632413L146.76817291666666,138.5133104150889L146.99690625,131.5443159118532L147.22563958333333,141.92174460342957L147.45437291666667,145.68101467202962L147.68310625,154.08634872144972L147.91183958333335,147.0540934656452L148.14057291666666,163.38371001806203L148.36930625,167.3413979796152L148.59803958333336,171.54034988806134L148.82677291666667,185.19279599224816L149.05550625,176.44939744493536L149.28423958333332,157.84340813172562L149.51297291666666,170.20580707637095L149.74170625,165.39315087783908L149.97043958333333,160.78110329223816L150.19917291666667,177.08789274243404L150.42790625,194.61648562638692L150.65663958333332,174.9832313205127L150.88537291666665,169.8319983052407L151.11410625000002,153.81918111844027L151.34283958333333,147.79594874026276L151.57157291666667,148.59974316145124L151.80030625,138.98914773097718L152.02903958333332,150.45322727460317L152.25777291666668,143.50315730551074L152.48650625000002,143.77605200278276L152.71523958333333,146.279215199555L152.94397291666667,137.62980563410426L153.17270624999998,141.10781190575145L153.40143958333334,149.67960290778268L153.63017291666668,139.42925744852576L153.85890625,145.0887566622167L154.08763958333333,147.5494428962113L154.31637291666667,157.864276338993L154.54510625,165.36081648034562L154.77383958333334,146.379159338252L155.00257291666668,136.56733181892412L155.23130625,144.29244824341086L155.46003958333333,150.6692798619935L155.6887729166667,151.81346356980814L155.91750625,156.40304825770545L156.14623958333334,168.68986939629528L156.37497291666668,155.01306785289813L156.60370625,164.85068976766487L156.83243958333333,185.0095781478482L157.06117291666666,167.620875703883L157.28990625,157.1703404789717L157.51863958333334,151.91762172811536L157.74737291666665,155.18162304341777L157.97610625,144.696770931363L158.20483958333335,136.0142985930522L158.43357291666666,138.623594837416L158.66230625,162.10338548642125L158.89103958333334,168.55119760327574L159.11977291666665,162.6229116051974L159.34850625,150.69750420627486L159.57723958333335,152.3394015771796L159.80597291666666,156.96363532598713L160.03470625,145.29744009607572L160.26343958333334,145.78861964007342L160.49217291666668,157.99581451571063L160.72090625,156.24864216659114L160.94963958333332,150.28578092265312L161.17837291666666,160.63007265095823L161.40710625,167.93300012607324L161.6358395833333,172.74656901672847L161.86457291666667,163.95705497214416L162.09330625,153.3197680470301L162.32203958333332,146.16039848468424L162.55077291666666,149.71725785419378L162.77950625,157.59045656731743L163.00823958333334,155.55758481946202L163.23697291666667,159.2176338378188L163.46570625,150.54285597862386L163.69443958333332,144.66555429733745L163.92317291666666,138.1669858887014L164.15190625000002,127.95773008232618L164.38063958333333,134.29950113355304L164.60937291666667,143.9837745940239L164.83810624999998,149.64598777585533L165.06683958333332,146.72968424971884L165.29557291666669,121.72367366720827L165.52430625,139.71135214509323L165.75303958333333,139.910717182607L165.98177291666667,144.64641046916475L166.21050624999998,144.09992714163678L166.43923958333335,123.2881640062949L166.66797291666668,127.7330036759111L166.89670625,118.63965128658607L167.12543958333333,111.3428983676338L167.35417291666667,113.00757399725342L167.58290625,104.16998126026445L167.81163958333335,109.95321010301384L168.04037291666666,109.98201152533217L168.26910625,121.39674503117755L168.49783958333333,116.9769160162009L168.72657291666664,110.36384282771331L168.95530625,118.05624968765328L169.18403958333334,128.82671151732296L169.41277291666665,118.22603634501434L169.64150625,108.67941905958416L169.87023958333333,116.9419824872591L170.09897291666667,117.85071510836549L170.32770625,124.21303760269326L170.55643958333334,117.2394757743222L170.78517291666665,117.13720670991397L171.01390625,112.14509901396387L171.24263958333336,126.75227083956372L171.47137291666667,122.41852218823735L171.70010625,123.6221538081791L171.9288395833333,120.0258717096861L172.15757291666665,103.40856448751781L172.38630625000002,109.89846241042271L172.61503958333333,115.56451182503655L172.84377291666667,113.75367310209566L173.07250625,115.07565200267331L173.3012395833333,106.47745288374878L173.52997291666668,122.15944860555443L173.75870625000002,137.2312824975116L173.98743958333333,122.18909259939171L174.21617291666666,113.91964964849141L174.44490625,134.17136160204248L174.67363958333334,112.3880902191168L174.90237291666668,121.0138141667942L175.13110625000002,117.0412862532993L175.35983958333333,116.29325737955133L175.58857291666666,120.62224322797036L175.81730624999997,123.95392213806217L176.04603958333334,104.62850384639526L176.27477291666668,99.6534122689177L176.50350625,107.40977150183576L176.73223958333332,104.8435826916396L176.96097291666666,115.23757675204075L177.18970625,108.73954260695018L177.41843958333334,108.4777426084759L177.64717291666668,116.193830551359L177.87590624999999,137.23770007390954L178.10463958333332,137.34783306657778L178.3333729166667,143.27381715142434L178.56210625,126.4769730863792L178.79083958333334,133.18777916219764L179.01957291666668,115.80943427912553L179.24830624999998,113.58452153662141L179.47703958333335,126.03224880969103L179.70577291666666,133.85815581168083L179.93450625,120.55713232647584L180.16323958333334,118.08951728318854L180.39197291666665,114.55605461860533L180.62070625,120.53303401469094L180.84943958333335,133.67642808436693L181.07817291666666,118.52645311839983L181.30690625,131.00457291257942L181.53563958333334,125.79253554613926L181.76437291666664,127.60670318368L181.99310625,142.37285028395803L182.22183958333335,139.74847607114566L182.45057291666666,135.48072981217692L182.67930625,133.71184363392507L182.90803958333333,124.90085250791417L183.13677291666667,126.57618812713925L183.36550625,137.38905345595222L183.59423958333332,130.93071155863805L183.82297291666666,123.05465741823795L184.05170625,112.85329970044305L184.28043958333333,111.22322214040604L184.50917291666667,107.869436635932L184.73790625,99.39233742814898L184.96663958333332,103.02185266809646L185.19537291666666,94.52551831561514L185.42410625000002,95.50624775742408L185.65283958333333,101.50790763609558L185.88157291666667,113.2218471331176L186.11030625,116.2203485466705L186.33903958333332,116.97762005712585L186.56777291666668,116.65473352781531L186.79650625000002,120.44759415136735L187.02523958333333,127.59822958239094L187.25397291666667,113.5305437159231L187.48270624999998,118.1027426945184L187.71143958333334,118.8250705377468L187.94017291666668,137.9412904248362L188.16890625,138.42280506287366L188.39763958333333,135.95537403739107L188.62637291666667,129.93661826560862L188.85510624999998,136.9713745457528L189.08383958333334,144.22456842318763L189.31257291666668,130.18065733704321L189.54130625,127.77352616981678L189.77003958333333,135.6638660180331L189.99877291666667,112.48401255296235L190.22750625,122.83189078700481L190.45623958333334,113.97201233425898L190.68497291666665,103.40213614693776L190.91370625,111.06614140465756L191.14243958333333,114.84536757744291L191.37117291666667,109.09491870210731L191.59990625,126.29926290158132L191.82863958333334,131.61325813955287L192.05737291666665,133.18527467028034L192.28610625,125.54200620636779L192.51483958333336,118.39722224783165L192.74357291666666,122.61306600994624L192.97230625,111.43479664460874L193.20103958333334,115.79667793315285L193.42977291666665,114.69053978682538L193.65850625000002,122.37528575436859L193.88723958333335,125.18612372662578L194.11597291666666,143.0559208658494L194.34470625,135.92971130215074L194.5734395833333,124.52260726096003L194.80217291666665,107.58762085478563L195.03090625000002,104.55811867539721L195.25963958333332,112.64046142155709L195.48837291666666,119.40323080413411L195.71710625,127.54003504391235L195.9458395833333,121.21220330084795L196.17457291666668,114.02848998518049L196.40330625,108.91859962430354L196.63203958333332,111.29104063244714L196.86077291666666,121.53240421612294L197.08950625,130.50177392879667L197.31823958333334,122.3866703958484L197.54697291666668,126.8277859400415L197.77570625,133.14347797894698L198.00443958333332,119.87265170175368L198.23317291666666,116.52819660638889L198.46190625,112.02393182517163L198.69063958333334,122.31172069947564L198.91937291666667,123.60483295743055L199.14810624999998,119.8451989115738L199.37683958333332,145.38648197381474L199.6055729166667,128.29450360533858L199.83430625,135.22103572843827L200.06303958333334,124.26194416458422L200.29177291666667,131.50282164598514L200.52050624999998,135.8483738314212L200.74923958333335,130.51013767388068L200.9779729166667,129.0949030896024L201.20670625,120.91071585893609L201.43543958333333,122.93849883524565L201.66417291666667,107.92697512933405L201.89290624999998,121.42820195652322L202.12163958333335,105.68192886092629L202.35037291666666,114.16931104726613L202.57910625,109.2195464793862L202.80783958333333,112.06342688942081L203.03657291666664,98.98824221935348L203.26530625,90.54277068602924L203.49403958333335,102.15082929270201L203.72277291666666,114.04431829295596L203.95150625,115.44472512270237L204.18023958333333,125.83699148892498L204.40897291666667,123.51658814350247L204.63770625,115.45869269887297L204.86643958333335,118.94500111889656L205.09517291666666,113.33890684655397L205.32390625,114.90674383368743L205.55263958333336,112.19022517557929L205.78137291666667,100.33736012472306L206.01010625,95.4270936971521L206.23883958333332,114.17166210764341L206.46757291666665,111.51428282789604L206.69630625000002,101.41300903081229L206.92503958333333,119.6638153770725L207.15377291666667,117.42743090465623L207.38250625,121.05478665634963L207.61123958333332,113.78229844414179L207.83997291666665,119.23601431355667L208.06870625000002,132.55979499840214L208.29743958333333,122.58157614841147L208.52617291666667,129.62068975353685L208.75490625,121.84348723521502L208.98363958333331,133.20298634706342L209.21237291666668,129.3093524937137L209.44110625000002,124.3779253501279L209.66983958333333,119.4135626080781L209.89857291666667,111.24431649385788L210.12730624999998,116.44068147463936L210.35603958333334,116.68979119692249L210.58477291666668,118.88219262024167L210.81350625,120.61426557020586L211.04223958333333,116.81899100690826L211.27097291666666,115.35122689694012L211.49970625,116.66199265175968L211.72843958333334,119.63982064477945L211.95717291666668,116.0914445158979L212.18590625,117.95092796706005L212.41463958333333,105.75981651995289L212.6433729166667,109.45315995963638L212.87210625,116.92778938503398L213.10083958333334,114.87202807361682L213.32957291666665,120.05108573493243L213.55830625,120.17959850106764L213.78703958333335,127.33107624694185L214.01577291666666,126.45299713757322L214.24450625,126.49501858719202L214.47323958333334,135.63026934008604L214.70197291666665,124.02717992151265L214.93070625,122.17794611742785L215.15943958333335,135.45391780947065L215.38817291666666,124.90693155615182L215.61690625,108.19571280691214L215.84563958333334,108.45287351337983L216.07437291666665,99.51222444690016L216.30310625,108.47858650555261L216.53183958333335,115.79310782593518L216.76057291666666,109.56861558263718L216.98930625,115.4754213454637L217.2180395833333,136.2579537607618L217.44677291666667,120.65076086982417L217.67550625,129.2798273010909L217.90423958333332,139.23531943026344L218.13297291666666,137.86770417370295L218.36170625,131.9274788940622L218.59043958333334,139.09164950319175L218.81917291666667,139.38552172025865L219.04790625,148.50673992062107L219.27663958333332,138.48347525968848L219.50537291666666,139.5778693428121L219.73410625000002,133.9119888943721L219.96283958333333,133.18776454144452L220.19157291666667,136.7151090439979L220.42030625,134.31594216447016L220.64903958333332,140.11478877238994L220.87777291666666,129.9597258240336L221.10650625,134.99706982793535L221.33523958333333,142.6334932400115L221.56397291666667,133.75235855301185L221.79270624999998,127.14186470540342L222.02143958333332,147.96336408952064L222.25017291666668,126.48280113835642L222.47890625,133.8652817402254L222.70763958333333,126.94293164177562L222.93637291666667,135.53175918040967L223.16510624999998,119.28391675220904L223.39383958333335,123.41302396893688L223.62257291666668,125.73921270394436L223.85130625,103.53981025352545L224.08003958333333,103.03479418556572L224.30877291666667,117.06283789118537L224.53750625,121.29391939187293L224.76623958333334,114.85955175207602L224.99497291666665,121.77981122203597L225.22370625,115.27830253363406L225.45243958333333,118.58092898321603L225.68117291666667,130.7307451219904L225.90990625,139.31341107198878L226.13863958333334,124.59711970195741L226.36737291666665,131.8545343953703L226.59610625,121.09215835601097L226.82483958333336,138.30685772420964L227.05357291666667,122.70609671625695L227.28230625,133.6994754359317L227.51103958333334,140.26773266505353L227.73977291666665,145.53680584338002L227.96850625,161.26168498698885L228.19723958333336,137.08393134258597L228.42597291666667,147.6245672956054L228.65470625,155.37800211439202L228.8834395833333,174.8674031221648L229.11217291666665,159.55347942056935L229.34090625000002,157.92663669631486L229.56963958333333,149.7065107586718L229.79837291666666,152.35211167113403L230.02710625,149.96744749969096L230.2558395833333,133.88831545725975L230.48457291666668,138.75781613478372L230.71330625000002,145.86505612466323L230.94203958333333,157.39811919570118L231.17077291666666,147.32190656129612L231.39950625,135.47987374145242L231.62823958333334,121.20732361562125L231.85697291666668,145.78372524869684L232.08570625000002,121.68536943212494L232.31443958333332,122.99707409947324L232.54317291666666,142.02825602219028L232.77190625,157.9262701252631L233.00063958333334,145.50737028794674L233.22937291666668,132.682757589085L233.45810625,128.11653162809L233.68683958333332,143.0079900966393L233.9155729166667,137.65614243823134L234.14430625,128.59845188743577L234.37303958333334,101.65757496150358L234.60177291666668,100.77836777165744L234.83050624999998,108.07967493173608L235.05923958333332,125.67983036778645L235.2879729166667,125.65905441170301L235.51670625,133.10377233818392L235.74543958333334,141.02891793009772L235.97417291666667,141.5816501388379L236.20290624999998,148.24820263839334L236.43163958333335,130.6741506575936L236.66037291666666,116.74529581582908L236.88910625,112.25065665036259L237.11783958333334,118.13170051528905L237.34657291666664,123.32197876346444L237.57530625,116.538258551989L237.80403958333335,121.79045090641617L238.03277291666666,102.40401780346654L238.26150625,103.83873545570944L238.49023958333333,94.42354557977383L238.71897291666667,107.44289508302765L238.94770625,110.68837315344666L239.17643958333335,100.44005128048174L239.40517291666666,129.14322622002553L239.63390625,131.38351365356476L239.8626395833333,124.53375354068775L240.09137291666667,119.15719734424731L240.32010625,124.42193901614972L240.54883958333332,115.37280247257132L240.77757291666666,107.10652509716735L241.00630625,118.32313690217883L241.23503958333333,121.91776049315465L241.46377291666667,108.32135883279362L241.69250625,109.67049151047698L241.92123958333332,103.72458094985066L242.14997291666666,113.78473556815054L242.37870625000002,119.89798416760642L242.60743958333333,126.34490293304371L242.83617291666667,127.69020395700282L243.06490625,128.24126520091784L243.29363958333332,111.82000242671066L243.52237291666668,109.5673839926761L243.75110625,114.34963096261274L243.97983958333333,109.24122238604377L244.20857291666667,107.64041774142673L244.43730624999998,118.60875705481902L244.66603958333334,125.71705074867408L244.89477291666668,135.31244908826034L245.12350625,121.6844590905695L245.35223958333333,130.84773127655518L245.58097291666667,117.75676074278552L245.80970625,123.14800081244428" style="fill: none;" fill="none"></path></g></g></g></g><g opacity="0.2"><g><g><g><path stroke="rgb(255, 112, 67)" stroke-width="2px" d="M22.79470625,39.359103081127L23.023439583333335,50.28143475453059L23.252172916666666,55.957441901167236L23.48090625,54.47321496903897L23.70963958333333,70.58267382284006L23.93837291666667,39.223509654402726L24.16710625,31.876177527010434L24.395839583333334,39.32855197538933L24.624572916666665,31.35905060917139L24.85330625,41.00454021245241L25.082039583333334,48.399094678461545L25.310772916666668,29.011381293336544L25.539506250000002,29.12703224768241L25.768239583333333,34.317097316185645L25.996972916666667,53.41612106810013L26.225706249999998,44.16355385134617L26.454439583333333,32.990523613989346L26.683172916666667,35.052532764772586L26.91190625,32.37197361886502L27.140639583333332,26.513322877387207L27.369372916666666,51.238490268588066L27.598106249999997,50.900541556378215L27.82683958333333,28.24781428401668L28.05557291666667,35.562608018517494L28.28430625,16.922759326795738L28.513039583333335,47.25451984753212L28.741772916666665,20.920345870157075L28.97050625,32.06944074481725L29.19923958333333,50.88007158289354L29.42797291666667,29.219174602379393L29.65670625,34.226704140504204L29.885439583333334,32.549719512462616L30.114172916666664,25.479973852634437L30.34290625,29.901019235452026L30.571639583333337,41.79238875706991L30.800372916666667,28.57323301335175L31.02910625,19.36647780239582L31.257839583333332,13.91681167297066L31.486572916666667,27.56311601648728L31.715306249999998,48.34940334161122L31.944039583333335,17.83732169618209L32.172772916666666,18.78420816113552L32.40150625,24.082758960624542L32.630239583333335,35.07780519624551L32.858972916666666,39.130922220647335L33.08770625,41.56565119822821L33.316439583333334,46.65572916467984L33.545172916666665,24.814937822520733L33.77390625,32.83900991082192L34.002639583333334,30.153897404670722L34.231372916666665,38.379588474829994L34.46010625,12.963880008707447L34.68883958333333,18.896151954929028L34.917572916666664,16.53692706798513L35.146306249999995,19.63717744996151L35.37503958333333,18.876940291374922L35.60377291666667,23.15878216177225L35.83250625,10.075490005935235L36.06123958333333,14.462634284670157L36.28997291666666,20.807565034677584L36.51870625,13.43874090040723L36.74743958333334,11.230805345500517L36.97617291666666,20.2690596692264L37.20490625,31.396041624248028L37.43363958333333,23.86502188940842L37.66237291666667,41.506054562826954L37.89110625000001,26.908633671700947L38.11983958333333,14.190491335466497L38.34857291666667,33.859933353960514L38.57730625,10.86543664957087L38.80603958333334,15.872999156514807L39.03477291666666,33.52770656347275L39.26350625,19.966803366939228L39.49223958333334,25.734255028267693L39.72097291666667,15.638634810845053L39.94970625,9.895057153577614L40.17843958333333,12.830946066727245L40.40717291666667,41.11801522473495L40.635906250000005,14.704261844356852L40.864639583333336,30.303729698061936L41.09337291666667,36.99352070689201L41.32210625,16.8874002682666L41.550839583333335,16.744169065107894L41.779572916666666,29.103320340315502L42.00830625,33.74727889895439L42.237039583333335,7.765047981714213L42.465772916666666,15.77400295063854L42.69450625,25.263000559061766L42.92323958333333,22.58316489557426L43.151972916666665,29.53319161509474L43.38070625,19.293898778657127L43.609439583333334,21.24737274522582L43.83817291666667,29.493720612178247L44.066906249999995,17.284218470255542L44.29563958333333,26.1210580356419L44.52437291666667,59.087754351397365L44.75310625,24.41536122933031L44.98183958333333,43.49446631968022L45.21057291666666,33.931497670710094L45.43930625,14.96790708042682L45.66803958333333,35.22900020082791L45.89677291666666,31.48086306949457L46.12550625,26.435807688782607L46.35423958333333,22.529070389767494L46.58297291666667,16.49508414169153L46.81170625,17.462336178869016L47.04043958333333,24.398840187738347L47.26917291666667,25.544374777625013L47.49790625,16.434992974003155L47.72663958333334,27.915213846911985L47.95537291666666,14.079089695587747L48.18410625,31.01029911388954L48.41283958333333,33.918910908202335L48.64157291666667,21.44733595972259L48.870306250000006,32.825939605633415L49.09903958333333,26.359730307012804L49.32777291666667,30.228769592940814L49.55650625,32.13391310224931L49.785239583333336,19.42137821267048L50.01397291666667,28.88135043904186L50.24270625,16.501295100897558L50.471439583333336,21.6418611506621L50.700172916666666,11.289561276013648L50.92890625,30.212453690667953L51.157639583333335,41.71394128352403L51.386372916666666,19.268109835684292L51.615106250000004,35.51264926791192L51.843839583333335,20.555130112916224L52.072572916666665,17.57084022586545L52.301306249999996,27.836705930531018L52.530039583333334,18.39153304075202L52.75877291666667,9.88282572167616L52.987506249999996,18.535982258617885L53.21623958333333,32.954041784008346L53.444972916666664,23.11067332824072L53.67370625,21.709590094784904L53.90243958333334,23.663895608236384L54.131172916666664,33.5011886432767L54.35990625,18.451829347759492L54.58863958333333,49.079670011997216L54.81737291666667,31.262635129193473L55.046106249999994,45.434542124470084L55.27483958333333,50.44611766934395L55.50357291666667,33.11129206170639L55.73230625,43.95457549641531L55.96103958333333,31.278965684274834L56.18977291666666,27.43607433512807L56.41850625,32.48351446042459L56.64723958333334,33.6603584388892L56.87597291666667,44.668398052453995L57.10470625,42.8607726469636L57.33343958333333,36.14588504036268L57.56217291666667,35.86340087155502L57.790906250000006,66.6105318814516L58.01963958333333,37.97102787842354L58.24837291666667,36.53615160534779L58.47710625,59.186741399268314L58.705839583333336,22.970171210666496L58.93457291666666,44.85263514022032L59.16330625,31.416592188179486L59.392039583333336,28.75338563074669L59.62077291666667,47.52952742079894L59.849506250000005,34.54170655459165L60.07823958333333,51.77822646995385L60.306972916666666,34.82513949275016L60.535706250000004,74.6941273411115L60.764439583333335,81.94790494938692L60.993172916666666,73.76986481249332L61.221906249999996,70.48344500362873L61.450639583333334,89.77142038444678L61.679372916666665,95.97994722425938L61.90810625,106.6175272067388L62.136839583333334,88.80774180094402L62.365572916666665,86.84208951890469L62.59430625,84.90766969819863L62.82303958333333,72.78606059650579L63.051772916666664,76.28098987042904L63.28050625,89.46368210017681L63.50923958333333,52.626847537855305L63.73797291666667,87.12637598315874L63.966706249999994,82.85844512283802L64.19543958333334,83.45318796734014L64.42417291666666,65.64160759250323L64.65290625,48.604237660765655L64.88163958333334,44.10664600630601L65.11037291666666,58.16862030575674L65.33910625,51.79264117032289L65.56783958333332,42.4514830733339L65.79657291666666,62.00518347322941L66.02530625,36.29125189036131L66.25403958333334,29.02786570290724L66.48277291666666,103.06194995840393L66.71150625,81.08396803339323L66.94023958333334,38.525186106562614L67.16897291666668,62.09904203812282L67.39770625,74.51680637896061L67.62643958333332,49.15465209633113L67.85517291666667,60.87695385018985L68.08390625,31.291633037229378L68.31263958333334,58.69616170724233L68.54137291666667,59.447759203612804L68.77010625,46.949078390995666L68.99883958333334,54.92209276805322L69.22757291666666,73.10201910634837L69.45630625000001,62.35636000831922L69.68503958333334,86.94356754422188L69.91377291666666,43.56307076911133L70.14250625000001,37.6576665788889L70.37123958333333,64.46886273721854L70.59997291666666,60.59772260487079L70.82870625,55.056704456607505L71.05743958333333,93.030446767807L71.28617291666667,69.19502355158329L71.51490625,58.72600947817166L71.74363958333333,71.87091944118342L71.97237291666667,66.05774735411008L72.20110625,45.032545986274876L72.42983958333335,42.641028140982L72.65857291666667,42.70101673901081L72.88730625,24.44687575722735L73.11603958333333,29.32835267856717L73.34477291666667,45.39622869342565L73.57350625,43.637433772285775L73.80223958333333,54.11216610421738L74.03097291666667,39.184939799209445L74.25970625000001,41.611998031536736L74.48843958333333,44.89842516680558L74.71717291666666,31.212691031396396L74.94590625000001,45.57345807552338L75.17463958333333,43.35833806544543L75.40337291666667,24.719383195042617L75.63210625,37.35388821611803L75.86083958333333,45.272683538496494L76.08957291666667,36.1353569974502L76.31830624999999,33.77802049120268L76.54703958333333,24.50179997831583L76.77577291666667,33.35796842972439L77.00450624999999,30.22754791503151L77.23323958333334,45.15974335372447L77.46197291666667,37.59655337780714L77.69070624999999,58.779254121085L77.91943958333334,26.296170086910333L78.14817291666667,32.03721555570762L78.37690625,33.559766908486694L78.60563958333333,30.084869855393976L78.83437291666667,30.413079944749672L79.06310625,21.372117598851514L79.29183958333333,37.307090808947876L79.52057291666667,48.370378836989396L79.74930625,35.954024828970425L79.97803958333333,20.20488586276769L80.20677291666667,35.26897672563792L80.43550625,25.19336674983303L80.66423958333333,41.48630990336339L80.89297291666666,54.32687737047672L81.12170625,27.07292096068461L81.35043958333334,38.03056956579289L81.57917291666666,32.08770180741946L81.80790625,18.108704530944426L82.03663958333334,39.87051540364821L82.26537291666666,25.19908683995406L82.49410624999999,40.12034212549528L82.72283958333334,70.01696551839511L82.95157291666666,32.33644422143698L83.18030625,44.53889653086662L83.40903958333334,25.085251002262044L83.63777291666666,22.47866839170456L83.86650625,38.49475588649511L84.09523958333332,32.644241116940975L84.32397291666668,35.18525790423154L84.55270625,22.664696785310912L84.78143958333332,60.573739620546505L85.01017291666668,35.686611073712506L85.23890625,27.260368845115114L85.46763958333334,38.04298049459855L85.69637291666666,32.70806142439445L85.92510625,42.52013880759478L86.15383958333334,15.785564016550772L86.38257291666666,30.998946850498527L86.61130625,47.991995699703686L86.84003958333334,57.715723974009364L87.06877291666666,56.766580976545804L87.29750625000001,38.95621312161287L87.52623958333334,33.003571939965084L87.75497291666666,44.9352916330099L87.98370625,40.879046233991794L88.21243958333334,31.872510661681492L88.44117291666667,64.98294919729233L88.66990625,31.32201563566924L88.89863958333333,72.5566195944945L89.12737291666667,20.965767744928606L89.35610625,55.46851797650258L89.58483958333332,34.33769916494688L89.81357291666667,31.77204368015131L90.04230625,66.33940363923708L90.27103958333333,41.76553382227818L90.49977291666667,57.480040875573955L90.72850625,81.59961501757303L90.95723958333333,42.989926164348915L91.18597291666667,73.22429679334164L91.41470625000001,66.61851033568382L91.64343958333333,46.25696397076051L91.87217291666666,37.520600544909634L92.10090625000001,40.18853263308604L92.32963958333333,27.145869967838127L92.55837291666666,35.28928185502689L92.78710625000001,9.62638783579071L93.01583958333333,26.95882686724266L93.24457291666667,33.58190730214119L93.47330625,41.175728974243015L93.70203958333333,33.41428649922212L93.93077291666667,44.15387933452924L94.15950624999999,35.515565176804856L94.38823958333334,50.51604453474283L94.61697291666667,32.61093528320392L94.84570624999999,22.617954326172676L95.07443958333334,45.16172880927723L95.30317291666667,36.2821964547038L95.53190624999999,30.317208450287588L95.76063958333333,46.693903394043446L95.98937291666667,36.18799354881048L96.21810625,32.54137473801772L96.44683958333333,39.419099005560085L96.67557291666667,34.32517834007741L96.90430625,17.399063520133495L97.13303958333333,57.41053894162179L97.36177291666667,18.19772583742937L97.59050625,25.50755410144726L97.81923958333333,37.588373447457954L98.04797291666667,33.32670666277408L98.27670625,36.29709836095571L98.50543958333334,23.019633597383898L98.73417291666667,38.2652855788668L98.96290624999999,32.76781557748715L99.19163958333334,45.43034409483273L99.42037291666666,23.72564437488715L99.64910624999999,72.91589180628458L99.87783958333334,56.27664234489203L100.10657291666666,58.50649941712618L100.33530625,46.02798819541932L100.56403958333334,45.99529045323531L100.79277291666666,52.750432988007866L101.02150625,47.668875629703216L101.25023958333333,47.49087697515886L101.47897291666668,48.26566986739635L101.70770625,65.9105159342289L101.93643958333332,43.78333178659281L102.16517291666668,84.28486672540507L102.39390625,82.07841751476128L102.62263958333332,56.2733051677545L102.85137291666666,75.77685999373594L103.08010625,61.026471108198166L103.30883958333334,62.28342565397423L103.53757291666666,112.03096335132916L103.76630625,108.13516986866792L103.99503958333334,94.2735031247139L104.22377291666666,108.16799948612848L104.45250625000001,78.01561864713828L104.68123958333334,99.23459241787593L104.90997291666666,69.54237570365271L105.13870625,126.36426736911139L105.36743958333334,92.87595488131046L105.59617291666666,68.85452158749104L105.82490625,108.64253068963687L106.05363958333334,123.96571983893713L106.28237291666667,88.60296880205473L106.51110625,97.27420049409072L106.73983958333332,126.81281914313637L106.96857291666667,75.19657214482625L107.19730625,173.80280817548433L107.42603958333333,90.67248019079368L107.65477291666667,114.5726981262366L107.88350625,117.45907428363958L108.11223958333333,61.73094883561134L108.34097291666667,142.43425155679387L108.56970625000001,107.3571496953567L108.79843958333333,166.83683370550474L109.02717291666666,112.26096116006374L109.25590625000001,147.7226992448171L109.48463958333333,155.64110626777014L109.71337291666666,115.85394702851772L109.94210625000001,93.00634289781253L110.17083958333333,140.57250966628393L110.39957291666667,114.43119595448177L110.62830625,102.45715528726578L110.85703958333333,78.64767486850421L111.08577291666667,123.11543201406799L111.31450625,83.41440198322138L111.54323958333335,134.23169727126756L111.77197291666667,60.517894104123116L112.00070625,100.1537191371123L112.22943958333333,48.22754692286253L112.45817291666667,75.49456631143889L112.68690624999999,122.21177133421104L112.91563958333333,127.24686463673909L113.14437291666667,111.85457284251848L113.37310625,92.1143751591444L113.60183958333333,78.7071799238523L113.83057291666667,73.64488368233046L114.05930625,103.02615314722063L114.28803958333333,109.92256340881191L114.51677291666667,67.11566547552745L114.74550625,94.27282176911831L114.97423958333333,97.36101105809212L115.20297291666667,60.532861948013306L115.43170625,100.40442869067192L115.66043958333333,81.94199254115422L115.88917291666667,87.68877275288105L116.11790624999999,71.69241160154343L116.34663958333334,112.6930798093478L116.57537291666667,111.38394661247732L116.80410624999999,111.86625845730305L117.03283958333334,78.22798912723859L117.26157291666667,80.49044869840145L117.49030625,107.7682708700498L117.71903958333334,100.70906057953835L117.94777291666666,153.05082673827806L118.17650625,78.62047925591469L118.40523958333333,91.2638748685519L118.63397291666666,116.46791435778141L118.86270625,125.762989372015L119.09143958333333,117.46918472150962L119.32017291666668,115.9713746358951L119.54890625,127.19250271717708L119.77763958333333,105.06249057749908L120.00637291666666,117.09262219568096L120.23510625,116.8881422529618L120.46383958333334,131.08601768811542L120.69257291666666,73.57775184015433L120.92130625,93.24102960526943L121.15003958333334,140.98360886176428L121.37877291666666,93.37206234534581L121.60750625000001,100.06097418566544L121.83623958333334,99.30921917160352L122.06497291666666,157.76715551813444L122.29370625,155.92003713051477L122.52243958333334,70.25046534836292L122.75117291666666,58.73715660224358L122.97990625,133.50516706705093L123.20863958333334,91.78243043522039L123.43737291666667,113.20321001112461L123.66610625,74.41172376275063L123.89483958333332,103.76027350624402L124.12357291666667,108.98808787266414L124.35230625,135.79352547725043L124.58103958333332,135.23677736520767L124.80977291666667,143.81048729022345L125.03850625,108.47217713793118L125.26723958333334,146.6518280406793L125.49597291666666,99.23143473764263L125.72470625,87.56371835867564L125.95343958333333,110.5831486483415L126.18217291666666,183.99628351132074L126.41090625000001,152.84782672921816L126.63963958333333,95.4655603816112L126.86837291666666,115.1645690202713L127.09710625000001,148.6197295288245L127.32583958333333,92.53030978143215L127.55457291666667,134.02307058374086L127.78330625,93.4815847625335L128.01203958333335,136.4682140449683L128.24077291666666,107.22557480136554L128.46950625,105.69130120178065L128.69823958333333,125.66172381242116L128.92697291666667,119.84155500928561L129.15570625,134.91648162404695L129.38443958333332,81.14392732580504L129.61317291666668,112.68074214458467L129.84190625,174.70014616847038L130.07063958333333,165.4405675828457L130.29937291666667,97.64816214640936L130.52810625,143.9780275026957L130.75683958333332,147.30852295955023L130.98557291666668,159.80369076132774L131.21430625,136.1272724966208L131.44303958333333,153.72544204195341L131.67177291666667,120.46886372069517L131.90050625,174.1187813381354L132.12923958333334,185.79156026244164L132.35797291666665,144.8168421785037L132.58670625000002,182.02051346500716L132.81543958333333,154.77848077813783L133.04417291666667,148.53080163399378L133.27290625,140.00771716237068L133.50163958333334,153.1645325322946L133.73037291666665,151.43488571047783L133.95910625,164.27587444583574L134.18783958333333,132.2181376318137L134.41657291666667,125.3244454662005L134.64530625,162.44169448812804L134.87403958333334,112.9574164748192L135.10277291666665,171.0643008351326L135.33150625,163.6505072315534L135.56023958333336,132.0099065701167L135.78897291666667,163.63434518376985L136.01770625,148.9279660085837L136.24643958333334,170.8345594505469L136.47517291666665,167.6416978240013L136.70390625,129.02394259969392L136.93263958333335,162.82637466986975L137.16137291666666,156.65707339843115L137.39010625,183.9740698536237L137.61883958333334,154.2935753862063L137.84757291666665,189.38218702872595L138.07630625000002,125.93989272912344L138.30503958333333,214.9736101428668L138.53377291666666,144.54334750771523L138.76250625,139.96434484918913L138.9912395833333,170.63407972455025L139.21997291666668,157.4156492948532L139.44870625000001,151.89319625496864L139.67743958333332,154.7079568107923L139.90617291666666,152.67785415053368L140.13490625,119.0284779916207L140.36363958333334,141.6204052666823L140.59237291666668,174.5925212899844L140.82110625,175.97149709860483L141.04983958333332,136.9645486275355L141.27857291666666,188.93833880623183L141.50730625,192.2619474430879L141.73603958333334,160.64024890462557L141.96477291666667,259.3851298093796L142.19350624999998,165.98963762323064L142.42223958333332,152.39531869689625L142.6509729166667,150.71351329485577L142.87970625,178.69283134738606L143.10843958333334,112.2034415602684L143.33717291666667,173.48189701636633L143.56590624999998,159.906846533219L143.79463958333332,147.41342241565386L144.0233729166667,203.11730479200682L144.25210625,149.67467313011488L144.48083958333333,161.56787425279617L144.70957291666667,156.0866835216681L144.93830624999998,184.6385893722375L145.16703958333335,132.13161279757819L145.39577291666666,160.23240263263386L145.62450625,159.73889604210854L145.85323958333333,123.62863197922708L146.08197291666664,146.96230640014014L146.31070625,145.61682691176733L146.53943958333335,150.00790730118752L146.76817291666666,125.35482073823611L146.99690625,121.0908241569996L147.22563958333333,157.48788764079413L147.45437291666667,151.31991977492967L147.68310625,166.6943497955799L147.91183958333335,136.50571058193842L148.14057291666666,187.87813484668732L148.36930625,173.27792992194495L148.59803958333336,177.83877775073054L148.82677291666667,205.67146514852843L149.05550625,163.33429962396622L149.28423958333332,129.934424161911L149.51297291666666,188.74940549333888L149.74170625,158.17416658004126L149.97043958333333,153.8630319138368L150.19917291666667,201.5480769177278L150.42790625,220.9093749523163L150.65663958333332,145.53334986170134L150.88537291666665,162.10514878233275L151.11410625000002,129.79995533823967L151.34283958333333,138.76110017299652L151.57157291666667,149.80543479323387L151.80030625,124.57325458526613L152.02903958333332,167.64934659004211L152.25777291666668,133.07805235187212L152.48650625000002,144.1853940486908L152.71523958333333,150.03395999471348L152.94397291666667,124.6556912859281L153.17270624999998,146.32482131322226L153.40143958333334,162.53728941082954L153.63017291666668,124.05373925964038L153.85890625,153.57800548275313L154.08763958333333,151.2404722472032L154.31637291666667,173.33652650316557L154.54510625,176.60562669237456L154.77383958333334,117.90667362511158L155.00257291666668,121.84959053993225L155.23130625,155.88012288014096L155.46003958333333,160.2345272898674L155.6887729166667,153.52973913153014L155.91750625,163.28742528955144L156.14623958333334,187.12010110418004L156.37497291666668,134.4978655378024L156.60370625,179.60712263981503L156.83243958333333,215.24791071812314L157.06117291666666,141.53782203793526L157.28990625,141.49453764160475L157.51863958333334,144.0385436018308L157.74737291666665,160.0776250163714L157.97610625,128.96949276328087L158.20483958333335,122.99059008558591L158.43357291666666,142.5375392039617L158.66230625,197.32307145992914L158.89103958333334,178.22291577855745L159.11977291666665,153.7304826080799L159.34850625,132.80939310789108L159.57723958333335,154.80224763353667L159.80597291666666,163.89998594919842L160.03470625,127.79814725120863L160.26343958333334,146.52538895606995L160.49217291666668,176.3066068291664L160.72090625,153.6278836429119L160.94963958333332,141.34148905674616L161.17837291666666,176.14651024341583L161.40710625,178.88739133874577L161.6358395833333,179.96692235271138L161.86457291666667,150.77278390526772L162.09330625,137.36383765935898L162.32203958333332,135.4213441411654L162.55077291666666,155.05254690845808L162.77950625,169.40025463700294L163.00823958333334,152.5082771976789L163.23697291666667,164.7077073653539L163.46570625,137.5306891898314L163.69443958333332,135.8496017754078L163.92317291666666,128.4191332757473L164.15190625000002,112.6438463727633L164.38063958333333,143.81215771039328L164.60937291666667,158.51018478473028L164.83810624999998,158.13930754860243L165.06683958333332,142.35522896051407L165.29557291666669,84.21465779344241L165.52430625,166.69286986192068L165.75303958333333,140.20976473887762L165.98177291666667,151.74995039900145L166.21050624999998,143.28020215034485L166.43923958333335,92.0705193032821L166.66797291666668,134.40026318033537L166.89670625,104.99962270259857L167.12543958333333,100.39776898920536L167.35417291666667,115.50458744168283L167.58290625,90.91359215478103L167.81163958333335,118.62805336713792L168.04037291666666,110.02521365880966L168.26910625,138.5188452899456L168.49783958333333,110.34717249373594L168.72657291666664,100.44423304498197L168.95530625,129.59485997756323L169.18403958333334,144.98240426182747L169.41277291666665,102.32502358655135L169.64150625,94.3594931314389L169.87023958333333,129.33582762877145L170.09897291666667,119.21381404002507L170.32770625,133.75652134418488L170.55643958333334,106.77913303176562L170.78517291666665,116.98380311330159L171.01390625,104.65693747003874L171.24263958333336,148.6630285779635L171.47137291666667,115.91789921124777L171.70010625,125.42760123809181L171.9288395833333,114.63144856194656L172.15757291666665,78.4826036542654L172.38630625000002,119.63330929478009L172.61503958333333,124.06358594695726L172.84377291666667,111.0374150176843L173.07250625,117.0586203535398L173.3012395833333,93.58015420536199L173.52997291666668,145.68244218826294L173.75870625000002,159.8390333354473L173.98743958333333,99.62580775221191L174.21617291666666,101.51548522214094L174.44490625,164.548929532369L174.67363958333334,79.71318314472835L174.90237291666668,133.95240008831024L175.13110625000002,111.08249438305697L175.35983958333333,115.17121406892936L175.58857291666666,127.11572200059891L175.81730624999997,128.9514405031999L176.04603958333334,75.64037640889487L176.27477291666668,92.19077490270138L176.50350625,119.04431035121284L176.73223958333332,100.99429947634539L176.96097291666666,130.82856784264249L177.18970625,98.99249138931434L177.41843958333334,108.0850426107645L177.64717291666668,127.76796246568361L177.87590624999999,168.80350435773533L178.10463958333332,137.51303255558014L178.3333729166667,152.16279327869415L178.56210625,101.28170698881151L178.79083958333334,143.25398827592534L179.01957291666668,89.74191695451736L179.24830624999998,110.24715242286523L179.47703958333335,144.7038397192955L179.70577291666666,145.5970163146655L179.93450625,100.60559709866843L180.16323958333334,114.38809471825758L180.39197291666665,109.25586062173049L180.62070625,129.4985031088193L180.84943958333335,153.39151918888092L181.07817291666666,95.8014906694492L181.30690625,149.72175260384878L181.53563958333334,117.97447949647905L181.76437291666664,130.32795463999113L181.99310625,164.52207093437514L182.22183958333335,135.81191475192705L182.45057291666666,129.07911042372388L182.67930625,131.05851436654726L182.90803958333333,111.68436581889789L183.13677291666667,129.08919155597687L183.36550625,153.6083514491717L183.59423958333332,121.24319871266685L183.82297291666666,111.24057620763779L184.05170625,97.55126312375069L184.28043958333333,108.77810580035052L184.50917291666667,102.83875837922098L184.73790625,86.67668861647448L184.96663958333332,108.46612552801768L185.19537291666666,81.78101678689322L185.42410625000002,96.9773419201374L185.65283958333333,110.51039745410286L185.88157291666667,130.79275637865067L186.11030625,120.71810066699982L186.33903958333332,118.1135273228089L186.56777291666668,116.17040373384953L186.79650625000002,126.13688508669536L187.02523958333333,138.32418272892633L187.25397291666667,92.42901491622129L187.48270624999998,124.96104116241138L187.71143958333334,119.90856230258943L187.94017291666668,166.61562025547028L188.16890625,139.1450770199299L188.39763958333333,132.25422749916711L188.62637291666667,120.90848460793495L188.85510624999998,147.52350896596909L189.08383958333334,155.10435923933983L189.31257291666668,109.11479070782661L189.54130625,124.1628294189771L189.77003958333333,147.4993757903576L189.99877291666667,77.71423235535622L190.22750625,138.35370813806853L190.45623958333334,100.68219465514026L190.68497291666665,87.54732186595598L190.91370625,122.56214929123722L191.14243958333333,120.51420683662097L191.37117291666667,100.46924538910389L191.59990625,152.1057792007923L191.82863958333334,139.58425099651018L192.05737291666665,135.54329946637154L192.28610625,114.07710351049901L192.51483958333336,107.68004631002745L192.74357291666666,128.93683165311813L192.97230625,94.66739259660244L193.20103958333334,122.33949986596903L193.42977291666665,113.03133256733419L193.65850625000002,133.90240470568338L193.88723958333335,129.40238068501154L194.11597291666666,169.8606165746848L194.34470625,125.24039695660274L194.5734395833333,107.41195119917393L194.80217291666665,82.18514124552408L195.03090625000002,100.01386540631454L195.25963958333332,124.7639755407969L195.48837291666666,129.54738487799963L195.71710625,139.7452414035797L195.9458395833333,111.72045568625131L196.17457291666668,103.25292001167934L196.40330625,101.25376408298811L196.63203958333332,114.84970214466254L196.86077291666666,136.89444959163666L197.08950625,143.9558284978072L197.31823958333334,110.21401509642602L197.54697291666668,133.48945925633112L197.77570625,142.6170160373052L198.00443958333332,99.96641228596368L198.23317291666666,111.51151396334171L198.46190625,105.26753465334573L198.69063958333334,137.74340401093164L198.91937291666667,125.5445013443629L199.14810624999998,114.20574784278871L199.37683958333332,183.6984065671762L199.6055729166667,102.65653605262438L199.83430625,145.61083391308784L200.06303958333334,107.82330681880318L200.29177291666667,142.3641378680865L200.52050624999998,142.36670210957527L200.74923958333335,122.50278343756993L200.9779729166667,126.972051213185L201.20670625,108.63443501293659L201.43543958333333,125.98017329970996L201.66417291666667,85.40968957046667L201.89290624999998,141.68004219730696L202.12163958333335,82.06251921753089L202.35037291666666,126.90038432677589L202.57910625,101.79489962756635L202.80783958333333,116.32924750447273L203.03657291666664,79.37546521425247L203.26530625,77.87456338604291L203.49403958333335,119.56291720271112L203.72277291666666,131.88455179333687L203.95150625,117.54533536732197L204.18023958333333,141.42539103825888L204.40897291666667,120.03598312536874L204.63770625,103.3718495319287L204.86643958333335,124.1744637489319L205.09517291666666,104.92976543804012L205.32390625,117.25849931438763L205.55263958333336,108.11544718841711L205.78137291666667,82.55806254843871L206.01010625,88.06169405579567L206.23883958333332,142.28851472338042L206.46757291666665,107.52821390827496L206.69630625000002,86.26109833518665L206.92503958333333,147.04002489646277L207.15377291666667,114.07285419603188L207.38250625,126.49582028388977L207.61123958333332,102.87356612583004L207.83997291666665,127.41658811767896L208.06870625000002,152.54546602567038L208.29743958333333,107.61424787342548L208.52617291666667,140.179360161225L208.75490625,110.17768345773221L208.98363958333331,150.24223501483598L209.21237291666668,123.46890171368916L209.44110625000002,116.9807846347491L209.66983958333333,111.96701849500339L209.89857291666667,98.99044732252757L210.12730624999998,124.23522894581158L210.35603958333334,117.06345578034718L210.58477291666668,122.17079475522041L210.81350625,123.21237499515216L211.04223958333333,111.12607916196188L211.27097291666666,113.14958073198795L211.49970625,118.62814128398895L211.72843958333334,124.10656263430914L211.95717291666668,110.76888032257558L212.18590625,120.74015314380328L212.41463958333333,87.47314934929213L212.6433729166667,114.99317511916162L212.87210625,128.13973352313042L213.10083958333334,111.78838610649109L213.32957291666665,127.81967222690582L213.55830625,120.37236765027048L213.78703958333335,138.05829286575317L214.01577291666666,125.13587847352028L214.24450625,126.55805076162021L214.47323958333334,149.3331454694271L214.70197291666665,106.62254579365253L214.93070625,119.40409541130066L215.15943958333335,155.3678753475348L215.38817291666666,109.08645217617352L215.61690625,83.1288846830527L215.84563958333334,108.83861457308136L216.07437291666665,86.1012508471807L216.30310625,121.92812959353128L216.53183958333335,126.76488980650903L216.76057291666666,100.23187721769014L216.98930625,124.3356299897035L217.2180395833333,167.43175238370895L217.44677291666667,97.2399715334177L217.67550625,142.22342694799104L217.90423958333332,154.16855762402216L218.13297291666666,135.81628128886223L218.36170625,123.01714097460112L218.59043958333334,149.837905416886L218.81917291666667,139.826330045859L219.04790625,162.1885672211647L219.27663958333332,123.44857826828957L219.50537291666666,141.2194604674975L219.73410625000002,125.41316822171213L219.96283958333333,132.1014280120532L220.19157291666667,142.00612579782805L220.42030625,130.7171918451786L220.64903958333332,148.8130586842696L220.87777291666666,114.72713140149912L221.10650625,142.55308583378792L221.33523958333333,154.0881283581257L221.56397291666667,120.43065652251245L221.79270624999998,117.22612393399079L222.02143958333332,179.19561316569647L222.25017291666668,94.26195671161015L222.47890625,144.93900264302889L222.70763958333333,116.5594064941009L222.93637291666667,148.41500048836073L223.16510624999998,94.9121531099081L223.39383958333335,129.6066847940286L223.62257291666668,129.2284958064556L223.85130625,70.24070657789707L224.08003958333333,102.2772700836261L224.30877291666667,138.10490344961485L224.53750625,127.6405416429043L224.76623958333334,105.20800029238065L224.99497291666665,132.16020042697588L225.22370625,105.52603950103126L225.45243958333333,123.53486865758897L225.68117291666667,148.95546933015189L225.90990625,152.1874099969864L226.13863958333334,102.52268264691034L226.36737291666665,142.74065643548965L226.59610625,104.94859429697195L226.82483958333336,164.1289067765077L227.05357291666667,99.30495520432792L227.28230625,150.1895435154438L227.51103958333334,150.12011850873628L227.73977291666665,153.44041561086974L227.96850625,184.84900370240214L228.19723958333336,100.81730087598167L228.42597291666667,163.43552122513455L228.65470625,167.0081543425719L228.8834395833333,204.10150463382405L229.11217291666665,136.58259386817613L229.34090625000002,155.48637260993323L229.56963958333333,137.37632185220718L229.79837291666666,156.32051303982735L230.02710625,146.39045124252638L230.2558395833333,109.76961739361286L230.48457291666668,146.06206715106964L230.71330625000002,156.52591610948247L230.94203958333333,174.69771380225816L231.17077291666666,132.20758760968846L231.39950625,117.71682451168695L231.62823958333334,99.7984984268745L231.85697291666668,182.6483276983102L232.08570625000002,85.53783570726712L232.31443958333332,124.96463110049565L232.54317291666666,170.57502890626589L232.77190625,181.77329127987227L233.00063958333334,126.87902053197227L233.22937291666668,113.44583854079247L233.45810625,121.26719268659751L233.68683958333332,165.34517779946327L233.9155729166667,129.6283709506194L234.14430625,115.01191606124243L234.37303958333334,61.246259572605304L234.60177291666668,99.45955698688824L234.83050624999998,119.03163567185402L235.05923958333332,152.08006352186203L235.2879729166667,125.62789047757784L235.51670625,144.27084922790527L235.74543958333334,152.91663631796837L235.97417291666667,142.41074845194817L236.20290624999998,158.24803138772646L236.43163958333335,104.31307268639407L236.66037291666666,95.85201355318229L236.88910625,105.5086979021629L237.11783958333334,126.95326631267868L237.34657291666664,131.10739613572756L237.57530625,106.36267823477587L237.80403958333335,129.66873943805695L238.03277291666666,73.32436814904213L238.26150625,105.99081193407376L238.49023958333333,80.30076076587042L238.71897291666667,126.97191933790843L238.94770625,115.55659025907516L239.17643958333335,85.06756847103436L239.40517291666666,172.19798862934113L239.63390625,134.74394480387372L239.8626395833333,114.25911337137222L240.09137291666667,111.09236304958664L240.32010625,132.31905152400333L240.54883958333332,101.79909765720367L240.77757291666666,94.70710903406143L241.00630625,135.14805460969606L241.23503958333333,127.30969587961832L241.46377291666667,87.92675634225209L241.69250625,111.69419052700202L241.92123958333332,94.8057151089112L242.14997291666666,128.8749674956004L242.37870625000002,129.06785706679025L242.60743958333333,136.01528108119965L242.83617291666667,129.70815549294156L243.06490625,129.06785706679025L243.29363958333332,87.18810826539993L243.52237291666668,106.18845634162427L243.75110625,121.52300141751766L243.97983958333333,101.57860952119033L244.20857291666667,105.23921077450119L244.43730624999998,135.06126602490744L244.66603958333334,136.3794912894567L244.89477291666668,149.7055465976397L245.12350625,101.24247409403326L245.35223958333333,144.59263955553374L245.58097291666667,98.12030494213104L245.80970625,131.23486091693243" style="fill: none;" fill="none"></path></g></g></g></g></g></g><g transform="translate(61, 177)" clip-path="url(#clip_1)"><clipPath id="clip_1"><rect width="268" height="23"></rect></clipPath><g><g><line x1="0" y1="0" x2="0" y2="5" style="visibility: inherit;" fill="rgb(0, 0, 0)" stroke="rgb(204, 204, 204)" stroke-width="1px"></line><line x1="22.337239583333332" y1="0" x2="22.337239583333332" y2="5" style="visibility: inherit;" fill="rgb(0, 0, 0)" stroke="rgb(204, 204, 204)" stroke-width="1px"></line><line x1="44.674479166666664" y1="0" x2="44.674479166666664" y2="5" style="visibility: inherit;" fill="rgb(0, 0, 0)" stroke="rgb(204, 204, 204)" stroke-width="1px"></line><line x1="67.01171875" y1="0" x2="67.01171875" y2="5" style="visibility: inherit;" fill="rgb(0, 0, 0)" stroke="rgb(204, 204, 204)" stroke-width="1px"></line><line x1="89.34895833333333" y1="0" x2="89.34895833333333" y2="5" style="visibility: inherit;" fill="rgb(0, 0, 0)" stroke="rgb(204, 204, 204)" stroke-width="1px"></line><line x1="111.68619791666667" y1="0" x2="111.68619791666667" y2="5" style="visibility: inherit;" fill="rgb(0, 0, 0)" stroke="rgb(204, 204, 204)" stroke-width="1px"></line><line x1="134.0234375" y1="0" x2="134.0234375" y2="5" style="visibility: inherit;" fill="rgb(0, 0, 0)" stroke="rgb(204, 204, 204)" stroke-width="1px"></line><line x1="156.36067708333334" y1="0" x2="156.36067708333334" y2="5" style="visibility: inherit;" fill="rgb(0, 0, 0)" stroke="rgb(204, 204, 204)" stroke-width="1px"></line><line x1="178.69791666666666" y1="0" x2="178.69791666666666" y2="5" style="visibility: inherit;" fill="rgb(0, 0, 0)" stroke="rgb(204, 204, 204)" stroke-width="1px"></line><line x1="201.03515625" y1="0" x2="201.03515625" y2="5" style="visibility: inherit;" fill="rgb(0, 0, 0)" stroke="rgb(204, 204, 204)" stroke-width="1px"></line><line x1="223.37239583333334" y1="0" x2="223.37239583333334" y2="5" style="visibility: inherit;" fill="rgb(0, 0, 0)" stroke="rgb(204, 204, 204)" stroke-width="1px"></line><line x1="245.70963541666666" y1="0" x2="245.70963541666666" y2="5" style="visibility: inherit;" fill="rgb(0, 0, 0)" stroke="rgb(204, 204, 204)" stroke-width="1px"></line><line x1="268.046875" y1="0" x2="268.046875" y2="5" style="visibility: inherit;" fill="rgb(0, 0, 0)" stroke="rgb(204, 204, 204)" stroke-width="1px"></line></g><g transform="translate(0, 8)"><text x="0" y="0" dx="0em" dy="0.95em" style="text-anchor: middle; visibility: hidden; font-family: Roboto, sans-serif; font-size: 12px; font-weight: 200;" fill="rgb(33, 33, 33)" stroke="none" stroke-width="1px">-200k</text><text x="22.337239583333332" y="0" dx="0em" dy="0.95em" style="text-anchor: middle; visibility: inherit; font-family: Roboto, sans-serif; font-size: 12px; font-weight: 200;" fill="rgb(33, 33, 33)" stroke="none" stroke-width="1px">0</text><text x="44.674479166666664" y="0" dx="0em" dy="0.95em" style="text-anchor: middle; visibility: hidden; font-family: Roboto, sans-serif; font-size: 12px; font-weight: 200;" fill="rgb(33, 33, 33)" stroke="none" stroke-width="1px">200k</text><text x="67.01171875" y="0" dx="0em" dy="0.95em" style="text-anchor: middle; visibility: inherit; font-family: Roboto, sans-serif; font-size: 12px; font-weight: 200;" fill="rgb(33, 33, 33)" stroke="none" stroke-width="1px">400k</text><text x="89.34895833333333" y="0" dx="0em" dy="0.95em" style="text-anchor: middle; visibility: hidden; font-family: Roboto, sans-serif; font-size: 12px; font-weight: 200;" fill="rgb(33, 33, 33)" stroke="none" stroke-width="1px">600k</text><text x="111.68619791666667" y="0" dx="0em" dy="0.95em" style="text-anchor: middle; visibility: inherit; font-family: Roboto, sans-serif; font-size: 12px; font-weight: 200;" fill="rgb(33, 33, 33)" stroke="none" stroke-width="1px">800k</text><text x="134.0234375" y="0" dx="0em" dy="0.95em" style="text-anchor: middle; visibility: hidden; font-family: Roboto, sans-serif; font-size: 12px; font-weight: 200;" fill="rgb(33, 33, 33)" stroke="none" stroke-width="1px">1M</text><text x="156.36067708333334" y="0" dx="0em" dy="0.95em" style="text-anchor: middle; visibility: inherit; font-family: Roboto, sans-serif; font-size: 12px; font-weight: 200;" fill="rgb(33, 33, 33)" stroke="none" stroke-width="1px">1.2M</text><text x="178.69791666666666" y="0" dx="0em" dy="0.95em" style="text-anchor: middle; visibility: hidden; font-family: Roboto, sans-serif; font-size: 12px; font-weight: 200;" fill="rgb(33, 33, 33)" stroke="none" stroke-width="1px">1.4M</text><text x="201.03515625" y="0" dx="0em" dy="0.95em" style="text-anchor: middle; visibility: inherit; font-family: Roboto, sans-serif; font-size: 12px; font-weight: 200;" fill="rgb(33, 33, 33)" stroke="none" stroke-width="1px">1.6M</text><text x="223.37239583333334" y="0" dx="0em" dy="0.95em" style="text-anchor: middle; visibility: hidden; font-family: Roboto, sans-serif; font-size: 12px; font-weight: 200;" fill="rgb(33, 33, 33)" stroke="none" stroke-width="1px">1.8M</text><text x="245.70963541666666" y="0" dx="0em" dy="0.95em" style="text-anchor: middle; visibility: inherit; font-family: Roboto, sans-serif; font-size: 12px; font-weight: 200;" fill="rgb(33, 33, 33)" stroke="none" stroke-width="1px">2M</text><text x="268.046875" y="0" dx="0em" dy="0.95em" style="text-anchor: middle; visibility: hidden; font-family: Roboto, sans-serif; font-size: 12px; font-weight: 200;" fill="rgb(33, 33, 33)" stroke="none" stroke-width="1px">2.2M</text></g><line x1="0" y1="0" x2="268.046875" y2="0" fill="rgb(0, 0, 0)" stroke="rgb(204, 204, 204)" stroke-width="1px"></line></g></g></g></g></svg>