<svg viewBox="0 0 330 200" xmlns="http://www.w3.org/2000/svg"><g><g><g><g><g><line x1="61.953125" y1="177" x2="56.953125" y2="177" style="visibility: inherit;" fill="rgb(0, 0, 0)" stroke="rgb(204, 204, 204)" stroke-width="1px"></line><line x1="61.953125" y1="154.875" x2="56.953125" y2="154.875" style="visibility: inherit;" fill="rgb(0, 0, 0)" stroke="rgb(204, 204, 204)" stroke-width="1px"></line><line x1="61.953125" y1="132.75" x2="56.953125" y2="132.75" style="visibility: inherit;" fill="rgb(0, 0, 0)" stroke="rgb(204, 204, 204)" stroke-width="1px"></line><line x1="61.953125" y1="110.625" x2="56.953125" y2="110.625" style="visibility: inherit;" fill="rgb(0, 0, 0)" stroke="rgb(204, 204, 204)" stroke-width="1px"></line><line x1="61.953125" y1="88.5" x2="56.953125" y2="88.5" style="visibility: inherit;" fill="rgb(0, 0, 0)" stroke="rgb(204, 204, 204)" stroke-width="1px"></line><line x1="61.953125" y1="66.375" x2="56.953125" y2="66.375" style="visibility: inherit;" fill="rgb(0, 0, 0)" stroke="rgb(204, 204, 204)" stroke-width="1px"></line><line x1="61.953125" y1="44.25" x2="56.953125" y2="44.25" style="visibility: inherit;" fill="rgb(0, 0, 0)" stroke="rgb(204, 204, 204)" stroke-width="1px"></line><line x1="61.953125" y1="22.125" x2="56.953125" y2="22.125" style="visibility: inherit;" fill="rgb(0, 0, 0)" stroke="rgb(204, 204, 204)" stroke-width="1px"></line><line x1="61.953125" y1="0" x2="56.953125" y2="0" style="visibility: inherit;" fill="rgb(0, 0, 0)" stroke="rgb(204, 204, 204)" stroke-width="1px"></line></g><g transform="translate(51.953125, 0)"><text x="0" y="177" dx="0em" dy="0.3em" style="text-anchor: end; visibility: hidden; font-family: Roboto, sans-serif; font-size: 12px; font-weight: 200;" fill="rgb(33, 33, 33)" stroke="none" stroke-width="1px">-8e-3</text><text x="0" y="154.875" dx="0em" dy="0.3em" style="text-anchor: end; visibility: inherit; font-family: Roboto, sans-serif; font-size: 12px; font-weight: 200;" fill="rgb(33, 33, 33)" stroke="none" stroke-width="1px">-7e-3</text><text x="0" y="132.75" dx="0em" dy="0.3em" style="text-anchor: end; visibility: hidden; font-family: Roboto, sans-serif; font-size: 12px; font-weight: 200;" fill="rgb(33, 33, 33)" stroke="none" stroke-width="1px">-6e-3</text><text x="0" y="110.625" dx="0em" dy="0.3em" style="text-anchor: end; visibility: inherit; font-family: Roboto, sans-serif; font-size: 12px; font-weight: 200;" fill="rgb(33, 33, 33)" stroke="none" stroke-width="1px">-5e-3</text><text x="0" y="88.5" dx="0em" dy="0.3em" style="text-anchor: end; visibility: hidden; font-family: Roboto, sans-serif; font-size: 12px; font-weight: 200;" fill="rgb(33, 33, 33)" stroke="none" stroke-width="1px">-4e-3</text><text x="0" y="66.375" dx="0em" dy="0.3em" style="text-anchor: end; visibility: inherit; font-family: Roboto, sans-serif; font-size: 12px; font-weight: 200;" fill="rgb(33, 33, 33)" stroke="none" stroke-width="1px">-3e-3</text><text x="0" y="44.25" dx="0em" dy="0.3em" style="text-anchor: end; visibility: hidden; font-family: Roboto, sans-serif; font-size: 12px; font-weight: 200;" fill="rgb(33, 33, 33)" stroke="none" stroke-width="1px">-2e-3</text><text x="0" y="22.125" dx="0em" dy="0.3em" style="text-anchor: end; visibility: inherit; font-family: Roboto, sans-serif; font-size: 12px; font-weight: 200;" fill="rgb(33, 33, 33)" stroke="none" stroke-width="1px">-1e-3</text><text x="0" y="0" dx="0em" dy="0.3em" style="text-anchor: end; visibility: hidden; font-family: Roboto, sans-serif; font-size: 12px; font-weight: 200;" fill="rgb(33, 33, 33)" stroke="none" stroke-width="1px">0</text></g><line x1="61.953125" y1="0" x2="61.953125" y2="177" fill="rgb(0, 0, 0)" stroke="rgb(204, 204, 204)" stroke-width="1px"></line></g></g><g transform="translate(61, 0)" clip-path="url(#clip_0)"><clipPath id="clip_0"><rect width="268" height="177"></rect></clipPath><g><g><g><line x1="0" y1="0" x2="0" y2="177" fill="rgb(0, 0, 0)" stroke="rgb(66, 66, 66)" stroke-width="1px" opacity="0.25"></line><line x1="22.337239583333332" y1="0" x2="22.337239583333332" y2="177" fill="rgb(0, 0, 0)" stroke="rgb(66, 66, 66)" stroke-width="1px" opacity="0.25"></line><line x1="44.674479166666664" y1="0" x2="44.674479166666664" y2="177" fill="rgb(0, 0, 0)" stroke="rgb(66, 66, 66)" stroke-width="1px" opacity="0.25"></line><line x1="67.01171875" y1="0" x2="67.01171875" y2="177" fill="rgb(0, 0, 0)" stroke="rgb(66, 66, 66)" stroke-width="1px" opacity="0.25"></line><line x1="89.34895833333333" y1="0" x2="89.34895833333333" y2="177" fill="rgb(0, 0, 0)" stroke="rgb(66, 66, 66)" stroke-width="1px" opacity="0.25"></line><line x1="111.68619791666667" y1="0" x2="111.68619791666667" y2="177" fill="rgb(0, 0, 0)" stroke="rgb(66, 66, 66)" stroke-width="1px" opacity="0.25"></line><line x1="134.0234375" y1="0" x2="134.0234375" y2="177" fill="rgb(0, 0, 0)" stroke="rgb(66, 66, 66)" stroke-width="1px" opacity="0.25"></line><line x1="156.36067708333334" y1="0" x2="156.36067708333334" y2="177" fill="rgb(0, 0, 0)" stroke="rgb(66, 66, 66)" stroke-width="1px" opacity="0.25"></line><line x1="178.69791666666666" y1="0" x2="178.69791666666666" y2="177" fill="rgb(0, 0, 0)" stroke="rgb(66, 66, 66)" stroke-width="1px" opacity="0.25"></line><line x1="201.03515625" y1="0" x2="201.03515625" y2="177" fill="rgb(0, 0, 0)" stroke="rgb(66, 66, 66)" stroke-width="1px" opacity="0.25"></line><line x1="223.37239583333334" y1="0" x2="223.37239583333334" y2="177" fill="rgb(0, 0, 0)" stroke="rgb(66, 66, 66)" stroke-width="1px" opacity="0.25"></line><line x1="245.70963541666666" y1="0" x2="245.70963541666666" y2="177" fill="rgb(0, 0, 0)" stroke="rgb(66, 66, 66)" stroke-width="1px" opacity="0.25"></line><line x1="268.046875" y1="0" x2="268.046875" y2="177" fill="rgb(0, 0, 0)" stroke="rgb(66, 66, 66)" stroke-width="1px" opacity="0.25"></line></g><g><line x1="0" y1="177" x2="268.046875" y2="177" fill="rgb(0, 0, 0)" stroke="rgb(66, 66, 66)" stroke-width="1px" opacity="0.25"></line><line x1="0" y1="154.875" x2="268.046875" y2="154.875" fill="rgb(0, 0, 0)" stroke="rgb(66, 66, 66)" stroke-width="1px" opacity="0.25"></line><line x1="0" y1="132.75" x2="268.046875" y2="132.75" fill="rgb(0, 0, 0)" stroke="rgb(66, 66, 66)" stroke-width="1px" opacity="0.25"></line><line x1="0" y1="110.625" x2="268.046875" y2="110.625" fill="rgb(0, 0, 0)" stroke="rgb(66, 66, 66)" stroke-width="1px" opacity="0.25"></line><line x1="0" y1="88.5" x2="268.046875" y2="88.5" fill="rgb(0, 0, 0)" stroke="rgb(66, 66, 66)" stroke-width="1px" opacity="0.25"></line><line x1="0" y1="66.375" x2="268.046875" y2="66.375" fill="rgb(0, 0, 0)" stroke="rgb(66, 66, 66)" stroke-width="1px" opacity="0.25"></line><line x1="0" y1="44.25" x2="268.046875" y2="44.25" fill="rgb(0, 0, 0)" stroke="rgb(66, 66, 66)" stroke-width="1px" opacity="0.25"></line><line x1="0" y1="22.125" x2="268.046875" y2="22.125" fill="rgb(0, 0, 0)" stroke="rgb(66, 66, 66)" stroke-width="1px" opacity="0.25"></line><line x1="0" y1="0" x2="268.046875" y2="0" fill="rgb(0, 0, 0)" stroke="rgb(66, 66, 66)" stroke-width="1px" opacity="0.25"></line></g></g></g><g><g><line x1="0" y1="0" x2="268.046875" y2="0" fill="rgb(0, 0, 0)" stroke="rgb(153, 153, 153)" stroke-width="1.5px"></line></g></g><g><g><line x1="22.337239583333332" y1="0" x2="22.337239583333332" y2="177" fill="rgb(0, 0, 0)" stroke="rgb(153, 153, 153)" stroke-width="1.5px"></line></g></g><g><g><g><g><g><path stroke="rgb(255, 112, 67)" stroke-width="2px" d="M22.79470625,-48.86016601813026L23.023439583333335,49.73046364102629L23.252172916666666,42.80904293320457L23.48090625,73.88676671438161L23.70963958333333,48.12570993747965L23.93837291666667,25.648664785758253L24.16710625,24.97320268963195L24.395839583333334,34.59922444900435L24.624572916666665,21.710556110760933L24.85330625,26.546917772320363L25.082039583333334,50.82124710234001L25.310772916666668,34.22843789919024L25.539506250000002,22.27052934019018L25.768239583333333,27.52067017423591L25.996972916666667,52.69315891771031L26.225706249999998,49.66836763865362L26.454439583333333,37.705777796302485L26.683172916666667,27.443851040957544L26.91190625,18.263162529444532L27.140639583333332,14.809585100037376L27.369372916666666,10.748562652253023L27.598106249999997,8.375238908933003L27.82683958333333,7.542293745477888L28.05557291666667,11.758147280626039L28.28430625,12.42107040338914L28.513039583333335,21.620360947278083L28.741772916666665,15.837780820931263L28.97050625,14.185107802930363L29.19923958333333,36.85046210429024L29.42797291666667,24.021124904067314L29.65670625,21.942415543345938L29.885439583333334,23.8281950848057L30.114172916666664,20.688304723752466L30.34290625,20.884669666547158L30.571639583333337,14.547043309528531L30.800372916666667,9.971219191046616L31.02910625,23.010201494361464L31.257839583333332,14.880887886030836L31.486572916666667,-0.5953215387468258L31.715306249999998,6.370372806274984L31.944039583333335,5.84673751345567L32.172772916666666,9.103237986421172L32.40150625,-14.316748284132508L33.08770625,-5.6058049882461685L33.316439583333334,9.335753786619476L33.545172916666665,7.924422905335017L33.77390625,7.512337574637142L34.002639583333334,9.737965457566157L34.231372916666665,9.623918279689331L34.46010625,6.492991636296796L34.68883958333333,8.653434092685101L34.917572916666664,10.323215681876036L35.146306249999995,7.573170942992349L35.37503958333333,9.752068317333547L35.60377291666667,13.28501942213315L35.83250625,8.052888017271869L36.06123958333333,8.991322178281866L36.28997291666666,3.860843142374867L36.51870625,7.605973775240595L36.74743958333334,10.420748433409129L36.97617291666666,5.047818376985623L37.20490625,2.4239907898283666L37.43363958333333,-2.527710347000779L37.66237291666667,6.281483431934031L37.89110625000001,9.121860530882488L38.11983958333333,10.449309852623406L38.34857291666667,8.088517647335053L38.57730625,9.777320536913757L38.80603958333334,8.295129503037831L39.03477291666666,20.948309057620197L39.26350625,12.062213730913955L39.49223958333334,17.047999867932518L39.72097291666667,12.370675921437696L39.94970625,5.260994754136469L40.17843958333333,4.520840149330017L40.40717291666667,21.455733153291465L40.635906250000005,15.276929654193552L40.864639583333336,9.221726395095239L41.09337291666667,5.197787859966085L41.32210625,9.02541580657943L41.550839583333335,8.649891934063294L41.779572916666666,7.4432133161327L42.00830625,9.65746818388929L42.237039583333335,6.499430632755158L42.465772916666666,4.920392788683509L42.69450625,5.182791873293913L42.92323958333333,5.58870469305271L43.151972916666665,17.12399773071471L43.38070625,16.199308578651113L43.609439583333334,10.612851154742241L43.83817291666667,5.800434638055804L44.066906249999995,6.2915338843760855L44.29563958333333,1.172663360785843L44.52437291666667,1.3731982748054754L44.75310625,9.457650628459609L44.98183958333333,-0.9490947151238247L45.21057291666666,3.2445119080115283L45.43930625,2.9681933974551065L45.66803958333333,9.375310829995108L45.89677291666666,11.263479948462491L46.12550625,21.744958989014577L46.35423958333333,13.845914969315604L46.58297291666667,10.581942893237436L46.81170625,7.760929850833873L47.04043958333333,20.50749943883368L47.26917291666667,16.48519474198516L47.49790625,11.511425096776899L47.72663958333334,-6.012188959259916L47.95537291666666,-2.2986425005507742L48.18410625,12.442071888587277L48.41283958333333,11.57209192049408L48.64157291666667,15.26307884065823L48.870306250000006,22.14363257497038L49.09903958333333,20.638741351310824L49.32777291666667,13.047775340470777L49.55650625,25.407536542910684L49.785239583333336,16.919531372372486L50.01397291666667,14.945782812962179L50.24270625,-0.8738124599040336L50.471439583333336,-0.857314500804967L50.700172916666666,2.11523007112408L50.92890625,6.248588793071982L51.157639583333335,14.747680125859981L51.386372916666666,16.580948012290204L51.615106250000004,47.959404245409566L51.843839583333335,37.3823459607797L52.072572916666665,21.294771756996397L52.301306249999996,31.58854568918477L52.530039583333334,21.198504900781025L52.75877291666667,19.100441970226854L52.987506249999996,15.437478254493811L53.21623958333333,20.6110932087659L53.444972916666664,33.902282153692646L53.67370625,24.684674829110637L53.90243958333334,20.964598804026558L54.131172916666664,24.527946153477036L54.35990625,20.886913617802712L54.58863958333333,34.87082683520946L54.81737291666667,35.96271479153592L55.046106249999994,57.07979680574812L55.27483958333333,22.09469973477722L55.50357291666667,23.779958984927454L55.73230625,44.69509432890706L55.96103958333333,33.29739223364148L56.18977291666666,31.330691862698806L56.41850625,27.533076184756773L56.64723958333334,25.72853245960643L56.87597291666667,40.04888901087699L57.10470625,53.845723514843336L57.33343958333333,54.66534183719804L57.56217291666667,46.96369674621516L57.790906250000006,81.69061310462499L58.01963958333333,62.32154245482106L58.24837291666667,66.94653554769216L58.47710625,85.78398336067413L58.705839583333336,56.838246425106696L58.93457291666666,37.39760952528874L59.16330625,26.147132879895167L59.392039583333336,29.083714939651433L59.62077291666667,31.219665550671937L59.849506250000005,29.453477733609308L60.07823958333333,35.18294124435395L60.306972916666666,30.913415047795016L60.535706250000004,54.13390418579158L60.764439583333335,64.4753616418837L60.993172916666666,56.76233372413507L61.221906249999996,34.10858727616685L61.450639583333334,33.399822573023606L61.679372916666665,42.70835106400852L61.90810625,55.79314507814171L62.136839583333334,38.70976384111242L62.365572916666665,64.8161596479073L62.59430625,59.31384833856626L62.82303958333333,59.09262911612811L63.051772916666664,62.64369125549136L63.28050625,69.5339112649285L63.50923958333333,51.128275414812464L63.73797291666667,50.64734527480328L63.966706249999994,42.56670157208577L64.19543958333334,55.659563464676054L64.42417291666666,50.13868809893076L64.65290625,5.023984329204828L64.88163958333334,23.655366707530522L65.11037291666666,33.06796582886913L65.33910625,39.37308015724249L65.56783958333332,46.074699044899525L65.79657291666666,44.87758719304844L66.02530625,37.98737271933791L66.25403958333334,28.907980404750294L66.48277291666666,34.668701400302076L66.71150625,43.45390484096764L66.94023958333334,31.072808701491756L67.16897291666668,60.058485297640495L67.39770625,66.71750416755621L67.62643958333332,51.04700972028976L67.85517291666667,62.099059888707274L68.08390625,43.36285502954989L68.31263958333334,43.42829089794857L68.54137291666667,40.90383831684434L68.77010625,38.120748116874815L68.99883958333334,33.59016998475849L69.22757291666666,62.28887926111257L69.45630625000001,68.40046663968423L69.68503958333334,59.915631590213074L69.91377291666666,49.53407682350133L70.14250625000001,52.97778029849143L70.37123958333333,62.25714523531876L70.59997291666666,80.25552763995012L70.82870625,72.44949415840345L71.05743958333333,56.19514760636993L71.28617291666667,52.842825988296156L71.51490625,40.28800311062264L71.74363958333333,36.83916976297328L71.97237291666667,39.06002491858263L72.20110625,-1.6935999473197338L72.42983958333335,21.784687966167148L72.65857291666667,23.427303815482095L72.88730625,20.75086019352798L73.11603958333333,27.22863475490422L73.34477291666667,39.200381066702654L73.57350625,31.63329868189417L73.80223958333333,28.788163753226677L74.03097291666667,25.44245778971835L74.25970625000001,6.68705953739595L74.48843958333333,29.346826011713656L74.71717291666666,25.106800461543575L74.94590625000001,24.250002056061376L75.17463958333333,22.351952771476913L75.40337291666667,24.750272596287065L75.63210625,22.752068313044195L75.86083958333333,22.38944620302172L76.08957291666667,20.03275910520874L76.31830624999999,25.384768633709903L76.54703958333333,31.369737951081802L76.77577291666667,33.04595131203343L77.00450624999999,38.568096407743894L77.23323958333334,35.655238454728654L77.46197291666667,48.57630741467806L77.69070624999999,62.32448309284887L77.91943958333334,26.546072226328423L78.14817291666667,23.995849511609578L78.37690625,16.762222986496152L78.60563958333333,21.893534459210063L78.83437291666667,18.148609788667812L79.06310625,16.295036875786316L79.29183958333333,18.503140147349292L79.52057291666667,28.314804625395176L79.74930625,45.70626966078326L79.97803958333333,40.076665021277186L80.20677291666667,14.960928851384564L80.43550625,13.049982927492279L80.66423958333333,44.14512755632461L80.89297291666666,47.37969127700144L81.12170625,32.408951900743084L81.35043958333334,24.7109433331753L81.57917291666666,24.478226954019217L81.80790625,23.408945455203526L82.03663958333334,29.789556795351242L82.26537291666666,24.94317820971387L82.49410624999999,33.00963449324773L82.72283958333334,26.901323254766748L82.95157291666666,40.34739730623748L83.18030625,47.39376250547475L83.40903958333334,38.03512919629995L83.63777291666666,33.19747862949637L83.86650625,37.88239105232236L84.09523958333332,16.591933503142673L84.32397291666668,20.368844826948514L84.55270625,30.823204813857007L84.78143958333332,40.86769480026685L85.01017291666668,37.23267749953857L85.23890625,33.35504738423507L85.46763958333334,31.041977258420534L85.69637291666666,33.010132250342316L85.92510625,30.805410845464362L86.15383958333334,21.439519308662945L86.38257291666666,16.317075620719873L86.61130625,56.09562771730367L86.84003958333334,28.62465805587038L87.06877291666666,44.723290781371226L87.29750625000001,45.22957824293819L87.52623958333334,38.75784215498146L87.75497291666666,37.7935434543773L87.98370625,44.12779308201354L88.21243958333334,40.18532514552164L88.44117291666667,63.26909816532515L88.66990625,44.41491103917152L88.89863958333333,48.020610672141125L89.12737291666667,35.13071592838429L89.35610625,50.62244982656233L89.58483958333332,47.6276869697244L89.81357291666667,38.43674734268687L90.04230625,53.93864979987802L90.27103958333333,67.44943555177278L90.49977291666667,45.11564174832644L90.72850625,48.36200223264018L90.95723958333333,48.44552452558679L91.18597291666667,52.82051438348756L91.41470625000001,70.98594021540741L91.64343958333333,40.432859606945776L91.87217291666666,33.87461957576568L92.10090625000001,32.52001624680426L92.32963958333333,47.4209826433211L92.55837291666666,65.32962733375577L92.78710625000001,39.606720666999855L93.01583958333333,22.978390462654183L93.24457291666667,42.03099716247311L93.47330625,57.95738368496636L93.70203958333333,49.35315343160011L93.93077291666667,38.905549757395775L94.15950624999999,23.53894968279259L94.38823958333334,22.465812683657337L94.61697291666667,17.193856514378485L94.84570624999999,11.34190310506052L95.07443958333334,9.167537280039747L95.30317291666667,22.65944719118505L95.53190624999999,21.690935194247245L95.76063958333333,38.70555052239644L95.98937291666667,33.1089895219591L96.21810625,33.247876300069656L96.44683958333333,9.23390901231943L96.67557291666667,19.266741200883633L96.90430625,8.819100034300835L97.13303958333333,28.04824924945941L97.36177291666667,38.939347989366134L97.59050625,31.41917194242927L97.81923958333333,22.100655501959995L98.04797291666667,49.03581092614876L98.27670625,48.84333961093544L98.50543958333334,58.120351949202224L98.73417291666667,51.52402301023249L98.96290624999999,34.75042889561273L99.19163958333334,24.50061341565522L99.42037291666666,22.428115532688523L99.64910624999999,51.331415780420436L99.87783958333334,44.88516173920837L100.10657291666666,43.17552245858645L100.33530625,30.65826225639445L100.56403958333334,27.617498218557625L100.79277291666666,40.307580967812314L101.02150625,33.06246019726981L101.25023958333333,21.59644517038724L101.47897291666668,58.8304553949279L101.70770625,66.11276755761385L101.93643958333332,58.68174287136662L102.16517291666668,95.47215267151606L102.39390625,80.4867341513113L102.62263958333332,83.74089784106171L102.85137291666666,83.05643656966792L103.08010625,89.90962106581156L103.30883958333334,91.35881744885071L103.53757291666666,73.14179571960791L103.76630625,67.25769741503925L103.99503958333334,78.98012867223342L104.22377291666666,82.06706317343485L104.45250625000001,77.95396937178477L104.68123958333334,116.43928788302483L104.90997291666666,108.45430496993299L105.13870625,92.86251783458596L105.36743958333334,90.14230707526626L105.59617291666666,107.37212834054485L105.82490625,131.77223625470253L106.05363958333334,96.5850348563026L106.28237291666667,84.19217336794917L106.51110625,92.25962744483311L106.73983958333332,107.64937609667456L106.96857291666667,79.31430905289315L107.19730625,112.61970894229776L107.42603958333333,90.82813753637592L107.65477291666667,106.41956233074767L107.88350625,116.41423483824285L108.11223958333333,92.49747882165715L108.34097291666667,102.83308199161712L108.56970625000001,98.1853739732246L108.79843958333333,128.2828371730441L109.02717291666666,129.04179680109735L109.25590625000001,143.7859783057762L109.48463958333333,124.46122881211447L109.71337291666666,110.37757532224124L109.94210625000001,97.90356976037883L110.17083958333333,100.40104719099799L110.39957291666667,82.8944785873623L110.62830625,89.5169673559759L110.85703958333333,84.95475916159563L111.08577291666667,109.2167088163937L111.31450625,128.22442192721635L111.54323958333335,121.27858857520383L111.77197291666667,83.80777602580464L112.00070625,118.7200916951509L112.22943958333333,89.62762376183564L112.45817291666667,77.50754469893079L112.68690624999999,63.578879409492856L112.91563958333333,120.63405208011616L113.14437291666667,126.29640998338252L113.37310625,92.41514227783809L113.60183958333333,97.18443302975521L113.83057291666667,81.97120061979176L114.05930625,121.09877595806407L114.28803958333333,107.86467704347096L114.51677291666667,94.23397259721202L114.74550625,88.35400206416648L114.97423958333333,95.53379560862362L115.20297291666667,70.61575832918103L115.43170625,71.58522740091271L115.66043958333333,90.55520590352498L115.88917291666667,107.81922596574566L116.11790624999999,108.72443903743918L116.34663958333334,91.59856291139688L116.57537291666667,98.0765424293999L116.80410624999999,85.46874350714901L117.03283958333334,86.24678880815637L117.26157291666667,93.3024138886552L117.49030625,116.09901442978955L117.71903958333334,142.12784856657194L117.94777291666666,204.99254946283997L118.17650625,167.5453430088088L118.40523958333333,148.4884182438165L118.63397291666666,104.01651674536451L118.86270625,127.42911945076338L119.09143958333333,101.93297687439801L119.32017291666668,121.5309360147636L119.54890625,151.68111174865788L119.77763958333333,125.97971554585831L120.00637291666666,124.15284920421117L120.23510625,124.44019171464814L120.46383958333334,132.00502245068324L120.69257291666666,116.14320711234078L120.92130625,130.55077398196676L121.15003958333334,119.88970086258391L121.37877291666666,121.52565014530263L121.60750625000001,125.90743827156898L121.83623958333334,125.78841583331032L122.06497291666666,142.0244641676149L122.29370625,171.0613954111696L122.52243958333334,142.80837903252308L122.75117291666666,115.74828392445927L122.97990625,143.2717116582685L123.20863958333334,157.82168386702497L123.43737291666667,117.72522312475225L123.66610625,103.03835850001039L123.89483958333332,96.24455786418191L124.12357291666667,47.25879081915705L124.35230625,85.91577897548459L124.58103958333332,114.90310853022208L124.80977291666667,146.79018990314228L125.03850625,162.22288389796748L125.26723958333334,175.1135541598185L125.49597291666666,161.585252155002L125.72470625,118.9231651748969L125.95343958333333,175.30753656704746L126.18217291666666,111.38245697451657L126.41090625000001,126.73671569959387L126.63963958333333,124.0757073227603L126.86837291666666,141.9232711213627L127.09710625000001,159.22139855207791L127.32583958333333,130.85475416452016L127.55457291666667,165.4836989933719L127.78330625,136.724821692003L128.01203958333335,160.2871105613072L128.24077291666666,182.9906073163008L128.46950625,136.3092322226647L128.69823958333333,163.10920625075894L128.92697291666667,152.01507420607774L129.15570625,164.13915504898648L129.38443958333332,43.169253099961715L129.61317291666668,19.211144574626633L129.84190625,110.75759031811023L130.07063958333333,142.4147959146718L130.29937291666667,94.7379051887006L130.52810625,133.06688374984327L130.75683958333332,113.5696719241623L130.98557291666668,115.31409235648714L131.21430625,119.48126807422878L131.44303958333333,130.3735309089657L131.67177291666667,129.2312954577691L131.90050625,143.68672365474026L132.12923958333334,166.203002533852L132.35797291666665,175.96235238666173L132.58670625000002,136.55239384313202L132.81543958333333,149.5913121262701L133.04417291666667,168.15719427746603L133.27290625,148.44815391239268L133.50163958333334,144.43367759771195L133.73037291666665,123.48864414587344L133.95910625,163.38408999618724L134.18783958333333,170.07972009764217L134.41657291666667,186.45892173967422L134.64530625,176.12205768274018L134.87403958333334,177.0557310690537L135.10277291666665,163.5725492626834L135.33150625,133.1269908146803L135.56023958333336,127.4276910485622L135.78897291666667,100.23733707960227L136.01770625,137.24104905431437L136.24643958333334,166.93942137393336L136.47517291666665,152.86557952140555L136.70390625,148.16275733455888L136.93263958333335,149.37036061712277L137.16137291666666,148.05470078842743L137.39010625,181.09672845881823L137.61883958333334,169.11260219894584L137.84757291666665,212.46465730284297L138.07630625000002,174.85114662045027L138.30503958333333,144.43606562953462L138.53377291666666,146.75674958737952L138.76250625,165.69726727135338L138.9912395833333,136.4345059218398L139.21997291666668,134.0611374210874L139.44870625000001,182.4368184741771L139.67743958333332,189.44769375019885L139.90617291666666,152.12243722654796L140.13490625,171.57811250665736L140.36363958333334,201.53681602219615L140.59237291666668,175.55393680305704L140.82110625,158.275360905544L141.04983958333332,176.48402590098445L141.27857291666666,168.01499971344302L141.50730625,188.50675108935965L141.73603958333334,168.43614731971343L141.96477291666667,108.90520742895181L142.19350624999998,127.36892168476862L142.42223958333332,152.47733618545342L142.6509729166667,134.6790123913977L142.87970625,152.3317604808088L143.10843958333334,108.20937809052583L143.33717291666667,133.64684314271074L143.56590624999998,114.2911204036676L143.79463958333332,137.64756280327455L144.0233729166667,134.52567431808035L144.25210625,142.31201785176557L144.48083958333333,140.57330496158934L144.70957291666667,100.82465161695062L144.93830624999998,108.1498302275403L145.16703958333335,108.3792446733319L145.39577291666666,120.9573928877445L145.62450625,171.81406780084862L145.85323958333333,150.57027412541743L146.08197291666664,160.78179391824028L146.31070625,127.84477415323076L146.53943958333335,129.69479981613793L146.76817291666666,159.3137979514309L146.99690625,187.34005736228275L147.22563958333333,192.35337138200669L147.45437291666667,170.16414027117114L147.68310625,134.03678043977868L147.91183958333335,156.2455635680792L148.14057291666666,143.692651205229L148.36930625,175.2714924889608L148.59803958333336,169.62080250883423L148.82677291666667,159.05706582079424L149.05550625,156.6671407406261L149.28423958333332,159.50583338348451L149.51297291666666,139.87753476062198L149.74170625,125.7532498438807L149.97043958333333,127.58830063210587L150.19917291666667,136.367546543541L150.42790625,139.91512315910308L150.65663958333332,135.4141959479302L150.88537291666665,120.44207642467171L151.11410625000002,135.23007747339517L151.34283958333333,154.97268953134005L151.57157291666667,163.026166704055L151.80030625,113.23231959987808L152.02903958333332,109.3011450066738L152.25777291666668,100.95478343577372L152.48650625000002,115.31442099689656L152.71523958333333,120.95707542339987L152.94397291666667,92.29365014424192L153.17270624999998,106.63416080614338L153.40143958333334,134.1990287833089L153.63017291666668,154.8447847057983L153.85890625,114.04731630127382L154.08763958333333,135.9020659528494L154.31637291666667,170.3413197854054L154.54510625,201.55974062659692L154.77383958333334,181.12519595513254L155.00257291666668,172.75680090890535L155.23130625,156.0426880696786L155.46003958333333,131.7627724314852L155.6887729166667,145.2343050749301L155.91750625,150.59231879014217L156.14623958333334,121.465881713545L156.37497291666668,87.52094142806905L156.60370625,130.53987736096906L156.83243958333333,172.70141594426886L157.06117291666666,152.44474061115568L157.28990625,118.25348241796486L157.51863958333334,104.72776480577004L157.74737291666665,124.26914924159114L157.97610625,118.15998347863236L158.20483958333335,119.67232361016232L158.43357291666666,55.699923846448165L158.66230625,111.49967899222656L158.89103958333334,173.73829071215977L159.11977291666665,184.12261530826802L159.34850625,157.63018995565363L159.57723958333335,177.8310832178872L159.80597291666666,175.9434811258335L160.03470625,166.9159880205777L160.26343958333334,125.87724766618229L160.49217291666668,119.80798119261095L160.72090625,132.29244745178806L160.94963958333332,141.8809537747728L161.17837291666666,159.10838526505094L161.40710625,164.06936062026242L161.6358395833333,151.30076724658588L161.86457291666667,92.26733554626733L162.09330625,120.75649790842223L162.32203958333332,143.5803675972157L162.55077291666666,158.03436518335243L162.77950625,136.7233824366638L163.00823958333334,136.93596546034865L163.23697291666667,151.36908976804227L163.46570625,135.46245482457286L163.69443958333332,156.78812707412305L163.92317291666666,108.39604372407088L164.15190625000002,127.09992406573197L164.38063958333333,149.50007901337028L164.60937291666667,136.84216189829277L164.83810624999998,167.84493956720988L165.06683958333332,133.2881375668006L165.29557291666669,128.05892317008562L165.52430625,144.7604309036156L165.75303958333333,186.83271074936212L165.98177291666667,194.67506173414247L166.21050624999998,162.9905777277783L166.43923958333335,147.38827802663954L166.66797291666668,120.70072874494441L166.89670625,101.23832751711412L167.12543958333333,111.55123132575423L167.35417291666667,102.14609448415858L167.58290625,78.22223900215519L167.81163958333335,92.69065621786083L168.04037291666666,100.10168993852446L168.26910625,120.22733682211883L168.49783958333333,159.35055847319452L168.72657291666664,146.70732730185233L168.95530625,115.90864472254508L169.18403958333334,88.21044257939991L169.41277291666665,125.47706156655336L169.64150625,113.21015008630118L169.87023958333333,42.68388457539236L170.09897291666667,70.71941476094754L170.32770625,49.568220080532534L170.55643958333334,37.04508377997915L170.78517291666665,71.55721049931701L171.01390625,85.94944934186819L171.24263958333336,84.79567438352844L171.47137291666667,115.74515115742378L171.70010625,160.23091299809212L171.9288395833333,160.29489726783154L172.15757291666665,132.33357032030116L172.38630625000002,131.34108672690715L172.61503958333333,101.87973254777015L172.84377291666667,113.93282263324123L173.07250625,91.08418366882105L173.3012395833333,93.31461866951227L173.52997291666668,97.8789363183453L173.75870625000002,124.71874337008593L173.98743958333333,108.7646792371854L174.21617291666666,114.90174708193749L174.44490625,99.3350767954511L174.67363958333334,117.69754525955454L174.90237291666668,145.46996979638004L175.13110625000002,118.69754310355891L175.35983958333333,115.88727420829272L175.58857291666666,89.24198591809743L175.81730624999997,77.61231413320465L176.04603958333334,67.5284835815885L176.27477291666668,52.340142439081646L176.50350625,86.43080432114714L176.73223958333332,67.11852809665292L176.96097291666666,65.9394587456409L177.18970625,58.436160627072994L177.41843958333334,92.56433646153862L177.64717291666668,110.98317166952167L177.87590624999999,100.8278465331927L178.10463958333332,109.93342337471007L178.3333729166667,82.95602942910537L178.56210625,65.66563833444673L178.79083958333334,67.66872981573633L179.01957291666668,69.7224021452173L179.24830624999998,73.20986234288688L179.47703958333335,92.90616307510453L179.70577291666666,77.08179963581497L179.93450625,70.58808797308942L180.16323958333334,91.88125864578271L180.39197291666665,95.0951278906717L180.62070625,146.98187172869766L180.84943958333335,126.7676980252783L181.07817291666666,130.50716063581976L181.30690625,116.6941372432743L181.53563958333334,108.20318582860736L181.76437291666664,57.165473929286804L181.99310625,77.9505160385688L182.22183958333335,93.23269360586671L182.45057291666666,102.45045194707612L182.67930625,115.30142937411247L182.90803958333333,123.29701890850443L183.13677291666667,138.75288277487087L183.36550625,128.12378847652005L183.59423958333332,143.92422987328962L183.82297291666666,104.91091826573458L184.05170625,81.94281158894194L184.28043958333333,65.07014717792097L184.50917291666667,48.537439968214905L184.73790625,49.192960007821156L184.96663958333332,72.94575394043154L185.19537291666666,57.48625605686801L185.42410625000002,62.55102725472254L185.65283958333333,68.77509207328383L185.88157291666667,82.21211019914729L186.11030625,85.71252859763135L186.33903958333332,103.1923793513735L186.56777291666668,106.071679784531L186.79650625000002,89.83975132550276L187.02523958333333,82.18048784050255L187.25397291666667,79.97569457780814L187.48270624999998,72.96469382986945L187.71143958333334,64.66707503589927L187.94017291666668,145.39761087957285L188.16890625,151.8770726133556L188.39763958333333,89.11142952509054L188.62637291666667,91.0392078585093L188.85510624999998,77.694119406777L189.08383958333334,57.44951974860757L189.31257291666668,79.28619347389449L189.54130625,62.61899937452358L189.77003958333333,153.48952870189538L189.99877291666667,104.67114554644945L190.22750625,100.78616688822255L190.45623958333334,114.3837596998709L190.68497291666665,97.71381089526253L190.91370625,99.62357899584076L191.14243958333333,77.29926925817624L191.37117291666667,108.58252497416434L191.59990625,123.13019470513879L191.82863958333334,137.05380464559656L192.05737291666665,129.48717124460404L192.28610625,135.72364317911575L192.51483958333336,126.18337817233181L192.74357291666666,102.57977522662357L192.97230625,75.00413090983115L193.20103958333334,62.23928293180106L193.42977291666665,101.98053043129525L193.65850625000002,104.95987376633276L193.88723958333335,124.55996815841937L194.11597291666666,129.04365804948085L194.34470625,65.32561823195695L194.5734395833333,68.15041561805222L194.80217291666665,72.30594041128762L195.03090625000002,63.72339079943557L195.25963958333332,137.24243973481512L195.48837291666666,97.96211451654536L195.71710625,131.89643068642854L195.9458395833333,111.38176740016901L196.17457291666668,108.2450103044144L196.40330625,107.10250435573646L196.63203958333332,104.92873059505398L196.86077291666666,83.70170359032483L197.08950625,74.20333038874867L197.31823958333334,80.4012800018245L197.54697291666668,64.50750815533685L197.77570625,68.61785217751168L198.00443958333332,69.19349874707521L198.23317291666666,77.94228015204496L198.46190625,61.91579433209769L198.69063958333334,80.71296176811053L198.91937291666667,102.0778828753158L199.14810624999998,89.95442995956165L199.37683958333332,100.5532434172891L199.6055729166667,93.75302527108936L199.83430625,109.02801648812233L200.06303958333334,138.87504793203914L200.29177291666667,157.83516994191433L200.52050624999998,127.65058077300773L200.74923958333335,120.49369270477555L200.9779729166667,105.15256575885482L201.20670625,103.53538720283251L201.43543958333333,108.95181619769838L201.66417291666667,98.38599102696183L201.89290624999998,117.14917323719952L202.12163958333335,87.43054730219912L202.35037291666666,76.93945484948246L202.57910625,40.340332689312625L202.80783958333333,45.295824451887626L203.03657291666664,58.82887979963065L203.26530625,66.32339341562174L203.49403958333335,37.31968753747697L203.72277291666666,63.313448518105176L203.95150625,91.3668786337005L204.18023958333333,82.73921532128168L204.40897291666667,115.787972635814L204.63770625,75.42595913274646L204.86643958333335,27.051833748525734L205.09517291666666,56.6156370909997L205.32390625,59.8455348515019L205.55263958333336,47.877401771093105L205.78137291666667,42.439710114751584L206.01010625,63.20895755122115L206.23883958333332,63.91817905196181L206.46757291666665,51.92741563982072L206.69630625000002,49.715133421890755L206.92503958333333,69.75731607479472L207.15377291666667,55.573381877920376L207.38250625,75.17288872419675L207.61123958333332,107.89678082097399L207.83997291666665,69.48657833141226L208.06870625000002,126.69977230639542L208.29743958333333,91.98464521439021L208.52617291666667,102.23182746162203L208.75490625,96.601288494372L208.98363958333331,115.58208856751988L209.21237291666668,94.39633678191433L209.44110625000002,69.44038785396015L209.66983958333333,84.08477958584871L209.89857291666667,47.26304978191693L210.12730624999998,60.63734930323714L210.35603958333334,59.092210001339936L210.58477291666668,64.23657142847578L210.81350625,87.15043212181956L211.04223958333333,84.74252089562121L211.27097291666666,124.25219558560613L211.49970625,93.49577778434018L211.72843958333334,90.89357849180107L211.95717291666668,64.31489460477995L212.18590625,47.15104057603285L212.41463958333333,36.691443665269304L212.6433729166667,57.69665237777279L212.87210625,64.54303233901246L213.10083958333334,74.80561340889831L213.32957291666665,93.38552050503493L213.55830625,108.21315175700873L213.78703958333335,133.32994856779985L214.01577291666666,98.97943501259142L214.24450625,113.55082758548261L214.47323958333334,133.8284886088291L214.70197291666665,142.129289244492L214.93070625,136.65432267945508L215.15943958333335,72.83161170994266L215.38817291666666,79.45307855156824L215.61690625,67.58193336830072L215.84563958333334,56.32628230270504L216.07437291666665,58.19535777839575L216.30310625,44.1243508510146L216.53183958333335,45.52399008940033L216.76057291666666,61.86441218490747L216.98930625,48.908037406454085L217.2180395833333,136.28874828651522L217.44677291666667,99.52780290553703L217.67550625,83.30540203331253L217.90423958333332,93.61266402712221L218.13297291666666,69.17199767608085L218.36170625,30.064048639185067L218.59043958333334,18.658583747023233L218.81917291666667,45.82988794191861L219.04790625,62.14534696981569L219.27663958333332,77.83131822952039L219.50537291666666,72.41845291345734L219.73410625000002,56.34730134255466L219.96283958333333,85.1663748013036L220.19157291666667,86.44812321157345L220.42030625,77.47820780998372L220.64903958333332,79.3311443570869L220.87777291666666,95.67243399582009L221.10650625,143.37729683249714L221.33523958333333,123.56989288951169L221.56397291666667,109.58368830345697L221.79270624999998,96.83168880013824L222.02143958333332,109.00233016997248L222.25017291666668,78.22296671469125L222.47890625,78.68187918826408L222.70763958333333,81.68670696691852L222.93637291666667,80.3197670645337L223.16510624999998,85.13498398445222L223.39383958333335,93.20909971725746L223.62257291666668,94.6735440020296L223.85130625,81.3792243066897L224.08003958333333,34.82508674674861L224.30877291666667,44.18195516210723L224.53750625,87.25949737633424L224.76623958333334,84.20604213561211L224.99497291666665,70.51582654445228L225.22370625,63.67760964559825L225.45243958333333,101.53483742596097L225.68117291666667,77.8484788931691L225.90990625,87.36162770858606L226.13863958333334,68.12795727402501L226.36737291666665,68.21665186694209L226.59610625,44.60367469854657L226.82483958333336,92.79264208558203L227.05357291666667,89.79249200555608L227.28230625,108.8384729703243L227.51103958333334,61.22656785387632L227.73977291666665,33.27039366785536L227.96850625,103.54774543947786L228.19723958333336,103.88282012246883L228.42597291666667,60.957631431747586L228.65470625,67.82502399631463L228.8834395833333,47.251907238096905L229.11217291666665,78.3445547932645L229.34090625000002,89.51963777515354L229.56963958333333,105.41336945174969L229.79837291666666,86.74911496086469L230.02710625,77.3234893633786L230.2558395833333,72.57612885837185L230.48457291666668,66.17368209413098L230.71330625000002,68.79348648249078L230.94203958333333,90.59068259598446L231.17077291666666,128.8340133715518L231.39950625,98.71210239966054L231.62823958333334,96.26546725993208L231.85697291666668,100.04864017696592L232.08570625000002,101.83520455416388L232.31443958333332,93.43524265218583L232.54317291666666,114.84441412402724L232.77190625,135.71731757246573L233.00063958333334,162.8238029975332L233.22937291666668,145.4871801731296L233.45810625,146.53493531479285L233.68683958333332,112.15302059173267L233.9155729166667,124.35088994760622L234.14430625,119.1606028080169L234.37303958333334,81.24332828313274L234.60177291666668,62.22423955252118L234.83050624999998,55.7047017589046L235.05923958333332,79.46101996879031L235.2879729166667,85.06119645751417L235.51670625,81.27053444417955L235.74543958333334,103.72863652643645L235.97417291666667,89.54420599011455L236.20290624999998,102.47850964411572L236.43163958333335,98.51697461646482L236.66037291666666,68.99857111790848L236.88910625,48.71961036191514L237.11783958333334,89.8903300303437L237.34657291666664,77.60149330696643L237.57530625,82.2822200191464L237.80403958333335,57.901314172126845L238.03277291666666,47.73079275242604L238.26150625,45.33017461194989L238.49023958333333,94.64996382318823L238.71897291666667,62.75866825026597L238.94770625,81.19775091885673L239.17643958333335,71.21124826910582L239.40517291666666,87.27703209824107L239.63390625,89.58142230574336L239.8626395833333,90.84924251758481L240.09137291666667,101.993266420355L240.32010625,87.68122374605942L240.54883958333332,77.14225847217028L240.77757291666666,90.09967939148892L241.00630625,73.56133602324829L241.23503958333333,72.60733240562278L241.46377291666667,88.57294504511412L241.69250625,65.02806714095694L241.92123958333332,63.71886196208685L242.14997291666666,107.93935203908495L242.37870625000002,94.94934483095548L242.60743958333333,97.11661988295342L242.83617291666667,88.66684403671162L243.06490625,80.05819820713378L243.29363958333332,50.720348755315705L243.52237291666668,55.03344731113806L243.75110625,51.621828247440575L243.97983958333333,53.9298935792157L244.20857291666667,82.83830841996125L244.43730624999998,64.81185718714654L244.66603958333334,59.50592301252537L244.89477291666668,25.35486504883835L245.12350625,69.23733221077185L245.35223958333333,119.86075232376614L245.58097291666667,119.43884060781423L245.80970625,76.97997050002014" style="fill: none;" fill="none"></path></g></g></g></g><g opacity="0.2"><g><g><g><path stroke="rgb(255, 112, 67)" stroke-width="2px" d="M22.79470625,-48.86016601813026L23.023439583333335,108.88484143652022L23.252172916666666,36.164479053695686L23.48090625,110.43416988104582L23.70963958333333,14.49207420955645L23.93837291666667,-5.445180395327043L24.16710625,24.007281084777787L24.395839583333334,48.634056583978236L24.624572916666665,2.70227380678989L24.85330625,33.72835119080264L25.082039583333334,87.0125747169368L25.310772916666668,9.42952142941067L25.539506250000002,4.372711147880182L25.768239583333333,35.38559585285839L25.996972916666667,90.42230271734297L26.225706249999998,45.133314037229866L26.454439583333333,19.76695519988425L26.683172916666667,12.053566410031635L26.91190625,4.4935283476661425L27.140639583333332,9.629534626583336L27.369372916666666,4.65725169669895L27.598106249999997,4.815331389181665L27.82683958333333,6.292892445344478L28.05557291666667,18.081877642543986L28.28430625,13.415450375759974L28.513039583333335,35.41925753233954L28.741772916666665,7.163925427448703L28.97050625,11.70610081317136L29.19923958333333,70.84847267833538L29.42797291666667,4.7771261943125864L29.65670625,18.824352191586513L29.885439583333334,26.65686402178835L30.114172916666664,15.978469557012431L30.34290625,21.179217066674028L30.571639583333337,5.0406040463713L30.800372916666667,3.1074831313162576L31.02910625,42.56867474759929L31.257839583333332,2.6869175489991903L31.486572916666667,-23.809635589714162L31.715306249999998,16.818914300529286L31.944039583333335,5.061284575276659L32.172772916666666,13.987988691951614L32.40150625,-49.44672767305747L32.630239583333335,7.102396724803839L32.858972916666666,-7.040133306873031L33.08770625,-4.61625123534759L33.316439583333334,31.74809194752015L33.545172916666665,5.8074265834875405L33.77390625,6.894209578604205L34.002639583333334,13.076407281914726L34.231372916666665,9.45284751287545L34.46010625,1.7966016712307464L34.68883958333333,11.894097777258139L34.917572916666664,12.827888065658044L35.146306249999995,3.448103834671201L35.37503958333333,13.02041437884327L35.60377291666667,18.58444607933052L35.83250625,0.20469090998176398L36.06123958333333,10.398973419796675L36.28997291666666,-3.8348754114849726L36.51870625,13.223669724538922L36.74743958333334,14.642910420661792L36.97617291666666,-3.0115767076495104L37.43363958333333,-9.955262052244507L37.66237291666667,19.495274100336246L37.89110625000001,13.382426179305185L38.11983958333333,12.440483835234772L38.34857291666667,4.547329339402495L38.57730625,12.310524871281814L38.80603958333334,6.07184295222396L39.03477291666666,39.92807838949375L39.26350625,-1.2669292591453996L39.49223958333334,24.5266790734604L39.72097291666667,5.354690001695417L39.94970625,-5.403526996815344L40.17843958333333,3.410608242120361L40.40717291666667,46.858072659233585L40.635906250000005,6.008724405546673L40.864639583333336,0.13892150644778667L41.09337291666667,-0.8381199427276442L41.32210625,14.766857726499438L41.550839583333335,8.086606125289109L41.779572916666666,5.633195389236789L42.00830625,12.978850485524163L42.237039583333335,1.762374306053971L42.465772916666666,2.551836022576026L42.69450625,5.576390500209527L42.92323958333333,6.197573922690935L43.151972916666665,34.42693728720769L43.38070625,14.812274850555696L43.609439583333334,2.2331650188789354L43.83817291666667,-1.4181901369738625L44.066906249999995,7.028182753856527L44.29563958333333,-6.5056424245995L44.52437291666667,1.6740006458348944L44.75310625,21.584329158940818L44.98183958333333,-16.559212730498984L45.21057291666666,9.534921842714539L45.43930625,2.5537156316204346L45.66803958333333,18.98598697880516L45.89677291666666,14.095733626163565L46.12550625,37.467177549842745L46.35423958333333,1.9973489397671074L46.58297291666667,5.68598477912019L46.81170625,3.5294102872285293L47.04043958333333,39.62735382083338L47.26917291666667,10.451737696712371L47.49790625,4.050770628964528L47.72663958333334,-32.29761004331522L47.95537291666666,3.271677187512978L48.18410625,34.55314347229432L48.41283958333333,10.267121968354331L48.64157291666667,20.799559220904484L48.870306250000006,32.464463176438585L49.09903958333333,18.381404515821487L49.32777291666667,1.6613263242106768L49.55650625,43.94717834657058L49.785239583333336,4.187523616565159L50.01397291666667,11.985159973846748L50.24270625,-24.60320536920335L50.471439583333336,-0.8325675621563278L50.700172916666666,6.574046929017641L50.92890625,12.448626875993796L51.157639583333335,27.49631712504197L51.386372916666666,19.33084984193556L51.615106250000004,95.02708859508857L51.843839583333335,21.516758533834945L52.072572916666665,-2.836589548678603L52.301306249999996,47.02920658746734L52.530039583333334,5.613443718175404L52.75877291666667,15.953347574395593L52.987506249999996,9.943032680894248L53.21623958333333,28.37151564017404L53.444972916666664,53.839065571082756L53.67370625,10.858263842237648L53.90243958333334,15.38448476640042L54.131172916666664,29.872967177652754L54.35990625,15.425364814291243L54.58863958333333,55.846696661319584L54.81737291666667,37.60054672602564L55.046106249999994,88.75541982706636L55.27483958333333,-30.382945871679112L55.50357291666667,26.307847860152833L55.73230625,76.06779734487645L55.96103958333333,16.200839090743102L56.18977291666666,28.380641306284815L56.41850625,21.836652667843737L56.64723958333334,23.021716871880926L56.87597291666667,61.529423837782815L57.10470625,74.54097527079284L57.33343958333333,55.89476932073012L57.56217291666667,35.411229109740816L57.790906250000006,133.78098764223978L58.01963958333333,33.26793648011517L58.24837291666667,73.88402518699877L58.47710625,114.04015508014709L58.705839583333336,13.419641021755524L58.93457291666666,8.236654175561853L59.16330625,9.271417911804747L59.392039583333336,33.48858802928589L59.62077291666667,34.42359146720264L59.849506250000005,26.804196008015424L60.07823958333333,43.77713651047088L60.306972916666666,24.509125752956606L60.535706250000004,88.96463789278641L60.764439583333335,79.98754782602191L60.993172916666666,45.192791847512126L61.221906249999996,0.12796760421451836L61.450639583333334,32.336675518308766L61.679372916666665,56.67114380048588L61.90810625,75.42033609934151L62.136839583333334,13.084691985568497L62.365572916666665,103.97575335809961L62.59430625,51.06038137455471L62.82303958333333,58.76080028247088L63.051772916666664,67.97028446453623L63.28050625,79.86924127908424L63.50923958333333,23.519821639638394L63.73797291666667,49.925950064789504L63.966706249999994,30.445736018009484L64.19543958333334,75.29885630356148L64.42417291666666,41.85737505031284L64.65290625,-62.64807132538408L64.88163958333334,51.602440275019035L65.11037291666666,47.18686451087706L65.33910625,48.83075164980255L65.56783958333332,56.12712737638503L65.79657291666666,43.08191941527184L66.02530625,27.652051008772105L66.25403958333334,15.288891932868864L66.48277291666666,43.309782893629745L66.71150625,56.631710001965985L66.94023958333334,12.501164492277894L67.16897291666668,103.53700019186363L67.39770625,76.7060324724298L67.62643958333332,27.541268049390055L67.85517291666667,78.67713514133357L68.08390625,15.25854774081381L68.31263958333334,43.52644470054656L68.54137291666667,37.11715944518801L68.77010625,33.946112816920504L68.99883958333334,26.794302786584012L69.22757291666666,105.33694317564368L69.45630625000001,77.56784770754166L69.68503958333334,47.188379016006365L69.91377291666666,33.961744673433714L70.14250625000001,58.14333551097661L70.37123958333333,76.17619264055975L70.59997291666666,107.25310124689713L70.82870625,60.740443936083466L71.05743958333333,31.813627778319642L71.28617291666667,47.814343561185524L71.51490625,21.455768794112373L71.74363958333333,31.665919741499238L71.97237291666667,42.39130765199661L72.20110625,-62.82403724617325L72.42983958333335,57.00211983639747L72.65857291666667,25.891227589454502L72.88730625,16.736194760596845L73.11603958333333,36.94529659696855L73.34477291666667,57.158000534400344L73.57350625,20.282675104681402L73.80223958333333,24.520461360225454L74.03097291666667,20.423898844455834L74.25970625000001,-21.446037841087673L74.48843958333333,63.33647572319023L74.71717291666666,18.746762136288453L74.94590625000001,22.964804447838105L75.17463958333333,19.50487884460017L75.40337291666667,28.347752333502285L75.63210625,19.754761888179928L75.86083958333333,21.845513037987985L76.08957291666667,16.49772845848929L76.31830624999999,33.41278292646166L76.54703958333333,40.34719192713965L76.77577291666667,35.56027135346085L77.00450624999999,46.8513140513096L77.23323958333334,31.285951525205746L77.46197291666667,67.95791085460223L77.69070624999999,82.94674661010504L77.91943958333334,-27.12154407345224L78.14817291666667,20.1705154395313L78.37690625,5.911783198826015L78.60563958333333,29.590501668280922L78.83437291666667,12.531222782854456L79.06310625,13.514677506464068L79.29183958333333,21.815295054693706L79.52057291666667,43.03230134246405L79.74930625,71.79346721386537L79.97803958333333,31.63225806201808L80.20677291666667,-22.71267540345434L80.43550625,10.18356404165388L80.66423958333333,90.78784449957311L80.89297291666666,52.231536858016625L81.12170625,9.952842836355558L81.35043958333334,13.163930481823627L81.57917291666666,24.129152385285124L81.80790625,21.805023206979968L82.03663958333334,39.36047380557284L82.26537291666666,17.673610331257805L82.49410624999999,45.109318918548524L82.72283958333334,17.73885639704531L82.95157291666666,60.51650838344358L83.18030625,57.96331030433066L83.40903958333334,23.997179232537746L83.63777291666666,25.94100277929101L83.86650625,44.9097596865613L84.09523958333332,-15.343752820626833L84.32397291666668,26.034211812657304L84.55270625,46.50474479421973L84.78143958333332,55.93442977988161L85.01017291666668,31.780151548446156L85.23890625,27.538602211279795L85.46763958333334,27.57237206969876L85.69637291666666,35.962364738225006L85.92510625,27.498328738147393L86.15383958333334,7.3906820034608245L86.38257291666666,8.633410088805249L86.61130625,115.7634558621794L86.84003958333334,-12.581796436279546L87.06877291666666,68.87123986962251L87.29750625000001,45.98900943528861L87.52623958333334,29.050238023046404L87.75497291666666,36.34709540347103L87.98370625,53.62916752346791L88.21243958333334,34.27162324078381L88.44117291666667,97.89475769503042L88.66990625,16.133630349941086L88.89863958333333,53.42916012159549L89.12737291666667,15.79587381274905L89.35610625,73.86005067382939L89.58483958333332,43.13554268446751L89.81357291666667,24.65033790213056L90.04230625,77.19150348566473L90.27103958333333,87.71561417961493L90.49977291666667,11.614951043156907L90.72850625,53.23154295911081L90.95723958333333,48.57080796500668L91.18597291666667,59.382999170338735L91.41470625000001,98.23407896328717L91.64343958333333,-5.396761305746622L91.87217291666666,24.03725952899549L92.10090625000001,30.48811125336215L92.32963958333333,69.77243223809637L92.55837291666666,92.19259436940774L92.78710625000001,1.0223606668660068L93.01583958333333,-1.9641048438643338L93.24457291666667,70.6099072122015L93.47330625,81.84696346870624L93.70203958333333,36.44680805155076L93.93077291666667,23.234144246089272L94.15950624999999,0.48904957088780066L94.38823958333334,20.856107184954453L94.61697291666667,9.285922260460211L94.84570624999999,2.563972991083574L95.07443958333334,5.905988542508567L95.30317291666667,42.89731205790304L95.53190624999999,20.23816719884053L95.76063958333333,64.22747351462021L95.98937291666667,24.714148021303117L96.21810625,33.45620646723546L96.44683958333333,-26.78704191930592L96.67557291666667,34.315989483729936L96.90430625,-6.852361715573352L97.13303958333333,56.89197307219729L97.36177291666667,55.27599609922618L97.59050625,20.138907872023992L97.81923958333333,8.12288084125612L98.04797291666667,89.4385440624319L98.27670625,48.554632638115436L98.50543958333334,72.03587045660242L98.73417291666667,41.629529601777904L98.96290624999999,9.590037723683054L99.19163958333334,9.125890195718966L99.42037291666666,19.31936870823847L99.64910624999999,94.68636615201831L99.87783958333334,35.215780677390285L100.10657291666666,40.611063537653536L100.33530625,11.882371953106485L100.56403958333334,23.05635216180235L100.79277291666666,59.34270509169437L101.02150625,22.19477904145606L101.25023958333333,4.3974226300633745L101.47897291666668,114.68147073173895L101.70770625,77.03623580164276L101.93643958333332,47.535205841995776L102.16517291666668,150.6577673717402L102.39390625,58.008606371004134L102.62263958333332,88.6221433756873L102.85137291666666,82.02974466257729L103.08010625,100.189397810027L103.30883958333334,93.53261202340946L103.53757291666666,45.81626312574372L103.76630625,58.431549958186224L103.99503958333334,96.56377555802464L104.22377291666666,86.697464925237L104.45250625000001,71.78432866930962L104.68123958333334,174.16726564988494L104.90997291666666,96.47683060029522L105.13870625,69.47483713156544L105.36743958333334,86.06199093628675L105.59617291666666,133.2168602384627L105.82490625,168.37239812593907L106.05363958333334,43.80423275870271L106.28237291666667,65.60288113541901L106.51110625,104.36080856015906L106.73983958333332,130.73399907443672L106.96857291666667,36.81170848722104L107.19730625,162.5778087764047L107.42603958333333,58.140780427493155L107.65477291666667,129.80669952230528L107.88350625,131.4062435994856L108.11223958333333,56.622344796778634L108.34097291666667,118.33648674655706L108.56970625000001,91.21381194563583L108.79843958333333,173.42903197277337L109.02717291666666,130.1802362431772L109.25590625000001,165.9022505627945L109.48463958333333,95.47410457162187L109.71337291666666,89.25209508743137L109.94210625000001,79.19256141758524L110.17083958333333,104.1472633369267L110.39957291666667,56.6346256819088L110.62830625,99.45070050889626L110.85703958333333,78.11144687002525L111.08577291666667,145.60963329859078L111.31450625,156.7359915934503L111.54323958333335,110.85983854718506L111.77197291666667,27.601557201705873L112.00070625,171.08856519917026L112.22943958333333,45.988921861862764L112.45817291666667,59.32742610457353L112.68690624999999,42.68588147533592L112.91563958333333,206.21681108605117L113.14437291666667,134.78994683828205L113.37310625,41.59324071952142L113.60183958333333,104.33836915763095L113.83057291666667,59.15135200484656L114.05930625,179.79013896547258L114.28803958333333,88.0135286715813L114.51677291666667,73.78791592782363L114.74550625,79.53404626459815L114.97423958333333,106.30348592530936L115.20297291666667,33.23870241001714L115.43170625,73.03943100851029L115.66043958333333,119.01017365744337L115.88917291666667,133.71525605907664L116.11790624999999,110.08225864497945L116.34663958333334,65.90974872233346L116.57537291666667,107.79351170640439L116.80410624999999,66.5570451237727L117.03283958333334,87.4138567596674L117.26157291666667,103.88585150940344L117.49030625,150.29391524149105L117.71903958333334,181.1710997717455L117.94777291666666,299.2896008072421L118.17650625,111.37453332776204L118.40523958333333,119.90303109632805L118.63397291666666,37.30866449768655L118.86270625,162.54802350886166L119.09143958333333,63.688763009849936L119.32017291666668,150.927874725312L119.54890625,196.90637534949929L119.77763958333333,87.42762124165893L120.00637291666666,121.41254969174042L120.23510625,124.87120548030362L120.46383958333334,143.35226855473593L120.69257291666666,92.35048410482705L120.92130625,152.16212428640574L121.15003958333334,103.89809118350968L121.37877291666666,123.97957406938076L121.60750625000001,132.48012046096846L121.83623958333334,125.6098821759224L122.06497291666666,166.37853666907176L122.29370625,214.61679227650166L122.52243958333334,100.4288544645533L122.75117291666666,75.15814126236364L122.97990625,184.5568532589823L123.20863958333334,179.6466421801597L123.43737291666667,57.580532011343166L123.66610625,81.00806156289764L123.89483958333332,86.05385691043921L124.12357291666667,-26.21985974838026L124.35230625,143.90126120997593L124.58103958333332,158.3841028623283L124.80977291666667,194.62081196252257L125.26723958333334,194.44955955259502L125.49597291666666,141.29279914777726L125.72470625,54.93003470473923L125.95343958333333,259.8840936552733L126.18217291666666,15.494837585720234L126.41090625000001,149.76810378720984L126.63963958333333,120.08419475750998L126.86837291666666,168.69461681926623L127.09710625000001,185.16858969815075L127.32583958333333,88.3047875831835L127.55457291666667,217.42711623664945L127.78330625,93.58650573994964L128.01203958333335,195.63054386526346L128.24077291666666,217.04585244879127L128.46950625,66.28716958221048L128.69823958333333,203.30916729290038L128.92697291666667,135.37387613905594L129.15570625,182.3252763133496L130.07063958333333,189.90060430951416L130.29937291666667,23.22256909974385L130.52810625,190.56035159155726L130.75683958333332,84.32385418564081L130.98557291666668,117.93072300497442L131.21430625,125.73203165084124L131.44303958333333,146.71192516107112L131.67177291666667,127.51794228097424L131.90050625,165.36986595019698L132.12923958333334,199.97742085251957L132.35797291666665,190.60137716587633L132.58670625000002,77.43745602783747L132.81543958333333,169.1496895509772L133.04417291666667,196.00601750425994L133.27290625,118.88459336478263L133.50163958333334,138.41196312569082L133.73037291666665,92.07109396811575L133.95910625,223.22725877165794L134.41657291666667,211.0277242027223L134.64530625,160.61676159733906L134.87403958333334,178.456241148524L135.10277291666665,143.34777655312791L135.33150625,87.45865314267576L135.56023958333336,118.87874139938504L135.78897291666667,59.45180612616241L136.01770625,192.74661701638252L136.24643958333334,211.48697985336185L136.47517291666665,131.7548167426139L136.70390625,141.10852405428886L136.93263958333335,151.18176554096863L137.16137291666666,146.0812110453844L137.39010625,230.6597699644044L137.61883958333334,151.13641280913725L137.84757291666665,277.4927399586886L138.07630625000002,118.43088059686124L138.30503958333333,98.81344414316118L138.53377291666666,150.23777552414685L138.76250625,194.10804379731417L138.9912395833333,92.54036389756948L139.21997291666668,130.5010846699588L139.44870625000001,255.00034005381167L139.67743958333332,199.96400666423142L139.90617291666666,96.13455244107172L140.13490625,200.7616254268214L140.36363958333334,246.47487129550427L140.59237291666668,136.57961797434837L140.82110625,132.35749705927446L141.04983958333332,203.79702339414507L141.27857291666666,155.31146043213084L141.50730625,219.24437815323472L141.73603958333334,138.3302416652441L141.96477291666667,19.608797592809424L142.19350624999998,155.0644930684939L142.42223958333332,190.13995793648064L142.6509729166667,107.98152670031413L142.87970625,178.8108826149255L143.10843958333334,42.025804505101405L143.33717291666667,171.80304072098807L143.56590624999998,85.25753629510291L143.79463958333332,172.68222640268505L144.0233729166667,129.84284159028903L144.25210625,153.9915331522934L144.48083958333333,137.965235626325L144.70957291666667,41.20167159999255L144.93830624999998,119.13759814342484L145.16703958333335,108.72336634201929L145.39577291666666,139.8246152093634L145.62450625,248.09908017050475L145.85323958333333,118.70458361227065L146.08197291666664,176.09907360747457L146.31070625,78.43924450571649L146.53943958333335,132.46983831049874L146.76817291666666,203.74229515437037L147.22563958333333,199.8733424115926L147.45437291666667,136.88029360491782L147.68310625,79.84574069269001L147.91183958333335,189.55873826052994L148.14057291666666,124.8632826609537L148.36930625,222.6397544145584L148.59803958333336,161.14476753864437L148.82677291666667,143.21146078873426L149.05550625,153.08225312037393L149.28423958333332,163.76387234777212L149.51297291666666,110.43508682632819L149.74170625,104.5668224687688L149.97043958333333,130.34087681444362L150.19917291666667,149.53641541069373L150.42790625,145.23648808244616L150.65663958333332,128.6628051311709L150.88537291666665,97.98389713978395L151.11410625000002,157.41207904648036L151.34283958333333,184.5866076182574L151.57157291666667,175.10638246312737L151.80030625,38.541548943612725L152.02903958333332,103.4043831168674L152.25777291666668,88.43524107942358L152.48650625000002,136.8538773385808L152.71523958333333,129.42105706315488L152.94397291666667,49.298512225504965L153.17270624999998,128.14492679899558L153.40143958333334,175.54633074905723L153.63017291666668,185.81341858953238L153.85890625,52.85111369448714L154.08763958333333,168.68419043021277L154.31637291666667,222.0002005342394L154.54510625,248.38737188838422L154.77383958333334,150.473378947936L155.00257291666668,160.2042083395645L155.23130625,130.97151881083846L155.46003958333333,95.34289897419512L155.6887729166667,165.44160404009745L155.91750625,158.6293393629603L156.14623958333334,77.7762260986492L156.37497291666668,36.60353099985514L156.60370625,195.06828126031905L156.83243958333333,235.94372381921858L157.06117291666666,122.05972761148587L157.28990625,66.9665951281786L157.51863958333334,84.43918838747777L157.74737291666665,153.58122589532286L157.97610625,108.99623483419418L158.20483958333335,121.94083380745724L158.43357291666666,-40.25867579912301L159.11977291666665,199.69910220243037L159.34850625,117.89155192673206L159.57723958333335,208.13242311123759L159.80597291666666,173.11207798775285L160.03470625,153.37474836269394L160.26343958333334,64.31913713458925L160.49217291666668,110.70408148225397L160.72090625,151.01914684055373L160.94963958333332,156.26371325924993L161.17837291666666,184.9495325004682L161.40710625,171.51082365307957L161.6358395833333,132.14787718607113L161.86457291666667,3.7171879957895726L162.09330625,163.49024145165458L162.32203958333332,177.8161721304059L162.55077291666666,179.71536156255752L162.77950625,104.75690831663087L163.00823958333334,137.25483999587595L163.23697291666667,173.01877622958273L163.46570625,111.60250240936875L163.69443958333332,188.77663544844836L163.92317291666666,35.80791869899258L164.15190625000002,155.15574457822368L164.38063958333333,183.10031143482774L164.60937291666667,117.85528622567654L164.83810624999998,214.34910607058555L165.06683958333332,81.45293456618674L165.29557291666669,120.21510157501325L165.52430625,169.8126925039105L165.75303958333333,249.94113051798195L165.98177291666667,206.4385882113129L166.21050624999998,115.46385171823204L166.43923958333335,123.98482847493142L166.66797291666668,80.6694048224017L166.89670625,72.04472567536868L167.12543958333333,127.02058703871444L167.35417291666667,88.0383892217651L167.58290625,42.33645577915013L167.81163958333335,114.3932820414193L168.04037291666666,111.2182405195199L168.26910625,150.41580714751035L168.49783958333333,218.03539094980806L168.72657291666664,127.74248054483905L168.95530625,69.71062085358426L169.18403958333334,46.66313936468214L169.41277291666665,181.37699004728347L169.64150625,94.8097828659229L169.87023958333333,-63.10551369097084L170.09897291666667,112.77271003928035L170.32770625,17.84142805990996L170.55643958333334,18.260379329149146L170.78517291666665,123.32540057832375L171.01390625,107.53780760569498L171.24263958333336,83.06501194601879L171.47137291666667,162.16936631826684L171.70010625,226.95955575909466L171.9288395833333,160.39087367244065L172.15757291666665,90.39157989900559L172.38630625000002,129.8523613368161L172.61503958333333,57.68770127906464L172.84377291666667,132.01245776144788L173.07250625,56.81122522219084L173.3012395833333,96.6602711705491L173.52997291666668,104.72541279159486L173.75870625000002,164.97845394769683L173.98743958333333,84.83358303783461L174.21617291666666,124.1073488490656L174.44490625,75.98507136572152L174.67363958333334,145.2412479557097L174.90237291666668,187.12860660161823L175.13110625000002,78.53890306432731L175.35983958333333,111.67187086539343L175.58857291666666,49.27405348280445L175.81730624999997,60.1678064558655L176.04603958333334,52.402737754164264L176.27477291666668,29.55763072532136L176.50350625,137.56679714424536L176.73223958333332,38.15011375991162L176.96097291666666,64.17085471912287L177.18970625,47.181213449221104L177.41843958333334,143.7566002132371L177.64717291666668,138.61142448149621L177.87590624999999,85.59485882869922L178.10463958333332,123.59178863698617L178.3333729166667,42.489938510698266L178.56210625,39.7300516924588L178.79083958333334,70.67336703767069L179.01957291666668,72.80291063943878L179.24830624999998,78.44105263939127L179.47703958333335,122.45061417343095L179.70577291666666,53.345254476880655L179.93450625,60.847520479001105L180.16323958333334,123.82101465482265L180.39197291666665,99.91593175800517L180.62070625,224.8119874857366L180.84943958333335,96.44643747014925L181.07817291666666,136.11635455163196L181.30690625,95.97460215445608L181.53563958333334,95.46675870660692L181.76437291666664,-19.391093919693958L181.99310625,109.12807920249179L182.22183958333335,116.1559599568136L182.45057291666666,116.27708945889026L182.67930625,134.57789551466703L182.90803958333333,135.29040321009234L183.13677291666667,161.9366785744205L183.36550625,112.18014702899382L183.59423958333332,167.624891968444L183.82297291666666,46.390950854402035L184.05170625,47.490651573752984L184.28043958333333,39.76115056138951L184.50917291666667,23.738379153655842L184.73790625,50.17624006723054L184.96663958333332,108.57494483934715L185.19537291666666,34.29700923152268L185.42410625000002,70.14818405150436L185.65283958333333,78.1111893011257L185.88157291666667,102.36763738794252L186.11030625,90.96315619535744L186.33903958333332,129.4121554819867L186.56777291666668,110.39063043426722L186.79650625000002,65.49185863696039L187.02523958333333,70.69159261300229L187.25397291666667,76.66850468376651L187.48270624999998,62.448192707961425L187.71143958333334,52.220646844943985L187.94017291666668,266.49341464508325L188.16890625,161.5962652140297L188.39763958333333,-5.03703510730702L188.62637291666667,93.93087535863742L188.85510624999998,57.67648672917858L189.08383958333334,27.08262026135344L189.31257291666668,112.04120406182483L189.54130625,37.61820822546724L189.77003958333333,289.79532269295305L189.99877291666667,31.44357081328053L190.22750625,94.95869890088215L190.45623958333334,134.78014891734347L190.68497291666665,72.70888768834993L190.91370625,102.48823114670813L191.14243958333333,43.81280465167947L191.37117291666667,155.5074085481465L191.59990625,144.95169930160046L191.82863958333334,157.9392195562832L192.05737291666665,118.13722114311531L192.28610625,145.0783510808833L192.51483958333336,111.8729806621559L192.74357291666666,67.17437080806121L192.97230625,33.64066443464253L193.20103958333334,43.0920109647559L193.42977291666665,161.59240168053657L193.65850625000002,109.42888876888901L193.88723958333335,153.96010974654928L194.11597291666666,135.76919288607314L194.34470625,-30.2514414943289L194.5734395833333,72.3876116971951L194.80217291666665,78.53922760114074L195.03090625000002,50.849566381657496L195.25963958333332,247.52101313788444L195.48837291666666,39.041626689140685L195.71710625,182.79790494125336L195.9458395833333,80.60977247077972L196.17457291666668,103.53987466078252L196.40330625,105.38874543271959L196.63203958333332,101.66806995403022L196.86077291666666,51.86116308323108L197.08950625,59.95577058638446L197.31823958333334,89.69820442143828L197.54697291666668,40.66685038560536L197.77570625,74.78336821077392L198.00443958333332,70.05696860142052L198.23317291666666,91.06545225949958L198.46190625,37.87606560217682L198.69063958333334,108.90871292212978L198.91937291666667,134.12526453612372L199.14810624999998,71.76925058593042L199.37683958333332,116.45146360388026L199.6055729166667,83.55269805178978L199.83430625,131.9405033136718L200.06303958333334,183.64559509791434L200.29177291666667,186.27535295672715L200.52050624999998,82.3736970196478L200.74923958333335,109.75836060242727L200.9779729166667,82.14087533997372L201.20670625,101.10961936879903L201.43543958333333,117.07645968999714L201.66417291666667,82.53725327085704L201.89290624999998,145.293946552556L202.12163958333335,42.85260839969851L202.35037291666666,61.20281617040746L202.57910625,-14.558350550942123L202.80783958333333,52.72906209575012L203.03657291666664,79.1284628212452L203.26530625,77.56516383960843L203.49403958333335,-6.18587127974024L203.72277291666666,102.3040899890475L203.95150625,133.4470238070935L204.18023958333333,69.79772035265341L204.40897291666667,165.36110860761255L204.63770625,14.882938878145069L204.86643958333335,-45.50935432780534L205.09517291666666,100.96134210471064L205.32390625,64.69038149225526L205.55263958333336,29.92520215047989L205.78137291666667,34.28317263023928L206.01010625,94.3628287059255L206.23883958333332,64.9820113030728L206.46757291666665,33.94127052160911L206.69630625000002,46.3967100949958L206.92503958333333,99.82059005415067L207.15377291666667,34.29748058260884L207.38250625,104.57214899361134L207.61123958333332,156.98261896613985L207.83997291666665,11.871274597069714L208.06870625000002,212.51956326887012L208.29743958333333,39.91195457638241L208.52617291666667,117.60260083246976L208.75490625,88.15548004349694L208.98363958333331,144.05328867724165L209.21237291666668,62.61770910350606L209.44110625000002,32.006464462028816L209.66983958333333,106.05136718368158L209.89857291666667,-7.96954492398072L210.12730624999998,80.69879858521745L210.35603958333334,56.77450104849413L210.58477291666668,71.95311356917955L210.81350625,121.52122316183522L211.04223958333333,81.13065405632369L211.27097291666666,183.51670762058347L211.49970625,47.36115108244121L211.72843958333334,86.99027955299243L211.95717291666668,24.446868774248287L212.18590625,21.40525953291217L212.41463958333333,21.002048299124L212.6433729166667,89.20446544652805L212.87210625,74.81260228087194L213.10083958333334,90.1994850137271L213.32957291666665,121.25538114923984L213.55830625,130.45459863496944L213.78703958333335,171.00514378398657L214.01577291666666,47.45366467977874L214.24450625,135.40791644481942L214.47323958333334,164.2449801438488L214.70197291666665,154.58049019798636L214.93070625,128.44187283189967L215.15943958333335,-22.90245474432595L215.38817291666666,89.3852788140066L215.61690625,49.77521559339948L215.84563958333334,39.44280570431147L216.07437291666665,60.998970991931856L216.30310625,23.017840459942818L216.53183958333335,47.6234489469789L216.76057291666666,86.3750453281682L216.98930625,29.473475238773972L217.2180395833333,267.35981460660696L217.44677291666667,44.38638483406976L217.67550625,58.971800724975765L217.90423958333332,109.07355701783672L218.13297291666666,32.510998149518855L218.36170625,-28.597874916158617L218.59043958333334,1.5503864087804686L218.81917291666667,86.58684423426166L219.04790625,86.61853551166132L219.27663958333332,101.36027511907741L219.50537291666666,64.29915493936278L219.73410625000002,32.240573986200616L219.96283958333333,128.39498498942703L220.19157291666667,88.37074582697824L220.42030625,64.02333470759913L220.64903958333332,82.11054917774163L220.87777291666666,120.18436845391989L221.10650625,214.93459108751267L221.33523958333333,93.85878697503358L221.56397291666667,88.60438142437488L221.79270624999998,77.70368954516016L222.02143958333332,127.25829222472385L222.25017291666668,32.05392153176945L222.47890625,79.37024789862335L222.70763958333333,86.19394863490015L222.93637291666667,78.26935721095651L223.16510624999998,92.35780936433002L223.39383958333335,105.32027331646532L223.62257291666668,96.87021042918786L223.85130625,61.4377447636798L224.08003958333333,-35.00611959316302L224.30877291666667,58.21725778514519L224.53750625,151.87581069767475L224.76623958333334,79.62585927452892L224.99497291666665,49.98050315771252L225.22370625,53.42028429731727L225.45243958333333,158.32067909650505L225.68117291666667,42.318941093981266L225.90990625,101.6313509317115L226.13863958333334,39.277451622183435L226.36737291666665,68.34969375631772L226.59610625,9.184208945953287L226.82483958333336,165.07609316613525L227.05357291666667,85.29226688551717L227.28230625,137.40744441747665L227.51103958333334,-10.191289820795646L227.96850625,208.9637730969116L228.19723958333336,104.38543214695528L228.42597291666667,-3.4301516043342417L228.65470625,78.12611284316517L228.8834395833333,16.392232100770343L229.11217291666665,124.98352612601593L229.34090625000002,106.28226224798709L229.56963958333333,129.25396696664393L229.79837291666666,58.752733224537224L230.02710625,63.18505096714944L230.2558395833333,65.45508810086176L230.48457291666668,56.57001194776967L230.71330625000002,72.7231930650305L230.94203958333333,123.28647676622495L231.17077291666666,186.19900953490287L231.39950625,53.52923594182357L231.62823958333334,92.59551455033943L231.85697291666668,105.72339955251664L232.08570625000002,104.51505111996084L232.31443958333332,80.83529979921877L232.54317291666666,146.95817133178934L232.77190625,167.0266727451235L233.00063958333334,203.4835311351344L233.22937291666668,119.48224593652412L233.45810625,148.10656802728772L233.68683958333332,60.58014850714244L233.9155729166667,142.64769398141652L234.14430625,111.3751720986329L234.37303958333334,24.367416495806538L234.60177291666668,33.695606456603855L234.83050624999998,45.9253950684797L235.05923958333332,115.0954972836189L235.2879729166667,93.46146119059995L235.51670625,75.58454142417759L235.74543958333334,137.41578964982182L235.97417291666667,68.26756018563174L236.20290624999998,121.87996512511745L236.43163958333335,92.57467207498848L236.66037291666666,24.720965870073996L236.88910625,18.30116922792513L237.11783958333334,151.64640953298658L237.34657291666664,59.16823822190054L237.57530625,89.30331008741632L237.80403958333335,21.329955401597545L238.03277291666666,32.475010622874834L238.26150625,41.729247401235625L238.49023958333333,168.62964764004573L238.71897291666667,14.921724890882615L238.94770625,108.85637492174283L239.17643958333335,56.23149429447949L239.40517291666666,111.37570784194395L239.63390625,93.03800761699677L239.8626395833333,92.75097283534706L240.09137291666667,118.70930227451026L240.32010625,66.21315973461606L240.54883958333332,61.33381056133658L240.77757291666666,109.53581077046692L241.00630625,48.75382097088732L241.23503958333333,71.17632697918452L241.46377291666667,112.5213640043512L241.69250625,29.710750284721144L241.92123958333332,61.75505419378169L242.14997291666666,174.27008715458214L242.37870625000002,75.46433401876129L242.60743958333333,100.36753246095031L242.83617291666667,75.99218026734889L243.06490625,67.14522946276702L243.29363958333332,6.713574577588588L243.52237291666668,61.50309514487162L243.75110625,46.504399651894346L243.97983958333333,57.391991576878354L244.20857291666667,126.20093068107963L244.43730624999998,37.77218033792451L244.66603958333334,51.54702175059356L244.89477291666668,-25.87172189669218L245.12350625,135.0610329536721L245.35223958333333,195.79588249325752L245.58097291666667,118.8059730338864L245.80970625,13.29166533832904" style="fill: none;" fill="none"></path></g></g></g></g></g></g><g transform="translate(61, 177)" clip-path="url(#clip_1)"><clipPath id="clip_1"><rect width="268" height="23"></rect></clipPath><g><g><line x1="0" y1="0" x2="0" y2="5" style="visibility: inherit;" fill="rgb(0, 0, 0)" stroke="rgb(204, 204, 204)" stroke-width="1px"></line><line x1="22.337239583333332" y1="0" x2="22.337239583333332" y2="5" style="visibility: inherit;" fill="rgb(0, 0, 0)" stroke="rgb(204, 204, 204)" stroke-width="1px"></line><line x1="44.674479166666664" y1="0" x2="44.674479166666664" y2="5" style="visibility: inherit;" fill="rgb(0, 0, 0)" stroke="rgb(204, 204, 204)" stroke-width="1px"></line><line x1="67.01171875" y1="0" x2="67.01171875" y2="5" style="visibility: inherit;" fill="rgb(0, 0, 0)" stroke="rgb(204, 204, 204)" stroke-width="1px"></line><line x1="89.34895833333333" y1="0" x2="89.34895833333333" y2="5" style="visibility: inherit;" fill="rgb(0, 0, 0)" stroke="rgb(204, 204, 204)" stroke-width="1px"></line><line x1="111.68619791666667" y1="0" x2="111.68619791666667" y2="5" style="visibility: inherit;" fill="rgb(0, 0, 0)" stroke="rgb(204, 204, 204)" stroke-width="1px"></line><line x1="134.0234375" y1="0" x2="134.0234375" y2="5" style="visibility: inherit;" fill="rgb(0, 0, 0)" stroke="rgb(204, 204, 204)" stroke-width="1px"></line><line x1="156.36067708333334" y1="0" x2="156.36067708333334" y2="5" style="visibility: inherit;" fill="rgb(0, 0, 0)" stroke="rgb(204, 204, 204)" stroke-width="1px"></line><line x1="178.69791666666666" y1="0" x2="178.69791666666666" y2="5" style="visibility: inherit;" fill="rgb(0, 0, 0)" stroke="rgb(204, 204, 204)" stroke-width="1px"></line><line x1="201.03515625" y1="0" x2="201.03515625" y2="5" style="visibility: inherit;" fill="rgb(0, 0, 0)" stroke="rgb(204, 204, 204)" stroke-width="1px"></line><line x1="223.37239583333334" y1="0" x2="223.37239583333334" y2="5" style="visibility: inherit;" fill="rgb(0, 0, 0)" stroke="rgb(204, 204, 204)" stroke-width="1px"></line><line x1="245.70963541666666" y1="0" x2="245.70963541666666" y2="5" style="visibility: inherit;" fill="rgb(0, 0, 0)" stroke="rgb(204, 204, 204)" stroke-width="1px"></line><line x1="268.046875" y1="0" x2="268.046875" y2="5" style="visibility: inherit;" fill="rgb(0, 0, 0)" stroke="rgb(204, 204, 204)" stroke-width="1px"></line></g><g transform="translate(0, 8)"><text x="0" y="0" dx="0em" dy="0.95em" style="text-anchor: middle; visibility: hidden; font-family: Roboto, sans-serif; font-size: 12px; font-weight: 200;" fill="rgb(33, 33, 33)" stroke="none" stroke-width="1px">-200k</text><text x="22.337239583333332" y="0" dx="0em" dy="0.95em" style="text-anchor: middle; visibility: inherit; font-family: Roboto, sans-serif; font-size: 12px; font-weight: 200;" fill="rgb(33, 33, 33)" stroke="none" stroke-width="1px">0</text><text x="44.674479166666664" y="0" dx="0em" dy="0.95em" style="text-anchor: middle; visibility: hidden; font-family: Roboto, sans-serif; font-size: 12px; font-weight: 200;" fill="rgb(33, 33, 33)" stroke="none" stroke-width="1px">200k</text><text x="67.01171875" y="0" dx="0em" dy="0.95em" style="text-anchor: middle; visibility: inherit; font-family: Roboto, sans-serif; font-size: 12px; font-weight: 200;" fill="rgb(33, 33, 33)" stroke="none" stroke-width="1px">400k</text><text x="89.34895833333333" y="0" dx="0em" dy="0.95em" style="text-anchor: middle; visibility: hidden; font-family: Roboto, sans-serif; font-size: 12px; font-weight: 200;" fill="rgb(33, 33, 33)" stroke="none" stroke-width="1px">600k</text><text x="111.68619791666667" y="0" dx="0em" dy="0.95em" style="text-anchor: middle; visibility: inherit; font-family: Roboto, sans-serif; font-size: 12px; font-weight: 200;" fill="rgb(33, 33, 33)" stroke="none" stroke-width="1px">800k</text><text x="134.0234375" y="0" dx="0em" dy="0.95em" style="text-anchor: middle; visibility: hidden; font-family: Roboto, sans-serif; font-size: 12px; font-weight: 200;" fill="rgb(33, 33, 33)" stroke="none" stroke-width="1px">1M</text><text x="156.36067708333334" y="0" dx="0em" dy="0.95em" style="text-anchor: middle; visibility: inherit; font-family: Roboto, sans-serif; font-size: 12px; font-weight: 200;" fill="rgb(33, 33, 33)" stroke="none" stroke-width="1px">1.2M</text><text x="178.69791666666666" y="0" dx="0em" dy="0.95em" style="text-anchor: middle; visibility: hidden; font-family: Roboto, sans-serif; font-size: 12px; font-weight: 200;" fill="rgb(33, 33, 33)" stroke="none" stroke-width="1px">1.4M</text><text x="201.03515625" y="0" dx="0em" dy="0.95em" style="text-anchor: middle; visibility: inherit; font-family: Roboto, sans-serif; font-size: 12px; font-weight: 200;" fill="rgb(33, 33, 33)" stroke="none" stroke-width="1px">1.6M</text><text x="223.37239583333334" y="0" dx="0em" dy="0.95em" style="text-anchor: middle; visibility: hidden; font-family: Roboto, sans-serif; font-size: 12px; font-weight: 200;" fill="rgb(33, 33, 33)" stroke="none" stroke-width="1px">1.8M</text><text x="245.70963541666666" y="0" dx="0em" dy="0.95em" style="text-anchor: middle; visibility: inherit; font-family: Roboto, sans-serif; font-size: 12px; font-weight: 200;" fill="rgb(33, 33, 33)" stroke="none" stroke-width="1px">2M</text><text x="268.046875" y="0" dx="0em" dy="0.95em" style="text-anchor: middle; visibility: hidden; font-family: Roboto, sans-serif; font-size: 12px; font-weight: 200;" fill="rgb(33, 33, 33)" stroke="none" stroke-width="1px">2.2M</text></g><line x1="0" y1="0" x2="268.046875" y2="0" fill="rgb(0, 0, 0)" stroke="rgb(204, 204, 204)" stroke-width="1px"></line></g></g></g></g></svg>