<svg viewBox="0 0 330 200" xmlns="http://www.w3.org/2000/svg"><g><g><g><g><g><line x1="72.34375" y1="177" x2="67.34375" y2="177" style="visibility: inherit;" fill="rgb(0, 0, 0)" stroke="rgb(204, 204, 204)" stroke-width="1px"></line><line x1="72.34375" y1="162.25000070058738" x2="67.34375" y2="162.25000070058738" style="visibility: inherit;" fill="rgb(0, 0, 0)" stroke="rgb(204, 204, 204)" stroke-width="1px"></line><line x1="72.34375" y1="147.50000140117473" x2="67.34375" y2="147.50000140117473" style="visibility: inherit;" fill="rgb(0, 0, 0)" stroke="rgb(204, 204, 204)" stroke-width="1px"></line><line x1="72.34375" y1="132.75000210176213" x2="67.34375" y2="132.75000210176213" style="visibility: inherit;" fill="rgb(0, 0, 0)" stroke="rgb(204, 204, 204)" stroke-width="1px"></line><line x1="72.34375" y1="118.00000280234948" x2="67.34375" y2="118.00000280234948" style="visibility: inherit;" fill="rgb(0, 0, 0)" stroke="rgb(204, 204, 204)" stroke-width="1px"></line><line x1="72.34375" y1="103.25000350293686" x2="67.34375" y2="103.25000350293686" style="visibility: inherit;" fill="rgb(0, 0, 0)" stroke="rgb(204, 204, 204)" stroke-width="1px"></line><line x1="72.34375" y1="88.50000420352424" x2="67.34375" y2="88.50000420352424" style="visibility: inherit;" fill="rgb(0, 0, 0)" stroke="rgb(204, 204, 204)" stroke-width="1px"></line><line x1="72.34375" y1="73.75000490411162" x2="67.34375" y2="73.75000490411162" style="visibility: inherit;" fill="rgb(0, 0, 0)" stroke="rgb(204, 204, 204)" stroke-width="1px"></line><line x1="72.34375" y1="59.000005604698984" x2="67.34375" y2="59.000005604698984" style="visibility: inherit;" fill="rgb(0, 0, 0)" stroke="rgb(204, 204, 204)" stroke-width="1px"></line><line x1="72.34375" y1="44.25000630528637" x2="67.34375" y2="44.25000630528637" style="visibility: inherit;" fill="rgb(0, 0, 0)" stroke="rgb(204, 204, 204)" stroke-width="1px"></line><line x1="72.34375" y1="29.500007005873726" x2="67.34375" y2="29.500007005873726" style="visibility: inherit;" fill="rgb(0, 0, 0)" stroke="rgb(204, 204, 204)" stroke-width="1px"></line><line x1="72.34375" y1="14.750007706461108" x2="67.34375" y2="14.750007706461108" style="visibility: inherit;" fill="rgb(0, 0, 0)" stroke="rgb(204, 204, 204)" stroke-width="1px"></line><line x1="72.34375" y1="0.000008407048488034974" x2="67.34375" y2="0.000008407048488034974" style="visibility: inherit;" fill="rgb(0, 0, 0)" stroke="rgb(204, 204, 204)" stroke-width="1px"></line></g><g transform="translate(62.34375, 0)"><text x="0" y="177" dx="0em" dy="0.3em" style="text-anchor: end; visibility: hidden; font-family: Roboto, sans-serif; font-size: 12px; font-weight: 200;" fill="rgb(33, 33, 33)" stroke="none" stroke-width="1px">0</text><text x="0" y="162.25000070058738" dx="0em" dy="0.3em" style="text-anchor: end; visibility: inherit; font-family: Roboto, sans-serif; font-size: 12px; font-weight: 200;" fill="rgb(33, 33, 33)" stroke="none" stroke-width="1px">5e-5</text><text x="0" y="147.50000140117473" dx="0em" dy="0.3em" style="text-anchor: end; visibility: hidden; font-family: Roboto, sans-serif; font-size: 12px; font-weight: 200;" fill="rgb(33, 33, 33)" stroke="none" stroke-width="1px">1e-4</text><text x="0" y="132.75000210176213" dx="0em" dy="0.3em" style="text-anchor: end; visibility: inherit; font-family: Roboto, sans-serif; font-size: 12px; font-weight: 200;" fill="rgb(33, 33, 33)" stroke="none" stroke-width="1px">1.5e-4</text><text x="0" y="118.00000280234948" dx="0em" dy="0.3em" style="text-anchor: end; visibility: hidden; font-family: Roboto, sans-serif; font-size: 12px; font-weight: 200;" fill="rgb(33, 33, 33)" stroke="none" stroke-width="1px">2e-4</text><text x="0" y="103.25000350293686" dx="0em" dy="0.3em" style="text-anchor: end; visibility: inherit; font-family: Roboto, sans-serif; font-size: 12px; font-weight: 200;" fill="rgb(33, 33, 33)" stroke="none" stroke-width="1px">2.5e-4</text><text x="0" y="88.50000420352424" dx="0em" dy="0.3em" style="text-anchor: end; visibility: hidden; font-family: Roboto, sans-serif; font-size: 12px; font-weight: 200;" fill="rgb(33, 33, 33)" stroke="none" stroke-width="1px">3e-4</text><text x="0" y="73.75000490411162" dx="0em" dy="0.3em" style="text-anchor: end; visibility: inherit; font-family: Roboto, sans-serif; font-size: 12px; font-weight: 200;" fill="rgb(33, 33, 33)" stroke="none" stroke-width="1px">3.5e-4</text><text x="0" y="59.000005604698984" dx="0em" dy="0.3em" style="text-anchor: end; visibility: hidden; font-family: Roboto, sans-serif; font-size: 12px; font-weight: 200;" fill="rgb(33, 33, 33)" stroke="none" stroke-width="1px">4e-4</text><text x="0" y="44.25000630528637" dx="0em" dy="0.3em" style="text-anchor: end; visibility: inherit; font-family: Roboto, sans-serif; font-size: 12px; font-weight: 200;" fill="rgb(33, 33, 33)" stroke="none" stroke-width="1px">4.5e-4</text><text x="0" y="29.500007005873726" dx="0em" dy="0.3em" style="text-anchor: end; visibility: hidden; font-family: Roboto, sans-serif; font-size: 12px; font-weight: 200;" fill="rgb(33, 33, 33)" stroke="none" stroke-width="1px">5e-4</text><text x="0" y="14.750007706461108" dx="0em" dy="0.3em" style="text-anchor: end; visibility: inherit; font-family: Roboto, sans-serif; font-size: 12px; font-weight: 200;" fill="rgb(33, 33, 33)" stroke="none" stroke-width="1px">5.5e-4</text><text x="0" y="0.000008407048488034974" dx="0em" dy="0.3em" style="text-anchor: end; visibility: hidden; font-family: Roboto, sans-serif; font-size: 12px; font-weight: 200;" fill="rgb(33, 33, 33)" stroke="none" stroke-width="1px">6e-4</text></g><line x1="72.34375" y1="0" x2="72.34375" y2="177" fill="rgb(0, 0, 0)" stroke="rgb(204, 204, 204)" stroke-width="1px"></line></g></g><g transform="translate(72, 0)" clip-path="url(#clip_0)"><clipPath id="clip_0"><rect width="257" height="177"></rect></clipPath><g><g><g><line x1="0" y1="0" x2="0" y2="177" fill="rgb(0, 0, 0)" stroke="rgb(66, 66, 66)" stroke-width="1px" opacity="0.25"></line><line x1="21.471354166666664" y1="0" x2="21.471354166666664" y2="177" fill="rgb(0, 0, 0)" stroke="rgb(66, 66, 66)" stroke-width="1px" opacity="0.25"></line><line x1="42.94270833333333" y1="0" x2="42.94270833333333" y2="177" fill="rgb(0, 0, 0)" stroke="rgb(66, 66, 66)" stroke-width="1px" opacity="0.25"></line><line x1="64.4140625" y1="0" x2="64.4140625" y2="177" fill="rgb(0, 0, 0)" stroke="rgb(66, 66, 66)" stroke-width="1px" opacity="0.25"></line><line x1="85.88541666666666" y1="0" x2="85.88541666666666" y2="177" fill="rgb(0, 0, 0)" stroke="rgb(66, 66, 66)" stroke-width="1px" opacity="0.25"></line><line x1="107.35677083333334" y1="0" x2="107.35677083333334" y2="177" fill="rgb(0, 0, 0)" stroke="rgb(66, 66, 66)" stroke-width="1px" opacity="0.25"></line><line x1="128.828125" y1="0" x2="128.828125" y2="177" fill="rgb(0, 0, 0)" stroke="rgb(66, 66, 66)" stroke-width="1px" opacity="0.25"></line><line x1="150.29947916666669" y1="0" x2="150.29947916666669" y2="177" fill="rgb(0, 0, 0)" stroke="rgb(66, 66, 66)" stroke-width="1px" opacity="0.25"></line><line x1="171.77083333333331" y1="0" x2="171.77083333333331" y2="177" fill="rgb(0, 0, 0)" stroke="rgb(66, 66, 66)" stroke-width="1px" opacity="0.25"></line><line x1="193.2421875" y1="0" x2="193.2421875" y2="177" fill="rgb(0, 0, 0)" stroke="rgb(66, 66, 66)" stroke-width="1px" opacity="0.25"></line><line x1="214.71354166666669" y1="0" x2="214.71354166666669" y2="177" fill="rgb(0, 0, 0)" stroke="rgb(66, 66, 66)" stroke-width="1px" opacity="0.25"></line><line x1="236.18489583333331" y1="0" x2="236.18489583333331" y2="177" fill="rgb(0, 0, 0)" stroke="rgb(66, 66, 66)" stroke-width="1px" opacity="0.25"></line><line x1="257.65625" y1="0" x2="257.65625" y2="177" fill="rgb(0, 0, 0)" stroke="rgb(66, 66, 66)" stroke-width="1px" opacity="0.25"></line></g><g><line x1="0" y1="177" x2="257.65625" y2="177" fill="rgb(0, 0, 0)" stroke="rgb(66, 66, 66)" stroke-width="1px" opacity="0.25"></line><line x1="0" y1="162.25000070058738" x2="257.65625" y2="162.25000070058738" fill="rgb(0, 0, 0)" stroke="rgb(66, 66, 66)" stroke-width="1px" opacity="0.25"></line><line x1="0" y1="147.50000140117473" x2="257.65625" y2="147.50000140117473" fill="rgb(0, 0, 0)" stroke="rgb(66, 66, 66)" stroke-width="1px" opacity="0.25"></line><line x1="0" y1="132.75000210176213" x2="257.65625" y2="132.75000210176213" fill="rgb(0, 0, 0)" stroke="rgb(66, 66, 66)" stroke-width="1px" opacity="0.25"></line><line x1="0" y1="118.00000280234948" x2="257.65625" y2="118.00000280234948" fill="rgb(0, 0, 0)" stroke="rgb(66, 66, 66)" stroke-width="1px" opacity="0.25"></line><line x1="0" y1="103.25000350293686" x2="257.65625" y2="103.25000350293686" fill="rgb(0, 0, 0)" stroke="rgb(66, 66, 66)" stroke-width="1px" opacity="0.25"></line><line x1="0" y1="88.50000420352424" x2="257.65625" y2="88.50000420352424" fill="rgb(0, 0, 0)" stroke="rgb(66, 66, 66)" stroke-width="1px" opacity="0.25"></line><line x1="0" y1="73.75000490411162" x2="257.65625" y2="73.75000490411162" fill="rgb(0, 0, 0)" stroke="rgb(66, 66, 66)" stroke-width="1px" opacity="0.25"></line><line x1="0" y1="59.000005604698984" x2="257.65625" y2="59.000005604698984" fill="rgb(0, 0, 0)" stroke="rgb(66, 66, 66)" stroke-width="1px" opacity="0.25"></line><line x1="0" y1="44.25000630528637" x2="257.65625" y2="44.25000630528637" fill="rgb(0, 0, 0)" stroke="rgb(66, 66, 66)" stroke-width="1px" opacity="0.25"></line><line x1="0" y1="29.500007005873726" x2="257.65625" y2="29.500007005873726" fill="rgb(0, 0, 0)" stroke="rgb(66, 66, 66)" stroke-width="1px" opacity="0.25"></line><line x1="0" y1="14.750007706461108" x2="257.65625" y2="14.750007706461108" fill="rgb(0, 0, 0)" stroke="rgb(66, 66, 66)" stroke-width="1px" opacity="0.25"></line><line x1="0" y1="0.000008407048488034974" x2="257.65625" y2="0.000008407048488034974" fill="rgb(0, 0, 0)" stroke="rgb(66, 66, 66)" stroke-width="1px" opacity="0.25"></line></g></g></g><g><g><line x1="0" y1="177" x2="257.65625" y2="177" fill="rgb(0, 0, 0)" stroke="rgb(153, 153, 153)" stroke-width="1.5px"></line></g></g><g><g><line x1="21.471354166666664" y1="0" x2="21.471354166666664" y2="177" fill="rgb(0, 0, 0)" stroke="rgb(153, 153, 153)" stroke-width="1.5px"></line></g></g><g><g><g><g><g><path stroke="rgb(255, 112, 67)" stroke-width="2px" d="M21.9110875,88.5L22.13095416666667,88.5L22.350820833333334,88.5L22.5706875,88.5L22.790554166666666,88.5L23.010420833333335,88.5L23.2302875,88.5L23.450154166666668,88.5L23.670020833333332,88.5L23.8898875,88.5L24.109754166666665,88.5L24.329620833333333,88.5L24.5494875,88.5L24.769354166666666,88.5L24.989220833333334,88.5L25.2090875,88.5L25.428954166666664,88.5L25.648820833333335,88.5L25.8686875,88.5L26.08855416666667,88.5L26.308420833333333,88.5L26.528287499999998,88.5L26.748154166666666,88.5L26.968020833333334,88.5L27.187887500000002,88.5L27.407754166666667,88.5L27.62762083333333,88.5L27.8474875,88.5L28.067354166666664,88.5L28.287220833333336,88.5L28.5070875,88.5L28.726954166666665,88.5L28.946820833333334,88.5L29.1666875,88.5L29.38655416666667,88.5L29.606420833333335,88.5L29.8262875,88.5L30.046154166666668,88.5L30.266020833333332,88.5L30.485887499999997,88.5L30.70575416666667,88.5L30.925620833333333,88.5L31.1454875,88.5L31.365354166666666,88.5L31.58522083333333,88.5L31.8050875,88.5L32.02495416666667,88.5L32.24482083333333,88.5L32.464687500000004,88.5L32.68455416666667,88.5L32.90442083333333,88.5L33.1242875,88.5L33.34415416666666,88.5L33.56402083333333,88.5L33.7838875,88.5L34.00375416666667,88.5L34.223620833333335,88.5L34.443487499999996,88.5L34.663354166666664,88.5L34.88322083333333,88.5L35.1030875,88.5L35.32295416666667,88.5L35.54282083333333,88.5L35.7626875,88.5L35.98255416666667,88.5L36.202420833333335,88.5L36.4222875,88.5L36.642154166666664,88.5L36.86202083333333,88.5L37.0818875,88.5L37.30175416666667,88.5L37.52162083333333,88.5L37.7414875,88.5L37.961354166666666,88.5L38.181220833333334,88.5L38.4010875,88.5L38.620954166666664,88.5L38.84082083333333,88.5L39.0606875,88.5L39.28055416666667,88.5L39.50042083333334,88.5L39.7202875,88.5L39.940154166666666,88.5L40.16002083333333,88.5L40.3798875,88.5L40.59975416666667,88.5L40.81962083333333,88.5L41.0394875,88.5L41.25935416666666,88.5L41.479220833333336,88.5L41.699087500000005,88.5L41.918954166666666,88.5L42.138820833333334,88.5L42.358687499999995,88.5L42.57855416666667,88.5L42.79842083333334,88.5L43.0182875,88.5L43.23815416666667,88.5L43.45802083333333,88.5L43.677887500000004,88.5L43.897754166666665,88.5L44.11762083333333,88.5L44.3374875,88.5L44.55735416666666,88.5L44.77722083333334,88.5L44.9970875,88.5L45.21695416666667,88.5L45.436820833333336,88.5L45.6566875,88.5L45.87655416666667,88.5L46.09642083333333,88.5L46.3162875,88.5L46.53615416666666,88.5L46.75602083333333,88.5L46.975887500000006,88.5L47.19575416666667,88.5L47.415620833333335,88.5L47.635487499999996,88.5L47.855354166666665,88.5L48.07522083333333,88.5L48.2950875,88.5L48.51495416666667,88.5L48.73482083333333,88.5L48.9546875,88.5L49.17455416666667,88.5L49.394420833333335,88.5L49.6142875,88.5L49.834154166666664,88.5L50.05402083333333,88.5L50.273887499999994,88.5L50.49375416666667,88.5L50.71362083333334,88.5L50.9334875,88.5L51.15335416666667,88.5L51.37322083333333,88.5L51.5930875,88.5L51.81295416666667,88.5L52.03282083333333,88.5L52.2526875,88.5L52.47255416666666,88.5L52.69242083333334,88.5L52.9122875,88.5L53.132154166666666,88.5L53.352020833333334,88.5L53.571887499999995,88.5L53.79175416666667,88.5L54.01162083333333,88.5L54.2314875,88.5L54.45135416666667,88.5L54.67122083333333,88.5L54.891087500000005,88.5L55.110954166666666,88.5L55.330820833333334,88.5L55.5506875,88.5L55.77055416666666,88.5L55.99042083333334,88.5L56.2102875,88.5L56.43015416666667,88.5L56.65002083333333,88.5L56.8698875,88.5L57.08975416666667,88.5L57.309620833333334,88.5L57.5294875,88.5L57.74935416666666,88.5L57.96922083333333,88.5L58.18908750000001,88.5L58.40895416666667,88.5L58.628820833333336,88.5L58.8486875,88.5L59.068554166666665,88.5L59.28842083333333,88.5L59.5082875,88.5L59.72815416666667,88.5L59.94802083333333,88.5L60.1678875,88.5L60.38775416666667,88.5L60.607620833333335,88.5L60.827487500000004,88.5L61.047354166666665,88.5L61.26722083333333,88.5L61.4870875,88.5L61.70695416666667,88.5L61.92682083333333,88.5L62.1466875,88.5L62.36655416666667,88.5L62.58642083333333,88.5L62.8062875,88.5L63.026154166666664,88.5L63.24602083333333,88.5L63.4658875,88.5L63.68575416666666,88.5L63.90562083333334,88.5L64.12548749999999,88.5L64.34535416666667,88.5L64.56522083333334,88.5L64.7850875,88.5L65.00495416666666,88.5L65.22482083333334,88.5L65.4446875,88.5L65.66455416666666,88.5L65.88442083333334,88.5L66.1042875,88.5L66.32415416666666,88.5L66.54402083333333,88.5L66.76388750000001,88.5L66.98375416666667,88.5L67.20362083333333,88.5L67.42348750000001,88.5L67.64335416666667,88.5L67.86322083333333,88.5L68.08308749999999,88.5L68.30295416666667,88.5L68.52282083333333,88.5L68.74268749999999,88.5L68.96255416666668,88.5L69.18242083333334,88.5L69.4022875,88.5L69.62215416666668,88.5L69.84202083333334,88.5L70.0618875,88.5L70.28175416666666,88.5L70.50162083333333,88.5L70.7214875,88.5L70.94135416666666,88.5L71.16122083333335,88.5L71.3810875,88.5L71.60095416666667,88.5L71.82082083333333,88.5L72.0406875,88.5L72.26055416666667,88.5L72.48042083333333,88.5L72.7002875,88.5L72.92015416666666,88.5L73.14002083333332,88.5L73.3598875,88.5L73.57975416666667,88.5L73.79962083333334,88.5L74.0194875,88.5L74.23935416666667,88.5L74.45922083333333,88.5L74.6790875,88.5L74.89895416666667,88.5L75.11882083333333,88.5L75.33868749999999,88.5L75.55855416666667,88.5L75.77842083333334,88.5L75.9982875,88.5L76.21815416666666,88.5L76.43802083333334,88.5L76.6578875,88.5L76.87775416666666,88.5L77.09762083333332,88.5L77.3174875,88.5L77.53735416666666,88.5L77.75722083333334,88.5L77.97708750000001,88.5L78.19695416666667,88.5L78.41682083333333,88.5L78.63668750000001,88.5L78.85655416666667,88.5L79.07642083333333,88.5L79.29628749999999,88.5L79.51615416666667,88.5L79.73602083333333,88.5L79.9558875,88.5L80.17575416666668,88.5L80.39562083333334,88.5L80.6154875,88.5L80.83535416666666,88.5L81.05522083333334,88.5L81.2750875,88.5L81.49495416666666,88.5L81.71482083333333,88.5L81.9346875,88.5L82.15455416666667,88.5L82.37442083333333,88.5L82.59428750000001,88.5L82.81415416666667,88.5L83.03402083333333,88.5L83.2538875,88.5L83.47375416666667,88.5L83.69362083333333,88.5L83.9134875,88.5L84.13335416666666,88.5L84.35322083333332,88.5L84.5730875,88.5L84.79295416666668,88.5L85.01282083333334,88.5L85.2326875,88.5L85.45255416666667,88.5L85.67242083333333,88.5L85.8922875,88.5L86.11215416666666,88.5L86.33202083333333,88.5L86.55188749999999,88.5L86.77175416666667,88.5L86.99162083333334,88.5L87.2114875,88.5L87.43135416666667,88.5L87.65122083333334,88.5L87.8710875,88.5L88.09095416666666,88.5L88.31082083333332,88.5L88.5306875,88.5L88.75055416666666,88.5L88.97042083333334,88.5L89.19028750000001,88.5L89.41015416666667,88.5L89.63002083333333,88.5L89.8498875,88.5L90.06975416666667,88.5L90.28962083333333,88.5L90.50948749999999,88.5L90.72935416666667,88.5L90.94922083333333,88.5L91.1690875,88.5L91.38895416666668,88.5L91.60882083333334,88.5L91.8286875,88.5L92.04855416666666,88.5L92.26842083333334,88.5L92.4882875,88.5L92.70815416666666,88.5L92.92802083333333,88.5L93.1478875,88.5L93.36775416666667,88.5L93.58762083333333,88.5L93.80748750000001,88.5L94.02735416666667,88.5L94.24722083333333,88.5L94.4670875,88.5L94.68695416666667,88.5L94.90682083333333,88.5L95.12668749999999,88.5L95.34655416666666,88.5L95.56642083333334,88.5L95.7862875,88.5L96.00615416666668,88.5L96.22602083333334,88.5L96.4458875,88.5L96.66575416666667,88.5L96.88562083333333,88.5L97.1054875,88.5L97.32535416666666,88.5L97.54522083333333,88.5L97.76508749999999,88.5L97.98495416666667,88.5L98.20482083333334,88.5L98.4246875,88.5L98.64455416666667,88.5L98.86442083333333,88.5L99.0842875,88.5L99.30415416666666,88.5L99.52402083333332,88.5L99.7438875,88.5L99.96375416666666,88.5L100.18362083333334,88.5L100.40348750000001,88.5L100.62335416666667,88.5L100.84322083333333,88.5L101.0630875,88.5L101.28295416666667,88.5L101.50282083333333,88.5L101.72268749999999,88.5L101.94255416666667,88.5L102.16242083333333,88.5L102.3822875,88.5L102.60215416666666,88.5L102.82202083333334,88.5L103.0418875,88.5L103.26175416666666,88.5L103.48162083333334,88.5L103.7014875,88.5L103.92135416666666,88.5L104.14122083333334,88.5L104.3610875,88.5L104.58095416666667,88.5L104.80082083333333,88.5L105.02068750000001,88.5L105.24055416666667,88.5L105.46042083333333,88.5L105.6802875,88.5L105.90015416666667,88.5L106.12002083333333,88.5L106.33988749999999,88.5L106.55975416666666,88.5L106.77962083333334,88.5L106.9994875,88.5L107.21935416666668,88.5L107.43922083333334,88.5L107.6590875,88.5L107.87895416666666,88.5L108.09882083333333,88.5L108.3186875,88.5L108.53855416666666,88.5L108.75842083333333,88.5L108.97828750000001,88.5L109.19815416666667,88.5L109.41802083333334,88.5L109.6378875,88.5L109.85775416666667,88.5L110.07762083333333,88.5L110.2974875,88.5L110.51735416666666,88.5L110.73722083333332,88.5L110.9570875,88.5L111.17695416666668,88.5L111.39682083333334,88.5L111.6166875,88.5L111.83655416666667,88.5L112.05642083333333,88.5L112.2762875,88.5L112.49615416666667,88.5L112.71602083333333,88.5L112.93588749999999,88.5L113.15575416666667,88.5L113.37562083333333,88.5L113.5954875,88.5L113.81535416666667,88.5L114.03522083333334,88.5L114.2550875,88.5L114.47495416666666,88.5L114.69482083333334,88.5L114.9146875,88.5L115.13455416666666,88.5L115.35442083333332,88.5L115.5742875,88.5L115.79415416666667,88.5L116.01402083333333,88.5L116.23388750000001,88.5L116.45375416666667,88.5L116.67362083333333,88.5L116.8934875,88.5L117.11335416666667,88.5L117.33322083333333,88.5L117.55308749999999,88.5L117.77295416666666,88.5L117.99282083333334,88.5L118.2126875,88.5L118.43255416666668,88.5L118.65242083333334,88.5L118.8722875,88.5L119.09215416666666,88.5L119.31202083333334,88.5L119.5318875,88.5L119.75175416666666,88.5L119.97162083333333,88.5L120.19148750000001,88.5L120.41135416666667,88.5L120.63122083333333,88.5L120.8510875,88.5L121.07095416666667,88.5L121.29082083333333,88.5L121.5106875,88.5L121.73055416666666,88.5L121.95042083333333,88.5L122.1702875,88.5L122.39015416666668,88.5L122.61002083333334,88.5L122.8298875,88.5L123.04975416666667,88.5L123.26962083333333,88.5L123.4894875,88.5L123.70935416666667,88.5L123.92922083333333,88.5L124.1490875,88.5L124.36895416666665,88.5L124.58882083333334,88.5L124.8086875,88.5L125.02855416666667,88.5L125.24842083333334,88.5L125.4682875,88.5L125.68815416666666,88.5L125.90802083333334,88.5L126.1278875,88.5L126.34775416666666,88.5L126.56762083333332,88.5L126.7874875,88.5L127.00735416666667,88.5L127.22722083333333,88.5L127.44708750000001,88.5L127.66695416666667,88.5L127.88682083333333,88.5L128.1066875,88.5L128.32655416666668,88.5L128.54642083333334,88.5L128.7662875,88.5L128.98615416666667,88.5L129.20602083333333,88.5L129.4258875,88.5L129.64575416666668,88.5L129.8656208333333,88.5L130.0854875,88.5L130.3053541666667,88.5L130.52522083333332,88.5L130.7450875,88.5L130.96495416666667,88.5L131.18482083333333,88.5L131.4046875,88.5L131.62455416666668,88.5L131.84442083333332,88.5L132.0642875,88.5L132.28415416666667,88.5L132.50402083333333,88.5L132.72388750000002,88.5L132.94375416666665,88.5L133.16362083333334,88.5L133.3834875,88.5L133.60335416666666,88.5L133.82322083333332,88.5L134.0430875,88.5L134.26295416666665,88.5L134.48282083333334,88.5L134.70268750000002,88.5L134.92255416666666,88.5L135.14242083333335,88.5L135.3622875,88.5L135.58215416666667,88.5L135.80202083333333,88.5L136.0218875,88.5L136.24175416666665,88.5L136.46162083333334,88.5L136.68148749999997,88.5L136.90135416666666,88.5L137.12122083333335,88.5L137.3410875,88.5L137.56095416666668,88.5L137.78082083333334,88.5L138.0006875,88.5L138.22055416666666,88.5L138.44042083333335,88.5L138.66028749999998,88.5L138.88015416666667,88.5L139.10002083333336,88.5L139.3198875,88.5L139.53975416666668,88.5L139.75962083333332,88.5L139.9794875,88.5L140.19935416666667,88.5L140.41922083333333,88.5L140.6390875,88.5L140.85895416666668,88.5L141.0788208333333,88.5L141.2986875,88.5L141.5185541666667,88.5L141.73842083333332,88.5L141.9582875,88.5L142.17815416666667,88.5L142.39802083333333,88.5L142.6178875,88.5L142.83775416666668,88.5L143.05762083333332,88.5L143.2774875,88.5L143.49735416666664,88.5L143.71722083333333,88.5L143.93708750000002,88.5L144.15695416666665,88.5L144.37682083333334,88.5L144.5966875,88.5L144.81655416666666,88.5L145.03642083333332,88.5L145.2562875,88.5L145.47615416666665,88.5L145.69602083333334,88.5L145.91588750000003,88.5L146.13575416666666,88.5L146.35562083333335,88.5L146.5754875,88.5L146.79535416666667,88.5L147.01522083333333,88.5L147.2350875,88.5L147.45495416666665,88.5L147.67482083333334,88.5L147.89468749999997,88.5L148.11455416666666,88.5L148.33442083333335,88.5L148.5542875,88.5L148.77415416666668,88.5L148.99402083333334,88.5L149.2138875,88.5L149.43375416666666,88.5L149.65362083333335,88.5L149.87348749999998,88.5L150.09335416666667,88.5L150.31322083333336,88.5L150.5330875,88.5L150.75295416666668,88.5L150.97282083333332,88.5L151.1926875,88.5L151.41255416666667,88.5L151.63242083333333,88.5L151.8522875,88.5L152.07215416666668,88.5L152.2920208333333,88.5L152.5118875,88.5L152.7317541666667,88.5L152.95162083333332,88.5L153.1714875,88.5L153.39135416666667,88.5L153.61122083333333,88.5L153.8310875,88.5L154.05095416666668,88.5L154.27082083333332,88.5L154.4906875,88.5L154.71055416666664,88.5L154.93042083333333,88.5L155.15028750000002,88.5L155.37015416666665,88.5L155.59002083333334,88.5L155.8098875,88.5L156.02975416666666,88.5L156.24962083333332,88.5L156.4694875,88.5L156.68935416666665,88.5L156.90922083333334,88.5L157.12908750000003,88.5L157.34895416666666,88.5L157.56882083333335,88.5L157.7886875,88.5L158.00855416666667,88.5L158.22842083333333,88.5L158.4482875,88.5L158.66815416666665,88.5L158.88802083333334,88.5L159.10788749999998,88.5L159.32775416666667,88.5L159.54762083333335,88.5L159.7674875,88.5L159.98735416666668,88.5L160.20722083333334,88.5L160.4270875,88.5L160.64695416666666,88.5L160.86682083333335,88.5L161.08668749999998,88.5L161.30655416666667,88.5L161.52642083333333,88.5L161.7462875,88.5L161.96615416666668,88.5L162.18602083333332,88.5L162.4058875,88.5L162.62575416666667,88.5L162.84562083333333,88.5L163.0654875,88.5L163.28535416666668,88.5L163.5052208333333,88.5L163.7250875,88.5L163.9449541666667,88.5L164.16482083333332,88.5L164.3846875,88.5L164.60455416666667,88.5L164.82442083333333,88.5L165.0442875,88.5L165.26415416666666,88.5L165.48402083333332,88.5L165.7038875,88.5L165.92375416666667,88.5L166.14362083333333,88.5L166.36348750000002,88.5L166.58335416666665,88.5L166.80322083333334,88.5L167.0230875,88.5L167.24295416666666,88.5L167.46282083333332,88.5L167.68268750000001,88.5L167.90255416666665,88.5L168.12242083333334,88.5L168.34228750000003,88.5L168.56215416666666,88.5L168.78202083333335,88.5L169.00188749999998,88.5L169.22175416666667,88.5L169.44162083333333,88.5L169.6614875,88.5L169.88135416666665,88.5L170.10122083333334,88.5L170.32108749999998,88.5L170.54095416666667,88.5L170.76082083333336,88.5L170.9806875,88.5L171.20055416666668,88.5L171.42042083333334,88.5L171.6402875,88.5L171.86015416666666,88.5L172.08002083333335,88.5L172.29988749999998,88.5L172.51975416666667,88.5L172.73962083333333,88.5L172.9594875,88.5L173.17935416666668,88.5L173.39922083333332,88.5L173.6190875,88.5L173.83895416666667,88.5L174.05882083333333,88.5L174.2786875,88.5L174.49855416666668,88.5L174.7184208333333,88.5L174.9382875,88.5L175.1581541666667,88.5L175.37802083333332,88.5L175.5978875,88.5L175.81775416666667,88.5L176.03762083333334,88.5L176.2574875,88.5L176.47735416666666,88.5L176.69722083333332,88.5L176.9170875,88.5L177.13695416666667,88.5L177.35682083333333,88.5L177.57668750000002,88.5L177.79655416666665,88.5L178.01642083333334,88.5L178.2362875,88.5L178.45615416666666,88.5L178.67602083333333,88.5L178.89588750000001,88.5L179.11575416666665,88.5L179.33562083333334,88.5L179.55548750000003,88.5L179.77535416666666,88.5L179.99522083333335,88.5L180.21508749999998,88.5L180.43495416666667,88.5L180.65482083333333,88.5L180.8746875,88.5L181.09455416666665,88.5L181.31442083333334,88.5L181.5342875,88.5L181.75415416666667,88.5L181.97402083333336,88.5L182.1938875,88.5L182.41375416666668,88.5L182.63362083333334,88.5L182.8534875,88.5L183.07335416666666,88.5L183.29322083333332,88.5L183.51308749999998,88.5L183.73295416666667,88.5L183.95282083333333,88.5L184.1726875,88.5L184.39255416666668,88.5L184.61242083333332,88.5L184.8322875,88.5L185.05215416666667,88.5L185.27202083333333,88.5L185.4918875,88.5L185.71175416666668,88.5L185.9316208333333,88.5L186.1514875,88.5L186.3713541666667,88.5L186.59122083333332,88.5L186.8110875,88.5L187.03095416666665,88.5L187.25082083333334,88.5L187.4706875,88.5L187.69055416666666,88.5L187.91042083333332,88.5L188.1302875,88.5L188.35015416666667,88.5L188.57002083333333,88.5L188.78988750000002,88.5L189.00975416666665,88.5L189.22962083333334,88.5L189.4494875,88.5L189.66935416666666,88.5L189.88922083333333,88.5L190.10908750000002,88.5L190.32895416666665,88.5L190.54882083333334,88.5L190.7686875,88.5L190.98855416666666,88.5L191.20842083333335,88.5L191.42828749999998,88.5L191.64815416666667,88.5L191.86802083333333,88.5L192.0878875,88.5L192.30775416666665,88.5L192.52762083333334,88.5L192.7474875,88.5L192.96735416666667,88.5L193.18722083333336,88.5L193.4070875,88.5L193.62695416666668,88.5L193.84682083333334,88.5L194.0666875,88.5L194.28655416666666,88.5L194.50642083333332,88.5L194.72628749999998,88.5L194.94615416666667,88.5L195.16602083333333,88.5L195.3858875,88.5L195.60575416666669,88.5L195.82562083333332,88.5L196.0454875,88.5L196.26535416666667,88.5L196.48522083333333,88.5L196.7050875,88.5L196.92495416666668,88.5L197.1448208333333,88.5L197.3646875,88.5L197.5845541666667,88.5L197.80442083333332,88.5L198.0242875,88.5L198.24415416666665,88.5L198.46402083333334,88.5L198.6838875,88.5L198.90375416666666,88.5L199.12362083333332,88.5L199.3434875,88.5L199.56335416666667,88.5L199.78322083333333,88.5L200.00308750000002,88.5L200.22295416666665,88.5L200.44282083333334,88.5L200.6626875,88.5L200.88255416666667,88.5L201.10242083333333,88.5L201.32228750000002,88.5L201.54215416666665,88.5L201.76202083333334,88.5L201.9818875,88.5L202.20175416666666,88.5L202.42162083333335,88.5L202.64148749999998,88.5L202.86135416666667,88.5L203.08122083333333,88.5L203.3010875,88.5L203.52095416666666,88.5L203.74082083333334,88.5L203.9606875,88.5L204.18055416666667,88.5L204.40042083333336,88.5L204.6202875,88.5L204.84015416666668,88.5L205.0600208333333,88.5L205.2798875,88.5L205.49975416666666,88.5L205.71962083333332,88.5L205.93948749999998,88.5L206.15935416666667,88.5L206.37922083333333,88.5L206.5990875,88.5L206.81895416666669,88.5L207.03882083333332,88.5L207.2586875,88.5L207.47855416666667,88.5L207.69842083333333,88.5L207.9182875,88.5L208.13815416666668,88.5L208.35802083333334,88.5L208.5778875,88.5L208.79775416666666,88.5L209.01762083333332,88.5L209.23748750000001,88.5L209.45735416666665,88.5L209.67722083333334,88.5L209.8970875,88.5L210.11695416666666,88.5L210.33682083333332,88.5L210.5566875,88.5L210.77655416666667,88.5L210.99642083333333,88.5L211.21628750000002,88.5L211.43615416666665,88.5L211.65602083333334,88.5L211.8758875,88.5L212.09575416666667,88.5L212.31562083333333,88.5L212.5354875,88.5L212.75535416666665,88.5L212.97522083333334,88.5L213.1950875,88.5L213.41495416666666,88.5L213.63482083333335,88.5L213.85468749999998,88.5L214.07455416666667,88.5L214.29442083333333,88.5L214.5142875,88.5L214.73415416666666,88.5L214.95402083333335,88.5L215.1738875,88.5L215.39375416666667,88.5L215.61362083333336,88.5L215.8334875,88.5L216.05335416666668,88.5L216.2732208333333,88.5L216.4930875,88.5L216.71295416666666,88.5L216.93282083333332,88.5L217.15268749999998,88.5L217.37255416666667,88.5L217.59242083333334,88.5L217.8122875,88.5L218.0321541666667,88.5L218.25202083333332,88.5L218.4718875,88.5L218.69175416666667,88.5L218.91162083333333,88.5L219.1314875,88.5L219.35135416666668,88.5L219.57122083333334,88.5L219.7910875,88.5L220.01095416666666,88.5L220.23082083333333,88.5L220.45068750000002,88.5L220.67055416666665,88.5L220.89042083333334,88.5L221.1102875,88.5L221.33015416666666,88.5L221.55002083333332,88.5L221.7698875,88.5L221.98975416666667,88.5L222.20962083333333,88.5L222.42948750000002,88.5L222.64935416666665,88.5L222.86922083333334,88.5L223.0890875,88.5L223.30895416666667,88.5L223.52882083333333,88.5L223.7486875,88.5L223.96855416666668,88.5L224.18842083333334,88.5L224.4082875,88.5L224.62815416666666,88.5L224.84802083333335,88.5L225.06788749999998,88.5L225.28775416666667,88.5L225.50762083333333,88.5L225.7274875,88.5L225.94735416666666,88.5L226.16722083333335,88.5L226.3870875,88.5L226.60695416666667,88.5L226.82682083333336,88.5L227.0466875,88.5L227.26655416666668,88.5L227.4864208333333,88.5L227.7062875,88.5L227.92615416666666,88.5L228.14602083333332,88.5L228.36588749999999,88.5L228.58575416666667,88.5L228.80562083333334,88.5L229.0254875,88.5L229.2453541666667,88.5L229.46522083333332,88.5L229.6850875,88.5L229.90495416666667,88.5L230.12482083333333,88.5L230.3446875,88.5L230.56455416666665,88.5L230.78442083333334,88.5L231.0042875,88.5L231.22415416666666,88.5L231.44402083333333,88.5L231.66388750000002,88.5L231.88375416666665,88.5L232.10362083333334,88.5L232.3234875,88.5L232.54335416666666,88.5L232.76322083333332,88.5L232.9830875,88.5L233.20295416666667,88.5L233.42282083333333,88.5L233.64268750000002,88.5L233.86255416666665,88.5L234.08242083333334,88.5L234.30228749999998,88.5L234.52215416666667,88.5L234.74202083333333,88.5L234.9618875,88.5L235.18175416666668,88.5L235.40162083333334,88.5L235.6214875,88.5L235.84135416666666,88.5L236.06122083333335,88.5L236.28108749999998,88.5" style="fill: none;" fill="none"></path></g></g></g></g><g opacity="0.2"><g><g><g><path stroke="rgb(255, 112, 67)" stroke-width="2px" d="M21.9110875,88.5L22.13095416666667,88.5L22.350820833333334,88.5L22.5706875,88.5L22.790554166666666,88.5L23.010420833333335,88.5L23.2302875,88.5L23.450154166666668,88.5L23.670020833333332,88.5L23.8898875,88.5L24.109754166666665,88.5L24.329620833333333,88.5L24.5494875,88.5L24.769354166666666,88.5L24.989220833333334,88.5L25.2090875,88.5L25.428954166666664,88.5L25.648820833333335,88.5L25.8686875,88.5L26.08855416666667,88.5L26.308420833333333,88.5L26.528287499999998,88.5L26.748154166666666,88.5L26.968020833333334,88.5L27.187887500000002,88.5L27.407754166666667,88.5L27.62762083333333,88.5L27.8474875,88.5L28.067354166666664,88.5L28.287220833333336,88.5L28.5070875,88.5L28.726954166666665,88.5L28.946820833333334,88.5L29.1666875,88.5L29.38655416666667,88.5L29.606420833333335,88.5L29.8262875,88.5L30.046154166666668,88.5L30.266020833333332,88.5L30.485887499999997,88.5L30.70575416666667,88.5L30.925620833333333,88.5L31.1454875,88.5L31.365354166666666,88.5L31.58522083333333,88.5L31.8050875,88.5L32.02495416666667,88.5L32.24482083333333,88.5L32.464687500000004,88.5L32.68455416666667,88.5L32.90442083333333,88.5L33.1242875,88.5L33.34415416666666,88.5L33.56402083333333,88.5L33.7838875,88.5L34.00375416666667,88.5L34.223620833333335,88.5L34.443487499999996,88.5L34.663354166666664,88.5L34.88322083333333,88.5L35.1030875,88.5L35.32295416666667,88.5L35.54282083333333,88.5L35.7626875,88.5L35.98255416666667,88.5L36.202420833333335,88.5L36.4222875,88.5L36.642154166666664,88.5L36.86202083333333,88.5L37.0818875,88.5L37.30175416666667,88.5L37.52162083333333,88.5L37.7414875,88.5L37.961354166666666,88.5L38.181220833333334,88.5L38.4010875,88.5L38.620954166666664,88.5L38.84082083333333,88.5L39.0606875,88.5L39.28055416666667,88.5L39.50042083333334,88.5L39.7202875,88.5L39.940154166666666,88.5L40.16002083333333,88.5L40.3798875,88.5L40.59975416666667,88.5L40.81962083333333,88.5L41.0394875,88.5L41.25935416666666,88.5L41.479220833333336,88.5L41.699087500000005,88.5L41.918954166666666,88.5L42.138820833333334,88.5L42.358687499999995,88.5L42.57855416666667,88.5L42.79842083333334,88.5L43.0182875,88.5L43.23815416666667,88.5L43.45802083333333,88.5L43.677887500000004,88.5L43.897754166666665,88.5L44.11762083333333,88.5L44.3374875,88.5L44.55735416666666,88.5L44.77722083333334,88.5L44.9970875,88.5L45.21695416666667,88.5L45.436820833333336,88.5L45.6566875,88.5L45.87655416666667,88.5L46.09642083333333,88.5L46.3162875,88.5L46.53615416666666,88.5L46.75602083333333,88.5L46.975887500000006,88.5L47.19575416666667,88.5L47.415620833333335,88.5L47.635487499999996,88.5L47.855354166666665,88.5L48.07522083333333,88.5L48.2950875,88.5L48.51495416666667,88.5L48.73482083333333,88.5L48.9546875,88.5L49.17455416666667,88.5L49.394420833333335,88.5L49.6142875,88.5L49.834154166666664,88.5L50.05402083333333,88.5L50.273887499999994,88.5L50.49375416666667,88.5L50.71362083333334,88.5L50.9334875,88.5L51.15335416666667,88.5L51.37322083333333,88.5L51.5930875,88.5L51.81295416666667,88.5L52.03282083333333,88.5L52.2526875,88.5L52.47255416666666,88.5L52.69242083333334,88.5L52.9122875,88.5L53.132154166666666,88.5L53.352020833333334,88.5L53.571887499999995,88.5L53.79175416666667,88.5L54.01162083333333,88.5L54.2314875,88.5L54.45135416666667,88.5L54.67122083333333,88.5L54.891087500000005,88.5L55.110954166666666,88.5L55.330820833333334,88.5L55.5506875,88.5L55.77055416666666,88.5L55.99042083333334,88.5L56.2102875,88.5L56.43015416666667,88.5L56.65002083333333,88.5L56.8698875,88.5L57.08975416666667,88.5L57.309620833333334,88.5L57.5294875,88.5L57.74935416666666,88.5L57.96922083333333,88.5L58.18908750000001,88.5L58.40895416666667,88.5L58.628820833333336,88.5L58.8486875,88.5L59.068554166666665,88.5L59.28842083333333,88.5L59.5082875,88.5L59.72815416666667,88.5L59.94802083333333,88.5L60.1678875,88.5L60.38775416666667,88.5L60.607620833333335,88.5L60.827487500000004,88.5L61.047354166666665,88.5L61.26722083333333,88.5L61.4870875,88.5L61.70695416666667,88.5L61.92682083333333,88.5L62.1466875,88.5L62.36655416666667,88.5L62.58642083333333,88.5L62.8062875,88.5L63.026154166666664,88.5L63.24602083333333,88.5L63.4658875,88.5L63.68575416666666,88.5L63.90562083333334,88.5L64.12548749999999,88.5L64.34535416666667,88.5L64.56522083333334,88.5L64.7850875,88.5L65.00495416666666,88.5L65.22482083333334,88.5L65.4446875,88.5L65.66455416666666,88.5L65.88442083333334,88.5L66.1042875,88.5L66.32415416666666,88.5L66.54402083333333,88.5L66.76388750000001,88.5L66.98375416666667,88.5L67.20362083333333,88.5L67.42348750000001,88.5L67.64335416666667,88.5L67.86322083333333,88.5L68.08308749999999,88.5L68.30295416666667,88.5L68.52282083333333,88.5L68.74268749999999,88.5L68.96255416666668,88.5L69.18242083333334,88.5L69.4022875,88.5L69.62215416666668,88.5L69.84202083333334,88.5L70.0618875,88.5L70.28175416666666,88.5L70.50162083333333,88.5L70.7214875,88.5L70.94135416666666,88.5L71.16122083333335,88.5L71.3810875,88.5L71.60095416666667,88.5L71.82082083333333,88.5L72.0406875,88.5L72.26055416666667,88.5L72.48042083333333,88.5L72.7002875,88.5L72.92015416666666,88.5L73.14002083333332,88.5L73.3598875,88.5L73.57975416666667,88.5L73.79962083333334,88.5L74.0194875,88.5L74.23935416666667,88.5L74.45922083333333,88.5L74.6790875,88.5L74.89895416666667,88.5L75.11882083333333,88.5L75.33868749999999,88.5L75.55855416666667,88.5L75.77842083333334,88.5L75.9982875,88.5L76.21815416666666,88.5L76.43802083333334,88.5L76.6578875,88.5L76.87775416666666,88.5L77.09762083333332,88.5L77.3174875,88.5L77.53735416666666,88.5L77.75722083333334,88.5L77.97708750000001,88.5L78.19695416666667,88.5L78.41682083333333,88.5L78.63668750000001,88.5L78.85655416666667,88.5L79.07642083333333,88.5L79.29628749999999,88.5L79.51615416666667,88.5L79.73602083333333,88.5L79.9558875,88.5L80.17575416666668,88.5L80.39562083333334,88.5L80.6154875,88.5L80.83535416666666,88.5L81.05522083333334,88.5L81.2750875,88.5L81.49495416666666,88.5L81.71482083333333,88.5L81.9346875,88.5L82.15455416666667,88.5L82.37442083333333,88.5L82.59428750000001,88.5L82.81415416666667,88.5L83.03402083333333,88.5L83.2538875,88.5L83.47375416666667,88.5L83.69362083333333,88.5L83.9134875,88.5L84.13335416666666,88.5L84.35322083333332,88.5L84.5730875,88.5L84.79295416666668,88.5L85.01282083333334,88.5L85.2326875,88.5L85.45255416666667,88.5L85.67242083333333,88.5L85.8922875,88.5L86.11215416666666,88.5L86.33202083333333,88.5L86.55188749999999,88.5L86.77175416666667,88.5L86.99162083333334,88.5L87.2114875,88.5L87.43135416666667,88.5L87.65122083333334,88.5L87.8710875,88.5L88.09095416666666,88.5L88.31082083333332,88.5L88.5306875,88.5L88.75055416666666,88.5L88.97042083333334,88.5L89.19028750000001,88.5L89.41015416666667,88.5L89.63002083333333,88.5L89.8498875,88.5L90.06975416666667,88.5L90.28962083333333,88.5L90.50948749999999,88.5L90.72935416666667,88.5L90.94922083333333,88.5L91.1690875,88.5L91.38895416666668,88.5L91.60882083333334,88.5L91.8286875,88.5L92.04855416666666,88.5L92.26842083333334,88.5L92.4882875,88.5L92.70815416666666,88.5L92.92802083333333,88.5L93.1478875,88.5L93.36775416666667,88.5L93.58762083333333,88.5L93.80748750000001,88.5L94.02735416666667,88.5L94.24722083333333,88.5L94.4670875,88.5L94.68695416666667,88.5L94.90682083333333,88.5L95.12668749999999,88.5L95.34655416666666,88.5L95.56642083333334,88.5L95.7862875,88.5L96.00615416666668,88.5L96.22602083333334,88.5L96.4458875,88.5L96.66575416666667,88.5L96.88562083333333,88.5L97.1054875,88.5L97.32535416666666,88.5L97.54522083333333,88.5L97.76508749999999,88.5L97.98495416666667,88.5L98.20482083333334,88.5L98.4246875,88.5L98.64455416666667,88.5L98.86442083333333,88.5L99.0842875,88.5L99.30415416666666,88.5L99.52402083333332,88.5L99.7438875,88.5L99.96375416666666,88.5L100.18362083333334,88.5L100.40348750000001,88.5L100.62335416666667,88.5L100.84322083333333,88.5L101.0630875,88.5L101.28295416666667,88.5L101.50282083333333,88.5L101.72268749999999,88.5L101.94255416666667,88.5L102.16242083333333,88.5L102.3822875,88.5L102.60215416666666,88.5L102.82202083333334,88.5L103.0418875,88.5L103.26175416666666,88.5L103.48162083333334,88.5L103.7014875,88.5L103.92135416666666,88.5L104.14122083333334,88.5L104.3610875,88.5L104.58095416666667,88.5L104.80082083333333,88.5L105.02068750000001,88.5L105.24055416666667,88.5L105.46042083333333,88.5L105.6802875,88.5L105.90015416666667,88.5L106.12002083333333,88.5L106.33988749999999,88.5L106.55975416666666,88.5L106.77962083333334,88.5L106.9994875,88.5L107.21935416666668,88.5L107.43922083333334,88.5L107.6590875,88.5L107.87895416666666,88.5L108.09882083333333,88.5L108.3186875,88.5L108.53855416666666,88.5L108.75842083333333,88.5L108.97828750000001,88.5L109.19815416666667,88.5L109.41802083333334,88.5L109.6378875,88.5L109.85775416666667,88.5L110.07762083333333,88.5L110.2974875,88.5L110.51735416666666,88.5L110.73722083333332,88.5L110.9570875,88.5L111.17695416666668,88.5L111.39682083333334,88.5L111.6166875,88.5L111.83655416666667,88.5L112.05642083333333,88.5L112.2762875,88.5L112.49615416666667,88.5L112.71602083333333,88.5L112.93588749999999,88.5L113.15575416666667,88.5L113.37562083333333,88.5L113.5954875,88.5L113.81535416666667,88.5L114.03522083333334,88.5L114.2550875,88.5L114.47495416666666,88.5L114.69482083333334,88.5L114.9146875,88.5L115.13455416666666,88.5L115.35442083333332,88.5L115.5742875,88.5L115.79415416666667,88.5L116.01402083333333,88.5L116.23388750000001,88.5L116.45375416666667,88.5L116.67362083333333,88.5L116.8934875,88.5L117.11335416666667,88.5L117.33322083333333,88.5L117.55308749999999,88.5L117.77295416666666,88.5L117.99282083333334,88.5L118.2126875,88.5L118.43255416666668,88.5L118.65242083333334,88.5L118.8722875,88.5L119.09215416666666,88.5L119.31202083333334,88.5L119.5318875,88.5L119.75175416666666,88.5L119.97162083333333,88.5L120.19148750000001,88.5L120.41135416666667,88.5L120.63122083333333,88.5L120.8510875,88.5L121.07095416666667,88.5L121.29082083333333,88.5L121.5106875,88.5L121.73055416666666,88.5L121.95042083333333,88.5L122.1702875,88.5L122.39015416666668,88.5L122.61002083333334,88.5L122.8298875,88.5L123.04975416666667,88.5L123.26962083333333,88.5L123.4894875,88.5L123.70935416666667,88.5L123.92922083333333,88.5L124.1490875,88.5L124.36895416666665,88.5L124.58882083333334,88.5L124.8086875,88.5L125.02855416666667,88.5L125.24842083333334,88.5L125.4682875,88.5L125.68815416666666,88.5L125.90802083333334,88.5L126.1278875,88.5L126.34775416666666,88.5L126.56762083333332,88.5L126.7874875,88.5L127.00735416666667,88.5L127.22722083333333,88.5L127.44708750000001,88.5L127.66695416666667,88.5L127.88682083333333,88.5L128.1066875,88.5L128.32655416666668,88.5L128.54642083333334,88.5L128.7662875,88.5L128.98615416666667,88.5L129.20602083333333,88.5L129.4258875,88.5L129.64575416666668,88.5L129.8656208333333,88.5L130.0854875,88.5L130.3053541666667,88.5L130.52522083333332,88.5L130.7450875,88.5L130.96495416666667,88.5L131.18482083333333,88.5L131.4046875,88.5L131.62455416666668,88.5L131.84442083333332,88.5L132.0642875,88.5L132.28415416666667,88.5L132.50402083333333,88.5L132.72388750000002,88.5L132.94375416666665,88.5L133.16362083333334,88.5L133.3834875,88.5L133.60335416666666,88.5L133.82322083333332,88.5L134.0430875,88.5L134.26295416666665,88.5L134.48282083333334,88.5L134.70268750000002,88.5L134.92255416666666,88.5L135.14242083333335,88.5L135.3622875,88.5L135.58215416666667,88.5L135.80202083333333,88.5L136.0218875,88.5L136.24175416666665,88.5L136.46162083333334,88.5L136.68148749999997,88.5L136.90135416666666,88.5L137.12122083333335,88.5L137.3410875,88.5L137.56095416666668,88.5L137.78082083333334,88.5L138.0006875,88.5L138.22055416666666,88.5L138.44042083333335,88.5L138.66028749999998,88.5L138.88015416666667,88.5L139.10002083333336,88.5L139.3198875,88.5L139.53975416666668,88.5L139.75962083333332,88.5L139.9794875,88.5L140.19935416666667,88.5L140.41922083333333,88.5L140.6390875,88.5L140.85895416666668,88.5L141.0788208333333,88.5L141.2986875,88.5L141.5185541666667,88.5L141.73842083333332,88.5L141.9582875,88.5L142.17815416666667,88.5L142.39802083333333,88.5L142.6178875,88.5L142.83775416666668,88.5L143.05762083333332,88.5L143.2774875,88.5L143.49735416666664,88.5L143.71722083333333,88.5L143.93708750000002,88.5L144.15695416666665,88.5L144.37682083333334,88.5L144.5966875,88.5L144.81655416666666,88.5L145.03642083333332,88.5L145.2562875,88.5L145.47615416666665,88.5L145.69602083333334,88.5L145.91588750000003,88.5L146.13575416666666,88.5L146.35562083333335,88.5L146.5754875,88.5L146.79535416666667,88.5L147.01522083333333,88.5L147.2350875,88.5L147.45495416666665,88.5L147.67482083333334,88.5L147.89468749999997,88.5L148.11455416666666,88.5L148.33442083333335,88.5L148.5542875,88.5L148.77415416666668,88.5L148.99402083333334,88.5L149.2138875,88.5L149.43375416666666,88.5L149.65362083333335,88.5L149.87348749999998,88.5L150.09335416666667,88.5L150.31322083333336,88.5L150.5330875,88.5L150.75295416666668,88.5L150.97282083333332,88.5L151.1926875,88.5L151.41255416666667,88.5L151.63242083333333,88.5L151.8522875,88.5L152.07215416666668,88.5L152.2920208333333,88.5L152.5118875,88.5L152.7317541666667,88.5L152.95162083333332,88.5L153.1714875,88.5L153.39135416666667,88.5L153.61122083333333,88.5L153.8310875,88.5L154.05095416666668,88.5L154.27082083333332,88.5L154.4906875,88.5L154.71055416666664,88.5L154.93042083333333,88.5L155.15028750000002,88.5L155.37015416666665,88.5L155.59002083333334,88.5L155.8098875,88.5L156.02975416666666,88.5L156.24962083333332,88.5L156.4694875,88.5L156.68935416666665,88.5L156.90922083333334,88.5L157.12908750000003,88.5L157.34895416666666,88.5L157.56882083333335,88.5L157.7886875,88.5L158.00855416666667,88.5L158.22842083333333,88.5L158.4482875,88.5L158.66815416666665,88.5L158.88802083333334,88.5L159.10788749999998,88.5L159.32775416666667,88.5L159.54762083333335,88.5L159.7674875,88.5L159.98735416666668,88.5L160.20722083333334,88.5L160.4270875,88.5L160.64695416666666,88.5L160.86682083333335,88.5L161.08668749999998,88.5L161.30655416666667,88.5L161.52642083333333,88.5L161.7462875,88.5L161.96615416666668,88.5L162.18602083333332,88.5L162.4058875,88.5L162.62575416666667,88.5L162.84562083333333,88.5L163.0654875,88.5L163.28535416666668,88.5L163.5052208333333,88.5L163.7250875,88.5L163.9449541666667,88.5L164.16482083333332,88.5L164.3846875,88.5L164.60455416666667,88.5L164.82442083333333,88.5L165.0442875,88.5L165.26415416666666,88.5L165.48402083333332,88.5L165.7038875,88.5L165.92375416666667,88.5L166.14362083333333,88.5L166.36348750000002,88.5L166.58335416666665,88.5L166.80322083333334,88.5L167.0230875,88.5L167.24295416666666,88.5L167.46282083333332,88.5L167.68268750000001,88.5L167.90255416666665,88.5L168.12242083333334,88.5L168.34228750000003,88.5L168.56215416666666,88.5L168.78202083333335,88.5L169.00188749999998,88.5L169.22175416666667,88.5L169.44162083333333,88.5L169.6614875,88.5L169.88135416666665,88.5L170.10122083333334,88.5L170.32108749999998,88.5L170.54095416666667,88.5L170.76082083333336,88.5L170.9806875,88.5L171.20055416666668,88.5L171.42042083333334,88.5L171.6402875,88.5L171.86015416666666,88.5L172.08002083333335,88.5L172.29988749999998,88.5L172.51975416666667,88.5L172.73962083333333,88.5L172.9594875,88.5L173.17935416666668,88.5L173.39922083333332,88.5L173.6190875,88.5L173.83895416666667,88.5L174.05882083333333,88.5L174.2786875,88.5L174.49855416666668,88.5L174.7184208333333,88.5L174.9382875,88.5L175.1581541666667,88.5L175.37802083333332,88.5L175.5978875,88.5L175.81775416666667,88.5L176.03762083333334,88.5L176.2574875,88.5L176.47735416666666,88.5L176.69722083333332,88.5L176.9170875,88.5L177.13695416666667,88.5L177.35682083333333,88.5L177.57668750000002,88.5L177.79655416666665,88.5L178.01642083333334,88.5L178.2362875,88.5L178.45615416666666,88.5L178.67602083333333,88.5L178.89588750000001,88.5L179.11575416666665,88.5L179.33562083333334,88.5L179.55548750000003,88.5L179.77535416666666,88.5L179.99522083333335,88.5L180.21508749999998,88.5L180.43495416666667,88.5L180.65482083333333,88.5L180.8746875,88.5L181.09455416666665,88.5L181.31442083333334,88.5L181.5342875,88.5L181.75415416666667,88.5L181.97402083333336,88.5L182.1938875,88.5L182.41375416666668,88.5L182.63362083333334,88.5L182.8534875,88.5L183.07335416666666,88.5L183.29322083333332,88.5L183.51308749999998,88.5L183.73295416666667,88.5L183.95282083333333,88.5L184.1726875,88.5L184.39255416666668,88.5L184.61242083333332,88.5L184.8322875,88.5L185.05215416666667,88.5L185.27202083333333,88.5L185.4918875,88.5L185.71175416666668,88.5L185.9316208333333,88.5L186.1514875,88.5L186.3713541666667,88.5L186.59122083333332,88.5L186.8110875,88.5L187.03095416666665,88.5L187.25082083333334,88.5L187.4706875,88.5L187.69055416666666,88.5L187.91042083333332,88.5L188.1302875,88.5L188.35015416666667,88.5L188.57002083333333,88.5L188.78988750000002,88.5L189.00975416666665,88.5L189.22962083333334,88.5L189.4494875,88.5L189.66935416666666,88.5L189.88922083333333,88.5L190.10908750000002,88.5L190.32895416666665,88.5L190.54882083333334,88.5L190.7686875,88.5L190.98855416666666,88.5L191.20842083333335,88.5L191.42828749999998,88.5L191.64815416666667,88.5L191.86802083333333,88.5L192.0878875,88.5L192.30775416666665,88.5L192.52762083333334,88.5L192.7474875,88.5L192.96735416666667,88.5L193.18722083333336,88.5L193.4070875,88.5L193.62695416666668,88.5L193.84682083333334,88.5L194.0666875,88.5L194.28655416666666,88.5L194.50642083333332,88.5L194.72628749999998,88.5L194.94615416666667,88.5L195.16602083333333,88.5L195.3858875,88.5L195.60575416666669,88.5L195.82562083333332,88.5L196.0454875,88.5L196.26535416666667,88.5L196.48522083333333,88.5L196.7050875,88.5L196.92495416666668,88.5L197.1448208333333,88.5L197.3646875,88.5L197.5845541666667,88.5L197.80442083333332,88.5L198.0242875,88.5L198.24415416666665,88.5L198.46402083333334,88.5L198.6838875,88.5L198.90375416666666,88.5L199.12362083333332,88.5L199.3434875,88.5L199.56335416666667,88.5L199.78322083333333,88.5L200.00308750000002,88.5L200.22295416666665,88.5L200.44282083333334,88.5L200.6626875,88.5L200.88255416666667,88.5L201.10242083333333,88.5L201.32228750000002,88.5L201.54215416666665,88.5L201.76202083333334,88.5L201.9818875,88.5L202.20175416666666,88.5L202.42162083333335,88.5L202.64148749999998,88.5L202.86135416666667,88.5L203.08122083333333,88.5L203.3010875,88.5L203.52095416666666,88.5L203.74082083333334,88.5L203.9606875,88.5L204.18055416666667,88.5L204.40042083333336,88.5L204.6202875,88.5L204.84015416666668,88.5L205.0600208333333,88.5L205.2798875,88.5L205.49975416666666,88.5L205.71962083333332,88.5L205.93948749999998,88.5L206.15935416666667,88.5L206.37922083333333,88.5L206.5990875,88.5L206.81895416666669,88.5L207.03882083333332,88.5L207.2586875,88.5L207.47855416666667,88.5L207.69842083333333,88.5L207.9182875,88.5L208.13815416666668,88.5L208.35802083333334,88.5L208.5778875,88.5L208.79775416666666,88.5L209.01762083333332,88.5L209.23748750000001,88.5L209.45735416666665,88.5L209.67722083333334,88.5L209.8970875,88.5L210.11695416666666,88.5L210.33682083333332,88.5L210.5566875,88.5L210.77655416666667,88.5L210.99642083333333,88.5L211.21628750000002,88.5L211.43615416666665,88.5L211.65602083333334,88.5L211.8758875,88.5L212.09575416666667,88.5L212.31562083333333,88.5L212.5354875,88.5L212.75535416666665,88.5L212.97522083333334,88.5L213.1950875,88.5L213.41495416666666,88.5L213.63482083333335,88.5L213.85468749999998,88.5L214.07455416666667,88.5L214.29442083333333,88.5L214.5142875,88.5L214.73415416666666,88.5L214.95402083333335,88.5L215.1738875,88.5L215.39375416666667,88.5L215.61362083333336,88.5L215.8334875,88.5L216.05335416666668,88.5L216.2732208333333,88.5L216.4930875,88.5L216.71295416666666,88.5L216.93282083333332,88.5L217.15268749999998,88.5L217.37255416666667,88.5L217.59242083333334,88.5L217.8122875,88.5L218.0321541666667,88.5L218.25202083333332,88.5L218.4718875,88.5L218.69175416666667,88.5L218.91162083333333,88.5L219.1314875,88.5L219.35135416666668,88.5L219.57122083333334,88.5L219.7910875,88.5L220.01095416666666,88.5L220.23082083333333,88.5L220.45068750000002,88.5L220.67055416666665,88.5L220.89042083333334,88.5L221.1102875,88.5L221.33015416666666,88.5L221.55002083333332,88.5L221.7698875,88.5L221.98975416666667,88.5L222.20962083333333,88.5L222.42948750000002,88.5L222.64935416666665,88.5L222.86922083333334,88.5L223.0890875,88.5L223.30895416666667,88.5L223.52882083333333,88.5L223.7486875,88.5L223.96855416666668,88.5L224.18842083333334,88.5L224.4082875,88.5L224.62815416666666,88.5L224.84802083333335,88.5L225.06788749999998,88.5L225.28775416666667,88.5L225.50762083333333,88.5L225.7274875,88.5L225.94735416666666,88.5L226.16722083333335,88.5L226.3870875,88.5L226.60695416666667,88.5L226.82682083333336,88.5L227.0466875,88.5L227.26655416666668,88.5L227.4864208333333,88.5L227.7062875,88.5L227.92615416666666,88.5L228.14602083333332,88.5L228.36588749999999,88.5L228.58575416666667,88.5L228.80562083333334,88.5L229.0254875,88.5L229.2453541666667,88.5L229.46522083333332,88.5L229.6850875,88.5L229.90495416666667,88.5L230.12482083333333,88.5L230.3446875,88.5L230.56455416666665,88.5L230.78442083333334,88.5L231.0042875,88.5L231.22415416666666,88.5L231.44402083333333,88.5L231.66388750000002,88.5L231.88375416666665,88.5L232.10362083333334,88.5L232.3234875,88.5L232.54335416666666,88.5L232.76322083333332,88.5L232.9830875,88.5L233.20295416666667,88.5L233.42282083333333,88.5L233.64268750000002,88.5L233.86255416666665,88.5L234.08242083333334,88.5L234.30228749999998,88.5L234.52215416666667,88.5L234.74202083333333,88.5L234.9618875,88.5L235.18175416666668,88.5L235.40162083333334,88.5L235.6214875,88.5L235.84135416666666,88.5L236.06122083333335,88.5L236.28108749999998,88.5" style="fill: none;" fill="none"></path></g></g></g></g></g></g><g transform="translate(72, 177)" clip-path="url(#clip_1)"><clipPath id="clip_1"><rect width="257" height="23"></rect></clipPath><g><g><line x1="0" y1="0" x2="0" y2="5" style="visibility: inherit;" fill="rgb(0, 0, 0)" stroke="rgb(204, 204, 204)" stroke-width="1px"></line><line x1="21.471354166666664" y1="0" x2="21.471354166666664" y2="5" style="visibility: inherit;" fill="rgb(0, 0, 0)" stroke="rgb(204, 204, 204)" stroke-width="1px"></line><line x1="42.94270833333333" y1="0" x2="42.94270833333333" y2="5" style="visibility: inherit;" fill="rgb(0, 0, 0)" stroke="rgb(204, 204, 204)" stroke-width="1px"></line><line x1="64.4140625" y1="0" x2="64.4140625" y2="5" style="visibility: inherit;" fill="rgb(0, 0, 0)" stroke="rgb(204, 204, 204)" stroke-width="1px"></line><line x1="85.88541666666666" y1="0" x2="85.88541666666666" y2="5" style="visibility: inherit;" fill="rgb(0, 0, 0)" stroke="rgb(204, 204, 204)" stroke-width="1px"></line><line x1="107.35677083333334" y1="0" x2="107.35677083333334" y2="5" style="visibility: inherit;" fill="rgb(0, 0, 0)" stroke="rgb(204, 204, 204)" stroke-width="1px"></line><line x1="128.828125" y1="0" x2="128.828125" y2="5" style="visibility: inherit;" fill="rgb(0, 0, 0)" stroke="rgb(204, 204, 204)" stroke-width="1px"></line><line x1="150.29947916666669" y1="0" x2="150.29947916666669" y2="5" style="visibility: inherit;" fill="rgb(0, 0, 0)" stroke="rgb(204, 204, 204)" stroke-width="1px"></line><line x1="171.77083333333331" y1="0" x2="171.77083333333331" y2="5" style="visibility: inherit;" fill="rgb(0, 0, 0)" stroke="rgb(204, 204, 204)" stroke-width="1px"></line><line x1="193.2421875" y1="0" x2="193.2421875" y2="5" style="visibility: inherit;" fill="rgb(0, 0, 0)" stroke="rgb(204, 204, 204)" stroke-width="1px"></line><line x1="214.71354166666669" y1="0" x2="214.71354166666669" y2="5" style="visibility: inherit;" fill="rgb(0, 0, 0)" stroke="rgb(204, 204, 204)" stroke-width="1px"></line><line x1="236.18489583333331" y1="0" x2="236.18489583333331" y2="5" style="visibility: inherit;" fill="rgb(0, 0, 0)" stroke="rgb(204, 204, 204)" stroke-width="1px"></line><line x1="257.65625" y1="0" x2="257.65625" y2="5" style="visibility: inherit;" fill="rgb(0, 0, 0)" stroke="rgb(204, 204, 204)" stroke-width="1px"></line></g><g transform="translate(0, 8)"><text x="0" y="0" dx="0em" dy="0.95em" style="text-anchor: middle; visibility: hidden; font-family: Roboto, sans-serif; font-size: 12px; font-weight: 200;" fill="rgb(33, 33, 33)" stroke="none" stroke-width="1px">-200k</text><text x="21.471354166666664" y="0" dx="0em" dy="0.95em" style="text-anchor: middle; visibility: inherit; font-family: Roboto, sans-serif; font-size: 12px; font-weight: 200;" fill="rgb(33, 33, 33)" stroke="none" stroke-width="1px">0</text><text x="42.94270833333333" y="0" dx="0em" dy="0.95em" style="text-anchor: middle; visibility: hidden; font-family: Roboto, sans-serif; font-size: 12px; font-weight: 200;" fill="rgb(33, 33, 33)" stroke="none" stroke-width="1px">200k</text><text x="64.4140625" y="0" dx="0em" dy="0.95em" style="text-anchor: middle; visibility: inherit; font-family: Roboto, sans-serif; font-size: 12px; font-weight: 200;" fill="rgb(33, 33, 33)" stroke="none" stroke-width="1px">400k</text><text x="85.88541666666666" y="0" dx="0em" dy="0.95em" style="text-anchor: middle; visibility: hidden; font-family: Roboto, sans-serif; font-size: 12px; font-weight: 200;" fill="rgb(33, 33, 33)" stroke="none" stroke-width="1px">600k</text><text x="107.35677083333334" y="0" dx="0em" dy="0.95em" style="text-anchor: middle; visibility: inherit; font-family: Roboto, sans-serif; font-size: 12px; font-weight: 200;" fill="rgb(33, 33, 33)" stroke="none" stroke-width="1px">800k</text><text x="128.828125" y="0" dx="0em" dy="0.95em" style="text-anchor: middle; visibility: hidden; font-family: Roboto, sans-serif; font-size: 12px; font-weight: 200;" fill="rgb(33, 33, 33)" stroke="none" stroke-width="1px">1M</text><text x="150.29947916666669" y="0" dx="0em" dy="0.95em" style="text-anchor: middle; visibility: inherit; font-family: Roboto, sans-serif; font-size: 12px; font-weight: 200;" fill="rgb(33, 33, 33)" stroke="none" stroke-width="1px">1.2M</text><text x="171.77083333333331" y="0" dx="0em" dy="0.95em" style="text-anchor: middle; visibility: hidden; font-family: Roboto, sans-serif; font-size: 12px; font-weight: 200;" fill="rgb(33, 33, 33)" stroke="none" stroke-width="1px">1.4M</text><text x="193.2421875" y="0" dx="0em" dy="0.95em" style="text-anchor: middle; visibility: inherit; font-family: Roboto, sans-serif; font-size: 12px; font-weight: 200;" fill="rgb(33, 33, 33)" stroke="none" stroke-width="1px">1.6M</text><text x="214.71354166666669" y="0" dx="0em" dy="0.95em" style="text-anchor: middle; visibility: hidden; font-family: Roboto, sans-serif; font-size: 12px; font-weight: 200;" fill="rgb(33, 33, 33)" stroke="none" stroke-width="1px">1.8M</text><text x="236.18489583333331" y="0" dx="0em" dy="0.95em" style="text-anchor: middle; visibility: inherit; font-family: Roboto, sans-serif; font-size: 12px; font-weight: 200;" fill="rgb(33, 33, 33)" stroke="none" stroke-width="1px">2M</text><text x="257.65625" y="0" dx="0em" dy="0.95em" style="text-anchor: middle; visibility: hidden; font-family: Roboto, sans-serif; font-size: 12px; font-weight: 200;" fill="rgb(33, 33, 33)" stroke="none" stroke-width="1px">2.2M</text></g><line x1="0" y1="0" x2="257.65625" y2="0" fill="rgb(0, 0, 0)" stroke="rgb(204, 204, 204)" stroke-width="1px"></line></g></g></g></g></svg>