<svg viewBox="0 0 330 200" xmlns="http://www.w3.org/2000/svg"><g><g><g><g><g><line x1="61.953125" y1="177" x2="56.953125" y2="177" style="visibility: inherit;" fill="rgb(0, 0, 0)" stroke="rgb(204, 204, 204)" stroke-width="1px"></line><line x1="61.953125" y1="164.35714285714286" x2="56.953125" y2="164.35714285714286" style="visibility: inherit;" fill="rgb(0, 0, 0)" stroke="rgb(204, 204, 204)" stroke-width="1px"></line><line x1="61.953125" y1="151.71428571428572" x2="56.953125" y2="151.71428571428572" style="visibility: inherit;" fill="rgb(0, 0, 0)" stroke="rgb(204, 204, 204)" stroke-width="1px"></line><line x1="61.953125" y1="139.07142857142856" x2="56.953125" y2="139.07142857142856" style="visibility: inherit;" fill="rgb(0, 0, 0)" stroke="rgb(204, 204, 204)" stroke-width="1px"></line><line x1="61.953125" y1="126.42857142857144" x2="56.953125" y2="126.42857142857144" style="visibility: inherit;" fill="rgb(0, 0, 0)" stroke="rgb(204, 204, 204)" stroke-width="1px"></line><line x1="61.953125" y1="113.78571428571428" x2="56.953125" y2="113.78571428571428" style="visibility: inherit;" fill="rgb(0, 0, 0)" stroke="rgb(204, 204, 204)" stroke-width="1px"></line><line x1="61.953125" y1="101.14285714285715" x2="56.953125" y2="101.14285714285715" style="visibility: inherit;" fill="rgb(0, 0, 0)" stroke="rgb(204, 204, 204)" stroke-width="1px"></line><line x1="61.953125" y1="88.50000000000001" x2="56.953125" y2="88.50000000000001" style="visibility: inherit;" fill="rgb(0, 0, 0)" stroke="rgb(204, 204, 204)" stroke-width="1px"></line><line x1="61.953125" y1="75.85714285714286" x2="56.953125" y2="75.85714285714286" style="visibility: inherit;" fill="rgb(0, 0, 0)" stroke="rgb(204, 204, 204)" stroke-width="1px"></line><line x1="61.953125" y1="63.21428571428572" x2="56.953125" y2="63.21428571428572" style="visibility: inherit;" fill="rgb(0, 0, 0)" stroke="rgb(204, 204, 204)" stroke-width="1px"></line><line x1="61.953125" y1="50.57142857142859" x2="56.953125" y2="50.57142857142859" style="visibility: inherit;" fill="rgb(0, 0, 0)" stroke="rgb(204, 204, 204)" stroke-width="1px"></line><line x1="61.953125" y1="37.92857142857143" x2="56.953125" y2="37.92857142857143" style="visibility: inherit;" fill="rgb(0, 0, 0)" stroke="rgb(204, 204, 204)" stroke-width="1px"></line><line x1="61.953125" y1="25.285714285714295" x2="56.953125" y2="25.285714285714295" style="visibility: inherit;" fill="rgb(0, 0, 0)" stroke="rgb(204, 204, 204)" stroke-width="1px"></line><line x1="61.953125" y1="12.642857142857157" x2="56.953125" y2="12.642857142857157" style="visibility: inherit;" fill="rgb(0, 0, 0)" stroke="rgb(204, 204, 204)" stroke-width="1px"></line><line x1="61.953125" y1="0" x2="56.953125" y2="0" style="visibility: inherit;" fill="rgb(0, 0, 0)" stroke="rgb(204, 204, 204)" stroke-width="1px"></line></g><g transform="translate(51.953125, 0)"><text x="0" y="177" dx="0em" dy="0.3em" style="text-anchor: end; visibility: hidden; font-family: Roboto, sans-serif; font-size: 12px; font-weight: 200;" fill="rgb(33, 33, 33)" stroke="none" stroke-width="1px">0.01</text><text x="0" y="164.35714285714286" dx="0em" dy="0.3em" style="text-anchor: end; visibility: inherit; font-family: Roboto, sans-serif; font-size: 12px; font-weight: 200;" fill="rgb(33, 33, 33)" stroke="none" stroke-width="1px">0.015</text><text x="0" y="151.71428571428572" dx="0em" dy="0.3em" style="text-anchor: end; visibility: hidden; font-family: Roboto, sans-serif; font-size: 12px; font-weight: 200;" fill="rgb(33, 33, 33)" stroke="none" stroke-width="1px">0.02</text><text x="0" y="139.07142857142856" dx="0em" dy="0.3em" style="text-anchor: end; visibility: inherit; font-family: Roboto, sans-serif; font-size: 12px; font-weight: 200;" fill="rgb(33, 33, 33)" stroke="none" stroke-width="1px">0.025</text><text x="0" y="126.42857142857144" dx="0em" dy="0.3em" style="text-anchor: end; visibility: hidden; font-family: Roboto, sans-serif; font-size: 12px; font-weight: 200;" fill="rgb(33, 33, 33)" stroke="none" stroke-width="1px">0.03</text><text x="0" y="113.78571428571428" dx="0em" dy="0.3em" style="text-anchor: end; visibility: inherit; font-family: Roboto, sans-serif; font-size: 12px; font-weight: 200;" fill="rgb(33, 33, 33)" stroke="none" stroke-width="1px">0.035</text><text x="0" y="101.14285714285715" dx="0em" dy="0.3em" style="text-anchor: end; visibility: hidden; font-family: Roboto, sans-serif; font-size: 12px; font-weight: 200;" fill="rgb(33, 33, 33)" stroke="none" stroke-width="1px">0.04</text><text x="0" y="88.50000000000001" dx="0em" dy="0.3em" style="text-anchor: end; visibility: inherit; font-family: Roboto, sans-serif; font-size: 12px; font-weight: 200;" fill="rgb(33, 33, 33)" stroke="none" stroke-width="1px">0.045</text><text x="0" y="75.85714285714286" dx="0em" dy="0.3em" style="text-anchor: end; visibility: hidden; font-family: Roboto, sans-serif; font-size: 12px; font-weight: 200;" fill="rgb(33, 33, 33)" stroke="none" stroke-width="1px">0.05</text><text x="0" y="63.21428571428572" dx="0em" dy="0.3em" style="text-anchor: end; visibility: inherit; font-family: Roboto, sans-serif; font-size: 12px; font-weight: 200;" fill="rgb(33, 33, 33)" stroke="none" stroke-width="1px">0.055</text><text x="0" y="50.57142857142859" dx="0em" dy="0.3em" style="text-anchor: end; visibility: hidden; font-family: Roboto, sans-serif; font-size: 12px; font-weight: 200;" fill="rgb(33, 33, 33)" stroke="none" stroke-width="1px">0.06</text><text x="0" y="37.92857142857143" dx="0em" dy="0.3em" style="text-anchor: end; visibility: inherit; font-family: Roboto, sans-serif; font-size: 12px; font-weight: 200;" fill="rgb(33, 33, 33)" stroke="none" stroke-width="1px">0.065</text><text x="0" y="25.285714285714295" dx="0em" dy="0.3em" style="text-anchor: end; visibility: hidden; font-family: Roboto, sans-serif; font-size: 12px; font-weight: 200;" fill="rgb(33, 33, 33)" stroke="none" stroke-width="1px">0.07</text><text x="0" y="12.642857142857157" dx="0em" dy="0.3em" style="text-anchor: end; visibility: inherit; font-family: Roboto, sans-serif; font-size: 12px; font-weight: 200;" fill="rgb(33, 33, 33)" stroke="none" stroke-width="1px">0.075</text><text x="0" y="0" dx="0em" dy="0.3em" style="text-anchor: end; visibility: hidden; font-family: Roboto, sans-serif; font-size: 12px; font-weight: 200;" fill="rgb(33, 33, 33)" stroke="none" stroke-width="1px">0.08</text></g><line x1="61.953125" y1="0" x2="61.953125" y2="177" fill="rgb(0, 0, 0)" stroke="rgb(204, 204, 204)" stroke-width="1px"></line></g></g><g transform="translate(61, 0)" clip-path="url(#clip_0)"><clipPath id="clip_0"><rect width="268" height="177"></rect></clipPath><g><g><g><line x1="0" y1="0" x2="0" y2="177" fill="rgb(0, 0, 0)" stroke="rgb(66, 66, 66)" stroke-width="1px" opacity="0.25"></line><line x1="22.337239583333332" y1="0" x2="22.337239583333332" y2="177" fill="rgb(0, 0, 0)" stroke="rgb(66, 66, 66)" stroke-width="1px" opacity="0.25"></line><line x1="44.674479166666664" y1="0" x2="44.674479166666664" y2="177" fill="rgb(0, 0, 0)" stroke="rgb(66, 66, 66)" stroke-width="1px" opacity="0.25"></line><line x1="67.01171875" y1="0" x2="67.01171875" y2="177" fill="rgb(0, 0, 0)" stroke="rgb(66, 66, 66)" stroke-width="1px" opacity="0.25"></line><line x1="89.34895833333333" y1="0" x2="89.34895833333333" y2="177" fill="rgb(0, 0, 0)" stroke="rgb(66, 66, 66)" stroke-width="1px" opacity="0.25"></line><line x1="111.68619791666667" y1="0" x2="111.68619791666667" y2="177" fill="rgb(0, 0, 0)" stroke="rgb(66, 66, 66)" stroke-width="1px" opacity="0.25"></line><line x1="134.0234375" y1="0" x2="134.0234375" y2="177" fill="rgb(0, 0, 0)" stroke="rgb(66, 66, 66)" stroke-width="1px" opacity="0.25"></line><line x1="156.36067708333334" y1="0" x2="156.36067708333334" y2="177" fill="rgb(0, 0, 0)" stroke="rgb(66, 66, 66)" stroke-width="1px" opacity="0.25"></line><line x1="178.69791666666666" y1="0" x2="178.69791666666666" y2="177" fill="rgb(0, 0, 0)" stroke="rgb(66, 66, 66)" stroke-width="1px" opacity="0.25"></line><line x1="201.03515625" y1="0" x2="201.03515625" y2="177" fill="rgb(0, 0, 0)" stroke="rgb(66, 66, 66)" stroke-width="1px" opacity="0.25"></line><line x1="223.37239583333334" y1="0" x2="223.37239583333334" y2="177" fill="rgb(0, 0, 0)" stroke="rgb(66, 66, 66)" stroke-width="1px" opacity="0.25"></line><line x1="245.70963541666666" y1="0" x2="245.70963541666666" y2="177" fill="rgb(0, 0, 0)" stroke="rgb(66, 66, 66)" stroke-width="1px" opacity="0.25"></line><line x1="268.046875" y1="0" x2="268.046875" y2="177" fill="rgb(0, 0, 0)" stroke="rgb(66, 66, 66)" stroke-width="1px" opacity="0.25"></line></g><g><line x1="0" y1="177" x2="268.046875" y2="177" fill="rgb(0, 0, 0)" stroke="rgb(66, 66, 66)" stroke-width="1px" opacity="0.25"></line><line x1="0" y1="164.35714285714286" x2="268.046875" y2="164.35714285714286" fill="rgb(0, 0, 0)" stroke="rgb(66, 66, 66)" stroke-width="1px" opacity="0.25"></line><line x1="0" y1="151.71428571428572" x2="268.046875" y2="151.71428571428572" fill="rgb(0, 0, 0)" stroke="rgb(66, 66, 66)" stroke-width="1px" opacity="0.25"></line><line x1="0" y1="139.07142857142856" x2="268.046875" y2="139.07142857142856" fill="rgb(0, 0, 0)" stroke="rgb(66, 66, 66)" stroke-width="1px" opacity="0.25"></line><line x1="0" y1="126.42857142857144" x2="268.046875" y2="126.42857142857144" fill="rgb(0, 0, 0)" stroke="rgb(66, 66, 66)" stroke-width="1px" opacity="0.25"></line><line x1="0" y1="113.78571428571428" x2="268.046875" y2="113.78571428571428" fill="rgb(0, 0, 0)" stroke="rgb(66, 66, 66)" stroke-width="1px" opacity="0.25"></line><line x1="0" y1="101.14285714285715" x2="268.046875" y2="101.14285714285715" fill="rgb(0, 0, 0)" stroke="rgb(66, 66, 66)" stroke-width="1px" opacity="0.25"></line><line x1="0" y1="88.50000000000001" x2="268.046875" y2="88.50000000000001" fill="rgb(0, 0, 0)" stroke="rgb(66, 66, 66)" stroke-width="1px" opacity="0.25"></line><line x1="0" y1="75.85714285714286" x2="268.046875" y2="75.85714285714286" fill="rgb(0, 0, 0)" stroke="rgb(66, 66, 66)" stroke-width="1px" opacity="0.25"></line><line x1="0" y1="63.21428571428572" x2="268.046875" y2="63.21428571428572" fill="rgb(0, 0, 0)" stroke="rgb(66, 66, 66)" stroke-width="1px" opacity="0.25"></line><line x1="0" y1="50.57142857142859" x2="268.046875" y2="50.57142857142859" fill="rgb(0, 0, 0)" stroke="rgb(66, 66, 66)" stroke-width="1px" opacity="0.25"></line><line x1="0" y1="37.92857142857143" x2="268.046875" y2="37.92857142857143" fill="rgb(0, 0, 0)" stroke="rgb(66, 66, 66)" stroke-width="1px" opacity="0.25"></line><line x1="0" y1="25.285714285714295" x2="268.046875" y2="25.285714285714295" fill="rgb(0, 0, 0)" stroke="rgb(66, 66, 66)" stroke-width="1px" opacity="0.25"></line><line x1="0" y1="12.642857142857157" x2="268.046875" y2="12.642857142857157" fill="rgb(0, 0, 0)" stroke="rgb(66, 66, 66)" stroke-width="1px" opacity="0.25"></line><line x1="0" y1="0" x2="268.046875" y2="0" fill="rgb(0, 0, 0)" stroke="rgb(66, 66, 66)" stroke-width="1px" opacity="0.25"></line></g></g></g><g><g><line x1="0" y1="202.28571428571428" x2="268.046875" y2="202.28571428571428" fill="rgb(0, 0, 0)" stroke="rgb(153, 153, 153)" stroke-width="1.5px"></line></g></g><g><g><line x1="22.337239583333332" y1="0" x2="22.337239583333332" y2="177" fill="rgb(0, 0, 0)" stroke="rgb(153, 153, 153)" stroke-width="1.5px"></line></g></g><g><g><g><g><g><path stroke="rgb(255, 112, 67)" stroke-width="2px" d="M24.85330625,195.74003333416312L25.082039583333334,176.8323507706753L25.310772916666668,167.22578102477533L25.539506250000002,164.12386109894837L25.768239583333333,158.89153627155957L25.996972916666667,116.65662975249623L26.225706249999998,137.22435723804497L26.454439583333333,127.93206254831232L26.683172916666667,115.54427850498185L26.91190625,113.69208730327412L27.140639583333332,119.52795681330939L27.369372916666666,122.0696908960778L27.598106249999997,114.0810427740766L27.82683958333333,98.00093610304938L28.05557291666667,87.21246043532433L28.28430625,97.63932524046412L28.513039583333335,107.50998946901072L28.741772916666665,106.4742989448473L28.97050625,102.63482515516688L29.19923958333333,17.226839200097988L29.42797291666667,53.991336366096654L29.65670625,74.68437413310663L29.885439583333334,92.14901402670635L30.114172916666664,92.66363227231956L30.34290625,94.13380995862337L30.571639583333337,111.63515568259844L30.800372916666667,103.42390091752917L31.02910625,134.35751754009428L31.257839583333332,126.19008038225294L31.486572916666667,120.8070299509534L31.715306249999998,77.89295985057153L31.944039583333335,89.79392967180635L32.172772916666666,95.01693953603117L32.40150625,103.75763007033822L32.630239583333335,110.01153079226623L32.858972916666666,110.42379450537086L33.08770625,111.91689934583272L33.316439583333334,111.15942306836084L33.545172916666665,111.44259484890947L33.77390625,93.21983048719903L34.002639583333334,100.18889627276603L34.231372916666665,102.39947103938357L34.46010625,110.70534882238479L34.68883958333333,102.90351467900689L34.917572916666664,116.74517846706044L35.146306249999995,111.75980143905882L35.37503958333333,97.44599004823996L35.60377291666667,104.27640983519817L35.83250625,110.85042032804327L36.06123958333333,112.22863924200517L36.28997291666666,111.63029274418207L36.51870625,108.70907632923098L36.74743958333334,104.40866685161568L36.97617291666666,108.84087015709463L37.20490625,104.0875054518225L37.43363958333333,107.24532180376477L37.66237291666667,89.61849181774117L37.89110625000001,91.15237236573019L38.11983958333333,91.66559041217057L38.34857291666667,94.80201231473313L38.57730625,106.61933372125914L38.80603958333334,109.32145993363963L39.03477291666666,103.847152494673L39.26350625,111.55460594066453L39.49223958333334,110.43064223849717L39.72097291666667,96.92189081555401L39.94970625,108.85414626966251L40.17843958333333,108.7913763960705L40.40717291666667,99.60051527605349L40.635906250000005,114.84777900227584L40.864639583333336,110.80535414605546L41.09337291666667,107.78728941808811L41.32210625,107.06581572304002L41.550839583333335,107.2908911715821L41.779572916666666,103.59567555083656L42.00830625,104.90870415317737L42.237039583333335,112.77510387389495L42.465772916666666,113.1697963500197L42.69450625,105.80939018870447L42.92323958333333,108.81590091587422L43.151972916666665,96.89959400705715L43.38070625,92.40280885414187L43.609439583333334,103.00710994551126L43.83817291666667,105.13020942368405L44.066906249999995,108.16260708426412L44.29563958333333,73.41789957062248L44.52437291666667,75.79709948576428L44.75310625,88.48378390443202L44.98183958333333,88.68895559362271L45.21057291666666,118.62503455874061L45.43930625,121.58382704562558L45.66803958333333,116.93709306967796L45.89677291666666,103.72183281640308L46.12550625,86.08117029770838L46.35423958333333,112.93446072845153L46.58297291666667,113.48623749729518L46.81170625,109.94001971297236L47.04043958333333,101.60640431326576L47.26917291666667,103.91595354605882L47.49790625,107.70648527188315L47.72663958333334,107.61946821238527L47.95537291666666,106.18665193845673L48.18410625,110.32001635969445L48.41283958333333,109.554848206712L48.64157291666667,114.0079581881176L48.870306250000006,97.22781395411724L49.09903958333333,68.56841813877111L49.32777291666667,71.98312301591822L49.55650625,71.20188743564955L49.785239583333336,90.11016072448177L50.01397291666667,90.33787309724312L50.24270625,108.5699587559594L50.471439583333336,111.91409850862414L50.700172916666666,112.52683400871715L50.92890625,84.89610316271147L51.157639583333335,83.26415228622464L51.386372916666666,90.8312833977096L51.615106250000004,96.36006899481562L51.843839583333335,114.03501617792575L52.072572916666665,87.93259922026166L52.301306249999996,105.53802138354946L52.530039583333334,88.78268567537069L52.75877291666667,121.2041144700592L52.987506249999996,119.77003794331394L53.21623958333333,130.0208150437332L53.444972916666664,137.49570093866754L53.67370625,129.5923142094408L53.90243958333334,147.39935688983508L54.131172916666664,126.91526027549824L54.35990625,129.38482583267916L54.58863958333333,123.12188435360703L54.81737291666667,132.68861655282498L55.046106249999994,102.28217006684424L55.27483958333333,111.94112126378297L55.50357291666667,143.74971167908103L55.73230625,116.88499813476795L55.96103958333333,103.84080817052055L56.18977291666666,118.62889961876044L56.41850625,153.9970197672018L56.64723958333334,132.71076756852506L56.87597291666667,137.04198868867624L57.10470625,124.43337689687364L57.33343958333333,179.54335926255743L57.56217291666667,172.32200933521827L57.790906250000006,118.31089348042086L58.01963958333333,116.38402160330205L58.24837291666667,109.70740347101443L58.47710625,67.26492884070454L58.705839583333336,113.0114905495094L58.93457291666666,127.64820413598441L59.16330625,145.0277166040141L59.392039583333336,148.84490079283535L59.62077291666667,159.02548242483715L59.849506250000005,152.87416312193807L60.07823958333333,155.36254964187447L60.306972916666666,147.8461038022407L60.535706250000004,123.48435009414958L60.764439583333335,138.90327114570573L60.993172916666666,96.19467966467911L61.221906249999996,98.06149586011293L61.450639583333334,79.7661085740032L61.679372916666665,99.83126130365572L61.90810625,129.58112722689995L62.136839583333334,153.2195726346847L62.365572916666665,131.7860063278942L62.59430625,166.94842182695763L62.82303958333333,141.90935837004804L63.051772916666664,158.5740270371263L63.28050625,150.8490924961667L63.50923958333333,154.97890929572162L63.73797291666667,147.1795706794489L63.966706249999994,137.32503094265118L64.19543958333334,122.82712109593389L64.42417291666666,124.72957999191529L64.65290625,144.32394831416684L64.88163958333334,145.22031624595076L65.11037291666666,132.5413707157188L65.33910625,129.07413350872903L65.56783958333332,104.32740022057209L65.79657291666666,105.79940047366057L66.02530625,119.34220517492162L66.25403958333334,119.34648096366531L66.48277291666666,110.76367957475073L66.71150625,115.69210330552374L66.94023958333334,104.6993757174233L67.16897291666668,60.95644811733055L67.39770625,65.67181134530853L67.62643958333332,66.6325299349535L67.85517291666667,56.7802340750163L68.08390625,76.49136372251048L68.31263958333334,90.4798314732306L68.54137291666667,112.51017215195681L68.77010625,87.93458015612507L68.99883958333334,114.16991175944655L69.22757291666666,105.63309837762401L69.45630625000001,64.93169373247214L69.68503958333334,93.98698395134066L69.91377291666666,114.47405791579605L70.14250625000001,100.77798064955002L70.37123958333333,124.0220074132983L70.59997291666666,60.798869919192185L70.82870625,66.0705834610019L71.05743958333333,64.46819673503535L71.28617291666667,99.30751120846243L71.51490625,67.690196032699L71.74363958333333,50.14580820352968L71.97237291666667,74.77257265743012L72.20110625,78.29230029470138L72.42983958333335,78.81005867686005L72.65857291666667,74.90076514189833L72.88730625,98.94212064465265L73.11603958333333,103.64740956276032L73.34477291666667,80.65498020235607L73.57350625,77.27745843434961L73.80223958333333,83.81822648349184L74.03097291666667,82.36097031228837L74.25970625000001,91.2564193842681L74.48843958333333,53.59752579982878L74.71717291666666,72.61015062263233L74.94590625000001,81.32771101774007L75.17463958333333,59.41370347079945L75.40337291666667,84.31760103069135L75.63210625,66.23427087744368L75.86083958333333,75.26425219157937L76.08957291666667,72.35984095510176L76.31830624999999,73.53352175783627L76.54703958333333,78.89348514626758L76.77577291666667,104.1753468839206L77.00450624999999,98.39133626984821L77.23323958333334,109.23803335544967L77.46197291666667,53.85329180685328L77.69070624999999,77.3953713690328L77.91943958333334,91.33493871693621L78.14817291666667,93.97490026476865L78.37690625,78.38109002578277L78.60563958333333,85.92171931818223L78.83437291666667,102.8893355607013L79.06310625,112.05909261493291L79.29183958333333,93.22090037356006L79.52057291666667,53.31416218436729L79.74930625,48.80102944944483L79.97803958333333,69.10045720170164L80.20677291666667,88.4135565274201L80.43550625,93.79854568577406L80.66423958333333,102.65631812398449L80.89297291666666,93.81044046120448L81.12170625,100.5676780226028L81.35043958333334,114.61548380319879L81.57917291666666,123.74420645394686L81.80790625,112.5502347962442L82.03663958333334,74.90558779677903L82.26537291666666,99.06811792432248L82.49410624999999,109.94884727295198L82.72283958333334,66.32868914031276L82.95157291666666,71.04549161158546L83.18030625,74.68207707144347L83.40903958333334,86.30467043175244L83.63777291666666,72.47460767624858L83.86650625,85.15724830881749L84.09523958333332,88.85084533299035L84.32397291666668,96.35786978622434L84.55270625,101.07477290420968L84.78143958333332,85.58199806292114L85.01017291666668,103.80193629175832L85.23890625,96.6922762497603L85.46763958333334,88.00011294169404L85.69637291666666,76.18924255335521L85.92510625,91.57167515597119L86.15383958333334,102.03482416194646L86.38257291666666,101.98951259038601L86.61130625,91.78661830720925L86.84003958333334,89.37625894928266L87.06877291666666,104.67570159596208L87.29750625000001,117.76773738889526L87.52623958333334,139.73967218416112L87.75497291666666,136.81373299200214L87.98370625,118.7553710011688L88.21243958333334,127.7084575915024L88.44117291666667,78.47888103694405L88.66990625,90.92974087595498L88.89863958333333,77.5903079943971L89.12737291666667,96.3474726733124L89.35610625,106.8949802841109L89.58483958333332,104.25867890696469L89.81357291666667,107.277009156487L90.04230625,99.14162730404234L90.27103958333333,55.82069929208031L90.49977291666667,74.8161496897763L90.72850625,25.464282526813083L90.95723958333333,81.00003965409267L91.18597291666667,80.80986107926853L91.41470625000001,67.13987979104606L91.64343958333333,72.06688112333282L91.87217291666666,71.06145818591465L92.10090625000001,76.39268229767463L92.32963958333333,143.2922092135919L92.55837291666666,114.72083697824144L92.78710625000001,113.11349393193998L93.01583958333333,113.19293743615113L93.24457291666667,93.48270296004273L93.47330625,85.59744768196174L93.70203958333333,90.42877428359373L93.93077291666667,69.65175316366646L94.15950624999999,89.00458807896858L94.38823958333334,91.45253981016278L94.61697291666667,94.84786546063032L94.84570624999999,101.92736856837037L95.07443958333334,110.1748551069777L95.30317291666667,112.40505847227202L95.53190624999999,119.36350884969012L95.76063958333333,134.9008323333475L95.98937291666667,104.85398014505158L96.21810625,136.00217453482844L96.44683958333333,135.8404924928305L96.67557291666667,118.70899554332753L96.90430625,116.79228605345712L97.13303958333333,117.82225664565459L97.36177291666667,140.91877928526608L97.59050625,121.6384102293933L97.81923958333333,120.82005848308624L98.04797291666667,155.31255908756728L98.27670625,120.84603290868226L98.50543958333334,109.73860441939063L98.73417291666667,114.53352107241511L98.96290624999999,110.74514794302269L99.19163958333334,107.93039550071616L99.42037291666666,116.4930306773523L99.64910624999999,149.8578892665929L99.87783958333334,131.44849954353728L100.10657291666666,101.7792432241344L100.33530625,117.45116134651154L100.56403958333334,129.49332489726677L100.79277291666666,146.7506089236942L101.02150625,153.89071917011267L101.25023958333333,165.61038062599513L101.47897291666668,189.00737182020333L101.70770625,94.12942897765491L101.93643958333332,129.32979705028922L102.16517291666668,119.58873145806137L102.39390625,114.34315250191638L102.62263958333332,106.97772542503462L102.85137291666666,114.51586425565728L103.08010625,127.12790166126092L103.30883958333334,167.94348868940966L103.53757291666666,156.19110347245666L103.76630625,100.64495835466192L103.99503958333334,111.25588285952044L104.22377291666666,95.21208056399193L104.45250625000001,147.79771222738094L104.68123958333334,201.16038782466623L105.13870625,193.11234677118108L105.36743958333334,164.51990697551992L105.59617291666666,170.5708746232174L105.82490625,120.72490020499126L106.05363958333334,136.6778397316068L106.28237291666667,90.40429718733097L106.51110625,101.89511598525887L106.73983958333332,141.3142403310104L106.96857291666667,131.8727069651991L107.19730625,148.82335694595207L107.42603958333333,154.93259127459203L107.65477291666667,130.979198807179L107.88350625,85.589133705062L108.11223958333333,127.9553388934081L108.34097291666667,89.3215973893678L108.56970625000001,71.90865772484996L108.79843958333333,57.28121630348037L109.02717291666666,125.94721900393357L109.25590625000001,57.423335086267805L109.48463958333333,111.95026045498943L109.71337291666666,111.6468358569519L109.94210625000001,170.09047033218172L110.17083958333333,166.77422366550428L110.39957291666667,192.8235407540424L110.62830625,135.69589813679085L110.85703958333333,142.40596766549126L111.08577291666667,176.83699229014297L111.31450625,170.6263284296365L111.54323958333335,161.58886811796256L111.77197291666667,147.87106024848052L112.00070625,125.80730708785262L112.22943958333333,139.3811828497749L112.45817291666667,124.1640215995134L112.68690624999999,148.73935753597146L112.91563958333333,207.06549478041552L113.60183958333333,202.34324283945384L113.83057291666667,161.76341436320948L114.05930625,146.43578619454658L114.28803958333333,162.566858409865L114.51677291666667,152.84298619143988L114.74550625,135.16201287302783L114.97423958333333,94.89363925163566L115.20297291666667,77.09765442740265L115.43170625,82.69525109335302L115.66043958333333,120.48751387786155L115.88917291666667,107.99705551397716L116.11790624999999,78.71186051055653L116.34663958333334,86.83939168878457L116.57537291666667,68.43339813964404L116.80410624999999,109.07502354597865L117.03283958333334,114.46893410504778L117.26157291666667,153.87220314600336L117.49030625,77.31771072677873L117.71903958333334,95.9391537994357L117.94777291666666,30.26210161814931L118.17650625,90.12470592208327L118.40523958333333,90.73411759992443L118.63397291666666,78.49610531740531L118.86270625,117.67407265296323L119.09143958333333,115.39708126692705L119.32017291666668,101.85610061693288L119.54890625,130.03817751122943L119.77763958333333,99.26879908595257L120.00637291666666,101.10451031214545L120.23510625,122.0966473335929L120.46383958333334,118.5102453249212L120.69257291666666,118.82837529968033L120.92130625,145.48889708172905L121.15003958333334,180.83726644989542L121.83623958333334,199.72791953924832L122.06497291666666,145.08417726610796L122.29370625,110.16568200195078L122.52243958333334,132.97282118357055L122.75117291666666,148.89515624327134L122.97990625,114.65861058676131L123.20863958333334,44.192411064341414L123.43737291666667,94.02276423613031L123.66610625,62.39716568442635L123.89483958333332,96.06846667695658L124.12357291666667,122.55924131664234L124.35230625,141.0556429857426L124.58103958333332,178.4478768454355L124.80977291666667,145.85369889757067L125.03850625,70.44923329161509L125.26723958333334,80.14082056339157L125.49597291666666,98.41420362539719L125.72470625,109.36563372189097L125.95343958333333,57.7073025201219L126.18217291666666,68.9096191513641L126.41090625000001,100.65686732800282L126.63963958333333,61.22981960083787L126.86837291666666,53.182439127598684L127.09710625000001,82.67908054362378L127.32583958333333,112.1393754894346L127.55457291666667,74.82829456758218L127.78330625,133.6874869726573L128.01203958333335,102.67019044703518L128.24077291666666,94.14563368339533L128.46950625,153.69041779897412L128.69823958333333,127.19922607186234L128.92697291666667,134.03516670576127L129.15570625,125.89189312081655L129.38443958333332,143.41260853200967L129.61317291666668,140.90414018590852L129.84190625,145.90842282952343L130.07063958333333,97.53238466575344L130.29937291666667,140.554068577598L130.52810625,165.99583871757756L130.75683958333332,155.18932441061767L130.98557291666668,94.45635805666642L131.21430625,200.2701828607332L131.44303958333333,159.26641660502025L131.67177291666667,125.76644904868371L131.90050625,178.69667567201682L132.12923958333334,145.1755550296967L132.35797291666665,167.15686806562164L132.58670625000002,156.7866124797364L132.81543958333333,185.73413345660057L133.04417291666667,164.87304329711796L133.27290625,182.22265783622453L133.50163958333334,152.60395461297216L133.73037291666665,111.62509543711226L133.95910625,63.49037169141428L134.18783958333333,57.88433311246123L134.41657291666667,96.9550692430871L134.64530625,94.86422680226534L134.87403958333334,130.4228479699177L135.10277291666665,104.04497289360573L135.33150625,123.0233134115654L135.56023958333336,101.66943934469927L135.78897291666667,136.69356779742802L136.01770625,139.60360404373913L136.24643958333334,103.1999620707137L136.47517291666665,113.20961997150626L136.70390625,88.46185907353224L136.93263958333335,145.390247920926L137.16137291666666,129.78511772653283L137.39010625,103.88569378742639L137.61883958333334,168.46556002005804L137.84757291666665,147.61899706528362L138.07630625000002,126.35321463997063L138.30503958333333,104.6316521039897L138.53377291666666,120.90336032509L138.76250625,198.63426979830803L138.9912395833333,152.64790151728613L139.21997291666668,141.66627652602023L139.44870625000001,172.9878716077944L139.67743958333332,117.7732071642006L139.90617291666666,166.99450520061995L140.13490625,133.13569765064108L140.36363958333334,71.84364489947977L140.59237291666668,111.43972198422173L140.82110625,116.24476591671188L141.04983958333332,142.97349485624926L141.27857291666666,62.338769481934555L141.50730625,84.90864162483405L141.73603958333334,117.40117779618514L141.96477291666667,147.81856468977423L142.19350624999998,127.9689483520246L142.42223958333332,108.99645116616996L142.6509729166667,132.17796020067416L142.87970625,165.61555943361077L143.10843958333334,136.93544932288617L143.33717291666667,147.21435061572183L143.56590624999998,119.31241451361119L143.79463958333332,107.65304779547313L144.0233729166667,128.9296181991824L144.25210625,126.45234590228883L144.48083958333333,91.92343379956945L144.70957291666667,110.79869185627975L144.93830624999998,123.36217814444673L145.16703958333335,104.25049202809522L145.39577291666666,94.03543641242686L145.62450625,87.45600752703899L145.85323958333333,86.44204006255345L146.08197291666664,105.8707438908515L146.31070625,94.98293062122791L146.53943958333335,91.46037497222841L146.76817291666666,41.628609223623755L146.99690625,65.23317312378695L147.22563958333333,73.28455493301418L147.45437291666667,104.75605874585412L147.68310625,129.93027079896513L147.91183958333335,94.43369676860286L148.14057291666666,117.90986539239951L148.36930625,93.23906557322134L148.59803958333336,118.56392640720446L148.82677291666667,106.87334738114431L149.05550625,110.67337550229065L149.28423958333332,99.3342783847397L149.51297291666666,148.09652064521498L149.74170625,189.09754777291477L149.97043958333333,178.33617788925633L150.19917291666667,113.89028520296647L150.42790625,96.97562921079096L150.65663958333332,98.11463585940825L150.88537291666665,90.70755945285285L151.11410625000002,83.97594824048527L151.34283958333333,102.03807214863687L151.57157291666667,110.2136663400898L151.80030625,99.83155850875707L152.02903958333332,108.1665089250959L152.25777291666668,147.20016254739676L152.48650625000002,96.94418478037373L152.71523958333333,107.4070378713763L152.94397291666667,92.23438445509069L153.17270624999998,111.22917876112814L153.40143958333334,106.73048772324708L153.63017291666668,83.23820435095439L153.85890625,160.61381701539267L154.08763958333333,139.47919407178009L154.31637291666667,114.06146902256633L154.54510625,102.10961491115944L154.77383958333334,115.22101040885822L155.00257291666668,90.79585769980451L155.23130625,118.62877975060695L155.46003958333333,95.83787101939667L155.6887729166667,78.15950195537928L155.91750625,88.09054016030557L156.14623958333334,79.88940567348435L156.37497291666668,83.03919047799984L156.60370625,103.1587761630424L156.83243958333333,58.77048659604496L157.06117291666666,30.926430601709203L157.28990625,61.320721497862L157.51863958333334,70.20732385559589L157.74737291666665,68.84918466849497L157.97610625,50.71399826109715L158.20483958333335,47.322075837086054L158.43357291666666,55.18555599899062L158.66230625,37.67444604904036L158.89103958333334,89.10044910558129L159.11977291666665,115.0183994415287L159.34850625,86.80122728262789L159.57723958333335,89.87201764736953L159.80597291666666,86.52538812661228L160.03470625,77.37956687342135L160.26343958333334,80.66444766156764L160.49217291666668,76.01056509820924L160.72090625,85.16562318738711L160.94963958333332,63.05274671789144L161.17837291666666,58.78599828424875L161.40710625,87.87480988298124L161.6358395833333,67.645045528548L161.86457291666667,58.827369307463464L162.09330625,40.45564042712071L162.32203958333332,62.26354852258626L162.55077291666666,45.151055479540354L162.77950625,33.527731096017135L163.00823958333334,71.85703861771944L163.23697291666667,38.888082044816436L163.46570625,58.23752387953443L163.69443958333332,78.9668089629484L163.92317291666666,82.87272783491368L164.15190625000002,89.88529694984086L164.38063958333333,122.83803155964449L164.60937291666667,116.49800585050316L164.83810624999998,78.86187804458186L165.06683958333332,61.6988132962359L165.29557291666669,73.22456935798618L165.52430625,55.814867123781326L165.75303958333333,56.04892360940412L165.98177291666667,72.45049846038125L166.21050624999998,69.64401656138413L166.43923958333335,119.87280743482503L166.66797291666668,110.16439668122322L166.89670625,79.28750883382025L167.12543958333333,47.65879121839171L167.35417291666667,69.23066111627149L167.58290625,81.29499635488689L167.81163958333335,74.04817597673308L168.04037291666666,72.50560591922641L168.26910625,74.56987986917589L168.49783958333333,72.97615515648218L168.72657291666664,95.38622990353808L168.95530625,114.25341869228852L169.18403958333334,96.50836072465047L169.41277291666665,99.96640409631546L169.64150625,61.84859982832937L169.87023958333333,71.06131826633442L170.09897291666667,32.52976607217078L170.32770625,45.32720950717229L170.55643958333334,54.968582541875755L170.78517291666665,58.72828440137669L171.01390625,78.22995539893061L171.24263958333336,62.186328954973774L171.47137291666667,44.83265373982303L171.70010625,8.769787959661791L171.9288395833333,24.925985466313982L172.15757291666665,21.71425376245877L172.38630625000002,56.070549404081696L172.61503958333333,70.47982863427903L172.84377291666667,111.87441313853601L173.07250625,76.89229724759304L173.3012395833333,67.76107172427955L173.52997291666668,67.49422819768421L173.75870625000002,81.79681584110023L173.98743958333333,69.32679399259698L174.21617291666666,54.04312995063806L174.44490625,52.65902871141504L174.67363958333334,45.64101013434589L174.90237291666668,70.37819369711929L175.13110625000002,37.69138815790345L175.35983958333333,64.85189349611275L175.58857291666666,48.45265327361457L175.81730624999997,66.47505442863758L176.04603958333334,75.18898043288709L176.27477291666668,82.20101320469162L176.50350625,82.5154555610814L176.73223958333332,59.76174143215581L176.96097291666666,60.7318436203888L177.18970625,72.58126827724863L177.41843958333334,75.75847768148068L177.64717291666668,83.26403163801089L177.87590624999999,65.81071825071166L178.10463958333332,89.61472724395813L178.3333729166667,52.883736513022654L178.56210625,64.07741033977685L178.79083958333334,94.5993477034781L179.01957291666668,81.36951139907751L179.24830624999998,67.21306486077395L179.47703958333335,38.64033454318643L179.70577291666666,22.930293644852846L179.93450625,39.155050328604844L180.16323958333334,52.12303397643797L180.39197291666665,106.41103455604625L180.62070625,114.36412241481933L180.84943958333335,58.94990748078682L181.07817291666666,75.98839055246746L181.30690625,24.535267335369316L181.53563958333334,38.164049873638085L181.76437291666664,43.28747984930583L181.99310625,4.3360974142832L182.22183958333335,30.399416196765024L182.45057291666666,25.22486639013895L182.67930625,42.10217984057924L182.90803958333333,40.1252810995598L183.13677291666667,37.13979036710718L183.36550625,50.259234055207806L183.59423958333332,51.653246969009004L183.82297291666666,52.29523288098166L184.05170625,68.57563033462452L184.28043958333333,81.31095702931387L184.50917291666667,79.25421099355879L184.73790625,122.42629164239122L184.96663958333332,90.29609889682912L185.19537291666666,82.1673069172906L185.42410625000002,66.23059425027586L185.65283958333333,68.36209060200616L185.88157291666667,47.30472271284033L186.11030625,59.50987692942277L186.33903958333332,53.345821174460134L186.56777291666668,52.6140539431012L186.79650625000002,56.44238712518604L187.02523958333333,59.01905304951698L187.25397291666667,87.77289652087231L187.48270624999998,79.4311503570468L187.71143958333334,77.05552988740662L187.94017291666668,93.2984906592114L188.16890625,100.73212427332575L188.39763958333333,72.15391544022049L188.62637291666667,45.66358911703758L188.85510624999998,41.59982641933232L189.08383958333334,14.261225723185742L189.31257291666668,21.31781793327933L189.54130625,12.055220383271681L189.77003958333333,44.729193745771134L189.99877291666667,58.17598199257117L190.22750625,46.364256392089L190.45623958333334,58.05800870411501L190.68497291666665,57.31342267263816L190.91370625,76.01779464558382L191.14243958333333,84.68098246176699L191.37117291666667,8.535451417171592L191.59990625,34.23277763937422L191.82863958333334,22.626296982511086L192.05737291666665,51.76380058504935L192.28610625,48.40193074655922L192.51483958333336,57.69021255287678L192.74357291666666,53.20436854157453L192.97230625,79.58082566683228L193.20103958333334,80.43790654980553L193.42977291666665,75.69679720104074L193.65850625000002,67.87999659291536L193.88723958333335,65.22414135130934L194.11597291666666,91.58969398426062L194.34470625,111.27961768134092L194.5734395833333,80.84790730303152L194.80217291666665,50.97704443827644L195.03090625000002,48.20031933994602L195.25963958333332,24.63677892947248L195.48837291666666,24.99540994256596L195.71710625,4.886362784103853L195.9458395833333,49.65522996621254L196.17457291666668,27.51875094708246L196.40330625,26.30819885130874L196.63203958333332,54.58255212764489L196.86077291666666,38.45240783080359L197.08950625,46.31804347352837L197.31823958333334,47.47772682242444L197.54697291666668,83.20786944775067L197.77570625,65.88240058612651L198.00443958333332,34.48696865672964L198.23317291666666,26.977177826205068L198.46190625,19.613694192126324L198.69063958333334,16.825311143746063L198.91937291666667,49.71957952268216L199.14810624999998,73.37363505143018L199.37683958333332,47.65696238657973L199.6055729166667,38.50054451590606L199.83430625,65.17262610823835L200.06303958333334,48.848738410827515L200.29177291666667,88.1402224482212L200.52050624999998,84.572498233555L200.74923958333335,59.01057344335043L200.9779729166667,13.80292992558142L201.20670625,30.776471724989108L201.43543958333333,3.3266784511442173L201.66417291666667,56.688363507279746L201.89290624999998,57.211689636045094L202.12163958333335,44.79626976034759L202.35037291666666,37.642478740276644L202.57910625,47.52816786190717L202.80783958333333,14.790916811352057L203.03657291666664,4.189814570671789L203.26530625,16.513061552548862L203.49403958333335,19.22159420125241L203.72277291666666,51.08922635717723L203.95150625,52.870452429928726L204.18023958333333,76.61239133754358L204.40897291666667,58.233992550503295L204.63770625,54.50913602080665L204.86643958333335,59.06638663306155L205.09517291666666,57.557698959163446L205.32390625,50.230175457542416L205.55263958333336,26.21972336556375L205.78137291666667,55.807164944326054L206.01010625,16.051459286877606L206.23883958333332,48.165782695147314L206.46757291666665,53.49140721354575L206.69630625000002,55.707981014725014L206.92503958333333,72.95248295676156L207.15377291666667,80.92784057743218L207.38250625,93.1555230437075L207.61123958333332,105.93425593655861L207.83997291666665,81.03671223535785L208.06870625000002,47.7619461317595L208.29743958333333,49.78381486533501L208.52617291666667,-4.434929859136758L208.75490625,17.058256033448966L208.98363958333331,66.63755907192574L209.21237291666668,67.98164789934094L209.44110625000002,53.935719762030615L209.66983958333333,68.4739333286016L209.89857291666667,47.898726596652615L210.12730624999998,57.69749613996355L210.35603958333334,27.72904868702552L210.58477291666668,33.25674523154605L210.81350625,13.09070191100492L211.04223958333333,2.117034565727004L211.27097291666666,-8.340048820696474L211.49970625,-26.84858679570945L211.72843958333334,0.359811055160132L211.95717291666668,64.24115435672456L212.18590625,60.735384888945795L212.41463958333333,36.5911786992628L212.6433729166667,56.92967516247673L212.87210625,44.355352792101L213.10083958333334,57.133477990175884L213.32957291666665,50.92140714529746L213.55830625,41.63152982969383L213.78703958333335,-3.484663201012718L214.01577291666666,23.92997438665208L214.24450625,-1.444906772296922L214.47323958333334,10.878683734974796L214.70197291666665,-8.068517488812498L214.93070625,-8.644105303119384L215.15943958333335,12.2221150641088L215.38817291666666,24.00931403390944L215.61690625,42.31626154820126L215.84563958333334,26.7793624374526L216.07437291666665,32.56256379240584L216.30310625,48.44093834236419L216.53183958333335,46.72875321603342L216.76057291666666,27.57077697419752L216.98930625,70.32318013780917L217.2180395833333,-2.190862119951208L217.44677291666667,40.87901695240325L217.67550625,48.1712926368045L217.90423958333332,2.827960635771808L218.13297291666666,12.831768899206867L218.36170625,30.653394358780744L218.59043958333334,43.3734207427491L218.81917291666667,48.4710198294429L219.04790625,49.582045197139095L219.27663958333332,68.6382532696681L219.50537291666666,69.53039600564155L219.73410625000002,75.67702741520048L219.96283958333333,45.86350143098413L220.19157291666667,10.248876950574797L220.42030625,44.71166335089126L220.64903958333332,52.09311216371556L220.87777291666666,24.671223511935246L221.10650625,51.52665457508282L221.33523958333333,23.973612779948738L221.56397291666667,49.78198049766808L221.79270624999998,78.59686365478457L222.02143958333332,59.632541519635545L222.25017291666668,53.912497819801345L222.47890625,62.673644599691556L222.70763958333333,32.8132275923345L222.93637291666667,18.993520836232182L223.16510624999998,36.44785020533515L223.39383958333335,24.288660935404646L223.62257291666668,46.49022551969964L223.85130625,50.58851578591038L224.08003958333333,54.084346120105806L224.30877291666667,65.91903245549769L224.53750625,66.20254053108147L224.76623958333334,70.50566175837668L224.99497291666665,20.63499477830571L225.22370625,57.12154757575418L225.45243958333333,19.462884651910894L225.68117291666667,32.09601934901661L225.90990625,16.809902784707294L226.13863958333334,4.80419547407757L226.36737291666665,5.269732885141452L226.59610625,12.227460480422227L226.82483958333336,34.174784881458386L227.05357291666667,22.047421615302547L227.28230625,10.605975492244074L227.51103958333334,41.934780202943614L227.73977291666665,31.54853154067224L227.96850625,17.00782606083L228.19723958333336,27.869066704635042L228.42597291666667,46.521169969462456L228.65470625,50.70281637082457L228.8834395833333,40.055926621462405L229.11217291666665,55.08162482325847L229.34090625000002,4.81719285267787L229.56963958333333,4.035341564355061L229.79837291666666,32.46876997647665L230.02710625,34.166608235057666L230.2558395833333,48.4811122166868L230.48457291666668,62.399746069178356L230.71330625000002,47.11688738738277L230.94203958333333,14.305356311562598L231.17077291666666,6.120734931259527L231.39950625,12.201879440767781L231.62823958333334,28.971719092399994L231.85697291666668,9.136668755658844L232.08570625000002,33.33986398478397L232.31443958333332,29.058989118082472L232.54317291666666,-21.686844838193323L232.77190625,15.547543300243854L233.00063958333334,15.211958627306467L233.22937291666668,25.74805862757322L233.45810625,35.49431609542821L233.68683958333332,50.353477474639746L233.9155729166667,52.84220225267151L234.14430625,55.077374961178464L234.37303958333334,63.25284320485649L234.60177291666668,35.33803017872098L234.83050624999998,48.16941496948061L235.05923958333332,35.829955820132675L235.2879729166667,63.56116972882626L235.51670625,34.89225534169466L235.74543958333334,77.92393702862954L235.97417291666667,70.7634563055959L236.20290624999998,45.412458573505596L236.43163958333335,81.23924982573962L236.66037291666666,77.02902009502874L236.88910625,71.9565289164533L237.11783958333334,88.41441853569788L237.34657291666664,70.94584610639973L237.57530625,92.08336010154039L237.80403958333335,91.53234274560351L238.03277291666666,73.4328424961388L238.26150625,57.73291276707938L238.49023958333333,97.82390733421092L238.71897291666667,49.807987215707726L238.94770625,40.693578163055875L239.17643958333335,50.64683450246523L239.40517291666666,68.71875939615514L239.63390625,45.895467442219264L239.8626395833333,33.23623843990169L240.09137291666667,34.70317004409587L240.32010625,43.44219120230854L240.54883958333332,46.23956619603811L240.77757291666666,78.3975476846726L241.00630625,55.31253598570331L241.23503958333333,13.90408745925471L241.46377291666667,-6.750814297671051L241.69250625,1.0816619215586458L241.92123958333332,40.39281623982747L242.14997291666666,45.75799290279281L242.37870625000002,51.94388569387208L242.60743958333333,42.729775404033376L242.83617291666667,21.11107862895569L243.06490625,43.26166793477613L243.29363958333332,56.90216168114505L243.52237291666668,49.86814144206281L243.75110625,75.4106077165822L243.97983958333333,84.85357600177984L244.20857291666667,41.7584809985158L244.43730624999998,31.44636916845852L244.66603958333334,35.62278066201611L244.89477291666668,44.09065606156864L245.12350625,27.193454638310097L245.35223958333333,12.439830676684618L245.58097291666667,44.44668627396557L245.80970625,88.21227599919469" style="fill: none;" fill="none"></path></g></g></g></g><g opacity="0.2"><g><g><g><path stroke="rgb(255, 112, 67)" stroke-width="2px" d="M24.16710625,200.52868345805575L24.395839583333334,145.24671823637826L24.624572916666665,198.48318488257271L24.85330625,158.88955470493863L25.082039583333334,148.642318214689L25.310772916666668,152.86820493425643L25.539506250000002,159.48110951696125L25.768239583333333,151.05329969951083L25.996972916666667,53.353915521076765L26.225706249999998,168.0614425114223L26.454439583333333,113.99755270140513L26.683172916666667,96.96574769701277L26.91190625,110.91408266339984L27.140639583333332,128.28122765677318L27.369372916666666,125.88215262549265L27.598106249999997,102.09833346094405L27.82683958333333,73.88109357016428L28.05557291666667,71.02987473351615L28.28430625,113.27954833848136L28.513039583333335,122.31594371795654L28.741772916666665,104.92076580865043L28.97050625,96.87562036514282L29.19923958333333,-110.88506105967929L29.42797291666667,109.13806179591589L29.65670625,105.72392392158508L29.885439583333334,118.34597039222717L30.114172916666664,93.4355595793043L30.34290625,96.33907638277327L30.571639583333337,137.88717351640975L30.800372916666667,91.10701898166113L31.02910625,180.75794199534826L31.257839583333332,113.93892472130912L31.486572916666667,112.73245433398657L31.715306249999998,13.521854843412129L31.944039583333335,107.64538437979563L32.172772916666666,102.85145432608469L32.40150625,116.86866586548942L32.630239583333335,119.39238187244962L32.858972916666666,111.04219007492065L33.08770625,114.15655660629272L33.316439583333334,110.02320865222387L33.545172916666665,111.86735251971655L33.77390625,65.88568394524712L34.002639583333334,110.6424949509757L34.231372916666665,105.71533318928311L34.46010625,123.16416549682617L34.68883958333333,91.200763463974L34.917572916666664,137.50767414910453L35.146306249999995,104.28173589706421L35.37503958333333,75.97527296202524L35.60377291666667,114.52203951563155L35.83250625,120.71143606730871L36.06123958333333,114.29596761294775L36.28997291666666,110.73277299744743L36.51870625,104.32725170680456L36.74743958333334,97.95805263519287L36.97617291666666,115.48917511531286L37.20490625,96.95745839391437L37.43363958333333,111.98204633167813L37.66237291666667,63.17824683870589L37.89110625000001,93.45319318771362L38.11983958333333,92.43541748183115L38.34857291666667,99.50664516857694L38.57730625,124.34531583104815L38.80603958333334,113.37464925221036L39.03477291666666,95.63569133622306L39.26350625,123.11578610965185L39.49223958333334,108.74469668524607L39.72097291666667,76.65876368113928L39.94970625,126.75252945082529L40.17843958333333,108.69722158568247L40.40717291666667,85.81422359602793L40.635906250000005,137.7186745916094L40.864639583333336,104.74171686172485L41.09337291666667,103.260192326137L41.32210625,105.98360518046789L41.550839583333335,107.62850434439524L41.779572916666666,98.0528521197183L42.00830625,106.8782470566886L42.237039583333335,124.57470345497131L42.465772916666666,113.76183506420682L42.69450625,94.76878094673157L42.92323958333333,113.32566700662886L43.151972916666665,79.02513364383154L43.38070625,85.65763112476895L43.609439583333334,118.91356158256531L43.83817291666667,108.31485864094327L44.066906249999995,112.71120357513428L44.29563958333333,21.300838300160013L44.52437291666667,79.36589935847692L44.75310625,107.51381053243365L44.98183958333333,88.99671312740873L45.21057291666666,163.52915300641743L45.43930625,126.02201577595304L45.66803958333333,109.9669921057565L45.89677291666666,83.89894243649076L46.12550625,59.62017651966642L46.35423958333333,153.21439637456623L46.58297291666667,114.31390265056066L46.81170625,104.62069303648813L47.04043958333333,89.10598121370589L47.26917291666667,107.38027739524841L47.49790625,113.39228286061969L47.72663958333334,107.48894262313843L47.95537291666666,104.03742752756392L48.18410625,116.520062991551L48.41283958333333,108.40709597723826L48.64157291666667,120.68762316022601L48.870306250000006,72.05759760311673L49.09903958333333,25.57932441575189L49.32777291666667,77.10518033163889L49.55650625,70.0300340652466L49.785239583333336,118.4725706577301L50.01397291666667,90.67944165638517L50.24270625,135.9180872440338L50.471439583333336,116.93030813762121L50.700172916666666,113.44593725885665L50.92890625,43.45000689370294L51.157639583333335,80.81622597149442L51.386372916666666,102.18198006493705L51.615106250000004,104.6532473904746L51.843839583333335,140.54743695259094L52.072572916666665,48.778973783765544L52.301306249999996,131.9461546284812L52.530039583333334,63.64968211310252L52.75877291666667,169.83625766209195L52.987506249999996,117.61892315319608L53.21623958333333,145.3969806943621L53.444972916666664,148.70802978106906L53.67370625,117.73723411560059L53.90243958333334,174.10992091042655L54.131172916666664,96.18911535399302L54.35990625,133.0891741684505L54.58863958333333,113.72747213499888L54.81737291666667,147.0387148516519L55.046106249999994,56.67250033787321L55.27483958333333,126.42954805919103L55.50357291666667,191.46259730202812L55.73230625,76.58792781829835L55.96103958333333,84.27452322414945L56.18977291666666,140.81103679112027L56.41850625,207.0491999898638L56.64723958333334,100.78138927051L56.87597291666667,143.53882036890303L57.10470625,105.52045920916967L57.33343958333333,262.2083328110831L57.56217291666667,161.4899844442095L57.790906250000006,37.29421969822477L58.01963958333333,113.49371378762382L58.24837291666667,99.69247627258301L58.47710625,3.601216895239705L58.705839583333336,181.63133311271667L58.93457291666666,149.60327451569694L59.16330625,171.09698530605863L59.392039583333336,154.57067707606723L59.62077291666667,174.29635487283977L59.849506250000005,143.64718416758944L60.07823958333333,159.0951294217791L60.306972916666666,136.57143504279003L60.535706250000004,86.94171953201295L60.764439583333335,162.03165272303988L60.993172916666666,32.13179244313924L61.221906249999996,100.86172015326365L61.450639583333334,52.323027644838625L61.679372916666665,129.92899039813452L61.90810625,174.20592611176627L62.136839583333334,188.67724074636186L62.365572916666665,99.63565686770849L62.59430625,219.6920450755528L62.82303958333333,104.35076318468367L63.051772916666664,183.5710300377437L63.28050625,139.26169068472726L63.50923958333333,161.173634495054L63.73797291666667,135.48056275503978L63.966706249999994,122.54322133745467L64.19543958333334,101.08025632585799L64.42417291666666,127.58326833588737L64.65290625,173.71550079754422L64.88163958333334,146.56486814362663L65.11037291666666,113.52295242037093L65.33910625,123.87327769824438L65.56783958333332,67.20730028833663L65.79657291666666,108.00740085329329L66.02530625,139.6564122268132L66.25403958333334,119.35289464678084L66.48277291666666,97.88947749137878L66.71150625,123.08473890168327L66.94023958333334,88.21028433527266L67.16897291666668,-4.657943282808554L67.39770625,72.74485618727549L67.62643958333332,68.07360781942096L67.85517291666667,42.001790285110495L68.08390625,106.05805819375175L68.31263958333334,111.46253309931075L68.54137291666667,145.5556831700461L68.77010625,51.0711921623775L68.99883958333334,153.5229091644287L69.22757291666666,92.82787830489023L69.45630625000001,3.879586764744344L69.68503958333334,137.56991927964347L69.91377291666666,145.20466886247908L70.14250625000001,80.23386475018094L70.37123958333333,158.88804755892073L70.59997291666666,-34.035836321967L70.82870625,73.97815377371653L71.05743958333333,62.06461664608549L71.28617291666667,151.5664829186031L71.51490625,20.264223269053893L71.74363958333333,23.829226459775676L71.97237291666667,111.71271933828082L72.20110625,83.57189175060819L72.42983958333335,79.5866962500981L72.65857291666667,69.03682483945575L72.88730625,135.0041538987841L73.11603958333333,110.70534293992179L73.34477291666667,46.16633616174971L73.57350625,72.21117578233992L73.80223958333333,93.6293785572052L74.03097291666667,80.17508605548315L74.25970625000001,104.59959299223765L74.48843958333333,-2.8908145768301603L74.71717291666666,101.12908785683769L74.94590625000001,94.40405161040171L75.17463958333333,26.54269215038847L75.40337291666667,121.67344737052917L75.63210625,39.109275647572126L75.86083958333333,88.80922416278295L76.08957291666667,68.00322410038541L76.31830624999999,75.29404296193805L76.54703958333333,86.93343022891455L76.77577291666667,142.09813949040006L77.00450624999999,89.71532034873962L77.23323958333334,125.50807898385185L77.46197291666667,-29.223820516041343L77.69070624999999,112.70849071230208L77.91943958333334,112.24428973879134L78.14817291666667,97.93484258651733L78.37690625,54.99037466730391L78.60563958333333,97.23266325678145L78.83437291666667,128.3407599244799L79.06310625,125.81372819628035L79.29183958333333,64.96361201150079L79.52057291666667,-6.545945099421916L79.74930625,42.03133034706118L79.97803958333333,99.54959883008685L80.20677291666667,117.38320551599776L80.43550625,101.87602942330497L80.66423958333333,115.94297678130015L80.89297291666666,80.54162396703448L81.12170625,110.70353436470032L81.35043958333334,135.68719247409277L81.57917291666666,137.43729043006897L81.80790625,95.75927730969022L82.03663958333334,18.43861729758126L82.26537291666666,135.31191311563765L82.49410624999999,126.26994129589627L82.72283958333334,0.8984519413539426L82.95157291666666,78.12069531849454L83.18030625,80.13695526123048L83.40903958333334,103.73856047221594L83.63777291666666,51.729513542992734L83.86650625,104.18120925767082L84.09523958333332,94.39124086924963L84.32397291666668,107.61840646607536L84.55270625,108.15012758118766L84.78143958333332,62.34283580098834L85.01017291666668,131.13184363501415L85.23890625,86.02778618676322L85.46763958333334,74.96186797959464L85.69637291666666,58.472936970847L85.92510625,114.64532405989512L86.15383958333334,117.72954767090934L86.38257291666666,101.92154523304532L86.61130625,76.48227688244413L86.84003958333334,85.76071991239276L87.06877291666666,127.6248655659812L87.29750625000001,137.40579107829504L87.52623958333334,172.69757437705994L87.75497291666666,132.4248242037637L87.98370625,91.66782801491874L88.21243958333334,141.13808747700284L88.44117291666667,4.634516205106466L88.66990625,109.60603063447135L88.89863958333333,57.581158672060305L89.12737291666667,124.48321969168528L89.35610625,122.71624170030867L89.58483958333332,100.3042268412454L89.81357291666667,111.80450453077044L90.04230625,86.93855452537538L90.27103958333333,-9.160692725862752L90.49977291666667,103.30932528632029L90.72850625,-48.56351821763175L90.95723958333333,164.30367534501212L91.18597291666667,80.5245932170323L91.41470625000001,46.63490785871234L91.64343958333333,79.45738312176297L91.87217291666666,69.55332377978735L92.10090625000001,84.38951846531461L92.32963958333333,243.64149958746773L92.55837291666666,71.86377862521582L92.78710625000001,110.7024793624878L93.01583958333333,113.31210269246783L93.24457291666667,63.91735124588015L93.47330625,73.76956476484027L93.70203958333333,97.6757641860417L93.93077291666667,38.48622148377557L94.15950624999999,118.03384045192175L94.38823958333334,95.1244674069541L94.61697291666667,99.94085393633162L94.84570624999999,112.54662322998047L95.07443958333334,122.54608491488867L95.30317291666667,115.75036352021354L95.53190624999999,129.80118441581726L95.76063958333333,158.20681755883354L95.98937291666667,59.78370186260771L96.21810625,182.72446611949377L96.44683958333333,135.59796942983357L96.67557291666667,93.01175011907306L96.90430625,113.91722181865148L97.13303958333333,119.3672125339508L97.36177291666667,175.56356324468342L97.59050625,92.7178566455841L97.81923958333333,119.59253086362567L98.04797291666667,207.05130999428886L98.27670625,69.14624364035471L98.50543958333334,93.07746168545316L98.73417291666667,121.72589605195182L98.96290624999999,105.06258824893408L99.19163958333334,103.7082668372563L99.42037291666666,129.33698344230652L99.64910624999999,199.90517715045382L99.87783958333334,103.83441495895386L100.10657291666666,57.27535874503001L100.33530625,140.95903853007724L100.56403958333334,147.55657022339958L100.79277291666666,172.6365349633353L101.02150625,164.60088453974043L101.25023958333333,183.1898728098188L101.93643958333332,182.13034915924072L102.16517291666668,104.9771330697196L102.39390625,106.47478406769889L102.62263958333332,95.92958480971201L102.85137291666666,125.82307250159128L103.08010625,146.04595776966642L103.30883958333334,229.16686923163277L103.53757291666666,138.56252564702717L103.76630625,17.325740677969808L103.99503958333334,127.17226961680822L104.22377291666666,71.14637712069921L104.45250625000001,226.67615972246443L104.68123958333334,281.20440122059415L104.90997291666666,169.5420627593994L105.13870625,200.01128023011344L105.36743958333334,121.6312472820282L105.59617291666666,179.64732609476363L105.82490625,45.955938577652L106.05363958333334,160.60724902153015L106.28237291666667,20.993983370917196L106.51110625,119.13134418215071L106.73983958333332,200.4429268496377L106.96857291666667,117.71040691648211L107.19730625,174.24933191708158L107.42603958333333,164.09644276755196L107.65477291666667,95.04911010605949L107.88350625,17.504036051886434L108.11223958333333,191.5046466759273L108.34097291666667,31.370985133307332L108.56970625000001,45.78924822807314L108.79843958333333,35.34005417142598L109.02717291666666,228.94622305461337L109.48463958333333,193.7406485080719L109.71337291666666,111.19169895989555L109.94210625000001,257.75592204502647L110.17083958333333,161.79985366548811L110.39957291666667,231.89751638684953L110.62830625,50.00443421091353L110.85703958333333,152.47107195854187L111.08577291666667,228.48352922712053L111.31450625,161.3103326388768L111.54323958333335,148.03267765045166L111.77197291666667,127.29434844425748L112.00070625,92.71167734691076L112.22943958333333,159.74199649265836L112.45817291666667,101.3382797241211L112.68690624999999,185.60236144065857L112.91563958333333,294.55470064708163L113.14437291666667,132.44818496704102L113.37310625,266.4569774355207L113.60183958333333,186.48720686776298L113.83057291666667,100.89367164884295L114.05930625,123.4443439415523L114.28803958333333,186.76346673284257L114.51677291666667,138.2571778638022L114.74550625,108.64055289540973L114.97423958333333,34.491078819547404L115.20297291666667,50.40367719105314L115.43170625,91.09164609227862L115.66043958333333,177.17590805462427L115.88917291666667,89.26136796815055L116.11790624999999,34.78406800542562L116.34663958333334,99.03068845612663L116.57537291666667,40.82440781593325L116.80410624999999,170.03746165548054L117.03283958333334,122.55979994365148L117.26157291666667,212.9771067074367L117.49030625,-37.51402790205819L117.71903958333334,123.87131840842112L117.94777291666666,-68.25347665378024L118.17650625,179.91861237798418L118.40523958333333,91.64823511668615L118.63397291666666,60.13908689362665L118.86270625,176.44102365630013L119.09143958333333,111.98159418787276L119.32017291666668,81.54462964194163L119.54890625,172.31129285267423L119.77763958333333,53.11473144803729L120.00637291666666,103.85807715143477L120.23510625,153.58485286576408L120.46383958333334,113.13064231191363L120.69257291666666,119.30557026181903L120.92130625,185.47967975480216L121.60750625000001,212.59579876491L121.83623958333334,176.5377824306488L122.06497291666666,63.11856385639738L122.29370625,57.78793910571509L122.52243958333334,167.1835299560002L122.75117291666666,172.77865883282254L122.97990625,63.303792101996294L123.20863958333334,-61.50688821928841L123.43737291666667,168.76829399381367L123.66610625,14.95876785687038L123.89483958333332,146.57541816575187L124.12357291666667,162.295403276171L124.35230625,168.80024548939298L124.58103958333332,234.5362276349749L124.80977291666667,96.96243197577341L125.03850625,-42.65746511731828L125.26723958333334,94.67820147105627L125.49597291666666,125.8242782184056L125.72470625,125.79277886663165L125.95343958333333,-19.78019428253174L126.18217291666666,85.71309409822737L126.41090625000001,148.2777395929609L126.63963958333333,2.0892480100904134L126.86837291666666,41.11136841773989L127.09710625000001,126.92404266766141L127.32583958333333,156.32981790815083L127.55457291666667,18.86167318480355L127.78330625,221.97627558026994L128.01203958333335,56.14424565860205L128.24077291666666,81.35879853793554L128.46950625,243.00759397234236L128.69823958333333,87.46243848119464L128.92697291666667,144.2890776566097L129.15570625,113.67698274339949L129.38443958333332,169.69368164879936L129.61317291666668,137.1414376667568L129.84190625,153.41484679494587L130.07063958333333,24.96832742009847L130.29937291666667,205.08659444536482L130.52810625,204.1584939275469L130.75683958333332,138.9795529501779L130.98557291666668,3.3569085257394002L131.21430625,358.9909200668335L131.44303958333333,97.7607672214508L131.67177291666667,75.51649771417891L131.90050625,258.09201560701644L132.12923958333334,94.89387406621661L132.35797291666665,200.128837619509L132.58670625000002,141.23122910090854L132.81543958333333,229.1554149218968L133.04417291666667,133.58140805789404L133.27290625,208.24707964488437L133.50163958333334,108.17589977809362L133.73037291666665,50.15680667332243L133.95910625,-8.711713927132731L134.18783958333333,49.47527524403166L134.41657291666667,155.56117343902588L134.64530625,91.72796314103263L134.87403958333334,183.76077972139632L135.10277291666665,64.47816027913775L135.33150625,151.49082418850492L135.56023958333336,69.63862824440004L135.78897291666667,189.22976047652108L136.01770625,143.96865841320584L136.24643958333334,48.59449911117556L136.47517291666665,128.22410682269506L136.70390625,51.340217726571225L136.93263958333335,230.7828311920166L137.16137291666666,106.37742243494307L137.39010625,65.03655787876676L137.61883958333334,265.33535936900546L137.84757291666665,116.34915263312205L138.07630625000002,94.4545410020011L138.30503958333333,72.04930830001832L138.53377291666666,145.31092265674044L138.76250625,315.2306340081351L138.9912395833333,83.66834909575327L139.21997291666668,125.19383903912137L139.44870625000001,219.97026423045568L139.67743958333332,34.951210498809836L139.90617291666666,240.82645225524902L140.13490625,82.3474863256727L140.36363958333334,-20.09443422726221L140.59237291666668,170.83383761133467L140.82110625,123.45233181544714L141.04983958333332,183.06658826555525L141.27857291666666,-58.61331857953752L141.50730625,118.76344983918327L141.73603958333334,166.13998205321175L141.96477291666667,193.44464503015791L142.19350624999998,98.19452384540014L142.42223958333332,80.53770538738797L142.6509729166667,166.9502237524305L142.87970625,215.77195828301566L143.10843958333334,93.91528415679932L143.33717291666667,162.63270255497525L143.56590624999998,77.45951036044531L143.79463958333332,90.16399771826609L144.0233729166667,160.84447380474637L144.25210625,122.73643745694842L144.48083958333333,40.1300656454904L144.70957291666667,139.11157894134521L144.93830624999998,142.20740757669722L145.16703958333335,75.58296285356795L145.39577291666666,78.71285298892431L145.62450625,77.58686419895719L145.85323958333333,84.92108886582511L146.08197291666664,135.01379963329862L146.31070625,78.65121071679252L146.53943958333335,86.17654149872916L146.76817291666666,-33.11903939928328L146.99690625,100.64001897403173L147.22563958333333,85.36162764685496L147.45437291666667,151.96331446511405L147.68310625,167.6915888786316L147.91183958333335,41.188835723059526L148.14057291666666,153.12411832809448L148.36930625,56.2328658444541L148.59803958333336,156.55121765817916L148.82677291666667,89.33747884205411L149.05550625,116.37341768401011L149.28423958333332,82.32563270841327L149.51297291666666,221.2398840359279L149.74170625,250.59908846446444L149.97043958333333,162.19412306376864L150.19917291666667,17.221446173531678L150.42790625,71.60364522252765L150.65663958333332,99.82314583233426L150.88537291666665,79.59694484301977L151.11410625000002,73.87853142193387L151.34283958333333,129.13125801086426L151.57157291666667,122.4770576272692L151.80030625,84.258396761758L152.02903958333332,120.66893454960416L152.25777291666668,205.75064298084803L152.48650625000002,21.56021812983923L152.71523958333333,123.10131750788008L152.94397291666667,69.47540433066233L153.17270624999998,139.72137022018433L153.40143958333334,99.98245116642545L153.63017291666668,47.99977929251536L153.85890625,276.67723601205006L154.08763958333333,107.77725965636118L154.31637291666667,75.93488144874574L154.54510625,84.18183374404909L154.77383958333334,134.8881036554064L155.00257291666668,54.158128636223935L155.23130625,160.37816282681058L155.46003958333333,61.65150792258128L155.6887729166667,51.64194835935321L155.91750625,102.98709746769498L156.14623958333334,67.58770394325258L156.37497291666668,87.76386768477305L156.60370625,133.33815469060627L156.83243958333333,-7.811947754451213L157.06117291666666,-10.839653389794474L157.28990625,106.91215784209116L157.51863958333334,83.53722739219667L157.74737291666665,66.81197588784354L157.97610625,23.511218650000448L158.20483958333335,42.23419220106944L158.43357291666666,66.98077624184745L158.66230625,11.40778112411499L158.89103958333334,166.23945369039265L159.11977291666665,153.89532494544983L159.34850625,44.47546904427667L159.57723958333335,94.47820319448199L159.80597291666666,81.50544384547644L160.03470625,63.66083499363493L160.26343958333334,85.59176884378707L160.49217291666668,69.02974125317166L160.72090625,98.89821032115393L160.94963958333332,29.88343201364791L161.17837291666666,52.38587563378473L161.40710625,131.50802728108L161.6358395833333,37.30039899689813L161.86457291666667,45.600854975836626L162.09330625,12.898047106606628L162.32203958333332,94.97541066578458L162.55077291666666,19.482315914971515L162.77950625,16.09274452073234L163.00823958333334,129.35099990027294L163.23697291666667,-10.565352814538127L163.46570625,87.26168663161143L163.69443958333332,110.06073658806937L163.92317291666666,88.73160614286151L164.15190625000002,100.40415062223163L164.38063958333333,172.26713347434998L164.60937291666667,106.98796728679113L164.83810624999998,22.40768633569991L165.06683958333332,35.95421617371698L165.29557291666669,90.51320345061167L165.52430625,29.70031377247404L165.75303958333333,56.400008337838315L165.98177291666667,97.05286073684692L166.21050624999998,65.43429371288846L166.43923958333335,195.2159937449864L166.66797291666668,95.6017805508205L166.89670625,32.97217706271582L167.12543958333333,0.21571479524886028L167.35417291666667,101.58846596309118L167.58290625,99.39149921280998L167.81163958333335,63.17794540950232L168.04037291666666,70.1917508329664L168.26910625,77.66629079410009L168.49783958333333,70.58556808744159L168.72657291666664,129.00134202412198L168.95530625,142.55420187541415L169.18403958333334,69.89077377319337L169.41277291666665,105.15346915381296L169.64150625,4.671893426350179L169.87023958333333,84.88039592334204L170.09897291666667,-25.26756221907479L170.32770625,64.52337465967452L170.55643958333334,69.43064209393094L170.78517291666665,64.36783719062807L171.01390625,107.48246189526151L171.24263958333336,38.12088928903853L171.47137291666667,18.80214091709682L171.70010625,-45.32451071058L171.9288395833333,49.16028172629222L172.15757291666665,16.896656206675942L172.38630625000002,107.60499286651611L172.61503958333333,92.09374747957503L172.84377291666667,173.96628989492146L173.07250625,24.41912341117861L173.3012395833333,54.06423343930926L173.52997291666668,67.09396290779115L173.75870625000002,103.25069730622428L173.98743958333333,50.6217612198421L174.21617291666666,31.117633887699686L174.44490625,50.582876852580505L174.67363958333334,35.11398226874217L174.90237291666668,107.4839690412794L175.13110625000002,-11.338820150920329L175.35983958333333,105.5926515034267L175.58857291666666,23.853792939867308L175.81730624999997,93.50865616117206L176.04603958333334,88.25986943926131L176.27477291666668,92.71906236239843L176.50350625,82.98711909566607L176.73223958333332,25.631170238767375L176.96097291666666,62.18699690273832L177.18970625,90.35540526253837L177.41843958333334,80.52429178782873L177.64717291666668,94.52236257280623L177.87590624999999,39.630748169762754L178.10463958333332,125.32074073382788L178.3333729166667,-2.212749583380574L178.56210625,80.86792107990811L178.79083958333334,140.38225374902999L179.01957291666668,61.524756942476564L179.24830624999998,45.978395053318586L179.47703958333335,-4.218760933194825L179.70577291666666,-0.6347677026476235L179.93450625,63.49218535423281L180.16323958333334,71.5750094481877L180.39197291666665,187.84303542545862L180.62070625,126.29375420297896L180.84943958333335,-24.171414920261924L181.07817291666666,101.5461151599884L181.30690625,-52.64441749027795L181.53563958333334,58.6072236810412L181.76437291666664,50.972624812807375L181.99310625,-54.09097623825073L182.22183958333335,69.49439437048777L182.45057291666666,17.46304168019977L182.67930625,67.41815001623972L182.90803958333333,37.159932988030576L183.13677291666667,32.66155426842828L183.36550625,69.93839958735876L183.59423958333332,53.7442663397108L183.82297291666666,53.25821174894061L184.05170625,92.99622651508878L184.28043958333333,100.41394707134793L184.50917291666667,76.16909193992616L184.73790625,187.18441261563981L184.96663958333332,42.100809778486L185.19537291666666,69.9741189479828L185.42410625000002,42.3255252497537L185.65283958333333,71.55933512960162L185.88157291666667,15.718670879091533L186.11030625,77.81760825429645L186.33903958333332,44.09973754201617L186.56777291666668,51.5164030960628L186.79650625000002,62.18488689831327L187.02523958333333,62.884051936013364L187.25397291666667,130.90366172790527L187.48270624999998,66.91853111130851L187.71143958333334,73.49209918294635L187.94017291666668,117.66293181691852L188.16890625,111.88257469449725L188.39763958333333,29.286602190562682L188.62637291666667,5.928099632263184L188.85510624999998,35.504182372774416L189.08383958333334,-26.74667532103402L189.31257291666668,31.902706248419637L189.54130625,-1.8386759417397467L189.77003958333333,93.74015378952026L189.99877291666667,78.34616436277118L190.22750625,28.64666799136572L190.45623958333334,75.59863717215403L190.68497291666665,56.19654362542291L190.91370625,104.07435260500228L191.14243958333333,97.6757641860417L191.37117291666667,-105.6828451497214L191.59990625,72.77876697267806L191.82863958333334,5.21657599721637L192.05737291666665,95.47005598885673L192.28610625,43.35912598882403L192.51483958333336,71.62263526235309L192.74357291666666,46.47560252462115L192.97230625,119.1455113547189L193.20103958333334,81.72352787426541L193.42977291666665,68.58513317789351L193.65850625000002,56.1547956807273L193.88723958333335,61.24035848890033L194.11597291666666,131.1380229336875L194.34470625,140.8145032269614L194.5734395833333,35.200341735567385L194.80217291666665,6.170750141143799L195.03090625000002,44.035231692450395L195.25963958333332,-10.708531686237874L195.48837291666666,25.533356462206175L195.71710625,-25.277207953589315L195.9458395833333,116.80853073937553L196.17457291666668,-5.6859675816127115L196.40330625,24.492370707648153L196.63203958333332,96.99408204214915L196.86077291666666,14.257191385541645L197.08950625,58.11649693761554L197.31823958333334,49.21725184576854L197.54697291666668,136.80308338574002L197.77570625,39.89419729369029L198.00443958333332,-12.606179237365723L198.23317291666666,15.712491580418172L198.46190625,8.56846874100822L198.69063958333334,12.64273657117572L198.91937291666667,99.06098209108626L199.14810624999998,108.85471834455218L199.37683958333332,9.081953389304037L199.6055729166667,24.765917709895568L199.83430625,105.18074849673681L200.06303958333334,24.362906864711242L200.29177291666667,147.07744850431172L200.52050624999998,79.2209119115557L200.74923958333335,20.667686258043577L200.9779729166667,-54.00853535107202L201.20670625,56.23678442410063L201.43543958333333,-37.848011459623045L201.66417291666667,136.730891091483L201.89290624999998,57.99667882919314L202.12163958333335,26.17313994680135L202.35037291666666,26.911792210170226L202.57910625,62.356701544352966L202.80783958333333,-34.31495976448059L203.03657291666664,-11.711838790348592L203.26530625,34.997932025364484L203.49403958333335,23.2843931743077L203.72277291666666,98.89067459106445L203.95150625,55.54229153905597L204.18023958333333,112.2252996989659L204.40897291666667,30.66639436994283L204.63770625,48.9218512262617L204.86643958333335,65.90226255144393L205.09517291666666,55.294667448316325L205.32390625,39.23889020511084L205.55263958333336,-9.795954772404256L205.78137291666667,100.18832731246948L206.01010625,-43.582099199295044L206.23883958333332,96.3372678075518L206.46757291666665,61.47984399114337L206.69630625000002,59.0328417164939L206.92503958333333,98.81923586981638L207.15377291666667,92.89087700843811L207.38250625,111.49704674312048L207.61123958333332,125.10235527583532L207.83997291666665,43.6903966835567L208.06870625000002,-2.1502030236380216L208.29743958333333,52.81661796569826L208.52617291666667,-85.76304694584437L208.75490625,49.298034872327555L208.98363958333331,141.00651362964084L209.21237291666668,69.9977811404637L209.44110625000002,32.86682755606517L209.66983958333333,90.28125367845809L209.89857291666667,17.035916498729165L210.12730624999998,72.3956504549299L210.35603958333334,-17.22362249238151L210.58477291666668,41.548290048326784L210.81350625,-17.158363069806764L211.49970625,-54.61139375822884L211.72843958333334,41.17240783146452L211.95717291666668,160.06316930907113L212.18590625,55.476730687277666L212.41463958333333,0.37486941473824076L212.6433729166667,87.43741985729764L212.87210625,25.493869236537414L213.10083958333334,76.30066578728812L213.32957291666665,41.60330087797984L213.55830625,27.69671385628839L213.78703958333335,-71.15895274707248L214.01577291666666,65.05193076814925L214.24450625,-39.50722851072038L214.47323958333334,29.364069495882323L214.70197291666665,-36.48931932449341L214.93070625,-9.507487024579712L215.15943958333335,43.521445614951006L215.38817291666666,41.69011248861041L215.61690625,69.77668281963895L215.84563958333334,3.47401377132961L216.07437291666665,41.23736582483565L216.30310625,72.25850016730173L216.53183958333335,44.16047552653723L216.76057291666666,-1.1661873885563554L216.98930625,134.45178488322668L217.2180395833333,-110.9619255065918L217.44677291666667,105.48383556093489L217.67550625,59.10970616340639L217.90423958333332,-65.18703736577714L218.13297291666666,27.837481294359495L218.36170625,57.3858325481415L218.59043958333334,62.453460318701616L218.81917291666667,56.11741845948358L219.04790625,51.24858324868341L219.27663958333332,97.22256537846158L219.50537291666666,70.86861010960172L219.73410625000002,84.89697452953885L219.96283958333333,1.1432124546596065L220.19157291666667,-43.173059770039146L220.42030625,96.40584295136588L220.64903958333332,63.16528538295203L220.87777291666666,-16.46160946573531L221.10650625,91.80980116980417L221.33523958333333,-17.3559499127524L221.56397291666667,88.4945320742471L221.79270624999998,121.81918839045935L222.02143958333332,31.186058316911986L222.25017291666668,45.33243227005007L222.47890625,75.8153647695269L222.70763958333333,-11.977397918701172L222.93637291666667,-1.7360392979213057L223.16510624999998,62.629344258989626L223.39383958333335,6.0498770305088705L223.62257291666668,79.79257239614215L223.85130625,56.73595118522646L224.08003958333333,59.32809162139895L224.30877291666667,83.67106195858548L224.53750625,66.62780264445715L224.76623958333334,76.96034359931947L224.99497291666665,-54.17100569180078L225.22370625,111.85137677192688L225.45243958333333,-37.025109733854L225.68117291666667,51.04572139467513L225.90990625,-6.119272061756673L226.13863958333334,-13.204365491867065L226.36737291666665,5.968039001737325L226.59610625,22.664051873343343L226.82483958333336,67.09577148301261L227.05357291666667,3.856376716068807L227.28230625,-6.556193692343587L227.51103958333334,88.92798726899284L227.73977291666665,15.969158547265197L227.96850625,-4.80323215893335L228.19723958333336,44.16092767034259L228.42597291666667,74.49932486670359L228.65470625,56.97528597286772L228.8834395833333,24.085591997419108L229.11217291666665,77.62017212595259L229.34090625000002,-70.579455103193L229.56963958333333,2.862564631870809L229.79837291666666,75.118912594659L230.02710625,36.71336562292918L230.2558395833333,69.95286818913053L230.48457291666668,83.27769684791566L230.71330625000002,24.192599364689432L230.94203958333333,-34.9119403021676L231.17077291666666,-6.156197139195028L231.39950625,21.323596205030192L231.62823958333334,54.1264785698482L231.85697291666668,-20.61590674945284L232.08570625000002,69.6446568284716L232.31443958333332,22.637676818030233L232.54317291666666,-97.80559577260698L232.77190625,71.3991255078997L233.00063958333334,14.70858161790031L233.22937291666668,41.55220862797331L233.45810625,50.113702297210715L233.68683958333332,72.64221954345705L233.9155729166667,56.57528941971918L234.14430625,58.430134023938884L234.37303958333334,75.51604557037355L234.60177291666668,-6.5341893604823404L234.83050624999998,67.41649215562003L235.05923958333332,17.320767096110757L235.2879729166667,105.15799059186664L235.51670625,-8.111116239002767L235.74543958333334,142.4714595590319L235.97417291666667,60.022735221045366L236.20290624999998,7.3859619753701375L236.43163958333335,134.9794367040907L236.66037291666666,70.71367549896242L236.88910625,64.3477921485901L237.11783958333334,113.10125296456474L237.34657291666664,44.7429874624525L237.57530625,123.78963109425138L237.80403958333335,90.70581671169828L238.03277291666666,46.28359212194171L238.26150625,34.183018173490275L238.49023958333333,157.96039918490817L238.71897291666667,-22.215892962047036L238.94770625,27.021964584078123L239.17643958333335,65.57671901157926L239.40517291666666,95.82664673668998L239.63390625,11.66052951131549L239.8626395833333,14.247394936425353L240.09137291666667,36.90356745038714L240.32010625,56.55072293962752L240.54883958333332,50.43562868663245L240.77757291666666,126.63451991762435L241.00630625,20.685018437249347L241.23503958333333,-48.208585330418174L241.46377291666667,-37.73316693305969L241.69250625,12.83037625040328L241.92123958333332,99.35954771723067L242.14997291666666,53.80575789724078L242.37870625000002,61.22272488049101L242.60743958333333,28.90860996927535L242.83617291666667,-11.316966533660889L243.06490625,76.48755189350675L243.29363958333332,77.36290230069842L243.52237291666668,39.317111083439436L243.75110625,113.7243071283613L243.97983958333333,99.01802842957633L244.20857291666667,-22.88416150638033L244.43730624999998,15.97820142337254L244.66603958333334,41.887397902352475L244.89477291666668,56.7924691608974L245.12350625,1.8476525034223228L245.35223958333333,-9.690605265753621L245.58097291666667,92.456969669887L245.80970625,153.8606605870383" style="fill: none;" fill="none"></path></g></g></g></g></g></g><g transform="translate(61, 177)" clip-path="url(#clip_1)"><clipPath id="clip_1"><rect width="268" height="23"></rect></clipPath><g><g><line x1="0" y1="0" x2="0" y2="5" style="visibility: inherit;" fill="rgb(0, 0, 0)" stroke="rgb(204, 204, 204)" stroke-width="1px"></line><line x1="22.337239583333332" y1="0" x2="22.337239583333332" y2="5" style="visibility: inherit;" fill="rgb(0, 0, 0)" stroke="rgb(204, 204, 204)" stroke-width="1px"></line><line x1="44.674479166666664" y1="0" x2="44.674479166666664" y2="5" style="visibility: inherit;" fill="rgb(0, 0, 0)" stroke="rgb(204, 204, 204)" stroke-width="1px"></line><line x1="67.01171875" y1="0" x2="67.01171875" y2="5" style="visibility: inherit;" fill="rgb(0, 0, 0)" stroke="rgb(204, 204, 204)" stroke-width="1px"></line><line x1="89.34895833333333" y1="0" x2="89.34895833333333" y2="5" style="visibility: inherit;" fill="rgb(0, 0, 0)" stroke="rgb(204, 204, 204)" stroke-width="1px"></line><line x1="111.68619791666667" y1="0" x2="111.68619791666667" y2="5" style="visibility: inherit;" fill="rgb(0, 0, 0)" stroke="rgb(204, 204, 204)" stroke-width="1px"></line><line x1="134.0234375" y1="0" x2="134.0234375" y2="5" style="visibility: inherit;" fill="rgb(0, 0, 0)" stroke="rgb(204, 204, 204)" stroke-width="1px"></line><line x1="156.36067708333334" y1="0" x2="156.36067708333334" y2="5" style="visibility: inherit;" fill="rgb(0, 0, 0)" stroke="rgb(204, 204, 204)" stroke-width="1px"></line><line x1="178.69791666666666" y1="0" x2="178.69791666666666" y2="5" style="visibility: inherit;" fill="rgb(0, 0, 0)" stroke="rgb(204, 204, 204)" stroke-width="1px"></line><line x1="201.03515625" y1="0" x2="201.03515625" y2="5" style="visibility: inherit;" fill="rgb(0, 0, 0)" stroke="rgb(204, 204, 204)" stroke-width="1px"></line><line x1="223.37239583333334" y1="0" x2="223.37239583333334" y2="5" style="visibility: inherit;" fill="rgb(0, 0, 0)" stroke="rgb(204, 204, 204)" stroke-width="1px"></line><line x1="245.70963541666666" y1="0" x2="245.70963541666666" y2="5" style="visibility: inherit;" fill="rgb(0, 0, 0)" stroke="rgb(204, 204, 204)" stroke-width="1px"></line><line x1="268.046875" y1="0" x2="268.046875" y2="5" style="visibility: inherit;" fill="rgb(0, 0, 0)" stroke="rgb(204, 204, 204)" stroke-width="1px"></line></g><g transform="translate(0, 8)"><text x="0" y="0" dx="0em" dy="0.95em" style="text-anchor: middle; visibility: hidden; font-family: Roboto, sans-serif; font-size: 12px; font-weight: 200;" fill="rgb(33, 33, 33)" stroke="none" stroke-width="1px">-200k</text><text x="22.337239583333332" y="0" dx="0em" dy="0.95em" style="text-anchor: middle; visibility: inherit; font-family: Roboto, sans-serif; font-size: 12px; font-weight: 200;" fill="rgb(33, 33, 33)" stroke="none" stroke-width="1px">0</text><text x="44.674479166666664" y="0" dx="0em" dy="0.95em" style="text-anchor: middle; visibility: hidden; font-family: Roboto, sans-serif; font-size: 12px; font-weight: 200;" fill="rgb(33, 33, 33)" stroke="none" stroke-width="1px">200k</text><text x="67.01171875" y="0" dx="0em" dy="0.95em" style="text-anchor: middle; visibility: inherit; font-family: Roboto, sans-serif; font-size: 12px; font-weight: 200;" fill="rgb(33, 33, 33)" stroke="none" stroke-width="1px">400k</text><text x="89.34895833333333" y="0" dx="0em" dy="0.95em" style="text-anchor: middle; visibility: hidden; font-family: Roboto, sans-serif; font-size: 12px; font-weight: 200;" fill="rgb(33, 33, 33)" stroke="none" stroke-width="1px">600k</text><text x="111.68619791666667" y="0" dx="0em" dy="0.95em" style="text-anchor: middle; visibility: inherit; font-family: Roboto, sans-serif; font-size: 12px; font-weight: 200;" fill="rgb(33, 33, 33)" stroke="none" stroke-width="1px">800k</text><text x="134.0234375" y="0" dx="0em" dy="0.95em" style="text-anchor: middle; visibility: hidden; font-family: Roboto, sans-serif; font-size: 12px; font-weight: 200;" fill="rgb(33, 33, 33)" stroke="none" stroke-width="1px">1M</text><text x="156.36067708333334" y="0" dx="0em" dy="0.95em" style="text-anchor: middle; visibility: inherit; font-family: Roboto, sans-serif; font-size: 12px; font-weight: 200;" fill="rgb(33, 33, 33)" stroke="none" stroke-width="1px">1.2M</text><text x="178.69791666666666" y="0" dx="0em" dy="0.95em" style="text-anchor: middle; visibility: hidden; font-family: Roboto, sans-serif; font-size: 12px; font-weight: 200;" fill="rgb(33, 33, 33)" stroke="none" stroke-width="1px">1.4M</text><text x="201.03515625" y="0" dx="0em" dy="0.95em" style="text-anchor: middle; visibility: inherit; font-family: Roboto, sans-serif; font-size: 12px; font-weight: 200;" fill="rgb(33, 33, 33)" stroke="none" stroke-width="1px">1.6M</text><text x="223.37239583333334" y="0" dx="0em" dy="0.95em" style="text-anchor: middle; visibility: hidden; font-family: Roboto, sans-serif; font-size: 12px; font-weight: 200;" fill="rgb(33, 33, 33)" stroke="none" stroke-width="1px">1.8M</text><text x="245.70963541666666" y="0" dx="0em" dy="0.95em" style="text-anchor: middle; visibility: inherit; font-family: Roboto, sans-serif; font-size: 12px; font-weight: 200;" fill="rgb(33, 33, 33)" stroke="none" stroke-width="1px">2M</text><text x="268.046875" y="0" dx="0em" dy="0.95em" style="text-anchor: middle; visibility: hidden; font-family: Roboto, sans-serif; font-size: 12px; font-weight: 200;" fill="rgb(33, 33, 33)" stroke="none" stroke-width="1px">2.2M</text></g><line x1="0" y1="0" x2="268.046875" y2="0" fill="rgb(0, 0, 0)" stroke="rgb(204, 204, 204)" stroke-width="1px"></line></g></g></g></g></svg>