<svg viewBox="0 0 330 200" xmlns="http://www.w3.org/2000/svg"><g><g><g><g><g><line x1="41.171875" y1="177" x2="36.171875" y2="177" style="visibility: inherit;" fill="rgb(0, 0, 0)" stroke="rgb(204, 204, 204)" stroke-width="1px"></line><line x1="41.171875" y1="157.33333333333331" x2="36.171875" y2="157.33333333333331" style="visibility: inherit;" fill="rgb(0, 0, 0)" stroke="rgb(204, 204, 204)" stroke-width="1px"></line><line x1="41.171875" y1="137.66666666666666" x2="36.171875" y2="137.66666666666666" style="visibility: inherit;" fill="rgb(0, 0, 0)" stroke="rgb(204, 204, 204)" stroke-width="1px"></line><line x1="41.171875" y1="118.00000000000001" x2="36.171875" y2="118.00000000000001" style="visibility: inherit;" fill="rgb(0, 0, 0)" stroke="rgb(204, 204, 204)" stroke-width="1px"></line><line x1="41.171875" y1="98.33333333333334" x2="36.171875" y2="98.33333333333334" style="visibility: inherit;" fill="rgb(0, 0, 0)" stroke="rgb(204, 204, 204)" stroke-width="1px"></line><line x1="41.171875" y1="78.66666666666666" x2="36.171875" y2="78.66666666666666" style="visibility: inherit;" fill="rgb(0, 0, 0)" stroke="rgb(204, 204, 204)" stroke-width="1px"></line><line x1="41.171875" y1="59.00000000000001" x2="36.171875" y2="59.00000000000001" style="visibility: inherit;" fill="rgb(0, 0, 0)" stroke="rgb(204, 204, 204)" stroke-width="1px"></line><line x1="41.171875" y1="39.33333333333335" x2="36.171875" y2="39.33333333333335" style="visibility: inherit;" fill="rgb(0, 0, 0)" stroke="rgb(204, 204, 204)" stroke-width="1px"></line><line x1="41.171875" y1="19.666666666666657" x2="36.171875" y2="19.666666666666657" style="visibility: inherit;" fill="rgb(0, 0, 0)" stroke="rgb(204, 204, 204)" stroke-width="1px"></line><line x1="41.171875" y1="0" x2="36.171875" y2="0" style="visibility: inherit;" fill="rgb(0, 0, 0)" stroke="rgb(204, 204, 204)" stroke-width="1px"></line></g><g transform="translate(31.171875, 0)"><text x="0" y="177" dx="0em" dy="0.3em" style="text-anchor: end; visibility: hidden; font-family: Roboto, sans-serif; font-size: 12px; font-weight: 200;" fill="rgb(33, 33, 33)" stroke="none" stroke-width="1px">0</text><text x="0" y="157.33333333333331" dx="0em" dy="0.3em" style="text-anchor: end; visibility: inherit; font-family: Roboto, sans-serif; font-size: 12px; font-weight: 200;" fill="rgb(33, 33, 33)" stroke="none" stroke-width="1px">0.1</text><text x="0" y="137.66666666666666" dx="0em" dy="0.3em" style="text-anchor: end; visibility: hidden; font-family: Roboto, sans-serif; font-size: 12px; font-weight: 200;" fill="rgb(33, 33, 33)" stroke="none" stroke-width="1px">0.2</text><text x="0" y="118.00000000000001" dx="0em" dy="0.3em" style="text-anchor: end; visibility: inherit; font-family: Roboto, sans-serif; font-size: 12px; font-weight: 200;" fill="rgb(33, 33, 33)" stroke="none" stroke-width="1px">0.3</text><text x="0" y="98.33333333333334" dx="0em" dy="0.3em" style="text-anchor: end; visibility: hidden; font-family: Roboto, sans-serif; font-size: 12px; font-weight: 200;" fill="rgb(33, 33, 33)" stroke="none" stroke-width="1px">0.4</text><text x="0" y="78.66666666666666" dx="0em" dy="0.3em" style="text-anchor: end; visibility: inherit; font-family: Roboto, sans-serif; font-size: 12px; font-weight: 200;" fill="rgb(33, 33, 33)" stroke="none" stroke-width="1px">0.5</text><text x="0" y="59.00000000000001" dx="0em" dy="0.3em" style="text-anchor: end; visibility: hidden; font-family: Roboto, sans-serif; font-size: 12px; font-weight: 200;" fill="rgb(33, 33, 33)" stroke="none" stroke-width="1px">0.6</text><text x="0" y="39.33333333333335" dx="0em" dy="0.3em" style="text-anchor: end; visibility: inherit; font-family: Roboto, sans-serif; font-size: 12px; font-weight: 200;" fill="rgb(33, 33, 33)" stroke="none" stroke-width="1px">0.7</text><text x="0" y="19.666666666666657" dx="0em" dy="0.3em" style="text-anchor: end; visibility: hidden; font-family: Roboto, sans-serif; font-size: 12px; font-weight: 200;" fill="rgb(33, 33, 33)" stroke="none" stroke-width="1px">0.8</text><text x="0" y="0" dx="0em" dy="0.3em" style="text-anchor: end; visibility: hidden; font-family: Roboto, sans-serif; font-size: 12px; font-weight: 200;" fill="rgb(33, 33, 33)" stroke="none" stroke-width="1px">0.9</text></g><line x1="41.171875" y1="0" x2="41.171875" y2="177" fill="rgb(0, 0, 0)" stroke="rgb(204, 204, 204)" stroke-width="1px"></line></g></g><g transform="translate(41, 0)" clip-path="url(#clip_0)"><clipPath id="clip_0"><rect width="288" height="177"></rect></clipPath><g><g><g><line x1="0" y1="0" x2="0" y2="177" fill="rgb(0, 0, 0)" stroke="rgb(66, 66, 66)" stroke-width="1px" opacity="0.25"></line><line x1="20.630580357142858" y1="0" x2="20.630580357142858" y2="177" fill="rgb(0, 0, 0)" stroke="rgb(66, 66, 66)" stroke-width="1px" opacity="0.25"></line><line x1="41.261160714285715" y1="0" x2="41.261160714285715" y2="177" fill="rgb(0, 0, 0)" stroke="rgb(66, 66, 66)" stroke-width="1px" opacity="0.25"></line><line x1="61.89174107142857" y1="0" x2="61.89174107142857" y2="177" fill="rgb(0, 0, 0)" stroke="rgb(66, 66, 66)" stroke-width="1px" opacity="0.25"></line><line x1="82.52232142857143" y1="0" x2="82.52232142857143" y2="177" fill="rgb(0, 0, 0)" stroke="rgb(66, 66, 66)" stroke-width="1px" opacity="0.25"></line><line x1="103.15290178571429" y1="0" x2="103.15290178571429" y2="177" fill="rgb(0, 0, 0)" stroke="rgb(66, 66, 66)" stroke-width="1px" opacity="0.25"></line><line x1="123.78348214285714" y1="0" x2="123.78348214285714" y2="177" fill="rgb(0, 0, 0)" stroke="rgb(66, 66, 66)" stroke-width="1px" opacity="0.25"></line><line x1="144.4140625" y1="0" x2="144.4140625" y2="177" fill="rgb(0, 0, 0)" stroke="rgb(66, 66, 66)" stroke-width="1px" opacity="0.25"></line><line x1="165.04464285714286" y1="0" x2="165.04464285714286" y2="177" fill="rgb(0, 0, 0)" stroke="rgb(66, 66, 66)" stroke-width="1px" opacity="0.25"></line><line x1="185.67522321428572" y1="0" x2="185.67522321428572" y2="177" fill="rgb(0, 0, 0)" stroke="rgb(66, 66, 66)" stroke-width="1px" opacity="0.25"></line><line x1="206.30580357142858" y1="0" x2="206.30580357142858" y2="177" fill="rgb(0, 0, 0)" stroke="rgb(66, 66, 66)" stroke-width="1px" opacity="0.25"></line><line x1="226.93638392857142" y1="0" x2="226.93638392857142" y2="177" fill="rgb(0, 0, 0)" stroke="rgb(66, 66, 66)" stroke-width="1px" opacity="0.25"></line><line x1="247.56696428571428" y1="0" x2="247.56696428571428" y2="177" fill="rgb(0, 0, 0)" stroke="rgb(66, 66, 66)" stroke-width="1px" opacity="0.25"></line><line x1="268.19754464285717" y1="0" x2="268.19754464285717" y2="177" fill="rgb(0, 0, 0)" stroke="rgb(66, 66, 66)" stroke-width="1px" opacity="0.25"></line><line x1="288.828125" y1="0" x2="288.828125" y2="177" fill="rgb(0, 0, 0)" stroke="rgb(66, 66, 66)" stroke-width="1px" opacity="0.25"></line></g><g><line x1="0" y1="177" x2="288.828125" y2="177" fill="rgb(0, 0, 0)" stroke="rgb(66, 66, 66)" stroke-width="1px" opacity="0.25"></line><line x1="0" y1="157.33333333333331" x2="288.828125" y2="157.33333333333331" fill="rgb(0, 0, 0)" stroke="rgb(66, 66, 66)" stroke-width="1px" opacity="0.25"></line><line x1="0" y1="137.66666666666666" x2="288.828125" y2="137.66666666666666" fill="rgb(0, 0, 0)" stroke="rgb(66, 66, 66)" stroke-width="1px" opacity="0.25"></line><line x1="0" y1="118.00000000000001" x2="288.828125" y2="118.00000000000001" fill="rgb(0, 0, 0)" stroke="rgb(66, 66, 66)" stroke-width="1px" opacity="0.25"></line><line x1="0" y1="98.33333333333334" x2="288.828125" y2="98.33333333333334" fill="rgb(0, 0, 0)" stroke="rgb(66, 66, 66)" stroke-width="1px" opacity="0.25"></line><line x1="0" y1="78.66666666666666" x2="288.828125" y2="78.66666666666666" fill="rgb(0, 0, 0)" stroke="rgb(66, 66, 66)" stroke-width="1px" opacity="0.25"></line><line x1="0" y1="59.00000000000001" x2="288.828125" y2="59.00000000000001" fill="rgb(0, 0, 0)" stroke="rgb(66, 66, 66)" stroke-width="1px" opacity="0.25"></line><line x1="0" y1="39.33333333333335" x2="288.828125" y2="39.33333333333335" fill="rgb(0, 0, 0)" stroke="rgb(66, 66, 66)" stroke-width="1px" opacity="0.25"></line><line x1="0" y1="19.666666666666657" x2="288.828125" y2="19.666666666666657" fill="rgb(0, 0, 0)" stroke="rgb(66, 66, 66)" stroke-width="1px" opacity="0.25"></line><line x1="0" y1="0" x2="288.828125" y2="0" fill="rgb(0, 0, 0)" stroke="rgb(66, 66, 66)" stroke-width="1px" opacity="0.25"></line></g></g></g><g><g><line x1="0" y1="177" x2="288.828125" y2="177" fill="rgb(0, 0, 0)" stroke="rgb(153, 153, 153)" stroke-width="1.5px"></line></g></g><g><g><line x1="20.630580357142858" y1="0" x2="20.630580357142858" y2="177" fill="rgb(0, 0, 0)" stroke="rgb(153, 153, 153)" stroke-width="1.5px"></line></g></g><g><g><g><g><g><path stroke="rgb(255, 112, 67)" stroke-width="2px" d="M23.725167410714285,176.96727148691812L25.788225446428573,172.9858706138587L27.851283482142858,169.36086297411106L29.914341517857146,166.95472244583118L31.977399553571427,161.88103401994692L34.040457589285715,157.93555472204324L36.103515625,155.56127520918497L38.166573660714285,152.977049138973L40.22963169642857,145.88029665245958L42.29268973214286,143.68525960452885L44.355747767857146,144.24585330054424L46.41880580357143,136.24197989255873L48.48186383928571,132.57935021992617L50.544921875,132.21797329872598L52.607979910714285,126.43962047581792L54.67103794642857,121.68977987821681L56.734095982142854,119.96198706710396L58.797154017857146,114.51276872710095L60.86021205357143,112.1839990579377L62.923270089285715,110.01839651998152L66.01785714285714,103.42266431343648L68.08091517857143,102.61856687608507L70.14397321428571,103.85400985892103L72.20703125,97.86139787361563L74.27008928571428,94.00177680719223L76.33314732142857,91.32998551283015L78.39620535714285,92.15794745392185L80.45926339285714,86.35967223794255L82.52232142857143,86.54529601050878L84.58537946428572,84.84019146208142L86.6484375,83.91743844290525L88.71149553571429,83.34087869890169L90.77455357142857,79.5792555509955L92.83761160714286,77.68265721366264L94.90066964285714,75.38791334445997L96.96372767857142,74.77044360880238L99.02678571428571,76.04528456560138L101.08984375,70.71028370592528L103.15290178571429,71.99141085239162L105.21595982142857,69.48235023940667L107.27901785714286,68.87960508834597L110.37360491071428,69.35535071265977L112.43666294642857,66.15131495873301L114.49972098214285,69.46175796591912L116.56277901785714,71.98604822232917L118.62583705357143,67.97930943219149L120.68889508928572,65.5574364812348L122.751953125,60.49918823041097L124.81501116071429,60.76375375153692L126.87806919642857,60.209848712547334L128.94112723214286,59.69031644359L131.00418526785714,55.9804475456244L133.06724330357142,58.289447881248755L135.13030133928572,55.73973050133726L137.193359375,52.33533140859554L139.25641741071428,50.21398526756971L141.31947544642856,49.718497613559485L143.38253348214286,46.92650775431695L145.44559151785714,47.74384426408079L147.50864955357142,47.338894877597724L149.57170758928572,44.301980682241606L151.634765625,44.823779069341015L154.72935267857142,45.14892214058724L156.7924107142857,42.906597352215876L158.85546875,47.20434513647804L160.91852678571428,44.77974086652664L162.98158482142858,43.85962741154963L165.04464285714286,43.9531993038457L167.10770089285717,45.74247313738226L169.17075892857144,41.429309796554044L171.23381696428572,37.595718350920684L173.296875,37.19324194071962L175.35993303571428,38.176306868199056L177.42299107142858,34.5672277689826L179.48604910714286,32.88913079330477L181.54910714285714,28.583859129931906L183.61216517857142,27.20608020080403L185.67522321428572,28.257875147593346L187.73828125,26.726259555215666L189.80133928571428,26.092196836775543L191.86439732142856,23.503984001176676L193.92745535714283,23.72156769779597L195.99051339285714,21.815573740423712L199.08510044642858,23.76370282897821L201.14815848214286,23.75838882880738L203.21121651785717,21.84384674698299L205.27427455357144,21.92396547910035L207.33733258928572,22.365599652950554L209.400390625,21.822978828150926L211.46344866071428,21.49813816303843L213.52650669642858,19.970670464432985L215.58956473214286,20.85110518901749L217.65262276785714,20.822966297957965L219.71568080357142,20.22955482174822L221.77873883928572,19.796002510654635L223.841796875,20.27209067791499L225.90485491071428,18.366678121011745L227.96791294642856,16.921005428437777L230.03097098214283,16.06886275576119L232.09402901785714,15.924498805004061L234.15708705357142,15.156677674652753L236.22014508928572,15.686476977465535L238.283203125,15.67112913155337L240.3462611607143,12.482016903622814L243.44084821428572,11.519880322606022L245.50390625,9.951980963681473L247.56696428571428,9.504195225116863L249.63002232142858,12.75555380621131L251.69308035714286,11.586828370346032L253.75613839285714,10.404061526824318L255.81919642857142,9.138710401570219L257.8822544642857,8.904836471060738L259.9453125,8.141106189274577L262.0083705357143,8.239638275002623L264.07142857142856,7.947681718456341L266.13448660714283,7.782938580015789L268.19754464285717,6.3369480700107115L270.26060267857144,8.062831275874519L272.3236607142857,7.837212986642674L274.38671875,7.874655301442941L276.4497767857143,6.4219130966247056L278.51283482142856,4.2992532799020005" style="fill: none;" fill="none"></path></g></g></g></g><g opacity="0.2"><g><g><g><path stroke="rgb(255, 112, 67)" stroke-width="2px" d="M23.725167410714285,176.96727148691812L25.788225446428573,170.57712308565775L27.851283482142858,165.8408899307251L29.914341517857146,164.08547174930573L31.977399553571427,155.15106829007468L34.040457589285715,152.38229703903198L36.103515625,152.10304967562357L38.166573660714285,149.13636000951132L40.22963169642857,135.20568879445395L42.29268973214286,140.35974971453348L44.355747767857146,145.09884309768677L46.41880580357143,124.031609416008L48.48186383928571,126.98298982779185L50.544921875,131.66527720292407L52.607979910714285,117.59702197710673L54.67103794642857,114.418581644694L56.734095982142854,117.31647344430289L58.797154017857146,106.16812439759572L60.86021205357143,108.6175699234009L62.923270089285715,106.70169762770335L66.01785714285714,93.32077634334566L68.08091517857143,101.38700675964357L70.14397321428571,105.74624073505402L72.20703125,88.6829280058543L74.27008928571428,88.09023948510487L76.33314732142857,87.23776253064474L78.39620535714285,93.42608900864919L80.45926339285714,77.47878106435141L82.52232142857143,86.82960561911266L84.58537946428572,82.22857685883841L86.6484375,82.50410827000935L88.71149553571429,82.45779367287953L90.77455357142857,73.81778271993002L92.83761160714286,74.77774095535278L94.90066964285714,71.8731791973114L96.96372767857142,73.82469884554546L99.02678571428571,77.99788904190063L101.08984375,62.5389533440272L103.15290178571429,73.95364356040955L105.21595982142857,65.63935867945354L107.27901785714286,67.95641314983368L110.37360491071428,70.08402438958487L112.43666294642857,61.24386779467265L114.49972098214285,74.53218332926433L116.56277901785714,75.85236620903015L118.62583705357143,61.84240571657818L120.68889508928572,61.84798550605774L122.751953125,52.751744707425445L124.81501116071429,61.16897435983023L126.87806919642857,59.361462513605765L128.94112723214286,58.89457714557647L131.00418526785714,50.298243284225464L133.06724330357142,61.826018015543625L135.13030133928572,51.83446717262269L137.193359375,47.12099862098694L139.25641741071428,46.96483484903972L141.31947544642856,48.95958614349366L143.38253348214286,42.65016885598501L145.44559151785714,48.995714108149215L147.50864955357142,46.71865594387055L149.57170758928572,39.650504509607956L151.634765625,45.62298925717673L154.72935267857142,45.64692608515422L156.7924107142857,39.47215052445729L158.85546875,53.78697148958842L160.91852678571428,41.066106478373214L162.98158482142858,42.45033971468607L165.04464285714286,44.09651827812195L167.10770089285717,48.48300647735596L169.17075892857144,34.823072274525956L171.23381696428572,31.724014997482307L173.296875,36.5767907301585L175.35993303571428,39.68201390902201L177.42299107142858,29.039397756258648L179.48604910714286,30.31888099511465L181.54910714285714,21.98970886071523L183.61216517857142,25.095811208089202L185.67522321428572,29.868852217992156L187.73828125,24.38036731878916L189.80133928571428,25.121037483215332L191.86439732142856,19.539759278297424L193.92745535714283,24.05482880274455L195.99051339285714,18.896266539891567L199.08510044642858,26.747546116511035L201.14815848214286,23.75024966398875L203.21121651785717,18.9114468495051L205.27427455357144,22.046678980191547L207.33733258928572,23.04202667872111L209.400390625,20.991876045862842L211.46344866071428,21.00059739748637L213.52650669642858,17.631131331125896L215.58956473214286,22.19961913426718L217.65262276785714,20.779867490132656L219.71568080357142,19.320658763249714L221.77873883928572,19.13195403416952L223.841796875,21.00128901004792L225.90485491071428,15.448261419932056L227.96791294642856,14.706747253735864L230.03097098214283,14.763682206471758L232.09402901785714,15.70338439941407L234.15708705357142,13.980647842089343L236.22014508928572,16.49794173240663L238.283203125,15.647621671358747L240.3462611607143,7.597427288691205L243.44084821428572,10.046228090922046L245.50390625,7.550514856974292L247.56696428571428,8.818346182505286L249.63002232142858,17.735482772191375L251.69308035714286,9.796755234400427L253.75613839285714,8.592481931050623L255.81919642857142,7.200640956560773L257.8822544642857,8.546624501546235L259.9453125,6.971342086791998L262.0083705357143,8.39055450757345L264.07142857142856,7.500507752100635L266.13448660714283,7.530610481897986L268.19754464285717,4.122203111648566L270.26060267857144,10.706272641817725L272.3236607142857,7.49164573351543L274.38671875,7.93200365702312L276.4497767857143,4.1968269348144664L278.51283482142856,1.0480907758077094" style="fill: none;" fill="none"></path></g></g></g></g></g></g><g transform="translate(41, 177)" clip-path="url(#clip_1)"><clipPath id="clip_1"><rect width="288" height="23"></rect></clipPath><g><g><line x1="0" y1="0" x2="0" y2="5" style="visibility: inherit;" fill="rgb(0, 0, 0)" stroke="rgb(204, 204, 204)" stroke-width="1px"></line><line x1="20.630580357142858" y1="0" x2="20.630580357142858" y2="5" style="visibility: inherit;" fill="rgb(0, 0, 0)" stroke="rgb(204, 204, 204)" stroke-width="1px"></line><line x1="41.261160714285715" y1="0" x2="41.261160714285715" y2="5" style="visibility: inherit;" fill="rgb(0, 0, 0)" stroke="rgb(204, 204, 204)" stroke-width="1px"></line><line x1="61.89174107142857" y1="0" x2="61.89174107142857" y2="5" style="visibility: inherit;" fill="rgb(0, 0, 0)" stroke="rgb(204, 204, 204)" stroke-width="1px"></line><line x1="82.52232142857143" y1="0" x2="82.52232142857143" y2="5" style="visibility: inherit;" fill="rgb(0, 0, 0)" stroke="rgb(204, 204, 204)" stroke-width="1px"></line><line x1="103.15290178571429" y1="0" x2="103.15290178571429" y2="5" style="visibility: inherit;" fill="rgb(0, 0, 0)" stroke="rgb(204, 204, 204)" stroke-width="1px"></line><line x1="123.78348214285714" y1="0" x2="123.78348214285714" y2="5" style="visibility: inherit;" fill="rgb(0, 0, 0)" stroke="rgb(204, 204, 204)" stroke-width="1px"></line><line x1="144.4140625" y1="0" x2="144.4140625" y2="5" style="visibility: inherit;" fill="rgb(0, 0, 0)" stroke="rgb(204, 204, 204)" stroke-width="1px"></line><line x1="165.04464285714286" y1="0" x2="165.04464285714286" y2="5" style="visibility: inherit;" fill="rgb(0, 0, 0)" stroke="rgb(204, 204, 204)" stroke-width="1px"></line><line x1="185.67522321428572" y1="0" x2="185.67522321428572" y2="5" style="visibility: inherit;" fill="rgb(0, 0, 0)" stroke="rgb(204, 204, 204)" stroke-width="1px"></line><line x1="206.30580357142858" y1="0" x2="206.30580357142858" y2="5" style="visibility: inherit;" fill="rgb(0, 0, 0)" stroke="rgb(204, 204, 204)" stroke-width="1px"></line><line x1="226.93638392857142" y1="0" x2="226.93638392857142" y2="5" style="visibility: inherit;" fill="rgb(0, 0, 0)" stroke="rgb(204, 204, 204)" stroke-width="1px"></line><line x1="247.56696428571428" y1="0" x2="247.56696428571428" y2="5" style="visibility: inherit;" fill="rgb(0, 0, 0)" stroke="rgb(204, 204, 204)" stroke-width="1px"></line><line x1="268.19754464285717" y1="0" x2="268.19754464285717" y2="5" style="visibility: inherit;" fill="rgb(0, 0, 0)" stroke="rgb(204, 204, 204)" stroke-width="1px"></line><line x1="288.828125" y1="0" x2="288.828125" y2="5" style="visibility: inherit;" fill="rgb(0, 0, 0)" stroke="rgb(204, 204, 204)" stroke-width="1px"></line></g><g transform="translate(0, 8)"><text x="0" y="0" dx="0em" dy="0.95em" style="text-anchor: middle; visibility: hidden; font-family: Roboto, sans-serif; font-size: 12px; font-weight: 200;" fill="rgb(33, 33, 33)" stroke="none" stroke-width="1px">-20k</text><text x="20.630580357142858" y="0" dx="0em" dy="0.95em" style="text-anchor: middle; visibility: inherit; font-family: Roboto, sans-serif; font-size: 12px; font-weight: 200;" fill="rgb(33, 33, 33)" stroke="none" stroke-width="1px">0</text><text x="41.261160714285715" y="0" dx="0em" dy="0.95em" style="text-anchor: middle; visibility: hidden; font-family: Roboto, sans-serif; font-size: 12px; font-weight: 200;" fill="rgb(33, 33, 33)" stroke="none" stroke-width="1px">20k</text><text x="61.89174107142857" y="0" dx="0em" dy="0.95em" style="text-anchor: middle; visibility: inherit; font-family: Roboto, sans-serif; font-size: 12px; font-weight: 200;" fill="rgb(33, 33, 33)" stroke="none" stroke-width="1px">40k</text><text x="82.52232142857143" y="0" dx="0em" dy="0.95em" style="text-anchor: middle; visibility: hidden; font-family: Roboto, sans-serif; font-size: 12px; font-weight: 200;" fill="rgb(33, 33, 33)" stroke="none" stroke-width="1px">60k</text><text x="103.15290178571429" y="0" dx="0em" dy="0.95em" style="text-anchor: middle; visibility: inherit; font-family: Roboto, sans-serif; font-size: 12px; font-weight: 200;" fill="rgb(33, 33, 33)" stroke="none" stroke-width="1px">80k</text><text x="123.78348214285714" y="0" dx="0em" dy="0.95em" style="text-anchor: middle; visibility: hidden; font-family: Roboto, sans-serif; font-size: 12px; font-weight: 200;" fill="rgb(33, 33, 33)" stroke="none" stroke-width="1px">100k</text><text x="144.4140625" y="0" dx="0em" dy="0.95em" style="text-anchor: middle; visibility: inherit; font-family: Roboto, sans-serif; font-size: 12px; font-weight: 200;" fill="rgb(33, 33, 33)" stroke="none" stroke-width="1px">120k</text><text x="165.04464285714286" y="0" dx="0em" dy="0.95em" style="text-anchor: middle; visibility: hidden; font-family: Roboto, sans-serif; font-size: 12px; font-weight: 200;" fill="rgb(33, 33, 33)" stroke="none" stroke-width="1px">140k</text><text x="185.67522321428572" y="0" dx="0em" dy="0.95em" style="text-anchor: middle; visibility: inherit; font-family: Roboto, sans-serif; font-size: 12px; font-weight: 200;" fill="rgb(33, 33, 33)" stroke="none" stroke-width="1px">160k</text><text x="206.30580357142858" y="0" dx="0em" dy="0.95em" style="text-anchor: middle; visibility: hidden; font-family: Roboto, sans-serif; font-size: 12px; font-weight: 200;" fill="rgb(33, 33, 33)" stroke="none" stroke-width="1px">180k</text><text x="226.93638392857142" y="0" dx="0em" dy="0.95em" style="text-anchor: middle; visibility: inherit; font-family: Roboto, sans-serif; font-size: 12px; font-weight: 200;" fill="rgb(33, 33, 33)" stroke="none" stroke-width="1px">200k</text><text x="247.56696428571428" y="0" dx="0em" dy="0.95em" style="text-anchor: middle; visibility: hidden; font-family: Roboto, sans-serif; font-size: 12px; font-weight: 200;" fill="rgb(33, 33, 33)" stroke="none" stroke-width="1px">220k</text><text x="268.19754464285717" y="0" dx="0em" dy="0.95em" style="text-anchor: middle; visibility: inherit; font-family: Roboto, sans-serif; font-size: 12px; font-weight: 200;" fill="rgb(33, 33, 33)" stroke="none" stroke-width="1px">240k</text><text x="288.828125" y="0" dx="0em" dy="0.95em" style="text-anchor: middle; visibility: hidden; font-family: Roboto, sans-serif; font-size: 12px; font-weight: 200;" fill="rgb(33, 33, 33)" stroke="none" stroke-width="1px">260k</text></g><line x1="0" y1="0" x2="288.828125" y2="0" fill="rgb(0, 0, 0)" stroke="rgb(204, 204, 204)" stroke-width="1px"></line></g></g></g></g></svg>