<svg viewBox="0 0 330 200" xmlns="http://www.w3.org/2000/svg"><g><g><g><g><g><line x1="51.5625" y1="177" x2="46.5625" y2="177" style="visibility: inherit;" fill="rgb(0, 0, 0)" stroke="rgb(204, 204, 204)" stroke-width="1px"></line><line x1="51.5625" y1="157.33333333333331" x2="46.5625" y2="157.33333333333331" style="visibility: inherit;" fill="rgb(0, 0, 0)" stroke="rgb(204, 204, 204)" stroke-width="1px"></line><line x1="51.5625" y1="137.66666666666666" x2="46.5625" y2="137.66666666666666" style="visibility: inherit;" fill="rgb(0, 0, 0)" stroke="rgb(204, 204, 204)" stroke-width="1px"></line><line x1="51.5625" y1="118.00000000000001" x2="46.5625" y2="118.00000000000001" style="visibility: inherit;" fill="rgb(0, 0, 0)" stroke="rgb(204, 204, 204)" stroke-width="1px"></line><line x1="51.5625" y1="98.33333333333334" x2="46.5625" y2="98.33333333333334" style="visibility: inherit;" fill="rgb(0, 0, 0)" stroke="rgb(204, 204, 204)" stroke-width="1px"></line><line x1="51.5625" y1="78.66666666666666" x2="46.5625" y2="78.66666666666666" style="visibility: inherit;" fill="rgb(0, 0, 0)" stroke="rgb(204, 204, 204)" stroke-width="1px"></line><line x1="51.5625" y1="59.00000000000001" x2="46.5625" y2="59.00000000000001" style="visibility: inherit;" fill="rgb(0, 0, 0)" stroke="rgb(204, 204, 204)" stroke-width="1px"></line><line x1="51.5625" y1="39.33333333333333" x2="46.5625" y2="39.33333333333333" style="visibility: inherit;" fill="rgb(0, 0, 0)" stroke="rgb(204, 204, 204)" stroke-width="1px"></line><line x1="51.5625" y1="19.666666666666675" x2="46.5625" y2="19.666666666666675" style="visibility: inherit;" fill="rgb(0, 0, 0)" stroke="rgb(204, 204, 204)" stroke-width="1px"></line><line x1="51.5625" y1="0" x2="46.5625" y2="0" style="visibility: inherit;" fill="rgb(0, 0, 0)" stroke="rgb(204, 204, 204)" stroke-width="1px"></line></g><g transform="translate(41.5625, 0)"><text x="0" y="177" dx="0em" dy="0.3em" style="text-anchor: end; visibility: hidden; font-family: Roboto, sans-serif; font-size: 12px; font-weight: 200;" fill="rgb(33, 33, 33)" stroke="none" stroke-width="1px">0</text><text x="0" y="157.33333333333331" dx="0em" dy="0.3em" style="text-anchor: end; visibility: inherit; font-family: Roboto, sans-serif; font-size: 12px; font-weight: 200;" fill="rgb(33, 33, 33)" stroke="none" stroke-width="1px">1e+4</text><text x="0" y="137.66666666666666" dx="0em" dy="0.3em" style="text-anchor: end; visibility: hidden; font-family: Roboto, sans-serif; font-size: 12px; font-weight: 200;" fill="rgb(33, 33, 33)" stroke="none" stroke-width="1px">2e+4</text><text x="0" y="118.00000000000001" dx="0em" dy="0.3em" style="text-anchor: end; visibility: inherit; font-family: Roboto, sans-serif; font-size: 12px; font-weight: 200;" fill="rgb(33, 33, 33)" stroke="none" stroke-width="1px">3e+4</text><text x="0" y="98.33333333333334" dx="0em" dy="0.3em" style="text-anchor: end; visibility: hidden; font-family: Roboto, sans-serif; font-size: 12px; font-weight: 200;" fill="rgb(33, 33, 33)" stroke="none" stroke-width="1px">4e+4</text><text x="0" y="78.66666666666666" dx="0em" dy="0.3em" style="text-anchor: end; visibility: inherit; font-family: Roboto, sans-serif; font-size: 12px; font-weight: 200;" fill="rgb(33, 33, 33)" stroke="none" stroke-width="1px">5e+4</text><text x="0" y="59.00000000000001" dx="0em" dy="0.3em" style="text-anchor: end; visibility: hidden; font-family: Roboto, sans-serif; font-size: 12px; font-weight: 200;" fill="rgb(33, 33, 33)" stroke="none" stroke-width="1px">6e+4</text><text x="0" y="39.33333333333333" dx="0em" dy="0.3em" style="text-anchor: end; visibility: inherit; font-family: Roboto, sans-serif; font-size: 12px; font-weight: 200;" fill="rgb(33, 33, 33)" stroke="none" stroke-width="1px">7e+4</text><text x="0" y="19.666666666666675" dx="0em" dy="0.3em" style="text-anchor: end; visibility: hidden; font-family: Roboto, sans-serif; font-size: 12px; font-weight: 200;" fill="rgb(33, 33, 33)" stroke="none" stroke-width="1px">8e+4</text><text x="0" y="0" dx="0em" dy="0.3em" style="text-anchor: end; visibility: hidden; font-family: Roboto, sans-serif; font-size: 12px; font-weight: 200;" fill="rgb(33, 33, 33)" stroke="none" stroke-width="1px">9e+4</text></g><line x1="51.5625" y1="0" x2="51.5625" y2="177" fill="rgb(0, 0, 0)" stroke="rgb(204, 204, 204)" stroke-width="1px"></line></g></g><g transform="translate(51, 0)" clip-path="url(#clip_0)"><clipPath id="clip_0"><rect width="278" height="177"></rect></clipPath><g><g><g><line x1="0" y1="0" x2="0" y2="177" fill="rgb(0, 0, 0)" stroke="rgb(66, 66, 66)" stroke-width="1px" opacity="0.25"></line><line x1="19.888392857142858" y1="0" x2="19.888392857142858" y2="177" fill="rgb(0, 0, 0)" stroke="rgb(66, 66, 66)" stroke-width="1px" opacity="0.25"></line><line x1="39.776785714285715" y1="0" x2="39.776785714285715" y2="177" fill="rgb(0, 0, 0)" stroke="rgb(66, 66, 66)" stroke-width="1px" opacity="0.25"></line><line x1="59.66517857142857" y1="0" x2="59.66517857142857" y2="177" fill="rgb(0, 0, 0)" stroke="rgb(66, 66, 66)" stroke-width="1px" opacity="0.25"></line><line x1="79.55357142857143" y1="0" x2="79.55357142857143" y2="177" fill="rgb(0, 0, 0)" stroke="rgb(66, 66, 66)" stroke-width="1px" opacity="0.25"></line><line x1="99.44196428571429" y1="0" x2="99.44196428571429" y2="177" fill="rgb(0, 0, 0)" stroke="rgb(66, 66, 66)" stroke-width="1px" opacity="0.25"></line><line x1="119.33035714285714" y1="0" x2="119.33035714285714" y2="177" fill="rgb(0, 0, 0)" stroke="rgb(66, 66, 66)" stroke-width="1px" opacity="0.25"></line><line x1="139.21875" y1="0" x2="139.21875" y2="177" fill="rgb(0, 0, 0)" stroke="rgb(66, 66, 66)" stroke-width="1px" opacity="0.25"></line><line x1="159.10714285714286" y1="0" x2="159.10714285714286" y2="177" fill="rgb(0, 0, 0)" stroke="rgb(66, 66, 66)" stroke-width="1px" opacity="0.25"></line><line x1="178.99553571428572" y1="0" x2="178.99553571428572" y2="177" fill="rgb(0, 0, 0)" stroke="rgb(66, 66, 66)" stroke-width="1px" opacity="0.25"></line><line x1="198.88392857142858" y1="0" x2="198.88392857142858" y2="177" fill="rgb(0, 0, 0)" stroke="rgb(66, 66, 66)" stroke-width="1px" opacity="0.25"></line><line x1="218.77232142857142" y1="0" x2="218.77232142857142" y2="177" fill="rgb(0, 0, 0)" stroke="rgb(66, 66, 66)" stroke-width="1px" opacity="0.25"></line><line x1="238.66071428571428" y1="0" x2="238.66071428571428" y2="177" fill="rgb(0, 0, 0)" stroke="rgb(66, 66, 66)" stroke-width="1px" opacity="0.25"></line><line x1="258.54910714285717" y1="0" x2="258.54910714285717" y2="177" fill="rgb(0, 0, 0)" stroke="rgb(66, 66, 66)" stroke-width="1px" opacity="0.25"></line><line x1="278.4375" y1="0" x2="278.4375" y2="177" fill="rgb(0, 0, 0)" stroke="rgb(66, 66, 66)" stroke-width="1px" opacity="0.25"></line></g><g><line x1="0" y1="177" x2="278.4375" y2="177" fill="rgb(0, 0, 0)" stroke="rgb(66, 66, 66)" stroke-width="1px" opacity="0.25"></line><line x1="0" y1="157.33333333333331" x2="278.4375" y2="157.33333333333331" fill="rgb(0, 0, 0)" stroke="rgb(66, 66, 66)" stroke-width="1px" opacity="0.25"></line><line x1="0" y1="137.66666666666666" x2="278.4375" y2="137.66666666666666" fill="rgb(0, 0, 0)" stroke="rgb(66, 66, 66)" stroke-width="1px" opacity="0.25"></line><line x1="0" y1="118.00000000000001" x2="278.4375" y2="118.00000000000001" fill="rgb(0, 0, 0)" stroke="rgb(66, 66, 66)" stroke-width="1px" opacity="0.25"></line><line x1="0" y1="98.33333333333334" x2="278.4375" y2="98.33333333333334" fill="rgb(0, 0, 0)" stroke="rgb(66, 66, 66)" stroke-width="1px" opacity="0.25"></line><line x1="0" y1="78.66666666666666" x2="278.4375" y2="78.66666666666666" fill="rgb(0, 0, 0)" stroke="rgb(66, 66, 66)" stroke-width="1px" opacity="0.25"></line><line x1="0" y1="59.00000000000001" x2="278.4375" y2="59.00000000000001" fill="rgb(0, 0, 0)" stroke="rgb(66, 66, 66)" stroke-width="1px" opacity="0.25"></line><line x1="0" y1="39.33333333333333" x2="278.4375" y2="39.33333333333333" fill="rgb(0, 0, 0)" stroke="rgb(66, 66, 66)" stroke-width="1px" opacity="0.25"></line><line x1="0" y1="19.666666666666675" x2="278.4375" y2="19.666666666666675" fill="rgb(0, 0, 0)" stroke="rgb(66, 66, 66)" stroke-width="1px" opacity="0.25"></line><line x1="0" y1="0" x2="278.4375" y2="0" fill="rgb(0, 0, 0)" stroke="rgb(66, 66, 66)" stroke-width="1px" opacity="0.25"></line></g></g></g><g><g><line x1="0" y1="177" x2="278.4375" y2="177" fill="rgb(0, 0, 0)" stroke="rgb(153, 153, 153)" stroke-width="1.5px"></line></g></g><g><g><line x1="19.888392857142858" y1="0" x2="19.888392857142858" y2="177" fill="rgb(0, 0, 0)" stroke="rgb(153, 153, 153)" stroke-width="1.5px"></line></g></g><g><g><g><g><g><path stroke="rgb(255, 112, 67)" stroke-width="2px" d="M26.849330357142858,-0.25449291703397625L28.838169642857146,12.132337401593027L30.827008928571427,13.858118222789752L32.815848214285715,17.12447315786076L34.8046875,18.10852365067909L36.793526785714285,23.63234921590127L38.78236607142857,28.806469210529585L40.77120535714286,27.874019652624042L42.760044642857146,32.50074597201819L44.74888392857143,32.4727625141829L46.73772321428571,31.67665197024986L48.7265625,39.38068398296173L50.715401785714285,42.39616152186867L52.70424107142857,39.22030309527591L54.693080357142854,39.6521824618103L56.681919642857146,46.373477264605064L58.67075892857143,48.5435310289942L60.659598214285715,52.881043505135366L63.64285714285714,57.709168891403145L65.63169642857143,62.31230328773417L67.62053571428571,66.57160028664626L69.609375,62.25591913975365L71.59821428571428,66.68846268715382L73.58705357142857,67.17863257455204L75.57589285714285,72.82085178168244L77.56473214285714,73.02475476192936L79.55357142857143,69.59586788188051L81.54241071428572,73.30143756659403L83.53125,76.39312899257568L85.52008928571429,81.73764347935106L87.50892857142857,82.45903799483885L89.49776785714286,78.50880682117858L91.48660714285714,77.87568319689633L93.47544642857142,77.62462011578731L95.46428571428571,79.44804117041772L97.453125,82.03609747791616L99.44196428571429,83.8530132564269L101.43080357142857,86.31176025583875L103.41964285714286,91.54510148997794L106.40290178571428,90.3479639598651L108.39174107142857,90.14806128938591L110.38058035714285,92.43991899015572L112.36941964285714,90.62847337679152L114.35825892857143,92.63093335863661L116.34709821428572,94.74624902388894L118.3359375,98.02944692648968L120.32477678571429,100.43446144461137L122.31361607142857,99.04033759780096L124.30245535714286,100.2709618078766L126.29129464285714,102.57040026877564L128.28013392857142,102.79949373357341L130.26897321428572,104.33733597639255L132.2578125,104.29214924683724L134.24665178571428,106.05742398574382L136.23549107142856,105.80275631410929L138.22433035714286,108.0176811403491L140.21316964285714,109.96378935097917L142.20200892857142,111.98098868657434L144.19084821428572,111.68219201084618L146.1796875,113.31849691330679L149.16294642857142,113.81424820579281L151.1517857142857,113.77800918175726L153.140625,115.50239680203346L155.12946428571428,117.53309144511306L157.11830357142858,117.53668808991841L159.10714285714286,115.98984777259075L161.09598214285717,117.47677199421427L163.08482142857144,120.98772888136942L165.07366071428572,120.96085636743423L167.0625,121.09901688029251L169.05133928571428,120.81431974870978L171.04017857142858,125.33496304757878L173.02901785714286,127.36985396051693L175.01785714285714,130.61289150255806L177.00669642857142,132.76000065364397L178.99553571428572,132.9484987157671L180.984375,133.7062299089115L182.97321428571428,134.2165973891623L184.96205357142856,135.8835383833338L186.95089285714283,135.51873897321906L188.93973214285714,136.68102169956575L191.92299107142858,134.65710657354978L193.91183035714286,134.96594002452366L195.90066964285717,136.412829170566L197.88950892857144,137.02301321101794L199.87834821428572,136.05231002228825L201.8671875,138.0735271324948L203.85602678571428,139.85369284875313L205.84486607142858,139.80136254524044L207.83370535714286,140.6006473418236L209.82254464285714,142.61185132474597L211.81138392857142,143.33013032230465L213.80022321428572,142.13495043809326L215.7890625,144.19836246442793L217.77790178571428,145.4985758136026L219.76674107142856,146.32303985941707L221.75558035714283,146.12212087878197L223.74441964285714,146.58925359553027L225.73325892857142,146.78127677067343L227.72209821428572,146.3478480359384L229.7109375,148.55570330474404L231.6997767857143,150.09663305340658L234.68303571428572,151.84843195922505L236.671875,152.01818012602126L238.66071428571428,152.13283978646422L240.64955357142858,152.20367151254263L242.63839285714286,153.09191054731485L244.62723214285714,153.6295265443742L246.61607142857142,154.00408810459376L248.60491071428572,155.22936792648886L250.59375,154.6871856199398L252.58258928571428,155.78046004632012L254.57142857142856,156.10559127594033L256.56026785714283,156.91499261647516L258.54910714285717,157.05433390454948L260.53794642857144,156.06357087862614L262.5267857142857,156.62078214963523L264.515625,157.23947353451368L266.5044642857143,157.99580706243677L268.49330357142856,159.26586320246176" style="fill: none;" fill="none"></path></g></g></g></g><g opacity="0.2"><g><g><g><path stroke="rgb(255, 112, 67)" stroke-width="2px" d="M24.860491071428573,-4.642716145833327L26.849330357142858,7.303232031250008L28.838169642857146,26.9032625L30.827008928571427,16.147270572916668L32.815848214285715,21.7218640625L34.8046875,19.541829427083332L36.793526785714285,31.841885156249997L38.78236607142857,36.58914192708333L40.77120535714286,26.46134635416666L42.760044642857146,39.54069374999999L44.74888392857143,32.430072135416665L46.73772321428571,30.460224999999994L48.7265625,51.16336341145834L50.715401785714285,47.010739062499994L52.70424107142857,34.35860390625001L54.693080357142854,40.31345546875L56.681919642857146,56.66611210937499L58.67075892857143,51.866892317708334L60.659598214285715,59.52410130208334L63.64285714285714,65.10382656249999L65.63169642857143,69.36248958333334L67.62053571428571,73.09523059895834L69.609375,55.64588841145833L71.59821428571428,73.47750911458333L73.58705357142857,67.92939648437499L75.57589285714285,81.46271354166667L77.56473214285714,73.33706145833332L79.55357142857143,64.34403255208333L81.54241071428572,78.977054296875L83.53125,81.12850312500001L85.52008928571429,89.92354401041666L87.50892857142857,83.56395859375002L89.49776785714286,72.45845312499999L91.48660714285714,76.90596223958333L93.47544642857142,77.24008046875001L95.46428571428571,82.24087591145833L97.453125,86.00008242187499L99.44196428571429,86.63588424479167L101.43080357142857,90.07768919270833L103.41964285714286,99.560725390625L106.40290178571428,88.51437356770833L108.39174107142857,89.84188125L110.38058035714285,95.95023268229167L112.36941964285714,87.85398072916666L114.35825892857143,95.69799231770833L116.34709821428572,97.986162890625L118.3359375,103.05814244791668L120.32477678571429,104.11809127604167L122.31361607142857,96.905033984375L124.30245535714286,102.15584192708333L126.29129464285714,106.092325L128.28013392857142,103.15038372395834L130.26897321428572,106.692765234375L132.2578125,104.22293919270834L134.24665178571428,108.76119921875L136.23549107142856,105.412695703125L138.22433035714286,111.41016093750001L140.21316964285714,112.94453736979166L142.20200892857142,115.07062311197916L144.19084821428572,111.22454140625L146.1796875,115.82473606770833L149.16294642857142,114.5735634765625L151.1517857142857,113.72250384114582L153.140625,118.1435474609375L155.12946428571428,120.64339589843752L157.11830357142858,117.54219687499999L159.10714285714286,113.62063665364585L161.09598214285717,119.754212890625L163.08482142857144,126.36527044270834L165.07366071428572,120.91969720052083L167.0625,121.31062981770833L169.05133928571428,120.3782646484375L171.04017857142858,132.258986328125L173.02901785714286,130.48658561197917L175.01785714285714,135.5800755859375L177.00669642857142,136.04861087239584L178.99553571428572,133.2372109375L180.984375,134.86680553385418L182.97321428571428,134.99829947916666L184.96205357142856,138.436701171875L186.95089285714283,134.95999557291665L188.93973214285714,138.46122688802083L191.92299107142858,131.5571859375L193.91183035714286,135.43896341145833L195.90066964285717,138.62895052083334L197.88950892857144,137.95759889322918L199.87834821428572,134.56553678385416L201.8671875,141.16931536458333L203.85602678571428,142.58027578125L205.84486607142858,139.72121106770834L207.83370535714286,141.82486835937502L209.82254464285714,145.69230299479167L211.81138392857142,144.43027916666668L213.80022321428572,140.30435846354166L215.7890625,147.3587783528646L217.77790178571428,147.49004182942707L219.76674107142856,147.58582656250002L221.75558035714283,145.8143842122396L223.74441964285714,147.3047353515625L225.73325892857142,147.07538821614583L227.72209821428572,145.68398883463541L229.7109375,151.93735504557293L231.6997767857143,152.45679127604168L234.68303571428572,154.5315669921875L236.671875,152.27817415364584L238.66071428571428,152.30845774739583L240.64955357142858,152.31216061197915L242.63839285714286,154.45237792968751L244.62723214285714,154.45296370442708L246.61607142857142,154.57778365885417L248.60491071428572,157.1060623372396L250.59375,153.85675449218752L252.58258928571428,157.45496897786458L254.57142857142856,156.60357708333333L256.56026785714283,158.15470859375L258.54910714285717,157.26775537109376L260.53794642857144,154.5460730794271L262.5267857142857,157.47423232421875L264.515625,158.187089453125L266.5044642857143,159.1542419596354L268.49330357142856,161.2111390625" style="fill: none;" fill="none"></path></g></g></g></g></g><g><g opacity="0.0289504"><span fill="rgb(0, 0, 0)" stroke="none" stroke-width="1px">Alt + Scroll to Zoom</span></g></g></g><g transform="translate(51, 177)" clip-path="url(#clip_1)"><clipPath id="clip_1"><rect width="278" height="23"></rect></clipPath><g><g><line x1="0" y1="0" x2="0" y2="5" style="visibility: inherit;" fill="rgb(0, 0, 0)" stroke="rgb(204, 204, 204)" stroke-width="1px"></line><line x1="19.888392857142858" y1="0" x2="19.888392857142858" y2="5" style="visibility: inherit;" fill="rgb(0, 0, 0)" stroke="rgb(204, 204, 204)" stroke-width="1px"></line><line x1="39.776785714285715" y1="0" x2="39.776785714285715" y2="5" style="visibility: inherit;" fill="rgb(0, 0, 0)" stroke="rgb(204, 204, 204)" stroke-width="1px"></line><line x1="59.66517857142857" y1="0" x2="59.66517857142857" y2="5" style="visibility: inherit;" fill="rgb(0, 0, 0)" stroke="rgb(204, 204, 204)" stroke-width="1px"></line><line x1="79.55357142857143" y1="0" x2="79.55357142857143" y2="5" style="visibility: inherit;" fill="rgb(0, 0, 0)" stroke="rgb(204, 204, 204)" stroke-width="1px"></line><line x1="99.44196428571429" y1="0" x2="99.44196428571429" y2="5" style="visibility: inherit;" fill="rgb(0, 0, 0)" stroke="rgb(204, 204, 204)" stroke-width="1px"></line><line x1="119.33035714285714" y1="0" x2="119.33035714285714" y2="5" style="visibility: inherit;" fill="rgb(0, 0, 0)" stroke="rgb(204, 204, 204)" stroke-width="1px"></line><line x1="139.21875" y1="0" x2="139.21875" y2="5" style="visibility: inherit;" fill="rgb(0, 0, 0)" stroke="rgb(204, 204, 204)" stroke-width="1px"></line><line x1="159.10714285714286" y1="0" x2="159.10714285714286" y2="5" style="visibility: inherit;" fill="rgb(0, 0, 0)" stroke="rgb(204, 204, 204)" stroke-width="1px"></line><line x1="178.99553571428572" y1="0" x2="178.99553571428572" y2="5" style="visibility: inherit;" fill="rgb(0, 0, 0)" stroke="rgb(204, 204, 204)" stroke-width="1px"></line><line x1="198.88392857142858" y1="0" x2="198.88392857142858" y2="5" style="visibility: inherit;" fill="rgb(0, 0, 0)" stroke="rgb(204, 204, 204)" stroke-width="1px"></line><line x1="218.77232142857142" y1="0" x2="218.77232142857142" y2="5" style="visibility: inherit;" fill="rgb(0, 0, 0)" stroke="rgb(204, 204, 204)" stroke-width="1px"></line><line x1="238.66071428571428" y1="0" x2="238.66071428571428" y2="5" style="visibility: inherit;" fill="rgb(0, 0, 0)" stroke="rgb(204, 204, 204)" stroke-width="1px"></line><line x1="258.54910714285717" y1="0" x2="258.54910714285717" y2="5" style="visibility: inherit;" fill="rgb(0, 0, 0)" stroke="rgb(204, 204, 204)" stroke-width="1px"></line><line x1="278.4375" y1="0" x2="278.4375" y2="5" style="visibility: inherit;" fill="rgb(0, 0, 0)" stroke="rgb(204, 204, 204)" stroke-width="1px"></line></g><g transform="translate(0, 8)"><text x="0" y="0" dx="0em" dy="0.95em" style="text-anchor: middle; visibility: hidden; font-family: Roboto, sans-serif; font-size: 12px; font-weight: 200;" fill="rgb(33, 33, 33)" stroke="none" stroke-width="1px">-20k</text><text x="19.888392857142858" y="0" dx="0em" dy="0.95em" style="text-anchor: middle; visibility: inherit; font-family: Roboto, sans-serif; font-size: 12px; font-weight: 200;" fill="rgb(33, 33, 33)" stroke="none" stroke-width="1px">0</text><text x="39.776785714285715" y="0" dx="0em" dy="0.95em" style="text-anchor: middle; visibility: hidden; font-family: Roboto, sans-serif; font-size: 12px; font-weight: 200;" fill="rgb(33, 33, 33)" stroke="none" stroke-width="1px">20k</text><text x="59.66517857142857" y="0" dx="0em" dy="0.95em" style="text-anchor: middle; visibility: inherit; font-family: Roboto, sans-serif; font-size: 12px; font-weight: 200;" fill="rgb(33, 33, 33)" stroke="none" stroke-width="1px">40k</text><text x="79.55357142857143" y="0" dx="0em" dy="0.95em" style="text-anchor: middle; visibility: hidden; font-family: Roboto, sans-serif; font-size: 12px; font-weight: 200;" fill="rgb(33, 33, 33)" stroke="none" stroke-width="1px">60k</text><text x="99.44196428571429" y="0" dx="0em" dy="0.95em" style="text-anchor: middle; visibility: inherit; font-family: Roboto, sans-serif; font-size: 12px; font-weight: 200;" fill="rgb(33, 33, 33)" stroke="none" stroke-width="1px">80k</text><text x="119.33035714285714" y="0" dx="0em" dy="0.95em" style="text-anchor: middle; visibility: hidden; font-family: Roboto, sans-serif; font-size: 12px; font-weight: 200;" fill="rgb(33, 33, 33)" stroke="none" stroke-width="1px">100k</text><text x="139.21875" y="0" dx="0em" dy="0.95em" style="text-anchor: middle; visibility: inherit; font-family: Roboto, sans-serif; font-size: 12px; font-weight: 200;" fill="rgb(33, 33, 33)" stroke="none" stroke-width="1px">120k</text><text x="159.10714285714286" y="0" dx="0em" dy="0.95em" style="text-anchor: middle; visibility: hidden; font-family: Roboto, sans-serif; font-size: 12px; font-weight: 200;" fill="rgb(33, 33, 33)" stroke="none" stroke-width="1px">140k</text><text x="178.99553571428572" y="0" dx="0em" dy="0.95em" style="text-anchor: middle; visibility: inherit; font-family: Roboto, sans-serif; font-size: 12px; font-weight: 200;" fill="rgb(33, 33, 33)" stroke="none" stroke-width="1px">160k</text><text x="198.88392857142858" y="0" dx="0em" dy="0.95em" style="text-anchor: middle; visibility: hidden; font-family: Roboto, sans-serif; font-size: 12px; font-weight: 200;" fill="rgb(33, 33, 33)" stroke="none" stroke-width="1px">180k</text><text x="218.77232142857142" y="0" dx="0em" dy="0.95em" style="text-anchor: middle; visibility: inherit; font-family: Roboto, sans-serif; font-size: 12px; font-weight: 200;" fill="rgb(33, 33, 33)" stroke="none" stroke-width="1px">200k</text><text x="238.66071428571428" y="0" dx="0em" dy="0.95em" style="text-anchor: middle; visibility: hidden; font-family: Roboto, sans-serif; font-size: 12px; font-weight: 200;" fill="rgb(33, 33, 33)" stroke="none" stroke-width="1px">220k</text><text x="258.54910714285717" y="0" dx="0em" dy="0.95em" style="text-anchor: middle; visibility: inherit; font-family: Roboto, sans-serif; font-size: 12px; font-weight: 200;" fill="rgb(33, 33, 33)" stroke="none" stroke-width="1px">240k</text><text x="278.4375" y="0" dx="0em" dy="0.95em" style="text-anchor: middle; visibility: hidden; font-family: Roboto, sans-serif; font-size: 12px; font-weight: 200;" fill="rgb(33, 33, 33)" stroke="none" stroke-width="1px">260k</text></g><line x1="0" y1="0" x2="278.4375" y2="0" fill="rgb(0, 0, 0)" stroke="rgb(204, 204, 204)" stroke-width="1px"></line></g></g></g></g></svg>