<svg viewBox="0 0 330 200" xmlns="http://www.w3.org/2000/svg"><g><g><g><g><g><line x1="41.171875" y1="177" x2="36.171875" y2="177" style="visibility: inherit;" fill="rgb(0, 0, 0)" stroke="rgb(204, 204, 204)" stroke-width="1px"></line><line x1="41.171875" y1="164.35714285714286" x2="36.171875" y2="164.35714285714286" style="visibility: inherit;" fill="rgb(0, 0, 0)" stroke="rgb(204, 204, 204)" stroke-width="1px"></line><line x1="41.171875" y1="151.71428571428572" x2="36.171875" y2="151.71428571428572" style="visibility: inherit;" fill="rgb(0, 0, 0)" stroke="rgb(204, 204, 204)" stroke-width="1px"></line><line x1="41.171875" y1="139.07142857142856" x2="36.171875" y2="139.07142857142856" style="visibility: inherit;" fill="rgb(0, 0, 0)" stroke="rgb(204, 204, 204)" stroke-width="1px"></line><line x1="41.171875" y1="126.42857142857143" x2="36.171875" y2="126.42857142857143" style="visibility: inherit;" fill="rgb(0, 0, 0)" stroke="rgb(204, 204, 204)" stroke-width="1px"></line><line x1="41.171875" y1="113.78571428571428" x2="36.171875" y2="113.78571428571428" style="visibility: inherit;" fill="rgb(0, 0, 0)" stroke="rgb(204, 204, 204)" stroke-width="1px"></line><line x1="41.171875" y1="101.14285714285714" x2="36.171875" y2="101.14285714285714" style="visibility: inherit;" fill="rgb(0, 0, 0)" stroke="rgb(204, 204, 204)" stroke-width="1px"></line><line x1="41.171875" y1="88.5" x2="36.171875" y2="88.5" style="visibility: inherit;" fill="rgb(0, 0, 0)" stroke="rgb(204, 204, 204)" stroke-width="1px"></line><line x1="41.171875" y1="75.85714285714286" x2="36.171875" y2="75.85714285714286" style="visibility: inherit;" fill="rgb(0, 0, 0)" stroke="rgb(204, 204, 204)" stroke-width="1px"></line><line x1="41.171875" y1="63.21428571428571" x2="36.171875" y2="63.21428571428571" style="visibility: inherit;" fill="rgb(0, 0, 0)" stroke="rgb(204, 204, 204)" stroke-width="1px"></line><line x1="41.171875" y1="50.57142857142857" x2="36.171875" y2="50.57142857142857" style="visibility: inherit;" fill="rgb(0, 0, 0)" stroke="rgb(204, 204, 204)" stroke-width="1px"></line><line x1="41.171875" y1="37.92857142857143" x2="36.171875" y2="37.92857142857143" style="visibility: inherit;" fill="rgb(0, 0, 0)" stroke="rgb(204, 204, 204)" stroke-width="1px"></line><line x1="41.171875" y1="25.285714285714295" x2="36.171875" y2="25.285714285714295" style="visibility: inherit;" fill="rgb(0, 0, 0)" stroke="rgb(204, 204, 204)" stroke-width="1px"></line><line x1="41.171875" y1="12.642857142857137" x2="36.171875" y2="12.642857142857137" style="visibility: inherit;" fill="rgb(0, 0, 0)" stroke="rgb(204, 204, 204)" stroke-width="1px"></line><line x1="41.171875" y1="0" x2="36.171875" y2="0" style="visibility: inherit;" fill="rgb(0, 0, 0)" stroke="rgb(204, 204, 204)" stroke-width="1px"></line></g><g transform="translate(31.171875, 0)"><text x="0" y="177" dx="0em" dy="0.3em" style="text-anchor: end; visibility: hidden; font-family: Roboto, sans-serif; font-size: 12px; font-weight: 200;" fill="rgb(33, 33, 33)" stroke="none" stroke-width="1px">129</text><text x="0" y="164.35714285714286" dx="0em" dy="0.3em" style="text-anchor: end; visibility: inherit; font-family: Roboto, sans-serif; font-size: 12px; font-weight: 200;" fill="rgb(33, 33, 33)" stroke="none" stroke-width="1px">129</text><text x="0" y="151.71428571428572" dx="0em" dy="0.3em" style="text-anchor: end; visibility: hidden; font-family: Roboto, sans-serif; font-size: 12px; font-weight: 200;" fill="rgb(33, 33, 33)" stroke="none" stroke-width="1px">130</text><text x="0" y="139.07142857142856" dx="0em" dy="0.3em" style="text-anchor: end; visibility: inherit; font-family: Roboto, sans-serif; font-size: 12px; font-weight: 200;" fill="rgb(33, 33, 33)" stroke="none" stroke-width="1px">130</text><text x="0" y="126.42857142857143" dx="0em" dy="0.3em" style="text-anchor: end; visibility: hidden; font-family: Roboto, sans-serif; font-size: 12px; font-weight: 200;" fill="rgb(33, 33, 33)" stroke="none" stroke-width="1px">131</text><text x="0" y="113.78571428571428" dx="0em" dy="0.3em" style="text-anchor: end; visibility: inherit; font-family: Roboto, sans-serif; font-size: 12px; font-weight: 200;" fill="rgb(33, 33, 33)" stroke="none" stroke-width="1px">131</text><text x="0" y="101.14285714285714" dx="0em" dy="0.3em" style="text-anchor: end; visibility: hidden; font-family: Roboto, sans-serif; font-size: 12px; font-weight: 200;" fill="rgb(33, 33, 33)" stroke="none" stroke-width="1px">132</text><text x="0" y="88.5" dx="0em" dy="0.3em" style="text-anchor: end; visibility: inherit; font-family: Roboto, sans-serif; font-size: 12px; font-weight: 200;" fill="rgb(33, 33, 33)" stroke="none" stroke-width="1px">132</text><text x="0" y="75.85714285714286" dx="0em" dy="0.3em" style="text-anchor: end; visibility: hidden; font-family: Roboto, sans-serif; font-size: 12px; font-weight: 200;" fill="rgb(33, 33, 33)" stroke="none" stroke-width="1px">133</text><text x="0" y="63.21428571428571" dx="0em" dy="0.3em" style="text-anchor: end; visibility: inherit; font-family: Roboto, sans-serif; font-size: 12px; font-weight: 200;" fill="rgb(33, 33, 33)" stroke="none" stroke-width="1px">133</text><text x="0" y="50.57142857142857" dx="0em" dy="0.3em" style="text-anchor: end; visibility: hidden; font-family: Roboto, sans-serif; font-size: 12px; font-weight: 200;" fill="rgb(33, 33, 33)" stroke="none" stroke-width="1px">134</text><text x="0" y="37.92857142857143" dx="0em" dy="0.3em" style="text-anchor: end; visibility: inherit; font-family: Roboto, sans-serif; font-size: 12px; font-weight: 200;" fill="rgb(33, 33, 33)" stroke="none" stroke-width="1px">134</text><text x="0" y="25.285714285714295" dx="0em" dy="0.3em" style="text-anchor: end; visibility: hidden; font-family: Roboto, sans-serif; font-size: 12px; font-weight: 200;" fill="rgb(33, 33, 33)" stroke="none" stroke-width="1px">135</text><text x="0" y="12.642857142857137" dx="0em" dy="0.3em" style="text-anchor: end; visibility: inherit; font-family: Roboto, sans-serif; font-size: 12px; font-weight: 200;" fill="rgb(33, 33, 33)" stroke="none" stroke-width="1px">135</text><text x="0" y="0" dx="0em" dy="0.3em" style="text-anchor: end; visibility: hidden; font-family: Roboto, sans-serif; font-size: 12px; font-weight: 200;" fill="rgb(33, 33, 33)" stroke="none" stroke-width="1px">136</text></g><line x1="41.171875" y1="0" x2="41.171875" y2="177" fill="rgb(0, 0, 0)" stroke="rgb(204, 204, 204)" stroke-width="1px"></line></g></g><g transform="translate(41, 0)" clip-path="url(#clip_0)"><clipPath id="clip_0"><rect width="288" height="177"></rect></clipPath><g><g><g><line x1="0" y1="0" x2="0" y2="177" fill="rgb(0, 0, 0)" stroke="rgb(66, 66, 66)" stroke-width="1px" opacity="0.25"></line><line x1="20.630580357142858" y1="0" x2="20.630580357142858" y2="177" fill="rgb(0, 0, 0)" stroke="rgb(66, 66, 66)" stroke-width="1px" opacity="0.25"></line><line x1="41.261160714285715" y1="0" x2="41.261160714285715" y2="177" fill="rgb(0, 0, 0)" stroke="rgb(66, 66, 66)" stroke-width="1px" opacity="0.25"></line><line x1="61.89174107142857" y1="0" x2="61.89174107142857" y2="177" fill="rgb(0, 0, 0)" stroke="rgb(66, 66, 66)" stroke-width="1px" opacity="0.25"></line><line x1="82.52232142857143" y1="0" x2="82.52232142857143" y2="177" fill="rgb(0, 0, 0)" stroke="rgb(66, 66, 66)" stroke-width="1px" opacity="0.25"></line><line x1="103.15290178571429" y1="0" x2="103.15290178571429" y2="177" fill="rgb(0, 0, 0)" stroke="rgb(66, 66, 66)" stroke-width="1px" opacity="0.25"></line><line x1="123.78348214285714" y1="0" x2="123.78348214285714" y2="177" fill="rgb(0, 0, 0)" stroke="rgb(66, 66, 66)" stroke-width="1px" opacity="0.25"></line><line x1="144.4140625" y1="0" x2="144.4140625" y2="177" fill="rgb(0, 0, 0)" stroke="rgb(66, 66, 66)" stroke-width="1px" opacity="0.25"></line><line x1="165.04464285714286" y1="0" x2="165.04464285714286" y2="177" fill="rgb(0, 0, 0)" stroke="rgb(66, 66, 66)" stroke-width="1px" opacity="0.25"></line><line x1="185.67522321428572" y1="0" x2="185.67522321428572" y2="177" fill="rgb(0, 0, 0)" stroke="rgb(66, 66, 66)" stroke-width="1px" opacity="0.25"></line><line x1="206.30580357142858" y1="0" x2="206.30580357142858" y2="177" fill="rgb(0, 0, 0)" stroke="rgb(66, 66, 66)" stroke-width="1px" opacity="0.25"></line><line x1="226.93638392857142" y1="0" x2="226.93638392857142" y2="177" fill="rgb(0, 0, 0)" stroke="rgb(66, 66, 66)" stroke-width="1px" opacity="0.25"></line><line x1="247.56696428571428" y1="0" x2="247.56696428571428" y2="177" fill="rgb(0, 0, 0)" stroke="rgb(66, 66, 66)" stroke-width="1px" opacity="0.25"></line><line x1="268.19754464285717" y1="0" x2="268.19754464285717" y2="177" fill="rgb(0, 0, 0)" stroke="rgb(66, 66, 66)" stroke-width="1px" opacity="0.25"></line><line x1="288.828125" y1="0" x2="288.828125" y2="177" fill="rgb(0, 0, 0)" stroke="rgb(66, 66, 66)" stroke-width="1px" opacity="0.25"></line></g><g><line x1="0" y1="177" x2="288.828125" y2="177" fill="rgb(0, 0, 0)" stroke="rgb(66, 66, 66)" stroke-width="1px" opacity="0.25"></line><line x1="0" y1="164.35714285714286" x2="288.828125" y2="164.35714285714286" fill="rgb(0, 0, 0)" stroke="rgb(66, 66, 66)" stroke-width="1px" opacity="0.25"></line><line x1="0" y1="151.71428571428572" x2="288.828125" y2="151.71428571428572" fill="rgb(0, 0, 0)" stroke="rgb(66, 66, 66)" stroke-width="1px" opacity="0.25"></line><line x1="0" y1="139.07142857142856" x2="288.828125" y2="139.07142857142856" fill="rgb(0, 0, 0)" stroke="rgb(66, 66, 66)" stroke-width="1px" opacity="0.25"></line><line x1="0" y1="126.42857142857143" x2="288.828125" y2="126.42857142857143" fill="rgb(0, 0, 0)" stroke="rgb(66, 66, 66)" stroke-width="1px" opacity="0.25"></line><line x1="0" y1="113.78571428571428" x2="288.828125" y2="113.78571428571428" fill="rgb(0, 0, 0)" stroke="rgb(66, 66, 66)" stroke-width="1px" opacity="0.25"></line><line x1="0" y1="101.14285714285714" x2="288.828125" y2="101.14285714285714" fill="rgb(0, 0, 0)" stroke="rgb(66, 66, 66)" stroke-width="1px" opacity="0.25"></line><line x1="0" y1="88.5" x2="288.828125" y2="88.5" fill="rgb(0, 0, 0)" stroke="rgb(66, 66, 66)" stroke-width="1px" opacity="0.25"></line><line x1="0" y1="75.85714285714286" x2="288.828125" y2="75.85714285714286" fill="rgb(0, 0, 0)" stroke="rgb(66, 66, 66)" stroke-width="1px" opacity="0.25"></line><line x1="0" y1="63.21428571428571" x2="288.828125" y2="63.21428571428571" fill="rgb(0, 0, 0)" stroke="rgb(66, 66, 66)" stroke-width="1px" opacity="0.25"></line><line x1="0" y1="50.57142857142857" x2="288.828125" y2="50.57142857142857" fill="rgb(0, 0, 0)" stroke="rgb(66, 66, 66)" stroke-width="1px" opacity="0.25"></line><line x1="0" y1="37.92857142857143" x2="288.828125" y2="37.92857142857143" fill="rgb(0, 0, 0)" stroke="rgb(66, 66, 66)" stroke-width="1px" opacity="0.25"></line><line x1="0" y1="25.285714285714295" x2="288.828125" y2="25.285714285714295" fill="rgb(0, 0, 0)" stroke="rgb(66, 66, 66)" stroke-width="1px" opacity="0.25"></line><line x1="0" y1="12.642857142857137" x2="288.828125" y2="12.642857142857137" fill="rgb(0, 0, 0)" stroke="rgb(66, 66, 66)" stroke-width="1px" opacity="0.25"></line><line x1="0" y1="0" x2="288.828125" y2="0" fill="rgb(0, 0, 0)" stroke="rgb(66, 66, 66)" stroke-width="1px" opacity="0.25"></line></g></g></g><g><g><line x1="0" y1="3426.214285714286" x2="288.828125" y2="3426.214285714286" fill="rgb(0, 0, 0)" stroke="rgb(153, 153, 153)" stroke-width="1.5px"></line></g></g><g><g><line x1="20.630580357142858" y1="0" x2="20.630580357142858" y2="177" fill="rgb(0, 0, 0)" stroke="rgb(153, 153, 153)" stroke-width="1.5px"></line></g></g><g><g><g><g><g><path stroke="rgb(255, 112, 67)" stroke-width="2px" d="M35.41858035714286,-10.489449524912173L37.531151785714286,19.155628761383852L39.643723214285714,36.7498577467517L41.75629464285714,47.272438297956L43.86886607142857,63.62231172539671L45.981437500000006,73.47268598478637L48.094008928571434,79.41712331834961L50.206580357142855,83.00802027056605L52.31915178571428,85.1785080777445L54.43172321428571,96.48199618217959L56.54429464285714,103.31829731876729L58.656866071428574,107.45341464415804L60.7694375,109.95485146288773L62.88200892857143,111.46810759395797L64.99458035714287,112.38358614342795L67.1071517857143,112.93743550966866L69.21972321428571,123.26046143804311L71.33229464285714,129.50582957068195L73.44486607142856,133.28425439487168L75.5574375,135.5701930330403L77.67000892857143,136.9531828416856L79.78258035714286,137.78989055315648L81.89515178571429,138.2960983076393L84.00772321428572,138.60235384868122L86.12029464285715,138.78763839595328L88.23286607142857,138.89973552690105L90.3454375,138.967554283748L92.45800892857143,139.0085846289409L94.57058035714284,139.03340798679437L96.68315178571427,139.04842611793345L98.79572321428572,139.05751208714096L100.90829464285714,139.063009098463L103.02086607142857,139.06633479029435L105.1334375,139.068346833846L107.24600892857143,139.06956412019315L109.35858035714286,139.07030057843073L111.47115178571428,139.0707461356654L113.58372321428571,139.07101569779218L115.69629464285714,149.0590359272443L117.80886607142857,155.10178816510637L119.92143750000001,158.7576532686623L122.03400892857144,160.9694516561861L124.14658035714287,162.3075896805911L126.2591517857143,163.11716318533868L128.3717232142857,163.60695515570467L130.48429464285712,163.90327929777447L132.59686607142856,164.0825554037253L134.7094375,164.1910174478255L136.82200892857142,164.25663698450572L138.93458035714286,164.29633680419735L141.04715178571428,164.3203551951106L143.15972321428572,164.3348863216134L145.27229464285716,164.34367765314792L147.38486607142855,164.34899640872575L149.4974375,164.35221425585013L151.6100089285714,164.35416105336043L153.72258035714285,164.35533886585438L155.8351517857143,164.3560514424136L157.9477232142857,164.35648255123095L160.06029464285714,164.3567433720665L162.17286607142856,164.35690116867178L164.2854375,164.35699663561778L166.39800892857141,164.35705439312008L168.51058035714286,164.35708933640893L170.62315178571427,164.35711047709864L172.7357232142857,164.35712326721628L174.84829464285713,164.35713100523716L176.96086607142857,164.35713568673947L179.0734375,164.35713851904944L181.18600892857143,164.35714023259627L183.29858035714287,164.3571412692924L185.41115178571428,164.3571418964935L187.52372321428572,164.35714227594983L189.63629464285714,164.35714250552107L191.74886607142858,164.35714264441134L193.8614375,164.35714272844035L195.97400892857144,164.35714277927784L198.08658035714288,164.3571428100345L200.1991517857143,164.3571428286421L202.31172321428573,164.35714283989995L204.42429464285715,164.35714284671076L206.5368660714286,164.35714285083154L208.6494375,164.3571428533246L210.76200892857145,164.35714285483306L212.87458035714286,164.35714285574505L214.9871517857143,164.35714285629697L217.09972321428572,164.35714285663119L219.21229464285713,164.3571428568331L221.32486607142854,164.3571428569553L223.4374375,164.3571428570293L225.55000892857143,164.35714285707388L227.66258035714284,164.3571428571012L229.77515178571429,164.3571428571177L231.8877232142857,164.35714285712777L234.00029464285714,164.3571428571335L236.11286607142856,164.3571428571371L238.2254375,164.35714285713928L240.3380089285714,164.3571428571407L242.45058035714285,164.35714285714144L244.56315178571427,164.35714285714212L246.6757232142857,164.35714285714212L248.78829464285715,164.35714285714212L250.90086607142857,164.35714285714212L253.0134375,164.35714285714212L255.12600892857142,164.35714285714212L257.23858035714284,164.35714285714212L259.3511517857143,164.35714285714212L261.4637232142857,164.35714285714212L263.57629464285714,164.35714285714212L265.68886607142855,164.35714285714212L267.8014375,164.35714285714212L269.91400892857143,164.35714285714212L272.02658035714285,164.35714285714212L274.1391517857143,154.36928571428544L276.25172321428573,158.31448928571402L278.36429464285715,150.71348030357103L280.47686607142856,146.1148698693751" style="fill: none;" fill="none"></path></g></g></g></g><g opacity="0.2"><g><g><g><path stroke="rgb(255, 112, 67)" stroke-width="2px" d="M29.08086607142857,-37.92857142857141L31.193437499999998,12.642857142857137L33.30600892857143,12.642857142857137L35.41858035714286,37.92857142857143L37.531151785714286,63.21428571428571L39.643723214285714,63.21428571428571L41.75629464285714,63.21428571428571L43.86886607142857,88.5L45.981437500000006,88.5L48.094008928571434,88.5L50.206580357142855,88.5L52.31915178571428,88.5L54.43172321428571,113.78571428571428L56.54429464285714,113.78571428571428L58.656866071428574,113.78571428571428L60.7694375,113.78571428571428L62.88200892857143,113.78571428571428L64.99458035714287,113.78571428571428L67.1071517857143,113.78571428571428L69.21972321428571,139.07142857142856L71.33229464285714,139.07142857142856L73.44486607142856,139.07142857142856L75.5574375,139.07142857142856L77.67000892857143,139.07142857142856L79.78258035714286,139.07142857142856L81.89515178571429,139.07142857142856L84.00772321428572,139.07142857142856L86.12029464285715,139.07142857142856L88.23286607142857,139.07142857142856L90.3454375,139.07142857142856L92.45800892857143,139.07142857142856L94.57058035714284,139.07142857142856L96.68315178571427,139.07142857142856L98.79572321428572,139.07142857142856L100.90829464285714,139.07142857142856L103.02086607142857,139.07142857142856L105.1334375,139.07142857142856L107.24600892857143,139.07142857142856L109.35858035714286,139.07142857142856L111.47115178571428,139.07142857142856L113.58372321428571,139.07142857142856L115.69629464285714,164.35714285714286L117.80886607142857,164.35714285714286L119.92143750000001,164.35714285714286L122.03400892857144,164.35714285714286L124.14658035714287,164.35714285714286L126.2591517857143,164.35714285714286L128.3717232142857,164.35714285714286L130.48429464285712,164.35714285714286L132.59686607142856,164.35714285714286L134.7094375,164.35714285714286L136.82200892857142,164.35714285714286L138.93458035714286,164.35714285714286L141.04715178571428,164.35714285714286L143.15972321428572,164.35714285714286L145.27229464285716,164.35714285714286L147.38486607142855,164.35714285714286L149.4974375,164.35714285714286L151.6100089285714,164.35714285714286L153.72258035714285,164.35714285714286L155.8351517857143,164.35714285714286L157.9477232142857,164.35714285714286L160.06029464285714,164.35714285714286L162.17286607142856,164.35714285714286L164.2854375,164.35714285714286L166.39800892857141,164.35714285714286L168.51058035714286,164.35714285714286L170.62315178571427,164.35714285714286L172.7357232142857,164.35714285714286L174.84829464285713,164.35714285714286L176.96086607142857,164.35714285714286L179.0734375,164.35714285714286L181.18600892857143,164.35714285714286L183.29858035714287,164.35714285714286L185.41115178571428,164.35714285714286L187.52372321428572,164.35714285714286L189.63629464285714,164.35714285714286L191.74886607142858,164.35714285714286L193.8614375,164.35714285714286L195.97400892857144,164.35714285714286L198.08658035714288,164.35714285714286L200.1991517857143,164.35714285714286L202.31172321428573,164.35714285714286L204.42429464285715,164.35714285714286L206.5368660714286,164.35714285714286L208.6494375,164.35714285714286L210.76200892857145,164.35714285714286L212.87458035714286,164.35714285714286L214.9871517857143,164.35714285714286L217.09972321428572,164.35714285714286L219.21229464285713,164.35714285714286L221.32486607142854,164.35714285714286L223.4374375,164.35714285714286L225.55000892857143,164.35714285714286L227.66258035714284,164.35714285714286L229.77515178571429,164.35714285714286L231.8877232142857,164.35714285714286L234.00029464285714,164.35714285714286L236.11286607142856,164.35714285714286L238.2254375,164.35714285714286L240.3380089285714,164.35714285714286L242.45058035714285,164.35714285714286L244.56315178571427,164.35714285714286L246.6757232142857,164.35714285714286L248.78829464285715,164.35714285714286L250.90086607142857,164.35714285714286L253.0134375,164.35714285714286L255.12600892857142,164.35714285714286L257.23858035714284,164.35714285714286L259.3511517857143,164.35714285714286L261.4637232142857,164.35714285714286L263.57629464285714,164.35714285714286L265.68886607142855,164.35714285714286L267.8014375,164.35714285714286L269.91400892857143,164.35714285714286L272.02658035714285,164.35714285714286L274.1391517857143,139.07142857142856L276.25172321428573,164.35714285714286L278.36429464285715,139.07142857142856L280.47686607142856,139.07142857142856" style="fill: none;" fill="none"></path></g></g></g></g></g></g><g transform="translate(41, 177)" clip-path="url(#clip_1)"><clipPath id="clip_1"><rect width="288" height="23"></rect></clipPath><g><g><line x1="0" y1="0" x2="0" y2="5" style="visibility: inherit;" fill="rgb(0, 0, 0)" stroke="rgb(204, 204, 204)" stroke-width="1px"></line><line x1="20.630580357142858" y1="0" x2="20.630580357142858" y2="5" style="visibility: inherit;" fill="rgb(0, 0, 0)" stroke="rgb(204, 204, 204)" stroke-width="1px"></line><line x1="41.261160714285715" y1="0" x2="41.261160714285715" y2="5" style="visibility: inherit;" fill="rgb(0, 0, 0)" stroke="rgb(204, 204, 204)" stroke-width="1px"></line><line x1="61.89174107142857" y1="0" x2="61.89174107142857" y2="5" style="visibility: inherit;" fill="rgb(0, 0, 0)" stroke="rgb(204, 204, 204)" stroke-width="1px"></line><line x1="82.52232142857143" y1="0" x2="82.52232142857143" y2="5" style="visibility: inherit;" fill="rgb(0, 0, 0)" stroke="rgb(204, 204, 204)" stroke-width="1px"></line><line x1="103.15290178571429" y1="0" x2="103.15290178571429" y2="5" style="visibility: inherit;" fill="rgb(0, 0, 0)" stroke="rgb(204, 204, 204)" stroke-width="1px"></line><line x1="123.78348214285714" y1="0" x2="123.78348214285714" y2="5" style="visibility: inherit;" fill="rgb(0, 0, 0)" stroke="rgb(204, 204, 204)" stroke-width="1px"></line><line x1="144.4140625" y1="0" x2="144.4140625" y2="5" style="visibility: inherit;" fill="rgb(0, 0, 0)" stroke="rgb(204, 204, 204)" stroke-width="1px"></line><line x1="165.04464285714286" y1="0" x2="165.04464285714286" y2="5" style="visibility: inherit;" fill="rgb(0, 0, 0)" stroke="rgb(204, 204, 204)" stroke-width="1px"></line><line x1="185.67522321428572" y1="0" x2="185.67522321428572" y2="5" style="visibility: inherit;" fill="rgb(0, 0, 0)" stroke="rgb(204, 204, 204)" stroke-width="1px"></line><line x1="206.30580357142858" y1="0" x2="206.30580357142858" y2="5" style="visibility: inherit;" fill="rgb(0, 0, 0)" stroke="rgb(204, 204, 204)" stroke-width="1px"></line><line x1="226.93638392857142" y1="0" x2="226.93638392857142" y2="5" style="visibility: inherit;" fill="rgb(0, 0, 0)" stroke="rgb(204, 204, 204)" stroke-width="1px"></line><line x1="247.56696428571428" y1="0" x2="247.56696428571428" y2="5" style="visibility: inherit;" fill="rgb(0, 0, 0)" stroke="rgb(204, 204, 204)" stroke-width="1px"></line><line x1="268.19754464285717" y1="0" x2="268.19754464285717" y2="5" style="visibility: inherit;" fill="rgb(0, 0, 0)" stroke="rgb(204, 204, 204)" stroke-width="1px"></line><line x1="288.828125" y1="0" x2="288.828125" y2="5" style="visibility: inherit;" fill="rgb(0, 0, 0)" stroke="rgb(204, 204, 204)" stroke-width="1px"></line></g><g transform="translate(0, 8)"><text x="0" y="0" dx="0em" dy="0.95em" style="text-anchor: middle; visibility: hidden; font-family: Roboto, sans-serif; font-size: 12px; font-weight: 200;" fill="rgb(33, 33, 33)" stroke="none" stroke-width="1px">-20k</text><text x="20.630580357142858" y="0" dx="0em" dy="0.95em" style="text-anchor: middle; visibility: inherit; font-family: Roboto, sans-serif; font-size: 12px; font-weight: 200;" fill="rgb(33, 33, 33)" stroke="none" stroke-width="1px">0</text><text x="41.261160714285715" y="0" dx="0em" dy="0.95em" style="text-anchor: middle; visibility: hidden; font-family: Roboto, sans-serif; font-size: 12px; font-weight: 200;" fill="rgb(33, 33, 33)" stroke="none" stroke-width="1px">20k</text><text x="61.89174107142857" y="0" dx="0em" dy="0.95em" style="text-anchor: middle; visibility: inherit; font-family: Roboto, sans-serif; font-size: 12px; font-weight: 200;" fill="rgb(33, 33, 33)" stroke="none" stroke-width="1px">40k</text><text x="82.52232142857143" y="0" dx="0em" dy="0.95em" style="text-anchor: middle; visibility: hidden; font-family: Roboto, sans-serif; font-size: 12px; font-weight: 200;" fill="rgb(33, 33, 33)" stroke="none" stroke-width="1px">60k</text><text x="103.15290178571429" y="0" dx="0em" dy="0.95em" style="text-anchor: middle; visibility: inherit; font-family: Roboto, sans-serif; font-size: 12px; font-weight: 200;" fill="rgb(33, 33, 33)" stroke="none" stroke-width="1px">80k</text><text x="123.78348214285714" y="0" dx="0em" dy="0.95em" style="text-anchor: middle; visibility: hidden; font-family: Roboto, sans-serif; font-size: 12px; font-weight: 200;" fill="rgb(33, 33, 33)" stroke="none" stroke-width="1px">100k</text><text x="144.4140625" y="0" dx="0em" dy="0.95em" style="text-anchor: middle; visibility: inherit; font-family: Roboto, sans-serif; font-size: 12px; font-weight: 200;" fill="rgb(33, 33, 33)" stroke="none" stroke-width="1px">120k</text><text x="165.04464285714286" y="0" dx="0em" dy="0.95em" style="text-anchor: middle; visibility: hidden; font-family: Roboto, sans-serif; font-size: 12px; font-weight: 200;" fill="rgb(33, 33, 33)" stroke="none" stroke-width="1px">140k</text><text x="185.67522321428572" y="0" dx="0em" dy="0.95em" style="text-anchor: middle; visibility: inherit; font-family: Roboto, sans-serif; font-size: 12px; font-weight: 200;" fill="rgb(33, 33, 33)" stroke="none" stroke-width="1px">160k</text><text x="206.30580357142858" y="0" dx="0em" dy="0.95em" style="text-anchor: middle; visibility: hidden; font-family: Roboto, sans-serif; font-size: 12px; font-weight: 200;" fill="rgb(33, 33, 33)" stroke="none" stroke-width="1px">180k</text><text x="226.93638392857142" y="0" dx="0em" dy="0.95em" style="text-anchor: middle; visibility: inherit; font-family: Roboto, sans-serif; font-size: 12px; font-weight: 200;" fill="rgb(33, 33, 33)" stroke="none" stroke-width="1px">200k</text><text x="247.56696428571428" y="0" dx="0em" dy="0.95em" style="text-anchor: middle; visibility: hidden; font-family: Roboto, sans-serif; font-size: 12px; font-weight: 200;" fill="rgb(33, 33, 33)" stroke="none" stroke-width="1px">220k</text><text x="268.19754464285717" y="0" dx="0em" dy="0.95em" style="text-anchor: middle; visibility: inherit; font-family: Roboto, sans-serif; font-size: 12px; font-weight: 200;" fill="rgb(33, 33, 33)" stroke="none" stroke-width="1px">240k</text><text x="288.828125" y="0" dx="0em" dy="0.95em" style="text-anchor: middle; visibility: hidden; font-family: Roboto, sans-serif; font-size: 12px; font-weight: 200;" fill="rgb(33, 33, 33)" stroke="none" stroke-width="1px">260k</text></g><line x1="0" y1="0" x2="288.828125" y2="0" fill="rgb(0, 0, 0)" stroke="rgb(204, 204, 204)" stroke-width="1px"></line></g></g></g></g></svg>