<svg viewBox="0 0 330 200" xmlns="http://www.w3.org/2000/svg"><g><g><g><g><g><line x1="72.34375" y1="177" x2="67.34375" y2="177" style="visibility: inherit;" fill="rgb(0, 0, 0)" stroke="rgb(204, 204, 204)" stroke-width="1px"></line><line x1="72.34375" y1="157.33333333333334" x2="67.34375" y2="157.33333333333334" style="visibility: inherit;" fill="rgb(0, 0, 0)" stroke="rgb(204, 204, 204)" stroke-width="1px"></line><line x1="72.34375" y1="137.66666666666666" x2="67.34375" y2="137.66666666666666" style="visibility: inherit;" fill="rgb(0, 0, 0)" stroke="rgb(204, 204, 204)" stroke-width="1px"></line><line x1="72.34375" y1="117.99999999999997" x2="67.34375" y2="117.99999999999997" style="visibility: inherit;" fill="rgb(0, 0, 0)" stroke="rgb(204, 204, 204)" stroke-width="1px"></line><line x1="72.34375" y1="98.33333333333331" x2="67.34375" y2="98.33333333333331" style="visibility: inherit;" fill="rgb(0, 0, 0)" stroke="rgb(204, 204, 204)" stroke-width="1px"></line><line x1="72.34375" y1="78.66666666666666" x2="67.34375" y2="78.66666666666666" style="visibility: inherit;" fill="rgb(0, 0, 0)" stroke="rgb(204, 204, 204)" stroke-width="1px"></line><line x1="72.34375" y1="58.999999999999986" x2="67.34375" y2="58.999999999999986" style="visibility: inherit;" fill="rgb(0, 0, 0)" stroke="rgb(204, 204, 204)" stroke-width="1px"></line><line x1="72.34375" y1="39.33333333333333" x2="67.34375" y2="39.33333333333333" style="visibility: inherit;" fill="rgb(0, 0, 0)" stroke="rgb(204, 204, 204)" stroke-width="1px"></line><line x1="72.34375" y1="19.666666666666675" x2="67.34375" y2="19.666666666666675" style="visibility: inherit;" fill="rgb(0, 0, 0)" stroke="rgb(204, 204, 204)" stroke-width="1px"></line></g><g transform="translate(62.34375, 0)"><text x="0" y="177" dx="0em" dy="0.3em" style="text-anchor: end; visibility: hidden; font-family: Roboto, sans-serif; font-size: 12px; font-weight: 200;" fill="rgb(33, 33, 33)" stroke="none" stroke-width="1px">1.2e-4</text><text x="0" y="157.33333333333334" dx="0em" dy="0.3em" style="text-anchor: end; visibility: inherit; font-family: Roboto, sans-serif; font-size: 12px; font-weight: 200;" fill="rgb(33, 33, 33)" stroke="none" stroke-width="1px">1.4e-4</text><text x="0" y="137.66666666666666" dx="0em" dy="0.3em" style="text-anchor: end; visibility: hidden; font-family: Roboto, sans-serif; font-size: 12px; font-weight: 200;" fill="rgb(33, 33, 33)" stroke="none" stroke-width="1px">1.6e-4</text><text x="0" y="117.99999999999997" dx="0em" dy="0.3em" style="text-anchor: end; visibility: inherit; font-family: Roboto, sans-serif; font-size: 12px; font-weight: 200;" fill="rgb(33, 33, 33)" stroke="none" stroke-width="1px">1.8e-4</text><text x="0" y="98.33333333333331" dx="0em" dy="0.3em" style="text-anchor: end; visibility: hidden; font-family: Roboto, sans-serif; font-size: 12px; font-weight: 200;" fill="rgb(33, 33, 33)" stroke="none" stroke-width="1px">2e-4</text><text x="0" y="78.66666666666666" dx="0em" dy="0.3em" style="text-anchor: end; visibility: inherit; font-family: Roboto, sans-serif; font-size: 12px; font-weight: 200;" fill="rgb(33, 33, 33)" stroke="none" stroke-width="1px">2.2e-4</text><text x="0" y="58.999999999999986" dx="0em" dy="0.3em" style="text-anchor: end; visibility: hidden; font-family: Roboto, sans-serif; font-size: 12px; font-weight: 200;" fill="rgb(33, 33, 33)" stroke="none" stroke-width="1px">2.4e-4</text><text x="0" y="39.33333333333333" dx="0em" dy="0.3em" style="text-anchor: end; visibility: inherit; font-family: Roboto, sans-serif; font-size: 12px; font-weight: 200;" fill="rgb(33, 33, 33)" stroke="none" stroke-width="1px">2.6e-4</text><text x="0" y="19.666666666666675" dx="0em" dy="0.3em" style="text-anchor: end; visibility: hidden; font-family: Roboto, sans-serif; font-size: 12px; font-weight: 200;" fill="rgb(33, 33, 33)" stroke="none" stroke-width="1px">2.8e-4</text></g><line x1="72.34375" y1="0" x2="72.34375" y2="177" fill="rgb(0, 0, 0)" stroke="rgb(204, 204, 204)" stroke-width="1px"></line></g></g><g transform="translate(72, 0)" clip-path="url(#clip_0)"><clipPath id="clip_0"><rect width="257" height="177"></rect></clipPath><g><g><g><line x1="0" y1="0" x2="0" y2="177" fill="rgb(0, 0, 0)" stroke="rgb(66, 66, 66)" stroke-width="1px" opacity="0.25"></line><line x1="18.404017857142858" y1="0" x2="18.404017857142858" y2="177" fill="rgb(0, 0, 0)" stroke="rgb(66, 66, 66)" stroke-width="1px" opacity="0.25"></line><line x1="36.808035714285715" y1="0" x2="36.808035714285715" y2="177" fill="rgb(0, 0, 0)" stroke="rgb(66, 66, 66)" stroke-width="1px" opacity="0.25"></line><line x1="55.21205357142857" y1="0" x2="55.21205357142857" y2="177" fill="rgb(0, 0, 0)" stroke="rgb(66, 66, 66)" stroke-width="1px" opacity="0.25"></line><line x1="73.61607142857143" y1="0" x2="73.61607142857143" y2="177" fill="rgb(0, 0, 0)" stroke="rgb(66, 66, 66)" stroke-width="1px" opacity="0.25"></line><line x1="92.02008928571429" y1="0" x2="92.02008928571429" y2="177" fill="rgb(0, 0, 0)" stroke="rgb(66, 66, 66)" stroke-width="1px" opacity="0.25"></line><line x1="110.42410714285714" y1="0" x2="110.42410714285714" y2="177" fill="rgb(0, 0, 0)" stroke="rgb(66, 66, 66)" stroke-width="1px" opacity="0.25"></line><line x1="128.828125" y1="0" x2="128.828125" y2="177" fill="rgb(0, 0, 0)" stroke="rgb(66, 66, 66)" stroke-width="1px" opacity="0.25"></line><line x1="147.23214285714286" y1="0" x2="147.23214285714286" y2="177" fill="rgb(0, 0, 0)" stroke="rgb(66, 66, 66)" stroke-width="1px" opacity="0.25"></line><line x1="165.63616071428572" y1="0" x2="165.63616071428572" y2="177" fill="rgb(0, 0, 0)" stroke="rgb(66, 66, 66)" stroke-width="1px" opacity="0.25"></line><line x1="184.04017857142858" y1="0" x2="184.04017857142858" y2="177" fill="rgb(0, 0, 0)" stroke="rgb(66, 66, 66)" stroke-width="1px" opacity="0.25"></line><line x1="202.44419642857142" y1="0" x2="202.44419642857142" y2="177" fill="rgb(0, 0, 0)" stroke="rgb(66, 66, 66)" stroke-width="1px" opacity="0.25"></line><line x1="220.84821428571428" y1="0" x2="220.84821428571428" y2="177" fill="rgb(0, 0, 0)" stroke="rgb(66, 66, 66)" stroke-width="1px" opacity="0.25"></line><line x1="239.25223214285714" y1="0" x2="239.25223214285714" y2="177" fill="rgb(0, 0, 0)" stroke="rgb(66, 66, 66)" stroke-width="1px" opacity="0.25"></line><line x1="257.65625" y1="0" x2="257.65625" y2="177" fill="rgb(0, 0, 0)" stroke="rgb(66, 66, 66)" stroke-width="1px" opacity="0.25"></line></g><g><line x1="0" y1="177" x2="257.65625" y2="177" fill="rgb(0, 0, 0)" stroke="rgb(66, 66, 66)" stroke-width="1px" opacity="0.25"></line><line x1="0" y1="157.33333333333334" x2="257.65625" y2="157.33333333333334" fill="rgb(0, 0, 0)" stroke="rgb(66, 66, 66)" stroke-width="1px" opacity="0.25"></line><line x1="0" y1="137.66666666666666" x2="257.65625" y2="137.66666666666666" fill="rgb(0, 0, 0)" stroke="rgb(66, 66, 66)" stroke-width="1px" opacity="0.25"></line><line x1="0" y1="117.99999999999997" x2="257.65625" y2="117.99999999999997" fill="rgb(0, 0, 0)" stroke="rgb(66, 66, 66)" stroke-width="1px" opacity="0.25"></line><line x1="0" y1="98.33333333333331" x2="257.65625" y2="98.33333333333331" fill="rgb(0, 0, 0)" stroke="rgb(66, 66, 66)" stroke-width="1px" opacity="0.25"></line><line x1="0" y1="78.66666666666666" x2="257.65625" y2="78.66666666666666" fill="rgb(0, 0, 0)" stroke="rgb(66, 66, 66)" stroke-width="1px" opacity="0.25"></line><line x1="0" y1="58.999999999999986" x2="257.65625" y2="58.999999999999986" fill="rgb(0, 0, 0)" stroke="rgb(66, 66, 66)" stroke-width="1px" opacity="0.25"></line><line x1="0" y1="39.33333333333333" x2="257.65625" y2="39.33333333333333" fill="rgb(0, 0, 0)" stroke="rgb(66, 66, 66)" stroke-width="1px" opacity="0.25"></line><line x1="0" y1="19.666666666666675" x2="257.65625" y2="19.666666666666675" fill="rgb(0, 0, 0)" stroke="rgb(66, 66, 66)" stroke-width="1px" opacity="0.25"></line></g></g></g><g><g><line x1="0" y1="295" x2="257.65625" y2="295" fill="rgb(0, 0, 0)" stroke="rgb(153, 153, 153)" stroke-width="1.5px"></line></g></g><g><g><line x1="18.404017857142858" y1="0" x2="18.404017857142858" y2="177" fill="rgb(0, 0, 0)" stroke="rgb(153, 153, 153)" stroke-width="1.5px"></line></g></g><g><g><g><g><g><path stroke="rgb(255, 112, 67)" stroke-width="2px" d="M21.164620535714285,81.72728466335684L23.005022321428573,117.84655748745125L24.845424107142858,128.0219392257366L26.685825892857146,119.16895701424936L28.526227678571427,130.5473699863271L30.366629464285715,123.88835778031171L32.20703125,119.84398936910156L34.047433035714285,103.64353359255276L35.88783482142857,72.41643617973276L37.72823660714286,59.33819068028741L39.568638392857146,21.910775011478584L41.40904017857143,17.55864466205711L43.24944196428571,2.9589222356175897L45.08984375,4.036090390604121L46.930245535714285,10.167149720653489L48.77064732142857,16.473639838859306L50.611049107142854,-1.4749941358622893L52.451450892857146,-4.35223964534547L54.29185267857143,22.59100278004216L56.132254464285715,30.166340791437563L58.89285714285714,-2.448046972096571L60.73325892857143,38.48743210361576L62.573660714285715,75.80653300363733L64.4140625,91.36715329265837L66.25446428571428,77.66592733094404L68.09486607142857,88.77545728808812L69.93526785714285,117.82110927881854L71.77566964285714,128.94490569253549L73.61607142857143,133.7475294242364L75.45647321428572,136.15386712575201L77.296875,123.96190368055171L79.13727678571429,114.18875657172389L80.97767857142857,124.83835946818905L82.81808035714286,129.78240360060005L84.65848214285714,144.53271718379676L86.49888392857142,154.45084589420426L88.33928571428571,161.6310195988523L90.1796875,142.21933231134156L92.02008928571429,137.79516279888003L93.86049107142857,128.4496827714899L95.70089285714286,137.06512593647315L98.46149553571428,144.61253116625167L100.30189732142857,127.55091654878068L102.14229910714285,129.79485108425942L103.98270089285714,153.49249469308037L105.82310267857143,142.40592204603163L107.66350446428572,148.22573413432013L109.50390625,144.40289909846868L111.34430803571429,133.45646296411664L113.18470982142857,149.5230578004137L115.02511160714286,148.7167688997877L116.86551339285714,144.48077126282394L118.70591517857142,144.56925054280688L120.54631696428571,131.9013256345616L122.38671875,125.68451242874083L124.22712053571429,119.42702087091311L126.06752232142857,123.01133128262686L127.90792410714286,131.68550604690614L129.74832589285714,148.7591880247167L131.58872767857142,148.53587017187743L133.42912946428572,153.43679964831702L135.26953125,149.31753342887396L138.03013392857142,141.4655369880815L139.8705357142857,134.82546740877996L141.7109375,148.6390826024816L143.55133928571428,118.99644568767451L145.39174107142858,135.62164207146867L147.23214285714286,133.75548254968578L149.07254464285717,144.197585168159L150.91294642857144,147.27110903821054L152.75334821428572,137.8736453957582L154.59375,139.37268815111406L156.43415178571428,152.0140077815177L158.27455357142858,137.19628309324204L160.11495535714286,128.63843938722212L161.95535714285714,112.30344328076455L163.79575892857142,106.53663951518017L165.63616071428572,112.53755170545728L167.4765625,116.29731301903017L169.31696428571428,115.25818173725689L171.15736607142856,105.37585063582257L172.99776785714283,108.65414484132435L174.83816964285714,72.9924955512768L177.59877232142858,83.36752662520385L179.43917410714286,107.71309995087347L181.27957589285717,104.60700754244287L183.11997767857144,107.89968093270043L184.96037946428572,81.08994710496872L186.80078125,77.98347091727828L188.64118303571428,87.57302397428415L190.48158482142858,85.8531203334681L192.32198660714286,104.58738796496868L194.16238839285714,123.55959335665625L196.00279017857142,118.23284100990074L197.84319196428572,130.63087607576395L199.68359375,122.95521917410828L201.52399553571428,127.5984288335415L203.36439732142856,128.79916751801855L205.20479910714283,121.19625175542713L207.04520089285714,83.27364484734723L208.88560267857142,99.08425567429563L210.72600446428572,103.7075668132575L212.56640625,98.92260820347404L214.4068080357143,96.14309238613973L217.16741071428572,111.59839861646525L219.0078125,110.91854383193011L220.84821428571428,121.48502610110985L222.68861607142858,122.27087216272649L224.52901785714286,118.33599411063574L226.36941964285714,107.88894825563102L228.20982142857142,114.4436238781631L230.05022321428572,113.11605828736364L231.890625,109.10064176874636L233.73102678571428,113.90434157381684L235.57142857142856,98.91681360939991L237.41183035714283,95.83277358856087L239.25223214285714,90.20354339306024L241.09263392857142,97.29454903368733L242.93303571428572,91.67162089297324L244.7734375,90.5715539048724L246.6138392857143,62.99025168640696L248.45424107142858,62.561977311093116" style="fill: none;" fill="none"></path></g></g></g></g><g opacity="0.2"><g><g><g><path stroke="rgb(255, 112, 67)" stroke-width="2px" d="M21.164620535714285,81.72728466335684L23.005022321428573,139.6987175460284L24.845424107142858,137.90248927815506L26.685825892857146,108.61204020989439L28.526227678571427,145.64020244559893L30.366629464285715,114.51580557506531L32.20703125,113.95321786093214L34.047433035714285,79.5663388337319L35.88783482142857,25.4460761370137L37.72823660714286,39.52447737955175L39.568638392857146,-35.038141692057295L41.40904017857143,10.919218821606265L43.24944196428571,-19.348904551782972L45.08984375,5.68352994431428L46.930245535714285,19.54949408226333L48.77064732142857,26.127803776568392L50.611049107142854,-28.957083067701554L52.451450892857146,-8.75830101547764L54.29185267857143,63.85363430483267L56.132254464285715,41.76824591976278L58.89285714285714,-52.39957336569209L60.73325892857143,101.18443999749918L62.573660714285715,132.96526551789913L64.4140625,115.20028061621512L66.25446428571428,56.680626640251496L68.09486607142857,105.79126009717584L69.93526785714285,162.30865930439904L71.77566964285714,145.98259736939025L73.61607142857143,141.10344108659774L75.45647321428572,139.83952187777805L77.296875,105.28814218007028L79.13727678571429,99.21976166932532L80.97767857142857,141.14977486974868L82.81808035714286,137.3549264164952L84.65848214285714,167.12496877570325L86.49888392857142,169.64190344326198L88.33928571428571,172.6285006897524L90.1796875,112.48750772870456L92.02008928571429,131.0189032003594L93.86049107142857,114.13571973564103L95.70089285714286,150.26093126585087L98.46149553571428,156.17248093554127L100.30189732142857,101.41857012718295L102.14229910714285,133.23176347262537L103.98270089285714,189.7888855279113L105.82310267857143,125.42522217147052L107.66350446428572,157.13962353455523L109.50390625,138.5476707527414L111.34430803571429,116.69040255636597L113.18470982142857,174.1313865998139L115.02511160714286,147.4818200773249L116.86551339285714,137.99272424929464L118.70591517857142,144.7047694399953L120.54631696428571,112.49855457261826L122.38671875,116.16255802490438L124.22712053571429,109.84276164943971L126.06752232142857,128.50122444486865L127.90792410714286,144.9712673947215L129.74832589285714,174.91001738312966L131.58872767857142,148.19382637195912L133.42912946428572,160.9432865679264L135.26953125,143.00827757377797L138.03013392857142,129.43906142686805L139.8705357142857,124.65523425567275L141.7109375,169.79664511435357L143.55133928571428,73.59443218524878L145.39174107142858,161.0855504567735L147.23214285714286,130.89718758594245L149.07254464285717,160.1911853812635L150.91294642857144,151.9786582568971L152.75334821428572,123.48006184212863L154.59375,141.66869034602618L156.43415178571428,171.37602898757905L158.27455357142858,114.50078072259201L160.11495535714286,115.5308559893941L161.95535714285714,87.28401886454472L163.79575892857142,97.70394007675348L165.63616071428572,121.72882227537532L167.4765625,122.05593477779378L169.31696428571428,113.66660091327503L171.15736607142856,90.23962198679024L172.99776785714283,113.67532963709286L174.83816964285714,18.371488410824274L177.59877232142858,99.25839700425664L179.43917410714286,145.0018894750004L181.27957589285717,99.84957486623898L183.11997767857144,112.94288954309498L184.96037946428572,40.026937065025145L186.80078125,73.22545042727143L188.64118303571428,102.26082042868559L190.48158482142858,83.2188375418385L192.32198660714286,133.2816459828367L194.16238839285714,152.61828769075993L196.00279017857142,110.07414437752838L197.84319196428572,149.62027155638984L199.68359375,111.19883328676224L201.52399553571428,134.71018033723036L203.36439732142856,130.6382736043694L205.20479910714283,109.55127951145793L207.04520089285714,25.189651988136255L208.88560267857142,123.30050770038117L210.72600446428572,110.78884083622445L212.56640625,91.59374754798286L214.4068080357143,91.88585929883023L217.16741071428572,135.27044993126765L219.0078125,109.87724726321176L220.84821428571428,137.66913185516992L222.68861607142858,123.47450980140516L224.52901785714286,112.30915557515496L226.36941964285714,91.88777675619347L228.20982142857142,124.48306375571217L230.05022321428572,111.08269833183535L231.890625,102.95044684782624L233.73102678571428,121.26190709803875L235.57142857142856,75.96123280314107L237.41183035714283,91.10911735411112L239.25223214285714,81.58155790374924L241.09263392857142,108.15545640730609L242.93303571428572,83.05928791795546L244.7734375,88.88664117626226L246.6138392857143,20.745472339137123L248.45424107142858,61.90601276156182" style="fill: none;" fill="none"></path></g></g></g></g></g></g><g transform="translate(72, 177)" clip-path="url(#clip_1)"><clipPath id="clip_1"><rect width="257" height="23"></rect></clipPath><g><g><line x1="0" y1="0" x2="0" y2="5" style="visibility: inherit;" fill="rgb(0, 0, 0)" stroke="rgb(204, 204, 204)" stroke-width="1px"></line><line x1="18.404017857142858" y1="0" x2="18.404017857142858" y2="5" style="visibility: inherit;" fill="rgb(0, 0, 0)" stroke="rgb(204, 204, 204)" stroke-width="1px"></line><line x1="36.808035714285715" y1="0" x2="36.808035714285715" y2="5" style="visibility: inherit;" fill="rgb(0, 0, 0)" stroke="rgb(204, 204, 204)" stroke-width="1px"></line><line x1="55.21205357142857" y1="0" x2="55.21205357142857" y2="5" style="visibility: inherit;" fill="rgb(0, 0, 0)" stroke="rgb(204, 204, 204)" stroke-width="1px"></line><line x1="73.61607142857143" y1="0" x2="73.61607142857143" y2="5" style="visibility: inherit;" fill="rgb(0, 0, 0)" stroke="rgb(204, 204, 204)" stroke-width="1px"></line><line x1="92.02008928571429" y1="0" x2="92.02008928571429" y2="5" style="visibility: inherit;" fill="rgb(0, 0, 0)" stroke="rgb(204, 204, 204)" stroke-width="1px"></line><line x1="110.42410714285714" y1="0" x2="110.42410714285714" y2="5" style="visibility: inherit;" fill="rgb(0, 0, 0)" stroke="rgb(204, 204, 204)" stroke-width="1px"></line><line x1="128.828125" y1="0" x2="128.828125" y2="5" style="visibility: inherit;" fill="rgb(0, 0, 0)" stroke="rgb(204, 204, 204)" stroke-width="1px"></line><line x1="147.23214285714286" y1="0" x2="147.23214285714286" y2="5" style="visibility: inherit;" fill="rgb(0, 0, 0)" stroke="rgb(204, 204, 204)" stroke-width="1px"></line><line x1="165.63616071428572" y1="0" x2="165.63616071428572" y2="5" style="visibility: inherit;" fill="rgb(0, 0, 0)" stroke="rgb(204, 204, 204)" stroke-width="1px"></line><line x1="184.04017857142858" y1="0" x2="184.04017857142858" y2="5" style="visibility: inherit;" fill="rgb(0, 0, 0)" stroke="rgb(204, 204, 204)" stroke-width="1px"></line><line x1="202.44419642857142" y1="0" x2="202.44419642857142" y2="5" style="visibility: inherit;" fill="rgb(0, 0, 0)" stroke="rgb(204, 204, 204)" stroke-width="1px"></line><line x1="220.84821428571428" y1="0" x2="220.84821428571428" y2="5" style="visibility: inherit;" fill="rgb(0, 0, 0)" stroke="rgb(204, 204, 204)" stroke-width="1px"></line><line x1="239.25223214285714" y1="0" x2="239.25223214285714" y2="5" style="visibility: inherit;" fill="rgb(0, 0, 0)" stroke="rgb(204, 204, 204)" stroke-width="1px"></line><line x1="257.65625" y1="0" x2="257.65625" y2="5" style="visibility: inherit;" fill="rgb(0, 0, 0)" stroke="rgb(204, 204, 204)" stroke-width="1px"></line></g><g transform="translate(0, 8)"><text x="0" y="0" dx="0em" dy="0.95em" style="text-anchor: middle; visibility: hidden; font-family: Roboto, sans-serif; font-size: 12px; font-weight: 200;" fill="rgb(33, 33, 33)" stroke="none" stroke-width="1px">-20k</text><text x="18.404017857142858" y="0" dx="0em" dy="0.95em" style="text-anchor: middle; visibility: inherit; font-family: Roboto, sans-serif; font-size: 12px; font-weight: 200;" fill="rgb(33, 33, 33)" stroke="none" stroke-width="1px">0</text><text x="36.808035714285715" y="0" dx="0em" dy="0.95em" style="text-anchor: middle; visibility: hidden; font-family: Roboto, sans-serif; font-size: 12px; font-weight: 200;" fill="rgb(33, 33, 33)" stroke="none" stroke-width="1px">20k</text><text x="55.21205357142857" y="0" dx="0em" dy="0.95em" style="text-anchor: middle; visibility: inherit; font-family: Roboto, sans-serif; font-size: 12px; font-weight: 200;" fill="rgb(33, 33, 33)" stroke="none" stroke-width="1px">40k</text><text x="73.61607142857143" y="0" dx="0em" dy="0.95em" style="text-anchor: middle; visibility: hidden; font-family: Roboto, sans-serif; font-size: 12px; font-weight: 200;" fill="rgb(33, 33, 33)" stroke="none" stroke-width="1px">60k</text><text x="92.02008928571429" y="0" dx="0em" dy="0.95em" style="text-anchor: middle; visibility: inherit; font-family: Roboto, sans-serif; font-size: 12px; font-weight: 200;" fill="rgb(33, 33, 33)" stroke="none" stroke-width="1px">80k</text><text x="110.42410714285714" y="0" dx="0em" dy="0.95em" style="text-anchor: middle; visibility: hidden; font-family: Roboto, sans-serif; font-size: 12px; font-weight: 200;" fill="rgb(33, 33, 33)" stroke="none" stroke-width="1px">100k</text><text x="128.828125" y="0" dx="0em" dy="0.95em" style="text-anchor: middle; visibility: inherit; font-family: Roboto, sans-serif; font-size: 12px; font-weight: 200;" fill="rgb(33, 33, 33)" stroke="none" stroke-width="1px">120k</text><text x="147.23214285714286" y="0" dx="0em" dy="0.95em" style="text-anchor: middle; visibility: hidden; font-family: Roboto, sans-serif; font-size: 12px; font-weight: 200;" fill="rgb(33, 33, 33)" stroke="none" stroke-width="1px">140k</text><text x="165.63616071428572" y="0" dx="0em" dy="0.95em" style="text-anchor: middle; visibility: inherit; font-family: Roboto, sans-serif; font-size: 12px; font-weight: 200;" fill="rgb(33, 33, 33)" stroke="none" stroke-width="1px">160k</text><text x="184.04017857142858" y="0" dx="0em" dy="0.95em" style="text-anchor: middle; visibility: hidden; font-family: Roboto, sans-serif; font-size: 12px; font-weight: 200;" fill="rgb(33, 33, 33)" stroke="none" stroke-width="1px">180k</text><text x="202.44419642857142" y="0" dx="0em" dy="0.95em" style="text-anchor: middle; visibility: inherit; font-family: Roboto, sans-serif; font-size: 12px; font-weight: 200;" fill="rgb(33, 33, 33)" stroke="none" stroke-width="1px">200k</text><text x="220.84821428571428" y="0" dx="0em" dy="0.95em" style="text-anchor: middle; visibility: hidden; font-family: Roboto, sans-serif; font-size: 12px; font-weight: 200;" fill="rgb(33, 33, 33)" stroke="none" stroke-width="1px">220k</text><text x="239.25223214285714" y="0" dx="0em" dy="0.95em" style="text-anchor: middle; visibility: inherit; font-family: Roboto, sans-serif; font-size: 12px; font-weight: 200;" fill="rgb(33, 33, 33)" stroke="none" stroke-width="1px">240k</text><text x="257.65625" y="0" dx="0em" dy="0.95em" style="text-anchor: middle; visibility: hidden; font-family: Roboto, sans-serif; font-size: 12px; font-weight: 200;" fill="rgb(33, 33, 33)" stroke="none" stroke-width="1px">260k</text></g><line x1="0" y1="0" x2="257.65625" y2="0" fill="rgb(0, 0, 0)" stroke="rgb(204, 204, 204)" stroke-width="1px"></line></g></g></g></g></svg>