<svg viewBox="0 0 330 200" xmlns="http://www.w3.org/2000/svg"><g><g><g><g><g><line x1="82.734375" y1="177" x2="77.734375" y2="177" style="visibility: inherit;" fill="rgb(0, 0, 0)" stroke="rgb(204, 204, 204)" stroke-width="1px"></line><line x1="82.734375" y1="162.25" x2="77.734375" y2="162.25" style="visibility: inherit;" fill="rgb(0, 0, 0)" stroke="rgb(204, 204, 204)" stroke-width="1px"></line><line x1="82.734375" y1="147.50000000000006" x2="77.734375" y2="147.50000000000006" style="visibility: inherit;" fill="rgb(0, 0, 0)" stroke="rgb(204, 204, 204)" stroke-width="1px"></line><line x1="82.734375" y1="132.75" x2="77.734375" y2="132.75" style="visibility: inherit;" fill="rgb(0, 0, 0)" stroke="rgb(204, 204, 204)" stroke-width="1px"></line><line x1="82.734375" y1="118.00000000000001" x2="77.734375" y2="118.00000000000001" style="visibility: inherit;" fill="rgb(0, 0, 0)" stroke="rgb(204, 204, 204)" stroke-width="1px"></line><line x1="82.734375" y1="103.24999999999999" x2="77.734375" y2="103.24999999999999" style="visibility: inherit;" fill="rgb(0, 0, 0)" stroke="rgb(204, 204, 204)" stroke-width="1px"></line><line x1="82.734375" y1="88.5" x2="77.734375" y2="88.5" style="visibility: inherit;" fill="rgb(0, 0, 0)" stroke="rgb(204, 204, 204)" stroke-width="1px"></line><line x1="82.734375" y1="73.75000000000001" x2="77.734375" y2="73.75000000000001" style="visibility: inherit;" fill="rgb(0, 0, 0)" stroke="rgb(204, 204, 204)" stroke-width="1px"></line><line x1="82.734375" y1="58.999999999999986" x2="77.734375" y2="58.999999999999986" style="visibility: inherit;" fill="rgb(0, 0, 0)" stroke="rgb(204, 204, 204)" stroke-width="1px"></line><line x1="82.734375" y1="44.25" x2="77.734375" y2="44.25" style="visibility: inherit;" fill="rgb(0, 0, 0)" stroke="rgb(204, 204, 204)" stroke-width="1px"></line><line x1="82.734375" y1="29.499999999999954" x2="77.734375" y2="29.499999999999954" style="visibility: inherit;" fill="rgb(0, 0, 0)" stroke="rgb(204, 204, 204)" stroke-width="1px"></line><line x1="82.734375" y1="14.749999999999988" x2="77.734375" y2="14.749999999999988" style="visibility: inherit;" fill="rgb(0, 0, 0)" stroke="rgb(204, 204, 204)" stroke-width="1px"></line><line x1="82.734375" y1="0" x2="77.734375" y2="0" style="visibility: inherit;" fill="rgb(0, 0, 0)" stroke="rgb(204, 204, 204)" stroke-width="1px"></line></g><g transform="translate(72.734375, 0)"><text x="0" y="177" dx="0em" dy="0.3em" style="text-anchor: end; visibility: hidden; font-family: Roboto, sans-serif; font-size: 12px; font-weight: 200;" fill="rgb(33, 33, 33)" stroke="none" stroke-width="1px">-6.8e-3</text><text x="0" y="162.25" dx="0em" dy="0.3em" style="text-anchor: end; visibility: inherit; font-family: Roboto, sans-serif; font-size: 12px; font-weight: 200;" fill="rgb(33, 33, 33)" stroke="none" stroke-width="1px">-6.6e-3</text><text x="0" y="147.50000000000006" dx="0em" dy="0.3em" style="text-anchor: end; visibility: hidden; font-family: Roboto, sans-serif; font-size: 12px; font-weight: 200;" fill="rgb(33, 33, 33)" stroke="none" stroke-width="1px">-6.4e-3</text><text x="0" y="132.75" dx="0em" dy="0.3em" style="text-anchor: end; visibility: inherit; font-family: Roboto, sans-serif; font-size: 12px; font-weight: 200;" fill="rgb(33, 33, 33)" stroke="none" stroke-width="1px">-6.2e-3</text><text x="0" y="118.00000000000001" dx="0em" dy="0.3em" style="text-anchor: end; visibility: hidden; font-family: Roboto, sans-serif; font-size: 12px; font-weight: 200;" fill="rgb(33, 33, 33)" stroke="none" stroke-width="1px">-6e-3</text><text x="0" y="103.24999999999999" dx="0em" dy="0.3em" style="text-anchor: end; visibility: inherit; font-family: Roboto, sans-serif; font-size: 12px; font-weight: 200;" fill="rgb(33, 33, 33)" stroke="none" stroke-width="1px">-5.8e-3</text><text x="0" y="88.5" dx="0em" dy="0.3em" style="text-anchor: end; visibility: hidden; font-family: Roboto, sans-serif; font-size: 12px; font-weight: 200;" fill="rgb(33, 33, 33)" stroke="none" stroke-width="1px">-5.6e-3</text><text x="0" y="73.75000000000001" dx="0em" dy="0.3em" style="text-anchor: end; visibility: inherit; font-family: Roboto, sans-serif; font-size: 12px; font-weight: 200;" fill="rgb(33, 33, 33)" stroke="none" stroke-width="1px">-5.4e-3</text><text x="0" y="58.999999999999986" dx="0em" dy="0.3em" style="text-anchor: end; visibility: hidden; font-family: Roboto, sans-serif; font-size: 12px; font-weight: 200;" fill="rgb(33, 33, 33)" stroke="none" stroke-width="1px">-5.2e-3</text><text x="0" y="44.25" dx="0em" dy="0.3em" style="text-anchor: end; visibility: inherit; font-family: Roboto, sans-serif; font-size: 12px; font-weight: 200;" fill="rgb(33, 33, 33)" stroke="none" stroke-width="1px">-5e-3</text><text x="0" y="29.499999999999954" dx="0em" dy="0.3em" style="text-anchor: end; visibility: hidden; font-family: Roboto, sans-serif; font-size: 12px; font-weight: 200;" fill="rgb(33, 33, 33)" stroke="none" stroke-width="1px">-4.8e-3</text><text x="0" y="14.749999999999988" dx="0em" dy="0.3em" style="text-anchor: end; visibility: inherit; font-family: Roboto, sans-serif; font-size: 12px; font-weight: 200;" fill="rgb(33, 33, 33)" stroke="none" stroke-width="1px">-4.6e-3</text><text x="0" y="0" dx="0em" dy="0.3em" style="text-anchor: end; visibility: hidden; font-family: Roboto, sans-serif; font-size: 12px; font-weight: 200;" fill="rgb(33, 33, 33)" stroke="none" stroke-width="1px">-4.4e-3</text></g><line x1="82.734375" y1="0" x2="82.734375" y2="177" fill="rgb(0, 0, 0)" stroke="rgb(204, 204, 204)" stroke-width="1px"></line></g></g><g transform="translate(82, 0)" clip-path="url(#clip_0)"><clipPath id="clip_0"><rect width="247" height="177"></rect></clipPath><g><g><g><line x1="0" y1="0" x2="0" y2="177" fill="rgb(0, 0, 0)" stroke="rgb(66, 66, 66)" stroke-width="1px" opacity="0.25"></line><line x1="17.661830357142858" y1="0" x2="17.661830357142858" y2="177" fill="rgb(0, 0, 0)" stroke="rgb(66, 66, 66)" stroke-width="1px" opacity="0.25"></line><line x1="35.323660714285715" y1="0" x2="35.323660714285715" y2="177" fill="rgb(0, 0, 0)" stroke="rgb(66, 66, 66)" stroke-width="1px" opacity="0.25"></line><line x1="52.98549107142857" y1="0" x2="52.98549107142857" y2="177" fill="rgb(0, 0, 0)" stroke="rgb(66, 66, 66)" stroke-width="1px" opacity="0.25"></line><line x1="70.64732142857143" y1="0" x2="70.64732142857143" y2="177" fill="rgb(0, 0, 0)" stroke="rgb(66, 66, 66)" stroke-width="1px" opacity="0.25"></line><line x1="88.30915178571429" y1="0" x2="88.30915178571429" y2="177" fill="rgb(0, 0, 0)" stroke="rgb(66, 66, 66)" stroke-width="1px" opacity="0.25"></line><line x1="105.97098214285714" y1="0" x2="105.97098214285714" y2="177" fill="rgb(0, 0, 0)" stroke="rgb(66, 66, 66)" stroke-width="1px" opacity="0.25"></line><line x1="123.6328125" y1="0" x2="123.6328125" y2="177" fill="rgb(0, 0, 0)" stroke="rgb(66, 66, 66)" stroke-width="1px" opacity="0.25"></line><line x1="141.29464285714286" y1="0" x2="141.29464285714286" y2="177" fill="rgb(0, 0, 0)" stroke="rgb(66, 66, 66)" stroke-width="1px" opacity="0.25"></line><line x1="158.95647321428572" y1="0" x2="158.95647321428572" y2="177" fill="rgb(0, 0, 0)" stroke="rgb(66, 66, 66)" stroke-width="1px" opacity="0.25"></line><line x1="176.61830357142858" y1="0" x2="176.61830357142858" y2="177" fill="rgb(0, 0, 0)" stroke="rgb(66, 66, 66)" stroke-width="1px" opacity="0.25"></line><line x1="194.28013392857142" y1="0" x2="194.28013392857142" y2="177" fill="rgb(0, 0, 0)" stroke="rgb(66, 66, 66)" stroke-width="1px" opacity="0.25"></line><line x1="211.94196428571428" y1="0" x2="211.94196428571428" y2="177" fill="rgb(0, 0, 0)" stroke="rgb(66, 66, 66)" stroke-width="1px" opacity="0.25"></line><line x1="229.60379464285714" y1="0" x2="229.60379464285714" y2="177" fill="rgb(0, 0, 0)" stroke="rgb(66, 66, 66)" stroke-width="1px" opacity="0.25"></line><line x1="247.265625" y1="0" x2="247.265625" y2="177" fill="rgb(0, 0, 0)" stroke="rgb(66, 66, 66)" stroke-width="1px" opacity="0.25"></line></g><g><line x1="0" y1="177" x2="247.265625" y2="177" fill="rgb(0, 0, 0)" stroke="rgb(66, 66, 66)" stroke-width="1px" opacity="0.25"></line><line x1="0" y1="162.25" x2="247.265625" y2="162.25" fill="rgb(0, 0, 0)" stroke="rgb(66, 66, 66)" stroke-width="1px" opacity="0.25"></line><line x1="0" y1="147.50000000000006" x2="247.265625" y2="147.50000000000006" fill="rgb(0, 0, 0)" stroke="rgb(66, 66, 66)" stroke-width="1px" opacity="0.25"></line><line x1="0" y1="132.75" x2="247.265625" y2="132.75" fill="rgb(0, 0, 0)" stroke="rgb(66, 66, 66)" stroke-width="1px" opacity="0.25"></line><line x1="0" y1="118.00000000000001" x2="247.265625" y2="118.00000000000001" fill="rgb(0, 0, 0)" stroke="rgb(66, 66, 66)" stroke-width="1px" opacity="0.25"></line><line x1="0" y1="103.24999999999999" x2="247.265625" y2="103.24999999999999" fill="rgb(0, 0, 0)" stroke="rgb(66, 66, 66)" stroke-width="1px" opacity="0.25"></line><line x1="0" y1="88.5" x2="247.265625" y2="88.5" fill="rgb(0, 0, 0)" stroke="rgb(66, 66, 66)" stroke-width="1px" opacity="0.25"></line><line x1="0" y1="73.75000000000001" x2="247.265625" y2="73.75000000000001" fill="rgb(0, 0, 0)" stroke="rgb(66, 66, 66)" stroke-width="1px" opacity="0.25"></line><line x1="0" y1="58.999999999999986" x2="247.265625" y2="58.999999999999986" fill="rgb(0, 0, 0)" stroke="rgb(66, 66, 66)" stroke-width="1px" opacity="0.25"></line><line x1="0" y1="44.25" x2="247.265625" y2="44.25" fill="rgb(0, 0, 0)" stroke="rgb(66, 66, 66)" stroke-width="1px" opacity="0.25"></line><line x1="0" y1="29.499999999999954" x2="247.265625" y2="29.499999999999954" fill="rgb(0, 0, 0)" stroke="rgb(66, 66, 66)" stroke-width="1px" opacity="0.25"></line><line x1="0" y1="14.749999999999988" x2="247.265625" y2="14.749999999999988" fill="rgb(0, 0, 0)" stroke="rgb(66, 66, 66)" stroke-width="1px" opacity="0.25"></line><line x1="0" y1="0" x2="247.265625" y2="0" fill="rgb(0, 0, 0)" stroke="rgb(66, 66, 66)" stroke-width="1px" opacity="0.25"></line></g></g></g><g><g><line x1="0" y1="-324.5000000000001" x2="247.265625" y2="-324.5000000000001" fill="rgb(0, 0, 0)" stroke="rgb(153, 153, 153)" stroke-width="1.5px"></line></g></g><g><g><line x1="17.661830357142858" y1="0" x2="17.661830357142858" y2="177" fill="rgb(0, 0, 0)" stroke="rgb(153, 153, 153)" stroke-width="1.5px"></line></g></g><g><g><g><g><g><path stroke="rgb(255, 112, 67)" stroke-width="2px" d="M22.077287946428573,181.96587073327134L23.843470982142858,149.359165824561L25.609654017857146,143.54354974097993L27.375837053571427,115.31873039988093L29.142020089285715,112.05952677503844L30.908203125,108.40631919263731L32.674386160714285,114.850163118222L34.44056919642857,148.17386047204977L36.20675223214286,146.5110616572309L37.972935267857146,167.5141958582682L39.73911830357143,174.61709270576412L41.50530133928571,180.09722011953832L43.271484375,176.1955681053339L45.037667410714285,166.99134785512035L46.80385044642857,161.41981017162547L48.570033482142854,169.1510494978066L50.336216517857146,175.01313193415183L52.10239955357143,155.00462549146835L53.868582589285715,150.02915957195322L56.51785714285714,180.0058743895146L58.28404017857143,139.3912792781779L60.050223214285715,100.30831042646808L61.81640625,84.98154336953823L63.58258928571428,91.60853182278204L65.34877232142857,82.3090277633483L67.11495535714285,53.38170258084428L68.88113839285714,47.23674093317837L70.64732142857143,45.97166227332578L72.41350446428572,43.55877090415076L74.1796875,60.951018975388116L75.94587053571429,70.32011415662942L77.71205357142857,64.65079927826726L79.47823660714286,65.59942951444582L81.24441964285714,46.95679360920901L83.01060267857142,33.00886447232986L84.77678571428571,16.357679837216132L86.54296875,47.86512847791901L88.30915178571429,52.522635950501225L90.07533482142857,52.9156449746597L91.84151785714286,41.704808039590596L94.49079241071428,32.830822285881744L96.25697544642857,55.045230621496465L98.02315848214285,49.72990939973983L99.78934151785714,20.430627325185966L101.55552455357143,32.28438007276641L103.32170758928572,26.26887336931013L105.087890625,31.841249814548377L106.85407366071429,40.382027456336424L108.62025669642857,25.254485084489865L110.38643973214286,26.37157611634902L112.15262276785714,26.00069086881997L113.91880580357142,22.58299406668816L115.68498883928571,47.03024445317117L117.451171875,58.37136623701268L119.21735491071429,61.9767213283358L120.98353794642857,55.9595985493269L122.74972098214286,48.53187662555719L124.51590401785714,24.250530584531948L126.28208705357142,25.816138725155945L128.04827008928572,20.433900480799608L129.814453125,17.825280674799625L132.46372767857142,28.266609225266926L134.2299107142857,35.622416187594L135.99609375,16.92323153494874L137.76227678571428,39.81837278127926L139.52845982142858,22.82062023567407L141.29464285714286,21.595585761099777L143.06082589285717,14.158162451698804L144.82700892857144,16.10065299292756L146.59319196428572,34.42899942433591L148.359375,36.366609277129854L150.12555803571428,25.316220102605445L151.89174107142858,39.33056147789405L153.65792410714286,49.71347991362858L155.42410714285714,72.13936637763156L157.19029017857142,78.0873334492427L158.95647321428572,67.04639023734451L160.72265625,62.75902221722767L162.48883928571428,58.499102117581735L164.25502232142856,69.29807274623045L166.02120535714283,63.55019119977899L167.78738839285714,93.6952163280935L170.43666294642858,82.44734910993097L172.20284598214286,57.146177024402206L173.96902901785717,65.4844036723386L175.73521205357144,65.02584820095633L177.50139508928572,77.85171068674171L179.267578125,82.8708151270337L181.03376116071428,76.7867198368442L182.79994419642858,78.96777258117405L184.56612723214286,58.09793184157352L186.33231026785714,40.94529182486259L188.09849330357142,46.94076778281044L189.86467633928572,31.04278214220477L191.630859375,47.650679773399936L193.39704241071428,41.52686226382092L195.16322544642856,37.955855701180965L196.92940848214283,42.87502943038977L198.69559151785714,77.92970247256798L200.46177455357142,62.53079912881536L202.22795758928572,58.22456027761088L203.994140625,59.81008029958077L205.7603236607143,72.15902678166734L208.40959821428572,56.972107928763585L210.17578125,56.20606278746488L211.94196428571428,38.238043281006625L213.70814732142858,21.604514871539646L215.47433035714286,32.11793838885643L217.24051339285714,52.61274278489509L219.00669642857142,49.60233085635596L220.77287946428572,49.41928523154451L222.5390625,51.23598118731136L224.30524553571428,48.32336317785878L226.07142857142856,58.46523719452053L227.83761160714283,57.54080951679168L229.60379464285714,73.8115993510586L231.36997767857142,62.54544010392904L233.13616071428572,67.42520795307183L234.90234375,65.26124852431192L236.6685267857143,83.91702071468553L238.43470982142858,88.2984713664264" style="fill: none;" fill="none"></path></g></g></g></g><g opacity="0.2"><g><g><g><path stroke="rgb(255, 112, 67)" stroke-width="2px" d="M20.311104910714285,260.94408064335585L22.077287946428573,134.18405373767018L23.843470982142858,117.69724019058052L25.609654017857146,136.60860130283982L27.375837053571427,77.88007612060755L29.142020089285715,107.4722013315186L30.908203125,103.08528783451767L32.674386160714285,124.42703474033625L34.44056919642857,198.29782947152856L36.20675223214286,143.9918996645138L37.972935267857146,199.47220628336078L41.50530133928571,188.47064870595935L43.271484375,170.22831422463062L45.037667410714285,152.906153222546L46.80385044642857,152.89073343109342L48.570033482142854,180.98875296954066L50.336216517857146,183.99001447204503L52.10239955357143,124.36229909025135L53.868582589285715,142.40905292052776L56.51785714285714,225.91759507730606L58.28404017857143,77.18573905248195L60.050223214285715,40.44800006039439L61.81640625,61.50659288931638L63.58258928571428,101.75867063179612L65.34877232142857,68.06553340237588L67.11495535714285,9.075386903248715L68.88113839285714,37.82484970241784L70.64732142857143,44.03401164989918L72.41350446428572,39.86307826079428L74.1796875,87.58977112546563L75.94587053571429,84.67024482041597L77.71205357142857,55.96741916332394L79.47823660714286,67.05239472165704L81.24441964285714,18.402884003706262L83.01060267857142,11.64558109547941L84.77678571428571,-9.146032983437207L86.54296875,96.12337219249457L88.30915178571429,59.65628660004585L90.07533482142857,53.517595503479235L91.84151785714286,24.533779348246746L94.49079241071428,19.239021336659768L96.25697544642857,89.06983070727439L98.02315848214285,41.588721202686415L99.78934151785714,-24.445488246157804L101.55552455357143,50.44012794923036L103.32170758928572,17.055249178782084L105.087890625,40.37615550868213L106.85407366071429,53.46347169205545L108.62025669642857,2.0844518318772183L110.38643973214286,28.082563646137707L112.15262276785714,25.43262612260876L113.91880580357142,17.348293901421115L115.68498883928571,84.4747671969235L117.451171875,75.74194517172873L119.21735491071429,67.49884748086333L120.98353794642857,46.743499103002236L122.74972098214286,37.15523924864827L124.51590401785714,-12.939885503612498L126.28208705357142,28.214095497503862L128.04827008928572,12.190219119191157L129.814453125,13.829799706116306L132.46372767857142,44.25902384053915L134.2299107142857,46.88890533242374L135.99609375,-11.717291793786016L137.76227678571428,74.88561443705112L139.52845982142858,-3.213912144303348L141.29464285714286,19.719267135485993L143.06082589285717,2.76666599046437L144.82700892857144,19.075860024429844L146.59319196428572,62.50153003446758L148.359375,39.33434082381427L150.12555803571428,8.390940480865519L151.89174107142858,60.79556535650044L153.65792410714286,65.6164309354499L155.42410714285714,106.48787602502854L157.19029017857142,87.19751086272301L158.95647321428572,50.13557848241179L160.72265625,56.19229398388415L162.48883928571428,51.9744143700227L164.25502232142856,85.83826826605947L166.02120535714283,54.746473894454525L167.78738839285714,139.86671051196757L170.43666294642858,65.21960311755538L172.20284598214286,18.39374889340251L173.96902901785717,78.25561157613993L175.73521205357144,64.32350374478847L177.50139508928572,97.49638613965362L179.267578125,90.55830420646816L181.03376116071428,67.4680422404781L182.79994419642858,82.30837235413492L184.56612723214286,26.132732734084115L186.33231026785714,14.673526735976331L188.09849330357142,56.12371197156608L189.86467633928572,6.692702869884643L191.630859375,73.08809260092676L193.39704241071428,32.147344306111314L195.16322544642856,32.486339320428655L196.92940848214283,50.40946007892489L198.69559151785714,131.62103713210672L200.46177455357142,38.945137045346186L202.22795758928572,51.62892861943692L203.994140625,62.23853501677514L205.7603236607143,91.07323595043272L208.40959821428572,33.71113095153122L210.17578125,55.03275314066559L211.94196428571428,10.717405809089522L213.70814732142858,-3.8721552239731216L215.47433035714286,48.22077694069594L217.24051339285714,84.00351913832128L219.00669642857142,44.99144676327705L220.77287946428572,49.13892421126365L222.5390625,54.0185154993087L224.30524553571428,43.86226470768451L226.07142857142856,73.99899359978735L227.83761160714283,56.12491395976394L229.60379464285714,98.73268251493575L231.36997767857142,45.289677206426845L233.13616071428572,74.89928275998682L234.90234375,61.946829652413726L236.6685267857143,112.49105153791606L238.43470982142858,95.00930084567517" style="fill: none;" fill="none"></path></g></g></g></g></g></g><g transform="translate(82, 177)" clip-path="url(#clip_1)"><clipPath id="clip_1"><rect width="247" height="23"></rect></clipPath><g><g><line x1="0" y1="0" x2="0" y2="5" style="visibility: inherit;" fill="rgb(0, 0, 0)" stroke="rgb(204, 204, 204)" stroke-width="1px"></line><line x1="17.661830357142858" y1="0" x2="17.661830357142858" y2="5" style="visibility: inherit;" fill="rgb(0, 0, 0)" stroke="rgb(204, 204, 204)" stroke-width="1px"></line><line x1="35.323660714285715" y1="0" x2="35.323660714285715" y2="5" style="visibility: inherit;" fill="rgb(0, 0, 0)" stroke="rgb(204, 204, 204)" stroke-width="1px"></line><line x1="52.98549107142857" y1="0" x2="52.98549107142857" y2="5" style="visibility: inherit;" fill="rgb(0, 0, 0)" stroke="rgb(204, 204, 204)" stroke-width="1px"></line><line x1="70.64732142857143" y1="0" x2="70.64732142857143" y2="5" style="visibility: inherit;" fill="rgb(0, 0, 0)" stroke="rgb(204, 204, 204)" stroke-width="1px"></line><line x1="88.30915178571429" y1="0" x2="88.30915178571429" y2="5" style="visibility: inherit;" fill="rgb(0, 0, 0)" stroke="rgb(204, 204, 204)" stroke-width="1px"></line><line x1="105.97098214285714" y1="0" x2="105.97098214285714" y2="5" style="visibility: inherit;" fill="rgb(0, 0, 0)" stroke="rgb(204, 204, 204)" stroke-width="1px"></line><line x1="123.6328125" y1="0" x2="123.6328125" y2="5" style="visibility: inherit;" fill="rgb(0, 0, 0)" stroke="rgb(204, 204, 204)" stroke-width="1px"></line><line x1="141.29464285714286" y1="0" x2="141.29464285714286" y2="5" style="visibility: inherit;" fill="rgb(0, 0, 0)" stroke="rgb(204, 204, 204)" stroke-width="1px"></line><line x1="158.95647321428572" y1="0" x2="158.95647321428572" y2="5" style="visibility: inherit;" fill="rgb(0, 0, 0)" stroke="rgb(204, 204, 204)" stroke-width="1px"></line><line x1="176.61830357142858" y1="0" x2="176.61830357142858" y2="5" style="visibility: inherit;" fill="rgb(0, 0, 0)" stroke="rgb(204, 204, 204)" stroke-width="1px"></line><line x1="194.28013392857142" y1="0" x2="194.28013392857142" y2="5" style="visibility: inherit;" fill="rgb(0, 0, 0)" stroke="rgb(204, 204, 204)" stroke-width="1px"></line><line x1="211.94196428571428" y1="0" x2="211.94196428571428" y2="5" style="visibility: inherit;" fill="rgb(0, 0, 0)" stroke="rgb(204, 204, 204)" stroke-width="1px"></line><line x1="229.60379464285714" y1="0" x2="229.60379464285714" y2="5" style="visibility: inherit;" fill="rgb(0, 0, 0)" stroke="rgb(204, 204, 204)" stroke-width="1px"></line><line x1="247.265625" y1="0" x2="247.265625" y2="5" style="visibility: inherit;" fill="rgb(0, 0, 0)" stroke="rgb(204, 204, 204)" stroke-width="1px"></line></g><g transform="translate(0, 8)"><text x="0" y="0" dx="0em" dy="0.95em" style="text-anchor: middle; visibility: hidden; font-family: Roboto, sans-serif; font-size: 12px; font-weight: 200;" fill="rgb(33, 33, 33)" stroke="none" stroke-width="1px">-20k</text><text x="17.661830357142858" y="0" dx="0em" dy="0.95em" style="text-anchor: middle; visibility: inherit; font-family: Roboto, sans-serif; font-size: 12px; font-weight: 200;" fill="rgb(33, 33, 33)" stroke="none" stroke-width="1px">0</text><text x="35.323660714285715" y="0" dx="0em" dy="0.95em" style="text-anchor: middle; visibility: hidden; font-family: Roboto, sans-serif; font-size: 12px; font-weight: 200;" fill="rgb(33, 33, 33)" stroke="none" stroke-width="1px">20k</text><text x="52.98549107142857" y="0" dx="0em" dy="0.95em" style="text-anchor: middle; visibility: inherit; font-family: Roboto, sans-serif; font-size: 12px; font-weight: 200;" fill="rgb(33, 33, 33)" stroke="none" stroke-width="1px">40k</text><text x="70.64732142857143" y="0" dx="0em" dy="0.95em" style="text-anchor: middle; visibility: hidden; font-family: Roboto, sans-serif; font-size: 12px; font-weight: 200;" fill="rgb(33, 33, 33)" stroke="none" stroke-width="1px">60k</text><text x="88.30915178571429" y="0" dx="0em" dy="0.95em" style="text-anchor: middle; visibility: inherit; font-family: Roboto, sans-serif; font-size: 12px; font-weight: 200;" fill="rgb(33, 33, 33)" stroke="none" stroke-width="1px">80k</text><text x="105.97098214285714" y="0" dx="0em" dy="0.95em" style="text-anchor: middle; visibility: hidden; font-family: Roboto, sans-serif; font-size: 12px; font-weight: 200;" fill="rgb(33, 33, 33)" stroke="none" stroke-width="1px">100k</text><text x="123.6328125" y="0" dx="0em" dy="0.95em" style="text-anchor: middle; visibility: inherit; font-family: Roboto, sans-serif; font-size: 12px; font-weight: 200;" fill="rgb(33, 33, 33)" stroke="none" stroke-width="1px">120k</text><text x="141.29464285714286" y="0" dx="0em" dy="0.95em" style="text-anchor: middle; visibility: hidden; font-family: Roboto, sans-serif; font-size: 12px; font-weight: 200;" fill="rgb(33, 33, 33)" stroke="none" stroke-width="1px">140k</text><text x="158.95647321428572" y="0" dx="0em" dy="0.95em" style="text-anchor: middle; visibility: inherit; font-family: Roboto, sans-serif; font-size: 12px; font-weight: 200;" fill="rgb(33, 33, 33)" stroke="none" stroke-width="1px">160k</text><text x="176.61830357142858" y="0" dx="0em" dy="0.95em" style="text-anchor: middle; visibility: hidden; font-family: Roboto, sans-serif; font-size: 12px; font-weight: 200;" fill="rgb(33, 33, 33)" stroke="none" stroke-width="1px">180k</text><text x="194.28013392857142" y="0" dx="0em" dy="0.95em" style="text-anchor: middle; visibility: inherit; font-family: Roboto, sans-serif; font-size: 12px; font-weight: 200;" fill="rgb(33, 33, 33)" stroke="none" stroke-width="1px">200k</text><text x="211.94196428571428" y="0" dx="0em" dy="0.95em" style="text-anchor: middle; visibility: hidden; font-family: Roboto, sans-serif; font-size: 12px; font-weight: 200;" fill="rgb(33, 33, 33)" stroke="none" stroke-width="1px">220k</text><text x="229.60379464285714" y="0" dx="0em" dy="0.95em" style="text-anchor: middle; visibility: inherit; font-family: Roboto, sans-serif; font-size: 12px; font-weight: 200;" fill="rgb(33, 33, 33)" stroke="none" stroke-width="1px">240k</text><text x="247.265625" y="0" dx="0em" dy="0.95em" style="text-anchor: middle; visibility: hidden; font-family: Roboto, sans-serif; font-size: 12px; font-weight: 200;" fill="rgb(33, 33, 33)" stroke="none" stroke-width="1px">260k</text></g><line x1="0" y1="0" x2="247.265625" y2="0" fill="rgb(0, 0, 0)" stroke="rgb(204, 204, 204)" stroke-width="1px"></line></g></g></g></g></svg>