<svg viewBox="0 0 330 200" xmlns="http://www.w3.org/2000/svg"><g><g><g><g><g><line x1="72.34375" y1="177" x2="67.34375" y2="177" style="visibility: inherit;" fill="rgb(0, 0, 0)" stroke="rgb(204, 204, 204)" stroke-width="1px"></line><line x1="72.34375" y1="154.875" x2="67.34375" y2="154.875" style="visibility: inherit;" fill="rgb(0, 0, 0)" stroke="rgb(204, 204, 204)" stroke-width="1px"></line><line x1="72.34375" y1="132.75" x2="67.34375" y2="132.75" style="visibility: inherit;" fill="rgb(0, 0, 0)" stroke="rgb(204, 204, 204)" stroke-width="1px"></line><line x1="72.34375" y1="110.625" x2="67.34375" y2="110.625" style="visibility: inherit;" fill="rgb(0, 0, 0)" stroke="rgb(204, 204, 204)" stroke-width="1px"></line><line x1="72.34375" y1="88.5" x2="67.34375" y2="88.5" style="visibility: inherit;" fill="rgb(0, 0, 0)" stroke="rgb(204, 204, 204)" stroke-width="1px"></line><line x1="72.34375" y1="66.375" x2="67.34375" y2="66.375" style="visibility: inherit;" fill="rgb(0, 0, 0)" stroke="rgb(204, 204, 204)" stroke-width="1px"></line><line x1="72.34375" y1="44.25" x2="67.34375" y2="44.25" style="visibility: inherit;" fill="rgb(0, 0, 0)" stroke="rgb(204, 204, 204)" stroke-width="1px"></line><line x1="72.34375" y1="22.125" x2="67.34375" y2="22.125" style="visibility: inherit;" fill="rgb(0, 0, 0)" stroke="rgb(204, 204, 204)" stroke-width="1px"></line><line x1="72.34375" y1="0" x2="67.34375" y2="0" style="visibility: inherit;" fill="rgb(0, 0, 0)" stroke="rgb(204, 204, 204)" stroke-width="1px"></line></g><g transform="translate(62.34375, 0)"><text x="0" y="177" dx="0em" dy="0.3em" style="text-anchor: end; visibility: hidden; font-family: Roboto, sans-serif; font-size: 12px; font-weight: 200;" fill="rgb(33, 33, 33)" stroke="none" stroke-width="1px">0</text><text x="0" y="154.875" dx="0em" dy="0.3em" style="text-anchor: end; visibility: inherit; font-family: Roboto, sans-serif; font-size: 12px; font-weight: 200;" fill="rgb(33, 33, 33)" stroke="none" stroke-width="1px">5e+3</text><text x="0" y="132.75" dx="0em" dy="0.3em" style="text-anchor: end; visibility: hidden; font-family: Roboto, sans-serif; font-size: 12px; font-weight: 200;" fill="rgb(33, 33, 33)" stroke="none" stroke-width="1px">1e+4</text><text x="0" y="110.625" dx="0em" dy="0.3em" style="text-anchor: end; visibility: inherit; font-family: Roboto, sans-serif; font-size: 12px; font-weight: 200;" fill="rgb(33, 33, 33)" stroke="none" stroke-width="1px">1.5e+4</text><text x="0" y="88.5" dx="0em" dy="0.3em" style="text-anchor: end; visibility: hidden; font-family: Roboto, sans-serif; font-size: 12px; font-weight: 200;" fill="rgb(33, 33, 33)" stroke="none" stroke-width="1px">2e+4</text><text x="0" y="66.375" dx="0em" dy="0.3em" style="text-anchor: end; visibility: inherit; font-family: Roboto, sans-serif; font-size: 12px; font-weight: 200;" fill="rgb(33, 33, 33)" stroke="none" stroke-width="1px">2.5e+4</text><text x="0" y="44.25" dx="0em" dy="0.3em" style="text-anchor: end; visibility: hidden; font-family: Roboto, sans-serif; font-size: 12px; font-weight: 200;" fill="rgb(33, 33, 33)" stroke="none" stroke-width="1px">3e+4</text><text x="0" y="22.125" dx="0em" dy="0.3em" style="text-anchor: end; visibility: inherit; font-family: Roboto, sans-serif; font-size: 12px; font-weight: 200;" fill="rgb(33, 33, 33)" stroke="none" stroke-width="1px">3.5e+4</text><text x="0" y="0" dx="0em" dy="0.3em" style="text-anchor: end; visibility: hidden; font-family: Roboto, sans-serif; font-size: 12px; font-weight: 200;" fill="rgb(33, 33, 33)" stroke="none" stroke-width="1px">4e+4</text></g><line x1="72.34375" y1="0" x2="72.34375" y2="177" fill="rgb(0, 0, 0)" stroke="rgb(204, 204, 204)" stroke-width="1px"></line></g></g><g transform="translate(72, 0)" clip-path="url(#clip_0)"><clipPath id="clip_0"><rect width="257" height="177"></rect></clipPath><g><g><g><line x1="0" y1="0" x2="0" y2="177" fill="rgb(0, 0, 0)" stroke="rgb(66, 66, 66)" stroke-width="1px" opacity="0.25"></line><line x1="18.404017857142858" y1="0" x2="18.404017857142858" y2="177" fill="rgb(0, 0, 0)" stroke="rgb(66, 66, 66)" stroke-width="1px" opacity="0.25"></line><line x1="36.808035714285715" y1="0" x2="36.808035714285715" y2="177" fill="rgb(0, 0, 0)" stroke="rgb(66, 66, 66)" stroke-width="1px" opacity="0.25"></line><line x1="55.21205357142857" y1="0" x2="55.21205357142857" y2="177" fill="rgb(0, 0, 0)" stroke="rgb(66, 66, 66)" stroke-width="1px" opacity="0.25"></line><line x1="73.61607142857143" y1="0" x2="73.61607142857143" y2="177" fill="rgb(0, 0, 0)" stroke="rgb(66, 66, 66)" stroke-width="1px" opacity="0.25"></line><line x1="92.02008928571429" y1="0" x2="92.02008928571429" y2="177" fill="rgb(0, 0, 0)" stroke="rgb(66, 66, 66)" stroke-width="1px" opacity="0.25"></line><line x1="110.42410714285714" y1="0" x2="110.42410714285714" y2="177" fill="rgb(0, 0, 0)" stroke="rgb(66, 66, 66)" stroke-width="1px" opacity="0.25"></line><line x1="128.828125" y1="0" x2="128.828125" y2="177" fill="rgb(0, 0, 0)" stroke="rgb(66, 66, 66)" stroke-width="1px" opacity="0.25"></line><line x1="147.23214285714286" y1="0" x2="147.23214285714286" y2="177" fill="rgb(0, 0, 0)" stroke="rgb(66, 66, 66)" stroke-width="1px" opacity="0.25"></line><line x1="165.63616071428572" y1="0" x2="165.63616071428572" y2="177" fill="rgb(0, 0, 0)" stroke="rgb(66, 66, 66)" stroke-width="1px" opacity="0.25"></line><line x1="184.04017857142858" y1="0" x2="184.04017857142858" y2="177" fill="rgb(0, 0, 0)" stroke="rgb(66, 66, 66)" stroke-width="1px" opacity="0.25"></line><line x1="202.44419642857142" y1="0" x2="202.44419642857142" y2="177" fill="rgb(0, 0, 0)" stroke="rgb(66, 66, 66)" stroke-width="1px" opacity="0.25"></line><line x1="220.84821428571428" y1="0" x2="220.84821428571428" y2="177" fill="rgb(0, 0, 0)" stroke="rgb(66, 66, 66)" stroke-width="1px" opacity="0.25"></line><line x1="239.25223214285714" y1="0" x2="239.25223214285714" y2="177" fill="rgb(0, 0, 0)" stroke="rgb(66, 66, 66)" stroke-width="1px" opacity="0.25"></line><line x1="257.65625" y1="0" x2="257.65625" y2="177" fill="rgb(0, 0, 0)" stroke="rgb(66, 66, 66)" stroke-width="1px" opacity="0.25"></line></g><g><line x1="0" y1="177" x2="257.65625" y2="177" fill="rgb(0, 0, 0)" stroke="rgb(66, 66, 66)" stroke-width="1px" opacity="0.25"></line><line x1="0" y1="154.875" x2="257.65625" y2="154.875" fill="rgb(0, 0, 0)" stroke="rgb(66, 66, 66)" stroke-width="1px" opacity="0.25"></line><line x1="0" y1="132.75" x2="257.65625" y2="132.75" fill="rgb(0, 0, 0)" stroke="rgb(66, 66, 66)" stroke-width="1px" opacity="0.25"></line><line x1="0" y1="110.625" x2="257.65625" y2="110.625" fill="rgb(0, 0, 0)" stroke="rgb(66, 66, 66)" stroke-width="1px" opacity="0.25"></line><line x1="0" y1="88.5" x2="257.65625" y2="88.5" fill="rgb(0, 0, 0)" stroke="rgb(66, 66, 66)" stroke-width="1px" opacity="0.25"></line><line x1="0" y1="66.375" x2="257.65625" y2="66.375" fill="rgb(0, 0, 0)" stroke="rgb(66, 66, 66)" stroke-width="1px" opacity="0.25"></line><line x1="0" y1="44.25" x2="257.65625" y2="44.25" fill="rgb(0, 0, 0)" stroke="rgb(66, 66, 66)" stroke-width="1px" opacity="0.25"></line><line x1="0" y1="22.125" x2="257.65625" y2="22.125" fill="rgb(0, 0, 0)" stroke="rgb(66, 66, 66)" stroke-width="1px" opacity="0.25"></line><line x1="0" y1="0" x2="257.65625" y2="0" fill="rgb(0, 0, 0)" stroke="rgb(66, 66, 66)" stroke-width="1px" opacity="0.25"></line></g></g></g><g><g><line x1="0" y1="177" x2="257.65625" y2="177" fill="rgb(0, 0, 0)" stroke="rgb(153, 153, 153)" stroke-width="1.5px"></line></g></g><g><g><line x1="18.404017857142858" y1="0" x2="18.404017857142858" y2="177" fill="rgb(0, 0, 0)" stroke="rgb(153, 153, 153)" stroke-width="1.5px"></line></g></g><g><g><g><g><g><path stroke="rgb(255, 112, 67)" stroke-width="2px" d="M21.164620535714285,-33.16922958984374L23.005022321428573,21.31525757794244L24.845424107142858,-11.56328741283263L26.685825892857146,38.92016850516911L28.526227678571427,38.41937598535913L30.366629464285715,33.63417993895134L32.20703125,26.993600228097367L34.047433035714285,10.215666083163521L35.88783482142857,17.425210783343065L37.72823660714286,-9.461002401210905L39.568638392857146,10.389665558943273L41.40904017857143,20.63965962396856L43.24944196428571,4.911120131295636L45.08984375,30.015768982209543L46.930245535714285,18.16067618897662L48.77064732142857,8.88578098784566L50.611049107142854,43.48684584559169L52.451450892857146,45.296084826101L54.29185267857143,6.5798765234344785L56.132254464285715,-14.559503670335262L58.89285714285714,4.524475055092991L60.73325892857143,32.892613985228934L62.573660714285715,57.599271996382605L64.4140625,47.948970507378085L66.25446428571428,33.21500224318125L68.09486607142857,42.73962280311341L69.93526785714285,61.898412551759314L71.77566964285714,59.25666467998501L73.61607142857143,71.33752364392946L75.45647321428572,81.8081553250104L77.296875,73.3789482303486L79.13727678571429,69.7374949322595L80.97767857142857,79.56865554086994L82.81808035714286,80.54085662841918L84.65848214285714,81.62215068104288L86.49888392857142,83.58981726825019L88.33928571428571,76.7441884993185L90.1796875,88.44099690338042L92.02008928571429,94.57270295695027L93.86049107142857,83.55146185704531L95.70089285714286,99.32276371045361L98.46149553571428,88.13761308724602L100.30189732142857,74.5182578538155L102.14229910714285,72.749283607318L103.98270089285714,57.47655932108793L105.82310267857143,62.7190471363192L107.66350446428572,75.99873045888091L109.50390625,90.4967734995189L111.34430803571429,106.07809217894992L113.18470982142857,78.62415637242087L115.02511160714286,86.75120666372442L116.86551339285714,103.89950675233322L118.70591517857142,108.06115740963577L120.54631696428571,103.36178559463835L122.38671875,103.83940966219808L124.22712053571429,118.37169635589245L126.06752232142857,97.42009655092255L127.90792410714286,104.1610150918985L129.74832589285714,101.01885551218997L131.58872767857142,97.07287276846837L133.42912946428572,115.848524145957L135.26953125,119.00036708718591L138.03013392857142,121.88311130356784L139.8705357142857,118.22448822256965L141.7109375,115.2347906538294L143.55133928571428,115.86742265208537L145.39174107142858,126.0659212070141L147.23214285714286,121.65694562760682L149.07254464285717,119.23881802230468L150.91294642857144,113.95429282451482L152.75334821428572,127.08759387758147L154.59375,134.4437932142107L156.43415178571428,130.41421282599396L158.27455357142858,130.25464614998515L160.11495535714286,136.5760347658948L161.95535714285714,127.87189037125698L163.79575892857142,131.31931982060658L165.63616071428572,128.69505820631073L167.4765625,137.44499544333362L169.31696428571428,139.48556900798735L171.15736607142856,142.1597471134798L172.99776785714283,136.4819485307549L174.83816964285714,122.21860700319657L177.59877232142858,121.8429747341263L179.43917410714286,132.83687585641934L181.27957589285717,126.61141595221576L183.11997767857144,128.92935022298994L184.96037946428572,126.07799060793138L186.80078125,137.63058220195376L188.64118303571428,133.5126494949994L190.48158482142858,134.39548754933304L192.32198660714286,136.27212107330354L194.16238839285714,138.6733119873247L196.00279017857142,143.89396878846426L197.84319196428572,140.60372572029237L199.68359375,142.91148784324758L201.52399553571428,148.4364932576526L203.36439732142856,143.9858274033017L205.20479910714283,143.89424043379486L207.04520089285714,140.41968725468223L208.88560267857142,132.51401797328685L210.72600446428572,136.77877608898746L212.56640625,142.11005025716506L214.4068080357143,142.27844458154922L217.16741071428572,150.30823608414195L219.0078125,150.98920141141124L220.84821428571428,149.22859899922852L222.68861607142858,148.36918025164996L224.52901785714286,148.70896536462615L226.36941964285714,142.27993129144843L228.20982142857142,149.24796717571107L230.05022321428572,153.99244300483056L231.890625,148.1647762559596L233.73102678571428,150.4075084281905L235.57142857142856,150.10159459099862L237.41183035714283,151.55674975935347L239.25223214285714,150.72337243180144L241.09263392857142,152.78087260041468L242.93303571428572,156.32335241229507L244.7734375,161.47223797808473L246.6138392857143,160.31301899853082L248.45424107142858,162.99280165484723" style="fill: none;" fill="none"></path></g></g></g></g><g opacity="0.2"><g><g><g><path stroke="rgb(255, 112, 67)" stroke-width="2px" d="M21.164620535714285,-33.16922958984374L23.005022321428573,54.27837231445312L24.845424107142858,-43.48917656250001L26.685825892857146,99.12018149414062L28.526227678571427,37.75510253906249L30.366629464285715,26.899021874999995L32.20703125,17.321351367187493L34.047433035714285,-14.71977978515625L35.88783482142857,28.269475488281245L37.72823660714286,-50.19396767578125L39.568638392857146,40.594103027343756L41.40904017857143,36.27661669921874L43.24944196428571,-19.121496679687514L45.08984375,68.41125190429688L46.930245535714285,0.018858105468752107L48.77064732142857,-5.312506347656255L50.611049107142854,96.46633959960938L52.451450892857146,48.066657568359375L54.29185267857143,-52.71263964843751L56.132254464285715,-46.93523173828127L58.89285714285714,33.7531048828125L60.73325892857143,76.341413671875L62.573660714285715,95.44051743164063L64.4140625,33.168270263671864L66.25446428571428,10.647915527343748L68.09486607142857,57.327914648437506L69.93526785714285,91.24282587890626L71.77566964285714,55.21044843749999L73.61607142857143,89.84110341796874L75.45647321428572,97.84544443359374L77.296875,60.46839418945312L79.13727678571429,64.160080078125L80.97767857142857,94.62650756835937L82.81808035714286,82.02992402343749L84.65848214285714,83.27830986328124L86.49888392857142,86.60358500976562L88.33928571428571,66.25911166992188L90.1796875,106.35636152343749L92.02008928571429,103.9643033203125L93.86049107142857,66.67082680664063L95.70089285714286,123.47880827636718L98.46149553571428,71.00592670898438L100.30189732142857,53.65823276367187L102.14229910714285,70.03984204101563L103.98270089285714,34.08415883789063L105.82310267857143,70.74868037109374L107.66350446428572,96.33849858398438L109.50390625,112.70263688964843L111.34430803571429,129.94314990234375L113.18470982142857,36.5744572265625L115.02511160714286,99.19896723632812L116.86551339285714,130.16462460937498L118.70591517857142,114.43533120117188L120.54631696428571,96.16401357421876L122.38671875,104.57096044921875L124.22712053571429,140.63000888671874L126.06752232142857,65.32967153320313L127.90792410714286,114.48571311035155L129.74832589285714,96.20618071289063L131.58872767857142,91.02902578125001L133.42912946428572,144.60616739501953L135.26953125,123.8278733642578L138.03013392857142,126.2984537109375L139.8705357142857,112.62077438964843L141.7109375,110.65563361816406L143.55133928571428,116.83639064941407L145.39174107142858,141.68640633544922L147.23214285714286,114.90395771484377L149.07254464285717,115.53510358886719L150.91294642857144,105.86027321777344L152.75334821428572,147.20315625L154.59375,145.71088333740235L156.43415178571428,124.24232387695312L158.27455357142858,130.0102465576172L160.11495535714286,146.2581616333008L161.95535714285714,114.540226171875L163.79575892857142,136.59955986328126L165.63616071428572,124.67561953124999L167.4765625,150.846798046875L169.31696428571428,142.61100446777345L171.15736607142856,146.25564016113282L172.99776785714283,127.78557348632813L174.83816964285714,100.37222314453126L177.59877232142858,121.26763923339843L179.43917410714286,149.67563580322266L181.27957589285717,117.07621787109376L183.11997767857144,132.47960397949217L184.96037946428572,121.71071828613282L186.80078125,155.3250579345703L188.64118303571428,127.20543610839843L190.48158482142858,135.7476825439453L192.32198660714286,139.14645849609374L194.16238839285714,142.35108541259766L196.00279017857142,151.8901646484375L197.84319196428572,135.56423950195312L199.68359375,146.44616147460937L201.52399553571428,156.8988433227539L203.36439732142856,137.168984765625L205.20479910714283,143.75396165771483L207.04520089285714,135.09790327148437L208.88560267857142,120.40533464355468L210.72600446428572,143.31087396240233L212.56640625,150.27567271728515L214.4068080357143,142.53636500244139L217.16741071428572,162.6070306640625L219.0078125,152.03219893798828L220.84821428571428,146.5319801147461L222.68861607142858,147.05285533447267L224.52901785714286,149.22939572753907L226.36941964285714,132.43292973632813L228.20982142857142,159.92052846679687L230.05022321428572,161.25929838867188L231.890625,139.23885629882813L233.73102678571428,153.8425792236328L235.57142857142856,149.6330430175781L237.41183035714283,153.7855317260742L239.25223214285714,149.44693374023439L241.09263392857142,155.93223361816408L242.93303571428572,161.74917592163087L244.7734375,169.35850574340822L246.6138392857143,158.53750638427735L248.45424107142858,167.09727888793947" style="fill: none;" fill="none"></path></g></g></g></g></g></g><g transform="translate(72, 177)" clip-path="url(#clip_1)"><clipPath id="clip_1"><rect width="257" height="23"></rect></clipPath><g><g><line x1="0" y1="0" x2="0" y2="5" style="visibility: inherit;" fill="rgb(0, 0, 0)" stroke="rgb(204, 204, 204)" stroke-width="1px"></line><line x1="18.404017857142858" y1="0" x2="18.404017857142858" y2="5" style="visibility: inherit;" fill="rgb(0, 0, 0)" stroke="rgb(204, 204, 204)" stroke-width="1px"></line><line x1="36.808035714285715" y1="0" x2="36.808035714285715" y2="5" style="visibility: inherit;" fill="rgb(0, 0, 0)" stroke="rgb(204, 204, 204)" stroke-width="1px"></line><line x1="55.21205357142857" y1="0" x2="55.21205357142857" y2="5" style="visibility: inherit;" fill="rgb(0, 0, 0)" stroke="rgb(204, 204, 204)" stroke-width="1px"></line><line x1="73.61607142857143" y1="0" x2="73.61607142857143" y2="5" style="visibility: inherit;" fill="rgb(0, 0, 0)" stroke="rgb(204, 204, 204)" stroke-width="1px"></line><line x1="92.02008928571429" y1="0" x2="92.02008928571429" y2="5" style="visibility: inherit;" fill="rgb(0, 0, 0)" stroke="rgb(204, 204, 204)" stroke-width="1px"></line><line x1="110.42410714285714" y1="0" x2="110.42410714285714" y2="5" style="visibility: inherit;" fill="rgb(0, 0, 0)" stroke="rgb(204, 204, 204)" stroke-width="1px"></line><line x1="128.828125" y1="0" x2="128.828125" y2="5" style="visibility: inherit;" fill="rgb(0, 0, 0)" stroke="rgb(204, 204, 204)" stroke-width="1px"></line><line x1="147.23214285714286" y1="0" x2="147.23214285714286" y2="5" style="visibility: inherit;" fill="rgb(0, 0, 0)" stroke="rgb(204, 204, 204)" stroke-width="1px"></line><line x1="165.63616071428572" y1="0" x2="165.63616071428572" y2="5" style="visibility: inherit;" fill="rgb(0, 0, 0)" stroke="rgb(204, 204, 204)" stroke-width="1px"></line><line x1="184.04017857142858" y1="0" x2="184.04017857142858" y2="5" style="visibility: inherit;" fill="rgb(0, 0, 0)" stroke="rgb(204, 204, 204)" stroke-width="1px"></line><line x1="202.44419642857142" y1="0" x2="202.44419642857142" y2="5" style="visibility: inherit;" fill="rgb(0, 0, 0)" stroke="rgb(204, 204, 204)" stroke-width="1px"></line><line x1="220.84821428571428" y1="0" x2="220.84821428571428" y2="5" style="visibility: inherit;" fill="rgb(0, 0, 0)" stroke="rgb(204, 204, 204)" stroke-width="1px"></line><line x1="239.25223214285714" y1="0" x2="239.25223214285714" y2="5" style="visibility: inherit;" fill="rgb(0, 0, 0)" stroke="rgb(204, 204, 204)" stroke-width="1px"></line><line x1="257.65625" y1="0" x2="257.65625" y2="5" style="visibility: inherit;" fill="rgb(0, 0, 0)" stroke="rgb(204, 204, 204)" stroke-width="1px"></line></g><g transform="translate(0, 8)"><text x="0" y="0" dx="0em" dy="0.95em" style="text-anchor: middle; visibility: hidden; font-family: Roboto, sans-serif; font-size: 12px; font-weight: 200;" fill="rgb(33, 33, 33)" stroke="none" stroke-width="1px">-20k</text><text x="18.404017857142858" y="0" dx="0em" dy="0.95em" style="text-anchor: middle; visibility: inherit; font-family: Roboto, sans-serif; font-size: 12px; font-weight: 200;" fill="rgb(33, 33, 33)" stroke="none" stroke-width="1px">0</text><text x="36.808035714285715" y="0" dx="0em" dy="0.95em" style="text-anchor: middle; visibility: hidden; font-family: Roboto, sans-serif; font-size: 12px; font-weight: 200;" fill="rgb(33, 33, 33)" stroke="none" stroke-width="1px">20k</text><text x="55.21205357142857" y="0" dx="0em" dy="0.95em" style="text-anchor: middle; visibility: inherit; font-family: Roboto, sans-serif; font-size: 12px; font-weight: 200;" fill="rgb(33, 33, 33)" stroke="none" stroke-width="1px">40k</text><text x="73.61607142857143" y="0" dx="0em" dy="0.95em" style="text-anchor: middle; visibility: hidden; font-family: Roboto, sans-serif; font-size: 12px; font-weight: 200;" fill="rgb(33, 33, 33)" stroke="none" stroke-width="1px">60k</text><text x="92.02008928571429" y="0" dx="0em" dy="0.95em" style="text-anchor: middle; visibility: inherit; font-family: Roboto, sans-serif; font-size: 12px; font-weight: 200;" fill="rgb(33, 33, 33)" stroke="none" stroke-width="1px">80k</text><text x="110.42410714285714" y="0" dx="0em" dy="0.95em" style="text-anchor: middle; visibility: hidden; font-family: Roboto, sans-serif; font-size: 12px; font-weight: 200;" fill="rgb(33, 33, 33)" stroke="none" stroke-width="1px">100k</text><text x="128.828125" y="0" dx="0em" dy="0.95em" style="text-anchor: middle; visibility: inherit; font-family: Roboto, sans-serif; font-size: 12px; font-weight: 200;" fill="rgb(33, 33, 33)" stroke="none" stroke-width="1px">120k</text><text x="147.23214285714286" y="0" dx="0em" dy="0.95em" style="text-anchor: middle; visibility: hidden; font-family: Roboto, sans-serif; font-size: 12px; font-weight: 200;" fill="rgb(33, 33, 33)" stroke="none" stroke-width="1px">140k</text><text x="165.63616071428572" y="0" dx="0em" dy="0.95em" style="text-anchor: middle; visibility: inherit; font-family: Roboto, sans-serif; font-size: 12px; font-weight: 200;" fill="rgb(33, 33, 33)" stroke="none" stroke-width="1px">160k</text><text x="184.04017857142858" y="0" dx="0em" dy="0.95em" style="text-anchor: middle; visibility: hidden; font-family: Roboto, sans-serif; font-size: 12px; font-weight: 200;" fill="rgb(33, 33, 33)" stroke="none" stroke-width="1px">180k</text><text x="202.44419642857142" y="0" dx="0em" dy="0.95em" style="text-anchor: middle; visibility: inherit; font-family: Roboto, sans-serif; font-size: 12px; font-weight: 200;" fill="rgb(33, 33, 33)" stroke="none" stroke-width="1px">200k</text><text x="220.84821428571428" y="0" dx="0em" dy="0.95em" style="text-anchor: middle; visibility: hidden; font-family: Roboto, sans-serif; font-size: 12px; font-weight: 200;" fill="rgb(33, 33, 33)" stroke="none" stroke-width="1px">220k</text><text x="239.25223214285714" y="0" dx="0em" dy="0.95em" style="text-anchor: middle; visibility: inherit; font-family: Roboto, sans-serif; font-size: 12px; font-weight: 200;" fill="rgb(33, 33, 33)" stroke="none" stroke-width="1px">240k</text><text x="257.65625" y="0" dx="0em" dy="0.95em" style="text-anchor: middle; visibility: hidden; font-family: Roboto, sans-serif; font-size: 12px; font-weight: 200;" fill="rgb(33, 33, 33)" stroke="none" stroke-width="1px">260k</text></g><line x1="0" y1="0" x2="257.65625" y2="0" fill="rgb(0, 0, 0)" stroke="rgb(204, 204, 204)" stroke-width="1px"></line></g></g></g></g></svg>