<svg viewBox="0 0 330 200" xmlns="http://www.w3.org/2000/svg"><g><g><g><g><g><line x1="61.953125" y1="177" x2="56.953125" y2="177" style="visibility: inherit;" fill="rgb(0, 0, 0)" stroke="rgb(204, 204, 204)" stroke-width="1px"></line><line x1="61.953125" y1="154.87499999999952" x2="56.953125" y2="154.87499999999952" style="visibility: inherit;" fill="rgb(0, 0, 0)" stroke="rgb(204, 204, 204)" stroke-width="1px"></line><line x1="61.953125" y1="132.75" x2="56.953125" y2="132.75" style="visibility: inherit;" fill="rgb(0, 0, 0)" stroke="rgb(204, 204, 204)" stroke-width="1px"></line><line x1="61.953125" y1="110.6249999999995" x2="56.953125" y2="110.6249999999995" style="visibility: inherit;" fill="rgb(0, 0, 0)" stroke="rgb(204, 204, 204)" stroke-width="1px"></line><line x1="61.953125" y1="88.5" x2="56.953125" y2="88.5" style="visibility: inherit;" fill="rgb(0, 0, 0)" stroke="rgb(204, 204, 204)" stroke-width="1px"></line><line x1="61.953125" y1="66.3749999999995" x2="56.953125" y2="66.3749999999995" style="visibility: inherit;" fill="rgb(0, 0, 0)" stroke="rgb(204, 204, 204)" stroke-width="1px"></line><line x1="61.953125" y1="44.25" x2="56.953125" y2="44.25" style="visibility: inherit;" fill="rgb(0, 0, 0)" stroke="rgb(204, 204, 204)" stroke-width="1px"></line><line x1="61.953125" y1="22.12499999999951" x2="56.953125" y2="22.12499999999951" style="visibility: inherit;" fill="rgb(0, 0, 0)" stroke="rgb(204, 204, 204)" stroke-width="1px"></line><line x1="61.953125" y1="0" x2="56.953125" y2="0" style="visibility: inherit;" fill="rgb(0, 0, 0)" stroke="rgb(204, 204, 204)" stroke-width="1px"></line></g><g transform="translate(51.953125, 0)"><text x="0" y="177" dx="0em" dy="0.3em" style="text-anchor: end; visibility: hidden; font-family: Roboto, sans-serif; font-size: 12px; font-weight: 200;" fill="rgb(33, 33, 33)" stroke="none" stroke-width="1px">-2.74</text><text x="0" y="154.87499999999952" dx="0em" dy="0.3em" style="text-anchor: end; visibility: inherit; font-family: Roboto, sans-serif; font-size: 12px; font-weight: 200;" fill="rgb(33, 33, 33)" stroke="none" stroke-width="1px">-2.73</text><text x="0" y="132.75" dx="0em" dy="0.3em" style="text-anchor: end; visibility: hidden; font-family: Roboto, sans-serif; font-size: 12px; font-weight: 200;" fill="rgb(33, 33, 33)" stroke="none" stroke-width="1px">-2.72</text><text x="0" y="110.6249999999995" dx="0em" dy="0.3em" style="text-anchor: end; visibility: inherit; font-family: Roboto, sans-serif; font-size: 12px; font-weight: 200;" fill="rgb(33, 33, 33)" stroke="none" stroke-width="1px">-2.71</text><text x="0" y="88.5" dx="0em" dy="0.3em" style="text-anchor: end; visibility: hidden; font-family: Roboto, sans-serif; font-size: 12px; font-weight: 200;" fill="rgb(33, 33, 33)" stroke="none" stroke-width="1px">-2.7</text><text x="0" y="66.3749999999995" dx="0em" dy="0.3em" style="text-anchor: end; visibility: inherit; font-family: Roboto, sans-serif; font-size: 12px; font-weight: 200;" fill="rgb(33, 33, 33)" stroke="none" stroke-width="1px">-2.69</text><text x="0" y="44.25" dx="0em" dy="0.3em" style="text-anchor: end; visibility: hidden; font-family: Roboto, sans-serif; font-size: 12px; font-weight: 200;" fill="rgb(33, 33, 33)" stroke="none" stroke-width="1px">-2.68</text><text x="0" y="22.12499999999951" dx="0em" dy="0.3em" style="text-anchor: end; visibility: inherit; font-family: Roboto, sans-serif; font-size: 12px; font-weight: 200;" fill="rgb(33, 33, 33)" stroke="none" stroke-width="1px">-2.67</text><text x="0" y="0" dx="0em" dy="0.3em" style="text-anchor: end; visibility: hidden; font-family: Roboto, sans-serif; font-size: 12px; font-weight: 200;" fill="rgb(33, 33, 33)" stroke="none" stroke-width="1px">-2.66</text></g><line x1="61.953125" y1="0" x2="61.953125" y2="177" fill="rgb(0, 0, 0)" stroke="rgb(204, 204, 204)" stroke-width="1px"></line></g></g><g transform="translate(61, 0)" clip-path="url(#clip_0)"><clipPath id="clip_0"><rect width="268" height="177"></rect></clipPath><g><g><g><line x1="0" y1="0" x2="0" y2="177" fill="rgb(0, 0, 0)" stroke="rgb(66, 66, 66)" stroke-width="1px" opacity="0.25"></line><line x1="19.146205357142858" y1="0" x2="19.146205357142858" y2="177" fill="rgb(0, 0, 0)" stroke="rgb(66, 66, 66)" stroke-width="1px" opacity="0.25"></line><line x1="38.292410714285715" y1="0" x2="38.292410714285715" y2="177" fill="rgb(0, 0, 0)" stroke="rgb(66, 66, 66)" stroke-width="1px" opacity="0.25"></line><line x1="57.43861607142857" y1="0" x2="57.43861607142857" y2="177" fill="rgb(0, 0, 0)" stroke="rgb(66, 66, 66)" stroke-width="1px" opacity="0.25"></line><line x1="76.58482142857143" y1="0" x2="76.58482142857143" y2="177" fill="rgb(0, 0, 0)" stroke="rgb(66, 66, 66)" stroke-width="1px" opacity="0.25"></line><line x1="95.73102678571429" y1="0" x2="95.73102678571429" y2="177" fill="rgb(0, 0, 0)" stroke="rgb(66, 66, 66)" stroke-width="1px" opacity="0.25"></line><line x1="114.87723214285714" y1="0" x2="114.87723214285714" y2="177" fill="rgb(0, 0, 0)" stroke="rgb(66, 66, 66)" stroke-width="1px" opacity="0.25"></line><line x1="134.0234375" y1="0" x2="134.0234375" y2="177" fill="rgb(0, 0, 0)" stroke="rgb(66, 66, 66)" stroke-width="1px" opacity="0.25"></line><line x1="153.16964285714286" y1="0" x2="153.16964285714286" y2="177" fill="rgb(0, 0, 0)" stroke="rgb(66, 66, 66)" stroke-width="1px" opacity="0.25"></line><line x1="172.31584821428572" y1="0" x2="172.31584821428572" y2="177" fill="rgb(0, 0, 0)" stroke="rgb(66, 66, 66)" stroke-width="1px" opacity="0.25"></line><line x1="191.46205357142858" y1="0" x2="191.46205357142858" y2="177" fill="rgb(0, 0, 0)" stroke="rgb(66, 66, 66)" stroke-width="1px" opacity="0.25"></line><line x1="210.60825892857142" y1="0" x2="210.60825892857142" y2="177" fill="rgb(0, 0, 0)" stroke="rgb(66, 66, 66)" stroke-width="1px" opacity="0.25"></line><line x1="229.75446428571428" y1="0" x2="229.75446428571428" y2="177" fill="rgb(0, 0, 0)" stroke="rgb(66, 66, 66)" stroke-width="1px" opacity="0.25"></line><line x1="248.90066964285714" y1="0" x2="248.90066964285714" y2="177" fill="rgb(0, 0, 0)" stroke="rgb(66, 66, 66)" stroke-width="1px" opacity="0.25"></line><line x1="268.046875" y1="0" x2="268.046875" y2="177" fill="rgb(0, 0, 0)" stroke="rgb(66, 66, 66)" stroke-width="1px" opacity="0.25"></line></g><g><line x1="0" y1="177" x2="268.046875" y2="177" fill="rgb(0, 0, 0)" stroke="rgb(66, 66, 66)" stroke-width="1px" opacity="0.25"></line><line x1="0" y1="154.87499999999952" x2="268.046875" y2="154.87499999999952" fill="rgb(0, 0, 0)" stroke="rgb(66, 66, 66)" stroke-width="1px" opacity="0.25"></line><line x1="0" y1="132.75" x2="268.046875" y2="132.75" fill="rgb(0, 0, 0)" stroke="rgb(66, 66, 66)" stroke-width="1px" opacity="0.25"></line><line x1="0" y1="110.6249999999995" x2="268.046875" y2="110.6249999999995" fill="rgb(0, 0, 0)" stroke="rgb(66, 66, 66)" stroke-width="1px" opacity="0.25"></line><line x1="0" y1="88.5" x2="268.046875" y2="88.5" fill="rgb(0, 0, 0)" stroke="rgb(66, 66, 66)" stroke-width="1px" opacity="0.25"></line><line x1="0" y1="66.3749999999995" x2="268.046875" y2="66.3749999999995" fill="rgb(0, 0, 0)" stroke="rgb(66, 66, 66)" stroke-width="1px" opacity="0.25"></line><line x1="0" y1="44.25" x2="268.046875" y2="44.25" fill="rgb(0, 0, 0)" stroke="rgb(66, 66, 66)" stroke-width="1px" opacity="0.25"></line><line x1="0" y1="22.12499999999951" x2="268.046875" y2="22.12499999999951" fill="rgb(0, 0, 0)" stroke="rgb(66, 66, 66)" stroke-width="1px" opacity="0.25"></line><line x1="0" y1="0" x2="268.046875" y2="0" fill="rgb(0, 0, 0)" stroke="rgb(66, 66, 66)" stroke-width="1px" opacity="0.25"></line></g></g></g><g><g><line x1="0" y1="-5885.2499999999945" x2="268.046875" y2="-5885.2499999999945" fill="rgb(0, 0, 0)" stroke="rgb(153, 153, 153)" stroke-width="1.5px"></line></g></g><g><g><line x1="19.146205357142858" y1="0" x2="19.146205357142858" y2="177" fill="rgb(0, 0, 0)" stroke="rgb(153, 153, 153)" stroke-width="1.5px"></line></g></g><g><g><g><g><g><path stroke="rgb(255, 112, 67)" stroke-width="2px" d="M22.018136160714285,169.59759807586622L23.932756696428573,182.73056798560575L25.847377232142858,125.81186698188021L27.761997767857146,80.09366776839771L29.676618303571427,49.41564305879142L31.591238839285715,126.19565315971641L33.505859375,97.75705841899287L35.420479910714285,17.746507779689345L37.33510044642857,31.35595025356461L39.24972098214286,79.18189298860774L41.164341517857146,55.853956893102676L43.07896205357143,43.03241231420824L44.99358258928571,78.25229429048153L46.908203125,93.66869565693324L48.822823660714285,134.4344730757487L50.73744419642857,171.48871807220164L52.652064732142854,139.3343303036746L54.566685267857146,131.73381334424548L56.48130580357143,95.02629961720389L58.395926339285715,96.3592744396983L61.26785714285714,108.81327170234461L63.18247767857143,110.8897888653994L65.09709821428571,3.44499483209042L67.01171875,10.978937503961756L68.92633928571428,111.02667948110917L70.84095982142857,79.3226671132307L72.75558035714285,81.35607340442127L74.67020089285714,74.49616853827294L76.58482142857143,65.64130050451989L78.49944196428572,99.63033433617707L80.4140625,-14.751960499537054L82.32868303571429,31.60486040540901L84.24330357142857,19.63233745144345L86.15792410714286,67.31947633921075L88.07254464285714,69.35721741994864L89.98716517857142,113.24048599511805L91.90178571428571,138.81722489825017L93.81640625,145.8364088616175L95.73102678571429,104.78303723282542L97.64564732142857,177.0570449678692L99.56026785714286,166.47968759282213L102.43219866071428,150.15876841184163L104.34681919642857,137.3842002305353L106.26143973214285,61.56987136702332L108.17606026785714,47.479217213359085L110.09068080357143,38.527227430906336L112.00530133928572,-26.199861488574875L113.919921875,76.11472503138918L115.83454241071429,64.94175114981536L117.74916294642857,38.34470017385904L119.66378348214286,26.93519116450417L121.57840401785714,1.5175159972807828L123.49302455357142,123.35910993193399L125.40764508928571,91.23177825636003L127.322265625,79.10703150283025L129.23688616071428,109.33877216449916L131.15150669642856,37.97623764727139L133.06612723214286,72.25999263255976L134.98074776785714,75.8492274269873L136.89536830357142,99.54627277048353L138.80998883928572,67.59974273923018L140.724609375,5.794390287140544L143.59654017857142,26.008253238711717L145.5111607142857,111.19071363228522L147.42578125,106.32037986521706L149.34040178571428,129.07747984120084L151.25502232142858,168.22871503466544L153.16964285714286,182.92747704035742L155.08426339285717,140.61982864009545L156.99888392857144,136.2675529600148L158.91350446428572,92.26125631928203L160.828125,62.63868746271556L162.74274553571428,56.87501067690199L164.65736607142858,67.20849146800427L166.57198660714286,87.53578882799548L168.48660714285714,147.72560806829244L170.40122767857142,63.117629115122696L172.31584821428572,54.71275533430223L174.23046875,95.59017023803189L176.14508928571428,147.2012836649373L178.05970982142856,221.63652152073186L179.97433035714283,153.95465949001263L181.88895089285714,165.15454192367693L184.76088169642858,90.68288569312894L186.67550223214286,131.10530312299943L188.59012276785717,130.75379948080882L190.50474330357144,138.3637095200821L192.41936383928572,98.02652830682328L194.333984375,125.95934454476138L196.24860491071428,13.619503081486275L198.16322544642858,7.01428357967816L200.07784598214286,-8.874813935494185L201.99246651785714,123.3653528335609L203.90708705357142,129.75873681425654L205.82170758928572,207.38054619723866L207.736328125,162.00028791774358L209.65094866071428,86.26212172551149L211.56556919642856,43.82684563090554L213.48018973214283,111.84098112271795L215.39481026785714,48.23194108774582L217.30943080357142,69.1487863019512L219.22405133928572,63.64985677272339L221.138671875,62.35225105072539L223.0532924107143,81.30479551961204L225.92522321428572,76.95904672517499L227.83984375,118.10379631863387L229.75446428571428,128.20718528216656L231.66908482142858,163.4924220478364L233.58370535714286,139.41978711194574L235.49832589285714,147.86223666166836L237.41294642857142,123.9480869628872L239.32756696428572,107.08343589405442L241.2421875,94.6537556529105L243.15680803571428,53.09833844119636L245.07142857142856,80.01762428270462L246.98604910714283,78.18080068472918L248.90066964285714,163.2475996884752L250.81529017857142,113.9524472981883L252.72991071428572,93.60480974974892L254.64453125,59.83206470997963L256.5591517857143,83.23578209316743L258.47377232142856,64.22656862492096" style="fill: none;" fill="none"></path></g></g></g></g><g opacity="0.2"><g><g><g><path stroke="rgb(255, 112, 67)" stroke-width="2px" d="M22.018136160714285,169.59759807586622L23.932756696428573,190.67601478099775L25.847377232142858,70.54238533973657L27.761997767857146,25.57608103752103L29.676618303571427,8.722948193549795L31.591238839285715,234.26343119144389L33.505859375,56.33519804477654L35.420479910714285,-101.16555476188684L37.33510044642857,51.82664608955348L39.24972098214286,151.6388229131694L41.164341517857146,20.35856759548154L43.07896205357143,23.472406625747347L44.99358258928571,132.06694936752277L46.908203125,117.24680578708606L48.822823660714285,196.81823766231489L50.73744419642857,228.2124660015101L52.652064732142854,90.10107135772665L54.566685267857146,120.09478425979572L56.48130580357143,38.81002879142726L58.395926339285715,98.40077376365622L61.26785714285714,127.8875581026073L63.18247767857143,114.07019412517506L65.09709821428571,-161.11974799633043L67.01171875,22.518157124519014L68.92633928571428,264.26347410678807L70.84095982142857,30.763526916503572L72.75558035714285,84.47052454948386L74.67020089285714,63.989239096641164L76.58482142857143,52.07879161834681L78.49944196428572,151.68946301937058L80.4140625,-189.94504594802873L82.32868303571429,102.60706758499106L84.24330357142857,1.294677615165396L86.15792410714286,140.35926675796466L88.07254464285714,72.47831439971887L89.98716517857142,180.4540983438487L91.90178571428571,177.99172317981672L93.81640625,156.58731079101517L95.73102678571429,41.9038227796551L97.64564732142857,287.7552083730692L99.56026785714286,150.27892506122544L102.43219866071428,125.16090488433795L104.34681919642857,117.81808948516803L106.26143973214285,-54.5508095026019L108.17606026785714,25.897329211234712L110.09068080357143,24.815951943397188L112.00530133928572,-125.3388204574587L113.919921875,232.82440817356058L115.83454241071429,47.82871520519221L117.74916294642857,-2.392555117607431L119.66378348214286,9.459867238998099L121.57840401785714,-37.41335356235532L123.49302455357142,309.9772474765772L125.40764508928571,42.024093031882884L127.322265625,60.53621685504876L129.23688616071428,155.64308381080582L131.15150669642856,-71.32587218284631L133.06612723214286,124.77055406570392L134.98074776785714,81.34666299819906L136.89536830357142,135.84174728393512L138.80998883928572,18.66898155212369L140.724609375,-88.86950397491479L143.59654017857142,56.96872687339745L145.5111607142857,241.66005170345252L147.42578125,98.86075472831686L149.34040178571428,163.93329119682267L151.25502232142858,228.1945309638972L153.16964285714286,205.4407707452769L155.08426339285717,75.81950640678369L156.99888392857144,129.6014091968532L158.91350446428572,24.85920703411069L160.828125,17.267411112785005L162.74274553571428,48.047100663184764L164.65736607142858,83.03572154045065L166.57198660714286,118.6700037717815L168.48660714285714,239.91507804393714L170.40122767857142,-66.47180700302148L172.31584821428572,41.83946764469111L174.23046875,158.19988167285874L176.14508928571428,226.25121688842722L178.05970982142856,335.64492380618987L179.97433035714283,50.29003536701167L181.88895089285714,182.30879223346662L186.67550223214286,193.01811969280195L188.59012276785717,130.21542048454242L190.50474330357144,150.01939451694443L192.41936383928572,36.24426341056788L194.333984375,168.74251878261518L196.24860491071428,-158.44531738758104L201.99246651785714,325.9104183912271L203.90708705357142,139.55113506317096L205.82170758928572,326.26964664459166L207.736328125,92.49381637573202L209.65094866071428,-29.741904973984038L215.39481026785714,-49.19456326961545L217.30943080357142,101.18597960472067L219.22405133928572,55.22744572162593L221.138671875,60.36477899551354L223.0532924107143,110.33337628841359L225.92522321428572,70.30289983749353L227.83984375,181.12296974658918L229.75446428571428,143.6819962263103L231.66908482142858,217.53689861297556L233.58370535714286,102.54904246330221L235.49832589285714,160.79307711124375L237.41294642857142,87.3200855255123L239.32756696428572,81.25276780128439L241.2421875,75.61589097976648L243.15680803571428,-10.5498322248462L245.07142857142856,121.24842917919116L246.98604910714283,75.36743795871698L248.90066964285714,293.53978550434056L250.81529017857142,38.44974553585017L252.72991071428572,62.4394408464428L254.64453125,8.104189395904227L256.5591517857143,119.08198213577228L258.47377232142856,35.11119103431666" style="fill: none;" fill="none"></path></g></g></g></g></g></g><g transform="translate(61, 177)" clip-path="url(#clip_1)"><clipPath id="clip_1"><rect width="268" height="23"></rect></clipPath><g><g><line x1="0" y1="0" x2="0" y2="5" style="visibility: inherit;" fill="rgb(0, 0, 0)" stroke="rgb(204, 204, 204)" stroke-width="1px"></line><line x1="19.146205357142858" y1="0" x2="19.146205357142858" y2="5" style="visibility: inherit;" fill="rgb(0, 0, 0)" stroke="rgb(204, 204, 204)" stroke-width="1px"></line><line x1="38.292410714285715" y1="0" x2="38.292410714285715" y2="5" style="visibility: inherit;" fill="rgb(0, 0, 0)" stroke="rgb(204, 204, 204)" stroke-width="1px"></line><line x1="57.43861607142857" y1="0" x2="57.43861607142857" y2="5" style="visibility: inherit;" fill="rgb(0, 0, 0)" stroke="rgb(204, 204, 204)" stroke-width="1px"></line><line x1="76.58482142857143" y1="0" x2="76.58482142857143" y2="5" style="visibility: inherit;" fill="rgb(0, 0, 0)" stroke="rgb(204, 204, 204)" stroke-width="1px"></line><line x1="95.73102678571429" y1="0" x2="95.73102678571429" y2="5" style="visibility: inherit;" fill="rgb(0, 0, 0)" stroke="rgb(204, 204, 204)" stroke-width="1px"></line><line x1="114.87723214285714" y1="0" x2="114.87723214285714" y2="5" style="visibility: inherit;" fill="rgb(0, 0, 0)" stroke="rgb(204, 204, 204)" stroke-width="1px"></line><line x1="134.0234375" y1="0" x2="134.0234375" y2="5" style="visibility: inherit;" fill="rgb(0, 0, 0)" stroke="rgb(204, 204, 204)" stroke-width="1px"></line><line x1="153.16964285714286" y1="0" x2="153.16964285714286" y2="5" style="visibility: inherit;" fill="rgb(0, 0, 0)" stroke="rgb(204, 204, 204)" stroke-width="1px"></line><line x1="172.31584821428572" y1="0" x2="172.31584821428572" y2="5" style="visibility: inherit;" fill="rgb(0, 0, 0)" stroke="rgb(204, 204, 204)" stroke-width="1px"></line><line x1="191.46205357142858" y1="0" x2="191.46205357142858" y2="5" style="visibility: inherit;" fill="rgb(0, 0, 0)" stroke="rgb(204, 204, 204)" stroke-width="1px"></line><line x1="210.60825892857142" y1="0" x2="210.60825892857142" y2="5" style="visibility: inherit;" fill="rgb(0, 0, 0)" stroke="rgb(204, 204, 204)" stroke-width="1px"></line><line x1="229.75446428571428" y1="0" x2="229.75446428571428" y2="5" style="visibility: inherit;" fill="rgb(0, 0, 0)" stroke="rgb(204, 204, 204)" stroke-width="1px"></line><line x1="248.90066964285714" y1="0" x2="248.90066964285714" y2="5" style="visibility: inherit;" fill="rgb(0, 0, 0)" stroke="rgb(204, 204, 204)" stroke-width="1px"></line><line x1="268.046875" y1="0" x2="268.046875" y2="5" style="visibility: inherit;" fill="rgb(0, 0, 0)" stroke="rgb(204, 204, 204)" stroke-width="1px"></line></g><g transform="translate(0, 8)"><text x="0" y="0" dx="0em" dy="0.95em" style="text-anchor: middle; visibility: hidden; font-family: Roboto, sans-serif; font-size: 12px; font-weight: 200;" fill="rgb(33, 33, 33)" stroke="none" stroke-width="1px">-20k</text><text x="19.146205357142858" y="0" dx="0em" dy="0.95em" style="text-anchor: middle; visibility: inherit; font-family: Roboto, sans-serif; font-size: 12px; font-weight: 200;" fill="rgb(33, 33, 33)" stroke="none" stroke-width="1px">0</text><text x="38.292410714285715" y="0" dx="0em" dy="0.95em" style="text-anchor: middle; visibility: hidden; font-family: Roboto, sans-serif; font-size: 12px; font-weight: 200;" fill="rgb(33, 33, 33)" stroke="none" stroke-width="1px">20k</text><text x="57.43861607142857" y="0" dx="0em" dy="0.95em" style="text-anchor: middle; visibility: inherit; font-family: Roboto, sans-serif; font-size: 12px; font-weight: 200;" fill="rgb(33, 33, 33)" stroke="none" stroke-width="1px">40k</text><text x="76.58482142857143" y="0" dx="0em" dy="0.95em" style="text-anchor: middle; visibility: hidden; font-family: Roboto, sans-serif; font-size: 12px; font-weight: 200;" fill="rgb(33, 33, 33)" stroke="none" stroke-width="1px">60k</text><text x="95.73102678571429" y="0" dx="0em" dy="0.95em" style="text-anchor: middle; visibility: inherit; font-family: Roboto, sans-serif; font-size: 12px; font-weight: 200;" fill="rgb(33, 33, 33)" stroke="none" stroke-width="1px">80k</text><text x="114.87723214285714" y="0" dx="0em" dy="0.95em" style="text-anchor: middle; visibility: hidden; font-family: Roboto, sans-serif; font-size: 12px; font-weight: 200;" fill="rgb(33, 33, 33)" stroke="none" stroke-width="1px">100k</text><text x="134.0234375" y="0" dx="0em" dy="0.95em" style="text-anchor: middle; visibility: inherit; font-family: Roboto, sans-serif; font-size: 12px; font-weight: 200;" fill="rgb(33, 33, 33)" stroke="none" stroke-width="1px">120k</text><text x="153.16964285714286" y="0" dx="0em" dy="0.95em" style="text-anchor: middle; visibility: hidden; font-family: Roboto, sans-serif; font-size: 12px; font-weight: 200;" fill="rgb(33, 33, 33)" stroke="none" stroke-width="1px">140k</text><text x="172.31584821428572" y="0" dx="0em" dy="0.95em" style="text-anchor: middle; visibility: inherit; font-family: Roboto, sans-serif; font-size: 12px; font-weight: 200;" fill="rgb(33, 33, 33)" stroke="none" stroke-width="1px">160k</text><text x="191.46205357142858" y="0" dx="0em" dy="0.95em" style="text-anchor: middle; visibility: hidden; font-family: Roboto, sans-serif; font-size: 12px; font-weight: 200;" fill="rgb(33, 33, 33)" stroke="none" stroke-width="1px">180k</text><text x="210.60825892857142" y="0" dx="0em" dy="0.95em" style="text-anchor: middle; visibility: inherit; font-family: Roboto, sans-serif; font-size: 12px; font-weight: 200;" fill="rgb(33, 33, 33)" stroke="none" stroke-width="1px">200k</text><text x="229.75446428571428" y="0" dx="0em" dy="0.95em" style="text-anchor: middle; visibility: hidden; font-family: Roboto, sans-serif; font-size: 12px; font-weight: 200;" fill="rgb(33, 33, 33)" stroke="none" stroke-width="1px">220k</text><text x="248.90066964285714" y="0" dx="0em" dy="0.95em" style="text-anchor: middle; visibility: inherit; font-family: Roboto, sans-serif; font-size: 12px; font-weight: 200;" fill="rgb(33, 33, 33)" stroke="none" stroke-width="1px">240k</text><text x="268.046875" y="0" dx="0em" dy="0.95em" style="text-anchor: middle; visibility: hidden; font-family: Roboto, sans-serif; font-size: 12px; font-weight: 200;" fill="rgb(33, 33, 33)" stroke="none" stroke-width="1px">260k</text></g><line x1="0" y1="0" x2="268.046875" y2="0" fill="rgb(0, 0, 0)" stroke="rgb(204, 204, 204)" stroke-width="1px"></line></g></g></g></g></svg>