<svg viewBox="0 0 330 200" xmlns="http://www.w3.org/2000/svg"><g><g><g><g><g><line x1="41.6875" y1="175" x2="36.6875" y2="175" style="visibility: inherit;" fill="rgb(0, 0, 0)" stroke="rgb(204, 204, 204)" stroke-width="1px"></line><line x1="41.6875" y1="157.5" x2="36.6875" y2="157.5" style="visibility: inherit;" fill="rgb(0, 0, 0)" stroke="rgb(204, 204, 204)" stroke-width="1px"></line><line x1="41.6875" y1="140" x2="36.6875" y2="140" style="visibility: inherit;" fill="rgb(0, 0, 0)" stroke="rgb(204, 204, 204)" stroke-width="1px"></line><line x1="41.6875" y1="122.49999999999999" x2="36.6875" y2="122.49999999999999" style="visibility: inherit;" fill="rgb(0, 0, 0)" stroke="rgb(204, 204, 204)" stroke-width="1px"></line><line x1="41.6875" y1="105" x2="36.6875" y2="105" style="visibility: inherit;" fill="rgb(0, 0, 0)" stroke="rgb(204, 204, 204)" stroke-width="1px"></line><line x1="41.6875" y1="87.5" x2="36.6875" y2="87.5" style="visibility: inherit;" fill="rgb(0, 0, 0)" stroke="rgb(204, 204, 204)" stroke-width="1px"></line><line x1="41.6875" y1="70" x2="36.6875" y2="70" style="visibility: inherit;" fill="rgb(0, 0, 0)" stroke="rgb(204, 204, 204)" stroke-width="1px"></line><line x1="41.6875" y1="52.50000000000001" x2="36.6875" y2="52.50000000000001" style="visibility: inherit;" fill="rgb(0, 0, 0)" stroke="rgb(204, 204, 204)" stroke-width="1px"></line><line x1="41.6875" y1="34.99999999999999" x2="36.6875" y2="34.99999999999999" style="visibility: inherit;" fill="rgb(0, 0, 0)" stroke="rgb(204, 204, 204)" stroke-width="1px"></line><line x1="41.6875" y1="17.499999999999996" x2="36.6875" y2="17.499999999999996" style="visibility: inherit;" fill="rgb(0, 0, 0)" stroke="rgb(204, 204, 204)" stroke-width="1px"></line><line x1="41.6875" y1="0" x2="36.6875" y2="0" style="visibility: inherit;" fill="rgb(0, 0, 0)" stroke="rgb(204, 204, 204)" stroke-width="1px"></line></g><g transform="translate(31.6875, 0)"><text x="0" y="175" dx="0em" dy="0.3em" style="text-anchor: end; visibility: hidden; font-family: Roboto, sans-serif; font-size: 12px; font-weight: 200;" fill="rgb(33, 33, 33)" stroke="none" stroke-width="1px">600</text><text x="0" y="157.5" dx="0em" dy="0.3em" style="text-anchor: end; visibility: inherit; font-family: Roboto, sans-serif; font-size: 12px; font-weight: 200;" fill="rgb(33, 33, 33)" stroke="none" stroke-width="1px">620</text><text x="0" y="140" dx="0em" dy="0.3em" style="text-anchor: end; visibility: hidden; font-family: Roboto, sans-serif; font-size: 12px; font-weight: 200;" fill="rgb(33, 33, 33)" stroke="none" stroke-width="1px">640</text><text x="0" y="122.49999999999999" dx="0em" dy="0.3em" style="text-anchor: end; visibility: inherit; font-family: Roboto, sans-serif; font-size: 12px; font-weight: 200;" fill="rgb(33, 33, 33)" stroke="none" stroke-width="1px">660</text><text x="0" y="105" dx="0em" dy="0.3em" style="text-anchor: end; visibility: hidden; font-family: Roboto, sans-serif; font-size: 12px; font-weight: 200;" fill="rgb(33, 33, 33)" stroke="none" stroke-width="1px">680</text><text x="0" y="87.5" dx="0em" dy="0.3em" style="text-anchor: end; visibility: inherit; font-family: Roboto, sans-serif; font-size: 12px; font-weight: 200;" fill="rgb(33, 33, 33)" stroke="none" stroke-width="1px">700</text><text x="0" y="70" dx="0em" dy="0.3em" style="text-anchor: end; visibility: hidden; font-family: Roboto, sans-serif; font-size: 12px; font-weight: 200;" fill="rgb(33, 33, 33)" stroke="none" stroke-width="1px">720</text><text x="0" y="52.50000000000001" dx="0em" dy="0.3em" style="text-anchor: end; visibility: inherit; font-family: Roboto, sans-serif; font-size: 12px; font-weight: 200;" fill="rgb(33, 33, 33)" stroke="none" stroke-width="1px">740</text><text x="0" y="34.99999999999999" dx="0em" dy="0.3em" style="text-anchor: end; visibility: hidden; font-family: Roboto, sans-serif; font-size: 12px; font-weight: 200;" fill="rgb(33, 33, 33)" stroke="none" stroke-width="1px">760</text><text x="0" y="17.499999999999996" dx="0em" dy="0.3em" style="text-anchor: end; visibility: inherit; font-family: Roboto, sans-serif; font-size: 12px; font-weight: 200;" fill="rgb(33, 33, 33)" stroke="none" stroke-width="1px">780</text><text x="0" y="0" dx="0em" dy="0.3em" style="text-anchor: end; visibility: hidden; font-family: Roboto, sans-serif; font-size: 12px; font-weight: 200;" fill="rgb(33, 33, 33)" stroke="none" stroke-width="1px">800</text></g><line x1="41.6875" y1="0" x2="41.6875" y2="175" fill="rgb(0, 0, 0)" stroke="rgb(204, 204, 204)" stroke-width="1px"></line></g></g><g transform="translate(41, 0)" clip-path="url(#clip_0)"><clipPath id="clip_0"><rect width="288" height="175"></rect></clipPath><g><g><g><line x1="0" y1="0" x2="0" y2="175" fill="rgb(0, 0, 0)" stroke="rgb(66, 66, 66)" stroke-width="1px" opacity="0.25"></line><line x1="24.026041666666664" y1="0" x2="24.026041666666664" y2="175" fill="rgb(0, 0, 0)" stroke="rgb(66, 66, 66)" stroke-width="1px" opacity="0.25"></line><line x1="48.05208333333333" y1="0" x2="48.05208333333333" y2="175" fill="rgb(0, 0, 0)" stroke="rgb(66, 66, 66)" stroke-width="1px" opacity="0.25"></line><line x1="72.078125" y1="0" x2="72.078125" y2="175" fill="rgb(0, 0, 0)" stroke="rgb(66, 66, 66)" stroke-width="1px" opacity="0.25"></line><line x1="96.10416666666666" y1="0" x2="96.10416666666666" y2="175" fill="rgb(0, 0, 0)" stroke="rgb(66, 66, 66)" stroke-width="1px" opacity="0.25"></line><line x1="120.13020833333334" y1="0" x2="120.13020833333334" y2="175" fill="rgb(0, 0, 0)" stroke="rgb(66, 66, 66)" stroke-width="1px" opacity="0.25"></line><line x1="144.15625" y1="0" x2="144.15625" y2="175" fill="rgb(0, 0, 0)" stroke="rgb(66, 66, 66)" stroke-width="1px" opacity="0.25"></line><line x1="168.18229166666669" y1="0" x2="168.18229166666669" y2="175" fill="rgb(0, 0, 0)" stroke="rgb(66, 66, 66)" stroke-width="1px" opacity="0.25"></line><line x1="192.20833333333331" y1="0" x2="192.20833333333331" y2="175" fill="rgb(0, 0, 0)" stroke="rgb(66, 66, 66)" stroke-width="1px" opacity="0.25"></line><line x1="216.234375" y1="0" x2="216.234375" y2="175" fill="rgb(0, 0, 0)" stroke="rgb(66, 66, 66)" stroke-width="1px" opacity="0.25"></line><line x1="240.26041666666669" y1="0" x2="240.26041666666669" y2="175" fill="rgb(0, 0, 0)" stroke="rgb(66, 66, 66)" stroke-width="1px" opacity="0.25"></line><line x1="264.2864583333333" y1="0" x2="264.2864583333333" y2="175" fill="rgb(0, 0, 0)" stroke="rgb(66, 66, 66)" stroke-width="1px" opacity="0.25"></line><line x1="288.3125" y1="0" x2="288.3125" y2="175" fill="rgb(0, 0, 0)" stroke="rgb(66, 66, 66)" stroke-width="1px" opacity="0.25"></line></g><g><line x1="0" y1="175" x2="288.3125" y2="175" fill="rgb(0, 0, 0)" stroke="rgb(66, 66, 66)" stroke-width="1px" opacity="0.25"></line><line x1="0" y1="157.5" x2="288.3125" y2="157.5" fill="rgb(0, 0, 0)" stroke="rgb(66, 66, 66)" stroke-width="1px" opacity="0.25"></line><line x1="0" y1="140" x2="288.3125" y2="140" fill="rgb(0, 0, 0)" stroke="rgb(66, 66, 66)" stroke-width="1px" opacity="0.25"></line><line x1="0" y1="122.49999999999999" x2="288.3125" y2="122.49999999999999" fill="rgb(0, 0, 0)" stroke="rgb(66, 66, 66)" stroke-width="1px" opacity="0.25"></line><line x1="0" y1="105" x2="288.3125" y2="105" fill="rgb(0, 0, 0)" stroke="rgb(66, 66, 66)" stroke-width="1px" opacity="0.25"></line><line x1="0" y1="87.5" x2="288.3125" y2="87.5" fill="rgb(0, 0, 0)" stroke="rgb(66, 66, 66)" stroke-width="1px" opacity="0.25"></line><line x1="0" y1="70" x2="288.3125" y2="70" fill="rgb(0, 0, 0)" stroke="rgb(66, 66, 66)" stroke-width="1px" opacity="0.25"></line><line x1="0" y1="52.50000000000001" x2="288.3125" y2="52.50000000000001" fill="rgb(0, 0, 0)" stroke="rgb(66, 66, 66)" stroke-width="1px" opacity="0.25"></line><line x1="0" y1="34.99999999999999" x2="288.3125" y2="34.99999999999999" fill="rgb(0, 0, 0)" stroke="rgb(66, 66, 66)" stroke-width="1px" opacity="0.25"></line><line x1="0" y1="17.499999999999996" x2="288.3125" y2="17.499999999999996" fill="rgb(0, 0, 0)" stroke="rgb(66, 66, 66)" stroke-width="1px" opacity="0.25"></line><line x1="0" y1="0" x2="288.3125" y2="0" fill="rgb(0, 0, 0)" stroke="rgb(66, 66, 66)" stroke-width="1px" opacity="0.25"></line></g></g></g><g><g><line x1="0" y1="700" x2="288.3125" y2="700" fill="rgb(0, 0, 0)" stroke="rgb(153, 153, 153)" stroke-width="1.5px"></line></g></g><g><g><line x1="24.026041666666664" y1="0" x2="24.026041666666664" y2="175" fill="rgb(0, 0, 0)" stroke="rgb(153, 153, 153)" stroke-width="1.5px"></line></g></g><g><g><g><g><g><path stroke="rgb(255, 112, 67)" stroke-width="2px" d="M33.867108333333334,-22.84329044117652L36.327375,4.142435808466333L38.787641666666666,22.9635808270677L41.247908333333335,35.47848573836553L43.708175000000004,44.8952570404933L46.168441666666666,52.21087883681025L48.62870833333333,57.96129788712311L51.088975,62.44303835474796L53.54924166666667,65.82318084731969L56.009508333333336,68.1970088925664L58.469775000000006,69.96959440736144L60.93004166666667,71.3824209342356L63.39030833333333,72.9298891183239L65.85057499999999,74.20814983783319L68.31084166666666,75.32500333029228L70.77110833333333,76.3450641565753L73.231375,77.307073666537L75.69164166666667,78.23426453966273L78.15190833333334,79.1405706527531L80.61217500000001,79.6843466860156L83.07244166666668,80.71061287444985L85.53270833333335,83.42637544566107L87.992975,85.4058286439822L90.45324166666666,86.94349876017992L92.91350833333333,87.86609982267186L95.373775,88.41966009756611L97.83404166666666,88.7517961319662L100.29430833333333,88.95107770561343L102.754575,89.07064663288412L105.21484166666667,89.14238798315621L107.67510833333333,89.1854327911271L110.135375,89.56125968113696L112.59564166666667,89.78675581100804L115.05590833333333,89.92205348744217L117.516175,124.30323222012923L119.97644166666667,144.23193937647704L122.43670833333334,155.48916364093424L124.896975,161.54349818941648L127.35724166666667,164.4760989150611L129.81750833333334,165.53565934934264L132.277775,165.82139560965504L134.73804166666667,165.29283736573808L137.19830833333333,164.27570241937948L139.658575,163.31542145159182L142.11884166666667,162.0392528709264L144.57910833333332,160.9235517225409L147.039375,159.5541310335134L149.49964166666666,158.3824786201024L151.95990833333335,157.3294871720584L154.420175,156.3476923032333L156.88044166666668,155.05861538193875L159.34070833333334,153.93516922916257L161.80097500000002,152.91110153749707L164.26124166666665,151.946660922498L166.72150833333333,151.0179965534988L169.181775,150.11079793209925L171.64204166666667,149.2164787592596L174.10230833333333,148.32988725555563L176.562575,147.4479323533335L179.02284166666666,146.56875941200002L181.48310833333332,146.04125564720005L183.943375,145.37475338832007L186.40364166666666,144.624852032992L188.86390833333334,143.8249112197953L191.324175,143.34494673187726L193.78444166666668,142.7069680391264L196.24470833333334,141.97418082347568L198.70497500000002,141.1845084940855L201.16524166666667,140.71070509645125L203.62550833333336,140.0764230578707L206.08577499999998,139.34585383472242L208.54604166666667,138.90751230083342L211.00630833333332,138.29450738050008L213.46657499999998,137.57670442830005L215.92684166666666,137.14602265698002L218.38710833333332,136.53761359418795L220.847375,136.17256815651277L223.30764166666665,135.60354089390762L225.76790833333334,135.26212453634457L228.228175,134.70727472180678L230.68844166666668,134.37436483308403L233.14870833333333,133.82461889985038L235.60897500000002,133.4947713399102L238.06924166666667,133.2968628039461L240.52950833333335,132.82811768236763L242.989775,132.5468706094206L245.4500416666667,132.02812236565237L247.91030833333335,131.71687341939142L250.37057499999997,131.53012405163489L252.83084166666666,131.06807443098094L255.2911083333333,130.79084465858853L257.751375,130.6245067951531L260.21164166666665,130.17470407709192L262.67190833333336,129.9048224462551L265.132175,129.7428934677531" style="fill: none;" fill="none"></path></g></g></g></g><g opacity="0.2"><g><g><g><path stroke="rgb(255, 112, 67)" stroke-width="2px" d="M28.946575,-50.75000000000001L31.406841666666665,0.8750000000000008L33.867108333333334,26.250000000000004L36.327375,39.37499999999999L38.787641666666666,49.00000000000001L41.247908333333335,53.37500000000001L43.708175000000004,58.62499999999999L46.168441666666666,63L48.62870833333333,66.5L51.088975,69.125L53.54924166666667,70.875L56.009508333333336,71.75L58.469775000000006,72.625L60.93004166666667,73.5L63.39030833333333,75.25000000000001L65.85057499999999,76.12500000000001L68.31084166666666,76.99999999999999L70.77110833333333,77.87499999999999L73.231375,78.74999999999999L75.69164166666667,79.625L78.15190833333334,80.5L80.61217500000001,80.5L83.07244166666668,82.25L85.53270833333335,87.5L87.992975,88.375L90.45324166666666,89.25L92.91350833333333,89.25L95.373775,89.25L97.83404166666666,89.25L100.29430833333333,89.25L102.754575,89.25L105.21484166666667,89.25L107.67510833333333,89.25L110.135375,90.125L112.59564166666667,90.125L115.05590833333333,90.125L117.516175,175.87499999999997L119.97644166666667,174.125L122.43670833333334,172.375L124.896975,170.625L127.35724166666667,168.875L129.81750833333334,167.125L132.277775,166.25L134.73804166666667,164.5L137.19830833333333,162.75L139.658575,161.875L142.11884166666667,160.125L144.57910833333332,159.25L147.039375,157.5L149.49964166666666,156.625L151.95990833333335,155.75L154.420175,154.875L156.88044166666668,153.125L159.34070833333334,152.25L161.80097500000002,151.375L164.26124166666665,150.5L166.72150833333333,149.625L169.181775,148.75L171.64204166666667,147.875L174.10230833333333,147L176.562575,146.125L179.02284166666666,145.25L181.48310833333332,145.25L183.943375,144.375L186.40364166666666,143.5L188.86390833333334,142.625L191.324175,142.625L193.78444166666668,141.75L196.24470833333334,140.875L198.70497500000002,140L201.16524166666667,140L203.62550833333336,139.125L206.08577499999998,138.25L208.54604166666667,138.25L211.00630833333332,137.375L213.46657499999998,136.5L215.92684166666666,136.5L218.38710833333332,135.625L220.847375,135.625L223.30764166666665,134.75L225.76790833333334,134.75L228.228175,133.875L230.68844166666668,133.875L233.14870833333333,133L235.60897500000002,133L238.06924166666667,133L240.52950833333335,132.125L242.989775,132.125L245.4500416666667,131.25L247.91030833333335,131.25L250.37057499999997,131.25L252.83084166666666,130.375L255.2911083333333,130.375L257.751375,130.375L260.21164166666665,129.5L262.67190833333336,129.5L265.132175,129.5" style="fill: none;" fill="none"></path></g></g></g></g></g></g><g transform="translate(41, 175)" clip-path="url(#clip_1)"><clipPath id="clip_1"><rect width="288" height="25"></rect></clipPath><g><g><line x1="0" y1="0" x2="0" y2="5" style="visibility: inherit;" fill="rgb(0, 0, 0)" stroke="rgb(204, 204, 204)" stroke-width="1px"></line><line x1="24.026041666666664" y1="0" x2="24.026041666666664" y2="5" style="visibility: inherit;" fill="rgb(0, 0, 0)" stroke="rgb(204, 204, 204)" stroke-width="1px"></line><line x1="48.05208333333333" y1="0" x2="48.05208333333333" y2="5" style="visibility: inherit;" fill="rgb(0, 0, 0)" stroke="rgb(204, 204, 204)" stroke-width="1px"></line><line x1="72.078125" y1="0" x2="72.078125" y2="5" style="visibility: inherit;" fill="rgb(0, 0, 0)" stroke="rgb(204, 204, 204)" stroke-width="1px"></line><line x1="96.10416666666666" y1="0" x2="96.10416666666666" y2="5" style="visibility: inherit;" fill="rgb(0, 0, 0)" stroke="rgb(204, 204, 204)" stroke-width="1px"></line><line x1="120.13020833333334" y1="0" x2="120.13020833333334" y2="5" style="visibility: inherit;" fill="rgb(0, 0, 0)" stroke="rgb(204, 204, 204)" stroke-width="1px"></line><line x1="144.15625" y1="0" x2="144.15625" y2="5" style="visibility: inherit;" fill="rgb(0, 0, 0)" stroke="rgb(204, 204, 204)" stroke-width="1px"></line><line x1="168.18229166666669" y1="0" x2="168.18229166666669" y2="5" style="visibility: inherit;" fill="rgb(0, 0, 0)" stroke="rgb(204, 204, 204)" stroke-width="1px"></line><line x1="192.20833333333331" y1="0" x2="192.20833333333331" y2="5" style="visibility: inherit;" fill="rgb(0, 0, 0)" stroke="rgb(204, 204, 204)" stroke-width="1px"></line><line x1="216.234375" y1="0" x2="216.234375" y2="5" style="visibility: inherit;" fill="rgb(0, 0, 0)" stroke="rgb(204, 204, 204)" stroke-width="1px"></line><line x1="240.26041666666669" y1="0" x2="240.26041666666669" y2="5" style="visibility: inherit;" fill="rgb(0, 0, 0)" stroke="rgb(204, 204, 204)" stroke-width="1px"></line><line x1="264.2864583333333" y1="0" x2="264.2864583333333" y2="5" style="visibility: inherit;" fill="rgb(0, 0, 0)" stroke="rgb(204, 204, 204)" stroke-width="1px"></line><line x1="288.3125" y1="0" x2="288.3125" y2="5" style="visibility: inherit;" fill="rgb(0, 0, 0)" stroke="rgb(204, 204, 204)" stroke-width="1px"></line></g><g transform="translate(0, 8)"><text x="0" y="0" dx="0em" dy="0.95em" style="text-anchor: middle; visibility: hidden; font-family: Roboto, sans-serif; font-size: 12px; font-weight: 200;" fill="rgb(33, 33, 33)" stroke="none" stroke-width="1px">-20k</text><text x="24.026041666666664" y="0" dx="0em" dy="0.95em" style="text-anchor: middle; visibility: inherit; font-family: Roboto, sans-serif; font-size: 12px; font-weight: 200;" fill="rgb(33, 33, 33)" stroke="none" stroke-width="1px">0</text><text x="48.05208333333333" y="0" dx="0em" dy="0.95em" style="text-anchor: middle; visibility: hidden; font-family: Roboto, sans-serif; font-size: 12px; font-weight: 200;" fill="rgb(33, 33, 33)" stroke="none" stroke-width="1px">20k</text><text x="72.078125" y="0" dx="0em" dy="0.95em" style="text-anchor: middle; visibility: inherit; font-family: Roboto, sans-serif; font-size: 12px; font-weight: 200;" fill="rgb(33, 33, 33)" stroke="none" stroke-width="1px">40k</text><text x="96.10416666666666" y="0" dx="0em" dy="0.95em" style="text-anchor: middle; visibility: hidden; font-family: Roboto, sans-serif; font-size: 12px; font-weight: 200;" fill="rgb(33, 33, 33)" stroke="none" stroke-width="1px">60k</text><text x="120.13020833333334" y="0" dx="0em" dy="0.95em" style="text-anchor: middle; visibility: inherit; font-family: Roboto, sans-serif; font-size: 12px; font-weight: 200;" fill="rgb(33, 33, 33)" stroke="none" stroke-width="1px">80k</text><text x="144.15625" y="0" dx="0em" dy="0.95em" style="text-anchor: middle; visibility: hidden; font-family: Roboto, sans-serif; font-size: 12px; font-weight: 200;" fill="rgb(33, 33, 33)" stroke="none" stroke-width="1px">100k</text><text x="168.18229166666669" y="0" dx="0em" dy="0.95em" style="text-anchor: middle; visibility: inherit; font-family: Roboto, sans-serif; font-size: 12px; font-weight: 200;" fill="rgb(33, 33, 33)" stroke="none" stroke-width="1px">120k</text><text x="192.20833333333331" y="0" dx="0em" dy="0.95em" style="text-anchor: middle; visibility: hidden; font-family: Roboto, sans-serif; font-size: 12px; font-weight: 200;" fill="rgb(33, 33, 33)" stroke="none" stroke-width="1px">140k</text><text x="216.234375" y="0" dx="0em" dy="0.95em" style="text-anchor: middle; visibility: inherit; font-family: Roboto, sans-serif; font-size: 12px; font-weight: 200;" fill="rgb(33, 33, 33)" stroke="none" stroke-width="1px">160k</text><text x="240.26041666666669" y="0" dx="0em" dy="0.95em" style="text-anchor: middle; visibility: hidden; font-family: Roboto, sans-serif; font-size: 12px; font-weight: 200;" fill="rgb(33, 33, 33)" stroke="none" stroke-width="1px">180k</text><text x="264.2864583333333" y="0" dx="0em" dy="0.95em" style="text-anchor: middle; visibility: inherit; font-family: Roboto, sans-serif; font-size: 12px; font-weight: 200;" fill="rgb(33, 33, 33)" stroke="none" stroke-width="1px">200k</text><text x="288.3125" y="0" dx="0em" dy="0.95em" style="text-anchor: middle; visibility: hidden; font-family: Roboto, sans-serif; font-size: 12px; font-weight: 200;" fill="rgb(33, 33, 33)" stroke="none" stroke-width="1px">220k</text></g><line x1="0" y1="0" x2="288.3125" y2="0" fill="rgb(0, 0, 0)" stroke="rgb(204, 204, 204)" stroke-width="1px"></line></g></g></g></g></svg>