<svg viewBox="0 0 330 200" xmlns="http://www.w3.org/2000/svg"><g><g><g><g><g><line x1="30.78125" y1="177" x2="25.78125" y2="177" style="visibility: inherit;" fill="rgb(0, 0, 0)" stroke="rgb(204, 204, 204)" stroke-width="1px"></line><line x1="30.78125" y1="154.875" x2="25.78125" y2="154.875" style="visibility: inherit;" fill="rgb(0, 0, 0)" stroke="rgb(204, 204, 204)" stroke-width="1px"></line><line x1="30.78125" y1="132.75" x2="25.78125" y2="132.75" style="visibility: inherit;" fill="rgb(0, 0, 0)" stroke="rgb(204, 204, 204)" stroke-width="1px"></line><line x1="30.78125" y1="110.625" x2="25.78125" y2="110.625" style="visibility: inherit;" fill="rgb(0, 0, 0)" stroke="rgb(204, 204, 204)" stroke-width="1px"></line><line x1="30.78125" y1="88.5" x2="25.78125" y2="88.5" style="visibility: inherit;" fill="rgb(0, 0, 0)" stroke="rgb(204, 204, 204)" stroke-width="1px"></line><line x1="30.78125" y1="66.375" x2="25.78125" y2="66.375" style="visibility: inherit;" fill="rgb(0, 0, 0)" stroke="rgb(204, 204, 204)" stroke-width="1px"></line><line x1="30.78125" y1="44.25" x2="25.78125" y2="44.25" style="visibility: inherit;" fill="rgb(0, 0, 0)" stroke="rgb(204, 204, 204)" stroke-width="1px"></line><line x1="30.78125" y1="22.125" x2="25.78125" y2="22.125" style="visibility: inherit;" fill="rgb(0, 0, 0)" stroke="rgb(204, 204, 204)" stroke-width="1px"></line><line x1="30.78125" y1="0" x2="25.78125" y2="0" style="visibility: inherit;" fill="rgb(0, 0, 0)" stroke="rgb(204, 204, 204)" stroke-width="1px"></line></g><g transform="translate(20.78125, 0)"><text x="0" y="177" dx="0em" dy="0.3em" style="text-anchor: end; visibility: hidden; font-family: Roboto, sans-serif; font-size: 12px; font-weight: 200;" fill="rgb(33, 33, 33)" stroke="none" stroke-width="1px">12</text><text x="0" y="154.875" dx="0em" dy="0.3em" style="text-anchor: end; visibility: inherit; font-family: Roboto, sans-serif; font-size: 12px; font-weight: 200;" fill="rgb(33, 33, 33)" stroke="none" stroke-width="1px">14</text><text x="0" y="132.75" dx="0em" dy="0.3em" style="text-anchor: end; visibility: hidden; font-family: Roboto, sans-serif; font-size: 12px; font-weight: 200;" fill="rgb(33, 33, 33)" stroke="none" stroke-width="1px">16</text><text x="0" y="110.625" dx="0em" dy="0.3em" style="text-anchor: end; visibility: inherit; font-family: Roboto, sans-serif; font-size: 12px; font-weight: 200;" fill="rgb(33, 33, 33)" stroke="none" stroke-width="1px">18</text><text x="0" y="88.5" dx="0em" dy="0.3em" style="text-anchor: end; visibility: hidden; font-family: Roboto, sans-serif; font-size: 12px; font-weight: 200;" fill="rgb(33, 33, 33)" stroke="none" stroke-width="1px">20</text><text x="0" y="66.375" dx="0em" dy="0.3em" style="text-anchor: end; visibility: inherit; font-family: Roboto, sans-serif; font-size: 12px; font-weight: 200;" fill="rgb(33, 33, 33)" stroke="none" stroke-width="1px">22</text><text x="0" y="44.25" dx="0em" dy="0.3em" style="text-anchor: end; visibility: hidden; font-family: Roboto, sans-serif; font-size: 12px; font-weight: 200;" fill="rgb(33, 33, 33)" stroke="none" stroke-width="1px">24</text><text x="0" y="22.125" dx="0em" dy="0.3em" style="text-anchor: end; visibility: inherit; font-family: Roboto, sans-serif; font-size: 12px; font-weight: 200;" fill="rgb(33, 33, 33)" stroke="none" stroke-width="1px">26</text><text x="0" y="0" dx="0em" dy="0.3em" style="text-anchor: end; visibility: hidden; font-family: Roboto, sans-serif; font-size: 12px; font-weight: 200;" fill="rgb(33, 33, 33)" stroke="none" stroke-width="1px">28</text></g><line x1="30.78125" y1="0" x2="30.78125" y2="177" fill="rgb(0, 0, 0)" stroke="rgb(204, 204, 204)" stroke-width="1px"></line></g></g><g transform="translate(30, 0)" clip-path="url(#clip_0)"><clipPath id="clip_0"><rect width="299" height="177"></rect></clipPath><g><g><g><line x1="0" y1="0" x2="0" y2="177" fill="rgb(0, 0, 0)" stroke="rgb(66, 66, 66)" stroke-width="1px" opacity="0.25"></line><line x1="24.934895833333332" y1="0" x2="24.934895833333332" y2="177" fill="rgb(0, 0, 0)" stroke="rgb(66, 66, 66)" stroke-width="1px" opacity="0.25"></line><line x1="49.869791666666664" y1="0" x2="49.869791666666664" y2="177" fill="rgb(0, 0, 0)" stroke="rgb(66, 66, 66)" stroke-width="1px" opacity="0.25"></line><line x1="74.8046875" y1="0" x2="74.8046875" y2="177" fill="rgb(0, 0, 0)" stroke="rgb(66, 66, 66)" stroke-width="1px" opacity="0.25"></line><line x1="99.73958333333333" y1="0" x2="99.73958333333333" y2="177" fill="rgb(0, 0, 0)" stroke="rgb(66, 66, 66)" stroke-width="1px" opacity="0.25"></line><line x1="124.67447916666667" y1="0" x2="124.67447916666667" y2="177" fill="rgb(0, 0, 0)" stroke="rgb(66, 66, 66)" stroke-width="1px" opacity="0.25"></line><line x1="149.609375" y1="0" x2="149.609375" y2="177" fill="rgb(0, 0, 0)" stroke="rgb(66, 66, 66)" stroke-width="1px" opacity="0.25"></line><line x1="174.54427083333334" y1="0" x2="174.54427083333334" y2="177" fill="rgb(0, 0, 0)" stroke="rgb(66, 66, 66)" stroke-width="1px" opacity="0.25"></line><line x1="199.47916666666666" y1="0" x2="199.47916666666666" y2="177" fill="rgb(0, 0, 0)" stroke="rgb(66, 66, 66)" stroke-width="1px" opacity="0.25"></line><line x1="224.4140625" y1="0" x2="224.4140625" y2="177" fill="rgb(0, 0, 0)" stroke="rgb(66, 66, 66)" stroke-width="1px" opacity="0.25"></line><line x1="249.34895833333334" y1="0" x2="249.34895833333334" y2="177" fill="rgb(0, 0, 0)" stroke="rgb(66, 66, 66)" stroke-width="1px" opacity="0.25"></line><line x1="274.28385416666663" y1="0" x2="274.28385416666663" y2="177" fill="rgb(0, 0, 0)" stroke="rgb(66, 66, 66)" stroke-width="1px" opacity="0.25"></line><line x1="299.21875" y1="0" x2="299.21875" y2="177" fill="rgb(0, 0, 0)" stroke="rgb(66, 66, 66)" stroke-width="1px" opacity="0.25"></line></g><g><line x1="0" y1="177" x2="299.21875" y2="177" fill="rgb(0, 0, 0)" stroke="rgb(66, 66, 66)" stroke-width="1px" opacity="0.25"></line><line x1="0" y1="154.875" x2="299.21875" y2="154.875" fill="rgb(0, 0, 0)" stroke="rgb(66, 66, 66)" stroke-width="1px" opacity="0.25"></line><line x1="0" y1="132.75" x2="299.21875" y2="132.75" fill="rgb(0, 0, 0)" stroke="rgb(66, 66, 66)" stroke-width="1px" opacity="0.25"></line><line x1="0" y1="110.625" x2="299.21875" y2="110.625" fill="rgb(0, 0, 0)" stroke="rgb(66, 66, 66)" stroke-width="1px" opacity="0.25"></line><line x1="0" y1="88.5" x2="299.21875" y2="88.5" fill="rgb(0, 0, 0)" stroke="rgb(66, 66, 66)" stroke-width="1px" opacity="0.25"></line><line x1="0" y1="66.375" x2="299.21875" y2="66.375" fill="rgb(0, 0, 0)" stroke="rgb(66, 66, 66)" stroke-width="1px" opacity="0.25"></line><line x1="0" y1="44.25" x2="299.21875" y2="44.25" fill="rgb(0, 0, 0)" stroke="rgb(66, 66, 66)" stroke-width="1px" opacity="0.25"></line><line x1="0" y1="22.125" x2="299.21875" y2="22.125" fill="rgb(0, 0, 0)" stroke="rgb(66, 66, 66)" stroke-width="1px" opacity="0.25"></line><line x1="0" y1="0" x2="299.21875" y2="0" fill="rgb(0, 0, 0)" stroke="rgb(66, 66, 66)" stroke-width="1px" opacity="0.25"></line></g></g></g><g><g><line x1="0" y1="309.75" x2="299.21875" y2="309.75" fill="rgb(0, 0, 0)" stroke="rgb(153, 153, 153)" stroke-width="1.5px"></line></g></g><g><g><line x1="24.934895833333332" y1="0" x2="24.934895833333332" y2="177" fill="rgb(0, 0, 0)" stroke="rgb(153, 153, 153)" stroke-width="1.5px"></line></g></g><g><g><g><g><g><path stroke="rgb(255, 112, 67)" stroke-width="2px" d="M40.254895833333336,-11.395544709140093L42.80822916666667,22.38151580180119L45.361562500000005,11.062023358175022L47.91489583333333,43.53929055726615L50.46822916666667,69.71490403504166L53.0215625,82.04897240796933L55.574895833333336,78.86369335873886L58.12822916666667,65.14659877791952L60.681562500000005,72.24288189724136L63.23489583333334,41.850978052136L65.78822916666667,56.48388126351667L68.3415625,40.21657997050653L70.89489583333334,14.62213888796977L73.44822916666666,55.16340882198283L76.0015625,79.3162184326854L78.55489583333333,89.6821747698305L81.10822916666667,99.19139579896613L83.6615625,108.84552604351411L86.21489583333334,106.18916210443577L88.76822916666667,106.09643830775207L91.32156250000001,66.13023566482278L93.87489583333333,64.76999942060493L96.42822916666665,54.61860766689967L98.9815625,68.54599433893318L101.53489583333332,90.72130070066267L104.08822916666666,94.25032866494438L106.64156249999999,61.607772195745476L109.19489583333333,40.20734173472769L111.74822916666666,81.29910406840249L114.3015625,86.19136868053012L116.85489583333333,73.21947124433993L119.40822916666667,57.05417146002568L121.9615625,60.71451011607521L124.51489583333334,54.09638077727897L127.06822916666667,88.19267968807542L129.62156249999998,99.93389987413357L132.17489583333332,111.87019615811371L134.72822916666667,101.28310621134936L137.2815625,115.71406245858412L139.83489583333332,109.23495383526459L142.38822916666666,93.90185405730114L144.9415625,72.14822746331268L147.49489583333335,47.35147991692482L150.04822916666666,83.79713682563747L152.6015625,97.91631620087362L155.1548958333333,110.25729342088025L157.70822916666668,100.41623122559137L160.2615625,92.34531988538626L162.81489583333334,74.59141968388626L165.36822916666665,64.93739861665709L167.92156250000002,50.408748974901535L170.47489583333333,73.1557088556984L173.02822916666668,115.2247033276116L175.5815625,145.0442525719418L178.13489583333336,153.66681707947407L180.68822916666667,137.93992217212215L183.24156250000001,134.387372206624L185.79489583333333,123.5150054162594L188.34822916666664,123.4948721805723L190.9015625,122.83637128350206L193.45489583333332,97.12928630159527L196.00822916666667,95.6288194730653L198.56156249999998,102.14880037753427L201.11489583333335,133.37792322903067L203.66822916666666,133.70095366161578L206.2215625,119.14156190110151L208.77489583333332,131.05159008236473L211.3282291666667,117.75869886715259L213.8815625,136.43157308482554L216.43489583333334,136.58300581683773L218.98822916666666,109.45900306171212L221.5415625,140.08394406477234L224.09489583333334,128.2269973649956L226.64822916666665,103.77132753696307L229.2015625,76.35752480129163L231.75489583333334,84.66141810953474L234.30822916666668,87.32794827783022L236.8615625,128.3679509315724L239.41489583333333,126.95735908471555L241.96822916666667,122.37256565644152L244.52156250000002,114.90236930223588L247.07489583333333,118.40887172324828L249.62822916666667,148.87000040592773L252.18156249999998,156.18640310992015L254.73489583333335,118.7150060619665L257.28822916666667,118.55892645631748L259.8415625,127.30753497668815L262.39489583333335,156.2155846857352L264.94822916666664,163.03436625619668L267.5015625,160.5769157446619L270.0548958333333,149.7795934460876L272.60822916666666,163.45214322700008L275.1615625,156.74474868472757" style="fill: none;" fill="none"></path></g></g></g></g><g opacity="0.2"><g><g><g><path stroke="rgb(255, 112, 67)" stroke-width="2px" d="M30.0415625,-660.2729659080505L32.59489583333333,34.0020672082901L35.14822916666667,53.512096524238586L37.7015625,55.326489329338074L40.254895833333336,-0.50688636302948L42.80822916666667,69.10735023021698L45.361562500000005,-5.1250319480896L47.91489583333333,90.89145791530609L50.46822916666667,108.31884956359863L53.0215625,100.36362648010254L55.574895833333336,74.1146650314331L58.12822916666667,44.645604729652405L60.681562500000005,82.86413598060608L63.23489583333334,-3.677336812019348L65.78822916666667,78.41603565216064L68.3415625,15.827100992202759L70.89489583333334,-23.758692026138306L73.44822916666666,115.96502029895782L76.0015625,115.54175341129303L78.55489583333333,105.2301617860794L81.10822916666667,113.45470583438873L83.6615625,123.32640373706818L86.21489583333334,102.2046686410904L88.76822916666667,105.95735371112823L91.32156250000001,6.181215763092041L93.87489583333333,62.72965085506439L96.42822916666665,39.39154601097107L98.9815625,89.43705296516418L101.53489583333332,123.98423981666565L104.08822916666666,99.54386866092682L106.64156249999999,12.643948316574097L109.19489583333333,8.10670030117035L111.74822916666666,142.93674266338348L114.3015625,93.52976524829865L116.85489583333333,53.76162564754486L119.40822916666667,32.80622220039368L121.9615625,66.20501804351807L124.51489583333334,44.16918683052063L127.06822916666667,139.3371278643608L129.62156249999998,117.54573011398315L132.17489583333332,129.77464056015015L134.72822916666667,85.40247130393982L137.2815625,137.36049681901932L139.83489583333332,99.51629090309143L142.38822916666666,70.90220439434052L144.9415625,39.51778757572174L147.49489583333335,10.15635859966278L150.04822916666666,138.46562218666077L152.6015625,119.09508526325226L155.1548958333333,128.76875925064087L157.70822916666668,85.6546379327774L160.2615625,80.23895287513733L162.81489583333334,47.96056938171387L165.36822916666665,50.45636701583862L167.92156250000002,28.615774512290955L170.47489583333333,107.27614867687225L173.02822916666668,178.3281950354576L175.5815625,189.77357643842697L178.13489583333336,166.60066384077072L180.68822916666667,114.34957981109619L183.24156250000001,129.05854725837708L185.79489583333333,107.20645523071289L188.34822916666664,123.46467232704163L190.9015625,121.84861993789673L193.45489583333332,58.56865882873535L196.00822916666667,93.37811923027039L198.56156249999998,111.92877173423767L201.11489583333335,180.22160750627518L203.66822916666666,134.18549931049347L206.2215625,97.3024742603302L208.77489583333332,148.9166323542595L211.3282291666667,97.81936204433441L213.8815625,164.440884411335L216.43489583333334,136.81015491485596L218.98822916666666,68.77299892902374L221.5415625,186.02135556936264L224.09489583333334,110.4415773153305L226.64822916666665,67.08782279491425L229.2015625,35.236820697784424L231.75489583333334,97.11725807189941L234.30822916666668,91.32774353027344L236.8615625,189.92795491218567L239.41489583333333,124.84147131443024L241.96822916666667,115.49537551403046L244.52156250000002,103.69707477092743L247.07489583333333,123.66862535476685L249.62822916666667,194.5616934299469L252.18156249999998,167.1610071659088L254.73489583333335,62.50791049003601L257.28822916666667,118.32480704784393L259.8415625,140.4304477572441L262.39489583333335,199.57765924930573L264.94822916666664,173.26253861188889L267.5015625,156.89073997735977L270.0548958333333,133.58360999822617L272.60822916666666,183.96096789836884L275.1615625,146.68365687131882" style="fill: none;" fill="none"></path></g></g></g></g></g></g><g transform="translate(30, 177)" clip-path="url(#clip_1)"><clipPath id="clip_1"><rect width="299" height="23"></rect></clipPath><g><g><line x1="0" y1="0" x2="0" y2="5" style="visibility: inherit;" fill="rgb(0, 0, 0)" stroke="rgb(204, 204, 204)" stroke-width="1px"></line><line x1="24.934895833333332" y1="0" x2="24.934895833333332" y2="5" style="visibility: inherit;" fill="rgb(0, 0, 0)" stroke="rgb(204, 204, 204)" stroke-width="1px"></line><line x1="49.869791666666664" y1="0" x2="49.869791666666664" y2="5" style="visibility: inherit;" fill="rgb(0, 0, 0)" stroke="rgb(204, 204, 204)" stroke-width="1px"></line><line x1="74.8046875" y1="0" x2="74.8046875" y2="5" style="visibility: inherit;" fill="rgb(0, 0, 0)" stroke="rgb(204, 204, 204)" stroke-width="1px"></line><line x1="99.73958333333333" y1="0" x2="99.73958333333333" y2="5" style="visibility: inherit;" fill="rgb(0, 0, 0)" stroke="rgb(204, 204, 204)" stroke-width="1px"></line><line x1="124.67447916666667" y1="0" x2="124.67447916666667" y2="5" style="visibility: inherit;" fill="rgb(0, 0, 0)" stroke="rgb(204, 204, 204)" stroke-width="1px"></line><line x1="149.609375" y1="0" x2="149.609375" y2="5" style="visibility: inherit;" fill="rgb(0, 0, 0)" stroke="rgb(204, 204, 204)" stroke-width="1px"></line><line x1="174.54427083333334" y1="0" x2="174.54427083333334" y2="5" style="visibility: inherit;" fill="rgb(0, 0, 0)" stroke="rgb(204, 204, 204)" stroke-width="1px"></line><line x1="199.47916666666666" y1="0" x2="199.47916666666666" y2="5" style="visibility: inherit;" fill="rgb(0, 0, 0)" stroke="rgb(204, 204, 204)" stroke-width="1px"></line><line x1="224.4140625" y1="0" x2="224.4140625" y2="5" style="visibility: inherit;" fill="rgb(0, 0, 0)" stroke="rgb(204, 204, 204)" stroke-width="1px"></line><line x1="249.34895833333334" y1="0" x2="249.34895833333334" y2="5" style="visibility: inherit;" fill="rgb(0, 0, 0)" stroke="rgb(204, 204, 204)" stroke-width="1px"></line><line x1="274.28385416666663" y1="0" x2="274.28385416666663" y2="5" style="visibility: inherit;" fill="rgb(0, 0, 0)" stroke="rgb(204, 204, 204)" stroke-width="1px"></line><line x1="299.21875" y1="0" x2="299.21875" y2="5" style="visibility: inherit;" fill="rgb(0, 0, 0)" stroke="rgb(204, 204, 204)" stroke-width="1px"></line></g><g transform="translate(0, 8)"><text x="0" y="0" dx="0em" dy="0.95em" style="text-anchor: middle; visibility: hidden; font-family: Roboto, sans-serif; font-size: 12px; font-weight: 200;" fill="rgb(33, 33, 33)" stroke="none" stroke-width="1px">-20k</text><text x="24.934895833333332" y="0" dx="0em" dy="0.95em" style="text-anchor: middle; visibility: inherit; font-family: Roboto, sans-serif; font-size: 12px; font-weight: 200;" fill="rgb(33, 33, 33)" stroke="none" stroke-width="1px">0</text><text x="49.869791666666664" y="0" dx="0em" dy="0.95em" style="text-anchor: middle; visibility: hidden; font-family: Roboto, sans-serif; font-size: 12px; font-weight: 200;" fill="rgb(33, 33, 33)" stroke="none" stroke-width="1px">20k</text><text x="74.8046875" y="0" dx="0em" dy="0.95em" style="text-anchor: middle; visibility: inherit; font-family: Roboto, sans-serif; font-size: 12px; font-weight: 200;" fill="rgb(33, 33, 33)" stroke="none" stroke-width="1px">40k</text><text x="99.73958333333333" y="0" dx="0em" dy="0.95em" style="text-anchor: middle; visibility: hidden; font-family: Roboto, sans-serif; font-size: 12px; font-weight: 200;" fill="rgb(33, 33, 33)" stroke="none" stroke-width="1px">60k</text><text x="124.67447916666667" y="0" dx="0em" dy="0.95em" style="text-anchor: middle; visibility: inherit; font-family: Roboto, sans-serif; font-size: 12px; font-weight: 200;" fill="rgb(33, 33, 33)" stroke="none" stroke-width="1px">80k</text><text x="149.609375" y="0" dx="0em" dy="0.95em" style="text-anchor: middle; visibility: hidden; font-family: Roboto, sans-serif; font-size: 12px; font-weight: 200;" fill="rgb(33, 33, 33)" stroke="none" stroke-width="1px">100k</text><text x="174.54427083333334" y="0" dx="0em" dy="0.95em" style="text-anchor: middle; visibility: inherit; font-family: Roboto, sans-serif; font-size: 12px; font-weight: 200;" fill="rgb(33, 33, 33)" stroke="none" stroke-width="1px">120k</text><text x="199.47916666666666" y="0" dx="0em" dy="0.95em" style="text-anchor: middle; visibility: hidden; font-family: Roboto, sans-serif; font-size: 12px; font-weight: 200;" fill="rgb(33, 33, 33)" stroke="none" stroke-width="1px">140k</text><text x="224.4140625" y="0" dx="0em" dy="0.95em" style="text-anchor: middle; visibility: inherit; font-family: Roboto, sans-serif; font-size: 12px; font-weight: 200;" fill="rgb(33, 33, 33)" stroke="none" stroke-width="1px">160k</text><text x="249.34895833333334" y="0" dx="0em" dy="0.95em" style="text-anchor: middle; visibility: hidden; font-family: Roboto, sans-serif; font-size: 12px; font-weight: 200;" fill="rgb(33, 33, 33)" stroke="none" stroke-width="1px">180k</text><text x="274.28385416666663" y="0" dx="0em" dy="0.95em" style="text-anchor: middle; visibility: inherit; font-family: Roboto, sans-serif; font-size: 12px; font-weight: 200;" fill="rgb(33, 33, 33)" stroke="none" stroke-width="1px">200k</text><text x="299.21875" y="0" dx="0em" dy="0.95em" style="text-anchor: middle; visibility: hidden; font-family: Roboto, sans-serif; font-size: 12px; font-weight: 200;" fill="rgb(33, 33, 33)" stroke="none" stroke-width="1px">220k</text></g><line x1="0" y1="0" x2="299.21875" y2="0" fill="rgb(0, 0, 0)" stroke="rgb(204, 204, 204)" stroke-width="1px"></line></g></g></g></g></svg>