<svg viewBox="0 0 330 200" xmlns="http://www.w3.org/2000/svg"><g><g><g><g><g><line x1="61.953125" y1="177" x2="56.953125" y2="177" style="visibility: inherit;" fill="rgb(0, 0, 0)" stroke="rgb(204, 204, 204)" stroke-width="1px"></line><line x1="61.953125" y1="160.9090909090909" x2="56.953125" y2="160.9090909090909" style="visibility: inherit;" fill="rgb(0, 0, 0)" stroke="rgb(204, 204, 204)" stroke-width="1px"></line><line x1="61.953125" y1="144.8181818181818" x2="56.953125" y2="144.8181818181818" style="visibility: inherit;" fill="rgb(0, 0, 0)" stroke="rgb(204, 204, 204)" stroke-width="1px"></line><line x1="61.953125" y1="128.7272727272727" x2="56.953125" y2="128.7272727272727" style="visibility: inherit;" fill="rgb(0, 0, 0)" stroke="rgb(204, 204, 204)" stroke-width="1px"></line><line x1="61.953125" y1="112.6363636363636" x2="56.953125" y2="112.6363636363636" style="visibility: inherit;" fill="rgb(0, 0, 0)" stroke="rgb(204, 204, 204)" stroke-width="1px"></line><line x1="61.953125" y1="96.54545454545462" x2="56.953125" y2="96.54545454545462" style="visibility: inherit;" fill="rgb(0, 0, 0)" stroke="rgb(204, 204, 204)" stroke-width="1px"></line><line x1="61.953125" y1="80.4545454545455" x2="56.953125" y2="80.4545454545455" style="visibility: inherit;" fill="rgb(0, 0, 0)" stroke="rgb(204, 204, 204)" stroke-width="1px"></line><line x1="61.953125" y1="64.3636363636364" x2="56.953125" y2="64.3636363636364" style="visibility: inherit;" fill="rgb(0, 0, 0)" stroke="rgb(204, 204, 204)" stroke-width="1px"></line><line x1="61.953125" y1="48.27272727272731" x2="56.953125" y2="48.27272727272731" style="visibility: inherit;" fill="rgb(0, 0, 0)" stroke="rgb(204, 204, 204)" stroke-width="1px"></line><line x1="61.953125" y1="32.181818181818194" x2="56.953125" y2="32.181818181818194" style="visibility: inherit;" fill="rgb(0, 0, 0)" stroke="rgb(204, 204, 204)" stroke-width="1px"></line><line x1="61.953125" y1="16.090909090909097" x2="56.953125" y2="16.090909090909097" style="visibility: inherit;" fill="rgb(0, 0, 0)" stroke="rgb(204, 204, 204)" stroke-width="1px"></line><line x1="61.953125" y1="0" x2="56.953125" y2="0" style="visibility: inherit;" fill="rgb(0, 0, 0)" stroke="rgb(204, 204, 204)" stroke-width="1px"></line></g><g transform="translate(51.953125, 0)"><text x="0" y="177" dx="0em" dy="0.3em" style="text-anchor: end; visibility: hidden; font-family: Roboto, sans-serif; font-size: 12px; font-weight: 200;" fill="rgb(33, 33, 33)" stroke="none" stroke-width="1px">0.076</text><text x="0" y="160.9090909090909" dx="0em" dy="0.3em" style="text-anchor: end; visibility: inherit; font-family: Roboto, sans-serif; font-size: 12px; font-weight: 200;" fill="rgb(33, 33, 33)" stroke="none" stroke-width="1px">0.078</text><text x="0" y="144.8181818181818" dx="0em" dy="0.3em" style="text-anchor: end; visibility: hidden; font-family: Roboto, sans-serif; font-size: 12px; font-weight: 200;" fill="rgb(33, 33, 33)" stroke="none" stroke-width="1px">0.08</text><text x="0" y="128.7272727272727" dx="0em" dy="0.3em" style="text-anchor: end; visibility: inherit; font-family: Roboto, sans-serif; font-size: 12px; font-weight: 200;" fill="rgb(33, 33, 33)" stroke="none" stroke-width="1px">0.082</text><text x="0" y="112.6363636363636" dx="0em" dy="0.3em" style="text-anchor: end; visibility: hidden; font-family: Roboto, sans-serif; font-size: 12px; font-weight: 200;" fill="rgb(33, 33, 33)" stroke="none" stroke-width="1px">0.084</text><text x="0" y="96.54545454545462" dx="0em" dy="0.3em" style="text-anchor: end; visibility: inherit; font-family: Roboto, sans-serif; font-size: 12px; font-weight: 200;" fill="rgb(33, 33, 33)" stroke="none" stroke-width="1px">0.086</text><text x="0" y="80.4545454545455" dx="0em" dy="0.3em" style="text-anchor: end; visibility: hidden; font-family: Roboto, sans-serif; font-size: 12px; font-weight: 200;" fill="rgb(33, 33, 33)" stroke="none" stroke-width="1px">0.088</text><text x="0" y="64.3636363636364" dx="0em" dy="0.3em" style="text-anchor: end; visibility: inherit; font-family: Roboto, sans-serif; font-size: 12px; font-weight: 200;" fill="rgb(33, 33, 33)" stroke="none" stroke-width="1px">0.09</text><text x="0" y="48.27272727272731" dx="0em" dy="0.3em" style="text-anchor: end; visibility: hidden; font-family: Roboto, sans-serif; font-size: 12px; font-weight: 200;" fill="rgb(33, 33, 33)" stroke="none" stroke-width="1px">0.092</text><text x="0" y="32.181818181818194" dx="0em" dy="0.3em" style="text-anchor: end; visibility: inherit; font-family: Roboto, sans-serif; font-size: 12px; font-weight: 200;" fill="rgb(33, 33, 33)" stroke="none" stroke-width="1px">0.094</text><text x="0" y="16.090909090909097" dx="0em" dy="0.3em" style="text-anchor: end; visibility: hidden; font-family: Roboto, sans-serif; font-size: 12px; font-weight: 200;" fill="rgb(33, 33, 33)" stroke="none" stroke-width="1px">0.096</text><text x="0" y="0" dx="0em" dy="0.3em" style="text-anchor: end; visibility: hidden; font-family: Roboto, sans-serif; font-size: 12px; font-weight: 200;" fill="rgb(33, 33, 33)" stroke="none" stroke-width="1px">0.098</text></g><line x1="61.953125" y1="0" x2="61.953125" y2="177" fill="rgb(0, 0, 0)" stroke="rgb(204, 204, 204)" stroke-width="1px"></line></g></g><g transform="translate(61, 0)" clip-path="url(#clip_0)"><clipPath id="clip_0"><rect width="268" height="177"></rect></clipPath><g><g><g><line x1="0" y1="0" x2="0" y2="177" fill="rgb(0, 0, 0)" stroke="rgb(66, 66, 66)" stroke-width="1px" opacity="0.25"></line><line x1="22.337239583333332" y1="0" x2="22.337239583333332" y2="177" fill="rgb(0, 0, 0)" stroke="rgb(66, 66, 66)" stroke-width="1px" opacity="0.25"></line><line x1="44.674479166666664" y1="0" x2="44.674479166666664" y2="177" fill="rgb(0, 0, 0)" stroke="rgb(66, 66, 66)" stroke-width="1px" opacity="0.25"></line><line x1="67.01171875" y1="0" x2="67.01171875" y2="177" fill="rgb(0, 0, 0)" stroke="rgb(66, 66, 66)" stroke-width="1px" opacity="0.25"></line><line x1="89.34895833333333" y1="0" x2="89.34895833333333" y2="177" fill="rgb(0, 0, 0)" stroke="rgb(66, 66, 66)" stroke-width="1px" opacity="0.25"></line><line x1="111.68619791666667" y1="0" x2="111.68619791666667" y2="177" fill="rgb(0, 0, 0)" stroke="rgb(66, 66, 66)" stroke-width="1px" opacity="0.25"></line><line x1="134.0234375" y1="0" x2="134.0234375" y2="177" fill="rgb(0, 0, 0)" stroke="rgb(66, 66, 66)" stroke-width="1px" opacity="0.25"></line><line x1="156.36067708333334" y1="0" x2="156.36067708333334" y2="177" fill="rgb(0, 0, 0)" stroke="rgb(66, 66, 66)" stroke-width="1px" opacity="0.25"></line><line x1="178.69791666666666" y1="0" x2="178.69791666666666" y2="177" fill="rgb(0, 0, 0)" stroke="rgb(66, 66, 66)" stroke-width="1px" opacity="0.25"></line><line x1="201.03515625" y1="0" x2="201.03515625" y2="177" fill="rgb(0, 0, 0)" stroke="rgb(66, 66, 66)" stroke-width="1px" opacity="0.25"></line><line x1="223.37239583333334" y1="0" x2="223.37239583333334" y2="177" fill="rgb(0, 0, 0)" stroke="rgb(66, 66, 66)" stroke-width="1px" opacity="0.25"></line><line x1="245.70963541666666" y1="0" x2="245.70963541666666" y2="177" fill="rgb(0, 0, 0)" stroke="rgb(66, 66, 66)" stroke-width="1px" opacity="0.25"></line><line x1="268.046875" y1="0" x2="268.046875" y2="177" fill="rgb(0, 0, 0)" stroke="rgb(66, 66, 66)" stroke-width="1px" opacity="0.25"></line></g><g><line x1="0" y1="177" x2="268.046875" y2="177" fill="rgb(0, 0, 0)" stroke="rgb(66, 66, 66)" stroke-width="1px" opacity="0.25"></line><line x1="0" y1="160.9090909090909" x2="268.046875" y2="160.9090909090909" fill="rgb(0, 0, 0)" stroke="rgb(66, 66, 66)" stroke-width="1px" opacity="0.25"></line><line x1="0" y1="144.8181818181818" x2="268.046875" y2="144.8181818181818" fill="rgb(0, 0, 0)" stroke="rgb(66, 66, 66)" stroke-width="1px" opacity="0.25"></line><line x1="0" y1="128.7272727272727" x2="268.046875" y2="128.7272727272727" fill="rgb(0, 0, 0)" stroke="rgb(66, 66, 66)" stroke-width="1px" opacity="0.25"></line><line x1="0" y1="112.6363636363636" x2="268.046875" y2="112.6363636363636" fill="rgb(0, 0, 0)" stroke="rgb(66, 66, 66)" stroke-width="1px" opacity="0.25"></line><line x1="0" y1="96.54545454545462" x2="268.046875" y2="96.54545454545462" fill="rgb(0, 0, 0)" stroke="rgb(66, 66, 66)" stroke-width="1px" opacity="0.25"></line><line x1="0" y1="80.4545454545455" x2="268.046875" y2="80.4545454545455" fill="rgb(0, 0, 0)" stroke="rgb(66, 66, 66)" stroke-width="1px" opacity="0.25"></line><line x1="0" y1="64.3636363636364" x2="268.046875" y2="64.3636363636364" fill="rgb(0, 0, 0)" stroke="rgb(66, 66, 66)" stroke-width="1px" opacity="0.25"></line><line x1="0" y1="48.27272727272731" x2="268.046875" y2="48.27272727272731" fill="rgb(0, 0, 0)" stroke="rgb(66, 66, 66)" stroke-width="1px" opacity="0.25"></line><line x1="0" y1="32.181818181818194" x2="268.046875" y2="32.181818181818194" fill="rgb(0, 0, 0)" stroke="rgb(66, 66, 66)" stroke-width="1px" opacity="0.25"></line><line x1="0" y1="16.090909090909097" x2="268.046875" y2="16.090909090909097" fill="rgb(0, 0, 0)" stroke="rgb(66, 66, 66)" stroke-width="1px" opacity="0.25"></line><line x1="0" y1="0" x2="268.046875" y2="0" fill="rgb(0, 0, 0)" stroke="rgb(66, 66, 66)" stroke-width="1px" opacity="0.25"></line></g></g></g><g><g><line x1="0" y1="788.4545454545453" x2="268.046875" y2="788.4545454545453" fill="rgb(0, 0, 0)" stroke="rgb(153, 153, 153)" stroke-width="1.5px"></line></g></g><g><g><line x1="22.337239583333332" y1="0" x2="22.337239583333332" y2="177" fill="rgb(0, 0, 0)" stroke="rgb(153, 153, 153)" stroke-width="1.5px"></line></g></g><g><g><g><g><g><path stroke="rgb(255, 112, 67)" stroke-width="2px" d="M26.91190625,275.00684792616147L29.19923958333333,151.7519060227681L31.486572916666667,121.63714907988779L33.77390625,122.97458409393502L36.06123958333333,116.84127613393701L38.34857291666667,128.31598182165555L40.635906250000005,127.89677679655618L42.92323958333333,110.0724523845717L45.21057291666666,59.728315615935614L47.49790625,40.75697150865934L49.785239583333336,80.2304477991593L52.072572916666665,65.39742697861207L54.35990625,77.6022966280478L56.64723958333334,76.26565243586131L58.93457291666666,112.40908673205843L61.221906249999996,93.05974728702496L63.50923958333333,73.90974239338568L65.79657291666666,43.406201509094615L68.08390625,55.7497949834286L70.37123958333333,59.698316808816664L72.65857291666667,50.753173651590814L74.94590625000001,-0.6557682009338102L77.23323958333334,2.441338754158686L79.52057291666667,-36.55643018151242L81.80790625,21.44261111356277L84.09523958333332,11.614733142209953L86.38257291666666,13.889185429104915L88.66990625,30.02483047310759L90.95723958333333,15.349845649518036L93.24457291666667,27.287045505997067L95.53190624999999,102.96143229590355L97.81923958333333,83.93956134090848L100.10657291666666,72.21216894907448L102.39390625,75.23256672873008L104.68123958333334,79.08757738757919L106.96857291666667,109.99967992186282L109.25590625000001,107.96188180414283L111.54323958333335,106.11066139381366L113.83057291666667,71.37242889524785L116.11790624999999,86.5140564369549L118.40523958333333,85.38507697492395L120.69257291666666,101.52142740863884L122.97990625,40.1769640297637L125.26723958333334,35.583531757991636L127.55457291666667,74.15469043378418L129.84190625,104.99715144402236L132.12923958333334,132.45947694698646L134.41657291666667,98.18136319013946L136.70390625,93.32827334582655L138.9912395833333,91.8306738825039L141.27857291666666,115.60274151144594L143.56590624999998,166.63621397518787L145.85323958333333,144.1437216350533L148.14057291666666,142.74785478786887L150.42790625,187.4802920659514L152.71523958333333,118.46570613729219L155.00257291666668,48.61500606872323L157.28990625,6.547438652571714L159.57723958333335,67.41840868017438L161.86457291666667,67.95644773084206L164.15190625000002,91.37852062714227L166.43923958333335,71.33287001265867L168.72657291666664,75.1763814507569L171.01390625,118.4954595522726L173.3012395833333,148.57249839047466L175.58857291666666,140.69098731839574L177.87590624999999,176.6607571637649L180.16323958333334,117.47380763918812L182.45057291666666,139.15978174260374L184.73790625,127.65786229554212L187.02523958333333,105.98576851368898L189.31257291666668,124.88148721049615L191.59990625,87.97762350813599L193.88723958333335,110.93384452534623L196.17457291666668,146.23544876066228L198.46190625,118.38942746095287L200.74923958333335,147.8803136129254L203.03657291666664,145.1469333722906L205.32390625,138.47850093246524L207.61123958333332,142.6486014458327L209.89857291666667,146.25062144702494L212.18590625,73.92853337957867L214.47323958333334,100.14732368684815L216.76057291666666,120.43558401891703L219.04790625,147.69377708181483L221.33523958333333,121.15007306727075L223.62257291666668,82.91029011309986L225.90990625,111.03620017014268L228.19723958333336,157.2965070339038L230.48457291666668,95.3270068453222L232.77190625,104.97237118672868L235.05923958333332,54.97567643929987L237.34657291666664,108.26068515902435L239.63390625,149.81710481133373L241.92123958333332,170.82251200044664L244.20857291666667,149.79825613206614L246.49590625,157.61161454285596" style="fill: none;" fill="none"></path></g></g></g></g><g opacity="0.2"><g><g><g><path stroke="rgb(255, 112, 67)" stroke-width="2px" d="M26.91190625,275.00684792616147L29.19923958333333,77.79894088073212L31.486572916666667,92.72698241472244L33.77390625,124.54740767045453L36.06123958333333,108.83362926136364L38.34857291666667,144.1896306818182L40.635906250000005,127.29730690338396L42.92323958333333,84.08441627838396L45.21057291666666,-14.519507272676941L47.49790625,12.586736505681847L49.785239583333336,139.08264071020213L52.072572916666665,43.22861639207063L54.35990625,95.86975008520214L56.64723958333334,74.26330477270214L58.93457291666666,166.5817529261112L61.221906249999996,64.04938477277757L63.50923958333333,45.19283869320697L65.79657291666666,-2.3413649716160085L68.08390625,74.26330477270214L70.37123958333333,65.62073863636365L72.65857291666667,37.33594948866153L74.94590625000001,-77.76748934659085L77.23323958333334,7.086938039823039L79.52057291666667,-95.05262161926782L81.80790625,108.44076082381336L84.09523958333332,-3.1270419034090766L86.38257291666666,17.300858039747606L88.66990625,54.22827326709575L90.95723958333333,-6.662618068131519L93.24457291666667,45.19283869320697L95.53190624999999,216.47298738631332L97.81923958333333,55.40675869313156L100.10657291666666,54.62108176133851L102.39390625,79.76316318186848L104.68123958333334,84.870093210177L106.96857291666667,156.36783292618662L109.25590625000001,104.90518465909092L111.54323958333335,103.33383079550482L113.83057291666667,19.265080340883973L116.11790624999999,109.22649769891392L118.40523958333333,83.69160778414121L120.69257291666666,125.72595303979786L122.97990625,-51.83973099426787L125.26723958333334,28.69338335232304L127.55457291666667,132.01142843744972L129.84190625,151.2608429545706L132.12923958333334,173.65296519886363L134.41657291666667,46.76419255679305L136.70390625,86.04863857952031L138.9912395833333,89.58427468755029L141.27857291666666,151.2608429545706L143.56590624999998,243.18642267042938L145.85323958333333,110.40498312494971L148.14057291666666,140.65405451709574L150.42790625,254.57894798300478L152.71523958333333,14.943827244368501L155.00257291666668,-56.16104403409084L157.28990625,-56.553912471641134L159.57723958333335,158.72486372156575L161.86457291666667,68.76350630684334L164.15190625000002,126.5116299715909L166.43923958333335,41.26439409093426L168.72657291666664,80.94164860790427L171.01390625,183.4740767045454L173.3012395833333,193.68805664777756L175.58857291666666,128.86872071027756L177.87590624999999,230.61541193181816L180.16323958333334,28.69338335232304L182.45057291666666,171.68874289772725L184.73790625,110.40498312494971L187.02523958333333,73.4776278409091L189.31257291666668,153.22506525570697L191.59990625,32.62182795459577L193.88723958333335,145.3681760511615L196.17457291666668,199.18785511363635L198.46190625,76.6203955113888L200.74923958333335,192.1166428408839L203.03657291666664,141.0468630113385L205.32390625,128.47585227272728L207.61123958333332,148.90375221588394L209.89857291666667,151.65365144881335L212.18590625,-34.554598721590885L214.47323958333334,139.4755091477524L216.76057291666666,150.8679745170203L219.04790625,188.58106667616147L221.33523958333333,81.33451704545456L223.62257291666668,25.550615681843357L225.90990625,153.22506525570697L228.19723958333336,226.6869673295454L230.48457291666668,2.372756562449751L232.77190625,119.44041769883849L235.05923958333332,-20.01936568184328L241.92123958333332,202.330622784116L244.20857291666667,118.26187232949518L246.49590625,169.33165215904063" style="fill: none;" fill="none"></path></g></g></g></g></g></g><g transform="translate(61, 177)" clip-path="url(#clip_1)"><clipPath id="clip_1"><rect width="268" height="23"></rect></clipPath><g><g><line x1="0" y1="0" x2="0" y2="5" style="visibility: inherit;" fill="rgb(0, 0, 0)" stroke="rgb(204, 204, 204)" stroke-width="1px"></line><line x1="22.337239583333332" y1="0" x2="22.337239583333332" y2="5" style="visibility: inherit;" fill="rgb(0, 0, 0)" stroke="rgb(204, 204, 204)" stroke-width="1px"></line><line x1="44.674479166666664" y1="0" x2="44.674479166666664" y2="5" style="visibility: inherit;" fill="rgb(0, 0, 0)" stroke="rgb(204, 204, 204)" stroke-width="1px"></line><line x1="67.01171875" y1="0" x2="67.01171875" y2="5" style="visibility: inherit;" fill="rgb(0, 0, 0)" stroke="rgb(204, 204, 204)" stroke-width="1px"></line><line x1="89.34895833333333" y1="0" x2="89.34895833333333" y2="5" style="visibility: inherit;" fill="rgb(0, 0, 0)" stroke="rgb(204, 204, 204)" stroke-width="1px"></line><line x1="111.68619791666667" y1="0" x2="111.68619791666667" y2="5" style="visibility: inherit;" fill="rgb(0, 0, 0)" stroke="rgb(204, 204, 204)" stroke-width="1px"></line><line x1="134.0234375" y1="0" x2="134.0234375" y2="5" style="visibility: inherit;" fill="rgb(0, 0, 0)" stroke="rgb(204, 204, 204)" stroke-width="1px"></line><line x1="156.36067708333334" y1="0" x2="156.36067708333334" y2="5" style="visibility: inherit;" fill="rgb(0, 0, 0)" stroke="rgb(204, 204, 204)" stroke-width="1px"></line><line x1="178.69791666666666" y1="0" x2="178.69791666666666" y2="5" style="visibility: inherit;" fill="rgb(0, 0, 0)" stroke="rgb(204, 204, 204)" stroke-width="1px"></line><line x1="201.03515625" y1="0" x2="201.03515625" y2="5" style="visibility: inherit;" fill="rgb(0, 0, 0)" stroke="rgb(204, 204, 204)" stroke-width="1px"></line><line x1="223.37239583333334" y1="0" x2="223.37239583333334" y2="5" style="visibility: inherit;" fill="rgb(0, 0, 0)" stroke="rgb(204, 204, 204)" stroke-width="1px"></line><line x1="245.70963541666666" y1="0" x2="245.70963541666666" y2="5" style="visibility: inherit;" fill="rgb(0, 0, 0)" stroke="rgb(204, 204, 204)" stroke-width="1px"></line><line x1="268.046875" y1="0" x2="268.046875" y2="5" style="visibility: inherit;" fill="rgb(0, 0, 0)" stroke="rgb(204, 204, 204)" stroke-width="1px"></line></g><g transform="translate(0, 8)"><text x="0" y="0" dx="0em" dy="0.95em" style="text-anchor: middle; visibility: hidden; font-family: Roboto, sans-serif; font-size: 12px; font-weight: 200;" fill="rgb(33, 33, 33)" stroke="none" stroke-width="1px">-20k</text><text x="22.337239583333332" y="0" dx="0em" dy="0.95em" style="text-anchor: middle; visibility: inherit; font-family: Roboto, sans-serif; font-size: 12px; font-weight: 200;" fill="rgb(33, 33, 33)" stroke="none" stroke-width="1px">0</text><text x="44.674479166666664" y="0" dx="0em" dy="0.95em" style="text-anchor: middle; visibility: hidden; font-family: Roboto, sans-serif; font-size: 12px; font-weight: 200;" fill="rgb(33, 33, 33)" stroke="none" stroke-width="1px">20k</text><text x="67.01171875" y="0" dx="0em" dy="0.95em" style="text-anchor: middle; visibility: inherit; font-family: Roboto, sans-serif; font-size: 12px; font-weight: 200;" fill="rgb(33, 33, 33)" stroke="none" stroke-width="1px">40k</text><text x="89.34895833333333" y="0" dx="0em" dy="0.95em" style="text-anchor: middle; visibility: hidden; font-family: Roboto, sans-serif; font-size: 12px; font-weight: 200;" fill="rgb(33, 33, 33)" stroke="none" stroke-width="1px">60k</text><text x="111.68619791666667" y="0" dx="0em" dy="0.95em" style="text-anchor: middle; visibility: inherit; font-family: Roboto, sans-serif; font-size: 12px; font-weight: 200;" fill="rgb(33, 33, 33)" stroke="none" stroke-width="1px">80k</text><text x="134.0234375" y="0" dx="0em" dy="0.95em" style="text-anchor: middle; visibility: hidden; font-family: Roboto, sans-serif; font-size: 12px; font-weight: 200;" fill="rgb(33, 33, 33)" stroke="none" stroke-width="1px">100k</text><text x="156.36067708333334" y="0" dx="0em" dy="0.95em" style="text-anchor: middle; visibility: inherit; font-family: Roboto, sans-serif; font-size: 12px; font-weight: 200;" fill="rgb(33, 33, 33)" stroke="none" stroke-width="1px">120k</text><text x="178.69791666666666" y="0" dx="0em" dy="0.95em" style="text-anchor: middle; visibility: hidden; font-family: Roboto, sans-serif; font-size: 12px; font-weight: 200;" fill="rgb(33, 33, 33)" stroke="none" stroke-width="1px">140k</text><text x="201.03515625" y="0" dx="0em" dy="0.95em" style="text-anchor: middle; visibility: inherit; font-family: Roboto, sans-serif; font-size: 12px; font-weight: 200;" fill="rgb(33, 33, 33)" stroke="none" stroke-width="1px">160k</text><text x="223.37239583333334" y="0" dx="0em" dy="0.95em" style="text-anchor: middle; visibility: hidden; font-family: Roboto, sans-serif; font-size: 12px; font-weight: 200;" fill="rgb(33, 33, 33)" stroke="none" stroke-width="1px">180k</text><text x="245.70963541666666" y="0" dx="0em" dy="0.95em" style="text-anchor: middle; visibility: inherit; font-family: Roboto, sans-serif; font-size: 12px; font-weight: 200;" fill="rgb(33, 33, 33)" stroke="none" stroke-width="1px">200k</text><text x="268.046875" y="0" dx="0em" dy="0.95em" style="text-anchor: middle; visibility: hidden; font-family: Roboto, sans-serif; font-size: 12px; font-weight: 200;" fill="rgb(33, 33, 33)" stroke="none" stroke-width="1px">220k</text></g><line x1="0" y1="0" x2="268.046875" y2="0" fill="rgb(0, 0, 0)" stroke="rgb(204, 204, 204)" stroke-width="1px"></line></g></g></g></g></svg>