<svg viewBox="0 0 330 200" xmlns="http://www.w3.org/2000/svg"><g><g><g><g><g><line x1="82.734375" y1="177" x2="77.734375" y2="177" style="visibility: inherit;" fill="rgb(0, 0, 0)" stroke="rgb(204, 204, 204)" stroke-width="1px"></line><line x1="82.734375" y1="159.29999999999998" x2="77.734375" y2="159.29999999999998" style="visibility: inherit;" fill="rgb(0, 0, 0)" stroke="rgb(204, 204, 204)" stroke-width="1px"></line><line x1="82.734375" y1="141.59999999999997" x2="77.734375" y2="141.59999999999997" style="visibility: inherit;" fill="rgb(0, 0, 0)" stroke="rgb(204, 204, 204)" stroke-width="1px"></line><line x1="82.734375" y1="123.89999999999995" x2="77.734375" y2="123.89999999999995" style="visibility: inherit;" fill="rgb(0, 0, 0)" stroke="rgb(204, 204, 204)" stroke-width="1px"></line><line x1="82.734375" y1="106.19999999999993" x2="77.734375" y2="106.19999999999993" style="visibility: inherit;" fill="rgb(0, 0, 0)" stroke="rgb(204, 204, 204)" stroke-width="1px"></line><line x1="82.734375" y1="88.49999999999994" x2="77.734375" y2="88.49999999999994" style="visibility: inherit;" fill="rgb(0, 0, 0)" stroke="rgb(204, 204, 204)" stroke-width="1px"></line><line x1="82.734375" y1="70.80000000000004" x2="77.734375" y2="70.80000000000004" style="visibility: inherit;" fill="rgb(0, 0, 0)" stroke="rgb(204, 204, 204)" stroke-width="1px"></line><line x1="82.734375" y1="53.10000000000003" x2="77.734375" y2="53.10000000000003" style="visibility: inherit;" fill="rgb(0, 0, 0)" stroke="rgb(204, 204, 204)" stroke-width="1px"></line><line x1="82.734375" y1="35.400000000000034" x2="77.734375" y2="35.400000000000034" style="visibility: inherit;" fill="rgb(0, 0, 0)" stroke="rgb(204, 204, 204)" stroke-width="1px"></line><line x1="82.734375" y1="17.700000000000017" x2="77.734375" y2="17.700000000000017" style="visibility: inherit;" fill="rgb(0, 0, 0)" stroke="rgb(204, 204, 204)" stroke-width="1px"></line><line x1="82.734375" y1="0" x2="77.734375" y2="0" style="visibility: inherit;" fill="rgb(0, 0, 0)" stroke="rgb(204, 204, 204)" stroke-width="1px"></line></g><g transform="translate(72.734375, 0)"><text x="0" y="177" dx="0em" dy="0.3em" style="text-anchor: end; visibility: hidden; font-family: Roboto, sans-serif; font-size: 12px; font-weight: 200;" fill="rgb(33, 33, 33)" stroke="none" stroke-width="1px">-0.0205</text><text x="0" y="159.29999999999998" dx="0em" dy="0.3em" style="text-anchor: end; visibility: inherit; font-family: Roboto, sans-serif; font-size: 12px; font-weight: 200;" fill="rgb(33, 33, 33)" stroke="none" stroke-width="1px">-0.02</text><text x="0" y="141.59999999999997" dx="0em" dy="0.3em" style="text-anchor: end; visibility: hidden; font-family: Roboto, sans-serif; font-size: 12px; font-weight: 200;" fill="rgb(33, 33, 33)" stroke="none" stroke-width="1px">-0.0195</text><text x="0" y="123.89999999999995" dx="0em" dy="0.3em" style="text-anchor: end; visibility: inherit; font-family: Roboto, sans-serif; font-size: 12px; font-weight: 200;" fill="rgb(33, 33, 33)" stroke="none" stroke-width="1px">-0.019</text><text x="0" y="106.19999999999993" dx="0em" dy="0.3em" style="text-anchor: end; visibility: hidden; font-family: Roboto, sans-serif; font-size: 12px; font-weight: 200;" fill="rgb(33, 33, 33)" stroke="none" stroke-width="1px">-0.0185</text><text x="0" y="88.49999999999994" dx="0em" dy="0.3em" style="text-anchor: end; visibility: inherit; font-family: Roboto, sans-serif; font-size: 12px; font-weight: 200;" fill="rgb(33, 33, 33)" stroke="none" stroke-width="1px">-0.018</text><text x="0" y="70.80000000000004" dx="0em" dy="0.3em" style="text-anchor: end; visibility: hidden; font-family: Roboto, sans-serif; font-size: 12px; font-weight: 200;" fill="rgb(33, 33, 33)" stroke="none" stroke-width="1px">-0.0175</text><text x="0" y="53.10000000000003" dx="0em" dy="0.3em" style="text-anchor: end; visibility: inherit; font-family: Roboto, sans-serif; font-size: 12px; font-weight: 200;" fill="rgb(33, 33, 33)" stroke="none" stroke-width="1px">-0.017</text><text x="0" y="35.400000000000034" dx="0em" dy="0.3em" style="text-anchor: end; visibility: hidden; font-family: Roboto, sans-serif; font-size: 12px; font-weight: 200;" fill="rgb(33, 33, 33)" stroke="none" stroke-width="1px">-0.0165</text><text x="0" y="17.700000000000017" dx="0em" dy="0.3em" style="text-anchor: end; visibility: inherit; font-family: Roboto, sans-serif; font-size: 12px; font-weight: 200;" fill="rgb(33, 33, 33)" stroke="none" stroke-width="1px">-0.016</text><text x="0" y="0" dx="0em" dy="0.3em" style="text-anchor: end; visibility: hidden; font-family: Roboto, sans-serif; font-size: 12px; font-weight: 200;" fill="rgb(33, 33, 33)" stroke="none" stroke-width="1px">-0.0155</text></g><line x1="82.734375" y1="0" x2="82.734375" y2="177" fill="rgb(0, 0, 0)" stroke="rgb(204, 204, 204)" stroke-width="1px"></line></g></g><g transform="translate(82, 0)" clip-path="url(#clip_0)"><clipPath id="clip_0"><rect width="247" height="177"></rect></clipPath><g><g><g><line x1="0" y1="0" x2="0" y2="177" fill="rgb(0, 0, 0)" stroke="rgb(66, 66, 66)" stroke-width="1px" opacity="0.25"></line><line x1="20.60546875" y1="0" x2="20.60546875" y2="177" fill="rgb(0, 0, 0)" stroke="rgb(66, 66, 66)" stroke-width="1px" opacity="0.25"></line><line x1="41.2109375" y1="0" x2="41.2109375" y2="177" fill="rgb(0, 0, 0)" stroke="rgb(66, 66, 66)" stroke-width="1px" opacity="0.25"></line><line x1="61.81640625" y1="0" x2="61.81640625" y2="177" fill="rgb(0, 0, 0)" stroke="rgb(66, 66, 66)" stroke-width="1px" opacity="0.25"></line><line x1="82.421875" y1="0" x2="82.421875" y2="177" fill="rgb(0, 0, 0)" stroke="rgb(66, 66, 66)" stroke-width="1px" opacity="0.25"></line><line x1="103.02734375" y1="0" x2="103.02734375" y2="177" fill="rgb(0, 0, 0)" stroke="rgb(66, 66, 66)" stroke-width="1px" opacity="0.25"></line><line x1="123.6328125" y1="0" x2="123.6328125" y2="177" fill="rgb(0, 0, 0)" stroke="rgb(66, 66, 66)" stroke-width="1px" opacity="0.25"></line><line x1="144.23828125" y1="0" x2="144.23828125" y2="177" fill="rgb(0, 0, 0)" stroke="rgb(66, 66, 66)" stroke-width="1px" opacity="0.25"></line><line x1="164.84375" y1="0" x2="164.84375" y2="177" fill="rgb(0, 0, 0)" stroke="rgb(66, 66, 66)" stroke-width="1px" opacity="0.25"></line><line x1="185.44921875" y1="0" x2="185.44921875" y2="177" fill="rgb(0, 0, 0)" stroke="rgb(66, 66, 66)" stroke-width="1px" opacity="0.25"></line><line x1="206.0546875" y1="0" x2="206.0546875" y2="177" fill="rgb(0, 0, 0)" stroke="rgb(66, 66, 66)" stroke-width="1px" opacity="0.25"></line><line x1="226.66015625" y1="0" x2="226.66015625" y2="177" fill="rgb(0, 0, 0)" stroke="rgb(66, 66, 66)" stroke-width="1px" opacity="0.25"></line><line x1="247.265625" y1="0" x2="247.265625" y2="177" fill="rgb(0, 0, 0)" stroke="rgb(66, 66, 66)" stroke-width="1px" opacity="0.25"></line></g><g><line x1="0" y1="177" x2="247.265625" y2="177" fill="rgb(0, 0, 0)" stroke="rgb(66, 66, 66)" stroke-width="1px" opacity="0.25"></line><line x1="0" y1="159.29999999999998" x2="247.265625" y2="159.29999999999998" fill="rgb(0, 0, 0)" stroke="rgb(66, 66, 66)" stroke-width="1px" opacity="0.25"></line><line x1="0" y1="141.59999999999997" x2="247.265625" y2="141.59999999999997" fill="rgb(0, 0, 0)" stroke="rgb(66, 66, 66)" stroke-width="1px" opacity="0.25"></line><line x1="0" y1="123.89999999999995" x2="247.265625" y2="123.89999999999995" fill="rgb(0, 0, 0)" stroke="rgb(66, 66, 66)" stroke-width="1px" opacity="0.25"></line><line x1="0" y1="106.19999999999993" x2="247.265625" y2="106.19999999999993" fill="rgb(0, 0, 0)" stroke="rgb(66, 66, 66)" stroke-width="1px" opacity="0.25"></line><line x1="0" y1="88.49999999999994" x2="247.265625" y2="88.49999999999994" fill="rgb(0, 0, 0)" stroke="rgb(66, 66, 66)" stroke-width="1px" opacity="0.25"></line><line x1="0" y1="70.80000000000004" x2="247.265625" y2="70.80000000000004" fill="rgb(0, 0, 0)" stroke="rgb(66, 66, 66)" stroke-width="1px" opacity="0.25"></line><line x1="0" y1="53.10000000000003" x2="247.265625" y2="53.10000000000003" fill="rgb(0, 0, 0)" stroke="rgb(66, 66, 66)" stroke-width="1px" opacity="0.25"></line><line x1="0" y1="35.400000000000034" x2="247.265625" y2="35.400000000000034" fill="rgb(0, 0, 0)" stroke="rgb(66, 66, 66)" stroke-width="1px" opacity="0.25"></line><line x1="0" y1="17.700000000000017" x2="247.265625" y2="17.700000000000017" fill="rgb(0, 0, 0)" stroke="rgb(66, 66, 66)" stroke-width="1px" opacity="0.25"></line><line x1="0" y1="0" x2="247.265625" y2="0" fill="rgb(0, 0, 0)" stroke="rgb(66, 66, 66)" stroke-width="1px" opacity="0.25"></line></g></g></g><g><g><line x1="0" y1="-548.6999999999999" x2="247.265625" y2="-548.6999999999999" fill="rgb(0, 0, 0)" stroke="rgb(153, 153, 153)" stroke-width="1.5px"></line></g></g><g><g><line x1="20.60546875" y1="0" x2="20.60546875" y2="177" fill="rgb(0, 0, 0)" stroke="rgb(153, 153, 153)" stroke-width="1.5px"></line></g></g><g><g><g><g><g><path stroke="rgb(255, 112, 67)" stroke-width="2px" d="M24.825468750000002,-26.163173680007436L26.93546875,145.10417524371294L29.045468749999998,153.63652035572696L31.15546875,119.37519666754687L33.265468750000004,160.2484428552591L35.37546875,137.35153108474313L37.48546875,140.56538196630152L39.595468749999995,126.4418544845054L41.70546875,153.33976295776415L43.81546875,153.45001243604423L45.92546875,145.17191347729252L48.03546875,120.68291218337379L50.14546875,139.21257804911562L52.255468750000006,141.52504251302219L54.36546875,115.48832261430177L56.47546875,137.84447865015326L58.58546875,150.3704739840294L60.69546875,151.24483170293266L62.80546875,124.324155542965L64.91546875,118.85110494966324L67.02546875,100.35235448298656L69.13546875,139.10387685717708L71.24546875,117.16881061322331L73.35546875,118.98194196408454L75.46546875000001,130.33712599869625L77.57546875,153.85198427487356L79.68546875,172.7499818890358L81.79546875,179.6339130003911L83.90546875,154.54871492690592L86.01546875,157.25846267230162L88.12546875,111.22653141791156L90.23546875,130.99728847957823L92.34546875,96.93908021307895L94.45546875000001,110.14683268752603L96.56546875000001,130.62416422096513L98.67546875000001,116.00579071420984L100.78546875,89.54277511896147L102.89546875,113.90778803730097L105.00546875,121.31938984915249L107.11546874999999,72.28108831123623L109.22546874999999,66.52017182291091L111.33546874999999,69.15683996435055L113.44546875,76.95884376963373L115.55546875,74.77430265150615L117.66546875,88.8970998492743L119.77546875,104.0446957887861L121.88546875,91.25427459201956L123.99546874999999,86.8610787552904L126.10546875,107.90455403846903L128.21546874999999,57.32821284862654L130.32546875,79.80535347670663L132.43546874999998,47.21730428990382L134.54546875,52.896896757235154L136.65546874999998,33.6780197855927L138.76546875,47.341201439931446L140.87546874999998,86.19470534769256L142.98546875000002,98.76601479201337L145.09546875,100.04477757185015L147.20546875000002,51.351803950480445L149.31546875,71.28428691268773L151.42546875000002,67.15420169735418L153.53546875,65.84208626332561L155.64546875,63.74695713509724L157.75546875,58.66871439450736L159.86546875,46.199253864489435L161.97546875,57.74314457142513L164.08546875,18.856482667709287L166.19546875,26.858209487786926L168.30546875,28.899702667588578L170.41546875,40.04380850279023L172.52546875,43.54664457728672L174.63546875,18.33003980571162L176.74546875,-0.17829070476215825L178.85546875,8.750715066268802L180.96546875,13.62041738109282L183.07546875,12.742991177299588L185.18546875,5.869022330676865L187.29546875,29.25592053117475L189.40546875,40.36649457444026L191.51546875,46.51340866106319L193.62546875,45.62814889679895L195.73546875,54.202216008487596L197.84546875,50.282130015601645L199.95546875,44.49414721412051L202.06546875,22.68508939136627L204.17546875,31.50573382609822L206.28546875,33.25608243366323L208.39546875,19.784080642582428L210.50546875,-9.581614127682757L212.61546875,67.25691729251909L214.72546874999998,66.54684496917949L216.83546875,79.98495490073333L218.94546875,59.46657129477963L221.05546875000002,20.97819323272413L223.16546875,11.3363786675388L225.27546875000002,14.674250123372975L227.38546875,28.412079107446253" style="fill: none;" fill="none"></path></g></g></g></g><g opacity="0.2"><g><g><g><path stroke="rgb(255, 112, 67)" stroke-width="2px" d="M26.93546875,247.86458459794517L29.045468749999998,161.82757166326041L31.15546875,79.08388001024721L33.265468750000004,213.61255307793616L35.37546875,105.67685921788214L37.48546875,145.1612401485443L39.595468749999995,105.84961583018301L41.70546875,193.0089533060789L43.81546875,153.61372006237505L45.92546875,132.82984678745268L48.03546875,84.08267830610274L50.14546875,166.94657427370544L52.255468750000006,144.98920885026453L54.36546875,76.46384795308111L56.47546875,171.3629454106092L58.58546875,169.15416640341277L60.69546875,152.5561462819576L62.80546875,83.94724239706991L64.91546875,110.64202931821345L67.02546875,72.60524329841135L69.13546875,197.2298852831125L71.24546875,84.26664431691168L73.35546875,121.70161751210688L75.46546875000001,147.36982134282587L77.57546875,189.12417140901087L81.79546875,189.9597990989685L83.90546875,116.92094092369078L86.01546875,161.3230827927589L88.12546875,42.17864980101586L90.23546875,160.65342013835902L92.34546875,45.85177187919617L94.45546875000001,129.95846045315264L96.56546875000001,161.34016064107414L98.67546875000001,94.07823083102701L100.78546875,49.84825213551522L102.89546875,150.4553071886301L105.00546875,132.43679252564905L107.11546874999999,-1.2763638317584756L109.22546874999999,57.87879710197447L111.33546874999999,73.11184217333792L113.44546875,88.66184947192667L115.55546875,71.49749097526072L117.66546875,110.08129564225672L119.77546875,126.76608969569205L121.88546875,72.06864279806612L123.99546874999999,80.27128500044344L126.10546875,139.4697669625282L128.21546874999999,-18.536298935115315L130.32546875,113.52106441855429L132.43546874999998,-1.6647694900631669L134.54546875,61.41628545820711L136.65546874999998,4.849704328179364L138.76546875,67.83597392141817L140.87546874999998,144.47496120929716L142.98546875000002,117.6229789584875L145.09546875,101.96292174160479L147.20546875000002,-21.687656481564023L149.31546875,101.18301135599611L151.42546875000002,60.959073874354345L153.53546875,63.873913112282736L155.64546875,60.60426344275473L157.75546875,51.051350283622725L159.86546875,27.49506306946278L161.97546875,75.05898063182829L164.08546875,-39.47351018786428L166.19546875,38.86079971790314L168.30546875,31.96194243729115L170.41546875,56.75996725559233L172.52546875,48.800898689031605L174.63546875,-19.49486735165117L176.74546875,-27.94078647047279L178.85546875,22.144223722815518L180.96546875,20.92497085332871L183.07546875,11.426851871609692L185.18546875,-4.441930939257121L187.29546875,64.33626783192156L189.40546875,57.032355639338476L191.51546875,55.73377979099749L193.62546875,44.300259250402455L195.73546875,67.0633166760206L197.84546875,44.40200102627278L199.95546875,35.812173011899L202.06546875,-10.028497342765307L204.17546875,44.73670047819615L206.28546875,35.88160534501076L208.39546875,-0.423922044038749L212.61546875,182.51471442282198L214.72546874999998,65.48173648416994L216.83546875,100.14211979806421L218.94546875,28.688995885849003L221.05546875000002,-36.754373860359166L223.16546875,-3.126343180239177L225.27546875000002,19.681057307124142L227.38546875,49.01882258355618" style="fill: none;" fill="none"></path></g></g></g></g></g></g><g transform="translate(82, 177)" clip-path="url(#clip_1)"><clipPath id="clip_1"><rect width="247" height="23"></rect></clipPath><g><g><line x1="0" y1="0" x2="0" y2="5" style="visibility: inherit;" fill="rgb(0, 0, 0)" stroke="rgb(204, 204, 204)" stroke-width="1px"></line><line x1="20.60546875" y1="0" x2="20.60546875" y2="5" style="visibility: inherit;" fill="rgb(0, 0, 0)" stroke="rgb(204, 204, 204)" stroke-width="1px"></line><line x1="41.2109375" y1="0" x2="41.2109375" y2="5" style="visibility: inherit;" fill="rgb(0, 0, 0)" stroke="rgb(204, 204, 204)" stroke-width="1px"></line><line x1="61.81640625" y1="0" x2="61.81640625" y2="5" style="visibility: inherit;" fill="rgb(0, 0, 0)" stroke="rgb(204, 204, 204)" stroke-width="1px"></line><line x1="82.421875" y1="0" x2="82.421875" y2="5" style="visibility: inherit;" fill="rgb(0, 0, 0)" stroke="rgb(204, 204, 204)" stroke-width="1px"></line><line x1="103.02734375" y1="0" x2="103.02734375" y2="5" style="visibility: inherit;" fill="rgb(0, 0, 0)" stroke="rgb(204, 204, 204)" stroke-width="1px"></line><line x1="123.6328125" y1="0" x2="123.6328125" y2="5" style="visibility: inherit;" fill="rgb(0, 0, 0)" stroke="rgb(204, 204, 204)" stroke-width="1px"></line><line x1="144.23828125" y1="0" x2="144.23828125" y2="5" style="visibility: inherit;" fill="rgb(0, 0, 0)" stroke="rgb(204, 204, 204)" stroke-width="1px"></line><line x1="164.84375" y1="0" x2="164.84375" y2="5" style="visibility: inherit;" fill="rgb(0, 0, 0)" stroke="rgb(204, 204, 204)" stroke-width="1px"></line><line x1="185.44921875" y1="0" x2="185.44921875" y2="5" style="visibility: inherit;" fill="rgb(0, 0, 0)" stroke="rgb(204, 204, 204)" stroke-width="1px"></line><line x1="206.0546875" y1="0" x2="206.0546875" y2="5" style="visibility: inherit;" fill="rgb(0, 0, 0)" stroke="rgb(204, 204, 204)" stroke-width="1px"></line><line x1="226.66015625" y1="0" x2="226.66015625" y2="5" style="visibility: inherit;" fill="rgb(0, 0, 0)" stroke="rgb(204, 204, 204)" stroke-width="1px"></line><line x1="247.265625" y1="0" x2="247.265625" y2="5" style="visibility: inherit;" fill="rgb(0, 0, 0)" stroke="rgb(204, 204, 204)" stroke-width="1px"></line></g><g transform="translate(0, 8)"><text x="0" y="0" dx="0em" dy="0.95em" style="text-anchor: middle; visibility: hidden; font-family: Roboto, sans-serif; font-size: 12px; font-weight: 200;" fill="rgb(33, 33, 33)" stroke="none" stroke-width="1px">-20k</text><text x="20.60546875" y="0" dx="0em" dy="0.95em" style="text-anchor: middle; visibility: inherit; font-family: Roboto, sans-serif; font-size: 12px; font-weight: 200;" fill="rgb(33, 33, 33)" stroke="none" stroke-width="1px">0</text><text x="41.2109375" y="0" dx="0em" dy="0.95em" style="text-anchor: middle; visibility: hidden; font-family: Roboto, sans-serif; font-size: 12px; font-weight: 200;" fill="rgb(33, 33, 33)" stroke="none" stroke-width="1px">20k</text><text x="61.81640625" y="0" dx="0em" dy="0.95em" style="text-anchor: middle; visibility: inherit; font-family: Roboto, sans-serif; font-size: 12px; font-weight: 200;" fill="rgb(33, 33, 33)" stroke="none" stroke-width="1px">40k</text><text x="82.421875" y="0" dx="0em" dy="0.95em" style="text-anchor: middle; visibility: hidden; font-family: Roboto, sans-serif; font-size: 12px; font-weight: 200;" fill="rgb(33, 33, 33)" stroke="none" stroke-width="1px">60k</text><text x="103.02734375" y="0" dx="0em" dy="0.95em" style="text-anchor: middle; visibility: inherit; font-family: Roboto, sans-serif; font-size: 12px; font-weight: 200;" fill="rgb(33, 33, 33)" stroke="none" stroke-width="1px">80k</text><text x="123.6328125" y="0" dx="0em" dy="0.95em" style="text-anchor: middle; visibility: hidden; font-family: Roboto, sans-serif; font-size: 12px; font-weight: 200;" fill="rgb(33, 33, 33)" stroke="none" stroke-width="1px">100k</text><text x="144.23828125" y="0" dx="0em" dy="0.95em" style="text-anchor: middle; visibility: inherit; font-family: Roboto, sans-serif; font-size: 12px; font-weight: 200;" fill="rgb(33, 33, 33)" stroke="none" stroke-width="1px">120k</text><text x="164.84375" y="0" dx="0em" dy="0.95em" style="text-anchor: middle; visibility: hidden; font-family: Roboto, sans-serif; font-size: 12px; font-weight: 200;" fill="rgb(33, 33, 33)" stroke="none" stroke-width="1px">140k</text><text x="185.44921875" y="0" dx="0em" dy="0.95em" style="text-anchor: middle; visibility: inherit; font-family: Roboto, sans-serif; font-size: 12px; font-weight: 200;" fill="rgb(33, 33, 33)" stroke="none" stroke-width="1px">160k</text><text x="206.0546875" y="0" dx="0em" dy="0.95em" style="text-anchor: middle; visibility: hidden; font-family: Roboto, sans-serif; font-size: 12px; font-weight: 200;" fill="rgb(33, 33, 33)" stroke="none" stroke-width="1px">180k</text><text x="226.66015625" y="0" dx="0em" dy="0.95em" style="text-anchor: middle; visibility: inherit; font-family: Roboto, sans-serif; font-size: 12px; font-weight: 200;" fill="rgb(33, 33, 33)" stroke="none" stroke-width="1px">200k</text><text x="247.265625" y="0" dx="0em" dy="0.95em" style="text-anchor: middle; visibility: hidden; font-family: Roboto, sans-serif; font-size: 12px; font-weight: 200;" fill="rgb(33, 33, 33)" stroke="none" stroke-width="1px">220k</text></g><line x1="0" y1="0" x2="247.265625" y2="0" fill="rgb(0, 0, 0)" stroke="rgb(204, 204, 204)" stroke-width="1px"></line></g></g></g></g></svg>