<svg viewBox="0 0 330 200" xmlns="http://www.w3.org/2000/svg"><g><g><g><g><g><line x1="61.953125" y1="177" x2="56.953125" y2="177" style="visibility: inherit;" fill="rgb(0, 0, 0)" stroke="rgb(204, 204, 204)" stroke-width="1px"></line><line x1="61.953125" y1="157.33333333333331" x2="56.953125" y2="157.33333333333331" style="visibility: inherit;" fill="rgb(0, 0, 0)" stroke="rgb(204, 204, 204)" stroke-width="1px"></line><line x1="61.953125" y1="137.66666666666663" x2="56.953125" y2="137.66666666666663" style="visibility: inherit;" fill="rgb(0, 0, 0)" stroke="rgb(204, 204, 204)" stroke-width="1px"></line><line x1="61.953125" y1="118.00000000000006" x2="56.953125" y2="118.00000000000006" style="visibility: inherit;" fill="rgb(0, 0, 0)" stroke="rgb(204, 204, 204)" stroke-width="1px"></line><line x1="61.953125" y1="98.33333333333337" x2="56.953125" y2="98.33333333333337" style="visibility: inherit;" fill="rgb(0, 0, 0)" stroke="rgb(204, 204, 204)" stroke-width="1px"></line><line x1="61.953125" y1="78.66666666666669" x2="56.953125" y2="78.66666666666669" style="visibility: inherit;" fill="rgb(0, 0, 0)" stroke="rgb(204, 204, 204)" stroke-width="1px"></line><line x1="61.953125" y1="59.00000000000001" x2="56.953125" y2="59.00000000000001" style="visibility: inherit;" fill="rgb(0, 0, 0)" stroke="rgb(204, 204, 204)" stroke-width="1px"></line><line x1="61.953125" y1="39.333333333333314" x2="56.953125" y2="39.333333333333314" style="visibility: inherit;" fill="rgb(0, 0, 0)" stroke="rgb(204, 204, 204)" stroke-width="1px"></line><line x1="61.953125" y1="19.666666666666675" x2="56.953125" y2="19.666666666666675" style="visibility: inherit;" fill="rgb(0, 0, 0)" stroke="rgb(204, 204, 204)" stroke-width="1px"></line><line x1="61.953125" y1="0" x2="56.953125" y2="0" style="visibility: inherit;" fill="rgb(0, 0, 0)" stroke="rgb(204, 204, 204)" stroke-width="1px"></line></g><g transform="translate(51.953125, 0)"><text x="0" y="177" dx="0em" dy="0.3em" style="text-anchor: end; visibility: hidden; font-family: Roboto, sans-serif; font-size: 12px; font-weight: 200;" fill="rgb(33, 33, 33)" stroke="none" stroke-width="1px">-0.31</text><text x="0" y="157.33333333333331" dx="0em" dy="0.3em" style="text-anchor: end; visibility: inherit; font-family: Roboto, sans-serif; font-size: 12px; font-weight: 200;" fill="rgb(33, 33, 33)" stroke="none" stroke-width="1px">-0.3</text><text x="0" y="137.66666666666663" dx="0em" dy="0.3em" style="text-anchor: end; visibility: hidden; font-family: Roboto, sans-serif; font-size: 12px; font-weight: 200;" fill="rgb(33, 33, 33)" stroke="none" stroke-width="1px">-0.29</text><text x="0" y="118.00000000000006" dx="0em" dy="0.3em" style="text-anchor: end; visibility: inherit; font-family: Roboto, sans-serif; font-size: 12px; font-weight: 200;" fill="rgb(33, 33, 33)" stroke="none" stroke-width="1px">-0.28</text><text x="0" y="98.33333333333337" dx="0em" dy="0.3em" style="text-anchor: end; visibility: hidden; font-family: Roboto, sans-serif; font-size: 12px; font-weight: 200;" fill="rgb(33, 33, 33)" stroke="none" stroke-width="1px">-0.27</text><text x="0" y="78.66666666666669" dx="0em" dy="0.3em" style="text-anchor: end; visibility: inherit; font-family: Roboto, sans-serif; font-size: 12px; font-weight: 200;" fill="rgb(33, 33, 33)" stroke="none" stroke-width="1px">-0.26</text><text x="0" y="59.00000000000001" dx="0em" dy="0.3em" style="text-anchor: end; visibility: hidden; font-family: Roboto, sans-serif; font-size: 12px; font-weight: 200;" fill="rgb(33, 33, 33)" stroke="none" stroke-width="1px">-0.25</text><text x="0" y="39.333333333333314" dx="0em" dy="0.3em" style="text-anchor: end; visibility: inherit; font-family: Roboto, sans-serif; font-size: 12px; font-weight: 200;" fill="rgb(33, 33, 33)" stroke="none" stroke-width="1px">-0.24</text><text x="0" y="19.666666666666675" dx="0em" dy="0.3em" style="text-anchor: end; visibility: hidden; font-family: Roboto, sans-serif; font-size: 12px; font-weight: 200;" fill="rgb(33, 33, 33)" stroke="none" stroke-width="1px">-0.23</text><text x="0" y="0" dx="0em" dy="0.3em" style="text-anchor: end; visibility: hidden; font-family: Roboto, sans-serif; font-size: 12px; font-weight: 200;" fill="rgb(33, 33, 33)" stroke="none" stroke-width="1px">-0.22</text></g><line x1="61.953125" y1="0" x2="61.953125" y2="177" fill="rgb(0, 0, 0)" stroke="rgb(204, 204, 204)" stroke-width="1px"></line></g></g><g transform="translate(61, 0)" clip-path="url(#clip_0)"><clipPath id="clip_0"><rect width="268" height="177"></rect></clipPath><g><g><g><line x1="0" y1="0" x2="0" y2="177" fill="rgb(0, 0, 0)" stroke="rgb(66, 66, 66)" stroke-width="1px" opacity="0.25"></line><line x1="22.337239583333332" y1="0" x2="22.337239583333332" y2="177" fill="rgb(0, 0, 0)" stroke="rgb(66, 66, 66)" stroke-width="1px" opacity="0.25"></line><line x1="44.674479166666664" y1="0" x2="44.674479166666664" y2="177" fill="rgb(0, 0, 0)" stroke="rgb(66, 66, 66)" stroke-width="1px" opacity="0.25"></line><line x1="67.01171875" y1="0" x2="67.01171875" y2="177" fill="rgb(0, 0, 0)" stroke="rgb(66, 66, 66)" stroke-width="1px" opacity="0.25"></line><line x1="89.34895833333333" y1="0" x2="89.34895833333333" y2="177" fill="rgb(0, 0, 0)" stroke="rgb(66, 66, 66)" stroke-width="1px" opacity="0.25"></line><line x1="111.68619791666667" y1="0" x2="111.68619791666667" y2="177" fill="rgb(0, 0, 0)" stroke="rgb(66, 66, 66)" stroke-width="1px" opacity="0.25"></line><line x1="134.0234375" y1="0" x2="134.0234375" y2="177" fill="rgb(0, 0, 0)" stroke="rgb(66, 66, 66)" stroke-width="1px" opacity="0.25"></line><line x1="156.36067708333334" y1="0" x2="156.36067708333334" y2="177" fill="rgb(0, 0, 0)" stroke="rgb(66, 66, 66)" stroke-width="1px" opacity="0.25"></line><line x1="178.69791666666666" y1="0" x2="178.69791666666666" y2="177" fill="rgb(0, 0, 0)" stroke="rgb(66, 66, 66)" stroke-width="1px" opacity="0.25"></line><line x1="201.03515625" y1="0" x2="201.03515625" y2="177" fill="rgb(0, 0, 0)" stroke="rgb(66, 66, 66)" stroke-width="1px" opacity="0.25"></line><line x1="223.37239583333334" y1="0" x2="223.37239583333334" y2="177" fill="rgb(0, 0, 0)" stroke="rgb(66, 66, 66)" stroke-width="1px" opacity="0.25"></line><line x1="245.70963541666666" y1="0" x2="245.70963541666666" y2="177" fill="rgb(0, 0, 0)" stroke="rgb(66, 66, 66)" stroke-width="1px" opacity="0.25"></line><line x1="268.046875" y1="0" x2="268.046875" y2="177" fill="rgb(0, 0, 0)" stroke="rgb(66, 66, 66)" stroke-width="1px" opacity="0.25"></line></g><g><line x1="0" y1="177" x2="268.046875" y2="177" fill="rgb(0, 0, 0)" stroke="rgb(66, 66, 66)" stroke-width="1px" opacity="0.25"></line><line x1="0" y1="157.33333333333331" x2="268.046875" y2="157.33333333333331" fill="rgb(0, 0, 0)" stroke="rgb(66, 66, 66)" stroke-width="1px" opacity="0.25"></line><line x1="0" y1="137.66666666666663" x2="268.046875" y2="137.66666666666663" fill="rgb(0, 0, 0)" stroke="rgb(66, 66, 66)" stroke-width="1px" opacity="0.25"></line><line x1="0" y1="118.00000000000006" x2="268.046875" y2="118.00000000000006" fill="rgb(0, 0, 0)" stroke="rgb(66, 66, 66)" stroke-width="1px" opacity="0.25"></line><line x1="0" y1="98.33333333333337" x2="268.046875" y2="98.33333333333337" fill="rgb(0, 0, 0)" stroke="rgb(66, 66, 66)" stroke-width="1px" opacity="0.25"></line><line x1="0" y1="78.66666666666669" x2="268.046875" y2="78.66666666666669" fill="rgb(0, 0, 0)" stroke="rgb(66, 66, 66)" stroke-width="1px" opacity="0.25"></line><line x1="0" y1="59.00000000000001" x2="268.046875" y2="59.00000000000001" fill="rgb(0, 0, 0)" stroke="rgb(66, 66, 66)" stroke-width="1px" opacity="0.25"></line><line x1="0" y1="39.333333333333314" x2="268.046875" y2="39.333333333333314" fill="rgb(0, 0, 0)" stroke="rgb(66, 66, 66)" stroke-width="1px" opacity="0.25"></line><line x1="0" y1="19.666666666666675" x2="268.046875" y2="19.666666666666675" fill="rgb(0, 0, 0)" stroke="rgb(66, 66, 66)" stroke-width="1px" opacity="0.25"></line><line x1="0" y1="0" x2="268.046875" y2="0" fill="rgb(0, 0, 0)" stroke="rgb(66, 66, 66)" stroke-width="1px" opacity="0.25"></line></g></g></g><g><g><line x1="0" y1="-432.6666666666667" x2="268.046875" y2="-432.6666666666667" fill="rgb(0, 0, 0)" stroke="rgb(153, 153, 153)" stroke-width="1.5px"></line></g></g><g><g><line x1="22.337239583333332" y1="0" x2="22.337239583333332" y2="177" fill="rgb(0, 0, 0)" stroke="rgb(153, 153, 153)" stroke-width="1.5px"></line></g></g><g><g><g><g><g><path stroke="rgb(255, 112, 67)" stroke-width="2px" d="M26.91190625,172.795938094457L29.19923958333333,180.87084443867207L31.486572916666667,172.86889711934697L33.77390625,164.3621661538878L36.06123958333333,134.69857821843965L38.34857291666667,142.04645079963322L40.635906250000005,137.13531281251977L42.92323958333333,165.68622738838116L45.21057291666666,175.93127736387285L47.49790625,180.41005015975026L49.785239583333336,168.0974219178261L52.072572916666665,157.68455644868004L54.35990625,147.80386375452034L56.64723958333334,131.53358035891836L58.93457291666666,143.725498852953L61.221906249999996,122.70667978898715L63.50923958333333,123.9216306242533L65.79657291666666,133.89836243708794L68.08390625,120.49718735346892L70.37123958333333,129.94515002380095L72.65857291666667,132.75135241697916L74.94590625000001,140.0120840006891L77.23323958333334,126.66003946809465L79.52057291666667,117.86559599067691L81.80790625,96.76012726535356L84.09523958333332,117.08669578121001L86.38257291666666,96.5242701386186L88.66990625,101.7675131103284L90.95723958333333,124.09879635884081L93.24457291666667,122.1089905896489L95.53190624999999,89.95908771667176L97.81923958333333,95.9378838372907L100.10657291666666,106.5637377468068L102.39390625,100.99789038252153L104.68123958333334,93.60065593093695L106.96857291666667,85.15204088975966L109.25590625000001,85.1869726566051L111.54323958333335,81.49282346710208L113.83057291666667,88.28612321069153L116.11790624999999,89.22642546690226L118.40523958333333,88.05981707755566L120.69257291666666,82.40506931778167L122.97990625,93.3601335356657L125.26723958333334,97.7531389365271L127.55457291666667,70.29649278651434L129.84190625,57.22397289868579L132.12923958333334,46.583814212458826L134.41657291666667,61.35114185969065L136.70390625,63.86881825704803L138.9912395833333,57.590342760310094L141.27857291666666,46.84304632354063L143.56590624999998,27.367254974040044L145.85323958333333,36.52304409441518L148.14057291666666,37.40070705312878L150.42790625,25.643445178054616L152.71523958333333,33.717198501539976L155.00257291666668,59.495507731351694L157.28990625,66.19436988094337L159.57723958333335,69.9040322990752L161.86457291666667,64.40852644591713L164.15190625000002,58.11560276279348L166.43923958333335,49.85850393253245L168.72657291666664,43.283644013470436L171.01390625,39.74136379531981L173.3012395833333,21.789977807831395L175.58857291666666,21.119549842098333L177.87590624999999,16.493251759659604L180.16323958333334,32.517776448836784L182.45057291666666,28.79127322791672L184.73790625,19.50248222644328L187.02523958333333,36.61227097369354L189.31257291666668,27.214626150869016L191.59990625,36.10061810664895L193.88723958333335,31.530888570860427L196.17457291666668,27.43618634552678L198.46190625,42.111018438404344L200.74923958333335,28.38122282381784L203.03657291666664,22.536524196203107L205.32390625,26.97030811691412L207.61123958333332,20.755489578947152L209.89857291666667,12.600453895988913L212.18590625,27.534651734031986L214.47323958333334,23.02813752746444L216.76057291666666,10.51296631647659L219.04790625,3.718920645039373L221.33523958333333,11.213968509587321L223.62257291666668,17.89302313773989L225.90990625,14.869721892173043L228.19723958333336,-4.112473971032113L230.48457291666668,15.921168077161132L232.77190625,16.156568313541168L235.05923958333332,28.133245276353037L237.34657291666664,33.549942410155936L239.63390625,28.829536197283723L241.92123958333332,21.84884793621234L244.20857291666667,21.409127452345263L246.49590625,17.12534989816243" style="fill: none;" fill="none"></path></g></g></g></g><g opacity="0.2"><g><g><g><path stroke="rgb(255, 112, 67)" stroke-width="2px" d="M26.91190625,172.795938094457L29.19923958333333,185.7157882452011L31.486572916666667,165.1870276927948L33.77390625,154.35825053850812L36.06123958333333,95.96979780991872L38.34857291666667,152.21120381355286L40.635906250000005,130.11230691274008L42.92323958333333,207.3137349287669L47.49790625,187.06050578753153L49.785239583333336,149.74015418688455L52.072572916666665,142.12192459901175L54.35990625,133.01508688926697L56.64723958333334,107.1600304444631L58.93457291666666,161.99904545148215L61.221906249999996,91.19327529271443L63.50923958333333,125.74354275067647L65.79657291666666,148.8609270652135L68.08390625,100.39746626218161L70.37123958333333,144.11623044808707L72.65857291666667,136.9605021079381L74.94590625000001,150.90294245878854L77.23323958333334,106.63223628203075L79.52057291666667,104.67403495311738L81.80790625,65.10207418600719L84.09523958333332,147.57646187146503L86.38257291666666,65.68068428834279L88.66990625,109.63236951828003L90.95723958333333,157.59570066134134L93.24457291666667,119.12428303559622L95.53190624999999,41.73424406846364L97.81923958333333,104.90607682863872L100.10657291666666,122.50251734256746L102.39390625,92.64911973476411L104.68123958333334,82.50480457146962L106.96857291666667,72.47911854585011L109.25590625000001,85.2393703063329L111.54323958333335,75.9515997171402L113.83057291666667,98.47607278823851L116.11790624999999,90.63687884807585L118.40523958333333,86.30990449587503L120.69257291666666,73.92294768492381L122.97990625,109.79272985458374L125.26723958333334,104.34264703591666L127.55457291666667,29.111523568630226L129.84190625,37.61519306898116L132.12923958333334,30.623576184113826L134.41657291666667,83.50213332970938L136.70390625,67.64533285299936L138.9912395833333,48.172629515329994L141.27857291666666,30.72210166851679L143.56590624999998,-1.8464320500691644L145.85323958333333,50.256727774937936L148.14057291666666,38.717201491196946L150.42790625,8.007552365461974L152.71523958333333,45.827828486760446L155.00257291666668,98.1629715760549L157.28990625,76.24266310532889L159.57723958333335,75.46852592627208L161.86457291666667,56.16526766618092L164.15190625000002,48.67621723810832L166.43923958333335,37.47285568714142L168.72657291666664,33.42135413487752L171.01390625,34.42794346809388L173.3012395833333,-5.137101173400879L175.58857291666666,20.113907893498745L177.87590624999999,9.553804636001587L180.16323958333334,56.554563482602425L182.45057291666666,23.201518396536503L184.73790625,5.5692957242329895L187.02523958333333,62.276954094568886L189.31257291666668,13.118158916632337L191.59990625,49.429606040318795L193.88723958333335,24.67629426717759L196.17457291666668,21.294133007526398L198.46190625,64.12326657772064L200.74923958333335,7.786529401938109L203.03657291666664,13.769476254781079L205.32390625,33.62098399798075L207.61123958333332,11.433261771996813L209.89857291666667,0.36790037155151367L212.18590625,49.935948491096504L214.47323958333334,16.26836621761322L216.76057291666666,-8.259790500005078L219.04790625,-6.472147862116492L221.33523958333333,22.456540306409206L223.62257291666668,27.91160507996877L225.90990625,10.334770023822784L228.19723958333336,-32.58576776583988L230.48457291666668,45.971631149450936L232.77190625,16.509668668111164L235.05923958333332,46.09826072057088L237.34657291666664,41.67498811086019L239.63390625,21.74892687797547L241.92123958333332,11.377815544605248L244.20857291666667,20.749546726544704L246.49590625,10.699683566888165" style="fill: none;" fill="none"></path></g></g></g></g></g></g><g transform="translate(61, 177)" clip-path="url(#clip_1)"><clipPath id="clip_1"><rect width="268" height="23"></rect></clipPath><g><g><line x1="0" y1="0" x2="0" y2="5" style="visibility: inherit;" fill="rgb(0, 0, 0)" stroke="rgb(204, 204, 204)" stroke-width="1px"></line><line x1="22.337239583333332" y1="0" x2="22.337239583333332" y2="5" style="visibility: inherit;" fill="rgb(0, 0, 0)" stroke="rgb(204, 204, 204)" stroke-width="1px"></line><line x1="44.674479166666664" y1="0" x2="44.674479166666664" y2="5" style="visibility: inherit;" fill="rgb(0, 0, 0)" stroke="rgb(204, 204, 204)" stroke-width="1px"></line><line x1="67.01171875" y1="0" x2="67.01171875" y2="5" style="visibility: inherit;" fill="rgb(0, 0, 0)" stroke="rgb(204, 204, 204)" stroke-width="1px"></line><line x1="89.34895833333333" y1="0" x2="89.34895833333333" y2="5" style="visibility: inherit;" fill="rgb(0, 0, 0)" stroke="rgb(204, 204, 204)" stroke-width="1px"></line><line x1="111.68619791666667" y1="0" x2="111.68619791666667" y2="5" style="visibility: inherit;" fill="rgb(0, 0, 0)" stroke="rgb(204, 204, 204)" stroke-width="1px"></line><line x1="134.0234375" y1="0" x2="134.0234375" y2="5" style="visibility: inherit;" fill="rgb(0, 0, 0)" stroke="rgb(204, 204, 204)" stroke-width="1px"></line><line x1="156.36067708333334" y1="0" x2="156.36067708333334" y2="5" style="visibility: inherit;" fill="rgb(0, 0, 0)" stroke="rgb(204, 204, 204)" stroke-width="1px"></line><line x1="178.69791666666666" y1="0" x2="178.69791666666666" y2="5" style="visibility: inherit;" fill="rgb(0, 0, 0)" stroke="rgb(204, 204, 204)" stroke-width="1px"></line><line x1="201.03515625" y1="0" x2="201.03515625" y2="5" style="visibility: inherit;" fill="rgb(0, 0, 0)" stroke="rgb(204, 204, 204)" stroke-width="1px"></line><line x1="223.37239583333334" y1="0" x2="223.37239583333334" y2="5" style="visibility: inherit;" fill="rgb(0, 0, 0)" stroke="rgb(204, 204, 204)" stroke-width="1px"></line><line x1="245.70963541666666" y1="0" x2="245.70963541666666" y2="5" style="visibility: inherit;" fill="rgb(0, 0, 0)" stroke="rgb(204, 204, 204)" stroke-width="1px"></line><line x1="268.046875" y1="0" x2="268.046875" y2="5" style="visibility: inherit;" fill="rgb(0, 0, 0)" stroke="rgb(204, 204, 204)" stroke-width="1px"></line></g><g transform="translate(0, 8)"><text x="0" y="0" dx="0em" dy="0.95em" style="text-anchor: middle; visibility: hidden; font-family: Roboto, sans-serif; font-size: 12px; font-weight: 200;" fill="rgb(33, 33, 33)" stroke="none" stroke-width="1px">-20k</text><text x="22.337239583333332" y="0" dx="0em" dy="0.95em" style="text-anchor: middle; visibility: inherit; font-family: Roboto, sans-serif; font-size: 12px; font-weight: 200;" fill="rgb(33, 33, 33)" stroke="none" stroke-width="1px">0</text><text x="44.674479166666664" y="0" dx="0em" dy="0.95em" style="text-anchor: middle; visibility: hidden; font-family: Roboto, sans-serif; font-size: 12px; font-weight: 200;" fill="rgb(33, 33, 33)" stroke="none" stroke-width="1px">20k</text><text x="67.01171875" y="0" dx="0em" dy="0.95em" style="text-anchor: middle; visibility: inherit; font-family: Roboto, sans-serif; font-size: 12px; font-weight: 200;" fill="rgb(33, 33, 33)" stroke="none" stroke-width="1px">40k</text><text x="89.34895833333333" y="0" dx="0em" dy="0.95em" style="text-anchor: middle; visibility: hidden; font-family: Roboto, sans-serif; font-size: 12px; font-weight: 200;" fill="rgb(33, 33, 33)" stroke="none" stroke-width="1px">60k</text><text x="111.68619791666667" y="0" dx="0em" dy="0.95em" style="text-anchor: middle; visibility: inherit; font-family: Roboto, sans-serif; font-size: 12px; font-weight: 200;" fill="rgb(33, 33, 33)" stroke="none" stroke-width="1px">80k</text><text x="134.0234375" y="0" dx="0em" dy="0.95em" style="text-anchor: middle; visibility: hidden; font-family: Roboto, sans-serif; font-size: 12px; font-weight: 200;" fill="rgb(33, 33, 33)" stroke="none" stroke-width="1px">100k</text><text x="156.36067708333334" y="0" dx="0em" dy="0.95em" style="text-anchor: middle; visibility: inherit; font-family: Roboto, sans-serif; font-size: 12px; font-weight: 200;" fill="rgb(33, 33, 33)" stroke="none" stroke-width="1px">120k</text><text x="178.69791666666666" y="0" dx="0em" dy="0.95em" style="text-anchor: middle; visibility: hidden; font-family: Roboto, sans-serif; font-size: 12px; font-weight: 200;" fill="rgb(33, 33, 33)" stroke="none" stroke-width="1px">140k</text><text x="201.03515625" y="0" dx="0em" dy="0.95em" style="text-anchor: middle; visibility: inherit; font-family: Roboto, sans-serif; font-size: 12px; font-weight: 200;" fill="rgb(33, 33, 33)" stroke="none" stroke-width="1px">160k</text><text x="223.37239583333334" y="0" dx="0em" dy="0.95em" style="text-anchor: middle; visibility: hidden; font-family: Roboto, sans-serif; font-size: 12px; font-weight: 200;" fill="rgb(33, 33, 33)" stroke="none" stroke-width="1px">180k</text><text x="245.70963541666666" y="0" dx="0em" dy="0.95em" style="text-anchor: middle; visibility: inherit; font-family: Roboto, sans-serif; font-size: 12px; font-weight: 200;" fill="rgb(33, 33, 33)" stroke="none" stroke-width="1px">200k</text><text x="268.046875" y="0" dx="0em" dy="0.95em" style="text-anchor: middle; visibility: hidden; font-family: Roboto, sans-serif; font-size: 12px; font-weight: 200;" fill="rgb(33, 33, 33)" stroke="none" stroke-width="1px">220k</text></g><line x1="0" y1="0" x2="268.046875" y2="0" fill="rgb(0, 0, 0)" stroke="rgb(204, 204, 204)" stroke-width="1px"></line></g></g></g></g></svg>