<svg viewBox="0 0 330 200" xmlns="http://www.w3.org/2000/svg"><g><g><g><g><g><line x1="51.5625" y1="177" x2="46.5625" y2="177" style="visibility: inherit;" fill="rgb(0, 0, 0)" stroke="rgb(204, 204, 204)" stroke-width="1px"></line><line x1="51.5625" y1="151.7142857142857" x2="46.5625" y2="151.7142857142857" style="visibility: inherit;" fill="rgb(0, 0, 0)" stroke="rgb(204, 204, 204)" stroke-width="1px"></line><line x1="51.5625" y1="126.42857142857144" x2="46.5625" y2="126.42857142857144" style="visibility: inherit;" fill="rgb(0, 0, 0)" stroke="rgb(204, 204, 204)" stroke-width="1px"></line><line x1="51.5625" y1="101.14285714285714" x2="46.5625" y2="101.14285714285714" style="visibility: inherit;" fill="rgb(0, 0, 0)" stroke="rgb(204, 204, 204)" stroke-width="1px"></line><line x1="51.5625" y1="75.85714285714288" x2="46.5625" y2="75.85714285714288" style="visibility: inherit;" fill="rgb(0, 0, 0)" stroke="rgb(204, 204, 204)" stroke-width="1px"></line><line x1="51.5625" y1="50.57142857142857" x2="46.5625" y2="50.57142857142857" style="visibility: inherit;" fill="rgb(0, 0, 0)" stroke="rgb(204, 204, 204)" stroke-width="1px"></line><line x1="51.5625" y1="25.285714285714256" x2="46.5625" y2="25.285714285714256" style="visibility: inherit;" fill="rgb(0, 0, 0)" stroke="rgb(204, 204, 204)" stroke-width="1px"></line><line x1="51.5625" y1="0" x2="46.5625" y2="0" style="visibility: inherit;" fill="rgb(0, 0, 0)" stroke="rgb(204, 204, 204)" stroke-width="1px"></line></g><g transform="translate(41.5625, 0)"><text x="0" y="177" dx="0em" dy="0.3em" style="text-anchor: end; visibility: hidden; font-family: Roboto, sans-serif; font-size: 12px; font-weight: 200;" fill="rgb(33, 33, 33)" stroke="none" stroke-width="1px">0.5</text><text x="0" y="151.7142857142857" dx="0em" dy="0.3em" style="text-anchor: end; visibility: inherit; font-family: Roboto, sans-serif; font-size: 12px; font-weight: 200;" fill="rgb(33, 33, 33)" stroke="none" stroke-width="1px">0.55</text><text x="0" y="126.42857142857144" dx="0em" dy="0.3em" style="text-anchor: end; visibility: inherit; font-family: Roboto, sans-serif; font-size: 12px; font-weight: 200;" fill="rgb(33, 33, 33)" stroke="none" stroke-width="1px">0.6</text><text x="0" y="101.14285714285714" dx="0em" dy="0.3em" style="text-anchor: end; visibility: inherit; font-family: Roboto, sans-serif; font-size: 12px; font-weight: 200;" fill="rgb(33, 33, 33)" stroke="none" stroke-width="1px">0.65</text><text x="0" y="75.85714285714288" dx="0em" dy="0.3em" style="text-anchor: end; visibility: inherit; font-family: Roboto, sans-serif; font-size: 12px; font-weight: 200;" fill="rgb(33, 33, 33)" stroke="none" stroke-width="1px">0.7</text><text x="0" y="50.57142857142857" dx="0em" dy="0.3em" style="text-anchor: end; visibility: inherit; font-family: Roboto, sans-serif; font-size: 12px; font-weight: 200;" fill="rgb(33, 33, 33)" stroke="none" stroke-width="1px">0.75</text><text x="0" y="25.285714285714256" dx="0em" dy="0.3em" style="text-anchor: end; visibility: inherit; font-family: Roboto, sans-serif; font-size: 12px; font-weight: 200;" fill="rgb(33, 33, 33)" stroke="none" stroke-width="1px">0.8</text><text x="0" y="0" dx="0em" dy="0.3em" style="text-anchor: end; visibility: hidden; font-family: Roboto, sans-serif; font-size: 12px; font-weight: 200;" fill="rgb(33, 33, 33)" stroke="none" stroke-width="1px">0.85</text></g><line x1="51.5625" y1="0" x2="51.5625" y2="177" fill="rgb(0, 0, 0)" stroke="rgb(204, 204, 204)" stroke-width="1px"></line></g></g><g transform="translate(51, 0)" clip-path="url(#clip_0)"><clipPath id="clip_0"><rect width="278" height="177"></rect></clipPath><g><g><g><line x1="0" y1="0" x2="0" y2="177" fill="rgb(0, 0, 0)" stroke="rgb(66, 66, 66)" stroke-width="1px" opacity="0.25"></line><line x1="23.203125" y1="0" x2="23.203125" y2="177" fill="rgb(0, 0, 0)" stroke="rgb(66, 66, 66)" stroke-width="1px" opacity="0.25"></line><line x1="46.40625" y1="0" x2="46.40625" y2="177" fill="rgb(0, 0, 0)" stroke="rgb(66, 66, 66)" stroke-width="1px" opacity="0.25"></line><line x1="69.609375" y1="0" x2="69.609375" y2="177" fill="rgb(0, 0, 0)" stroke="rgb(66, 66, 66)" stroke-width="1px" opacity="0.25"></line><line x1="92.8125" y1="0" x2="92.8125" y2="177" fill="rgb(0, 0, 0)" stroke="rgb(66, 66, 66)" stroke-width="1px" opacity="0.25"></line><line x1="116.015625" y1="0" x2="116.015625" y2="177" fill="rgb(0, 0, 0)" stroke="rgb(66, 66, 66)" stroke-width="1px" opacity="0.25"></line><line x1="139.21875" y1="0" x2="139.21875" y2="177" fill="rgb(0, 0, 0)" stroke="rgb(66, 66, 66)" stroke-width="1px" opacity="0.25"></line><line x1="162.421875" y1="0" x2="162.421875" y2="177" fill="rgb(0, 0, 0)" stroke="rgb(66, 66, 66)" stroke-width="1px" opacity="0.25"></line><line x1="185.625" y1="0" x2="185.625" y2="177" fill="rgb(0, 0, 0)" stroke="rgb(66, 66, 66)" stroke-width="1px" opacity="0.25"></line><line x1="208.828125" y1="0" x2="208.828125" y2="177" fill="rgb(0, 0, 0)" stroke="rgb(66, 66, 66)" stroke-width="1px" opacity="0.25"></line><line x1="232.03125" y1="0" x2="232.03125" y2="177" fill="rgb(0, 0, 0)" stroke="rgb(66, 66, 66)" stroke-width="1px" opacity="0.25"></line><line x1="255.234375" y1="0" x2="255.234375" y2="177" fill="rgb(0, 0, 0)" stroke="rgb(66, 66, 66)" stroke-width="1px" opacity="0.25"></line><line x1="278.4375" y1="0" x2="278.4375" y2="177" fill="rgb(0, 0, 0)" stroke="rgb(66, 66, 66)" stroke-width="1px" opacity="0.25"></line></g><g><line x1="0" y1="177" x2="278.4375" y2="177" fill="rgb(0, 0, 0)" stroke="rgb(66, 66, 66)" stroke-width="1px" opacity="0.25"></line><line x1="0" y1="151.7142857142857" x2="278.4375" y2="151.7142857142857" fill="rgb(0, 0, 0)" stroke="rgb(66, 66, 66)" stroke-width="1px" opacity="0.25"></line><line x1="0" y1="126.42857142857144" x2="278.4375" y2="126.42857142857144" fill="rgb(0, 0, 0)" stroke="rgb(66, 66, 66)" stroke-width="1px" opacity="0.25"></line><line x1="0" y1="101.14285714285714" x2="278.4375" y2="101.14285714285714" fill="rgb(0, 0, 0)" stroke="rgb(66, 66, 66)" stroke-width="1px" opacity="0.25"></line><line x1="0" y1="75.85714285714288" x2="278.4375" y2="75.85714285714288" fill="rgb(0, 0, 0)" stroke="rgb(66, 66, 66)" stroke-width="1px" opacity="0.25"></line><line x1="0" y1="50.57142857142857" x2="278.4375" y2="50.57142857142857" fill="rgb(0, 0, 0)" stroke="rgb(66, 66, 66)" stroke-width="1px" opacity="0.25"></line><line x1="0" y1="25.285714285714256" x2="278.4375" y2="25.285714285714256" fill="rgb(0, 0, 0)" stroke="rgb(66, 66, 66)" stroke-width="1px" opacity="0.25"></line><line x1="0" y1="0" x2="278.4375" y2="0" fill="rgb(0, 0, 0)" stroke="rgb(66, 66, 66)" stroke-width="1px" opacity="0.25"></line></g></g></g><g><g><line x1="0" y1="429.8571428571429" x2="278.4375" y2="429.8571428571429" fill="rgb(0, 0, 0)" stroke="rgb(153, 153, 153)" stroke-width="1.5px"></line></g></g><g><g><line x1="23.203125" y1="0" x2="23.203125" y2="177" fill="rgb(0, 0, 0)" stroke="rgb(153, 153, 153)" stroke-width="1.5px"></line></g></g><g><g><g><g><g><path stroke="rgb(255, 112, 67)" stroke-width="2px" d="M34.6190625,177.5645126825868L34.9903125,171.54486374609027L35.380125,167.50247721504917L35.751374999999996,160.20088532903173L36.1411875,149.01549149836939L36.5124375,142.55323593151178L36.90225,132.39327810768611L37.2735,124.91511794464847L37.6633125,120.35196028765648L38.0345625,116.30017197448427L38.424375000000005,106.89270092373253L38.795625,103.9210392802758L39.1854375,101.73275264556874L39.5566875,96.99224124770691L39.9465,89.70503674870447L40.317750000000004,83.14004568004486L40.7075625,80.33266449826233L41.0788125,79.40742743863402L41.468625,77.58223133932523L41.839875,76.42890167197042L42.229687500000004,73.09971182660678L42.6009375,71.31558568120406L42.9721875,68.3526168822159L43.362,67.04094160890659L43.73325,66.97906659421965L44.1230625,64.64811357484699L44.4943125,60.75039223635481L44.884125000000004,57.6857008820169L45.255375,55.20674689835912L45.6451875,54.76981911113115L46.0164375,54.610702997745584L46.40625,52.38162096944108L46.7775,51.42209163073692L47.1673125,48.5254415029695L47.5385625,46.74937488931308L47.928375,44.22806095403027L48.299625,42.1578455952671L48.689437500000004,40.292951588248144L49.0606875,41.916454249697495L49.450500000000005,41.8979856506878L49.82175,41.39628626236965L50.21156250000001,37.72820596806276L50.5828125,39.19786120345288L50.972624999999994,36.111375051081716L51.343875000000004,36.74067976316252L51.733687499999995,37.03934842491408L52.104937500000005,36.04741276588591L52.4761875,31.942843782055284L52.866,31.211764937642222L53.23725,31.387719719922615L53.6270625,30.176915085759536L53.998312500000004,29.20892722735471L54.388125,25.749678532828298L54.759375,25.410518271909904L55.149187500000004,24.4212082387981L55.5204375,22.052843239765842L55.910250000000005,24.29088539975286L56.2815,26.067973720756438L56.671312500000006,27.482076014288015L57.0425625,25.089474136186865L57.43237499999999,25.68231452038222L57.803625000000004,23.124126754243317L58.193437499999995,21.757785362369162L58.564687500000005,22.774021977745182L58.954499999999996,20.962913670023717L59.32575,16.784730487650005L59.7155625,19.71553106777136L60.0868125,18.641481189817927L60.476625,23.5105892830436L60.847875,23.569380992594876L61.2376875,25.34796578863731L61.6089375,26.17684290941807L61.9801875,25.1656848183306L62.370000000000005,21.20750716360311L62.74125,22.98933340244918L63.131062500000006,26.116828891153016L63.5023125,21.636533938782886L63.89212500000001,21.1926300168516L64.263375,20.612608377281035L64.6531875,22.244732060517734L65.0244375,25.8351066035374L65.41425,21.621012431011934L65.7855,19.017283026779026L66.1753125,25.68448464281475L66.5465625,25.400519998967486L66.936375,28.2094192321555L67.307625,24.71949666149442L67.6974375,26.194537232474936L68.0686875,27.709825925409376L68.4585,28.92704773005903L68.82975,27.89235608271141L69.2195625,27.4702311681336L69.5908125,28.313808862536135L69.980625,22.80834790035507L70.35187499999999,22.878847827018156L70.7416875,23.30679630607418L71.1129375,23.804009440618202L71.48418749999999,26.049859348496543L71.874,25.869183516921748L72.24525,23.73605394320445L72.6350625,24.196748992117207L73.00631249999999,23.43192103779177L73.396125,25.537282500038014L73.767375,25.17884643363832L74.15718749999999,25.389004942702577L74.5284375,25.837436381279648L74.91825,21.27299356486924L75.28949999999999,21.76838591455191L75.6793125,19.347802996049133L76.0505625,21.106952322880566L76.440375,20.77997907685562L76.81162499999999,23.176701195590216L77.2014375,22.55905964143511L77.5726875,19.855605587935482L77.9625,21.39493470013418L78.33375,24.116231823258683L78.7235625,18.821913798370662L79.0948125,18.931998504743483L79.484625,22.68683140744641L79.855875,25.63323534632504L80.2456875,21.436999487649878L80.61693749999999,17.477003633499184L80.9881875,21.203368004444684L81.378,23.4436960078975L81.74925,21.90030955420139L82.1390625,21.161151731034227L82.5103125,20.34471676929855L82.900125,17.568937283999972L83.27137499999999,20.350671662239538L83.6611875,21.82350599199004L84.0324375,23.037235396254335L84.42225,21.791979871480613L84.7935,20.97753550120954L85.1833125,20.75222154562928L85.5545625,27.14803944037373L85.944375,24.483014997449985L86.315625,21.208258931658264L86.7054375,15.723218595449488L87.07668749999999,18.228931179067917L87.4665,20.805241722119654L87.83775,20.513817052140368L88.2275625,19.51192491571067L88.5988125,18.91867502181842L88.988625,18.15168416631547L89.359875,19.794163319831473L89.74968750000001,16.283544868533745L90.1209375,14.299686683257558L90.4921875,14.988843142243855L90.882,18.0375034583269L91.25325,20.35096374927768L91.6430625,19.643781415438323L92.0143125,22.15135330666043L92.404125,23.93076370355283L92.775375,21.484758230088087L93.1651875,17.567572437377137L93.53643749999999,19.825920569774055L93.92625,19.354811048093506L94.2975,19.14580257527159L94.6873125,18.278556107235698L95.0585625,15.963149090432188L95.448375,18.807236901245908L95.819625,22.232680049901106L96.2094375,21.2585703859631L96.5806875,23.511988196282104L96.9705,21.733576031630317L97.34175,17.60206682041165L97.7315625,19.18563118481985L98.1028125,18.031396075938822L98.492625,20.67702669705517L98.863875,21.924959614991245L99.2536875,17.35296340719575L99.6249375,16.635852217291077L99.9961875,17.10426653089693L100.386,16.320631000517103L100.75725,16.564077293176975L101.1470625,20.55494690342429L101.5183125,20.205317486035636L101.908125,15.318986313764979L102.279375,15.49837104938477L102.6691875,16.272244830841963L103.0404375,17.91481968499986L103.43025,20.747341899500885L103.8015,20.05214489178883L104.1913125,21.41759459694724L104.5625625,20.761404640030438L104.952375,21.02647021888502L105.32362499999999,17.981075988796448L105.7134375,17.04465920466264L106.0846875,22.43954454078552L106.4745,25.451235784377293L106.84575,22.163313274128043L107.2355625,18.888409722856114L107.6068125,17.924429576999767L107.99662500000001,14.680008698348288L108.367875,18.39658393365221L108.7576875,17.94935546033255L109.1289375,20.68064889566281L109.5001875,21.464909336220565L109.89,19.969821649684157L110.26125,18.246599819426468L110.6510625,24.092004577019697L111.0223125,24.852467785383322L111.412125,25.06589022966245L111.783375,20.878080359394314L112.1731875,18.012927240905135L112.5444375,14.939730987160463L112.93425,17.998390430762363L113.3055,18.005261234034613L113.6953125,15.393942802388874L114.0665625,13.13516674933059L114.45637500000001,19.03182958320254L114.827625,17.395373003217447L115.2174375,17.634323501223307L115.5886875,16.37837503683888L115.9785,16.829172369689815L116.34975,18.9545978595493L116.7395625,21.19681392420822L117.1108125,19.7673310008785L117.500625,20.814553241814753L117.871875,19.312071489112654L118.26168750000001,19.364690266994042L118.6329375,14.581653436646425L119.0041875,12.238741643461081L119.394,10.798269923297644L119.76525,19.806299709454333L120.1550625,23.06149330158114L120.5263125,21.44243225109027L120.91612500000001,20.532921236378918L121.287375,20.24364647962034L121.6771875,18.83055651177818L122.0484375,17.815698695122343L122.43825,19.490074050730833L122.8095,19.392758495990265L123.1993125,18.22853392973005L123.5705625,17.658335687689483L123.960375,16.611619950516495L124.331625,19.527710683710648L124.72143750000001,18.669110282231262L125.0926875,19.207312479000652L125.4825,18.03759255244643L125.85375,17.893175536939214L126.24356250000001,19.559504946797315L126.6148125,16.40886360280039L127.004625,13.197808941011962L127.37587500000001,18.591336124167892L127.7656875,15.736146973812787L128.1369375,16.660828386946182L128.5081875,12.514523261481196L128.898,11.347880271150045L129.26925,8.826285456718177L129.6590625,15.394959002367827L130.0303125,15.91290400772649L130.42012499999998,15.743216974774036L130.791375,16.840731270200294L131.1811875,16.474067068917755L131.5524375,15.898237401908037L131.94225,18.03438212042688L132.3135,18.97123394264451L132.7033125,14.99759512371308L133.07456249999998,16.720613817304706L133.464375,16.00892085854598L133.835625,16.11951009645691L134.2254375,16.03500435139661L134.5966875,14.446505565048536L134.9865,14.26933329192302L135.35774999999998,14.177402072474356L135.7475625,17.7172327086989L136.1188125,16.829600146154394L136.508625,16.96979853384654L136.879875,17.238946868786414L137.2696875,17.903002752292515L137.6409375,16.135763912030512L138.01218749999998,15.881237326383554L138.402,17.311784295374963L138.77325,19.502284870568637L139.1630625,19.393465602582356L139.5343125,17.210489200634548L139.924125,13.522451057568587L140.295375,11.75448944753818L140.68518749999998,16.37314507799904L141.05643750000002,17.763635960700604L141.44625,13.863912505113865L141.8175,16.07530974791955L142.2073125,16.157040510965697L142.5785625,13.41510980135657L142.96837499999998,17.262473751515373L143.339625,21.088383189769424L143.7294375,23.28858076704592L144.1006875,22.052012980164243L144.4905,22.591978367845368L144.86175,21.69069611658034L145.25156249999998,22.417123080496854L145.6228125,20.26406411515256L146.01262499999999,20.667056633153994L146.38387500000002,18.241589521666576L146.7736875,13.795890411913492L147.1449375,15.190844379855973L147.5161875,10.974669649001243L147.906,11.90919418986982L148.27724999999998,15.278059546431814L148.66706250000001,15.891089464082567L149.0383125,19.173341983895636L149.428125,19.930851640053138L149.799375,16.919632965516417L150.1891875,18.377440321389255L150.56043749999998,17.461152978931427L150.95025,18.945448953540122L151.3215,20.907535014017732L151.71131250000002,18.991061990793273L152.0825625,11.992052995932939L152.472375,14.230536357539858L152.843625,14.09662327696989L153.2334375,12.274171375130562L153.60468749999998,13.503055504412703L153.99450000000002,17.075978728716617L154.36575,17.010437458591383L154.7555625,16.79902073560928L155.1268125,21.323946743123344L155.516625,17.161746839317967L155.88787499999998,19.485859351280187L156.2776875,15.552818885740203L156.6489375,19.6199233990972L157.0201875,20.890098224660786L157.41,18.997347323729954L157.78125,15.973616594965158L158.1710625,18.013777498199584L158.5423125,16.012569504683203L158.93212499999998,20.78830564225867L159.30337500000002,17.654136628283805L159.6931875,19.409655130983804L160.0644375,15.186086308919569L160.45425,12.75590191941108L160.8255,11.779885096741108L161.21531249999998,9.407812628043262L161.5865625,10.86796856524669L161.976375,11.48415781107534L162.347625,10.917535794912851L162.7374375,9.463950478347119L163.1086875,8.850534059591283L163.4985,18.12117733665115L163.86975,27.069083488630106L164.2595625,24.561096260933212L164.63081250000002,21.225796713992263L165.020625,20.791952387090234L165.391875,20.868547183204537L165.7816875,15.636876592763942L166.1529375,12.896761532179028L166.52418749999998,9.721166883950653L166.91400000000002,10.506403337658872L167.28525,12.642145786556986L167.6750625,13.965863687405733L168.0463125,26.6447847807636L168.436125,27.949590390661893L168.80737499999998,22.695401438660017L169.1971875,16.72544135877968L169.5684375,15.315745009359606L169.95825000000002,16.17109716735892L170.3295,11.033620154532592L170.7193125,11.227729675574796L171.0905625,13.071384724704386L171.480375,11.63318973244048L171.85162499999998,10.426426415976222L172.24143750000002,12.492505648932672L172.6126875,15.414393402373186L173.0025,19.00842654369967L173.37375,14.509603099856122L173.7635625,16.93552183916167L174.13481249999998,13.868079654378535L174.52462500000001,14.108138992447468L174.895875,16.584247943197965L175.2856875,18.999424520138938L175.6569375,18.44514757914447L176.0281875,16.211756799614207L176.418,17.067356765097415L176.78925,18.851445809328748L177.1790625,16.2242551384031L177.55031250000002,14.615772211241845L177.940125,14.485026433281984L178.311375,13.83315210678659L178.7011875,16.45928561003667L179.0724375,13.238768910664863L179.46224999999998,19.624638907150644L179.83350000000002,25.643620578242526L180.2233125,26.2740073863568L180.5945625,21.833387250962552L180.984375,21.94226029999248L181.355625,19.714069605223077L181.7454375,18.524602297583854L182.1166875,14.435686491683308L182.5065,21.020257619388303L182.87775000000002,23.838144948786635L183.2675625,26.03771395640225L183.6388125,25.86811778042702L184.028625,20.969319271749992L184.399875,13.960227460005164L184.78968749999999,18.875441329169917L185.16093750000002,17.95894508663419L185.5321875,17.130526757006308L185.922,18.692888306749783L186.29325,19.44819376896195L186.6830625,18.1908748304951L187.05431249999998,19.38976882093934L187.444125,18.789556676452893L187.815375,18.789287630161095L188.20518750000002,16.330078816761567L188.5764375,14.312595877856008L188.96625,18.378515808639346L189.3375,18.39284073812639L189.7273125,16.813904537916297L190.09856249999999,16.19309915977895L190.48837500000002,19.855185536952746L190.859625,15.38711424204993L191.2494375,16.703017732699443L191.6206875,17.688476752247002L192.0105,17.406596161385856L192.38174999999998,17.0738761495031L192.77156250000002,17.210639133566957L193.1428125,16.513333632401036L193.53262500000002,14.376068384047953L193.903875,15.11651622007368L194.2936875,13.850921735806592L194.6649375,16.216951828301184L195.0361875,17.681892778847995L195.426,16.917814989142865L195.79725000000002,17.21440024161104L196.1870625,16.54101886484145L196.5583125,13.200527023359568L196.948125,11.728809092520883L197.319375,14.597619402285517L197.70918749999998,12.823966601502283L198.08043750000002,13.934393710160236L198.47025,16.03552532739704L198.8415,15.73881606019465L199.2313125,13.627809417501897L199.6025625,16.118194910951225L199.992375,16.938044678438956L200.363625,15.25964015883081L200.7534375,9.48450590468571L201.12468750000002,10.910982296364539L201.5145,12.461252501903184L201.88575,17.85755850579803L202.2755625,15.815544349760083L202.6468125,12.868958074678002L203.036625,9.457385205524574L203.40787500000002,8.929692898740269L203.7976875,12.430232262768895L204.1689375,14.903001805127484L204.5401875,15.02888171160779L204.93,17.66479753936356L205.30124999999998,13.028477481769787L205.69106250000002,12.621634085039656L206.0623125,18.104502057469155L206.45212500000002,19.5179225059964L206.823375,20.613858094967437L207.2131875,16.450240194635676L207.5844375,17.02497138456443L207.97425,13.66704170459639L208.3455,16.383540790318467L208.73531250000002,9.980255509042136L209.1065625,12.890069414237894L209.496375,12.110198060394902L209.867625,10.881371480912083L210.2574375,13.604784219506007L210.62868749999998,18.12640306126208L211.01850000000002,22.11492629851433L211.38975,22.21098090924431L211.77956250000003,19.929185455205843L212.1508125,16.688377514578583L212.540625,17.9036906911376L212.911875,19.010653789333798L213.3016875,21.188223279241672L213.6729375,16.227834801764818L214.04418750000002,16.497632522773806L214.434,15.964186325732674L214.80525,19.027842275197756L215.1950625,19.14679218217887L215.5663125,17.1038653494597L215.956125,18.808845110380382L216.32737500000002,19.1047495563972L216.7171875,15.669651161951965L217.0884375,18.858548392505416L217.47825,17.729368864430448L217.8495,18.897029874370322L218.2393125,18.782513685185606L218.61056250000001,17.420853545845613L219.000375,19.756445216627434L219.37162500000002,14.822071846250184L219.7614375,10.838119792211433L220.1326875,17.905138050733164L220.5225,21.663833938881922L220.89375,17.58785659414666L221.2835625,15.62547325780985L221.65481250000002,14.87021294137153L222.044625,16.721555355874294L222.415875,14.307652669788569L222.8056875,13.322933287576973L223.1769375,16.97445244091691L223.54818749999998,21.707617835901114L223.93800000000002,20.937335673137532L224.30925,20.056517383213396L224.69906250000003,17.695638280705833L225.0703125,15.791904768873378L225.460125,18.632545186000513L225.831375,19.04833164814728L226.2211875,23.299758489664345L226.5924375,17.448878403233742L226.98225000000002,18.687367453753154L227.3535,18.164337657354082L227.7433125,21.384765134303258L228.1145625,19.936071101455983L228.504375,18.162518842339832L228.87562499999999,16.888375732153015L229.26543750000002,20.517329022709436L229.6366875,19.346027517145625L230.02650000000003,23.81451780172591L230.39775,26.84007320915528L230.78756249999998,29.627624149666524L231.1588125,23.844532449656185L231.54862500000002,20.991365408666997L231.919875,18.38702976962297L232.30968750000002,14.674659420611684L232.6809375,18.045488894576323L233.0521875,20.80683778559837L233.442,19.669229602685707L233.81325,16.087904442301625L234.2030625,15.541289963267404L234.57431250000002,17.07429695006736L234.964125,17.347740472330113L235.335375,16.362915204832685L235.7251875,17.5849479035044L236.0964375,16.817170660568394L236.48625,18.736721935111476L236.85750000000002,21.357630695246552L237.2473125,19.44009600344728L237.61856250000002,17.634774500850302L238.008375,17.767221462987507L238.379625,20.140855251536923L238.7694375,21.267223471531132L239.1406875,23.324663243881446L239.5305,21.120700067736525L239.90175000000002,21.790925940888673L240.2915625,17.697015807213333L240.6628125,14.68766771012325L241.052625,15.179491955702996L241.423875,19.56648794162773L241.81368750000001,18.45663488544695L242.18493750000002,18.44748905766326L242.5561875,19.58545515901551L242.94600000000003,18.00360927051045L243.31725,21.748453752875495L243.70706249999998,20.57146229035185L244.0783125,20.511181967433593L244.46812500000001,19.704102556946822L244.839375,16.42012018197774L245.22918750000002,18.68797004532643L245.6004375,18.875083444955344L245.99024999999997,21.02695410499378L246.3615,21.7575508112105L246.75131249999998,18.70887935060046L247.1225625,19.664014199192582L247.512375,16.40039569068864L247.883625,18.226161835451148L248.27343750000003,19.063549895372958L248.6446875,15.46496607363303L249.03449999999998,17.377292376331383L249.40575,16.243532231109715L249.7955625,15.912777276941831L250.1668125,17.240785905698445L250.556625,13.877868073570406L250.927875,13.210303177298302L251.31768749999998,14.568760385600857L251.6889375,15.792705339484286L252.0601875,10.802774992674545L252.45,12.399462983406444L252.82125000000002,12.872898190172931L253.2110625,16.979865331536246L253.58231249999997,17.327518263340014L253.972125,15.451835594190845L254.343375,18.580038170413918L254.7331875,17.812364569968643L255.10443750000002,16.230214686195026" style="fill: none;" fill="none"></path></g></g></g></g><g opacity="0.2"><g><g><g><path stroke="rgb(255, 112, 67)" stroke-width="2px" d="M33.4681875,204.68633263451713L33.858,172.6687034879412L34.22925,167.44080580983845L34.6190625,170.22366050311496L34.9903125,162.51539233752658L35.380125,161.43889822278703L35.751374999999996,149.24849837166923L36.1411875,132.2374015535627L36.5124375,132.8598528589521L36.90225,117.15334163393292L37.2735,113.69787781579154L37.6633125,113.5072238445282L38.0345625,110.22248952729362L38.424375000000005,92.78149437904358L38.795625,99.46354682104928L39.1854375,98.45032269614083L39.5566875,89.8814741543361L39.9465,78.77423000335693L40.317750000000004,73.2925590787615L40.7075625,76.12159272602626L41.0788125,78.01957184927804L41.468625,74.84443719046456L41.839875,74.69890717097691L42.229687500000004,68.10592705862862L42.6009375,68.63939646312168L42.9721875,63.90816368375505L43.362,65.07342869894845L43.73325,66.88625407218933L44.1230625,61.151684045791626L44.4943125,54.90381022862024L44.884125000000004,53.08866385051182L45.255375,51.488315922873355L45.6451875,54.114427430289126L46.0164375,54.372028827667236L46.40625,49.037997926984495L46.7775,49.982797622680664L47.1673125,44.180466311318526L47.5385625,44.08527496882847L47.928375,40.44609005110604L48.299625,39.05252255712236L48.689437500000004,37.495610577719546L49.0606875,44.35170824187142L49.450500000000005,41.87028275217328L49.82175,40.6437371798924L50.21156250000001,32.2260855266026L50.5828125,41.40234405653817L50.972624999999994,31.481645822525024L51.343875000000004,37.68463683128357L51.733687499999995,37.487351417541504L52.104937500000005,34.55950927734375L52.4761875,25.785990306309287L52.866,30.115146671022686L53.23725,31.651651893343242L53.6270625,28.360708134514933L53.998312500000004,27.756945439747398L54.388125,20.560805491038717L54.759375,24.90177788053239L55.149187500000004,22.937243189130495L55.5204375,18.500295741217467L55.910250000000005,27.64794863973344L56.2815,28.73360620226178L56.671312500000006,29.60322945458547L57.0425625,21.500571319035117L57.43237499999999,26.571575096675314L57.803625000000004,19.286845105034953L58.193437499999995,19.70827327455792L58.564687500000005,24.298376900809142L58.954499999999996,18.24625120844159L59.32575,10.517455714089518L59.7155625,24.11173193795339L60.0868125,17.030406372887736L60.476625,30.81425142288208L60.847875,23.657568556921813L61.2376875,28.01584298270089L61.6089375,27.420158590589235L61.9801875,23.648947681699465L62.370000000000005,15.270240681512004L62.74125,25.6620727607182L63.131062500000006,30.80807212420872L63.5023125,14.916091510227742L63.89212500000001,20.526774133954714L64.263375,19.74257591792515L64.6531875,24.692917585372925L65.0244375,31.220668418066833L65.41425,15.299871172223755L65.7855,15.111688920429769L66.1753125,35.68528706686837L66.5465625,24.974573033196574L66.936375,32.4227680819375L67.307625,19.484612805502746L67.6974375,28.40709808894566L68.0686875,29.982758964811037L68.4585,30.752880437033507L68.82975,26.340318611689963L69.2195625,26.837043796266826L69.5908125,29.579175404139914L69.980625,14.550156457083558L70.35187499999999,22.984597717012676L70.7416875,23.948719024658203L71.1129375,24.549829142434245L71.48418749999999,29.418634210314067L71.874,25.598169769559572L72.24525,20.53635958262852L72.6350625,24.88779156548635L73.00631249999999,22.28467910630361L73.396125,28.69532469340733L73.767375,24.64119233403886L74.15718749999999,25.704242706298828L74.5284375,26.510083539145324L74.91825,14.42632934025354L75.28949999999999,22.51147443907601L75.6793125,15.71692861829484L76.0505625,23.745676313127788L76.440375,20.289519207818156L76.81162499999999,26.7717843736921L77.2014375,21.632597310202453L77.5726875,15.800424507686056L77.9625,23.70392836843217L78.33375,28.198177507945456L78.7235625,10.880436761038636L79.0948125,19.097125564302715L79.484625,28.319080761500754L79.855875,30.052841254643027L80.2456875,15.142645699637269L80.61693749999999,11.537009852273112L80.9881875,26.792914560862936L81.378,26.804188013076782L81.74925,19.585229873657205L82.1390625,20.052414996283385L82.5103125,19.12006432669503L82.900125,13.405268056052064L83.27137499999999,24.523273229599L83.6611875,24.032757486615846L84.0324375,24.857829502650656L84.42225,19.924096584320047L84.7935,19.75586894580296L85.1833125,20.41425061225889L85.5545625,36.74176628249032L85.944375,20.485478333064474L86.315625,16.296124832970744L86.7054375,7.495658091136374L87.07668749999999,21.987500054495666L87.4665,24.669707536697388L87.83775,20.076680047171447L88.2275625,18.0090867110661L88.5988125,18.028800180980124L88.988625,17.001197883060996L89.359875,22.25788205010549L89.74968750000001,11.017617191587158L90.1209375,11.32389940534318L90.4921875,16.02257783072335L90.882,22.61049393245152L91.25325,23.82115418570382L91.6430625,18.58300791467938L92.0143125,25.912711143493652L92.404125,26.599879298891338L92.775375,17.81575001989091L93.1651875,11.691793748310628L93.53643749999999,23.213442768369386L93.92625,18.648146765572672L94.2975,18.832289866038717L94.6873125,16.977686405181863L95.0585625,12.49003856522695L95.448375,23.073368617466514L95.819625,27.37084477288381L96.2094375,19.79740589005605L96.5806875,26.8921149117606L96.9705,19.06595778465269L97.34175,11.404803003583618L97.7315625,21.56097773143223L98.1028125,16.30004341261727L98.492625,24.645472628729674L98.863875,23.796858991895387L99.2536875,10.494969095502563L99.6249375,15.560185432434062L99.9961875,17.806888001305705L100.386,15.145177704947328L100.75725,16.92924673216683L101.1470625,26.54125131879533L101.5183125,19.68087335995264L101.908125,7.989489555358867L102.279375,15.767448152814575L102.6691875,17.43305550302777L103.0404375,20.378681966236655L103.43025,24.99612522125244L103.8015,19.009349380220684L104.1913125,23.465769154684875L104.5625625,19.777119704655235L104.952375,21.42406858716691L105.32362499999999,13.412984643663677L105.7134375,15.640034028461995L106.0846875,30.53187254496983L106.4745,29.968772649765015L106.84575,17.23142950875417L107.2355625,13.97605439594812L107.6068125,16.47845935821531L107.99662500000001,9.813377380371074L108.367875,23.971446786608013L108.7576875,17.27851275035313L109.1289375,24.777589048658083L109.5001875,22.64129999705723L109.89,17.727190119879577L110.26125,15.661767074039998L110.6510625,32.860111713409424L111.0223125,25.993162597928713L111.412125,25.386023896081095L111.783375,14.596365553992127L112.1731875,13.715197563171367L112.5444375,10.329936606543397L112.93425,22.586379596165244L113.3055,18.015567438943034L113.6953125,11.476965154920288L114.0665625,9.747002669743123L114.45637500000001,27.87682383401052L114.827625,14.940688133239727L115.2174375,17.99274924823216L115.5886875,14.494452340262269L115.9785,17.505368368966227L116.34975,22.14273609433854L116.7395625,24.560138021196636L117.1108125,17.62310661588395L117.500625,22.385386603219157L117.871875,17.05834886005945L118.26168750000001,19.44361843381608L118.6329375,7.407098191125041L119.0041875,8.724373953683024L119.394,8.63756234305245L119.76525,33.31834438868931L120.1550625,27.944283689771364L120.5263125,19.013840675353983L120.91612500000001,19.16865471431187L121.287375,19.8097343444824L121.6771875,16.710921560014995L122.0484375,16.29341197013853L122.43825,22.001637084143493L122.8095,19.246785163879373L123.1993125,16.482197080339702L123.5705625,16.80303832462854L123.960375,15.04154634475706L124.331625,23.90184678350175L124.72143750000001,17.38120968001229L125.0926875,20.01461577415464L125.4825,16.283012662615093L125.85375,17.676550013678405L126.24356250000001,22.05899906158445L126.6148125,11.682901586805054L127.004625,8.381226948329367L127.37587500000001,26.681626898901794L127.7656875,11.45336324828011L128.1369375,18.04785050664628L128.5081875,6.2950655732835905L128.898,9.597915785653239L129.26925,5.043893235070353L129.6590625,25.247969320842184L130.0303125,16.689821515764507L130.42012499999998,15.488686425345277L130.791375,18.48700271333966L131.1811875,15.924070766993918L131.5524375,15.034492901393332L131.94225,21.23859919820512L132.3135,20.376511675970885L132.7033125,9.03713689531598L133.07456249999998,19.30514185769216L133.464375,14.941381420407959L133.835625,16.285393953323343L134.2254375,15.908245733806051L134.5966875,12.063757385526367L134.9865,14.003574882234844L135.35774999999998,14.039505243301372L135.7475625,23.026978663035788L136.1188125,15.498151302337627L136.508625,17.180096115384767L136.879875,17.642669371196188L137.2696875,18.899086577551696L137.6409375,13.484905651637472L138.01218749999998,15.499447447913026L138.402,19.45760474886212L138.77325,22.78803573335919L139.1630625,19.230236700602926L139.5343125,13.936024597712912L139.924125,7.990393842969605L140.295375,9.102547032492494L140.68518749999998,23.30112852369035L141.05643750000002,19.84937228475297L141.44625,8.014327321733745L141.8175,19.392405612128112L142.2073125,16.279636655535015L142.5785625,9.30221373694283L142.96837499999998,23.03351967675344L143.339625,26.827247347150514L143.7294375,26.588877132960715L144.1006875,20.197161299841735L144.4905,23.401926449366965L144.86175,20.338772739682863L145.25156249999998,23.506763526371543L145.6228125,17.034475667136046L146.01262499999999,21.27154541015623L146.38387500000002,14.603388854435506L146.7736875,7.127341747283916L147.1449375,17.283275331769655L147.5161875,4.650407552719097L147.906,13.31098100117273L148.27724999999998,20.33135758127484L148.66706250000001,16.810634340558718L149.0383125,24.096720763615195L149.428125,21.067116124289367L149.799375,12.402804953711366L150.1891875,20.564151355198447L150.56043749999998,16.086721965244834L150.95025,21.171892915453228L151.3215,23.850664104734133L151.71131250000002,16.116352455956584L152.0825625,1.4935395036424768L152.472375,17.588261399950298L152.843625,13.895753656114849L153.2334375,9.540493522371563L153.60468749999998,15.346381698335918L153.99450000000002,22.435363565172466L154.36575,16.912125553403566L154.7555625,16.48189565113611L155.1268125,28.11133575439453L155.516625,10.918446983609863L155.88787499999998,22.97202811922345L156.2776875,9.653258187430238L156.6489375,25.720580169132774L157.0201875,22.795360463006144L157.41,16.15822097233362L157.78125,11.438020501817974L158.1710625,21.07401885305131L158.5423125,13.01075751440865L158.93212499999998,27.95190984862191L159.30337500000002,12.952883107321595L159.6931875,22.042932885033732L160.0644375,8.8507330758231L160.45425,9.110625335148397L160.8255,10.315859862736287L161.21531249999998,5.849703924996501L161.5865625,13.05820247105188L161.976375,12.408441679818278L162.347625,10.067602770669108L162.7374375,7.2835725034986165L163.1086875,7.9304094314575L163.4985,32.02714225224084L163.86975,40.49094271659851L164.2595625,20.799115419387796L164.63081250000002,16.22284739358083L165.020625,20.141185896737223L165.391875,20.983439377375998L165.7816875,7.789370707103171L166.1529375,8.786588941301616L166.52418749999998,4.957774911608012L166.91400000000002,11.684258018221172L167.28525,15.845759459904256L167.6750625,15.951440538678833L168.0463125,45.66316642080034L168.436125,29.90679880550928L168.80737499999998,14.814118010657166L169.1971875,7.7705012389591674L169.5684375,13.201200485229473L169.95825000000002,17.45412540435789L170.3295,3.327404635293132L170.7193125,11.518893957138042L171.0905625,15.836867298398682L171.480375,9.475897244044699L171.85162499999998,8.616281441279806L172.24143750000002,15.59162449836729L172.6126875,19.797225032533916L173.0025,24.399476255689333L173.37375,7.761367934090739L173.7635625,20.574399948120096L174.13481249999998,9.266916377203797L174.52462500000001,14.468227999550944L174.895875,20.29841136932371L175.2856875,22.622189385550353L175.6569375,17.61373216765267L176.0281875,12.861670630318766L176.418,18.350756713322227L176.78925,21.527579375675742L177.1790625,12.28346913201467L177.55031250000002,12.20304782049996L177.940125,14.288907766342144L178.311375,12.85534061704362L178.7011875,20.398485864911745L179.0724375,8.407993861607137L179.46224999999998,29.203443901879435L179.83350000000002,34.67209308488027L180.2233125,27.21958759852818L180.5945625,15.172457047871175L180.984375,22.105569873537334L181.355625,16.37178356306893L181.7454375,16.74040133612496L182.1166875,8.30231278283254L182.5065,30.89711431094578L182.87775000000002,28.064975942884157L183.2675625,29.337067467825744L183.6388125,25.613723516464233L184.028625,13.621121508734559L184.399875,3.446589742388041L184.78968749999999,26.248262132917116L185.16093750000002,16.584200722830627L185.5321875,15.887899262564515L185.922,21.036430631365093L186.29325,20.581151962280252L186.6830625,16.304896422794883L187.05431249999998,21.188109806605734L187.444125,17.889238459723327L187.815375,18.78888406072343L188.20518750000002,12.641265596662231L188.5764375,11.286371469497661L188.96625,24.477395704814352L189.3375,18.414328132356914L189.7273125,14.445500237601136L190.09856249999999,15.261891092572876L190.48837500000002,25.34831510271344L190.859625,8.685007299695679L191.2494375,18.676872968673685L191.6206875,19.16666528156824L192.0105,16.983775275094157L192.38174999999998,16.574796131678976L192.77156250000002,17.41578360966272L193.1428125,15.467375380652284L193.53262500000002,11.170170511518188L193.903875,16.227187974112365L194.2936875,11.952530009405946L194.6649375,19.765996967043193L195.0361875,19.879304204668315L195.426,15.771698304585042L195.79725000000002,17.659278120313356L196.1870625,15.530946799686971L196.5583125,8.189789261136719L196.948125,9.521232196262899L197.319375,18.900834866932456L197.70918749999998,10.163487400327393L198.08043750000002,15.600034373147135L198.47025,19.1872227532523L198.8415,15.293752159391113L199.2313125,10.461299453462871L199.6025625,19.853773151125225L199.992375,18.167819329670493L200.363625,12.742033379418498L200.7534375,0.8218045234679979L201.12468750000002,13.050696883882793L201.5145,14.786657810211162L201.88575,25.95201751164026L202.2755625,12.752523115703024L202.6468125,8.449078662054871L203.036625,4.340025901794414L203.40787500000002,8.138154438563742L203.7976875,17.68104130881173L204.1689375,18.612156118665407L204.5401875,15.217701571328288L204.93,21.61867128099713L205.30124999999998,6.073997395379191L205.69106250000002,12.011368989944438L206.0623125,26.32880401611328L206.45212500000002,21.63805317878721L206.823375,22.257761478424072L207.2131875,10.204813344138001L207.5844375,17.88706816945756L207.97425,8.630147184644409L208.3455,20.458289418901714L208.73531250000002,0.3753275871276659L209.1065625,17.254790272031496L209.496375,10.940391029630371L209.867625,9.038131611687785L210.2574375,17.689903327396934L210.62868749999998,24.90883132389612L211.01850000000002,28.097711154392783L211.38975,22.35506282533917L211.77956250000003,16.506492274148112L212.1508125,11.827165603637676L212.540625,19.726660455976198L212.911875,20.671098436628053L213.3016875,24.454577514103477L213.6729375,8.78725208554948L214.04418750000002,16.902329104287272L214.434,15.16401703017098L214.80525,23.623326199395304L215.1950625,19.325217042650493L215.5663125,14.039475100381022L215.956125,21.36631475176129L216.32737500000002,19.548606225422446L216.7171875,10.51700357028416L217.0884375,23.641894238335734L217.47825,16.03559957231793L217.8495,20.64852138928003L218.2393125,18.61073940140859L218.61056250000001,15.378363336835571L219.000375,23.25983272280011L219.37162500000002,7.4205117906842855L219.7614375,4.8621917111533L220.1326875,28.505665438515788L220.5225,27.301877771105083L220.89375,11.473890577043804L221.2835625,12.681898253304606L221.65481250000002,13.73732246671403L222.044625,19.49856897762842L222.415875,10.686798640659871L222.8056875,11.845854214259543L223.1769375,22.45173117092676L223.54818749999998,28.807365928377422L223.93800000000002,19.781912428992126L224.30925,18.73528994832719L224.69906250000003,14.154319626944398L225.0703125,12.936304501124777L225.460125,22.893505811691284L225.831375,19.672011341367433L226.2211875,29.676898751940044L226.5924375,8.67255827358789L226.98225000000002,20.545101029532287L227.3535,17.379792962755474L227.7433125,26.215406349727072L228.1145625,17.763030052185037L228.504375,15.50219045366559L228.87562499999999,14.977161066872721L229.26543750000002,25.960758958544048L229.6366875,17.589075258799948L230.02650000000003,30.517253228596275L230.39775,31.37840632029942L230.78756249999998,33.808950560433516L231.1588125,15.169894899640747L231.54862500000002,16.711614847183206L231.919875,14.480526311056947L232.30968750000002,9.106103897094707L232.6809375,23.101733105523234L233.0521875,24.948861122131348L233.442,17.962817328316813L233.81325,10.715916701725545L234.2030625,14.721368244716086L234.57431250000002,19.373807430267313L234.964125,17.757905755724224L235.335375,14.88567730358667L235.7251875,19.417996951511924L236.0964375,15.665504796164369L236.48625,21.616048846926006L236.85750000000002,25.28899383544922L237.2473125,16.563793965748374L237.61856250000002,14.926792246954774L238.008375,17.96589190619332L238.379625,23.701305934361045L238.7694375,22.95677580152238L239.1406875,26.410822902406963L239.5305,17.814755303519103L239.90175000000002,22.79626475061688L240.2915625,11.556150606700339L240.6628125,10.173645564487996L241.052625,15.917228324072694L241.423875,26.146981920514772L241.81368750000001,16.791855301175783L242.18493750000002,18.43377031598771L242.5561875,21.292404311043864L242.94600000000003,15.630840437752848L243.31725,27.365720476422975L243.70706249999998,18.805975096566325L244.0783125,20.420761483056193L244.46812500000001,18.493483441216593L244.839375,11.494146619524273L245.22918750000002,22.089744840349468L245.6004375,19.155753544398703L245.99024999999997,24.254760095051353L246.3615,22.853445870535705L246.75131249999998,14.135872159685405L247.1225625,21.09671647208077L247.512375,11.50496792793272L247.883625,20.96481105259485L248.27343750000003,20.319631985255636L248.6446875,10.06709034102303L249.03449999999998,20.245781830378927L249.40575,14.542892013277324L249.7955625,15.416644845690044L250.1668125,19.232798848833355L250.556625,8.833491325378398L250.927875,12.208955832890096L251.31768749999998,16.60644619805471L251.6889375,17.628622770309427L252.0601875,3.3178794724600627L252.45,14.794494969504212L252.82125000000002,13.583051000322612L253.2110625,23.14031604358128L253.58231249999997,17.848997661045615L253.972125,12.638311590467163L254.343375,23.27234203474862L254.7331875,16.66085416930062L255.10443750000002,13.856989860534648" style="fill: none;" fill="none"></path></g></g></g></g></g></g><g transform="translate(51, 177)" clip-path="url(#clip_1)"><clipPath id="clip_1"><rect width="278" height="23"></rect></clipPath><g><g><line x1="0" y1="0" x2="0" y2="5" style="visibility: inherit;" fill="rgb(0, 0, 0)" stroke="rgb(204, 204, 204)" stroke-width="1px"></line><line x1="23.203125" y1="0" x2="23.203125" y2="5" style="visibility: inherit;" fill="rgb(0, 0, 0)" stroke="rgb(204, 204, 204)" stroke-width="1px"></line><line x1="46.40625" y1="0" x2="46.40625" y2="5" style="visibility: inherit;" fill="rgb(0, 0, 0)" stroke="rgb(204, 204, 204)" stroke-width="1px"></line><line x1="69.609375" y1="0" x2="69.609375" y2="5" style="visibility: inherit;" fill="rgb(0, 0, 0)" stroke="rgb(204, 204, 204)" stroke-width="1px"></line><line x1="92.8125" y1="0" x2="92.8125" y2="5" style="visibility: inherit;" fill="rgb(0, 0, 0)" stroke="rgb(204, 204, 204)" stroke-width="1px"></line><line x1="116.015625" y1="0" x2="116.015625" y2="5" style="visibility: inherit;" fill="rgb(0, 0, 0)" stroke="rgb(204, 204, 204)" stroke-width="1px"></line><line x1="139.21875" y1="0" x2="139.21875" y2="5" style="visibility: inherit;" fill="rgb(0, 0, 0)" stroke="rgb(204, 204, 204)" stroke-width="1px"></line><line x1="162.421875" y1="0" x2="162.421875" y2="5" style="visibility: inherit;" fill="rgb(0, 0, 0)" stroke="rgb(204, 204, 204)" stroke-width="1px"></line><line x1="185.625" y1="0" x2="185.625" y2="5" style="visibility: inherit;" fill="rgb(0, 0, 0)" stroke="rgb(204, 204, 204)" stroke-width="1px"></line><line x1="208.828125" y1="0" x2="208.828125" y2="5" style="visibility: inherit;" fill="rgb(0, 0, 0)" stroke="rgb(204, 204, 204)" stroke-width="1px"></line><line x1="232.03125" y1="0" x2="232.03125" y2="5" style="visibility: inherit;" fill="rgb(0, 0, 0)" stroke="rgb(204, 204, 204)" stroke-width="1px"></line><line x1="255.234375" y1="0" x2="255.234375" y2="5" style="visibility: inherit;" fill="rgb(0, 0, 0)" stroke="rgb(204, 204, 204)" stroke-width="1px"></line><line x1="278.4375" y1="0" x2="278.4375" y2="5" style="visibility: inherit;" fill="rgb(0, 0, 0)" stroke="rgb(204, 204, 204)" stroke-width="1px"></line></g><g transform="translate(0, 8)"><text x="0" y="0" dx="0em" dy="0.95em" style="text-anchor: middle; visibility: hidden; font-family: Roboto, sans-serif; font-size: 12px; font-weight: 200;" fill="rgb(33, 33, 33)" stroke="none" stroke-width="1px">-1M</text><text x="23.203125" y="0" dx="0em" dy="0.95em" style="text-anchor: middle; visibility: inherit; font-family: Roboto, sans-serif; font-size: 12px; font-weight: 200;" fill="rgb(33, 33, 33)" stroke="none" stroke-width="1px">0</text><text x="46.40625" y="0" dx="0em" dy="0.95em" style="text-anchor: middle; visibility: hidden; font-family: Roboto, sans-serif; font-size: 12px; font-weight: 200;" fill="rgb(33, 33, 33)" stroke="none" stroke-width="1px">1M</text><text x="69.609375" y="0" dx="0em" dy="0.95em" style="text-anchor: middle; visibility: inherit; font-family: Roboto, sans-serif; font-size: 12px; font-weight: 200;" fill="rgb(33, 33, 33)" stroke="none" stroke-width="1px">2M</text><text x="92.8125" y="0" dx="0em" dy="0.95em" style="text-anchor: middle; visibility: hidden; font-family: Roboto, sans-serif; font-size: 12px; font-weight: 200;" fill="rgb(33, 33, 33)" stroke="none" stroke-width="1px">3M</text><text x="116.015625" y="0" dx="0em" dy="0.95em" style="text-anchor: middle; visibility: inherit; font-family: Roboto, sans-serif; font-size: 12px; font-weight: 200;" fill="rgb(33, 33, 33)" stroke="none" stroke-width="1px">4M</text><text x="139.21875" y="0" dx="0em" dy="0.95em" style="text-anchor: middle; visibility: hidden; font-family: Roboto, sans-serif; font-size: 12px; font-weight: 200;" fill="rgb(33, 33, 33)" stroke="none" stroke-width="1px">5M</text><text x="162.421875" y="0" dx="0em" dy="0.95em" style="text-anchor: middle; visibility: inherit; font-family: Roboto, sans-serif; font-size: 12px; font-weight: 200;" fill="rgb(33, 33, 33)" stroke="none" stroke-width="1px">6M</text><text x="185.625" y="0" dx="0em" dy="0.95em" style="text-anchor: middle; visibility: hidden; font-family: Roboto, sans-serif; font-size: 12px; font-weight: 200;" fill="rgb(33, 33, 33)" stroke="none" stroke-width="1px">7M</text><text x="208.828125" y="0" dx="0em" dy="0.95em" style="text-anchor: middle; visibility: inherit; font-family: Roboto, sans-serif; font-size: 12px; font-weight: 200;" fill="rgb(33, 33, 33)" stroke="none" stroke-width="1px">8M</text><text x="232.03125" y="0" dx="0em" dy="0.95em" style="text-anchor: middle; visibility: hidden; font-family: Roboto, sans-serif; font-size: 12px; font-weight: 200;" fill="rgb(33, 33, 33)" stroke="none" stroke-width="1px">9M</text><text x="255.234375" y="0" dx="0em" dy="0.95em" style="text-anchor: middle; visibility: inherit; font-family: Roboto, sans-serif; font-size: 12px; font-weight: 200;" fill="rgb(33, 33, 33)" stroke="none" stroke-width="1px">10M</text><text x="278.4375" y="0" dx="0em" dy="0.95em" style="text-anchor: middle; visibility: hidden; font-family: Roboto, sans-serif; font-size: 12px; font-weight: 200;" fill="rgb(33, 33, 33)" stroke="none" stroke-width="1px">11M</text></g><line x1="0" y1="0" x2="278.4375" y2="0" fill="rgb(0, 0, 0)" stroke="rgb(204, 204, 204)" stroke-width="1px"></line></g></g></g></g></svg>