<svg viewBox="0 0 330 200" xmlns="http://www.w3.org/2000/svg"><g><g><g><g><g><line x1="61.953125" y1="177" x2="56.953125" y2="177" style="visibility: inherit;" fill="rgb(0, 0, 0)" stroke="rgb(204, 204, 204)" stroke-width="1px"></line><line x1="61.953125" y1="159.3" x2="56.953125" y2="159.3" style="visibility: inherit;" fill="rgb(0, 0, 0)" stroke="rgb(204, 204, 204)" stroke-width="1px"></line><line x1="61.953125" y1="141.6" x2="56.953125" y2="141.6" style="visibility: inherit;" fill="rgb(0, 0, 0)" stroke="rgb(204, 204, 204)" stroke-width="1px"></line><line x1="61.953125" y1="123.89999999999999" x2="56.953125" y2="123.89999999999999" style="visibility: inherit;" fill="rgb(0, 0, 0)" stroke="rgb(204, 204, 204)" stroke-width="1px"></line><line x1="61.953125" y1="106.19999999999997" x2="56.953125" y2="106.19999999999997" style="visibility: inherit;" fill="rgb(0, 0, 0)" stroke="rgb(204, 204, 204)" stroke-width="1px"></line><line x1="61.953125" y1="88.49999999999999" x2="56.953125" y2="88.49999999999999" style="visibility: inherit;" fill="rgb(0, 0, 0)" stroke="rgb(204, 204, 204)" stroke-width="1px"></line><line x1="61.953125" y1="70.80000000000007" x2="56.953125" y2="70.80000000000007" style="visibility: inherit;" fill="rgb(0, 0, 0)" stroke="rgb(204, 204, 204)" stroke-width="1px"></line><line x1="61.953125" y1="53.100000000000044" x2="56.953125" y2="53.100000000000044" style="visibility: inherit;" fill="rgb(0, 0, 0)" stroke="rgb(204, 204, 204)" stroke-width="1px"></line><line x1="61.953125" y1="35.400000000000034" x2="56.953125" y2="35.400000000000034" style="visibility: inherit;" fill="rgb(0, 0, 0)" stroke="rgb(204, 204, 204)" stroke-width="1px"></line><line x1="61.953125" y1="17.700000000000017" x2="56.953125" y2="17.700000000000017" style="visibility: inherit;" fill="rgb(0, 0, 0)" stroke="rgb(204, 204, 204)" stroke-width="1px"></line><line x1="61.953125" y1="0" x2="56.953125" y2="0" style="visibility: inherit;" fill="rgb(0, 0, 0)" stroke="rgb(204, 204, 204)" stroke-width="1px"></line></g><g transform="translate(51.953125, 0)"><text x="0" y="177" dx="0em" dy="0.3em" style="text-anchor: end; visibility: hidden; font-family: Roboto, sans-serif; font-size: 12px; font-weight: 200;" fill="rgb(33, 33, 33)" stroke="none" stroke-width="1px">0.115</text><text x="0" y="159.3" dx="0em" dy="0.3em" style="text-anchor: end; visibility: inherit; font-family: Roboto, sans-serif; font-size: 12px; font-weight: 200;" fill="rgb(33, 33, 33)" stroke="none" stroke-width="1px">0.12</text><text x="0" y="141.6" dx="0em" dy="0.3em" style="text-anchor: end; visibility: hidden; font-family: Roboto, sans-serif; font-size: 12px; font-weight: 200;" fill="rgb(33, 33, 33)" stroke="none" stroke-width="1px">0.125</text><text x="0" y="123.89999999999999" dx="0em" dy="0.3em" style="text-anchor: end; visibility: inherit; font-family: Roboto, sans-serif; font-size: 12px; font-weight: 200;" fill="rgb(33, 33, 33)" stroke="none" stroke-width="1px">0.13</text><text x="0" y="106.19999999999997" dx="0em" dy="0.3em" style="text-anchor: end; visibility: hidden; font-family: Roboto, sans-serif; font-size: 12px; font-weight: 200;" fill="rgb(33, 33, 33)" stroke="none" stroke-width="1px">0.135</text><text x="0" y="88.49999999999999" dx="0em" dy="0.3em" style="text-anchor: end; visibility: inherit; font-family: Roboto, sans-serif; font-size: 12px; font-weight: 200;" fill="rgb(33, 33, 33)" stroke="none" stroke-width="1px">0.14</text><text x="0" y="70.80000000000007" dx="0em" dy="0.3em" style="text-anchor: end; visibility: hidden; font-family: Roboto, sans-serif; font-size: 12px; font-weight: 200;" fill="rgb(33, 33, 33)" stroke="none" stroke-width="1px">0.145</text><text x="0" y="53.100000000000044" dx="0em" dy="0.3em" style="text-anchor: end; visibility: inherit; font-family: Roboto, sans-serif; font-size: 12px; font-weight: 200;" fill="rgb(33, 33, 33)" stroke="none" stroke-width="1px">0.15</text><text x="0" y="35.400000000000034" dx="0em" dy="0.3em" style="text-anchor: end; visibility: hidden; font-family: Roboto, sans-serif; font-size: 12px; font-weight: 200;" fill="rgb(33, 33, 33)" stroke="none" stroke-width="1px">0.155</text><text x="0" y="17.700000000000017" dx="0em" dy="0.3em" style="text-anchor: end; visibility: inherit; font-family: Roboto, sans-serif; font-size: 12px; font-weight: 200;" fill="rgb(33, 33, 33)" stroke="none" stroke-width="1px">0.16</text><text x="0" y="0" dx="0em" dy="0.3em" style="text-anchor: end; visibility: hidden; font-family: Roboto, sans-serif; font-size: 12px; font-weight: 200;" fill="rgb(33, 33, 33)" stroke="none" stroke-width="1px">0.165</text></g><line x1="61.953125" y1="0" x2="61.953125" y2="177" fill="rgb(0, 0, 0)" stroke="rgb(204, 204, 204)" stroke-width="1px"></line></g></g><g transform="translate(61, 0)" clip-path="url(#clip_0)"><clipPath id="clip_0"><rect width="268" height="177"></rect></clipPath><g><g><g><line x1="0" y1="0" x2="0" y2="177" fill="rgb(0, 0, 0)" stroke="rgb(66, 66, 66)" stroke-width="1px" opacity="0.25"></line><line x1="22.337239583333332" y1="0" x2="22.337239583333332" y2="177" fill="rgb(0, 0, 0)" stroke="rgb(66, 66, 66)" stroke-width="1px" opacity="0.25"></line><line x1="44.674479166666664" y1="0" x2="44.674479166666664" y2="177" fill="rgb(0, 0, 0)" stroke="rgb(66, 66, 66)" stroke-width="1px" opacity="0.25"></line><line x1="67.01171875" y1="0" x2="67.01171875" y2="177" fill="rgb(0, 0, 0)" stroke="rgb(66, 66, 66)" stroke-width="1px" opacity="0.25"></line><line x1="89.34895833333333" y1="0" x2="89.34895833333333" y2="177" fill="rgb(0, 0, 0)" stroke="rgb(66, 66, 66)" stroke-width="1px" opacity="0.25"></line><line x1="111.68619791666667" y1="0" x2="111.68619791666667" y2="177" fill="rgb(0, 0, 0)" stroke="rgb(66, 66, 66)" stroke-width="1px" opacity="0.25"></line><line x1="134.0234375" y1="0" x2="134.0234375" y2="177" fill="rgb(0, 0, 0)" stroke="rgb(66, 66, 66)" stroke-width="1px" opacity="0.25"></line><line x1="156.36067708333334" y1="0" x2="156.36067708333334" y2="177" fill="rgb(0, 0, 0)" stroke="rgb(66, 66, 66)" stroke-width="1px" opacity="0.25"></line><line x1="178.69791666666666" y1="0" x2="178.69791666666666" y2="177" fill="rgb(0, 0, 0)" stroke="rgb(66, 66, 66)" stroke-width="1px" opacity="0.25"></line><line x1="201.03515625" y1="0" x2="201.03515625" y2="177" fill="rgb(0, 0, 0)" stroke="rgb(66, 66, 66)" stroke-width="1px" opacity="0.25"></line><line x1="223.37239583333334" y1="0" x2="223.37239583333334" y2="177" fill="rgb(0, 0, 0)" stroke="rgb(66, 66, 66)" stroke-width="1px" opacity="0.25"></line><line x1="245.70963541666666" y1="0" x2="245.70963541666666" y2="177" fill="rgb(0, 0, 0)" stroke="rgb(66, 66, 66)" stroke-width="1px" opacity="0.25"></line><line x1="268.046875" y1="0" x2="268.046875" y2="177" fill="rgb(0, 0, 0)" stroke="rgb(66, 66, 66)" stroke-width="1px" opacity="0.25"></line></g><g><line x1="0" y1="177" x2="268.046875" y2="177" fill="rgb(0, 0, 0)" stroke="rgb(66, 66, 66)" stroke-width="1px" opacity="0.25"></line><line x1="0" y1="159.3" x2="268.046875" y2="159.3" fill="rgb(0, 0, 0)" stroke="rgb(66, 66, 66)" stroke-width="1px" opacity="0.25"></line><line x1="0" y1="141.6" x2="268.046875" y2="141.6" fill="rgb(0, 0, 0)" stroke="rgb(66, 66, 66)" stroke-width="1px" opacity="0.25"></line><line x1="0" y1="123.89999999999999" x2="268.046875" y2="123.89999999999999" fill="rgb(0, 0, 0)" stroke="rgb(66, 66, 66)" stroke-width="1px" opacity="0.25"></line><line x1="0" y1="106.19999999999997" x2="268.046875" y2="106.19999999999997" fill="rgb(0, 0, 0)" stroke="rgb(66, 66, 66)" stroke-width="1px" opacity="0.25"></line><line x1="0" y1="88.49999999999999" x2="268.046875" y2="88.49999999999999" fill="rgb(0, 0, 0)" stroke="rgb(66, 66, 66)" stroke-width="1px" opacity="0.25"></line><line x1="0" y1="70.80000000000007" x2="268.046875" y2="70.80000000000007" fill="rgb(0, 0, 0)" stroke="rgb(66, 66, 66)" stroke-width="1px" opacity="0.25"></line><line x1="0" y1="53.100000000000044" x2="268.046875" y2="53.100000000000044" fill="rgb(0, 0, 0)" stroke="rgb(66, 66, 66)" stroke-width="1px" opacity="0.25"></line><line x1="0" y1="35.400000000000034" x2="268.046875" y2="35.400000000000034" fill="rgb(0, 0, 0)" stroke="rgb(66, 66, 66)" stroke-width="1px" opacity="0.25"></line><line x1="0" y1="17.700000000000017" x2="268.046875" y2="17.700000000000017" fill="rgb(0, 0, 0)" stroke="rgb(66, 66, 66)" stroke-width="1px" opacity="0.25"></line><line x1="0" y1="0" x2="268.046875" y2="0" fill="rgb(0, 0, 0)" stroke="rgb(66, 66, 66)" stroke-width="1px" opacity="0.25"></line></g></g></g><g><g><line x1="0" y1="584.1" x2="268.046875" y2="584.1" fill="rgb(0, 0, 0)" stroke="rgb(153, 153, 153)" stroke-width="1.5px"></line></g></g><g><g><line x1="22.337239583333332" y1="0" x2="22.337239583333332" y2="177" fill="rgb(0, 0, 0)" stroke="rgb(153, 153, 153)" stroke-width="1.5px"></line></g></g><g><g><g><g><g><path stroke="rgb(255, 112, 67)" stroke-width="2px" d="M26.375812500000002,185.00251109664075L26.73320833333333,174.77530315990995L27.108473958333335,164.36957402715817L27.465869791666666,165.69437015857542L27.841135416666667,162.15661674285565L28.198531250000002,153.43888794548917L28.573796875,138.97798462881153L28.931192708333334,140.76159106090384L29.306458333333335,127.27665893721176L29.663854166666667,120.75922809161302L30.039119791666664,122.42350727168689L30.396515625,115.15962953460684L30.77178125,120.17000541673448L31.129177083333335,111.46545677271253L31.504442708333336,107.41813529009217L31.861838541666664,106.1219378704882L32.219234375,97.90294501209893L32.5945,97.22370150949719L32.95189583333333,89.57368941764413L33.327161458333336,73.22977511801595L33.68455729166667,60.87386796563608L34.05982291666667,54.056654221197654L34.417218749999996,65.50568675256622L34.792484375,62.34971500925137L35.14988020833333,54.38039527480264L35.52514583333333,44.205843156204665L35.88254166666667,30.227714791591982L36.257807291666666,30.682199502901693L36.615203125,22.2086054666302L36.990468750000005,15.119354049233879L37.34786458333333,12.801753366440405L37.72313020833333,22.974966714777537L38.080526041666666,4.620398619834608L38.45579166666666,4.359016515605539L38.813187500000005,-10.101279545264767L41.36856770833333,-6.677793738300895L41.743833333333335,5.392983285772886L42.10122916666666,4.096599192730126L42.47649479166667,-0.19012642186456596L42.833890625,1.8616175062569396L43.20915625,3.3000772981118676L43.566552083333335,7.075718881385304L43.94181770833333,14.924196640072992L44.29921354166667,7.343541421543432L44.674479166666664,11.809361494810078L45.031875,12.898606503743338L45.407140625,9.040731947862046L45.76453645833333,18.730560889985075L46.139802083333336,12.764620050874868L46.497197916666664,5.537891798667494L46.87246354166667,-3.4478564039155835L47.229859375,3.7615778007933414L47.605125,5.805585038592225L47.962520833333336,15.916563913780365L48.33778645833333,16.44325022075051L48.69518229166667,18.4964286480752L49.070447916666666,29.52038094010398L49.42784375,29.116983097830158L49.803109375,13.828207436823106L50.16050520833333,19.407818679585006L50.51790104166667,8.754608862742144L50.893166666666666,15.508052740779128L51.2505625,23.224563752583656L51.625828125,19.721817004067827L51.98322395833333,26.50472238742301L52.35848958333333,23.522134527462665L52.715885416666666,37.86827095085259L53.09115104166667,33.74543100675272L53.448546875,35.10039336967664L53.8238125,50.59710258178828L54.18120833333333,58.693818189698014L54.556473958333335,52.54984138130997L54.91386979166667,47.36828506064331L55.28913541666666,41.76165463013596L55.64653125,49.21817996432268L56.021796875,52.343865637361354L56.379192708333335,55.76629008554178L56.75445833333333,37.41460936130746L57.11185416666666,36.79199671305221L57.487119791666665,57.63595842097408L57.844515625,54.20540872320066L58.219781250000004,72.59542718830421L58.57717708333333,56.14603982986641L58.952442708333336,73.46594553602714L59.309838541666664,60.618004821616275L59.667234375,62.709915546702135L60.042500000000004,57.37079175241395L60.39989583333333,66.35335263209112L60.775161458333336,56.903565639237L61.132557291666664,46.22964914916723L61.50782291666667,70.86080574201804L61.865218750000004,63.72191313271086L62.240484374999994,63.05117944338538L62.597880208333336,76.15709305917396L62.973145833333334,64.73904099175441L63.33054166666667,73.68684678381146L63.705807291666666,94.36152345839419L64.063203125,84.5981165725188L64.43846875,94.82391877163623L64.79586458333333,66.59650102608899L65.17113020833334,80.44493054004606L65.52852604166667,79.74840496213493L65.90379166666666,85.23337469477212L66.2611875,87.33167653309555L66.636453125,91.02788154737503L66.99384895833333,95.20746557030891L67.36911458333334,69.739194813453L67.72651041666666,86.055485324313L68.10177604166667,97.7639077545701L68.45917187500001,104.87538699397432L68.81656770833332,96.0055557876169L69.19183333333334,95.66179050382014L69.54922916666666,90.28726539478325L69.92449479166667,89.8195454112627L70.281890625,80.62840693425763L70.65715625,98.6820301749207L71.01455208333334,103.58540818559516L71.38981770833333,108.37693827073205L71.74721354166667,108.7800705380465L72.12247916666666,72.6972109190957L72.47987499999999,99.72249092771622L72.85514062499999,85.7836911947371L73.21253645833333,93.90182471935991L73.58780208333334,86.18045162597326L73.94519791666666,112.87698402308841L74.32046354166667,97.22849510135302L74.677859375,94.70160033954416L75.05312500000001,112.87326067121765L75.41052083333334,99.57703812022174L75.78578645833333,79.3182137340258L76.14318229166668,94.04133707105811L76.51844791666666,124.91377474200549L76.87584375,120.34426226456053L77.251109375,87.12883696937017L77.60850520833333,92.98039655913973L77.96590104166667,108.01187207359118L78.34116666666667,102.28653176103857L78.69856250000001,99.83657303973933L79.07382812499999,96.36152390196864L79.43122395833333,103.23884371492235L79.80648958333333,87.15888372643569L80.16388541666666,114.81228336086144L80.53915104166667,111.8720965790168L80.896546875,126.19182029053061L81.27181250000001,96.65259349992571L81.62920833333332,87.57163555056268L82.00447395833334,92.58923133033767L82.36186979166668,113.48992551695261L82.73713541666666,93.85401944953767L83.09453125,89.31496049784761L83.469796875,84.40494864119978L83.82719270833333,123.67793566783605L84.20245833333333,125.28094952821938L84.55985416666667,113.19246487569933L84.93511979166666,112.86206650228576L85.292515625,100.45186036760376L85.66778125,113.81706903180337L86.02517708333333,115.57897610784096L86.40044270833334,95.49636581969568L86.75783854166666,97.7502664436836L87.115234375,113.78635971247787L87.49050000000001,124.07348996937061L87.84789583333333,129.53708093726513L88.22316145833334,108.71107246735015L88.58055729166668,111.5646945754189L88.95582291666666,122.9911172127425L89.31321875,111.39506649826168L89.688484375,102.38914927395699L90.04588020833333,117.60679878564193L90.42114583333333,114.64640903575132L90.77854166666667,107.10557979645073L91.15380729166667,99.97965779722777L91.511203125,89.61973803771167L91.88646874999999,97.77639782388586L92.24386458333333,111.39939760184036L92.61913020833335,103.94741199860422L92.97652604166666,131.51425352602874L93.35179166666667,109.54304297750998L93.70918750000001,104.75224734774714L94.084453125,132.53300090927775L94.44184895833334,120.87971820055782L94.81711458333334,129.36661443721852L95.17451041666666,126.83600249297378L95.54977604166666,100.50478508953428L95.907171875,113.05371089747057L96.26456770833335,120.02129880410732L96.63983333333333,111.98125451935701L96.99722916666667,105.30770356973036L97.37249479166667,114.50943659496322L97.729890625,117.91304476947793L98.10515625,94.31268459732058L98.46255208333334,113.21032982215124L98.83781770833333,119.68314125266579L99.19521354166666,137.66287092284503L99.57047916666667,134.82135669181434L99.927875,121.90702854507981L100.303140625,122.0145478326906L100.66053645833333,123.20259456150706L101.03580208333334,121.87576572127928L101.39319791666667,106.67249490277638L101.76846354166666,109.46863920603202L102.125859375,118.81228836485144L102.501125,118.06618293826813L102.85852083333333,98.12087609234473L103.23378645833333,93.86286745228185L103.59118229166667,100.65069766138677L103.96644791666667,84.88867898997479L104.32384375,116.21578551898483L104.699109375,112.51541435700705L105.05650520833333,138.90212525357032L105.41390104166666,131.883183669026L105.78916666666666,120.80096910892449L106.1465625,115.23196263848851L106.521828125,129.6337653168387L106.87922395833333,133.96219832946935L107.25448958333334,135.3406672814493L107.61188541666668,97.1551383363607L107.98715104166666,97.49235612555758L108.344546875,100.84059789660216L108.7198125,124.68933366109512L109.07720833333333,131.15976098042472L109.45247395833333,107.89567104137988L109.80986979166667,119.3550477835956L110.18513541666667,146.06538007577797L110.54253125,129.11150343609174L110.917796875,106.33829432602116L111.27519270833334,118.23911917373773L111.65045833333333,123.82395001986761L112.00785416666666,127.5983264156529L112.38311979166667,126.0429369418829L112.74051562499999,117.13259942823704L113.11578125,129.05427223380843L113.47317708333334,113.34765677652618L113.84844270833334,116.98263148904952L114.20583854166667,106.24296201968856L114.56323437500001,106.51443932118815L114.9385,112.78762421645405L115.29589583333333,148.26115640424297L115.67116145833333,149.3130024362958L116.02855729166667,121.38038935240252L116.40382291666667,111.56081595645037L116.76121875,106.76667512074519L117.136484375,113.30194975742945L117.49388020833334,126.70402907257821L117.86914583333332,135.4712553341719L118.22654166666666,124.63046382424429L118.60180729166667,112.07618423078773L118.95920312499999,132.6579273353477L119.33446875,115.38021116557476L119.69186458333334,130.32769490184043L120.06713020833334,131.172172256122L120.42452604166667,136.35448077428944L120.79979166666666,119.33530987208248L121.1571875,119.52946295324071L121.532453125,129.17872269381942L121.88984895833333,116.83614541190786L122.26511458333333,115.75696201025202L122.62251041666667,150.62181814491007L122.99777604166665,130.6267543219283L123.355171875,143.76233743564813L123.71256770833334,112.17303722701388L124.08783333333332,126.95144374371715L124.44522916666666,115.40472234249803L124.82049479166668,142.5975816092532L125.177890625,126.39991193304309L125.55315625,117.9258540373436L125.91055208333333,119.30605085738841L126.28581770833334,126.63340457945071L126.64321354166665,124.77257759016162L127.01847916666667,133.70740397597203L127.37587500000001,130.68499902620826L127.751140625,120.59196199259115L128.10853645833333,133.05718891430467L128.48380208333333,116.5013068616901L128.84119791666666,128.32979356888015L129.21646354166666,124.97801708008697L129.573859375,111.82665532365945L129.949125,116.55400233230301L130.30652083333334,118.74221717811415L130.68178645833333,138.30827741561407L131.03918229166666,121.85581738435067L131.41444791666666,130.9375194137265L131.77184375,120.0607189932448L132.14710937499999,138.6499686622013L132.50450520833334,127.66122697731191L132.86190104166667,130.28960860574443L133.23716666666667,143.03285485031725L133.5945625,145.2166974420698L133.969828125,132.69023752900065L134.32722395833332,129.90184759552545L134.70248958333335,126.26695262107417L135.05988541666667,131.13834672637688L135.43515104166667,161.7347246758217L135.792546875,143.61223128986805L136.1678125,117.83893901081353L136.52520833333332,135.8217304371087L136.90047395833335,125.42844841851523L137.25786979166668,109.46957881673418L137.63313541666665,133.90280197754055L137.99053125,143.38582946714496L138.365796875,143.69132611904584L138.72319270833333,126.0277002820614L139.09845833333333,139.29168087299126L139.45585416666665,140.91505524191538L139.83111979166665,148.41422634764479L140.188515625,131.37641799356913L140.56378125,118.11154970113267L140.92117708333333,122.0361736475458L141.29644270833333,100.06209059351863L141.65383854166666,123.27154568549503L142.01123437500002,105.6863704569131L142.3865,116.88000032228176L142.7438958333333,132.757311054003L143.11916145833334,131.80024600740177L143.47655729166667,131.00129150817332L143.85182291666666,130.6083445898863L144.20921875000002,112.67259331894945L144.584484375,141.4768588826241L144.94188020833332,137.2566901758422L145.31714583333334,127.41295941800533L145.67454166666667,145.7405121358076L146.04980729166667,135.5713678283596L146.407203125,108.09678132075685L146.78246875,137.90168629371297L147.13986458333335,140.8416095893572L147.51513020833335,133.33208356863207L147.87252604166665,128.88686178306313L148.24779166666667,137.16987097608788L148.6051875,143.29778407065717L148.980453125,145.1595905211487L149.33784895833335,145.7494792358231L149.71311458333332,113.74558730460116L150.07051041666665,135.16337988339004L150.44577604166668,114.44627988315906L150.803171875,145.151125194891L151.16056770833333,140.65390886441685L151.53583333333333,126.37452437863246L151.89322916666666,129.34473548403673L152.26849479166668,165.9478220729309L152.625890625,144.9128478543924L153.00115624999998,160.40616363388102L153.35855208333334,146.27212591470362L153.73381770833333,152.12110203445602L154.09121354166666,136.57360294068238L154.4664791666667,127.36609113815058L154.823875,127.0185010135331L155.19914062499998,125.09006123186097L155.55653645833334,128.5394957234916L155.93180208333334,147.0819082147155L156.28919791666667,132.83274844445438L156.66446354166666,129.85771547292262L157.021859375,131.9964177187358L157.39712500000002,172.0329720387504L157.75452083333334,170.86178939638404L158.1297864583333,152.08744051157157L158.48718229166667,134.4791872769518L158.86244791666667,147.20598338305493L159.21984375,150.01949823295791L159.59510937500002,124.12913190600706L159.95250520833332,138.38588523672482L160.30990104166665,133.11182278517762L160.68516666666667,154.9157850773566L161.0425625,158.7678847951551L161.417828125,150.05122759836075L161.77522395833336,176.841974683387L162.15048958333333,162.84889152752336L162.50788541666665,139.68288405839792L162.88315104166668,130.64905528130646L163.240546875,145.97957543315002L163.6158125,146.6563076030106L163.97320833333333,114.49711885994017L164.34847395833333,146.39158951845968L164.7058697916667,152.1063544154597L165.08113541666665,139.84028303864199L165.43853124999998,150.88069115068078L165.813796875,163.56338117352468L166.17119270833334,162.54770854849423L166.54645833333333,140.46148778282887L166.9038541666667,133.32870485593853L167.27911979166666,163.2477230704426L167.636515625,143.71626634100673L168.01178125,154.83109003960848L168.36917708333334,159.9443201962695L168.7444427083333,164.09258055589117L169.10183854166667,146.80732435167747L169.459234375,128.4763477360065L169.83450000000002,147.31193723409507L170.19189583333335,149.47809007483207L170.56716145833332,136.34467631052425L170.92455729166667,145.9053549281984L171.29982291666667,152.2121701450485L171.65721875,134.7528085739218L172.03248437500002,153.29896264498257L172.38988020833332,129.6575696207573L172.76514583333332,186.39371723994557L173.12254166666668,188.0516697970924L173.49780729166667,148.6423885970055L173.85520312499997,132.48130097322095L174.23046875,135.84357128579876L174.58786458333333,141.28340285086315L174.96313020833335,142.57678975739285L175.32052604166668,103.41545994566802L175.69579166666665,172.44611190490087L176.0531875,161.6287587829361L176.428453125,152.95178097414552L176.78584895833333,133.26062491135352L177.16111458333336,117.02958651182978L177.51851041666666,96.92849964021401L177.89377604166665,157.86307080101227L178.251171875,151.61711982435736L178.60856770833334,138.2849385377571L178.9838333333333,136.99225773077046L179.34122916666666,134.40170784032847L179.71649479166666,138.54283900044265L180.073890625,138.9360074602479L180.44915625000002,130.90961650865765L180.80655208333332,134.52029560957845L181.18181770833334,120.30036650511319L181.53921354166667,133.0032298255724L181.91447916666667,156.3803614097096L182.27187500000002,142.1108480189596L182.647140625,137.86177802886695L183.00453645833332,140.42874861482463L183.37980208333335,142.93689549639038L183.73719791666667,121.46116628095034L184.11246354166664,135.1084435954364L184.469859375,138.80266935912803L184.845125,139.11783762984294L185.20252083333332,154.04253429539693L185.57778645833335,140.53530018787202L185.93518229166665,139.13758768833048L186.31044791666667,148.01323066113218L186.66784375,156.24252058480877L187.043109375,146.85933625587643L187.40050520833336,147.78914456539644L187.75790104166668,152.8238892398673L188.13316666666665,135.48282409205422L188.4905625,140.34097586211195L188.865828125,133.75767145476726L189.22322395833334,120.83668849660154L189.59848958333333,123.04034450169323L189.95588541666666,133.27304459164097L190.33115104166666,138.10763745873902L190.68854687500001,144.23206848960953L191.06381249999998,134.9687918750157L191.4212083333333,123.0153180937594L191.79647395833334,128.8243819487468L192.15386979166666,144.62549408986425L192.5291354166667,141.59170402952589L192.88653125000002,137.18730757396554L193.261796875,115.8248370418616L193.61919270833334,147.27464620886255L193.99445833333334,155.70430366407635L194.35185416666667,167.05388868219137L194.72711979166667,138.308071176806L195.084515625,135.94309598481593L195.45978125,129.40770883963066L195.81717708333335,140.17885936501955L196.19244270833332,143.9191375708779L196.54983854166665,147.95232449628116L196.907234375,160.21613524590256L197.2825,149.0706534900327L197.63989583333333,132.75554084527843L198.01516145833335,149.50782857029654L198.37255729166665,174.76149823718674L198.74782291666668,161.29811542542825L199.10521875,147.6542738658908L199.480484375,152.52690236703893L199.83788020833336,151.39710821709838L200.21314583333333,130.34867930651794L200.57054166666666,153.95794570828133L200.94580729166668,126.74284781685266L201.303203125,154.36993931574105L201.67846874999998,137.0759284331946L202.03586458333334,143.5093363567918L202.41113020833333,156.49594150094566L202.76852604166666,168.53140833680857L203.1437916666667,176.5305204695763L203.5011875,161.53848384298692L203.876453125,151.54936538265832L204.23384895833334,147.46591251210387L204.60911458333334,157.4092893810035L204.9665104166667,151.02507980173596L205.34177604166666,147.18590303603273L205.699171875,132.30744580473575L206.05656770833335,151.32183076409146L206.43183333333334,161.06243994157106L206.78922916666664,149.58708732557653L207.16449479166667,144.5773109890959L207.521890625,135.23643120157368L207.89715625,156.77824965970308L208.25455208333335,155.65915128145565L208.62981770833332,152.54183842512342L208.98721354166665,154.04205618007407L209.36247916666667,154.1902867561783L209.719875,150.7271170524481L210.09514062500003,145.06254530833505L210.45253645833333,140.3242026524922L210.82780208333332,165.80293190462476L211.18519791666668,135.46599742402486L211.56046354166668,133.09703564065603L211.91785937499998,186.43504201065247L212.293125,171.56049997264594L212.65052083333333,141.41823490294487L213.02578645833333,144.36027265925807L213.38318229166669,154.44830226742985L213.75844791666665,169.6968252673373L214.11584374999998,142.12362250415242L214.491109375,157.88566209750027L214.84850520833334,176.33980757162956L215.20590104166666,158.4078047786116L215.58116666666666,140.47526325905085L215.9385625,142.74873982980108L216.31382812500001,148.3304081172601L216.67122395833334,151.12628197973112L217.0464895833333,163.0884742659637L217.40388541666667,152.95470143331937L217.77915104166667,156.0701429687372L218.136546875,135.97861898436733L218.51181250000002,166.0303409987366L218.86920833333335,150.59731592736696L219.24447395833332,159.71161986829077L219.60186979166667,155.02517293597003L219.97713541666667,152.29973055782762L220.33453125,158.1748676315716L220.709796875,155.952635422693L221.06719270833332,165.39658679923195L221.44245833333335,168.0207743451642L221.79985416666668,162.2231635120897L222.17511979166665,157.67292576476265L222.532515625,147.1125988950987L222.90778125,134.9945264476931L223.26517708333333,136.3403291498659L223.64044270833335,127.1224201461695L223.99783854166668,159.99065357333558L224.35523437499998,168.02682167462194L224.7305,149.9975438628893L225.08789583333333,133.4758756133497L225.46316145833333,145.21253286675096L225.8205572916667,155.10657800004176L226.19582291666666,152.77206203440008L226.55321874999998,136.2641216725062L226.928484375,157.09237370788756L227.28588020833334,150.29909477412528L227.66114583333334,163.49099217760454L228.01854166666666,170.62829858844216L228.39380729166666,160.37385969868146L228.75120312500002,150.21104855484273L229.12646875000002,157.12908241478507L229.48386458333331,171.097869370746L229.85913020833334,155.5737620105549L230.21652604166667,143.13933955134178L230.59179166666667,143.5520726376845L230.94918750000002,150.01372827136956L231.324453125,137.90195212033052L231.68184895833332,150.87580017844834L232.05711458333334,149.32612463831902L232.41451041666667,162.88991860985763L232.78977604166667,141.40143296027193L233.147171875,150.01108016552934L233.50456770833333,161.87486653555877L233.87983333333335,140.62820117133532L234.23722916666668,152.05348874841735L234.61249479166665,142.94582371780044L234.969890625,153.03786532443027L235.34515625,154.26188700652872L235.70255208333333,142.34356353078334L236.07781770833336,167.01454843159945L236.43521354166666,164.6529813258435L236.81047916666665,172.06011121801055L237.167875,156.02146844703864L237.543140625,143.80550934695552L237.90053645833333,147.99649474753946L238.27580208333333,149.53448098977813L238.63319791666666,167.99306586075076L239.00846354166669,163.6066424077049L239.365859375,143.16243693025677L239.74112499999998,176.7534310650335L240.09852083333334,157.0398209852878L240.47378645833334,150.2589121224227L240.83118229166666,156.03426539908304L241.2064479166667,153.19903580194983L241.56384375,156.5192338242905L241.939109375,161.82146427957872L242.29650520833334,158.3480173965017L242.65390104166667,131.89186840413333L243.02916666666667,154.71100760435058L243.3865625,157.3572826107442L243.761828125,165.94553589583037L244.11922395833332,165.71415747499822L244.49448958333335,151.31507651624892L244.85188541666668,161.48187583099497L245.22715104166667,155.61198471671753L245.584546875,162.93648559502608" style="fill: none;" fill="none"></path></g></g></g></g><g opacity="0.2"><g><g><g><path stroke="rgb(255, 112, 67)" stroke-width="2px" d="M26.000546875,189.82557538747787L26.375812500000002,161.91005859375L26.73320833333333,159.49014726877212L27.108473958333335,148.79495683908462L27.465869791666666,167.67896894216537L27.841135416666667,156.85414511561393L28.198531250000002,140.36844316720962L28.573796875,117.29274902343751L28.931192708333334,143.4365478515625L29.306458333333335,107.05131504535676L29.663854166666667,110.98367754220963L30.039119791666664,124.91983476877213L30.396515625,104.26405194997788L30.77178125,127.68547031879426L31.129177083333335,98.40873692035676L31.504442708333336,101.34718183279038L31.861838541666664,104.17764726877213L32.219234375,85.5744767546654L32.5945,96.20483729839326L32.95189583333333,78.09867832660677L33.327161458333336,48.71391270160678L33.68455729166667,42.34001133441928L34.05982291666667,43.83083496093753L34.417218749999996,82.67923418283465L34.792484375,57.615757620334655L35.14988020833333,42.42641601562503L35.52514583333333,28.944015240669277L35.88254166666667,9.260522460937528L36.257807291666666,31.36392656564715L36.615203125,9.498214459419279L36.990468750000005,4.485476946830777L37.34786458333333,9.325352346897153L37.72313020833333,38.23478672504428L38.080526041666666,-22.911453509330702L38.45579166666666,3.9669433593750276L38.813187500000005,-31.791723632812452L39.54584895833333,-11.546494925022078L39.921114583333335,7.294314837455777L40.27851041666666,-6.274490618705702L41.36856770833333,-12.021826171874952L41.743833333333335,23.499148821830776L42.10122916666666,2.152023053169278L42.47649479166667,-6.620214843749952L42.833890625,4.939233398437527L43.20915625,5.457766985893277L43.566552083333335,12.739181256294279L43.94181770833333,26.6969132781029L44.29921354166667,-4.027441406249952L44.674479166666664,18.50809160470965L45.031875,14.532474017143278L45.407140625,3.2539201140404024L45.76453645833333,33.26530430316928L46.139802083333336,3.815708792209653L46.497197916666664,-5.302200579643202L46.87246354166667,-16.926478707790327L47.229859375,14.575729107856779L47.605125,8.871595895290403L47.962520833333336,31.083032226562526L48.33778645833333,17.233279681205776L48.69518229166667,21.576196289062526L49.070447916666666,46.056309378147155L49.42784375,28.511886334419277L49.803109375,-9.104956054687452L50.16050520833333,27.7772355437279L50.51790104166667,-7.225205862522078L50.893166666666666,25.63821855783465L51.2505625,34.799330270290405L51.625828125,14.467696881294279L51.98322395833333,36.67908046245578L52.35848958333333,19.04825273752215L52.715885416666666,59.38747558593753L53.09115104166667,27.5611710906029L53.448546875,37.13283691406253L53.8238125,73.84216639995577L54.18120833333333,70.83889160156252L54.556473958333335,43.333876168727905L54.91386979166667,39.59595057964328L55.28913541666666,33.35170898437503L55.64653125,60.402967965602905L56.021796875,57.03239414691928L56.379192708333335,60.89992675781253L56.75445833333333,9.887088274955778L57.11185416666666,35.85807774066928L57.487119791666665,88.90190098285676L57.844515625,49.059584176540405L58.219781250000004,100.18045488595963L58.57717708333333,31.47195879220965L58.952442708333336,99.44580409526826L59.309838541666664,41.34609375000003L59.667234375,65.84778163433077L60.042500000000004,49.36210606098178L60.39989583333333,79.82719395160677L60.775161458333336,42.72888514995578L61.132557291666664,30.218774414062526L61.50782291666667,107.80754063129426L61.865218750000004,53.01357421875003L62.240484374999994,62.045078909397155L62.597880208333336,95.81596348285676L62.973145833333334,47.61196289062503L63.33054166666667,87.10855547189715L63.705807291666666,125.37353847026826L64.063203125,69.95300624370577L64.43846875,110.16262207031251L64.79586458333333,24.255374407768276L65.17113020833334,101.21757481098176L65.52852604166667,78.70361659526827L65.90379166666666,93.46082929372788L66.2611875,90.47912929058076L66.636453125,96.57218906879426L66.99384895833333,101.47684160470963L67.36911458333334,31.536788678169277L67.72651041666666,110.52992109060288L68.10177604166667,115.32654139995576L68.45917187500001,115.54260585308076L68.81656770833332,82.70080897808077L69.19183333333334,95.14614257812501L69.54922916666666,82.2254777312279L69.92449479166667,89.11796543598176L70.281890625,66.84169921875002L70.65715625,125.76246503591538L71.01455208333334,110.94047520160676L71.38981770833333,115.56423339843751L71.74721354166667,109.38476893901826L72.12247916666666,18.572921490669277L72.47987499999999,140.26041094064712L72.85514062499999,64.87549159526827L73.21253645833333,106.07902500629426L73.58780208333334,74.59839198589327L73.94519791666666,152.92178261876106L74.32046354166667,73.75576171875002L74.677859375,90.91125819683076L75.05312500000001,140.13075116872787L75.41052083333334,79.6327042937279L75.78578645833333,48.92997715473178L76.14318229166668,116.12602207660676L76.51844791666666,171.22243124842643L76.87584375,113.48999354839326L77.251109375,37.305699026584655L77.60850520833333,101.75773594379426L77.96590104166667,130.55908534526824L78.34116666666667,93.69852129220963L78.69856250000001,96.16163495779038L79.07382812499999,91.14895019531251L79.43122395833333,113.55482343435288L79.80648958333333,63.03894374370578L80.16388541666666,156.2923828125L80.53915104166667,107.46181640625001L80.896546875,147.67140585780143L81.27181250000001,52.34375331401828L81.62920833333332,73.95019862651827L82.00447395833334,100.11562500000001L82.36186979166668,144.840966796875L82.73713541666666,64.4001603484154L83.09453125,82.50637207031252L83.469796875,77.0399308562279L83.82719270833333,182.58741620779037L84.20245833333333,127.68547031879426L84.55985416666667,95.05973789691926L84.93511979166666,112.36646894216538L85.292515625,81.83655116558077L85.66778125,133.86488202810287L86.02517708333333,118.22183672189713L86.40044270833334,65.3724503874779L86.75783854166666,101.13111737966538L87.115234375,137.84049961566924L87.49050000000001,139.50418535470962L87.84789583333333,137.73246738910674L88.22316145833334,77.4720597624779L88.58055729166668,115.84512773752213L88.95582291666666,140.13075116872787L89.31321875,94.00099042654038L89.688484375,88.88027343750001L90.04588020833333,140.43327305316924L90.42114583333333,110.20582441091538L90.77854166666667,95.79433593750001L91.15380729166667,89.29077479839326L91.511203125,74.07985839843752L91.88646874999999,110.01138750314713L92.24386458333333,131.83389726877212L92.61913020833335,92.76943359375001L92.97652604166666,172.86451581716537L93.35179166666667,76.58622715473177L93.70918750000001,97.56605390310288L94.084453125,174.20413125157356L94.44184895833334,103.39979413747788L94.81711458333334,142.09695879220962L95.17451041666666,123.04008457660676L95.54977604166666,61.00795898437503L95.907171875,131.877099609375L96.26456770833335,130.4726806640625L96.63983333333333,99.92118809223176L96.99722916666667,95.29737714529038L97.37249479166667,128.3120361328125L97.729890625,123.01845703125001L98.10515625,58.912144339084655L98.46255208333334,141.55679765939712L98.83781770833333,129.3923583984375L99.19521354166666,164.63246542811393L99.57047916666667,130.55908534526824L99.927875,102.53553632497788L100.303140625,122.17582676410676L100.66053645833333,124.98466465473176L101.03580208333334,119.88552246093751L101.39319791666667,83.86758867502215L101.76846354166666,113.66285566091538L102.125859375,132.82776210308074L102.501125,116.94702479839326L102.85852083333333,68.20291582345965L103.23378645833333,87.47585449218752L103.59118229166667,110.83244297504426L103.96644791666667,61.24565098285678L104.32384375,163.2064453125L104.699109375,106.96485761404038L105.05650520833333,178.48219159841537L105.41390104166666,121.35477129220963L105.78916666666666,104.17764726877213L106.1465625,106.87845293283463L106.521828125,151.23646933436393L106.87922395833333,140.45484784841537L107.25448958333334,137.40837070941924L107.61188541666668,39.876844918727905L107.98715104166666,97.99818280935288L108.344546875,105.86296055316926L108.7198125,160.46243730783462L109.07720833333333,140.86540195941924L109.45247395833333,72.99953613281252L109.80986979166667,136.54411289691924L110.18513541666667,186.13087851405143L110.54253125,103.68068847656251L110.917796875,72.1784806609154L111.27519270833334,136.0903564453125L111.65045833333333,132.2011962890625L112.00785416666666,133.25989100933074L112.38311979166667,123.70985273122788L112.74051562499999,103.76709315776826L113.11578125,146.93678144216537L113.47317708333334,89.78773359060288L113.84844270833334,122.43509355783463L114.20583854166667,90.13345781564713L114.56323437500001,106.92165527343751L114.9385,122.19740155935288L115.29589583333333,201.47145468592643L115.67116145833333,150.890771484375L116.02855729166667,79.48146972656252L116.40382291666667,96.83145586252213L116.76121875,99.57546386718751L117.136484375,123.10486171245576L117.49388020833334,146.80714804530143L117.86914583333332,148.6220947265625L118.22654166666666,108.36927655935288L118.60180729166667,93.24476484060288L118.95920312499999,163.5305419921875L119.33446875,89.46363691091538L119.69186458333334,152.74892050623893L120.06713020833334,132.43888828754424L120.42452604166667,144.12794355154037L120.79979166666666,93.80655351877213L121.1571875,119.82069257497788L121.532453125,143.6526123046875L121.88984895833333,98.32227948904038L122.26511458333333,114.13818690776826L122.62251041666667,202.91910234689712L122.99777604166665,100.63415858745576L123.355171875,163.46571210622787L123.71256770833334,64.78908691406252L124.08783333333332,149.11905351877212L124.44522916666666,98.08464024066926L124.82049479166668,183.38687050938606L125.177890625,102.10340741872788L125.55315625,105.21476719379426L125.91055208333333,121.37634608745576L126.28581770833334,137.62443516254424L126.64321354166665,121.98133710622788L127.01847916666667,147.1096435546875L127.37587500000001,126.15139160156251L127.751140625,105.45240644216538L128.10853645833333,151.755029296875L128.48380208333333,91.66748378276826L128.84119791666666,146.07252362966537L129.21646354166666,119.95035234689713L129.573859375,92.09961268901826L129.949125,123.64502284526826L130.30652083333334,122.02453944683076L130.68178645833333,167.65736777186393L131.03918229166666,97.17712733745576L131.41444791666666,144.56007245779037L131.77184375,103.74551836252213L132.14710937499999,166.53384316563606L132.50450520833334,111.17811444997788L132.86190104166667,134.23218104839324L133.23716666666667,162.14772421717643L133.5945625,148.49246132969856L133.969828125,113.90054765939713L134.32722395833332,125.71926269531251L134.70248958333335,120.81461015939713L135.05988541666667,138.44543788433074L135.43515104166667,207.62929159998893L135.792546875,116.42849121093751L136.1678125,79.17900059223177L136.52520833333332,162.79591757655143L136.90047395833335,109.83852539062501L137.25786979166668,85.53127441406252L137.63313541666665,170.55263671875L137.99053125,157.61037070155143L138.365796875,144.14957109689712L138.72319270833333,99.53226152658463L139.09845833333333,159.18765175938606L139.45585416666665,143.35011679530143L139.83111979166665,159.66298300623893L140.188515625,105.81970546245576L140.56378125,98.21424726247788L140.92117708333333,127.92310956716538L141.29644270833333,67.1009660124779L141.65383854166666,158.08572832345962L142.01123437500002,79.3086076140404L142.3865,133.67044512033462L142.7438958333333,156.57327715158462L143.11916145833334,130.3646484375L143.47655729166667,129.80285975933074L143.85182291666666,130.01892421245574L144.20921875000002,85.76896641254427L144.584484375,184.68325722813606L144.94188020833332,130.92643711566924L145.31714583333334,112.64736328125001L145.67454166666667,173.23184121251106L146.04980729166667,120.31765136718751L146.407203125,66.8849015593529L146.78246875,182.60904375314712L147.13986458333335,145.25149453282356L147.51513020833335,122.06779453754426L147.87252604166665,122.21902910470963L148.24779166666667,149.594384765625L148.6051875,152.48965371251106L148.980453125,147.95230019688606L149.33784895833335,146.63431230783462L149.71311458333332,65.73974940776827L150.07051041666665,167.29006875157356L150.44577604166668,83.37062988281252L150.803171875,191.20839316248893L151.16056770833333,133.90808436870574L151.53583333333333,104.95544764995576L151.89322916666666,133.80005214214324L152.26849479166668,220.85245195627212L152.625890625,113.36038652658463L153.00115624999998,183.64613730311393L153.35855208333334,125.07106933593751L153.73381770833333,160.89456621408462L154.09121354166666,113.25235430002213L154.4664791666667,113.55482343435288L154.823875,126.49711582660676L155.19914062499998,122.19740155935288L155.55653645833334,133.7136474609375L155.93180208333334,174.89552695155143L156.28919791666667,111.45900878906251L156.66446354166666,125.39516601562501L157.021859375,135.20447108745574L157.39712500000002,232.08780351877212L157.75452083333334,169.10501543283462L158.1297864583333,123.92591718435288L158.48718229166667,108.06680742502213L158.86244791666667,166.29617754220962L159.21984375,154.2397705078125L159.59510937500002,85.29358241558077L159.95250520833332,159.77101523280143L160.30990104166665,125.20072910785676L160.68516666666667,187.621728515625L161.0425625,164.54603437185287L161.417828125,136.97624180316924L161.77522395833336,217.02809531092643L162.15048958333333,141.85926679372787L162.50788541666665,104.93387285470963L162.88315104166668,117.09831211566926L163.240546875,168.97535566091537L163.6158125,147.67140585780143L163.97320833333333,66.25833574533465L164.34847395833333,194.23329550623893L164.7058697916667,160.67850176095962L165.08113541666665,121.44117597341538L165.43853124999998,167.44130331873893L165.813796875,182.58741620779037L166.17119270833334,161.02419961094856L166.54645833333333,107.33215663433076L166.9038541666667,122.62953046560288L167.27911979166666,208.12625039219856L167.636515625,114.41908124685288L168.01178125,171.50332558751106L168.36917708333334,167.61416543126106L168.7444427083333,170.31497109532356L169.10183854166667,120.87944004535676L169.459234375,100.97988281250001L169.83450000000002,175.56532148122787L170.19189583333335,152.7273193359375L170.56716145833332,116.64455566406251L170.92455729166667,160.24637285470962L171.29982291666667,161.67239297032356L171.65721875,108.56376621723176L172.03248437500002,181.11819375157356L172.38988020833332,94.19548008441926L172.76514583333332,271.4979386687279L173.12254166666668,190.5385986328125L173.49780729166667,89.52846679687501L173.85520312499997,108.23966953754426L174.23046875,140.88697675466537L174.58786458333333,149.44315019845962L174.96313020833335,144.5168701171875L175.32052604166668,44.67346522808078L175.69579166666665,275.99208984375L176.0531875,145.40272909998893L176.428453125,139.93631426095962L176.78584895833333,103.72389081716538L177.16111458333336,92.68302891254426L177.51851041666666,66.7768693327904L177.89377604166665,249.26492754220962L178.251171875,142.248193359375L178.60856770833334,118.28666660785676L178.9838333333333,135.05323652029037L179.34122916666666,130.51588300466537L179.71649479166666,144.75453574061393L180.073890625,139.52576014995574L180.44915625000002,118.87003008127213L180.80655208333332,139.93631426095962L181.18181770833334,98.97047284841538L181.53921354166667,152.05752480626106L181.91447916666667,191.44605878591537L182.27187500000002,120.70657793283463L182.647140625,131.48817304372787L183.00453645833332,144.27920449376106L183.37980208333335,146.69911581873893L183.73719791666667,89.24757245779038L184.11246354166664,155.57935956716537L184.469859375,144.34400800466537L184.845125,139.59059003591537L185.20252083333332,176.42957929372787L185.57778645833335,120.27444902658463L185.93518229166665,137.04101893901824L186.31044791666667,161.32669512033462L186.66784375,168.58645547032356L187.043109375,132.78455976247787L187.40050520833336,149.18385702967643L187.75790104166668,160.37600625157356L188.13316666666665,109.47122637033463L188.4905625,147.62820351719856L188.865828125,123.88271484375001L189.22322395833334,101.45521405935288L189.59848958333333,126.34582850933076L189.95588541666666,148.6220947265625L190.33115104166666,145.35952675938606L190.68854687500001,153.41871503591537L191.06381249999998,121.07387695312501L191.4212083333333,105.08510742187501L191.79647395833334,137.53797773122787L192.15386979166666,168.32716230154037L192.5291354166667,137.04101893901824L192.88653125000002,130.580712890625L193.261796875,83.78113124370577L193.61919270833334,194.44935995936393L193.99445833333334,168.34878984689712L194.35185416666667,184.07826620936393L194.72711979166667,95.18934491872788L195.084515625,132.39563319683074L195.45978125,119.60462812185288L195.81717708333335,156.33558515310287L196.19244270833332,149.52955487966537L196.54983854166665,154.00210488438606L196.907234375,178.61185137033462L197.2825,132.35243085622787L197.63989583333333,108.28287187814713L198.01516145833335,174.63626015782356L198.37255729166665,212.64200273752212L198.74782291666668,141.10304120779037L199.10521875,127.18851152658463L199.480484375,159.83584511876106L199.83788020833336,149.7024169921875L200.21314583333333,98.77603594064713L200.57054166666666,189.37184531092643L200.94580729166668,85.92020097970965L201.303203125,195.81057656407356L201.67846874999998,111.13491210937501L202.03586458333334,153.1594482421875L202.41113020833333,175.97584921717643L202.76852604166666,186.58460859060287L203.1437916666667,188.52918866872787L203.5011875,139.05042890310287L203.876453125,136.56568769216537L204.23384895833334,141.34073320627212L204.60911458333334,172.32435468435287L204.9665104166667,141.44876543283462L205.34177604166666,141.42713788747787L205.699171875,109.98975995779038L206.05656770833335,179.843408203125L206.43183333333334,175.67335370779037L206.78922916666664,132.37405840158462L207.16449479166667,137.062646484375L207.521890625,121.22511152029038L207.89715625,189.09097734689712L208.25455208333335,153.98050371408462L208.62981770833332,147.865869140625L208.98721354166665,156.2923828125L209.36247916666667,154.41263262033462L209.719875,145.53236249685287L210.09514062500003,136.56568769216537L210.45253645833333,133.21668866872787L210.82780208333332,204.02102578282356L211.18519791666668,89.96059570312501L211.56046354166668,129.54359296560287L211.91785937499998,266.44205156564715L212.293125,149.24868691563606L212.65052083333333,96.20483729839326L213.02578645833333,148.77332929372787L213.38318229166669,169.5803466796875L213.75844791666665,192.56960976719856L214.11584374999998,100.76381835937501L214.491109375,181.52872148752212L214.84850520833334,204.02102578282356L215.20590104166666,131.50980058908462L215.58116666666666,113.57645097970963L215.9385625,146.15895468592643L216.31382812500001,156.70291054844856L216.67122395833334,155.3200927734375L217.0464895833333,181.0317626953125L217.40388541666667,137.75404218435287L217.77915104166667,160.74330527186393L218.136546875,105.84133300781251L218.51181250000002,211.10792402029037L218.86920833333335,127.44777832031251L219.24447395833332,173.38307577967643L219.60186979166667,147.99550253748893L219.97713541666667,148.21156699061393L220.33453125,166.9875732421875L220.709796875,152.619287109375L221.06719270833332,179.56251386404037L221.44245833333335,171.9570556640625L221.79985416666668,153.52674726247787L222.17511979166665,150.84756914377212L222.532515625,131.27210859060287L222.90778125,116.81741777658463L223.26517708333333,138.359033203125L223.64044270833335,113.29555664062501L223.99783854166668,209.29300371408462L224.35523437499998,180.08107382655143L224.7305,122.95362714529038L225.08789583333333,108.69337323904038L225.46316145833333,162.81751874685287L225.8205572916667,169.94764569997787L226.19582291666666,149.2702880859375L226.55321874999998,111.50221112966538L226.928484375,188.33475176095962L227.28588020833334,140.10917637348174L227.66114583333334,183.27883828282356L228.01854166666666,181.33425820469856L228.39380729166666,144.99220136404037L228.75120312500002,134.96683183908462L229.12646875000002,167.50613320469856L229.48386458333331,192.0510498046875L229.85913020833334,132.28760097026824L230.21652604166667,124.48770586252213L230.59179166666667,144.17117226719856L230.94918750000002,159.70621172189712L231.324453125,119.73428789377213L231.68184895833332,170.336572265625L232.05711458333334,147.001611328125L232.41451041666667,183.23560956716537L232.78977604166667,109.16870448589326L233.147171875,162.92555097341537L233.50456770833333,179.67054609060287L233.87983333333335,108.75820312500001L234.23722916666668,169.19142011404037L234.61249479166665,129.284326171875L234.969890625,168.175927734375L235.34515625,156.09791952967643L235.70255208333333,124.46607831716538L236.07781770833336,204.02102578282356L236.43521354166666,161.11063066720962L236.81047916666665,183.17080605626106L237.167875,131.96350429058074L237.543140625,125.48157069683076L237.90053645833333,154.28297284841537L238.27580208333333,151.84146035313606L238.63319791666666,195.68094316720962L239.00846354166669,157.02700722813606L239.365859375,112.49612871408463L239.74112499999998,227.13992226719856L240.09852083333334,127.46940586566926L240.47378645833334,140.087548828125L240.83118229166666,164.69729531407356L241.2064479166667,148.94619140625L241.56384375,161.49953085780143L241.939109375,169.77480996251106L242.29650520833334,153.13784707188606L242.65390104166667,92.20764491558076L243.02916666666667,188.93971640467643L243.3865625,161.32669512033462L243.761828125,178.82791582345962L244.11922395833332,165.36708984375L244.49448958333335,129.716455078125L244.85188541666668,176.73207480311393L245.22715104166667,146.80714804530143L245.584546875,173.92323691248893" style="fill: none;" fill="none"></path></g></g></g></g></g></g><g transform="translate(61, 177)" clip-path="url(#clip_1)"><clipPath id="clip_1"><rect width="268" height="23"></rect></clipPath><g><g><line x1="0" y1="0" x2="0" y2="5" style="visibility: inherit;" fill="rgb(0, 0, 0)" stroke="rgb(204, 204, 204)" stroke-width="1px"></line><line x1="22.337239583333332" y1="0" x2="22.337239583333332" y2="5" style="visibility: inherit;" fill="rgb(0, 0, 0)" stroke="rgb(204, 204, 204)" stroke-width="1px"></line><line x1="44.674479166666664" y1="0" x2="44.674479166666664" y2="5" style="visibility: inherit;" fill="rgb(0, 0, 0)" stroke="rgb(204, 204, 204)" stroke-width="1px"></line><line x1="67.01171875" y1="0" x2="67.01171875" y2="5" style="visibility: inherit;" fill="rgb(0, 0, 0)" stroke="rgb(204, 204, 204)" stroke-width="1px"></line><line x1="89.34895833333333" y1="0" x2="89.34895833333333" y2="5" style="visibility: inherit;" fill="rgb(0, 0, 0)" stroke="rgb(204, 204, 204)" stroke-width="1px"></line><line x1="111.68619791666667" y1="0" x2="111.68619791666667" y2="5" style="visibility: inherit;" fill="rgb(0, 0, 0)" stroke="rgb(204, 204, 204)" stroke-width="1px"></line><line x1="134.0234375" y1="0" x2="134.0234375" y2="5" style="visibility: inherit;" fill="rgb(0, 0, 0)" stroke="rgb(204, 204, 204)" stroke-width="1px"></line><line x1="156.36067708333334" y1="0" x2="156.36067708333334" y2="5" style="visibility: inherit;" fill="rgb(0, 0, 0)" stroke="rgb(204, 204, 204)" stroke-width="1px"></line><line x1="178.69791666666666" y1="0" x2="178.69791666666666" y2="5" style="visibility: inherit;" fill="rgb(0, 0, 0)" stroke="rgb(204, 204, 204)" stroke-width="1px"></line><line x1="201.03515625" y1="0" x2="201.03515625" y2="5" style="visibility: inherit;" fill="rgb(0, 0, 0)" stroke="rgb(204, 204, 204)" stroke-width="1px"></line><line x1="223.37239583333334" y1="0" x2="223.37239583333334" y2="5" style="visibility: inherit;" fill="rgb(0, 0, 0)" stroke="rgb(204, 204, 204)" stroke-width="1px"></line><line x1="245.70963541666666" y1="0" x2="245.70963541666666" y2="5" style="visibility: inherit;" fill="rgb(0, 0, 0)" stroke="rgb(204, 204, 204)" stroke-width="1px"></line><line x1="268.046875" y1="0" x2="268.046875" y2="5" style="visibility: inherit;" fill="rgb(0, 0, 0)" stroke="rgb(204, 204, 204)" stroke-width="1px"></line></g><g transform="translate(0, 8)"><text x="0" y="0" dx="0em" dy="0.95em" style="text-anchor: middle; visibility: hidden; font-family: Roboto, sans-serif; font-size: 12px; font-weight: 200;" fill="rgb(33, 33, 33)" stroke="none" stroke-width="1px">-1M</text><text x="22.337239583333332" y="0" dx="0em" dy="0.95em" style="text-anchor: middle; visibility: inherit; font-family: Roboto, sans-serif; font-size: 12px; font-weight: 200;" fill="rgb(33, 33, 33)" stroke="none" stroke-width="1px">0</text><text x="44.674479166666664" y="0" dx="0em" dy="0.95em" style="text-anchor: middle; visibility: hidden; font-family: Roboto, sans-serif; font-size: 12px; font-weight: 200;" fill="rgb(33, 33, 33)" stroke="none" stroke-width="1px">1M</text><text x="67.01171875" y="0" dx="0em" dy="0.95em" style="text-anchor: middle; visibility: inherit; font-family: Roboto, sans-serif; font-size: 12px; font-weight: 200;" fill="rgb(33, 33, 33)" stroke="none" stroke-width="1px">2M</text><text x="89.34895833333333" y="0" dx="0em" dy="0.95em" style="text-anchor: middle; visibility: hidden; font-family: Roboto, sans-serif; font-size: 12px; font-weight: 200;" fill="rgb(33, 33, 33)" stroke="none" stroke-width="1px">3M</text><text x="111.68619791666667" y="0" dx="0em" dy="0.95em" style="text-anchor: middle; visibility: inherit; font-family: Roboto, sans-serif; font-size: 12px; font-weight: 200;" fill="rgb(33, 33, 33)" stroke="none" stroke-width="1px">4M</text><text x="134.0234375" y="0" dx="0em" dy="0.95em" style="text-anchor: middle; visibility: hidden; font-family: Roboto, sans-serif; font-size: 12px; font-weight: 200;" fill="rgb(33, 33, 33)" stroke="none" stroke-width="1px">5M</text><text x="156.36067708333334" y="0" dx="0em" dy="0.95em" style="text-anchor: middle; visibility: inherit; font-family: Roboto, sans-serif; font-size: 12px; font-weight: 200;" fill="rgb(33, 33, 33)" stroke="none" stroke-width="1px">6M</text><text x="178.69791666666666" y="0" dx="0em" dy="0.95em" style="text-anchor: middle; visibility: hidden; font-family: Roboto, sans-serif; font-size: 12px; font-weight: 200;" fill="rgb(33, 33, 33)" stroke="none" stroke-width="1px">7M</text><text x="201.03515625" y="0" dx="0em" dy="0.95em" style="text-anchor: middle; visibility: inherit; font-family: Roboto, sans-serif; font-size: 12px; font-weight: 200;" fill="rgb(33, 33, 33)" stroke="none" stroke-width="1px">8M</text><text x="223.37239583333334" y="0" dx="0em" dy="0.95em" style="text-anchor: middle; visibility: hidden; font-family: Roboto, sans-serif; font-size: 12px; font-weight: 200;" fill="rgb(33, 33, 33)" stroke="none" stroke-width="1px">9M</text><text x="245.70963541666666" y="0" dx="0em" dy="0.95em" style="text-anchor: middle; visibility: inherit; font-family: Roboto, sans-serif; font-size: 12px; font-weight: 200;" fill="rgb(33, 33, 33)" stroke="none" stroke-width="1px">10M</text><text x="268.046875" y="0" dx="0em" dy="0.95em" style="text-anchor: middle; visibility: hidden; font-family: Roboto, sans-serif; font-size: 12px; font-weight: 200;" fill="rgb(33, 33, 33)" stroke="none" stroke-width="1px">11M</text></g><line x1="0" y1="0" x2="268.046875" y2="0" fill="rgb(0, 0, 0)" stroke="rgb(204, 204, 204)" stroke-width="1px"></line></g></g></g></g></svg>