<svg viewBox="0 0 330 200" xmlns="http://www.w3.org/2000/svg"><g><g><g><g><g><line x1="72.34375" y1="177" x2="67.34375" y2="177" style="visibility: inherit;" fill="rgb(0, 0, 0)" stroke="rgb(204, 204, 204)" stroke-width="1px"></line><line x1="72.34375" y1="157.33333333333334" x2="67.34375" y2="157.33333333333334" style="visibility: inherit;" fill="rgb(0, 0, 0)" stroke="rgb(204, 204, 204)" stroke-width="1px"></line><line x1="72.34375" y1="137.66666666666666" x2="67.34375" y2="137.66666666666666" style="visibility: inherit;" fill="rgb(0, 0, 0)" stroke="rgb(204, 204, 204)" stroke-width="1px"></line><line x1="72.34375" y1="118.00000000000001" x2="67.34375" y2="118.00000000000001" style="visibility: inherit;" fill="rgb(0, 0, 0)" stroke="rgb(204, 204, 204)" stroke-width="1px"></line><line x1="72.34375" y1="98.33333333333334" x2="67.34375" y2="98.33333333333334" style="visibility: inherit;" fill="rgb(0, 0, 0)" stroke="rgb(204, 204, 204)" stroke-width="1px"></line><line x1="72.34375" y1="78.66666666666669" x2="67.34375" y2="78.66666666666669" style="visibility: inherit;" fill="rgb(0, 0, 0)" stroke="rgb(204, 204, 204)" stroke-width="1px"></line><line x1="72.34375" y1="58.999999999999986" x2="67.34375" y2="58.999999999999986" style="visibility: inherit;" fill="rgb(0, 0, 0)" stroke="rgb(204, 204, 204)" stroke-width="1px"></line><line x1="72.34375" y1="39.33333333333333" x2="67.34375" y2="39.33333333333333" style="visibility: inherit;" fill="rgb(0, 0, 0)" stroke="rgb(204, 204, 204)" stroke-width="1px"></line><line x1="72.34375" y1="19.666666666666657" x2="67.34375" y2="19.666666666666657" style="visibility: inherit;" fill="rgb(0, 0, 0)" stroke="rgb(204, 204, 204)" stroke-width="1px"></line><line x1="72.34375" y1="0" x2="67.34375" y2="0" style="visibility: inherit;" fill="rgb(0, 0, 0)" stroke="rgb(204, 204, 204)" stroke-width="1px"></line></g><g transform="translate(62.34375, 0)"><text x="0" y="177" dx="0em" dy="0.3em" style="text-anchor: end; visibility: hidden; font-family: Roboto, sans-serif; font-size: 12px; font-weight: 200;" fill="rgb(33, 33, 33)" stroke="none" stroke-width="1px">-0.03</text><text x="0" y="157.33333333333334" dx="0em" dy="0.3em" style="text-anchor: end; visibility: inherit; font-family: Roboto, sans-serif; font-size: 12px; font-weight: 200;" fill="rgb(33, 33, 33)" stroke="none" stroke-width="1px">-0.028</text><text x="0" y="137.66666666666666" dx="0em" dy="0.3em" style="text-anchor: end; visibility: hidden; font-family: Roboto, sans-serif; font-size: 12px; font-weight: 200;" fill="rgb(33, 33, 33)" stroke="none" stroke-width="1px">-0.026</text><text x="0" y="118.00000000000001" dx="0em" dy="0.3em" style="text-anchor: end; visibility: inherit; font-family: Roboto, sans-serif; font-size: 12px; font-weight: 200;" fill="rgb(33, 33, 33)" stroke="none" stroke-width="1px">-0.024</text><text x="0" y="98.33333333333334" dx="0em" dy="0.3em" style="text-anchor: end; visibility: hidden; font-family: Roboto, sans-serif; font-size: 12px; font-weight: 200;" fill="rgb(33, 33, 33)" stroke="none" stroke-width="1px">-0.022</text><text x="0" y="78.66666666666669" dx="0em" dy="0.3em" style="text-anchor: end; visibility: inherit; font-family: Roboto, sans-serif; font-size: 12px; font-weight: 200;" fill="rgb(33, 33, 33)" stroke="none" stroke-width="1px">-0.02</text><text x="0" y="58.999999999999986" dx="0em" dy="0.3em" style="text-anchor: end; visibility: hidden; font-family: Roboto, sans-serif; font-size: 12px; font-weight: 200;" fill="rgb(33, 33, 33)" stroke="none" stroke-width="1px">-0.018</text><text x="0" y="39.33333333333333" dx="0em" dy="0.3em" style="text-anchor: end; visibility: inherit; font-family: Roboto, sans-serif; font-size: 12px; font-weight: 200;" fill="rgb(33, 33, 33)" stroke="none" stroke-width="1px">-0.016</text><text x="0" y="19.666666666666657" dx="0em" dy="0.3em" style="text-anchor: end; visibility: hidden; font-family: Roboto, sans-serif; font-size: 12px; font-weight: 200;" fill="rgb(33, 33, 33)" stroke="none" stroke-width="1px">-0.014</text><text x="0" y="0" dx="0em" dy="0.3em" style="text-anchor: end; visibility: hidden; font-family: Roboto, sans-serif; font-size: 12px; font-weight: 200;" fill="rgb(33, 33, 33)" stroke="none" stroke-width="1px">-0.012</text></g><line x1="72.34375" y1="0" x2="72.34375" y2="177" fill="rgb(0, 0, 0)" stroke="rgb(204, 204, 204)" stroke-width="1px"></line></g></g><g transform="translate(72, 0)" clip-path="url(#clip_0)"><clipPath id="clip_0"><rect width="257" height="177"></rect></clipPath><g><g><g><line x1="0" y1="0" x2="0" y2="177" fill="rgb(0, 0, 0)" stroke="rgb(66, 66, 66)" stroke-width="1px" opacity="0.25"></line><line x1="21.471354166666664" y1="0" x2="21.471354166666664" y2="177" fill="rgb(0, 0, 0)" stroke="rgb(66, 66, 66)" stroke-width="1px" opacity="0.25"></line><line x1="42.94270833333333" y1="0" x2="42.94270833333333" y2="177" fill="rgb(0, 0, 0)" stroke="rgb(66, 66, 66)" stroke-width="1px" opacity="0.25"></line><line x1="64.4140625" y1="0" x2="64.4140625" y2="177" fill="rgb(0, 0, 0)" stroke="rgb(66, 66, 66)" stroke-width="1px" opacity="0.25"></line><line x1="85.88541666666666" y1="0" x2="85.88541666666666" y2="177" fill="rgb(0, 0, 0)" stroke="rgb(66, 66, 66)" stroke-width="1px" opacity="0.25"></line><line x1="107.35677083333334" y1="0" x2="107.35677083333334" y2="177" fill="rgb(0, 0, 0)" stroke="rgb(66, 66, 66)" stroke-width="1px" opacity="0.25"></line><line x1="128.828125" y1="0" x2="128.828125" y2="177" fill="rgb(0, 0, 0)" stroke="rgb(66, 66, 66)" stroke-width="1px" opacity="0.25"></line><line x1="150.29947916666669" y1="0" x2="150.29947916666669" y2="177" fill="rgb(0, 0, 0)" stroke="rgb(66, 66, 66)" stroke-width="1px" opacity="0.25"></line><line x1="171.77083333333331" y1="0" x2="171.77083333333331" y2="177" fill="rgb(0, 0, 0)" stroke="rgb(66, 66, 66)" stroke-width="1px" opacity="0.25"></line><line x1="193.2421875" y1="0" x2="193.2421875" y2="177" fill="rgb(0, 0, 0)" stroke="rgb(66, 66, 66)" stroke-width="1px" opacity="0.25"></line><line x1="214.71354166666669" y1="0" x2="214.71354166666669" y2="177" fill="rgb(0, 0, 0)" stroke="rgb(66, 66, 66)" stroke-width="1px" opacity="0.25"></line><line x1="236.18489583333331" y1="0" x2="236.18489583333331" y2="177" fill="rgb(0, 0, 0)" stroke="rgb(66, 66, 66)" stroke-width="1px" opacity="0.25"></line><line x1="257.65625" y1="0" x2="257.65625" y2="177" fill="rgb(0, 0, 0)" stroke="rgb(66, 66, 66)" stroke-width="1px" opacity="0.25"></line></g><g><line x1="0" y1="177" x2="257.65625" y2="177" fill="rgb(0, 0, 0)" stroke="rgb(66, 66, 66)" stroke-width="1px" opacity="0.25"></line><line x1="0" y1="157.33333333333334" x2="257.65625" y2="157.33333333333334" fill="rgb(0, 0, 0)" stroke="rgb(66, 66, 66)" stroke-width="1px" opacity="0.25"></line><line x1="0" y1="137.66666666666666" x2="257.65625" y2="137.66666666666666" fill="rgb(0, 0, 0)" stroke="rgb(66, 66, 66)" stroke-width="1px" opacity="0.25"></line><line x1="0" y1="118.00000000000001" x2="257.65625" y2="118.00000000000001" fill="rgb(0, 0, 0)" stroke="rgb(66, 66, 66)" stroke-width="1px" opacity="0.25"></line><line x1="0" y1="98.33333333333334" x2="257.65625" y2="98.33333333333334" fill="rgb(0, 0, 0)" stroke="rgb(66, 66, 66)" stroke-width="1px" opacity="0.25"></line><line x1="0" y1="78.66666666666669" x2="257.65625" y2="78.66666666666669" fill="rgb(0, 0, 0)" stroke="rgb(66, 66, 66)" stroke-width="1px" opacity="0.25"></line><line x1="0" y1="58.999999999999986" x2="257.65625" y2="58.999999999999986" fill="rgb(0, 0, 0)" stroke="rgb(66, 66, 66)" stroke-width="1px" opacity="0.25"></line><line x1="0" y1="39.33333333333333" x2="257.65625" y2="39.33333333333333" fill="rgb(0, 0, 0)" stroke="rgb(66, 66, 66)" stroke-width="1px" opacity="0.25"></line><line x1="0" y1="19.666666666666657" x2="257.65625" y2="19.666666666666657" fill="rgb(0, 0, 0)" stroke="rgb(66, 66, 66)" stroke-width="1px" opacity="0.25"></line><line x1="0" y1="0" x2="257.65625" y2="0" fill="rgb(0, 0, 0)" stroke="rgb(66, 66, 66)" stroke-width="1px" opacity="0.25"></line></g></g></g><g><g><line x1="0" y1="-118.00000000000001" x2="257.65625" y2="-118.00000000000001" fill="rgb(0, 0, 0)" stroke="rgb(153, 153, 153)" stroke-width="1.5px"></line></g></g><g><g><line x1="21.471354166666664" y1="0" x2="21.471354166666664" y2="177" fill="rgb(0, 0, 0)" stroke="rgb(153, 153, 153)" stroke-width="1.5px"></line></g></g><g><g><g><g><g><path stroke="rgb(255, 112, 67)" stroke-width="2px" d="M21.832072916666664,126.45295085509619L22.175614583333335,115.50398312322797L22.53633333333333,108.5751601203161L22.879875000000002,113.3579830236039L23.240593750000002,122.99592968309653L23.584135416666665,120.40334247234203L23.94485416666667,125.49352219291191L24.288395833333333,136.19668462466316L24.649114583333333,144.3374023626631L24.99265625,148.14063206024863L25.353375,155.60134571465386L25.696916666666667,164.01705657353452L26.057635416666667,164.0998647839913L26.401177083333334,169.10348426757267L26.761895833333334,172.5898767105745L27.1054375,177.72381063250842L35.19584375,177.9131371489843L35.556562500000005,175.8528940458383L35.900104166666665,174.59945054525647L36.26082291666666,166.54405836179342L36.604364583333336,167.28154977331687L36.96508333333333,159.61806699403556L37.308625000000006,159.53998045285783L37.669343749999996,155.21051555344425L38.01288541666666,146.48410164265343L38.37360416666667,142.92835897267926L38.71714583333333,141.94666075145514L39.07786458333334,139.09616398571802L39.42140625,132.785257701598L39.764947916666664,130.3425816105865L40.12566666666667,127.35465172173431L40.469208333333334,122.77588204289104L40.82992708333334,122.62542026486761L41.17346875,120.61024770287659L41.5341875,121.06725640981203L41.87772916666667,112.20003596974576L42.238447916666665,107.69294923066954L42.58198958333333,102.99602512629718L42.94270833333333,95.624554378461L43.28625,92.42233879526718L43.64696875,91.33239514724573L43.990510416666666,91.02619138914048L44.35122916666667,90.58939315214373L44.69477083333333,89.76869053841403L45.05548958333333,90.65613860011558L45.39903125,86.48598635963874L45.759750000000004,82.45969522161647L46.103291666666664,78.15550321040571L46.46401041666667,75.77817860761097L46.807552083333334,72.37254841040858L47.16827083333333,71.38950612690817L47.511812500000005,73.74279991515539L47.87253125,73.7508246673826L48.21607291666667,70.43565012556414L48.559614583333335,70.96172195996108L48.92033333333333,70.08255307570259L49.263875,67.61343739546435L49.624593749999995,63.52413439323763L49.96813541666667,63.06115128042456L50.328854166666666,60.18160873418344L50.67239583333333,55.72848280329681L51.03311458333334,56.37190773919726L51.376656249999996,53.38527448178633L51.737375,53.117340466586576L52.08091666666667,54.06209050091574L52.44163541666667,56.28957261526068L52.78517708333333,56.45489953190179L53.14589583333333,54.12194926180497L53.4894375,52.09691445512408L53.85015625,51.34863680690228L54.19369791666667,52.60082465364357L54.55441666666667,55.32860341640602L54.89795833333333,56.09232228083781L55.25867708333333,52.040448446572036L55.60221875,52.51846344143167L55.9629375,49.47348020794006L56.30647916666666,56.38273647122786L56.667197916666666,55.774259773054965L57.01073958333333,56.592146269774005L57.35428125,52.25383265850677L57.715,51.23101801398038L58.05854166666666,51.23180207842173L58.41926041666667,53.75373513142417L58.762802083333334,54.4103430627196L59.12352083333334,49.80526042789669L59.467062500000004,52.09178845074046L59.827781249999994,49.69735469213882L60.17132291666667,48.976110485941724L60.532041666666665,50.978719347368006L60.87558333333334,48.79561777431786L61.236302083333335,48.48722500713082L61.579843749999995,49.202685020037954L61.9405625,46.80410818755733L62.284104166666665,45.167889140050235L62.64482291666667,46.543069286346835L62.988364583333336,49.56625983111086L63.34908333333333,48.2109548379502L63.692625,46.83615167118239L64.05334375,45.15623443629618L64.39688541666666,43.06122153782611L64.75760416666667,45.09884650677701L65.10114583333333,45.27474939725952L65.46186458333334,41.17577030004359L65.80540625,41.01217755223094L66.14894791666666,39.35524880813428L66.50966666666666,40.64943531906727L66.85320833333334,40.475185092823466L67.21392708333335,40.03486585013278L67.55746875,43.793742081873866L67.9181875,36.68701115579599L68.26172916666667,38.86958193579033L68.62244791666666,36.99009814986813L68.96598958333334,39.465866841649365L69.32670833333333,42.22338232166092L69.67025,40.37521100004428L70.03096875,43.83931054051667L70.37451041666667,42.999700082595815L70.73522916666667,43.11863421097736L71.07877083333332,39.19079633570914L71.43948958333333,40.86594574660381L71.78303125000001,40.05640228198163L72.14375000000001,34.79969611082192L72.48729166666666,38.163750817261416L72.84801041666667,37.63960632972854L73.19155208333333,35.56204609598479L73.55227083333332,30.260048481975566L73.8958125,33.38188004185036L74.25653125000001,37.14906694306498L74.60007291666666,31.942732799928773L74.94361458333333,28.816005415547732L75.30433333333333,30.73685234695406L75.64787500000001,30.90332173651298L76.00859375,30.348918838376843L76.35213541666667,29.45393527780475L76.71285416666667,32.53987036089799L77.05639583333333,29.476220061028233L77.41711458333333,30.59852360714131L77.76065625,32.91797660010249L78.121375,32.959392091933026L78.46491666666667,34.3653052208641L78.82563541666667,35.40486371762467L79.16917708333334,36.25803981769232L79.52989583333333,39.543451051204286L79.8734375,37.2911063295338L80.23415625,29.516952259544542L80.57769791666666,23.50769465359289L80.93841666666667,23.921987912707962L81.28195833333334,28.371172399811023L81.64267708333334,26.668995694712045L81.98621874999999,27.201773868339398L82.3469375,27.145519307059335L82.69047916666668,24.441449737530334L83.05119791666668,27.983789643236825L83.39473958333333,26.166119154148618L83.73828125,23.104508977146928L84.099,25.355203891403665L84.44254166666666,28.349387551113267L84.80326041666666,28.030061504104303L85.14680208333334,29.270312680815827L85.50752083333333,27.696583230703162L85.8510625,27.832308832452153L86.21178125,32.810163316316675L86.55532291666665,27.923269945693363L86.91604166666666,29.244862548994405L87.25958333333334,31.716315641495026L87.62030208333334,28.134422257240086L87.96384375,28.32280847263067L88.3245625,28.24550388255751L88.66810416666667,30.112455557777693L89.02882291666667,30.914070842759326L89.37236458333334,27.264307062683407L89.73308333333334,27.619249669725434L90.076625,29.015920389998787L90.43734375,26.949406487827808L90.78088541666666,27.935662711015517L91.14160416666667,26.523791409642214L91.48514583333332,25.09079439666512L91.84586458333332,29.34868737296248L92.18940625,24.87770552527499L92.53294791666667,26.35366772467847L92.89366666666666,28.21122810704483L93.23720833333333,32.06700076240086L93.59792708333333,31.29475871768268L93.94146875,29.106818224767878L94.3021875,32.58728431112371L94.64572916666667,28.794677584549603L95.00644791666667,26.781226650385562L95.34998958333333,22.57762383550913L95.71070833333333,22.226843523266982L96.05425000000001,20.85737481501681L96.41496875,25.85288054667107L96.75851041666667,26.228781890902066L97.11922916666667,25.2868382004101L97.46277083333332,24.494179807635096L97.82348958333333,26.413666912932353L98.16703125000001,30.488004697771352L98.52775,31.045768880393993L98.87129166666666,33.51620244197858L99.23201041666667,30.456352029022447L99.57555208333333,26.476710254218307L99.93627083333334,30.565429917533876L100.27981249999999,27.561659108038544L100.64053125,26.936328517657007L100.98407291666668,23.306312799311552L101.32761458333333,22.331745857411736L101.68833333333333,21.42268775517592L102.031875,19.14057272393414L102.39259374999999,21.191357127640106L102.73613541666667,21.902250169801782L103.09685416666667,19.111879109792753L103.44039583333334,26.05138321883648L103.80111458333333,24.44141024252078L104.14465625,24.073880124987976L104.505375,22.00269402398773L104.84891666666667,21.897476224605896L105.20963541666667,25.40018708567101L105.55317708333334,23.195023493828067L105.91389583333334,21.9319981904L106.2574375,25.98356078542292L106.61815625,22.644204036257797L106.96169791666667,20.149219043073323L107.32241666666665,16.14881769290604L107.66595833333334,16.456437874164386L108.02667708333334,21.045384132857833L108.37021874999999,13.605840685365044L108.7309375,14.919541177589132L109.07447916666666,21.952107103132285L109.43519791666667,22.921617099521395L109.77873958333333,24.62810564719311L110.12228125,24.611055933034443L110.483,21.717032504635675L110.82654166666666,23.194177166158553L111.18726041666666,22.694235014240665L111.53080208333334,25.32762644776944L111.89152083333335,23.232524468536663L112.2350625,23.181415063561296L112.59578125,19.404308351827446L112.93932291666667,21.595359071862354L113.30004166666666,18.951027763747163L113.64358333333334,18.039330012319283L114.00430208333333,16.062585550577126L114.34784375,15.107287638702413L114.7085625,20.400045742085638L115.05210416666667,19.214643819326813L115.41282291666667,17.952409444169984L115.75636458333332,20.355115480969417L116.11708333333333,22.300198613752947L116.46062500000001,22.39223787088198L116.82134375000001,19.909997943931838L117.16488541666666,22.877961408432714L117.52560416666667,22.29805847734395L117.86914583333333,15.932332813621667L118.22986458333332,11.381821177332279L118.57340625,12.00013517653666L118.91694791666667,16.27960272768569L119.27766666666666,15.072357129888315L119.62120833333333,15.119670625628988L119.98192708333333,16.919378132284862L120.32546875000001,19.440562777118597L120.6861875,20.950130536594024L121.02972916666667,19.52868650273763L121.39044791666667,19.303300964333303L121.73398958333333,21.596827599404893L122.09470833333333,17.522424840727634L122.43825,15.495886423468109L122.79896875,18.274604701963774L123.14251041666667,13.538668247442043L123.50322916666667,10.306422204701489L123.84677083333334,13.539131345904881L124.20748958333333,17.02199062261402L124.55103125,17.7689008378193L124.91175,18.510099473885994L125.25529166666666,15.600809104219465L125.61601041666667,16.70348076888444L125.95955208333334,15.180584464183585L126.32027083333334,14.656274373061152L126.66381249999999,16.013126858409255L127.02453125,13.824654431146003L127.36807291666668,13.073290052116878L127.71161458333333,10.203043642402271L128.07233333333332,12.626486695464783L128.415875,16.34540783265612L128.77659375000002,21.3636660818222L129.12013541666667,20.241972225544608L129.4808541666667,18.92591741043594L129.82439583333334,16.30475305880069L130.18511458333333,15.844045095830914L130.52865625,12.970157249186284L130.889375,22.42752557799052L131.23291666666665,20.050198994903756L131.59363541666667,16.528396480478225L131.93717708333332,21.412840601720838L132.2978958333333,19.39854686026876L132.6414375,16.39049217143719L133.00215624999998,15.257186582420648L133.34569791666667,13.02466490362148L133.70641666666668,11.53036695367535L134.04995833333334,12.217090080557885L134.41067708333333,9.796263519155161L134.75421875,12.452448056574953L135.1149375,13.51032755112827L135.45847916666668,12.91265148273812L135.81919791666667,17.86660838932819L136.16273958333332,11.757028955584921L136.50628125,17.546053606291313L136.867,16.19784453492544L137.21054166666667,8.830776241309563L137.5712604166667,7.220310202869038L137.91480208333334,10.90289416609144L138.27552083333333,13.070325045970685L138.6190625,15.88292044303075L138.97978125,12.87273965220406L139.32332291666665,14.554157120132981L139.68404166666667,13.412847154127277L140.02758333333333,14.320239010127418L140.38830208333334,15.017261145118079L140.73184375,21.07253807093891L141.09256249999999,17.894917651352422L141.43610416666667,16.158142144582964L141.79682291666666,15.503489771049592L142.14036458333334,18.561185652650224L142.50108333333336,17.566690199854044L142.844625,13.806176831294334L143.20534375,15.229848402720252L143.54888541666668,18.7132926928887L143.90960416666667,18.382576099905712L144.25314583333332,14.984551552061253L144.61386458333334,20.22091852165701L144.95740625,15.28329365176423L145.30094791666664,14.916976605191602L145.66166666666666,16.746004337172604L146.00520833333334,18.649109315336243L146.36592708333336,14.427436297015646L146.70946875,15.490110808040464L147.0701875,16.214679933146094L147.41372916666668,17.533590189549596L147.77444791666667,17.014271928032194L148.11798958333333,15.040924274321364L148.47870833333334,18.602366918859474L148.82225,20.896980978769612L149.18296875,19.542627089851624L149.52651041666667,20.41554197190216L149.88722916666666,17.22805686802474L150.2307708333333,16.38809277719739L150.59148958333333,18.962394649921773L150.93503125,18.3088163893256L151.29575000000003,16.10540646776557L151.63929166666668,18.439573251992456L152.00001041666667,21.348851035310844L152.34355208333335,19.435919130011815L152.70427083333334,17.330661225317574L153.0478125,18.8485509259494L153.40853125,17.16677066353907L153.75207291666666,16.40976744443944L154.09561458333332,16.7651258566028L154.45633333333333,11.844187289459278L154.79987500000001,13.479242659101537L155.16059374999998,13.145882325762292L155.50413541666668,15.118471011952828L155.86485416666667,14.769538266720165L156.20839583333333,15.420470649458014L156.56911458333335,16.99627378004217L156.91265625,14.827594266339702L157.27337500000002,13.468090359471967L157.61691666666667,15.430153892896215L157.97763541666666,10.02760696398912L158.32117708333334,11.228575901117116L158.68189583333333,11.523753263608311L159.02543749999998,6.388011403713028L159.38615625,6.012181736230891L159.72969791666668,4.153507541934682L160.09041666666667,4.361502918394422L160.43395833333335,6.732656278883653L160.79467708333334,4.041858036523179L161.13821875,10.062785433752426L161.4989375,6.721880900575574L161.84247916666666,6.656227107970258L162.20319791666665,3.798945901967082L162.54673958333333,3.9493375474276218L162.89028125,10.118004414184634L163.251,7.358385637547806L163.59454166666666,7.127783159005405L163.95526041666665,10.074160224450273L164.29880208333336,9.629661476862028L164.65952083333335,11.712096824994653L165.0030625,11.455795136442347L165.36378125000002,8.44846392016644L165.70732291666667,16.1155783350728L166.06804166666666,13.281740924644192L166.41158333333334,15.482620531376849L166.77230208333333,16.617500874831247L167.11584374999998,15.31508353259205L167.4765625,12.035164432660954L167.82010416666665,11.576214140814281L168.18082291666667,8.7005529048016L168.52436458333335,20.450842288651305L168.8850833333333,18.122617709150834L169.22862500000002,24.821894489235227L169.58934375,22.882830040160744L169.93288541666666,21.169368897778142L170.29360416666668,20.442198624652033L170.63714583333334,17.774830531840397L170.99786458333332,14.422699387926745L171.34140625,19.76739798599018L171.68494791666666,23.103246113341264L172.04566666666665,19.05064310919116L172.38920833333333,17.507297926391388L172.74992708333332,18.01911963070147L173.09346875,13.065641933449385L173.45418750000002,16.77404179052607L173.79772916666667,23.678133739785917L174.1584479166667,21.55734848256304L174.50198958333334,17.601296040567114L174.86270833333333,17.45816637117806L175.20625,16.83256702098734L175.56696875,20.25516409113101L175.91051041666665,16.869460613632768L176.27122916666667,14.093547642889343L176.61477083333332,15.845309544501355L176.9754895833333,13.3740403228388L177.31903125,14.652519962592075L177.67974999999998,13.701042111060923L178.02329166666667,12.86335706284158L178.38401041666668,13.576914487205999L178.72755208333334,12.110125766450006L179.08827083333335,11.789342908315193L179.4318125,7.51756793702778L179.79253125,7.907681265643068L180.13607291666668,7.660616969071316L180.47961458333333,8.725238972903773L180.84033333333332,14.405490439038392L181.183875,15.66151373241401L181.54459375,15.493828710341791L181.88813541666667,15.529089527184349L182.2488541666667,11.87558905741843L182.59239583333334,10.916984174914823L182.95311458333333,8.787136283577077L183.29665625,8.034299952026576L183.657375,14.050281890572926L184.00091666666665,17.760546837752155L184.36163541666667,13.114553268952251L184.70517708333333,11.131304734668959L185.06589583333334,13.328744263185158L185.4094375,9.944436711509848L185.77015624999999,14.893105758194032L186.11369791666667,9.961582439917677L186.47441666666666,11.185308974153813L186.81795833333334,12.970132948657096L187.17867708333335,16.26586948188159L187.52221875,12.88222974202241L187.8829375,14.919852363037323L188.22647916666668,11.455340498368315L188.58719791666667,11.180683499781493L188.93073958333332,15.372106995408638L189.27428125,14.45520740274084L189.635,12.639402006706556L189.97854166666664,15.052540767475518L190.33926041666666,13.199138940841705L190.68280208333334,10.153711047155129L191.04352083333336,16.046729720462835L191.3870625,18.081668401854937L191.74778125,14.622022714772418L192.09132291666668,14.47871362610178L192.45204166666667,18.762228638590486L192.79558333333333,17.842965449786856L193.15630208333334,22.780045557556566L193.49984375,21.03675663582763L193.8605625,19.375196818186517L194.20410416666667,17.8216190484208L194.56482291666666,17.169447261912165L194.9083645833333,18.62018904268094L195.26908333333333,16.217632611668204L195.612625,16.164353452668237L195.97334375000003,18.842723273264756L196.31688541666668,16.882291815992634L196.67760416666667,16.0309626334805L197.02114583333335,16.689371326003386L197.38186458333334,17.230805424909157L197.72540625,22.929187778469153L198.06894791666667,19.796741367679573L198.42966666666666,17.84048547822343L198.77320833333332,18.64280603663985L199.13392708333333,18.959665648163533L199.47746874999999,18.100446176243516L199.83818749999998,17.219022875058275L200.18172916666668,15.708983867880281L200.54244791666667,18.089841835906068L200.88598958333333,16.5493019873162L201.24670833333334,18.94881017034808L201.59025,17.908659115586037L201.95096875000002,14.01002111195723L202.29451041666667,15.825535929158548L202.65522916666666,16.290488648983953L202.99877083333334,17.27310279820746L203.35948958333333,19.95187971431645L203.70303124999998,16.05878925932626L204.06375,17.913854348340717L204.40729166666668,23.220845895118956L204.76801041666667,22.35052445557163L205.11155208333335,16.964133994935608L205.47227083333334,14.82402186919769L205.8158125,12.634660125749457L206.17653125,9.948628066069164L206.52007291666666,11.28476193929888L206.86361458333332,12.685068101993249L207.22433333333333,13.118335980958403L207.567875,13.320399798723033L207.92859375,11.862933511200739L208.27213541666666,14.351342891949331L208.63285416666665,11.980384305793814L208.97639583333336,13.541091660566403L209.33711458333335,15.802771022860586L209.68065625,21.29219666428033L210.04137500000002,18.28408938878774L210.38491666666667,15.881939916714021L210.74563541666666,18.19791972770533L211.08917708333334,20.576150920297163L211.44989583333333,19.87516482599902L211.79343749999998,23.583122852017457L212.15415625,21.943691976906848L212.49769791666665,22.556325063432443L212.85841666666667,18.933879221176245L213.20195833333335,21.474282487051763L213.5626770833333,19.148213281522448L213.90621875000002,18.137153033489138L214.2669375,20.945057187919296L214.61047916666666,25.473118560181756L214.97119791666668,23.240797139704227L215.31473958333333,18.78445153534411L215.65828125,17.182193069259323L216.019,16.46481457765896L216.36254166666666,18.537764868136236L216.72326041666665,19.06128722985347L217.06680208333333,17.162049963433116L217.42752083333332,19.29747990579916L217.7710625,21.914443936317262L218.13178125000002,17.396105679692273L218.47532291666667,16.12359091609008L218.8360416666667,17.142255535042L219.17958333333334,14.841212278792687L219.54030208333333,15.354212726864867L219.88384375,15.708894656527248L220.2445625,15.679302403188673L220.58810416666665,13.834898637050545L220.94882291666667,12.575944096136572L221.29236458333332,16.66591080394695L221.6530833333333,12.681567656202967L221.996625,13.097817133190539L222.35734374999998,13.585722579254103L222.70088541666667,10.61353071850144L223.06160416666668,9.995725633134064L223.40514583333334,13.037905138589704L223.76586458333335,15.805227247987835L224.10940625,13.369783226021907L224.45294791666666,13.108911517780296L224.81366666666668,17.591313811751977L225.15720833333333,16.488022234109714L225.51792708333332,16.346408812841382L225.86146875,16.397100124442915L226.2221875,17.208905230671792L226.56572916666667,15.56232691002526L226.9264479166667,11.54650525168165L227.26998958333334,15.553231667472431L227.63070833333333,15.348349615033582L227.97425,15.155156503575713L228.33496875,15.29303826965351L228.67851041666665,14.576181885068358L229.03922916666667,14.639237630246905L229.38277083333332,14.397920422481803L229.74348958333334,10.034392378863075L230.08703125,13.599174630425203L230.44774999999998,8.207295323480258L230.79129166666667,10.056717933755563L231.15201041666666,10.252552760566132L231.49555208333334,8.771838863943932L231.85627083333335,15.10919394359285L232.1998125,13.453732541791357L232.56053125,13.82527323311079L232.90407291666668,8.423922241700758L233.24761458333333,13.467868188106841L233.60833333333332,10.220753016025117L233.951875,9.014597378840207L234.31259375,9.68114048848757L234.65613541666664,6.870339290957888L235.01685416666666,10.632860746479773L235.36039583333334,9.29906183471086L235.72111458333336,12.073045730033344L236.06465625,10.325621186359024" style="fill: none;" fill="none"></path></g></g></g></g><g opacity="0.2"><g><g><g><path stroke="rgb(255, 112, 67)" stroke-width="2px" d="M21.832072916666664,126.45295085509619L22.175614583333335,108.93460248410702L22.53633333333333,101.92349003752074L22.879875000000002,118.98258275787036L23.240593750000002,135.57923284173012L23.584135416666665,116.81686102847259L23.94485416666667,132.77256063620248L24.288395833333333,151.80199820051592L24.649114583333333,156.34337977319956L24.99265625,153.78798491756123L25.353375,166.72474807252487L25.696916666666667,176.59482493499917L26.057635416666667,164.2238067165017L26.401177083333334,176.59911088148755L26.761895833333334,177.81536725163463L32.73952083333333,198.32673492034277L33.0830625,173.66955656061572L33.44378125,183.20549444109201L34.49158333333333,187.81017614652714L34.852302083333335,170.53431344032288L35.19584375,175.69246835509938L35.556562500000005,172.76252939800423L35.900104166666665,172.71928529689708L36.26082291666666,154.4609700962901L36.604364583333336,168.38778689006966L36.96508333333333,148.12284282843274L37.308625000000006,159.42285064111155L37.669343749999996,148.71631820499897L38.01288541666666,133.39448077728352L38.37360416666667,137.59474496791762L38.71714583333333,140.47411341965199L39.07786458333334,134.8204188371698L39.42140625,123.31889827549458L39.764947916666664,126.6785674740871L40.12566666666667,122.87275688846907L40.469208333333334,115.90772752463819L40.82992708333334,122.39972759783268L41.17346875,117.5874888598919L41.5341875,121.75276947021486L41.87772916666667,98.89920530964933L42.238447916666665,100.93231912205617L42.58198958333333,95.9506389697393L42.94270833333333,84.56734825670719L43.28625,87.6190154204766L43.64696875,89.69747967521349L43.990510416666666,90.56688575198254L44.35122916666667,89.93419579664865L44.69477083333333,88.53763661781946L45.05548958333333,91.98731069266796L45.39903125,80.23075799892347L45.759750000000004,76.42025851458311L46.103291666666664,71.69921519358954L46.46401041666667,72.2121917034189L46.807552083333334,67.26410311460495L47.16827083333333,69.91494270165762L47.511812500000005,77.27274059752624L47.87253125,73.76286179572344L48.21607291666667,65.46288831283648L48.559614583333335,71.75082971155643L48.92033333333333,68.76379974931479L49.263875,63.90976387510697L49.624593749999995,57.3901798898975L49.96813541666667,62.366676611204944L50.328854166666666,55.86229491482179L50.67239583333333,49.04879390696685L51.03311458333334,57.33704514304798L51.376656249999996,48.9053245956699L51.737375,52.71543944378695L52.08091666666667,55.4792155524095L52.44163541666667,59.63079578677814L52.78517708333333,56.70288990686338L53.14589583333333,50.62252385665973L53.4894375,49.05936224510273L53.85015625,50.22622033456961L54.19369791666667,54.479106423755496L54.55441666666667,59.42027156054973L54.89795833333333,57.237900577485554L55.25867708333333,45.962637695173434L55.60221875,53.23548593372106L55.9629375,44.90600535770257L56.30647916666666,66.7466208661596L56.667197916666666,54.861544725795596L57.01073958333333,57.81897601485252L57.35428125,45.74636224160593L57.715,49.69679604719083L58.05854166666666,51.2329781750838L58.41926041666667,57.536634710927814L58.762802083333334,55.39525495966276L59.12352083333334,42.897636475662395L59.467062500000004,55.52158048500618L59.827781249999994,46.10570405423641L60.17132291666667,47.89424417664608L60.532041666666665,53.982632639507464L60.87558333333334,45.52096541474263L61.236302083333335,48.02463585635027L61.579843749999995,50.27587503939866L61.9405625,43.206242938836404L62.284104166666665,42.71356056878965L62.64482291666667,48.60583950579166L62.988364583333336,54.101045648256935L63.34908333333333,46.177997348209225L63.692625,44.77394692103069L64.05334375,42.636358583966896L64.39688541666666,39.91870219012102L64.75760416666667,48.15528396020333L65.10114583333333,45.538603732983276L65.46186458333334,35.02730165421962L65.80540625,40.76678843051196L66.14894791666666,36.86985569198926L66.50966666666666,42.59071508546669L66.85320833333334,40.21380975345771L67.21392708333335,39.3743869860967L67.55746875,49.432056429485485L67.9181875,26.02691476667921L68.26172916666667,42.143438105781875L68.62244791666666,34.17087247098486L68.96598958333334,43.17951987932126L69.32670833333333,46.35965554167827L69.67025,37.60295401761929L70.03096875,49.03545985122523L70.37451041666667,41.74028439571459L70.73522916666667,43.297035403549664L71.07877083333332,33.2990395228068L71.43948958333333,43.37866986294586L71.78303125000001,38.842087085048355L72.14375000000001,26.914636854082346L72.48729166666666,43.20983287692069L72.84801041666667,36.85338959842921L73.19155208333333,32.4457057453692L73.55227083333332,22.30705206096173L73.8958125,38.06462738166254L74.25653125000001,42.79984729488691L74.60007291666666,24.133231585224475L74.94361458333333,24.125914338976138L75.30433333333333,33.61812274406355L75.64787500000001,31.153025820851326L76.00859375,29.51731449117263L76.35213541666667,28.111459936946638L76.71285416666667,37.16877298553785L77.05639583333333,24.880744611223538L77.41711458333333,32.28197892631095L77.76065625,36.39715608954429L78.121375,33.02151532967884L78.46491666666667,36.47417491426069L78.82563541666667,36.96420146276554L79.16917708333334,37.53780396779378L79.52989583333333,44.471567901472255L79.8734375,33.91258924702803L80.23415625,17.85572115456065L80.57769791666666,14.493808244665468L80.93841666666667,24.54342780138055L81.28195833333334,35.04494913046558L81.64267708333334,24.115730637063574L81.98621874999999,28.000941128780436L82.3469375,27.06113746513923L82.69047916666668,20.385345383236814L83.05119791666668,33.29729950179655L83.39473958333333,23.43961342051626L83.73828125,18.512093711644418L84.099,28.731246262788765L84.44254166666666,32.84066304067771L84.80326041666666,27.551072433590896L85.14680208333334,31.130689445883036L85.50752083333333,25.335989055534196L85.8510625,28.035897235075627L86.21178125,40.27694504211347L86.55532291666665,20.59292988975842L86.91604166666666,31.227251453946035L87.25958333333334,35.42349528024595L87.62030208333334,22.76158218085765L87.96384375,28.605387795716517L88.3245625,28.129546997447815L88.66810416666667,32.91288307060797L89.02882291666667,32.1164937702318L89.37236458333334,21.789661392569535L89.73308333333334,28.15166358028849L90.076625,31.110926470408845L90.43734375,23.849635634571307L90.78088541666666,29.415047045797117L91.14160416666667,24.40598445758223L91.48514583333332,22.941298877199483L91.84586458333332,35.73552683740854L92.18940625,18.171232753743734L92.53294791666667,28.567611023783684L92.89366666666666,30.99756868059436L93.23720833333333,37.85065974543493L93.59792708333333,30.136395650605362L93.94146875,25.824907485395677L94.3021875,37.80798344065745L94.64572916666667,23.10576749468844L95.00644791666667,23.76105024913947L95.34998958333333,16.272219613194466L95.71070833333333,21.700673054903753L96.05425000000001,18.803171752641607L96.41496875,33.346139144152396L96.75851041666667,26.792633907248568L97.11922916666667,23.873922664672136L97.46277083333332,23.305192218472552L97.82348958333333,29.292897570878274L98.16703125000001,36.59951137502988L98.52775,31.882415154327948L98.87129166666666,37.221852784355484L99.23201041666667,25.866576409588266L99.57555208333333,20.507247592012096L99.93627083333334,36.69850941250722L100.27981249999999,23.05600289379557L100.64053125,25.99833263208468L100.98407291666668,17.86128922179342L101.32761458333333,20.869895444562044L101.68833333333333,20.059100601822138L102.031875,15.717400177071495L102.39259374999999,24.26753373319904L102.73613541666667,22.9685897330443L103.09685416666667,14.926322519779212L103.44039583333334,36.46063938240211L103.80111458333333,22.026450778047252L104.14465625,23.52258494868874L104.505375,18.895914872487385L104.84891666666667,21.73964952553312L105.20963541666667,30.654253377268713L105.55317708333334,19.887278106063597L105.91389583333334,20.037460235257942L106.2574375,32.060904677957296L106.61815625,17.635168912510068L106.96169791666667,16.40674155329665L107.32241666666665,10.148215667655068L107.66595833333334,16.917868146051962L108.02667708333334,27.928803520898025L108.37021874999999,2.4465255141258173L108.7309375,16.890091915925343L109.07447916666666,32.50095599144697L109.43519791666667,24.37588209410509L109.77873958333333,27.187838468700654L110.12228125,24.585481361796464L110.483,17.37599736203749L110.82654166666666,25.409894158442814L111.18726041666666,21.94432178636391L111.53080208333334,29.277713598062594L111.89152083333335,20.089871499687426L112.2350625,23.104750956098233L112.59578125,13.738648284226656L112.93932291666667,24.88193515191475L113.30004166666666,14.984530801574385L113.64358333333334,16.671783385177445L114.00430208333333,13.097468857963872L114.34784375,13.674340770890307L114.7085625,28.339182897160452L115.05210416666667,17.436540935188525L115.41282291666667,16.05905788143475L115.75636458333332,23.959174536168568L116.11708333333333,25.217823312928285L116.46062500000001,22.530296756575513L116.82134375000001,16.18663805350662L117.16488541666666,27.32990660518407L117.52560416666667,21.428204080710803L117.86914583333333,6.383744318038219L118.22986458333332,4.5560537228981675L118.57340625,12.927606175343191L118.91694791666667,22.698804054409273L119.27766666666666,13.261488733192277L119.62120833333333,15.190640869239969L119.98192708333333,19.618939392268665L120.32546875000001,23.22233974436919L120.6861875,23.214482175807166L121.02972916666667,17.396520451953005L121.39044791666667,18.96522265672683L121.73398958333333,25.037117552012212L122.09470833333333,11.41082070271173L122.43825,12.456078797578812L122.79896875,22.442682119707275L123.14251041666667,6.434763565659517L123.50322916666667,5.458053140590577L123.84677083333334,18.38819505771001L124.20748958333333,22.246279537677758L124.55103125,18.889266160627198L124.91175,19.621897427986067L125.25529166666666,11.236873549719643L125.61601041666667,18.35748826588193L125.95955208333334,12.896240007132285L126.32027083333334,13.86980923637747L126.66381249999999,18.048405586431418L127.02453125,10.541945790251093L127.36807291666668,11.946243483573191L127.71161458333333,5.897674027830362L128.07233333333332,16.26165127505858L128.415875,21.923789538443096L128.77659375000002,28.891053455571342L129.12013541666667,18.559431441128254L129.4808541666667,16.95183518777291L129.82439583333334,12.373006531347835L130.18511458333333,15.152983151376255L130.52865625,8.659325479219346L130.889375,36.613578071196876L131.23291666666665,16.48420912027359L131.59363541666667,11.245692708839965L131.93717708333332,28.739506783584755L132.2978958333333,16.377106248090666L132.6414375,11.878410138189786L133.00215624999998,13.557228198895848L133.34569791666667,9.675882385422778L133.70641666666668,9.288920028756058L134.04995833333334,13.247174770881736L134.41067708333333,6.165023677051074L134.75421875,16.43672486270467L135.1149375,15.097146792958169L135.45847916666668,12.016137380152934L135.81919791666667,25.29754374921321L136.16273958333332,2.5926598049700194L136.50628125,26.22959058235089L136.867,14.175530927876634L137.21054166666667,-2.2198261991143227L137.5712604166667,4.804611145208268L137.91480208333334,16.426770110925045L138.27552083333333,16.321471365789574L138.6190625,20.101813538620878L138.97978125,8.357468465963995L139.32332291666665,17.07628332202633L139.68404166666667,11.700882205118733L140.02758333333333,15.681326794127619L140.38830208333334,16.06279434760412L140.73184375,30.155453459670138L141.09256249999999,13.12848702197274L141.43610416666667,13.552978884428732L141.79682291666666,14.521511210749535L142.14036458333334,23.147729475051158L142.50108333333336,16.074947020659845L142.844625,8.165406778454788L143.20534375,17.365355759859092L143.54888541666668,23.938459128141403L143.90960416666667,17.88650121043126L144.25314583333332,9.887514730294543L144.61386458333334,28.075468976050615L144.95740625,7.876856346925091L145.30094791666664,14.367501035332687L145.66166666666666,19.48954593514402L146.00520833333334,21.503766782581813L146.36592708333336,8.09492676953475L146.70946875,17.08412257457773L147.0701875,17.30153362080454L147.41372916666668,19.51195557415486L147.77444791666667,16.23529453575611L148.11798958333333,12.080902793755138L148.47870833333334,23.944530885666616L148.82225,24.338902068634827L149.18296875,17.511096256474648L149.52651041666667,21.724914294977975L149.88722916666666,12.44682921220858L150.2307708333333,15.128146640956395L150.59148958333333,22.823847459008288L150.93503125,17.32844899843136L151.29575000000003,12.800291585425525L151.63929166666668,21.9408234283328L152.00001041666667,25.71276771028837L152.34355208333335,16.566521272063262L152.70427083333334,14.172774368276203L153.0478125,21.125385476897154L153.40853125,14.64410026992361L153.75207291666666,15.274262615789974L154.09561458333332,17.298163474847872L154.45633333333333,4.4627794387439845L154.79987500000001,15.931825713564956L155.16059374999998,12.645841825753443L155.50413541666668,18.07735404123863L155.86485416666667,14.246139148871093L156.20839583333333,16.396869223564856L156.56911458333335,19.359978475918364L156.91265625,11.574574995785952L157.27337500000002,11.428834499170375L157.61691666666667,18.37324919303259L157.97763541666666,1.9237865706284885L158.32117708333334,13.03002930680911L158.68189583333333,11.966519307345145L159.02543749999998,-1.3156013861298692L159.38615625,5.4484372350076855L159.72969791666668,1.3654962504903496L160.09041666666667,4.673495983084041L160.43395833333335,10.28938631961742L160.79467708333334,0.00566067298253814L161.13821875,19.094176529596243L161.4989375,1.710524100810296L161.84247916666666,6.557746419062215L162.20319791666665,-0.48697590703765115L162.54673958333333,4.174925015618402L162.89028125,19.371004714320105L163.251,3.2189574725925922L163.59454166666666,6.7818794411917445L163.95526041666665,14.493725822617614L164.29880208333336,8.96291335547964L164.65952083333335,14.83574984719355L165.0030625,11.07134260361393L165.36378125000002,3.937467095752555L165.70732291666667,27.61624995743235L166.06804166666666,9.030984809001284L166.41158333333334,18.783939941475783L166.77230208333333,18.319821390012894L167.11584374999998,13.361457519233234L167.4765625,7.115285782764351L167.82010416666665,10.887788703044253L168.18082291666667,4.38706105078259L168.52436458333335,38.07627636442582L168.8850833333333,14.630280839900172L169.22862500000002,34.870809659361846L169.58934375,19.974233366549008L169.93288541666666,18.59917718420427L170.29360416666668,19.351443214962888L170.63714583333334,13.773778392622857L170.99786458333332,9.394502672056353L171.34140625,27.784445883085336L171.68494791666666,28.107018304367852L172.04566666666665,12.971738602966063L172.38920833333333,15.192280152191715L172.74992708333332,18.78685218716662L173.09346875,5.635425387571244L173.45418750000002,22.336641576141126L173.79772916666667,34.03427166367572L174.1584479166667,18.376170596728723L174.50198958333334,11.667217377573252L174.86270833333333,17.24347186709443L175.20625,15.894167995701222L175.56696875,25.38905969634653L175.91051041666665,11.790905397385366L176.27122916666667,9.929678186774254L176.61477083333332,18.47295239691932L176.9754895833333,9.667136490345008L177.31903125,16.57023942222197L177.67974999999998,12.273825333764147L178.02329166666667,11.606829490512602L178.38401041666668,14.647250623752665L178.72755208333334,9.90994268531601L179.08827083333335,11.308168621112895L179.4318125,1.1099054800967396L179.79253125,8.49285125856598L180.13607291666668,7.290020524213707L180.47961458333333,10.322171978652477L180.84033333333332,22.92586763824026L181.183875,17.5455486724774L181.54459375,15.24230117723345L181.88813541666667,15.581980752448244L182.2488541666667,6.395338352769613L182.59239583333334,9.479076851159334L182.95311458333333,5.592364446570468L183.29665625,6.905045454700792L183.657375,23.07425479839245L184.00091666666665,23.325944258521L184.36163541666667,6.1455629157523335L184.70517708333333,8.156431933244061L185.06589583333334,16.624903555959463L185.4094375,4.8679753839969635L185.77015624999999,22.31610932822029L186.11369791666667,2.5642974625031045L186.47441666666666,13.020898775507998L186.81795833333334,15.64736891041199L187.17867708333335,21.20947428171834L187.52221875,7.806770132233697L187.8829375,17.976286294559632L188.22647916666668,6.258572701364762L188.58719791666667,10.768698001901312L188.93073958333332,21.6592422388494L189.27428125,13.079858013739193L189.635,9.915693912655108L189.97854166666664,18.67224890862901L190.33926041666666,10.419036200890927L190.68280208333334,5.585569206625217L191.04352083333336,24.886257730424397L191.3870625,21.134076423943036L191.74778125,9.432554184148712L192.09132291666668,14.263749993095791L192.45204166666667,25.187501157323528L192.79558333333333,16.4640706665814L193.15630208333334,30.185665719211094L193.49984375,18.421823253234226L193.8605625,16.88285709172488L194.20410416666667,15.491252393772196L194.56482291666666,16.191189582149182L194.9083645833333,20.796301713834215L195.26908333333333,12.613797965149088L195.612625,16.084434714168317L195.97334375000003,22.86027800415952L196.31688541666668,13.941644630084431L196.67760416666667,14.753968859712286L197.02114583333335,17.67698436478774L197.38186458333334,18.04295657326777L197.72540625,31.476761308809113L198.06894791666667,15.0980717514952L198.42966666666666,14.906101644039147L198.77320833333332,19.84628687426448L199.13392708333333,19.434955065449078L199.47746874999999,16.811616968363516L199.83818749999998,15.896887923280387L200.18172916666668,13.44392535711327L200.54244791666667,21.66112878794471L200.88598958333333,14.238492214431362L201.24670833333334,22.548072444895897L201.59025,16.34843253344298L201.95096875000002,8.16206410651406L202.29451041666667,18.54880815496048L202.65522916666666,16.98791772872209L202.99877083333334,18.74702402204275L203.35948958333333,23.970045088479925L203.70303124999998,10.219153576840961L204.06375,20.696451981862378L204.40729166666668,31.181333215286333L204.76801041666667,21.045042296250667L205.11155208333335,8.884548303981614L205.47227083333334,11.613853680590791L205.8158125,9.35061751057704L206.17653125,5.919579976548743L206.52007291666666,13.288962749143446L206.86361458333332,14.785527346034842L207.22433333333333,13.768237799406052L207.567875,13.623495525370037L207.92859375,9.676734079917276L208.27213541666666,18.08395696307223L208.63285416666665,8.423946426560478L208.97639583333336,15.882152692725258L209.33711458333335,19.19529006630183L209.68065625,29.526335126409922L210.04137500000002,13.771928475548815L210.38491666666667,12.278715708603466L210.74563541666666,21.67188944419225L211.08917708333334,24.143497709184892L211.44989583333333,18.8236856845518L211.79343749999998,29.145059891045094L212.15415625,19.484545664240922L212.49769791666665,23.475274693220847L212.85841666666667,13.500210457791889L213.20195833333335,25.284887385865044L213.5626770833333,15.659109473228447L213.90621875000002,16.620562661439173L214.2669375,25.15691341956457L214.61047916666666,32.2652106185754L214.97119791666668,19.892315008987982L215.31473958333333,12.099933128803968L215.65828125,14.778805370132124L216.019,15.388746840258444L216.36254166666666,21.647190303852152L216.72326041666665,19.846570772429306L217.06680208333333,14.313194063802552L217.42752083333332,22.500624819348264L217.7710625,25.839889982094366L218.13178125000002,10.61859829475482L218.47532291666667,14.214818770686774L218.8360416666667,18.670252463469904L219.17958333333334,11.38964739441871L219.54030208333333,16.123713398973138L219.88384375,16.24091755102077L220.2445625,15.634914023180794L220.58810416666665,11.068292987843352L220.94882291666667,10.687512284765644L221.29236458333332,22.80086086566249L221.6530833333333,6.705052934587008L221.996625,13.722191348671906L222.35734374999998,14.317580748349428L222.70088541666667,6.155242927372456L223.06160416666668,9.069018005083L223.40514583333334,17.60117439677317L223.76586458333335,19.956210412085063L224.10940625,9.716617193073034L224.45294791666666,12.717603955417871L224.81366666666668,24.314917252709467L225.15720833333333,14.833084867646294L225.51792708333332,16.133988680938874L225.86146875,16.47313709184528L226.2221875,18.426612890015047L226.56572916666667,13.092459429055452L226.9264479166667,5.522772764166194L227.26998958333334,21.563321291158605L227.63070833333333,15.041026536375277L227.97425,14.86536683638891L228.33496875,15.499860918770223L228.67851041666665,13.50089730819066L229.03922916666667,14.733821248014772L229.38277083333332,14.035944610834122L229.74348958333334,3.4891003134350003L230.08703125,18.946348007768385L230.44774999999998,0.11947636306285858L230.79129166666667,12.830851849168539L231.15201041666666,10.546305000782006L231.49555208333334,6.550768019010615L231.85627083333335,24.615226563066244L232.1998125,10.970540439089136L232.56053125,14.382584270089872L232.90407291666668,0.3218957545856591L233.24761458333333,21.033787107716005L233.60833333333332,5.3500802579025315L233.951875,7.2053639230628725L234.31259375,10.680955152958632L234.65613541666664,2.6541374946633867L235.01685416666666,16.27664292976261L235.36039583333334,7.29836346705755L235.72111458333336,16.234021573017042L236.06465625,7.704484370847541" style="fill: none;" fill="none"></path></g></g></g></g></g></g><g transform="translate(72, 177)" clip-path="url(#clip_1)"><clipPath id="clip_1"><rect width="257" height="23"></rect></clipPath><g><g><line x1="0" y1="0" x2="0" y2="5" style="visibility: inherit;" fill="rgb(0, 0, 0)" stroke="rgb(204, 204, 204)" stroke-width="1px"></line><line x1="21.471354166666664" y1="0" x2="21.471354166666664" y2="5" style="visibility: inherit;" fill="rgb(0, 0, 0)" stroke="rgb(204, 204, 204)" stroke-width="1px"></line><line x1="42.94270833333333" y1="0" x2="42.94270833333333" y2="5" style="visibility: inherit;" fill="rgb(0, 0, 0)" stroke="rgb(204, 204, 204)" stroke-width="1px"></line><line x1="64.4140625" y1="0" x2="64.4140625" y2="5" style="visibility: inherit;" fill="rgb(0, 0, 0)" stroke="rgb(204, 204, 204)" stroke-width="1px"></line><line x1="85.88541666666666" y1="0" x2="85.88541666666666" y2="5" style="visibility: inherit;" fill="rgb(0, 0, 0)" stroke="rgb(204, 204, 204)" stroke-width="1px"></line><line x1="107.35677083333334" y1="0" x2="107.35677083333334" y2="5" style="visibility: inherit;" fill="rgb(0, 0, 0)" stroke="rgb(204, 204, 204)" stroke-width="1px"></line><line x1="128.828125" y1="0" x2="128.828125" y2="5" style="visibility: inherit;" fill="rgb(0, 0, 0)" stroke="rgb(204, 204, 204)" stroke-width="1px"></line><line x1="150.29947916666669" y1="0" x2="150.29947916666669" y2="5" style="visibility: inherit;" fill="rgb(0, 0, 0)" stroke="rgb(204, 204, 204)" stroke-width="1px"></line><line x1="171.77083333333331" y1="0" x2="171.77083333333331" y2="5" style="visibility: inherit;" fill="rgb(0, 0, 0)" stroke="rgb(204, 204, 204)" stroke-width="1px"></line><line x1="193.2421875" y1="0" x2="193.2421875" y2="5" style="visibility: inherit;" fill="rgb(0, 0, 0)" stroke="rgb(204, 204, 204)" stroke-width="1px"></line><line x1="214.71354166666669" y1="0" x2="214.71354166666669" y2="5" style="visibility: inherit;" fill="rgb(0, 0, 0)" stroke="rgb(204, 204, 204)" stroke-width="1px"></line><line x1="236.18489583333331" y1="0" x2="236.18489583333331" y2="5" style="visibility: inherit;" fill="rgb(0, 0, 0)" stroke="rgb(204, 204, 204)" stroke-width="1px"></line><line x1="257.65625" y1="0" x2="257.65625" y2="5" style="visibility: inherit;" fill="rgb(0, 0, 0)" stroke="rgb(204, 204, 204)" stroke-width="1px"></line></g><g transform="translate(0, 8)"><text x="0" y="0" dx="0em" dy="0.95em" style="text-anchor: middle; visibility: hidden; font-family: Roboto, sans-serif; font-size: 12px; font-weight: 200;" fill="rgb(33, 33, 33)" stroke="none" stroke-width="1px">-1M</text><text x="21.471354166666664" y="0" dx="0em" dy="0.95em" style="text-anchor: middle; visibility: inherit; font-family: Roboto, sans-serif; font-size: 12px; font-weight: 200;" fill="rgb(33, 33, 33)" stroke="none" stroke-width="1px">0</text><text x="42.94270833333333" y="0" dx="0em" dy="0.95em" style="text-anchor: middle; visibility: hidden; font-family: Roboto, sans-serif; font-size: 12px; font-weight: 200;" fill="rgb(33, 33, 33)" stroke="none" stroke-width="1px">1M</text><text x="64.4140625" y="0" dx="0em" dy="0.95em" style="text-anchor: middle; visibility: inherit; font-family: Roboto, sans-serif; font-size: 12px; font-weight: 200;" fill="rgb(33, 33, 33)" stroke="none" stroke-width="1px">2M</text><text x="85.88541666666666" y="0" dx="0em" dy="0.95em" style="text-anchor: middle; visibility: hidden; font-family: Roboto, sans-serif; font-size: 12px; font-weight: 200;" fill="rgb(33, 33, 33)" stroke="none" stroke-width="1px">3M</text><text x="107.35677083333334" y="0" dx="0em" dy="0.95em" style="text-anchor: middle; visibility: inherit; font-family: Roboto, sans-serif; font-size: 12px; font-weight: 200;" fill="rgb(33, 33, 33)" stroke="none" stroke-width="1px">4M</text><text x="128.828125" y="0" dx="0em" dy="0.95em" style="text-anchor: middle; visibility: hidden; font-family: Roboto, sans-serif; font-size: 12px; font-weight: 200;" fill="rgb(33, 33, 33)" stroke="none" stroke-width="1px">5M</text><text x="150.29947916666669" y="0" dx="0em" dy="0.95em" style="text-anchor: middle; visibility: inherit; font-family: Roboto, sans-serif; font-size: 12px; font-weight: 200;" fill="rgb(33, 33, 33)" stroke="none" stroke-width="1px">6M</text><text x="171.77083333333331" y="0" dx="0em" dy="0.95em" style="text-anchor: middle; visibility: hidden; font-family: Roboto, sans-serif; font-size: 12px; font-weight: 200;" fill="rgb(33, 33, 33)" stroke="none" stroke-width="1px">7M</text><text x="193.2421875" y="0" dx="0em" dy="0.95em" style="text-anchor: middle; visibility: inherit; font-family: Roboto, sans-serif; font-size: 12px; font-weight: 200;" fill="rgb(33, 33, 33)" stroke="none" stroke-width="1px">8M</text><text x="214.71354166666669" y="0" dx="0em" dy="0.95em" style="text-anchor: middle; visibility: hidden; font-family: Roboto, sans-serif; font-size: 12px; font-weight: 200;" fill="rgb(33, 33, 33)" stroke="none" stroke-width="1px">9M</text><text x="236.18489583333331" y="0" dx="0em" dy="0.95em" style="text-anchor: middle; visibility: inherit; font-family: Roboto, sans-serif; font-size: 12px; font-weight: 200;" fill="rgb(33, 33, 33)" stroke="none" stroke-width="1px">10M</text><text x="257.65625" y="0" dx="0em" dy="0.95em" style="text-anchor: middle; visibility: hidden; font-family: Roboto, sans-serif; font-size: 12px; font-weight: 200;" fill="rgb(33, 33, 33)" stroke="none" stroke-width="1px">11M</text></g><line x1="0" y1="0" x2="257.65625" y2="0" fill="rgb(0, 0, 0)" stroke="rgb(204, 204, 204)" stroke-width="1px"></line></g></g></g></g></svg>