<svg viewBox="0 0 330 200" xmlns="http://www.w3.org/2000/svg"><g><g><g><g><g><line x1="61.953125" y1="177" x2="56.953125" y2="177" style="visibility: inherit;" fill="rgb(0, 0, 0)" stroke="rgb(204, 204, 204)" stroke-width="1px"></line><line x1="61.953125" y1="157.33333333333334" x2="56.953125" y2="157.33333333333334" style="visibility: inherit;" fill="rgb(0, 0, 0)" stroke="rgb(204, 204, 204)" stroke-width="1px"></line><line x1="61.953125" y1="137.66666666666666" x2="56.953125" y2="137.66666666666666" style="visibility: inherit;" fill="rgb(0, 0, 0)" stroke="rgb(204, 204, 204)" stroke-width="1px"></line><line x1="61.953125" y1="118.00000000000001" x2="56.953125" y2="118.00000000000001" style="visibility: inherit;" fill="rgb(0, 0, 0)" stroke="rgb(204, 204, 204)" stroke-width="1px"></line><line x1="61.953125" y1="98.33333333333334" x2="56.953125" y2="98.33333333333334" style="visibility: inherit;" fill="rgb(0, 0, 0)" stroke="rgb(204, 204, 204)" stroke-width="1px"></line><line x1="61.953125" y1="78.66666666666666" x2="56.953125" y2="78.66666666666666" style="visibility: inherit;" fill="rgb(0, 0, 0)" stroke="rgb(204, 204, 204)" stroke-width="1px"></line><line x1="61.953125" y1="59.00000000000004" x2="56.953125" y2="59.00000000000004" style="visibility: inherit;" fill="rgb(0, 0, 0)" stroke="rgb(204, 204, 204)" stroke-width="1px"></line><line x1="61.953125" y1="39.33333333333337" x2="56.953125" y2="39.33333333333337" style="visibility: inherit;" fill="rgb(0, 0, 0)" stroke="rgb(204, 204, 204)" stroke-width="1px"></line><line x1="61.953125" y1="19.666666666666675" x2="56.953125" y2="19.666666666666675" style="visibility: inherit;" fill="rgb(0, 0, 0)" stroke="rgb(204, 204, 204)" stroke-width="1px"></line><line x1="61.953125" y1="0" x2="56.953125" y2="0" style="visibility: inherit;" fill="rgb(0, 0, 0)" stroke="rgb(204, 204, 204)" stroke-width="1px"></line></g><g transform="translate(51.953125, 0)"><text x="0" y="177" dx="0em" dy="0.3em" style="text-anchor: end; visibility: hidden; font-family: Roboto, sans-serif; font-size: 12px; font-weight: 200;" fill="rgb(33, 33, 33)" stroke="none" stroke-width="1px">0.012</text><text x="0" y="157.33333333333334" dx="0em" dy="0.3em" style="text-anchor: end; visibility: inherit; font-family: Roboto, sans-serif; font-size: 12px; font-weight: 200;" fill="rgb(33, 33, 33)" stroke="none" stroke-width="1px">0.013</text><text x="0" y="137.66666666666666" dx="0em" dy="0.3em" style="text-anchor: end; visibility: hidden; font-family: Roboto, sans-serif; font-size: 12px; font-weight: 200;" fill="rgb(33, 33, 33)" stroke="none" stroke-width="1px">0.014</text><text x="0" y="118.00000000000001" dx="0em" dy="0.3em" style="text-anchor: end; visibility: inherit; font-family: Roboto, sans-serif; font-size: 12px; font-weight: 200;" fill="rgb(33, 33, 33)" stroke="none" stroke-width="1px">0.015</text><text x="0" y="98.33333333333334" dx="0em" dy="0.3em" style="text-anchor: end; visibility: hidden; font-family: Roboto, sans-serif; font-size: 12px; font-weight: 200;" fill="rgb(33, 33, 33)" stroke="none" stroke-width="1px">0.016</text><text x="0" y="78.66666666666666" dx="0em" dy="0.3em" style="text-anchor: end; visibility: inherit; font-family: Roboto, sans-serif; font-size: 12px; font-weight: 200;" fill="rgb(33, 33, 33)" stroke="none" stroke-width="1px">0.017</text><text x="0" y="59.00000000000004" dx="0em" dy="0.3em" style="text-anchor: end; visibility: hidden; font-family: Roboto, sans-serif; font-size: 12px; font-weight: 200;" fill="rgb(33, 33, 33)" stroke="none" stroke-width="1px">0.018</text><text x="0" y="39.33333333333337" dx="0em" dy="0.3em" style="text-anchor: end; visibility: inherit; font-family: Roboto, sans-serif; font-size: 12px; font-weight: 200;" fill="rgb(33, 33, 33)" stroke="none" stroke-width="1px">0.019</text><text x="0" y="19.666666666666675" dx="0em" dy="0.3em" style="text-anchor: end; visibility: hidden; font-family: Roboto, sans-serif; font-size: 12px; font-weight: 200;" fill="rgb(33, 33, 33)" stroke="none" stroke-width="1px">0.02</text><text x="0" y="0" dx="0em" dy="0.3em" style="text-anchor: end; visibility: hidden; font-family: Roboto, sans-serif; font-size: 12px; font-weight: 200;" fill="rgb(33, 33, 33)" stroke="none" stroke-width="1px">0.021</text></g><line x1="61.953125" y1="0" x2="61.953125" y2="177" fill="rgb(0, 0, 0)" stroke="rgb(204, 204, 204)" stroke-width="1px"></line></g></g><g transform="translate(61, 0)" clip-path="url(#clip_0)"><clipPath id="clip_0"><rect width="268" height="177"></rect></clipPath><g><g><g><line x1="0" y1="0" x2="0" y2="177" fill="rgb(0, 0, 0)" stroke="rgb(66, 66, 66)" stroke-width="1px" opacity="0.25"></line><line x1="22.337239583333332" y1="0" x2="22.337239583333332" y2="177" fill="rgb(0, 0, 0)" stroke="rgb(66, 66, 66)" stroke-width="1px" opacity="0.25"></line><line x1="44.674479166666664" y1="0" x2="44.674479166666664" y2="177" fill="rgb(0, 0, 0)" stroke="rgb(66, 66, 66)" stroke-width="1px" opacity="0.25"></line><line x1="67.01171875" y1="0" x2="67.01171875" y2="177" fill="rgb(0, 0, 0)" stroke="rgb(66, 66, 66)" stroke-width="1px" opacity="0.25"></line><line x1="89.34895833333333" y1="0" x2="89.34895833333333" y2="177" fill="rgb(0, 0, 0)" stroke="rgb(66, 66, 66)" stroke-width="1px" opacity="0.25"></line><line x1="111.68619791666667" y1="0" x2="111.68619791666667" y2="177" fill="rgb(0, 0, 0)" stroke="rgb(66, 66, 66)" stroke-width="1px" opacity="0.25"></line><line x1="134.0234375" y1="0" x2="134.0234375" y2="177" fill="rgb(0, 0, 0)" stroke="rgb(66, 66, 66)" stroke-width="1px" opacity="0.25"></line><line x1="156.36067708333334" y1="0" x2="156.36067708333334" y2="177" fill="rgb(0, 0, 0)" stroke="rgb(66, 66, 66)" stroke-width="1px" opacity="0.25"></line><line x1="178.69791666666666" y1="0" x2="178.69791666666666" y2="177" fill="rgb(0, 0, 0)" stroke="rgb(66, 66, 66)" stroke-width="1px" opacity="0.25"></line><line x1="201.03515625" y1="0" x2="201.03515625" y2="177" fill="rgb(0, 0, 0)" stroke="rgb(66, 66, 66)" stroke-width="1px" opacity="0.25"></line><line x1="223.37239583333334" y1="0" x2="223.37239583333334" y2="177" fill="rgb(0, 0, 0)" stroke="rgb(66, 66, 66)" stroke-width="1px" opacity="0.25"></line><line x1="245.70963541666666" y1="0" x2="245.70963541666666" y2="177" fill="rgb(0, 0, 0)" stroke="rgb(66, 66, 66)" stroke-width="1px" opacity="0.25"></line><line x1="268.046875" y1="0" x2="268.046875" y2="177" fill="rgb(0, 0, 0)" stroke="rgb(66, 66, 66)" stroke-width="1px" opacity="0.25"></line></g><g><line x1="0" y1="177" x2="268.046875" y2="177" fill="rgb(0, 0, 0)" stroke="rgb(66, 66, 66)" stroke-width="1px" opacity="0.25"></line><line x1="0" y1="157.33333333333334" x2="268.046875" y2="157.33333333333334" fill="rgb(0, 0, 0)" stroke="rgb(66, 66, 66)" stroke-width="1px" opacity="0.25"></line><line x1="0" y1="137.66666666666666" x2="268.046875" y2="137.66666666666666" fill="rgb(0, 0, 0)" stroke="rgb(66, 66, 66)" stroke-width="1px" opacity="0.25"></line><line x1="0" y1="118.00000000000001" x2="268.046875" y2="118.00000000000001" fill="rgb(0, 0, 0)" stroke="rgb(66, 66, 66)" stroke-width="1px" opacity="0.25"></line><line x1="0" y1="98.33333333333334" x2="268.046875" y2="98.33333333333334" fill="rgb(0, 0, 0)" stroke="rgb(66, 66, 66)" stroke-width="1px" opacity="0.25"></line><line x1="0" y1="78.66666666666666" x2="268.046875" y2="78.66666666666666" fill="rgb(0, 0, 0)" stroke="rgb(66, 66, 66)" stroke-width="1px" opacity="0.25"></line><line x1="0" y1="59.00000000000004" x2="268.046875" y2="59.00000000000004" fill="rgb(0, 0, 0)" stroke="rgb(66, 66, 66)" stroke-width="1px" opacity="0.25"></line><line x1="0" y1="39.33333333333337" x2="268.046875" y2="39.33333333333337" fill="rgb(0, 0, 0)" stroke="rgb(66, 66, 66)" stroke-width="1px" opacity="0.25"></line><line x1="0" y1="19.666666666666675" x2="268.046875" y2="19.666666666666675" fill="rgb(0, 0, 0)" stroke="rgb(66, 66, 66)" stroke-width="1px" opacity="0.25"></line><line x1="0" y1="0" x2="268.046875" y2="0" fill="rgb(0, 0, 0)" stroke="rgb(66, 66, 66)" stroke-width="1px" opacity="0.25"></line></g></g></g><g><g><line x1="0" y1="412.99999999999994" x2="268.046875" y2="412.99999999999994" fill="rgb(0, 0, 0)" stroke="rgb(153, 153, 153)" stroke-width="1.5px"></line></g></g><g><g><line x1="22.337239583333332" y1="0" x2="22.337239583333332" y2="177" fill="rgb(0, 0, 0)" stroke="rgb(153, 153, 153)" stroke-width="1.5px"></line></g></g><g><g><g><g><g><path stroke="rgb(255, 112, 67)" stroke-width="2px" d="M32.5945,178.96699258048136L32.95189583333333,172.81302255853248L33.327161458333336,167.21108756972265L33.68455729166667,165.08817044259777L34.05982291666667,161.02046655643778L34.417218749999996,163.37384065220394L34.792484375,158.3734588366357L35.14988020833333,155.40346590986005L35.52514583333333,151.39880029388382L35.88254166666667,142.91644809377803L36.257807291666666,139.6250463138948L36.615203125,129.52756004135833L36.990468750000005,123.7119972048011L37.34786458333333,123.86266624171542L37.72313020833333,128.676473752425L38.080526041666666,118.68244859830021L38.45579166666666,120.98421202295448L38.813187500000005,110.51623251841987L39.188453125,104.84517748403864L39.54584895833333,110.74005184442989L39.921114583333335,111.4641427489554L40.27851041666666,111.62256768499638L40.65377604166667,112.34410347435356L41.011171875,113.4724032812977L41.36856770833333,104.46465334096888L41.743833333333335,107.36987483183655L42.10122916666666,109.55611598201891L42.47649479166667,110.9822038633135L42.833890625,108.34924267863177L43.20915625,102.00407958508357L43.566552083333335,102.05634100326391L43.94181770833333,100.08750157607676L44.29921354166667,95.73720571827727L44.674479166666664,96.96632778305914L45.031875,101.79578095769358L45.407140625,96.78731756664594L45.76453645833333,101.1578186110096L46.139802083333336,97.95638980202496L46.497197916666664,88.65264168619682L46.87246354166667,81.61799178464956L47.229859375,83.38642009860521L47.605125,84.40518908162665L47.962520833333336,90.96411336139688L48.33778645833333,95.03175348446277L48.69518229166667,85.58107060634399L49.070447916666666,92.89804582462685L49.42784375,90.79274351397741L49.803109375,91.2929836730138L50.16050520833333,97.19086693843062L50.51790104166667,82.41474383544839L50.893166666666666,77.39557873490598L51.2505625,85.7786310709505L51.625828125,83.48028522910609L51.98322395833333,83.0198476365125L52.35848958333333,70.53791281685724L52.715885416666666,83.69918939931486L53.09115104166667,86.87496697582779L53.448546875,84.16504793968583L53.8238125,96.43014946941607L54.18120833333333,94.61725559650303L54.556473958333335,83.40492678971157L54.91386979166667,82.19369649067166L55.28913541666666,72.70504771376437L55.64653125,82.51429540338984L56.021796875,85.7544699276857L56.379192708333335,85.16412231318387L56.75445833333333,72.13667036091623L57.11185416666666,71.39080936508583L57.487119791666665,78.0475457914504L57.844515625,70.01762486146882L58.219781250000004,79.37396404334103L58.57717708333333,68.26334497842116L58.952442708333336,82.73920322564996L59.309838541666664,70.83888493244504L59.667234375,79.39185186782272L60.042500000000004,64.38662896489375L60.39989583333333,78.11479268631503L60.775161458333336,66.89333268102708L61.132557291666664,70.02729160644631L61.50782291666667,87.04101432397773L61.865218750000004,75.76711706937246L62.240484374999994,73.23162321023678L62.597880208333336,73.1312243885152L62.973145833333334,73.80283426918702L63.33054166666667,73.52469369974604L63.705807291666666,94.00112556739774L64.063203125,90.10100886816255L64.43846875,83.26720088279926L64.79586458333333,75.83804709647112L65.17113020833334,79.0808254873793L65.52852604166667,74.51254254158584L65.90379166666666,75.37437602426361L66.2611875,74.26165887641359L66.636453125,84.00471715685202L66.99384895833333,85.75834507081794L67.36911458333334,78.10627002319028L67.72651041666666,81.19012213230329L68.10177604166667,83.12556621519843L68.45917187500001,72.78248777442052L68.81656770833332,75.62614198000946L69.19183333333334,78.45258567217026L69.54922916666666,72.23466049919342L69.92449479166667,69.49789331330749L70.281890625,60.378328986807L70.65715625,70.658256966577L71.01455208333334,73.91349917374414L71.38981770833333,73.24727914366542L71.74721354166667,69.47932068685742L72.12247916666666,40.63744250643284L72.47987499999999,67.64315581743736L72.85514062499999,59.44338623737189L73.21253645833333,67.89050509167646L73.58780208333334,61.67933747152249L73.94519791666666,73.5069741029328L74.32046354166667,69.12995278351225L74.677859375,62.509164600646834L75.05312500000001,77.02352476660992L75.41052083333334,70.15649847911553L75.78578645833333,48.99175487792546L76.14318229166668,62.692756582316115L76.51844791666666,78.77948340714951L76.87584375,79.48272698486434L77.251109375,47.32507654248427L77.60850520833333,53.004366776657626L77.96590104166667,69.96930546044065L78.34116666666667,68.20324056433888L78.69856250000001,65.14838730347508L79.07382812499999,62.22713799507829L79.43122395833333,70.59952304699864L79.80648958333333,49.461170392863984L80.16388541666666,67.9356417125263L80.53915104166667,64.04872949515568L80.896546875,73.57603786942236L81.27181250000001,51.90400865012531L81.62920833333332,46.27595991890109L82.00447395833334,63.26767742435425L82.36186979166668,73.05191644112445L82.73713541666666,64.96608467944571L83.09453125,47.87874322562284L83.469796875,33.80664423165042L83.82719270833333,66.39305095110721L84.20245833333333,71.07926908473803L84.55985416666667,54.47567702536163L84.93511979166666,56.439574509090455L85.292515625,53.05820808960574L85.66778125,64.89828614286729L86.02517708333333,73.59516652360844L86.40044270833334,43.53504646183227L86.75783854166666,34.669844907688116L87.115234375,55.91702774494909L87.49050000000001,64.24596248465791L87.84789583333333,62.61881790795731L88.22316145833334,47.85558641496584L88.58055729166668,49.7042055976984L88.95582291666666,68.43896205738766L89.31321875,56.45436715592295L89.688484375,47.69932033723205L90.04588020833333,52.62158344649643L90.42114583333333,47.3212487248383L90.77854166666667,36.72786970622155L91.15380729166667,46.96626515201822L91.511203125,32.50094781127822L91.88646874999999,51.89035502159939L92.24386458333333,60.21237670829504L92.61913020833335,45.032570052845955L92.97652604166666,67.66735818507495L93.35179166666667,51.63996029012732L93.70918750000001,36.179791033943495L94.084453125,63.17012317618529L94.44184895833334,55.64500077351415L94.81711458333334,66.32754191230424L95.17451041666666,61.3512189674617L95.54977604166666,53.06745318700319L95.907171875,48.089940578516995L96.26456770833335,43.146242728298944L96.63983333333333,34.86079077947106L96.99722916666667,42.125435271032494L97.37249479166667,41.08221501201462L97.729890625,47.69512192660612L98.10515625,34.08422872376866L98.46255208333334,54.096831204210325L98.83781770833333,53.526993329354866L99.19521354166666,65.8009096314681L99.57047916666667,58.54902431548668L99.927875,39.22116963375236L100.303140625,40.43109937692856L100.66053645833333,44.83558618735378L101.03580208333334,38.40786744581331L101.39319791666667,27.790327785968778L101.76846354166666,34.68150416328111L102.125859375,46.00163957266171L102.501125,38.23879307183522L102.85852083333333,31.859292254882448L103.23378645833333,15.388445249818197L103.59118229166667,20.563192374481293L103.96644791666667,1.815691904409871L104.32384375,46.43100940357693L104.699109375,36.25488693617408L105.05650520833333,66.44230061035928L105.41390104166666,58.71421330329721L105.78916666666666,44.8841302503563L106.1465625,48.23085782584055L106.521828125,56.41174162222841L106.87922395833333,54.85473479903084L107.25448958333334,63.86291551436787L107.61188541666668,26.14652802454918L107.98715104166666,37.95018010481688L108.344546875,31.577019662526236L108.7198125,49.02406335326058L109.07720833333333,48.422561630320686L109.45247395833333,45.965122102526124L109.80986979166667,50.83485557963089L110.18513541666667,78.67726192174143L110.54253125,45.918597304609115L110.917796875,31.656716372839682L111.27519270833334,48.52591773446727L111.65045833333333,63.225635305502L112.00785416666666,61.61134743817133L112.38311979166667,62.80001979744922L112.74051562499999,45.715790124792804L113.11578125,65.44785839441955L113.47317708333334,40.09787573888032L113.84844270833334,41.81948477908453L114.20583854166667,31.998103898075186L114.56323437500001,33.895338442707235L114.9385,47.91204721934646L115.29589583333333,82.49546119495456L115.67116145833333,88.02974017018612L116.02855729166667,59.08688926828622L116.40382291666667,39.40363192240031L116.76121875,25.832908127782524L117.136484375,35.0206288759377L117.49388020833334,46.88013998256925L117.86914583333332,43.27621826283222L118.22654166666666,43.99585287224505L118.60180729166667,46.95867186258988L118.95920312499999,70.96796331785572L119.33446875,56.12966078509366L119.69186458333334,59.96140583349953L120.06713020833334,56.85639451539733L120.42452604166667,56.769923533576026L120.79979166666666,49.1846657706761L121.1571875,48.056084818450415L121.532453125,50.630247926796144L121.88984895833333,36.760665271332684L122.26511458333333,45.69520589529526L122.62251041666667,78.84892320922448L122.99777604166665,61.60004980340461L123.355171875,67.59842462723368L123.71256770833334,38.19372739027885L124.08783333333332,43.733644888585474L124.44522916666666,35.50998075353251L124.82049479166668,59.80327051210688L125.177890625,57.9041539827682L125.55315625,29.83214799958654L125.91055208333333,34.40094695328586L126.28581770833334,36.62920219404846L126.64321354166665,45.60738983573532L127.01847916666667,47.151354291967706L127.37587500000001,44.20950874225231L127.751140625,52.82722033979057L128.10853645833333,58.59115416758196L128.48380208333333,26.13700470498967L128.84119791666666,27.49686711930294L129.21646354166666,27.124734854120387L129.573859375,15.774669521303021L129.949125,26.497770702789836L130.30652083333334,22.986389304767396L130.68178645833333,50.74409420822287L131.03918229166666,45.13145947973467L131.41444791666666,50.504322875661856L131.77184375,41.36920284179239L132.14710937499999,57.509082414392964L132.50450520833334,45.09154901565177L132.86190104166667,39.21033011472857L133.23716666666667,51.44762510218208L133.5945625,47.298683550902126L133.969828125,39.02913733141501L134.32722395833332,31.805763259432062L134.70248958333335,31.681197644214663L135.05988541666667,47.819395262563745L135.43515104166667,87.99278624965616L135.792546875,66.67660183775743L136.1678125,23.288222436517437L136.52520833333332,32.156572851186965L136.90047395833335,36.71213503637674L137.25786979166668,19.71716541822014L137.63313541666665,46.62795230214944L137.99053125,53.12839267531125L138.365796875,36.06623182622046L138.72319270833333,23.64612108624448L139.09845833333333,31.865057507096534L139.45585416666665,39.09979689852724L139.83111979166665,61.93009646179077L140.188515625,37.3789658453572L140.56378125,40.494660944134516L140.92117708333333,48.25374507728649L141.29644270833333,27.984944119990438L141.65383854166666,43.09004920022124L142.01123437500002,32.34840557553236L142.3865,41.646514083412505L142.7438958333333,44.87783808438017L143.11916145833334,44.6485882854146L143.47655729166667,40.74199904336625L143.85182291666666,38.76555258830842L144.20921875000002,26.35828555703442L144.584484375,54.56344649044839L144.94188020833332,44.826798320898426L145.31714583333334,36.934969425850575L145.67454166666667,52.23565355180908L146.04980729166667,48.13157873693626L146.407203125,8.986692265730232L146.78246875,39.24001989129848L147.13986458333335,36.771456068935L147.51513020833335,36.022621186285434L147.87252604166665,48.12812498909785L148.24779166666667,63.87266332131156L148.6051875,53.80631449553289L148.980453125,60.06006500959145L149.33784895833335,61.59177010559882L149.71311458333332,40.50173263134868L150.07051041666665,51.84452672232578L150.44577604166668,28.952359784221986L150.803171875,47.489137718226345L151.16056770833333,38.21455364772435L151.53583333333333,25.310270035358805L151.89322916666666,26.42349100952893L152.26849479166668,53.35522013214553L152.625890625,41.99288377746341L153.00115624999998,54.765144019828604L153.35855208333334,38.94116174151878L153.73381770833333,51.19241936785208L154.09121354166666,37.05795131593284L154.4664791666667,13.084401812966718L154.823875,29.27876394797332L155.19914062499998,34.92335109199466L155.55653645833334,34.91352375518508L155.93180208333334,50.3428372234378L156.28919791666667,49.33141474069794L156.66446354166666,38.33605703398573L157.021859375,33.768388263493684L157.39712500000002,57.627162159746824L157.75452083333334,76.50447585658192L158.1297864583333,64.57509863660312L158.48718229166667,48.58275190165982L158.86244791666667,59.11807552280831L159.21984375,42.15553204597713L159.59510937500002,35.09517117767544L159.95250520833332,39.90482203024036L160.30990104166665,17.73750430657906L160.68516666666667,48.12457945931617L161.0425625,55.78272786133683L161.417828125,53.64498840804809L161.77522395833336,82.2588435801024L162.15048958333333,79.14322258187262L162.50788541666665,51.16368814201908L162.88315104166668,31.37614195083638L163.240546875,38.387611686398984L163.6158125,44.41208650621397L163.97320833333333,16.999288203036528L164.34847395833333,40.014406564860984L164.7058697916667,49.54522381804156L165.08113541666665,35.254864568999054L165.43853124999998,43.84837766219612L165.813796875,48.30485787031711L166.17119270833334,68.33524676981169L166.54645833333333,49.25233724607587L166.9038541666667,35.477820892494265L167.27911979166666,62.53879051170424L167.636515625,49.13915860312187L168.01178125,63.49377954795161L168.36917708333334,59.731244286661564L168.7444427083333,55.57253587887603L169.10183854166667,37.77035699673043L169.459234375,-6.903312106604109L169.83450000000002,26.58505697269757L170.19189583333335,33.03423300118959L170.56716145833332,12.964917858829448L170.92455729166667,12.447147246434524L171.29982291666667,35.81340133919368L171.65721875,16.272961954915818L172.03248437500002,31.242847848322576L172.38988020833332,16.573417422207207L172.76514583333332,77.19283892136737L173.12254166666668,78.24108357482307L173.49780729166667,45.33968629789247L173.85520312499997,25.133914317798013L174.23046875,12.35470864342334L174.58786458333333,23.31260457734278L174.96313020833335,42.361922743519195L175.32052604166668,9.241495630701433L175.69579166666665,85.74795544439161L176.0531875,81.61682751155062L176.428453125,71.1633743745655L176.78584895833333,56.22536779061376L177.16111458333336,22.863527671190685L177.51851041666666,-47.206984149003475L177.89377604166665,11.197161704350837L178.251171875,23.888225813736128L178.60856770833334,21.910842774329375L178.9838333333333,9.917380564223379L179.34122916666666,25.78451611964541L179.71649479166666,31.694140297384862L180.073890625,21.410213161833127L180.44915625000002,24.063514413035147L180.80655208333332,28.915510611690888L181.18181770833334,17.97561358826819L181.53921354166667,23.46834322860321L181.91447916666667,52.31705772708143L182.27187500000002,50.08697142102491L182.647140625,28.435950995871412L183.00453645833332,28.171595985525272L183.37980208333335,28.145708118776575L183.73719791666667,14.951190329531876L184.11246354166664,20.916052240296217L184.469859375,15.169526426889883L184.845125,9.937089349169579L185.20252083333332,50.157250951929356L185.57778645833335,31.184023555837165L185.93518229166665,29.56596419615869L186.31044791666667,6.804321631213008L186.66784375,9.099965936593193L187.043109375,-0.09176221490781411L187.40050520833336,18.270098884895223L187.75790104166668,28.69596006869957L188.13316666666665,22.894398645955473L188.4905625,21.824009972650657L188.865828125,21.939385579728402L189.22322395833334,4.0543488462984L189.59848958333333,-3.7824944158263802L189.95588541666666,15.249711138017883L190.33115104166666,28.036625046734766L190.68854687500001,27.966478474460875L191.06381249999998,24.712319072597886L191.4212083333333,-9.3865775268195L191.79647395833334,3.6720469593454803L192.15386979166666,18.25330142375521L192.5291354166667,19.829225934724185L192.88653125000002,13.87802603871437L193.261796875,-2.0513121781896646L193.61919270833334,15.143259537330149L193.99445833333334,39.65439795977526L194.35185416666667,48.000970869421884L194.72711979166667,18.07002537001765L195.084515625,26.869039602376617L195.45978125,28.660522910335246L195.81717708333335,32.72602180582999L196.19244270833332,37.58763552869985L196.54983854166665,50.820283521208935L196.907234375,59.11980390488731L197.2825,36.81975246631879L197.63989583333333,16.33390072880454L198.01516145833335,34.831794048736114L198.37255729166665,71.30493773443874L198.74782291666668,58.827629002472065L199.10521875,51.237648407145585L199.480484375,46.977331638052625L199.83788020833336,43.98079537533597L200.21314583333333,28.512506615218836L200.57054166666666,38.146580110647676L200.94580729166668,15.329782567814043L201.303203125,41.01411564492884L201.67846874999998,17.400418094855794L202.03586458333334,22.75985093438363L202.41113020833333,30.18419286722185L202.76852604166666,57.35107614466093L203.1437916666667,69.5527569604032L203.5011875,55.41830267620759L203.876453125,46.90343045063419L204.23384895833334,32.33144497792482L204.60911458333334,25.416924196008242L204.9665104166667,24.81449909459954L205.34177604166666,27.2742518253212L205.699171875,10.849045713767513L206.05656770833335,41.581249179457714L206.43183333333334,55.71301187794315L206.78922916666664,43.699853049045224L207.16449479166667,36.23992944538124L207.521890625,27.051280399836248L207.89715625,38.17213502367963L208.25455208333335,19.78860900108394L208.62981770833332,25.212044143504194L208.98721354166665,39.77707700560071L209.36247916666667,38.86832128145047L209.719875,29.328719748125973L210.09514062500003,32.8185275950431L210.45253645833333,14.208155063295345L210.82780208333332,34.668919746580116L211.18519791666668,-3.976120179194739L211.56046354166668,-4.3467578124792565L211.91785937499998,51.88388147164639L212.293125,40.837186675524286L212.65052083333333,11.10746398841674L213.02578645833333,12.0552635229151L213.38318229166669,12.068191522549812L213.75844791666665,11.415575548524385L214.11584374999998,-10.52262658406407L214.491109375,32.23915233694048L214.84850520833334,39.518022536133905L215.20590104166666,8.19919148220331L215.58116666666666,21.60547606826057L215.9385625,17.654047497194377L216.31382812500001,34.41454186523837L216.67122395833334,-22.973811846068248L217.0464895833333,-1.1141332394425283L217.40388541666667,10.974306908853206L217.77915104166667,20.39575221197246L218.136546875,10.661119068005299L218.51181250000002,36.21787905554293L218.86920833333335,30.879342527351717L219.24447395833332,37.32084569801605L219.60186979166667,46.214181201476144L219.97713541666667,20.53031876890956L220.33453125,19.05762088622114L220.709796875,-7.287172142711508L221.06719270833332,4.844579243234457L221.44245833333335,30.093380191070857L221.79985416666668,48.966173846409546L222.17511979166665,44.13999339275708L222.532515625,14.341435645022884L222.90778125,2.8843046033375885L223.26517708333333,-29.86087015247389L223.64044270833335,-15.248873505846888L223.99783854166668,22.879724738683596L224.35523437499998,48.91333308280685L224.7305,30.067894558873885L225.08789583333333,10.767714890301482L225.46316145833333,20.650747934456838L225.8205572916667,35.710586213753295L226.19582291666666,5.753197127790662L226.55321874999998,13.402833247708106L226.928484375,52.89408089192321L227.28588020833334,13.111031423836616L227.66114583333334,18.52926469295999L228.01854166666666,21.749858688015408L228.39380729166666,22.696549962380793L228.75120312500002,2.259822343043047L229.12646875000002,12.62878476038669L229.48386458333331,27.439931613932643L229.85913020833334,30.878705523052183L230.21652604166667,23.079237726313835L230.59179166666667,24.59291823127846L230.94918750000002,35.350641843193685L231.324453125,15.502048764535155L231.68184895833332,28.765128485704533L232.05711458333334,15.190044146187168L232.41451041666667,33.2764073737902L232.78977604166667,-0.46953155228841226L233.147171875,-8.58739745594671L233.50456770833333,14.373735189571326L233.87983333333335,7.5318032027091615L234.23722916666668,21.983165843534838L234.61249479166665,6.80914578234062L234.969890625,9.706614749003888L235.34515625,-6.947900360999761L235.70255208333333,-11.45805598468279L236.07781770833336,16.672832672770646L236.43521354166666,23.904396330302482L236.81047916666665,44.94418072997662L237.167875,32.04806069711325L237.543140625,27.816776447571197L237.90053645833333,19.89249800627049L238.27580208333333,9.471103779383274L238.63319791666666,27.067486078684208L239.00846354166669,20.73153572349433L239.365859375,13.358152950219424L239.74112499999998,49.28114435935748L240.09852083333334,25.791004323153135L240.47378645833334,26.931811626665876L240.83118229166666,33.826830283351555L241.2064479166667,38.74395700229073L241.56384375,-1.9615387284783334L241.939109375,15.355476508695238L242.29650520833334,21.805691971475937L242.65390104166667,-5.769867753528477L243.02916666666667,26.358202654793146L243.3865625,17.41470280011956L243.761828125,29.755085993133797L244.11922395833332,34.39084357519313L244.49448958333335,25.291463972127623L244.85188541666668,15.340765055614465L245.22715104166667,14.131687913297311L245.584546875,-1.5810465391723636" style="fill: none;" fill="none"></path></g></g></g></g><g opacity="0.2"><g><g><g><path stroke="rgb(255, 112, 67)" stroke-width="2px" d="M32.219234375,180.14126703639826L32.5945,170.61016458272934L32.95189583333333,163.58207319428524L33.327161458333336,158.80818818261227L33.68455729166667,161.9037954558929L34.05982291666667,154.91891153653464L34.417218749999996,166.9039015149077L34.792484375,150.87288647145033L35.14988020833333,150.9484766473373L35.52514583333333,145.39180197318396L35.88254166666667,130.19291992485523L36.257807291666666,134.68794367462397L36.615203125,114.38133068879446L36.990468750000005,114.9886529694001L37.34786458333333,124.08866979678473L37.72313020833333,135.89718501269817L38.080526041666666,103.69141087432703L38.45579166666666,124.43685715893906L38.813187500000005,94.81426326433818L39.188453125,96.3385949333509L39.54584895833333,119.5823633844654L39.921114583333335,112.55027910570305L40.27851041666666,111.86020508905253L40.65377604166667,113.4264071583748L41.011171875,115.16485299170019L41.36856770833333,90.95302843054137L41.743833333333335,111.72770706812543L42.10122916666666,112.83547770728669L42.47649479166667,113.12133568525314L42.833890625,104.39980090161167L43.20915625,92.48633494476478L43.566552083333335,102.1347331305345L43.94181770833333,97.13424243529639L44.29921354166667,89.21176193157834L44.674479166666664,98.81001088023187L45.031875,109.03996071964502L45.407140625,89.27462248007458L45.76453645833333,107.7135701775551L46.139802083333336,93.15424658854803L46.497197916666664,74.69701951245467L46.87246354166667,71.06601693232857L47.229859375,86.03906256953877L47.605125,85.93334255615872L47.962520833333336,100.80249978105229L48.33778645833333,101.13321366906166L48.69518229166667,71.40504628916582L49.070447916666666,103.8735086520513L49.42784375,87.63479004800321L49.803109375,92.04334391156834L50.16050520833333,106.03769183655582L50.51790104166667,60.25055918097498L50.893166666666666,69.86683108409248L51.2505625,98.3532095750173L51.625828125,80.03276646633945L51.98322395833333,82.32919124762219L52.35848958333333,51.815010587374395L52.715885416666666,103.44110427300137L53.09115104166667,91.63863334059717L53.448546875,80.10016938547295L53.8238125,114.82780176401138L54.18120833333333,91.89791478713354L54.556473958333335,66.58643357952438L54.91386979166667,80.37685104211172L55.28913541666666,58.47207454840345L55.64653125,97.22816693782808L56.021796875,90.61473171412948L56.379192708333335,84.2786008914312L56.75445833333333,52.595492432514845L57.11185416666666,70.27201787134014L57.487119791666665,88.03265043099724L57.844515625,57.97274346649649L58.219781250000004,93.4084728161494L58.57717708333333,51.597416381041235L58.952442708333336,104.4529905964931L59.309838541666664,52.98840749263766L59.667234375,92.22130227088931L60.042500000000004,41.87879461050035L60.39989583333333,98.70703826844692L60.775161458333336,50.06114267309509L61.132557291666664,74.7282299945752L61.50782291666667,112.56159840027493L61.865218750000004,58.856271187464415L62.240484374999994,69.42838242153329L62.597880208333336,72.98062615593275L62.973145833333334,74.81024909019472L63.33054166666667,73.10748284558457L63.705807291666666,124.7157733688752L64.063203125,84.25083381930989L64.43846875,73.01648890475434L64.79586458333333,64.69431641697886L65.17113020833334,83.94499307374161L65.52852604166667,67.66011812289557L65.90379166666666,76.66712624828023L66.2611875,72.59258315463862L66.636453125,98.61930457750958L66.99384895833333,88.38878694176675L67.36911458333334,66.62815745174886L67.72651041666666,85.81590029597284L68.10177604166667,86.02873233954112L68.45917187500001,57.267870113253615L68.81656770833332,79.89162328839302L69.19183333333334,82.6922512104114L69.54922916666666,62.907772739728316L69.92449479166667,65.39274253447853L70.281890625,46.69898249705635L70.65715625,86.07814893623194L71.01455208333334,78.79636248449485L71.38981770833333,72.24794909854732L71.74721354166667,63.82738300164542L72.12247916666666,-2.625374764203999L72.47987499999999,108.15172578394414L72.85514062499999,47.14373186727367L73.21253645833333,80.56118337313335L73.58780208333334,52.362586041291564L73.94519791666666,91.2484290500482L74.32046354166667,62.564420804381385L74.677859375,52.577982326348646L75.05312500000001,98.79506501555443L75.41052083333334,59.85595904787383L75.78578645833333,17.244639476140364L76.14318229166668,83.24425913890205L76.51844791666666,102.90957364439964L76.87584375,80.53759235143663L77.251109375,-0.9113991210857721L77.60850520833333,61.52330212791762L77.96590104166667,95.41671348611516L78.34116666666667,65.55414322018626L78.69856250000001,60.56610741217933L79.07382812499999,57.845264032483115L79.43122395833333,83.15810062487921L79.80648958333333,17.753641411662127L80.16388541666666,95.64734869201979L80.53915104166667,58.21836116909983L80.896546875,87.86700043082239L81.27181250000001,19.395964821179724L81.62920833333332,37.83388682206475L82.00447395833334,88.7552536825339L82.36186979166668,87.72827496627967L82.73713541666666,52.83733703692755L83.09453125,22.247731044888518L83.469796875,12.698495740691849L83.82719270833333,115.27266103029253L84.20245833333333,78.10859628518423L84.55985416666667,29.57028893629713L84.93511979166666,59.38542073468369L85.292515625,47.98615846037867L85.66778125,82.65840322275959L86.02517708333333,86.64048709472023L86.40044270833334,-1.5551336308320145L86.75783854166666,21.372042576471987L87.115234375,87.78780200084053L87.49050000000001,76.73936459422113L87.84789583333333,60.178101042906455L88.22316145833334,25.71073917547864L88.58055729166668,52.47713437179726L88.95582291666666,96.54109674692155L89.31321875,38.477474803725904L89.688484375,34.56675010919574L90.04588020833333,60.004978110392905L90.42114583333333,39.37074664235117L90.77854166666667,20.837801178296438L91.15380729166667,62.32385832071307L91.511203125,10.802971800168372L91.88646874999999,80.9744658370813L92.24386458333333,72.69540923833848L92.61913020833335,22.26286006967229L92.97652604166666,101.61954038341842L93.35179166666667,27.598863447705927L93.70918750000001,12.989537149667772L94.084453125,103.655621389548L94.44184895833334,44.35731716950736L94.81711458333334,82.35135362048945L95.17451041666666,53.88673455019793L95.54977604166666,40.641804516315474L95.907171875,40.62367166578771L96.26456770833335,35.73069595297179L96.63983333333333,22.43261285622917L96.99722916666667,53.022402008374556L97.37249479166667,39.517384623487814L97.729890625,57.6144822984934L98.10515625,13.667888919512453L98.46255208333334,84.11573492487274L98.83781770833333,52.67223651707175L99.19521354166666,84.21178408463797L99.57047916666667,47.671196341514616L99.927875,10.229387611150774L100.303140625,42.24599399169288L100.66053645833333,51.44231640299163L101.03580208333334,28.766289333502474L101.39319791666667,11.864018296202055L101.76846354166666,45.018268729249655L102.125859375,62.98184268673262L102.501125,26.594523320595453L102.85852083333333,22.29004102945331L103.23378645833333,-9.317825257778155L103.59118229166667,28.325313061475768L103.96644791666667,-26.305558800697302L104.32384375,113.35398565232757L104.699109375,20.990703235069926L105.05650520833333,111.72342112163705L105.41390104166666,47.122082342704154L105.78916666666666,24.13900567094488L106.1465625,53.25094918906691L106.521828125,68.68306731681031L106.87922395833333,52.51922456423444L107.25448958333334,77.37518658737343L107.61188541666668,-30.42805321017898L107.98715104166666,55.655658225218474L108.344546875,22.017278999090216L108.7198125,75.19462888936204L109.07720833333333,47.52030904591086L109.45247395833333,42.278962810834265L109.80986979166667,58.139455795288114L110.18513541666667,120.44087143490714L110.54253125,-3.219399621089278L110.917796875,10.263894975185414L111.27519270833334,73.82971977690858L111.65045833333333,85.27521166205408L112.00785416666666,59.18991563717526L112.38311979166667,64.58302833636604L112.74051562499999,20.0894456158082L113.11578125,95.04596079885961L113.47317708333334,2.072901755571398L113.84844270833334,44.40189833939077L114.20583854166667,17.266032576561L114.56323437500001,36.74119025965533L114.9385,68.93711038430534L115.29589583333333,134.37058215836686L115.67116145833333,96.33115863303344L116.02855729166667,15.672612915436455L116.40382291666667,9.87874590357147L116.76121875,5.476822435855885L117.136484375,48.80220999817055L117.49388020833334,64.66940664251648L117.86914583333332,37.87033568322661L118.22654166666666,45.075304786364256L118.60180729166667,51.402900348107046L118.95920312499999,106.98190050075452L119.33446875,33.87220698595049L119.69186458333334,65.70902340610823L120.06713020833334,52.19887753824395L120.42452604166667,56.640217060844115L120.79979166666666,37.806779126326255L121.1571875,46.36321339011194L121.532453125,54.4914925893148L121.88984895833333,15.956291288137455L122.26511458333333,59.09701683123908L122.62251041666667,128.57949918011826L122.99777604166665,35.726739694674826L123.355171875,76.59598686297736L123.71256770833334,-5.913318465153333L124.08783333333332,52.043521136045484L124.44522916666666,23.174484550952933L124.82049479166668,96.24320514996847L125.177890625,55.05547918876013L125.55315625,-12.275860975186013L125.91055208333333,41.25414538383487L126.28581770833334,39.97158505519234L126.64321354166665,59.07467129826547L127.01847916666667,49.46730097631616L127.37587500000001,39.79674041767917L127.751140625,65.75378773609799L128.10853645833333,67.23705490926903L128.48380208333333,-22.544219488898882L128.84119791666666,29.536660740772913L129.21646354166666,26.566536456346537L129.573859375,-1.250428477923058L129.949125,42.58242247502012L130.30652083333334,17.71931720773382L130.68178645833333,92.380651563406L131.03918229166666,36.712507387002326L131.41444791666666,58.56361796955269L131.77184375,27.666522790988303L132.14710937499999,81.71890177329384L132.50450520833334,26.465248917539945L132.86190104166667,30.388501763343825L133.23716666666667,69.80356758336228L133.5945625,41.07527122398219L133.969828125,26.624818002184263L134.32722395833332,20.9707021514575L134.70248958333335,31.49434922138853L135.05988541666667,72.02669169008733L135.43515104166667,148.25287273029485L135.792546875,34.70232521990937L136.1678125,-41.7943466653426L136.52520833333332,45.45909847319128L136.90047395833335,43.54547831416133L137.25786979166668,-5.775289009014735L137.63313541666665,86.99413262804352L137.99053125,62.879053235054045L138.365796875,10.472990552584346L138.72319270833333,5.015954976280548L139.09845833333333,44.19346213837466L139.45585416666665,49.95190598567328L139.83111979166665,96.17554580668609L140.188515625,0.5522699207067686L140.56378125,45.16820359230044L140.92117708333333,59.89237127701444L141.29644270833333,-2.418257315953551L141.65383854166666,65.74770682056747L142.01123437500002,16.235940138498957L142.3865,55.593676845232665L142.7438958333333,49.72482408583167L143.11916145833334,44.30471358696622L143.47655729166667,34.88211518029373L143.85182291666666,35.800882905721686L144.20921875000002,7.747385010123272L144.584484375,96.87118789056937L144.94188020833332,30.221826066573485L145.31714583333334,25.097226083278677L145.67454166666667,75.18667974074684L146.04980729166667,41.975466514627165L146.407203125,-49.73063744107879L146.78246875,84.62001132965088L147.13986458333335,33.0686103353898L147.51513020833335,34.89936886231107L147.87252604166665,66.28638069331649L148.24779166666667,87.48947081963223L148.6051875,38.70679125686488L148.980453125,69.4406907806794L149.33784895833335,63.88932774960997L149.71311458333332,8.866676419973393L150.07051041666665,68.85871785879137L150.44577604166668,-5.385890622933697L150.803171875,75.29430461923283L151.16056770833333,24.302677541971228L151.53583333333333,5.953844616810502L151.89322916666666,28.093322470784212L152.26849479166668,93.75281381607056L152.625890625,24.949379245440195L153.00115624999998,73.92353438337645L153.35855208333334,15.205188324054106L153.73381770833333,69.56930580735208L154.09121354166666,15.856249238053985L154.4664791666667,-22.87592244148253L154.823875,53.57030715048316L155.19914062499998,43.390231808026655L155.55653645833334,34.89878274997078L155.93180208333334,73.48680742581688L156.28919791666667,47.81428101658824L156.66446354166666,21.843020473917356L157.021859375,26.916885107755675L157.39712500000002,93.41532300412656L157.75452083333334,104.82044640183449L158.1297864583333,46.68103280663492L158.48718229166667,24.594231799244895L158.86244791666667,74.92106095453106L159.21984375,16.71171683073047L159.59510937500002,24.50462987522287L159.95250520833332,47.11929830908778L160.30990104166665,-15.51347227891284L160.68516666666667,93.70519218842189L161.0425625,67.26995046436788L161.417828125,50.4383792281151L161.77522395833336,125.1796263381839L162.15048958333333,74.46979108452798L162.50788541666665,9.194386482238789L162.88315104166668,1.6948226640622104L163.240546875,48.9048162897428L163.6158125,53.4487987359365L163.97320833333333,-24.11990925172963L164.34847395833333,74.53708410759768L164.7058697916667,63.84144969781242L165.08113541666665,13.819325695435221L165.43853124999998,56.738647301991804L165.813796875,54.98957818249864L166.17119270833334,98.38083011905353L166.54645833333333,20.62797296047213L166.9038541666667,14.81604636212193L167.27911979166666,103.13024494051935L167.636515625,29.039710740248378L168.01178125,85.02571096519631L168.36917708333334,54.08744139472645L168.7444427083333,49.33447326719764L169.10183854166667,11.067088673512156L169.459234375,-73.91381576160586L169.83450000000002,76.81761059165004L170.19189583333335,42.70799704392752L170.56716145833332,-17.139054854710864L170.92455729166667,11.670491327842107L171.29982291666667,70.86278247833255L171.65721875,-13.037697121500956L172.03248437500002,53.697676688432715L172.38988020833332,-5.430728216965985L172.76514583333332,168.1219711701075L173.12254166666668,79.81345055500667L173.49780729166667,-4.012409617503476L174.23046875,-6.814099868138623L174.58786458333333,39.74944847822192L174.96313020833335,70.93589999278387L175.32052604166668,-40.43914503852525L175.69579166666665,200.50764516492683L176.0531875,75.42013561228913L176.428453125,55.48319466908775L176.78584895833333,33.81835791468623L177.16111458333336,-27.179232507944082L177.51851041666666,-152.31275187929467L177.89377604166665,98.80338048438233L178.251171875,42.924821977814055L178.60856770833334,18.94476821521921L178.9838333333333,-8.072812750935528L179.34122916666666,49.58521945277851L179.71649479166666,40.55857656399411L180.073890625,5.984322458505663L180.44915625000002,28.043466289838186L180.80655208333332,36.193504909674346L181.18181770833334,1.5657680531343L181.53921354166667,31.707437689105692L181.91447916666667,95.59012947479886L182.27187500000002,46.74184196194015L182.647140625,-4.040579641858719L183.00453645833332,27.775063470006003L183.37980208333335,28.10687631865345L183.73719791666667,-4.840586354335141L184.11246354166664,29.8633451064428L184.469859375,6.5497377067804665L184.845125,2.0884337325891167L185.20252083333332,110.48749335606895L185.57778645833335,2.724182461698874L185.93518229166665,27.13887515664103L186.31044791666667,-27.338142216205572L186.66784375,12.543432394663508L187.043109375,-13.879354442159304L187.40050520833336,45.81289053459964L187.75790104166668,44.334751844406156L188.13316666666665,14.192056511839255L188.4905625,20.218426962693556L188.865828125,22.112448990345026L189.22322395833334,-22.773206253846464L189.59848958333333,-15.53775930901365L189.95588541666666,43.79801946878436L190.33115104166666,47.21699590981009L190.68854687500001,27.861258616050108L191.06381249999998,19.831079969803515L191.4212083333333,-60.53492242594557L191.79647395833334,23.259983688592943L192.15386979166666,40.125183120369925L192.5291354166667,22.19311270117763L192.88653125000002,4.951226194699629L193.261796875,-25.945319503545747L193.61919270833334,40.93511711061003L193.99445833333334,76.42110559344293L194.35185416666667,60.52083023389183L194.72711979166667,-26.826392879088697L195.084515625,40.067560950915045L195.45978125,31.34774787227315L195.81717708333335,38.82427014907204L196.19244270833332,44.88005611300471L196.54983854166665,70.6692555099726L196.907234375,71.56908448040487L197.2825,3.369675308465984L197.63989583333333,-14.394876877466794L198.01516145833335,62.578634028633445L198.37255729166665,126.01465326299272L198.74782291666668,40.111665904521956L199.10521875,39.85267751415573L199.480484375,40.586856484413175L199.83788020833336,39.48599098126096L200.21314583333333,5.310073475042994L200.57054166666666,52.597690353790945L200.94580729166668,-18.895413746436414L201.303203125,79.54061526060106L201.67846874999998,-18.02012823025381L202.03586458333334,30.79900019367539L202.41113020833333,41.3207057664792L202.76852604166666,98.10140106081963L203.1437916666667,87.85527818401657L203.5011875,34.2166212499142L203.876453125,34.131122112274184L204.23384895833334,10.473466768860844L204.60911458333334,15.04514302313331L204.9665104166667,23.910861442486475L205.34177604166666,30.963880921403597L205.699171875,-13.78876345356302L206.05656770833335,87.67955437799297L206.43183333333334,76.91065592567128L206.78922916666664,25.680114805698416L207.16449479166667,25.050044039885226L207.521890625,13.268306831518832L207.89715625,54.85341695944471L208.25455208333335,-7.786680032809567L208.62981770833332,33.34719685713453L208.98721354166665,61.6246262987455L209.36247916666667,37.50518769522511L209.719875,15.01931744813921L210.09514062500003,38.053239365418776L210.45253645833333,-13.707403734326324L210.82780208333332,65.36006677150728L211.18519791666668,-61.94368006785707L211.56046354166668,-4.902714262406014L211.91785937499998,136.22984039783478L212.293125,24.26714448134106L212.65052083333333,-33.48712004224455L213.02578645833333,13.47696282466255L213.38318229166669,12.08758352200193L213.75844791666665,10.436651587486287L214.11584374999998,-43.42992978294686L214.491109375,96.38182071844739L214.84850520833334,50.436327834924086L215.20590104166666,-38.779055098692545L215.58116666666666,41.71490294734638L215.9385625,11.726904640595146L216.31382812500001,59.55528341730437L216.67122395833334,-109.05634241302803L217.0464895833333,31.675384670496012L217.40388541666667,29.10696713129681L217.77915104166667,34.52792016665143L218.136546875,-3.940830647945378L218.51181250000002,74.55301903684936L218.86920833333335,22.87153773506484L219.24447395833332,46.98310045401258L219.60186979166667,59.554184456666334L219.97713541666667,-17.995474879940343L220.33453125,16.848574062188497L220.709796875,-46.80436168611048L221.06719270833332,23.042206322153433L221.44245833333335,67.96658161282541L221.79985416666668,77.27536432941757L222.17511979166665,36.90072271227839L222.532515625,-30.35640097657835L223.26517708333333,-78.97863228619093L223.64044270833335,6.669121464093557L223.99783854166668,80.07262210547924L224.35523437499998,87.96374559899174L224.7305,1.7997367729743563L225.08789583333333,-18.182554612557077L225.46316145833333,35.475297500689855L225.8205572916667,58.30034363269809L226.19582291666666,-39.18288650115326L226.55321874999998,24.877287427584353L226.928484375,112.13095235824585L227.28588020833334,-46.56354277829325L227.66114583333334,26.65661459664506L228.01854166666666,26.5807496805986L228.39380729166666,24.116586873928735L228.75120312500002,-28.395269085963534L229.12646875000002,28.182228386402144L229.48386458333331,49.656651894251524L229.85913020833334,36.03686638673149L230.21652604166667,11.38003603120648L230.59179166666667,26.86343898872536L230.94918750000002,51.48722726106645L231.324453125,-14.270840853452643L231.68184895833332,48.65974806745849L232.05711458333334,-5.172582363088917L232.41451041666667,60.405952215194716L232.78977604166667,-51.08843994140621L233.147171875,-20.7641963114341L233.50456770833333,48.81543415784837L233.87983333333335,-2.731094777584037L234.23722916666668,43.66020980477336L234.61249479166665,-15.951884309450769L234.969890625,14.0528181989988L235.34515625,-31.929673026005382L235.70255208333333,-18.223289420207333L236.07781770833336,58.86916565895083L236.43521354166666,34.75174181660019L236.81047916666665,76.50385732948781L237.167875,12.70388064781827L237.543140625,21.46985007325811L237.90053645833333,8.00608034431937L238.27580208333333,-6.160987560947728L238.63319791666666,53.46205952763559L239.00846354166669,11.227610190709449L239.365859375,2.298078790307078L239.74112499999998,103.16563147306445L240.09852083333334,-9.444205731153449L240.47378645833334,28.64302258193495L240.83118229166666,44.169358268380186L241.2064479166667,46.11964708069963L241.56384375,-63.019782324631976L241.939109375,41.330999364455565L242.29650520833334,31.481015165646888L242.65390104166667,-47.13320734103519L243.02916666666667,74.5503082672755L243.3865625,3.9994530181090253L243.761828125,48.265660782655104L244.11922395833332,41.34447994828227L244.49448958333335,11.642394567529376L244.85188541666668,0.41471668084464886L245.22715104166667,12.318072199821499L245.584546875,-25.15014821787672" style="fill: none;" fill="none"></path></g></g></g></g></g></g><g transform="translate(61, 177)" clip-path="url(#clip_1)"><clipPath id="clip_1"><rect width="268" height="23"></rect></clipPath><g><g><line x1="0" y1="0" x2="0" y2="5" style="visibility: inherit;" fill="rgb(0, 0, 0)" stroke="rgb(204, 204, 204)" stroke-width="1px"></line><line x1="22.337239583333332" y1="0" x2="22.337239583333332" y2="5" style="visibility: inherit;" fill="rgb(0, 0, 0)" stroke="rgb(204, 204, 204)" stroke-width="1px"></line><line x1="44.674479166666664" y1="0" x2="44.674479166666664" y2="5" style="visibility: inherit;" fill="rgb(0, 0, 0)" stroke="rgb(204, 204, 204)" stroke-width="1px"></line><line x1="67.01171875" y1="0" x2="67.01171875" y2="5" style="visibility: inherit;" fill="rgb(0, 0, 0)" stroke="rgb(204, 204, 204)" stroke-width="1px"></line><line x1="89.34895833333333" y1="0" x2="89.34895833333333" y2="5" style="visibility: inherit;" fill="rgb(0, 0, 0)" stroke="rgb(204, 204, 204)" stroke-width="1px"></line><line x1="111.68619791666667" y1="0" x2="111.68619791666667" y2="5" style="visibility: inherit;" fill="rgb(0, 0, 0)" stroke="rgb(204, 204, 204)" stroke-width="1px"></line><line x1="134.0234375" y1="0" x2="134.0234375" y2="5" style="visibility: inherit;" fill="rgb(0, 0, 0)" stroke="rgb(204, 204, 204)" stroke-width="1px"></line><line x1="156.36067708333334" y1="0" x2="156.36067708333334" y2="5" style="visibility: inherit;" fill="rgb(0, 0, 0)" stroke="rgb(204, 204, 204)" stroke-width="1px"></line><line x1="178.69791666666666" y1="0" x2="178.69791666666666" y2="5" style="visibility: inherit;" fill="rgb(0, 0, 0)" stroke="rgb(204, 204, 204)" stroke-width="1px"></line><line x1="201.03515625" y1="0" x2="201.03515625" y2="5" style="visibility: inherit;" fill="rgb(0, 0, 0)" stroke="rgb(204, 204, 204)" stroke-width="1px"></line><line x1="223.37239583333334" y1="0" x2="223.37239583333334" y2="5" style="visibility: inherit;" fill="rgb(0, 0, 0)" stroke="rgb(204, 204, 204)" stroke-width="1px"></line><line x1="245.70963541666666" y1="0" x2="245.70963541666666" y2="5" style="visibility: inherit;" fill="rgb(0, 0, 0)" stroke="rgb(204, 204, 204)" stroke-width="1px"></line><line x1="268.046875" y1="0" x2="268.046875" y2="5" style="visibility: inherit;" fill="rgb(0, 0, 0)" stroke="rgb(204, 204, 204)" stroke-width="1px"></line></g><g transform="translate(0, 8)"><text x="0" y="0" dx="0em" dy="0.95em" style="text-anchor: middle; visibility: hidden; font-family: Roboto, sans-serif; font-size: 12px; font-weight: 200;" fill="rgb(33, 33, 33)" stroke="none" stroke-width="1px">-1M</text><text x="22.337239583333332" y="0" dx="0em" dy="0.95em" style="text-anchor: middle; visibility: inherit; font-family: Roboto, sans-serif; font-size: 12px; font-weight: 200;" fill="rgb(33, 33, 33)" stroke="none" stroke-width="1px">0</text><text x="44.674479166666664" y="0" dx="0em" dy="0.95em" style="text-anchor: middle; visibility: hidden; font-family: Roboto, sans-serif; font-size: 12px; font-weight: 200;" fill="rgb(33, 33, 33)" stroke="none" stroke-width="1px">1M</text><text x="67.01171875" y="0" dx="0em" dy="0.95em" style="text-anchor: middle; visibility: inherit; font-family: Roboto, sans-serif; font-size: 12px; font-weight: 200;" fill="rgb(33, 33, 33)" stroke="none" stroke-width="1px">2M</text><text x="89.34895833333333" y="0" dx="0em" dy="0.95em" style="text-anchor: middle; visibility: hidden; font-family: Roboto, sans-serif; font-size: 12px; font-weight: 200;" fill="rgb(33, 33, 33)" stroke="none" stroke-width="1px">3M</text><text x="111.68619791666667" y="0" dx="0em" dy="0.95em" style="text-anchor: middle; visibility: inherit; font-family: Roboto, sans-serif; font-size: 12px; font-weight: 200;" fill="rgb(33, 33, 33)" stroke="none" stroke-width="1px">4M</text><text x="134.0234375" y="0" dx="0em" dy="0.95em" style="text-anchor: middle; visibility: hidden; font-family: Roboto, sans-serif; font-size: 12px; font-weight: 200;" fill="rgb(33, 33, 33)" stroke="none" stroke-width="1px">5M</text><text x="156.36067708333334" y="0" dx="0em" dy="0.95em" style="text-anchor: middle; visibility: inherit; font-family: Roboto, sans-serif; font-size: 12px; font-weight: 200;" fill="rgb(33, 33, 33)" stroke="none" stroke-width="1px">6M</text><text x="178.69791666666666" y="0" dx="0em" dy="0.95em" style="text-anchor: middle; visibility: hidden; font-family: Roboto, sans-serif; font-size: 12px; font-weight: 200;" fill="rgb(33, 33, 33)" stroke="none" stroke-width="1px">7M</text><text x="201.03515625" y="0" dx="0em" dy="0.95em" style="text-anchor: middle; visibility: inherit; font-family: Roboto, sans-serif; font-size: 12px; font-weight: 200;" fill="rgb(33, 33, 33)" stroke="none" stroke-width="1px">8M</text><text x="223.37239583333334" y="0" dx="0em" dy="0.95em" style="text-anchor: middle; visibility: hidden; font-family: Roboto, sans-serif; font-size: 12px; font-weight: 200;" fill="rgb(33, 33, 33)" stroke="none" stroke-width="1px">9M</text><text x="245.70963541666666" y="0" dx="0em" dy="0.95em" style="text-anchor: middle; visibility: inherit; font-family: Roboto, sans-serif; font-size: 12px; font-weight: 200;" fill="rgb(33, 33, 33)" stroke="none" stroke-width="1px">10M</text><text x="268.046875" y="0" dx="0em" dy="0.95em" style="text-anchor: middle; visibility: hidden; font-family: Roboto, sans-serif; font-size: 12px; font-weight: 200;" fill="rgb(33, 33, 33)" stroke="none" stroke-width="1px">11M</text></g><line x1="0" y1="0" x2="268.046875" y2="0" fill="rgb(0, 0, 0)" stroke="rgb(204, 204, 204)" stroke-width="1px"></line></g></g></g></g></svg>