<svg viewBox="0 0 330 200" xmlns="http://www.w3.org/2000/svg"><g><g><g><g><g><line x1="51.5625" y1="177" x2="46.5625" y2="177" style="visibility: inherit;" fill="rgb(0, 0, 0)" stroke="rgb(204, 204, 204)" stroke-width="1px"></line><line x1="51.5625" y1="159.3" x2="46.5625" y2="159.3" style="visibility: inherit;" fill="rgb(0, 0, 0)" stroke="rgb(204, 204, 204)" stroke-width="1px"></line><line x1="51.5625" y1="141.6" x2="46.5625" y2="141.6" style="visibility: inherit;" fill="rgb(0, 0, 0)" stroke="rgb(204, 204, 204)" stroke-width="1px"></line><line x1="51.5625" y1="123.90000000000003" x2="46.5625" y2="123.90000000000003" style="visibility: inherit;" fill="rgb(0, 0, 0)" stroke="rgb(204, 204, 204)" stroke-width="1px"></line><line x1="51.5625" y1="106.20000000000002" x2="46.5625" y2="106.20000000000002" style="visibility: inherit;" fill="rgb(0, 0, 0)" stroke="rgb(204, 204, 204)" stroke-width="1px"></line><line x1="51.5625" y1="88.5" x2="46.5625" y2="88.5" style="visibility: inherit;" fill="rgb(0, 0, 0)" stroke="rgb(204, 204, 204)" stroke-width="1px"></line><line x1="51.5625" y1="70.8" x2="46.5625" y2="70.8" style="visibility: inherit;" fill="rgb(0, 0, 0)" stroke="rgb(204, 204, 204)" stroke-width="1px"></line><line x1="51.5625" y1="53.09999999999999" x2="46.5625" y2="53.09999999999999" style="visibility: inherit;" fill="rgb(0, 0, 0)" stroke="rgb(204, 204, 204)" stroke-width="1px"></line><line x1="51.5625" y1="35.39999999999999" x2="46.5625" y2="35.39999999999999" style="visibility: inherit;" fill="rgb(0, 0, 0)" stroke="rgb(204, 204, 204)" stroke-width="1px"></line><line x1="51.5625" y1="17.699999999999996" x2="46.5625" y2="17.699999999999996" style="visibility: inherit;" fill="rgb(0, 0, 0)" stroke="rgb(204, 204, 204)" stroke-width="1px"></line><line x1="51.5625" y1="0" x2="46.5625" y2="0" style="visibility: inherit;" fill="rgb(0, 0, 0)" stroke="rgb(204, 204, 204)" stroke-width="1px"></line></g><g transform="translate(41.5625, 0)"><text x="0" y="177" dx="0em" dy="0.3em" style="text-anchor: end; visibility: hidden; font-family: Roboto, sans-serif; font-size: 12px; font-weight: 200;" fill="rgb(33, 33, 33)" stroke="none" stroke-width="1px">-1.4</text><text x="0" y="159.3" dx="0em" dy="0.3em" style="text-anchor: end; visibility: inherit; font-family: Roboto, sans-serif; font-size: 12px; font-weight: 200;" fill="rgb(33, 33, 33)" stroke="none" stroke-width="1px">-1.3</text><text x="0" y="141.6" dx="0em" dy="0.3em" style="text-anchor: end; visibility: hidden; font-family: Roboto, sans-serif; font-size: 12px; font-weight: 200;" fill="rgb(33, 33, 33)" stroke="none" stroke-width="1px">-1.2</text><text x="0" y="123.90000000000003" dx="0em" dy="0.3em" style="text-anchor: end; visibility: inherit; font-family: Roboto, sans-serif; font-size: 12px; font-weight: 200;" fill="rgb(33, 33, 33)" stroke="none" stroke-width="1px">-1.1</text><text x="0" y="106.20000000000002" dx="0em" dy="0.3em" style="text-anchor: end; visibility: hidden; font-family: Roboto, sans-serif; font-size: 12px; font-weight: 200;" fill="rgb(33, 33, 33)" stroke="none" stroke-width="1px">-1</text><text x="0" y="88.5" dx="0em" dy="0.3em" style="text-anchor: end; visibility: inherit; font-family: Roboto, sans-serif; font-size: 12px; font-weight: 200;" fill="rgb(33, 33, 33)" stroke="none" stroke-width="1px">-0.9</text><text x="0" y="70.8" dx="0em" dy="0.3em" style="text-anchor: end; visibility: hidden; font-family: Roboto, sans-serif; font-size: 12px; font-weight: 200;" fill="rgb(33, 33, 33)" stroke="none" stroke-width="1px">-0.8</text><text x="0" y="53.09999999999999" dx="0em" dy="0.3em" style="text-anchor: end; visibility: inherit; font-family: Roboto, sans-serif; font-size: 12px; font-weight: 200;" fill="rgb(33, 33, 33)" stroke="none" stroke-width="1px">-0.7</text><text x="0" y="35.39999999999999" dx="0em" dy="0.3em" style="text-anchor: end; visibility: hidden; font-family: Roboto, sans-serif; font-size: 12px; font-weight: 200;" fill="rgb(33, 33, 33)" stroke="none" stroke-width="1px">-0.6</text><text x="0" y="17.699999999999996" dx="0em" dy="0.3em" style="text-anchor: end; visibility: inherit; font-family: Roboto, sans-serif; font-size: 12px; font-weight: 200;" fill="rgb(33, 33, 33)" stroke="none" stroke-width="1px">-0.5</text><text x="0" y="0" dx="0em" dy="0.3em" style="text-anchor: end; visibility: hidden; font-family: Roboto, sans-serif; font-size: 12px; font-weight: 200;" fill="rgb(33, 33, 33)" stroke="none" stroke-width="1px">-0.4</text></g><line x1="51.5625" y1="0" x2="51.5625" y2="177" fill="rgb(0, 0, 0)" stroke="rgb(204, 204, 204)" stroke-width="1px"></line></g></g><g transform="translate(51, 0)" clip-path="url(#clip_0)"><clipPath id="clip_0"><rect width="278" height="177"></rect></clipPath><g><g><g><line x1="0" y1="0" x2="0" y2="177" fill="rgb(0, 0, 0)" stroke="rgb(66, 66, 66)" stroke-width="1px" opacity="0.25"></line><line x1="23.203125" y1="0" x2="23.203125" y2="177" fill="rgb(0, 0, 0)" stroke="rgb(66, 66, 66)" stroke-width="1px" opacity="0.25"></line><line x1="46.40625" y1="0" x2="46.40625" y2="177" fill="rgb(0, 0, 0)" stroke="rgb(66, 66, 66)" stroke-width="1px" opacity="0.25"></line><line x1="69.609375" y1="0" x2="69.609375" y2="177" fill="rgb(0, 0, 0)" stroke="rgb(66, 66, 66)" stroke-width="1px" opacity="0.25"></line><line x1="92.8125" y1="0" x2="92.8125" y2="177" fill="rgb(0, 0, 0)" stroke="rgb(66, 66, 66)" stroke-width="1px" opacity="0.25"></line><line x1="116.015625" y1="0" x2="116.015625" y2="177" fill="rgb(0, 0, 0)" stroke="rgb(66, 66, 66)" stroke-width="1px" opacity="0.25"></line><line x1="139.21875" y1="0" x2="139.21875" y2="177" fill="rgb(0, 0, 0)" stroke="rgb(66, 66, 66)" stroke-width="1px" opacity="0.25"></line><line x1="162.421875" y1="0" x2="162.421875" y2="177" fill="rgb(0, 0, 0)" stroke="rgb(66, 66, 66)" stroke-width="1px" opacity="0.25"></line><line x1="185.625" y1="0" x2="185.625" y2="177" fill="rgb(0, 0, 0)" stroke="rgb(66, 66, 66)" stroke-width="1px" opacity="0.25"></line><line x1="208.828125" y1="0" x2="208.828125" y2="177" fill="rgb(0, 0, 0)" stroke="rgb(66, 66, 66)" stroke-width="1px" opacity="0.25"></line><line x1="232.03125" y1="0" x2="232.03125" y2="177" fill="rgb(0, 0, 0)" stroke="rgb(66, 66, 66)" stroke-width="1px" opacity="0.25"></line><line x1="255.234375" y1="0" x2="255.234375" y2="177" fill="rgb(0, 0, 0)" stroke="rgb(66, 66, 66)" stroke-width="1px" opacity="0.25"></line><line x1="278.4375" y1="0" x2="278.4375" y2="177" fill="rgb(0, 0, 0)" stroke="rgb(66, 66, 66)" stroke-width="1px" opacity="0.25"></line></g><g><line x1="0" y1="177" x2="278.4375" y2="177" fill="rgb(0, 0, 0)" stroke="rgb(66, 66, 66)" stroke-width="1px" opacity="0.25"></line><line x1="0" y1="159.3" x2="278.4375" y2="159.3" fill="rgb(0, 0, 0)" stroke="rgb(66, 66, 66)" stroke-width="1px" opacity="0.25"></line><line x1="0" y1="141.6" x2="278.4375" y2="141.6" fill="rgb(0, 0, 0)" stroke="rgb(66, 66, 66)" stroke-width="1px" opacity="0.25"></line><line x1="0" y1="123.90000000000003" x2="278.4375" y2="123.90000000000003" fill="rgb(0, 0, 0)" stroke="rgb(66, 66, 66)" stroke-width="1px" opacity="0.25"></line><line x1="0" y1="106.20000000000002" x2="278.4375" y2="106.20000000000002" fill="rgb(0, 0, 0)" stroke="rgb(66, 66, 66)" stroke-width="1px" opacity="0.25"></line><line x1="0" y1="88.5" x2="278.4375" y2="88.5" fill="rgb(0, 0, 0)" stroke="rgb(66, 66, 66)" stroke-width="1px" opacity="0.25"></line><line x1="0" y1="70.8" x2="278.4375" y2="70.8" fill="rgb(0, 0, 0)" stroke="rgb(66, 66, 66)" stroke-width="1px" opacity="0.25"></line><line x1="0" y1="53.09999999999999" x2="278.4375" y2="53.09999999999999" fill="rgb(0, 0, 0)" stroke="rgb(66, 66, 66)" stroke-width="1px" opacity="0.25"></line><line x1="0" y1="35.39999999999999" x2="278.4375" y2="35.39999999999999" fill="rgb(0, 0, 0)" stroke="rgb(66, 66, 66)" stroke-width="1px" opacity="0.25"></line><line x1="0" y1="17.699999999999996" x2="278.4375" y2="17.699999999999996" fill="rgb(0, 0, 0)" stroke="rgb(66, 66, 66)" stroke-width="1px" opacity="0.25"></line><line x1="0" y1="0" x2="278.4375" y2="0" fill="rgb(0, 0, 0)" stroke="rgb(66, 66, 66)" stroke-width="1px" opacity="0.25"></line></g></g></g><g><g><line x1="0" y1="-70.80000000000003" x2="278.4375" y2="-70.80000000000003" fill="rgb(0, 0, 0)" stroke="rgb(153, 153, 153)" stroke-width="1.5px"></line></g></g><g><g><line x1="23.203125" y1="0" x2="23.203125" y2="177" fill="rgb(0, 0, 0)" stroke="rgb(153, 153, 153)" stroke-width="1.5px"></line></g></g><g><g><g><g><g><path stroke="rgb(255, 112, 67)" stroke-width="2px" d="M25.486312499999997,177.03559182094196L25.876125000000002,175.10411679796965L26.247374999999998,177.87315540550136L26.6371875,176.69018226821092L27.0084375,175.86627456075414L27.39825,177.86024448813126L27.769499999999997,177.02317293227102L28.159312500000002,174.375554972731L28.5305625,175.36618346770308L28.920375,176.90106151606815L29.291625,176.83218688395223L29.6814375,175.4743634203328L30.0526875,175.44577164065308L30.442500000000003,173.08024296617677L30.81375,172.43366236758496L31.2035625,172.60577879864712L31.5748125,172.40720191485988L31.964624999999998,172.1927689050128L32.335875,172.4393635879749L32.7256875,171.7617822916179L33.096937499999996,172.19831799292714L33.4681875,169.31006662650884L33.858,168.46994551925692L34.22925,168.8726015007479L34.6190625,168.78600483386492L34.9903125,165.93717652947225L35.380125,164.75993854684558L35.751374999999996,164.1650968963944L36.1411875,161.61701134623362L36.5124375,160.6131798129445L36.90225,156.80696575179758L37.2735,156.7590908830485L37.6633125,154.97356783115202L38.0345625,154.5391799414216L38.424375000000005,152.90157519861054L38.795625,150.04857783019597L39.1854375,149.4300571039326L39.5566875,149.32767483201692L39.9465,147.91221342900948L40.317750000000004,148.04621552957232L40.7075625,148.36552837095547L41.0788125,146.28997540109668L41.468625,144.22249305501896L41.839875,142.46916285187814L42.229687500000004,138.14826991453742L42.6009375,137.03435773309508L42.9721875,134.02918896350246L43.362,130.50634969515772L43.73325,126.4253202083257L44.1230625,122.96438991323178L44.4943125,120.60875411090207L44.884125000000004,118.05429067645582L45.255375,116.04329993268297L45.6451875,113.45826491558796L46.0164375,111.61612237479824L46.40625,109.29548696152283L46.7775,106.94257261915152L47.1673125,105.74369392015421L47.5385625,103.32707070122888L47.928375,102.35633785492617L48.299625,100.85994551042582L48.689437500000004,98.92157408153932L49.0606875,96.3699530920739L49.450500000000005,94.34114605434866L49.82175,91.72350675492365L50.21156250000001,89.26028158324291L50.5828125,87.26831142221286L50.972624999999994,86.40545924254893L51.343875000000004,85.22050123541734L51.733687499999995,84.10439714151131L52.104937500000005,81.8613128254265L52.4761875,80.08213906702105L52.866,77.55573555241051L53.23725,75.02115376716866L53.6270625,74.12333286241302L53.998312500000004,72.81137011787659L54.388125,71.67290627444605L54.759375,69.68376476934445L55.149187500000004,68.20417170626457L55.5204375,67.74430366577229L55.910250000000005,65.99117296350909L56.2815,64.02086869605131L56.671312500000006,63.079602220819886L57.0425625,61.86609615514666L57.43237499999999,61.13564197081321L57.803625000000004,61.0345945874333L58.193437499999995,61.006886446444966L58.564687500000005,60.8401811671071L58.954499999999996,60.72305852364377L59.32575,59.69319290513321L59.7155625,58.28547777768687L60.0868125,58.18689562581012L60.476625,56.357520142209694L60.847875,56.36055756033192L61.2376875,55.473595507268485L61.6089375,54.44896012265942L61.9801875,53.6113160045115L62.370000000000005,52.84093621201324L62.74125,51.52153169886475L63.131062500000006,50.981869939423824L63.5023125,51.556487447891975L63.89212500000001,50.0583885281529L64.263375,49.44114724691188L64.6531875,48.58699112353013L65.0244375,47.88721767674259L65.41425,47.79025602585298L65.7855,47.48974080709352L66.1753125,46.18283701317151L66.5465625,45.65520375476264L66.936375,44.462271441852934L67.307625,44.89176759590857L67.6974375,44.7153867380032L68.0686875,44.032590173256935L68.4585,43.33822621737274L68.82975,42.516558734383295L69.2195625,42.05068446147805L69.5908125,41.809152637412325L69.980625,42.194140054279664L70.35187499999999,41.92809142201788L70.7416875,40.83578964668301L71.1129375,40.50445040105455L71.48418749999999,40.732834129564L71.874,40.25085658850195L72.24525,39.958454417120926L72.6350625,39.19772320683688L73.00631249999999,38.911713758086506L73.396125,38.32966580806692L73.767375,37.54483084451269L74.15718749999999,36.843032082147076L74.5284375,36.28602633966606L74.91825,36.94090434845449L75.28949999999999,37.008316551066414L75.6793125,37.192944695006L76.0505625,36.89389964190135L76.440375,36.74285216955548L76.81162499999999,35.95307371990804L77.2014375,35.78794249759272L77.5726875,36.27888008157106L77.9625,35.699921900032116L78.33375,35.58603164076694L78.7235625,35.70288413357668L79.0948125,35.82426451678236L79.484625,34.8074316014955L79.855875,34.71167497099099L80.2456875,35.23329060709868L80.61693749999999,35.60290938756701L80.9881875,35.0663830455651L81.378,34.57404640296161L81.74925,34.680313299769516L82.1390625,35.28758103768488L82.5103125,34.38157975626267L82.900125,34.27842975111173L83.27137499999999,33.66838169843772L83.6611875,33.30453461140881L84.0324375,32.7720551403194L84.42225,33.169791721810654L84.7935,33.51031312436448L85.1833125,33.89422532254806L85.5545625,32.85865860661478L85.944375,32.61182326245671L86.315625,32.44768602233151L86.7054375,32.103134962207186L87.07668749999999,31.44047878997689L87.4665,30.648326919181134L87.83775,30.80648444515644L88.2275625,30.806779022348994L88.5988125,30.83333926399532L88.988625,30.60543907761564L89.359875,30.34440704512589L89.74968750000001,30.503098446893645L90.1209375,30.136538819532362L90.4921875,30.302159931695922L90.882,29.857227417490762L91.25325,29.311380184091252L91.6430625,29.470966365574075L92.0143125,29.645273539208326L92.404125,28.8345210437673L92.775375,28.657573435586563L93.1651875,28.491033424068608L93.53643749999999,28.103469393926343L93.92625,27.68329672233908L94.2975,27.822324639658024L94.6873125,28.18480635529749L95.0585625,28.793595705306487L95.448375,28.674779440090617L95.819625,28.21574260778759L96.2094375,28.598211448118303L96.5806875,28.204127364590885L96.9705,28.86623917891689L97.34175,28.835420129740882L97.7315625,28.196583179262056L98.1028125,28.3805514786403L98.492625,28.667012327537567L98.863875,27.49288325406648L99.2536875,28.13740759907686L99.6249375,28.42765702377869L99.9961875,29.133932914561708L100.386,29.483109792606037L100.75725,29.4859831860876L101.1470625,29.304360497666348L101.5183125,28.960640452309203L101.908125,29.587024611236906L102.279375,29.057667428256426L102.6691875,28.785198773146483L103.0404375,28.053619988680357L103.43025,27.618926486921584L103.8015,27.35547710034385L104.1913125,27.148898466665347L104.5625625,26.91344599261213L104.952375,26.76464601239162L105.32362499999999,27.167389516118746L105.7134375,28.12043205027794L106.0846875,28.156865047961556L106.4745,28.244434604376597L106.84575,28.70529173453453L107.2355625,28.794859620569976L107.6068125,28.8048557404511L107.99662500000001,29.29374902509647L108.367875,29.187783538478598L108.7576875,28.93627459238649L109.1289375,28.218259115401985L109.5001875,27.230615441432047L109.89,25.987519092816388L110.26125,26.313201710854933L110.6510625,26.676664694115498L111.0223125,26.414020175912967L111.412125,26.008431984888908L111.783375,26.546392608825794L112.1731875,27.030128560748373L112.5444375,26.978524094990885L112.93425,27.652353533608913L113.3055,26.888164506258498L113.6953125,27.634138675869654L114.0665625,27.642500436509334L114.45637500000001,26.755551102283402L114.827625,26.706610495163687L115.2174375,27.839727748819403L115.5886875,28.16529881798518L115.9785,28.37507810976084L116.34975,27.52886664620622L116.7395625,26.75659163326969L117.1108125,26.698187114780858L117.500625,26.002999979249065L117.871875,26.554270008797296L118.26168750000001,25.79479696011236L118.6329375,26.46869977984244L119.0041875,26.461008247574643L119.394,26.65530766537217L119.76525,25.638561739268464L120.1550625,24.900318754757983L120.5263125,25.27748948397968L120.91612500000001,25.56085066117486L121.287375,24.891414767012837L121.6771875,25.02407387107958L122.0484375,24.367252469124494L122.43825,24.326914529837417L122.8095,24.156408279441145L123.1993125,24.34283331471821L123.5705625,23.829586864937188L123.960375,24.24591911401083L124.331625,23.455937822852913L124.72143750000001,23.756957893487428L125.0926875,23.542235286782144L125.4825,23.73095738872884L125.85375,23.611579542070608L126.24356250000001,23.682036312049622L126.6148125,23.819294333235014L127.004625,23.789806251392108L127.37587500000001,23.37977073947509L127.7656875,23.445688266515262L128.1369375,23.804229251718237L128.5081875,24.583244085416617L128.898,24.739672093454253L129.26925,24.435193822898416L129.6590625,23.988916667770123L130.0303125,24.281651950163127L130.42012499999998,24.85098618524222L130.791375,25.70486626062959L131.1811875,26.16376899381977L131.5524375,26.68146996200384L131.94225,26.29233289539993L132.3135,26.256241569400903L132.7033125,26.327912269521395L133.07456249999998,26.11095370440999L133.464375,26.389165701802494L133.835625,26.371340912780706L134.2254375,26.347682172180146L134.5966875,26.139788521600316L134.9865,26.156211627288197L135.35774999999998,26.09998015210839L135.7475625,25.913666847025212L136.1188125,26.094890958472995L136.508625,26.37878955269152L136.879875,26.769079790498584L137.2696875,26.090529319039437L137.6409375,25.34256158136812L138.01218749999998,25.322677318236153L138.402,24.951421446788842L138.77325,24.34108965110096L139.1630625,24.323058183856677L139.5343125,24.363444890897192L139.924125,24.385225089979595L140.295375,24.19130177533174L140.68518749999998,23.808926868650584L141.05643750000002,24.471991596349046L141.44625,24.68726441009519L141.8175,24.187169918678258L142.2073125,24.226705776013162L142.5785625,24.43792228362396L142.96837499999998,24.450977809795347L143.339625,23.919185933809647L143.7294375,24.07311472019026L144.1006875,23.96988724184316L144.4905,23.35967876501251L144.86175,23.647000949307504L145.25156249999998,23.54058249516739L145.6228125,23.907505706092426L146.01262499999999,24.07440734096807L146.38387500000002,24.449156957795868L146.7736875,24.17388081904094L147.1449375,24.6302506992569L147.5161875,25.417124423345935L147.906,25.1537306552893L148.27724999999998,25.251080890045525L148.66706250000001,25.37501932832357L149.0383125,25.00456391842816L149.428125,24.83288857860358L149.799375,25.37578526927823L150.1891875,24.760435990058145L150.56043749999998,24.01058162424729L150.95025,23.984024512611434L151.3215,23.812211558724993L151.71131250000002,23.322828396264054L152.0825625,23.91149262911281L152.472375,23.51860626415133L152.843625,24.118807558272596L153.2334375,24.39689558270831L153.60468749999998,24.431725420494434L153.99450000000002,23.527783063614095L154.36575,23.35545334551556L154.7555625,22.526901853882197L155.1268125,22.154067099572973L155.516625,22.15626754074201L155.88787499999998,21.68406483238283L156.2776875,21.86987737122381L156.6489375,21.7212182289553L157.0201875,21.6564017347212L157.41,21.37955819915028L157.78125,21.82106161207134L158.1710625,20.967505174220655L158.5423125,21.26011011918845L158.93212499999998,20.585130302431956L159.30337500000002,20.67864361782239L159.6931875,20.58637187587838L160.0644375,20.299001184151304L160.45425,20.697292766002263L160.8255,20.846744447366866L161.21531249999998,21.27627808893708L161.5865625,21.12753124144665L161.976375,21.116087436121646L162.347625,21.138149313594067L162.7374375,21.8636057737262L163.1086875,22.432502010034966L163.4985,21.937273637394565L163.86975,21.040637936556607L164.2595625,20.87673498056189L164.63081250000002,20.938719783197975L165.020625,21.07048106311031L165.391875,20.90474355768125L165.7816875,20.56190782398557L166.1529375,20.58153375631914L166.52418749999998,20.987660702743213L166.91400000000002,20.536955514358336L167.28525,20.15933995652608L167.6750625,20.07168909316308L168.0463125,18.44618100646165L168.436125,17.69496706439869L168.80737499999998,18.218746352874142L169.1971875,19.032384453226864L169.5684375,18.592291966682527L169.95825000000002,18.14989046073309L170.3295,18.745588783123196L170.7193125,19.03714609843379L171.0905625,18.853949436556615L171.480375,19.10590141833503L171.85162499999998,19.5544186509888L172.24143750000002,19.23699418051485L172.6126875,19.2549488553014L173.0025,19.684751658952628L173.37375,19.998004077265513L173.7635625,20.65639367484442L174.13481249999998,20.607402322193327L174.52462500000001,20.781926778257088L174.895875,21.177526661932575L175.2856875,20.791747425305914L175.6569375,20.075746907179397L176.0281875,20.828605736127404L176.418,20.337267215747175L176.78925,20.242522063075615L177.1790625,19.59413523091025L177.55031250000002,19.917385765392474L177.940125,19.985782382773696L178.311375,19.840954283408724L178.7011875,19.41141802521492L179.0724375,20.36772107632128L179.46224999999998,19.309376504130153L179.83350000000002,18.679062410656808L180.2233125,18.788854677953847L180.5945625,19.305165342973766L180.984375,19.29912205963557L181.355625,19.5241150690867L181.7454375,19.84136039696655L182.1166875,21.67403375794005L182.5065,20.283081391391235L182.87775000000002,19.982885472140953L183.2675625,19.158663749791533L183.6388125,19.465198116360526L184.028625,20.299907401119718L184.399875,21.00363099748793L184.78968749999999,20.556083351224075L185.16093750000002,20.342326258331187L185.5321875,20.220545496171493L185.922,20.373082932010753L186.29325,20.32629882346122L186.6830625,20.827919649186885L187.05431249999998,21.260729441108193L187.444125,21.50962053362244L187.815375,21.40408775462932L188.20518750000002,21.59359725746051L188.5764375,21.631541140273423L188.96625,21.227938875791565L189.3375,20.14801714017221L189.7273125,20.767607057060182L190.09856249999999,20.80736447093807L190.48837500000002,20.174927362906466L190.859625,20.2833234412119L191.2494375,20.088577343383147L191.6206875,20.15248954377097L192.0105,20.290652733335044L192.38174999999998,20.74984461622784L192.77156250000002,20.730870648368292L193.1428125,20.946362383451522L193.53262500000002,20.40470555739789L193.903875,19.806997609836976L194.2936875,19.61970942062326L194.6649375,19.676090441001566L195.0361875,19.387860637815663L195.426,19.97803961629383L195.79725000000002,20.580836344925842L196.1870625,20.895693383913198L196.5583125,21.330131942213143L196.948125,21.140418852675282L197.319375,20.35246568519372L197.70918749999998,20.256274714460957L198.08043750000002,20.158761228556045L198.47025,20.3156803688017L198.8415,20.592828316724738L199.2313125,20.16742964460637L199.6025625,20.16785967751851L199.992375,19.820735008743462L200.363625,19.68292591525736L200.7534375,20.66020540209782L201.12468750000002,20.636807135416102L201.5145,20.109290158553737L201.88575,19.07719307172525L202.2755625,18.960153852869443L202.6468125,19.188799788337562L203.036625,19.91834999190665L203.40787500000002,20.258083068531143L203.7976875,19.89681308937157L204.1689375,19.311889089775583L204.5401875,19.33338845111878L204.93,18.756018550026116L205.30124999999998,19.12554643084269L205.69106250000002,19.063539304314016L206.0623125,18.42051266788122L206.45212500000002,18.180166721097688L206.823375,17.718521647305522L207.2131875,18.201819837481526L207.5844375,17.95699070000097L207.97425,18.46227659525541L208.3455,17.644681301963736L208.73531250000002,18.189334497006186L209.1065625,17.64435065576521L209.496375,17.948781285220885L209.867625,17.330220342597077L210.2574375,16.97413865859549L210.62868749999998,16.38022676071668L211.01850000000002,14.96555415249552L211.38975,14.740010024647038L211.77956250000003,14.806022280180532L212.1508125,15.046521044805095L212.540625,15.428187361380125L212.911875,16.138314580333635L213.3016875,16.508336534149883L213.6729375,17.129929684428845L214.04418750000002,17.254713184135234L214.434,17.232841691075006L214.80525,17.126760440288926L215.1950625,16.823147216569748L215.5663125,16.91972141690932L215.956125,16.268181169199234L216.32737500000002,16.166677887539432L216.7171875,16.437793554842685L217.0884375,16.57369754909288L217.47825,16.792101162664956L217.8495,16.64441807627253L218.2393125,16.59667479014141L218.61056250000001,16.385173724983588L219.000375,15.70512487584021L219.37162500000002,16.111816804967315L219.7614375,17.109487562991383L220.1326875,16.646112130652178L220.5225,16.385494407755317L220.89375,16.703393688644283L221.2835625,16.674184285906147L221.65481250000002,16.46662953573894L222.044625,16.571631407013125L222.415875,17.049864520591846L222.8056875,17.044366215445017L223.1769375,16.481785239444612L223.54818749999998,17.14334906915811L223.93800000000002,17.06402138817303L224.30925,16.97799526898855L224.69906250000003,16.92122063665864L225.0703125,17.42756175058649L225.460125,16.741839753732485L225.831375,16.61879352041804L226.2211875,15.963427460841674L226.5924375,16.45652573385973L226.98225000000002,15.978405534500709L227.3535,16.209526841208238L227.7433125,16.360376460769704L228.1145625,15.965990335594986L228.504375,16.1005147688695L228.87562499999999,16.192876653260466L229.26543750000002,16.512346067658953L229.6366875,16.939002029080317L230.02650000000003,16.157253229605622L230.39775,15.584315772049107L230.78756249999998,14.786613275523477L231.1588125,14.538815711686292L231.54862500000002,15.522264267652812L231.919875,15.61011436799144L232.30968750000002,16.366451823824498L232.6809375,16.052495427199528L233.0521875,16.197472748320294L233.442,15.99454453299105L233.81325,16.435093233046892L234.2030625,16.563133047257633L234.57431250000002,16.8998757208793L234.964125,16.53313165220072L235.335375,17.270271838381593L235.7251875,17.034389977857302L236.0964375,16.811482210877447L236.48625,16.75479069228345L236.85750000000002,16.279932556601604L237.2473125,16.28601682546869L237.61856250000002,16.264254493493652L238.008375,16.33370037733246L238.379625,16.07885109578805L238.7694375,16.2526567220404L239.1406875,16.2410059046575L239.5305,16.076480373849183L239.90175000000002,15.736224408811143L240.2915625,16.016561605850352L240.6628125,15.818745676469483L241.052625,15.774119384164608L241.423875,15.17055490915478L241.81368750000001,15.310706997540604L242.18493750000002,15.067371983901875L242.5561875,15.180327598796023L242.94600000000003,15.813803704110219L243.31725,15.019338524059918L243.70706249999998,14.860440852473058L244.0783125,14.23128590001455L244.46812500000001,13.99551137574788L244.839375,14.648366267015197L245.22918750000002,14.021590615826632L245.6004375,14.03960864157545L245.99024999999997,13.884353668755693L246.3615,13.991089844266407L246.75131249999998,14.84740445110788L247.1225625,14.289207577071137L247.512375,14.676828817940676L247.883625,14.942634132156925L248.27343750000003,15.156097563892683L248.6446875,15.353103137487231L249.03449999999998,15.219488003536505L249.40575,15.195972541978616L249.7955625,15.139914267069493L250.1668125,15.403123164657584L250.556625,15.60309667139281L250.927875,15.41945957868713L251.31768749999998,15.387674537476414L251.6889375,15.880161425576503L252.0601875,16.527093785468274L252.45,17.03807233897659L252.82125000000002,17.06458592371828L253.2110625,16.615330939034756L253.58231249999997,15.895479793870523L253.972125,15.537315871431883L254.343375,15.715177961656124L254.7331875,15.30218846587459L255.10443750000002,14.755571721721395" style="fill: none;" fill="none"></path></g></g></g></g><g opacity="0.2"><g><g><g><path stroke="rgb(255, 112, 67)" stroke-width="2px" d="M25.1150625,181.1345283508301L25.486312499999997,172.70685417652132L25.876125000000002,172.34207661151888L26.247374999999998,181.9104402780533L26.6371875,174.94552667140962L27.0084375,174.64286763668062L27.39825,180.83311421871187L27.769499999999997,175.7721209049225L28.159312500000002,170.41277296543123L28.5305625,176.8501854658127L28.920375,179.20157439708711L29.291625,176.72892351150514L29.6814375,173.4382028102875L30.0526875,175.4028912305832L30.442500000000003,169.53231031894686L30.81375,171.46385056972505L31.2035625,172.8639440059662L31.5748125,172.109343123436L31.964624999999998,171.87112362384798L32.335875,172.80925269126894L32.7256875,170.74541516304018L33.096937499999996,172.8531196832657L33.4681875,164.97769696712496L33.858,167.20976514816286L34.22925,169.47658510208132L34.6190625,168.65610988140108L34.9903125,161.66393501758577L35.380125,162.99408180713655L35.751374999999996,163.27283449172975L36.1411875,157.7948832035065L36.5124375,159.10743255615236L36.90225,151.0976447582245L37.2735,156.6872785806656L37.6633125,152.29528326988222L38.0345625,153.88759810924532L38.424375000000005,150.44516808986666L38.795625,145.7690817832947L39.1854375,148.5022760152817L39.5566875,149.17410142421724L39.9465,145.7890213251114L40.317750000000004,148.2472186803818L40.7075625,148.84449763298036L41.0788125,143.1766459465027L41.468625,141.1212695360184L41.839875,139.83916754722597L42.229687500000004,131.6669305086136L42.6009375,135.36348946094515L42.9721875,129.52143580913545L43.362,125.22209079265596L43.73325,120.3037759780884L44.1230625,117.77299447059633L44.4943125,117.07530040740969L44.884125000000004,114.22259552478792L45.255375,113.02681381702425L45.6451875,109.580712389946L46.0164375,108.85290856361391L46.40625,105.81453384160997L46.7775,103.41320110559465L47.1673125,103.94537587165834L47.5385625,99.7021358728409L47.928375,100.90023858547212L48.299625,98.61535699367525L48.689437500000004,96.01401693820955L49.0606875,92.54252160787584L49.450500000000005,91.29793549776079L49.82175,87.79704780578614L50.21156250000001,85.56544382572174L50.5828125,84.28035618066788L50.972624999999994,85.11118097305298L51.343875000000004,83.44306422472L51.733687499999995,82.43024100065232L52.104937500000005,78.49668635129929L52.4761875,77.41337842941284L52.866,73.76613028049469L53.23725,71.21928108930588L53.6270625,72.77660150527954L53.998312500000004,70.84342600107193L54.388125,69.96521050930023L54.759375,66.70005251169205L55.149187500000004,65.98478211164475L55.5204375,67.05450160503388L55.910250000000005,63.361476910114284L56.2815,61.06541229486465L56.671312500000006,61.66770250797271L57.0425625,60.045837056636806L57.43237499999999,60.039960694313045L57.803625000000004,60.88302351236343L58.193437499999995,60.96532423496246L58.564687500000005,60.59012324810028L58.954499999999996,60.54737455844879L59.32575,58.1483944773674L59.7155625,56.17390508651733L60.0868125,58.03902239799499L60.476625,53.61345691680908L60.847875,56.365113687515255L61.2376875,54.143152427673336L61.6089375,52.912007045745845L61.9801875,52.35484982728958L62.370000000000005,51.685366523265834L62.74125,49.542424929141994L63.131062500000006,50.17237730026245L63.5023125,52.41841371059417L63.89212500000001,47.81124014854431L64.263375,48.51528532505035L64.6531875,47.305756938457485L65.0244375,46.837557506561275L65.41425,47.64481354951858L65.7855,47.03896797895431L66.1753125,44.22248132228851L66.5465625,44.86375386714935L66.936375,42.6728729724884L67.307625,45.53601182699203L67.6974375,44.45081545114517L68.0686875,43.00839532613754L68.4585,42.29668028354644L68.82975,41.284057509899135L69.2195625,41.351873052120204L69.5908125,41.44685490131378L69.980625,42.771621179580684L70.35187499999999,41.52901847362518L70.7416875,39.19733698368072L71.1129375,40.00744153261184L71.48418749999999,41.07540972232818L71.874,39.52789027690887L72.24525,39.519851160049434L72.6350625,38.05662639141082L73.00631249999999,38.48269958496093L73.396125,37.45659388303756L73.767375,36.36757839918136L74.15718749999999,35.79033393859863L74.5284375,35.450517725944515L74.91825,37.92322136163711L75.28949999999999,37.10943485498428L75.6793125,37.46988691091537L76.0505625,36.44533206224441L76.440375,36.51628096103668L76.81162499999999,34.768406045436855L77.2014375,35.540245664119716L77.5726875,37.0152864575386L77.9625,34.83148462772369L78.33375,35.4151962518692L78.7235625,35.878162872791286L79.0948125,36.00633509159088L79.484625,33.28218222856521L79.855875,34.56804002523422L80.2456875,36.01571406126022L80.61693749999999,36.1573375582695L80.9881875,34.26159353256225L81.378,33.83554143905639L81.74925,34.83971364498138L82.1390625,36.19848264455795L82.5103125,33.02257783412933L82.900125,34.12370474338531L83.27137499999999,32.75330961942672L83.6611875,32.758763980865474L84.0324375,31.9733359336853L84.42225,33.76639659404754L84.7935,34.021095228195186L85.1833125,34.47009361982345L85.5545625,31.30530853271484L85.944375,32.24157024621963L86.315625,32.2014801621437L86.7054375,31.586308372020717L87.07668749999999,30.446494531631465L87.4665,29.460099112987514L87.83775,31.04372073411941L88.2275625,30.807220888137813L88.5988125,30.87317962646484L88.988625,30.263588798046108L89.359875,29.952858996391292L89.74968750000001,30.741135549545284L90.1209375,29.586699378490444L90.4921875,30.55059159994125L90.882,29.18982864618301L91.25325,28.492609333992L91.6430625,29.710345637798305L92.0143125,29.906734299659725L92.404125,27.61839230060577L92.775375,28.392152023315425L93.1651875,28.241223406791683L93.53643749999999,27.522123348712917L93.92625,27.053037714958187L94.2975,28.03086651563644L94.6873125,28.72852892875671L95.0585625,29.706779730319973L95.448375,28.49655504226684L95.819625,27.527187359333034L96.2094375,29.171914708614345L96.5806875,27.61300123929977L96.9705,29.85940690040588L97.34175,28.789191555976863L97.7315625,27.23832775354385L98.1028125,28.656503927707668L98.492625,29.09670360088348L98.863875,25.73168964385986L99.2536875,29.104194116592403L99.6249375,28.863031160831447L99.9961875,30.193346750736232L100.386,30.006875109672542L100.75725,29.490293276309963L101.1470625,29.03192646503448L101.5183125,28.445060384273525L101.908125,30.526600849628444L102.279375,28.2636316537857L102.6691875,28.376495790481563L103.0404375,26.956251811981197L103.43025,26.966886234283443L103.8015,26.96030302047729L104.1913125,26.83903051614761L104.5625625,26.560267281532283L104.952375,26.541446042060848L105.32362499999999,27.771504771709438L105.7134375,29.54999585151672L106.0846875,28.211514544486995L106.4745,28.37578893899917L106.84575,29.39657742977142L107.2355625,28.929211449623104L107.6068125,28.819849920272823L107.99662500000001,30.02708895206451L108.367875,29.028835308551784L108.7576875,28.559011173248287L109.1289375,27.141235899925228L109.5001875,25.749149930477138L109.89,24.12287456989288L110.26125,26.801725637912746L110.6510625,27.221859169006343L111.0223125,26.020053398609157L111.412125,25.40004969835281L111.783375,27.353333544731136L112.1731875,27.755732488632198L112.5444375,26.90111739635467L112.93425,28.663097691535945L113.3055,25.741880965232845L113.6953125,28.753099930286403L114.0665625,27.655043077468868L114.45637500000001,25.425127100944515L114.827625,26.633199584484096L115.2174375,29.539403629302974L115.5886875,28.653655421733852L115.9785,28.689747047424312L116.34975,26.259549450874324L116.7395625,25.598179113864894L117.1108125,26.610580337047573L117.500625,24.96021927595138L117.871875,27.381175053119655L118.26168750000001,24.655587387084957L118.6329375,27.479554009437557L119.0041875,26.44947094917297L119.394,26.946756792068477L119.76525,24.11344285011291L120.1550625,23.792954277992244L120.5263125,25.84324557781219L120.91612500000001,25.985892426967617L121.287375,23.8872609257698L121.6771875,25.223062527179714L122.0484375,23.38202036619186L122.43825,24.266407620906826L122.8095,23.900648903846736L123.1993125,24.622470867633815L123.5705625,23.05971719026565L123.960375,24.870417487621303L124.331625,22.270965886116024L124.72143750000001,24.208487999439235L125.0926875,23.22015137672424L125.4825,24.01404054164886L125.85375,23.432512772083278L126.24356250000001,23.787721467018123L126.6148125,24.02518136501312L127.004625,23.745574128627773L127.37587500000001,22.764717471599575L127.7656875,23.544564557075496L128.1369375,24.3420407295227L128.5081875,25.7517663359642L128.898,24.974314105510707L129.26925,23.978476417064662L129.6590625,23.319500935077663L130.0303125,24.72075487375259L130.42012499999998,25.704987537860866L130.791375,26.985686373710628L131.1811875,26.852123093605037L131.5524375,27.458021414279933L131.94225,25.708627295494075L132.3135,26.20210458040237L132.7033125,26.435418319702144L133.07456249999998,25.785515856742855L133.464375,26.80648369789123L133.835625,26.344603729248043L134.2254375,26.312194061279293L134.5966875,25.827948045730587L134.9865,26.180846285820003L135.35774999999998,26.01563293933868L135.7475625,25.634196889400478L136.1188125,26.36672712564468L136.508625,26.804637444019313L136.879875,27.354515147209163L137.2696875,25.072703611850734L137.6409375,24.22060997486114L138.01218749999998,25.292850923538204L138.402,24.394537639617916L138.77325,23.425591957569118L139.1630625,24.29601098299026L139.5343125,24.424024951457973L139.924125,24.417895388603206L140.295375,23.90041680335998L140.68518749999998,23.23536450862884L141.05643750000002,25.466588687896724L141.44625,25.010173630714412L141.8175,23.437028181552883L142.2073125,24.28600956201553L142.5785625,24.754747045040126L142.96837499999998,24.470561099052425L143.339625,23.12149811983108L143.7294375,24.304007899761196L144.1006875,23.815046024322506L144.4905,22.444366049766536L144.86175,24.077984225749965L145.25156249999998,23.38095481395721L145.6228125,24.457890522480007L146.01262499999999,24.32475979328155L146.38387500000002,25.011281383037563L146.7736875,23.760966610908504L147.1449375,25.314805519580837L147.5161875,26.59743500947952L147.906,24.75864000320434L148.27724999999998,25.397106242179866L148.66706250000001,25.560926985740657L149.0383125,24.44888080358505L149.428125,24.575375568866725L149.799375,26.190130305290218L150.1891875,23.837412071228023L150.56043749999998,22.885800075531L150.95025,23.94418884515762L151.3215,23.55449212789535L151.71131250000002,22.588753652572628L152.0825625,24.79448897838592L152.472375,22.929276716709133L152.843625,25.019109499454494L153.2334375,24.814027619361873L153.60468749999998,24.48397017717361L153.99450000000002,22.171869528293605L154.36575,23.096958768367763L154.7555625,21.284074616432186L155.1268125,21.594814968109127L155.516625,22.15956820249557L155.88787499999998,20.97576076984405L156.2776875,22.148596179485317L156.6489375,21.498229515552516L157.0201875,21.559176993370052L157.41,20.96429289579391L157.78125,22.483316731452938L158.1710625,19.687170517444606L158.5423125,21.699017536640163L158.93212499999998,19.572660577297206L159.30337500000002,20.818913590908046L159.6931875,20.447964262962337L160.0644375,19.867945146560665L160.45425,21.294730138778682L160.8255,21.070921969413753L161.21531249999998,21.920578551292415L161.5865625,20.904410970211025L161.976375,21.09892172813415L162.347625,21.1712421298027L162.7374375,22.951790463924404L163.1086875,23.285846364498134L163.4985,21.194431078433986L163.86975,19.69568438529968L164.2595625,20.63088054656982L164.63081250000002,21.031696987152095L165.020625,21.268122982978817L165.391875,20.656137299537654L165.7816875,20.047654223442073L166.1529375,20.610972654819484L166.52418749999998,21.5968511223793L166.91400000000002,19.860897731781L167.28525,19.592916619777675L167.6750625,19.940212798118587L168.0463125,16.007918876409526L168.436125,16.56814615130424L168.80737499999998,19.004415285587307L169.1971875,20.252841603755947L169.5684375,17.932153236865993L169.95825000000002,17.486288201808925L170.3295,19.63913626670837L170.7193125,19.474482071399684L171.0905625,18.57915444374084L171.480375,19.48382939100265L171.85162499999998,20.227194499969478L172.24143750000002,18.76085747480392L172.6126875,19.281880867481227L173.0025,20.32945586442947L173.37375,20.467882704734798L173.7635625,21.643978071212764L174.13481249999998,20.5339152932167L174.52462500000001,21.04371346235275L174.895875,21.770926487445827L175.2856875,20.2130785703659L175.6569375,19.00174612998962L176.0281875,21.957893979549404L176.418,19.600259435176845L176.78925,20.100404334068294L177.1790625,18.621554982662197L177.55031250000002,20.40226156711578L177.940125,20.088377308845516L178.311375,19.623712134361263L178.7011875,18.76711363792419L179.0724375,21.8021756529808L179.46224999999998,17.7218596458435L179.83350000000002,17.733591270446773L180.2233125,18.95354307889938L180.5945625,20.07963134050369L180.984375,19.29005713462829L181.355625,19.861604583263393L181.7454375,20.31722838878631L182.1166875,24.423043799400325L182.5065,18.19665284156799L182.87775000000002,19.53259159326553L183.2675625,17.92233116626739L183.6388125,19.924999666213985L184.028625,21.55197132825851L184.399875,22.05921639204025L184.78968749999999,19.884761881828304L185.16093750000002,20.021690618991848L185.5321875,20.037874352931972L185.922,20.60188908576965L186.29325,20.256122660636898L186.6830625,21.580350887775417L187.05431249999998,21.90994412899017L187.444125,21.882957172393795L187.815375,21.245788586139675L188.20518750000002,21.8778615117073L188.5764375,21.688456964492794L188.96625,20.622535479068752L189.3375,18.52813453674316L189.7273125,21.696991932392116L190.09856249999999,20.86700059175491L190.48837500000002,19.226271700859066L190.859625,20.44591755867004L191.2494375,19.79645819664001L191.6206875,20.248357844352718L192.0105,20.497897517681118L192.38174999999998,21.438632440567012L192.77156250000002,20.702409696578975L193.1428125,21.26959998607635L193.53262500000002,19.59222031831741L193.903875,18.91043568849563L194.2936875,19.33877713680267L194.6649375,19.760661971569057L195.0361875,18.9555159330368L195.426,20.863308084011074L195.79725000000002,21.485031437873836L196.1870625,21.367978942394252L196.5583125,21.98178977966308L196.948125,20.855849218368526L197.319375,19.1705359339714L197.70918749999998,20.111988258361812L198.08043750000002,20.012490999698635L198.47025,20.551059079170223L198.8415,21.00855023860931L199.2313125,19.52933163642883L199.6025625,20.168504726886745L199.992375,19.300048005580898L200.363625,19.476212275028224L200.7534375,22.126124632358547L201.12468750000002,20.60170973539352L201.5145,19.31801469326019L201.88575,17.52904744148254L202.2755625,18.78459502458572L202.6468125,19.53176869153976L203.036625,21.01267529726028L203.40787500000002,20.76768268346786L203.7976875,19.354908120632167L204.1689375,18.434503090381618L204.5401875,19.36563749313354L204.93,17.88996369838714L205.30124999999998,19.67983825206756L205.69106250000002,18.970528614521022L206.0623125,17.455972713232036L206.45212500000002,17.81964780092239L206.823375,17.026054036617275L207.2131875,18.92676712274551L207.5844375,17.589746993780132L207.97425,19.22020543813705L208.3455,16.41828836202621L208.73531250000002,19.00631428956985L209.1065625,16.826874893903728L209.496375,18.405427229404445L209.867625,16.402378928661342L210.2574375,16.44001613259315L210.62868749999998,15.489358913898464L211.01850000000002,12.843545240163799L211.38975,14.401693832874294L211.77956250000003,14.905040663480754L212.1508125,15.407269191741939L212.540625,16.00068683624267L212.911875,17.20350540876388L213.3016875,17.063369464874263L213.6729375,18.062319409847255L214.04418750000002,17.441888433694835L214.434,17.200034451484676L214.80525,16.967638564109798L215.1950625,16.367727380990978L215.5663125,17.064582717418666L215.956125,15.29087079763412L216.32737500000002,16.01442296504974L216.7171875,16.844467055797573L217.0884375,16.77755354046821L217.47825,17.119706583023067L217.8495,16.42289344668388L218.2393125,16.525059860944744L218.61056250000001,16.067922127246852L219.000375,14.685051602125164L219.37162500000002,16.721854698657985L219.7614375,18.60599370002746L220.1326875,15.951048982143398L220.5225,15.99456782341003L220.89375,17.180242609977718L221.2835625,16.63037018179893L221.65481250000002,16.155297410488124L222.044625,16.729134213924404L222.415875,17.767214190959926L222.8056875,17.036118757724758L223.1769375,15.637913775444026L223.54818749999998,18.13569481372833L223.93800000000002,16.9450298666954L224.30925,16.848956090211864L224.69906250000003,16.836058688163753L225.0703125,18.187073421478267L225.460125,15.713256758451458L225.831375,16.43422417044639L226.2211875,14.980378371477123L226.5924375,17.196173143386837L226.98225000000002,15.261225235462184L227.3535,16.556208801269527L227.7433125,16.58665089011192L228.1145625,15.374411147832866L228.504375,16.302301418781276L228.87562499999999,16.33141947984695L229.26543750000002,16.991550189256664L229.6366875,17.578985971212383L230.02650000000003,14.984630030393596L230.39775,14.724909585714336L230.78756249999998,13.590059530735012L231.1588125,14.167119365930553L231.54862500000002,16.99743710160255L231.919875,15.74188951849937L232.30968750000002,17.500958007574077L232.6809375,15.581560832262035L233.0521875,16.414938730001445L233.442,15.690152209997173L233.81325,17.09591628313064L234.2030625,16.755192768573757L234.57431250000002,17.404989731311794L234.964125,15.983015549182888L235.335375,18.37598211765289L235.7251875,16.680567187070842L236.0964375,16.477120560407634L236.48625,16.669753414392467L236.85750000000002,15.567645353078838L237.2473125,16.295143228769298L237.61856250000002,16.231610995531078L238.008375,16.437869203090663L238.379625,15.696577173471447L238.7694375,16.51336516141891L239.1406875,16.22352967858314L239.5305,15.829692077636714L239.90175000000002,15.225840461254116L240.2915625,16.437067401409145L240.6628125,15.52202178239822L241.052625,15.707179945707317L241.423875,14.26520819664001L241.81368750000001,15.52093513011932L242.18493750000002,14.702369463443752L242.5561875,15.349761021137233L242.94600000000003,16.764017862081523L243.31725,13.827640753984447L243.70706249999998,14.62209434509277L244.0783125,13.287553471326824L244.46812500000001,13.641849589347835L244.839375,15.627648603916164L245.22918750000002,13.081427139043804L245.6004375,14.066635680198665L245.99024999999997,13.651471209526058L246.3615,14.151194107532497L246.75131249999998,16.131876361370082L247.1225625,13.451912266016002L247.512375,15.25826067924499L247.883625,15.341342103481288L248.27343750000003,15.476292711496349L248.6446875,15.648611497879024L249.03449999999998,15.019065302610393L249.40575,15.160699349641796L249.7955625,15.055826854705806L250.1668125,15.79793651103973L250.556625,15.903056931495662L250.927875,15.144003939628597L251.31768749999998,15.33999697566032L251.6889375,16.618891757726665L252.0601875,17.497492325305934L252.45,17.80454016923904L252.82125000000002,17.104356300830837L253.2110625,15.941448462009426L253.58231249999997,14.815703076124187L253.972125,15.000069987773891L254.343375,15.981971096992488L254.7331875,14.682704222202297L255.10443750000002,13.935646605491634" style="fill: none;" fill="none"></path></g></g></g></g></g></g><g transform="translate(51, 177)" clip-path="url(#clip_1)"><clipPath id="clip_1"><rect width="278" height="23"></rect></clipPath><g><g><line x1="0" y1="0" x2="0" y2="5" style="visibility: inherit;" fill="rgb(0, 0, 0)" stroke="rgb(204, 204, 204)" stroke-width="1px"></line><line x1="23.203125" y1="0" x2="23.203125" y2="5" style="visibility: inherit;" fill="rgb(0, 0, 0)" stroke="rgb(204, 204, 204)" stroke-width="1px"></line><line x1="46.40625" y1="0" x2="46.40625" y2="5" style="visibility: inherit;" fill="rgb(0, 0, 0)" stroke="rgb(204, 204, 204)" stroke-width="1px"></line><line x1="69.609375" y1="0" x2="69.609375" y2="5" style="visibility: inherit;" fill="rgb(0, 0, 0)" stroke="rgb(204, 204, 204)" stroke-width="1px"></line><line x1="92.8125" y1="0" x2="92.8125" y2="5" style="visibility: inherit;" fill="rgb(0, 0, 0)" stroke="rgb(204, 204, 204)" stroke-width="1px"></line><line x1="116.015625" y1="0" x2="116.015625" y2="5" style="visibility: inherit;" fill="rgb(0, 0, 0)" stroke="rgb(204, 204, 204)" stroke-width="1px"></line><line x1="139.21875" y1="0" x2="139.21875" y2="5" style="visibility: inherit;" fill="rgb(0, 0, 0)" stroke="rgb(204, 204, 204)" stroke-width="1px"></line><line x1="162.421875" y1="0" x2="162.421875" y2="5" style="visibility: inherit;" fill="rgb(0, 0, 0)" stroke="rgb(204, 204, 204)" stroke-width="1px"></line><line x1="185.625" y1="0" x2="185.625" y2="5" style="visibility: inherit;" fill="rgb(0, 0, 0)" stroke="rgb(204, 204, 204)" stroke-width="1px"></line><line x1="208.828125" y1="0" x2="208.828125" y2="5" style="visibility: inherit;" fill="rgb(0, 0, 0)" stroke="rgb(204, 204, 204)" stroke-width="1px"></line><line x1="232.03125" y1="0" x2="232.03125" y2="5" style="visibility: inherit;" fill="rgb(0, 0, 0)" stroke="rgb(204, 204, 204)" stroke-width="1px"></line><line x1="255.234375" y1="0" x2="255.234375" y2="5" style="visibility: inherit;" fill="rgb(0, 0, 0)" stroke="rgb(204, 204, 204)" stroke-width="1px"></line><line x1="278.4375" y1="0" x2="278.4375" y2="5" style="visibility: inherit;" fill="rgb(0, 0, 0)" stroke="rgb(204, 204, 204)" stroke-width="1px"></line></g><g transform="translate(0, 8)"><text x="0" y="0" dx="0em" dy="0.95em" style="text-anchor: middle; visibility: hidden; font-family: Roboto, sans-serif; font-size: 12px; font-weight: 200;" fill="rgb(33, 33, 33)" stroke="none" stroke-width="1px">-1M</text><text x="23.203125" y="0" dx="0em" dy="0.95em" style="text-anchor: middle; visibility: inherit; font-family: Roboto, sans-serif; font-size: 12px; font-weight: 200;" fill="rgb(33, 33, 33)" stroke="none" stroke-width="1px">0</text><text x="46.40625" y="0" dx="0em" dy="0.95em" style="text-anchor: middle; visibility: hidden; font-family: Roboto, sans-serif; font-size: 12px; font-weight: 200;" fill="rgb(33, 33, 33)" stroke="none" stroke-width="1px">1M</text><text x="69.609375" y="0" dx="0em" dy="0.95em" style="text-anchor: middle; visibility: inherit; font-family: Roboto, sans-serif; font-size: 12px; font-weight: 200;" fill="rgb(33, 33, 33)" stroke="none" stroke-width="1px">2M</text><text x="92.8125" y="0" dx="0em" dy="0.95em" style="text-anchor: middle; visibility: hidden; font-family: Roboto, sans-serif; font-size: 12px; font-weight: 200;" fill="rgb(33, 33, 33)" stroke="none" stroke-width="1px">3M</text><text x="116.015625" y="0" dx="0em" dy="0.95em" style="text-anchor: middle; visibility: inherit; font-family: Roboto, sans-serif; font-size: 12px; font-weight: 200;" fill="rgb(33, 33, 33)" stroke="none" stroke-width="1px">4M</text><text x="139.21875" y="0" dx="0em" dy="0.95em" style="text-anchor: middle; visibility: hidden; font-family: Roboto, sans-serif; font-size: 12px; font-weight: 200;" fill="rgb(33, 33, 33)" stroke="none" stroke-width="1px">5M</text><text x="162.421875" y="0" dx="0em" dy="0.95em" style="text-anchor: middle; visibility: inherit; font-family: Roboto, sans-serif; font-size: 12px; font-weight: 200;" fill="rgb(33, 33, 33)" stroke="none" stroke-width="1px">6M</text><text x="185.625" y="0" dx="0em" dy="0.95em" style="text-anchor: middle; visibility: hidden; font-family: Roboto, sans-serif; font-size: 12px; font-weight: 200;" fill="rgb(33, 33, 33)" stroke="none" stroke-width="1px">7M</text><text x="208.828125" y="0" dx="0em" dy="0.95em" style="text-anchor: middle; visibility: inherit; font-family: Roboto, sans-serif; font-size: 12px; font-weight: 200;" fill="rgb(33, 33, 33)" stroke="none" stroke-width="1px">8M</text><text x="232.03125" y="0" dx="0em" dy="0.95em" style="text-anchor: middle; visibility: hidden; font-family: Roboto, sans-serif; font-size: 12px; font-weight: 200;" fill="rgb(33, 33, 33)" stroke="none" stroke-width="1px">9M</text><text x="255.234375" y="0" dx="0em" dy="0.95em" style="text-anchor: middle; visibility: inherit; font-family: Roboto, sans-serif; font-size: 12px; font-weight: 200;" fill="rgb(33, 33, 33)" stroke="none" stroke-width="1px">10M</text><text x="278.4375" y="0" dx="0em" dy="0.95em" style="text-anchor: middle; visibility: hidden; font-family: Roboto, sans-serif; font-size: 12px; font-weight: 200;" fill="rgb(33, 33, 33)" stroke="none" stroke-width="1px">11M</text></g><line x1="0" y1="0" x2="278.4375" y2="0" fill="rgb(0, 0, 0)" stroke="rgb(204, 204, 204)" stroke-width="1px"></line></g></g></g></g></svg>