<svg viewBox="0 0 330 200" xmlns="http://www.w3.org/2000/svg"><g><g><g><g><g><line x1="30.78125" y1="177" x2="25.78125" y2="177" style="visibility: inherit;" fill="rgb(0, 0, 0)" stroke="rgb(204, 204, 204)" stroke-width="1px"></line><line x1="30.78125" y1="160.9090909090909" x2="25.78125" y2="160.9090909090909" style="visibility: inherit;" fill="rgb(0, 0, 0)" stroke="rgb(204, 204, 204)" stroke-width="1px"></line><line x1="30.78125" y1="144.8181818181818" x2="25.78125" y2="144.8181818181818" style="visibility: inherit;" fill="rgb(0, 0, 0)" stroke="rgb(204, 204, 204)" stroke-width="1px"></line><line x1="30.78125" y1="128.72727272727272" x2="25.78125" y2="128.72727272727272" style="visibility: inherit;" fill="rgb(0, 0, 0)" stroke="rgb(204, 204, 204)" stroke-width="1px"></line><line x1="30.78125" y1="112.63636363636364" x2="25.78125" y2="112.63636363636364" style="visibility: inherit;" fill="rgb(0, 0, 0)" stroke="rgb(204, 204, 204)" stroke-width="1px"></line><line x1="30.78125" y1="96.54545454545453" x2="25.78125" y2="96.54545454545453" style="visibility: inherit;" fill="rgb(0, 0, 0)" stroke="rgb(204, 204, 204)" stroke-width="1px"></line><line x1="30.78125" y1="80.45454545454547" x2="25.78125" y2="80.45454545454547" style="visibility: inherit;" fill="rgb(0, 0, 0)" stroke="rgb(204, 204, 204)" stroke-width="1px"></line><line x1="30.78125" y1="64.36363636363636" x2="25.78125" y2="64.36363636363636" style="visibility: inherit;" fill="rgb(0, 0, 0)" stroke="rgb(204, 204, 204)" stroke-width="1px"></line><line x1="30.78125" y1="48.272727272727266" x2="25.78125" y2="48.272727272727266" style="visibility: inherit;" fill="rgb(0, 0, 0)" stroke="rgb(204, 204, 204)" stroke-width="1px"></line><line x1="30.78125" y1="32.18181818181817" x2="25.78125" y2="32.18181818181817" style="visibility: inherit;" fill="rgb(0, 0, 0)" stroke="rgb(204, 204, 204)" stroke-width="1px"></line><line x1="30.78125" y1="16.090909090909097" x2="25.78125" y2="16.090909090909097" style="visibility: inherit;" fill="rgb(0, 0, 0)" stroke="rgb(204, 204, 204)" stroke-width="1px"></line><line x1="30.78125" y1="0" x2="25.78125" y2="0" style="visibility: inherit;" fill="rgb(0, 0, 0)" stroke="rgb(204, 204, 204)" stroke-width="1px"></line></g><g transform="translate(20.78125, 0)"><text x="0" y="177" dx="0em" dy="0.3em" style="text-anchor: end; visibility: hidden; font-family: Roboto, sans-serif; font-size: 12px; font-weight: 200;" fill="rgb(33, 33, 33)" stroke="none" stroke-width="1px">1</text><text x="0" y="160.9090909090909" dx="0em" dy="0.3em" style="text-anchor: end; visibility: inherit; font-family: Roboto, sans-serif; font-size: 12px; font-weight: 200;" fill="rgb(33, 33, 33)" stroke="none" stroke-width="1px">2</text><text x="0" y="144.8181818181818" dx="0em" dy="0.3em" style="text-anchor: end; visibility: hidden; font-family: Roboto, sans-serif; font-size: 12px; font-weight: 200;" fill="rgb(33, 33, 33)" stroke="none" stroke-width="1px">3</text><text x="0" y="128.72727272727272" dx="0em" dy="0.3em" style="text-anchor: end; visibility: inherit; font-family: Roboto, sans-serif; font-size: 12px; font-weight: 200;" fill="rgb(33, 33, 33)" stroke="none" stroke-width="1px">4</text><text x="0" y="112.63636363636364" dx="0em" dy="0.3em" style="text-anchor: end; visibility: hidden; font-family: Roboto, sans-serif; font-size: 12px; font-weight: 200;" fill="rgb(33, 33, 33)" stroke="none" stroke-width="1px">5</text><text x="0" y="96.54545454545453" dx="0em" dy="0.3em" style="text-anchor: end; visibility: inherit; font-family: Roboto, sans-serif; font-size: 12px; font-weight: 200;" fill="rgb(33, 33, 33)" stroke="none" stroke-width="1px">6</text><text x="0" y="80.45454545454547" dx="0em" dy="0.3em" style="text-anchor: end; visibility: hidden; font-family: Roboto, sans-serif; font-size: 12px; font-weight: 200;" fill="rgb(33, 33, 33)" stroke="none" stroke-width="1px">7</text><text x="0" y="64.36363636363636" dx="0em" dy="0.3em" style="text-anchor: end; visibility: inherit; font-family: Roboto, sans-serif; font-size: 12px; font-weight: 200;" fill="rgb(33, 33, 33)" stroke="none" stroke-width="1px">8</text><text x="0" y="48.272727272727266" dx="0em" dy="0.3em" style="text-anchor: end; visibility: hidden; font-family: Roboto, sans-serif; font-size: 12px; font-weight: 200;" fill="rgb(33, 33, 33)" stroke="none" stroke-width="1px">9</text><text x="0" y="32.18181818181817" dx="0em" dy="0.3em" style="text-anchor: end; visibility: inherit; font-family: Roboto, sans-serif; font-size: 12px; font-weight: 200;" fill="rgb(33, 33, 33)" stroke="none" stroke-width="1px">10</text><text x="0" y="16.090909090909097" dx="0em" dy="0.3em" style="text-anchor: end; visibility: hidden; font-family: Roboto, sans-serif; font-size: 12px; font-weight: 200;" fill="rgb(33, 33, 33)" stroke="none" stroke-width="1px">11</text><text x="0" y="0" dx="0em" dy="0.3em" style="text-anchor: end; visibility: hidden; font-family: Roboto, sans-serif; font-size: 12px; font-weight: 200;" fill="rgb(33, 33, 33)" stroke="none" stroke-width="1px">12</text></g><line x1="30.78125" y1="0" x2="30.78125" y2="177" fill="rgb(0, 0, 0)" stroke="rgb(204, 204, 204)" stroke-width="1px"></line></g></g><g transform="translate(30, 0)" clip-path="url(#clip_0)"><clipPath id="clip_0"><rect width="299" height="177"></rect></clipPath><g><g><g><line x1="0" y1="0" x2="0" y2="177" fill="rgb(0, 0, 0)" stroke="rgb(66, 66, 66)" stroke-width="1px" opacity="0.25"></line><line x1="24.934895833333332" y1="0" x2="24.934895833333332" y2="177" fill="rgb(0, 0, 0)" stroke="rgb(66, 66, 66)" stroke-width="1px" opacity="0.25"></line><line x1="49.869791666666664" y1="0" x2="49.869791666666664" y2="177" fill="rgb(0, 0, 0)" stroke="rgb(66, 66, 66)" stroke-width="1px" opacity="0.25"></line><line x1="74.8046875" y1="0" x2="74.8046875" y2="177" fill="rgb(0, 0, 0)" stroke="rgb(66, 66, 66)" stroke-width="1px" opacity="0.25"></line><line x1="99.73958333333333" y1="0" x2="99.73958333333333" y2="177" fill="rgb(0, 0, 0)" stroke="rgb(66, 66, 66)" stroke-width="1px" opacity="0.25"></line><line x1="124.67447916666667" y1="0" x2="124.67447916666667" y2="177" fill="rgb(0, 0, 0)" stroke="rgb(66, 66, 66)" stroke-width="1px" opacity="0.25"></line><line x1="149.609375" y1="0" x2="149.609375" y2="177" fill="rgb(0, 0, 0)" stroke="rgb(66, 66, 66)" stroke-width="1px" opacity="0.25"></line><line x1="174.54427083333334" y1="0" x2="174.54427083333334" y2="177" fill="rgb(0, 0, 0)" stroke="rgb(66, 66, 66)" stroke-width="1px" opacity="0.25"></line><line x1="199.47916666666666" y1="0" x2="199.47916666666666" y2="177" fill="rgb(0, 0, 0)" stroke="rgb(66, 66, 66)" stroke-width="1px" opacity="0.25"></line><line x1="224.4140625" y1="0" x2="224.4140625" y2="177" fill="rgb(0, 0, 0)" stroke="rgb(66, 66, 66)" stroke-width="1px" opacity="0.25"></line><line x1="249.34895833333334" y1="0" x2="249.34895833333334" y2="177" fill="rgb(0, 0, 0)" stroke="rgb(66, 66, 66)" stroke-width="1px" opacity="0.25"></line><line x1="274.28385416666663" y1="0" x2="274.28385416666663" y2="177" fill="rgb(0, 0, 0)" stroke="rgb(66, 66, 66)" stroke-width="1px" opacity="0.25"></line><line x1="299.21875" y1="0" x2="299.21875" y2="177" fill="rgb(0, 0, 0)" stroke="rgb(66, 66, 66)" stroke-width="1px" opacity="0.25"></line></g><g><line x1="0" y1="177" x2="299.21875" y2="177" fill="rgb(0, 0, 0)" stroke="rgb(66, 66, 66)" stroke-width="1px" opacity="0.25"></line><line x1="0" y1="160.9090909090909" x2="299.21875" y2="160.9090909090909" fill="rgb(0, 0, 0)" stroke="rgb(66, 66, 66)" stroke-width="1px" opacity="0.25"></line><line x1="0" y1="144.8181818181818" x2="299.21875" y2="144.8181818181818" fill="rgb(0, 0, 0)" stroke="rgb(66, 66, 66)" stroke-width="1px" opacity="0.25"></line><line x1="0" y1="128.72727272727272" x2="299.21875" y2="128.72727272727272" fill="rgb(0, 0, 0)" stroke="rgb(66, 66, 66)" stroke-width="1px" opacity="0.25"></line><line x1="0" y1="112.63636363636364" x2="299.21875" y2="112.63636363636364" fill="rgb(0, 0, 0)" stroke="rgb(66, 66, 66)" stroke-width="1px" opacity="0.25"></line><line x1="0" y1="96.54545454545453" x2="299.21875" y2="96.54545454545453" fill="rgb(0, 0, 0)" stroke="rgb(66, 66, 66)" stroke-width="1px" opacity="0.25"></line><line x1="0" y1="80.45454545454547" x2="299.21875" y2="80.45454545454547" fill="rgb(0, 0, 0)" stroke="rgb(66, 66, 66)" stroke-width="1px" opacity="0.25"></line><line x1="0" y1="64.36363636363636" x2="299.21875" y2="64.36363636363636" fill="rgb(0, 0, 0)" stroke="rgb(66, 66, 66)" stroke-width="1px" opacity="0.25"></line><line x1="0" y1="48.272727272727266" x2="299.21875" y2="48.272727272727266" fill="rgb(0, 0, 0)" stroke="rgb(66, 66, 66)" stroke-width="1px" opacity="0.25"></line><line x1="0" y1="32.18181818181817" x2="299.21875" y2="32.18181818181817" fill="rgb(0, 0, 0)" stroke="rgb(66, 66, 66)" stroke-width="1px" opacity="0.25"></line><line x1="0" y1="16.090909090909097" x2="299.21875" y2="16.090909090909097" fill="rgb(0, 0, 0)" stroke="rgb(66, 66, 66)" stroke-width="1px" opacity="0.25"></line><line x1="0" y1="0" x2="299.21875" y2="0" fill="rgb(0, 0, 0)" stroke="rgb(66, 66, 66)" stroke-width="1px" opacity="0.25"></line></g></g></g><g><g><line x1="0" y1="193.09090909090907" x2="299.21875" y2="193.09090909090907" fill="rgb(0, 0, 0)" stroke="rgb(153, 153, 153)" stroke-width="1.5px"></line></g></g><g><g><line x1="24.934895833333332" y1="0" x2="24.934895833333332" y2="177" fill="rgb(0, 0, 0)" stroke="rgb(153, 153, 153)" stroke-width="1.5px"></line></g></g><g><g><g><g><g><path stroke="rgb(255, 112, 67)" stroke-width="2px" d="M25.35380208333333,84.10680965943769L25.752760416666668,32.103722122582525L26.171666666666667,20.52682220604071L26.570625,50.60199410520136L26.989531250000002,-2.3793930069112723L27.38848958333333,-35.97853176086953L27.807395833333334,2.9714965681140924L28.206354166666667,-2.837570140141644L28.625260416666666,-5.666549061618802L29.02421875,1.3286709313521148L29.443125000000002,-0.1506473299322908L29.84208333333333,-3.741388941267603L30.260989583333334,2.885082829260116L30.659947916666667,-0.5182702268786199L34.749270833333334,-0.9691449349802079L35.16817708333333,7.410147163205272L35.567135416666666,19.178536767309982L35.96609375,19.886028618348263L36.385,19.417139170608834L36.78395833333334,0.22966187794863968L37.20286458333334,15.099367616554678L37.60182291666667,19.116058716471535L38.02072916666666,12.983362658173187L38.419687499999995,22.103962725643104L38.83859375,8.404830939400572L39.237552083333334,-5.107472075750183L39.65645833333333,15.94297699364583L40.055416666666666,17.732807698574952L40.47432291666667,40.67745603335564L40.87328125,61.1754169147767L41.292187500000004,48.48985349355855L41.69114583333334,56.81864901008065L42.11005208333333,72.18482259700906L42.50901041666667,73.36588252366764L42.92791666666666,93.30475200467102L43.326875,104.35956256384273L43.74578125,110.17740713109235L44.14473958333333,106.42201800551572L44.56364583333333,129.2803753324093L44.962604166666665,131.80679586362535L45.38151041666667,127.91061419957903L45.78046875,135.93397221019384L46.17942708333333,121.05959864284547L46.598333333333336,113.25207069248518L46.99729166666666,122.30458044033357L47.41619791666667,126.24554233401297L47.81515625,128.7270919773491L48.2340625,130.5053962102191L48.63302083333333,138.38423110104375L49.05192708333333,137.31762101196395L49.450885416666665,132.82306971841194L49.869791666666664,136.7541758892887L50.268750000000004,139.9777004819431L50.687656249999996,148.1102302221521L51.08661458333333,153.41471830296902L51.505520833333335,154.1210393689829L51.90447916666666,140.41890021676548L52.32338541666667,145.47006170189488L52.72234375,156.43611771117406L53.14125,150.73736625409035L53.54020833333333,141.38367192336375L53.95911458333334,147.8141083913895L54.35807291666667,151.87672918805413L54.77697916666666,148.05731602769455L55.1759375,144.80402325655922L55.594843749999995,143.76100680921564L55.993802083333335,145.9938723686798L56.39276041666667,153.6856610475784L56.81166666666666,161.41548672528083L57.210625,154.9344437335411L57.62953125,162.14889063813075L58.02848958333334,160.68848235290463L58.44739583333333,158.0402541310643L58.846354166666664,157.56023270900468L59.26526041666667,161.10851174114487L59.664218749999996,155.11183523953056L60.083125,158.6705231655842L60.482083333333335,158.21606610840703L60.900989583333335,156.06639638862154L61.29994791666667,158.52614300930097L61.71885416666666,162.08622419634708L62.1178125,165.27683393835574L62.53671875,163.72636612083426L62.93567708333334,166.35055745194447L63.35458333333333,169.2051674333762L63.75354166666666,169.6162417687235L64.17244791666667,162.80367474734695L64.57140625,162.2549227014341L64.9903125,159.21530173522095L65.38927083333333,153.41340967813431L65.80817708333333,156.61016146312642L66.20713541666667,163.4146144908533L66.60609375,162.14645089312316L67.025,159.09032368098775L67.42395833333333,151.24185032507825L67.84286458333334,155.0045798602275L68.24182291666666,162.75269078671008L68.66072916666667,164.56210060230697L69.0596875,153.10325380912144L69.47859375,154.13667659556754L69.87755208333334,153.92797423847955L70.29645833333333,155.7690774570448L70.69541666666667,162.04103127217277L71.11432291666667,148.54338218410223L71.51328124999999,153.20133165122894L71.9321875,149.9301823483923L72.33114583333334,154.3583907949773L72.75005208333333,158.51511621554508L73.14901041666667,153.81776686629271L73.56791666666668,148.35782353516424L73.966875,153.69920998312998L74.38578125,154.7522954011384L74.78473958333333,156.70825499246692L75.20364583333334,148.7598964460611L75.60260416666667,152.48159743746365L76.02151041666667,159.74070304924936L76.42046875,154.9111030845434L76.81942708333332,149.47755206408553L77.23833333333333,152.40561327316922L77.63729166666667,160.9860109560946L78.05619791666668,162.99052865291645L78.45515625,165.20902225582986L78.8740625,149.3300545396052L79.27302083333333,153.53611725676095L79.69192708333333,158.17740980451129L80.09088541666667,154.4385787683796L80.50979166666667,150.84628909944828L80.90875,147.36944791583184L81.32765624999999,154.91779834898364L81.72661458333333,164.05846266941188L82.14552083333334,164.69988319600472L82.54447916666666,161.479755355322L82.96338541666667,160.97599512270583L83.36234375000001,163.17894340062486L83.78125000000001,164.46572235581434L84.18020833333333,158.04372350352932L84.59911458333333,162.27713993666237L84.99807291666667,163.0545419726883L85.41697916666666,160.5560947473226L85.8159375,164.01424779008278L86.23484375000001,166.1111005417948L86.63380208333332,168.56354451936426L87.03276041666666,147.45089159032506L87.45166666666667,154.86756109856955L87.85062500000001,156.28854249840288L88.26953125,157.18271300368872L88.66848958333334,148.9676090332091L89.08739583333333,158.00404905175307L89.48635416666666,161.317177709583L89.90526041666666,154.8364408895687L90.30421875,155.89947942895498L90.72312500000001,161.9578479095106L91.12208333333334,161.4336674061789L91.54098958333333,165.83949834173978L91.93994791666667,166.11077647356916L92.35885416666666,161.02397664158778L92.7578125,162.9260290739003L93.17671875,170.90882328124317L93.57567708333333,141.43917587057362L93.99458333333332,156.19861952457197L94.39354166666666,155.9666746659317L94.81244791666667,156.57824425608257L95.21140625,152.27322802316803L95.6303125,155.7809348058095L96.02927083333334,156.63477817592454L96.44817708333335,156.92433371630136L96.84713541666666,160.0377044890984L97.24609375,165.0265286140079L97.665,165.07727613609913L98.06395833333333,169.42483360126923L98.48286458333334,172.03734179415943L98.88182291666668,165.6108240977553L99.30072916666666,161.805886583176L99.6996875,162.15636995722565L100.11859375,164.85138891620358L100.51755208333333,165.08177827451019L100.93645833333333,164.0615143435583L101.33541666666667,163.0825359357012L101.75432291666667,159.45244808445597L102.15328124999999,164.68936294964902L102.5721875,167.32541694921335L102.97114583333334,161.96853074675414L103.39005208333334,162.0253117722282L103.78901041666667,158.85748857076658L104.20791666666666,160.97823059990873L104.606875,157.96060638036707L105.02578125,161.7880772289743L105.42473958333333,160.7980275875233L105.84364583333334,161.5503187352144L106.24260416666665,159.4565078752201L106.66151041666666,161.003809558839L107.06046875,162.50460944947298L107.45942708333334,162.48327218518673L107.87833333333333,158.8715035662251L108.27729166666667,163.4695869207229L108.69619791666668,147.31623018393896L109.09515624999999,155.86798883498247L109.5140625,155.23324670099447L109.91302083333333,145.88539975704688L110.33192708333334,146.73410770028357L110.73088541666667,153.70105855466278L111.14979166666667,146.94326996847437L111.54875000000001,153.37675821590906L111.96765624999999,158.54581044039583L112.36661458333333,160.1382962796558L112.78552083333334,156.27754002087852L113.18447916666666,157.8773956569807L113.60338541666667,160.53928004070053L114.00234375000001,162.84132555289878L114.42125,160.1120156433376L114.82020833333333,162.3460346170345L115.23911458333333,160.2959942145178L115.63807291666667,150.69348162170604L116.05697916666668,148.43649345924635L116.45593749999999,150.66772749922058L116.87484375,146.42596658355276L117.27380208333334,142.71422183467536L117.67276041666666,148.54257954439763L118.09166666666667,151.5727706530385L118.49062500000001,143.22673159493976L118.90953124999999,144.9505071933669L119.30848958333333,142.15489968414536L119.72739583333333,153.0918766803686L120.12635416666667,148.20770933854897L120.54526041666666,158.07054709787343L120.94421875,164.309680922111L121.36312500000001,146.67205747127974L121.76208333333332,153.93809523244602L122.18098958333333,163.8918874538264L122.57994791666667,167.44802127231L122.99885416666667,163.46572023166158L123.3978125,156.9993890571932L123.81671875,146.86833011525187L124.21567708333333,150.1957246507246L124.63458333333332,146.71786614599785L125.03354166666666,148.25214881884648L125.45244791666667,149.66591162414093L125.85140625,140.60144984951785L126.2703125,150.18853092548136L126.66927083333333,156.45618766650597L127.08817708333333,151.55122525429476L127.48713541666666,160.08015772011782L127.88609375,163.6683432835752L128.305,156.34422499029503L128.70395833333333,150.15338525066338L129.12286458333332,150.58325695654761L129.52182291666668,152.47246813572053L129.94072916666667,157.51958117797304L130.3396875,160.95923848426213L130.75859375,160.83013596005577L131.15755208333334,155.24364317576493L131.57645833333333,155.2541047748243L131.97541666666666,157.8283722106948L132.39432291666668,158.2181909341578L132.79328124999998,158.57239385327756L133.2121875,164.56040053513465L133.61114583333332,168.5890301782516L134.03005208333335,162.28170719095198L134.42901041666667,164.32614691356605L134.84791666666666,163.21656627671157L135.24687500000002,162.70666895962768L135.66578125,159.39437017724035L136.06473958333333,161.51628590753745L136.48364583333333,160.14268185682826L136.88260416666668,162.42062875025113L137.30151041666667,165.3483681853896L137.70046875,157.07681146285287L138.09942708333332,163.34004932167034L138.51833333333332,166.86539358916116L138.91729166666667,170.6068695638638L139.33619791666666,168.20830907602024L139.73515625000002,161.3780546990135L140.1540625,163.58782628708582L140.55302083333333,166.9134309719197L140.97192708333333,151.11369473247154L141.37088541666665,153.3626064515074L141.78979166666667,156.96506454627925L142.18875,150.6848191211946L142.60765625000002,155.56623218760492L143.00661458333332,159.07289438104718L143.42552083333334,161.33130872640663L143.82447916666666,162.66833712855805L144.24338541666665,148.68142573627455L144.64234375,157.84812497578906L145.06125,157.4842043672428L145.46020833333333,148.14121996434537L145.87911458333332,146.9104061049722L146.27807291666667,151.78230599895133L146.69697916666667,146.19495715644422L147.0959375,144.46054681507624L147.51484375,144.65687267349344L147.91380208333334,157.6381816474026L148.31276041666666,158.5959025149003L148.73166666666665,161.32632885829432L149.130625,152.92003673369996L149.54953125,158.23878628915463L149.94848958333333,165.73135446850011L150.36739583333335,167.3383998311536L150.76635416666667,168.99443228140063L151.18526041666667,151.22934130215668L151.58421875000002,161.15297706193505L152.003125,163.39838916168134L152.40208333333334,165.93450652207068L152.82098958333336,160.92226894828212L153.21994791666665,167.10024293631741L153.63885416666665,152.92526234067284L154.0378125,146.1683673802532L154.45671875,155.25284815798398L154.85567708333332,158.7136873606509L155.27458333333334,165.54834677002825L155.67354166666667,158.3117157445398L156.09244791666666,155.28783771171635L156.49140625,157.3917338655857L156.9103125,150.93982018704386L157.30927083333336,137.6812331364517L157.72817708333335,153.59017225691196L158.12713541666665,157.4032172693305L158.52609375,148.0046643065779L158.945,158.0319025913209L159.34395833333332,163.9854548995746L159.76286458333334,164.8559880260748L160.16182291666667,163.68208685379324L160.58072916666666,163.4397189592622L160.9796875,159.67340709799163L161.39859375,153.88224445167995L161.79755208333333,148.09335232334894L162.21645833333335,150.57550376877631L162.61541666666668,155.13827465256773L163.0343229166667,154.1667811204563L163.43328125,158.92792466675843L163.85218749999999,160.51124307315547L164.25114583333334,157.01426935456612L164.67005208333333,161.8054007242412L165.06901041666666,156.9077140496709L165.48791666666668,160.82133911345178L165.886875,158.3857228610903L166.30578125,157.5811169233858L166.70473958333335,145.66506957225548L167.12364583333334,157.0423396193645L167.52260416666667,152.9668389699691L167.9415104166667,160.44228833133616L168.34046874999999,152.06902218155483L168.7394270833333,156.7333265842181L169.15833333333333,158.7213936096592L169.55729166666666,160.66847754125052L169.97619791666668,155.98077660834073L170.37515625,151.46622801389915L170.7940625,152.38331511575137L171.19302083333335,162.0931334151678L171.61192708333334,162.68669373443117L172.01088541666667,151.78836402522126L172.4297916666667,153.6525040916381L172.82875,159.48251368874614L173.24765624999998,163.8351870975805L173.64661458333333,163.65899805275438L174.06552083333332,156.35858386458386L174.46447916666665,161.32203265250584L174.88338541666667,165.52050546647715L175.28234375,158.7141437759495L175.70125000000002,145.78333908067756L176.10020833333334,145.9055647325585L176.51911458333333,146.100642008092L176.9180729166667,155.40512488471194L177.33697916666668,151.1095334941983L177.7359375,159.11375954586396L178.15484375000003,160.3416768329899L178.55380208333332,157.4850052692303L178.95276041666665,163.5831740199214L179.37166666666667,162.23400432026136L179.770625,159.931260808876L180.18953125,153.50650463485064L180.58848958333334,155.28762313551078L181.00739583333333,162.48920087223163L181.40635416666666,169.6851697218711L181.82526041666668,172.32059949297928L182.22421875,162.0138330861934L182.64312500000003,159.3488677786431L183.04208333333335,160.38584423126446L183.46098958333332,167.0951377503863L183.85994791666667,170.28168748227412L184.27885416666666,173.97557437121012L184.6778125,171.29632564495395L185.09671875,173.20114808798613L185.49567708333333,166.11379051898206L185.91458333333333,164.31061233587545L186.31354166666668,165.96262127951184L186.73244791666667,162.48252240676737L187.13140625,155.3000745374775L187.55031250000002,159.34304145242396L187.94927083333334,161.50948057387194L188.3681770833333,150.88959298348055L188.76713541666666,158.30609969874504L189.16609375,159.80047602782636L189.585,158.0851480639143L189.98395833333333,161.43793251534913L190.40286458333333,166.84740162471576L190.80182291666668,164.8423010167079L191.22072916666667,165.56493657406114L191.6196875,162.5449240475001L192.03859375000002,162.51630378072977L192.43755208333334,150.12813194196914L192.8564583333333,113.66100783977535L193.2554166666667,116.500762602508L193.67432291666665,132.18053284282138L194.07328124999998,141.72711972157586L194.4921875,151.56474511480585L194.89114583333333,158.36713902691213L195.31005208333335,163.19842874674976L195.70901041666667,156.5838156528683L196.12791666666666,156.26808081031672L196.52687500000002,154.51999881786062L196.94578125,129.53939963695217L197.34473958333334,142.7060476034798L197.76364583333336,133.84032025548055L198.16260416666665,128.9811103391293L198.58151041666665,137.9062785740553L198.98046875,146.9978259909936L199.37942708333333,147.04978503745616L199.79833333333332,150.82592522099884L200.19729166666667,158.40084236369782L200.61619791666666,164.03427257568663L201.01515625,165.77796395840497L201.4340625,153.5394443785303L201.83302083333334,126.34121400912615L202.25192708333336,146.18204541358088L202.65088541666668,146.27659091780407L203.06979166666665,156.8796367123604L203.46875000000003,156.76440508920325L203.88765625,153.38054277102628L204.28661458333332,159.70672910517197L204.70552083333334,142.7243564758318L205.10447916666666,137.57371400361598L205.52338541666666,149.47139737834647L205.92234375,156.45875844962555L206.34125,152.1276879189658L206.74020833333333,147.80286095500387L207.15911458333335,151.13226333182743L207.55807291666667,151.42842941508434L207.9769791666667,157.23217504202407L208.3759375,154.1745005319172L208.79484374999998,162.42597708358653L209.19380208333334,150.95800015590254L209.59276041666666,152.88961755680947L210.01166666666666,160.76858917037302L210.410625,159.97180177881293L210.82953125,162.45199467878652L211.22848958333333,166.29072747206266L211.64739583333335,165.57911533081062L212.04635416666667,161.3275586288619L212.46526041666667,157.3561420068737L212.86421875000002,149.62751986266025L213.28312499999998,157.7954501252225L213.6820833333333,164.15741857262827L214.10098958333333,161.89343031324916L214.49994791666666,146.14665784448803L214.91885416666668,152.9354037383007L215.3178125,154.51510175426915L215.73671875,160.6067008603493L216.13567708333335,154.7220886269357L216.55458333333334,157.81902626270926L216.95354166666667,148.04096866643624L217.3724479166667,149.46653191119876L217.77140625,142.90726980652317L218.19031249999998,154.57687483047624L218.58927083333333,157.9927551464422L219.00817708333332,155.82521544845548L219.40713541666665,159.16831724452328L219.80609375,163.18566855879308L220.225,162.0483094670602L220.62395833333332,164.2438986149729L221.04286458333334,158.15405164588748L221.44182291666667,148.9819770264202L221.8607291666667,147.4099912192784L222.2596875,142.11177208537399L222.67859375,144.67334012750058L223.07755208333336,155.20081185113082L223.49645833333332,157.16978192054012L223.89541666666665,159.53796549111635L224.31432291666667,158.76129758475602L224.71328125,161.79157110414843L225.1321875,161.8566852266037L225.53114583333334,158.17484913305196L225.95005208333333,162.1688597150246L226.34901041666666,166.2583850222479L226.76791666666668,164.37481117234532L227.166875,154.47290122283857L227.58578125000003,153.14806897071654L227.98473958333335,144.7100384413677L228.40364583333331,141.70835838087174L228.80260416666667,150.29438652073551L229.22151041666666,153.49269174458075L229.62046875,156.7155993007185L230.01942708333334,158.23826433229547L230.43833333333333,157.19904121219523L230.83729166666666,149.43484724492023L231.25619791666668,159.37029156155592L231.65515625,156.79821303743626L232.0740625,153.20130705608213L232.47302083333335,150.4314309843595L232.89192708333334,151.00683587339992L233.29088541666664,148.95460891345533L233.70979166666666,152.4368400117556L234.10875,133.32656216051797L234.52765625,150.25434442958658L234.92661458333333,144.94051352122463L235.34552083333332,153.58137856221708L235.74447916666668,154.5162489291005L236.16338541666667,162.69293978992212L236.56234375,152.23269592795273L236.98125000000002,153.87367752346586L237.38020833333334,156.13033213760914L237.79911458333333,154.94842798060236L238.1980729166667,162.74652869485L238.61697916666665,167.70839365872686L239.01593749999998,171.02835843242428L239.43484375,161.97204414825515L239.83380208333332,161.60572660512796L240.23276041666665,160.8220139947901L240.65166666666667,160.3371422306032L241.050625,149.4296099108384L241.46953125000002,154.60029621872675L241.86848958333334,152.93903234410672L242.28739583333333,148.1790496690123L242.6863541666667,145.6233957919941L243.10526041666668,142.2088554915955L243.50421874999998,152.80440495224906L243.923125,157.62055440378907L244.32208333333332,144.31723839150774L244.74098958333332,147.17246629713665L245.13994791666667,149.04460990488832L245.55885416666666,141.81504687215164L245.9578125,151.21628137826812L246.37671875,149.78995280287418L246.77567708333333,158.2654507360888L247.19458333333336,162.3379803647906L247.59354166666668,142.41591006654724L248.01244791666664,124.58590811573403L248.41140625000003,131.72883682625528L248.8303125,146.29011841305137L249.22927083333332,148.3534505370359L249.64817708333334,159.07527442430424L250.04713541666666,147.38680598530155L250.44609375,152.31820523702166L250.865,149.30808472828087L251.26395833333333,148.7919831937856L251.68286458333333,157.36083955834872L252.08182291666668,155.3494601184543L252.50072916666667,162.72856424981126L252.8996875,162.1664578318983L253.31859375000002,160.879635978852L253.71755208333332,161.34191156843886L254.13645833333334,165.190769390418L254.53541666666666,158.81313141463522L254.95432291666665,154.75069003271057L255.35328125,142.98072473712236L255.7721875,153.95209863705102L256.1711458333333,151.58526171345565L256.5900520833333,145.33356554296319L256.98901041666664,156.57503619890525L257.40791666666667,157.826308002316L257.806875,145.52696072690452L258.22578125,153.72509533273112L258.62473958333334,160.47037521014227L259.04364583333336,166.03502455901327L259.4426041666667,163.6539190308958L259.8615104166667,158.2059121211215L260.26046875000003,162.25337031146768L260.65942708333336,165.9736091165487L261.0783333333334,164.9919639942656L261.47729166666664,160.56446914723628L261.89619791666667,151.30775409902347L262.29515625,146.89939916004775L262.7140625,152.51560749279932L263.11302083333334,150.22878812786786L263.53192708333336,143.78436249679075L263.9308854166667,151.76025733950095L264.34979166666665,134.83133742247165L264.74875000000003,146.41710536229368L265.16765625,142.91217141911406L265.5666145833333,131.4898509270577L265.98552083333334,143.80089147390512L266.38447916666667,149.10389717411857L266.8033854166667,159.12964035809608L267.20234375,163.57199280215735L267.62125,134.41967157032695L268.02020833333336,118.37648151927247L268.4391145833333,134.95108016661277L268.83807291666665,136.2048155284178L269.25697916666667,147.86269594744536L269.6559375,140.5675926342187L270.07484375,127.40445994399003L270.47380208333334,144.41609715856322L270.87276041666667,156.1024826189655L271.29166666666663,157.41824876410612L271.690625,156.6722497910648L272.10953125,147.98402582338875L272.5084895833333,147.4067558191287L272.9273958333333,148.69453316364908L273.32635416666665,156.6299395191542L273.74526041666667,155.33812923814267L274.14421875,158.12588758871746" style="fill: none;" fill="none"></path></g></g></g></g><g opacity="0.2"><g><g><g><path stroke="rgb(255, 112, 67)" stroke-width="2px" d="M25.35380208333333,84.10680965943769L25.752760416666668,0.9018696004694248L26.171666666666667,9.412998286160562L26.570625,85.97039625861429L26.989531250000002,-71.55189202048562L27.38848958333333,-82.4582363475453L27.807395833333334,58.67066027901389L28.206354166666667,-11.307245167818952L28.625260416666666,-9.83874346993186L29.02421875,11.715757369995117L29.443125000000002,-2.356207414106882L29.84208333333333,-9.10796070098877L30.260989583333334,12.803153905001547L30.659947916666667,-5.616632288152511L31.89671875,-20.021993116898976L32.29567708333334,0.5643609653819709L32.71458333333334,4.584295359524819L33.11354166666666,-57.466684081337675L33.93140625,-67.30088528719814L34.3503125,33.31916427612305L34.749270833333334,16.770975026217368L35.16817708333333,19.979025754061606L35.567135416666666,36.83107098666105L35.96609375,20.947264584628012L36.385,18.71380571885542L36.78395833333334,-28.55153638666325L37.20286458333334,37.4039180062034L37.60182291666667,25.14109403436835L38.02072916666666,3.7843197909268413L38.419687499999995,35.78486173803155L38.83859375,-12.14386575872249L39.237552083333334,-25.37592601776123L39.65645833333333,47.51865005493164L40.055416666666666,20.417553728277042L40.47432291666667,75.09442832253195L40.87328125,91.92235812273891L41.292187500000004,29.461508404124864L41.69114583333334,69.31184226816352L42.11005208333333,95.23408295891501L42.50901041666667,75.13747241280295L42.92791666666666,123.2130562175404L43.326875,120.94177839972757L43.74578125,118.90417398105969L44.14473958333333,100.7889343175021L44.56364583333333,163.56791132146662L44.962604166666665,135.59642666036433L45.38151041666667,122.06634170358831L45.78046875,147.96900922601873L46.17942708333333,98.74803829193115L46.598333333333336,101.54077876697887L46.99729166666666,135.88334506208247L47.41619791666667,132.15698517452586L47.81515625,132.4494164423509L48.2340625,133.17285255952314L48.63302083333333,150.20248343727806L49.05192708333333,135.71770587834445L49.450885416666665,126.0812427780845L49.869791666666664,142.65083514560354L50.268750000000004,144.8129873709245L50.687656249999996,160.30902483246544L51.08661458333333,161.37145042419434L51.505520833333335,155.18052096800372L51.90447916666666,119.86569148843938L52.32338541666667,153.046803929589L52.72234375,172.8852017250928L53.14125,142.1892390684648L53.54020833333333,127.35313042727383L53.95911458333334,157.45976309342817L54.35807291666667,157.9706603830511L54.77697916666666,142.32819628715515L55.1759375,139.9240840998563L55.594843749999995,142.19648213820025L55.993802083333335,149.34317070787603L56.39276041666667,165.22334406592628L56.81166666666666,173.01022524183446L57.210625,145.21287924593145L57.62953125,172.97056099501523L58.02848958333334,158.4978699250655L58.44739583333333,154.06791179830378L58.846354166666664,156.84020057591525L59.26526041666667,166.4309302893552L59.664218749999996,146.1168204871091L60.083125,164.0085550546646L60.482083333333335,157.53438052264127L60.900989583333335,152.8418918089433L61.29994791666667,162.2157629403201L61.71885416666666,167.42634597691622L62.1178125,170.0627485513687L62.53671875,161.40066439455205L62.93567708333334,170.2868444486098L63.35458333333333,173.4870824055238L63.75354166666666,170.23285327174446L64.17244791666667,152.58482421528208L64.57140625,161.4317946325649L64.9903125,154.65587028590116L65.38927083333333,144.71057159250432L65.80817708333333,161.4052891406146L66.20713541666667,173.62129403244364L66.60609375,160.24420549652794L67.025,154.50613286278465L67.42395833333333,139.469140291214L67.84286458333334,160.64867416295138L68.24182291666666,174.37485717643392L68.66072916666667,167.2762153257023L69.0596875,135.91498361934316L69.47859375,155.68681077523664L69.87755208333334,153.61492070284757L70.29645833333333,158.53073228489268L70.69541666666667,171.44896199486473L71.11432291666667,128.2969085519964L71.51328124999999,160.188255851919L71.9321875,145.0234583941373L72.33114583333334,161.00070346485484L72.75005208333333,164.7502043463967L73.14901041666667,146.77174284241417L73.56791666666668,140.16790853847158L73.966875,161.71128965507853L74.38578125,156.33192352815107L74.78473958333333,159.64219437945974L75.20364583333334,136.83735862645236L75.60260416666667,158.0641489245675L76.02151041666667,170.62936146692797L76.42046875,147.66670313748446L76.81942708333332,141.32722553339872L77.23833333333333,156.79770508679476L77.63729166666667,173.8566074804826L78.05619791666668,165.99730519814923L78.45515625,168.53676266019994L78.8740625,125.51160296526821L79.27302083333333,159.84521133249456L79.69192708333333,165.13934862613678L80.09088541666667,148.83033221418208L80.50979166666667,145.4578545960513L80.90875,142.1541861404072L81.32765624999999,166.24032399871132L81.72661458333333,177.76945915005425L82.14552083333334,165.66201398589394L82.54447916666666,156.64956359429792L82.96338541666667,160.2203547737815L83.36234375000001,166.48336581750348L83.78125000000001,166.3958907885985L84.18020833333333,148.41072522510183L84.59911458333333,168.62726458636197L84.99807291666667,164.22064502672717L85.41697916666666,156.808423909274L85.8159375,169.20147735422307L86.23484375000001,169.25637966936284L86.63380208333332,172.24221048571846L87.03276041666666,115.78191219676624L87.45166666666667,165.99256536093625L87.85062500000001,158.42001459815285L88.26953125,158.52396876161748L88.66848958333334,136.64495307748967L89.08739583333333,171.55870907956904L89.48635416666666,166.2868706963279L89.90526041666666,145.1153356595473L90.30421875,157.49403723803434L90.72312500000001,171.04540063034403L91.12208333333334,160.6473966511813L91.54098958333333,172.44824474508113L91.93994791666667,166.5176936713132L92.35885416666666,153.39377689361572L92.7578125,165.7791077223691L93.17671875,182.88301459225744L93.57567708333333,97.23470475456931L93.99458333333332,178.33778500556946L94.39354166666666,155.6187573779713L94.81244791666667,157.49559864130887L95.21140625,145.8157036737962L95.6303125,161.0424949797717L96.02927083333334,157.91554323109713L96.44817708333335,157.35866702686656L96.84713541666666,164.70776064829394L97.24609375,172.50976480137217L97.665,165.15339741923592L98.06395833333333,175.9461697990244L98.48286458333334,175.9561040834947L98.88182291666668,155.97104755314913L99.30072916666666,156.09848031130704L99.6996875,162.68209501830015L100.11859375,168.89391735467044L100.51755208333333,165.4273623119701L100.93645833333333,162.53111844713038L101.33541666666667,161.61406832391566L101.75432291666667,154.00731630758807L102.15328124999999,172.5447352474386L102.5721875,171.27949794855985L102.97114583333334,153.9332014430653L103.39005208333334,162.11048331043938L103.78901041666667,154.10575376857412L104.20791666666666,164.15934364362195L104.606875,153.4341700510545L105.02578125,167.52928350188515L105.42473958333333,159.31295312534678L105.84364583333334,162.67875545675105L106.24260416666665,156.31579158522865L106.66151041666666,163.32476208426735L107.06046875,164.75580928542396L107.45942708333334,162.45126628875732L107.87833333333333,153.4538506377827L108.27729166666667,170.36671195246956L108.69619791666668,123.08619507876308L109.09515624999999,168.69562681154773L109.5140625,154.2811335000125L109.91302083333333,131.8636293411255L110.33192708333334,148.00716961513865L110.73088541666667,164.1514848362316L111.14979166666667,136.8065870891918L111.54875000000001,163.0269905870611L111.96765624999999,166.29938877712596L112.36661458333333,162.5270250385458L112.78552083333334,150.48640563271263L113.18447916666666,160.27717911113393L113.60338541666667,164.5321066162803L114.00234375000001,166.2943938211961L114.42125,156.01805077899587L114.82020833333333,165.69706307757986L115.23911458333333,157.22093361074275L115.63807291666667,136.28971273248845L116.05697916666668,145.05101121555674L116.45593749999999,154.0145785591819L116.87484375,140.0633252100511L117.27380208333334,137.1466047113592L117.67276041666666,157.28511610898104L118.09166666666667,156.1180573159998L118.49062500000001,130.7076730077917L118.90953124999999,147.5361705910076L119.30848958333333,137.96148842031306L119.72739583333333,169.49734217470342L120.12635416666667,140.88145832581952L120.54526041666666,172.8648037368601L120.94421875,173.66838165846738L121.36312500000001,120.21562229503284L121.76208333333332,164.83715187419546L122.18098958333333,178.822575785897L122.57994791666667,172.78222200003538L122.99885416666667,157.492268670689L123.3978125,147.29989229549062L123.81671875,131.67174170233986L124.21567708333333,155.18681645393372L124.63458333333332,141.5010783889077L125.03354166666666,150.55357282811946L125.45244791666667,151.78655583208257L125.85140625,127.00475718758322L126.2703125,164.56915253942663L126.66927083333333,165.85767277804288L127.08817708333333,144.193781635978L127.48713541666666,172.87355641885236L127.88609375,169.0506216287613L128.305,145.3580475503748L128.70395833333333,140.86712564121592L129.12286458333332,151.22806451537392L129.52182291666668,155.30628490447998L129.94072916666667,165.09025074135172L130.3396875,166.11872444369575L130.75859375,160.6364821737463L131.15755208333334,146.8639039993286L131.57645833333333,155.26979717341337L131.97541666666666,161.68977336450055L132.39432291666668,158.80291901935232L132.79328124999998,159.10369823195717L133.2121875,173.54241055792028L133.61114583333332,174.631974642927L134.03005208333335,152.82072271000254L134.42901041666667,167.39280649748716L134.84791666666666,161.55219532142985L135.24687500000002,161.94182298400185L135.66578125,154.42592200365934L136.06473958333333,164.6991595029831L136.48364583333333,158.0822757807645L136.88260416666668,165.83754909038544L137.30151041666667,169.7399773380973L137.70046875,144.66947637904775L138.09942708333332,172.73490610989657L138.51833333333332,172.15340999039736L138.91729166666667,176.21908352591774L139.33619791666666,164.61046834425494L139.73515625000002,151.13267313350332L140.1540625,166.9024836691943L140.55302083333333,171.90183799917048L140.97192708333333,127.41409037329935L141.37088541666665,156.73597403006121L141.78979166666667,162.36875168843702L142.18875,141.26445098356768L142.60765625000002,162.88835178722036L143.00661458333332,164.33288767121056L143.42552083333334,164.7189302444458L143.82447916666666,164.67387973178518L144.24338541666665,127.70105864784934L144.64234375,171.5981738350608L145.06125,156.9383234544234L145.46020833333333,134.1267433599992L145.87911458333332,145.06418531591243L146.27807291666667,159.09015583992004L146.69697916666667,137.81393389268354L147.0959375,141.8589313030243L147.51484375,144.9513614611192L147.91380208333334,177.11014510826632L148.31276041666666,160.03248381614685L148.73166666666665,165.42196837338534L149.130625,140.31059854680842L149.54953125,166.21691062233666L149.94848958333333,176.9702067375183L150.36739583333335,169.74896787513387L150.76635416666667,171.47848095677116L151.18526041666667,124.5817048332908L151.58421875000002,176.03843070160258L152.003125,166.76650731130078L152.40208333333334,169.73868256265467L152.82098958333336,153.4039125875993L153.21994791666665,176.36720391837034L153.63885416666665,131.662791447206L154.0378125,136.03302493962374L154.45671875,168.8795693245801L154.85567708333332,163.90494616465136L155.27458333333334,175.80033588409424L155.67354166666667,147.45676920630714L156.09244791666666,150.75202066248113L156.49140625,160.54757809638977L156.9103125,141.26194966923106L157.30927083333336,117.79335256056353L157.72817708333335,177.4535809376023L158.12713541666665,163.12278478795832L158.52609375,133.90683486244896L158.945,173.0727600184354L159.34395833333332,172.91578336195514L159.76286458333334,166.16178771582517L160.16182291666667,161.9212350953709L160.58072916666666,163.07616711746562L160.9796875,154.02393930608577L161.39859375,145.19550048221242L161.79755208333333,139.41001413085243L162.21645833333335,154.2987309369174L162.61541666666668,161.98243097825483L163.0343229166667,152.7095408222892L163.43328125,166.0696399862116L163.85218749999999,162.88622068275106L164.25114583333334,151.76880877668208L164.67005208333333,168.9920977787538L165.06901041666666,149.56118403781545L165.48791666666668,166.6917767091231L165.886875,154.73229848254812L166.30578125,156.37420801682904L166.70473958333335,127.79099854555996L167.12364583333334,174.1082446900281L167.52260416666667,146.85358799587596L167.9415104166667,171.65546237338674L168.34046874999999,139.50912295688283L168.7394270833333,163.729783188213L169.15833333333333,161.70349414782092L169.55729166666666,163.58910343863747L169.97619791666668,148.94922520897606L170.37515625,144.69440512223676L170.7940625,153.7589457685297L171.19302083333335,176.6578608642925L171.61192708333334,163.5770342133262L172.01088541666667,135.44086946140635L172.4297916666667,156.44871419126338L172.82875,168.22752808440816L173.24765624999998,170.3641972108321L173.64661458333333,163.39471448551524L174.06552083333332,145.4079625823281L174.46447916666665,168.76720583438873L174.88338541666667,171.8182146874341L175.28234375,148.50460124015808L175.70125000000002,126.38713203776966L176.10020833333334,146.08890321037987L176.51911458333333,146.39325792139226L176.9180729166667,169.36184919964182L177.33697916666668,144.66614640842784L177.7359375,171.12009862336245L178.15484375000003,162.18355276367882L178.55380208333332,153.19999792359093L178.95276041666665,172.73042714595795L179.37166666666667,160.21024977077138L179.770625,156.477145541798L180.18953125,143.8693703738126L180.58848958333334,157.95930088650096L181.00739583333333,173.29156747731295L181.40635416666666,180.47912299633026L181.82526041666668,176.27374414964154L182.22421875,146.55368347601458L182.64312500000003,155.3514198173176L183.04208333333335,161.94130891019648L183.46098958333332,177.159078029069L183.85994791666667,175.06151208010587L184.27885416666666,179.51640470461413L184.6778125,167.27745255556974L185.09671875,176.05838175253436L185.49567708333333,155.48275416547602L185.91458333333333,161.6058450612155L186.31354166666668,168.4406346949664L186.73244791666667,157.2623740976507L187.13140625,144.5264027335427L187.55031250000002,165.40749182484367L187.94927083333334,164.75913925604388L188.3681770833333,134.95976159789345L188.76713541666666,169.43085977164182L189.16609375,162.0420405214483L189.585,155.51215611804616L189.98395833333333,166.46710919250143L190.40286458333333,174.96160528876564L190.80182291666668,161.8346501046961L191.22072916666667,166.64888991009104L191.6196875,158.0149052576585L192.03859375000002,162.47337338057432L192.43755208333334,131.54587418382818L192.8564583333333,58.96032168648459L193.2554166666667,120.760394746607L193.67432291666665,155.70018820329145L194.07328124999998,156.04700003970754L194.4921875,166.32118320465088L194.89114583333333,168.57072989507154L195.31005208333335,170.44536332650617L195.70901041666667,146.66189601204613L196.12791666666666,155.79447854648936L196.52687500000002,151.89787582917646L196.94578125,92.06850086558948L197.34473958333334,162.4560195532712L197.76364583333336,120.54172923348166L198.16260416666665,121.6922954646024L198.58151041666665,151.29403092644432L198.98046875,160.635147116401L199.37942708333333,147.12772360715L199.79833333333332,156.49013549631292L200.19729166666667,169.7632180777463L200.61619791666666,172.48441789366981L201.01515625,168.3935010324825L201.4340625,135.1816650087183L201.83302083333334,85.54386845501986L202.25192708333336,175.943292520263L202.65088541666668,146.41840917413884L203.06979166666665,172.78420540419492L203.46875000000003,156.5915576544675L203.88765625,148.3047492937608L204.28661458333332,169.1960086063905L204.70552083333334,117.2507975318215L205.10447916666666,129.84775029529226L205.52338541666666,167.31792244044217L205.92234375,166.93980005654421L206.34125,145.63108212297612L206.74020833333333,141.31562050906095L207.15911458333335,156.1263668970628L207.55807291666667,151.8726785399697L207.9769791666667,165.93779348243368L208.3759375,149.58798876675692L208.79484374999998,174.8031919110905L209.19380208333334,133.75603476437655L209.59276041666666,155.78704365816984L210.01166666666666,172.58704659071836L210.410625,158.77662069147283L210.82953125,166.17228402874687L211.22848958333333,172.0488266619769L211.64739583333335,164.51169711893255L212.04635416666667,154.95022357593882L212.46526041666667,151.39901707389137L212.86421875000002,138.0345866463401L213.28312499999998,170.04734551906586L213.6820833333333,173.70037124373695L214.10098958333333,158.49744792418048L214.49994791666666,122.52649914134632L214.91885416666668,163.11852257901973L215.3178125,156.88464877822182L215.73671875,169.74409951946953L216.13567708333335,145.89517027681524L216.55458333333334,162.46443271636963L216.95354166666667,133.37388227202675L217.3724479166667,151.60487677834251L217.77140625,133.0683766495098L218.19031249999998,172.08128236640584L218.58927083333333,163.11657562039116L219.00817708333332,152.5739059014754L219.40713541666665,164.18296993862498L219.80609375,169.21169553019783L220.225,160.34227082946083L220.62395833333332,167.53728233684194L221.04286458333334,149.01928119225934L221.44182291666667,135.2238650972193L221.8607291666667,145.05201250856572L222.2596875,134.1644433845173L222.67859375,148.5156921906905L223.07755208333336,170.99201943657616L223.49645833333332,160.12323702465403L223.89541666666665,163.0902408469807L224.31432291666667,157.59629572521555L224.71328125,166.33698138323697L225.1321875,161.95435641028664L225.53114583333334,152.65209499272433L225.95005208333333,168.15987558798358L226.34901041666666,172.39267298308286L226.76791666666668,161.54945039749146L227.166875,139.62003629857844L227.58578125000003,151.16082059253347L227.98473958333335,132.0529926473444L228.40364583333331,137.20583829012784L228.80260416666667,163.17342873053119L229.22151041666666,158.2901495803486L229.62046875,161.54996063492516L230.01942708333334,160.52226187966087L230.43833333333333,155.64020653204486L230.83729166666666,137.78855629400775L231.25619791666668,174.27345803650942L231.65515625,152.94009525125676L232.0740625,147.80594808405095L232.47302083333335,146.27661687677556L232.89192708333334,151.8699432069605L233.29088541666664,145.8762684735385L233.70979166666666,157.66018665920603L234.10875,104.66114538366145L234.52765625,175.64601783318952L234.92661458333333,136.9697671586817L235.34552083333332,166.54267612370577L235.74447916666668,155.9185544794256L236.16338541666667,174.95797608115456L236.56234375,136.54233013499868L236.98125000000002,156.33514991673556L237.38020833333334,159.51531405882403L237.79911458333333,153.1755717450922L238.1980729166667,174.4436797662215L238.61697916666665,175.15119110454214L239.01593749999998,176.0083055929704L239.43484375,148.38757272200152L239.83380208333332,161.0562502904372L240.23276041666665,159.64644507928327L240.65166666666667,159.60983458432284L241.050625,133.06831143119118L241.46953125000002,162.35632568055934L241.86848958333334,150.44713653217661L242.28739583333333,141.03907565637067L242.6863541666667,141.78991497646678L243.10526041666668,137.0870450409976L243.50421874999998,168.6977291432294L243.923125,164.84477858109906L244.32208333333332,124.36226437308572L244.74098958333332,151.45530815558L245.13994791666667,151.85282531651583L245.55885416666666,130.97070232304662L245.9578125,165.31813313744286L246.37671875,147.65045993978327L246.77567708333333,170.97869763591072L247.19458333333336,168.4467748078433L247.59354166666668,112.53280461918224L248.01244791666664,97.84090518951416L248.41140625000003,142.44322989203712L248.8303125,168.1320407932455L249.22927083333332,151.44844872301275L249.64817708333334,175.1580102552067L250.04713541666666,129.85410332679749L250.44609375,159.71530411460182L250.865,144.79290396516973L251.26395833333333,148.01783089204267L251.68286458333333,170.2141241051934L252.08182291666668,152.33239095861262L252.50072916666667,173.7972204468467L252.8996875,161.3232982050289L253.31859375000002,158.94940319928256L253.71755208333332,162.03532495281914L254.13645833333334,170.96405612338674L254.53541666666666,149.24667445096102L254.95432291666665,148.6570279598236L255.35328125,125.32577679374002L255.7721875,170.40915948694402L256.1711458333333,148.03500632806256L256.5900520833333,135.9560212872245L256.98901041666664,173.43724218281832L257.40791666666667,159.70321570743215L257.806875,127.07793981378728L258.22578125,166.02229724147102L258.62473958333334,170.58829502625898L259.04364583333336,174.38199858231977L259.4426041666667,160.08226073871958L259.8615104166667,150.03390175646L260.26046875000003,168.32455759698695L260.65942708333336,171.5539673241702L261.0783333333334,163.51949631084096L261.47729166666664,153.92322687669233L261.89619791666667,137.42268152670428L262.29515625,140.28686675158414L262.7140625,160.9399199919267L263.11302083333334,146.79855908047068L263.53192708333336,134.11772405017507L263.9308854166667,163.72409960356626L264.34979166666665,109.4379575469277L264.74875000000003,163.79575727202675L265.16765625,137.65477050434458L265.5666145833333,114.35637018897317L265.98552083333334,162.26745229417628L266.38447916666667,157.05840572443876L266.8033854166667,174.16825513406232L267.20234375,170.23552146824923L267.62125,90.69118972258136L268.02020833333336,94.31169644269077L268.4391145833333,159.8129781376232L268.83807291666665,138.0854185711254L269.25697916666667,165.34951657598668L269.6559375,129.62493766437876L270.07484375,107.65976090864703L270.47380208333334,169.93355298042297L270.87276041666667,173.6320608095689L271.29166666666663,159.39189798181707L271.690625,155.55325133150274L272.10953125,134.95168987187472L272.5084895833333,146.5408508127386L272.9273958333333,150.62619918042964L273.32635416666665,168.53304905241185L273.74526041666667,153.40041381662542L274.14421875,162.30752511457965" style="fill: none;" fill="none"></path></g></g></g></g></g></g><g transform="translate(30, 177)" clip-path="url(#clip_1)"><clipPath id="clip_1"><rect width="299" height="23"></rect></clipPath><g><g><line x1="0" y1="0" x2="0" y2="5" style="visibility: inherit;" fill="rgb(0, 0, 0)" stroke="rgb(204, 204, 204)" stroke-width="1px"></line><line x1="24.934895833333332" y1="0" x2="24.934895833333332" y2="5" style="visibility: inherit;" fill="rgb(0, 0, 0)" stroke="rgb(204, 204, 204)" stroke-width="1px"></line><line x1="49.869791666666664" y1="0" x2="49.869791666666664" y2="5" style="visibility: inherit;" fill="rgb(0, 0, 0)" stroke="rgb(204, 204, 204)" stroke-width="1px"></line><line x1="74.8046875" y1="0" x2="74.8046875" y2="5" style="visibility: inherit;" fill="rgb(0, 0, 0)" stroke="rgb(204, 204, 204)" stroke-width="1px"></line><line x1="99.73958333333333" y1="0" x2="99.73958333333333" y2="5" style="visibility: inherit;" fill="rgb(0, 0, 0)" stroke="rgb(204, 204, 204)" stroke-width="1px"></line><line x1="124.67447916666667" y1="0" x2="124.67447916666667" y2="5" style="visibility: inherit;" fill="rgb(0, 0, 0)" stroke="rgb(204, 204, 204)" stroke-width="1px"></line><line x1="149.609375" y1="0" x2="149.609375" y2="5" style="visibility: inherit;" fill="rgb(0, 0, 0)" stroke="rgb(204, 204, 204)" stroke-width="1px"></line><line x1="174.54427083333334" y1="0" x2="174.54427083333334" y2="5" style="visibility: inherit;" fill="rgb(0, 0, 0)" stroke="rgb(204, 204, 204)" stroke-width="1px"></line><line x1="199.47916666666666" y1="0" x2="199.47916666666666" y2="5" style="visibility: inherit;" fill="rgb(0, 0, 0)" stroke="rgb(204, 204, 204)" stroke-width="1px"></line><line x1="224.4140625" y1="0" x2="224.4140625" y2="5" style="visibility: inherit;" fill="rgb(0, 0, 0)" stroke="rgb(204, 204, 204)" stroke-width="1px"></line><line x1="249.34895833333334" y1="0" x2="249.34895833333334" y2="5" style="visibility: inherit;" fill="rgb(0, 0, 0)" stroke="rgb(204, 204, 204)" stroke-width="1px"></line><line x1="274.28385416666663" y1="0" x2="274.28385416666663" y2="5" style="visibility: inherit;" fill="rgb(0, 0, 0)" stroke="rgb(204, 204, 204)" stroke-width="1px"></line><line x1="299.21875" y1="0" x2="299.21875" y2="5" style="visibility: inherit;" fill="rgb(0, 0, 0)" stroke="rgb(204, 204, 204)" stroke-width="1px"></line></g><g transform="translate(0, 8)"><text x="0" y="0" dx="0em" dy="0.95em" style="text-anchor: middle; visibility: hidden; font-family: Roboto, sans-serif; font-size: 12px; font-weight: 200;" fill="rgb(33, 33, 33)" stroke="none" stroke-width="1px">-1M</text><text x="24.934895833333332" y="0" dx="0em" dy="0.95em" style="text-anchor: middle; visibility: inherit; font-family: Roboto, sans-serif; font-size: 12px; font-weight: 200;" fill="rgb(33, 33, 33)" stroke="none" stroke-width="1px">0</text><text x="49.869791666666664" y="0" dx="0em" dy="0.95em" style="text-anchor: middle; visibility: inherit; font-family: Roboto, sans-serif; font-size: 12px; font-weight: 200;" fill="rgb(33, 33, 33)" stroke="none" stroke-width="1px">1M</text><text x="74.8046875" y="0" dx="0em" dy="0.95em" style="text-anchor: middle; visibility: inherit; font-family: Roboto, sans-serif; font-size: 12px; font-weight: 200;" fill="rgb(33, 33, 33)" stroke="none" stroke-width="1px">2M</text><text x="99.73958333333333" y="0" dx="0em" dy="0.95em" style="text-anchor: middle; visibility: inherit; font-family: Roboto, sans-serif; font-size: 12px; font-weight: 200;" fill="rgb(33, 33, 33)" stroke="none" stroke-width="1px">3M</text><text x="124.67447916666667" y="0" dx="0em" dy="0.95em" style="text-anchor: middle; visibility: inherit; font-family: Roboto, sans-serif; font-size: 12px; font-weight: 200;" fill="rgb(33, 33, 33)" stroke="none" stroke-width="1px">4M</text><text x="149.609375" y="0" dx="0em" dy="0.95em" style="text-anchor: middle; visibility: inherit; font-family: Roboto, sans-serif; font-size: 12px; font-weight: 200;" fill="rgb(33, 33, 33)" stroke="none" stroke-width="1px">5M</text><text x="174.54427083333334" y="0" dx="0em" dy="0.95em" style="text-anchor: middle; visibility: inherit; font-family: Roboto, sans-serif; font-size: 12px; font-weight: 200;" fill="rgb(33, 33, 33)" stroke="none" stroke-width="1px">6M</text><text x="199.47916666666666" y="0" dx="0em" dy="0.95em" style="text-anchor: middle; visibility: inherit; font-family: Roboto, sans-serif; font-size: 12px; font-weight: 200;" fill="rgb(33, 33, 33)" stroke="none" stroke-width="1px">7M</text><text x="224.4140625" y="0" dx="0em" dy="0.95em" style="text-anchor: middle; visibility: inherit; font-family: Roboto, sans-serif; font-size: 12px; font-weight: 200;" fill="rgb(33, 33, 33)" stroke="none" stroke-width="1px">8M</text><text x="249.34895833333334" y="0" dx="0em" dy="0.95em" style="text-anchor: middle; visibility: inherit; font-family: Roboto, sans-serif; font-size: 12px; font-weight: 200;" fill="rgb(33, 33, 33)" stroke="none" stroke-width="1px">9M</text><text x="274.28385416666663" y="0" dx="0em" dy="0.95em" style="text-anchor: middle; visibility: inherit; font-family: Roboto, sans-serif; font-size: 12px; font-weight: 200;" fill="rgb(33, 33, 33)" stroke="none" stroke-width="1px">10M</text><text x="299.21875" y="0" dx="0em" dy="0.95em" style="text-anchor: middle; visibility: hidden; font-family: Roboto, sans-serif; font-size: 12px; font-weight: 200;" fill="rgb(33, 33, 33)" stroke="none" stroke-width="1px">11M</text></g><line x1="0" y1="0" x2="299.21875" y2="0" fill="rgb(0, 0, 0)" stroke="rgb(204, 204, 204)" stroke-width="1px"></line></g></g></g></g></svg>