<svg viewBox="0 0 330 200" xmlns="http://www.w3.org/2000/svg"><g><g><g><g><g><line x1="30.78125" y1="177" x2="25.78125" y2="177" style="visibility: inherit;" fill="rgb(0, 0, 0)" stroke="rgb(204, 204, 204)" stroke-width="1px"></line><line x1="30.78125" y1="160.9090909090909" x2="25.78125" y2="160.9090909090909" style="visibility: inherit;" fill="rgb(0, 0, 0)" stroke="rgb(204, 204, 204)" stroke-width="1px"></line><line x1="30.78125" y1="144.8181818181818" x2="25.78125" y2="144.8181818181818" style="visibility: inherit;" fill="rgb(0, 0, 0)" stroke="rgb(204, 204, 204)" stroke-width="1px"></line><line x1="30.78125" y1="128.72727272727272" x2="25.78125" y2="128.72727272727272" style="visibility: inherit;" fill="rgb(0, 0, 0)" stroke="rgb(204, 204, 204)" stroke-width="1px"></line><line x1="30.78125" y1="112.63636363636364" x2="25.78125" y2="112.63636363636364" style="visibility: inherit;" fill="rgb(0, 0, 0)" stroke="rgb(204, 204, 204)" stroke-width="1px"></line><line x1="30.78125" y1="96.54545454545453" x2="25.78125" y2="96.54545454545453" style="visibility: inherit;" fill="rgb(0, 0, 0)" stroke="rgb(204, 204, 204)" stroke-width="1px"></line><line x1="30.78125" y1="80.45454545454547" x2="25.78125" y2="80.45454545454547" style="visibility: inherit;" fill="rgb(0, 0, 0)" stroke="rgb(204, 204, 204)" stroke-width="1px"></line><line x1="30.78125" y1="64.36363636363636" x2="25.78125" y2="64.36363636363636" style="visibility: inherit;" fill="rgb(0, 0, 0)" stroke="rgb(204, 204, 204)" stroke-width="1px"></line><line x1="30.78125" y1="48.272727272727266" x2="25.78125" y2="48.272727272727266" style="visibility: inherit;" fill="rgb(0, 0, 0)" stroke="rgb(204, 204, 204)" stroke-width="1px"></line><line x1="30.78125" y1="32.18181818181817" x2="25.78125" y2="32.18181818181817" style="visibility: inherit;" fill="rgb(0, 0, 0)" stroke="rgb(204, 204, 204)" stroke-width="1px"></line><line x1="30.78125" y1="16.090909090909097" x2="25.78125" y2="16.090909090909097" style="visibility: inherit;" fill="rgb(0, 0, 0)" stroke="rgb(204, 204, 204)" stroke-width="1px"></line><line x1="30.78125" y1="0" x2="25.78125" y2="0" style="visibility: inherit;" fill="rgb(0, 0, 0)" stroke="rgb(204, 204, 204)" stroke-width="1px"></line></g><g transform="translate(20.78125, 0)"><text x="0" y="177" dx="0em" dy="0.3em" style="text-anchor: end; visibility: hidden; font-family: Roboto, sans-serif; font-size: 12px; font-weight: 200;" fill="rgb(33, 33, 33)" stroke="none" stroke-width="1px">2</text><text x="0" y="160.9090909090909" dx="0em" dy="0.3em" style="text-anchor: end; visibility: inherit; font-family: Roboto, sans-serif; font-size: 12px; font-weight: 200;" fill="rgb(33, 33, 33)" stroke="none" stroke-width="1px">4</text><text x="0" y="144.8181818181818" dx="0em" dy="0.3em" style="text-anchor: end; visibility: hidden; font-family: Roboto, sans-serif; font-size: 12px; font-weight: 200;" fill="rgb(33, 33, 33)" stroke="none" stroke-width="1px">6</text><text x="0" y="128.72727272727272" dx="0em" dy="0.3em" style="text-anchor: end; visibility: inherit; font-family: Roboto, sans-serif; font-size: 12px; font-weight: 200;" fill="rgb(33, 33, 33)" stroke="none" stroke-width="1px">8</text><text x="0" y="112.63636363636364" dx="0em" dy="0.3em" style="text-anchor: end; visibility: hidden; font-family: Roboto, sans-serif; font-size: 12px; font-weight: 200;" fill="rgb(33, 33, 33)" stroke="none" stroke-width="1px">10</text><text x="0" y="96.54545454545453" dx="0em" dy="0.3em" style="text-anchor: end; visibility: inherit; font-family: Roboto, sans-serif; font-size: 12px; font-weight: 200;" fill="rgb(33, 33, 33)" stroke="none" stroke-width="1px">12</text><text x="0" y="80.45454545454547" dx="0em" dy="0.3em" style="text-anchor: end; visibility: hidden; font-family: Roboto, sans-serif; font-size: 12px; font-weight: 200;" fill="rgb(33, 33, 33)" stroke="none" stroke-width="1px">14</text><text x="0" y="64.36363636363636" dx="0em" dy="0.3em" style="text-anchor: end; visibility: inherit; font-family: Roboto, sans-serif; font-size: 12px; font-weight: 200;" fill="rgb(33, 33, 33)" stroke="none" stroke-width="1px">16</text><text x="0" y="48.272727272727266" dx="0em" dy="0.3em" style="text-anchor: end; visibility: hidden; font-family: Roboto, sans-serif; font-size: 12px; font-weight: 200;" fill="rgb(33, 33, 33)" stroke="none" stroke-width="1px">18</text><text x="0" y="32.18181818181817" dx="0em" dy="0.3em" style="text-anchor: end; visibility: inherit; font-family: Roboto, sans-serif; font-size: 12px; font-weight: 200;" fill="rgb(33, 33, 33)" stroke="none" stroke-width="1px">20</text><text x="0" y="16.090909090909097" dx="0em" dy="0.3em" style="text-anchor: end; visibility: hidden; font-family: Roboto, sans-serif; font-size: 12px; font-weight: 200;" fill="rgb(33, 33, 33)" stroke="none" stroke-width="1px">22</text><text x="0" y="0" dx="0em" dy="0.3em" style="text-anchor: end; visibility: hidden; font-family: Roboto, sans-serif; font-size: 12px; font-weight: 200;" fill="rgb(33, 33, 33)" stroke="none" stroke-width="1px">24</text></g><line x1="30.78125" y1="0" x2="30.78125" y2="177" fill="rgb(0, 0, 0)" stroke="rgb(204, 204, 204)" stroke-width="1px"></line></g></g><g transform="translate(30, 0)" clip-path="url(#clip_0)"><clipPath id="clip_0"><rect width="299" height="177"></rect></clipPath><g><g><g><line x1="0" y1="0" x2="0" y2="177" fill="rgb(0, 0, 0)" stroke="rgb(66, 66, 66)" stroke-width="1px" opacity="0.25"></line><line x1="24.934895833333332" y1="0" x2="24.934895833333332" y2="177" fill="rgb(0, 0, 0)" stroke="rgb(66, 66, 66)" stroke-width="1px" opacity="0.25"></line><line x1="49.869791666666664" y1="0" x2="49.869791666666664" y2="177" fill="rgb(0, 0, 0)" stroke="rgb(66, 66, 66)" stroke-width="1px" opacity="0.25"></line><line x1="74.8046875" y1="0" x2="74.8046875" y2="177" fill="rgb(0, 0, 0)" stroke="rgb(66, 66, 66)" stroke-width="1px" opacity="0.25"></line><line x1="99.73958333333333" y1="0" x2="99.73958333333333" y2="177" fill="rgb(0, 0, 0)" stroke="rgb(66, 66, 66)" stroke-width="1px" opacity="0.25"></line><line x1="124.67447916666667" y1="0" x2="124.67447916666667" y2="177" fill="rgb(0, 0, 0)" stroke="rgb(66, 66, 66)" stroke-width="1px" opacity="0.25"></line><line x1="149.609375" y1="0" x2="149.609375" y2="177" fill="rgb(0, 0, 0)" stroke="rgb(66, 66, 66)" stroke-width="1px" opacity="0.25"></line><line x1="174.54427083333334" y1="0" x2="174.54427083333334" y2="177" fill="rgb(0, 0, 0)" stroke="rgb(66, 66, 66)" stroke-width="1px" opacity="0.25"></line><line x1="199.47916666666666" y1="0" x2="199.47916666666666" y2="177" fill="rgb(0, 0, 0)" stroke="rgb(66, 66, 66)" stroke-width="1px" opacity="0.25"></line><line x1="224.4140625" y1="0" x2="224.4140625" y2="177" fill="rgb(0, 0, 0)" stroke="rgb(66, 66, 66)" stroke-width="1px" opacity="0.25"></line><line x1="249.34895833333334" y1="0" x2="249.34895833333334" y2="177" fill="rgb(0, 0, 0)" stroke="rgb(66, 66, 66)" stroke-width="1px" opacity="0.25"></line><line x1="274.28385416666663" y1="0" x2="274.28385416666663" y2="177" fill="rgb(0, 0, 0)" stroke="rgb(66, 66, 66)" stroke-width="1px" opacity="0.25"></line><line x1="299.21875" y1="0" x2="299.21875" y2="177" fill="rgb(0, 0, 0)" stroke="rgb(66, 66, 66)" stroke-width="1px" opacity="0.25"></line></g><g><line x1="0" y1="177" x2="299.21875" y2="177" fill="rgb(0, 0, 0)" stroke="rgb(66, 66, 66)" stroke-width="1px" opacity="0.25"></line><line x1="0" y1="160.9090909090909" x2="299.21875" y2="160.9090909090909" fill="rgb(0, 0, 0)" stroke="rgb(66, 66, 66)" stroke-width="1px" opacity="0.25"></line><line x1="0" y1="144.8181818181818" x2="299.21875" y2="144.8181818181818" fill="rgb(0, 0, 0)" stroke="rgb(66, 66, 66)" stroke-width="1px" opacity="0.25"></line><line x1="0" y1="128.72727272727272" x2="299.21875" y2="128.72727272727272" fill="rgb(0, 0, 0)" stroke="rgb(66, 66, 66)" stroke-width="1px" opacity="0.25"></line><line x1="0" y1="112.63636363636364" x2="299.21875" y2="112.63636363636364" fill="rgb(0, 0, 0)" stroke="rgb(66, 66, 66)" stroke-width="1px" opacity="0.25"></line><line x1="0" y1="96.54545454545453" x2="299.21875" y2="96.54545454545453" fill="rgb(0, 0, 0)" stroke="rgb(66, 66, 66)" stroke-width="1px" opacity="0.25"></line><line x1="0" y1="80.45454545454547" x2="299.21875" y2="80.45454545454547" fill="rgb(0, 0, 0)" stroke="rgb(66, 66, 66)" stroke-width="1px" opacity="0.25"></line><line x1="0" y1="64.36363636363636" x2="299.21875" y2="64.36363636363636" fill="rgb(0, 0, 0)" stroke="rgb(66, 66, 66)" stroke-width="1px" opacity="0.25"></line><line x1="0" y1="48.272727272727266" x2="299.21875" y2="48.272727272727266" fill="rgb(0, 0, 0)" stroke="rgb(66, 66, 66)" stroke-width="1px" opacity="0.25"></line><line x1="0" y1="32.18181818181817" x2="299.21875" y2="32.18181818181817" fill="rgb(0, 0, 0)" stroke="rgb(66, 66, 66)" stroke-width="1px" opacity="0.25"></line><line x1="0" y1="16.090909090909097" x2="299.21875" y2="16.090909090909097" fill="rgb(0, 0, 0)" stroke="rgb(66, 66, 66)" stroke-width="1px" opacity="0.25"></line><line x1="0" y1="0" x2="299.21875" y2="0" fill="rgb(0, 0, 0)" stroke="rgb(66, 66, 66)" stroke-width="1px" opacity="0.25"></line></g></g></g><g><g><line x1="0" y1="193.09090909090907" x2="299.21875" y2="193.09090909090907" fill="rgb(0, 0, 0)" stroke="rgb(153, 153, 153)" stroke-width="1.5px"></line></g></g><g><g><line x1="24.934895833333332" y1="0" x2="24.934895833333332" y2="177" fill="rgb(0, 0, 0)" stroke="rgb(153, 153, 153)" stroke-width="1.5px"></line></g></g><g><g><g><g><g><path stroke="rgb(255, 112, 67)" stroke-width="2px" d="M25.35380208333333,76.09821497310291L25.752760416666668,45.55837058479135L26.171666666666667,29.10840076860562L26.570625,10.55165599645143L26.989531250000002,-4.139986753238093L38.83859375,-1.8940036650537964L39.237552083333334,6.517343596809888L39.65645833333333,8.976804561305878L40.055416666666666,10.200385466246368L40.47432291666667,16.861648478388165L40.87328125,27.215832736643687L41.292187500000004,37.83689905914909L41.69114583333334,41.49057025923178L42.11005208333333,48.35034215745305L42.50901041666667,57.56326702517591L42.92791666666666,68.33427398830611L43.326875,78.69083225169845L43.74578125,86.14533625444919L44.14473958333333,92.16932311644807L44.56364583333333,93.84738795809676L44.962604166666665,97.63321164384439L45.38151041666667,97.97991224770637L45.78046875,101.62013793161046L46.17942708333333,105.50741673919109L46.598333333333336,105.43309609648192L46.99729166666666,108.08865565718727L47.41619791666667,112.27372747620751L47.81515625,115.42541394752324L48.2340625,117.19639957132306L48.63302083333333,118.58622731187474L49.05192708333333,122.4629897267192L49.450885416666665,126.17261467357275L49.869791666666664,129.8757656345465L50.268750000000004,130.28069687337594L50.687656249999996,133.10533119817222L51.08661458333333,134.50082109265767L51.505520833333335,135.3326443633305L51.90447916666666,136.2735210776846L52.32338541666667,138.19569761170973L52.72234375,140.02708376145057L53.14125,141.39742468251563L53.54020833333333,141.11584065122582L53.95911458333334,142.6120520154969L54.35807291666667,145.4646373191947L54.77697916666666,145.72617504593578L55.1759375,144.3239195030198L55.594843749999995,144.05485001744964L55.993802083333335,144.9857629878757L56.39276041666667,148.74183602862905L56.81166666666666,148.82330318855526L57.210625,147.8483755774065L57.62953125,150.33315472849068L58.02848958333334,151.5513359890886L58.44739583333333,151.86062135941108L58.846354166666664,154.94048334962105L59.26526041666667,155.70182192318313L59.664218749999996,156.96374904671552L60.083125,154.8833406790558L60.482083333333335,151.98850037980677L60.900989583333335,150.40520452240088L61.29994791666667,152.22960814268413L61.71885416666666,153.3799697771621L62.1178125,154.9931287806927L62.53671875,155.6679054371806L62.93567708333334,155.48292775043146L63.35458333333333,156.8696637120958L63.75354166666666,158.32080820927987L64.17244791666667,157.61332515425553L64.57140625,158.76315949560174L64.9903125,155.5137969299938L65.38927083333333,155.39418699574816L65.80817708333333,154.38606245331104L66.20713541666667,154.0755525270015L66.60609375,153.11727344679838L67.025,154.64864285239742L67.42395833333333,153.0731875993668L67.84286458333334,152.5462876594958L68.24182291666666,155.18888490419968L68.66072916666667,155.5864386359319L69.0596875,155.69283549240564L69.47859375,155.22307266905344L69.87755208333334,152.8002126668035L70.29645833333333,154.66899863695843L70.69541666666667,156.30098950102825L71.11432291666667,151.47522271090415L71.51328124999999,149.68700088617496L71.9321875,146.09573377540448L72.33114583333334,148.12464731556616L72.75005208333333,147.70413174295797L73.14901041666667,147.25251982142063L73.56791666666668,147.47030488622454L73.966875,147.86585283696377L74.38578125,148.83028452863311L74.78473958333333,149.39678071085442L75.20364583333334,153.03487314071552L75.60260416666667,152.0855597681074L76.02151041666667,152.95464948897447L76.42046875,151.1471540954621L76.81942708333332,148.77959923037628L77.23833333333333,149.67622866900192L77.63729166666667,151.43086097098788L78.05619791666668,150.77415313072174L78.45515625,153.09141198896214L78.8740625,152.32212022929372L79.27302083333333,151.1368704340018L79.69192708333333,150.32214465960982L80.09088541666667,149.1305703030263L80.50979166666667,152.6682467675674L80.90875,151.95550082369908L81.32765624999999,154.12863090075518L81.72661458333333,154.170565173199L82.14552083333334,154.71772088228968L82.54447916666666,152.52747619683763L82.96338541666667,153.01867372441694L83.36234375000001,154.47055856592678L83.78125000000001,153.20173219024022L84.18020833333333,152.69809629427718L84.59911458333333,155.16884420838173L84.99807291666667,155.77383188756397L85.41697916666666,152.62591217207532L85.8159375,149.99070676279274L86.23484375000001,153.40961419952689L86.63380208333332,154.85377304637464L87.03276041666666,152.21581034320286L87.45166666666667,148.99778543008165L87.85062500000001,149.6570124230714L88.26953125,151.44702829242428L88.66848958333334,151.07620959852363L89.08739583333333,154.5807964385187L89.48635416666666,153.2796479712128L89.90526041666666,151.62872861489487L90.30421875,149.05159945559132L90.72312500000001,151.60689894718902L91.12208333333334,152.817122132124L91.54098958333333,153.4696422087039L91.93994791666667,149.37175078140464L92.35885416666666,150.69021847920766L92.7578125,152.13575648494668L93.17671875,155.48713762516823L93.57567708333333,154.2878945808549L93.99458333333332,152.86941093938097L94.39354166666666,151.8933854743036L94.81244791666667,153.27001753225173L95.21140625,154.78327661563955L95.6303125,153.746592140149L96.02927083333334,152.92707583337804L96.44817708333335,156.43258835582714L96.84713541666666,158.05184781052665L97.24609375,157.2232090898416L97.665,153.93019633590458L98.06395833333333,151.81999904897648L98.48286458333334,151.55857578020488L98.88182291666668,150.23257220339403L99.30072916666666,148.46909338022792L99.6996875,149.40454287076037L100.11859375,152.45683314918628L100.51755208333333,151.54020660774853L100.93645833333333,153.73453773272385L101.33541666666667,154.02640316775486L101.75432291666667,155.09532030322416L102.15328124999999,156.29788572510856L102.5721875,155.14148421077758L102.97114583333334,153.78093254396975L103.39005208333334,152.56985117420624L103.78901041666667,150.27839237975846L104.20791666666666,151.89786658276506L104.606875,154.9658013698639L105.02578125,153.96438935067977L105.42473958333333,153.51994487444594L105.84364583333334,150.98866798487597L106.24260416666665,149.76790966883587L106.66151041666666,153.53942255391215L107.06046875,155.04109593215253L107.45942708333334,154.11420542749997L107.87833333333333,154.73519425515997L108.27729166666667,155.16910504762225L108.69619791666668,153.20473037746973L109.09515624999999,153.299787111966L109.5140625,156.66012208390075L109.91302083333333,156.46769396608863L110.33192708333334,156.8608954785107L110.73088541666667,154.91094847817976L111.14979166666667,152.77785302904374L111.54875000000001,152.73707782722516L111.96765624999999,153.26926409898402L112.36661458333333,151.4663349458739L112.78552083333334,152.14775699897686L113.18447916666666,153.47327901870818L113.60338541666667,151.71756772423817L114.00234375000001,150.58307994846612L114.42125,146.96176695600707L114.82020833333333,149.4972813983024L115.23911458333333,152.96057982364496L115.63807291666667,153.8931487312703L116.05697916666668,155.69397728995122L116.45593749999999,155.75577963423297L116.87484375,155.8995858318953L117.27380208333334,152.43427941127706L117.67276041666666,151.74963661441205L118.09166666666667,152.1575664132828L118.49062500000001,153.24746623228864L118.90953124999999,149.94673148095586L119.30848958333333,149.61647214905773L119.72739583333333,146.87957610573545L120.12635416666667,150.47435437156284L120.54526041666666,153.41437364255773L120.94421875,156.17271596680405L121.36312500000001,154.43603733203278L121.76208333333332,153.5889976291419L122.18098958333333,156.8939400442848L122.57994791666667,157.2176670682024L122.99885416666667,151.68741217183796L123.3978125,151.81450821930983L123.81671875,153.37020427407083L124.21567708333333,154.50907495598025L124.63458333333332,154.702649225311L125.03354166666666,153.42488803455404L125.45244791666667,150.75530349659968L125.85140625,151.70376396933932L126.2703125,151.3369466393412L126.66927083333333,153.80602388827057L127.08817708333333,154.33112722837305L127.48713541666666,155.43434724170356L127.88609375,155.96940123088916L128.305,157.09114731091012L128.70395833333333,151.7070520596695L129.12286458333332,147.78902042696106L129.52182291666668,150.59496018923494L129.94072916666667,152.0936308806641L130.3396875,153.62306783177925L130.75859375,153.70351554120845L131.15755208333334,152.27768290087198L131.57645833333333,151.7135849023357L131.97541666666666,150.55613747656045L132.39432291666668,152.36203040297286L132.79328124999998,151.7180571977496L133.2121875,153.89953484896205L133.61114583333332,154.26591085217063L134.03005208333335,155.32295244988438L134.42901041666667,152.958046275173L134.84791666666666,152.50196741146056L135.24687500000002,152.52890288360783L135.66578125,152.23494876016625L136.06473958333333,154.56571883856378L136.48364583333333,156.45325842764723L136.88260416666668,152.6299219477904L137.30151041666667,153.19419190144566L137.70046875,151.64267175707835L138.09942708333332,155.5242385812509L138.51833333333332,156.70474623456317L138.91729166666667,158.09687026791244L139.33619791666666,152.51382274030402L139.73515625000002,153.41565160566367L140.1540625,153.53803504312677L140.55302083333333,154.56565667762055L140.97192708333333,154.89398924291712L141.37088541666665,155.0669055752247L141.78979166666667,153.65196933147683L142.18875,153.15533689139707L142.60765625000002,154.09186807451607L143.00661458333332,153.8557723689933L143.42552083333334,153.0568324545159L143.82447916666666,154.07269590340135L144.24338541666665,152.37807993328724L144.64234375,153.8724642139119L145.06125,154.3413869107629L145.46020833333333,153.7505843943548L145.87911458333332,150.56090451678423L146.27807291666667,151.98960140369624L146.69697916666667,152.8937997434601L147.0959375,151.70246442748586L147.51484375,152.45935833157642L147.91380208333334,153.57910669539027L148.31276041666666,154.84533858929447L148.73166666666665,152.76170942077752L149.130625,152.1610173690248L149.54953125,152.0032607738929L149.94848958333333,154.23212527509347L150.36739583333335,155.84003861602542L150.76635416666667,156.79310410153886L151.18526041666667,152.66968021514862L151.58421875000002,151.7748268533573L152.003125,154.44574765821523L152.40208333333334,152.54194542769005L152.82098958333336,153.2982767620073L153.21994791666665,156.4710234283439L153.63885416666665,153.89576350054608L154.0378125,150.55674162908906L154.45671875,151.28026446507718L154.85567708333332,151.16215701583832L155.27458333333334,151.19984038121152L155.67354166666667,149.60476908787442L156.09244791666666,149.50429910461895L156.49140625,149.81665924161604L156.9103125,151.28563983693408L157.30927083333336,151.3429126403557L157.72817708333335,153.97409022656404L158.12713541666665,154.7107745760574L158.52609375,156.16741035360008L158.945,156.23306063400452L159.34395833333332,155.35977491002419L159.76286458333334,154.48987784107845L160.16182291666667,153.737872389947L160.58072916666666,151.92403900341236L160.9796875,155.01386691921218L161.39859375,152.82299874247522L161.79755208333333,152.8083096169534L162.21645833333335,152.48869479165364L162.61541666666668,150.3267894447526L163.0343229166667,149.98682097124777L163.43328125,154.41588555618034L163.85218749999999,155.23130655683332L164.25114583333334,154.96016880618973L164.67005208333333,156.14581734712658L165.06901041666666,156.3236822618859L165.48791666666668,154.82988075598797L165.886875,154.3766470725059L166.30578125,150.51813822075408L166.70473958333335,147.16147794719797L167.12364583333334,152.043416659593L167.52260416666667,150.71886314078642L167.9415104166667,153.6677745387604L168.34046874999999,151.43738778213017L168.7394270833333,149.84063952054376L169.15833333333333,151.39629791527648L169.55729166666666,154.75294786683335L169.97619791666668,152.97827373954803L170.37515625,152.47089867220393L170.7940625,149.92924744903326L171.19302083333335,151.35546389342008L171.61192708333334,149.96123082330402L172.01088541666667,152.10147448225257L172.4297916666667,154.58309192347406L172.82875,155.33190506142196L173.24765624999998,158.07580664367026L173.64661458333333,158.79664901208662L174.06552083333332,157.79699698601507L174.46447916666665,158.63179854623718L174.88338541666667,159.95451623136057L175.28234375,159.44511706248022L175.70125000000002,153.63661824614678L176.10020833333334,148.10782698309401L176.51911458333333,147.36661289316731L176.9180729166667,150.01187926856252L177.33697916666668,149.6931848859805L177.7359375,147.33033789123294L178.15484375000003,151.5737285994276L178.55380208333332,153.9352089936659L178.95276041666665,156.3559882300896L179.37166666666667,157.1341044958929L179.770625,154.92938946713912L180.18953125,153.1762499838141L180.58848958333334,141.6088147354112L181.00739583333333,140.83779475749537L181.40635416666666,146.45532395095773L181.82526041666668,150.75102853458722L182.22421875,150.84512646225235L182.64312500000003,149.8762197448441L183.04208333333335,154.93569402418308L183.46098958333332,155.84396164294776L183.85994791666667,154.83097013963553L184.27885416666666,155.76346465699575L184.6778125,156.88930343513042L185.09671875,155.02298795319027L185.49567708333333,151.11156459857156L185.91458333333333,150.12703379192158L186.31354166666668,153.70493672662445L186.73244791666667,153.54329528272595L187.13140625,153.74331770835406L187.55031250000002,152.8024577679845L187.94927083333334,152.37570130721403L188.3681770833333,150.50234822081023L188.76713541666666,151.7715064569557L189.16609375,152.51244765372L189.585,152.6924699915323L189.98395833333333,151.20987765844086L190.40286458333333,151.9795591492055L190.80182291666668,153.5218683169353L191.22072916666667,152.20622502319785L191.6196875,154.4162510027021L192.03859375000002,154.38479869628404L192.43755208333334,156.53239085225027L192.8564583333333,147.9645875916835L193.2554166666667,141.1562471416079L193.67432291666665,142.86658562904768L194.07328124999998,145.42892411760192L194.4921875,147.0681276351369L194.89114583333333,148.35123661394402L195.31005208333335,149.58905034259791L195.70901041666667,153.27252003439676L196.12791666666666,145.6086573675397L196.52687500000002,140.97712139230615L196.94578125,140.9186139341691L197.34473958333334,142.42170115059878L197.76364583333336,146.97652664683565L198.16260416666665,151.53089438997907L198.58151041666665,148.37641240594343L198.98046875,146.88925072052973L199.37942708333333,148.07720477011412L199.79833333333332,149.62670367462673L200.19729166666667,149.70448604526067L200.61619791666666,150.3505992847797L201.01515625,151.33152681447854L201.4340625,150.49531320248718L201.83302083333334,149.6063232631366L202.25192708333336,152.22935320637274L202.65088541666668,153.4969228282398L203.06979166666665,150.2793696767801L203.46875000000003,150.41083385572568L203.88765625,151.0895643701787L204.28661458333332,150.53522532407254L204.70552083333334,149.72732153234804L205.10447916666666,153.2715076412272L205.52338541666666,153.01058843060315L205.92234375,151.91522150991383L206.34125,152.1770579031046L206.74020833333333,152.3135538194412L207.15911458333335,151.19284552353173L207.55807291666667,153.3307607597617L207.9769791666667,153.2321705682255L208.3759375,153.71105683985053L208.79484374999998,153.10193135552498L209.19380208333334,152.81097221393034L209.59276041666666,152.11464864568552L210.01166666666666,154.3836175138967L210.410625,154.35832387581405L210.82953125,153.91474927453794L211.22848958333333,154.3843714968045L211.64739583333335,157.12806346596628L212.04635416666667,156.61637558741725L212.46526041666667,157.71597621020237L212.86421875000002,156.0045795965965L213.28312499999998,155.35261959279953L213.6820833333333,156.45829147149172L214.10098958333333,156.12025120395938L214.49994791666666,154.38511727719074L214.91885416666668,153.18053843279006L215.3178125,153.79226227386027L215.73671875,155.72776798422527L216.13567708333335,155.9632950762019L216.55458333333334,153.876119799669L216.95354166666667,149.65562000165255L217.3724479166667,150.6820720007141L217.77140625,153.32160010593216L218.19031249999998,156.51138711909158L218.58927083333333,157.24415174090686L219.00817708333332,156.74438743840673L219.40713541666665,155.17639778286826L219.80609375,154.17575045311276L220.225,153.5871995637211L220.62395833333332,155.78729101009435L221.04286458333334,156.85834080298375L221.44182291666667,154.56625682956303L221.8607291666667,152.39006104215144L222.2596875,153.6901192381088L222.67859375,155.02623162732962L223.07755208333336,155.19507727554216L223.49645833333332,156.4571096078041L223.89541666666665,152.07736133949493L224.31432291666667,156.5194236417152L224.71328125,155.14855555499096L225.1321875,155.66146801268485L225.53114583333334,155.7876292737558L225.95005208333333,154.09536329721635L226.34901041666666,149.5941751208996L226.76791666666668,145.04519194623583L227.166875,144.28795795921212L227.58578125000003,145.8405371504052L227.98473958333335,146.90651880159842L228.40364583333331,147.5030667711407L228.80260416666667,147.15345812721802L229.22151041666666,148.43894949486108L229.62046875,152.52609708755276L230.01942708333334,151.66654111219518L230.43833333333333,150.5037543372695L230.83729166666666,149.13220670635172L231.25619791666668,147.69283918411156L231.65515625,150.64834816378726L232.0740625,149.1470893460762L232.47302083333335,151.3311405757382L232.89192708333334,153.71354870347793L233.29088541666664,152.5944320244327L233.70979166666666,152.85519112841695L234.10875,150.86349635485112L234.52765625,152.19510160402618L234.92661458333333,152.9126032372376L235.34552083333332,149.49496101238873L235.74447916666668,153.75125563138397L236.16338541666667,155.79792698292863L236.56234375,150.28149476959393L236.98125000000002,147.33417103098466L237.38020833333334,151.41212947773553L237.79911458333333,153.80265106053992L238.1980729166667,153.71481755983302L238.61697916666665,151.37856939040864L239.01593749999998,153.45608581447368L239.43484375,153.46527372857733L239.83380208333332,149.51029742938218L240.23276041666665,148.09277075908471L240.65166666666667,149.31868018789768L241.050625,149.4411905304521L241.46953125000002,152.45073643519245L241.86848958333334,152.88309969421482L242.28739583333333,149.27918394754087L242.6863541666667,149.32892937868687L243.10526041666668,146.05913176835037L243.50421874999998,150.34360748730194L243.923125,150.1535017469921L244.32208333333332,149.3559411166656L244.74098958333332,148.01020366161535L245.13994791666667,147.7360981834499L245.55885416666666,150.12379189977997L245.9578125,150.83302035068897L246.37671875,149.29297397542524L246.77567708333333,149.3638063312085L247.19458333333336,147.0226652039486L247.59354166666668,141.09909377069567L248.01244791666664,138.72174411323084L248.41140625000003,143.05374662787835L248.8303125,147.23393685591347L249.22927083333332,150.89425612183777L249.64817708333334,153.74027380055517L250.04713541666666,151.36045595936864L250.44609375,146.95459247841714L250.865,148.63713436416987L251.26395833333333,151.40753568303273L251.68286458333333,152.04122067365242L252.08182291666668,151.16085517710184L252.50072916666667,149.64623413051424L252.8996875,152.14109352784692L253.31859375000002,151.81975773850934L253.71755208333332,152.30343595996683L254.13645833333334,150.93905108105434L254.53541666666666,150.7558675518059L254.95432291666665,152.54718037418155L255.35328125,153.63898467783923L255.7721875,150.72208910715187L256.1711458333333,148.3283313604093L256.5900520833333,146.91472511622504L256.98901041666664,146.31629228617123L257.40791666666667,147.95483439200527L257.806875,147.3236835064495L258.22578125,150.59018137607816L258.62473958333334,151.95330792995597L259.04364583333336,150.90701260006176L259.4426041666667,148.05364723649524L259.8615104166667,150.35448047037337L260.26046875000003,150.14594912185973L260.65942708333336,149.64965214523497L261.0783333333334,152.41904237710403L261.47729166666664,150.45140752319455L261.89619791666667,149.4129488361768L262.29515625,148.03032880924948L262.7140625,150.45829364653656L263.11302083333334,153.1533290293859L263.53192708333336,150.33647596412092L263.9308854166667,150.4999454667921L264.34979166666665,146.98676303494142L264.74875000000003,145.86904719425866L265.16765625,149.29908775876322L265.5666145833333,148.67857733829126L265.98552083333334,151.46850325958098L266.38447916666667,149.7681704267902L266.8033854166667,148.8479112785267L267.20234375,152.19574372125368L267.62125,150.44467617472716L268.02020833333336,151.4420627200646L268.4391145833333,151.81129906114919L268.83807291666665,152.0405504383319L269.25697916666667,153.1931960043821L269.6559375,153.688978002465L270.07484375,151.83964583364175L270.47380208333334,151.34110995203665L270.87276041666667,154.46337057285663L271.29166666666663,155.14509619174476L271.690625,154.61155345541718L272.10953125,152.31184928391593L272.5084895833333,149.8537362578329L272.9273958333333,151.01379439717522L273.32635416666665,150.61064894651602L273.74526041666667,150.7748462222964L274.14421875,151.8465661487387" style="fill: none;" fill="none"></path></g></g></g></g><g opacity="0.2"><g><g><g><path stroke="rgb(255, 112, 67)" stroke-width="2px" d="M25.35380208333333,76.09821497310291L25.752760416666668,27.23446395180442L26.171666666666667,13.316429745067248L26.570625,-11.271075855601936L38.02072916666666,-6.460035584189671L38.419687499999995,3.964613914489746L38.83859375,2.2253717942671414L39.237552083333334,19.134364128112793L39.65645833333333,12.665995944630017L40.055416666666666,12.035756804726343L40.47432291666667,26.853542934764512L40.87328125,42.74710906635631L41.292187500000004,53.768498507413L41.69114583333334,46.9710770520297L42.11005208333333,58.63999999653209L42.50901041666667,71.38265432010998L42.92791666666666,84.4907844283364L43.326875,94.22566964409567L43.74578125,97.32709225741299L44.14473958333333,101.20530340888284L44.56364583333333,96.36448522047564L44.962604166666665,103.31194717233831L45.38151041666667,98.49996315349232L45.78046875,107.08047645742244L46.17942708333333,111.33833495053379L46.598333333333336,105.32161513241856L46.99729166666666,112.07199499823831L47.41619791666667,118.55133520473133L47.81515625,120.15294365449384L48.2340625,119.85287800702183L48.63302083333333,120.67096892270176L49.05192708333333,128.27813334898516L49.450885416666665,131.73705209385264L49.869791666666664,135.4304920760068L50.268750000000004,130.8880937316201L50.687656249999996,137.34228268536654L51.08661458333333,136.5940559343858L51.505520833333335,136.58037926933983L51.90447916666666,137.6848361492157L52.32338541666667,141.07896241274747L52.72234375,142.77416298606178L53.14125,143.45293606411326L53.54020833333333,140.69346460429105L53.95911458333334,144.8563690619035L54.35807291666667,149.74351527474144L54.77697916666666,146.11848163604736L55.1759375,142.2205361886458L55.594843749999995,143.65124578909442L55.993802083333335,146.38213244351473L56.39276041666667,154.37594558975914L56.81166666666666,148.9455039284446L57.210625,146.38598416068336L57.62953125,154.06032345511696L58.02848958333334,153.37860787998545L58.44739583333333,152.3245494148948L58.846354166666664,159.56027633493596L59.26526041666667,156.84382978352633L59.664218749999996,158.85663973201406L60.083125,151.76272812756625L60.482083333333335,147.64623993093318L60.900989583333335,148.03026073629206L61.29994791666667,154.96621357310903L61.71885416666666,155.10551222887906L62.1178125,157.41286728598854L62.53671875,156.68007042191246L62.93567708333334,155.2054612203078L63.35458333333333,158.94976765459234L63.75354166666666,160.49752495505592L64.17244791666667,156.55210057171908L64.57140625,160.48791100762108L64.9903125,150.6397530815818L65.38927083333333,155.21477209437978L65.80817708333333,152.87387563965538L66.20713541666667,153.60978763753718L66.60609375,151.6798548264937L67.025,156.945696960796L67.42395833333333,150.7100047198209L67.84286458333334,151.75593774968928L68.24182291666666,159.1527807712555L68.66072916666667,156.18276923353022L69.0596875,155.85243077711627L69.47859375,154.51842843402517L69.87755208333334,149.16592266342857L70.29645833333333,157.47217759219083L70.69541666666667,158.748975797133L71.11432291666667,144.236572525718L71.51328124999999,147.00466814908114L71.9321875,140.70883310924876L72.33114583333334,151.16801762580872L72.75005208333333,147.0733583840457L73.14901041666667,146.57510193911466L73.56791666666668,147.79698248343036L73.966875,148.4591747630726L74.38578125,150.27693206613714L74.78473958333333,150.24652498418635L75.20364583333334,158.4920117855072L75.60260416666667,150.66158970919523L76.02151041666667,154.25828407027504L76.42046875,148.43591100519353L76.81942708333332,145.22826693274757L77.23833333333333,151.02117282694036L77.63729166666667,154.06280942396685L78.05619791666668,149.7890913703225L78.45515625,156.5673002763228L78.8740625,151.16818258979103L79.27302083333333,149.3589957410639L79.69192708333333,149.1000559980219L80.09088541666667,147.34320876815102L80.50979166666667,157.97476146437904L80.90875,150.88638190789655L81.32765624999999,157.3883260163394L81.72661458333333,154.2334665818648L82.14552083333334,155.53845444592562L82.54447916666666,149.24210916865957L82.96338541666667,153.7554700157859L83.36234375000001,156.64838582819158L83.78125000000001,151.29849262671038L84.18020833333333,151.94264245033264L84.59911458333333,158.87496607953852L84.99807291666667,156.68131340633738L85.41697916666666,147.90403259884226L85.8159375,146.03789864886892L86.23484375000001,158.53797535462812L86.63380208333332,157.02001131664622L87.03276041666666,148.2588662884452L87.45166666666667,144.17074806039983L87.85062500000001,150.64585291255605L88.26953125,154.13205209645358L88.66848958333334,150.51998155767268L89.08739583333333,159.8376766985113L89.48635416666666,151.32792527025396L89.90526041666666,149.152349580418L90.30421875,145.18590571663597L90.72312500000001,155.43984818458557L91.12208333333334,154.63245690952647L91.54098958333333,154.4484223235737L91.93994791666667,143.22491364045575L92.35885416666666,152.6679200259122L92.7578125,154.30406349355525L93.17671875,160.51420933550054L93.57567708333333,152.48903001438487L93.99458333333332,150.74168547717008L94.39354166666666,150.42934727668762L94.81244791666667,155.33496561917391L95.21140625,157.05316524072126L95.6303125,152.19156542691317L96.02927083333334,151.69780137322167L96.44817708333335,161.6908571395007L96.84713541666666,160.4807369925759L97.24609375,155.98025100881404L97.665,148.99067720499906L98.06395833333333,148.65470311858437L98.48286458333334,151.16644087704745L98.88182291666668,148.24356683817777L99.30072916666666,145.8238751454787L99.6996875,150.80771710655907L100.11859375,157.03526856682518L100.51755208333333,150.16526679559186L100.93645833333333,157.02603442018682L101.33541666666667,154.4642013203014L101.75432291666667,156.69869600642812L102.15328124999999,158.10173385793513L102.5721875,153.4068819392811L102.97114583333334,151.74010504375804L103.39005208333334,150.75322911956093L103.78901041666667,146.84120418808678L104.20791666666666,154.327077887275L104.606875,159.56770355051214L105.02578125,152.4622713219036L105.42473958333333,152.85327816009521L105.84364583333334,147.191752650521L106.24260416666665,147.93677219477567L106.66151041666666,159.1966918815266L107.06046875,157.29360599951312L107.45942708333334,152.72386967052114L107.87833333333333,155.66667749665L108.27729166666667,155.81997123631564L108.69619791666668,150.25816837224093L109.09515624999999,153.44237221371043L109.5140625,161.70062454180285L109.91302083333333,156.17905178937045L110.33192708333334,157.45069774714383L110.73088541666667,151.98602797768334L111.14979166666667,149.57820985533974L111.54875000000001,152.6759150244973L111.96765624999999,154.06754350662231L112.36661458333333,148.76194121620873L112.78552083333334,153.1698900786313L113.18447916666666,155.46156204830515L113.60338541666667,149.08400078253314L114.00234375000001,148.88134828480807L114.42125,141.52979746731845L114.82020833333333,153.30055306174538L115.23911458333333,158.15552746165883L115.63807291666667,155.29200209270823L116.05697916666668,158.3952201279727L116.45593749999999,155.84848315065557L116.87484375,156.11529512838885L117.27380208333334,147.23631978034973L117.67276041666666,150.72267241911456L118.09166666666667,152.76946111158892L118.49062500000001,154.8823159607974L118.90953124999999,144.99562935395673L119.30848958333333,149.12108315121043L119.72739583333333,142.77423204075205L120.12635416666667,155.8665217703039L120.54526041666666,157.82440254905006L120.94421875,160.31022945317355L121.36312500000001,151.83101937987587L121.76208333333332,152.31843807480553L122.18098958333333,161.85135366699913L122.57994791666667,157.7032576040788L122.99885416666667,143.3920298272913L123.3978125,152.00515229051763L123.81671875,155.70374835621226L124.21567708333333,156.21738097884437L124.63458333333332,154.99301062930715L125.03354166666666,151.50824624841863L125.45244791666667,146.75092668966815L125.85140625,153.12645467844877L126.2703125,150.78672064434397L126.66927083333333,157.50963976166466L127.08817708333333,155.1187822385268L127.48713541666666,157.08917726169932L127.88609375,156.7719822146676L128.305,158.7737664309415L128.70395833333333,143.6309091828086L129.12286458333332,141.91197297789833L129.52182291666668,154.80386983264577L129.94072916666667,154.34163691780785L130.3396875,155.91722325845197L130.75859375,153.82418710535222L131.15755208333334,150.13893394036725L131.57645833333333,150.8674379045313L131.97541666666666,148.81996633789757L132.39432291666668,155.07086979259145L132.79328124999998,150.75209738991478L133.2121875,157.1717513257807L133.61114583333332,154.81547485698354L134.03005208333335,156.90851484645498L134.42901041666667,149.4106870131059L134.84791666666666,151.8178491158919L135.24687500000002,152.5693060918288L135.66578125,151.7940175750039L136.06473958333333,158.0618739561601L136.48364583333333,159.28456781127235L136.88260416666668,146.89491722800514L137.30151041666667,154.0405968319286L137.70046875,149.31539154052734L138.09942708333332,161.34658881750974L138.51833333333332,158.47550771453163L138.91729166666667,160.1850563179363L139.33619791666666,144.13925144889137L139.73515625000002,154.76839490370318L140.1540625,153.7216101993214L140.55302083333333,156.10708912936124L140.97192708333333,155.38648809086192L141.37088541666665,155.3262800736861L141.78979166666667,151.529564965855L142.18875,152.41038823127747L142.60765625000002,155.49666484919462L143.00661458333332,153.50162881070918L143.42552083333334,151.85842258279973L143.82447916666666,155.5964910767295L144.24338541666665,149.83615597811612L144.64234375,156.11404063484886L145.06125,155.04477095603943L145.46020833333333,152.86438061974266L145.87911458333332,145.77638470042837L146.27807291666667,154.13264673406428L146.69697916666667,154.25009725310585L147.0959375,149.9154614535245L147.51484375,153.59469918771222L147.91380208333334,155.25872924111107L148.31276041666666,156.7446864301508L148.73166666666665,149.63626566800204L149.130625,151.2599792913957L149.54953125,151.76662588119507L149.94848958333333,157.5754220268943L150.36739583333335,158.25190862742338L150.76635416666667,158.222702329809L151.18526041666667,146.48454438556325L151.58421875000002,150.43254681067035L152.003125,158.4521288655021L152.40208333333334,149.68624208190224L152.82098958333336,154.43277376348323L153.21994791666665,161.23014342784882L153.63885416666665,150.03287360884926L154.0378125,145.5482088219036L154.45671875,152.36554871905935L154.85567708333332,150.98499584197998L155.27458333333334,151.25636542927134L155.67354166666667,147.21216214786875L156.09244791666666,149.35359412973577L156.49140625,150.28519944711164L156.9103125,153.48911072991112L157.30927083333336,151.4288218454881L157.72817708333335,157.92085660587657L158.12713541666665,155.81580110029742L158.52609375,158.35236401991412L158.945,156.3315360546112L159.34395833333332,154.04984632405368L159.76286458333334,153.1850322376598L160.16182291666667,152.6098642132499L160.58072916666666,149.20328892361033L160.9796875,159.6486087929119L161.39859375,149.53669647736982L161.79755208333333,152.7862759286707L162.21645833333335,152.009272553704L162.61541666666668,147.08393142440102L163.0343229166667,149.4768682609905L163.43328125,161.05948243357918L163.85218749999999,156.45443805781278L164.25114583333334,154.55346218022433L164.67005208333333,157.92429015853187L165.06901041666666,156.5904796340249L165.48791666666668,152.58917849714106L165.886875,153.69679654728282L166.30578125,144.73037494312632L166.70473958333335,142.12648753686383L167.12364583333334,159.36632472818548L167.52260416666667,148.73203286257657L167.9415104166667,158.09114163572139L168.34046874999999,148.09180764718488L168.7394270833333,147.4455171281641L169.15833333333333,153.72978550737554L169.55729166666666,159.78792279416865L169.97619791666668,150.31626254862005L170.37515625,151.7098360711878L170.7940625,146.11677061427724L171.19302083333335,153.49478856000033L171.61192708333334,147.86988121812993L172.01088541666667,155.31183997067538L172.4297916666667,158.30551808530635L172.82875,156.45512476834384L173.24765624999998,162.19165901704267L173.64661458333333,159.87791256471112L174.06552083333332,156.29751894690773L174.46447916666665,159.88400088657033L174.88338541666667,161.9385927590457L175.28234375,158.68101830915973L175.70125000000002,144.92387002164668L176.10020833333334,139.81464008851484L176.51911458333333,146.2547917582772L176.9180729166667,153.97977883165532L177.33697916666668,149.21514331210744L177.7359375,143.78606739911166L178.15484375000003,157.9388146617196L178.55380208333332,157.47742958502337L178.95276041666665,159.9871570847251L179.37166666666667,158.30127889459783L179.770625,151.62231692400846L180.18953125,150.54654075882652L180.58848958333334,124.25766186280683L181.00739583333333,139.68126479062167L181.40635416666666,154.8816177411513L181.82526041666668,157.1945854100314L182.22421875,150.98627335375005L182.64312500000003,148.4228596687317L183.04208333333335,162.52490544319153L183.46098958333332,157.20636307109487L183.85994791666667,153.31148288466713L184.27885416666666,157.16220643303612L184.6778125,158.57806160233238L185.09671875,152.2235147302801L185.49567708333333,145.24442956664345L185.91458333333333,148.65023758194664L186.31354166666668,159.07179112867877L186.73244791666667,153.30083311687815L187.13140625,154.04335134679621L187.55031250000002,151.3911678574302L187.94927083333334,151.73556661605835L188.3681770833333,147.69231859120455L188.76713541666666,153.67524381117389L189.16609375,153.6238594488664L189.585,152.96250349825078L189.98395833333333,148.98598915880376L190.40286458333333,153.1340813853524L190.80182291666668,155.83533206853L191.22072916666667,150.23276008259165L191.6196875,157.73128997195852L192.03859375000002,154.33762023665687L192.43755208333334,159.75377908619967L192.8564583333333,135.1128827008334L193.2554166666667,130.9437364664945L193.67432291666665,145.4320933602073L194.07328124999998,149.27243185043335L194.4921875,149.5269329114394L194.89114583333333,150.27590008215472L195.31005208333335,151.4457709355788L195.70901041666667,158.797724572095L196.12791666666666,134.11286336725408L196.52687500000002,134.02981742945585L196.94578125,140.8308527469635L197.34473958333334,144.6763319752433L197.76364583333336,153.80876489119098L198.16260416666665,158.36244600469416L198.58151041666665,143.64468942989004L198.98046875,144.65850819240916L199.37942708333333,149.85913584449074L199.79833333333332,151.95095203139564L200.19729166666667,149.82115960121155L200.61619791666666,151.31976914405823L201.01515625,152.80291810902682L201.4340625,149.24099278450012L201.83302083333334,148.27283835411072L202.25192708333336,156.1638981212269L202.65088541666668,155.39827726104042L203.06979166666665,145.4530399495905L203.46875000000003,150.6080301241441L203.88765625,152.1076601418582L204.28661458333332,149.70371675491333L204.70552083333334,148.51546584476125L205.10447916666666,158.587786804546L205.52338541666666,152.61920961466703L205.92234375,150.2721711288799L206.34125,152.5698124928908L206.74020833333333,152.51829769394615L207.15911458333335,149.51178307966754L207.55807291666667,156.53763361410662L207.9769791666667,153.08428528092125L208.3759375,154.4293862472881L208.79484374999998,152.18824312903664L209.19380208333334,152.37453350153837L209.59276041666666,151.0701632933183L210.01166666666666,157.78707081621343L210.410625,154.32038341869008L210.82953125,153.2493873726238L211.22848958333333,155.08880483020437L211.64739583333335,161.24360141970894L212.04635416666667,155.84884376959369L212.46526041666667,159.36537714438006L212.86421875000002,153.4374846761877L213.28312499999998,154.3746795871041L213.6820833333333,158.11679928952998L214.10098958333333,155.61319080266085L214.49994791666666,151.78241638703778L214.91885416666668,151.37367016618902L215.3178125,154.7098480354656L215.73671875,158.63102654977277L216.13567708333335,156.31658571416682L216.55458333333334,150.74535688486966L216.95354166666667,143.32487030462786L217.3724479166667,152.2217499993064L217.77140625,157.28089226375926L218.19031249999998,161.2960676388307L218.58927083333333,158.34329867362976L219.00817708333332,155.9947409846566L219.40713541666665,152.82441329956055L219.80609375,152.67477945847943L220.225,152.7043732296337L220.62395833333332,159.0874281796542L221.04286458333334,158.46491549231789L221.44182291666667,151.12813086943194L221.8607291666667,149.12576736103404L222.2596875,155.64020653204486L222.67859375,157.03040021116084L223.07755208333336,155.448345747861L223.49645833333332,158.350158106197L223.89541666666665,145.50773893703115L224.31432291666667,163.1825170950456L224.71328125,153.09225342490456L225.1321875,156.4308366992257L225.53114583333334,155.97687116536227L225.95005208333333,151.55696433240718L226.34901041666666,142.8423928564245L226.76791666666668,138.22171718424016L227.166875,143.15210697867653L227.58578125000003,148.16940593719482L227.98473958333335,148.5054912783883L228.40364583333331,148.39788872545415L228.80260416666667,146.62904516133395L229.22151041666666,150.36718654632568L229.62046875,158.65681847659025L230.01942708333334,150.37720714915883L230.43833333333333,148.75957417488098L230.83729166666666,147.07488525997508L231.25619791666668,145.5337879007513L231.65515625,155.08161163330078L232.0740625,146.8952011195096L232.47302083333335,154.60721742023122L232.89192708333334,157.2871608950875L233.29088541666664,150.91575700586492L233.70979166666666,153.2463297843933L234.10875,147.87595419450238L234.52765625,154.19250947778875L234.92661458333333,153.98885568705472L235.34552083333332,144.3684976751154L235.74447916666668,160.1356975598769L236.16338541666667,158.8679340102456L236.56234375,142.0068464495919L236.98125000000002,142.91318542307073L237.38020833333334,157.52906714786184L237.79911458333333,157.38843343474647L238.1980729166667,153.58306730877268L238.61697916666665,147.87419713627207L239.01593749999998,156.57236045057124L239.43484375,153.47905559973285L239.83380208333332,143.57783298058942L240.23276041666665,145.96648075363854L240.65166666666667,151.15754433111712L241.050625,149.62495604428378L241.46953125000002,156.9650552923029L241.86848958333334,153.5316445827484L242.28739583333333,143.8733103275299L242.6863541666667,149.40354752540588L243.10526041666668,141.15443535284564L243.50421874999998,156.77032106572932L243.923125,149.86834313652733L244.32208333333332,148.15960017117587L244.74098958333332,145.99159747903997L245.13994791666667,147.32493996620178L245.55885416666666,153.70533247427508L245.9578125,151.89686302705243L246.37671875,146.98290441252968L246.77567708333333,149.47005486488342L247.19458333333336,143.51095351305875L247.59354166666668,132.2137366208163L248.01244791666664,135.1557196270336L248.41140625000003,149.55175039984962L248.8303125,153.50422219796613L249.22927083333332,156.3847350207242L249.64817708333334,158.00930031863126L250.04713541666666,147.79072919758883L250.44609375,140.34579725698993L250.865,151.16094719279897L251.26395833333333,155.563137661327L251.68286458333333,152.99174815958196L252.08182291666668,149.84030693227595L252.50072916666667,147.37430256063288L252.8996875,155.88338262384588L253.31859375000002,151.337754054503L253.71755208333332,153.0289532921531L254.13645833333334,148.8924737626856L254.53541666666666,150.48109225793317L254.95432291666665,155.23414960774508L255.35328125,155.27669113332576L255.7721875,146.34674575112084L256.1711458333333,144.7376947402954L256.5900520833333,144.79431574994868L256.98901041666664,145.41864304109052L257.40791666666667,150.41264755075628L257.806875,146.37695717811584L258.22578125,155.4899281805212L258.62473958333334,153.9979977607727L259.04364583333336,149.33756960522044L259.4426041666667,143.77359919114545L259.8615104166667,153.80573032119057L260.26046875000003,149.83315209908918L260.65942708333336,148.90520668029785L261.0783333333334,156.5731277249076L261.47729166666664,147.49995524233037L261.89619791666667,147.8552608056502L262.29515625,145.95639876885846L262.7140625,154.10024090246722L263.11302083333334,157.1958821036599L263.53192708333336,146.11119636622342L263.9308854166667,150.74514972079885L264.34979166666665,141.71698938716543L264.74875000000003,144.19247343323448L265.16765625,154.44414860552007L265.5666145833333,147.74781170758334L265.98552083333334,155.65339214151555L266.38447916666667,147.217671177604L266.8033854166667,147.46752255613154L267.20234375,157.21749238534406L267.62125,147.81807485493746L268.02020833333336,152.93814253807068L268.4391145833333,152.3651535727761L268.83807291666665,152.38442750410601L269.25697916666667,154.92216435345736L269.6559375,154.4326509995894L270.07484375,149.06564758040687L270.47380208333334,150.59330612962896L270.87276041666667,159.14676150408658L271.29166666666663,156.16768462007695L271.690625,153.8112393509258L272.10953125,148.86229302666405L272.5084895833333,146.1665667187084L272.9273958333333,152.75388160618868L273.32635416666665,150.00593077052724L273.74526041666667,151.0211421359669L274.14421875,153.4541460384022" style="fill: none;" fill="none"></path></g></g></g></g></g></g><g transform="translate(30, 177)" clip-path="url(#clip_1)"><clipPath id="clip_1"><rect width="299" height="23"></rect></clipPath><g><g><line x1="0" y1="0" x2="0" y2="5" style="visibility: inherit;" fill="rgb(0, 0, 0)" stroke="rgb(204, 204, 204)" stroke-width="1px"></line><line x1="24.934895833333332" y1="0" x2="24.934895833333332" y2="5" style="visibility: inherit;" fill="rgb(0, 0, 0)" stroke="rgb(204, 204, 204)" stroke-width="1px"></line><line x1="49.869791666666664" y1="0" x2="49.869791666666664" y2="5" style="visibility: inherit;" fill="rgb(0, 0, 0)" stroke="rgb(204, 204, 204)" stroke-width="1px"></line><line x1="74.8046875" y1="0" x2="74.8046875" y2="5" style="visibility: inherit;" fill="rgb(0, 0, 0)" stroke="rgb(204, 204, 204)" stroke-width="1px"></line><line x1="99.73958333333333" y1="0" x2="99.73958333333333" y2="5" style="visibility: inherit;" fill="rgb(0, 0, 0)" stroke="rgb(204, 204, 204)" stroke-width="1px"></line><line x1="124.67447916666667" y1="0" x2="124.67447916666667" y2="5" style="visibility: inherit;" fill="rgb(0, 0, 0)" stroke="rgb(204, 204, 204)" stroke-width="1px"></line><line x1="149.609375" y1="0" x2="149.609375" y2="5" style="visibility: inherit;" fill="rgb(0, 0, 0)" stroke="rgb(204, 204, 204)" stroke-width="1px"></line><line x1="174.54427083333334" y1="0" x2="174.54427083333334" y2="5" style="visibility: inherit;" fill="rgb(0, 0, 0)" stroke="rgb(204, 204, 204)" stroke-width="1px"></line><line x1="199.47916666666666" y1="0" x2="199.47916666666666" y2="5" style="visibility: inherit;" fill="rgb(0, 0, 0)" stroke="rgb(204, 204, 204)" stroke-width="1px"></line><line x1="224.4140625" y1="0" x2="224.4140625" y2="5" style="visibility: inherit;" fill="rgb(0, 0, 0)" stroke="rgb(204, 204, 204)" stroke-width="1px"></line><line x1="249.34895833333334" y1="0" x2="249.34895833333334" y2="5" style="visibility: inherit;" fill="rgb(0, 0, 0)" stroke="rgb(204, 204, 204)" stroke-width="1px"></line><line x1="274.28385416666663" y1="0" x2="274.28385416666663" y2="5" style="visibility: inherit;" fill="rgb(0, 0, 0)" stroke="rgb(204, 204, 204)" stroke-width="1px"></line><line x1="299.21875" y1="0" x2="299.21875" y2="5" style="visibility: inherit;" fill="rgb(0, 0, 0)" stroke="rgb(204, 204, 204)" stroke-width="1px"></line></g><g transform="translate(0, 8)"><text x="0" y="0" dx="0em" dy="0.95em" style="text-anchor: middle; visibility: hidden; font-family: Roboto, sans-serif; font-size: 12px; font-weight: 200;" fill="rgb(33, 33, 33)" stroke="none" stroke-width="1px">-1M</text><text x="24.934895833333332" y="0" dx="0em" dy="0.95em" style="text-anchor: middle; visibility: inherit; font-family: Roboto, sans-serif; font-size: 12px; font-weight: 200;" fill="rgb(33, 33, 33)" stroke="none" stroke-width="1px">0</text><text x="49.869791666666664" y="0" dx="0em" dy="0.95em" style="text-anchor: middle; visibility: inherit; font-family: Roboto, sans-serif; font-size: 12px; font-weight: 200;" fill="rgb(33, 33, 33)" stroke="none" stroke-width="1px">1M</text><text x="74.8046875" y="0" dx="0em" dy="0.95em" style="text-anchor: middle; visibility: inherit; font-family: Roboto, sans-serif; font-size: 12px; font-weight: 200;" fill="rgb(33, 33, 33)" stroke="none" stroke-width="1px">2M</text><text x="99.73958333333333" y="0" dx="0em" dy="0.95em" style="text-anchor: middle; visibility: inherit; font-family: Roboto, sans-serif; font-size: 12px; font-weight: 200;" fill="rgb(33, 33, 33)" stroke="none" stroke-width="1px">3M</text><text x="124.67447916666667" y="0" dx="0em" dy="0.95em" style="text-anchor: middle; visibility: inherit; font-family: Roboto, sans-serif; font-size: 12px; font-weight: 200;" fill="rgb(33, 33, 33)" stroke="none" stroke-width="1px">4M</text><text x="149.609375" y="0" dx="0em" dy="0.95em" style="text-anchor: middle; visibility: inherit; font-family: Roboto, sans-serif; font-size: 12px; font-weight: 200;" fill="rgb(33, 33, 33)" stroke="none" stroke-width="1px">5M</text><text x="174.54427083333334" y="0" dx="0em" dy="0.95em" style="text-anchor: middle; visibility: inherit; font-family: Roboto, sans-serif; font-size: 12px; font-weight: 200;" fill="rgb(33, 33, 33)" stroke="none" stroke-width="1px">6M</text><text x="199.47916666666666" y="0" dx="0em" dy="0.95em" style="text-anchor: middle; visibility: inherit; font-family: Roboto, sans-serif; font-size: 12px; font-weight: 200;" fill="rgb(33, 33, 33)" stroke="none" stroke-width="1px">7M</text><text x="224.4140625" y="0" dx="0em" dy="0.95em" style="text-anchor: middle; visibility: inherit; font-family: Roboto, sans-serif; font-size: 12px; font-weight: 200;" fill="rgb(33, 33, 33)" stroke="none" stroke-width="1px">8M</text><text x="249.34895833333334" y="0" dx="0em" dy="0.95em" style="text-anchor: middle; visibility: inherit; font-family: Roboto, sans-serif; font-size: 12px; font-weight: 200;" fill="rgb(33, 33, 33)" stroke="none" stroke-width="1px">9M</text><text x="274.28385416666663" y="0" dx="0em" dy="0.95em" style="text-anchor: middle; visibility: inherit; font-family: Roboto, sans-serif; font-size: 12px; font-weight: 200;" fill="rgb(33, 33, 33)" stroke="none" stroke-width="1px">10M</text><text x="299.21875" y="0" dx="0em" dy="0.95em" style="text-anchor: middle; visibility: hidden; font-family: Roboto, sans-serif; font-size: 12px; font-weight: 200;" fill="rgb(33, 33, 33)" stroke="none" stroke-width="1px">11M</text></g><line x1="0" y1="0" x2="299.21875" y2="0" fill="rgb(0, 0, 0)" stroke="rgb(204, 204, 204)" stroke-width="1px"></line></g></g></g></g></svg>