<svg viewBox="0 0 330 200" xmlns="http://www.w3.org/2000/svg"><g><g><g><g><g><line x1="72.34375" y1="177" x2="67.34375" y2="177" style="visibility: inherit;" fill="rgb(0, 0, 0)" stroke="rgb(204, 204, 204)" stroke-width="1px"></line><line x1="72.34375" y1="162.25000070058738" x2="67.34375" y2="162.25000070058738" style="visibility: inherit;" fill="rgb(0, 0, 0)" stroke="rgb(204, 204, 204)" stroke-width="1px"></line><line x1="72.34375" y1="147.50000140117473" x2="67.34375" y2="147.50000140117473" style="visibility: inherit;" fill="rgb(0, 0, 0)" stroke="rgb(204, 204, 204)" stroke-width="1px"></line><line x1="72.34375" y1="132.75000210176213" x2="67.34375" y2="132.75000210176213" style="visibility: inherit;" fill="rgb(0, 0, 0)" stroke="rgb(204, 204, 204)" stroke-width="1px"></line><line x1="72.34375" y1="118.00000280234948" x2="67.34375" y2="118.00000280234948" style="visibility: inherit;" fill="rgb(0, 0, 0)" stroke="rgb(204, 204, 204)" stroke-width="1px"></line><line x1="72.34375" y1="103.25000350293686" x2="67.34375" y2="103.25000350293686" style="visibility: inherit;" fill="rgb(0, 0, 0)" stroke="rgb(204, 204, 204)" stroke-width="1px"></line><line x1="72.34375" y1="88.50000420352424" x2="67.34375" y2="88.50000420352424" style="visibility: inherit;" fill="rgb(0, 0, 0)" stroke="rgb(204, 204, 204)" stroke-width="1px"></line><line x1="72.34375" y1="73.75000490411162" x2="67.34375" y2="73.75000490411162" style="visibility: inherit;" fill="rgb(0, 0, 0)" stroke="rgb(204, 204, 204)" stroke-width="1px"></line><line x1="72.34375" y1="59.000005604698984" x2="67.34375" y2="59.000005604698984" style="visibility: inherit;" fill="rgb(0, 0, 0)" stroke="rgb(204, 204, 204)" stroke-width="1px"></line><line x1="72.34375" y1="44.25000630528637" x2="67.34375" y2="44.25000630528637" style="visibility: inherit;" fill="rgb(0, 0, 0)" stroke="rgb(204, 204, 204)" stroke-width="1px"></line><line x1="72.34375" y1="29.500007005873726" x2="67.34375" y2="29.500007005873726" style="visibility: inherit;" fill="rgb(0, 0, 0)" stroke="rgb(204, 204, 204)" stroke-width="1px"></line><line x1="72.34375" y1="14.750007706461108" x2="67.34375" y2="14.750007706461108" style="visibility: inherit;" fill="rgb(0, 0, 0)" stroke="rgb(204, 204, 204)" stroke-width="1px"></line><line x1="72.34375" y1="0.000008407048488034974" x2="67.34375" y2="0.000008407048488034974" style="visibility: inherit;" fill="rgb(0, 0, 0)" stroke="rgb(204, 204, 204)" stroke-width="1px"></line></g><g transform="translate(62.34375, 0)"><text x="0" y="177" dx="0em" dy="0.3em" style="text-anchor: end; visibility: hidden; font-family: Roboto, sans-serif; font-size: 12px; font-weight: 200;" fill="rgb(33, 33, 33)" stroke="none" stroke-width="1px">0</text><text x="0" y="162.25000070058738" dx="0em" dy="0.3em" style="text-anchor: end; visibility: inherit; font-family: Roboto, sans-serif; font-size: 12px; font-weight: 200;" fill="rgb(33, 33, 33)" stroke="none" stroke-width="1px">5e-5</text><text x="0" y="147.50000140117473" dx="0em" dy="0.3em" style="text-anchor: end; visibility: hidden; font-family: Roboto, sans-serif; font-size: 12px; font-weight: 200;" fill="rgb(33, 33, 33)" stroke="none" stroke-width="1px">1e-4</text><text x="0" y="132.75000210176213" dx="0em" dy="0.3em" style="text-anchor: end; visibility: inherit; font-family: Roboto, sans-serif; font-size: 12px; font-weight: 200;" fill="rgb(33, 33, 33)" stroke="none" stroke-width="1px">1.5e-4</text><text x="0" y="118.00000280234948" dx="0em" dy="0.3em" style="text-anchor: end; visibility: hidden; font-family: Roboto, sans-serif; font-size: 12px; font-weight: 200;" fill="rgb(33, 33, 33)" stroke="none" stroke-width="1px">2e-4</text><text x="0" y="103.25000350293686" dx="0em" dy="0.3em" style="text-anchor: end; visibility: inherit; font-family: Roboto, sans-serif; font-size: 12px; font-weight: 200;" fill="rgb(33, 33, 33)" stroke="none" stroke-width="1px">2.5e-4</text><text x="0" y="88.50000420352424" dx="0em" dy="0.3em" style="text-anchor: end; visibility: hidden; font-family: Roboto, sans-serif; font-size: 12px; font-weight: 200;" fill="rgb(33, 33, 33)" stroke="none" stroke-width="1px">3e-4</text><text x="0" y="73.75000490411162" dx="0em" dy="0.3em" style="text-anchor: end; visibility: inherit; font-family: Roboto, sans-serif; font-size: 12px; font-weight: 200;" fill="rgb(33, 33, 33)" stroke="none" stroke-width="1px">3.5e-4</text><text x="0" y="59.000005604698984" dx="0em" dy="0.3em" style="text-anchor: end; visibility: hidden; font-family: Roboto, sans-serif; font-size: 12px; font-weight: 200;" fill="rgb(33, 33, 33)" stroke="none" stroke-width="1px">4e-4</text><text x="0" y="44.25000630528637" dx="0em" dy="0.3em" style="text-anchor: end; visibility: inherit; font-family: Roboto, sans-serif; font-size: 12px; font-weight: 200;" fill="rgb(33, 33, 33)" stroke="none" stroke-width="1px">4.5e-4</text><text x="0" y="29.500007005873726" dx="0em" dy="0.3em" style="text-anchor: end; visibility: hidden; font-family: Roboto, sans-serif; font-size: 12px; font-weight: 200;" fill="rgb(33, 33, 33)" stroke="none" stroke-width="1px">5e-4</text><text x="0" y="14.750007706461108" dx="0em" dy="0.3em" style="text-anchor: end; visibility: inherit; font-family: Roboto, sans-serif; font-size: 12px; font-weight: 200;" fill="rgb(33, 33, 33)" stroke="none" stroke-width="1px">5.5e-4</text><text x="0" y="0.000008407048488034974" dx="0em" dy="0.3em" style="text-anchor: end; visibility: hidden; font-family: Roboto, sans-serif; font-size: 12px; font-weight: 200;" fill="rgb(33, 33, 33)" stroke="none" stroke-width="1px">6e-4</text></g><line x1="72.34375" y1="0" x2="72.34375" y2="177" fill="rgb(0, 0, 0)" stroke="rgb(204, 204, 204)" stroke-width="1px"></line></g></g><g transform="translate(72, 0)" clip-path="url(#clip_0)"><clipPath id="clip_0"><rect width="257" height="177"></rect></clipPath><g><g><g><line x1="0" y1="0" x2="0" y2="177" fill="rgb(0, 0, 0)" stroke="rgb(66, 66, 66)" stroke-width="1px" opacity="0.25"></line><line x1="21.471354166666664" y1="0" x2="21.471354166666664" y2="177" fill="rgb(0, 0, 0)" stroke="rgb(66, 66, 66)" stroke-width="1px" opacity="0.25"></line><line x1="42.94270833333333" y1="0" x2="42.94270833333333" y2="177" fill="rgb(0, 0, 0)" stroke="rgb(66, 66, 66)" stroke-width="1px" opacity="0.25"></line><line x1="64.4140625" y1="0" x2="64.4140625" y2="177" fill="rgb(0, 0, 0)" stroke="rgb(66, 66, 66)" stroke-width="1px" opacity="0.25"></line><line x1="85.88541666666666" y1="0" x2="85.88541666666666" y2="177" fill="rgb(0, 0, 0)" stroke="rgb(66, 66, 66)" stroke-width="1px" opacity="0.25"></line><line x1="107.35677083333334" y1="0" x2="107.35677083333334" y2="177" fill="rgb(0, 0, 0)" stroke="rgb(66, 66, 66)" stroke-width="1px" opacity="0.25"></line><line x1="128.828125" y1="0" x2="128.828125" y2="177" fill="rgb(0, 0, 0)" stroke="rgb(66, 66, 66)" stroke-width="1px" opacity="0.25"></line><line x1="150.29947916666669" y1="0" x2="150.29947916666669" y2="177" fill="rgb(0, 0, 0)" stroke="rgb(66, 66, 66)" stroke-width="1px" opacity="0.25"></line><line x1="171.77083333333331" y1="0" x2="171.77083333333331" y2="177" fill="rgb(0, 0, 0)" stroke="rgb(66, 66, 66)" stroke-width="1px" opacity="0.25"></line><line x1="193.2421875" y1="0" x2="193.2421875" y2="177" fill="rgb(0, 0, 0)" stroke="rgb(66, 66, 66)" stroke-width="1px" opacity="0.25"></line><line x1="214.71354166666669" y1="0" x2="214.71354166666669" y2="177" fill="rgb(0, 0, 0)" stroke="rgb(66, 66, 66)" stroke-width="1px" opacity="0.25"></line><line x1="236.18489583333331" y1="0" x2="236.18489583333331" y2="177" fill="rgb(0, 0, 0)" stroke="rgb(66, 66, 66)" stroke-width="1px" opacity="0.25"></line><line x1="257.65625" y1="0" x2="257.65625" y2="177" fill="rgb(0, 0, 0)" stroke="rgb(66, 66, 66)" stroke-width="1px" opacity="0.25"></line></g><g><line x1="0" y1="177" x2="257.65625" y2="177" fill="rgb(0, 0, 0)" stroke="rgb(66, 66, 66)" stroke-width="1px" opacity="0.25"></line><line x1="0" y1="162.25000070058738" x2="257.65625" y2="162.25000070058738" fill="rgb(0, 0, 0)" stroke="rgb(66, 66, 66)" stroke-width="1px" opacity="0.25"></line><line x1="0" y1="147.50000140117473" x2="257.65625" y2="147.50000140117473" fill="rgb(0, 0, 0)" stroke="rgb(66, 66, 66)" stroke-width="1px" opacity="0.25"></line><line x1="0" y1="132.75000210176213" x2="257.65625" y2="132.75000210176213" fill="rgb(0, 0, 0)" stroke="rgb(66, 66, 66)" stroke-width="1px" opacity="0.25"></line><line x1="0" y1="118.00000280234948" x2="257.65625" y2="118.00000280234948" fill="rgb(0, 0, 0)" stroke="rgb(66, 66, 66)" stroke-width="1px" opacity="0.25"></line><line x1="0" y1="103.25000350293686" x2="257.65625" y2="103.25000350293686" fill="rgb(0, 0, 0)" stroke="rgb(66, 66, 66)" stroke-width="1px" opacity="0.25"></line><line x1="0" y1="88.50000420352424" x2="257.65625" y2="88.50000420352424" fill="rgb(0, 0, 0)" stroke="rgb(66, 66, 66)" stroke-width="1px" opacity="0.25"></line><line x1="0" y1="73.75000490411162" x2="257.65625" y2="73.75000490411162" fill="rgb(0, 0, 0)" stroke="rgb(66, 66, 66)" stroke-width="1px" opacity="0.25"></line><line x1="0" y1="59.000005604698984" x2="257.65625" y2="59.000005604698984" fill="rgb(0, 0, 0)" stroke="rgb(66, 66, 66)" stroke-width="1px" opacity="0.25"></line><line x1="0" y1="44.25000630528637" x2="257.65625" y2="44.25000630528637" fill="rgb(0, 0, 0)" stroke="rgb(66, 66, 66)" stroke-width="1px" opacity="0.25"></line><line x1="0" y1="29.500007005873726" x2="257.65625" y2="29.500007005873726" fill="rgb(0, 0, 0)" stroke="rgb(66, 66, 66)" stroke-width="1px" opacity="0.25"></line><line x1="0" y1="14.750007706461108" x2="257.65625" y2="14.750007706461108" fill="rgb(0, 0, 0)" stroke="rgb(66, 66, 66)" stroke-width="1px" opacity="0.25"></line><line x1="0" y1="0.000008407048488034974" x2="257.65625" y2="0.000008407048488034974" fill="rgb(0, 0, 0)" stroke="rgb(66, 66, 66)" stroke-width="1px" opacity="0.25"></line></g></g></g><g><g><line x1="0" y1="177" x2="257.65625" y2="177" fill="rgb(0, 0, 0)" stroke="rgb(153, 153, 153)" stroke-width="1.5px"></line></g></g><g><g><line x1="21.471354166666664" y1="0" x2="21.471354166666664" y2="177" fill="rgb(0, 0, 0)" stroke="rgb(153, 153, 153)" stroke-width="1.5px"></line></g></g><g><g><g><g><g><path stroke="rgb(255, 112, 67)" stroke-width="2px" d="M21.832072916666664,88.5L22.175614583333335,88.5L22.53633333333333,88.5L22.879875000000002,88.5L23.240593750000002,88.5L23.584135416666665,88.5L23.94485416666667,88.5L24.288395833333333,88.5L24.649114583333333,88.5L24.99265625,88.5L25.353375,88.5L25.696916666666667,88.5L26.057635416666667,88.5L26.401177083333334,88.5L26.761895833333334,88.5L27.1054375,88.5L27.46615625,88.5L27.809697916666668,88.5L28.170416666666668,88.5L28.51395833333333,88.5L28.87467708333333,88.5L29.218218750000002,88.5L29.5789375,88.5L29.92247916666667,88.5L30.28319791666667,88.5L30.626739583333332,88.5L30.97028125,88.5L31.331,88.5L31.674541666666666,88.5L32.03526041666667,88.5L32.37880208333333,88.5L32.73952083333333,88.5L33.0830625,88.5L33.44378125,88.5L33.78732291666667,88.5L34.148041666666664,88.5L34.49158333333333,88.5L34.852302083333335,88.5L35.19584375,88.5L35.556562500000005,88.5L35.900104166666665,88.5L36.26082291666666,88.5L36.604364583333336,88.5L36.96508333333333,88.5L37.308625000000006,88.5L37.669343749999996,88.5L38.01288541666666,88.5L38.37360416666667,88.5L38.71714583333333,88.5L39.07786458333334,88.5L39.42140625,88.5L39.764947916666664,88.5L40.12566666666667,88.5L40.469208333333334,88.5L40.82992708333334,88.5L41.17346875,88.5L41.5341875,88.5L41.87772916666667,88.5L42.238447916666665,88.5L42.58198958333333,88.5L42.94270833333333,88.5L43.28625,88.5L43.64696875,88.5L43.990510416666666,88.5L44.35122916666667,88.5L44.69477083333333,88.5L45.05548958333333,88.5L45.39903125,88.5L45.759750000000004,88.5L46.103291666666664,88.5L46.46401041666667,88.5L46.807552083333334,88.5L47.16827083333333,88.5L47.511812500000005,88.5L47.87253125,88.5L48.21607291666667,88.5L48.559614583333335,88.5L48.92033333333333,88.5L49.263875,88.5L49.624593749999995,88.5L49.96813541666667,88.5L50.328854166666666,88.5L50.67239583333333,88.5L51.03311458333334,88.5L51.376656249999996,88.5L51.737375,88.5L52.08091666666667,88.5L52.44163541666667,88.5L52.78517708333333,88.5L53.14589583333333,88.5L53.4894375,88.5L53.85015625,88.5L54.19369791666667,88.5L54.55441666666667,88.5L54.89795833333333,88.5L55.25867708333333,88.5L55.60221875,88.5L55.9629375,88.5L56.30647916666666,88.5L56.667197916666666,88.5L57.01073958333333,88.5L57.35428125,88.5L57.715,88.5L58.05854166666666,88.5L58.41926041666667,88.5L58.762802083333334,88.5L59.12352083333334,88.5L59.467062500000004,88.5L59.827781249999994,88.5L60.17132291666667,88.5L60.532041666666665,88.5L60.87558333333334,88.5L61.236302083333335,88.5L61.579843749999995,88.5L61.9405625,88.5L62.284104166666665,88.5L62.64482291666667,88.5L62.988364583333336,88.5L63.34908333333333,88.5L63.692625,88.5L64.05334375,88.5L64.39688541666666,88.5L64.75760416666667,88.5L65.10114583333333,88.5L65.46186458333334,88.5L65.80540625,88.5L66.14894791666666,88.5L66.50966666666666,88.5L66.85320833333334,88.5L67.21392708333335,88.5L67.55746875,88.5L67.9181875,88.5L68.26172916666667,88.5L68.62244791666666,88.5L68.96598958333334,88.5L69.32670833333333,88.5L69.67025,88.5L70.03096875,88.5L70.37451041666667,88.5L70.73522916666667,88.5L71.07877083333332,88.5L71.43948958333333,88.5L71.78303125000001,88.5L72.14375000000001,88.5L72.48729166666666,88.5L72.84801041666667,88.5L73.19155208333333,88.5L73.55227083333332,88.5L73.8958125,88.5L74.25653125000001,88.5L74.60007291666666,88.5L74.94361458333333,88.5L75.30433333333333,88.5L75.64787500000001,88.5L76.00859375,88.5L76.35213541666667,88.5L76.71285416666667,88.5L77.05639583333333,88.5L77.41711458333333,88.5L77.76065625,88.5L78.121375,88.5L78.46491666666667,88.5L78.82563541666667,88.5L79.16917708333334,88.5L79.52989583333333,88.5L79.8734375,88.5L80.23415625,88.5L80.57769791666666,88.5L80.93841666666667,88.5L81.28195833333334,88.5L81.64267708333334,88.5L81.98621874999999,88.5L82.3469375,88.5L82.69047916666668,88.5L83.05119791666668,88.5L83.39473958333333,88.5L83.73828125,88.5L84.099,88.5L84.44254166666666,88.5L84.80326041666666,88.5L85.14680208333334,88.5L85.50752083333333,88.5L85.8510625,88.5L86.21178125,88.5L86.55532291666665,88.5L86.91604166666666,88.5L87.25958333333334,88.5L87.62030208333334,88.5L87.96384375,88.5L88.3245625,88.5L88.66810416666667,88.5L89.02882291666667,88.5L89.37236458333334,88.5L89.73308333333334,88.5L90.076625,88.5L90.43734375,88.5L90.78088541666666,88.5L91.14160416666667,88.5L91.48514583333332,88.5L91.84586458333332,88.5L92.18940625,88.5L92.53294791666667,88.5L92.89366666666666,88.5L93.23720833333333,88.5L93.59792708333333,88.5L93.94146875,88.5L94.3021875,88.5L94.64572916666667,88.5L95.00644791666667,88.5L95.34998958333333,88.5L95.71070833333333,88.5L96.05425000000001,88.5L96.41496875,88.5L96.75851041666667,88.5L97.11922916666667,88.5L97.46277083333332,88.5L97.82348958333333,88.5L98.16703125000001,88.5L98.52775,88.5L98.87129166666666,88.5L99.23201041666667,88.5L99.57555208333333,88.5L99.93627083333334,88.5L100.27981249999999,88.5L100.64053125,88.5L100.98407291666668,88.5L101.32761458333333,88.5L101.68833333333333,88.5L102.031875,88.5L102.39259374999999,88.5L102.73613541666667,88.5L103.09685416666667,88.5L103.44039583333334,88.5L103.80111458333333,88.5L104.14465625,88.5L104.505375,88.5L104.84891666666667,88.5L105.20963541666667,88.5L105.55317708333334,88.5L105.91389583333334,88.5L106.2574375,88.5L106.61815625,88.5L106.96169791666667,88.5L107.32241666666665,88.5L107.66595833333334,88.5L108.02667708333334,88.5L108.37021874999999,88.5L108.7309375,88.5L109.07447916666666,88.5L109.43519791666667,88.5L109.77873958333333,88.5L110.12228125,88.5L110.483,88.5L110.82654166666666,88.5L111.18726041666666,88.5L111.53080208333334,88.5L111.89152083333335,88.5L112.2350625,88.5L112.59578125,88.5L112.93932291666667,88.5L113.30004166666666,88.5L113.64358333333334,88.5L114.00430208333333,88.5L114.34784375,88.5L114.7085625,88.5L115.05210416666667,88.5L115.41282291666667,88.5L115.75636458333332,88.5L116.11708333333333,88.5L116.46062500000001,88.5L116.82134375000001,88.5L117.16488541666666,88.5L117.52560416666667,88.5L117.86914583333333,88.5L118.22986458333332,88.5L118.57340625,88.5L118.91694791666667,88.5L119.27766666666666,88.5L119.62120833333333,88.5L119.98192708333333,88.5L120.32546875000001,88.5L120.6861875,88.5L121.02972916666667,88.5L121.39044791666667,88.5L121.73398958333333,88.5L122.09470833333333,88.5L122.43825,88.5L122.79896875,88.5L123.14251041666667,88.5L123.50322916666667,88.5L123.84677083333334,88.5L124.20748958333333,88.5L124.55103125,88.5L124.91175,88.5L125.25529166666666,88.5L125.61601041666667,88.5L125.95955208333334,88.5L126.32027083333334,88.5L126.66381249999999,88.5L127.02453125,88.5L127.36807291666668,88.5L127.71161458333333,88.5L128.07233333333332,88.5L128.415875,88.5L128.77659375000002,88.5L129.12013541666667,88.5L129.4808541666667,88.5L129.82439583333334,88.5L130.18511458333333,88.5L130.52865625,88.5L130.889375,88.5L131.23291666666665,88.5L131.59363541666667,88.5L131.93717708333332,88.5L132.2978958333333,88.5L132.6414375,88.5L133.00215624999998,88.5L133.34569791666667,88.5L133.70641666666668,88.5L134.04995833333334,88.5L134.41067708333333,88.5L134.75421875,88.5L135.1149375,88.5L135.45847916666668,88.5L135.81919791666667,88.5L136.16273958333332,88.5L136.50628125,88.5L136.867,88.5L137.21054166666667,88.5L137.5712604166667,88.5L137.91480208333334,88.5L138.27552083333333,88.5L138.6190625,88.5L138.97978125,88.5L139.32332291666665,88.5L139.68404166666667,88.5L140.02758333333333,88.5L140.38830208333334,88.5L140.73184375,88.5L141.09256249999999,88.5L141.43610416666667,88.5L141.79682291666666,88.5L142.14036458333334,88.5L142.50108333333336,88.5L142.844625,88.5L143.20534375,88.5L143.54888541666668,88.5L143.90960416666667,88.5L144.25314583333332,88.5L144.61386458333334,88.5L144.95740625,88.5L145.30094791666664,88.5L145.66166666666666,88.5L146.00520833333334,88.5L146.36592708333336,88.5L146.70946875,88.5L147.0701875,88.5L147.41372916666668,88.5L147.77444791666667,88.5L148.11798958333333,88.5L148.47870833333334,88.5L148.82225,88.5L149.18296875,88.5L149.52651041666667,88.5L149.88722916666666,88.5L150.2307708333333,88.5L150.59148958333333,88.5L150.93503125,88.5L151.29575000000003,88.5L151.63929166666668,88.5L152.00001041666667,88.5L152.34355208333335,88.5L152.70427083333334,88.5L153.0478125,88.5L153.40853125,88.5L153.75207291666666,88.5L154.09561458333332,88.5L154.45633333333333,88.5L154.79987500000001,88.5L155.16059374999998,88.5L155.50413541666668,88.5L155.86485416666667,88.5L156.20839583333333,88.5L156.56911458333335,88.5L156.91265625,88.5L157.27337500000002,88.5L157.61691666666667,88.5L157.97763541666666,88.5L158.32117708333334,88.5L158.68189583333333,88.5L159.02543749999998,88.5L159.38615625,88.5L159.72969791666668,88.5L160.09041666666667,88.5L160.43395833333335,88.5L160.79467708333334,88.5L161.13821875,88.5L161.4989375,88.5L161.84247916666666,88.5L162.20319791666665,88.5L162.54673958333333,88.5L162.89028125,88.5L163.251,88.5L163.59454166666666,88.5L163.95526041666665,88.5L164.29880208333336,88.5L164.65952083333335,88.5L165.0030625,88.5L165.36378125000002,88.5L165.70732291666667,88.5L166.06804166666666,88.5L166.41158333333334,88.5L166.77230208333333,88.5L167.11584374999998,88.5L167.4765625,88.5L167.82010416666665,88.5L168.18082291666667,88.5L168.52436458333335,88.5L168.8850833333333,88.5L169.22862500000002,88.5L169.58934375,88.5L169.93288541666666,88.5L170.29360416666668,88.5L170.63714583333334,88.5L170.99786458333332,88.5L171.34140625,88.5L171.68494791666666,88.5L172.04566666666665,88.5L172.38920833333333,88.5L172.74992708333332,88.5L173.09346875,88.5L173.45418750000002,88.5L173.79772916666667,88.5L174.1584479166667,88.5L174.50198958333334,88.5L174.86270833333333,88.5L175.20625,88.5L175.56696875,88.5L175.91051041666665,88.5L176.27122916666667,88.5L176.61477083333332,88.5L176.9754895833333,88.5L177.31903125,88.5L177.67974999999998,88.5L178.02329166666667,88.5L178.38401041666668,88.5L178.72755208333334,88.5L179.08827083333335,88.5L179.4318125,88.5L179.79253125,88.5L180.13607291666668,88.5L180.47961458333333,88.5L180.84033333333332,88.5L181.183875,88.5L181.54459375,88.5L181.88813541666667,88.5L182.2488541666667,88.5L182.59239583333334,88.5L182.95311458333333,88.5L183.29665625,88.5L183.657375,88.5L184.00091666666665,88.5L184.36163541666667,88.5L184.70517708333333,88.5L185.06589583333334,88.5L185.4094375,88.5L185.77015624999999,88.5L186.11369791666667,88.5L186.47441666666666,88.5L186.81795833333334,88.5L187.17867708333335,88.5L187.52221875,88.5L187.8829375,88.5L188.22647916666668,88.5L188.58719791666667,88.5L188.93073958333332,88.5L189.27428125,88.5L189.635,88.5L189.97854166666664,88.5L190.33926041666666,88.5L190.68280208333334,88.5L191.04352083333336,88.5L191.3870625,88.5L191.74778125,88.5L192.09132291666668,88.5L192.45204166666667,88.5L192.79558333333333,88.5L193.15630208333334,88.5L193.49984375,88.5L193.8605625,88.5L194.20410416666667,88.5L194.56482291666666,88.5L194.9083645833333,88.5L195.26908333333333,88.5L195.612625,88.5L195.97334375000003,88.5L196.31688541666668,88.5L196.67760416666667,88.5L197.02114583333335,88.5L197.38186458333334,88.5L197.72540625,88.5L198.06894791666667,88.5L198.42966666666666,88.5L198.77320833333332,88.5L199.13392708333333,88.5L199.47746874999999,88.5L199.83818749999998,88.5L200.18172916666668,88.5L200.54244791666667,88.5L200.88598958333333,88.5L201.24670833333334,88.5L201.59025,88.5L201.95096875000002,88.5L202.29451041666667,88.5L202.65522916666666,88.5L202.99877083333334,88.5L203.35948958333333,88.5L203.70303124999998,88.5L204.06375,88.5L204.40729166666668,88.5L204.76801041666667,88.5L205.11155208333335,88.5L205.47227083333334,88.5L205.8158125,88.5L206.17653125,88.5L206.52007291666666,88.5L206.86361458333332,88.5L207.22433333333333,88.5L207.567875,88.5L207.92859375,88.5L208.27213541666666,88.5L208.63285416666665,88.5L208.97639583333336,88.5L209.33711458333335,88.5L209.68065625,88.5L210.04137500000002,88.5L210.38491666666667,88.5L210.74563541666666,88.5L211.08917708333334,88.5L211.44989583333333,88.5L211.79343749999998,88.5L212.15415625,88.5L212.49769791666665,88.5L212.85841666666667,88.5L213.20195833333335,88.5L213.5626770833333,88.5L213.90621875000002,88.5L214.2669375,88.5L214.61047916666666,88.5L214.97119791666668,88.5L215.31473958333333,88.5L215.65828125,88.5L216.019,88.5L216.36254166666666,88.5L216.72326041666665,88.5L217.06680208333333,88.5L217.42752083333332,88.5L217.7710625,88.5L218.13178125000002,88.5L218.47532291666667,88.5L218.8360416666667,88.5L219.17958333333334,88.5L219.54030208333333,88.5L219.88384375,88.5L220.2445625,88.5L220.58810416666665,88.5L220.94882291666667,88.5L221.29236458333332,88.5L221.6530833333333,88.5L221.996625,88.5L222.35734374999998,88.5L222.70088541666667,88.5L223.06160416666668,88.5L223.40514583333334,88.5L223.76586458333335,88.5L224.10940625,88.5L224.45294791666666,88.5L224.81366666666668,88.5L225.15720833333333,88.5L225.51792708333332,88.5L225.86146875,88.5L226.2221875,88.5L226.56572916666667,88.5L226.9264479166667,88.5L227.26998958333334,88.5L227.63070833333333,88.5L227.97425,88.5L228.33496875,88.5L228.67851041666665,88.5L229.03922916666667,88.5L229.38277083333332,88.5L229.74348958333334,88.5L230.08703125,88.5L230.44774999999998,88.5L230.79129166666667,88.5L231.15201041666666,88.5L231.49555208333334,88.5L231.85627083333335,88.5L232.1998125,88.5L232.56053125,88.5L232.90407291666668,88.5L233.24761458333333,88.5L233.60833333333332,88.5L233.951875,88.5L234.31259375,88.5L234.65613541666664,88.5L235.01685416666666,88.5L235.36039583333334,88.5L235.72111458333336,88.5L236.06465625,88.5" style="fill: none;" fill="none"></path></g></g></g></g><g opacity="0.2"><g><g><g><path stroke="rgb(255, 112, 67)" stroke-width="2px" d="M21.832072916666664,88.5L22.175614583333335,88.5L22.53633333333333,88.5L22.879875000000002,88.5L23.240593750000002,88.5L23.584135416666665,88.5L23.94485416666667,88.5L24.288395833333333,88.5L24.649114583333333,88.5L24.99265625,88.5L25.353375,88.5L25.696916666666667,88.5L26.057635416666667,88.5L26.401177083333334,88.5L26.761895833333334,88.5L27.1054375,88.5L27.46615625,88.5L27.809697916666668,88.5L28.170416666666668,88.5L28.51395833333333,88.5L28.87467708333333,88.5L29.218218750000002,88.5L29.5789375,88.5L29.92247916666667,88.5L30.28319791666667,88.5L30.626739583333332,88.5L30.97028125,88.5L31.331,88.5L31.674541666666666,88.5L32.03526041666667,88.5L32.37880208333333,88.5L32.73952083333333,88.5L33.0830625,88.5L33.44378125,88.5L33.78732291666667,88.5L34.148041666666664,88.5L34.49158333333333,88.5L34.852302083333335,88.5L35.19584375,88.5L35.556562500000005,88.5L35.900104166666665,88.5L36.26082291666666,88.5L36.604364583333336,88.5L36.96508333333333,88.5L37.308625000000006,88.5L37.669343749999996,88.5L38.01288541666666,88.5L38.37360416666667,88.5L38.71714583333333,88.5L39.07786458333334,88.5L39.42140625,88.5L39.764947916666664,88.5L40.12566666666667,88.5L40.469208333333334,88.5L40.82992708333334,88.5L41.17346875,88.5L41.5341875,88.5L41.87772916666667,88.5L42.238447916666665,88.5L42.58198958333333,88.5L42.94270833333333,88.5L43.28625,88.5L43.64696875,88.5L43.990510416666666,88.5L44.35122916666667,88.5L44.69477083333333,88.5L45.05548958333333,88.5L45.39903125,88.5L45.759750000000004,88.5L46.103291666666664,88.5L46.46401041666667,88.5L46.807552083333334,88.5L47.16827083333333,88.5L47.511812500000005,88.5L47.87253125,88.5L48.21607291666667,88.5L48.559614583333335,88.5L48.92033333333333,88.5L49.263875,88.5L49.624593749999995,88.5L49.96813541666667,88.5L50.328854166666666,88.5L50.67239583333333,88.5L51.03311458333334,88.5L51.376656249999996,88.5L51.737375,88.5L52.08091666666667,88.5L52.44163541666667,88.5L52.78517708333333,88.5L53.14589583333333,88.5L53.4894375,88.5L53.85015625,88.5L54.19369791666667,88.5L54.55441666666667,88.5L54.89795833333333,88.5L55.25867708333333,88.5L55.60221875,88.5L55.9629375,88.5L56.30647916666666,88.5L56.667197916666666,88.5L57.01073958333333,88.5L57.35428125,88.5L57.715,88.5L58.05854166666666,88.5L58.41926041666667,88.5L58.762802083333334,88.5L59.12352083333334,88.5L59.467062500000004,88.5L59.827781249999994,88.5L60.17132291666667,88.5L60.532041666666665,88.5L60.87558333333334,88.5L61.236302083333335,88.5L61.579843749999995,88.5L61.9405625,88.5L62.284104166666665,88.5L62.64482291666667,88.5L62.988364583333336,88.5L63.34908333333333,88.5L63.692625,88.5L64.05334375,88.5L64.39688541666666,88.5L64.75760416666667,88.5L65.10114583333333,88.5L65.46186458333334,88.5L65.80540625,88.5L66.14894791666666,88.5L66.50966666666666,88.5L66.85320833333334,88.5L67.21392708333335,88.5L67.55746875,88.5L67.9181875,88.5L68.26172916666667,88.5L68.62244791666666,88.5L68.96598958333334,88.5L69.32670833333333,88.5L69.67025,88.5L70.03096875,88.5L70.37451041666667,88.5L70.73522916666667,88.5L71.07877083333332,88.5L71.43948958333333,88.5L71.78303125000001,88.5L72.14375000000001,88.5L72.48729166666666,88.5L72.84801041666667,88.5L73.19155208333333,88.5L73.55227083333332,88.5L73.8958125,88.5L74.25653125000001,88.5L74.60007291666666,88.5L74.94361458333333,88.5L75.30433333333333,88.5L75.64787500000001,88.5L76.00859375,88.5L76.35213541666667,88.5L76.71285416666667,88.5L77.05639583333333,88.5L77.41711458333333,88.5L77.76065625,88.5L78.121375,88.5L78.46491666666667,88.5L78.82563541666667,88.5L79.16917708333334,88.5L79.52989583333333,88.5L79.8734375,88.5L80.23415625,88.5L80.57769791666666,88.5L80.93841666666667,88.5L81.28195833333334,88.5L81.64267708333334,88.5L81.98621874999999,88.5L82.3469375,88.5L82.69047916666668,88.5L83.05119791666668,88.5L83.39473958333333,88.5L83.73828125,88.5L84.099,88.5L84.44254166666666,88.5L84.80326041666666,88.5L85.14680208333334,88.5L85.50752083333333,88.5L85.8510625,88.5L86.21178125,88.5L86.55532291666665,88.5L86.91604166666666,88.5L87.25958333333334,88.5L87.62030208333334,88.5L87.96384375,88.5L88.3245625,88.5L88.66810416666667,88.5L89.02882291666667,88.5L89.37236458333334,88.5L89.73308333333334,88.5L90.076625,88.5L90.43734375,88.5L90.78088541666666,88.5L91.14160416666667,88.5L91.48514583333332,88.5L91.84586458333332,88.5L92.18940625,88.5L92.53294791666667,88.5L92.89366666666666,88.5L93.23720833333333,88.5L93.59792708333333,88.5L93.94146875,88.5L94.3021875,88.5L94.64572916666667,88.5L95.00644791666667,88.5L95.34998958333333,88.5L95.71070833333333,88.5L96.05425000000001,88.5L96.41496875,88.5L96.75851041666667,88.5L97.11922916666667,88.5L97.46277083333332,88.5L97.82348958333333,88.5L98.16703125000001,88.5L98.52775,88.5L98.87129166666666,88.5L99.23201041666667,88.5L99.57555208333333,88.5L99.93627083333334,88.5L100.27981249999999,88.5L100.64053125,88.5L100.98407291666668,88.5L101.32761458333333,88.5L101.68833333333333,88.5L102.031875,88.5L102.39259374999999,88.5L102.73613541666667,88.5L103.09685416666667,88.5L103.44039583333334,88.5L103.80111458333333,88.5L104.14465625,88.5L104.505375,88.5L104.84891666666667,88.5L105.20963541666667,88.5L105.55317708333334,88.5L105.91389583333334,88.5L106.2574375,88.5L106.61815625,88.5L106.96169791666667,88.5L107.32241666666665,88.5L107.66595833333334,88.5L108.02667708333334,88.5L108.37021874999999,88.5L108.7309375,88.5L109.07447916666666,88.5L109.43519791666667,88.5L109.77873958333333,88.5L110.12228125,88.5L110.483,88.5L110.82654166666666,88.5L111.18726041666666,88.5L111.53080208333334,88.5L111.89152083333335,88.5L112.2350625,88.5L112.59578125,88.5L112.93932291666667,88.5L113.30004166666666,88.5L113.64358333333334,88.5L114.00430208333333,88.5L114.34784375,88.5L114.7085625,88.5L115.05210416666667,88.5L115.41282291666667,88.5L115.75636458333332,88.5L116.11708333333333,88.5L116.46062500000001,88.5L116.82134375000001,88.5L117.16488541666666,88.5L117.52560416666667,88.5L117.86914583333333,88.5L118.22986458333332,88.5L118.57340625,88.5L118.91694791666667,88.5L119.27766666666666,88.5L119.62120833333333,88.5L119.98192708333333,88.5L120.32546875000001,88.5L120.6861875,88.5L121.02972916666667,88.5L121.39044791666667,88.5L121.73398958333333,88.5L122.09470833333333,88.5L122.43825,88.5L122.79896875,88.5L123.14251041666667,88.5L123.50322916666667,88.5L123.84677083333334,88.5L124.20748958333333,88.5L124.55103125,88.5L124.91175,88.5L125.25529166666666,88.5L125.61601041666667,88.5L125.95955208333334,88.5L126.32027083333334,88.5L126.66381249999999,88.5L127.02453125,88.5L127.36807291666668,88.5L127.71161458333333,88.5L128.07233333333332,88.5L128.415875,88.5L128.77659375000002,88.5L129.12013541666667,88.5L129.4808541666667,88.5L129.82439583333334,88.5L130.18511458333333,88.5L130.52865625,88.5L130.889375,88.5L131.23291666666665,88.5L131.59363541666667,88.5L131.93717708333332,88.5L132.2978958333333,88.5L132.6414375,88.5L133.00215624999998,88.5L133.34569791666667,88.5L133.70641666666668,88.5L134.04995833333334,88.5L134.41067708333333,88.5L134.75421875,88.5L135.1149375,88.5L135.45847916666668,88.5L135.81919791666667,88.5L136.16273958333332,88.5L136.50628125,88.5L136.867,88.5L137.21054166666667,88.5L137.5712604166667,88.5L137.91480208333334,88.5L138.27552083333333,88.5L138.6190625,88.5L138.97978125,88.5L139.32332291666665,88.5L139.68404166666667,88.5L140.02758333333333,88.5L140.38830208333334,88.5L140.73184375,88.5L141.09256249999999,88.5L141.43610416666667,88.5L141.79682291666666,88.5L142.14036458333334,88.5L142.50108333333336,88.5L142.844625,88.5L143.20534375,88.5L143.54888541666668,88.5L143.90960416666667,88.5L144.25314583333332,88.5L144.61386458333334,88.5L144.95740625,88.5L145.30094791666664,88.5L145.66166666666666,88.5L146.00520833333334,88.5L146.36592708333336,88.5L146.70946875,88.5L147.0701875,88.5L147.41372916666668,88.5L147.77444791666667,88.5L148.11798958333333,88.5L148.47870833333334,88.5L148.82225,88.5L149.18296875,88.5L149.52651041666667,88.5L149.88722916666666,88.5L150.2307708333333,88.5L150.59148958333333,88.5L150.93503125,88.5L151.29575000000003,88.5L151.63929166666668,88.5L152.00001041666667,88.5L152.34355208333335,88.5L152.70427083333334,88.5L153.0478125,88.5L153.40853125,88.5L153.75207291666666,88.5L154.09561458333332,88.5L154.45633333333333,88.5L154.79987500000001,88.5L155.16059374999998,88.5L155.50413541666668,88.5L155.86485416666667,88.5L156.20839583333333,88.5L156.56911458333335,88.5L156.91265625,88.5L157.27337500000002,88.5L157.61691666666667,88.5L157.97763541666666,88.5L158.32117708333334,88.5L158.68189583333333,88.5L159.02543749999998,88.5L159.38615625,88.5L159.72969791666668,88.5L160.09041666666667,88.5L160.43395833333335,88.5L160.79467708333334,88.5L161.13821875,88.5L161.4989375,88.5L161.84247916666666,88.5L162.20319791666665,88.5L162.54673958333333,88.5L162.89028125,88.5L163.251,88.5L163.59454166666666,88.5L163.95526041666665,88.5L164.29880208333336,88.5L164.65952083333335,88.5L165.0030625,88.5L165.36378125000002,88.5L165.70732291666667,88.5L166.06804166666666,88.5L166.41158333333334,88.5L166.77230208333333,88.5L167.11584374999998,88.5L167.4765625,88.5L167.82010416666665,88.5L168.18082291666667,88.5L168.52436458333335,88.5L168.8850833333333,88.5L169.22862500000002,88.5L169.58934375,88.5L169.93288541666666,88.5L170.29360416666668,88.5L170.63714583333334,88.5L170.99786458333332,88.5L171.34140625,88.5L171.68494791666666,88.5L172.04566666666665,88.5L172.38920833333333,88.5L172.74992708333332,88.5L173.09346875,88.5L173.45418750000002,88.5L173.79772916666667,88.5L174.1584479166667,88.5L174.50198958333334,88.5L174.86270833333333,88.5L175.20625,88.5L175.56696875,88.5L175.91051041666665,88.5L176.27122916666667,88.5L176.61477083333332,88.5L176.9754895833333,88.5L177.31903125,88.5L177.67974999999998,88.5L178.02329166666667,88.5L178.38401041666668,88.5L178.72755208333334,88.5L179.08827083333335,88.5L179.4318125,88.5L179.79253125,88.5L180.13607291666668,88.5L180.47961458333333,88.5L180.84033333333332,88.5L181.183875,88.5L181.54459375,88.5L181.88813541666667,88.5L182.2488541666667,88.5L182.59239583333334,88.5L182.95311458333333,88.5L183.29665625,88.5L183.657375,88.5L184.00091666666665,88.5L184.36163541666667,88.5L184.70517708333333,88.5L185.06589583333334,88.5L185.4094375,88.5L185.77015624999999,88.5L186.11369791666667,88.5L186.47441666666666,88.5L186.81795833333334,88.5L187.17867708333335,88.5L187.52221875,88.5L187.8829375,88.5L188.22647916666668,88.5L188.58719791666667,88.5L188.93073958333332,88.5L189.27428125,88.5L189.635,88.5L189.97854166666664,88.5L190.33926041666666,88.5L190.68280208333334,88.5L191.04352083333336,88.5L191.3870625,88.5L191.74778125,88.5L192.09132291666668,88.5L192.45204166666667,88.5L192.79558333333333,88.5L193.15630208333334,88.5L193.49984375,88.5L193.8605625,88.5L194.20410416666667,88.5L194.56482291666666,88.5L194.9083645833333,88.5L195.26908333333333,88.5L195.612625,88.5L195.97334375000003,88.5L196.31688541666668,88.5L196.67760416666667,88.5L197.02114583333335,88.5L197.38186458333334,88.5L197.72540625,88.5L198.06894791666667,88.5L198.42966666666666,88.5L198.77320833333332,88.5L199.13392708333333,88.5L199.47746874999999,88.5L199.83818749999998,88.5L200.18172916666668,88.5L200.54244791666667,88.5L200.88598958333333,88.5L201.24670833333334,88.5L201.59025,88.5L201.95096875000002,88.5L202.29451041666667,88.5L202.65522916666666,88.5L202.99877083333334,88.5L203.35948958333333,88.5L203.70303124999998,88.5L204.06375,88.5L204.40729166666668,88.5L204.76801041666667,88.5L205.11155208333335,88.5L205.47227083333334,88.5L205.8158125,88.5L206.17653125,88.5L206.52007291666666,88.5L206.86361458333332,88.5L207.22433333333333,88.5L207.567875,88.5L207.92859375,88.5L208.27213541666666,88.5L208.63285416666665,88.5L208.97639583333336,88.5L209.33711458333335,88.5L209.68065625,88.5L210.04137500000002,88.5L210.38491666666667,88.5L210.74563541666666,88.5L211.08917708333334,88.5L211.44989583333333,88.5L211.79343749999998,88.5L212.15415625,88.5L212.49769791666665,88.5L212.85841666666667,88.5L213.20195833333335,88.5L213.5626770833333,88.5L213.90621875000002,88.5L214.2669375,88.5L214.61047916666666,88.5L214.97119791666668,88.5L215.31473958333333,88.5L215.65828125,88.5L216.019,88.5L216.36254166666666,88.5L216.72326041666665,88.5L217.06680208333333,88.5L217.42752083333332,88.5L217.7710625,88.5L218.13178125000002,88.5L218.47532291666667,88.5L218.8360416666667,88.5L219.17958333333334,88.5L219.54030208333333,88.5L219.88384375,88.5L220.2445625,88.5L220.58810416666665,88.5L220.94882291666667,88.5L221.29236458333332,88.5L221.6530833333333,88.5L221.996625,88.5L222.35734374999998,88.5L222.70088541666667,88.5L223.06160416666668,88.5L223.40514583333334,88.5L223.76586458333335,88.5L224.10940625,88.5L224.45294791666666,88.5L224.81366666666668,88.5L225.15720833333333,88.5L225.51792708333332,88.5L225.86146875,88.5L226.2221875,88.5L226.56572916666667,88.5L226.9264479166667,88.5L227.26998958333334,88.5L227.63070833333333,88.5L227.97425,88.5L228.33496875,88.5L228.67851041666665,88.5L229.03922916666667,88.5L229.38277083333332,88.5L229.74348958333334,88.5L230.08703125,88.5L230.44774999999998,88.5L230.79129166666667,88.5L231.15201041666666,88.5L231.49555208333334,88.5L231.85627083333335,88.5L232.1998125,88.5L232.56053125,88.5L232.90407291666668,88.5L233.24761458333333,88.5L233.60833333333332,88.5L233.951875,88.5L234.31259375,88.5L234.65613541666664,88.5L235.01685416666666,88.5L235.36039583333334,88.5L235.72111458333336,88.5L236.06465625,88.5" style="fill: none;" fill="none"></path></g></g></g></g></g></g><g transform="translate(72, 177)" clip-path="url(#clip_1)"><clipPath id="clip_1"><rect width="257" height="23"></rect></clipPath><g><g><line x1="0" y1="0" x2="0" y2="5" style="visibility: inherit;" fill="rgb(0, 0, 0)" stroke="rgb(204, 204, 204)" stroke-width="1px"></line><line x1="21.471354166666664" y1="0" x2="21.471354166666664" y2="5" style="visibility: inherit;" fill="rgb(0, 0, 0)" stroke="rgb(204, 204, 204)" stroke-width="1px"></line><line x1="42.94270833333333" y1="0" x2="42.94270833333333" y2="5" style="visibility: inherit;" fill="rgb(0, 0, 0)" stroke="rgb(204, 204, 204)" stroke-width="1px"></line><line x1="64.4140625" y1="0" x2="64.4140625" y2="5" style="visibility: inherit;" fill="rgb(0, 0, 0)" stroke="rgb(204, 204, 204)" stroke-width="1px"></line><line x1="85.88541666666666" y1="0" x2="85.88541666666666" y2="5" style="visibility: inherit;" fill="rgb(0, 0, 0)" stroke="rgb(204, 204, 204)" stroke-width="1px"></line><line x1="107.35677083333334" y1="0" x2="107.35677083333334" y2="5" style="visibility: inherit;" fill="rgb(0, 0, 0)" stroke="rgb(204, 204, 204)" stroke-width="1px"></line><line x1="128.828125" y1="0" x2="128.828125" y2="5" style="visibility: inherit;" fill="rgb(0, 0, 0)" stroke="rgb(204, 204, 204)" stroke-width="1px"></line><line x1="150.29947916666669" y1="0" x2="150.29947916666669" y2="5" style="visibility: inherit;" fill="rgb(0, 0, 0)" stroke="rgb(204, 204, 204)" stroke-width="1px"></line><line x1="171.77083333333331" y1="0" x2="171.77083333333331" y2="5" style="visibility: inherit;" fill="rgb(0, 0, 0)" stroke="rgb(204, 204, 204)" stroke-width="1px"></line><line x1="193.2421875" y1="0" x2="193.2421875" y2="5" style="visibility: inherit;" fill="rgb(0, 0, 0)" stroke="rgb(204, 204, 204)" stroke-width="1px"></line><line x1="214.71354166666669" y1="0" x2="214.71354166666669" y2="5" style="visibility: inherit;" fill="rgb(0, 0, 0)" stroke="rgb(204, 204, 204)" stroke-width="1px"></line><line x1="236.18489583333331" y1="0" x2="236.18489583333331" y2="5" style="visibility: inherit;" fill="rgb(0, 0, 0)" stroke="rgb(204, 204, 204)" stroke-width="1px"></line><line x1="257.65625" y1="0" x2="257.65625" y2="5" style="visibility: inherit;" fill="rgb(0, 0, 0)" stroke="rgb(204, 204, 204)" stroke-width="1px"></line></g><g transform="translate(0, 8)"><text x="0" y="0" dx="0em" dy="0.95em" style="text-anchor: middle; visibility: hidden; font-family: Roboto, sans-serif; font-size: 12px; font-weight: 200;" fill="rgb(33, 33, 33)" stroke="none" stroke-width="1px">-1M</text><text x="21.471354166666664" y="0" dx="0em" dy="0.95em" style="text-anchor: middle; visibility: inherit; font-family: Roboto, sans-serif; font-size: 12px; font-weight: 200;" fill="rgb(33, 33, 33)" stroke="none" stroke-width="1px">0</text><text x="42.94270833333333" y="0" dx="0em" dy="0.95em" style="text-anchor: middle; visibility: hidden; font-family: Roboto, sans-serif; font-size: 12px; font-weight: 200;" fill="rgb(33, 33, 33)" stroke="none" stroke-width="1px">1M</text><text x="64.4140625" y="0" dx="0em" dy="0.95em" style="text-anchor: middle; visibility: inherit; font-family: Roboto, sans-serif; font-size: 12px; font-weight: 200;" fill="rgb(33, 33, 33)" stroke="none" stroke-width="1px">2M</text><text x="85.88541666666666" y="0" dx="0em" dy="0.95em" style="text-anchor: middle; visibility: hidden; font-family: Roboto, sans-serif; font-size: 12px; font-weight: 200;" fill="rgb(33, 33, 33)" stroke="none" stroke-width="1px">3M</text><text x="107.35677083333334" y="0" dx="0em" dy="0.95em" style="text-anchor: middle; visibility: inherit; font-family: Roboto, sans-serif; font-size: 12px; font-weight: 200;" fill="rgb(33, 33, 33)" stroke="none" stroke-width="1px">4M</text><text x="128.828125" y="0" dx="0em" dy="0.95em" style="text-anchor: middle; visibility: hidden; font-family: Roboto, sans-serif; font-size: 12px; font-weight: 200;" fill="rgb(33, 33, 33)" stroke="none" stroke-width="1px">5M</text><text x="150.29947916666669" y="0" dx="0em" dy="0.95em" style="text-anchor: middle; visibility: inherit; font-family: Roboto, sans-serif; font-size: 12px; font-weight: 200;" fill="rgb(33, 33, 33)" stroke="none" stroke-width="1px">6M</text><text x="171.77083333333331" y="0" dx="0em" dy="0.95em" style="text-anchor: middle; visibility: hidden; font-family: Roboto, sans-serif; font-size: 12px; font-weight: 200;" fill="rgb(33, 33, 33)" stroke="none" stroke-width="1px">7M</text><text x="193.2421875" y="0" dx="0em" dy="0.95em" style="text-anchor: middle; visibility: inherit; font-family: Roboto, sans-serif; font-size: 12px; font-weight: 200;" fill="rgb(33, 33, 33)" stroke="none" stroke-width="1px">8M</text><text x="214.71354166666669" y="0" dx="0em" dy="0.95em" style="text-anchor: middle; visibility: hidden; font-family: Roboto, sans-serif; font-size: 12px; font-weight: 200;" fill="rgb(33, 33, 33)" stroke="none" stroke-width="1px">9M</text><text x="236.18489583333331" y="0" dx="0em" dy="0.95em" style="text-anchor: middle; visibility: inherit; font-family: Roboto, sans-serif; font-size: 12px; font-weight: 200;" fill="rgb(33, 33, 33)" stroke="none" stroke-width="1px">10M</text><text x="257.65625" y="0" dx="0em" dy="0.95em" style="text-anchor: middle; visibility: hidden; font-family: Roboto, sans-serif; font-size: 12px; font-weight: 200;" fill="rgb(33, 33, 33)" stroke="none" stroke-width="1px">11M</text></g><line x1="0" y1="0" x2="257.65625" y2="0" fill="rgb(0, 0, 0)" stroke="rgb(204, 204, 204)" stroke-width="1px"></line></g></g></g></g></svg>