<svg viewBox="0 0 330 200" xmlns="http://www.w3.org/2000/svg"><g><g><g><g><g><line x1="51.5625" y1="177" x2="46.5625" y2="177" style="visibility: inherit;" fill="rgb(0, 0, 0)" stroke="rgb(204, 204, 204)" stroke-width="1px"></line><line x1="51.5625" y1="154.8750003296882" x2="46.5625" y2="154.8750003296882" style="visibility: inherit;" fill="rgb(0, 0, 0)" stroke="rgb(204, 204, 204)" stroke-width="1px"></line><line x1="51.5625" y1="132.75000065937638" x2="46.5625" y2="132.75000065937638" style="visibility: inherit;" fill="rgb(0, 0, 0)" stroke="rgb(204, 204, 204)" stroke-width="1px"></line><line x1="51.5625" y1="110.62500098906457" x2="46.5625" y2="110.62500098906457" style="visibility: inherit;" fill="rgb(0, 0, 0)" stroke="rgb(204, 204, 204)" stroke-width="1px"></line><line x1="51.5625" y1="88.50000131875275" x2="46.5625" y2="88.50000131875275" style="visibility: inherit;" fill="rgb(0, 0, 0)" stroke="rgb(204, 204, 204)" stroke-width="1px"></line><line x1="51.5625" y1="66.37500164844094" x2="46.5625" y2="66.37500164844094" style="visibility: inherit;" fill="rgb(0, 0, 0)" stroke="rgb(204, 204, 204)" stroke-width="1px"></line><line x1="51.5625" y1="44.25000197812913" x2="46.5625" y2="44.25000197812913" style="visibility: inherit;" fill="rgb(0, 0, 0)" stroke="rgb(204, 204, 204)" stroke-width="1px"></line><line x1="51.5625" y1="22.12500230781732" x2="46.5625" y2="22.12500230781732" style="visibility: inherit;" fill="rgb(0, 0, 0)" stroke="rgb(204, 204, 204)" stroke-width="1px"></line><line x1="51.5625" y1="0.00000263750549200914" x2="46.5625" y2="0.00000263750549200914" style="visibility: inherit;" fill="rgb(0, 0, 0)" stroke="rgb(204, 204, 204)" stroke-width="1px"></line></g><g transform="translate(41.5625, 0)"><text x="0" y="177" dx="0em" dy="0.3em" style="text-anchor: end; visibility: hidden; font-family: Roboto, sans-serif; font-size: 12px; font-weight: 200;" fill="rgb(33, 33, 33)" stroke="none" stroke-width="1px">0</text><text x="0" y="154.8750003296882" dx="0em" dy="0.3em" style="text-anchor: end; visibility: inherit; font-family: Roboto, sans-serif; font-size: 12px; font-weight: 200;" fill="rgb(33, 33, 33)" stroke="none" stroke-width="1px">0.05</text><text x="0" y="132.75000065937638" dx="0em" dy="0.3em" style="text-anchor: end; visibility: hidden; font-family: Roboto, sans-serif; font-size: 12px; font-weight: 200;" fill="rgb(33, 33, 33)" stroke="none" stroke-width="1px">0.1</text><text x="0" y="110.62500098906457" dx="0em" dy="0.3em" style="text-anchor: end; visibility: inherit; font-family: Roboto, sans-serif; font-size: 12px; font-weight: 200;" fill="rgb(33, 33, 33)" stroke="none" stroke-width="1px">0.15</text><text x="0" y="88.50000131875275" dx="0em" dy="0.3em" style="text-anchor: end; visibility: hidden; font-family: Roboto, sans-serif; font-size: 12px; font-weight: 200;" fill="rgb(33, 33, 33)" stroke="none" stroke-width="1px">0.2</text><text x="0" y="66.37500164844094" dx="0em" dy="0.3em" style="text-anchor: end; visibility: inherit; font-family: Roboto, sans-serif; font-size: 12px; font-weight: 200;" fill="rgb(33, 33, 33)" stroke="none" stroke-width="1px">0.25</text><text x="0" y="44.25000197812913" dx="0em" dy="0.3em" style="text-anchor: end; visibility: hidden; font-family: Roboto, sans-serif; font-size: 12px; font-weight: 200;" fill="rgb(33, 33, 33)" stroke="none" stroke-width="1px">0.3</text><text x="0" y="22.12500230781732" dx="0em" dy="0.3em" style="text-anchor: end; visibility: inherit; font-family: Roboto, sans-serif; font-size: 12px; font-weight: 200;" fill="rgb(33, 33, 33)" stroke="none" stroke-width="1px">0.35</text><text x="0" y="0.00000263750549200914" dx="0em" dy="0.3em" style="text-anchor: end; visibility: hidden; font-family: Roboto, sans-serif; font-size: 12px; font-weight: 200;" fill="rgb(33, 33, 33)" stroke="none" stroke-width="1px">0.4</text></g><line x1="51.5625" y1="0" x2="51.5625" y2="177" fill="rgb(0, 0, 0)" stroke="rgb(204, 204, 204)" stroke-width="1px"></line></g></g><g transform="translate(51, 0)" clip-path="url(#clip_0)"><clipPath id="clip_0"><rect width="278" height="177"></rect></clipPath><g><g><g><line x1="0" y1="0" x2="0" y2="177" fill="rgb(0, 0, 0)" stroke="rgb(66, 66, 66)" stroke-width="1px" opacity="0.25"></line><line x1="23.203125" y1="0" x2="23.203125" y2="177" fill="rgb(0, 0, 0)" stroke="rgb(66, 66, 66)" stroke-width="1px" opacity="0.25"></line><line x1="46.40625" y1="0" x2="46.40625" y2="177" fill="rgb(0, 0, 0)" stroke="rgb(66, 66, 66)" stroke-width="1px" opacity="0.25"></line><line x1="69.609375" y1="0" x2="69.609375" y2="177" fill="rgb(0, 0, 0)" stroke="rgb(66, 66, 66)" stroke-width="1px" opacity="0.25"></line><line x1="92.8125" y1="0" x2="92.8125" y2="177" fill="rgb(0, 0, 0)" stroke="rgb(66, 66, 66)" stroke-width="1px" opacity="0.25"></line><line x1="116.015625" y1="0" x2="116.015625" y2="177" fill="rgb(0, 0, 0)" stroke="rgb(66, 66, 66)" stroke-width="1px" opacity="0.25"></line><line x1="139.21875" y1="0" x2="139.21875" y2="177" fill="rgb(0, 0, 0)" stroke="rgb(66, 66, 66)" stroke-width="1px" opacity="0.25"></line><line x1="162.421875" y1="0" x2="162.421875" y2="177" fill="rgb(0, 0, 0)" stroke="rgb(66, 66, 66)" stroke-width="1px" opacity="0.25"></line><line x1="185.625" y1="0" x2="185.625" y2="177" fill="rgb(0, 0, 0)" stroke="rgb(66, 66, 66)" stroke-width="1px" opacity="0.25"></line><line x1="208.828125" y1="0" x2="208.828125" y2="177" fill="rgb(0, 0, 0)" stroke="rgb(66, 66, 66)" stroke-width="1px" opacity="0.25"></line><line x1="232.03125" y1="0" x2="232.03125" y2="177" fill="rgb(0, 0, 0)" stroke="rgb(66, 66, 66)" stroke-width="1px" opacity="0.25"></line><line x1="255.234375" y1="0" x2="255.234375" y2="177" fill="rgb(0, 0, 0)" stroke="rgb(66, 66, 66)" stroke-width="1px" opacity="0.25"></line><line x1="278.4375" y1="0" x2="278.4375" y2="177" fill="rgb(0, 0, 0)" stroke="rgb(66, 66, 66)" stroke-width="1px" opacity="0.25"></line></g><g><line x1="0" y1="177" x2="278.4375" y2="177" fill="rgb(0, 0, 0)" stroke="rgb(66, 66, 66)" stroke-width="1px" opacity="0.25"></line><line x1="0" y1="154.8750003296882" x2="278.4375" y2="154.8750003296882" fill="rgb(0, 0, 0)" stroke="rgb(66, 66, 66)" stroke-width="1px" opacity="0.25"></line><line x1="0" y1="132.75000065937638" x2="278.4375" y2="132.75000065937638" fill="rgb(0, 0, 0)" stroke="rgb(66, 66, 66)" stroke-width="1px" opacity="0.25"></line><line x1="0" y1="110.62500098906457" x2="278.4375" y2="110.62500098906457" fill="rgb(0, 0, 0)" stroke="rgb(66, 66, 66)" stroke-width="1px" opacity="0.25"></line><line x1="0" y1="88.50000131875275" x2="278.4375" y2="88.50000131875275" fill="rgb(0, 0, 0)" stroke="rgb(66, 66, 66)" stroke-width="1px" opacity="0.25"></line><line x1="0" y1="66.37500164844094" x2="278.4375" y2="66.37500164844094" fill="rgb(0, 0, 0)" stroke="rgb(66, 66, 66)" stroke-width="1px" opacity="0.25"></line><line x1="0" y1="44.25000197812913" x2="278.4375" y2="44.25000197812913" fill="rgb(0, 0, 0)" stroke="rgb(66, 66, 66)" stroke-width="1px" opacity="0.25"></line><line x1="0" y1="22.12500230781732" x2="278.4375" y2="22.12500230781732" fill="rgb(0, 0, 0)" stroke="rgb(66, 66, 66)" stroke-width="1px" opacity="0.25"></line><line x1="0" y1="0.00000263750549200914" x2="278.4375" y2="0.00000263750549200914" fill="rgb(0, 0, 0)" stroke="rgb(66, 66, 66)" stroke-width="1px" opacity="0.25"></line></g></g></g><g><g><line x1="0" y1="177" x2="278.4375" y2="177" fill="rgb(0, 0, 0)" stroke="rgb(153, 153, 153)" stroke-width="1.5px"></line></g></g><g><g><line x1="23.203125" y1="0" x2="23.203125" y2="177" fill="rgb(0, 0, 0)" stroke="rgb(153, 153, 153)" stroke-width="1.5px"></line></g></g><g><g><g><g><g><path stroke="rgb(255, 112, 67)" stroke-width="2px" d="M23.592937499999998,88.5L23.9641875,88.5L24.354,88.5L24.725250000000003,88.5L25.1150625,88.5L25.486312499999997,88.5L25.876125000000002,88.5L26.247374999999998,88.5L26.6371875,88.5L27.0084375,88.5L27.39825,88.5L27.769499999999997,88.5L28.159312500000002,88.5L28.5305625,88.5L28.920375,88.5L29.291625,88.5L29.6814375,88.5L30.0526875,88.5L30.442500000000003,88.5L30.81375,88.5L31.2035625,88.5L31.5748125,88.5L31.964624999999998,88.5L32.335875,88.5L32.7256875,88.5L33.096937499999996,88.5L33.4681875,88.5L33.858,88.5L34.22925,88.5L34.6190625,88.5L34.9903125,88.5L35.380125,88.5L35.751374999999996,88.5L36.1411875,88.5L36.5124375,88.5L36.90225,88.5L37.2735,88.5L37.6633125,88.5L38.0345625,88.5L38.424375000000005,88.5L38.795625,88.5L39.1854375,88.5L39.5566875,88.5L39.9465,88.5L40.317750000000004,88.5L40.7075625,88.5L41.0788125,88.5L41.468625,88.5L41.839875,88.5L42.229687500000004,88.5L42.6009375,88.5L42.9721875,88.5L43.362,88.5L43.73325,88.5L44.1230625,88.5L44.4943125,88.5L44.884125000000004,88.5L45.255375,88.5L45.6451875,88.5L46.0164375,88.5L46.40625,88.5L46.7775,88.5L47.1673125,88.5L47.5385625,88.5L47.928375,88.5L48.299625,88.5L48.689437500000004,88.5L49.0606875,88.5L49.450500000000005,88.5L49.82175,88.5L50.21156250000001,88.5L50.5828125,88.5L50.972624999999994,88.5L51.343875000000004,88.5L51.733687499999995,88.5L52.104937500000005,88.5L52.4761875,88.5L52.866,88.5L53.23725,88.5L53.6270625,88.5L53.998312500000004,88.5L54.388125,88.5L54.759375,88.5L55.149187500000004,88.5L55.5204375,88.5L55.910250000000005,88.5L56.2815,88.5L56.671312500000006,88.5L57.0425625,88.5L57.43237499999999,88.5L57.803625000000004,88.5L58.193437499999995,88.5L58.564687500000005,88.5L58.954499999999996,88.5L59.32575,88.5L59.7155625,88.5L60.0868125,88.5L60.476625,88.5L60.847875,88.5L61.2376875,88.5L61.6089375,88.5L61.9801875,88.5L62.370000000000005,88.5L62.74125,88.5L63.131062500000006,88.5L63.5023125,88.5L63.89212500000001,88.5L64.263375,88.5L64.6531875,88.5L65.0244375,88.5L65.41425,88.5L65.7855,88.5L66.1753125,88.5L66.5465625,88.5L66.936375,88.5L67.307625,88.5L67.6974375,88.5L68.0686875,88.5L68.4585,88.5L68.82975,88.5L69.2195625,88.5L69.5908125,88.5L69.980625,88.5L70.35187499999999,88.5L70.7416875,88.5L71.1129375,88.5L71.48418749999999,88.5L71.874,88.5L72.24525,88.5L72.6350625,88.5L73.00631249999999,88.5L73.396125,88.5L73.767375,88.5L74.15718749999999,88.5L74.5284375,88.5L74.91825,88.5L75.28949999999999,88.5L75.6793125,88.5L76.0505625,88.5L76.440375,88.5L76.81162499999999,88.5L77.2014375,88.5L77.5726875,88.5L77.9625,88.5L78.33375,88.5L78.7235625,88.5L79.0948125,88.5L79.484625,88.5L79.855875,88.5L80.2456875,88.5L80.61693749999999,88.5L80.9881875,88.5L81.378,88.5L81.74925,88.5L82.1390625,88.5L82.5103125,88.5L82.900125,88.5L83.27137499999999,88.5L83.6611875,88.5L84.0324375,88.5L84.42225,88.5L84.7935,88.5L85.1833125,88.5L85.5545625,88.5L85.944375,88.5L86.315625,88.5L86.7054375,88.5L87.07668749999999,88.5L87.4665,88.5L87.83775,88.5L88.2275625,88.5L88.5988125,88.5L88.988625,88.5L89.359875,88.5L89.74968750000001,88.5L90.1209375,88.5L90.4921875,88.5L90.882,88.5L91.25325,88.5L91.6430625,88.5L92.0143125,88.5L92.404125,88.5L92.775375,88.5L93.1651875,88.5L93.53643749999999,88.5L93.92625,88.5L94.2975,88.5L94.6873125,88.5L95.0585625,88.5L95.448375,88.5L95.819625,88.5L96.2094375,88.5L96.5806875,88.5L96.9705,88.5L97.34175,88.5L97.7315625,88.5L98.1028125,88.5L98.492625,88.5L98.863875,88.5L99.2536875,88.5L99.6249375,88.5L99.9961875,88.5L100.386,88.5L100.75725,88.5L101.1470625,88.5L101.5183125,88.5L101.908125,88.5L102.279375,88.5L102.6691875,88.5L103.0404375,88.5L103.43025,88.5L103.8015,88.5L104.1913125,88.5L104.5625625,88.5L104.952375,88.5L105.32362499999999,88.5L105.7134375,88.5L106.0846875,88.5L106.4745,88.5L106.84575,88.5L107.2355625,88.5L107.6068125,88.5L107.99662500000001,88.5L108.367875,88.5L108.7576875,88.5L109.1289375,88.5L109.5001875,88.5L109.89,88.5L110.26125,88.5L110.6510625,88.5L111.0223125,88.5L111.412125,88.5L111.783375,88.5L112.1731875,88.5L112.5444375,88.5L112.93425,88.5L113.3055,88.5L113.6953125,88.5L114.0665625,88.5L114.45637500000001,88.5L114.827625,88.5L115.2174375,88.5L115.5886875,88.5L115.9785,88.5L116.34975,88.5L116.7395625,88.5L117.1108125,88.5L117.500625,88.5L117.871875,88.5L118.26168750000001,88.5L118.6329375,88.5L119.0041875,88.5L119.394,88.5L119.76525,88.5L120.1550625,88.5L120.5263125,88.5L120.91612500000001,88.5L121.287375,88.5L121.6771875,88.5L122.0484375,88.5L122.43825,88.5L122.8095,88.5L123.1993125,88.5L123.5705625,88.5L123.960375,88.5L124.331625,88.5L124.72143750000001,88.5L125.0926875,88.5L125.4825,88.5L125.85375,88.5L126.24356250000001,88.5L126.6148125,88.5L127.004625,88.5L127.37587500000001,88.5L127.7656875,88.5L128.1369375,88.5L128.5081875,88.5L128.898,88.5L129.26925,88.5L129.6590625,88.5L130.0303125,88.5L130.42012499999998,88.5L130.791375,88.5L131.1811875,88.5L131.5524375,88.5L131.94225,88.5L132.3135,88.5L132.7033125,88.5L133.07456249999998,88.5L133.464375,88.5L133.835625,88.5L134.2254375,88.5L134.5966875,88.5L134.9865,88.5L135.35774999999998,88.5L135.7475625,88.5L136.1188125,88.5L136.508625,88.5L136.879875,88.5L137.2696875,88.5L137.6409375,88.5L138.01218749999998,88.5L138.402,88.5L138.77325,88.5L139.1630625,88.5L139.5343125,88.5L139.924125,88.5L140.295375,88.5L140.68518749999998,88.5L141.05643750000002,88.5L141.44625,88.5L141.8175,88.5L142.2073125,88.5L142.5785625,88.5L142.96837499999998,88.5L143.339625,88.5L143.7294375,88.5L144.1006875,88.5L144.4905,88.5L144.86175,88.5L145.25156249999998,88.5L145.6228125,88.5L146.01262499999999,88.5L146.38387500000002,88.5L146.7736875,88.5L147.1449375,88.5L147.5161875,88.5L147.906,88.5L148.27724999999998,88.5L148.66706250000001,88.5L149.0383125,88.5L149.428125,88.5L149.799375,88.5L150.1891875,88.5L150.56043749999998,88.5L150.95025,88.5L151.3215,88.5L151.71131250000002,88.5L152.0825625,88.5L152.472375,88.5L152.843625,88.5L153.2334375,88.5L153.60468749999998,88.5L153.99450000000002,88.5L154.36575,88.5L154.7555625,88.5L155.1268125,88.5L155.516625,88.5L155.88787499999998,88.5L156.2776875,88.5L156.6489375,88.5L157.0201875,88.5L157.41,88.5L157.78125,88.5L158.1710625,88.5L158.5423125,88.5L158.93212499999998,88.5L159.30337500000002,88.5L159.6931875,88.5L160.0644375,88.5L160.45425,88.5L160.8255,88.5L161.21531249999998,88.5L161.5865625,88.5L161.976375,88.5L162.347625,88.5L162.7374375,88.5L163.1086875,88.5L163.4985,88.5L163.86975,88.5L164.2595625,88.5L164.63081250000002,88.5L165.020625,88.5L165.391875,88.5L165.7816875,88.5L166.1529375,88.5L166.52418749999998,88.5L166.91400000000002,88.5L167.28525,88.5L167.6750625,88.5L168.0463125,88.5L168.436125,88.5L168.80737499999998,88.5L169.1971875,88.5L169.5684375,88.5L169.95825000000002,88.5L170.3295,88.5L170.7193125,88.5L171.0905625,88.5L171.480375,88.5L171.85162499999998,88.5L172.24143750000002,88.5L172.6126875,88.5L173.0025,88.5L173.37375,88.5L173.7635625,88.5L174.13481249999998,88.5L174.52462500000001,88.5L174.895875,88.5L175.2856875,88.5L175.6569375,88.5L176.0281875,88.5L176.418,88.5L176.78925,88.5L177.1790625,88.5L177.55031250000002,88.5L177.940125,88.5L178.311375,88.5L178.7011875,88.5L179.0724375,88.5L179.46224999999998,88.5L179.83350000000002,88.5L180.2233125,88.5L180.5945625,88.5L180.984375,88.5L181.355625,88.5L181.7454375,88.5L182.1166875,88.5L182.5065,88.5L182.87775000000002,88.5L183.2675625,88.5L183.6388125,88.5L184.028625,88.5L184.399875,88.5L184.78968749999999,88.5L185.16093750000002,88.5L185.5321875,88.5L185.922,88.5L186.29325,88.5L186.6830625,88.5L187.05431249999998,88.5L187.444125,88.5L187.815375,88.5L188.20518750000002,88.5L188.5764375,88.5L188.96625,88.5L189.3375,88.5L189.7273125,88.5L190.09856249999999,88.5L190.48837500000002,88.5L190.859625,88.5L191.2494375,88.5L191.6206875,88.5L192.0105,88.5L192.38174999999998,88.5L192.77156250000002,88.5L193.1428125,88.5L193.53262500000002,88.5L193.903875,88.5L194.2936875,88.5L194.6649375,88.5L195.0361875,88.5L195.426,88.5L195.79725000000002,88.5L196.1870625,88.5L196.5583125,88.5L196.948125,88.5L197.319375,88.5L197.70918749999998,88.5L198.08043750000002,88.5L198.47025,88.5L198.8415,88.5L199.2313125,88.5L199.6025625,88.5L199.992375,88.5L200.363625,88.5L200.7534375,88.5L201.12468750000002,88.5L201.5145,88.5L201.88575,88.5L202.2755625,88.5L202.6468125,88.5L203.036625,88.5L203.40787500000002,88.5L203.7976875,88.5L204.1689375,88.5L204.5401875,88.5L204.93,88.5L205.30124999999998,88.5L205.69106250000002,88.5L206.0623125,88.5L206.45212500000002,88.5L206.823375,88.5L207.2131875,88.5L207.5844375,88.5L207.97425,88.5L208.3455,88.5L208.73531250000002,88.5L209.1065625,88.5L209.496375,88.5L209.867625,88.5L210.2574375,88.5L210.62868749999998,88.5L211.01850000000002,88.5L211.38975,88.5L211.77956250000003,88.5L212.1508125,88.5L212.540625,88.5L212.911875,88.5L213.3016875,88.5L213.6729375,88.5L214.04418750000002,88.5L214.434,88.5L214.80525,88.5L215.1950625,88.5L215.5663125,88.5L215.956125,88.5L216.32737500000002,88.5L216.7171875,88.5L217.0884375,88.5L217.47825,88.5L217.8495,88.5L218.2393125,88.5L218.61056250000001,88.5L219.000375,88.5L219.37162500000002,88.5L219.7614375,88.5L220.1326875,88.5L220.5225,88.5L220.89375,88.5L221.2835625,88.5L221.65481250000002,88.5L222.044625,88.5L222.415875,88.5L222.8056875,88.5L223.1769375,88.5L223.54818749999998,88.5L223.93800000000002,88.5L224.30925,88.5L224.69906250000003,88.5L225.0703125,88.5L225.460125,88.5L225.831375,88.5L226.2211875,88.5L226.5924375,88.5L226.98225000000002,88.5L227.3535,88.5L227.7433125,88.5L228.1145625,88.5L228.504375,88.5L228.87562499999999,88.5L229.26543750000002,88.5L229.6366875,88.5L230.02650000000003,88.5L230.39775,88.5L230.78756249999998,88.5L231.1588125,88.5L231.54862500000002,88.5L231.919875,88.5L232.30968750000002,88.5L232.6809375,88.5L233.0521875,88.5L233.442,88.5L233.81325,88.5L234.2030625,88.5L234.57431250000002,88.5L234.964125,88.5L235.335375,88.5L235.7251875,88.5L236.0964375,88.5L236.48625,88.5L236.85750000000002,88.5L237.2473125,88.5L237.61856250000002,88.5L238.008375,88.5L238.379625,88.5L238.7694375,88.5L239.1406875,88.5L239.5305,88.5L239.90175000000002,88.5L240.2915625,88.5L240.6628125,88.5L241.052625,88.5L241.423875,88.5L241.81368750000001,88.5L242.18493750000002,88.5L242.5561875,88.5L242.94600000000003,88.5L243.31725,88.5L243.70706249999998,88.5L244.0783125,88.5L244.46812500000001,88.5L244.839375,88.5L245.22918750000002,88.5L245.6004375,88.5L245.99024999999997,88.5L246.3615,88.5L246.75131249999998,88.5L247.1225625,88.5L247.512375,88.5L247.883625,88.5L248.27343750000003,88.5L248.6446875,88.5L249.03449999999998,88.5L249.40575,88.5L249.7955625,88.5L250.1668125,88.5L250.556625,88.5L250.927875,88.5L251.31768749999998,88.5L251.6889375,88.5L252.0601875,88.5L252.45,88.5L252.82125000000002,88.5L253.2110625,88.5L253.58231249999997,88.5L253.972125,88.5L254.343375,88.5L254.7331875,88.5L255.10443750000002,88.5" style="fill: none;" fill="none"></path></g></g></g></g><g opacity="0.2"><g><g><g><path stroke="rgb(255, 112, 67)" stroke-width="2px" d="M23.592937499999998,88.5L23.9641875,88.5L24.354,88.5L24.725250000000003,88.5L25.1150625,88.5L25.486312499999997,88.5L25.876125000000002,88.5L26.247374999999998,88.5L26.6371875,88.5L27.0084375,88.5L27.39825,88.5L27.769499999999997,88.5L28.159312500000002,88.5L28.5305625,88.5L28.920375,88.5L29.291625,88.5L29.6814375,88.5L30.0526875,88.5L30.442500000000003,88.5L30.81375,88.5L31.2035625,88.5L31.5748125,88.5L31.964624999999998,88.5L32.335875,88.5L32.7256875,88.5L33.096937499999996,88.5L33.4681875,88.5L33.858,88.5L34.22925,88.5L34.6190625,88.5L34.9903125,88.5L35.380125,88.5L35.751374999999996,88.5L36.1411875,88.5L36.5124375,88.5L36.90225,88.5L37.2735,88.5L37.6633125,88.5L38.0345625,88.5L38.424375000000005,88.5L38.795625,88.5L39.1854375,88.5L39.5566875,88.5L39.9465,88.5L40.317750000000004,88.5L40.7075625,88.5L41.0788125,88.5L41.468625,88.5L41.839875,88.5L42.229687500000004,88.5L42.6009375,88.5L42.9721875,88.5L43.362,88.5L43.73325,88.5L44.1230625,88.5L44.4943125,88.5L44.884125000000004,88.5L45.255375,88.5L45.6451875,88.5L46.0164375,88.5L46.40625,88.5L46.7775,88.5L47.1673125,88.5L47.5385625,88.5L47.928375,88.5L48.299625,88.5L48.689437500000004,88.5L49.0606875,88.5L49.450500000000005,88.5L49.82175,88.5L50.21156250000001,88.5L50.5828125,88.5L50.972624999999994,88.5L51.343875000000004,88.5L51.733687499999995,88.5L52.104937500000005,88.5L52.4761875,88.5L52.866,88.5L53.23725,88.5L53.6270625,88.5L53.998312500000004,88.5L54.388125,88.5L54.759375,88.5L55.149187500000004,88.5L55.5204375,88.5L55.910250000000005,88.5L56.2815,88.5L56.671312500000006,88.5L57.0425625,88.5L57.43237499999999,88.5L57.803625000000004,88.5L58.193437499999995,88.5L58.564687500000005,88.5L58.954499999999996,88.5L59.32575,88.5L59.7155625,88.5L60.0868125,88.5L60.476625,88.5L60.847875,88.5L61.2376875,88.5L61.6089375,88.5L61.9801875,88.5L62.370000000000005,88.5L62.74125,88.5L63.131062500000006,88.5L63.5023125,88.5L63.89212500000001,88.5L64.263375,88.5L64.6531875,88.5L65.0244375,88.5L65.41425,88.5L65.7855,88.5L66.1753125,88.5L66.5465625,88.5L66.936375,88.5L67.307625,88.5L67.6974375,88.5L68.0686875,88.5L68.4585,88.5L68.82975,88.5L69.2195625,88.5L69.5908125,88.5L69.980625,88.5L70.35187499999999,88.5L70.7416875,88.5L71.1129375,88.5L71.48418749999999,88.5L71.874,88.5L72.24525,88.5L72.6350625,88.5L73.00631249999999,88.5L73.396125,88.5L73.767375,88.5L74.15718749999999,88.5L74.5284375,88.5L74.91825,88.5L75.28949999999999,88.5L75.6793125,88.5L76.0505625,88.5L76.440375,88.5L76.81162499999999,88.5L77.2014375,88.5L77.5726875,88.5L77.9625,88.5L78.33375,88.5L78.7235625,88.5L79.0948125,88.5L79.484625,88.5L79.855875,88.5L80.2456875,88.5L80.61693749999999,88.5L80.9881875,88.5L81.378,88.5L81.74925,88.5L82.1390625,88.5L82.5103125,88.5L82.900125,88.5L83.27137499999999,88.5L83.6611875,88.5L84.0324375,88.5L84.42225,88.5L84.7935,88.5L85.1833125,88.5L85.5545625,88.5L85.944375,88.5L86.315625,88.5L86.7054375,88.5L87.07668749999999,88.5L87.4665,88.5L87.83775,88.5L88.2275625,88.5L88.5988125,88.5L88.988625,88.5L89.359875,88.5L89.74968750000001,88.5L90.1209375,88.5L90.4921875,88.5L90.882,88.5L91.25325,88.5L91.6430625,88.5L92.0143125,88.5L92.404125,88.5L92.775375,88.5L93.1651875,88.5L93.53643749999999,88.5L93.92625,88.5L94.2975,88.5L94.6873125,88.5L95.0585625,88.5L95.448375,88.5L95.819625,88.5L96.2094375,88.5L96.5806875,88.5L96.9705,88.5L97.34175,88.5L97.7315625,88.5L98.1028125,88.5L98.492625,88.5L98.863875,88.5L99.2536875,88.5L99.6249375,88.5L99.9961875,88.5L100.386,88.5L100.75725,88.5L101.1470625,88.5L101.5183125,88.5L101.908125,88.5L102.279375,88.5L102.6691875,88.5L103.0404375,88.5L103.43025,88.5L103.8015,88.5L104.1913125,88.5L104.5625625,88.5L104.952375,88.5L105.32362499999999,88.5L105.7134375,88.5L106.0846875,88.5L106.4745,88.5L106.84575,88.5L107.2355625,88.5L107.6068125,88.5L107.99662500000001,88.5L108.367875,88.5L108.7576875,88.5L109.1289375,88.5L109.5001875,88.5L109.89,88.5L110.26125,88.5L110.6510625,88.5L111.0223125,88.5L111.412125,88.5L111.783375,88.5L112.1731875,88.5L112.5444375,88.5L112.93425,88.5L113.3055,88.5L113.6953125,88.5L114.0665625,88.5L114.45637500000001,88.5L114.827625,88.5L115.2174375,88.5L115.5886875,88.5L115.9785,88.5L116.34975,88.5L116.7395625,88.5L117.1108125,88.5L117.500625,88.5L117.871875,88.5L118.26168750000001,88.5L118.6329375,88.5L119.0041875,88.5L119.394,88.5L119.76525,88.5L120.1550625,88.5L120.5263125,88.5L120.91612500000001,88.5L121.287375,88.5L121.6771875,88.5L122.0484375,88.5L122.43825,88.5L122.8095,88.5L123.1993125,88.5L123.5705625,88.5L123.960375,88.5L124.331625,88.5L124.72143750000001,88.5L125.0926875,88.5L125.4825,88.5L125.85375,88.5L126.24356250000001,88.5L126.6148125,88.5L127.004625,88.5L127.37587500000001,88.5L127.7656875,88.5L128.1369375,88.5L128.5081875,88.5L128.898,88.5L129.26925,88.5L129.6590625,88.5L130.0303125,88.5L130.42012499999998,88.5L130.791375,88.5L131.1811875,88.5L131.5524375,88.5L131.94225,88.5L132.3135,88.5L132.7033125,88.5L133.07456249999998,88.5L133.464375,88.5L133.835625,88.5L134.2254375,88.5L134.5966875,88.5L134.9865,88.5L135.35774999999998,88.5L135.7475625,88.5L136.1188125,88.5L136.508625,88.5L136.879875,88.5L137.2696875,88.5L137.6409375,88.5L138.01218749999998,88.5L138.402,88.5L138.77325,88.5L139.1630625,88.5L139.5343125,88.5L139.924125,88.5L140.295375,88.5L140.68518749999998,88.5L141.05643750000002,88.5L141.44625,88.5L141.8175,88.5L142.2073125,88.5L142.5785625,88.5L142.96837499999998,88.5L143.339625,88.5L143.7294375,88.5L144.1006875,88.5L144.4905,88.5L144.86175,88.5L145.25156249999998,88.5L145.6228125,88.5L146.01262499999999,88.5L146.38387500000002,88.5L146.7736875,88.5L147.1449375,88.5L147.5161875,88.5L147.906,88.5L148.27724999999998,88.5L148.66706250000001,88.5L149.0383125,88.5L149.428125,88.5L149.799375,88.5L150.1891875,88.5L150.56043749999998,88.5L150.95025,88.5L151.3215,88.5L151.71131250000002,88.5L152.0825625,88.5L152.472375,88.5L152.843625,88.5L153.2334375,88.5L153.60468749999998,88.5L153.99450000000002,88.5L154.36575,88.5L154.7555625,88.5L155.1268125,88.5L155.516625,88.5L155.88787499999998,88.5L156.2776875,88.5L156.6489375,88.5L157.0201875,88.5L157.41,88.5L157.78125,88.5L158.1710625,88.5L158.5423125,88.5L158.93212499999998,88.5L159.30337500000002,88.5L159.6931875,88.5L160.0644375,88.5L160.45425,88.5L160.8255,88.5L161.21531249999998,88.5L161.5865625,88.5L161.976375,88.5L162.347625,88.5L162.7374375,88.5L163.1086875,88.5L163.4985,88.5L163.86975,88.5L164.2595625,88.5L164.63081250000002,88.5L165.020625,88.5L165.391875,88.5L165.7816875,88.5L166.1529375,88.5L166.52418749999998,88.5L166.91400000000002,88.5L167.28525,88.5L167.6750625,88.5L168.0463125,88.5L168.436125,88.5L168.80737499999998,88.5L169.1971875,88.5L169.5684375,88.5L169.95825000000002,88.5L170.3295,88.5L170.7193125,88.5L171.0905625,88.5L171.480375,88.5L171.85162499999998,88.5L172.24143750000002,88.5L172.6126875,88.5L173.0025,88.5L173.37375,88.5L173.7635625,88.5L174.13481249999998,88.5L174.52462500000001,88.5L174.895875,88.5L175.2856875,88.5L175.6569375,88.5L176.0281875,88.5L176.418,88.5L176.78925,88.5L177.1790625,88.5L177.55031250000002,88.5L177.940125,88.5L178.311375,88.5L178.7011875,88.5L179.0724375,88.5L179.46224999999998,88.5L179.83350000000002,88.5L180.2233125,88.5L180.5945625,88.5L180.984375,88.5L181.355625,88.5L181.7454375,88.5L182.1166875,88.5L182.5065,88.5L182.87775000000002,88.5L183.2675625,88.5L183.6388125,88.5L184.028625,88.5L184.399875,88.5L184.78968749999999,88.5L185.16093750000002,88.5L185.5321875,88.5L185.922,88.5L186.29325,88.5L186.6830625,88.5L187.05431249999998,88.5L187.444125,88.5L187.815375,88.5L188.20518750000002,88.5L188.5764375,88.5L188.96625,88.5L189.3375,88.5L189.7273125,88.5L190.09856249999999,88.5L190.48837500000002,88.5L190.859625,88.5L191.2494375,88.5L191.6206875,88.5L192.0105,88.5L192.38174999999998,88.5L192.77156250000002,88.5L193.1428125,88.5L193.53262500000002,88.5L193.903875,88.5L194.2936875,88.5L194.6649375,88.5L195.0361875,88.5L195.426,88.5L195.79725000000002,88.5L196.1870625,88.5L196.5583125,88.5L196.948125,88.5L197.319375,88.5L197.70918749999998,88.5L198.08043750000002,88.5L198.47025,88.5L198.8415,88.5L199.2313125,88.5L199.6025625,88.5L199.992375,88.5L200.363625,88.5L200.7534375,88.5L201.12468750000002,88.5L201.5145,88.5L201.88575,88.5L202.2755625,88.5L202.6468125,88.5L203.036625,88.5L203.40787500000002,88.5L203.7976875,88.5L204.1689375,88.5L204.5401875,88.5L204.93,88.5L205.30124999999998,88.5L205.69106250000002,88.5L206.0623125,88.5L206.45212500000002,88.5L206.823375,88.5L207.2131875,88.5L207.5844375,88.5L207.97425,88.5L208.3455,88.5L208.73531250000002,88.5L209.1065625,88.5L209.496375,88.5L209.867625,88.5L210.2574375,88.5L210.62868749999998,88.5L211.01850000000002,88.5L211.38975,88.5L211.77956250000003,88.5L212.1508125,88.5L212.540625,88.5L212.911875,88.5L213.3016875,88.5L213.6729375,88.5L214.04418750000002,88.5L214.434,88.5L214.80525,88.5L215.1950625,88.5L215.5663125,88.5L215.956125,88.5L216.32737500000002,88.5L216.7171875,88.5L217.0884375,88.5L217.47825,88.5L217.8495,88.5L218.2393125,88.5L218.61056250000001,88.5L219.000375,88.5L219.37162500000002,88.5L219.7614375,88.5L220.1326875,88.5L220.5225,88.5L220.89375,88.5L221.2835625,88.5L221.65481250000002,88.5L222.044625,88.5L222.415875,88.5L222.8056875,88.5L223.1769375,88.5L223.54818749999998,88.5L223.93800000000002,88.5L224.30925,88.5L224.69906250000003,88.5L225.0703125,88.5L225.460125,88.5L225.831375,88.5L226.2211875,88.5L226.5924375,88.5L226.98225000000002,88.5L227.3535,88.5L227.7433125,88.5L228.1145625,88.5L228.504375,88.5L228.87562499999999,88.5L229.26543750000002,88.5L229.6366875,88.5L230.02650000000003,88.5L230.39775,88.5L230.78756249999998,88.5L231.1588125,88.5L231.54862500000002,88.5L231.919875,88.5L232.30968750000002,88.5L232.6809375,88.5L233.0521875,88.5L233.442,88.5L233.81325,88.5L234.2030625,88.5L234.57431250000002,88.5L234.964125,88.5L235.335375,88.5L235.7251875,88.5L236.0964375,88.5L236.48625,88.5L236.85750000000002,88.5L237.2473125,88.5L237.61856250000002,88.5L238.008375,88.5L238.379625,88.5L238.7694375,88.5L239.1406875,88.5L239.5305,88.5L239.90175000000002,88.5L240.2915625,88.5L240.6628125,88.5L241.052625,88.5L241.423875,88.5L241.81368750000001,88.5L242.18493750000002,88.5L242.5561875,88.5L242.94600000000003,88.5L243.31725,88.5L243.70706249999998,88.5L244.0783125,88.5L244.46812500000001,88.5L244.839375,88.5L245.22918750000002,88.5L245.6004375,88.5L245.99024999999997,88.5L246.3615,88.5L246.75131249999998,88.5L247.1225625,88.5L247.512375,88.5L247.883625,88.5L248.27343750000003,88.5L248.6446875,88.5L249.03449999999998,88.5L249.40575,88.5L249.7955625,88.5L250.1668125,88.5L250.556625,88.5L250.927875,88.5L251.31768749999998,88.5L251.6889375,88.5L252.0601875,88.5L252.45,88.5L252.82125000000002,88.5L253.2110625,88.5L253.58231249999997,88.5L253.972125,88.5L254.343375,88.5L254.7331875,88.5L255.10443750000002,88.5" style="fill: none;" fill="none"></path></g></g></g></g></g></g><g transform="translate(51, 177)" clip-path="url(#clip_1)"><clipPath id="clip_1"><rect width="278" height="23"></rect></clipPath><g><g><line x1="0" y1="0" x2="0" y2="5" style="visibility: inherit;" fill="rgb(0, 0, 0)" stroke="rgb(204, 204, 204)" stroke-width="1px"></line><line x1="23.203125" y1="0" x2="23.203125" y2="5" style="visibility: inherit;" fill="rgb(0, 0, 0)" stroke="rgb(204, 204, 204)" stroke-width="1px"></line><line x1="46.40625" y1="0" x2="46.40625" y2="5" style="visibility: inherit;" fill="rgb(0, 0, 0)" stroke="rgb(204, 204, 204)" stroke-width="1px"></line><line x1="69.609375" y1="0" x2="69.609375" y2="5" style="visibility: inherit;" fill="rgb(0, 0, 0)" stroke="rgb(204, 204, 204)" stroke-width="1px"></line><line x1="92.8125" y1="0" x2="92.8125" y2="5" style="visibility: inherit;" fill="rgb(0, 0, 0)" stroke="rgb(204, 204, 204)" stroke-width="1px"></line><line x1="116.015625" y1="0" x2="116.015625" y2="5" style="visibility: inherit;" fill="rgb(0, 0, 0)" stroke="rgb(204, 204, 204)" stroke-width="1px"></line><line x1="139.21875" y1="0" x2="139.21875" y2="5" style="visibility: inherit;" fill="rgb(0, 0, 0)" stroke="rgb(204, 204, 204)" stroke-width="1px"></line><line x1="162.421875" y1="0" x2="162.421875" y2="5" style="visibility: inherit;" fill="rgb(0, 0, 0)" stroke="rgb(204, 204, 204)" stroke-width="1px"></line><line x1="185.625" y1="0" x2="185.625" y2="5" style="visibility: inherit;" fill="rgb(0, 0, 0)" stroke="rgb(204, 204, 204)" stroke-width="1px"></line><line x1="208.828125" y1="0" x2="208.828125" y2="5" style="visibility: inherit;" fill="rgb(0, 0, 0)" stroke="rgb(204, 204, 204)" stroke-width="1px"></line><line x1="232.03125" y1="0" x2="232.03125" y2="5" style="visibility: inherit;" fill="rgb(0, 0, 0)" stroke="rgb(204, 204, 204)" stroke-width="1px"></line><line x1="255.234375" y1="0" x2="255.234375" y2="5" style="visibility: inherit;" fill="rgb(0, 0, 0)" stroke="rgb(204, 204, 204)" stroke-width="1px"></line><line x1="278.4375" y1="0" x2="278.4375" y2="5" style="visibility: inherit;" fill="rgb(0, 0, 0)" stroke="rgb(204, 204, 204)" stroke-width="1px"></line></g><g transform="translate(0, 8)"><text x="0" y="0" dx="0em" dy="0.95em" style="text-anchor: middle; visibility: hidden; font-family: Roboto, sans-serif; font-size: 12px; font-weight: 200;" fill="rgb(33, 33, 33)" stroke="none" stroke-width="1px">-1M</text><text x="23.203125" y="0" dx="0em" dy="0.95em" style="text-anchor: middle; visibility: inherit; font-family: Roboto, sans-serif; font-size: 12px; font-weight: 200;" fill="rgb(33, 33, 33)" stroke="none" stroke-width="1px">0</text><text x="46.40625" y="0" dx="0em" dy="0.95em" style="text-anchor: middle; visibility: hidden; font-family: Roboto, sans-serif; font-size: 12px; font-weight: 200;" fill="rgb(33, 33, 33)" stroke="none" stroke-width="1px">1M</text><text x="69.609375" y="0" dx="0em" dy="0.95em" style="text-anchor: middle; visibility: inherit; font-family: Roboto, sans-serif; font-size: 12px; font-weight: 200;" fill="rgb(33, 33, 33)" stroke="none" stroke-width="1px">2M</text><text x="92.8125" y="0" dx="0em" dy="0.95em" style="text-anchor: middle; visibility: hidden; font-family: Roboto, sans-serif; font-size: 12px; font-weight: 200;" fill="rgb(33, 33, 33)" stroke="none" stroke-width="1px">3M</text><text x="116.015625" y="0" dx="0em" dy="0.95em" style="text-anchor: middle; visibility: inherit; font-family: Roboto, sans-serif; font-size: 12px; font-weight: 200;" fill="rgb(33, 33, 33)" stroke="none" stroke-width="1px">4M</text><text x="139.21875" y="0" dx="0em" dy="0.95em" style="text-anchor: middle; visibility: hidden; font-family: Roboto, sans-serif; font-size: 12px; font-weight: 200;" fill="rgb(33, 33, 33)" stroke="none" stroke-width="1px">5M</text><text x="162.421875" y="0" dx="0em" dy="0.95em" style="text-anchor: middle; visibility: inherit; font-family: Roboto, sans-serif; font-size: 12px; font-weight: 200;" fill="rgb(33, 33, 33)" stroke="none" stroke-width="1px">6M</text><text x="185.625" y="0" dx="0em" dy="0.95em" style="text-anchor: middle; visibility: hidden; font-family: Roboto, sans-serif; font-size: 12px; font-weight: 200;" fill="rgb(33, 33, 33)" stroke="none" stroke-width="1px">7M</text><text x="208.828125" y="0" dx="0em" dy="0.95em" style="text-anchor: middle; visibility: inherit; font-family: Roboto, sans-serif; font-size: 12px; font-weight: 200;" fill="rgb(33, 33, 33)" stroke="none" stroke-width="1px">8M</text><text x="232.03125" y="0" dx="0em" dy="0.95em" style="text-anchor: middle; visibility: hidden; font-family: Roboto, sans-serif; font-size: 12px; font-weight: 200;" fill="rgb(33, 33, 33)" stroke="none" stroke-width="1px">9M</text><text x="255.234375" y="0" dx="0em" dy="0.95em" style="text-anchor: middle; visibility: inherit; font-family: Roboto, sans-serif; font-size: 12px; font-weight: 200;" fill="rgb(33, 33, 33)" stroke="none" stroke-width="1px">10M</text><text x="278.4375" y="0" dx="0em" dy="0.95em" style="text-anchor: middle; visibility: hidden; font-family: Roboto, sans-serif; font-size: 12px; font-weight: 200;" fill="rgb(33, 33, 33)" stroke="none" stroke-width="1px">11M</text></g><line x1="0" y1="0" x2="278.4375" y2="0" fill="rgb(0, 0, 0)" stroke="rgb(204, 204, 204)" stroke-width="1px"></line></g></g></g></g></svg>