<svg viewBox="0 0 330 200" xmlns="http://www.w3.org/2000/svg"><g><g><g><g><g><line x1="41.6875" y1="175" x2="36.6875" y2="175" style="visibility: inherit;" fill="rgb(0, 0, 0)" stroke="rgb(204, 204, 204)" stroke-width="1px"></line><line x1="41.6875" y1="157.5" x2="36.6875" y2="157.5" style="visibility: inherit;" fill="rgb(0, 0, 0)" stroke="rgb(204, 204, 204)" stroke-width="1px"></line><line x1="41.6875" y1="140" x2="36.6875" y2="140" style="visibility: inherit;" fill="rgb(0, 0, 0)" stroke="rgb(204, 204, 204)" stroke-width="1px"></line><line x1="41.6875" y1="122.49999999999999" x2="36.6875" y2="122.49999999999999" style="visibility: inherit;" fill="rgb(0, 0, 0)" stroke="rgb(204, 204, 204)" stroke-width="1px"></line><line x1="41.6875" y1="105" x2="36.6875" y2="105" style="visibility: inherit;" fill="rgb(0, 0, 0)" stroke="rgb(204, 204, 204)" stroke-width="1px"></line><line x1="41.6875" y1="87.5" x2="36.6875" y2="87.5" style="visibility: inherit;" fill="rgb(0, 0, 0)" stroke="rgb(204, 204, 204)" stroke-width="1px"></line><line x1="41.6875" y1="70" x2="36.6875" y2="70" style="visibility: inherit;" fill="rgb(0, 0, 0)" stroke="rgb(204, 204, 204)" stroke-width="1px"></line><line x1="41.6875" y1="52.50000000000001" x2="36.6875" y2="52.50000000000001" style="visibility: inherit;" fill="rgb(0, 0, 0)" stroke="rgb(204, 204, 204)" stroke-width="1px"></line><line x1="41.6875" y1="34.99999999999999" x2="36.6875" y2="34.99999999999999" style="visibility: inherit;" fill="rgb(0, 0, 0)" stroke="rgb(204, 204, 204)" stroke-width="1px"></line><line x1="41.6875" y1="17.499999999999996" x2="36.6875" y2="17.499999999999996" style="visibility: inherit;" fill="rgb(0, 0, 0)" stroke="rgb(204, 204, 204)" stroke-width="1px"></line><line x1="41.6875" y1="0" x2="36.6875" y2="0" style="visibility: inherit;" fill="rgb(0, 0, 0)" stroke="rgb(204, 204, 204)" stroke-width="1px"></line></g><g transform="translate(31.6875, 0)"><text x="0" y="175" dx="0em" dy="0.3em" style="text-anchor: end; visibility: hidden; font-family: Roboto, sans-serif; font-size: 12px; font-weight: 200;" fill="rgb(33, 33, 33)" stroke="none" stroke-width="1px">620</text><text x="0" y="157.5" dx="0em" dy="0.3em" style="text-anchor: end; visibility: inherit; font-family: Roboto, sans-serif; font-size: 12px; font-weight: 200;" fill="rgb(33, 33, 33)" stroke="none" stroke-width="1px">640</text><text x="0" y="140" dx="0em" dy="0.3em" style="text-anchor: end; visibility: hidden; font-family: Roboto, sans-serif; font-size: 12px; font-weight: 200;" fill="rgb(33, 33, 33)" stroke="none" stroke-width="1px">660</text><text x="0" y="122.49999999999999" dx="0em" dy="0.3em" style="text-anchor: end; visibility: inherit; font-family: Roboto, sans-serif; font-size: 12px; font-weight: 200;" fill="rgb(33, 33, 33)" stroke="none" stroke-width="1px">680</text><text x="0" y="105" dx="0em" dy="0.3em" style="text-anchor: end; visibility: hidden; font-family: Roboto, sans-serif; font-size: 12px; font-weight: 200;" fill="rgb(33, 33, 33)" stroke="none" stroke-width="1px">700</text><text x="0" y="87.5" dx="0em" dy="0.3em" style="text-anchor: end; visibility: inherit; font-family: Roboto, sans-serif; font-size: 12px; font-weight: 200;" fill="rgb(33, 33, 33)" stroke="none" stroke-width="1px">720</text><text x="0" y="70" dx="0em" dy="0.3em" style="text-anchor: end; visibility: hidden; font-family: Roboto, sans-serif; font-size: 12px; font-weight: 200;" fill="rgb(33, 33, 33)" stroke="none" stroke-width="1px">740</text><text x="0" y="52.50000000000001" dx="0em" dy="0.3em" style="text-anchor: end; visibility: inherit; font-family: Roboto, sans-serif; font-size: 12px; font-weight: 200;" fill="rgb(33, 33, 33)" stroke="none" stroke-width="1px">760</text><text x="0" y="34.99999999999999" dx="0em" dy="0.3em" style="text-anchor: end; visibility: hidden; font-family: Roboto, sans-serif; font-size: 12px; font-weight: 200;" fill="rgb(33, 33, 33)" stroke="none" stroke-width="1px">780</text><text x="0" y="17.499999999999996" dx="0em" dy="0.3em" style="text-anchor: end; visibility: inherit; font-family: Roboto, sans-serif; font-size: 12px; font-weight: 200;" fill="rgb(33, 33, 33)" stroke="none" stroke-width="1px">800</text><text x="0" y="0" dx="0em" dy="0.3em" style="text-anchor: end; visibility: hidden; font-family: Roboto, sans-serif; font-size: 12px; font-weight: 200;" fill="rgb(33, 33, 33)" stroke="none" stroke-width="1px">820</text></g><line x1="41.6875" y1="0" x2="41.6875" y2="175" fill="rgb(0, 0, 0)" stroke="rgb(204, 204, 204)" stroke-width="1px"></line></g></g><g transform="translate(41, 0)" clip-path="url(#clip_0)"><clipPath id="clip_0"><rect width="288" height="175"></rect></clipPath><g><g><g><line x1="0" y1="0" x2="0" y2="175" fill="rgb(0, 0, 0)" stroke="rgb(66, 66, 66)" stroke-width="1px" opacity="0.25"></line><line x1="24.026041666666664" y1="0" x2="24.026041666666664" y2="175" fill="rgb(0, 0, 0)" stroke="rgb(66, 66, 66)" stroke-width="1px" opacity="0.25"></line><line x1="48.05208333333333" y1="0" x2="48.05208333333333" y2="175" fill="rgb(0, 0, 0)" stroke="rgb(66, 66, 66)" stroke-width="1px" opacity="0.25"></line><line x1="72.078125" y1="0" x2="72.078125" y2="175" fill="rgb(0, 0, 0)" stroke="rgb(66, 66, 66)" stroke-width="1px" opacity="0.25"></line><line x1="96.10416666666666" y1="0" x2="96.10416666666666" y2="175" fill="rgb(0, 0, 0)" stroke="rgb(66, 66, 66)" stroke-width="1px" opacity="0.25"></line><line x1="120.13020833333334" y1="0" x2="120.13020833333334" y2="175" fill="rgb(0, 0, 0)" stroke="rgb(66, 66, 66)" stroke-width="1px" opacity="0.25"></line><line x1="144.15625" y1="0" x2="144.15625" y2="175" fill="rgb(0, 0, 0)" stroke="rgb(66, 66, 66)" stroke-width="1px" opacity="0.25"></line><line x1="168.18229166666669" y1="0" x2="168.18229166666669" y2="175" fill="rgb(0, 0, 0)" stroke="rgb(66, 66, 66)" stroke-width="1px" opacity="0.25"></line><line x1="192.20833333333331" y1="0" x2="192.20833333333331" y2="175" fill="rgb(0, 0, 0)" stroke="rgb(66, 66, 66)" stroke-width="1px" opacity="0.25"></line><line x1="216.234375" y1="0" x2="216.234375" y2="175" fill="rgb(0, 0, 0)" stroke="rgb(66, 66, 66)" stroke-width="1px" opacity="0.25"></line><line x1="240.26041666666669" y1="0" x2="240.26041666666669" y2="175" fill="rgb(0, 0, 0)" stroke="rgb(66, 66, 66)" stroke-width="1px" opacity="0.25"></line><line x1="264.2864583333333" y1="0" x2="264.2864583333333" y2="175" fill="rgb(0, 0, 0)" stroke="rgb(66, 66, 66)" stroke-width="1px" opacity="0.25"></line><line x1="288.3125" y1="0" x2="288.3125" y2="175" fill="rgb(0, 0, 0)" stroke="rgb(66, 66, 66)" stroke-width="1px" opacity="0.25"></line></g><g><line x1="0" y1="175" x2="288.3125" y2="175" fill="rgb(0, 0, 0)" stroke="rgb(66, 66, 66)" stroke-width="1px" opacity="0.25"></line><line x1="0" y1="157.5" x2="288.3125" y2="157.5" fill="rgb(0, 0, 0)" stroke="rgb(66, 66, 66)" stroke-width="1px" opacity="0.25"></line><line x1="0" y1="140" x2="288.3125" y2="140" fill="rgb(0, 0, 0)" stroke="rgb(66, 66, 66)" stroke-width="1px" opacity="0.25"></line><line x1="0" y1="122.49999999999999" x2="288.3125" y2="122.49999999999999" fill="rgb(0, 0, 0)" stroke="rgb(66, 66, 66)" stroke-width="1px" opacity="0.25"></line><line x1="0" y1="105" x2="288.3125" y2="105" fill="rgb(0, 0, 0)" stroke="rgb(66, 66, 66)" stroke-width="1px" opacity="0.25"></line><line x1="0" y1="87.5" x2="288.3125" y2="87.5" fill="rgb(0, 0, 0)" stroke="rgb(66, 66, 66)" stroke-width="1px" opacity="0.25"></line><line x1="0" y1="70" x2="288.3125" y2="70" fill="rgb(0, 0, 0)" stroke="rgb(66, 66, 66)" stroke-width="1px" opacity="0.25"></line><line x1="0" y1="52.50000000000001" x2="288.3125" y2="52.50000000000001" fill="rgb(0, 0, 0)" stroke="rgb(66, 66, 66)" stroke-width="1px" opacity="0.25"></line><line x1="0" y1="34.99999999999999" x2="288.3125" y2="34.99999999999999" fill="rgb(0, 0, 0)" stroke="rgb(66, 66, 66)" stroke-width="1px" opacity="0.25"></line><line x1="0" y1="17.499999999999996" x2="288.3125" y2="17.499999999999996" fill="rgb(0, 0, 0)" stroke="rgb(66, 66, 66)" stroke-width="1px" opacity="0.25"></line><line x1="0" y1="0" x2="288.3125" y2="0" fill="rgb(0, 0, 0)" stroke="rgb(66, 66, 66)" stroke-width="1px" opacity="0.25"></line></g></g></g><g><g><line x1="0" y1="717.4999999999999" x2="288.3125" y2="717.4999999999999" fill="rgb(0, 0, 0)" stroke="rgb(153, 153, 153)" stroke-width="1.5px"></line></g></g><g><g><line x1="24.026041666666664" y1="0" x2="24.026041666666664" y2="175" fill="rgb(0, 0, 0)" stroke="rgb(153, 153, 153)" stroke-width="1.5px"></line></g></g><g><g><g><g><g><path stroke="rgb(255, 112, 67)" stroke-width="2px" d="M36.327375,-3.5534351145038223L38.787641666666666,18.129581766917273L41.247908333333335,32.993853538413L43.708175000000004,44.4893930438678L46.168441666666666,52.67613936699425L48.62870833333333,59.64783882081594L51.088975,65.56015299425229L53.54924166666667,70.49683788501996L56.009508333333336,74.15287777284044L58.469775000000006,76.69371777173042L60.93004166666667,78.56711150464164L63.39030833333333,80.0406826133903L65.85057499999999,81.27461843214806L68.31084166666666,82.01484623679258L70.77110833333333,82.8089561319354L73.231375,83.98541669242331L75.69164166666667,86.79131156823142L78.15190833333334,88.82481370624045L80.61217500000001,90.74490338727281L83.07244166666668,92.59695080807056L85.53270833333335,94.40817563420664L87.992975,95.84490783132652L90.45324166666666,97.05694593930525L92.91350833333333,98.48416844003224L95.373775,100.04050163746052L97.83404166666666,101.67430134366678L100.29430833333333,103.35458102907971L102.754575,104.71274872553987L105.21484166666667,106.57764932437657L107.67510833333333,108.39658964674078L110.135375,109.83795381282258L112.59564166666667,111.40277230383383L115.05590833333333,113.39166339460887L117.516175,115.6349980450952L119.97644166666667,117.33099883083578L122.43670833333334,119.04859930079736L124.896975,121.47915958242787L127.35724166666667,123.28749575032688L129.81750833333334,125.07249745071152L132.277775,126.4934984706731L134.73804166666667,127.69609908252883L137.19830833333333,128.76765944958407L139.658575,129.76059566978756L142.11884166666667,130.70635740189385L144.57910833333332,131.62381444114865L147.039375,132.17428866469368L149.49964166666666,132.8545731988195L151.95990833333335,133.61274391929393L154.420175,134.06764635157708L156.88044166666668,134.6905878109469L159.34070833333334,135.41435268656855L161.80097500000002,136.19861161194146L164.26124166666665,137.3691669671651L166.72150833333333,138.77150018029923L169.181775,139.9629001081796L171.64204166666667,141.02774006490782L174.10230833333333,142.0166440389447L176.562575,142.60998642336685L179.02284166666666,143.31599185402013L181.48310833333332,143.73959511241202L183.943375,144.34375706744714L186.40364166666666,145.4062542404683L188.86390833333334,146.39375254428097L191.324175,146.98625152656862L193.78444166666668,147.6917509159411L196.24470833333334,148.11505054956473L198.70497500000002,148.71903032973887L201.16524166666667,149.08141819784325L203.62550833333336,149.64885091870585L206.08577499999998,150.33931055122358L208.54604166666667,150.75358633073418L211.00630833333332,151.00215179844048L213.46657499999998,150.80129107906433L215.92684166666666,150.33077464743852L218.38710833333332,150.04846478846315L220.847375,149.87907887307793L223.30764166666665,149.77744732384676L225.76790833333334,149.36646839430801L228.228175,149.11988103658481L230.68844166666668,148.97192862195084L233.14870833333333,149.23315717317047L235.60897500000002,149.7398943039023L238.06924166666667,150.74393658234132L240.52950833333335,151.69636194940486L242.989775,152.267817169643L245.4500416666667,152.96069030178572L247.91030833333335,153.3764141810714L250.37057499999997,153.62584850864283L252.83084166666666,153.77550910518565L255.2911083333333,153.86530546311138L257.751375,153.9191832778668L260.21164166666665,153.60150996672007L262.67190833333336,153.41090598003208L265.132175,153.2965435880193" style="fill: none;" fill="none"></path></g></g></g></g><g opacity="0.2"><g><g><g><path stroke="rgb(255, 112, 67)" stroke-width="2px" d="M31.406841666666665,-4.374999999999984L33.867108333333334,20.125L36.327375,32.37500000000001L38.787641666666666,48.12500000000001L41.247908333333335,54.25000000000001L43.708175000000004,61.24999999999999L46.168441666666666,64.75L48.62870833333333,70L51.088975,74.37500000000001L53.54924166666667,77.87499999999999L56.009508333333336,79.625L58.469775000000006,80.5L60.93004166666667,81.375L63.39030833333333,82.25L65.85057499999999,83.125L68.31084166666666,83.125L70.77110833333333,84L73.231375,85.75L75.69164166666667,91L78.15190833333334,91.875L80.61217500000001,93.62499999999999L83.07244166666668,95.37499999999999L85.53270833333335,97.12499999999999L87.992975,98.00000000000001L90.45324166666666,98.87499999999999L92.91350833333333,100.62499999999999L95.373775,102.375L97.83404166666666,104.125L100.29430833333333,105.875L102.754575,106.75L105.21484166666667,109.375L107.67510833333333,111.125L110.135375,112L112.59564166666667,113.75L115.05590833333333,116.375L117.516175,118.99999999999999L119.97644166666667,119.87500000000001L122.43670833333334,121.62500000000001L124.896975,125.12500000000001L127.35724166666667,126L129.81750833333334,127.75L132.277775,128.625L134.73804166666667,129.5L137.19830833333333,130.375L139.658575,131.25L142.11884166666667,132.125L144.57910833333332,133L147.039375,133L149.49964166666666,133.875L151.95990833333335,134.75L154.420175,134.75L156.88044166666668,135.625L159.34070833333334,136.5L161.80097500000002,137.375L164.26124166666665,139.125L166.72150833333333,140.875L169.181775,141.75L171.64204166666667,142.625L174.10230833333333,143.5L176.562575,143.5L179.02284166666666,144.375L181.48310833333332,144.375L183.943375,145.25L186.40364166666666,147L188.86390833333334,147.875L191.324175,147.875L193.78444166666668,148.75L196.24470833333334,148.75L198.70497500000002,149.625L201.16524166666667,149.625L203.62550833333336,150.5L206.08577499999998,151.375L208.54604166666667,151.375L211.00630833333332,151.375L213.46657499999998,150.5L215.92684166666666,149.625L218.38710833333332,149.625L220.847375,149.625L223.30764166666665,149.625L225.76790833333334,148.75L228.228175,148.75L230.68844166666668,148.75L233.14870833333333,149.625L235.60897500000002,150.5L238.06924166666667,152.25L240.52950833333335,153.125L242.989775,153.125L245.4500416666667,154L247.91030833333335,154L250.37057499999997,154L252.83084166666666,154L255.2911083333333,154L257.751375,154L260.21164166666665,153.125L262.67190833333336,153.125L265.132175,153.125" style="fill: none;" fill="none"></path></g></g></g></g></g></g><g transform="translate(41, 175)" clip-path="url(#clip_1)"><clipPath id="clip_1"><rect width="288" height="25"></rect></clipPath><g><g><line x1="0" y1="0" x2="0" y2="5" style="visibility: inherit;" fill="rgb(0, 0, 0)" stroke="rgb(204, 204, 204)" stroke-width="1px"></line><line x1="24.026041666666664" y1="0" x2="24.026041666666664" y2="5" style="visibility: inherit;" fill="rgb(0, 0, 0)" stroke="rgb(204, 204, 204)" stroke-width="1px"></line><line x1="48.05208333333333" y1="0" x2="48.05208333333333" y2="5" style="visibility: inherit;" fill="rgb(0, 0, 0)" stroke="rgb(204, 204, 204)" stroke-width="1px"></line><line x1="72.078125" y1="0" x2="72.078125" y2="5" style="visibility: inherit;" fill="rgb(0, 0, 0)" stroke="rgb(204, 204, 204)" stroke-width="1px"></line><line x1="96.10416666666666" y1="0" x2="96.10416666666666" y2="5" style="visibility: inherit;" fill="rgb(0, 0, 0)" stroke="rgb(204, 204, 204)" stroke-width="1px"></line><line x1="120.13020833333334" y1="0" x2="120.13020833333334" y2="5" style="visibility: inherit;" fill="rgb(0, 0, 0)" stroke="rgb(204, 204, 204)" stroke-width="1px"></line><line x1="144.15625" y1="0" x2="144.15625" y2="5" style="visibility: inherit;" fill="rgb(0, 0, 0)" stroke="rgb(204, 204, 204)" stroke-width="1px"></line><line x1="168.18229166666669" y1="0" x2="168.18229166666669" y2="5" style="visibility: inherit;" fill="rgb(0, 0, 0)" stroke="rgb(204, 204, 204)" stroke-width="1px"></line><line x1="192.20833333333331" y1="0" x2="192.20833333333331" y2="5" style="visibility: inherit;" fill="rgb(0, 0, 0)" stroke="rgb(204, 204, 204)" stroke-width="1px"></line><line x1="216.234375" y1="0" x2="216.234375" y2="5" style="visibility: inherit;" fill="rgb(0, 0, 0)" stroke="rgb(204, 204, 204)" stroke-width="1px"></line><line x1="240.26041666666669" y1="0" x2="240.26041666666669" y2="5" style="visibility: inherit;" fill="rgb(0, 0, 0)" stroke="rgb(204, 204, 204)" stroke-width="1px"></line><line x1="264.2864583333333" y1="0" x2="264.2864583333333" y2="5" style="visibility: inherit;" fill="rgb(0, 0, 0)" stroke="rgb(204, 204, 204)" stroke-width="1px"></line><line x1="288.3125" y1="0" x2="288.3125" y2="5" style="visibility: inherit;" fill="rgb(0, 0, 0)" stroke="rgb(204, 204, 204)" stroke-width="1px"></line></g><g transform="translate(0, 8)"><text x="0" y="0" dx="0em" dy="0.95em" style="text-anchor: middle; visibility: hidden; font-family: Roboto, sans-serif; font-size: 12px; font-weight: 200;" fill="rgb(33, 33, 33)" stroke="none" stroke-width="1px">-20k</text><text x="24.026041666666664" y="0" dx="0em" dy="0.95em" style="text-anchor: middle; visibility: inherit; font-family: Roboto, sans-serif; font-size: 12px; font-weight: 200;" fill="rgb(33, 33, 33)" stroke="none" stroke-width="1px">0</text><text x="48.05208333333333" y="0" dx="0em" dy="0.95em" style="text-anchor: middle; visibility: hidden; font-family: Roboto, sans-serif; font-size: 12px; font-weight: 200;" fill="rgb(33, 33, 33)" stroke="none" stroke-width="1px">20k</text><text x="72.078125" y="0" dx="0em" dy="0.95em" style="text-anchor: middle; visibility: inherit; font-family: Roboto, sans-serif; font-size: 12px; font-weight: 200;" fill="rgb(33, 33, 33)" stroke="none" stroke-width="1px">40k</text><text x="96.10416666666666" y="0" dx="0em" dy="0.95em" style="text-anchor: middle; visibility: hidden; font-family: Roboto, sans-serif; font-size: 12px; font-weight: 200;" fill="rgb(33, 33, 33)" stroke="none" stroke-width="1px">60k</text><text x="120.13020833333334" y="0" dx="0em" dy="0.95em" style="text-anchor: middle; visibility: inherit; font-family: Roboto, sans-serif; font-size: 12px; font-weight: 200;" fill="rgb(33, 33, 33)" stroke="none" stroke-width="1px">80k</text><text x="144.15625" y="0" dx="0em" dy="0.95em" style="text-anchor: middle; visibility: hidden; font-family: Roboto, sans-serif; font-size: 12px; font-weight: 200;" fill="rgb(33, 33, 33)" stroke="none" stroke-width="1px">100k</text><text x="168.18229166666669" y="0" dx="0em" dy="0.95em" style="text-anchor: middle; visibility: inherit; font-family: Roboto, sans-serif; font-size: 12px; font-weight: 200;" fill="rgb(33, 33, 33)" stroke="none" stroke-width="1px">120k</text><text x="192.20833333333331" y="0" dx="0em" dy="0.95em" style="text-anchor: middle; visibility: hidden; font-family: Roboto, sans-serif; font-size: 12px; font-weight: 200;" fill="rgb(33, 33, 33)" stroke="none" stroke-width="1px">140k</text><text x="216.234375" y="0" dx="0em" dy="0.95em" style="text-anchor: middle; visibility: inherit; font-family: Roboto, sans-serif; font-size: 12px; font-weight: 200;" fill="rgb(33, 33, 33)" stroke="none" stroke-width="1px">160k</text><text x="240.26041666666669" y="0" dx="0em" dy="0.95em" style="text-anchor: middle; visibility: hidden; font-family: Roboto, sans-serif; font-size: 12px; font-weight: 200;" fill="rgb(33, 33, 33)" stroke="none" stroke-width="1px">180k</text><text x="264.2864583333333" y="0" dx="0em" dy="0.95em" style="text-anchor: middle; visibility: inherit; font-family: Roboto, sans-serif; font-size: 12px; font-weight: 200;" fill="rgb(33, 33, 33)" stroke="none" stroke-width="1px">200k</text><text x="288.3125" y="0" dx="0em" dy="0.95em" style="text-anchor: middle; visibility: hidden; font-family: Roboto, sans-serif; font-size: 12px; font-weight: 200;" fill="rgb(33, 33, 33)" stroke="none" stroke-width="1px">220k</text></g><line x1="0" y1="0" x2="288.3125" y2="0" fill="rgb(0, 0, 0)" stroke="rgb(204, 204, 204)" stroke-width="1px"></line></g></g></g></g></svg>