<svg viewBox="0 0 330 200" xmlns="http://www.w3.org/2000/svg"><g><g><g><g><g><line x1="61.953125" y1="177" x2="56.953125" y2="177" style="visibility: inherit;" fill="rgb(0, 0, 0)" stroke="rgb(204, 204, 204)" stroke-width="1px"></line><line x1="61.953125" y1="154.87500000000003" x2="56.953125" y2="154.87500000000003" style="visibility: inherit;" fill="rgb(0, 0, 0)" stroke="rgb(204, 204, 204)" stroke-width="1px"></line><line x1="61.953125" y1="132.75" x2="56.953125" y2="132.75" style="visibility: inherit;" fill="rgb(0, 0, 0)" stroke="rgb(204, 204, 204)" stroke-width="1px"></line><line x1="61.953125" y1="110.62499999999996" x2="56.953125" y2="110.62499999999996" style="visibility: inherit;" fill="rgb(0, 0, 0)" stroke="rgb(204, 204, 204)" stroke-width="1px"></line><line x1="61.953125" y1="88.50000000000001" x2="56.953125" y2="88.50000000000001" style="visibility: inherit;" fill="rgb(0, 0, 0)" stroke="rgb(204, 204, 204)" stroke-width="1px"></line><line x1="61.953125" y1="66.375" x2="56.953125" y2="66.375" style="visibility: inherit;" fill="rgb(0, 0, 0)" stroke="rgb(204, 204, 204)" stroke-width="1px"></line><line x1="61.953125" y1="44.24999999999998" x2="56.953125" y2="44.24999999999998" style="visibility: inherit;" fill="rgb(0, 0, 0)" stroke="rgb(204, 204, 204)" stroke-width="1px"></line><line x1="61.953125" y1="22.12500000000002" x2="56.953125" y2="22.12500000000002" style="visibility: inherit;" fill="rgb(0, 0, 0)" stroke="rgb(204, 204, 204)" stroke-width="1px"></line><line x1="61.953125" y1="0" x2="56.953125" y2="0" style="visibility: inherit;" fill="rgb(0, 0, 0)" stroke="rgb(204, 204, 204)" stroke-width="1px"></line></g><g transform="translate(51.953125, 0)"><text x="0" y="177" dx="0em" dy="0.3em" style="text-anchor: end; visibility: hidden; font-family: Roboto, sans-serif; font-size: 12px; font-weight: 200;" fill="rgb(33, 33, 33)" stroke="none" stroke-width="1px">0.055</text><text x="0" y="154.87500000000003" dx="0em" dy="0.3em" style="text-anchor: end; visibility: inherit; font-family: Roboto, sans-serif; font-size: 12px; font-weight: 200;" fill="rgb(33, 33, 33)" stroke="none" stroke-width="1px">0.06</text><text x="0" y="132.75" dx="0em" dy="0.3em" style="text-anchor: end; visibility: hidden; font-family: Roboto, sans-serif; font-size: 12px; font-weight: 200;" fill="rgb(33, 33, 33)" stroke="none" stroke-width="1px">0.065</text><text x="0" y="110.62499999999996" dx="0em" dy="0.3em" style="text-anchor: end; visibility: inherit; font-family: Roboto, sans-serif; font-size: 12px; font-weight: 200;" fill="rgb(33, 33, 33)" stroke="none" stroke-width="1px">0.07</text><text x="0" y="88.50000000000001" dx="0em" dy="0.3em" style="text-anchor: end; visibility: hidden; font-family: Roboto, sans-serif; font-size: 12px; font-weight: 200;" fill="rgb(33, 33, 33)" stroke="none" stroke-width="1px">0.075</text><text x="0" y="66.375" dx="0em" dy="0.3em" style="text-anchor: end; visibility: inherit; font-family: Roboto, sans-serif; font-size: 12px; font-weight: 200;" fill="rgb(33, 33, 33)" stroke="none" stroke-width="1px">0.08</text><text x="0" y="44.24999999999998" dx="0em" dy="0.3em" style="text-anchor: end; visibility: hidden; font-family: Roboto, sans-serif; font-size: 12px; font-weight: 200;" fill="rgb(33, 33, 33)" stroke="none" stroke-width="1px">0.085</text><text x="0" y="22.12500000000002" dx="0em" dy="0.3em" style="text-anchor: end; visibility: inherit; font-family: Roboto, sans-serif; font-size: 12px; font-weight: 200;" fill="rgb(33, 33, 33)" stroke="none" stroke-width="1px">0.09</text><text x="0" y="0" dx="0em" dy="0.3em" style="text-anchor: end; visibility: hidden; font-family: Roboto, sans-serif; font-size: 12px; font-weight: 200;" fill="rgb(33, 33, 33)" stroke="none" stroke-width="1px">0.095</text></g><line x1="61.953125" y1="0" x2="61.953125" y2="177" fill="rgb(0, 0, 0)" stroke="rgb(204, 204, 204)" stroke-width="1px"></line></g></g><g transform="translate(61, 0)" clip-path="url(#clip_0)"><clipPath id="clip_0"><rect width="268" height="177"></rect></clipPath><g><g><g><line x1="0" y1="0" x2="0" y2="177" fill="rgb(0, 0, 0)" stroke="rgb(66, 66, 66)" stroke-width="1px" opacity="0.25"></line><line x1="22.337239583333332" y1="0" x2="22.337239583333332" y2="177" fill="rgb(0, 0, 0)" stroke="rgb(66, 66, 66)" stroke-width="1px" opacity="0.25"></line><line x1="44.674479166666664" y1="0" x2="44.674479166666664" y2="177" fill="rgb(0, 0, 0)" stroke="rgb(66, 66, 66)" stroke-width="1px" opacity="0.25"></line><line x1="67.01171875" y1="0" x2="67.01171875" y2="177" fill="rgb(0, 0, 0)" stroke="rgb(66, 66, 66)" stroke-width="1px" opacity="0.25"></line><line x1="89.34895833333333" y1="0" x2="89.34895833333333" y2="177" fill="rgb(0, 0, 0)" stroke="rgb(66, 66, 66)" stroke-width="1px" opacity="0.25"></line><line x1="111.68619791666667" y1="0" x2="111.68619791666667" y2="177" fill="rgb(0, 0, 0)" stroke="rgb(66, 66, 66)" stroke-width="1px" opacity="0.25"></line><line x1="134.0234375" y1="0" x2="134.0234375" y2="177" fill="rgb(0, 0, 0)" stroke="rgb(66, 66, 66)" stroke-width="1px" opacity="0.25"></line><line x1="156.36067708333334" y1="0" x2="156.36067708333334" y2="177" fill="rgb(0, 0, 0)" stroke="rgb(66, 66, 66)" stroke-width="1px" opacity="0.25"></line><line x1="178.69791666666666" y1="0" x2="178.69791666666666" y2="177" fill="rgb(0, 0, 0)" stroke="rgb(66, 66, 66)" stroke-width="1px" opacity="0.25"></line><line x1="201.03515625" y1="0" x2="201.03515625" y2="177" fill="rgb(0, 0, 0)" stroke="rgb(66, 66, 66)" stroke-width="1px" opacity="0.25"></line><line x1="223.37239583333334" y1="0" x2="223.37239583333334" y2="177" fill="rgb(0, 0, 0)" stroke="rgb(66, 66, 66)" stroke-width="1px" opacity="0.25"></line><line x1="245.70963541666666" y1="0" x2="245.70963541666666" y2="177" fill="rgb(0, 0, 0)" stroke="rgb(66, 66, 66)" stroke-width="1px" opacity="0.25"></line><line x1="268.046875" y1="0" x2="268.046875" y2="177" fill="rgb(0, 0, 0)" stroke="rgb(66, 66, 66)" stroke-width="1px" opacity="0.25"></line></g><g><line x1="0" y1="177" x2="268.046875" y2="177" fill="rgb(0, 0, 0)" stroke="rgb(66, 66, 66)" stroke-width="1px" opacity="0.25"></line><line x1="0" y1="154.87500000000003" x2="268.046875" y2="154.87500000000003" fill="rgb(0, 0, 0)" stroke="rgb(66, 66, 66)" stroke-width="1px" opacity="0.25"></line><line x1="0" y1="132.75" x2="268.046875" y2="132.75" fill="rgb(0, 0, 0)" stroke="rgb(66, 66, 66)" stroke-width="1px" opacity="0.25"></line><line x1="0" y1="110.62499999999996" x2="268.046875" y2="110.62499999999996" fill="rgb(0, 0, 0)" stroke="rgb(66, 66, 66)" stroke-width="1px" opacity="0.25"></line><line x1="0" y1="88.50000000000001" x2="268.046875" y2="88.50000000000001" fill="rgb(0, 0, 0)" stroke="rgb(66, 66, 66)" stroke-width="1px" opacity="0.25"></line><line x1="0" y1="66.375" x2="268.046875" y2="66.375" fill="rgb(0, 0, 0)" stroke="rgb(66, 66, 66)" stroke-width="1px" opacity="0.25"></line><line x1="0" y1="44.24999999999998" x2="268.046875" y2="44.24999999999998" fill="rgb(0, 0, 0)" stroke="rgb(66, 66, 66)" stroke-width="1px" opacity="0.25"></line><line x1="0" y1="22.12500000000002" x2="268.046875" y2="22.12500000000002" fill="rgb(0, 0, 0)" stroke="rgb(66, 66, 66)" stroke-width="1px" opacity="0.25"></line><line x1="0" y1="0" x2="268.046875" y2="0" fill="rgb(0, 0, 0)" stroke="rgb(66, 66, 66)" stroke-width="1px" opacity="0.25"></line></g></g></g><g><g><line x1="0" y1="420.375" x2="268.046875" y2="420.375" fill="rgb(0, 0, 0)" stroke="rgb(153, 153, 153)" stroke-width="1.5px"></line></g></g><g><g><line x1="22.337239583333332" y1="0" x2="22.337239583333332" y2="177" fill="rgb(0, 0, 0)" stroke="rgb(153, 153, 153)" stroke-width="1.5px"></line></g></g><g><g><g><g><g><path stroke="rgb(255, 112, 67)" stroke-width="2px" d="M26.91190625,77.912841796875L29.19923958333333,149.7542683398351L31.486572916666667,184.86474239316829L33.77390625,183.87180083495673L36.06123958333333,159.7496916806399L38.34857291666667,157.59560290496606L40.635906250000005,173.97446134202895L42.92323958333333,173.8340793772819L45.21057291666666,191.21249875381181L47.49790625,150.39927196436923L49.785239583333336,129.36599207089333L52.072572916666665,142.86587740447095L54.35990625,128.1007304172424L56.64723958333334,121.32983405024457L58.93457291666666,120.64289257808677L61.221906249999996,130.60495484161265L63.50923958333333,132.17192690973764L65.79657291666666,128.96307888661534L68.08390625,100.07149431386732L70.37123958333333,80.40409157941538L72.65857291666667,86.66748941623734L74.94590625000001,77.28855115880349L77.23323958333334,73.21694619683711L79.52057291666667,59.45216753282088L81.80790625,84.29451304094081L84.09523958333332,77.4205437550789L86.38257291666666,85.30936030216398L88.66990625,72.06608207368879L90.95723958333333,56.60106405226537L93.24457291666667,68.66924012432925L95.53190624999999,58.71140339749118L97.81923958333333,58.613658436965586L100.10657291666666,44.89973473855696L102.39390625,56.37646226570597L104.68123958333334,63.694627485228025L106.96857291666667,54.34383245094981L109.25590625000001,52.708933541696496L111.54323958333335,35.739224612000555L113.83057291666667,32.125763959155385L116.11790624999999,49.05777734186596L118.40523958333333,40.46259344822027L120.69257291666666,53.541328243981596L122.97990625,72.96961853324309L125.26723958333334,94.04701077360843L127.55457291666667,88.71688097611657L129.84190625,64.94946452168763L132.12923958333334,71.86333105702127L134.41657291666667,56.30657021510794L136.70390625,13.957867909744241L138.9912395833333,24.58819467092685L141.27857291666666,16.101158990014945L143.56590624999998,16.367333381504295L145.85323958333333,14.884953447655471L148.14057291666666,31.79922851235L150.42790625,58.36869198866561L152.71523958333333,44.32062661818855L155.00257291666668,3.5685504834094495L157.28990625,30.627062515038276L159.57723958333335,42.19518282152395L161.86457291666667,28.998845336658196L164.15190625000002,47.00877722073986L166.43923958333335,59.111123069938635L168.72657291666664,56.60641466070212L171.01390625,25.373126140170985L173.3012395833333,36.36361650284159L175.58857291666666,50.30410212669391L177.87590624999999,54.087837644777416L180.16323958333334,67.24771948061101L182.45057291666666,59.93271899462762L184.73790625,27.88746870303762L187.02523958333333,39.255039815572566L189.31257291666668,51.08828043309906L191.59990625,44.44651767234836L193.88723958333335,58.17874517214798L196.17457291666668,65.20812600953879L198.46190625,58.7953807807178L200.74923958333335,50.36716459966962L203.03657291666664,64.66961780355733L205.32390625,60.63292038837891L207.61123958333332,72.0390269392718L209.89857291666667,80.52478862607418L212.18590625,73.68948518815007L214.47323958333334,82.12004140664563L216.76057291666666,67.55972543149845L219.04790625,57.78641592138802L221.33523958333333,73.52887552782174L223.62257291666668,82.71508449795411L225.90990625,96.35082804252242L228.19723958333336,95.80326498800238L230.48457291666668,69.20129493030142L232.77190625,78.82214942069189L235.05923958333332,73.87785732740957L237.34657291666664,77.7389267027068L239.63390625,67.17811900911857L241.92123958333332,61.27376329921562L244.20857291666667,78.99189733578486L246.49590625,104.66085842021538" style="fill: none;" fill="none"></path></g></g></g></g><g opacity="0.2"><g><g><g><path stroke="rgb(255, 112, 67)" stroke-width="2px" d="M26.91190625,77.912841796875L29.19923958333333,192.85912426561117L33.77390625,182.7041015625L36.06123958333333,128.25586596876383L38.34857291666667,154.61572265625L40.635906250000005,197.39649096876383L42.92323958333333,173.62940112501383L45.21057291666666,216.84229175001383L47.49790625,89.79638671875L49.785239583333336,98.00684253126383L52.072572916666665,163.0422396250069L54.35990625,106.001220703125L56.64723958333334,111.18675439059734L58.93457291666666,119.61328784376383L61.221906249999996,145.54102221876383L63.50923958333333,134.52172192186117L65.79657291666666,124.15062157809734L68.08390625,56.73851879686117L70.37123958333333,50.90478515625L72.65857291666667,96.06224267184734L74.94590625000001,63.22045239061117L77.23323958333334,67.109619140625L79.52057291666667,38.80516259372234L81.80790625,121.55785473436117L84.09523958333332,67.109619140625L86.38257291666666,97.14256493747234L88.66990625,52.20118506252766L90.95723958333333,33.40355126559734L93.24457291666667,86.77149756252766L95.53190624999999,43.77465160936117L97.81923958333333,58.467041015625L100.10657291666666,24.32885082811117L102.39390625,73.591552734375L104.68123958333334,74.671875L106.96857291666667,40.31764014065266L109.25590625000001,50.25658520311117L111.54323958333335,10.284661374986172L113.83057291666667,26.70557300001383L116.11790624999999,74.45579735934734L118.40523958333333,27.56981762498617L120.69257291666666,73.15943042188883L122.97990625,102.11205395311117L125.26723958333334,125.66309912502766L127.55457291666667,80.72168628126383L129.84190625,29.29833984375L132.12923958333334,82.234130859375L134.41657291666667,32.97142895311117L136.70390625,-49.565185546875L138.9912395833333,40.53368481248617L141.27857291666666,3.37060546875L143.56590624999998,16.76659496873617L145.85323958333333,12.661383546888828L148.14057291666666,57.17064110934734L150.42790625,98.22288720309734L152.71523958333333,23.24852856248617L155.00257291666668,-57.55956371873617L157.28990625,71.21483056247234L159.57723958333335,59.54736328125L161.86457291666667,9.204339109361172L164.15190625000002,74.02367504686117L166.43923958333335,77.26464184373617L168.72657291666664,52.84935204684734L171.01390625,-21.476806640625L173.3012395833333,52.84935204684734L175.58857291666666,71.21483056247234L177.87590624999999,59.76344092190266L180.16323958333334,86.98754223436117L182.45057291666666,48.96021826565266L184.73790625,-20.180406734347343L187.02523958333333,56.306396484375L189.31257291666668,68.83814135938883L191.59990625,34.48387353122234L193.88723958333335,78.77708642184734L196.17457291666668,75.752197265625L198.46190625,49.17626293748617L200.74923958333335,37.72484032809734L203.03657291666664,86.12329760938883L205.32390625,54.57787426561117L207.61123958333332,89.14818676561117L209.89857291666667,93.25343115627766L212.18590625,63.43653003126383L214.47323958333334,94.76587573438883L216.76057291666666,45.71925146877766L219.04790625,43.12645165622234L221.33523958333333,97.14256493747234L223.62257291666668,96.49439795315266L225.90990625,116.804443359375L228.19723958333336,94.98192040622234L230.48457291666668,29.29833984375L232.77190625,93.25343115627766L235.05923958333332,66.46141918748617L237.34657291666664,83.53053076565266L239.63390625,51.33690746873617L241.92123958333332,52.41722973436117L244.20857291666667,105.56909839063883L246.49590625,143.16430004686117" style="fill: none;" fill="none"></path></g></g></g></g></g></g><g transform="translate(61, 177)" clip-path="url(#clip_1)"><clipPath id="clip_1"><rect width="268" height="23"></rect></clipPath><g><g><line x1="0" y1="0" x2="0" y2="5" style="visibility: inherit;" fill="rgb(0, 0, 0)" stroke="rgb(204, 204, 204)" stroke-width="1px"></line><line x1="22.337239583333332" y1="0" x2="22.337239583333332" y2="5" style="visibility: inherit;" fill="rgb(0, 0, 0)" stroke="rgb(204, 204, 204)" stroke-width="1px"></line><line x1="44.674479166666664" y1="0" x2="44.674479166666664" y2="5" style="visibility: inherit;" fill="rgb(0, 0, 0)" stroke="rgb(204, 204, 204)" stroke-width="1px"></line><line x1="67.01171875" y1="0" x2="67.01171875" y2="5" style="visibility: inherit;" fill="rgb(0, 0, 0)" stroke="rgb(204, 204, 204)" stroke-width="1px"></line><line x1="89.34895833333333" y1="0" x2="89.34895833333333" y2="5" style="visibility: inherit;" fill="rgb(0, 0, 0)" stroke="rgb(204, 204, 204)" stroke-width="1px"></line><line x1="111.68619791666667" y1="0" x2="111.68619791666667" y2="5" style="visibility: inherit;" fill="rgb(0, 0, 0)" stroke="rgb(204, 204, 204)" stroke-width="1px"></line><line x1="134.0234375" y1="0" x2="134.0234375" y2="5" style="visibility: inherit;" fill="rgb(0, 0, 0)" stroke="rgb(204, 204, 204)" stroke-width="1px"></line><line x1="156.36067708333334" y1="0" x2="156.36067708333334" y2="5" style="visibility: inherit;" fill="rgb(0, 0, 0)" stroke="rgb(204, 204, 204)" stroke-width="1px"></line><line x1="178.69791666666666" y1="0" x2="178.69791666666666" y2="5" style="visibility: inherit;" fill="rgb(0, 0, 0)" stroke="rgb(204, 204, 204)" stroke-width="1px"></line><line x1="201.03515625" y1="0" x2="201.03515625" y2="5" style="visibility: inherit;" fill="rgb(0, 0, 0)" stroke="rgb(204, 204, 204)" stroke-width="1px"></line><line x1="223.37239583333334" y1="0" x2="223.37239583333334" y2="5" style="visibility: inherit;" fill="rgb(0, 0, 0)" stroke="rgb(204, 204, 204)" stroke-width="1px"></line><line x1="245.70963541666666" y1="0" x2="245.70963541666666" y2="5" style="visibility: inherit;" fill="rgb(0, 0, 0)" stroke="rgb(204, 204, 204)" stroke-width="1px"></line><line x1="268.046875" y1="0" x2="268.046875" y2="5" style="visibility: inherit;" fill="rgb(0, 0, 0)" stroke="rgb(204, 204, 204)" stroke-width="1px"></line></g><g transform="translate(0, 8)"><text x="0" y="0" dx="0em" dy="0.95em" style="text-anchor: middle; visibility: hidden; font-family: Roboto, sans-serif; font-size: 12px; font-weight: 200;" fill="rgb(33, 33, 33)" stroke="none" stroke-width="1px">-20k</text><text x="22.337239583333332" y="0" dx="0em" dy="0.95em" style="text-anchor: middle; visibility: inherit; font-family: Roboto, sans-serif; font-size: 12px; font-weight: 200;" fill="rgb(33, 33, 33)" stroke="none" stroke-width="1px">0</text><text x="44.674479166666664" y="0" dx="0em" dy="0.95em" style="text-anchor: middle; visibility: hidden; font-family: Roboto, sans-serif; font-size: 12px; font-weight: 200;" fill="rgb(33, 33, 33)" stroke="none" stroke-width="1px">20k</text><text x="67.01171875" y="0" dx="0em" dy="0.95em" style="text-anchor: middle; visibility: inherit; font-family: Roboto, sans-serif; font-size: 12px; font-weight: 200;" fill="rgb(33, 33, 33)" stroke="none" stroke-width="1px">40k</text><text x="89.34895833333333" y="0" dx="0em" dy="0.95em" style="text-anchor: middle; visibility: hidden; font-family: Roboto, sans-serif; font-size: 12px; font-weight: 200;" fill="rgb(33, 33, 33)" stroke="none" stroke-width="1px">60k</text><text x="111.68619791666667" y="0" dx="0em" dy="0.95em" style="text-anchor: middle; visibility: inherit; font-family: Roboto, sans-serif; font-size: 12px; font-weight: 200;" fill="rgb(33, 33, 33)" stroke="none" stroke-width="1px">80k</text><text x="134.0234375" y="0" dx="0em" dy="0.95em" style="text-anchor: middle; visibility: hidden; font-family: Roboto, sans-serif; font-size: 12px; font-weight: 200;" fill="rgb(33, 33, 33)" stroke="none" stroke-width="1px">100k</text><text x="156.36067708333334" y="0" dx="0em" dy="0.95em" style="text-anchor: middle; visibility: inherit; font-family: Roboto, sans-serif; font-size: 12px; font-weight: 200;" fill="rgb(33, 33, 33)" stroke="none" stroke-width="1px">120k</text><text x="178.69791666666666" y="0" dx="0em" dy="0.95em" style="text-anchor: middle; visibility: hidden; font-family: Roboto, sans-serif; font-size: 12px; font-weight: 200;" fill="rgb(33, 33, 33)" stroke="none" stroke-width="1px">140k</text><text x="201.03515625" y="0" dx="0em" dy="0.95em" style="text-anchor: middle; visibility: inherit; font-family: Roboto, sans-serif; font-size: 12px; font-weight: 200;" fill="rgb(33, 33, 33)" stroke="none" stroke-width="1px">160k</text><text x="223.37239583333334" y="0" dx="0em" dy="0.95em" style="text-anchor: middle; visibility: hidden; font-family: Roboto, sans-serif; font-size: 12px; font-weight: 200;" fill="rgb(33, 33, 33)" stroke="none" stroke-width="1px">180k</text><text x="245.70963541666666" y="0" dx="0em" dy="0.95em" style="text-anchor: middle; visibility: inherit; font-family: Roboto, sans-serif; font-size: 12px; font-weight: 200;" fill="rgb(33, 33, 33)" stroke="none" stroke-width="1px">200k</text><text x="268.046875" y="0" dx="0em" dy="0.95em" style="text-anchor: middle; visibility: hidden; font-family: Roboto, sans-serif; font-size: 12px; font-weight: 200;" fill="rgb(33, 33, 33)" stroke="none" stroke-width="1px">220k</text></g><line x1="0" y1="0" x2="268.046875" y2="0" fill="rgb(0, 0, 0)" stroke="rgb(204, 204, 204)" stroke-width="1px"></line></g></g></g></g></svg>