<svg viewBox="0 0 330 200" xmlns="http://www.w3.org/2000/svg"><g><g><g><g><g><line x1="41.6875" y1="175" x2="36.6875" y2="175" style="visibility: inherit;" fill="rgb(0, 0, 0)" stroke="rgb(204, 204, 204)" stroke-width="1px"></line><line x1="41.6875" y1="159.0909090909091" x2="36.6875" y2="159.0909090909091" style="visibility: inherit;" fill="rgb(0, 0, 0)" stroke="rgb(204, 204, 204)" stroke-width="1px"></line><line x1="41.6875" y1="143.18181818181816" x2="36.6875" y2="143.18181818181816" style="visibility: inherit;" fill="rgb(0, 0, 0)" stroke="rgb(204, 204, 204)" stroke-width="1px"></line><line x1="41.6875" y1="127.27272727272728" x2="36.6875" y2="127.27272727272728" style="visibility: inherit;" fill="rgb(0, 0, 0)" stroke="rgb(204, 204, 204)" stroke-width="1px"></line><line x1="41.6875" y1="111.36363636363636" x2="36.6875" y2="111.36363636363636" style="visibility: inherit;" fill="rgb(0, 0, 0)" stroke="rgb(204, 204, 204)" stroke-width="1px"></line><line x1="41.6875" y1="95.45454545454545" x2="36.6875" y2="95.45454545454545" style="visibility: inherit;" fill="rgb(0, 0, 0)" stroke="rgb(204, 204, 204)" stroke-width="1px"></line><line x1="41.6875" y1="79.54545454545455" x2="36.6875" y2="79.54545454545455" style="visibility: inherit;" fill="rgb(0, 0, 0)" stroke="rgb(204, 204, 204)" stroke-width="1px"></line><line x1="41.6875" y1="63.63636363636364" x2="36.6875" y2="63.63636363636364" style="visibility: inherit;" fill="rgb(0, 0, 0)" stroke="rgb(204, 204, 204)" stroke-width="1px"></line><line x1="41.6875" y1="47.72727272727273" x2="36.6875" y2="47.72727272727273" style="visibility: inherit;" fill="rgb(0, 0, 0)" stroke="rgb(204, 204, 204)" stroke-width="1px"></line><line x1="41.6875" y1="31.81818181818181" x2="36.6875" y2="31.81818181818181" style="visibility: inherit;" fill="rgb(0, 0, 0)" stroke="rgb(204, 204, 204)" stroke-width="1px"></line><line x1="41.6875" y1="15.909090909090914" x2="36.6875" y2="15.909090909090914" style="visibility: inherit;" fill="rgb(0, 0, 0)" stroke="rgb(204, 204, 204)" stroke-width="1px"></line><line x1="41.6875" y1="0" x2="36.6875" y2="0" style="visibility: inherit;" fill="rgb(0, 0, 0)" stroke="rgb(204, 204, 204)" stroke-width="1px"></line></g><g transform="translate(31.6875, 0)"><text x="0" y="175" dx="0em" dy="0.3em" style="text-anchor: end; visibility: hidden; font-family: Roboto, sans-serif; font-size: 12px; font-weight: 200;" fill="rgb(33, 33, 33)" stroke="none" stroke-width="1px">708</text><text x="0" y="159.0909090909091" dx="0em" dy="0.3em" style="text-anchor: end; visibility: inherit; font-family: Roboto, sans-serif; font-size: 12px; font-weight: 200;" fill="rgb(33, 33, 33)" stroke="none" stroke-width="1px">709</text><text x="0" y="143.18181818181816" dx="0em" dy="0.3em" style="text-anchor: end; visibility: hidden; font-family: Roboto, sans-serif; font-size: 12px; font-weight: 200;" fill="rgb(33, 33, 33)" stroke="none" stroke-width="1px">710</text><text x="0" y="127.27272727272728" dx="0em" dy="0.3em" style="text-anchor: end; visibility: inherit; font-family: Roboto, sans-serif; font-size: 12px; font-weight: 200;" fill="rgb(33, 33, 33)" stroke="none" stroke-width="1px">711</text><text x="0" y="111.36363636363636" dx="0em" dy="0.3em" style="text-anchor: end; visibility: hidden; font-family: Roboto, sans-serif; font-size: 12px; font-weight: 200;" fill="rgb(33, 33, 33)" stroke="none" stroke-width="1px">712</text><text x="0" y="95.45454545454545" dx="0em" dy="0.3em" style="text-anchor: end; visibility: inherit; font-family: Roboto, sans-serif; font-size: 12px; font-weight: 200;" fill="rgb(33, 33, 33)" stroke="none" stroke-width="1px">713</text><text x="0" y="79.54545454545455" dx="0em" dy="0.3em" style="text-anchor: end; visibility: hidden; font-family: Roboto, sans-serif; font-size: 12px; font-weight: 200;" fill="rgb(33, 33, 33)" stroke="none" stroke-width="1px">714</text><text x="0" y="63.63636363636364" dx="0em" dy="0.3em" style="text-anchor: end; visibility: inherit; font-family: Roboto, sans-serif; font-size: 12px; font-weight: 200;" fill="rgb(33, 33, 33)" stroke="none" stroke-width="1px">715</text><text x="0" y="47.72727272727273" dx="0em" dy="0.3em" style="text-anchor: end; visibility: hidden; font-family: Roboto, sans-serif; font-size: 12px; font-weight: 200;" fill="rgb(33, 33, 33)" stroke="none" stroke-width="1px">716</text><text x="0" y="31.81818181818181" dx="0em" dy="0.3em" style="text-anchor: end; visibility: inherit; font-family: Roboto, sans-serif; font-size: 12px; font-weight: 200;" fill="rgb(33, 33, 33)" stroke="none" stroke-width="1px">717</text><text x="0" y="15.909090909090914" dx="0em" dy="0.3em" style="text-anchor: end; visibility: hidden; font-family: Roboto, sans-serif; font-size: 12px; font-weight: 200;" fill="rgb(33, 33, 33)" stroke="none" stroke-width="1px">718</text><text x="0" y="0" dx="0em" dy="0.3em" style="text-anchor: end; visibility: hidden; font-family: Roboto, sans-serif; font-size: 12px; font-weight: 200;" fill="rgb(33, 33, 33)" stroke="none" stroke-width="1px">719</text></g><line x1="41.6875" y1="0" x2="41.6875" y2="175" fill="rgb(0, 0, 0)" stroke="rgb(204, 204, 204)" stroke-width="1px"></line></g></g><g transform="translate(41, 0)" clip-path="url(#clip_0)"><clipPath id="clip_0"><rect width="288" height="175"></rect></clipPath><g><g><g><line x1="0" y1="0" x2="0" y2="175" fill="rgb(0, 0, 0)" stroke="rgb(66, 66, 66)" stroke-width="1px" opacity="0.25"></line><line x1="28.83125" y1="0" x2="28.83125" y2="175" fill="rgb(0, 0, 0)" stroke="rgb(66, 66, 66)" stroke-width="1px" opacity="0.25"></line><line x1="57.6625" y1="0" x2="57.6625" y2="175" fill="rgb(0, 0, 0)" stroke="rgb(66, 66, 66)" stroke-width="1px" opacity="0.25"></line><line x1="86.49374999999999" y1="0" x2="86.49374999999999" y2="175" fill="rgb(0, 0, 0)" stroke="rgb(66, 66, 66)" stroke-width="1px" opacity="0.25"></line><line x1="115.325" y1="0" x2="115.325" y2="175" fill="rgb(0, 0, 0)" stroke="rgb(66, 66, 66)" stroke-width="1px" opacity="0.25"></line><line x1="144.15625" y1="0" x2="144.15625" y2="175" fill="rgb(0, 0, 0)" stroke="rgb(66, 66, 66)" stroke-width="1px" opacity="0.25"></line><line x1="172.98749999999998" y1="0" x2="172.98749999999998" y2="175" fill="rgb(0, 0, 0)" stroke="rgb(66, 66, 66)" stroke-width="1px" opacity="0.25"></line><line x1="201.81875" y1="0" x2="201.81875" y2="175" fill="rgb(0, 0, 0)" stroke="rgb(66, 66, 66)" stroke-width="1px" opacity="0.25"></line><line x1="230.65" y1="0" x2="230.65" y2="175" fill="rgb(0, 0, 0)" stroke="rgb(66, 66, 66)" stroke-width="1px" opacity="0.25"></line><line x1="259.48125" y1="0" x2="259.48125" y2="175" fill="rgb(0, 0, 0)" stroke="rgb(66, 66, 66)" stroke-width="1px" opacity="0.25"></line><line x1="288.3125" y1="0" x2="288.3125" y2="175" fill="rgb(0, 0, 0)" stroke="rgb(66, 66, 66)" stroke-width="1px" opacity="0.25"></line></g><g><line x1="0" y1="175" x2="288.3125" y2="175" fill="rgb(0, 0, 0)" stroke="rgb(66, 66, 66)" stroke-width="1px" opacity="0.25"></line><line x1="0" y1="159.0909090909091" x2="288.3125" y2="159.0909090909091" fill="rgb(0, 0, 0)" stroke="rgb(66, 66, 66)" stroke-width="1px" opacity="0.25"></line><line x1="0" y1="143.18181818181816" x2="288.3125" y2="143.18181818181816" fill="rgb(0, 0, 0)" stroke="rgb(66, 66, 66)" stroke-width="1px" opacity="0.25"></line><line x1="0" y1="127.27272727272728" x2="288.3125" y2="127.27272727272728" fill="rgb(0, 0, 0)" stroke="rgb(66, 66, 66)" stroke-width="1px" opacity="0.25"></line><line x1="0" y1="111.36363636363636" x2="288.3125" y2="111.36363636363636" fill="rgb(0, 0, 0)" stroke="rgb(66, 66, 66)" stroke-width="1px" opacity="0.25"></line><line x1="0" y1="95.45454545454545" x2="288.3125" y2="95.45454545454545" fill="rgb(0, 0, 0)" stroke="rgb(66, 66, 66)" stroke-width="1px" opacity="0.25"></line><line x1="0" y1="79.54545454545455" x2="288.3125" y2="79.54545454545455" fill="rgb(0, 0, 0)" stroke="rgb(66, 66, 66)" stroke-width="1px" opacity="0.25"></line><line x1="0" y1="63.63636363636364" x2="288.3125" y2="63.63636363636364" fill="rgb(0, 0, 0)" stroke="rgb(66, 66, 66)" stroke-width="1px" opacity="0.25"></line><line x1="0" y1="47.72727272727273" x2="288.3125" y2="47.72727272727273" fill="rgb(0, 0, 0)" stroke="rgb(66, 66, 66)" stroke-width="1px" opacity="0.25"></line><line x1="0" y1="31.81818181818181" x2="288.3125" y2="31.81818181818181" fill="rgb(0, 0, 0)" stroke="rgb(66, 66, 66)" stroke-width="1px" opacity="0.25"></line><line x1="0" y1="15.909090909090914" x2="288.3125" y2="15.909090909090914" fill="rgb(0, 0, 0)" stroke="rgb(66, 66, 66)" stroke-width="1px" opacity="0.25"></line><line x1="0" y1="0" x2="288.3125" y2="0" fill="rgb(0, 0, 0)" stroke="rgb(66, 66, 66)" stroke-width="1px" opacity="0.25"></line></g></g></g><g><g><line x1="0" y1="11438.636363636362" x2="288.3125" y2="11438.636363636362" fill="rgb(0, 0, 0)" stroke="rgb(153, 153, 153)" stroke-width="1.5px"></line></g></g><g><g><line x1="28.83125" y1="0" x2="28.83125" y2="175" fill="rgb(0, 0, 0)" stroke="rgb(153, 153, 153)" stroke-width="1.5px"></line></g></g><g><g><g><g><g><path stroke="rgb(255, 112, 67)" stroke-width="2px" d="M39.459602000000004,-37.72089079757848L40.64053,22.275696487525412L41.821458,64.4274340645888L43.002386,95.99790976532564L44.183313999999996,114.89615555248942L45.364242000000004,138.95654805695844L46.54517,153.38071085894154L47.72609799999999,162.0308668194347L48.907026,160.85468463967035L50.087953999999996,153.78482004138877L51.268882000000005,149.54336084011342L52.44981,140.6347817013891L53.630737999999994,135.28984267826107L54.811666,132.08295430643642L55.992594,149.2499081564861L57.173522000000006,159.5499936996261L58.35445,172.0936682454405L59.535378,185.98349736804752L67.801874,182.20585290607764L68.982802,172.95987511510097L70.16373,167.41228861005715L71.34465800000001,164.08373676806605L72.525586,155.72296928182385L73.706514,150.70650882319606L74.887442,141.33299618212436L76.06837,135.70888861084657L77.249298,132.33442407289277L78.430226,136.67338171855192L79.611154,139.27675630460936L80.792082,140.83878105576275L81.97301,135.4123595419868L83.153938,132.15650663407968L84.334866,130.20299488946603L85.515794,129.03088784274377L86.69672200000001,128.32762361472666L87.87765,121.5420287142352L89.058578,117.47067177397578L90.23950599999999,115.02785760983134L91.420434,113.56216911135046L92.60136200000001,112.68275601226337L93.78229,105.79147178917404L94.963218,101.65670125532115L96.14414599999999,99.1758389350105L97.325074,97.68732154282522L98.50600200000001,96.79421110751296L99.68693,96.25834484632776L100.867858,89.57318872597776L102.04878599999999,85.56209505376918L103.22971399999999,83.15543885044369L104.41064200000001,81.71144512844586L105.59157,80.84504889524788L106.772498,80.3252111553302L107.953426,80.01330851138174L109.13435399999999,79.82616692501124L110.31528200000001,79.71388197318818L111.49621,73.28287463845801L112.677138,69.42427023762099L113.858066,67.10910759711804L115.03899399999999,65.720010012817L116.21992200000001,64.88655146223748L117.40085,64.38647633188866L118.581778,64.08643125367865L119.762706,63.90640420675337L120.943634,63.79838797859892L122.12456200000001,63.73357824170552L123.30549,63.69469239956877L124.486418,63.671360894286714L125.667346,63.65736199111893L126.848274,63.648962649217175L128.029202,63.64392304407612L129.21013,63.64089928099113L130.391058,63.63908502314049L131.57198599999998,57.274360104793736L132.752914,53.45552515378606L133.933842,51.16422418318145L135.11477,49.78944360081761L136.295698,48.964575251400014L137.47662599999998,48.46965424174838L138.657554,48.17270163595812L139.838482,47.9945300724836L141.01941,47.88762713439961L142.200338,47.82348537154813L143.38126599999998,47.78500031383869L144.56219399999998,47.76190927921157L145.743122,47.748054658436764L146.92405000000002,47.73974188597044L148.10497800000002,47.734754222490615L149.285906,47.73176162440273L150.466834,41.36632970191402L151.647762,37.54707054842005L152.82869,35.2555150563244L154.009618,33.88058176106845L155.19054599999998,33.05562178391416L156.37147399999998,32.560645797621596L157.55240199999997,32.26366020584495L158.73333000000002,32.08546885077898L159.91425800000002,31.978554037740484L161.095186,31.91440514991809L162.276114,31.875915817222854L163.457042,31.852822217605713L164.63797,31.83896605783616L165.818898,31.830652361974053L166.99982599999998,31.82566414445824L168.18075399999998,31.822671213946958L169.36168199999997,31.82087545564126L170.54261000000002,31.819798000657837L171.72353800000002,31.819151527667792L172.904466,25.455127280237765L174.085394,21.63671273177903L175.266322,19.345664002704858L176.44725,17.971034765259272L177.628178,17.146257222791213L178.80910599999999,16.651390697311093L179.99003399999998,16.354470782023732L181.170962,16.176318832850974L182.35189000000003,16.069427663347316L183.53281800000002,16.005292961644752L184.71374600000001,22.33044850425886L185.894674,26.125541829828396L187.075602,28.40259782517013L188.25653,29.768831422374443L189.437458,30.588571580696303L190.618386,37.444052039327595L191.79931399999998,41.55734031450529L192.980242,44.02531327961118L194.16117,45.506097058675074L195.34209800000002,46.394567326113766L196.52302600000002,46.92764948657772L197.703954,47.24749878285429L198.884882,47.43940836062021L200.06581,47.55455410728085L201.246738,47.623641555277246L202.427666,47.665094024074L203.60859399999998,47.689965505354216L204.789522,47.70488839412017L205.97045,47.71384212738082L207.151378,47.71921436733685L208.33230600000002,47.72243771131122L209.513234,47.724371717695455L210.694162,47.72553212152492L211.87509,54.08986472746114L213.056018,57.90846429102213L214.236946,60.19962402916018L215.417874,61.57431987204156L216.598802,62.39913737777038L217.77973,62.89402788120914L218.960658,63.19096218327021L220.141586,95.18730458268939L221.322514,114.38511002234164L222.503442,125.903793286133L223.68437,132.8150032444078L224.865298,136.96172921937193L226.046226,139.44976480435116L227.227154,140.94258615533798L228.408082,141.83827896593004L229.58901,142.37569465228458L230.769938,136.33450770046238L231.950866,132.70979552936834L233.13179399999999,130.53496822671153L234.312722,129.23007184511786L235.49365,128.4471340161616L236.674578,127.97737131878752L237.855506,127.69551370036307L239.036434,127.52639912930874L240.217362,127.42493038667509L241.39829,127.3640491410956L242.579218,127.32752039374718L243.760146,127.30560314533777L244.941074,127.2924527962932L246.12200199999998,127.28456258686573L247.30293,127.27982846120962L248.483858,127.27698798581741L249.66478600000002,127.27528370058134L250.84571400000002,127.27426112944045L252.026642,127.27364758675374L253.20757,127.27327946114168L254.388498,127.27305858577593L255.569426,127.27292606055609L256.750354,127.27284654542383L257.931282,127.27279883634448L259.11221,127.27277021089687" style="fill: none;" fill="none"></path></g></g></g></g><g opacity="0.2"><g><g><g><path stroke="rgb(255, 112, 67)" stroke-width="2px" d="M38.278674,-79.54545454545455L39.459602000000004,63.63636363636364L40.64053,111.36363636363636L41.821458,127.27272727272728L43.002386,143.18181818181816L44.183313999999996,143.18181818181816L45.364242000000004,175L46.54517,175L47.72609799999999,175L48.907026,159.0909090909091L50.087953999999996,143.18181818181816L51.268882000000005,143.18181818181816L52.44981,127.27272727272728L53.630737999999994,127.27272727272728L54.811666,127.27272727272728L55.992594,175L57.173522000000006,175L58.35445,190.9090909090909L65.44001800000001,190.9090909090909L66.620946,175L67.801874,175L68.982802,159.0909090909091L70.16373,159.0909090909091L71.34465800000001,159.0909090909091L72.525586,143.18181818181816L73.706514,143.18181818181816L74.887442,127.27272727272728L76.06837,127.27272727272728L77.249298,127.27272727272728L78.430226,143.18181818181816L79.611154,143.18181818181816L80.792082,143.18181818181816L81.97301,127.27272727272728L83.153938,127.27272727272728L84.334866,127.27272727272728L85.515794,127.27272727272728L86.69672200000001,127.27272727272728L87.87765,111.36363636363636L89.058578,111.36363636363636L90.23950599999999,111.36363636363636L91.420434,111.36363636363636L92.60136200000001,111.36363636363636L93.78229,95.45454545454545L94.963218,95.45454545454545L96.14414599999999,95.45454545454545L97.325074,95.45454545454545L98.50600200000001,95.45454545454545L99.68693,95.45454545454545L100.867858,79.54545454545455L102.04878599999999,79.54545454545455L103.22971399999999,79.54545454545455L104.41064200000001,79.54545454545455L105.59157,79.54545454545455L106.772498,79.54545454545455L107.953426,79.54545454545455L109.13435399999999,79.54545454545455L110.31528200000001,79.54545454545455L111.49621,63.63636363636364L112.677138,63.63636363636364L113.858066,63.63636363636364L115.03899399999999,63.63636363636364L116.21992200000001,63.63636363636364L117.40085,63.63636363636364L118.581778,63.63636363636364L119.762706,63.63636363636364L120.943634,63.63636363636364L122.12456200000001,63.63636363636364L123.30549,63.63636363636364L124.486418,63.63636363636364L125.667346,63.63636363636364L126.848274,63.63636363636364L128.029202,63.63636363636364L129.21013,63.63636363636364L130.391058,63.63636363636364L131.57198599999998,47.72727272727273L132.752914,47.72727272727273L133.933842,47.72727272727273L135.11477,47.72727272727273L136.295698,47.72727272727273L137.47662599999998,47.72727272727273L138.657554,47.72727272727273L139.838482,47.72727272727273L141.01941,47.72727272727273L142.200338,47.72727272727273L143.38126599999998,47.72727272727273L144.56219399999998,47.72727272727273L145.743122,47.72727272727273L146.92405000000002,47.72727272727273L148.10497800000002,47.72727272727273L149.285906,47.72727272727273L150.466834,31.81818181818181L151.647762,31.81818181818181L152.82869,31.81818181818181L154.009618,31.81818181818181L155.19054599999998,31.81818181818181L156.37147399999998,31.81818181818181L157.55240199999997,31.81818181818181L158.73333000000002,31.81818181818181L159.91425800000002,31.81818181818181L161.095186,31.81818181818181L162.276114,31.81818181818181L163.457042,31.81818181818181L164.63797,31.81818181818181L165.818898,31.81818181818181L166.99982599999998,31.81818181818181L168.18075399999998,31.81818181818181L169.36168199999997,31.81818181818181L170.54261000000002,31.81818181818181L171.72353800000002,31.81818181818181L172.904466,15.909090909090914L174.085394,15.909090909090914L175.266322,15.909090909090914L176.44725,15.909090909090914L177.628178,15.909090909090914L178.80910599999999,15.909090909090914L179.99003399999998,15.909090909090914L181.170962,15.909090909090914L182.35189000000003,15.909090909090914L183.53281800000002,15.909090909090914L184.71374600000001,31.81818181818181L185.894674,31.81818181818181L187.075602,31.81818181818181L188.25653,31.81818181818181L189.437458,31.81818181818181L190.618386,47.72727272727273L191.79931399999998,47.72727272727273L192.980242,47.72727272727273L194.16117,47.72727272727273L195.34209800000002,47.72727272727273L196.52302600000002,47.72727272727273L197.703954,47.72727272727273L198.884882,47.72727272727273L200.06581,47.72727272727273L201.246738,47.72727272727273L202.427666,47.72727272727273L203.60859399999998,47.72727272727273L204.789522,47.72727272727273L205.97045,47.72727272727273L207.151378,47.72727272727273L208.33230600000002,47.72727272727273L209.513234,47.72727272727273L210.694162,47.72727272727273L211.87509,63.63636363636364L213.056018,63.63636363636364L214.236946,63.63636363636364L215.417874,63.63636363636364L216.598802,63.63636363636364L217.77973,63.63636363636364L218.960658,63.63636363636364L220.141586,143.18181818181816L221.322514,143.18181818181816L222.503442,143.18181818181816L223.68437,143.18181818181816L224.865298,143.18181818181816L226.046226,143.18181818181816L227.227154,143.18181818181816L228.408082,143.18181818181816L229.58901,143.18181818181816L230.769938,127.27272727272728L231.950866,127.27272727272728L233.13179399999999,127.27272727272728L234.312722,127.27272727272728L235.49365,127.27272727272728L236.674578,127.27272727272728L237.855506,127.27272727272728L239.036434,127.27272727272728L240.217362,127.27272727272728L241.39829,127.27272727272728L242.579218,127.27272727272728L243.760146,127.27272727272728L244.941074,127.27272727272728L246.12200199999998,127.27272727272728L247.30293,127.27272727272728L248.483858,127.27272727272728L249.66478600000002,127.27272727272728L250.84571400000002,127.27272727272728L252.026642,127.27272727272728L253.20757,127.27272727272728L254.388498,127.27272727272728L255.569426,127.27272727272728L256.750354,127.27272727272728L257.931282,127.27272727272728L259.11221,127.27272727272728" style="fill: none;" fill="none"></path></g></g></g></g></g></g><g transform="translate(41, 175)" clip-path="url(#clip_1)"><clipPath id="clip_1"><rect width="288" height="25"></rect></clipPath><g><g><line x1="0" y1="0" x2="0" y2="5" style="visibility: inherit;" fill="rgb(0, 0, 0)" stroke="rgb(204, 204, 204)" stroke-width="1px"></line><line x1="28.83125" y1="0" x2="28.83125" y2="5" style="visibility: inherit;" fill="rgb(0, 0, 0)" stroke="rgb(204, 204, 204)" stroke-width="1px"></line><line x1="57.6625" y1="0" x2="57.6625" y2="5" style="visibility: inherit;" fill="rgb(0, 0, 0)" stroke="rgb(204, 204, 204)" stroke-width="1px"></line><line x1="86.49374999999999" y1="0" x2="86.49374999999999" y2="5" style="visibility: inherit;" fill="rgb(0, 0, 0)" stroke="rgb(204, 204, 204)" stroke-width="1px"></line><line x1="115.325" y1="0" x2="115.325" y2="5" style="visibility: inherit;" fill="rgb(0, 0, 0)" stroke="rgb(204, 204, 204)" stroke-width="1px"></line><line x1="144.15625" y1="0" x2="144.15625" y2="5" style="visibility: inherit;" fill="rgb(0, 0, 0)" stroke="rgb(204, 204, 204)" stroke-width="1px"></line><line x1="172.98749999999998" y1="0" x2="172.98749999999998" y2="5" style="visibility: inherit;" fill="rgb(0, 0, 0)" stroke="rgb(204, 204, 204)" stroke-width="1px"></line><line x1="201.81875" y1="0" x2="201.81875" y2="5" style="visibility: inherit;" fill="rgb(0, 0, 0)" stroke="rgb(204, 204, 204)" stroke-width="1px"></line><line x1="230.65" y1="0" x2="230.65" y2="5" style="visibility: inherit;" fill="rgb(0, 0, 0)" stroke="rgb(204, 204, 204)" stroke-width="1px"></line><line x1="259.48125" y1="0" x2="259.48125" y2="5" style="visibility: inherit;" fill="rgb(0, 0, 0)" stroke="rgb(204, 204, 204)" stroke-width="1px"></line><line x1="288.3125" y1="0" x2="288.3125" y2="5" style="visibility: inherit;" fill="rgb(0, 0, 0)" stroke="rgb(204, 204, 204)" stroke-width="1px"></line></g><g transform="translate(0, 8)"><text x="0" y="0" dx="0em" dy="0.95em" style="text-anchor: middle; visibility: hidden; font-family: Roboto, sans-serif; font-size: 12px; font-weight: 200;" fill="rgb(33, 33, 33)" stroke="none" stroke-width="1px">-500k</text><text x="28.83125" y="0" dx="0em" dy="0.95em" style="text-anchor: middle; visibility: inherit; font-family: Roboto, sans-serif; font-size: 12px; font-weight: 200;" fill="rgb(33, 33, 33)" stroke="none" stroke-width="1px">0</text><text x="57.6625" y="0" dx="0em" dy="0.95em" style="text-anchor: middle; visibility: inherit; font-family: Roboto, sans-serif; font-size: 12px; font-weight: 200;" fill="rgb(33, 33, 33)" stroke="none" stroke-width="1px">500k</text><text x="86.49374999999999" y="0" dx="0em" dy="0.95em" style="text-anchor: middle; visibility: inherit; font-family: Roboto, sans-serif; font-size: 12px; font-weight: 200;" fill="rgb(33, 33, 33)" stroke="none" stroke-width="1px">1M</text><text x="115.325" y="0" dx="0em" dy="0.95em" style="text-anchor: middle; visibility: inherit; font-family: Roboto, sans-serif; font-size: 12px; font-weight: 200;" fill="rgb(33, 33, 33)" stroke="none" stroke-width="1px">1.5M</text><text x="144.15625" y="0" dx="0em" dy="0.95em" style="text-anchor: middle; visibility: inherit; font-family: Roboto, sans-serif; font-size: 12px; font-weight: 200;" fill="rgb(33, 33, 33)" stroke="none" stroke-width="1px">2M</text><text x="172.98749999999998" y="0" dx="0em" dy="0.95em" style="text-anchor: middle; visibility: inherit; font-family: Roboto, sans-serif; font-size: 12px; font-weight: 200;" fill="rgb(33, 33, 33)" stroke="none" stroke-width="1px">2.5M</text><text x="201.81875" y="0" dx="0em" dy="0.95em" style="text-anchor: middle; visibility: inherit; font-family: Roboto, sans-serif; font-size: 12px; font-weight: 200;" fill="rgb(33, 33, 33)" stroke="none" stroke-width="1px">3M</text><text x="230.65" y="0" dx="0em" dy="0.95em" style="text-anchor: middle; visibility: inherit; font-family: Roboto, sans-serif; font-size: 12px; font-weight: 200;" fill="rgb(33, 33, 33)" stroke="none" stroke-width="1px">3.5M</text><text x="259.48125" y="0" dx="0em" dy="0.95em" style="text-anchor: middle; visibility: inherit; font-family: Roboto, sans-serif; font-size: 12px; font-weight: 200;" fill="rgb(33, 33, 33)" stroke="none" stroke-width="1px">4M</text><text x="288.3125" y="0" dx="0em" dy="0.95em" style="text-anchor: middle; visibility: hidden; font-family: Roboto, sans-serif; font-size: 12px; font-weight: 200;" fill="rgb(33, 33, 33)" stroke="none" stroke-width="1px">4.5M</text></g><line x1="0" y1="0" x2="288.3125" y2="0" fill="rgb(0, 0, 0)" stroke="rgb(204, 204, 204)" stroke-width="1px"></line></g></g></g></g></svg>