<svg viewBox="0 0 330 200" xmlns="http://www.w3.org/2000/svg"><g><g><g><g><g><line x1="82.734375" y1="177" x2="77.734375" y2="177" style="visibility: inherit;" fill="rgb(0, 0, 0)" stroke="rgb(204, 204, 204)" stroke-width="1px"></line><line x1="82.734375" y1="160.90909090909088" x2="77.734375" y2="160.90909090909088" style="visibility: inherit;" fill="rgb(0, 0, 0)" stroke="rgb(204, 204, 204)" stroke-width="1px"></line><line x1="82.734375" y1="144.81818181818178" x2="77.734375" y2="144.81818181818178" style="visibility: inherit;" fill="rgb(0, 0, 0)" stroke="rgb(204, 204, 204)" stroke-width="1px"></line><line x1="82.734375" y1="128.7272727272727" x2="77.734375" y2="128.7272727272727" style="visibility: inherit;" fill="rgb(0, 0, 0)" stroke="rgb(204, 204, 204)" stroke-width="1px"></line><line x1="82.734375" y1="112.63636363636357" x2="77.734375" y2="112.63636363636357" style="visibility: inherit;" fill="rgb(0, 0, 0)" stroke="rgb(204, 204, 204)" stroke-width="1px"></line><line x1="82.734375" y1="96.54545454545458" x2="77.734375" y2="96.54545454545458" style="visibility: inherit;" fill="rgb(0, 0, 0)" stroke="rgb(204, 204, 204)" stroke-width="1px"></line><line x1="82.734375" y1="80.45454545454548" x2="77.734375" y2="80.45454545454548" style="visibility: inherit;" fill="rgb(0, 0, 0)" stroke="rgb(204, 204, 204)" stroke-width="1px"></line><line x1="82.734375" y1="64.36363636363636" x2="77.734375" y2="64.36363636363636" style="visibility: inherit;" fill="rgb(0, 0, 0)" stroke="rgb(204, 204, 204)" stroke-width="1px"></line><line x1="82.734375" y1="48.272727272727266" x2="77.734375" y2="48.272727272727266" style="visibility: inherit;" fill="rgb(0, 0, 0)" stroke="rgb(204, 204, 204)" stroke-width="1px"></line><line x1="82.734375" y1="32.18181818181815" x2="77.734375" y2="32.18181818181815" style="visibility: inherit;" fill="rgb(0, 0, 0)" stroke="rgb(204, 204, 204)" stroke-width="1px"></line><line x1="82.734375" y1="16.090909090909058" x2="77.734375" y2="16.090909090909058" style="visibility: inherit;" fill="rgb(0, 0, 0)" stroke="rgb(204, 204, 204)" stroke-width="1px"></line><line x1="82.734375" y1="0" x2="77.734375" y2="0" style="visibility: inherit;" fill="rgb(0, 0, 0)" stroke="rgb(204, 204, 204)" stroke-width="1px"></line></g><g transform="translate(72.734375, 0)"><text x="0" y="177" dx="0em" dy="0.3em" style="text-anchor: end; visibility: hidden; font-family: Roboto, sans-serif; font-size: 12px; font-weight: 200;" fill="rgb(33, 33, 33)" stroke="none" stroke-width="1px">-0.02</text><text x="0" y="160.90909090909088" dx="0em" dy="0.3em" style="text-anchor: end; visibility: inherit; font-family: Roboto, sans-serif; font-size: 12px; font-weight: 200;" fill="rgb(33, 33, 33)" stroke="none" stroke-width="1px">-0.0195</text><text x="0" y="144.81818181818178" dx="0em" dy="0.3em" style="text-anchor: end; visibility: hidden; font-family: Roboto, sans-serif; font-size: 12px; font-weight: 200;" fill="rgb(33, 33, 33)" stroke="none" stroke-width="1px">-0.019</text><text x="0" y="128.7272727272727" dx="0em" dy="0.3em" style="text-anchor: end; visibility: inherit; font-family: Roboto, sans-serif; font-size: 12px; font-weight: 200;" fill="rgb(33, 33, 33)" stroke="none" stroke-width="1px">-0.0185</text><text x="0" y="112.63636363636357" dx="0em" dy="0.3em" style="text-anchor: end; visibility: hidden; font-family: Roboto, sans-serif; font-size: 12px; font-weight: 200;" fill="rgb(33, 33, 33)" stroke="none" stroke-width="1px">-0.018</text><text x="0" y="96.54545454545458" dx="0em" dy="0.3em" style="text-anchor: end; visibility: inherit; font-family: Roboto, sans-serif; font-size: 12px; font-weight: 200;" fill="rgb(33, 33, 33)" stroke="none" stroke-width="1px">-0.0175</text><text x="0" y="80.45454545454548" dx="0em" dy="0.3em" style="text-anchor: end; visibility: hidden; font-family: Roboto, sans-serif; font-size: 12px; font-weight: 200;" fill="rgb(33, 33, 33)" stroke="none" stroke-width="1px">-0.017</text><text x="0" y="64.36363636363636" dx="0em" dy="0.3em" style="text-anchor: end; visibility: inherit; font-family: Roboto, sans-serif; font-size: 12px; font-weight: 200;" fill="rgb(33, 33, 33)" stroke="none" stroke-width="1px">-0.0165</text><text x="0" y="48.272727272727266" dx="0em" dy="0.3em" style="text-anchor: end; visibility: hidden; font-family: Roboto, sans-serif; font-size: 12px; font-weight: 200;" fill="rgb(33, 33, 33)" stroke="none" stroke-width="1px">-0.016</text><text x="0" y="32.18181818181815" dx="0em" dy="0.3em" style="text-anchor: end; visibility: inherit; font-family: Roboto, sans-serif; font-size: 12px; font-weight: 200;" fill="rgb(33, 33, 33)" stroke="none" stroke-width="1px">-0.0155</text><text x="0" y="16.090909090909058" dx="0em" dy="0.3em" style="text-anchor: end; visibility: hidden; font-family: Roboto, sans-serif; font-size: 12px; font-weight: 200;" fill="rgb(33, 33, 33)" stroke="none" stroke-width="1px">-0.015</text><text x="0" y="0" dx="0em" dy="0.3em" style="text-anchor: end; visibility: hidden; font-family: Roboto, sans-serif; font-size: 12px; font-weight: 200;" fill="rgb(33, 33, 33)" stroke="none" stroke-width="1px">-0.0145</text></g><line x1="82.734375" y1="0" x2="82.734375" y2="177" fill="rgb(0, 0, 0)" stroke="rgb(204, 204, 204)" stroke-width="1px"></line></g></g><g transform="translate(82, 0)" clip-path="url(#clip_0)"><clipPath id="clip_0"><rect width="247" height="177"></rect></clipPath><g><g><g><line x1="0" y1="0" x2="0" y2="177" fill="rgb(0, 0, 0)" stroke="rgb(66, 66, 66)" stroke-width="1px" opacity="0.25"></line><line x1="24.7265625" y1="0" x2="24.7265625" y2="177" fill="rgb(0, 0, 0)" stroke="rgb(66, 66, 66)" stroke-width="1px" opacity="0.25"></line><line x1="49.453125" y1="0" x2="49.453125" y2="177" fill="rgb(0, 0, 0)" stroke="rgb(66, 66, 66)" stroke-width="1px" opacity="0.25"></line><line x1="74.1796875" y1="0" x2="74.1796875" y2="177" fill="rgb(0, 0, 0)" stroke="rgb(66, 66, 66)" stroke-width="1px" opacity="0.25"></line><line x1="98.90625" y1="0" x2="98.90625" y2="177" fill="rgb(0, 0, 0)" stroke="rgb(66, 66, 66)" stroke-width="1px" opacity="0.25"></line><line x1="123.6328125" y1="0" x2="123.6328125" y2="177" fill="rgb(0, 0, 0)" stroke="rgb(66, 66, 66)" stroke-width="1px" opacity="0.25"></line><line x1="148.359375" y1="0" x2="148.359375" y2="177" fill="rgb(0, 0, 0)" stroke="rgb(66, 66, 66)" stroke-width="1px" opacity="0.25"></line><line x1="173.0859375" y1="0" x2="173.0859375" y2="177" fill="rgb(0, 0, 0)" stroke="rgb(66, 66, 66)" stroke-width="1px" opacity="0.25"></line><line x1="197.8125" y1="0" x2="197.8125" y2="177" fill="rgb(0, 0, 0)" stroke="rgb(66, 66, 66)" stroke-width="1px" opacity="0.25"></line><line x1="222.5390625" y1="0" x2="222.5390625" y2="177" fill="rgb(0, 0, 0)" stroke="rgb(66, 66, 66)" stroke-width="1px" opacity="0.25"></line><line x1="247.265625" y1="0" x2="247.265625" y2="177" fill="rgb(0, 0, 0)" stroke="rgb(66, 66, 66)" stroke-width="1px" opacity="0.25"></line></g><g><line x1="0" y1="177" x2="247.265625" y2="177" fill="rgb(0, 0, 0)" stroke="rgb(66, 66, 66)" stroke-width="1px" opacity="0.25"></line><line x1="0" y1="160.90909090909088" x2="247.265625" y2="160.90909090909088" fill="rgb(0, 0, 0)" stroke="rgb(66, 66, 66)" stroke-width="1px" opacity="0.25"></line><line x1="0" y1="144.81818181818178" x2="247.265625" y2="144.81818181818178" fill="rgb(0, 0, 0)" stroke="rgb(66, 66, 66)" stroke-width="1px" opacity="0.25"></line><line x1="0" y1="128.7272727272727" x2="247.265625" y2="128.7272727272727" fill="rgb(0, 0, 0)" stroke="rgb(66, 66, 66)" stroke-width="1px" opacity="0.25"></line><line x1="0" y1="112.63636363636357" x2="247.265625" y2="112.63636363636357" fill="rgb(0, 0, 0)" stroke="rgb(66, 66, 66)" stroke-width="1px" opacity="0.25"></line><line x1="0" y1="96.54545454545458" x2="247.265625" y2="96.54545454545458" fill="rgb(0, 0, 0)" stroke="rgb(66, 66, 66)" stroke-width="1px" opacity="0.25"></line><line x1="0" y1="80.45454545454548" x2="247.265625" y2="80.45454545454548" fill="rgb(0, 0, 0)" stroke="rgb(66, 66, 66)" stroke-width="1px" opacity="0.25"></line><line x1="0" y1="64.36363636363636" x2="247.265625" y2="64.36363636363636" fill="rgb(0, 0, 0)" stroke="rgb(66, 66, 66)" stroke-width="1px" opacity="0.25"></line><line x1="0" y1="48.272727272727266" x2="247.265625" y2="48.272727272727266" fill="rgb(0, 0, 0)" stroke="rgb(66, 66, 66)" stroke-width="1px" opacity="0.25"></line><line x1="0" y1="32.18181818181815" x2="247.265625" y2="32.18181818181815" fill="rgb(0, 0, 0)" stroke="rgb(66, 66, 66)" stroke-width="1px" opacity="0.25"></line><line x1="0" y1="16.090909090909058" x2="247.265625" y2="16.090909090909058" fill="rgb(0, 0, 0)" stroke="rgb(66, 66, 66)" stroke-width="1px" opacity="0.25"></line><line x1="0" y1="0" x2="247.265625" y2="0" fill="rgb(0, 0, 0)" stroke="rgb(66, 66, 66)" stroke-width="1px" opacity="0.25"></line></g></g></g><g><g><line x1="0" y1="-466.6363636363637" x2="247.265625" y2="-466.6363636363637" fill="rgb(0, 0, 0)" stroke="rgb(153, 153, 153)" stroke-width="1.5px"></line></g></g><g><g><line x1="24.7265625" y1="0" x2="24.7265625" y2="177" fill="rgb(0, 0, 0)" stroke="rgb(153, 153, 153)" stroke-width="1.5px"></line></g></g><g><g><g><g><g><path stroke="rgb(255, 112, 67)" stroke-width="2px" d="M26.7521625,190.5053626583381L27.7649625,167.62021588460863L28.7777625,151.28316731972092L29.7905625,111.7671747594295L30.803362500000002,145.34446027618856L31.8161625,176.37592123663708L32.828962499999996,115.19685505648803L33.8417625,106.73867171549517L34.8545625,120.78862870251622L35.8673625,135.66336071176218L36.880162500000004,96.36305247126397L37.892962499999996,121.91635371618702L38.9057625,129.2646830999719L39.9185625,96.65881901686147L40.9313625,121.05286452771583L41.944162500000004,127.49498088185389L42.956962499999996,113.95451654711265L43.9697625,145.3761616607083L44.9825625,120.55839438230295L45.9953625,126.06967575896694L47.0081625,148.59509194939787L48.020962499999996,160.20367592678588L49.0337625,176.117266876048L50.0465625,166.1092450980669L51.059362500000006,71.84372572310224L52.0721625,59.309468715305975L53.084962499999996,7.501772873932774L54.0977625,-4.477242673458631L55.1105625,18.156061943363078L56.123362500000006,101.5469138813004L57.1361625,114.02031506688425L58.148962499999996,147.77242489507972L59.1617625,170.3432081004739L60.1745625,172.12276239782054L61.1873625,191.7115625123334L62.2001625,156.5522026410197L63.212962499999996,169.48083992955364L64.22576249999999,194.02962934248276L65.2385625,145.9706859661446L66.2513625,126.37934528430205L67.2641625,107.87895264441778L68.2769625,110.01350403021819L69.2897625,83.06081712326365L70.30256250000001,127.54974618143653L71.3153625,138.84016721885553L72.3281625,88.32343582584849L73.34096249999999,77.54038498866102L74.3537625,39.099191981980596L75.3665625,110.75142390800677L76.3793625,104.36681326299774L77.3921625,88.24893963048777L78.4049625,149.1890819435801L79.41776250000001,136.2309558609281L80.43056250000001,126.73405284995167L81.4433625,100.9319567227579L82.45616249999999,98.61312244581245L83.46896249999999,76.37720805120043L84.4817625,64.05721326135797L85.4945625,84.49984328426935L86.5073625,96.09626216739899L87.5201625,81.74311675892896L88.5329625,123.64826011599948L89.54576250000001,148.4510359847332L90.55856250000001,107.81527212165486L91.5713625,94.66882009285668L92.58416249999999,71.97941169779817L93.59696249999999,103.85719831426285L94.6097625,88.84337527645322L95.6225625,65.18269521378375L96.6353625,38.95036636656615L97.6481625,20.9995045908619L98.6609625,-13.807439587703538L99.67376250000001,64.64956019552709L100.68656250000001,71.37464896904005L101.69936249999999,70.3001107219849L102.71216249999999,88.18724493375656L103.7249625,78.85299974143703L104.7377625,85.10317259271692L105.7505625,101.73406206674859L106.7633625,105.40620013918783L107.7761625,134.01486960937183L108.78896250000001,117.69722629936474L109.80176250000001,88.41247727159552L110.8145625,74.16730653401011L111.82736249999999,96.90912402798577L112.84016249999999,109.29370267631158L113.8529625,155.26969899689988L114.8657625,132.7621133259828L115.8785625,85.35770332949186L116.8913625,71.19616671340302L117.9041625,82.38153386186632L118.91696250000001,111.17565284901416L119.92976250000001,152.1165431879158L120.9425625,122.57715915313712L121.95536249999999,139.4247044158983L122.96816249999999,104.04316662746716L123.98096249999999,81.70989641112548L124.99376249999999,90.66921958174868L126.00656250000002,109.99872831610774L127.01936250000001,127.43932353755955L128.0321625,116.47967880872831L129.0449625,91.08704035010524L130.0577625,99.2177901418602L131.0705625,74.81580451980264L132.0833625,98.82696898005509L133.0961625,32.309195443415135L134.1089625,34.83947203206245L135.1217625,74.30124812782871L136.13456250000002,70.43328499581145L137.1473625,44.521806449588254L138.1601625,76.7462706999268L139.1729625,97.91653321330735L140.1857625,72.68602622671284L141.1985625,86.27136812554538L142.2113625,84.76218175531199L143.2241625,89.28216267501675L144.23696249999998,97.67368370599587L145.24976249999997,59.78555556881294L146.2625625,79.04338521427806L147.2753625,76.70291261095127L148.2881625,44.76039114128539L149.3009625,84.98323064817131L150.3137625,111.5351672646699L151.3265625,91.2329256331394L152.3393625,114.64335109185183L153.3521625,98.83601694069188L154.3649625,65.95243465054071L155.37776250000002,92.58371011811413L156.39056250000002,72.33214089457407L157.40336250000001,44.51658645219491L158.4161625,61.8675115956045L159.4289625,62.39758732419092L160.4417625,45.95313419835659L161.4545625,24.3464456565303L162.4673625,62.54908074594807L163.48016249999998,117.91869348516784L164.49296249999998,116.76997563868102L165.5057625,139.7021245825955L166.5185625,144.4516950539857L167.5313625,135.59899313565393L168.5441625,134.7090540986057L169.5569625,120.18636077137835L170.5697625,118.489900173064L171.5825625,74.46445100602641L172.5953625,34.30481648828139L173.6081625,61.82910715896484L174.6209625,70.35968856754324L175.63376250000002,78.95350242862197L176.64656250000002,81.68163122117515L177.65936250000001,33.90622106366803L178.6721625,16.209497290257943L179.6849625,49.23068244302531L180.6977625,81.07710843058435L181.71056249999998,44.93419843667849L182.72336249999998,-6.505691038860483L183.73616249999998,45.0315628582656L184.7489625,105.75863883863036L185.7617625,104.3845162682488L186.7745625,58.15616426749825L187.7873625,41.12608279408206L188.8001625,45.07346469696717L189.8129625,62.12222564865234L190.8257625,20.622481859889824L191.8385625,43.03784237172599L192.8513625,46.882870014434694L193.8641625,48.55618993017792L194.87696250000002,29.925367861070903L195.88976250000002,22.25961238416024L196.90256250000002,9.640523813525027L197.91536250000001,-15.586163570883492L198.9281625,42.89308503029412L199.9409625,41.561430313551554L200.95376249999998,-3.5000724450022176L201.96656249999998,40.29142665533596L202.97936249999998,38.35752110446152L203.99216249999998,11.664445818235274L205.0049625,54.64433635952621L206.0177625,39.530937861587795L207.0305625,73.9210774022367L208.0433625,97.98873775925577L209.0561625,105.19923596977631L210.0689625,85.06152018167425L211.0817625,41.62669461685757L212.0945625,53.82885929503322L213.1073625,59.492845535354775L214.12016250000002,73.85597118360599L215.13296250000002,77.57300163553565L216.14576250000002,68.40377713642901L217.15856250000002,46.64678033505035L218.17136250000001,55.859135257902835L219.1841625,36.99400989709841L220.19696249999998,44.31488161275822L221.20976249999998,67.9300964327782L222.22256249999998,101.08818617069409" style="fill: none;" fill="none"></path></g></g></g></g><g opacity="0.2"><g><g><g><path stroke="rgb(255, 112, 67)" stroke-width="2px" d="M25.7393625,257.163669355891L26.7521625,150.5103786398064L27.7649625,145.65047498182815L28.7777625,132.07079820741305L29.7905625,60.17509487271307L30.803362500000002,191.79393396865237L31.8161625,220.75140691345388L32.828962499999996,25.99718924679538L33.8417625,94.26449420506302L34.8545625,141.6511773900552L35.8673625,157.84054600108752L36.880162500000004,37.62646065245973L37.892962499999996,160.16286962140688L38.9057625,140.27278103340754L39.9185625,47.78834986144843L40.9313625,157.62672822312874L41.944162500000004,137.1554293253205L42.956962499999996,93.64725796742871L43.9697625,192.50384255972773L44.9825625,83.33401190692726L45.9953625,134.33629557219416L47.0081625,182.38247502662918L49.0337625,199.98746478828514L50.0465625,151.09728356383064L51.059362500000006,-69.55415133996446L52.0721625,40.50811527533962L53.084962499999996,-70.20969135111031L54.0977625,-22.445754960179368L55.1105625,52.10600635951212L56.123362500000006,226.63316413489252L57.1361625,132.7304143634709L58.148962499999996,198.40058560804889L59.1617625,204.1993812918663L60.1745625,174.7920937673612L61.1873625,221.09476217898452L62.2001625,103.81316337802191L63.212962499999996,188.87379574233833L64.22576249999999,230.85281332514504L65.2385625,73.88227106224404L66.2513625,96.99233430082145L67.2641625,80.12836370684882L68.2769625,113.21533110737799L69.2897625,42.631786774505244L70.30256250000001,194.2831397571347L71.3153625,155.7757987732237L72.3281625,12.548338741064052L73.34096249999999,61.36580873348495L74.3537625,-18.562597526745396L75.3665625,218.2297717955979L76.3793625,94.78989729556167L77.3921625,64.07212918184018L78.4049625,240.59929541295224L79.41776250000001,116.79376673698424L80.43056250000001,112.4886983335018L81.4433625,62.22881253199142L82.45616249999999,95.13487103039566L83.46896249999999,43.02333645928988L84.4817625,45.57722107659684L85.4945625,115.16378831863402L86.5073625,113.49089049209246L87.5201625,60.213398646224604L88.5329625,186.50597515160385L89.54576250000001,185.65519978783348L90.55856250000001,46.86162632703779L91.5713625,74.94914204965936L92.58416249999999,37.94529910521072L93.59696249999999,151.67387823895973L94.6097625,66.32264071973884L95.6225625,29.691675119779312L96.6353625,-0.39812690426004993L99.67376250000001,182.3350598703731L100.68656250000001,81.46228212930937L101.69936249999999,68.68830335140227L102.71216249999999,115.01794625141402L103.7249625,64.85163195295765L104.7377625,94.47843186963686L105.7505625,126.68039627779612L106.7633625,110.91440724784675L107.7761625,176.92787381464785L108.78896250000001,93.22076133435422L109.80176250000001,44.48535372994161L110.8145625,52.79955042763187L111.82736249999999,131.02185026894915L112.84016249999999,127.87057064880022L113.8529625,224.2336934777823L114.8657625,99.00073481960729L115.8785625,14.251088334755437L116.8913625,49.953861789269865L117.9041625,99.15958458456123L118.91696250000001,154.36683132973582L119.92976250000001,213.52787869626823L120.9425625,78.26808310096914L121.95536249999999,164.6960223100402L122.96816249999999,50.97085994482038L123.98096249999999,48.20999108661303L124.99376249999999,104.10820433768356L126.00656250000002,138.99299141764638L127.01936250000001,153.60021636973727L128.0321625,100.04021171548148L129.0449625,52.99808266217055L130.0577625,111.41391482949255L131.0705625,38.21282608671619L132.0833625,134.84371567043388L133.0961625,-67.46746486154473L134.1089625,38.63488691503348L135.1217625,133.49391227147794L136.13456250000002,64.63134029778564L137.1473625,5.654588630253588L138.1601625,125.08296707543457L139.1729625,129.67192698337814L140.1857625,34.84026574682103L141.1985625,106.64938097379424L142.2113625,82.4984021999619L143.2241625,96.06213405457409L144.23696249999998,110.26096525246444L145.24976249999997,2.9533633630383918L146.2625625,107.93012968247587L147.2753625,73.19220370596105L148.2881625,-3.1533910632133875L149.3009625,145.31748990850014L150.3137625,151.36307218941772L151.3265625,60.77956318584354L152.3393625,149.7589892799204L153.3521625,75.12501571395178L154.3649625,16.627061215313983L155.37776250000002,132.5306233194741L156.39056250000002,41.95478705926372L157.40336250000001,2.7932547886263026L158.4161625,87.89389931071887L159.4289625,63.19270091707053L160.4417625,21.28645450960504L161.4545625,-8.063587156209104L162.4673625,119.85303338007492L163.48016249999998,200.9731125939976L164.49296249999998,115.04689886895092L165.5057625,174.10034799846736L166.5185625,151.5760507610711L167.5313625,122.31994025815615L168.5441625,133.37414554303342L169.5569625,98.40232078053732L170.5697625,115.94520927559243L171.5825625,8.426277255470072L172.5953625,-25.934635288336096L173.6081625,103.11554316499014L174.6209625,83.15556068041106L175.63376250000002,91.84422322023997L176.64656250000002,85.77382441000503L177.65936250000001,-37.7568941725926L178.6721625,-10.335588369857202L179.6849625,98.76246017217635L180.6977625,128.84674741192296L181.71056249999998,-9.280166554180074L182.72336249999998,-83.66552525216883L183.73616249999998,122.33744370395485L184.7489625,196.84925280917773L185.7617625,102.32333241267636L186.7745625,-11.186363733627616L187.7873625,15.580960583957744L188.8001625,50.994537551294655L189.8129625,87.69536707618018L190.8257625,-41.62713382325393L191.8385625,76.66088313948022L192.8513625,52.650411478497745L193.8641625,51.06616980379275L194.87696250000002,1.9791347574103784L195.88976250000002,10.760979168794355L196.90256250000002,-9.288109042427799L197.91536250000001,-53.42619464749641L198.9281625,130.6119579320604L199.9409625,39.563948238437796L200.95376249999998,-71.09232658283281L201.96656249999998,105.97867530584334L202.97936249999998,35.45666277814993L203.99216249999998,-28.375167111104197L205.0049625,119.11417217146264L206.0177625,16.86084011468018L207.0305625,125.50628671320999L208.0433625,134.09022829478437L209.0561625,116.01498328555712L210.0689625,54.85494649952107L211.0817625,-23.525543730367332L212.0945625,72.13210631229659L213.1073625,67.98882489583707L214.12016250000002,95.40065965598279L215.13296250000002,83.14854731343007L216.14576250000002,54.64994038776916L217.15856250000002,14.011285132982492L218.17136250000001,69.67766764218155L219.1841625,8.696321855891814L220.19696249999998,55.2961891862479L221.20976249999998,103.35291866280814L222.22256249999998,150.82532077756792" style="fill: none;" fill="none"></path></g></g></g></g></g></g><g transform="translate(82, 177)" clip-path="url(#clip_1)"><clipPath id="clip_1"><rect width="247" height="23"></rect></clipPath><g><g><line x1="0" y1="0" x2="0" y2="5" style="visibility: inherit;" fill="rgb(0, 0, 0)" stroke="rgb(204, 204, 204)" stroke-width="1px"></line><line x1="24.7265625" y1="0" x2="24.7265625" y2="5" style="visibility: inherit;" fill="rgb(0, 0, 0)" stroke="rgb(204, 204, 204)" stroke-width="1px"></line><line x1="49.453125" y1="0" x2="49.453125" y2="5" style="visibility: inherit;" fill="rgb(0, 0, 0)" stroke="rgb(204, 204, 204)" stroke-width="1px"></line><line x1="74.1796875" y1="0" x2="74.1796875" y2="5" style="visibility: inherit;" fill="rgb(0, 0, 0)" stroke="rgb(204, 204, 204)" stroke-width="1px"></line><line x1="98.90625" y1="0" x2="98.90625" y2="5" style="visibility: inherit;" fill="rgb(0, 0, 0)" stroke="rgb(204, 204, 204)" stroke-width="1px"></line><line x1="123.6328125" y1="0" x2="123.6328125" y2="5" style="visibility: inherit;" fill="rgb(0, 0, 0)" stroke="rgb(204, 204, 204)" stroke-width="1px"></line><line x1="148.359375" y1="0" x2="148.359375" y2="5" style="visibility: inherit;" fill="rgb(0, 0, 0)" stroke="rgb(204, 204, 204)" stroke-width="1px"></line><line x1="173.0859375" y1="0" x2="173.0859375" y2="5" style="visibility: inherit;" fill="rgb(0, 0, 0)" stroke="rgb(204, 204, 204)" stroke-width="1px"></line><line x1="197.8125" y1="0" x2="197.8125" y2="5" style="visibility: inherit;" fill="rgb(0, 0, 0)" stroke="rgb(204, 204, 204)" stroke-width="1px"></line><line x1="222.5390625" y1="0" x2="222.5390625" y2="5" style="visibility: inherit;" fill="rgb(0, 0, 0)" stroke="rgb(204, 204, 204)" stroke-width="1px"></line><line x1="247.265625" y1="0" x2="247.265625" y2="5" style="visibility: inherit;" fill="rgb(0, 0, 0)" stroke="rgb(204, 204, 204)" stroke-width="1px"></line></g><g transform="translate(0, 8)"><text x="0" y="0" dx="0em" dy="0.95em" style="text-anchor: middle; visibility: hidden; font-family: Roboto, sans-serif; font-size: 12px; font-weight: 200;" fill="rgb(33, 33, 33)" stroke="none" stroke-width="1px">-500k</text><text x="24.7265625" y="0" dx="0em" dy="0.95em" style="text-anchor: middle; visibility: inherit; font-family: Roboto, sans-serif; font-size: 12px; font-weight: 200;" fill="rgb(33, 33, 33)" stroke="none" stroke-width="1px">0</text><text x="49.453125" y="0" dx="0em" dy="0.95em" style="text-anchor: middle; visibility: hidden; font-family: Roboto, sans-serif; font-size: 12px; font-weight: 200;" fill="rgb(33, 33, 33)" stroke="none" stroke-width="1px">500k</text><text x="74.1796875" y="0" dx="0em" dy="0.95em" style="text-anchor: middle; visibility: inherit; font-family: Roboto, sans-serif; font-size: 12px; font-weight: 200;" fill="rgb(33, 33, 33)" stroke="none" stroke-width="1px">1M</text><text x="98.90625" y="0" dx="0em" dy="0.95em" style="text-anchor: middle; visibility: hidden; font-family: Roboto, sans-serif; font-size: 12px; font-weight: 200;" fill="rgb(33, 33, 33)" stroke="none" stroke-width="1px">1.5M</text><text x="123.6328125" y="0" dx="0em" dy="0.95em" style="text-anchor: middle; visibility: inherit; font-family: Roboto, sans-serif; font-size: 12px; font-weight: 200;" fill="rgb(33, 33, 33)" stroke="none" stroke-width="1px">2M</text><text x="148.359375" y="0" dx="0em" dy="0.95em" style="text-anchor: middle; visibility: hidden; font-family: Roboto, sans-serif; font-size: 12px; font-weight: 200;" fill="rgb(33, 33, 33)" stroke="none" stroke-width="1px">2.5M</text><text x="173.0859375" y="0" dx="0em" dy="0.95em" style="text-anchor: middle; visibility: inherit; font-family: Roboto, sans-serif; font-size: 12px; font-weight: 200;" fill="rgb(33, 33, 33)" stroke="none" stroke-width="1px">3M</text><text x="197.8125" y="0" dx="0em" dy="0.95em" style="text-anchor: middle; visibility: hidden; font-family: Roboto, sans-serif; font-size: 12px; font-weight: 200;" fill="rgb(33, 33, 33)" stroke="none" stroke-width="1px">3.5M</text><text x="222.5390625" y="0" dx="0em" dy="0.95em" style="text-anchor: middle; visibility: inherit; font-family: Roboto, sans-serif; font-size: 12px; font-weight: 200;" fill="rgb(33, 33, 33)" stroke="none" stroke-width="1px">4M</text><text x="247.265625" y="0" dx="0em" dy="0.95em" style="text-anchor: middle; visibility: hidden; font-family: Roboto, sans-serif; font-size: 12px; font-weight: 200;" fill="rgb(33, 33, 33)" stroke="none" stroke-width="1px">4.5M</text></g><line x1="0" y1="0" x2="247.265625" y2="0" fill="rgb(0, 0, 0)" stroke="rgb(204, 204, 204)" stroke-width="1px"></line></g></g></g></g></svg>