<svg viewBox="0 0 330 200" xmlns="http://www.w3.org/2000/svg"><g><g><g><g><g><line x1="61.953125" y1="177" x2="56.953125" y2="177" style="visibility: inherit;" fill="rgb(0, 0, 0)" stroke="rgb(204, 204, 204)" stroke-width="1px"></line><line x1="61.953125" y1="159.3" x2="56.953125" y2="159.3" style="visibility: inherit;" fill="rgb(0, 0, 0)" stroke="rgb(204, 204, 204)" stroke-width="1px"></line><line x1="61.953125" y1="141.6" x2="56.953125" y2="141.6" style="visibility: inherit;" fill="rgb(0, 0, 0)" stroke="rgb(204, 204, 204)" stroke-width="1px"></line><line x1="61.953125" y1="123.9" x2="56.953125" y2="123.9" style="visibility: inherit;" fill="rgb(0, 0, 0)" stroke="rgb(204, 204, 204)" stroke-width="1px"></line><line x1="61.953125" y1="106.2" x2="56.953125" y2="106.2" style="visibility: inherit;" fill="rgb(0, 0, 0)" stroke="rgb(204, 204, 204)" stroke-width="1px"></line><line x1="61.953125" y1="88.50000000000001" x2="56.953125" y2="88.50000000000001" style="visibility: inherit;" fill="rgb(0, 0, 0)" stroke="rgb(204, 204, 204)" stroke-width="1px"></line><line x1="61.953125" y1="70.8" x2="56.953125" y2="70.8" style="visibility: inherit;" fill="rgb(0, 0, 0)" stroke="rgb(204, 204, 204)" stroke-width="1px"></line><line x1="61.953125" y1="53.09999999999999" x2="56.953125" y2="53.09999999999999" style="visibility: inherit;" fill="rgb(0, 0, 0)" stroke="rgb(204, 204, 204)" stroke-width="1px"></line><line x1="61.953125" y1="35.400000000000034" x2="56.953125" y2="35.400000000000034" style="visibility: inherit;" fill="rgb(0, 0, 0)" stroke="rgb(204, 204, 204)" stroke-width="1px"></line><line x1="61.953125" y1="17.700000000000017" x2="56.953125" y2="17.700000000000017" style="visibility: inherit;" fill="rgb(0, 0, 0)" stroke="rgb(204, 204, 204)" stroke-width="1px"></line><line x1="61.953125" y1="0" x2="56.953125" y2="0" style="visibility: inherit;" fill="rgb(0, 0, 0)" stroke="rgb(204, 204, 204)" stroke-width="1px"></line></g><g transform="translate(51.953125, 0)"><text x="0" y="177" dx="0em" dy="0.3em" style="text-anchor: end; visibility: hidden; font-family: Roboto, sans-serif; font-size: 12px; font-weight: 200;" fill="rgb(33, 33, 33)" stroke="none" stroke-width="1px">0.01</text><text x="0" y="159.3" dx="0em" dy="0.3em" style="text-anchor: end; visibility: inherit; font-family: Roboto, sans-serif; font-size: 12px; font-weight: 200;" fill="rgb(33, 33, 33)" stroke="none" stroke-width="1px">0.011</text><text x="0" y="141.6" dx="0em" dy="0.3em" style="text-anchor: end; visibility: hidden; font-family: Roboto, sans-serif; font-size: 12px; font-weight: 200;" fill="rgb(33, 33, 33)" stroke="none" stroke-width="1px">0.012</text><text x="0" y="123.9" dx="0em" dy="0.3em" style="text-anchor: end; visibility: inherit; font-family: Roboto, sans-serif; font-size: 12px; font-weight: 200;" fill="rgb(33, 33, 33)" stroke="none" stroke-width="1px">0.013</text><text x="0" y="106.2" dx="0em" dy="0.3em" style="text-anchor: end; visibility: hidden; font-family: Roboto, sans-serif; font-size: 12px; font-weight: 200;" fill="rgb(33, 33, 33)" stroke="none" stroke-width="1px">0.014</text><text x="0" y="88.50000000000001" dx="0em" dy="0.3em" style="text-anchor: end; visibility: inherit; font-family: Roboto, sans-serif; font-size: 12px; font-weight: 200;" fill="rgb(33, 33, 33)" stroke="none" stroke-width="1px">0.015</text><text x="0" y="70.8" dx="0em" dy="0.3em" style="text-anchor: end; visibility: hidden; font-family: Roboto, sans-serif; font-size: 12px; font-weight: 200;" fill="rgb(33, 33, 33)" stroke="none" stroke-width="1px">0.016</text><text x="0" y="53.09999999999999" dx="0em" dy="0.3em" style="text-anchor: end; visibility: inherit; font-family: Roboto, sans-serif; font-size: 12px; font-weight: 200;" fill="rgb(33, 33, 33)" stroke="none" stroke-width="1px">0.017</text><text x="0" y="35.400000000000034" dx="0em" dy="0.3em" style="text-anchor: end; visibility: hidden; font-family: Roboto, sans-serif; font-size: 12px; font-weight: 200;" fill="rgb(33, 33, 33)" stroke="none" stroke-width="1px">0.018</text><text x="0" y="17.700000000000017" dx="0em" dy="0.3em" style="text-anchor: end; visibility: inherit; font-family: Roboto, sans-serif; font-size: 12px; font-weight: 200;" fill="rgb(33, 33, 33)" stroke="none" stroke-width="1px">0.019</text><text x="0" y="0" dx="0em" dy="0.3em" style="text-anchor: end; visibility: hidden; font-family: Roboto, sans-serif; font-size: 12px; font-weight: 200;" fill="rgb(33, 33, 33)" stroke="none" stroke-width="1px">0.02</text></g><line x1="61.953125" y1="0" x2="61.953125" y2="177" fill="rgb(0, 0, 0)" stroke="rgb(204, 204, 204)" stroke-width="1px"></line></g></g><g transform="translate(61, 0)" clip-path="url(#clip_0)"><clipPath id="clip_0"><rect width="268" height="177"></rect></clipPath><g><g><g><line x1="0" y1="0" x2="0" y2="177" fill="rgb(0, 0, 0)" stroke="rgb(66, 66, 66)" stroke-width="1px" opacity="0.25"></line><line x1="26.8046875" y1="0" x2="26.8046875" y2="177" fill="rgb(0, 0, 0)" stroke="rgb(66, 66, 66)" stroke-width="1px" opacity="0.25"></line><line x1="53.609375" y1="0" x2="53.609375" y2="177" fill="rgb(0, 0, 0)" stroke="rgb(66, 66, 66)" stroke-width="1px" opacity="0.25"></line><line x1="80.4140625" y1="0" x2="80.4140625" y2="177" fill="rgb(0, 0, 0)" stroke="rgb(66, 66, 66)" stroke-width="1px" opacity="0.25"></line><line x1="107.21875" y1="0" x2="107.21875" y2="177" fill="rgb(0, 0, 0)" stroke="rgb(66, 66, 66)" stroke-width="1px" opacity="0.25"></line><line x1="134.0234375" y1="0" x2="134.0234375" y2="177" fill="rgb(0, 0, 0)" stroke="rgb(66, 66, 66)" stroke-width="1px" opacity="0.25"></line><line x1="160.828125" y1="0" x2="160.828125" y2="177" fill="rgb(0, 0, 0)" stroke="rgb(66, 66, 66)" stroke-width="1px" opacity="0.25"></line><line x1="187.6328125" y1="0" x2="187.6328125" y2="177" fill="rgb(0, 0, 0)" stroke="rgb(66, 66, 66)" stroke-width="1px" opacity="0.25"></line><line x1="214.4375" y1="0" x2="214.4375" y2="177" fill="rgb(0, 0, 0)" stroke="rgb(66, 66, 66)" stroke-width="1px" opacity="0.25"></line><line x1="241.2421875" y1="0" x2="241.2421875" y2="177" fill="rgb(0, 0, 0)" stroke="rgb(66, 66, 66)" stroke-width="1px" opacity="0.25"></line><line x1="268.046875" y1="0" x2="268.046875" y2="177" fill="rgb(0, 0, 0)" stroke="rgb(66, 66, 66)" stroke-width="1px" opacity="0.25"></line></g><g><line x1="0" y1="177" x2="268.046875" y2="177" fill="rgb(0, 0, 0)" stroke="rgb(66, 66, 66)" stroke-width="1px" opacity="0.25"></line><line x1="0" y1="159.3" x2="268.046875" y2="159.3" fill="rgb(0, 0, 0)" stroke="rgb(66, 66, 66)" stroke-width="1px" opacity="0.25"></line><line x1="0" y1="141.6" x2="268.046875" y2="141.6" fill="rgb(0, 0, 0)" stroke="rgb(66, 66, 66)" stroke-width="1px" opacity="0.25"></line><line x1="0" y1="123.9" x2="268.046875" y2="123.9" fill="rgb(0, 0, 0)" stroke="rgb(66, 66, 66)" stroke-width="1px" opacity="0.25"></line><line x1="0" y1="106.2" x2="268.046875" y2="106.2" fill="rgb(0, 0, 0)" stroke="rgb(66, 66, 66)" stroke-width="1px" opacity="0.25"></line><line x1="0" y1="88.50000000000001" x2="268.046875" y2="88.50000000000001" fill="rgb(0, 0, 0)" stroke="rgb(66, 66, 66)" stroke-width="1px" opacity="0.25"></line><line x1="0" y1="70.8" x2="268.046875" y2="70.8" fill="rgb(0, 0, 0)" stroke="rgb(66, 66, 66)" stroke-width="1px" opacity="0.25"></line><line x1="0" y1="53.09999999999999" x2="268.046875" y2="53.09999999999999" fill="rgb(0, 0, 0)" stroke="rgb(66, 66, 66)" stroke-width="1px" opacity="0.25"></line><line x1="0" y1="35.400000000000034" x2="268.046875" y2="35.400000000000034" fill="rgb(0, 0, 0)" stroke="rgb(66, 66, 66)" stroke-width="1px" opacity="0.25"></line><line x1="0" y1="17.700000000000017" x2="268.046875" y2="17.700000000000017" fill="rgb(0, 0, 0)" stroke="rgb(66, 66, 66)" stroke-width="1px" opacity="0.25"></line><line x1="0" y1="0" x2="268.046875" y2="0" fill="rgb(0, 0, 0)" stroke="rgb(66, 66, 66)" stroke-width="1px" opacity="0.25"></line></g></g></g><g><g><line x1="0" y1="354" x2="268.046875" y2="354" fill="rgb(0, 0, 0)" stroke="rgb(153, 153, 153)" stroke-width="1.5px"></line></g></g><g><g><line x1="26.8046875" y1="0" x2="26.8046875" y2="177" fill="rgb(0, 0, 0)" stroke="rgb(153, 153, 153)" stroke-width="1.5px"></line></g></g><g><g><g><g><g><path stroke="rgb(255, 112, 67)" stroke-width="2px" d="M27.9026075,63.37458425760269L29.0005275,46.874411470256746L30.0984475,90.52435635805739L31.1963675,114.94741107868578L32.2942875,100.67661415579768L33.392207500000005,115.7373454538809L34.4901275,53.57339054353208L35.5880475,86.7098050273809L36.685967500000004,114.39270230743972L37.7838875,23.194950226064137L38.8818075,52.134970176925776L39.9797275,103.53233493598724L41.0776475,104.83190333765563L42.1755675,119.27507758433501L43.2734875,145.77206855188464L44.3714075,142.75224938697463L45.4693275,119.95960866052947L46.5672475,137.61381184714793L47.6651675,121.72218607870855L48.7630875,121.31461897781493L49.8610075,118.58043941790059L50.9589275,132.60151921018445L52.056847499999996,115.5058655647142L53.154767500000005,96.86152939151282L54.2526875,124.70987375547895L55.3506075,147.58350827184316L56.4485275,125.10405234317724L57.5464475,170.57396895433308L58.6443675,173.59450735577767L59.742287499999996,176.8536798197728L60.840207500000005,142.48208242792174L61.9381275,128.69786939076016L63.036047499999995,124.11516202442229L64.1339675,-155.62135142508018L66.3298075,-26.947183505812273L67.4277275,35.693004273929645L68.52564749999999,47.018137901491336L69.6235675,41.42295553895985L70.72148750000001,79.04460478008116L71.8194075,119.90349928097942L72.9173275,157.48118101710634L74.0152475,144.0624151423843L75.11316749999999,124.56905659071288L76.2110875,82.79350412668673L77.3090075,79.11174874748805L78.4069275,74.73957173358541L79.5048475,101.31496832329782L80.60276750000001,153.64129819975506L81.7006875,103.65619039200797L82.7986075,119.22232356176211L83.8965275,105.10772177576152L84.99444749999999,88.50708277520094L86.09236750000001,112.12002819031899L87.1902875,138.66069654377236L88.2882075,148.37356102915135L89.3861275,136.24920382172505L90.48404749999999,90.5903121237135L91.5819675,94.91224712158335L92.6798875,99.9410191969582L93.7778075,104.62978838512365L94.8757275,76.1553965635835L95.9736475,-0.15844743086550772L97.0715675,44.14861524323461L98.1694875,88.43222934138693L99.2674075,102.66302598495436L100.36532749999999,135.19383678721883L101.4632475,80.76374987296757L102.56116750000001,74.46389937718212L103.6590875,97.57549435090716L104.7570075,119.56956856663047L105.8549275,134.33755757936848L106.95284749999999,163.3381520049513L108.0507675,122.60536133865959L109.14868750000001,135.07027095926074L110.2466075,163.54364866687223L111.3445275,150.36907770886037L112.44244750000001,148.73540675433884L113.5403675,160.03335949356799L114.6382875,165.04911693975595L115.73620749999999,127.54655238416953L116.8341275,-135.44519357426665L117.93204750000001,-35.58405995544015L119.0299675,8.74283274009095L120.1278875,73.55229580995004L121.2258075,56.67637239752152L122.32372749999999,66.21338252340519L123.4216475,42.52249616452909L124.51956750000001,56.36442943852458L125.6174875,114.22942608857939L126.7154075,143.18900875010962L127.8133275,139.80038942550942L128.9112475,51.78981252107219L130.0091675,54.79825293179271L131.1070875,88.07142204735229L132.2050075,108.5782012801978L133.30292749999998,123.78319521615585L134.4008475,120.54315474402712L135.49876749999999,111.69398932320958L136.5966875,130.30110010303906L137.69460750000002,111.02774830042037L138.7925275,69.197978808753L139.8904475,97.98686074869174L140.9883675,96.3178032184025L142.0862875,90.99436091747167L143.18420749999999,106.20751257757118L144.2821275,136.9032621802078L145.3800475,126.63017074144997L146.47796749999998,119.84195897505948L147.57588750000002,139.36271895781917L148.6738075,169.8400707069979L149.7717275,162.14680830382977L150.8696475,144.18779609795612L151.9675675,164.65864645955685L153.0654875,165.4392851800783L154.1634075,159.43504521316666L155.2613275,138.04110217133984L156.35924749999998,121.00258340859313L157.4571675,84.27062936975895L158.5550875,112.20681284728252L159.6530075,143.27639040865063L160.75092750000002,143.65432767431474L161.8488475,143.66302767014824L162.9467675,115.72607888052656L164.0446875,131.94337767672417L165.1426075,99.34601977951453L166.24052749999998,101.70465619258358L167.3384475,104.64191610748932L168.43636750000002,72.60550904950718L169.5342875,95.47893225211631L170.63220750000002,133.01054194604595L171.7301275,100.47328098735358L172.8280475,111.24711963606565L173.9259675,136.89616330905372L175.0238875,154.9984881397701L176.1218075,118.70303807953692L177.21972749999998,103.1528724464756L178.3176475,117.09471740323197L179.4155675,48.082454228388656L180.5134875,56.54780710279196L181.6114075,-77.81764804995512L182.7093275,15.689967595479196L183.8072475,29.72826232489426L184.9051675,9.297746276715273L186.0030875,38.93166890940599L187.10100749999998,97.24483164967022L188.1989275,75.64010279667926L189.29684749999998,109.57546346361964L190.3947675,45.12323212012968L191.49268750000002,74.10512344470811L192.5906075,89.16263741213795L193.6885275,94.87464710598421L194.7864475,103.15287837699195L195.8843675,108.16689661333051L196.98228749999998,116.8795198928659L198.0802075,124.14184365906388L199.1781275,99.73144418143077L200.2760475,76.2871717938354L201.37396750000002,75.68502134851043L202.4718875,95.0925999150957L203.5698075,51.32992104388979L204.6677275,61.25679279385628L205.7656475,92.97664353113547L206.8635675,129.46404692447888L207.9614875,108.53227433810656L209.0594075,113.63088831752552L210.15732749999998,111.11261607080708L211.25524750000002,122.81303661686187L212.3531675,123.91405396832229L213.4510875,138.70551567031862L214.54900750000002,142.4047826186056L215.6469275,132.3580496567628L216.7448475,125.52291999954826L217.8427675,122.72895038395433L218.9406875,120.484740048762L220.03860749999998,91.30066831118815L221.1365275,88.78048136208623L222.23444750000002,59.694666521991316L223.3323675,108.77694490089719L224.43028750000002,70.71926554164115L225.5282075,68.02617991638677L226.6261275,85.82608813448248L227.72404749999998,105.32597684355677L228.8219675,71.28600561316074L229.9198875,68.48578208503282L231.01780749999998,48.767193763358335L232.11572750000002,26.360276591123885L233.2136475,57.89898093720779L234.3115675,81.59759193468399L235.4094875,91.64402696972076L236.5074075,-20.540054920405275L237.6053275,0.3466259103476449L238.7032475,64.86417174407595L239.8011675,88.7689564440772L240.89908749999998,85.47247380251437" style="fill: none;" fill="none"></path></g></g></g></g><g opacity="0.2"><g><g><g><path stroke="rgb(255, 112, 67)" stroke-width="2px" d="M27.9026075,63.37458425760269L29.0005275,36.97430779784918L30.0984475,132.428303450346L31.1963675,143.6689234301448L32.2942875,82.04466169327497L33.392207500000005,136.57175870239735L34.4901275,-35.322059601545334L35.5880475,135.0230154544115L36.685967500000004,155.21959866955876L37.7838875,-112.22308306396003L38.8818075,95.28251625224948L39.9797275,180.3486798852682L41.0776475,106.77701262384653L42.1755675,140.91154327243567L43.2734875,185.48640878498554L44.3714075,138.22465045005083L45.4693275,85.78029265254736L46.5672475,164.090634226799L47.6651675,97.88716835528612L48.7630875,120.70330557972193L49.8610075,114.47932002693415L50.9589275,153.6326775290072L52.056847499999996,89.862722620368L53.154767500000005,68.89524599164724L54.2526875,166.4821923673153L55.3506075,181.89386250078678L56.4485275,91.38492596894503L57.5464475,238.77877406403422L59.742287499999996,181.7424367144704L60.840207500000005,90.92469773814082L61.9381275,108.02155257761478L63.036047499999995,117.24110152199864L64.1339675,-575.2261015623808L65.2318875,-4.898927830159664L66.3298075,75.63061089813709L67.4277275,129.65328497439623L68.52564749999999,64.00583823770285L69.6235675,33.030182026326656L70.72148750000001,135.47707851603627L71.8194075,181.19184095039964L72.9173275,213.84770357608795L74.0152475,123.93426633998752L75.11316749999999,95.3290187716484L76.2110875,20.130175441503525L77.3090075,73.58911567926407L78.4069275,68.18130621314049L79.5048475,141.17806320637465L80.60276750000001,232.13079301267862L81.7006875,28.678528681397438L82.7986075,142.57152331620455L83.8965275,83.93581909686327L84.99444749999999,63.60612427443266L86.09236750000001,147.53944631293416L87.1902875,178.4716990739107L88.2882075,162.94285775721073L89.3861275,118.06266801059246L90.48404749999999,22.101974576711655L91.5819675,101.39514961838722L92.6798875,107.48417731001973L93.7778075,111.66294216737151L94.8757275,33.44380883127451L95.9736475,-114.62921342253681L97.0715675,110.60920925438404L98.1694875,154.85765048861504L99.2674075,124.00922095030546L100.36532749999999,183.99005299061537L101.4632475,-0.8813804984092712L102.56116750000001,65.01412363350391L103.6590875,132.24288681149483L104.7570075,152.5606798902154L105.8549275,156.48954109847546L106.95284749999999,206.83904364332557L108.0507675,61.506175339221954L109.14868750000001,153.76763539016247L110.2466075,206.25371522828937L111.3445275,130.60722127184272L112.44244750000001,146.2849003225565L113.5403675,176.98028860241175L114.6382875,172.57275310903788L115.73620749999999,71.29270555078983L116.8341275,-529.9328125119208L117.93204750000001,114.20764047279954L119.0299675,75.23317178338766L120.1278875,170.76649041473866L121.2258075,31.36248727887869L122.32372749999999,80.51889771223068L123.4216475,6.986166626214981L124.51956750000001,77.12732934951782L125.6174875,201.02692106366158L126.7154075,186.62838274240494L127.8133275,134.71746043860912L128.9112475,-80.22605283558369L130.0091675,59.3109135478735L131.1070875,137.98117572069168L132.2050075,139.33837012946606L133.30292749999998,146.59068612009287L134.4008475,115.68309403583407L135.49876749999999,98.42024119198322L136.5966875,158.21176627278328L137.69460750000002,82.11772059649229L138.7925275,6.453324571251869L139.8904475,141.17018365859985L140.9883675,93.81421692296863L142.0862875,83.00919746607542L143.18420749999999,129.0272400677204L144.2821275,182.9468865841627L145.3800475,111.22053358331323L146.47796749999998,109.65964132547379L147.57588750000002,168.64385893195868L148.6738075,215.55609833076596L149.7717275,150.6069146990776L150.8696475,117.24927778914571L151.9675675,195.3649220019579L153.0654875,166.61024326086044L154.1634075,150.42868526279926L155.2613275,105.95018760859966L156.35924749999998,95.44480526447296L157.4571675,29.172698311507702L158.5550875,154.11108806356788L159.6530075,189.88075675070286L160.75092750000002,144.2212335728109L161.8488475,143.67607766389847L162.9467675,73.82065569609404L164.0446875,156.26932587102056L165.1426075,50.449982933700085L166.24052749999998,105.2426108121872L167.3384475,109.04780597984791L168.43636750000002,24.55089846253395L169.5342875,129.78906705603004L170.63220750000002,189.30795648694038L171.7301275,51.667389549314976L172.8280475,127.40787760913372L173.9259675,175.3697288185358L175.0238875,182.1519753858447L176.1218075,64.25986298918724L177.21972749999998,79.82762399688363L178.3176475,138.0074848383665L179.4155675,-55.43594053387642L180.5134875,69.24583641439676L181.6114075,-279.36583077907557L182.7093275,155.95139106363058L183.8072475,50.78570441901684L184.9051675,-21.348027795553207L186.0030875,83.38255285844207L187.10100749999998,184.7145757600665L188.1989275,43.23300951719284L189.29684749999998,160.47850446403027L190.3947675,-51.55511489510536L191.49268750000002,117.57796043157578L192.5906075,111.74890836328268L193.6885275,103.44266164675355L194.7864475,115.57022528350353L195.8843675,115.68792396783829L196.98228749999998,129.94845481216908L198.0802075,135.03532930836082L199.1781275,63.11584496498108L200.2760475,41.1207632124424L201.37396750000002,74.78179568052292L202.4718875,124.20396776497364L203.5698075,-14.31409726291895L204.6677275,76.14710041880608L205.7656475,140.5564196370542L206.8635675,184.19515201449394L207.9614875,77.13461545854807L209.0594075,121.278809286654L210.15732749999998,107.33520770072937L211.25524750000002,140.36366743594408L212.3531675,125.56557999551296L213.4510875,160.8927082233131L214.54900750000002,147.95368304103613L215.6469275,117.28795021399856L216.7448475,115.27022551372647L217.8427675,118.53799596056342L218.9406875,117.11842454597354L220.03860749999998,47.52456070482731L221.1365275,85.00020093843341L222.23444750000002,16.065944261848927L223.3323675,182.40036246925592L224.43028750000002,13.632746502757072L225.5282075,63.986551478505135L226.6261275,112.52595046162605L227.72404749999998,134.57580990716815L228.8219675,20.22604876756668L229.9198875,64.28544679284096L231.01780749999998,19.189311280846596L232.11572750000002,-7.250099167227745L233.2136475,105.20703745633364L234.3115675,117.14550843089819L235.4094875,106.71367952227592L236.5074075,-188.81617775559417L237.6053275,31.676647156476974L238.7032475,161.64049049466848L239.8011675,124.62613349407911L240.89908749999998,80.52774984017015" style="fill: none;" fill="none"></path></g></g></g></g></g></g><g transform="translate(61, 177)" clip-path="url(#clip_1)"><clipPath id="clip_1"><rect width="268" height="23"></rect></clipPath><g><g><line x1="0" y1="0" x2="0" y2="5" style="visibility: inherit;" fill="rgb(0, 0, 0)" stroke="rgb(204, 204, 204)" stroke-width="1px"></line><line x1="26.8046875" y1="0" x2="26.8046875" y2="5" style="visibility: inherit;" fill="rgb(0, 0, 0)" stroke="rgb(204, 204, 204)" stroke-width="1px"></line><line x1="53.609375" y1="0" x2="53.609375" y2="5" style="visibility: inherit;" fill="rgb(0, 0, 0)" stroke="rgb(204, 204, 204)" stroke-width="1px"></line><line x1="80.4140625" y1="0" x2="80.4140625" y2="5" style="visibility: inherit;" fill="rgb(0, 0, 0)" stroke="rgb(204, 204, 204)" stroke-width="1px"></line><line x1="107.21875" y1="0" x2="107.21875" y2="5" style="visibility: inherit;" fill="rgb(0, 0, 0)" stroke="rgb(204, 204, 204)" stroke-width="1px"></line><line x1="134.0234375" y1="0" x2="134.0234375" y2="5" style="visibility: inherit;" fill="rgb(0, 0, 0)" stroke="rgb(204, 204, 204)" stroke-width="1px"></line><line x1="160.828125" y1="0" x2="160.828125" y2="5" style="visibility: inherit;" fill="rgb(0, 0, 0)" stroke="rgb(204, 204, 204)" stroke-width="1px"></line><line x1="187.6328125" y1="0" x2="187.6328125" y2="5" style="visibility: inherit;" fill="rgb(0, 0, 0)" stroke="rgb(204, 204, 204)" stroke-width="1px"></line><line x1="214.4375" y1="0" x2="214.4375" y2="5" style="visibility: inherit;" fill="rgb(0, 0, 0)" stroke="rgb(204, 204, 204)" stroke-width="1px"></line><line x1="241.2421875" y1="0" x2="241.2421875" y2="5" style="visibility: inherit;" fill="rgb(0, 0, 0)" stroke="rgb(204, 204, 204)" stroke-width="1px"></line><line x1="268.046875" y1="0" x2="268.046875" y2="5" style="visibility: inherit;" fill="rgb(0, 0, 0)" stroke="rgb(204, 204, 204)" stroke-width="1px"></line></g><g transform="translate(0, 8)"><text x="0" y="0" dx="0em" dy="0.95em" style="text-anchor: middle; visibility: hidden; font-family: Roboto, sans-serif; font-size: 12px; font-weight: 200;" fill="rgb(33, 33, 33)" stroke="none" stroke-width="1px">-500k</text><text x="26.8046875" y="0" dx="0em" dy="0.95em" style="text-anchor: middle; visibility: inherit; font-family: Roboto, sans-serif; font-size: 12px; font-weight: 200;" fill="rgb(33, 33, 33)" stroke="none" stroke-width="1px">0</text><text x="53.609375" y="0" dx="0em" dy="0.95em" style="text-anchor: middle; visibility: hidden; font-family: Roboto, sans-serif; font-size: 12px; font-weight: 200;" fill="rgb(33, 33, 33)" stroke="none" stroke-width="1px">500k</text><text x="80.4140625" y="0" dx="0em" dy="0.95em" style="text-anchor: middle; visibility: inherit; font-family: Roboto, sans-serif; font-size: 12px; font-weight: 200;" fill="rgb(33, 33, 33)" stroke="none" stroke-width="1px">1M</text><text x="107.21875" y="0" dx="0em" dy="0.95em" style="text-anchor: middle; visibility: hidden; font-family: Roboto, sans-serif; font-size: 12px; font-weight: 200;" fill="rgb(33, 33, 33)" stroke="none" stroke-width="1px">1.5M</text><text x="134.0234375" y="0" dx="0em" dy="0.95em" style="text-anchor: middle; visibility: inherit; font-family: Roboto, sans-serif; font-size: 12px; font-weight: 200;" fill="rgb(33, 33, 33)" stroke="none" stroke-width="1px">2M</text><text x="160.828125" y="0" dx="0em" dy="0.95em" style="text-anchor: middle; visibility: hidden; font-family: Roboto, sans-serif; font-size: 12px; font-weight: 200;" fill="rgb(33, 33, 33)" stroke="none" stroke-width="1px">2.5M</text><text x="187.6328125" y="0" dx="0em" dy="0.95em" style="text-anchor: middle; visibility: inherit; font-family: Roboto, sans-serif; font-size: 12px; font-weight: 200;" fill="rgb(33, 33, 33)" stroke="none" stroke-width="1px">3M</text><text x="214.4375" y="0" dx="0em" dy="0.95em" style="text-anchor: middle; visibility: hidden; font-family: Roboto, sans-serif; font-size: 12px; font-weight: 200;" fill="rgb(33, 33, 33)" stroke="none" stroke-width="1px">3.5M</text><text x="241.2421875" y="0" dx="0em" dy="0.95em" style="text-anchor: middle; visibility: inherit; font-family: Roboto, sans-serif; font-size: 12px; font-weight: 200;" fill="rgb(33, 33, 33)" stroke="none" stroke-width="1px">4M</text><text x="268.046875" y="0" dx="0em" dy="0.95em" style="text-anchor: middle; visibility: hidden; font-family: Roboto, sans-serif; font-size: 12px; font-weight: 200;" fill="rgb(33, 33, 33)" stroke="none" stroke-width="1px">4.5M</text></g><line x1="0" y1="0" x2="268.046875" y2="0" fill="rgb(0, 0, 0)" stroke="rgb(204, 204, 204)" stroke-width="1px"></line></g></g></g></g></svg>