<svg viewBox="0 0 330 200" xmlns="http://www.w3.org/2000/svg"><g><g><g><g><g><line x1="51.5625" y1="177" x2="46.5625" y2="177" style="visibility: inherit;" fill="rgb(0, 0, 0)" stroke="rgb(204, 204, 204)" stroke-width="1px"></line><line x1="51.5625" y1="164.35714285714283" x2="46.5625" y2="164.35714285714283" style="visibility: inherit;" fill="rgb(0, 0, 0)" stroke="rgb(204, 204, 204)" stroke-width="1px"></line><line x1="51.5625" y1="151.71428571428572" x2="46.5625" y2="151.71428571428572" style="visibility: inherit;" fill="rgb(0, 0, 0)" stroke="rgb(204, 204, 204)" stroke-width="1px"></line><line x1="51.5625" y1="139.07142857142856" x2="46.5625" y2="139.07142857142856" style="visibility: inherit;" fill="rgb(0, 0, 0)" stroke="rgb(204, 204, 204)" stroke-width="1px"></line><line x1="51.5625" y1="126.42857142857142" x2="46.5625" y2="126.42857142857142" style="visibility: inherit;" fill="rgb(0, 0, 0)" stroke="rgb(204, 204, 204)" stroke-width="1px"></line><line x1="51.5625" y1="113.78571428571429" x2="46.5625" y2="113.78571428571429" style="visibility: inherit;" fill="rgb(0, 0, 0)" stroke="rgb(204, 204, 204)" stroke-width="1px"></line><line x1="51.5625" y1="101.14285714285714" x2="46.5625" y2="101.14285714285714" style="visibility: inherit;" fill="rgb(0, 0, 0)" stroke="rgb(204, 204, 204)" stroke-width="1px"></line><line x1="51.5625" y1="88.5" x2="46.5625" y2="88.5" style="visibility: inherit;" fill="rgb(0, 0, 0)" stroke="rgb(204, 204, 204)" stroke-width="1px"></line><line x1="51.5625" y1="75.85714285714286" x2="46.5625" y2="75.85714285714286" style="visibility: inherit;" fill="rgb(0, 0, 0)" stroke="rgb(204, 204, 204)" stroke-width="1px"></line><line x1="51.5625" y1="63.21428571428571" x2="46.5625" y2="63.21428571428571" style="visibility: inherit;" fill="rgb(0, 0, 0)" stroke="rgb(204, 204, 204)" stroke-width="1px"></line><line x1="51.5625" y1="50.57142857142855" x2="46.5625" y2="50.57142857142855" style="visibility: inherit;" fill="rgb(0, 0, 0)" stroke="rgb(204, 204, 204)" stroke-width="1px"></line><line x1="51.5625" y1="37.92857142857145" x2="46.5625" y2="37.92857142857145" style="visibility: inherit;" fill="rgb(0, 0, 0)" stroke="rgb(204, 204, 204)" stroke-width="1px"></line><line x1="51.5625" y1="25.285714285714313" x2="46.5625" y2="25.285714285714313" style="visibility: inherit;" fill="rgb(0, 0, 0)" stroke="rgb(204, 204, 204)" stroke-width="1px"></line><line x1="51.5625" y1="12.642857142857157" x2="46.5625" y2="12.642857142857157" style="visibility: inherit;" fill="rgb(0, 0, 0)" stroke="rgb(204, 204, 204)" stroke-width="1px"></line><line x1="51.5625" y1="0" x2="46.5625" y2="0" style="visibility: inherit;" fill="rgb(0, 0, 0)" stroke="rgb(204, 204, 204)" stroke-width="1px"></line></g><g transform="translate(41.5625, 0)"><text x="0" y="177" dx="0em" dy="0.3em" style="text-anchor: end; visibility: hidden; font-family: Roboto, sans-serif; font-size: 12px; font-weight: 200;" fill="rgb(33, 33, 33)" stroke="none" stroke-width="1px">0.6</text><text x="0" y="164.35714285714283" dx="0em" dy="0.3em" style="text-anchor: end; visibility: inherit; font-family: Roboto, sans-serif; font-size: 12px; font-weight: 200;" fill="rgb(33, 33, 33)" stroke="none" stroke-width="1px">0.65</text><text x="0" y="151.71428571428572" dx="0em" dy="0.3em" style="text-anchor: end; visibility: hidden; font-family: Roboto, sans-serif; font-size: 12px; font-weight: 200;" fill="rgb(33, 33, 33)" stroke="none" stroke-width="1px">0.7</text><text x="0" y="139.07142857142856" dx="0em" dy="0.3em" style="text-anchor: end; visibility: inherit; font-family: Roboto, sans-serif; font-size: 12px; font-weight: 200;" fill="rgb(33, 33, 33)" stroke="none" stroke-width="1px">0.75</text><text x="0" y="126.42857142857142" dx="0em" dy="0.3em" style="text-anchor: end; visibility: hidden; font-family: Roboto, sans-serif; font-size: 12px; font-weight: 200;" fill="rgb(33, 33, 33)" stroke="none" stroke-width="1px">0.8</text><text x="0" y="113.78571428571429" dx="0em" dy="0.3em" style="text-anchor: end; visibility: inherit; font-family: Roboto, sans-serif; font-size: 12px; font-weight: 200;" fill="rgb(33, 33, 33)" stroke="none" stroke-width="1px">0.85</text><text x="0" y="101.14285714285714" dx="0em" dy="0.3em" style="text-anchor: end; visibility: hidden; font-family: Roboto, sans-serif; font-size: 12px; font-weight: 200;" fill="rgb(33, 33, 33)" stroke="none" stroke-width="1px">0.9</text><text x="0" y="88.5" dx="0em" dy="0.3em" style="text-anchor: end; visibility: inherit; font-family: Roboto, sans-serif; font-size: 12px; font-weight: 200;" fill="rgb(33, 33, 33)" stroke="none" stroke-width="1px">0.95</text><text x="0" y="75.85714285714286" dx="0em" dy="0.3em" style="text-anchor: end; visibility: hidden; font-family: Roboto, sans-serif; font-size: 12px; font-weight: 200;" fill="rgb(33, 33, 33)" stroke="none" stroke-width="1px">1</text><text x="0" y="63.21428571428571" dx="0em" dy="0.3em" style="text-anchor: end; visibility: inherit; font-family: Roboto, sans-serif; font-size: 12px; font-weight: 200;" fill="rgb(33, 33, 33)" stroke="none" stroke-width="1px">1.05</text><text x="0" y="50.57142857142855" dx="0em" dy="0.3em" style="text-anchor: end; visibility: hidden; font-family: Roboto, sans-serif; font-size: 12px; font-weight: 200;" fill="rgb(33, 33, 33)" stroke="none" stroke-width="1px">1.1</text><text x="0" y="37.92857142857145" dx="0em" dy="0.3em" style="text-anchor: end; visibility: inherit; font-family: Roboto, sans-serif; font-size: 12px; font-weight: 200;" fill="rgb(33, 33, 33)" stroke="none" stroke-width="1px">1.15</text><text x="0" y="25.285714285714313" dx="0em" dy="0.3em" style="text-anchor: end; visibility: hidden; font-family: Roboto, sans-serif; font-size: 12px; font-weight: 200;" fill="rgb(33, 33, 33)" stroke="none" stroke-width="1px">1.2</text><text x="0" y="12.642857142857157" dx="0em" dy="0.3em" style="text-anchor: end; visibility: inherit; font-family: Roboto, sans-serif; font-size: 12px; font-weight: 200;" fill="rgb(33, 33, 33)" stroke="none" stroke-width="1px">1.25</text><text x="0" y="0" dx="0em" dy="0.3em" style="text-anchor: end; visibility: hidden; font-family: Roboto, sans-serif; font-size: 12px; font-weight: 200;" fill="rgb(33, 33, 33)" stroke="none" stroke-width="1px">1.3</text></g><line x1="51.5625" y1="0" x2="51.5625" y2="177" fill="rgb(0, 0, 0)" stroke="rgb(204, 204, 204)" stroke-width="1px"></line></g></g><g transform="translate(51, 0)" clip-path="url(#clip_0)"><clipPath id="clip_0"><rect width="278" height="177"></rect></clipPath><g><g><g><line x1="0" y1="0" x2="0" y2="177" fill="rgb(0, 0, 0)" stroke="rgb(66, 66, 66)" stroke-width="1px" opacity="0.25"></line><line x1="27.84375" y1="0" x2="27.84375" y2="177" fill="rgb(0, 0, 0)" stroke="rgb(66, 66, 66)" stroke-width="1px" opacity="0.25"></line><line x1="55.6875" y1="0" x2="55.6875" y2="177" fill="rgb(0, 0, 0)" stroke="rgb(66, 66, 66)" stroke-width="1px" opacity="0.25"></line><line x1="83.53125" y1="0" x2="83.53125" y2="177" fill="rgb(0, 0, 0)" stroke="rgb(66, 66, 66)" stroke-width="1px" opacity="0.25"></line><line x1="111.375" y1="0" x2="111.375" y2="177" fill="rgb(0, 0, 0)" stroke="rgb(66, 66, 66)" stroke-width="1px" opacity="0.25"></line><line x1="139.21875" y1="0" x2="139.21875" y2="177" fill="rgb(0, 0, 0)" stroke="rgb(66, 66, 66)" stroke-width="1px" opacity="0.25"></line><line x1="167.0625" y1="0" x2="167.0625" y2="177" fill="rgb(0, 0, 0)" stroke="rgb(66, 66, 66)" stroke-width="1px" opacity="0.25"></line><line x1="194.90625" y1="0" x2="194.90625" y2="177" fill="rgb(0, 0, 0)" stroke="rgb(66, 66, 66)" stroke-width="1px" opacity="0.25"></line><line x1="222.75" y1="0" x2="222.75" y2="177" fill="rgb(0, 0, 0)" stroke="rgb(66, 66, 66)" stroke-width="1px" opacity="0.25"></line><line x1="250.59375" y1="0" x2="250.59375" y2="177" fill="rgb(0, 0, 0)" stroke="rgb(66, 66, 66)" stroke-width="1px" opacity="0.25"></line><line x1="278.4375" y1="0" x2="278.4375" y2="177" fill="rgb(0, 0, 0)" stroke="rgb(66, 66, 66)" stroke-width="1px" opacity="0.25"></line></g><g><line x1="0" y1="177" x2="278.4375" y2="177" fill="rgb(0, 0, 0)" stroke="rgb(66, 66, 66)" stroke-width="1px" opacity="0.25"></line><line x1="0" y1="164.35714285714283" x2="278.4375" y2="164.35714285714283" fill="rgb(0, 0, 0)" stroke="rgb(66, 66, 66)" stroke-width="1px" opacity="0.25"></line><line x1="0" y1="151.71428571428572" x2="278.4375" y2="151.71428571428572" fill="rgb(0, 0, 0)" stroke="rgb(66, 66, 66)" stroke-width="1px" opacity="0.25"></line><line x1="0" y1="139.07142857142856" x2="278.4375" y2="139.07142857142856" fill="rgb(0, 0, 0)" stroke="rgb(66, 66, 66)" stroke-width="1px" opacity="0.25"></line><line x1="0" y1="126.42857142857142" x2="278.4375" y2="126.42857142857142" fill="rgb(0, 0, 0)" stroke="rgb(66, 66, 66)" stroke-width="1px" opacity="0.25"></line><line x1="0" y1="113.78571428571429" x2="278.4375" y2="113.78571428571429" fill="rgb(0, 0, 0)" stroke="rgb(66, 66, 66)" stroke-width="1px" opacity="0.25"></line><line x1="0" y1="101.14285714285714" x2="278.4375" y2="101.14285714285714" fill="rgb(0, 0, 0)" stroke="rgb(66, 66, 66)" stroke-width="1px" opacity="0.25"></line><line x1="0" y1="88.5" x2="278.4375" y2="88.5" fill="rgb(0, 0, 0)" stroke="rgb(66, 66, 66)" stroke-width="1px" opacity="0.25"></line><line x1="0" y1="75.85714285714286" x2="278.4375" y2="75.85714285714286" fill="rgb(0, 0, 0)" stroke="rgb(66, 66, 66)" stroke-width="1px" opacity="0.25"></line><line x1="0" y1="63.21428571428571" x2="278.4375" y2="63.21428571428571" fill="rgb(0, 0, 0)" stroke="rgb(66, 66, 66)" stroke-width="1px" opacity="0.25"></line><line x1="0" y1="50.57142857142855" x2="278.4375" y2="50.57142857142855" fill="rgb(0, 0, 0)" stroke="rgb(66, 66, 66)" stroke-width="1px" opacity="0.25"></line><line x1="0" y1="37.92857142857145" x2="278.4375" y2="37.92857142857145" fill="rgb(0, 0, 0)" stroke="rgb(66, 66, 66)" stroke-width="1px" opacity="0.25"></line><line x1="0" y1="25.285714285714313" x2="278.4375" y2="25.285714285714313" fill="rgb(0, 0, 0)" stroke="rgb(66, 66, 66)" stroke-width="1px" opacity="0.25"></line><line x1="0" y1="12.642857142857157" x2="278.4375" y2="12.642857142857157" fill="rgb(0, 0, 0)" stroke="rgb(66, 66, 66)" stroke-width="1px" opacity="0.25"></line><line x1="0" y1="0" x2="278.4375" y2="0" fill="rgb(0, 0, 0)" stroke="rgb(66, 66, 66)" stroke-width="1px" opacity="0.25"></line></g></g></g><g><g><line x1="0" y1="328.71428571428567" x2="278.4375" y2="328.71428571428567" fill="rgb(0, 0, 0)" stroke="rgb(153, 153, 153)" stroke-width="1.5px"></line></g></g><g><g><line x1="27.84375" y1="0" x2="27.84375" y2="177" fill="rgb(0, 0, 0)" stroke="rgb(153, 153, 153)" stroke-width="1.5px"></line></g></g><g><g><g><g><g><path stroke="rgb(255, 112, 67)" stroke-width="2px" d="M28.984229999999997,-10.537892614092122L30.12471,88.3161255483116L31.26519,103.57068378341441L32.40567,23.955880417355534L33.546150000000004,30.92593680613929L34.68663,105.63073010202358L35.827110000000005,140.24178466505901L36.96759,31.535471693798108L38.108070000000005,61.067384874651616L39.24855,86.49087908937896L40.38903,108.74536194193547L41.52951,152.627163540766L42.66999,101.39191139188394L43.81047,149.2087177548636L44.95095,165.18758413169553L46.091429999999995,196.578186805547L47.23191,140.72847726995204L48.372389999999996,154.3149510268842L49.51287,34.8412794169718L50.653349999999996,96.50535672378366L51.79383,24.550379926643025L52.93431,61.08089746134525L54.07479,103.64652970200066L55.215270000000004,29.94358299010519L56.35575,82.2589821841249L57.496230000000004,90.088385798778L58.63671,108.69022129606833L59.77719,121.27837359303996L60.91767,147.54338901816803L62.05815,133.49764458481883L63.19863,78.93341577827358L64.33911,76.79996923212431L65.47959,96.56351912155529L66.62007,113.72912359112783L67.76055,112.64720026533705L68.90103,135.56486680573664L70.04151,155.8567275087715L71.18199,138.51888027535244L72.32247,145.3470710082483L73.46295,159.52904700187125L74.60343,185.53316850417428L75.74391,144.56682363026698L76.88439,128.36850892698828L78.02486999999999,137.18608381421774L79.16535,100.25049072843876L80.30583,105.7066090284026L81.44631,6.075436537689905L82.58679,-73.4230909964335L83.72727,3.1775864786330654L84.86775,70.37862982280558L86.00823,86.51044844353576L87.14871,114.87261599766153L88.28918999999999,106.66985955344924L89.42967,103.0536593961261L90.57015,114.4979169383529L91.71063,135.90282395316132L92.85110999999999,176.298368716105L93.99158999999999,173.8192234590262L95.13207000000001,171.23355737313412L96.27255000000001,130.1549203403431L97.41303,161.82038926102072L98.55351,92.1443382885797L99.69399,128.64320249478519L100.83447000000001,114.20849199111412L101.97495,120.30322806248162L103.11543,120.67349666992564L104.25591,97.4994344255568L105.39639,147.6093813997396L106.53687000000001,141.74680010721698L107.67735,153.4755103057787L108.81783,107.86349003879646L109.95831,104.4058593354727L111.09879,56.09394611711786L112.23927,80.89867225422897L113.37975,21.486310926455275L114.52023,18.12843653233104L115.66071,103.16003941867928L116.80119,34.56862567801073L117.94167,10.159616552567106L119.08215,30.348720245653364L120.22263,49.3475308155722L121.36310999999999,98.33746233454727L122.50359,92.61176607957881L123.64407,54.04529310776488L124.78455,69.9576605955157L125.92502999999999,43.27220567290911L127.06550999999999,82.529448169959L128.20599,94.03154484965516L129.34647,85.81248703323669L130.48695,-6.190703747051027L131.62743,38.22665898956234L132.76791,72.83641723794733L133.90839,117.26064857416578L135.04887,153.26129523346472L136.18935,172.48563738891698L137.32983,138.03368492603684L138.47030999999998,103.23562990747408L139.61078999999998,79.48182543844631L140.75126999999998,-18.5570811296237L143.03223,-32.38908619396922L144.17271,36.540147635773934L145.31319,11.140837418526608L146.45367,84.85152623248369L147.59414999999998,78.74246972999052L148.73462999999998,116.8693388457022L149.87511,98.87704986405761L151.01559,38.84887088239768L152.15607,15.706426779120344L153.29655000000002,35.3339917998505L154.43703000000002,15.07025830393985L155.57751000000002,84.70815434721683L156.71799000000001,91.18623764742529L157.85847,92.8757169621364L158.99895,92.68465833868495L160.13943,136.9971972218934L161.27991,139.33295666305068L162.42039,92.3102629166798L163.56087,94.13770204164041L164.70135000000002,29.612250210252988L165.84183000000002,29.317917058285044L166.98231,58.42444086465763L168.12279,100.0749621006035L169.26327,134.3276818384893L170.40375,71.56559001489344L171.54423,72.51394045488075L172.68471,108.31932530143624L173.82519,97.38901788964556L174.96567000000002,104.68047445912259L176.10615,104.40587527862078L177.24663,77.8944008309298L178.38711,112.93627983936732L179.52759,93.90869436116171L180.66807,114.65595332738165L181.80855,118.18264933968854L182.94903,92.46652094961651L184.08951,64.9463738740258L185.22999,122.64700859432058L186.37047,143.0348881070209L187.51095,144.18218910941687L188.65143,147.5271436535839L189.79191,107.92850052582081L190.93239,138.680651997556L192.07287,131.14690078541278L193.21335,137.33852760852443L194.35383,99.35127978838126L195.49430999999998,103.53086446116352L196.63478999999998,80.29484916136084L197.77527,71.50578638727151L198.91575,96.73779195521794L200.05623,92.99733884489677L201.19671,93.86651716529725L202.33719,65.65287463775344L203.47767,120.86993630816042L204.61814999999999,99.7554199496563L205.75862999999998,85.03690715004369L206.89910999999998,115.53837387185908L208.03959,135.6001128834923L209.18007,97.23695156384433L210.32055,57.77404199826926L211.46103,70.09211569131907L212.60151,81.94824170019837L213.74199,48.27013618658804L214.88246999999998,94.48520540541898L216.02294999999998,126.76822125862789L217.16342999999998,114.23851967169156L218.30390999999997,114.89760489650554L219.44439000000003,77.73583935304704L220.58487000000002,64.67700637257916L221.72535000000002,71.02243743806036L222.86583000000002,70.81256716701192L224.00631,85.45340848715783L225.14679,109.75745399786898L226.28727,111.96990801943801L227.42775,103.70356408389486L228.56823,144.4605815558983L229.70871,134.95110279700987L230.84919000000002,162.50852905739444L231.98967000000002,118.07932929073375L233.13015000000001,31.7738652528373L234.27063,32.491608419651094L235.41111,86.86880376938751L236.55159,117.62568117297239L237.69207,83.31172577978529L238.83255,88.5411978884165L239.97303,102.4653986033829L241.11351000000002,126.59518625871814L242.25399000000002,169.2494882428266L243.39447,141.45056267623664L244.53495,108.91737560230655L245.67543,73.51287981662334L246.81591,94.69162839612984L247.95639,64.84215006635131L249.09687,44.25745974424807L250.23735,44.551648869772734" style="fill: none;" fill="none"></path></g></g></g></g><g opacity="0.2"><g><g><g><path stroke="rgb(255, 112, 67)" stroke-width="2px" d="M28.984229999999997,-10.537892614092122L30.12471,147.6285364457539L31.26519,118.21505968911308L32.40567,-69.67112834112984L33.546150000000004,40.02604242733547L34.68663,208.97435295581818L36.96759,-126.95937619890479L38.108070000000005,104.62122053759438L39.24855,124.24180504253933L40.38903,141.92523969922746L41.52951,218.21106311253138L42.66999,24.706325156348104L43.81047,220.84024919782365L46.091429999999995,243.64195173127308L47.23191,56.97754669189453L48.372389999999996,174.69121205806732L49.51287,-144.35102738652907L51.79383,-83.378139087132L52.93431,115.87547171115875L54.07479,167.49413767882754L55.215270000000004,-80.60996399606974L56.35575,160.73170913968767L57.496230000000004,101.83245783192771L58.63671,136.59292694500516L59.77719,140.16058271271842L60.91767,186.9408879620688L62.05815,112.42903569766453L63.19863,-2.912909337452474L64.33911,73.59979983738491L65.47959,126.20884159633091L66.62007,139.47752906594957L67.76055,111.02431532314846L68.90103,169.94136602537972L70.04151,186.29451824937547L71.18199,112.51210958617074L72.32247,155.58935706956046L73.46295,180.80201094491142L74.60343,224.53935070548738L75.74391,83.11730636869159L76.88439,104.0710368837629L78.02486999999999,150.41244614124298L79.16535,44.84710110936847L80.30583,113.89078647749764L81.44631,-143.3713221890585L82.58679,-192.67088229315618L83.72727,118.07860268865312L84.86775,171.1801948377064L86.00823,110.70817637443542L87.14871,157.4158673286438L88.28918999999999,94.3657248871667L89.42967,97.6293591601508L90.57015,131.6643032516752L91.71063,168.01018447535378L92.85110999999999,236.8916858604976L93.99158999999999,170.10050557340892L95.13207000000001,167.3550582442965L96.27255000000001,68.53696479116168L97.41303,209.3185926420348L99.69399,183.3914988040924L100.83447000000001,92.55642623560769L101.97495,129.44533216953278L103.11543,121.22889958109175L104.25591,62.73834105900356L105.39639,222.77430186101367L106.53687000000001,132.95292816843303L107.67735,171.06857560362133L108.81783,39.44545963832312L109.95831,99.21941328048706L111.09879,-16.373923710414346L112.23927,118.10576145989555L113.37975,-67.63223106520516L114.52023,13.091624941144673L115.66071,230.70744374820163L117.94167,-26.453897135598307L119.08215,60.6323757852827L120.22263,77.84574667045048L121.36310999999999,171.82235961300984L122.50359,84.02322169712612L123.64407,-3.8044163499559733L124.78455,93.82621182714189L125.92502999999999,3.244023288999288L127.06550999999999,141.41531191553386L128.20599,111.28468986919948L129.34647,73.48390030860901L130.48695,-144.19548991748258L131.62743,104.85270309448242L132.76791,124.75105461052486L133.90839,183.89699557849337L136.18935,201.32215062209536L137.32983,86.3557562317167L138.47030999999998,51.03854737962996L139.61078999999998,43.8511187349047L140.75126999999998,-165.61544098172865L143.03223,-28.837599277496338L144.17271,139.93399838038852L145.31319,-26.958127907344277L146.45367,195.41755945341927L147.59414999999998,69.57888497625079L148.73462999999998,174.0596425192697L149.87511,71.88861639159067L151.01559,-51.193397590092246L152.15607,-19.007239375795614L153.29655000000002,64.7753393309457L154.43703000000002,-15.325341939926147L155.57751000000002,189.16499841213226L156.71799000000001,100.903362597738L157.85847,95.40993593420302L158.99895,92.39807040350777L160.13943,203.46600554670607L161.27991,142.8365958247866L162.42039,21.776222297123514L163.56087,96.87886072908128L164.70135000000002,-67.17592753682817L165.84183000000002,28.87641733033317L166.98231,102.08422657421657L168.12279,162.55074395452226L169.26327,185.70676144531794L170.40375,-22.577547720500405L171.54423,73.93646611486163L172.68471,162.02740257126945L173.82519,80.99355677195958L174.96567000000002,115.61765931333815L176.10615,103.99397650786808L177.24663,38.12718915939331L178.38711,165.49909835202354L179.52759,65.36731614385333L180.66807,145.7768417767116L181.80855,123.47269335814885L182.94903,53.8923283645085L184.08951,23.66615326063975L185.22999,209.19796067476273L186.37047,173.61670737607136L187.51095,145.90314061301095L188.65143,152.54457546983446L189.79191,48.530535834176206L190.93239,184.80887920515877L192.07287,119.84627396719796L193.21335,146.62596784319194L194.35383,42.370408058166504L195.49430999999998,109.80024147033691L196.63478999999998,45.44082621165684L197.77527,58.32219222613743L198.91575,134.58580030713762L200.05623,87.38665917941502L201.19671,95.170284645898L202.33719,23.332410846437742L203.47767,203.69552881377084L204.61814999999999,68.08364541190012L205.75862999999998,62.959137950624736L206.89910999999998,161.29057395458221L208.03959,165.6927214009421L209.18007,39.69220958437239L210.32055,-1.4203223500933022L211.46103,88.56922623089382L212.60151,99.73243071351732L213.74199,-2.2470220838274333L214.88246999999998,163.80780923366547L216.02294999999998,175.19274503844125L217.16342999999998,95.44396729128701L218.30390999999997,115.8862327337265L219.44439000000003,21.99319103785925L220.58487000000002,45.088756901877275L221.72535000000002,80.54058403628213L222.86583000000002,70.49776176043919L224.00631,107.41467046737671L225.14679,146.21352226393563L226.28727,115.2885890517916L227.42775,91.30404818058014L228.56823,205.5961077639035L229.70871,120.68688465867723L230.84919000000002,203.84466844797134L231.98967000000002,51.435529640742715L233.13015000000001,-97.68433080400733L234.27063,33.56822316987174L235.41111,168.43459679399217L236.55159,163.76099727834972L237.69207,31.840792690004637L238.83255,96.38540605136326L239.97303,123.35169967583248L241.11351000000002,162.789867741721L242.25399000000002,233.23094121898924L243.39447,99.7521743263517L244.53495,60.11759499141148L245.67543,20.406136138098592L246.81591,126.45975126538957L247.95639,20.067932571683613L249.09687,13.38042426109316L250.23735,44.99293255805969" style="fill: none;" fill="none"></path></g></g></g></g></g></g><g transform="translate(51, 177)" clip-path="url(#clip_1)"><clipPath id="clip_1"><rect width="278" height="23"></rect></clipPath><g><g><line x1="0" y1="0" x2="0" y2="5" style="visibility: inherit;" fill="rgb(0, 0, 0)" stroke="rgb(204, 204, 204)" stroke-width="1px"></line><line x1="27.84375" y1="0" x2="27.84375" y2="5" style="visibility: inherit;" fill="rgb(0, 0, 0)" stroke="rgb(204, 204, 204)" stroke-width="1px"></line><line x1="55.6875" y1="0" x2="55.6875" y2="5" style="visibility: inherit;" fill="rgb(0, 0, 0)" stroke="rgb(204, 204, 204)" stroke-width="1px"></line><line x1="83.53125" y1="0" x2="83.53125" y2="5" style="visibility: inherit;" fill="rgb(0, 0, 0)" stroke="rgb(204, 204, 204)" stroke-width="1px"></line><line x1="111.375" y1="0" x2="111.375" y2="5" style="visibility: inherit;" fill="rgb(0, 0, 0)" stroke="rgb(204, 204, 204)" stroke-width="1px"></line><line x1="139.21875" y1="0" x2="139.21875" y2="5" style="visibility: inherit;" fill="rgb(0, 0, 0)" stroke="rgb(204, 204, 204)" stroke-width="1px"></line><line x1="167.0625" y1="0" x2="167.0625" y2="5" style="visibility: inherit;" fill="rgb(0, 0, 0)" stroke="rgb(204, 204, 204)" stroke-width="1px"></line><line x1="194.90625" y1="0" x2="194.90625" y2="5" style="visibility: inherit;" fill="rgb(0, 0, 0)" stroke="rgb(204, 204, 204)" stroke-width="1px"></line><line x1="222.75" y1="0" x2="222.75" y2="5" style="visibility: inherit;" fill="rgb(0, 0, 0)" stroke="rgb(204, 204, 204)" stroke-width="1px"></line><line x1="250.59375" y1="0" x2="250.59375" y2="5" style="visibility: inherit;" fill="rgb(0, 0, 0)" stroke="rgb(204, 204, 204)" stroke-width="1px"></line><line x1="278.4375" y1="0" x2="278.4375" y2="5" style="visibility: inherit;" fill="rgb(0, 0, 0)" stroke="rgb(204, 204, 204)" stroke-width="1px"></line></g><g transform="translate(0, 8)"><text x="0" y="0" dx="0em" dy="0.95em" style="text-anchor: middle; visibility: hidden; font-family: Roboto, sans-serif; font-size: 12px; font-weight: 200;" fill="rgb(33, 33, 33)" stroke="none" stroke-width="1px">-500k</text><text x="27.84375" y="0" dx="0em" dy="0.95em" style="text-anchor: middle; visibility: inherit; font-family: Roboto, sans-serif; font-size: 12px; font-weight: 200;" fill="rgb(33, 33, 33)" stroke="none" stroke-width="1px">0</text><text x="55.6875" y="0" dx="0em" dy="0.95em" style="text-anchor: middle; visibility: inherit; font-family: Roboto, sans-serif; font-size: 12px; font-weight: 200;" fill="rgb(33, 33, 33)" stroke="none" stroke-width="1px">500k</text><text x="83.53125" y="0" dx="0em" dy="0.95em" style="text-anchor: middle; visibility: inherit; font-family: Roboto, sans-serif; font-size: 12px; font-weight: 200;" fill="rgb(33, 33, 33)" stroke="none" stroke-width="1px">1M</text><text x="111.375" y="0" dx="0em" dy="0.95em" style="text-anchor: middle; visibility: inherit; font-family: Roboto, sans-serif; font-size: 12px; font-weight: 200;" fill="rgb(33, 33, 33)" stroke="none" stroke-width="1px">1.5M</text><text x="139.21875" y="0" dx="0em" dy="0.95em" style="text-anchor: middle; visibility: inherit; font-family: Roboto, sans-serif; font-size: 12px; font-weight: 200;" fill="rgb(33, 33, 33)" stroke="none" stroke-width="1px">2M</text><text x="167.0625" y="0" dx="0em" dy="0.95em" style="text-anchor: middle; visibility: inherit; font-family: Roboto, sans-serif; font-size: 12px; font-weight: 200;" fill="rgb(33, 33, 33)" stroke="none" stroke-width="1px">2.5M</text><text x="194.90625" y="0" dx="0em" dy="0.95em" style="text-anchor: middle; visibility: inherit; font-family: Roboto, sans-serif; font-size: 12px; font-weight: 200;" fill="rgb(33, 33, 33)" stroke="none" stroke-width="1px">3M</text><text x="222.75" y="0" dx="0em" dy="0.95em" style="text-anchor: middle; visibility: inherit; font-family: Roboto, sans-serif; font-size: 12px; font-weight: 200;" fill="rgb(33, 33, 33)" stroke="none" stroke-width="1px">3.5M</text><text x="250.59375" y="0" dx="0em" dy="0.95em" style="text-anchor: middle; visibility: inherit; font-family: Roboto, sans-serif; font-size: 12px; font-weight: 200;" fill="rgb(33, 33, 33)" stroke="none" stroke-width="1px">4M</text><text x="278.4375" y="0" dx="0em" dy="0.95em" style="text-anchor: middle; visibility: hidden; font-family: Roboto, sans-serif; font-size: 12px; font-weight: 200;" fill="rgb(33, 33, 33)" stroke="none" stroke-width="1px">4.5M</text></g><line x1="0" y1="0" x2="278.4375" y2="0" fill="rgb(0, 0, 0)" stroke="rgb(204, 204, 204)" stroke-width="1px"></line></g></g></g></g></svg>