<svg viewBox="0 0 330 200" xmlns="http://www.w3.org/2000/svg"><g><g><g><g><g><line x1="41.171875" y1="177" x2="36.171875" y2="177" style="visibility: inherit;" fill="rgb(0, 0, 0)" stroke="rgb(204, 204, 204)" stroke-width="1px"></line><line x1="41.171875" y1="157.33333333333331" x2="36.171875" y2="157.33333333333331" style="visibility: inherit;" fill="rgb(0, 0, 0)" stroke="rgb(204, 204, 204)" stroke-width="1px"></line><line x1="41.171875" y1="137.66666666666666" x2="36.171875" y2="137.66666666666666" style="visibility: inherit;" fill="rgb(0, 0, 0)" stroke="rgb(204, 204, 204)" stroke-width="1px"></line><line x1="41.171875" y1="117.99999999999997" x2="36.171875" y2="117.99999999999997" style="visibility: inherit;" fill="rgb(0, 0, 0)" stroke="rgb(204, 204, 204)" stroke-width="1px"></line><line x1="41.171875" y1="98.3333333333333" x2="36.171875" y2="98.3333333333333" style="visibility: inherit;" fill="rgb(0, 0, 0)" stroke="rgb(204, 204, 204)" stroke-width="1px"></line><line x1="41.171875" y1="78.6666666666667" x2="36.171875" y2="78.6666666666667" style="visibility: inherit;" fill="rgb(0, 0, 0)" stroke="rgb(204, 204, 204)" stroke-width="1px"></line><line x1="41.171875" y1="59.00000000000003" x2="36.171875" y2="59.00000000000003" style="visibility: inherit;" fill="rgb(0, 0, 0)" stroke="rgb(204, 204, 204)" stroke-width="1px"></line><line x1="41.171875" y1="39.33333333333335" x2="36.171875" y2="39.33333333333335" style="visibility: inherit;" fill="rgb(0, 0, 0)" stroke="rgb(204, 204, 204)" stroke-width="1px"></line><line x1="41.171875" y1="19.666666666666675" x2="36.171875" y2="19.666666666666675" style="visibility: inherit;" fill="rgb(0, 0, 0)" stroke="rgb(204, 204, 204)" stroke-width="1px"></line><line x1="41.171875" y1="0" x2="36.171875" y2="0" style="visibility: inherit;" fill="rgb(0, 0, 0)" stroke="rgb(204, 204, 204)" stroke-width="1px"></line></g><g transform="translate(31.171875, 0)"><text x="0" y="177" dx="0em" dy="0.3em" style="text-anchor: end; visibility: hidden; font-family: Roboto, sans-serif; font-size: 12px; font-weight: 200;" fill="rgb(33, 33, 33)" stroke="none" stroke-width="1px">2.3</text><text x="0" y="157.33333333333331" dx="0em" dy="0.3em" style="text-anchor: end; visibility: inherit; font-family: Roboto, sans-serif; font-size: 12px; font-weight: 200;" fill="rgb(33, 33, 33)" stroke="none" stroke-width="1px">2.4</text><text x="0" y="137.66666666666666" dx="0em" dy="0.3em" style="text-anchor: end; visibility: hidden; font-family: Roboto, sans-serif; font-size: 12px; font-weight: 200;" fill="rgb(33, 33, 33)" stroke="none" stroke-width="1px">2.5</text><text x="0" y="117.99999999999997" dx="0em" dy="0.3em" style="text-anchor: end; visibility: inherit; font-family: Roboto, sans-serif; font-size: 12px; font-weight: 200;" fill="rgb(33, 33, 33)" stroke="none" stroke-width="1px">2.6</text><text x="0" y="98.3333333333333" dx="0em" dy="0.3em" style="text-anchor: end; visibility: hidden; font-family: Roboto, sans-serif; font-size: 12px; font-weight: 200;" fill="rgb(33, 33, 33)" stroke="none" stroke-width="1px">2.7</text><text x="0" y="78.6666666666667" dx="0em" dy="0.3em" style="text-anchor: end; visibility: inherit; font-family: Roboto, sans-serif; font-size: 12px; font-weight: 200;" fill="rgb(33, 33, 33)" stroke="none" stroke-width="1px">2.8</text><text x="0" y="59.00000000000003" dx="0em" dy="0.3em" style="text-anchor: end; visibility: hidden; font-family: Roboto, sans-serif; font-size: 12px; font-weight: 200;" fill="rgb(33, 33, 33)" stroke="none" stroke-width="1px">2.9</text><text x="0" y="39.33333333333335" dx="0em" dy="0.3em" style="text-anchor: end; visibility: inherit; font-family: Roboto, sans-serif; font-size: 12px; font-weight: 200;" fill="rgb(33, 33, 33)" stroke="none" stroke-width="1px">3</text><text x="0" y="19.666666666666675" dx="0em" dy="0.3em" style="text-anchor: end; visibility: hidden; font-family: Roboto, sans-serif; font-size: 12px; font-weight: 200;" fill="rgb(33, 33, 33)" stroke="none" stroke-width="1px">3.1</text><text x="0" y="0" dx="0em" dy="0.3em" style="text-anchor: end; visibility: hidden; font-family: Roboto, sans-serif; font-size: 12px; font-weight: 200;" fill="rgb(33, 33, 33)" stroke="none" stroke-width="1px">3.2</text></g><line x1="41.171875" y1="0" x2="41.171875" y2="177" fill="rgb(0, 0, 0)" stroke="rgb(204, 204, 204)" stroke-width="1px"></line></g></g><g transform="translate(41, 0)" clip-path="url(#clip_0)"><clipPath id="clip_0"><rect width="288" height="177"></rect></clipPath><g><g><g><line x1="0" y1="0" x2="0" y2="177" fill="rgb(0, 0, 0)" stroke="rgb(66, 66, 66)" stroke-width="1px" opacity="0.25"></line><line x1="28.8828125" y1="0" x2="28.8828125" y2="177" fill="rgb(0, 0, 0)" stroke="rgb(66, 66, 66)" stroke-width="1px" opacity="0.25"></line><line x1="57.765625" y1="0" x2="57.765625" y2="177" fill="rgb(0, 0, 0)" stroke="rgb(66, 66, 66)" stroke-width="1px" opacity="0.25"></line><line x1="86.6484375" y1="0" x2="86.6484375" y2="177" fill="rgb(0, 0, 0)" stroke="rgb(66, 66, 66)" stroke-width="1px" opacity="0.25"></line><line x1="115.53125" y1="0" x2="115.53125" y2="177" fill="rgb(0, 0, 0)" stroke="rgb(66, 66, 66)" stroke-width="1px" opacity="0.25"></line><line x1="144.4140625" y1="0" x2="144.4140625" y2="177" fill="rgb(0, 0, 0)" stroke="rgb(66, 66, 66)" stroke-width="1px" opacity="0.25"></line><line x1="173.296875" y1="0" x2="173.296875" y2="177" fill="rgb(0, 0, 0)" stroke="rgb(66, 66, 66)" stroke-width="1px" opacity="0.25"></line><line x1="202.1796875" y1="0" x2="202.1796875" y2="177" fill="rgb(0, 0, 0)" stroke="rgb(66, 66, 66)" stroke-width="1px" opacity="0.25"></line><line x1="231.0625" y1="0" x2="231.0625" y2="177" fill="rgb(0, 0, 0)" stroke="rgb(66, 66, 66)" stroke-width="1px" opacity="0.25"></line><line x1="259.9453125" y1="0" x2="259.9453125" y2="177" fill="rgb(0, 0, 0)" stroke="rgb(66, 66, 66)" stroke-width="1px" opacity="0.25"></line><line x1="288.828125" y1="0" x2="288.828125" y2="177" fill="rgb(0, 0, 0)" stroke="rgb(66, 66, 66)" stroke-width="1px" opacity="0.25"></line></g><g><line x1="0" y1="177" x2="288.828125" y2="177" fill="rgb(0, 0, 0)" stroke="rgb(66, 66, 66)" stroke-width="1px" opacity="0.25"></line><line x1="0" y1="157.33333333333331" x2="288.828125" y2="157.33333333333331" fill="rgb(0, 0, 0)" stroke="rgb(66, 66, 66)" stroke-width="1px" opacity="0.25"></line><line x1="0" y1="137.66666666666666" x2="288.828125" y2="137.66666666666666" fill="rgb(0, 0, 0)" stroke="rgb(66, 66, 66)" stroke-width="1px" opacity="0.25"></line><line x1="0" y1="117.99999999999997" x2="288.828125" y2="117.99999999999997" fill="rgb(0, 0, 0)" stroke="rgb(66, 66, 66)" stroke-width="1px" opacity="0.25"></line><line x1="0" y1="98.3333333333333" x2="288.828125" y2="98.3333333333333" fill="rgb(0, 0, 0)" stroke="rgb(66, 66, 66)" stroke-width="1px" opacity="0.25"></line><line x1="0" y1="78.6666666666667" x2="288.828125" y2="78.6666666666667" fill="rgb(0, 0, 0)" stroke="rgb(66, 66, 66)" stroke-width="1px" opacity="0.25"></line><line x1="0" y1="59.00000000000003" x2="288.828125" y2="59.00000000000003" fill="rgb(0, 0, 0)" stroke="rgb(66, 66, 66)" stroke-width="1px" opacity="0.25"></line><line x1="0" y1="39.33333333333335" x2="288.828125" y2="39.33333333333335" fill="rgb(0, 0, 0)" stroke="rgb(66, 66, 66)" stroke-width="1px" opacity="0.25"></line><line x1="0" y1="19.666666666666675" x2="288.828125" y2="19.666666666666675" fill="rgb(0, 0, 0)" stroke="rgb(66, 66, 66)" stroke-width="1px" opacity="0.25"></line><line x1="0" y1="0" x2="288.828125" y2="0" fill="rgb(0, 0, 0)" stroke="rgb(66, 66, 66)" stroke-width="1px" opacity="0.25"></line></g></g></g><g><g><line x1="0" y1="629.3333333333331" x2="288.828125" y2="629.3333333333331" fill="rgb(0, 0, 0)" stroke="rgb(153, 153, 153)" stroke-width="1.5px"></line></g></g><g><g><line x1="28.8828125" y1="0" x2="28.8828125" y2="177" fill="rgb(0, 0, 0)" stroke="rgb(153, 153, 153)" stroke-width="1.5px"></line></g></g><g><g><g><g><g><path stroke="rgb(255, 112, 67)" stroke-width="2px" d="M30.0658525,142.7280046145121L31.2488925,102.70464942852655L32.4319325,102.10630946905435L33.6149725,46.119235129917385L34.7980125,53.29598508288187L35.981052500000004,131.9933600767065L37.1640925,104.83538803106335L38.3471325,86.48131463440139L39.530172500000006,109.14768479812756L40.7132125,59.73896924278801L41.896252499999996,118.82970478630072L43.0792925,119.04684793110833L44.2623325,67.73071211478084L45.445372500000005,107.8850657700017L46.6284125,96.80552706600962L47.811452499999994,95.20948728915926L48.9944925,59.0509068107321L50.1775325,62.436108682072316L51.3605725,50.88150453452658L52.5436125,78.28866019933665L53.72665249999999,40.492586537543026L54.9096925,30.88821967223447L56.0927325,139.88376313734196L57.2757725,63.94766476641521L58.4588125,70.43154682862466L59.641852500000006,10.684584923060797L60.8248925,103.72785696687849L62.007932499999995,109.39158044352631L63.1909725,113.1967150846057L64.37401249999999,37.40571282126909L65.5570525,14.784086122489368L66.7400925,48.07088175950545L67.9231325,65.96654419248294L69.1061725,88.01639724256076L70.2892125,94.66669582324273L71.4722525,154.63119477488996L72.6552925,110.10546899772514L73.83833249999999,83.1288057811925L75.0213725,116.65976384686614L76.2044125,120.17704886712235L77.38745250000001,116.96184372555199L78.5704925,97.81662248435758L79.75353249999999,107.87578587144873L80.9365725,106.18510414179835L82.1196125,94.27292549297579L83.30265250000001,85.36300500785592L84.4856925,48.14167537880902L85.66873249999999,12.67617254928371L86.85177250000001,6.316852808761125L88.0348125,67.42138946946226L89.2178525,66.57860463199063L90.4008925,137.18799771490603L91.58393249999999,130.8520868954324L92.76697250000001,109.38147588194734L93.9500125,92.47854741982353L95.1330525,121.23501263006655L96.3160925,142.3343513763641L97.49913249999999,132.8098557446404L98.68217250000001,162.83623260979127L99.8652125,174.17724259728809L101.0482525,196.7127286913081L102.2312925,92.56940789552846L103.4143325,124.02720807909397L104.5973725,149.65673444421756L105.7804125,154.0137752398948L106.9634525,134.70593525400355L108.1464925,108.73366437811016L109.3295325,146.7712159939112L110.5125725,90.30595126077543L111.6956125,111.84993167514608L112.8786525,115.63313621557755L114.06169249999999,93.57255102561118L115.2447325,81.5997830949199L116.4277725,131.65069570076298L117.61081250000001,127.85817242025433L118.7938525,54.54364840403653L119.97689249999999,36.18786792883558L121.15993250000001,36.30342573878734L122.3429725,15.12120847875414L123.52601250000001,62.33339676643139L124.7090525,55.71140293310919L125.89209249999999,77.78059395967426L127.07513250000001,100.34851569027803L128.2581725,81.36884897206888L129.4412125,22.479353943991686L130.6242525,41.99221168330985L131.8072925,83.49437041106823L132.9903325,92.09604088677763L134.1733725,57.25646079508743L135.3564125,25.275977243552294L136.5394525,16.775075214844826L137.7224925,26.631295675680168L138.9055325,108.69598792074827L140.0885725,142.91305345343773L141.2716125,138.44544203706914L142.4546525,98.25137847043078L143.63769249999999,84.73592140700622L144.8207325,98.93265741522828L146.0037725,20.07449675474003L147.1868125,39.01133858883446L148.3698525,-7.624182297443941L149.5528925,68.68568450988L150.73593250000002,46.33348489670352L151.9189725,59.842408074150846L153.1020125,38.62961622866617L154.2850525,100.5152236429411L155.46809249999998,137.1127663497661L156.6511325,85.35332652993216L157.8341725,115.00543457508411L159.01721250000003,63.97711391989582L160.2002525,18.06823487924062L161.3832925,8.493711987216411L162.56633250000002,29.764594641772334L163.7493725,68.86193004098381L164.9324125,2.9662202448458306L166.1154525,73.17678275013822L167.29849249999998,46.433719911008254L168.4815325,61.766423836049974L169.6645725,67.4882900087223L170.84761250000003,57.23950333008277L172.0306525,22.40831286078153L173.2136925,58.346140708717414L174.3967325,66.67573366534273L175.5797725,151.96094897173774L176.7628125,131.7232734210269L177.9458525,90.79182398201881L179.12889249999998,143.84752588996398L180.31193249999998,115.842646965558L181.49497250000002,116.87398341248917L182.67801250000002,85.40143726835947L183.8610525,71.73520967902923L185.0440925,164.61118389889904L186.2271325,112.87138283486351L187.4101725,125.60276057860364L188.5932125,50.449552439894894L189.7762525,98.26213519369357L190.95929249999998,92.74953276670853L192.14233249999998,96.80721840117496L193.32537250000001,131.77003311030535L194.50841250000002,103.00073840764641L195.6914525,67.08940451868861L196.8744925,66.2338327339996L198.0575325,116.64678748677423L199.24057249999998,162.61229276794344L200.4236125,125.8667700139969L201.6066525,97.06447881748025L202.7896925,6.931572117148265L203.97273249999998,1.0916870421599154L205.1557725,31.026693502253135L206.33881250000002,67.01842603634942L207.5218525,71.0071947667071L208.7048925,125.27790631213202L209.8879325,124.31519502018935L211.0709725,174.4055452602012L212.2540125,122.15015203099863L213.4370525,34.61430653537164L214.6200925,73.5484184142243L215.8031325,136.42714904047796L216.9861725,140.27621263443078L218.16921250000001,119.41240059243823L219.3522525,143.6272460474999L220.5352925,160.59554350303196L221.7183325,150.62710505282828L222.9013725,143.28663646512797L224.08441249999998,159.05954927206182L225.2674525,118.40795354445864L226.4504925,85.27325030406368L227.6335325,70.23189699792891L228.8165725,29.379253110154675L229.9996125,46.06211779169095L231.18265250000002,30.5740929940453L232.3656925,68.85118721122205L233.5487325,105.83929528113994L234.7317725,68.26428731272692L235.91481249999998,60.52508042647486L237.0978525,86.07536326086944L238.2808925,92.33510220589096L239.46393250000003,87.85588901365917L240.6469725,97.3298639364548L241.8300125,48.597384812881984L243.01305250000001,63.90342924740929L244.1960925,142.9416407609802L245.3791325,130.87576873291465L246.5621725,19.636471854779757L247.74521249999998,86.25995279975753L248.92825249999999,113.2066677349489L250.11129250000002,137.92205266581064L251.29433250000002,99.61064400132146L252.4773725,109.61425252272076L253.6604125,86.4098489176039L254.8434525,7.587240514604506L256.0264925,-25.09290276917912L257.2095325,26.841346452913093L258.39257249999997,64.07109395878396L259.5756125,21.393985670110876" style="fill: none;" fill="none"></path></g></g></g></g><g opacity="0.2"><g><g><g><path stroke="rgb(255, 112, 67)" stroke-width="2px" d="M30.0658525,142.7280046145121L31.2488925,78.69063631693521L32.4319325,101.53190310796101L33.6149725,-19.72156429290769L34.7980125,62.66594982147219L35.981052500000004,240.8601607481638L37.1640925,65.99905347824097L38.3471325,59.72089942296347L39.530172500000006,142.57617807388306L40.7132125,-13.62721506754553L41.896252499999996,206.92985947926834L43.0792925,119.37138096491495L44.2623325,-9.075935522715207L45.445372500000005,168.0379296938578L46.6284125,80.19924259185791L47.811452499999994,92.81655327479045L48.9944925,4.828337192535427L50.1775325,67.51305198669434L51.3605725,33.551358540852895L52.5436125,119.39688857396443L53.72665249999999,-16.19945112864171L54.9096925,16.481985410054563L56.0927325,303.37492640813184L57.2757725,-49.95558325449621L58.4588125,80.15732383728029L59.641852500000006,-78.93560314178458L60.8248925,243.29252696037287L62.007932499999995,117.88715696334836L63.1909725,118.90441354115804L64.37401249999999,-76.28074868520093L65.5570525,-19.14834642410273L66.7400925,98.00106859207152L67.9231325,92.81003570556639L69.1061725,121.09117523829141L70.2892125,104.64214340845741L71.4722525,244.5779416561126L72.6552925,43.31688102086386L73.83833249999999,42.66381120681764L75.0213725,166.9562007586161L76.2044125,125.45297638575235L77.38745250000001,112.13903601964313L78.5704925,69.09879064559938L79.75353249999999,122.9645309448242L80.9365725,103.64908154805501L82.1196125,76.40465752283731L83.30265250000001,71.99812428156537L84.4856925,-7.69031906127927L86.85177250000001,-3.2221268018086535L88.0348125,159.07819445927936L89.2178525,65.31442737579346L90.4008925,243.1020873387654L91.58393249999999,121.34822066624959L92.76697250000001,77.17555936177573L93.9500125,67.12415472666423L95.1330525,164.36971044540402L96.3160925,173.9833594957987L97.49913249999999,118.52311229705808L98.68217250000001,207.87579790751133L102.2312925,-63.64557329813633L103.4143325,171.2139083544413L104.5973725,188.10102399190262L105.7804125,160.54933643341062L106.9634525,105.74417527516684L108.1464925,69.77525806427003L109.3295325,203.82754341761265L110.5125725,5.608054161071816L111.6956125,144.16590229670206L112.8786525,121.30794302622476L114.06169249999999,60.48167324066164L115.2447325,63.64063119888307L116.4277725,206.72706460952753L117.61081250000001,122.16938749949136L118.7938525,-55.42813762029007L119.97689249999999,8.654197216033962L121.15993250000001,36.476762453715025L122.3429725,-16.652117411295528L123.52601250000001,133.15167919794717L124.7090525,45.77841218312582L125.89209249999999,110.88438049952187L127.07513250000001,134.20039828618366L128.2581725,52.899348894755065L129.4412125,-65.85488859812415L130.6242525,71.26149829228719L131.8072925,145.74760850270587L132.9903325,104.9985466003418L134.1733725,4.997090657552114L135.3564125,-22.694748083750362L136.5394525,4.02372217178348L137.7224925,41.41562636693321L138.9055325,231.79302628835038L140.0885725,194.2386517524719L141.2716125,131.74402491251624L142.4546525,37.96028312047325L143.63769249999999,64.46273581186931L144.8207325,120.22776142756143L146.0037725,-98.21274423599235L147.1868125,67.416601339976L148.3698525,-77.5774636268615L149.5528925,183.15048472086585L150.73593250000002,12.805185476938911L151.9189725,80.10579284032185L153.1020125,6.810428460439077L154.2850525,193.3436347643534L155.46809249999998,192.00908041000363L156.6511325,7.7141668001811L157.8341725,159.48359664281207L159.01721250000003,-12.565367062886521L161.3832925,-5.868072350819884L162.56633250000002,61.670918623606376L163.7493725,127.507933139801L164.9324125,-95.87734444936108L166.1154525,178.49262650807694L167.29849249999998,6.3191256523132715L168.4815325,84.76547972361247L169.6645725,76.07108926773073L170.84761250000003,41.86632331212364L172.0306525,-29.838472843170113L173.2136925,112.25288248062132L174.3967325,79.17012310028076L175.5797725,279.88877193133027L176.7628125,101.36676009496054L177.9458525,29.394649823506704L179.12889249999998,223.43107875188187L180.31193249999998,73.83532857894899L181.49497250000002,118.42098808288571L182.67801250000002,38.19261805216473L183.8610525,51.23586829503379L185.0440925,303.92514522870374L186.2271325,35.26168123881023L187.4101725,144.69982719421384L188.5932125,-62.28025976816807L189.7762525,169.98100932439166L190.95929249999998,84.48062912623088L192.14233249999998,102.89374685287474L193.32537250000001,184.21425517400104L194.50841250000002,59.84679635365806L195.6914525,13.222403685251894L196.8744925,64.95047505696617L198.0575325,192.26621961593625L199.24057249999998,231.5605506896972L200.4236125,70.748485883077L201.6066525,53.861042022705085L202.7896925,-128.2677879333495L203.97273249999998,-7.668140570322629L205.1557725,75.92920319239299L206.33881250000002,121.00602483749388L207.5218525,76.99034786224365L208.7048925,206.68397363026932L209.8879325,122.87112808227539L211.0709725,249.54107062021887L212.2540125,43.767062187194846L213.4370525,-96.68946170806878L214.6200925,131.94958623250324L215.8031325,230.74524497985834L216.9861725,146.04980802536008L218.16921250000001,88.11668252944946L219.3522525,179.94951423009235L220.5352925,186.0479896863301L221.7183325,135.67444737752277L222.9013725,132.27593358357746L224.08441249999998,182.71891848246253L225.2674525,57.430559953053795L226.4504925,35.57119544347129L227.6335325,47.669867038726814L228.8165725,-31.899712721506724L229.9996125,71.08641481399538L231.18265250000002,7.342055797576943L232.3656925,126.26682853698728L233.5487325,161.32145738601682L234.7317725,11.901775360107461L235.91481249999998,48.916270097096785L237.0978525,124.40078751246133L238.2808925,101.72471062342325L239.46393250000003,81.13706922531128L240.6469725,111.5408263206482L241.8300125,-24.50133387247717L243.01305250000001,86.86249589920044L244.1960925,261.4989580313364L245.3791325,112.77696069081624L246.5621725,-147.2224734624226L247.74521249999998,186.1951742172241L248.92825249999999,153.626740137736L250.11129250000002,174.99513006210324L251.29433250000002,42.14353100458782L252.4773725,124.61966530481972L253.6604125,51.6032435099284L254.8434525,-110.64667208989455L256.0264925,-74.11311769485468L257.2095325,104.74272028605142L258.39257249999997,119.9157152175903L259.5756125,-42.621676762898716" style="fill: none;" fill="none"></path></g></g></g></g></g></g><g transform="translate(41, 177)" clip-path="url(#clip_1)"><clipPath id="clip_1"><rect width="288" height="23"></rect></clipPath><g><g><line x1="0" y1="0" x2="0" y2="5" style="visibility: inherit;" fill="rgb(0, 0, 0)" stroke="rgb(204, 204, 204)" stroke-width="1px"></line><line x1="28.8828125" y1="0" x2="28.8828125" y2="5" style="visibility: inherit;" fill="rgb(0, 0, 0)" stroke="rgb(204, 204, 204)" stroke-width="1px"></line><line x1="57.765625" y1="0" x2="57.765625" y2="5" style="visibility: inherit;" fill="rgb(0, 0, 0)" stroke="rgb(204, 204, 204)" stroke-width="1px"></line><line x1="86.6484375" y1="0" x2="86.6484375" y2="5" style="visibility: inherit;" fill="rgb(0, 0, 0)" stroke="rgb(204, 204, 204)" stroke-width="1px"></line><line x1="115.53125" y1="0" x2="115.53125" y2="5" style="visibility: inherit;" fill="rgb(0, 0, 0)" stroke="rgb(204, 204, 204)" stroke-width="1px"></line><line x1="144.4140625" y1="0" x2="144.4140625" y2="5" style="visibility: inherit;" fill="rgb(0, 0, 0)" stroke="rgb(204, 204, 204)" stroke-width="1px"></line><line x1="173.296875" y1="0" x2="173.296875" y2="5" style="visibility: inherit;" fill="rgb(0, 0, 0)" stroke="rgb(204, 204, 204)" stroke-width="1px"></line><line x1="202.1796875" y1="0" x2="202.1796875" y2="5" style="visibility: inherit;" fill="rgb(0, 0, 0)" stroke="rgb(204, 204, 204)" stroke-width="1px"></line><line x1="231.0625" y1="0" x2="231.0625" y2="5" style="visibility: inherit;" fill="rgb(0, 0, 0)" stroke="rgb(204, 204, 204)" stroke-width="1px"></line><line x1="259.9453125" y1="0" x2="259.9453125" y2="5" style="visibility: inherit;" fill="rgb(0, 0, 0)" stroke="rgb(204, 204, 204)" stroke-width="1px"></line><line x1="288.828125" y1="0" x2="288.828125" y2="5" style="visibility: inherit;" fill="rgb(0, 0, 0)" stroke="rgb(204, 204, 204)" stroke-width="1px"></line></g><g transform="translate(0, 8)"><text x="0" y="0" dx="0em" dy="0.95em" style="text-anchor: middle; visibility: hidden; font-family: Roboto, sans-serif; font-size: 12px; font-weight: 200;" fill="rgb(33, 33, 33)" stroke="none" stroke-width="1px">-500k</text><text x="28.8828125" y="0" dx="0em" dy="0.95em" style="text-anchor: middle; visibility: inherit; font-family: Roboto, sans-serif; font-size: 12px; font-weight: 200;" fill="rgb(33, 33, 33)" stroke="none" stroke-width="1px">0</text><text x="57.765625" y="0" dx="0em" dy="0.95em" style="text-anchor: middle; visibility: inherit; font-family: Roboto, sans-serif; font-size: 12px; font-weight: 200;" fill="rgb(33, 33, 33)" stroke="none" stroke-width="1px">500k</text><text x="86.6484375" y="0" dx="0em" dy="0.95em" style="text-anchor: middle; visibility: inherit; font-family: Roboto, sans-serif; font-size: 12px; font-weight: 200;" fill="rgb(33, 33, 33)" stroke="none" stroke-width="1px">1M</text><text x="115.53125" y="0" dx="0em" dy="0.95em" style="text-anchor: middle; visibility: inherit; font-family: Roboto, sans-serif; font-size: 12px; font-weight: 200;" fill="rgb(33, 33, 33)" stroke="none" stroke-width="1px">1.5M</text><text x="144.4140625" y="0" dx="0em" dy="0.95em" style="text-anchor: middle; visibility: inherit; font-family: Roboto, sans-serif; font-size: 12px; font-weight: 200;" fill="rgb(33, 33, 33)" stroke="none" stroke-width="1px">2M</text><text x="173.296875" y="0" dx="0em" dy="0.95em" style="text-anchor: middle; visibility: inherit; font-family: Roboto, sans-serif; font-size: 12px; font-weight: 200;" fill="rgb(33, 33, 33)" stroke="none" stroke-width="1px">2.5M</text><text x="202.1796875" y="0" dx="0em" dy="0.95em" style="text-anchor: middle; visibility: inherit; font-family: Roboto, sans-serif; font-size: 12px; font-weight: 200;" fill="rgb(33, 33, 33)" stroke="none" stroke-width="1px">3M</text><text x="231.0625" y="0" dx="0em" dy="0.95em" style="text-anchor: middle; visibility: inherit; font-family: Roboto, sans-serif; font-size: 12px; font-weight: 200;" fill="rgb(33, 33, 33)" stroke="none" stroke-width="1px">3.5M</text><text x="259.9453125" y="0" dx="0em" dy="0.95em" style="text-anchor: middle; visibility: inherit; font-family: Roboto, sans-serif; font-size: 12px; font-weight: 200;" fill="rgb(33, 33, 33)" stroke="none" stroke-width="1px">4M</text><text x="288.828125" y="0" dx="0em" dy="0.95em" style="text-anchor: middle; visibility: hidden; font-family: Roboto, sans-serif; font-size: 12px; font-weight: 200;" fill="rgb(33, 33, 33)" stroke="none" stroke-width="1px">4.5M</text></g><line x1="0" y1="0" x2="288.828125" y2="0" fill="rgb(0, 0, 0)" stroke="rgb(204, 204, 204)" stroke-width="1px"></line></g></g></g></g></svg>