<svg viewBox="0 0 330 200" xmlns="http://www.w3.org/2000/svg"><g><g><g><g><g><line x1="51.5625" y1="177" x2="46.5625" y2="177" style="visibility: inherit;" fill="rgb(0, 0, 0)" stroke="rgb(204, 204, 204)" stroke-width="1px"></line><line x1="51.5625" y1="154.8750003296882" x2="46.5625" y2="154.8750003296882" style="visibility: inherit;" fill="rgb(0, 0, 0)" stroke="rgb(204, 204, 204)" stroke-width="1px"></line><line x1="51.5625" y1="132.75000065937638" x2="46.5625" y2="132.75000065937638" style="visibility: inherit;" fill="rgb(0, 0, 0)" stroke="rgb(204, 204, 204)" stroke-width="1px"></line><line x1="51.5625" y1="110.62500098906457" x2="46.5625" y2="110.62500098906457" style="visibility: inherit;" fill="rgb(0, 0, 0)" stroke="rgb(204, 204, 204)" stroke-width="1px"></line><line x1="51.5625" y1="88.50000131875275" x2="46.5625" y2="88.50000131875275" style="visibility: inherit;" fill="rgb(0, 0, 0)" stroke="rgb(204, 204, 204)" stroke-width="1px"></line><line x1="51.5625" y1="66.37500164844094" x2="46.5625" y2="66.37500164844094" style="visibility: inherit;" fill="rgb(0, 0, 0)" stroke="rgb(204, 204, 204)" stroke-width="1px"></line><line x1="51.5625" y1="44.25000197812913" x2="46.5625" y2="44.25000197812913" style="visibility: inherit;" fill="rgb(0, 0, 0)" stroke="rgb(204, 204, 204)" stroke-width="1px"></line><line x1="51.5625" y1="22.12500230781732" x2="46.5625" y2="22.12500230781732" style="visibility: inherit;" fill="rgb(0, 0, 0)" stroke="rgb(204, 204, 204)" stroke-width="1px"></line><line x1="51.5625" y1="0.00000263750549200914" x2="46.5625" y2="0.00000263750549200914" style="visibility: inherit;" fill="rgb(0, 0, 0)" stroke="rgb(204, 204, 204)" stroke-width="1px"></line></g><g transform="translate(41.5625, 0)"><text x="0" y="177" dx="0em" dy="0.3em" style="text-anchor: end; visibility: hidden; font-family: Roboto, sans-serif; font-size: 12px; font-weight: 200;" fill="rgb(33, 33, 33)" stroke="none" stroke-width="1px">0</text><text x="0" y="154.8750003296882" dx="0em" dy="0.3em" style="text-anchor: end; visibility: inherit; font-family: Roboto, sans-serif; font-size: 12px; font-weight: 200;" fill="rgb(33, 33, 33)" stroke="none" stroke-width="1px">0.05</text><text x="0" y="132.75000065937638" dx="0em" dy="0.3em" style="text-anchor: end; visibility: hidden; font-family: Roboto, sans-serif; font-size: 12px; font-weight: 200;" fill="rgb(33, 33, 33)" stroke="none" stroke-width="1px">0.1</text><text x="0" y="110.62500098906457" dx="0em" dy="0.3em" style="text-anchor: end; visibility: inherit; font-family: Roboto, sans-serif; font-size: 12px; font-weight: 200;" fill="rgb(33, 33, 33)" stroke="none" stroke-width="1px">0.15</text><text x="0" y="88.50000131875275" dx="0em" dy="0.3em" style="text-anchor: end; visibility: hidden; font-family: Roboto, sans-serif; font-size: 12px; font-weight: 200;" fill="rgb(33, 33, 33)" stroke="none" stroke-width="1px">0.2</text><text x="0" y="66.37500164844094" dx="0em" dy="0.3em" style="text-anchor: end; visibility: inherit; font-family: Roboto, sans-serif; font-size: 12px; font-weight: 200;" fill="rgb(33, 33, 33)" stroke="none" stroke-width="1px">0.25</text><text x="0" y="44.25000197812913" dx="0em" dy="0.3em" style="text-anchor: end; visibility: hidden; font-family: Roboto, sans-serif; font-size: 12px; font-weight: 200;" fill="rgb(33, 33, 33)" stroke="none" stroke-width="1px">0.3</text><text x="0" y="22.12500230781732" dx="0em" dy="0.3em" style="text-anchor: end; visibility: inherit; font-family: Roboto, sans-serif; font-size: 12px; font-weight: 200;" fill="rgb(33, 33, 33)" stroke="none" stroke-width="1px">0.35</text><text x="0" y="0.00000263750549200914" dx="0em" dy="0.3em" style="text-anchor: end; visibility: hidden; font-family: Roboto, sans-serif; font-size: 12px; font-weight: 200;" fill="rgb(33, 33, 33)" stroke="none" stroke-width="1px">0.4</text></g><line x1="51.5625" y1="0" x2="51.5625" y2="177" fill="rgb(0, 0, 0)" stroke="rgb(204, 204, 204)" stroke-width="1px"></line></g></g><g transform="translate(51, 0)" clip-path="url(#clip_0)"><clipPath id="clip_0"><rect width="278" height="177"></rect></clipPath><g><g><g><line x1="0" y1="0" x2="0" y2="177" fill="rgb(0, 0, 0)" stroke="rgb(66, 66, 66)" stroke-width="1px" opacity="0.25"></line><line x1="27.84375" y1="0" x2="27.84375" y2="177" fill="rgb(0, 0, 0)" stroke="rgb(66, 66, 66)" stroke-width="1px" opacity="0.25"></line><line x1="55.6875" y1="0" x2="55.6875" y2="177" fill="rgb(0, 0, 0)" stroke="rgb(66, 66, 66)" stroke-width="1px" opacity="0.25"></line><line x1="83.53125" y1="0" x2="83.53125" y2="177" fill="rgb(0, 0, 0)" stroke="rgb(66, 66, 66)" stroke-width="1px" opacity="0.25"></line><line x1="111.375" y1="0" x2="111.375" y2="177" fill="rgb(0, 0, 0)" stroke="rgb(66, 66, 66)" stroke-width="1px" opacity="0.25"></line><line x1="139.21875" y1="0" x2="139.21875" y2="177" fill="rgb(0, 0, 0)" stroke="rgb(66, 66, 66)" stroke-width="1px" opacity="0.25"></line><line x1="167.0625" y1="0" x2="167.0625" y2="177" fill="rgb(0, 0, 0)" stroke="rgb(66, 66, 66)" stroke-width="1px" opacity="0.25"></line><line x1="194.90625" y1="0" x2="194.90625" y2="177" fill="rgb(0, 0, 0)" stroke="rgb(66, 66, 66)" stroke-width="1px" opacity="0.25"></line><line x1="222.75" y1="0" x2="222.75" y2="177" fill="rgb(0, 0, 0)" stroke="rgb(66, 66, 66)" stroke-width="1px" opacity="0.25"></line><line x1="250.59375" y1="0" x2="250.59375" y2="177" fill="rgb(0, 0, 0)" stroke="rgb(66, 66, 66)" stroke-width="1px" opacity="0.25"></line><line x1="278.4375" y1="0" x2="278.4375" y2="177" fill="rgb(0, 0, 0)" stroke="rgb(66, 66, 66)" stroke-width="1px" opacity="0.25"></line></g><g><line x1="0" y1="177" x2="278.4375" y2="177" fill="rgb(0, 0, 0)" stroke="rgb(66, 66, 66)" stroke-width="1px" opacity="0.25"></line><line x1="0" y1="154.8750003296882" x2="278.4375" y2="154.8750003296882" fill="rgb(0, 0, 0)" stroke="rgb(66, 66, 66)" stroke-width="1px" opacity="0.25"></line><line x1="0" y1="132.75000065937638" x2="278.4375" y2="132.75000065937638" fill="rgb(0, 0, 0)" stroke="rgb(66, 66, 66)" stroke-width="1px" opacity="0.25"></line><line x1="0" y1="110.62500098906457" x2="278.4375" y2="110.62500098906457" fill="rgb(0, 0, 0)" stroke="rgb(66, 66, 66)" stroke-width="1px" opacity="0.25"></line><line x1="0" y1="88.50000131875275" x2="278.4375" y2="88.50000131875275" fill="rgb(0, 0, 0)" stroke="rgb(66, 66, 66)" stroke-width="1px" opacity="0.25"></line><line x1="0" y1="66.37500164844094" x2="278.4375" y2="66.37500164844094" fill="rgb(0, 0, 0)" stroke="rgb(66, 66, 66)" stroke-width="1px" opacity="0.25"></line><line x1="0" y1="44.25000197812913" x2="278.4375" y2="44.25000197812913" fill="rgb(0, 0, 0)" stroke="rgb(66, 66, 66)" stroke-width="1px" opacity="0.25"></line><line x1="0" y1="22.12500230781732" x2="278.4375" y2="22.12500230781732" fill="rgb(0, 0, 0)" stroke="rgb(66, 66, 66)" stroke-width="1px" opacity="0.25"></line><line x1="0" y1="0.00000263750549200914" x2="278.4375" y2="0.00000263750549200914" fill="rgb(0, 0, 0)" stroke="rgb(66, 66, 66)" stroke-width="1px" opacity="0.25"></line></g></g></g><g><g><line x1="0" y1="177" x2="278.4375" y2="177" fill="rgb(0, 0, 0)" stroke="rgb(153, 153, 153)" stroke-width="1.5px"></line></g></g><g><g><line x1="27.84375" y1="0" x2="27.84375" y2="177" fill="rgb(0, 0, 0)" stroke="rgb(153, 153, 153)" stroke-width="1.5px"></line></g></g><g><g><g><g><g><path stroke="rgb(255, 112, 67)" stroke-width="2px" d="M28.984229999999997,88.5L30.12471,88.5L31.26519,88.5L32.40567,88.5L33.546150000000004,88.5L34.68663,88.5L35.827110000000005,88.5L36.96759,88.5L38.108070000000005,88.5L39.24855,88.5L40.38903,88.5L41.52951,88.5L42.66999,88.5L43.81047,88.5L44.95095,88.5L46.091429999999995,88.5L47.23191,88.5L48.372389999999996,88.5L49.51287,88.5L50.653349999999996,88.5L51.79383,88.5L52.93431,88.5L54.07479,88.5L55.215270000000004,88.5L56.35575,88.5L57.496230000000004,88.5L58.63671,88.5L59.77719,88.5L60.91767,88.5L62.05815,88.5L63.19863,88.5L64.33911,88.5L65.47959,88.5L66.62007,88.5L67.76055,88.5L68.90103,88.5L70.04151,88.5L71.18199,88.5L72.32247,88.5L73.46295,88.5L74.60343,88.5L75.74391,88.5L76.88439,88.5L78.02486999999999,88.5L79.16535,88.5L80.30583,88.5L81.44631,88.5L82.58679,88.5L83.72727,88.5L84.86775,88.5L86.00823,88.5L87.14871,88.5L88.28918999999999,88.5L89.42967,88.5L90.57015,88.5L91.71063,88.5L92.85110999999999,88.5L93.99158999999999,88.5L95.13207000000001,88.5L96.27255000000001,88.5L97.41303,88.5L98.55351,88.5L99.69399,88.5L100.83447000000001,88.5L101.97495,88.5L103.11543,88.5L104.25591,88.5L105.39639,88.5L106.53687000000001,88.5L107.67735,88.5L108.81783,88.5L109.95831,88.5L111.09879,88.5L112.23927,88.5L113.37975,88.5L114.52023,88.5L115.66071,88.5L116.80119,88.5L117.94167,88.5L119.08215,88.5L120.22263,88.5L121.36310999999999,88.5L122.50359,88.5L123.64407,88.5L124.78455,88.5L125.92502999999999,88.5L127.06550999999999,88.5L128.20599,88.5L129.34647,88.5L130.48695,88.5L131.62743,88.5L132.76791,88.5L133.90839,88.5L135.04887,88.5L136.18935,88.5L137.32983,88.5L138.47030999999998,88.5L139.61078999999998,88.5L140.75126999999998,88.5L141.89175,88.5L143.03223,88.5L144.17271,88.5L145.31319,88.5L146.45367,88.5L147.59414999999998,88.5L148.73462999999998,88.5L149.87511,88.5L151.01559,88.5L152.15607,88.5L153.29655000000002,88.5L154.43703000000002,88.5L155.57751000000002,88.5L156.71799000000001,88.5L157.85847,88.5L158.99895,88.5L160.13943,88.5L161.27991,88.5L162.42039,88.5L163.56087,88.5L164.70135000000002,88.5L165.84183000000002,88.5L166.98231,88.5L168.12279,88.5L169.26327,88.5L170.40375,88.5L171.54423,88.5L172.68471,88.5L173.82519,88.5L174.96567000000002,88.5L176.10615,88.5L177.24663,88.5L178.38711,88.5L179.52759,88.5L180.66807,88.5L181.80855,88.5L182.94903,88.5L184.08951,88.5L185.22999,88.5L186.37047,88.5L187.51095,88.5L188.65143,88.5L189.79191,88.5L190.93239,88.5L192.07287,88.5L193.21335,88.5L194.35383,88.5L195.49430999999998,88.5L196.63478999999998,88.5L197.77527,88.5L198.91575,88.5L200.05623,88.5L201.19671,88.5L202.33719,88.5L203.47767,88.5L204.61814999999999,88.5L205.75862999999998,88.5L206.89910999999998,88.5L208.03959,88.5L209.18007,88.5L210.32055,88.5L211.46103,88.5L212.60151,88.5L213.74199,88.5L214.88246999999998,88.5L216.02294999999998,88.5L217.16342999999998,88.5L218.30390999999997,88.5L219.44439000000003,88.5L220.58487000000002,88.5L221.72535000000002,88.5L222.86583000000002,88.5L224.00631,88.5L225.14679,88.5L226.28727,88.5L227.42775,88.5L228.56823,88.5L229.70871,88.5L230.84919000000002,88.5L231.98967000000002,88.5L233.13015000000001,88.5L234.27063,88.5L235.41111,88.5L236.55159,88.5L237.69207,88.5L238.83255,88.5L239.97303,88.5L241.11351000000002,88.5L242.25399000000002,88.5L243.39447,88.5L244.53495,88.5L245.67543,88.5L246.81591,88.5L247.95639,88.5L249.09687,88.5L250.23735,88.5" style="fill: none;" fill="none"></path></g></g></g></g><g opacity="0.2"><g><g><g><path stroke="rgb(255, 112, 67)" stroke-width="2px" d="M28.984229999999997,88.5L30.12471,88.5L31.26519,88.5L32.40567,88.5L33.546150000000004,88.5L34.68663,88.5L35.827110000000005,88.5L36.96759,88.5L38.108070000000005,88.5L39.24855,88.5L40.38903,88.5L41.52951,88.5L42.66999,88.5L43.81047,88.5L44.95095,88.5L46.091429999999995,88.5L47.23191,88.5L48.372389999999996,88.5L49.51287,88.5L50.653349999999996,88.5L51.79383,88.5L52.93431,88.5L54.07479,88.5L55.215270000000004,88.5L56.35575,88.5L57.496230000000004,88.5L58.63671,88.5L59.77719,88.5L60.91767,88.5L62.05815,88.5L63.19863,88.5L64.33911,88.5L65.47959,88.5L66.62007,88.5L67.76055,88.5L68.90103,88.5L70.04151,88.5L71.18199,88.5L72.32247,88.5L73.46295,88.5L74.60343,88.5L75.74391,88.5L76.88439,88.5L78.02486999999999,88.5L79.16535,88.5L80.30583,88.5L81.44631,88.5L82.58679,88.5L83.72727,88.5L84.86775,88.5L86.00823,88.5L87.14871,88.5L88.28918999999999,88.5L89.42967,88.5L90.57015,88.5L91.71063,88.5L92.85110999999999,88.5L93.99158999999999,88.5L95.13207000000001,88.5L96.27255000000001,88.5L97.41303,88.5L98.55351,88.5L99.69399,88.5L100.83447000000001,88.5L101.97495,88.5L103.11543,88.5L104.25591,88.5L105.39639,88.5L106.53687000000001,88.5L107.67735,88.5L108.81783,88.5L109.95831,88.5L111.09879,88.5L112.23927,88.5L113.37975,88.5L114.52023,88.5L115.66071,88.5L116.80119,88.5L117.94167,88.5L119.08215,88.5L120.22263,88.5L121.36310999999999,88.5L122.50359,88.5L123.64407,88.5L124.78455,88.5L125.92502999999999,88.5L127.06550999999999,88.5L128.20599,88.5L129.34647,88.5L130.48695,88.5L131.62743,88.5L132.76791,88.5L133.90839,88.5L135.04887,88.5L136.18935,88.5L137.32983,88.5L138.47030999999998,88.5L139.61078999999998,88.5L140.75126999999998,88.5L141.89175,88.5L143.03223,88.5L144.17271,88.5L145.31319,88.5L146.45367,88.5L147.59414999999998,88.5L148.73462999999998,88.5L149.87511,88.5L151.01559,88.5L152.15607,88.5L153.29655000000002,88.5L154.43703000000002,88.5L155.57751000000002,88.5L156.71799000000001,88.5L157.85847,88.5L158.99895,88.5L160.13943,88.5L161.27991,88.5L162.42039,88.5L163.56087,88.5L164.70135000000002,88.5L165.84183000000002,88.5L166.98231,88.5L168.12279,88.5L169.26327,88.5L170.40375,88.5L171.54423,88.5L172.68471,88.5L173.82519,88.5L174.96567000000002,88.5L176.10615,88.5L177.24663,88.5L178.38711,88.5L179.52759,88.5L180.66807,88.5L181.80855,88.5L182.94903,88.5L184.08951,88.5L185.22999,88.5L186.37047,88.5L187.51095,88.5L188.65143,88.5L189.79191,88.5L190.93239,88.5L192.07287,88.5L193.21335,88.5L194.35383,88.5L195.49430999999998,88.5L196.63478999999998,88.5L197.77527,88.5L198.91575,88.5L200.05623,88.5L201.19671,88.5L202.33719,88.5L203.47767,88.5L204.61814999999999,88.5L205.75862999999998,88.5L206.89910999999998,88.5L208.03959,88.5L209.18007,88.5L210.32055,88.5L211.46103,88.5L212.60151,88.5L213.74199,88.5L214.88246999999998,88.5L216.02294999999998,88.5L217.16342999999998,88.5L218.30390999999997,88.5L219.44439000000003,88.5L220.58487000000002,88.5L221.72535000000002,88.5L222.86583000000002,88.5L224.00631,88.5L225.14679,88.5L226.28727,88.5L227.42775,88.5L228.56823,88.5L229.70871,88.5L230.84919000000002,88.5L231.98967000000002,88.5L233.13015000000001,88.5L234.27063,88.5L235.41111,88.5L236.55159,88.5L237.69207,88.5L238.83255,88.5L239.97303,88.5L241.11351000000002,88.5L242.25399000000002,88.5L243.39447,88.5L244.53495,88.5L245.67543,88.5L246.81591,88.5L247.95639,88.5L249.09687,88.5L250.23735,88.5" style="fill: none;" fill="none"></path></g></g></g></g></g></g><g transform="translate(51, 177)" clip-path="url(#clip_1)"><clipPath id="clip_1"><rect width="278" height="23"></rect></clipPath><g><g><line x1="0" y1="0" x2="0" y2="5" style="visibility: inherit;" fill="rgb(0, 0, 0)" stroke="rgb(204, 204, 204)" stroke-width="1px"></line><line x1="27.84375" y1="0" x2="27.84375" y2="5" style="visibility: inherit;" fill="rgb(0, 0, 0)" stroke="rgb(204, 204, 204)" stroke-width="1px"></line><line x1="55.6875" y1="0" x2="55.6875" y2="5" style="visibility: inherit;" fill="rgb(0, 0, 0)" stroke="rgb(204, 204, 204)" stroke-width="1px"></line><line x1="83.53125" y1="0" x2="83.53125" y2="5" style="visibility: inherit;" fill="rgb(0, 0, 0)" stroke="rgb(204, 204, 204)" stroke-width="1px"></line><line x1="111.375" y1="0" x2="111.375" y2="5" style="visibility: inherit;" fill="rgb(0, 0, 0)" stroke="rgb(204, 204, 204)" stroke-width="1px"></line><line x1="139.21875" y1="0" x2="139.21875" y2="5" style="visibility: inherit;" fill="rgb(0, 0, 0)" stroke="rgb(204, 204, 204)" stroke-width="1px"></line><line x1="167.0625" y1="0" x2="167.0625" y2="5" style="visibility: inherit;" fill="rgb(0, 0, 0)" stroke="rgb(204, 204, 204)" stroke-width="1px"></line><line x1="194.90625" y1="0" x2="194.90625" y2="5" style="visibility: inherit;" fill="rgb(0, 0, 0)" stroke="rgb(204, 204, 204)" stroke-width="1px"></line><line x1="222.75" y1="0" x2="222.75" y2="5" style="visibility: inherit;" fill="rgb(0, 0, 0)" stroke="rgb(204, 204, 204)" stroke-width="1px"></line><line x1="250.59375" y1="0" x2="250.59375" y2="5" style="visibility: inherit;" fill="rgb(0, 0, 0)" stroke="rgb(204, 204, 204)" stroke-width="1px"></line><line x1="278.4375" y1="0" x2="278.4375" y2="5" style="visibility: inherit;" fill="rgb(0, 0, 0)" stroke="rgb(204, 204, 204)" stroke-width="1px"></line></g><g transform="translate(0, 8)"><text x="0" y="0" dx="0em" dy="0.95em" style="text-anchor: middle; visibility: hidden; font-family: Roboto, sans-serif; font-size: 12px; font-weight: 200;" fill="rgb(33, 33, 33)" stroke="none" stroke-width="1px">-500k</text><text x="27.84375" y="0" dx="0em" dy="0.95em" style="text-anchor: middle; visibility: inherit; font-family: Roboto, sans-serif; font-size: 12px; font-weight: 200;" fill="rgb(33, 33, 33)" stroke="none" stroke-width="1px">0</text><text x="55.6875" y="0" dx="0em" dy="0.95em" style="text-anchor: middle; visibility: inherit; font-family: Roboto, sans-serif; font-size: 12px; font-weight: 200;" fill="rgb(33, 33, 33)" stroke="none" stroke-width="1px">500k</text><text x="83.53125" y="0" dx="0em" dy="0.95em" style="text-anchor: middle; visibility: inherit; font-family: Roboto, sans-serif; font-size: 12px; font-weight: 200;" fill="rgb(33, 33, 33)" stroke="none" stroke-width="1px">1M</text><text x="111.375" y="0" dx="0em" dy="0.95em" style="text-anchor: middle; visibility: inherit; font-family: Roboto, sans-serif; font-size: 12px; font-weight: 200;" fill="rgb(33, 33, 33)" stroke="none" stroke-width="1px">1.5M</text><text x="139.21875" y="0" dx="0em" dy="0.95em" style="text-anchor: middle; visibility: inherit; font-family: Roboto, sans-serif; font-size: 12px; font-weight: 200;" fill="rgb(33, 33, 33)" stroke="none" stroke-width="1px">2M</text><text x="167.0625" y="0" dx="0em" dy="0.95em" style="text-anchor: middle; visibility: inherit; font-family: Roboto, sans-serif; font-size: 12px; font-weight: 200;" fill="rgb(33, 33, 33)" stroke="none" stroke-width="1px">2.5M</text><text x="194.90625" y="0" dx="0em" dy="0.95em" style="text-anchor: middle; visibility: inherit; font-family: Roboto, sans-serif; font-size: 12px; font-weight: 200;" fill="rgb(33, 33, 33)" stroke="none" stroke-width="1px">3M</text><text x="222.75" y="0" dx="0em" dy="0.95em" style="text-anchor: middle; visibility: inherit; font-family: Roboto, sans-serif; font-size: 12px; font-weight: 200;" fill="rgb(33, 33, 33)" stroke="none" stroke-width="1px">3.5M</text><text x="250.59375" y="0" dx="0em" dy="0.95em" style="text-anchor: middle; visibility: inherit; font-family: Roboto, sans-serif; font-size: 12px; font-weight: 200;" fill="rgb(33, 33, 33)" stroke="none" stroke-width="1px">4M</text><text x="278.4375" y="0" dx="0em" dy="0.95em" style="text-anchor: middle; visibility: hidden; font-family: Roboto, sans-serif; font-size: 12px; font-weight: 200;" fill="rgb(33, 33, 33)" stroke="none" stroke-width="1px">4.5M</text></g><line x1="0" y1="0" x2="278.4375" y2="0" fill="rgb(0, 0, 0)" stroke="rgb(204, 204, 204)" stroke-width="1px"></line></g></g></g></g></svg>