<svg viewBox="0 0 330 200" xmlns="http://www.w3.org/2000/svg"><g><g><g><g><g><line x1="61.953125" y1="177" x2="56.953125" y2="177" style="visibility: inherit;" fill="rgb(0, 0, 0)" stroke="rgb(204, 204, 204)" stroke-width="1px"></line><line x1="61.953125" y1="151.7142857142833" x2="56.953125" y2="151.7142857142833" style="visibility: inherit;" fill="rgb(0, 0, 0)" stroke="rgb(204, 204, 204)" stroke-width="1px"></line><line x1="61.953125" y1="126.42857142857224" x2="56.953125" y2="126.42857142857224" style="visibility: inherit;" fill="rgb(0, 0, 0)" stroke="rgb(204, 204, 204)" stroke-width="1px"></line><line x1="61.953125" y1="101.14285714285552" x2="56.953125" y2="101.14285714285552" style="visibility: inherit;" fill="rgb(0, 0, 0)" stroke="rgb(204, 204, 204)" stroke-width="1px"></line><line x1="61.953125" y1="75.85714285714445" x2="56.953125" y2="75.85714285714445" style="visibility: inherit;" fill="rgb(0, 0, 0)" stroke="rgb(204, 204, 204)" stroke-width="1px"></line><line x1="61.953125" y1="50.57142857142776" x2="56.953125" y2="50.57142857142776" style="visibility: inherit;" fill="rgb(0, 0, 0)" stroke="rgb(204, 204, 204)" stroke-width="1px"></line><line x1="61.953125" y1="25.28571428571669" x2="56.953125" y2="25.28571428571669" style="visibility: inherit;" fill="rgb(0, 0, 0)" stroke="rgb(204, 204, 204)" stroke-width="1px"></line><line x1="61.953125" y1="0" x2="56.953125" y2="0" style="visibility: inherit;" fill="rgb(0, 0, 0)" stroke="rgb(204, 204, 204)" stroke-width="1px"></line></g><g transform="translate(51.953125, 0)"><text x="0" y="177" dx="0em" dy="0.3em" style="text-anchor: end; visibility: hidden; font-family: Roboto, sans-serif; font-size: 12px; font-weight: 200;" fill="rgb(33, 33, 33)" stroke="none" stroke-width="1px">0.99</text><text x="0" y="151.7142857142833" dx="0em" dy="0.3em" style="text-anchor: end; visibility: inherit; font-family: Roboto, sans-serif; font-size: 12px; font-weight: 200;" fill="rgb(33, 33, 33)" stroke="none" stroke-width="1px">0.991</text><text x="0" y="126.42857142857224" dx="0em" dy="0.3em" style="text-anchor: end; visibility: inherit; font-family: Roboto, sans-serif; font-size: 12px; font-weight: 200;" fill="rgb(33, 33, 33)" stroke="none" stroke-width="1px">0.991</text><text x="0" y="101.14285714285552" dx="0em" dy="0.3em" style="text-anchor: end; visibility: inherit; font-family: Roboto, sans-serif; font-size: 12px; font-weight: 200;" fill="rgb(33, 33, 33)" stroke="none" stroke-width="1px">0.992</text><text x="0" y="75.85714285714445" dx="0em" dy="0.3em" style="text-anchor: end; visibility: inherit; font-family: Roboto, sans-serif; font-size: 12px; font-weight: 200;" fill="rgb(33, 33, 33)" stroke="none" stroke-width="1px">0.992</text><text x="0" y="50.57142857142776" dx="0em" dy="0.3em" style="text-anchor: end; visibility: inherit; font-family: Roboto, sans-serif; font-size: 12px; font-weight: 200;" fill="rgb(33, 33, 33)" stroke="none" stroke-width="1px">0.993</text><text x="0" y="25.28571428571669" dx="0em" dy="0.3em" style="text-anchor: end; visibility: inherit; font-family: Roboto, sans-serif; font-size: 12px; font-weight: 200;" fill="rgb(33, 33, 33)" stroke="none" stroke-width="1px">0.993</text><text x="0" y="0" dx="0em" dy="0.3em" style="text-anchor: end; visibility: hidden; font-family: Roboto, sans-serif; font-size: 12px; font-weight: 200;" fill="rgb(33, 33, 33)" stroke="none" stroke-width="1px">0.994</text></g><line x1="61.953125" y1="0" x2="61.953125" y2="177" fill="rgb(0, 0, 0)" stroke="rgb(204, 204, 204)" stroke-width="1px"></line></g></g><g transform="translate(61, 0)" clip-path="url(#clip_0)"><clipPath id="clip_0"><rect width="268" height="177"></rect></clipPath><g><g><g><line x1="0" y1="0" x2="0" y2="177" fill="rgb(0, 0, 0)" stroke="rgb(66, 66, 66)" stroke-width="1px" opacity="0.25"></line><line x1="26.8046875" y1="0" x2="26.8046875" y2="177" fill="rgb(0, 0, 0)" stroke="rgb(66, 66, 66)" stroke-width="1px" opacity="0.25"></line><line x1="53.609375" y1="0" x2="53.609375" y2="177" fill="rgb(0, 0, 0)" stroke="rgb(66, 66, 66)" stroke-width="1px" opacity="0.25"></line><line x1="80.4140625" y1="0" x2="80.4140625" y2="177" fill="rgb(0, 0, 0)" stroke="rgb(66, 66, 66)" stroke-width="1px" opacity="0.25"></line><line x1="107.21875" y1="0" x2="107.21875" y2="177" fill="rgb(0, 0, 0)" stroke="rgb(66, 66, 66)" stroke-width="1px" opacity="0.25"></line><line x1="134.0234375" y1="0" x2="134.0234375" y2="177" fill="rgb(0, 0, 0)" stroke="rgb(66, 66, 66)" stroke-width="1px" opacity="0.25"></line><line x1="160.828125" y1="0" x2="160.828125" y2="177" fill="rgb(0, 0, 0)" stroke="rgb(66, 66, 66)" stroke-width="1px" opacity="0.25"></line><line x1="187.6328125" y1="0" x2="187.6328125" y2="177" fill="rgb(0, 0, 0)" stroke="rgb(66, 66, 66)" stroke-width="1px" opacity="0.25"></line><line x1="214.4375" y1="0" x2="214.4375" y2="177" fill="rgb(0, 0, 0)" stroke="rgb(66, 66, 66)" stroke-width="1px" opacity="0.25"></line><line x1="241.2421875" y1="0" x2="241.2421875" y2="177" fill="rgb(0, 0, 0)" stroke="rgb(66, 66, 66)" stroke-width="1px" opacity="0.25"></line><line x1="268.046875" y1="0" x2="268.046875" y2="177" fill="rgb(0, 0, 0)" stroke="rgb(66, 66, 66)" stroke-width="1px" opacity="0.25"></line></g><g><line x1="0" y1="177" x2="268.046875" y2="177" fill="rgb(0, 0, 0)" stroke="rgb(66, 66, 66)" stroke-width="1px" opacity="0.25"></line><line x1="0" y1="151.7142857142833" x2="268.046875" y2="151.7142857142833" fill="rgb(0, 0, 0)" stroke="rgb(66, 66, 66)" stroke-width="1px" opacity="0.25"></line><line x1="0" y1="126.42857142857224" x2="268.046875" y2="126.42857142857224" fill="rgb(0, 0, 0)" stroke="rgb(66, 66, 66)" stroke-width="1px" opacity="0.25"></line><line x1="0" y1="101.14285714285552" x2="268.046875" y2="101.14285714285552" fill="rgb(0, 0, 0)" stroke="rgb(66, 66, 66)" stroke-width="1px" opacity="0.25"></line><line x1="0" y1="75.85714285714445" x2="268.046875" y2="75.85714285714445" fill="rgb(0, 0, 0)" stroke="rgb(66, 66, 66)" stroke-width="1px" opacity="0.25"></line><line x1="0" y1="50.57142857142776" x2="268.046875" y2="50.57142857142776" fill="rgb(0, 0, 0)" stroke="rgb(66, 66, 66)" stroke-width="1px" opacity="0.25"></line><line x1="0" y1="25.28571428571669" x2="268.046875" y2="25.28571428571669" fill="rgb(0, 0, 0)" stroke="rgb(66, 66, 66)" stroke-width="1px" opacity="0.25"></line><line x1="0" y1="0" x2="268.046875" y2="0" fill="rgb(0, 0, 0)" stroke="rgb(66, 66, 66)" stroke-width="1px" opacity="0.25"></line></g></g></g><g><g><line x1="0" y1="50242.714285713446" x2="268.046875" y2="50242.714285713446" fill="rgb(0, 0, 0)" stroke="rgb(153, 153, 153)" stroke-width="1.5px"></line></g></g><g><g><line x1="26.8046875" y1="0" x2="26.8046875" y2="177" fill="rgb(0, 0, 0)" stroke="rgb(153, 153, 153)" stroke-width="1.5px"></line></g></g><g><g><g><g><g><path stroke="rgb(255, 112, 67)" stroke-width="2px" d="M27.9026075,34.884691102166066L29.0005275,130.75613323279822L30.0984475,138.9137532926493L31.1963675,188.53329615583073L32.2942875,168.62405941287L33.392207500000005,105.0673676242601L34.4901275,115.39738562458882L35.5880475,163.01355083843504L36.685967500000004,155.13787801206882L37.7838875,159.02651102181508L38.8818075,107.04587435629588L39.9797275,142.56200107289226L41.0776475,173.9573634038254L42.1755675,136.91674123904727L43.2734875,164.06123803930768L44.3714075,137.69841225487914L45.4693275,130.24130359410717L46.5672475,126.92424618176223L47.6651675,109.05638080789655L48.7630875,80.67196127031086L49.8610075,110.58879349330705L50.9589275,91.79738644155468L52.056847499999996,18.343393343673046L53.154767500000005,46.57493154906633L54.2526875,85.73157576132378L55.3506075,168.53480230847796L56.4485275,103.81570797451707L57.5464475,155.81823147109702L58.6443675,148.23541807463658L59.742287499999996,189.6331983425181L60.840207500000005,192.3987999984913L61.9381275,142.74405477300408L63.036047499999995,109.84890065552302L64.1339675,90.41444411942162L65.2318875,92.67618284834543L66.3298075,25.395384264417313L67.4277275,62.308530966713434L68.52564749999999,93.27985452179026L69.6235675,69.365953649261L70.72148750000001,81.47706868532195L71.8194075,85.99349764095282L72.9173275,109.85162794524547L74.0152475,80.26394546500615L75.11316749999999,131.76770980850574L76.2110875,102.08028704970805L77.3090075,127.21667204175185L78.4069275,173.8798435544738L79.5048475,191.333752919577L80.60276750000001,204.0089431581664L81.7006875,142.44087794666098L82.7986075,139.57239027593297L83.8965275,82.15079800250388L84.99444749999999,69.69494019892178L86.09236750000001,84.53924374975988L87.1902875,78.89523536510602L88.2882075,66.73121192611185L89.3861275,49.925720781850416L90.48404749999999,70.02634082482795L91.5819675,67.11291573365281L92.6798875,27.393221045761805L93.7778075,8.227528304424172L94.8757275,83.603626281358L95.9736475,66.36350835155952L97.0715675,53.37650633670729L98.1694875,67.33664217483314L99.2674075,87.60953148452965L100.36532749999999,112.25725696575954L101.4632475,60.06470606893428L102.56116750000001,119.0260162857508L103.6590875,98.8903945680262L104.7570075,90.23325729004206L105.8549275,111.64552786471529L106.95284749999999,142.39899061888485L108.0507675,61.871363550762716L109.14868750000001,78.35000891109871L110.2466075,124.41352342396095L111.3445275,128.35809101360857L112.44244750000001,108.51552784773509L113.5403675,110.35395591457166L114.6382875,87.02316151260861L115.73620749999999,89.06071850179933L116.8341275,68.04260033848968L117.93204750000001,45.64733749235018L119.0299675,62.06493382388767L120.1278875,156.86065262482714L121.2258075,133.96906518721875L122.32372749999999,98.79405633253496L123.4216475,78.77540186941339L124.51956750000001,80.13078579502546L125.6174875,110.43464371168669L126.7154075,130.6075969221152L127.8133275,147.77658518530257L128.9112475,88.82763291311699L130.0091675,52.02225282395815L131.1070875,64.29954254476833L132.2050075,67.26384428819887L133.30292749999998,82.6778767873274L134.4008475,70.34034816015271L135.49876749999999,103.8900025820047L136.5966875,88.89605871734875L137.69460750000002,106.42666803026637L138.7925275,72.6711121964262L139.8904475,103.07235349906263L140.9883675,79.46146193900302L142.0862875,108.77789819437727L143.18420749999999,67.73013411708646L144.2821275,101.151917412651L145.3800475,104.94469043215656L146.47796749999998,78.52791121364264L147.57588750000002,105.017795333966L148.6738075,175.10387374230118L149.7717275,146.16773762777385L150.8696475,117.91481597536503L151.9675675,102.05544241768446L153.0654875,101.60198585945712L154.1634075,51.53139605974394L155.2613275,60.776118857508L156.35924749999998,83.49477140562402L157.4571675,91.74364307539102L158.5550875,98.90425071470908L159.6530075,108.46598062640179L160.75092750000002,94.00967336729667L161.8488475,74.70749529366263L162.9467675,16.01642108061801L164.0446875,58.863500261900874L165.1426075,63.51510932549345L166.24052749999998,39.76583624698038L167.3384475,65.2542871660189L168.43636750000002,43.014599004675205L169.5342875,71.05701575918205L170.63220750000002,109.28635069958447L171.7301275,41.64568170532463L172.8280475,61.11080052884304L173.9259675,45.830043854902094L175.0238875,107.28283509851458L176.1218075,72.23470758768927L177.21972749999998,55.933446710119924L178.3176475,53.90906645005883L179.4155675,16.19739032474623L180.5134875,35.68125010627984L181.6114075,58.74750411824427L182.7093275,38.630653883906895L183.8072475,28.50657068161109L184.9051675,3.331154987874261L186.0030875,59.63689533298913L187.10100749999998,131.70908269539495L188.1989275,148.93061482632694L189.29684749999998,114.24206825841534L190.3947675,97.41021723853525L191.49268750000002,94.13184664517244L192.5906075,104.241283901322L193.6885275,61.243917646959524L194.7864475,59.28251931332183L195.8843675,12.669447882550136L196.98228749999998,98.14508864922475L198.0802075,196.59570345154762L199.1781275,112.45826342965947L200.2760475,55.02484198200753L201.37396750000002,37.630504903209896L202.4718875,60.675452872606684L203.5698075,39.22555910106206L204.6677275,27.19962460815257L205.7656475,14.625858389597242L206.8635675,42.63698179575881L207.9614875,17.11214420571745L209.0594075,10.842529192673233L210.15732749999998,48.973390898172596L211.25524750000002,57.595512309029374L212.3531675,67.44696639507907L213.4510875,76.17439332494882L214.54900750000002,137.81307633964187L215.6469275,92.5157593060738L216.7448475,75.78128813151169L217.8427675,108.19148302512528L218.9406875,88.12867138986776L220.03860749999998,64.04346200009854L221.1365275,70.66103197954828L222.23444750000002,52.01473796432035L223.3323675,60.28240807094999L224.43028750000002,64.91143801099268L225.5282075,59.79623370851924L226.6261275,17.429182998113276L227.72404749999998,20.40599498259023L228.8219675,113.86152584871692L229.9198875,63.250609204300744L231.01780749999998,59.7293440883421L232.11572750000002,49.095784292016106L233.2136475,50.24896707004962L234.3115675,39.65657307170204L235.4094875,55.5936348525443L236.5074075,93.1502049157816L237.6053275,158.35446501228327L238.7032475,102.22177558896502L239.8011675,66.71911811173077L240.89908749999998,73.16589039000222" style="fill: none;" fill="none"></path></g></g></g></g><g opacity="0.2"><g><g><g><path stroke="rgb(255, 112, 67)" stroke-width="2px" d="M27.9026075,34.884691102166066L29.0005275,188.27899851117752L30.0984475,146.74506855010992L31.1963675,246.88587856292563L32.2942875,142.63055992126476L33.392207500000005,17.145582471577292L34.4901275,130.16947664533376L35.5880475,232.43837683541298L36.685967500000004,143.52279036385684L37.7838875,164.80067784445603L38.8818075,29.546379906792613L39.9797275,195.64291395459782L41.0776475,220.94789559500438L42.1755675,81.42837442670664L43.2734875,204.74607590266544L44.3714075,98.1727666854867L45.4693275,119.05879620143398L46.5672475,121.94950226375082L47.6651675,82.25730473654724L48.7630875,38.0979264123118L49.8610075,155.4624011175972L50.9589275,63.61089420318749L52.056847499999996,-91.83614608219285L53.154767500000005,88.92190442766565L54.2526875,144.4662637710572L55.3506075,292.73928901127164L56.4485275,6.737232072015174L57.5464475,233.8219368798378L58.6443675,136.86120496477423L59.742287499999996,251.72984586443047L60.840207500000005,196.54720156533298L61.9381275,68.26194681440218L63.036047499999995,60.506173406329985L64.1339675,61.262760707311756L65.2318875,96.0687908445095L66.3298075,-75.52581187656568L67.4277275,117.6782504490449L68.52564749999999,139.73683956691215L69.6235675,33.49510247366965L70.72148750000001,99.64374119894931L71.8194075,92.76814106532602L72.9173275,145.63882337297719L74.0152475,35.88242176601057L75.11316749999999,209.02335630144296L76.2110875,57.549152919225875L77.3090075,164.9212495258874L78.4069275,243.87460081917743L80.60276750000001,223.02172851562378L81.7006875,50.0887801306605L82.7986075,135.2696587698803L83.8965275,-3.9815904072327157L84.99444749999999,51.011153493610415L86.09236750000001,106.80569907597206L87.1902875,70.42922278813087L88.2882075,48.485176767623436L89.3861275,24.71748406546666L90.48404749999999,100.17727088928305L91.5819675,62.7427780968817L92.6798875,-32.1863209860635L94.8757275,196.66777324676434L95.9736475,40.50333145686743L97.0715675,33.89600331442891L98.1694875,88.27684593200787L99.2674075,118.01886544908851L100.36532749999999,149.22884518759594L101.4632475,-18.22412027631207L102.56116750000001,207.4679816109784L103.6590875,68.68696199144773L104.7570075,77.24755137307426L105.8549275,143.76393372671956L106.95284749999999,188.52918475014758L108.0507675,-58.92007705143168L109.14868750000001,103.0679769515999L110.2466075,193.50879519326273L111.3445275,134.27494239807157L112.44244750000001,78.75168309893046L113.5403675,113.11159801483217L114.6382875,52.02696990966962L115.73620749999999,92.11705398559668L116.8341275,36.5154230935252L117.93204750000001,12.054443223138122L119.0299675,86.6913283211855L120.1278875,299.0542308262391L121.2258075,99.63168403080617L122.32372749999999,46.03154305049526L123.4216475,48.74742017473663L124.51956750000001,82.16386168343794L125.6174875,155.89043058667855L126.7154075,160.86702673775793L127.8133275,173.53006758008647L128.9112475,0.40420450483300074L130.0091675,-3.185817309785735L131.1070875,82.71547712598641L132.2050075,71.71029690333907L133.30292749999998,105.79892553602019L134.4008475,51.83405521937944L135.49876749999999,154.21448421478263L136.5966875,66.40514292035924L137.69460750000002,132.7225819996428L138.7925275,22.03777844565471L139.8904475,148.67421545301167L140.9883675,44.04512459891361L142.0862875,152.75255257742742L143.18420749999999,6.158488001144649L144.2821275,151.28459235600062L145.3800475,110.63384996141772L146.47796749999998,38.90274238586613L147.57588750000002,144.7526215144567L148.6738075,280.2329913548039L149.7717275,102.76353345598574L150.8696475,75.53543349674894L151.9675675,78.26638208116925L153.0654875,100.92180102212171L154.1634075,-23.574488639828633L155.2613275,74.6432030541569L156.35924749999998,117.57275022779245L157.4571675,104.11695058005274L158.5550875,109.64516217368057L159.6530075,122.80857549394926L160.75092750000002,72.32521247863899L161.8488475,45.754228183203125L162.9467675,-72.0201902389489L164.0446875,123.13411903381393L165.1426075,70.49252292088234L166.24052749999998,4.141926629205154L167.3384475,103.48696354457388L168.43636750000002,9.655066762654071L169.5342875,113.12064089093951L170.63220750000002,166.6303531101769L171.7301275,-59.815321786059535L172.8280475,90.30847876412626L173.9259675,22.90890884399626L175.0238875,199.4620219639361L176.1218075,19.662516321456913L177.21972749999998,31.48155539376594L178.3176475,50.87249605996434L179.4155675,-40.37012386321703L180.5134875,64.9070397785746L181.6114075,93.34688513619653L182.7093275,8.455378532412047L183.8072475,13.3204458781674L184.9051675,-34.43196855272256L186.0030875,144.0955058506558L187.10100749999998,239.81736373901217L188.1989275,174.7629130227221L189.29684749999998,62.20924840654792L190.3947675,72.16244070870665L191.49268750000002,89.21429075513669L192.5906075,119.40543978554913L193.6885275,-3.2521317345729672L194.7864475,56.340421812876514L195.8843675,-57.25015926360738L200.2760475,-31.125290189467513L201.37396750000002,11.538999285019063L202.4718875,95.24287482670468L203.5698075,7.050718443736711L204.6677275,9.1607228687855L205.7656475,-4.234790938238536L206.8635675,84.65366690499553L207.9614875,-21.175112179344584L209.0594075,1.438106673106907L210.15732749999998,106.16968345642165L211.25524750000002,70.52869442531174L212.3531675,82.22414752415362L213.4510875,89.26553371974502L214.54900750000002,230.2711008616843L215.6469275,24.569783755713242L216.7448475,50.679581369674175L217.8427675,156.8067753655569L218.9406875,58.034453936987106L220.03860749999998,27.915647915433482L221.1365275,80.58738694872292L222.23444750000002,24.045296941486843L223.3323675,72.68391323089729L224.43028750000002,71.8549829210567L225.5282075,52.1234272548147L226.6261275,-46.121393067492875L227.72404749999998,24.871212959291654L228.8219675,254.04482214791258L229.9198875,-12.665765762326389L231.01780749999998,54.44744641440416L232.11572750000002,33.14544459751871L233.2136475,51.97874123709707L234.3115675,23.76798207419471L235.4094875,79.49922752380489L236.5074075,149.48506001063757L237.6053275,256.1608551570329L238.7032475,18.02274145399042L239.8011675,13.465131895885031L240.89908749999998,82.83604880741777" style="fill: none;" fill="none"></path></g></g></g></g></g></g><g transform="translate(61, 177)" clip-path="url(#clip_1)"><clipPath id="clip_1"><rect width="268" height="23"></rect></clipPath><g><g><line x1="0" y1="0" x2="0" y2="5" style="visibility: inherit;" fill="rgb(0, 0, 0)" stroke="rgb(204, 204, 204)" stroke-width="1px"></line><line x1="26.8046875" y1="0" x2="26.8046875" y2="5" style="visibility: inherit;" fill="rgb(0, 0, 0)" stroke="rgb(204, 204, 204)" stroke-width="1px"></line><line x1="53.609375" y1="0" x2="53.609375" y2="5" style="visibility: inherit;" fill="rgb(0, 0, 0)" stroke="rgb(204, 204, 204)" stroke-width="1px"></line><line x1="80.4140625" y1="0" x2="80.4140625" y2="5" style="visibility: inherit;" fill="rgb(0, 0, 0)" stroke="rgb(204, 204, 204)" stroke-width="1px"></line><line x1="107.21875" y1="0" x2="107.21875" y2="5" style="visibility: inherit;" fill="rgb(0, 0, 0)" stroke="rgb(204, 204, 204)" stroke-width="1px"></line><line x1="134.0234375" y1="0" x2="134.0234375" y2="5" style="visibility: inherit;" fill="rgb(0, 0, 0)" stroke="rgb(204, 204, 204)" stroke-width="1px"></line><line x1="160.828125" y1="0" x2="160.828125" y2="5" style="visibility: inherit;" fill="rgb(0, 0, 0)" stroke="rgb(204, 204, 204)" stroke-width="1px"></line><line x1="187.6328125" y1="0" x2="187.6328125" y2="5" style="visibility: inherit;" fill="rgb(0, 0, 0)" stroke="rgb(204, 204, 204)" stroke-width="1px"></line><line x1="214.4375" y1="0" x2="214.4375" y2="5" style="visibility: inherit;" fill="rgb(0, 0, 0)" stroke="rgb(204, 204, 204)" stroke-width="1px"></line><line x1="241.2421875" y1="0" x2="241.2421875" y2="5" style="visibility: inherit;" fill="rgb(0, 0, 0)" stroke="rgb(204, 204, 204)" stroke-width="1px"></line><line x1="268.046875" y1="0" x2="268.046875" y2="5" style="visibility: inherit;" fill="rgb(0, 0, 0)" stroke="rgb(204, 204, 204)" stroke-width="1px"></line></g><g transform="translate(0, 8)"><text x="0" y="0" dx="0em" dy="0.95em" style="text-anchor: middle; visibility: hidden; font-family: Roboto, sans-serif; font-size: 12px; font-weight: 200;" fill="rgb(33, 33, 33)" stroke="none" stroke-width="1px">-500k</text><text x="26.8046875" y="0" dx="0em" dy="0.95em" style="text-anchor: middle; visibility: inherit; font-family: Roboto, sans-serif; font-size: 12px; font-weight: 200;" fill="rgb(33, 33, 33)" stroke="none" stroke-width="1px">0</text><text x="53.609375" y="0" dx="0em" dy="0.95em" style="text-anchor: middle; visibility: hidden; font-family: Roboto, sans-serif; font-size: 12px; font-weight: 200;" fill="rgb(33, 33, 33)" stroke="none" stroke-width="1px">500k</text><text x="80.4140625" y="0" dx="0em" dy="0.95em" style="text-anchor: middle; visibility: inherit; font-family: Roboto, sans-serif; font-size: 12px; font-weight: 200;" fill="rgb(33, 33, 33)" stroke="none" stroke-width="1px">1M</text><text x="107.21875" y="0" dx="0em" dy="0.95em" style="text-anchor: middle; visibility: hidden; font-family: Roboto, sans-serif; font-size: 12px; font-weight: 200;" fill="rgb(33, 33, 33)" stroke="none" stroke-width="1px">1.5M</text><text x="134.0234375" y="0" dx="0em" dy="0.95em" style="text-anchor: middle; visibility: inherit; font-family: Roboto, sans-serif; font-size: 12px; font-weight: 200;" fill="rgb(33, 33, 33)" stroke="none" stroke-width="1px">2M</text><text x="160.828125" y="0" dx="0em" dy="0.95em" style="text-anchor: middle; visibility: hidden; font-family: Roboto, sans-serif; font-size: 12px; font-weight: 200;" fill="rgb(33, 33, 33)" stroke="none" stroke-width="1px">2.5M</text><text x="187.6328125" y="0" dx="0em" dy="0.95em" style="text-anchor: middle; visibility: inherit; font-family: Roboto, sans-serif; font-size: 12px; font-weight: 200;" fill="rgb(33, 33, 33)" stroke="none" stroke-width="1px">3M</text><text x="214.4375" y="0" dx="0em" dy="0.95em" style="text-anchor: middle; visibility: hidden; font-family: Roboto, sans-serif; font-size: 12px; font-weight: 200;" fill="rgb(33, 33, 33)" stroke="none" stroke-width="1px">3.5M</text><text x="241.2421875" y="0" dx="0em" dy="0.95em" style="text-anchor: middle; visibility: inherit; font-family: Roboto, sans-serif; font-size: 12px; font-weight: 200;" fill="rgb(33, 33, 33)" stroke="none" stroke-width="1px">4M</text><text x="268.046875" y="0" dx="0em" dy="0.95em" style="text-anchor: middle; visibility: hidden; font-family: Roboto, sans-serif; font-size: 12px; font-weight: 200;" fill="rgb(33, 33, 33)" stroke="none" stroke-width="1px">4.5M</text></g><line x1="0" y1="0" x2="268.046875" y2="0" fill="rgb(0, 0, 0)" stroke="rgb(204, 204, 204)" stroke-width="1px"></line></g></g></g></g></svg>