<svg viewBox="0 0 330 200" xmlns="http://www.w3.org/2000/svg"><g><g><g><g><g><line x1="72.34375" y1="177" x2="67.34375" y2="177" style="visibility: inherit;" fill="rgb(0, 0, 0)" stroke="rgb(204, 204, 204)" stroke-width="1px"></line><line x1="72.34375" y1="162.25000070058738" x2="67.34375" y2="162.25000070058738" style="visibility: inherit;" fill="rgb(0, 0, 0)" stroke="rgb(204, 204, 204)" stroke-width="1px"></line><line x1="72.34375" y1="147.50000140117473" x2="67.34375" y2="147.50000140117473" style="visibility: inherit;" fill="rgb(0, 0, 0)" stroke="rgb(204, 204, 204)" stroke-width="1px"></line><line x1="72.34375" y1="132.75000210176213" x2="67.34375" y2="132.75000210176213" style="visibility: inherit;" fill="rgb(0, 0, 0)" stroke="rgb(204, 204, 204)" stroke-width="1px"></line><line x1="72.34375" y1="118.00000280234948" x2="67.34375" y2="118.00000280234948" style="visibility: inherit;" fill="rgb(0, 0, 0)" stroke="rgb(204, 204, 204)" stroke-width="1px"></line><line x1="72.34375" y1="103.25000350293686" x2="67.34375" y2="103.25000350293686" style="visibility: inherit;" fill="rgb(0, 0, 0)" stroke="rgb(204, 204, 204)" stroke-width="1px"></line><line x1="72.34375" y1="88.50000420352424" x2="67.34375" y2="88.50000420352424" style="visibility: inherit;" fill="rgb(0, 0, 0)" stroke="rgb(204, 204, 204)" stroke-width="1px"></line><line x1="72.34375" y1="73.75000490411162" x2="67.34375" y2="73.75000490411162" style="visibility: inherit;" fill="rgb(0, 0, 0)" stroke="rgb(204, 204, 204)" stroke-width="1px"></line><line x1="72.34375" y1="59.000005604698984" x2="67.34375" y2="59.000005604698984" style="visibility: inherit;" fill="rgb(0, 0, 0)" stroke="rgb(204, 204, 204)" stroke-width="1px"></line><line x1="72.34375" y1="44.25000630528637" x2="67.34375" y2="44.25000630528637" style="visibility: inherit;" fill="rgb(0, 0, 0)" stroke="rgb(204, 204, 204)" stroke-width="1px"></line><line x1="72.34375" y1="29.500007005873726" x2="67.34375" y2="29.500007005873726" style="visibility: inherit;" fill="rgb(0, 0, 0)" stroke="rgb(204, 204, 204)" stroke-width="1px"></line><line x1="72.34375" y1="14.750007706461108" x2="67.34375" y2="14.750007706461108" style="visibility: inherit;" fill="rgb(0, 0, 0)" stroke="rgb(204, 204, 204)" stroke-width="1px"></line><line x1="72.34375" y1="0.000008407048488034974" x2="67.34375" y2="0.000008407048488034974" style="visibility: inherit;" fill="rgb(0, 0, 0)" stroke="rgb(204, 204, 204)" stroke-width="1px"></line></g><g transform="translate(62.34375, 0)"><text x="0" y="177" dx="0em" dy="0.3em" style="text-anchor: end; visibility: hidden; font-family: Roboto, sans-serif; font-size: 12px; font-weight: 200;" fill="rgb(33, 33, 33)" stroke="none" stroke-width="1px">0</text><text x="0" y="162.25000070058738" dx="0em" dy="0.3em" style="text-anchor: end; visibility: inherit; font-family: Roboto, sans-serif; font-size: 12px; font-weight: 200;" fill="rgb(33, 33, 33)" stroke="none" stroke-width="1px">5e-5</text><text x="0" y="147.50000140117473" dx="0em" dy="0.3em" style="text-anchor: end; visibility: hidden; font-family: Roboto, sans-serif; font-size: 12px; font-weight: 200;" fill="rgb(33, 33, 33)" stroke="none" stroke-width="1px">1e-4</text><text x="0" y="132.75000210176213" dx="0em" dy="0.3em" style="text-anchor: end; visibility: inherit; font-family: Roboto, sans-serif; font-size: 12px; font-weight: 200;" fill="rgb(33, 33, 33)" stroke="none" stroke-width="1px">1.5e-4</text><text x="0" y="118.00000280234948" dx="0em" dy="0.3em" style="text-anchor: end; visibility: hidden; font-family: Roboto, sans-serif; font-size: 12px; font-weight: 200;" fill="rgb(33, 33, 33)" stroke="none" stroke-width="1px">2e-4</text><text x="0" y="103.25000350293686" dx="0em" dy="0.3em" style="text-anchor: end; visibility: inherit; font-family: Roboto, sans-serif; font-size: 12px; font-weight: 200;" fill="rgb(33, 33, 33)" stroke="none" stroke-width="1px">2.5e-4</text><text x="0" y="88.50000420352424" dx="0em" dy="0.3em" style="text-anchor: end; visibility: hidden; font-family: Roboto, sans-serif; font-size: 12px; font-weight: 200;" fill="rgb(33, 33, 33)" stroke="none" stroke-width="1px">3e-4</text><text x="0" y="73.75000490411162" dx="0em" dy="0.3em" style="text-anchor: end; visibility: inherit; font-family: Roboto, sans-serif; font-size: 12px; font-weight: 200;" fill="rgb(33, 33, 33)" stroke="none" stroke-width="1px">3.5e-4</text><text x="0" y="59.000005604698984" dx="0em" dy="0.3em" style="text-anchor: end; visibility: hidden; font-family: Roboto, sans-serif; font-size: 12px; font-weight: 200;" fill="rgb(33, 33, 33)" stroke="none" stroke-width="1px">4e-4</text><text x="0" y="44.25000630528637" dx="0em" dy="0.3em" style="text-anchor: end; visibility: inherit; font-family: Roboto, sans-serif; font-size: 12px; font-weight: 200;" fill="rgb(33, 33, 33)" stroke="none" stroke-width="1px">4.5e-4</text><text x="0" y="29.500007005873726" dx="0em" dy="0.3em" style="text-anchor: end; visibility: hidden; font-family: Roboto, sans-serif; font-size: 12px; font-weight: 200;" fill="rgb(33, 33, 33)" stroke="none" stroke-width="1px">5e-4</text><text x="0" y="14.750007706461108" dx="0em" dy="0.3em" style="text-anchor: end; visibility: inherit; font-family: Roboto, sans-serif; font-size: 12px; font-weight: 200;" fill="rgb(33, 33, 33)" stroke="none" stroke-width="1px">5.5e-4</text><text x="0" y="0.000008407048488034974" dx="0em" dy="0.3em" style="text-anchor: end; visibility: hidden; font-family: Roboto, sans-serif; font-size: 12px; font-weight: 200;" fill="rgb(33, 33, 33)" stroke="none" stroke-width="1px">6e-4</text></g><line x1="72.34375" y1="0" x2="72.34375" y2="177" fill="rgb(0, 0, 0)" stroke="rgb(204, 204, 204)" stroke-width="1px"></line></g></g><g transform="translate(72, 0)" clip-path="url(#clip_0)"><clipPath id="clip_0"><rect width="257" height="177"></rect></clipPath><g><g><g><line x1="0" y1="0" x2="0" y2="177" fill="rgb(0, 0, 0)" stroke="rgb(66, 66, 66)" stroke-width="1px" opacity="0.25"></line><line x1="25.765625" y1="0" x2="25.765625" y2="177" fill="rgb(0, 0, 0)" stroke="rgb(66, 66, 66)" stroke-width="1px" opacity="0.25"></line><line x1="51.53125" y1="0" x2="51.53125" y2="177" fill="rgb(0, 0, 0)" stroke="rgb(66, 66, 66)" stroke-width="1px" opacity="0.25"></line><line x1="77.296875" y1="0" x2="77.296875" y2="177" fill="rgb(0, 0, 0)" stroke="rgb(66, 66, 66)" stroke-width="1px" opacity="0.25"></line><line x1="103.0625" y1="0" x2="103.0625" y2="177" fill="rgb(0, 0, 0)" stroke="rgb(66, 66, 66)" stroke-width="1px" opacity="0.25"></line><line x1="128.828125" y1="0" x2="128.828125" y2="177" fill="rgb(0, 0, 0)" stroke="rgb(66, 66, 66)" stroke-width="1px" opacity="0.25"></line><line x1="154.59375" y1="0" x2="154.59375" y2="177" fill="rgb(0, 0, 0)" stroke="rgb(66, 66, 66)" stroke-width="1px" opacity="0.25"></line><line x1="180.359375" y1="0" x2="180.359375" y2="177" fill="rgb(0, 0, 0)" stroke="rgb(66, 66, 66)" stroke-width="1px" opacity="0.25"></line><line x1="206.125" y1="0" x2="206.125" y2="177" fill="rgb(0, 0, 0)" stroke="rgb(66, 66, 66)" stroke-width="1px" opacity="0.25"></line><line x1="231.890625" y1="0" x2="231.890625" y2="177" fill="rgb(0, 0, 0)" stroke="rgb(66, 66, 66)" stroke-width="1px" opacity="0.25"></line><line x1="257.65625" y1="0" x2="257.65625" y2="177" fill="rgb(0, 0, 0)" stroke="rgb(66, 66, 66)" stroke-width="1px" opacity="0.25"></line></g><g><line x1="0" y1="177" x2="257.65625" y2="177" fill="rgb(0, 0, 0)" stroke="rgb(66, 66, 66)" stroke-width="1px" opacity="0.25"></line><line x1="0" y1="162.25000070058738" x2="257.65625" y2="162.25000070058738" fill="rgb(0, 0, 0)" stroke="rgb(66, 66, 66)" stroke-width="1px" opacity="0.25"></line><line x1="0" y1="147.50000140117473" x2="257.65625" y2="147.50000140117473" fill="rgb(0, 0, 0)" stroke="rgb(66, 66, 66)" stroke-width="1px" opacity="0.25"></line><line x1="0" y1="132.75000210176213" x2="257.65625" y2="132.75000210176213" fill="rgb(0, 0, 0)" stroke="rgb(66, 66, 66)" stroke-width="1px" opacity="0.25"></line><line x1="0" y1="118.00000280234948" x2="257.65625" y2="118.00000280234948" fill="rgb(0, 0, 0)" stroke="rgb(66, 66, 66)" stroke-width="1px" opacity="0.25"></line><line x1="0" y1="103.25000350293686" x2="257.65625" y2="103.25000350293686" fill="rgb(0, 0, 0)" stroke="rgb(66, 66, 66)" stroke-width="1px" opacity="0.25"></line><line x1="0" y1="88.50000420352424" x2="257.65625" y2="88.50000420352424" fill="rgb(0, 0, 0)" stroke="rgb(66, 66, 66)" stroke-width="1px" opacity="0.25"></line><line x1="0" y1="73.75000490411162" x2="257.65625" y2="73.75000490411162" fill="rgb(0, 0, 0)" stroke="rgb(66, 66, 66)" stroke-width="1px" opacity="0.25"></line><line x1="0" y1="59.000005604698984" x2="257.65625" y2="59.000005604698984" fill="rgb(0, 0, 0)" stroke="rgb(66, 66, 66)" stroke-width="1px" opacity="0.25"></line><line x1="0" y1="44.25000630528637" x2="257.65625" y2="44.25000630528637" fill="rgb(0, 0, 0)" stroke="rgb(66, 66, 66)" stroke-width="1px" opacity="0.25"></line><line x1="0" y1="29.500007005873726" x2="257.65625" y2="29.500007005873726" fill="rgb(0, 0, 0)" stroke="rgb(66, 66, 66)" stroke-width="1px" opacity="0.25"></line><line x1="0" y1="14.750007706461108" x2="257.65625" y2="14.750007706461108" fill="rgb(0, 0, 0)" stroke="rgb(66, 66, 66)" stroke-width="1px" opacity="0.25"></line><line x1="0" y1="0.000008407048488034974" x2="257.65625" y2="0.000008407048488034974" fill="rgb(0, 0, 0)" stroke="rgb(66, 66, 66)" stroke-width="1px" opacity="0.25"></line></g></g></g><g><g><line x1="0" y1="177" x2="257.65625" y2="177" fill="rgb(0, 0, 0)" stroke="rgb(153, 153, 153)" stroke-width="1.5px"></line></g></g><g><g><line x1="25.765625" y1="0" x2="25.765625" y2="177" fill="rgb(0, 0, 0)" stroke="rgb(153, 153, 153)" stroke-width="1.5px"></line></g></g><g><g><g><g><g><path stroke="rgb(255, 112, 67)" stroke-width="2px" d="M26.820984999999997,88.5L27.876345,88.5L28.931705,88.5L29.987065,88.5L31.042425,88.5L32.097785,88.5L33.153145,88.5L34.208505,88.5L35.263865,88.5L36.319225,88.5L37.374584999999996,88.5L38.429945000000004,88.5L39.485305,88.5L40.540665000000004,88.5L41.596025,88.5L42.651385,88.5L43.706745,88.5L44.762105,88.5L45.817465000000006,88.5L46.872825,88.5L47.928185,88.5L48.983545,88.5L50.038905,88.5L51.094265,88.5L52.149625,88.5L53.204985,88.5L54.260345,88.5L55.315704999999994,88.5L56.371065,88.5L57.426425,88.5L58.481785,88.5L59.537145,88.5L60.592504999999996,88.5L61.647865,88.5L62.703224999999996,88.5L63.758585000000004,88.5L64.813945,88.5L65.869305,88.5L66.92466499999999,88.5L67.98002500000001,88.5L69.035385,88.5L70.090745,88.5L71.14610499999999,88.5L72.201465,88.5L73.256825,88.5L74.312185,88.5L75.36754499999999,88.5L76.422905,88.5L77.47826500000001,88.5L78.533625,88.5L79.58898500000001,88.5L80.644345,88.5L81.699705,88.5L82.755065,88.5L83.81042500000001,88.5L84.865785,88.5L85.921145,88.5L86.97650499999999,88.5L88.03186500000001,88.5L89.087225,88.5L90.142585,88.5L91.19794499999999,88.5L92.253305,88.5L93.308665,88.5L94.364025,88.5L95.419385,88.5L96.474745,88.5L97.53010499999999,88.5L98.585465,88.5L99.640825,88.5L100.696185,88.5L101.751545,88.5L102.80690499999999,88.5L103.86226500000001,88.5L104.917625,88.5L105.972985,88.5L107.028345,88.5L108.08370500000001,88.5L109.139065,88.5L110.194425,88.5L111.249785,88.5L112.305145,88.5L113.360505,88.5L114.415865,88.5L115.471225,88.5L116.526585,88.5L117.58194499999999,88.5L118.63730500000001,88.5L119.692665,88.5L120.748025,88.5L121.80338499999999,88.5L122.858745,88.5L123.914105,88.5L124.969465,88.5L126.02482499999999,88.5L127.080185,88.5L128.135545,88.5L129.190905,88.5L130.246265,88.5L131.301625,88.5L132.356985,88.5L133.41234500000002,88.5L134.467705,88.5L135.523065,88.5L136.578425,88.5L137.633785,88.5L138.689145,88.5L139.744505,88.5L140.79986499999998,88.5L141.85522500000002,88.5L142.910585,88.5L143.965945,88.5L145.021305,88.5L146.076665,88.5L147.132025,88.5L148.187385,88.5L149.24274499999999,88.5L150.298105,88.5L151.353465,88.5L152.408825,88.5L153.46418500000001,88.5L154.519545,88.5L155.574905,88.5L156.630265,88.5L157.685625,88.5L158.740985,88.5L159.796345,88.5L160.85170499999998,88.5L161.90706500000002,88.5L162.96242500000002,88.5L164.017785,88.5L165.073145,88.5L166.128505,88.5L167.183865,88.5L168.239225,88.5L169.29458499999998,88.5L170.349945,88.5L171.405305,88.5L172.460665,88.5L173.516025,88.5L174.57138500000002,88.5L175.626745,88.5L176.682105,88.5L177.737465,88.5L178.792825,88.5L179.848185,88.5L180.90354499999998,88.5L181.958905,88.5L183.01426500000002,88.5L184.069625,88.5L185.124985,88.5L186.18034500000002,88.5L187.235705,88.5L188.291065,88.5L189.34642499999998,88.5L190.401785,88.5L191.457145,88.5L192.512505,88.5L193.567865,88.5L194.62322500000002,88.5L195.678585,88.5L196.733945,88.5L197.789305,88.5L198.844665,88.5L199.900025,88.5L200.95538499999998,88.5L202.010745,88.5L203.06610500000002,88.5L204.121465,88.5L205.176825,88.5L206.23218500000002,88.5L207.287545,88.5L208.342905,88.5L209.398265,88.5L210.453625,88.5L211.508985,88.5L212.56434499999997,88.5L213.619705,88.5L214.67506500000002,88.5L215.730425,88.5L216.785785,88.5L217.841145,88.5L218.896505,88.5L219.951865,88.5L221.007225,88.5L222.06258499999998,88.5L223.11794500000002,88.5L224.173305,88.5L225.228665,88.5L226.284025,88.5L227.339385,88.5L228.394745,88.5L229.450105,88.5L230.505465,88.5L231.560825,88.5" style="fill: none;" fill="none"></path></g></g></g></g><g opacity="0.2"><g><g><g><path stroke="rgb(255, 112, 67)" stroke-width="2px" d="M26.820984999999997,88.5L27.876345,88.5L28.931705,88.5L29.987065,88.5L31.042425,88.5L32.097785,88.5L33.153145,88.5L34.208505,88.5L35.263865,88.5L36.319225,88.5L37.374584999999996,88.5L38.429945000000004,88.5L39.485305,88.5L40.540665000000004,88.5L41.596025,88.5L42.651385,88.5L43.706745,88.5L44.762105,88.5L45.817465000000006,88.5L46.872825,88.5L47.928185,88.5L48.983545,88.5L50.038905,88.5L51.094265,88.5L52.149625,88.5L53.204985,88.5L54.260345,88.5L55.315704999999994,88.5L56.371065,88.5L57.426425,88.5L58.481785,88.5L59.537145,88.5L60.592504999999996,88.5L61.647865,88.5L62.703224999999996,88.5L63.758585000000004,88.5L64.813945,88.5L65.869305,88.5L66.92466499999999,88.5L67.98002500000001,88.5L69.035385,88.5L70.090745,88.5L71.14610499999999,88.5L72.201465,88.5L73.256825,88.5L74.312185,88.5L75.36754499999999,88.5L76.422905,88.5L77.47826500000001,88.5L78.533625,88.5L79.58898500000001,88.5L80.644345,88.5L81.699705,88.5L82.755065,88.5L83.81042500000001,88.5L84.865785,88.5L85.921145,88.5L86.97650499999999,88.5L88.03186500000001,88.5L89.087225,88.5L90.142585,88.5L91.19794499999999,88.5L92.253305,88.5L93.308665,88.5L94.364025,88.5L95.419385,88.5L96.474745,88.5L97.53010499999999,88.5L98.585465,88.5L99.640825,88.5L100.696185,88.5L101.751545,88.5L102.80690499999999,88.5L103.86226500000001,88.5L104.917625,88.5L105.972985,88.5L107.028345,88.5L108.08370500000001,88.5L109.139065,88.5L110.194425,88.5L111.249785,88.5L112.305145,88.5L113.360505,88.5L114.415865,88.5L115.471225,88.5L116.526585,88.5L117.58194499999999,88.5L118.63730500000001,88.5L119.692665,88.5L120.748025,88.5L121.80338499999999,88.5L122.858745,88.5L123.914105,88.5L124.969465,88.5L126.02482499999999,88.5L127.080185,88.5L128.135545,88.5L129.190905,88.5L130.246265,88.5L131.301625,88.5L132.356985,88.5L133.41234500000002,88.5L134.467705,88.5L135.523065,88.5L136.578425,88.5L137.633785,88.5L138.689145,88.5L139.744505,88.5L140.79986499999998,88.5L141.85522500000002,88.5L142.910585,88.5L143.965945,88.5L145.021305,88.5L146.076665,88.5L147.132025,88.5L148.187385,88.5L149.24274499999999,88.5L150.298105,88.5L151.353465,88.5L152.408825,88.5L153.46418500000001,88.5L154.519545,88.5L155.574905,88.5L156.630265,88.5L157.685625,88.5L158.740985,88.5L159.796345,88.5L160.85170499999998,88.5L161.90706500000002,88.5L162.96242500000002,88.5L164.017785,88.5L165.073145,88.5L166.128505,88.5L167.183865,88.5L168.239225,88.5L169.29458499999998,88.5L170.349945,88.5L171.405305,88.5L172.460665,88.5L173.516025,88.5L174.57138500000002,88.5L175.626745,88.5L176.682105,88.5L177.737465,88.5L178.792825,88.5L179.848185,88.5L180.90354499999998,88.5L181.958905,88.5L183.01426500000002,88.5L184.069625,88.5L185.124985,88.5L186.18034500000002,88.5L187.235705,88.5L188.291065,88.5L189.34642499999998,88.5L190.401785,88.5L191.457145,88.5L192.512505,88.5L193.567865,88.5L194.62322500000002,88.5L195.678585,88.5L196.733945,88.5L197.789305,88.5L198.844665,88.5L199.900025,88.5L200.95538499999998,88.5L202.010745,88.5L203.06610500000002,88.5L204.121465,88.5L205.176825,88.5L206.23218500000002,88.5L207.287545,88.5L208.342905,88.5L209.398265,88.5L210.453625,88.5L211.508985,88.5L212.56434499999997,88.5L213.619705,88.5L214.67506500000002,88.5L215.730425,88.5L216.785785,88.5L217.841145,88.5L218.896505,88.5L219.951865,88.5L221.007225,88.5L222.06258499999998,88.5L223.11794500000002,88.5L224.173305,88.5L225.228665,88.5L226.284025,88.5L227.339385,88.5L228.394745,88.5L229.450105,88.5L230.505465,88.5L231.560825,88.5" style="fill: none;" fill="none"></path></g></g></g></g></g></g><g transform="translate(72, 177)" clip-path="url(#clip_1)"><clipPath id="clip_1"><rect width="257" height="23"></rect></clipPath><g><g><line x1="0" y1="0" x2="0" y2="5" style="visibility: inherit;" fill="rgb(0, 0, 0)" stroke="rgb(204, 204, 204)" stroke-width="1px"></line><line x1="25.765625" y1="0" x2="25.765625" y2="5" style="visibility: inherit;" fill="rgb(0, 0, 0)" stroke="rgb(204, 204, 204)" stroke-width="1px"></line><line x1="51.53125" y1="0" x2="51.53125" y2="5" style="visibility: inherit;" fill="rgb(0, 0, 0)" stroke="rgb(204, 204, 204)" stroke-width="1px"></line><line x1="77.296875" y1="0" x2="77.296875" y2="5" style="visibility: inherit;" fill="rgb(0, 0, 0)" stroke="rgb(204, 204, 204)" stroke-width="1px"></line><line x1="103.0625" y1="0" x2="103.0625" y2="5" style="visibility: inherit;" fill="rgb(0, 0, 0)" stroke="rgb(204, 204, 204)" stroke-width="1px"></line><line x1="128.828125" y1="0" x2="128.828125" y2="5" style="visibility: inherit;" fill="rgb(0, 0, 0)" stroke="rgb(204, 204, 204)" stroke-width="1px"></line><line x1="154.59375" y1="0" x2="154.59375" y2="5" style="visibility: inherit;" fill="rgb(0, 0, 0)" stroke="rgb(204, 204, 204)" stroke-width="1px"></line><line x1="180.359375" y1="0" x2="180.359375" y2="5" style="visibility: inherit;" fill="rgb(0, 0, 0)" stroke="rgb(204, 204, 204)" stroke-width="1px"></line><line x1="206.125" y1="0" x2="206.125" y2="5" style="visibility: inherit;" fill="rgb(0, 0, 0)" stroke="rgb(204, 204, 204)" stroke-width="1px"></line><line x1="231.890625" y1="0" x2="231.890625" y2="5" style="visibility: inherit;" fill="rgb(0, 0, 0)" stroke="rgb(204, 204, 204)" stroke-width="1px"></line><line x1="257.65625" y1="0" x2="257.65625" y2="5" style="visibility: inherit;" fill="rgb(0, 0, 0)" stroke="rgb(204, 204, 204)" stroke-width="1px"></line></g><g transform="translate(0, 8)"><text x="0" y="0" dx="0em" dy="0.95em" style="text-anchor: middle; visibility: hidden; font-family: Roboto, sans-serif; font-size: 12px; font-weight: 200;" fill="rgb(33, 33, 33)" stroke="none" stroke-width="1px">-500k</text><text x="25.765625" y="0" dx="0em" dy="0.95em" style="text-anchor: middle; visibility: inherit; font-family: Roboto, sans-serif; font-size: 12px; font-weight: 200;" fill="rgb(33, 33, 33)" stroke="none" stroke-width="1px">0</text><text x="51.53125" y="0" dx="0em" dy="0.95em" style="text-anchor: middle; visibility: hidden; font-family: Roboto, sans-serif; font-size: 12px; font-weight: 200;" fill="rgb(33, 33, 33)" stroke="none" stroke-width="1px">500k</text><text x="77.296875" y="0" dx="0em" dy="0.95em" style="text-anchor: middle; visibility: inherit; font-family: Roboto, sans-serif; font-size: 12px; font-weight: 200;" fill="rgb(33, 33, 33)" stroke="none" stroke-width="1px">1M</text><text x="103.0625" y="0" dx="0em" dy="0.95em" style="text-anchor: middle; visibility: hidden; font-family: Roboto, sans-serif; font-size: 12px; font-weight: 200;" fill="rgb(33, 33, 33)" stroke="none" stroke-width="1px">1.5M</text><text x="128.828125" y="0" dx="0em" dy="0.95em" style="text-anchor: middle; visibility: inherit; font-family: Roboto, sans-serif; font-size: 12px; font-weight: 200;" fill="rgb(33, 33, 33)" stroke="none" stroke-width="1px">2M</text><text x="154.59375" y="0" dx="0em" dy="0.95em" style="text-anchor: middle; visibility: hidden; font-family: Roboto, sans-serif; font-size: 12px; font-weight: 200;" fill="rgb(33, 33, 33)" stroke="none" stroke-width="1px">2.5M</text><text x="180.359375" y="0" dx="0em" dy="0.95em" style="text-anchor: middle; visibility: inherit; font-family: Roboto, sans-serif; font-size: 12px; font-weight: 200;" fill="rgb(33, 33, 33)" stroke="none" stroke-width="1px">3M</text><text x="206.125" y="0" dx="0em" dy="0.95em" style="text-anchor: middle; visibility: hidden; font-family: Roboto, sans-serif; font-size: 12px; font-weight: 200;" fill="rgb(33, 33, 33)" stroke="none" stroke-width="1px">3.5M</text><text x="231.890625" y="0" dx="0em" dy="0.95em" style="text-anchor: middle; visibility: inherit; font-family: Roboto, sans-serif; font-size: 12px; font-weight: 200;" fill="rgb(33, 33, 33)" stroke="none" stroke-width="1px">4M</text><text x="257.65625" y="0" dx="0em" dy="0.95em" style="text-anchor: middle; visibility: hidden; font-family: Roboto, sans-serif; font-size: 12px; font-weight: 200;" fill="rgb(33, 33, 33)" stroke="none" stroke-width="1px">4.5M</text></g><line x1="0" y1="0" x2="257.65625" y2="0" fill="rgb(0, 0, 0)" stroke="rgb(204, 204, 204)" stroke-width="1px"></line></g></g></g></g></svg>