<svg viewBox="0 0 330 200" xmlns="http://www.w3.org/2000/svg"><g><g><g><g><g><line x1="72.34375" y1="157.33333333333343" x2="67.34375" y2="157.33333333333343" style="visibility: inherit;" fill="rgb(0, 0, 0)" stroke="rgb(204, 204, 204)" stroke-width="1px"></line><line x1="72.34375" y1="137.6666666666667" x2="67.34375" y2="137.6666666666667" style="visibility: inherit;" fill="rgb(0, 0, 0)" stroke="rgb(204, 204, 204)" stroke-width="1px"></line><line x1="72.34375" y1="118.00000000000003" x2="67.34375" y2="118.00000000000003" style="visibility: inherit;" fill="rgb(0, 0, 0)" stroke="rgb(204, 204, 204)" stroke-width="1px"></line><line x1="72.34375" y1="98.33333333333334" x2="67.34375" y2="98.33333333333334" style="visibility: inherit;" fill="rgb(0, 0, 0)" stroke="rgb(204, 204, 204)" stroke-width="1px"></line><line x1="72.34375" y1="78.66666666666666" x2="67.34375" y2="78.66666666666666" style="visibility: inherit;" fill="rgb(0, 0, 0)" stroke="rgb(204, 204, 204)" stroke-width="1px"></line><line x1="72.34375" y1="59.00000000000003" x2="67.34375" y2="59.00000000000003" style="visibility: inherit;" fill="rgb(0, 0, 0)" stroke="rgb(204, 204, 204)" stroke-width="1px"></line><line x1="72.34375" y1="39.33333333333333" x2="67.34375" y2="39.33333333333333" style="visibility: inherit;" fill="rgb(0, 0, 0)" stroke="rgb(204, 204, 204)" stroke-width="1px"></line><line x1="72.34375" y1="19.666666666666636" x2="67.34375" y2="19.666666666666636" style="visibility: inherit;" fill="rgb(0, 0, 0)" stroke="rgb(204, 204, 204)" stroke-width="1px"></line><line x1="72.34375" y1="0" x2="67.34375" y2="0" style="visibility: inherit;" fill="rgb(0, 0, 0)" stroke="rgb(204, 204, 204)" stroke-width="1px"></line></g><g transform="translate(62.34375, 0)"><text x="0" y="157.33333333333343" dx="0em" dy="0.3em" style="text-anchor: end; visibility: inherit; font-family: Roboto, sans-serif; font-size: 12px; font-weight: 200;" fill="rgb(33, 33, 33)" stroke="none" stroke-width="1px">-0.14</text><text x="0" y="137.6666666666667" dx="0em" dy="0.3em" style="text-anchor: end; visibility: hidden; font-family: Roboto, sans-serif; font-size: 12px; font-weight: 200;" fill="rgb(33, 33, 33)" stroke="none" stroke-width="1px">-0.135</text><text x="0" y="118.00000000000003" dx="0em" dy="0.3em" style="text-anchor: end; visibility: inherit; font-family: Roboto, sans-serif; font-size: 12px; font-weight: 200;" fill="rgb(33, 33, 33)" stroke="none" stroke-width="1px">-0.13</text><text x="0" y="98.33333333333334" dx="0em" dy="0.3em" style="text-anchor: end; visibility: hidden; font-family: Roboto, sans-serif; font-size: 12px; font-weight: 200;" fill="rgb(33, 33, 33)" stroke="none" stroke-width="1px">-0.125</text><text x="0" y="78.66666666666666" dx="0em" dy="0.3em" style="text-anchor: end; visibility: inherit; font-family: Roboto, sans-serif; font-size: 12px; font-weight: 200;" fill="rgb(33, 33, 33)" stroke="none" stroke-width="1px">-0.12</text><text x="0" y="59.00000000000003" dx="0em" dy="0.3em" style="text-anchor: end; visibility: hidden; font-family: Roboto, sans-serif; font-size: 12px; font-weight: 200;" fill="rgb(33, 33, 33)" stroke="none" stroke-width="1px">-0.115</text><text x="0" y="39.33333333333333" dx="0em" dy="0.3em" style="text-anchor: end; visibility: inherit; font-family: Roboto, sans-serif; font-size: 12px; font-weight: 200;" fill="rgb(33, 33, 33)" stroke="none" stroke-width="1px">-0.11</text><text x="0" y="19.666666666666636" dx="0em" dy="0.3em" style="text-anchor: end; visibility: hidden; font-family: Roboto, sans-serif; font-size: 12px; font-weight: 200;" fill="rgb(33, 33, 33)" stroke="none" stroke-width="1px">-0.105</text><text x="0" y="0" dx="0em" dy="0.3em" style="text-anchor: end; visibility: hidden; font-family: Roboto, sans-serif; font-size: 12px; font-weight: 200;" fill="rgb(33, 33, 33)" stroke="none" stroke-width="1px">-0.1</text></g><line x1="72.34375" y1="0" x2="72.34375" y2="177" fill="rgb(0, 0, 0)" stroke="rgb(204, 204, 204)" stroke-width="1px"></line></g></g><g transform="translate(72, 0)" clip-path="url(#clip_0)"><clipPath id="clip_0"><rect width="257" height="177"></rect></clipPath><g><g><g><line x1="0" y1="0" x2="0" y2="177" fill="rgb(0, 0, 0)" stroke="rgb(66, 66, 66)" stroke-width="1px" opacity="0.25"></line><line x1="25.765625" y1="0" x2="25.765625" y2="177" fill="rgb(0, 0, 0)" stroke="rgb(66, 66, 66)" stroke-width="1px" opacity="0.25"></line><line x1="51.53125" y1="0" x2="51.53125" y2="177" fill="rgb(0, 0, 0)" stroke="rgb(66, 66, 66)" stroke-width="1px" opacity="0.25"></line><line x1="77.296875" y1="0" x2="77.296875" y2="177" fill="rgb(0, 0, 0)" stroke="rgb(66, 66, 66)" stroke-width="1px" opacity="0.25"></line><line x1="103.0625" y1="0" x2="103.0625" y2="177" fill="rgb(0, 0, 0)" stroke="rgb(66, 66, 66)" stroke-width="1px" opacity="0.25"></line><line x1="128.828125" y1="0" x2="128.828125" y2="177" fill="rgb(0, 0, 0)" stroke="rgb(66, 66, 66)" stroke-width="1px" opacity="0.25"></line><line x1="154.59375" y1="0" x2="154.59375" y2="177" fill="rgb(0, 0, 0)" stroke="rgb(66, 66, 66)" stroke-width="1px" opacity="0.25"></line><line x1="180.359375" y1="0" x2="180.359375" y2="177" fill="rgb(0, 0, 0)" stroke="rgb(66, 66, 66)" stroke-width="1px" opacity="0.25"></line><line x1="206.125" y1="0" x2="206.125" y2="177" fill="rgb(0, 0, 0)" stroke="rgb(66, 66, 66)" stroke-width="1px" opacity="0.25"></line><line x1="231.890625" y1="0" x2="231.890625" y2="177" fill="rgb(0, 0, 0)" stroke="rgb(66, 66, 66)" stroke-width="1px" opacity="0.25"></line><line x1="257.65625" y1="0" x2="257.65625" y2="177" fill="rgb(0, 0, 0)" stroke="rgb(66, 66, 66)" stroke-width="1px" opacity="0.25"></line></g><g><line x1="0" y1="157.33333333333343" x2="257.65625" y2="157.33333333333343" fill="rgb(0, 0, 0)" stroke="rgb(66, 66, 66)" stroke-width="1px" opacity="0.25"></line><line x1="0" y1="137.6666666666667" x2="257.65625" y2="137.6666666666667" fill="rgb(0, 0, 0)" stroke="rgb(66, 66, 66)" stroke-width="1px" opacity="0.25"></line><line x1="0" y1="118.00000000000003" x2="257.65625" y2="118.00000000000003" fill="rgb(0, 0, 0)" stroke="rgb(66, 66, 66)" stroke-width="1px" opacity="0.25"></line><line x1="0" y1="98.33333333333334" x2="257.65625" y2="98.33333333333334" fill="rgb(0, 0, 0)" stroke="rgb(66, 66, 66)" stroke-width="1px" opacity="0.25"></line><line x1="0" y1="78.66666666666666" x2="257.65625" y2="78.66666666666666" fill="rgb(0, 0, 0)" stroke="rgb(66, 66, 66)" stroke-width="1px" opacity="0.25"></line><line x1="0" y1="59.00000000000003" x2="257.65625" y2="59.00000000000003" fill="rgb(0, 0, 0)" stroke="rgb(66, 66, 66)" stroke-width="1px" opacity="0.25"></line><line x1="0" y1="39.33333333333333" x2="257.65625" y2="39.33333333333333" fill="rgb(0, 0, 0)" stroke="rgb(66, 66, 66)" stroke-width="1px" opacity="0.25"></line><line x1="0" y1="19.666666666666636" x2="257.65625" y2="19.666666666666636" fill="rgb(0, 0, 0)" stroke="rgb(66, 66, 66)" stroke-width="1px" opacity="0.25"></line><line x1="0" y1="0" x2="257.65625" y2="0" fill="rgb(0, 0, 0)" stroke="rgb(66, 66, 66)" stroke-width="1px" opacity="0.25"></line></g></g></g><g><g><line x1="0" y1="-393.3333333333335" x2="257.65625" y2="-393.3333333333335" fill="rgb(0, 0, 0)" stroke="rgb(153, 153, 153)" stroke-width="1.5px"></line></g></g><g><g><line x1="25.765625" y1="0" x2="25.765625" y2="177" fill="rgb(0, 0, 0)" stroke="rgb(153, 153, 153)" stroke-width="1.5px"></line></g></g><g><g><g><g><g><path stroke="rgb(255, 112, 67)" stroke-width="2px" d="M26.820984999999997,195.7879318793615L27.876345,160.9786467254162L28.931705,163.9976112128927L29.987065,192.10584486816444L31.042425,157.3754145984376L32.097785,145.38138031060564L33.153145,158.46257848161392L34.208505,142.58768374661207L35.263865,134.55681841310067L36.319225,121.97017368141944L37.374584999999996,129.29307204288713L38.429945000000004,109.37295464108988L39.485305,103.7476191850432L40.540665000000004,101.98820239150912L41.596025,93.75464978230939L42.651385,93.09549902616098L43.706745,101.17048611252757L44.762105,119.23669484616217L45.817465000000006,108.54997821575277L46.872825,106.69076051387057L47.928185,111.8837389053525L48.983545,122.82823516023339L50.038905,120.72267748915486L51.094265,136.5766110899888L52.149625,122.56915275773869L53.204985,119.40012548912654L54.260345,113.46278577067194L55.315704999999994,96.58437416992703L56.371065,108.03246526157393L57.426425,125.64590757003799L58.481785,143.90273382981215L59.537145,136.99310715074967L60.592504999999996,127.90912379205088L61.647865,126.13009497023602L62.703224999999996,139.43560609939715L63.758585000000004,120.59745043788799L64.813945,120.0283607424313L65.869305,105.79125001196574L66.92466499999999,109.39014837449615L67.98002500000001,101.98205914285434L69.035385,83.15778333139593L70.090745,101.3961644152682L71.14610499999999,109.72855491758853L72.201465,111.27698320170126L73.256825,134.7856898611577L74.312185,119.96618780435826L75.36754499999999,127.19837844165426L76.422905,126.43047400190062L77.47826500000001,111.78472253386492L78.533625,107.91056934614419L79.58898500000001,81.60311069248935L80.644345,89.13134761350847L81.699705,94.79723406453428L82.755065,91.57407160174205L83.81042500000001,85.97621005120338L84.865785,74.59982797309804L85.921145,96.55723725640304L86.97650499999999,79.5113320045658L88.03186500000001,74.92550696291413L89.087225,66.82148165717413L90.142585,71.5140456788622L91.19794499999999,89.01876673099723L92.253305,84.17150472599651L93.308665,79.25347380835838L94.364025,76.9238288382631L95.419385,74.37428421854624L96.474745,48.66773991036198L97.53010499999999,54.710834234443L98.585465,64.69177798995577L99.640825,58.64062382719442L100.696185,66.21812244618847L101.751545,71.44307009596574L102.80690499999999,56.861433419896876L103.86226500000001,54.333776017018344L104.917625,61.71485923527966L105.972985,71.83700443982654L107.028345,75.50391357151416L108.08370500000001,54.74243995154548L109.139065,63.91171791119171L110.194425,60.81936560847042L111.249785,73.80709685550737L112.305145,70.55162348945903L113.360505,85.34159969449027L114.415865,81.19404477572427L115.471225,53.826590315675624L116.526585,60.54541083346359L117.58194499999999,65.23209396305016L118.63730500000001,66.25160819273589L119.692665,82.70323717185694L120.748025,91.62686946146994L121.80338499999999,76.78182408503676L122.858745,85.96495496407339L123.914105,89.00293986305711L124.969465,95.43011212530804L126.02482499999999,93.54331166058623L127.080185,95.09799379414228L128.135545,92.10125977777983L129.190905,84.09113189568247L130.246265,71.67101042066095L131.301625,80.60798662857663L132.356985,97.61322365973264L133.41234500000002,63.06346507931078L134.467705,75.35039650637503L135.523065,86.78118404093544L136.578425,65.64720080103373L137.633785,61.10274175289808L138.689145,55.37059946547075L139.744505,61.648974639317125L140.79986499999998,67.7995427978878L141.85522500000002,87.79318455057411L142.910585,81.28786613462606L143.965945,87.2253020003532L145.021305,75.94935667882928L146.076665,81.38704696717205L147.132025,76.8145817086439L148.187385,68.83816263469107L149.24274499999999,53.34796568587651L150.298105,50.224825069319586L151.353465,48.542599434660694L152.408825,55.01565624575226L153.46418500000001,61.45224401931216L154.519545,39.9305972829277L155.574905,62.841311258563245L156.630265,58.69549995411765L157.685625,52.117511704063425L158.740985,62.28848875035604L159.796345,45.00475887737531L160.85170499999998,42.16826830873007L161.90706500000002,35.012235251481016L162.96242500000002,40.083881779957615L164.017785,42.5238187101178L165.073145,30.85557049433543L166.128505,37.98820487213229L167.183865,32.98784537048396L168.239225,33.32941951114691L169.29458499999998,63.85806986744458L170.349945,68.55685779882619L171.405305,57.51408137539907L172.460665,67.57639363006683L173.516025,74.02518495676478L174.57138500000002,86.10632736339704L175.626745,79.17139895074293L176.682105,81.9176351665222L177.737465,73.25030376347489L178.792825,57.524687070643374L179.848185,42.76654955883552L180.90354499999998,40.498772643842614L181.958905,43.23882976144849L183.01426500000002,45.21216538928135L184.069625,57.40217256972507L185.124985,55.28330831783598L186.18034500000002,33.635829423214474L187.235705,36.9131903654409L188.291065,46.59405272043186L189.34642499999998,63.80162287256978L190.401785,56.37612785002705L191.457145,60.37067177952003L192.512505,53.413736798727584L193.567865,31.90161083839181L194.62322500000002,32.064030893853385L195.678585,20.95026747080349L196.733945,19.997214291648003L197.789305,8.506156373514255L198.844665,12.905859531060987L199.900025,14.011333096680719L200.95538499999998,26.167658950085094L202.010745,31.632338515040068L203.06610500000002,33.55871547328436L204.121465,32.447189504307495L205.176825,31.816870777449182L206.23218500000002,42.068237111155895L207.287545,38.6931723228204L208.342905,18.030921530988266L209.398265,14.247933732827383L210.453625,22.494696164544376L211.508985,22.86116034850432L212.56434499999997,15.324463314205158L213.619705,11.683102329406982L214.67506500000002,21.431509542366154L215.730425,24.360577357550635L216.785785,59.95484611952717L217.841145,48.07676284450938L218.896505,29.93247788511904L219.951865,17.73381238001498L221.007225,5.709057041910758L222.06258499999998,9.102169030253556L223.11794500000002,10.330432029571831L224.173305,8.64298302253485L225.228665,13.571993023080042L226.284025,4.586410587979809L227.339385,27.858803073140088L228.394745,54.786738753063794L229.450105,34.82651925071673L230.505465,24.259835338500725L231.560825,29.874734951599972" style="fill: none;" fill="none"></path></g></g></g></g><g opacity="0.2"><g><g><g><path stroke="rgb(255, 112, 67)" stroke-width="2px" d="M26.820984999999997,195.7879318793615L27.876345,140.09307563304904L28.931705,166.89581712087L29.987065,225.16112764676419L31.042425,112.03136483828229L32.097785,128.78931303819022L33.153145,177.16890116532647L34.208505,119.44193482398988L35.263865,122.71285196145378L36.319225,103.28047315279645L37.374584999999996,140.21100143591568L38.429945000000004,79.60118293762207L39.485305,95.32798369725546L40.540665000000004,99.35252408186595L41.596025,81.41399910052618L42.651385,92.10723777612051L43.706745,113.27954967816672L44.762105,146.33142093817395L45.817465000000006,92.52153128385544L46.872825,103.90210390090942L47.928185,119.67292169729869L48.983545,139.2446194092433L50.038905,117.5643825531006L51.094265,160.3573236862819L52.149625,101.55806481838228L53.204985,114.64659810066226L54.260345,104.55679138501486L55.315704999999994,71.26678268114726L56.371065,125.20459135373436L57.426425,152.06606129805252L58.481785,171.28796716531122L59.537145,126.62866850694023L60.592504999999996,114.2831498384476L61.647865,123.46155186494194L62.703224999999996,159.39387222131097L63.758585000000004,92.34021743138632L64.813945,119.17472620805107L65.869305,84.43558404843013L66.92466499999999,114.7884958982468L67.98002500000001,90.86992532014847L69.035385,54.92136965195337L70.090745,128.75373601913455L71.14610499999999,122.22714066505434L72.201465,113.59962562719983L73.256825,170.0487498442332L74.312185,97.73693472146988L75.36754499999999,138.04666439692184L76.422905,125.27861734231315L77.47826500000001,89.81609533230464L78.533625,102.09933956464134L79.58898500000001,42.14192271232604L80.644345,100.42370299498242L81.699705,103.29606374104819L82.755065,86.73932790756226L83.81042500000001,77.57941772540411L84.865785,57.53525485595067L85.921145,129.4933511813482L86.97650499999999,53.942474126815796L88.03186500000001,68.04676940043767L89.087225,54.66544369856517L90.142585,78.552891711394L91.19794499999999,115.27584830919903L92.253305,76.90061171849568L93.308665,71.87642743190129L94.364025,73.42936138312021L95.419385,70.54996728897095L96.474745,10.107923448085765L97.53010499999999,63.775475720564536L98.585465,79.6631936232249L99.640825,49.563892583052315L100.696185,77.58437037467957L101.751545,79.28049157063167L102.80690499999999,34.988978405793496L103.86226500000001,50.54228991270064L104.917625,72.78648406267166L105.972985,87.02022224664688L107.028345,81.00427726904553L108.08370500000001,23.60022952159245L109.139065,77.66563485066096L110.194425,56.18083715438842L111.249785,93.28869372606279L112.305145,65.66841344038646L113.360505,107.52656400203706L114.415865,74.97271239757538L115.471225,12.775408625602696L116.526585,70.62364161014557L117.58194499999999,72.26211865743002L118.63730500000001,67.7808795372645L119.692665,107.38068064053856L120.748025,105.01231789588931L121.80338499999999,54.51425602038701L122.858745,99.73965128262839L123.914105,93.55991721153259L124.969465,105.07087051868442L126.02482499999999,90.71311096350352L127.080185,97.43001699447635L128.135545,87.60615875323614L129.190905,72.07594007253647L130.246265,53.0408282081286L131.301625,94.01345094045004L132.356985,123.12107920646669L133.41234500000002,11.238827208677904L134.467705,93.78079364697139L135.523065,103.927365342776L136.578425,33.94622594118116L137.633785,54.28605318069457L138.689145,46.77238603432973L139.744505,71.06653740008673L140.79986499999998,77.02539503574371L141.85522500000002,117.7836471796036L142.910585,71.52988851070404L143.965945,96.13145579894386L145.021305,59.03543869654337L146.076665,89.54358239968619L147.132025,69.95588382085165L148.187385,56.87353402376175L149.24274499999999,30.112670262654607L150.298105,45.5401141444842L151.353465,46.019260982672364L152.408825,64.72524146238963L153.46418500000001,71.1071256796519L154.519545,7.648127178351061L155.574905,97.20738222201666L156.630265,52.476782997449234L157.685625,42.250529328982026L158.740985,77.54495431979497L159.796345,19.079164067904138L160.85170499999998,37.91353245576222L161.90706500000002,24.27818566560743L162.96242500000002,47.69135157267253L164.017785,46.183724105358124L165.073145,13.353198170661914L166.128505,48.68715643882751L167.183865,25.48730611801146L168.239225,33.841780722141245L169.29458499999998,109.6510454018911L170.349945,75.60503969589868L171.405305,40.94991674025852L172.460665,82.66986201206845L173.516025,83.69837194681168L174.57138500000002,104.22804097334546L175.626745,68.76900633176169L176.682105,86.03698949019115L177.737465,60.24930665890376L178.792825,33.93626203139622L179.848185,20.6293432911237L180.90354499999998,37.097107271353394L181.958905,47.34891543785731L183.01426500000002,48.17216883103053L184.069625,75.68718334039053L185.124985,52.10501194000243L186.18034500000002,1.1646110812822736L187.235705,41.829231778780624L188.291065,61.115346252918236L189.34642499999998,89.61297810077667L190.401785,45.23788531621297L191.457145,66.36248767375946L192.512505,42.9783343275388L193.567865,-0.3665781021118295L194.62322500000002,32.307660977045686L195.678585,4.279622336228673L196.733945,18.56763452291488L197.789305,-8.730430503686286L198.844665,19.505414267381017L199.900025,15.669543445110294L200.95538499999998,44.40214773019154L202.010745,39.82935786247253L203.06610500000002,36.44828091065088L204.121465,30.779900550842264L205.176825,30.871392687161762L206.23218500000002,57.44528661171595L207.287545,33.63057514031727L208.342905,-12.962454656759906L209.398265,8.573452035586023L210.453625,34.8648398121198L211.508985,23.410856624444317L212.56434499999997,4.019417762756321L213.619705,6.2210608522097095L214.67506500000002,36.05412036180496L215.730425,28.754179080327344L216.785785,113.34624926249188L217.841145,30.259637931982667L218.896505,2.7160504460334582L219.951865,-0.5641858776410595L221.007225,-12.328075965245608L222.06258499999998,14.191837012767772L223.11794500000002,12.172826528549175L224.173305,6.111809511979399L225.228665,20.96550802389779L226.284025,-8.89196306467059L227.339385,62.76739180088044L228.394745,95.17864227294922L229.450105,4.886189997196178L230.505465,8.40980947017667L231.560825,38.297084371248864" style="fill: none;" fill="none"></path></g></g></g></g></g></g><g transform="translate(72, 177)" clip-path="url(#clip_1)"><clipPath id="clip_1"><rect width="257" height="23"></rect></clipPath><g><g><line x1="0" y1="0" x2="0" y2="5" style="visibility: inherit;" fill="rgb(0, 0, 0)" stroke="rgb(204, 204, 204)" stroke-width="1px"></line><line x1="25.765625" y1="0" x2="25.765625" y2="5" style="visibility: inherit;" fill="rgb(0, 0, 0)" stroke="rgb(204, 204, 204)" stroke-width="1px"></line><line x1="51.53125" y1="0" x2="51.53125" y2="5" style="visibility: inherit;" fill="rgb(0, 0, 0)" stroke="rgb(204, 204, 204)" stroke-width="1px"></line><line x1="77.296875" y1="0" x2="77.296875" y2="5" style="visibility: inherit;" fill="rgb(0, 0, 0)" stroke="rgb(204, 204, 204)" stroke-width="1px"></line><line x1="103.0625" y1="0" x2="103.0625" y2="5" style="visibility: inherit;" fill="rgb(0, 0, 0)" stroke="rgb(204, 204, 204)" stroke-width="1px"></line><line x1="128.828125" y1="0" x2="128.828125" y2="5" style="visibility: inherit;" fill="rgb(0, 0, 0)" stroke="rgb(204, 204, 204)" stroke-width="1px"></line><line x1="154.59375" y1="0" x2="154.59375" y2="5" style="visibility: inherit;" fill="rgb(0, 0, 0)" stroke="rgb(204, 204, 204)" stroke-width="1px"></line><line x1="180.359375" y1="0" x2="180.359375" y2="5" style="visibility: inherit;" fill="rgb(0, 0, 0)" stroke="rgb(204, 204, 204)" stroke-width="1px"></line><line x1="206.125" y1="0" x2="206.125" y2="5" style="visibility: inherit;" fill="rgb(0, 0, 0)" stroke="rgb(204, 204, 204)" stroke-width="1px"></line><line x1="231.890625" y1="0" x2="231.890625" y2="5" style="visibility: inherit;" fill="rgb(0, 0, 0)" stroke="rgb(204, 204, 204)" stroke-width="1px"></line><line x1="257.65625" y1="0" x2="257.65625" y2="5" style="visibility: inherit;" fill="rgb(0, 0, 0)" stroke="rgb(204, 204, 204)" stroke-width="1px"></line></g><g transform="translate(0, 8)"><text x="0" y="0" dx="0em" dy="0.95em" style="text-anchor: middle; visibility: hidden; font-family: Roboto, sans-serif; font-size: 12px; font-weight: 200;" fill="rgb(33, 33, 33)" stroke="none" stroke-width="1px">-500k</text><text x="25.765625" y="0" dx="0em" dy="0.95em" style="text-anchor: middle; visibility: inherit; font-family: Roboto, sans-serif; font-size: 12px; font-weight: 200;" fill="rgb(33, 33, 33)" stroke="none" stroke-width="1px">0</text><text x="51.53125" y="0" dx="0em" dy="0.95em" style="text-anchor: middle; visibility: hidden; font-family: Roboto, sans-serif; font-size: 12px; font-weight: 200;" fill="rgb(33, 33, 33)" stroke="none" stroke-width="1px">500k</text><text x="77.296875" y="0" dx="0em" dy="0.95em" style="text-anchor: middle; visibility: inherit; font-family: Roboto, sans-serif; font-size: 12px; font-weight: 200;" fill="rgb(33, 33, 33)" stroke="none" stroke-width="1px">1M</text><text x="103.0625" y="0" dx="0em" dy="0.95em" style="text-anchor: middle; visibility: hidden; font-family: Roboto, sans-serif; font-size: 12px; font-weight: 200;" fill="rgb(33, 33, 33)" stroke="none" stroke-width="1px">1.5M</text><text x="128.828125" y="0" dx="0em" dy="0.95em" style="text-anchor: middle; visibility: inherit; font-family: Roboto, sans-serif; font-size: 12px; font-weight: 200;" fill="rgb(33, 33, 33)" stroke="none" stroke-width="1px">2M</text><text x="154.59375" y="0" dx="0em" dy="0.95em" style="text-anchor: middle; visibility: hidden; font-family: Roboto, sans-serif; font-size: 12px; font-weight: 200;" fill="rgb(33, 33, 33)" stroke="none" stroke-width="1px">2.5M</text><text x="180.359375" y="0" dx="0em" dy="0.95em" style="text-anchor: middle; visibility: inherit; font-family: Roboto, sans-serif; font-size: 12px; font-weight: 200;" fill="rgb(33, 33, 33)" stroke="none" stroke-width="1px">3M</text><text x="206.125" y="0" dx="0em" dy="0.95em" style="text-anchor: middle; visibility: hidden; font-family: Roboto, sans-serif; font-size: 12px; font-weight: 200;" fill="rgb(33, 33, 33)" stroke="none" stroke-width="1px">3.5M</text><text x="231.890625" y="0" dx="0em" dy="0.95em" style="text-anchor: middle; visibility: inherit; font-family: Roboto, sans-serif; font-size: 12px; font-weight: 200;" fill="rgb(33, 33, 33)" stroke="none" stroke-width="1px">4M</text><text x="257.65625" y="0" dx="0em" dy="0.95em" style="text-anchor: middle; visibility: hidden; font-family: Roboto, sans-serif; font-size: 12px; font-weight: 200;" fill="rgb(33, 33, 33)" stroke="none" stroke-width="1px">4.5M</text></g><line x1="0" y1="0" x2="257.65625" y2="0" fill="rgb(0, 0, 0)" stroke="rgb(204, 204, 204)" stroke-width="1px"></line></g></g></g></g></svg>